G04*
G04 #@! TF.GenerationSoftware,Altium Limited,Altium Designer,19.1.7 (138)*
G04*
G04 Layer_Physical_Order=2*
G04 Layer_Color=16711680*
%FSLAX25Y25*%
%MOIN*%
G70*
G01*
G75*
%ADD12C,0.01000*%
%ADD25C,0.05906*%
%ADD26R,0.05906X0.05906*%
%ADD27R,0.06693X0.06693*%
%ADD28C,0.06693*%
%ADD29C,0.03200*%
G36*
X97175Y-63674D02*
X1326D01*
Y-55344D01*
X1825Y-55174D01*
X2043Y-55457D01*
X2909Y-56122D01*
X3918Y-56540D01*
X5000Y-56682D01*
X6082Y-56540D01*
X7091Y-56122D01*
X7957Y-55457D01*
X8622Y-54591D01*
X9040Y-53582D01*
X9182Y-52500D01*
X9040Y-51418D01*
X8622Y-50409D01*
X7957Y-49543D01*
X7091Y-48878D01*
X6082Y-48460D01*
X5000Y-48318D01*
X3918Y-48460D01*
X2909Y-48878D01*
X2043Y-49543D01*
X1825Y-49826D01*
X1326Y-49656D01*
Y-45344D01*
X1825Y-45174D01*
X2043Y-45457D01*
X2909Y-46122D01*
X3918Y-46540D01*
X5000Y-46682D01*
X6082Y-46540D01*
X7091Y-46122D01*
X7957Y-45457D01*
X8622Y-44591D01*
X9040Y-43582D01*
X9182Y-42500D01*
X9040Y-41418D01*
X8622Y-40409D01*
X7957Y-39543D01*
X7091Y-38878D01*
X6082Y-38460D01*
X5000Y-38318D01*
X3918Y-38460D01*
X2909Y-38878D01*
X2043Y-39543D01*
X1825Y-39826D01*
X1326Y-39656D01*
Y-35344D01*
X1825Y-35174D01*
X2043Y-35457D01*
X2909Y-36122D01*
X3918Y-36540D01*
X5000Y-36682D01*
X6082Y-36540D01*
X7091Y-36122D01*
X7957Y-35457D01*
X8622Y-34591D01*
X9040Y-33582D01*
X9182Y-32500D01*
X9040Y-31418D01*
X8622Y-30409D01*
X7957Y-29543D01*
X7091Y-28878D01*
X6082Y-28460D01*
X5000Y-28318D01*
X3918Y-28460D01*
X2909Y-28878D01*
X2043Y-29543D01*
X1825Y-29826D01*
X1326Y-29656D01*
Y-25629D01*
X1799Y-25468D01*
X1900Y-25600D01*
X2808Y-26297D01*
X3865Y-26735D01*
X4500Y-26818D01*
Y-22500D01*
Y-18182D01*
X3865Y-18265D01*
X2808Y-18703D01*
X1900Y-19400D01*
X1799Y-19532D01*
X1326Y-19371D01*
Y-15344D01*
X1825Y-15174D01*
X2043Y-15457D01*
X2909Y-16122D01*
X3918Y-16540D01*
X5000Y-16682D01*
X6082Y-16540D01*
X7091Y-16122D01*
X7957Y-15457D01*
X8622Y-14591D01*
X9040Y-13582D01*
X9182Y-12500D01*
X9040Y-11418D01*
X8622Y-10409D01*
X7957Y-9543D01*
X7091Y-8878D01*
X6082Y-8460D01*
X5000Y-8318D01*
X3918Y-8460D01*
X2909Y-8878D01*
X2043Y-9543D01*
X1825Y-9826D01*
X1326Y-9656D01*
Y-1326D01*
X14647D01*
X14838Y-1787D01*
X14063Y-2563D01*
X13775Y-2993D01*
X13675Y-3500D01*
Y-8354D01*
X10853D01*
Y-16646D01*
X19146D01*
Y-8354D01*
X16326D01*
Y-4049D01*
X17049Y-3325D01*
X77951D01*
X78675Y-4049D01*
Y-25951D01*
X77468Y-27157D01*
X76970Y-27128D01*
X76730Y-26770D01*
X75936Y-26239D01*
X75000Y-26053D01*
X74064Y-26239D01*
X73270Y-26770D01*
X72739Y-27564D01*
X72553Y-28500D01*
X72739Y-29436D01*
X73270Y-30230D01*
X74064Y-30761D01*
X75000Y-30947D01*
X75936Y-30761D01*
X76730Y-30230D01*
X77001Y-29825D01*
X78000D01*
X78507Y-29725D01*
X78937Y-29437D01*
X80937Y-27437D01*
X81225Y-27007D01*
X81326Y-26500D01*
Y-3500D01*
X81225Y-2993D01*
X80937Y-2563D01*
X80162Y-1787D01*
X80353Y-1326D01*
X97175D01*
Y-63674D01*
D02*
G37*
%LPC*%
G36*
X15500Y-18182D02*
Y-22000D01*
X19318D01*
X19235Y-21365D01*
X18797Y-20308D01*
X18100Y-19400D01*
X17192Y-18703D01*
X16135Y-18265D01*
X15500Y-18182D01*
D02*
G37*
G36*
X5500D02*
Y-22000D01*
X9318D01*
X9235Y-21365D01*
X8797Y-20308D01*
X8100Y-19400D01*
X7192Y-18703D01*
X6135Y-18265D01*
X5500Y-18182D01*
D02*
G37*
G36*
X14500D02*
X13865Y-18265D01*
X12808Y-18703D01*
X11900Y-19400D01*
X11203Y-20308D01*
X10765Y-21365D01*
X10682Y-22000D01*
X14500D01*
Y-18182D01*
D02*
G37*
G36*
X19318Y-23000D02*
X15500D01*
Y-26818D01*
X16135Y-26735D01*
X17192Y-26297D01*
X18100Y-25600D01*
X18797Y-24692D01*
X19235Y-23635D01*
X19318Y-23000D01*
D02*
G37*
G36*
X9318D02*
X5500D01*
Y-26818D01*
X6135Y-26735D01*
X7192Y-26297D01*
X8100Y-25600D01*
X8797Y-24692D01*
X9235Y-23635D01*
X9318Y-23000D01*
D02*
G37*
G36*
X14500D02*
X10682D01*
X10765Y-23635D01*
X11203Y-24692D01*
X11900Y-25600D01*
X12808Y-26297D01*
X13865Y-26735D01*
X14500Y-26818D01*
Y-23000D01*
D02*
G37*
G36*
X15000Y-28318D02*
X13918Y-28460D01*
X12909Y-28878D01*
X12043Y-29543D01*
X11378Y-30409D01*
X10960Y-31418D01*
X10818Y-32500D01*
X10960Y-33582D01*
X11378Y-34591D01*
X12043Y-35457D01*
X12909Y-36122D01*
X13918Y-36540D01*
X15000Y-36682D01*
X16082Y-36540D01*
X17091Y-36122D01*
X17957Y-35457D01*
X18622Y-34591D01*
X19040Y-33582D01*
X19182Y-32500D01*
X19040Y-31418D01*
X18622Y-30409D01*
X17957Y-29543D01*
X17091Y-28878D01*
X16082Y-28460D01*
X15000Y-28318D01*
D02*
G37*
G36*
X70501Y-34354D02*
X62208D01*
Y-42646D01*
X70501D01*
Y-34354D01*
D02*
G37*
G36*
X35213Y-38747D02*
X27708D01*
Y-46253D01*
X35213D01*
Y-38747D01*
D02*
G37*
G36*
X41461Y-6092D02*
X40524Y-6279D01*
X39730Y-6809D01*
X39200Y-7603D01*
X39013Y-8539D01*
X39200Y-9476D01*
X39730Y-10270D01*
X40135Y-10540D01*
Y-38987D01*
X39568Y-39222D01*
X38784Y-39823D01*
X38183Y-40607D01*
X37804Y-41520D01*
X37675Y-42500D01*
X37804Y-43480D01*
X38183Y-44393D01*
X38784Y-45177D01*
X39568Y-45778D01*
X40481Y-46156D01*
X41461Y-46285D01*
X42440Y-46156D01*
X43353Y-45778D01*
X44137Y-45177D01*
X44739Y-44393D01*
X45117Y-43480D01*
X45246Y-42500D01*
X45117Y-41520D01*
X44739Y-40607D01*
X44137Y-39823D01*
X43353Y-39222D01*
X42786Y-38987D01*
Y-10540D01*
X43191Y-10270D01*
X43721Y-9476D01*
X43908Y-8539D01*
X43721Y-7603D01*
X43191Y-6809D01*
X42397Y-6279D01*
X41461Y-6092D01*
D02*
G37*
G36*
X15000Y-38318D02*
X13918Y-38460D01*
X12909Y-38878D01*
X12043Y-39543D01*
X11378Y-40409D01*
X10960Y-41418D01*
X10818Y-42500D01*
X10960Y-43582D01*
X11378Y-44591D01*
X12043Y-45457D01*
X12909Y-46122D01*
X13918Y-46540D01*
X15000Y-46682D01*
X16082Y-46540D01*
X17091Y-46122D01*
X17957Y-45457D01*
X18622Y-44591D01*
X19040Y-43582D01*
X19182Y-42500D01*
X19040Y-41418D01*
X18622Y-40409D01*
X17957Y-39543D01*
X17091Y-38878D01*
X16082Y-38460D01*
X15000Y-38318D01*
D02*
G37*
G36*
X57500Y-33053D02*
X56564Y-33239D01*
X55770Y-33770D01*
X55239Y-34564D01*
X55053Y-35500D01*
X55239Y-36436D01*
X55770Y-37230D01*
X56174Y-37501D01*
Y-47000D01*
X56275Y-47507D01*
X56563Y-47937D01*
X58063Y-49437D01*
X58493Y-49725D01*
X59000Y-49826D01*
X62415D01*
X62732Y-50591D01*
X63397Y-51457D01*
X64263Y-52122D01*
X65272Y-52540D01*
X66354Y-52682D01*
X67437Y-52540D01*
X68445Y-52122D01*
X69312Y-51457D01*
X69976Y-50591D01*
X70394Y-49582D01*
X70537Y-48500D01*
X70394Y-47418D01*
X69976Y-46409D01*
X69312Y-45543D01*
X68445Y-44878D01*
X67437Y-44460D01*
X66354Y-44318D01*
X65272Y-44460D01*
X64263Y-44878D01*
X63397Y-45543D01*
X62732Y-46409D01*
X62415Y-47175D01*
X59549D01*
X58825Y-46451D01*
Y-37501D01*
X59230Y-37230D01*
X59761Y-36436D01*
X59947Y-35500D01*
X59761Y-34564D01*
X59230Y-33770D01*
X58436Y-33239D01*
X57500Y-33053D01*
D02*
G37*
G36*
X15000Y-48318D02*
X13918Y-48460D01*
X12909Y-48878D01*
X12043Y-49543D01*
X11378Y-50409D01*
X10960Y-51418D01*
X10818Y-52500D01*
X10960Y-53582D01*
X11378Y-54591D01*
X12043Y-55457D01*
X12909Y-56122D01*
X13918Y-56540D01*
X15000Y-56682D01*
X16082Y-56540D01*
X17091Y-56122D01*
X17957Y-55457D01*
X18622Y-54591D01*
X19040Y-53582D01*
X19182Y-52500D01*
X19040Y-51418D01*
X18622Y-50409D01*
X17957Y-49543D01*
X17091Y-48878D01*
X16082Y-48460D01*
X15000Y-48318D01*
D02*
G37*
G36*
X66854Y-54182D02*
Y-58000D01*
X70673D01*
X70589Y-57365D01*
X70151Y-56308D01*
X69454Y-55400D01*
X68546Y-54703D01*
X67489Y-54265D01*
X66854Y-54182D01*
D02*
G37*
G36*
X65854D02*
X65220Y-54265D01*
X64162Y-54703D01*
X63254Y-55400D01*
X62558Y-56308D01*
X62120Y-57365D01*
X62036Y-58000D01*
X65854D01*
Y-54182D01*
D02*
G37*
G36*
X70673Y-59000D02*
X66854D01*
Y-62818D01*
X67489Y-62735D01*
X68546Y-62297D01*
X69454Y-61600D01*
X70151Y-60692D01*
X70589Y-59635D01*
X70673Y-59000D01*
D02*
G37*
G36*
X65854D02*
X62036D01*
X62120Y-59635D01*
X62558Y-60692D01*
X63254Y-61600D01*
X64162Y-62297D01*
X65220Y-62735D01*
X65854Y-62818D01*
Y-59000D01*
D02*
G37*
%LPD*%
D12*
X41461Y-42500D02*
Y-8539D01*
X41500Y-8500D01*
X78500Y-2000D02*
X80000Y-3500D01*
Y-26500D02*
Y-3500D01*
X78000Y-28500D02*
X80000Y-26500D01*
X75000Y-28500D02*
X78000D01*
X15000Y-12500D02*
Y-3500D01*
X16500Y-2000D01*
X78500D01*
X57500Y-47000D02*
Y-35500D01*
Y-47000D02*
X59000Y-48500D01*
X66354D01*
D25*
X41461Y-42500D02*
D03*
D26*
X31461D02*
D03*
D27*
X66354Y-38500D02*
D03*
X15000Y-12500D02*
D03*
D28*
X66354Y-48500D02*
D03*
Y-58500D02*
D03*
X5000Y-52500D02*
D03*
Y-42500D02*
D03*
Y-32500D02*
D03*
Y-22500D02*
D03*
Y-12500D02*
D03*
X15000Y-22500D02*
D03*
Y-32500D02*
D03*
Y-42500D02*
D03*
Y-52500D02*
D03*
D29*
X41461Y-8539D02*
D03*
X75000Y-28500D02*
D03*
X57500Y-35500D02*
D03*
X5000Y-61500D02*
D03*
X11000D02*
D03*
X17000D02*
D03*
X20000Y-55500D02*
D03*
X23000Y-61500D02*
D03*
X26000Y-55500D02*
D03*
X23000Y-25500D02*
D03*
X26000Y-19500D02*
D03*
X23000Y-13500D02*
D03*
X26000Y-7500D02*
D03*
X29000Y-61500D02*
D03*
Y-25500D02*
D03*
X32000Y-19500D02*
D03*
X29000Y-13500D02*
D03*
X32000Y-7500D02*
D03*
X35000Y-25500D02*
D03*
X38000Y-19500D02*
D03*
X35000Y-13500D02*
D03*
X47000Y-61500D02*
D03*
X50000Y-55500D02*
D03*
X47000Y-49500D02*
D03*
X50000Y-43500D02*
D03*
X53000Y-61500D02*
D03*
X56000Y-55500D02*
D03*
X53000Y-49500D02*
D03*
X59000Y-61500D02*
D03*
X74000Y-55500D02*
D03*
Y-43500D02*
D03*
Y-7500D02*
D03*
X77000Y-61500D02*
D03*
X80000Y-55500D02*
D03*
X77000Y-49500D02*
D03*
X80000Y-43500D02*
D03*
X77000Y-37500D02*
D03*
Y-13500D02*
D03*
X83000Y-61500D02*
D03*
X86000Y-55500D02*
D03*
X83000Y-49500D02*
D03*
X86000Y-43500D02*
D03*
X83000Y-37500D02*
D03*
X86000Y-31500D02*
D03*
X83000Y-25500D02*
D03*
X86000Y-19500D02*
D03*
X83000Y-13500D02*
D03*
X86000Y-7500D02*
D03*
X89000Y-61500D02*
D03*
X92000Y-55500D02*
D03*
X89000Y-49500D02*
D03*
X92000Y-43500D02*
D03*
X89000Y-37500D02*
D03*
X92000Y-31500D02*
D03*
X89000Y-25500D02*
D03*
X92000Y-19500D02*
D03*
X89000Y-13500D02*
D03*
X92000Y-7500D02*
D03*
M02*
