G04*
G04 #@! TF.GenerationSoftware,Altium Limited,Altium Designer,19.1.7 (138)*
G04*
G04 Layer_Color=8388736*
%FSLAX25Y25*%
%MOIN*%
G70*
G01*
G75*
%ADD17R,0.03950X0.03950*%
%ADD18R,0.10642X0.03753*%
G04:AMPARAMS|DCode=19|XSize=37.53mil|YSize=106.42mil|CornerRadius=11.38mil|HoleSize=0mil|Usage=FLASHONLY|Rotation=270.000|XOffset=0mil|YOffset=0mil|HoleType=Round|Shape=RoundedRectangle|*
%AMROUNDEDRECTD19*
21,1,0.03753,0.08366,0,0,270.0*
21,1,0.01476,0.10642,0,0,270.0*
1,1,0.02276,-0.04183,-0.00738*
1,1,0.02276,-0.04183,0.00738*
1,1,0.02276,0.04183,0.00738*
1,1,0.02276,0.04183,-0.00738*
%
%ADD19ROUNDEDRECTD19*%
%ADD20R,0.04147X0.04147*%
%ADD21C,0.06706*%
%ADD22R,0.06706X0.06706*%
%ADD23R,0.07493X0.07493*%
%ADD24C,0.07493*%
D17*
X41461Y-58000D02*
D03*
X35555D02*
D03*
D18*
X51000Y-8500D02*
D03*
D19*
X66354D02*
D03*
Y-13500D02*
D03*
X51000D02*
D03*
X66354Y-18500D02*
D03*
X51000D02*
D03*
X66354Y-23500D02*
D03*
X51000D02*
D03*
X66354Y-28500D02*
D03*
X51000D02*
D03*
D20*
X41551Y-51500D02*
D03*
X35449D02*
D03*
D21*
X41461Y-42500D02*
D03*
D22*
X31461D02*
D03*
D23*
X66354Y-38500D02*
D03*
X15000Y-12500D02*
D03*
D24*
X66354Y-48500D02*
D03*
Y-58500D02*
D03*
X5000Y-52500D02*
D03*
Y-42500D02*
D03*
Y-32500D02*
D03*
Y-22500D02*
D03*
Y-12500D02*
D03*
X15000Y-22500D02*
D03*
Y-32500D02*
D03*
Y-42500D02*
D03*
Y-52500D02*
D03*
M02*
