G04*
G04 #@! TF.GenerationSoftware,Altium Limited,Altium Designer,18.1.6 (161)*
G04*
G04 Layer_Color=8388736*
%FSLAX25Y25*%
%MOIN*%
G70*
G01*
G75*
G04:AMPARAMS|DCode=27|XSize=55.24mil|YSize=94.61mil|CornerRadius=15.81mil|HoleSize=0mil|Usage=FLASHONLY|Rotation=270.000|XOffset=0mil|YOffset=0mil|HoleType=Round|Shape=RoundedRectangle|*
%AMROUNDEDRECTD27*
21,1,0.05524,0.06299,0,0,270.0*
21,1,0.02362,0.09461,0,0,270.0*
1,1,0.03162,-0.03150,-0.01181*
1,1,0.03162,-0.03150,0.01181*
1,1,0.03162,0.03150,0.01181*
1,1,0.03162,0.03150,-0.01181*
%
%ADD27ROUNDEDRECTD27*%
%ADD28R,0.09461X0.05524*%
G04:AMPARAMS|DCode=29|XSize=86.74mil|YSize=173.35mil|CornerRadius=23.68mil|HoleSize=0mil|Usage=FLASHONLY|Rotation=270.000|XOffset=0mil|YOffset=0mil|HoleType=Round|Shape=RoundedRectangle|*
%AMROUNDEDRECTD29*
21,1,0.08674,0.12598,0,0,270.0*
21,1,0.03937,0.17335,0,0,270.0*
1,1,0.04737,-0.06299,-0.01968*
1,1,0.04737,-0.06299,0.01968*
1,1,0.04737,0.06299,0.01968*
1,1,0.04737,0.06299,-0.01968*
%
%ADD29ROUNDEDRECTD29*%
%ADD30R,0.04537X0.04143*%
%ADD31R,0.04147X0.04147*%
%ADD32R,0.04147X0.04147*%
%ADD33R,0.04143X0.04537*%
%ADD34R,0.06509X0.01981*%
%ADD35O,0.06509X0.01981*%
%ADD36R,0.04186X0.02769*%
%ADD37R,0.01784X0.02769*%
%ADD38R,0.03950X0.03950*%
%ADD39C,0.11430*%
D27*
X126299Y59842D02*
D03*
Y51968D02*
D03*
Y44094D02*
D03*
Y36220D02*
D03*
Y28346D02*
D03*
X23622Y67716D02*
D03*
Y59842D02*
D03*
Y51968D02*
D03*
Y44094D02*
D03*
Y36220D02*
D03*
D28*
X126299Y67716D02*
D03*
X23622Y28346D02*
D03*
D29*
X104331Y81890D02*
D03*
Y14173D02*
D03*
X45591Y81890D02*
D03*
Y14173D02*
D03*
D30*
X82677Y22638D02*
D03*
Y27953D02*
D03*
X14173Y45276D02*
D03*
Y39961D02*
D03*
X66929Y62500D02*
D03*
Y67815D02*
D03*
D31*
X88976Y21850D02*
D03*
Y27953D02*
D03*
X135039Y67224D02*
D03*
Y61122D02*
D03*
X85433Y79921D02*
D03*
Y86024D02*
D03*
D32*
X68701Y30315D02*
D03*
X74803D02*
D03*
D33*
X69488Y24409D02*
D03*
X74803D02*
D03*
X80216Y55512D02*
D03*
X74902D02*
D03*
D34*
X66535Y44094D02*
D03*
D35*
Y42126D02*
D03*
Y40157D02*
D03*
Y38189D02*
D03*
Y36220D02*
D03*
X83858Y44094D02*
D03*
Y42126D02*
D03*
Y40157D02*
D03*
Y38189D02*
D03*
Y36220D02*
D03*
D36*
X75984Y64961D02*
D03*
D37*
X74803Y67815D02*
D03*
X77165D02*
D03*
Y62146D02*
D03*
X74803D02*
D03*
D38*
X77953Y79921D02*
D03*
Y85827D02*
D03*
D39*
X139764Y84646D02*
D03*
Y9843D02*
D03*
X9843Y84646D02*
D03*
Y9843D02*
D03*
M02*
