G04*
G04 #@! TF.GenerationSoftware,Altium Limited,Altium Designer,20.0.9 (164)*
G04*
G04 Layer_Color=32768*
%FSLAX25Y25*%
%MOIN*%
G70*
G01*
G75*
%ADD30C,0.00394*%
%ADD31C,0.00197*%
D30*
X39764Y118898D02*
Y122835D01*
X37795Y120866D02*
X41732D01*
X163784Y118110D02*
Y122047D01*
X161815Y120079D02*
X165752D01*
X113386Y117717D02*
Y121653D01*
X111417Y119685D02*
X115354D01*
X138189Y117717D02*
Y121653D01*
X136221Y119685D02*
X140157D01*
X89138Y118110D02*
Y122047D01*
X87169Y120079D02*
X91106D01*
X64256Y118110D02*
Y122047D01*
X62287Y120079D02*
X66224D01*
D31*
X35039Y130118D02*
X44488D01*
X35039Y111614D02*
X44488D01*
Y130118D01*
X35039Y111614D02*
Y130118D01*
X159059Y110827D02*
X168508D01*
X159059Y129331D02*
X168508D01*
X159059Y110827D02*
Y129331D01*
X168508Y110827D02*
Y129331D01*
X108661Y128937D02*
X118110D01*
X108661Y110433D02*
X118110D01*
Y128937D01*
X108661Y110433D02*
Y128937D01*
X133465Y110433D02*
X142913D01*
X133465Y128937D02*
X142913D01*
X133465Y110433D02*
Y128937D01*
X142913Y110433D02*
Y128937D01*
X84413Y129331D02*
X93862D01*
X84413Y110827D02*
X93862D01*
Y129331D01*
X84413Y110827D02*
Y129331D01*
X59531Y110827D02*
X68980D01*
X59531Y129331D02*
X68980D01*
X59531Y110827D02*
Y129331D01*
X68980Y110827D02*
Y129331D01*
M02*
