G04 Layer_Color=16711935*
%FSLAX25Y25*%
%MOIN*%
G70*
G01*
G75*
%ADD40C,0.00394*%
D40*
X44291Y81398D02*
G03*
X44291Y81398I-1575J0D01*
G01*
X44134Y225000D02*
G03*
X44134Y225000I-1575J0D01*
G01*
X40551Y52008D02*
X46850D01*
X40551Y55158D02*
X46850D01*
Y52008D02*
Y55158D01*
X40551Y52008D02*
Y55158D01*
X46850Y60236D02*
Y63386D01*
X40551Y60236D02*
Y63386D01*
Y60236D02*
X46850D01*
X40551Y63386D02*
X46850D01*
X40157Y134252D02*
Y137402D01*
X46457Y134252D02*
Y137402D01*
X40157D02*
X46457D01*
X40157Y134252D02*
X46457D01*
X46850Y68307D02*
Y71457D01*
X40551Y68307D02*
Y71457D01*
Y68307D02*
X46850D01*
X40551Y71457D02*
X46850D01*
X40157Y212008D02*
Y215158D01*
X46457Y212008D02*
Y215158D01*
X40157D02*
X46457D01*
X40157Y212008D02*
X46457D01*
X40578Y145197D02*
X46877D01*
X40578Y142047D02*
X46877D01*
X40578D02*
Y145197D01*
X46877Y142047D02*
Y145197D01*
X39567Y76279D02*
X47835D01*
X39567Y84547D02*
X47835D01*
Y76279D02*
Y84547D01*
X39567Y76279D02*
Y84547D01*
X39409Y219882D02*
X47677D01*
X39409Y228150D02*
X47677D01*
Y219882D02*
Y228150D01*
X39409Y219882D02*
Y228150D01*
X40157Y204134D02*
Y207283D01*
X46457Y204134D02*
Y207283D01*
X40157D02*
X46457D01*
X40157Y204134D02*
X46457D01*
X40157Y196496D02*
X46457D01*
X40157Y199646D02*
X46457D01*
Y196496D02*
Y199646D01*
X40157Y196496D02*
Y199646D01*
M02*
