G04 Layer_Color=65535*
%FSLAX25Y25*%
%MOIN*%
G70*
G01*
G75*
%ADD18C,0.01000*%
%ADD24C,0.00984*%
%ADD25C,0.00591*%
%ADD26C,0.00787*%
D18*
X75197Y112992D02*
X86220D01*
Y109449D02*
X90157D01*
X75197D02*
Y112992D01*
X71260Y109449D02*
X75197D01*
X86220D02*
Y112992D01*
X75197Y44488D02*
Y48032D01*
X86220D02*
X90157D01*
X86220Y44488D02*
Y48032D01*
X71260D02*
X75197D01*
Y44488D02*
X86220D01*
X71260Y104331D02*
Y109449D01*
X90157Y104331D02*
Y109449D01*
X71260Y48032D02*
Y53150D01*
X90157Y48032D02*
Y53150D01*
X75197Y235039D02*
X86220D01*
Y231496D02*
X90157D01*
X75197D02*
Y235039D01*
X71260Y231496D02*
X75197D01*
X86220D02*
Y235039D01*
X75197Y166535D02*
Y170079D01*
X86220D02*
X90157D01*
X86220Y166535D02*
Y170079D01*
X71260D02*
X75197D01*
Y166535D02*
X86220D01*
X71260Y226378D02*
Y231496D01*
X90157Y226378D02*
Y231496D01*
X71260Y170079D02*
Y175197D01*
X90157Y170079D02*
Y175197D01*
X2264Y80216D02*
Y102362D01*
Y29528D02*
Y51772D01*
X23346Y29528D02*
Y102362D01*
X2264Y51772D02*
Y80216D01*
Y29528D02*
X23346D01*
X2264Y102362D02*
X23346D01*
X2264Y250000D02*
X23346D01*
X2264Y177165D02*
X23346D01*
X2264Y199409D02*
Y227854D01*
X23346Y177165D02*
Y250000D01*
X2264Y177165D02*
Y199409D01*
Y227854D02*
Y250000D01*
X2480Y118131D02*
Y150591D01*
X23346Y118131D02*
Y161732D01*
X2480Y118131D02*
X23346D01*
X2480Y161732D02*
X23346D01*
X2480Y146653D02*
Y161732D01*
D24*
X37634Y75772D02*
G03*
X37634Y75772I-492J0D01*
G01*
X37476Y219374D02*
G03*
X37476Y219374I-492J0D01*
G01*
D25*
X49173Y51849D02*
Y55433D01*
X38255Y141772D02*
Y145356D01*
X48779Y196337D02*
Y199921D01*
D26*
X39567Y75689D02*
X42323D01*
X45079D02*
X47835D01*
X45079Y85138D02*
X47835D01*
X39567D02*
X42323D01*
X39409Y219291D02*
X42165D01*
X44921D02*
X47677D01*
X44921Y228740D02*
X47677D01*
X39409D02*
X42165D01*
X62479Y11772D02*
Y15707D01*
X63791Y14395D01*
X65102Y15707D01*
Y11772D01*
X69038Y15051D02*
X68382Y15707D01*
X67070D01*
X66414Y15051D01*
Y14395D01*
X67070Y13739D01*
X68382D01*
X69038Y13083D01*
Y12427D01*
X68382Y11772D01*
X67070D01*
X66414Y12427D01*
X70350Y15707D02*
X72974Y11772D01*
Y15707D02*
X70350Y11772D01*
X74286Y15707D02*
X75598D01*
X74942D01*
Y11772D01*
X74286D01*
X75598D01*
X77566Y15707D02*
X78878D01*
X78222D01*
Y11772D01*
X77566D01*
X78878D01*
X87405Y15051D02*
X86749Y15707D01*
X85437D01*
X84781Y15051D01*
Y12427D01*
X85437Y11772D01*
X86749D01*
X87405Y12427D01*
X88717Y11772D02*
Y14395D01*
X90029Y15707D01*
X91341Y14395D01*
Y11772D01*
Y13739D01*
X88717D01*
X92653Y11772D02*
Y15707D01*
X95276Y11772D01*
Y15707D01*
X100524D02*
X101836D01*
X101180D01*
Y11772D01*
X100524D01*
X101836D01*
X103804D02*
Y15707D01*
X106428Y11772D01*
Y15707D01*
X107740D02*
X110363D01*
X109052D01*
Y11772D01*
X114299Y15707D02*
X111676D01*
Y11772D01*
X114299D01*
X111676Y13739D02*
X112987D01*
X115611Y11772D02*
Y15707D01*
X117579D01*
X118235Y15051D01*
Y13739D01*
X117579Y13083D01*
X115611D01*
X116923D02*
X118235Y11772D01*
X122171Y15707D02*
X119547D01*
Y13739D01*
X120859D01*
X119547D01*
Y11772D01*
X123483D02*
Y14395D01*
X124795Y15707D01*
X126107Y14395D01*
Y11772D01*
Y13739D01*
X123483D01*
X130042Y15051D02*
X129386Y15707D01*
X128074D01*
X127418Y15051D01*
Y12427D01*
X128074Y11772D01*
X129386D01*
X130042Y12427D01*
X133978Y15707D02*
X131354D01*
Y11772D01*
X133978D01*
X131354Y13739D02*
X132666D01*
X84125Y5159D02*
Y9095D01*
X86093D01*
X86749Y8439D01*
Y7127D01*
X86093Y6471D01*
X84125D01*
X85437D02*
X86749Y5159D01*
X90685Y9095D02*
X88061D01*
Y5159D01*
X90685D01*
X88061Y7127D02*
X89373D01*
X91997Y9095D02*
Y6471D01*
X93309Y5159D01*
X94621Y6471D01*
Y9095D01*
X99868Y5159D02*
X101180D01*
X100524D01*
Y9095D01*
X99868Y8439D01*
X103148Y5159D02*
Y5815D01*
X103804D01*
Y5159D01*
X103148D01*
X106428D02*
X107740D01*
X107084D01*
Y9095D01*
X106428Y8439D01*
X109708D02*
X110363Y9095D01*
X111676D01*
X112331Y8439D01*
Y7783D01*
X111676Y7127D01*
X111020D01*
X111676D01*
X112331Y6471D01*
Y5815D01*
X111676Y5159D01*
X110363D01*
X109708Y5815D01*
X30315Y130709D02*
X26379D01*
Y132676D01*
X27035Y133333D01*
X28347D01*
X29003Y132676D01*
Y130709D01*
X26379Y136612D02*
Y135300D01*
X27035Y134644D01*
X29659D01*
X30315Y135300D01*
Y136612D01*
X29659Y137268D01*
X27035D01*
X26379Y136612D01*
Y138580D02*
X30315D01*
X29003Y139892D01*
X30315Y141204D01*
X26379D01*
Y145140D02*
Y142516D01*
X30315D01*
Y145140D01*
X28347Y142516D02*
Y143828D01*
X30315Y146452D02*
X26379D01*
Y148419D01*
X27035Y149075D01*
X28347D01*
X29003Y148419D01*
Y146452D01*
Y147764D02*
X30315Y149075D01*
X30315Y56693D02*
X26379D01*
Y58661D01*
X27035Y59317D01*
X28347D01*
X29003Y58661D01*
Y56693D01*
Y58005D02*
X30315Y59317D01*
X26379Y60629D02*
Y61941D01*
Y61285D01*
X30315D01*
Y60629D01*
Y61941D01*
X27035Y66532D02*
X26379Y65876D01*
Y64564D01*
X27035Y63908D01*
X29659D01*
X30315Y64564D01*
Y65876D01*
X29659Y66532D01*
X28347D01*
Y65220D01*
X26379Y67844D02*
X30315D01*
X28347D01*
Y70468D01*
X26379D01*
X30315D01*
X26379Y71780D02*
Y74404D01*
Y73092D01*
X30315D01*
X26379Y206693D02*
X30315D01*
Y209317D01*
X26379Y213252D02*
Y210629D01*
X30315D01*
Y213252D01*
X28347Y210629D02*
Y211941D01*
X26379Y217188D02*
Y214564D01*
X28347D01*
Y215876D01*
Y214564D01*
X30315D01*
X26379Y218500D02*
Y221124D01*
Y219812D01*
X30315D01*
X51968Y59842D02*
Y63778D01*
X53936D01*
X54592Y63122D01*
Y61810D01*
X53936Y61154D01*
X51968D01*
X53280D02*
X54592Y59842D01*
X57872D02*
Y63778D01*
X55904Y61810D01*
X58528D01*
X51181Y203937D02*
Y207873D01*
X53149D01*
X53805Y207217D01*
Y205905D01*
X53149Y205249D01*
X51181D01*
X52493D02*
X53805Y203937D01*
X57741D02*
X55117D01*
X57741Y206561D01*
Y207217D01*
X57085Y207873D01*
X55773D01*
X55117Y207217D01*
X51968Y55511D02*
Y51575D01*
X54592D01*
X58528Y55511D02*
X55904D01*
Y51575D01*
X58528D01*
X55904Y53543D02*
X57216D01*
X59840Y55511D02*
Y51575D01*
X61808D01*
X62464Y52231D01*
Y54855D01*
X61808Y55511D01*
X59840D01*
X63776Y54855D02*
X64432Y55511D01*
X65744D01*
X66400Y54855D01*
Y54199D01*
X65744Y53543D01*
X65088D01*
X65744D01*
X66400Y52887D01*
Y52231D01*
X65744Y51575D01*
X64432D01*
X63776Y52231D01*
X51181Y199999D02*
Y196063D01*
X53805D01*
X57741Y199999D02*
X55117D01*
Y196063D01*
X57741D01*
X55117Y198031D02*
X56429D01*
X59053Y199999D02*
Y196063D01*
X61020D01*
X61676Y196719D01*
Y199343D01*
X61020Y199999D01*
X59053D01*
X65612Y196063D02*
X62988D01*
X65612Y198687D01*
Y199343D01*
X64956Y199999D01*
X63644D01*
X62988Y199343D01*
X77559Y115748D02*
Y119684D01*
X79527D01*
X80183Y119028D01*
Y117716D01*
X79527Y117060D01*
X77559D01*
X83463Y115748D02*
Y119684D01*
X81495Y117716D01*
X84119D01*
X40157Y127953D02*
Y131888D01*
X42125D01*
X42781Y131233D01*
Y129921D01*
X42125Y129265D01*
X40157D01*
X41469D02*
X42781Y127953D01*
X46717Y131888D02*
X44093D01*
Y129921D01*
X45405Y130577D01*
X46061D01*
X46717Y129921D01*
Y128609D01*
X46061Y127953D01*
X44749D01*
X44093Y128609D01*
X51575Y67913D02*
Y71849D01*
X53543D01*
X54199Y71193D01*
Y69881D01*
X53543Y69225D01*
X51575D01*
X52887D02*
X54199Y67913D01*
X55511Y71193D02*
X56166Y71849D01*
X57478D01*
X58134Y71193D01*
Y70537D01*
X57478Y69881D01*
X56823D01*
X57478D01*
X58134Y69225D01*
Y68569D01*
X57478Y67913D01*
X56166D01*
X55511Y68569D01*
X51181Y211614D02*
Y215550D01*
X53149D01*
X53805Y214894D01*
Y213582D01*
X53149Y212926D01*
X51181D01*
X52493D02*
X53805Y211614D01*
X55117D02*
X56429D01*
X55773D01*
Y215550D01*
X55117Y214894D01*
X37008Y151574D02*
Y147638D01*
X39632D01*
X43567Y151574D02*
X40944D01*
Y147638D01*
X43567D01*
X40944Y149606D02*
X42255D01*
X44879Y151574D02*
Y147638D01*
X46847D01*
X47503Y148294D01*
Y150918D01*
X46847Y151574D01*
X44879D01*
X48815Y147638D02*
X50127D01*
X49471D01*
Y151574D01*
X48815Y150918D01*
X53805Y79002D02*
Y81626D01*
X53149Y82282D01*
X51837D01*
X51181Y81626D01*
Y79002D01*
X51837Y78347D01*
X53149D01*
X52493Y79658D02*
X53805Y78347D01*
X53149D02*
X53805Y79002D01*
X57741Y78347D02*
X55117D01*
X57741Y80970D01*
Y81626D01*
X57085Y82282D01*
X55773D01*
X55117Y81626D01*
X77559Y237402D02*
Y241337D01*
X79527D01*
X80183Y240681D01*
Y239369D01*
X79527Y238714D01*
X77559D01*
X84119Y241337D02*
X81495D01*
Y239369D01*
X82807Y240025D01*
X83463D01*
X84119Y239369D01*
Y238057D01*
X83463Y237402D01*
X82151D01*
X81495Y238057D01*
X3937Y104331D02*
Y108266D01*
X5905D01*
X6561Y107610D01*
Y106299D01*
X5905Y105643D01*
X3937D01*
X7873Y107610D02*
X8529Y108266D01*
X9841D01*
X10497Y107610D01*
Y106955D01*
X9841Y106299D01*
X9185D01*
X9841D01*
X10497Y105643D01*
Y104987D01*
X9841Y104331D01*
X8529D01*
X7873Y104987D01*
X3937Y251969D02*
Y255904D01*
X5905D01*
X6561Y255248D01*
Y253936D01*
X5905Y253280D01*
X3937D01*
X10497Y251969D02*
X7873D01*
X10497Y254592D01*
Y255248D01*
X9841Y255904D01*
X8529D01*
X7873Y255248D01*
X3937Y164370D02*
Y168306D01*
X5905D01*
X6561Y167650D01*
Y166338D01*
X5905Y165682D01*
X3937D01*
X7873Y164370D02*
X9185D01*
X8529D01*
Y168306D01*
X7873Y167650D01*
X53805Y222703D02*
Y225327D01*
X53149Y225983D01*
X51837D01*
X51181Y225327D01*
Y222703D01*
X51837Y222047D01*
X53149D01*
X52493Y223359D02*
X53805Y222047D01*
X53149D02*
X53805Y222703D01*
X55117Y222047D02*
X56429D01*
X55773D01*
Y225983D01*
X55117Y225327D01*
M02*
