G04 Layer_Color=32768*
%FSLAX25Y25*%
%MOIN*%
G70*
G01*
G75*
%ADD40C,0.00394*%
%ADD41C,0.00197*%
D40*
X43701Y52008D02*
Y55158D01*
X42126Y53583D02*
X45276D01*
X42126Y61811D02*
X45276D01*
X43701Y60236D02*
Y63386D01*
X41732Y135827D02*
X44882D01*
X43307Y134252D02*
Y137402D01*
X42126Y69882D02*
X45276D01*
X43701Y68307D02*
Y71457D01*
X41732Y213583D02*
X44882D01*
X43307Y212008D02*
Y215158D01*
X43727Y142047D02*
Y145197D01*
X42152Y143622D02*
X45302D01*
X43701Y78445D02*
Y82382D01*
X41732Y80413D02*
X45669D01*
X43543Y222047D02*
Y225984D01*
X41575Y224016D02*
X45512D01*
X41732Y205709D02*
X44882D01*
X43307Y204134D02*
Y207283D01*
X43307Y196496D02*
Y199646D01*
X41732Y198071D02*
X44882D01*
D41*
X49409Y59055D02*
Y64567D01*
X37992Y59055D02*
Y64567D01*
Y59055D02*
X49409D01*
X37992Y64567D02*
X49409D01*
X37598Y133071D02*
Y138583D01*
X49016Y133071D02*
Y138583D01*
X37598D02*
X49016D01*
X37598Y133071D02*
X49016D01*
X49409Y67126D02*
Y72638D01*
X37992Y67126D02*
Y72638D01*
Y67126D02*
X49409D01*
X37992Y72638D02*
X49409D01*
X37598Y210827D02*
Y216339D01*
X49016Y210827D02*
Y216339D01*
X37598D02*
X49016D01*
X37598Y210827D02*
X49016D01*
X38583Y75295D02*
X48819D01*
X38583Y85532D02*
X48819D01*
Y75295D02*
Y85532D01*
X38583Y75295D02*
Y85532D01*
X38425Y218898D02*
X48661D01*
X38425Y229134D02*
X48661D01*
Y218898D02*
Y229134D01*
X38425Y218898D02*
Y229134D01*
X37598Y202953D02*
Y208465D01*
X49016Y202953D02*
Y208465D01*
X37598D02*
X49016D01*
X37598Y202953D02*
X49016D01*
M02*
