G04 Layer_Color=32896*
%FSLAX25Y25*%
%MOIN*%
G70*
G01*
G75*
%ADD18C,0.01000*%
%ADD26C,0.00787*%
D18*
X19685Y190551D02*
Y237008D01*
Y43307D02*
Y88976D01*
Y130709D02*
Y148819D01*
D26*
X32023Y134186D02*
X32679Y134842D01*
X33991D01*
X34647Y134186D01*
Y131562D01*
X33991Y130906D01*
X32679D01*
X32023Y131562D01*
Y132874D01*
X33335D01*
X30711Y130906D02*
Y134842D01*
X28087Y130906D01*
Y134842D01*
X26776D02*
Y130906D01*
X24808D01*
X24152Y131562D01*
Y134186D01*
X24808Y134842D01*
X26776D01*
X37927Y146653D02*
X35303D01*
X36615Y147966D02*
Y145342D01*
X33991Y144686D02*
X32679D01*
X33335D01*
Y148621D01*
X33991Y147966D01*
X28087Y144686D02*
X30711D01*
X28087Y147310D01*
Y147966D01*
X28743Y148621D01*
X30055D01*
X30711Y147966D01*
X26776Y148621D02*
Y145998D01*
X25464Y144686D01*
X24152Y145998D01*
Y148621D01*
X38325Y45276D02*
X35701D01*
X37013Y46587D02*
Y43964D01*
X34389Y43308D02*
X33077D01*
X33733D01*
Y47243D01*
X34389Y46587D01*
X28486Y43308D02*
X31109D01*
X28486Y45932D01*
Y46587D01*
X29142Y47243D01*
X30453D01*
X31109Y46587D01*
X27174Y47243D02*
Y44620D01*
X25862Y43308D01*
X24550Y44620D01*
Y47243D01*
X77284Y57415D02*
Y61351D01*
X75316D01*
X74660Y60695D01*
Y59383D01*
X75316Y58727D01*
X77284D01*
X70725Y60695D02*
X71381Y61351D01*
X72692D01*
X73348Y60695D01*
Y58071D01*
X72692Y57415D01*
X71381D01*
X70725Y58071D01*
X69413Y61351D02*
Y57415D01*
Y59383D01*
X66789D01*
Y61351D01*
Y57415D01*
X62853Y60695D02*
X63509Y61351D01*
X64821D01*
X65477Y60695D01*
Y58071D01*
X64821Y57415D01*
X63509D01*
X62853Y58071D01*
Y59383D01*
X64165D01*
X61541Y56759D02*
X58917D01*
X54982Y60695D02*
X55638Y61351D01*
X56950D01*
X57605Y60695D01*
Y58071D01*
X56950Y57415D01*
X55638D01*
X54982Y58071D01*
Y59383D01*
X56293D01*
X53670Y57415D02*
Y61351D01*
X51046Y57415D01*
Y61351D01*
X49734D02*
Y57415D01*
X47766D01*
X47110Y58071D01*
Y60695D01*
X47766Y61351D01*
X49734D01*
X45798Y56759D02*
X43174D01*
X41862Y57415D02*
Y61351D01*
X39895D01*
X39239Y60695D01*
Y59383D01*
X39895Y58727D01*
X41862D01*
X40551D02*
X39239Y57415D01*
X37927Y61351D02*
X36615D01*
X37271D01*
Y57415D01*
X37927D01*
X36615D01*
X32023Y60695D02*
X32679Y61351D01*
X33991D01*
X34647Y60695D01*
Y58071D01*
X33991Y57415D01*
X32679D01*
X32023Y58071D01*
Y59383D01*
X33335D01*
X30711Y61351D02*
Y57415D01*
Y59383D01*
X28087D01*
Y61351D01*
Y57415D01*
X26776Y61351D02*
X24152D01*
X25464D01*
Y57415D01*
X62853Y88254D02*
X63509Y88910D01*
X64821D01*
X65477Y88254D01*
Y87598D01*
X64821Y86942D01*
X63509D01*
X62853Y86286D01*
Y85630D01*
X63509Y84974D01*
X64821D01*
X65477Y85630D01*
X58917Y88910D02*
X61541D01*
Y84974D01*
X58917D01*
X61541Y86942D02*
X60229D01*
X57605Y84974D02*
Y88910D01*
X54982Y84974D01*
Y88910D01*
X51046Y88254D02*
X51702Y88910D01*
X53014D01*
X53670Y88254D01*
Y87598D01*
X53014Y86942D01*
X51702D01*
X51046Y86286D01*
Y85630D01*
X51702Y84974D01*
X53014D01*
X53670Y85630D01*
X47110Y88910D02*
X49734D01*
Y84974D01*
X47110D01*
X49734Y86942D02*
X48422D01*
X45798Y84318D02*
X43174D01*
X41862Y84974D02*
Y88910D01*
X39895D01*
X39239Y88254D01*
Y86942D01*
X39895Y86286D01*
X41862D01*
X40551D02*
X39239Y84974D01*
X37927Y88910D02*
X36615D01*
X37271D01*
Y84974D01*
X37927D01*
X36615D01*
X32023Y88254D02*
X32679Y88910D01*
X33991D01*
X34647Y88254D01*
Y85630D01*
X33991Y84974D01*
X32679D01*
X32023Y85630D01*
Y86942D01*
X33335D01*
X30711Y88910D02*
Y84974D01*
Y86942D01*
X28087D01*
Y88910D01*
Y84974D01*
X26776Y88910D02*
X24152D01*
X25464D01*
Y84974D01*
X38583Y72835D02*
X35959D01*
X37271Y74147D02*
Y71523D01*
X34647Y74147D02*
X33991Y74803D01*
X32679D01*
X32023Y74147D01*
Y73491D01*
X32679Y72835D01*
X33335D01*
X32679D01*
X32023Y72179D01*
Y71523D01*
X32679Y70867D01*
X33991D01*
X34647Y71523D01*
X30711Y74803D02*
Y72179D01*
X29399Y70867D01*
X28087Y72179D01*
Y74803D01*
X26776Y74147D02*
X26120Y74803D01*
X24808D01*
X24152Y74147D01*
Y73491D01*
X24808Y72835D01*
X25464D01*
X24808D01*
X24152Y72179D01*
Y71523D01*
X24808Y70867D01*
X26120D01*
X26776Y71523D01*
X38583Y220472D02*
X35959D01*
X37271Y221784D02*
Y219161D01*
X34647Y221784D02*
X33991Y222440D01*
X32679D01*
X32023Y221784D01*
Y221128D01*
X32679Y220472D01*
X33335D01*
X32679D01*
X32023Y219816D01*
Y219161D01*
X32679Y218505D01*
X33991D01*
X34647Y219161D01*
X30711Y222440D02*
Y219816D01*
X29399Y218505D01*
X28087Y219816D01*
Y222440D01*
X26776Y221784D02*
X26120Y222440D01*
X24808D01*
X24152Y221784D01*
Y221128D01*
X24808Y220472D01*
X25464D01*
X24808D01*
X24152Y219816D01*
Y219161D01*
X24808Y218505D01*
X26120D01*
X26776Y219161D01*
X59573Y235892D02*
X60229Y236548D01*
X61541D01*
X62197Y235892D01*
Y235236D01*
X61541Y234580D01*
X60229D01*
X59573Y233924D01*
Y233268D01*
X60229Y232612D01*
X61541D01*
X62197Y233268D01*
X55638Y236548D02*
X58261D01*
Y232612D01*
X55638D01*
X58261Y234580D02*
X56950D01*
X54326Y232612D02*
Y236548D01*
X51702Y232612D01*
Y236548D01*
X47766Y235892D02*
X48422Y236548D01*
X49734D01*
X50390Y235892D01*
Y235236D01*
X49734Y234580D01*
X48422D01*
X47766Y233924D01*
Y233268D01*
X48422Y232612D01*
X49734D01*
X50390Y233268D01*
X43830Y236548D02*
X46454D01*
Y232612D01*
X43830D01*
X46454Y234580D02*
X45142D01*
X42518Y231956D02*
X39895D01*
X38583Y236548D02*
Y232612D01*
X35959D01*
X32023Y236548D02*
X34647D01*
Y232612D01*
X32023D01*
X34647Y234580D02*
X33335D01*
X28087Y236548D02*
X30711D01*
Y234580D01*
X29399D01*
X30711D01*
Y232612D01*
X26776Y236548D02*
X24152D01*
X25464D01*
Y232612D01*
X74004Y205053D02*
Y208989D01*
X72036D01*
X71381Y208333D01*
Y207021D01*
X72036Y206365D01*
X74004D01*
X67445Y208333D02*
X68101Y208989D01*
X69413D01*
X70069Y208333D01*
Y205709D01*
X69413Y205053D01*
X68101D01*
X67445Y205709D01*
X66133Y208989D02*
Y205053D01*
Y207021D01*
X63509D01*
Y208989D01*
Y205053D01*
X59573Y208333D02*
X60229Y208989D01*
X61541D01*
X62197Y208333D01*
Y205709D01*
X61541Y205053D01*
X60229D01*
X59573Y205709D01*
Y207021D01*
X60885D01*
X58261Y204397D02*
X55638D01*
X51702Y208333D02*
X52358Y208989D01*
X53670D01*
X54326Y208333D01*
Y205709D01*
X53670Y205053D01*
X52358D01*
X51702Y205709D01*
Y207021D01*
X53014D01*
X50390Y205053D02*
Y208989D01*
X47766Y205053D01*
Y208989D01*
X46454D02*
Y205053D01*
X44486D01*
X43830Y205709D01*
Y208333D01*
X44486Y208989D01*
X46454D01*
X42518Y204397D02*
X39895D01*
X38583Y208989D02*
Y205053D01*
X35959D01*
X32023Y208989D02*
X34647D01*
Y205053D01*
X32023D01*
X34647Y207021D02*
X33335D01*
X28087Y208989D02*
X30711D01*
Y207021D01*
X29399D01*
X30711D01*
Y205053D01*
X26776Y208989D02*
X24152D01*
X25464D01*
Y205053D01*
X37927Y192913D02*
X35303D01*
X36615Y194225D02*
Y191602D01*
X33991Y190945D02*
X32679D01*
X33335D01*
Y194881D01*
X33991Y194225D01*
X28087Y190945D02*
X30711D01*
X28087Y193569D01*
Y194225D01*
X28743Y194881D01*
X30055D01*
X30711Y194225D01*
X26776Y194881D02*
Y192257D01*
X25464Y190945D01*
X24152Y192257D01*
Y194881D01*
M02*
