G04*
G04 #@! TF.GenerationSoftware,Altium Limited,Altium Designer,20.0.10 (225)*
G04*
G04 Layer_Color=65535*
%FSLAX25Y25*%
%MOIN*%
G70*
G01*
G75*
%ADD10C,0.00394*%
%ADD11C,0.00984*%
%ADD12C,0.00787*%
%ADD13C,0.01000*%
%ADD14C,0.00591*%
G36*
X135789Y16893D02*
X136467D01*
Y16879D01*
X136840D01*
Y16865D01*
X137144D01*
Y16851D01*
X137393D01*
Y16838D01*
X137628D01*
Y16824D01*
X137836D01*
Y16810D01*
X138030D01*
Y16796D01*
X138209D01*
Y16782D01*
X138375D01*
Y16768D01*
X138541D01*
Y16755D01*
X138693D01*
Y16741D01*
X138846D01*
Y16727D01*
X138984D01*
Y16713D01*
X139122D01*
Y16699D01*
X139260D01*
Y16686D01*
X139385D01*
Y16672D01*
X139509D01*
Y16658D01*
X139634D01*
Y16644D01*
X139758D01*
Y16630D01*
X139869D01*
Y16616D01*
X139994D01*
Y16602D01*
X140104D01*
Y16589D01*
X140215D01*
Y16575D01*
X140325D01*
Y16561D01*
X140436D01*
Y16547D01*
X140533D01*
Y16533D01*
X140644D01*
Y16520D01*
X140740D01*
Y16506D01*
X140837D01*
Y16492D01*
X140948D01*
Y16478D01*
X141045D01*
Y16464D01*
X141141D01*
Y16450D01*
X141238D01*
Y16436D01*
X141321D01*
Y16423D01*
X141418D01*
Y16409D01*
X141515D01*
Y16395D01*
X141598D01*
Y16381D01*
X141695D01*
Y16367D01*
X141778D01*
Y16353D01*
X141874D01*
Y16340D01*
X141957D01*
Y16326D01*
X142040D01*
Y16312D01*
X142123D01*
Y16298D01*
X142220D01*
Y16284D01*
X142303D01*
Y16271D01*
X142386D01*
Y16257D01*
X142469D01*
Y16243D01*
X142552D01*
Y16229D01*
X142621D01*
Y16215D01*
X142704D01*
Y16201D01*
X142787D01*
Y16188D01*
X142870D01*
Y16174D01*
X142953D01*
Y16160D01*
X143022D01*
Y16146D01*
X143105D01*
Y16132D01*
X143175D01*
Y16118D01*
X143257D01*
Y16105D01*
X143340D01*
Y16091D01*
X143410D01*
Y16077D01*
X143492D01*
Y16063D01*
X143562D01*
Y16049D01*
X143631D01*
Y16035D01*
X143714D01*
Y16022D01*
X143783D01*
Y16008D01*
X143852D01*
Y15994D01*
X143935D01*
Y15980D01*
X144004D01*
Y15966D01*
X144073D01*
Y15953D01*
X144143D01*
Y15939D01*
X144212D01*
Y15925D01*
X144295D01*
Y15911D01*
X144364D01*
Y15897D01*
X144433D01*
Y15883D01*
X144502D01*
Y15869D01*
X144571D01*
Y15856D01*
X144641D01*
Y15842D01*
X144710D01*
Y15828D01*
X144779D01*
Y15814D01*
X144848D01*
Y15800D01*
X144917D01*
Y15787D01*
X144986D01*
Y15773D01*
X145055D01*
Y15759D01*
X145111D01*
Y15745D01*
X145180D01*
Y15731D01*
X145249D01*
Y15717D01*
X145318D01*
Y15703D01*
X145387D01*
Y15690D01*
X145443D01*
Y15676D01*
X145512D01*
Y15662D01*
X145581D01*
Y15648D01*
X145650D01*
Y15634D01*
X145705D01*
Y15620D01*
X145774D01*
Y15607D01*
X145844D01*
Y15593D01*
X145899D01*
Y15579D01*
X145968D01*
Y15565D01*
X146037D01*
Y15551D01*
X146093D01*
Y15538D01*
X146162D01*
Y15524D01*
X146217D01*
Y15510D01*
X146286D01*
Y15496D01*
X146355D01*
Y15482D01*
X146411D01*
Y15468D01*
X146480D01*
Y15455D01*
X146535D01*
Y15441D01*
X146604D01*
Y15427D01*
X146660D01*
Y15413D01*
X146729D01*
Y15399D01*
X146784D01*
Y15385D01*
X146839D01*
Y15372D01*
X146909D01*
Y15358D01*
X146964D01*
Y15344D01*
X147033D01*
Y15330D01*
X147088D01*
Y15316D01*
X147158D01*
Y15302D01*
X147213D01*
Y15289D01*
X147268D01*
Y15275D01*
X147337D01*
Y15261D01*
X147393D01*
Y15247D01*
X147448D01*
Y15233D01*
X147517D01*
Y15220D01*
X147573D01*
Y15206D01*
X147628D01*
Y15192D01*
X147697D01*
Y15178D01*
X147752D01*
Y15164D01*
X147808D01*
Y15150D01*
X147863D01*
Y15136D01*
X147932D01*
Y15123D01*
X147987D01*
Y15109D01*
X148043D01*
Y15095D01*
X148098D01*
Y15081D01*
X148167D01*
Y15067D01*
X148222D01*
Y15054D01*
X148278D01*
Y15040D01*
X148333D01*
Y15026D01*
X148389D01*
Y15012D01*
X148444D01*
Y14998D01*
X148513D01*
Y14984D01*
X148568D01*
Y14970D01*
X148624D01*
Y14957D01*
X148679D01*
Y14943D01*
X148734D01*
Y14929D01*
X148790D01*
Y14915D01*
X148845D01*
Y14901D01*
X148914D01*
Y14887D01*
X148969D01*
Y14874D01*
X149025D01*
Y14860D01*
X149080D01*
Y14846D01*
X149135D01*
Y14832D01*
X149191D01*
Y14818D01*
X149246D01*
Y14805D01*
X149301D01*
Y14791D01*
X149357D01*
Y14777D01*
X149412D01*
Y14763D01*
X149467D01*
Y14749D01*
X149523D01*
Y14735D01*
X149578D01*
Y14721D01*
X149633D01*
Y14708D01*
X149688D01*
Y14694D01*
X149744D01*
Y14680D01*
X149799D01*
Y14666D01*
X149855D01*
Y14652D01*
X149910D01*
Y14639D01*
X149965D01*
Y14625D01*
X150021D01*
Y14611D01*
X150076D01*
Y14597D01*
X150131D01*
Y14583D01*
X150186D01*
Y14569D01*
X150242D01*
Y14556D01*
X150297D01*
Y14542D01*
X150352D01*
Y14528D01*
X150408D01*
Y14514D01*
X150463D01*
Y14500D01*
X150518D01*
Y14486D01*
X150574D01*
Y14473D01*
X150615D01*
Y14459D01*
X150671D01*
Y14445D01*
X150726D01*
Y14431D01*
X150781D01*
Y14417D01*
X150836D01*
Y14403D01*
X150892D01*
Y14390D01*
X150947D01*
Y14376D01*
X151002D01*
Y14362D01*
X151044D01*
Y14348D01*
X151099D01*
Y14334D01*
X151154D01*
Y14321D01*
X151210D01*
Y14307D01*
X151265D01*
Y14293D01*
X151321D01*
Y14279D01*
X151376D01*
Y14265D01*
X151417D01*
Y14251D01*
X151473D01*
Y14238D01*
X151528D01*
Y14224D01*
X151583D01*
Y14210D01*
X151639D01*
Y14196D01*
X151680D01*
Y14182D01*
X151735D01*
Y14168D01*
X151791D01*
Y14154D01*
X151846D01*
Y14141D01*
X151901D01*
Y14127D01*
X151943D01*
Y14113D01*
X151998D01*
Y14099D01*
X152053D01*
Y14085D01*
X152109D01*
Y14072D01*
X152164D01*
Y14058D01*
X152206D01*
Y14044D01*
X152261D01*
Y14030D01*
X152316D01*
Y14016D01*
X152372D01*
Y14002D01*
X152413D01*
Y13989D01*
X152468D01*
Y13975D01*
X152524D01*
Y13961D01*
X152579D01*
Y13947D01*
X152620D01*
Y13933D01*
X152676D01*
Y13919D01*
X152731D01*
Y13906D01*
X152773D01*
Y13892D01*
X152828D01*
Y13878D01*
X152883D01*
Y13864D01*
X152939D01*
Y13850D01*
X152980D01*
Y13836D01*
X153035D01*
Y13823D01*
X153091D01*
Y13809D01*
X153132D01*
Y13795D01*
X153188D01*
Y13781D01*
X153243D01*
Y13767D01*
X153298D01*
Y13754D01*
X153340D01*
Y13740D01*
X153395D01*
Y13726D01*
X153450D01*
Y13712D01*
X153492D01*
Y13698D01*
X153547D01*
Y13684D01*
X153603D01*
Y13670D01*
X153644D01*
Y13657D01*
X153699D01*
Y13643D01*
X153755D01*
Y13629D01*
X153796D01*
Y13615D01*
X153851D01*
Y13601D01*
X153893D01*
Y13588D01*
X153948D01*
Y13574D01*
X154004D01*
Y13560D01*
X154045D01*
Y13546D01*
X154100D01*
Y13532D01*
X154156D01*
Y13518D01*
X154197D01*
Y13505D01*
X154253D01*
Y13491D01*
X154308D01*
Y13477D01*
X154335D01*
Y13463D01*
Y13449D01*
X154322D01*
Y13435D01*
X154266D01*
Y13449D01*
X154211D01*
Y13463D01*
X154156D01*
Y13477D01*
X154087D01*
Y13491D01*
X154031D01*
Y13505D01*
X153976D01*
Y13518D01*
X153907D01*
Y13532D01*
X153851D01*
Y13546D01*
X153796D01*
Y13560D01*
X153727D01*
Y13574D01*
X153672D01*
Y13588D01*
X153616D01*
Y13601D01*
X153561D01*
Y13615D01*
X153492D01*
Y13629D01*
X153437D01*
Y13643D01*
X153381D01*
Y13657D01*
X153326D01*
Y13670D01*
X153271D01*
Y13684D01*
X153201D01*
Y13698D01*
X153146D01*
Y13712D01*
X153091D01*
Y13726D01*
X153035D01*
Y13740D01*
X152980D01*
Y13754D01*
X152925D01*
Y13767D01*
X152856D01*
Y13781D01*
X152800D01*
Y13795D01*
X152745D01*
Y13809D01*
X152690D01*
Y13823D01*
X152634D01*
Y13836D01*
X152579D01*
Y13850D01*
X152524D01*
Y13864D01*
X152468D01*
Y13878D01*
X152399D01*
Y13892D01*
X152344D01*
Y13906D01*
X152289D01*
Y13919D01*
X152233D01*
Y13933D01*
X152178D01*
Y13947D01*
X152123D01*
Y13961D01*
X152067D01*
Y13975D01*
X152012D01*
Y13989D01*
X151957D01*
Y14002D01*
X151888D01*
Y14016D01*
X151832D01*
Y14030D01*
X151777D01*
Y14044D01*
X151722D01*
Y14058D01*
X151666D01*
Y14072D01*
X151611D01*
Y14085D01*
X151556D01*
Y14099D01*
X151500D01*
Y14113D01*
X151445D01*
Y14127D01*
X151390D01*
Y14141D01*
X151334D01*
Y14154D01*
X151265D01*
Y14168D01*
X151210D01*
Y14182D01*
X151154D01*
Y14196D01*
X151099D01*
Y14210D01*
X151044D01*
Y14224D01*
X150989D01*
Y14238D01*
X150933D01*
Y14251D01*
X150878D01*
Y14265D01*
X150823D01*
Y14279D01*
X150767D01*
Y14293D01*
X150698D01*
Y14307D01*
X150643D01*
Y14321D01*
X150587D01*
Y14334D01*
X150532D01*
Y14348D01*
X150477D01*
Y14362D01*
X150422D01*
Y14376D01*
X150366D01*
Y14390D01*
X150297D01*
Y14403D01*
X150242D01*
Y14417D01*
X150186D01*
Y14431D01*
X150131D01*
Y14445D01*
X150076D01*
Y14459D01*
X150021D01*
Y14473D01*
X149965D01*
Y14486D01*
X149896D01*
Y14500D01*
X149841D01*
Y14514D01*
X149785D01*
Y14528D01*
X149730D01*
Y14542D01*
X149675D01*
Y14556D01*
X149606D01*
Y14569D01*
X149550D01*
Y14583D01*
X149495D01*
Y14597D01*
X149440D01*
Y14611D01*
X149384D01*
Y14625D01*
X149315D01*
Y14639D01*
X149260D01*
Y14652D01*
X149205D01*
Y14666D01*
X149149D01*
Y14680D01*
X149080D01*
Y14694D01*
X149025D01*
Y14708D01*
X148969D01*
Y14721D01*
X148900D01*
Y14735D01*
X148845D01*
Y14749D01*
X148790D01*
Y14763D01*
X148734D01*
Y14777D01*
X148665D01*
Y14791D01*
X148610D01*
Y14805D01*
X148541D01*
Y14818D01*
X148485D01*
Y14832D01*
X148430D01*
Y14846D01*
X148361D01*
Y14860D01*
X148305D01*
Y14874D01*
X148250D01*
Y14887D01*
X148181D01*
Y14901D01*
X148126D01*
Y14915D01*
X148056D01*
Y14929D01*
X148001D01*
Y14943D01*
X147932D01*
Y14957D01*
X147877D01*
Y14970D01*
X147808D01*
Y14984D01*
X147752D01*
Y14998D01*
X147683D01*
Y15012D01*
X147628D01*
Y15026D01*
X147559D01*
Y15040D01*
X147503D01*
Y15054D01*
X147434D01*
Y15067D01*
X147379D01*
Y15081D01*
X147310D01*
Y15095D01*
X147241D01*
Y15109D01*
X147185D01*
Y15123D01*
X147116D01*
Y15136D01*
X147061D01*
Y15150D01*
X146992D01*
Y15164D01*
X146923D01*
Y15178D01*
X146853D01*
Y15192D01*
X146798D01*
Y15206D01*
X146729D01*
Y15220D01*
X146660D01*
Y15233D01*
X146590D01*
Y15247D01*
X146535D01*
Y15261D01*
X146466D01*
Y15275D01*
X146397D01*
Y15289D01*
X146328D01*
Y15302D01*
X146259D01*
Y15316D01*
X146189D01*
Y15330D01*
X146120D01*
Y15344D01*
X146051D01*
Y15358D01*
X145982D01*
Y15372D01*
X145913D01*
Y15385D01*
X145844D01*
Y15399D01*
X145774D01*
Y15413D01*
X145705D01*
Y15427D01*
X145636D01*
Y15441D01*
X145567D01*
Y15455D01*
X145498D01*
Y15468D01*
X145429D01*
Y15482D01*
X145346D01*
Y15496D01*
X145277D01*
Y15510D01*
X145208D01*
Y15524D01*
X145138D01*
Y15538D01*
X145055D01*
Y15551D01*
X144986D01*
Y15565D01*
X144903D01*
Y15579D01*
X144834D01*
Y15593D01*
X144765D01*
Y15607D01*
X144682D01*
Y15620D01*
X144599D01*
Y15634D01*
X144530D01*
Y15648D01*
X144447D01*
Y15662D01*
X144378D01*
Y15676D01*
X144295D01*
Y15690D01*
X144212D01*
Y15703D01*
X144129D01*
Y15717D01*
X144046D01*
Y15731D01*
X143977D01*
Y15745D01*
X143894D01*
Y15759D01*
X143811D01*
Y15773D01*
X143728D01*
Y15787D01*
X143631D01*
Y15800D01*
X143548D01*
Y15814D01*
X143465D01*
Y15828D01*
X143382D01*
Y15842D01*
X143285D01*
Y15856D01*
X143202D01*
Y15869D01*
X143105D01*
Y15883D01*
X143022D01*
Y15897D01*
X142926D01*
Y15911D01*
X142842D01*
Y15925D01*
X142746D01*
Y15939D01*
X142649D01*
Y15953D01*
X142552D01*
Y15966D01*
X142455D01*
Y15980D01*
X142358D01*
Y15994D01*
X142262D01*
Y16008D01*
X142151D01*
Y16022D01*
X142054D01*
Y16035D01*
X141944D01*
Y16049D01*
X141833D01*
Y16063D01*
X141736D01*
Y16077D01*
X141625D01*
Y16091D01*
X141501D01*
Y16105D01*
X141390D01*
Y16118D01*
X141280D01*
Y16132D01*
X141155D01*
Y16146D01*
X141031D01*
Y16160D01*
X140906D01*
Y16174D01*
X140782D01*
Y16188D01*
X140644D01*
Y16201D01*
X140505D01*
Y16215D01*
X140367D01*
Y16229D01*
X140229D01*
Y16243D01*
X140076D01*
Y16257D01*
X139910D01*
Y16271D01*
X139744D01*
Y16284D01*
X139579D01*
Y16298D01*
X139399D01*
Y16312D01*
X139205D01*
Y16326D01*
X138998D01*
Y16340D01*
X138776D01*
Y16353D01*
X138528D01*
Y16367D01*
X138237D01*
Y16381D01*
X137905D01*
Y16395D01*
X137449D01*
Y16409D01*
X135692D01*
Y16395D01*
X135250D01*
Y16381D01*
X134932D01*
Y16367D01*
X134669D01*
Y16353D01*
X134434D01*
Y16340D01*
X134226D01*
Y16326D01*
X134046D01*
Y16312D01*
X133867D01*
Y16298D01*
X133701D01*
Y16284D01*
X133549D01*
Y16271D01*
X133396D01*
Y16257D01*
X133258D01*
Y16243D01*
X133134D01*
Y16229D01*
X132995D01*
Y16215D01*
X132885D01*
Y16201D01*
X132760D01*
Y16188D01*
X132650D01*
Y16174D01*
X132539D01*
Y16160D01*
X132428D01*
Y16146D01*
X132318D01*
Y16132D01*
X132221D01*
Y16118D01*
X132124D01*
Y16105D01*
X132027D01*
Y16091D01*
X131930D01*
Y16077D01*
X131834D01*
Y16063D01*
X131751D01*
Y16049D01*
X131668D01*
Y16035D01*
X131571D01*
Y16022D01*
X131488D01*
Y16008D01*
X131405D01*
Y15994D01*
X131322D01*
Y15980D01*
X131239D01*
Y15966D01*
X131170D01*
Y15953D01*
X131087D01*
Y15939D01*
X131004D01*
Y15925D01*
X130935D01*
Y15911D01*
X130866D01*
Y15897D01*
X130782D01*
Y15883D01*
X130713D01*
Y15869D01*
X130644D01*
Y15856D01*
X130575D01*
Y15842D01*
X130506D01*
Y15828D01*
X130437D01*
Y15814D01*
X130368D01*
Y15800D01*
X130298D01*
Y15787D01*
X130243D01*
Y15773D01*
X130174D01*
Y15759D01*
X130105D01*
Y15745D01*
X130050D01*
Y15731D01*
X129980D01*
Y15717D01*
X129925D01*
Y15703D01*
X129856D01*
Y15690D01*
X129800D01*
Y15676D01*
X129745D01*
Y15662D01*
X129676D01*
Y15648D01*
X129621D01*
Y15634D01*
X129565D01*
Y15620D01*
X129510D01*
Y15607D01*
X129455D01*
Y15593D01*
X129386D01*
Y15579D01*
X129330D01*
Y15565D01*
X129275D01*
Y15551D01*
X129220D01*
Y15538D01*
X129178D01*
Y15524D01*
X129123D01*
Y15510D01*
X129068D01*
Y15496D01*
X129012D01*
Y15482D01*
X128957D01*
Y15468D01*
X128902D01*
Y15455D01*
X128860D01*
Y15441D01*
X128805D01*
Y15427D01*
X128750D01*
Y15413D01*
X128708D01*
Y15399D01*
X128653D01*
Y15385D01*
X128597D01*
Y15372D01*
X128556D01*
Y15358D01*
X128500D01*
Y15344D01*
X128459D01*
Y15330D01*
X128404D01*
Y15316D01*
X128362D01*
Y15302D01*
X128307D01*
Y15289D01*
X128265D01*
Y15275D01*
X128224D01*
Y15261D01*
X128169D01*
Y15247D01*
X128127D01*
Y15233D01*
X128086D01*
Y15220D01*
X128030D01*
Y15206D01*
X127989D01*
Y15192D01*
X127947D01*
Y15178D01*
X127892D01*
Y15164D01*
X127850D01*
Y15150D01*
X127809D01*
Y15136D01*
X127768D01*
Y15123D01*
X127726D01*
Y15109D01*
X127684D01*
Y15095D01*
X127629D01*
Y15081D01*
X127588D01*
Y15067D01*
X127546D01*
Y15054D01*
X127505D01*
Y15040D01*
X127463D01*
Y15026D01*
X127422D01*
Y15012D01*
X127380D01*
Y14998D01*
X127339D01*
Y14984D01*
X127297D01*
Y14970D01*
X127256D01*
Y14957D01*
X127214D01*
Y14943D01*
X127173D01*
Y14929D01*
X127131D01*
Y14915D01*
X127104D01*
Y14901D01*
X127062D01*
Y14887D01*
X127021D01*
Y14874D01*
X126979D01*
Y14860D01*
X126938D01*
Y14846D01*
X126896D01*
Y14832D01*
X126868D01*
Y14818D01*
X126827D01*
Y14805D01*
X126786D01*
Y14791D01*
X126744D01*
Y14777D01*
X126703D01*
Y14763D01*
X126675D01*
Y14749D01*
X126633D01*
Y14735D01*
X126592D01*
Y14721D01*
X126564D01*
Y14708D01*
X126523D01*
Y14694D01*
X126481D01*
Y14680D01*
X126454D01*
Y14666D01*
X126412D01*
Y14652D01*
X126371D01*
Y14639D01*
X126343D01*
Y14625D01*
X126302D01*
Y14611D01*
X126260D01*
Y14597D01*
X126232D01*
Y14583D01*
X126191D01*
Y14569D01*
X126163D01*
Y14556D01*
X126122D01*
Y14542D01*
X126094D01*
Y14528D01*
X126052D01*
Y14514D01*
X126025D01*
Y14500D01*
X125983D01*
Y14486D01*
X125956D01*
Y14473D01*
X125914D01*
Y14459D01*
X125887D01*
Y14445D01*
X125845D01*
Y14431D01*
X125817D01*
Y14417D01*
X125776D01*
Y14403D01*
X125748D01*
Y14390D01*
X125707D01*
Y14376D01*
X125679D01*
Y14362D01*
X125652D01*
Y14348D01*
X125610D01*
Y14334D01*
X125582D01*
Y14321D01*
X125555D01*
Y14307D01*
X125513D01*
Y14293D01*
X125486D01*
Y14279D01*
X125444D01*
Y14265D01*
X125416D01*
Y14251D01*
X125389D01*
Y14238D01*
X125347D01*
Y14224D01*
X125320D01*
Y14210D01*
X125292D01*
Y14196D01*
X125264D01*
Y14182D01*
X125223D01*
Y14168D01*
X125195D01*
Y14154D01*
X125167D01*
Y14141D01*
X125126D01*
Y14127D01*
X125098D01*
Y14113D01*
X125071D01*
Y14099D01*
X125043D01*
Y14085D01*
X125001D01*
Y14072D01*
X124974D01*
Y14058D01*
X124946D01*
Y14044D01*
X124918D01*
Y14030D01*
X124891D01*
Y14016D01*
X124849D01*
Y14002D01*
X124822D01*
Y13989D01*
X124794D01*
Y13975D01*
X124766D01*
Y13961D01*
X124739D01*
Y13947D01*
X124725D01*
Y13933D01*
X125071D01*
Y13919D01*
X125430D01*
Y13906D01*
X125734D01*
Y13892D01*
X125997D01*
Y13878D01*
X126260D01*
Y13864D01*
X126495D01*
Y13850D01*
X126730D01*
Y13836D01*
X126938D01*
Y13823D01*
X127159D01*
Y13809D01*
X127366D01*
Y13795D01*
X127560D01*
Y13781D01*
X127754D01*
Y13767D01*
X127947D01*
Y13754D01*
X128141D01*
Y13740D01*
X128334D01*
Y13726D01*
X128514D01*
Y13712D01*
X128694D01*
Y13698D01*
X128888D01*
Y13684D01*
X129068D01*
Y13670D01*
X129247D01*
Y13657D01*
X129413D01*
Y13643D01*
X129593D01*
Y13629D01*
X129773D01*
Y13615D01*
X129953D01*
Y13601D01*
X130132D01*
Y13588D01*
X130298D01*
Y13574D01*
X130478D01*
Y13560D01*
X130658D01*
Y13546D01*
X130824D01*
Y13532D01*
X131004D01*
Y13518D01*
X131184D01*
Y13505D01*
X131350D01*
Y13491D01*
X131529D01*
Y13477D01*
X131709D01*
Y13463D01*
X131889D01*
Y13449D01*
X132069D01*
Y13435D01*
X132248D01*
Y13421D01*
X132428D01*
Y13408D01*
X132608D01*
Y13394D01*
X132802D01*
Y13380D01*
X132982D01*
Y13366D01*
X133175D01*
Y13352D01*
X133355D01*
Y13339D01*
X133549D01*
Y13325D01*
X133742D01*
Y13311D01*
X133936D01*
Y13297D01*
X134129D01*
Y13283D01*
X134337D01*
Y13269D01*
X134530D01*
Y13255D01*
X134738D01*
Y13242D01*
X134945D01*
Y13228D01*
X135167D01*
Y13214D01*
X135374D01*
Y13200D01*
X135595D01*
Y13186D01*
X135831D01*
Y13173D01*
X136052D01*
Y13159D01*
X136287D01*
Y13145D01*
X136536D01*
Y13131D01*
X136785D01*
Y13117D01*
X137048D01*
Y13103D01*
X137310D01*
Y13090D01*
X137587D01*
Y13076D01*
X137877D01*
Y13062D01*
X138196D01*
Y13048D01*
X138514D01*
Y13034D01*
X138859D01*
Y13020D01*
X139233D01*
Y13007D01*
X139662D01*
Y12993D01*
X140132D01*
Y12979D01*
X140713D01*
Y12965D01*
X141515D01*
Y12951D01*
X141805D01*
Y12937D01*
Y12924D01*
Y12910D01*
X141667D01*
Y12896D01*
X141210D01*
Y12882D01*
X140644D01*
Y12868D01*
X139717D01*
Y12855D01*
X137960D01*
Y12868D01*
X136965D01*
Y12882D01*
X136328D01*
Y12896D01*
X135803D01*
Y12910D01*
X135346D01*
Y12924D01*
X134932D01*
Y12937D01*
X134558D01*
Y12951D01*
X134199D01*
Y12965D01*
X133867D01*
Y12979D01*
X133549D01*
Y12993D01*
X133230D01*
Y13007D01*
X132940D01*
Y13020D01*
X132650D01*
Y13034D01*
X132373D01*
Y13048D01*
X132096D01*
Y13062D01*
X131834D01*
Y13076D01*
X131571D01*
Y13090D01*
X131322D01*
Y13103D01*
X131073D01*
Y13117D01*
X130824D01*
Y13131D01*
X130575D01*
Y13145D01*
X130326D01*
Y13159D01*
X130091D01*
Y13173D01*
X129842D01*
Y13186D01*
X129607D01*
Y13200D01*
X129372D01*
Y13214D01*
X129137D01*
Y13228D01*
X128902D01*
Y13242D01*
X128653D01*
Y13255D01*
X128418D01*
Y13269D01*
X128182D01*
Y13283D01*
X127933D01*
Y13297D01*
X127698D01*
Y13311D01*
X127449D01*
Y13325D01*
X127200D01*
Y13339D01*
X126952D01*
Y13352D01*
X126689D01*
Y13366D01*
X126412D01*
Y13380D01*
X126136D01*
Y13394D01*
X125859D01*
Y13408D01*
X125555D01*
Y13421D01*
X125223D01*
Y13435D01*
X124877D01*
Y13449D01*
X124476D01*
Y13463D01*
X123992D01*
Y13477D01*
X123093D01*
Y13491D01*
X122636D01*
Y13477D01*
X121876D01*
Y13463D01*
X121516D01*
Y13449D01*
X121240D01*
Y13435D01*
X121018D01*
Y13421D01*
X120825D01*
Y13408D01*
X120659D01*
Y13394D01*
X120507D01*
Y13380D01*
X120368D01*
Y13366D01*
X120244D01*
Y13352D01*
X120133D01*
Y13339D01*
X120022D01*
Y13325D01*
X119912D01*
Y13311D01*
X119815D01*
Y13297D01*
X119718D01*
Y13283D01*
X119635D01*
Y13269D01*
X119552D01*
Y13255D01*
X119469D01*
Y13242D01*
X119386D01*
Y13228D01*
X119317D01*
Y13214D01*
X119248D01*
Y13200D01*
X119165D01*
Y13186D01*
X119110D01*
Y13173D01*
X119041D01*
Y13159D01*
X118971D01*
Y13145D01*
X118916D01*
Y13131D01*
X118847D01*
Y13117D01*
X118792D01*
Y13103D01*
X118736D01*
Y13090D01*
X118681D01*
Y13076D01*
X118626D01*
Y13062D01*
X118570D01*
Y13048D01*
X118515D01*
Y13034D01*
X118460D01*
Y13020D01*
X118418D01*
Y13007D01*
X118363D01*
Y12993D01*
X118308D01*
Y12979D01*
X118266D01*
Y12965D01*
X118211D01*
Y12951D01*
X118169D01*
Y12937D01*
X118128D01*
Y12924D01*
X118072D01*
Y12910D01*
X118031D01*
Y12896D01*
X117990D01*
Y12882D01*
X117948D01*
Y12868D01*
X117906D01*
Y12855D01*
X117865D01*
Y12841D01*
X117824D01*
Y12827D01*
X117782D01*
Y12813D01*
X117740D01*
Y12799D01*
X117699D01*
Y12785D01*
X117657D01*
Y12772D01*
X117616D01*
Y12758D01*
X117575D01*
Y12744D01*
X117533D01*
Y12730D01*
X117492D01*
Y12716D01*
X117450D01*
Y12702D01*
X117422D01*
Y12688D01*
X117381D01*
Y12675D01*
X117339D01*
Y12661D01*
X117312D01*
Y12647D01*
X117270D01*
Y12633D01*
X117229D01*
Y12619D01*
X117187D01*
Y12606D01*
X117160D01*
Y12592D01*
X117118D01*
Y12578D01*
X117090D01*
Y12564D01*
X117049D01*
Y12550D01*
X117008D01*
Y12536D01*
X116980D01*
Y12522D01*
X116938D01*
Y12509D01*
X116911D01*
Y12495D01*
X116883D01*
Y12481D01*
X116842D01*
Y12467D01*
X116814D01*
Y12453D01*
X116772D01*
Y12440D01*
X116745D01*
Y12426D01*
X116717D01*
Y12412D01*
X116689D01*
Y12398D01*
X116648D01*
Y12384D01*
X116620D01*
Y12370D01*
X116593D01*
Y12357D01*
X116565D01*
Y12343D01*
X116537D01*
Y12329D01*
X116510D01*
Y12315D01*
X116482D01*
Y12301D01*
X116454D01*
Y12287D01*
X116427D01*
Y12274D01*
X116399D01*
Y12260D01*
X116371D01*
Y12246D01*
X116344D01*
Y12232D01*
X116316D01*
Y12218D01*
X116302D01*
Y12204D01*
X116274D01*
Y12191D01*
X116247D01*
Y12177D01*
X116233D01*
Y12163D01*
X116205D01*
Y12149D01*
X116178D01*
Y12135D01*
X116164D01*
Y12122D01*
X116136D01*
Y12108D01*
X116122D01*
Y12094D01*
X116095D01*
Y12080D01*
X116081D01*
Y12066D01*
X116067D01*
Y12052D01*
X116039D01*
Y12038D01*
X116026D01*
Y12025D01*
X116012D01*
Y12011D01*
X115984D01*
Y11997D01*
X115970D01*
Y11983D01*
X115956D01*
Y11969D01*
X115943D01*
Y11955D01*
X115929D01*
Y11942D01*
X115915D01*
Y11928D01*
X115901D01*
Y11914D01*
X115887D01*
Y11900D01*
X115873D01*
Y11886D01*
X115860D01*
Y11873D01*
X115846D01*
Y11859D01*
X115832D01*
Y11845D01*
X115818D01*
Y11831D01*
X115804D01*
Y11817D01*
X115790D01*
Y11803D01*
X115777D01*
Y11789D01*
X115763D01*
Y11776D01*
X115749D01*
Y11762D01*
Y11748D01*
X115735D01*
Y11734D01*
X115721D01*
Y11720D01*
X115708D01*
Y11707D01*
Y11693D01*
X115694D01*
Y11679D01*
X115680D01*
Y11665D01*
Y11651D01*
X115666D01*
Y11637D01*
X115652D01*
Y11624D01*
Y11610D01*
X115638D01*
Y11596D01*
Y11582D01*
X115624D01*
Y11568D01*
Y11554D01*
X115611D01*
Y11541D01*
Y11527D01*
X115597D01*
Y11513D01*
Y11499D01*
X115583D01*
Y11485D01*
Y11472D01*
X115569D01*
Y11458D01*
Y11444D01*
Y11430D01*
X115555D01*
Y11416D01*
Y11402D01*
Y11389D01*
X115542D01*
Y11375D01*
Y11361D01*
Y11347D01*
X115528D01*
Y11333D01*
Y11319D01*
Y11305D01*
X115514D01*
Y11292D01*
Y11278D01*
Y11264D01*
Y11250D01*
X115500D01*
Y11236D01*
Y11223D01*
Y11209D01*
Y11195D01*
Y11181D01*
X115486D01*
Y11167D01*
Y11153D01*
Y11140D01*
Y11126D01*
Y11112D01*
Y11098D01*
Y11084D01*
X115472D01*
Y11070D01*
Y11056D01*
Y11043D01*
Y11029D01*
Y11015D01*
Y11001D01*
Y10987D01*
Y10973D01*
Y10960D01*
Y10946D01*
Y10932D01*
X115459D01*
Y10918D01*
Y10904D01*
Y10891D01*
Y10877D01*
Y10863D01*
Y10849D01*
Y10835D01*
Y10821D01*
Y10808D01*
Y10794D01*
Y10780D01*
Y10766D01*
Y10752D01*
Y10738D01*
Y10725D01*
Y10711D01*
X115472D01*
Y10697D01*
Y10683D01*
Y10669D01*
Y10655D01*
Y10642D01*
Y10628D01*
Y10614D01*
Y10600D01*
Y10586D01*
Y10572D01*
Y10559D01*
Y10545D01*
Y10531D01*
Y10517D01*
X115486D01*
Y10503D01*
Y10490D01*
Y10476D01*
Y10462D01*
Y10448D01*
Y10434D01*
Y10420D01*
Y10407D01*
X115500D01*
Y10393D01*
Y10379D01*
Y10365D01*
Y10351D01*
Y10337D01*
Y10323D01*
Y10310D01*
X115514D01*
Y10296D01*
Y10282D01*
Y10268D01*
Y10254D01*
Y10240D01*
Y10227D01*
X115528D01*
Y10213D01*
Y10199D01*
Y10185D01*
Y10171D01*
Y10158D01*
X115542D01*
Y10144D01*
Y10130D01*
Y10116D01*
Y10102D01*
Y10088D01*
Y10075D01*
X115555D01*
Y10061D01*
Y10047D01*
Y10033D01*
Y10019D01*
X115569D01*
Y10005D01*
Y9992D01*
Y9978D01*
Y9964D01*
Y9950D01*
X115583D01*
Y9936D01*
Y9922D01*
Y9909D01*
Y9895D01*
X115597D01*
Y9881D01*
Y9867D01*
Y9853D01*
Y9839D01*
X115611D01*
Y9826D01*
Y9812D01*
Y9798D01*
Y9784D01*
X115624D01*
Y9770D01*
Y9757D01*
Y9743D01*
Y9729D01*
X115638D01*
Y9715D01*
Y9701D01*
Y9687D01*
Y9674D01*
X115652D01*
Y9660D01*
Y9646D01*
Y9632D01*
X115666D01*
Y9618D01*
Y9604D01*
Y9590D01*
Y9577D01*
X115680D01*
Y9563D01*
Y9549D01*
Y9535D01*
Y9521D01*
X115694D01*
Y9507D01*
Y9494D01*
Y9480D01*
X115708D01*
Y9466D01*
Y9452D01*
Y9438D01*
X115721D01*
Y9425D01*
Y9411D01*
Y9397D01*
Y9383D01*
X115735D01*
Y9369D01*
Y9355D01*
Y9342D01*
X115749D01*
Y9328D01*
Y9314D01*
Y9300D01*
X115763D01*
Y9286D01*
Y9272D01*
Y9259D01*
X115777D01*
Y9245D01*
Y9231D01*
Y9217D01*
Y9203D01*
X115790D01*
Y9189D01*
Y9176D01*
Y9162D01*
X115804D01*
Y9148D01*
Y9134D01*
Y9120D01*
X115818D01*
Y9106D01*
Y9093D01*
Y9079D01*
X115832D01*
Y9065D01*
Y9051D01*
Y9037D01*
X115846D01*
Y9024D01*
Y9010D01*
Y8996D01*
X115860D01*
Y8982D01*
Y8968D01*
Y8954D01*
X115873D01*
Y8941D01*
Y8927D01*
Y8913D01*
X115887D01*
Y8899D01*
Y8885D01*
Y8871D01*
X115901D01*
Y8857D01*
Y8844D01*
X115915D01*
Y8830D01*
Y8816D01*
Y8802D01*
X115929D01*
Y8788D01*
Y8775D01*
Y8761D01*
X115943D01*
Y8747D01*
Y8733D01*
Y8719D01*
X115956D01*
Y8705D01*
Y8692D01*
Y8678D01*
X115970D01*
Y8664D01*
Y8650D01*
X115984D01*
Y8636D01*
Y8622D01*
Y8609D01*
X115998D01*
Y8595D01*
Y8581D01*
Y8567D01*
X116012D01*
Y8553D01*
Y8539D01*
Y8526D01*
X116026D01*
Y8512D01*
Y8498D01*
X116039D01*
Y8484D01*
Y8470D01*
Y8456D01*
X116053D01*
Y8443D01*
Y8429D01*
Y8415D01*
X116067D01*
Y8401D01*
Y8387D01*
X116081D01*
Y8373D01*
Y8360D01*
Y8346D01*
X116095D01*
Y8332D01*
Y8318D01*
Y8304D01*
X116109D01*
Y8291D01*
Y8277D01*
X116122D01*
Y8263D01*
Y8249D01*
Y8235D01*
X116136D01*
Y8221D01*
Y8207D01*
X116150D01*
Y8194D01*
Y8180D01*
Y8166D01*
X116164D01*
Y8152D01*
Y8138D01*
Y8124D01*
X116178D01*
Y8111D01*
Y8097D01*
X116191D01*
Y8083D01*
Y8069D01*
Y8055D01*
X116205D01*
Y8042D01*
Y8028D01*
X116219D01*
Y8014D01*
Y8000D01*
Y7986D01*
X116233D01*
Y7972D01*
Y7959D01*
X116247D01*
Y7945D01*
Y7931D01*
Y7917D01*
X116261D01*
Y7903D01*
Y7889D01*
X116274D01*
Y7876D01*
Y7862D01*
Y7848D01*
X116288D01*
Y7834D01*
Y7820D01*
X116302D01*
Y7806D01*
Y7793D01*
Y7779D01*
X116316D01*
Y7765D01*
Y7751D01*
X116330D01*
Y7737D01*
Y7723D01*
Y7710D01*
X116288D01*
Y7723D01*
X116274D01*
Y7737D01*
Y7751D01*
X116261D01*
Y7765D01*
Y7779D01*
X116247D01*
Y7793D01*
Y7806D01*
X116233D01*
Y7820D01*
Y7834D01*
Y7848D01*
X116219D01*
Y7862D01*
Y7876D01*
X116205D01*
Y7889D01*
Y7903D01*
X116191D01*
Y7917D01*
Y7931D01*
X116178D01*
Y7945D01*
Y7959D01*
X116164D01*
Y7972D01*
Y7986D01*
X116150D01*
Y8000D01*
Y8014D01*
X116136D01*
Y8028D01*
Y8042D01*
X116122D01*
Y8055D01*
Y8069D01*
Y8083D01*
X116109D01*
Y8097D01*
Y8111D01*
X116095D01*
Y8124D01*
Y8138D01*
X116081D01*
Y8152D01*
Y8166D01*
X116067D01*
Y8180D01*
Y8194D01*
X116053D01*
Y8207D01*
Y8221D01*
X116039D01*
Y8235D01*
Y8249D01*
X116026D01*
Y8263D01*
Y8277D01*
Y8291D01*
X116012D01*
Y8304D01*
Y8318D01*
X115998D01*
Y8332D01*
Y8346D01*
X115984D01*
Y8360D01*
Y8373D01*
X115970D01*
Y8387D01*
Y8401D01*
X115956D01*
Y8415D01*
Y8429D01*
X115943D01*
Y8443D01*
Y8456D01*
Y8470D01*
X115929D01*
Y8484D01*
Y8498D01*
X115915D01*
Y8512D01*
Y8526D01*
X115901D01*
Y8539D01*
Y8553D01*
X115887D01*
Y8567D01*
Y8581D01*
X115873D01*
Y8595D01*
Y8609D01*
X115860D01*
Y8622D01*
Y8636D01*
Y8650D01*
X115846D01*
Y8664D01*
Y8678D01*
X115832D01*
Y8692D01*
Y8705D01*
X115818D01*
Y8719D01*
Y8733D01*
X115804D01*
Y8747D01*
Y8761D01*
X115790D01*
Y8775D01*
Y8788D01*
Y8802D01*
X115777D01*
Y8816D01*
Y8830D01*
X115763D01*
Y8844D01*
Y8857D01*
X115749D01*
Y8871D01*
Y8885D01*
X115735D01*
Y8899D01*
Y8913D01*
Y8927D01*
X115721D01*
Y8941D01*
Y8954D01*
X115708D01*
Y8968D01*
Y8982D01*
X115694D01*
Y8996D01*
Y9010D01*
X115680D01*
Y9024D01*
Y9037D01*
Y9051D01*
X115666D01*
Y9065D01*
Y9079D01*
X115652D01*
Y9093D01*
Y9106D01*
X115638D01*
Y9120D01*
Y9134D01*
X115624D01*
Y9148D01*
Y9162D01*
Y9176D01*
X115611D01*
Y9189D01*
Y9203D01*
X115597D01*
Y9217D01*
Y9231D01*
X115583D01*
Y9245D01*
Y9259D01*
Y9272D01*
X115569D01*
Y9286D01*
Y9300D01*
X115555D01*
Y9314D01*
Y9328D01*
X115542D01*
Y9342D01*
Y9355D01*
Y9369D01*
X115528D01*
Y9383D01*
Y9397D01*
X115514D01*
Y9411D01*
Y9425D01*
X115500D01*
Y9438D01*
Y9452D01*
Y9466D01*
X115486D01*
Y9480D01*
Y9494D01*
X115472D01*
Y9507D01*
Y9521D01*
X115459D01*
Y9535D01*
Y9549D01*
Y9563D01*
X115445D01*
Y9577D01*
Y9590D01*
X115431D01*
Y9604D01*
Y9618D01*
Y9632D01*
X115417D01*
Y9646D01*
Y9660D01*
X115403D01*
Y9674D01*
Y9687D01*
Y9701D01*
X115389D01*
Y9715D01*
Y9729D01*
X115375D01*
Y9743D01*
Y9757D01*
Y9770D01*
X115362D01*
Y9784D01*
Y9798D01*
X115348D01*
Y9812D01*
Y9826D01*
Y9839D01*
X115334D01*
Y9853D01*
Y9867D01*
X115320D01*
Y9881D01*
Y9895D01*
Y9909D01*
X115306D01*
Y9922D01*
Y9936D01*
Y9950D01*
X115293D01*
Y9964D01*
Y9978D01*
X115279D01*
Y9992D01*
Y10005D01*
Y10019D01*
X115265D01*
Y10033D01*
Y10047D01*
Y10061D01*
X115251D01*
Y10075D01*
Y10088D01*
Y10102D01*
X115237D01*
Y10116D01*
Y10130D01*
X115223D01*
Y10144D01*
Y10158D01*
Y10171D01*
X115210D01*
Y10185D01*
Y10199D01*
Y10213D01*
X115196D01*
Y10227D01*
Y10240D01*
Y10254D01*
X115182D01*
Y10268D01*
Y10282D01*
Y10296D01*
X115168D01*
Y10310D01*
Y10323D01*
Y10337D01*
X115154D01*
Y10351D01*
Y10365D01*
Y10379D01*
X115140D01*
Y10393D01*
Y10407D01*
Y10420D01*
X115127D01*
Y10434D01*
Y10448D01*
Y10462D01*
Y10476D01*
X115113D01*
Y10490D01*
Y10503D01*
Y10517D01*
X115099D01*
Y10531D01*
Y10545D01*
Y10559D01*
X115085D01*
Y10572D01*
Y10586D01*
Y10600D01*
Y10614D01*
X115071D01*
Y10628D01*
Y10642D01*
Y10655D01*
Y10669D01*
X115057D01*
Y10683D01*
Y10697D01*
Y10711D01*
Y10725D01*
X115044D01*
Y10738D01*
Y10752D01*
Y10766D01*
Y10780D01*
X115030D01*
Y10794D01*
Y10808D01*
Y10821D01*
Y10835D01*
X115016D01*
Y10849D01*
Y10863D01*
Y10877D01*
Y10891D01*
Y10904D01*
X115002D01*
Y10918D01*
Y10932D01*
Y10946D01*
Y10960D01*
Y10973D01*
Y10987D01*
X114988D01*
Y11001D01*
Y11015D01*
Y11029D01*
Y11043D01*
Y11056D01*
Y11070D01*
Y11084D01*
X114974D01*
Y11098D01*
Y11112D01*
Y11126D01*
Y11140D01*
Y11153D01*
Y11167D01*
Y11181D01*
Y11195D01*
Y11209D01*
X114961D01*
Y11223D01*
Y11236D01*
Y11250D01*
Y11264D01*
Y11278D01*
Y11292D01*
Y11305D01*
Y11319D01*
Y11333D01*
Y11347D01*
Y11361D01*
Y11375D01*
Y11389D01*
Y11402D01*
Y11416D01*
Y11430D01*
Y11444D01*
Y11458D01*
Y11472D01*
Y11485D01*
Y11499D01*
Y11513D01*
X114974D01*
Y11527D01*
Y11541D01*
Y11554D01*
Y11568D01*
Y11582D01*
Y11596D01*
Y11610D01*
Y11624D01*
X114988D01*
Y11637D01*
Y11651D01*
Y11665D01*
Y11679D01*
Y11693D01*
X115002D01*
Y11707D01*
Y11720D01*
Y11734D01*
X115016D01*
Y11748D01*
Y11762D01*
Y11776D01*
Y11789D01*
X115030D01*
Y11803D01*
Y11817D01*
Y11831D01*
X115044D01*
Y11845D01*
Y11859D01*
X115057D01*
Y11873D01*
Y11886D01*
Y11900D01*
X115071D01*
Y11914D01*
Y11928D01*
X115085D01*
Y11942D01*
Y11955D01*
X115099D01*
Y11969D01*
Y11983D01*
X115113D01*
Y11997D01*
X115127D01*
Y12011D01*
Y12025D01*
X115140D01*
Y12038D01*
Y12052D01*
X115154D01*
Y12066D01*
X115168D01*
Y12080D01*
Y12094D01*
X115182D01*
Y12108D01*
X115196D01*
Y12122D01*
X115210D01*
Y12135D01*
Y12149D01*
X115223D01*
Y12163D01*
X115237D01*
Y12177D01*
X115251D01*
Y12191D01*
X115265D01*
Y12204D01*
X115279D01*
Y12218D01*
X115293D01*
Y12232D01*
X115306D01*
Y12246D01*
X115320D01*
Y12260D01*
X115334D01*
Y12274D01*
X115348D01*
Y12287D01*
X115362D01*
Y12301D01*
X115375D01*
Y12315D01*
X115389D01*
Y12329D01*
X115403D01*
Y12343D01*
X115417D01*
Y12357D01*
X115431D01*
Y12370D01*
X115459D01*
Y12384D01*
X115472D01*
Y12398D01*
X115486D01*
Y12412D01*
X115514D01*
Y12426D01*
X115528D01*
Y12440D01*
X115542D01*
Y12453D01*
X115569D01*
Y12467D01*
X115583D01*
Y12481D01*
X115611D01*
Y12495D01*
X115624D01*
Y12509D01*
X115652D01*
Y12522D01*
X115680D01*
Y12536D01*
X115694D01*
Y12550D01*
X115721D01*
Y12564D01*
X115749D01*
Y12578D01*
X115763D01*
Y12592D01*
X115790D01*
Y12606D01*
X115818D01*
Y12619D01*
X115846D01*
Y12633D01*
X115873D01*
Y12647D01*
X115901D01*
Y12661D01*
X115929D01*
Y12675D01*
X115956D01*
Y12688D01*
X115984D01*
Y12702D01*
X116012D01*
Y12716D01*
X116053D01*
Y12730D01*
X116081D01*
Y12744D01*
X116109D01*
Y12758D01*
X116136D01*
Y12772D01*
X116178D01*
Y12785D01*
X116205D01*
Y12799D01*
X116247D01*
Y12813D01*
X116274D01*
Y12827D01*
X116316D01*
Y12841D01*
X116344D01*
Y12855D01*
X116385D01*
Y12868D01*
X116427D01*
Y12882D01*
X116454D01*
Y12896D01*
X116496D01*
Y12910D01*
X116537D01*
Y12924D01*
X116565D01*
Y12937D01*
X116606D01*
Y12951D01*
X116648D01*
Y12965D01*
X116689D01*
Y12979D01*
X116717D01*
Y12993D01*
X116759D01*
Y13007D01*
X116800D01*
Y13020D01*
X116842D01*
Y13034D01*
X116883D01*
Y13048D01*
X116925D01*
Y13062D01*
X116966D01*
Y13076D01*
X117008D01*
Y13090D01*
X117049D01*
Y13103D01*
X117090D01*
Y13117D01*
X117132D01*
Y13131D01*
X117174D01*
Y13145D01*
X117215D01*
Y13159D01*
X117256D01*
Y13173D01*
X117298D01*
Y13186D01*
X117339D01*
Y13200D01*
X117395D01*
Y13214D01*
X117436D01*
Y13228D01*
X117478D01*
Y13242D01*
X117533D01*
Y13255D01*
X117575D01*
Y13269D01*
X117616D01*
Y13283D01*
X117671D01*
Y13297D01*
X117713D01*
Y13311D01*
X117768D01*
Y13325D01*
X117824D01*
Y13339D01*
X117865D01*
Y13352D01*
X117920D01*
Y13366D01*
X117976D01*
Y13380D01*
X118031D01*
Y13394D01*
X118086D01*
Y13408D01*
X118142D01*
Y13421D01*
X118197D01*
Y13435D01*
X118252D01*
Y13449D01*
X118308D01*
Y13463D01*
X118363D01*
Y13477D01*
X118418D01*
Y13491D01*
X118487D01*
Y13505D01*
X118543D01*
Y13518D01*
X118612D01*
Y13532D01*
X118681D01*
Y13546D01*
X118736D01*
Y13560D01*
X118805D01*
Y13574D01*
X118875D01*
Y13588D01*
X118944D01*
Y13601D01*
X119013D01*
Y13615D01*
X119096D01*
Y13629D01*
X119165D01*
Y13643D01*
X119248D01*
Y13657D01*
X119331D01*
Y13670D01*
X119414D01*
Y13684D01*
X119497D01*
Y13698D01*
X119580D01*
Y13712D01*
X119677D01*
Y13726D01*
X119774D01*
Y13740D01*
X119870D01*
Y13754D01*
X119967D01*
Y13767D01*
X120078D01*
Y13781D01*
X120188D01*
Y13795D01*
X120313D01*
Y13809D01*
X120437D01*
Y13823D01*
X120576D01*
Y13836D01*
X120714D01*
Y13850D01*
X120866D01*
Y13864D01*
X121032D01*
Y13878D01*
X121212D01*
Y13892D01*
X121419D01*
Y13906D01*
X121641D01*
Y13919D01*
X121917D01*
Y13933D01*
X122235D01*
Y13947D01*
X122512D01*
Y13961D01*
X122540D01*
Y13975D01*
X122567D01*
Y13989D01*
X122609D01*
Y14002D01*
X122636D01*
Y14016D01*
X122664D01*
Y14030D01*
X122706D01*
Y14044D01*
X122733D01*
Y14058D01*
X122775D01*
Y14072D01*
X122802D01*
Y14085D01*
X122830D01*
Y14099D01*
X122872D01*
Y14113D01*
X122899D01*
Y14127D01*
X122941D01*
Y14141D01*
X122968D01*
Y14154D01*
X122996D01*
Y14168D01*
X123038D01*
Y14182D01*
X123065D01*
Y14196D01*
X123107D01*
Y14210D01*
X123134D01*
Y14224D01*
X123162D01*
Y14238D01*
X123204D01*
Y14251D01*
X123231D01*
Y14265D01*
X123273D01*
Y14279D01*
X123300D01*
Y14293D01*
X123342D01*
Y14307D01*
X123370D01*
Y14321D01*
X123411D01*
Y14334D01*
X123439D01*
Y14348D01*
X123480D01*
Y14362D01*
X123508D01*
Y14376D01*
X123549D01*
Y14390D01*
X123577D01*
Y14403D01*
X123618D01*
Y14417D01*
X123646D01*
Y14431D01*
X123688D01*
Y14445D01*
X123715D01*
Y14459D01*
X123757D01*
Y14473D01*
X123784D01*
Y14486D01*
X123826D01*
Y14500D01*
X123854D01*
Y14514D01*
X123895D01*
Y14528D01*
X123923D01*
Y14542D01*
X123964D01*
Y14556D01*
X123992D01*
Y14569D01*
X124033D01*
Y14583D01*
X124061D01*
Y14597D01*
X124102D01*
Y14611D01*
X124144D01*
Y14625D01*
X124172D01*
Y14639D01*
X124213D01*
Y14652D01*
X124241D01*
Y14666D01*
X124282D01*
Y14680D01*
X124310D01*
Y14694D01*
X124351D01*
Y14708D01*
X124393D01*
Y14721D01*
X124421D01*
Y14735D01*
X124462D01*
Y14749D01*
X124504D01*
Y14763D01*
X124531D01*
Y14777D01*
X124573D01*
Y14791D01*
X124614D01*
Y14805D01*
X124642D01*
Y14818D01*
X124683D01*
Y14832D01*
X124725D01*
Y14846D01*
X124752D01*
Y14860D01*
X124794D01*
Y14874D01*
X124836D01*
Y14887D01*
X124863D01*
Y14901D01*
X124905D01*
Y14915D01*
X124946D01*
Y14929D01*
X124974D01*
Y14943D01*
X125015D01*
Y14957D01*
X125057D01*
Y14970D01*
X125098D01*
Y14984D01*
X125126D01*
Y14998D01*
X125167D01*
Y15012D01*
X125209D01*
Y15026D01*
X125250D01*
Y15040D01*
X125292D01*
Y15054D01*
X125320D01*
Y15067D01*
X125361D01*
Y15081D01*
X125402D01*
Y15095D01*
X125444D01*
Y15109D01*
X125486D01*
Y15123D01*
X125513D01*
Y15136D01*
X125555D01*
Y15150D01*
X125596D01*
Y15164D01*
X125638D01*
Y15178D01*
X125679D01*
Y15192D01*
X125721D01*
Y15206D01*
X125762D01*
Y15220D01*
X125804D01*
Y15233D01*
X125845D01*
Y15247D01*
X125873D01*
Y15261D01*
X125914D01*
Y15275D01*
X125956D01*
Y15289D01*
X125997D01*
Y15302D01*
X126039D01*
Y15316D01*
X126080D01*
Y15330D01*
X126122D01*
Y15344D01*
X126163D01*
Y15358D01*
X126205D01*
Y15372D01*
X126246D01*
Y15385D01*
X126288D01*
Y15399D01*
X126329D01*
Y15413D01*
X126371D01*
Y15427D01*
X126426D01*
Y15441D01*
X126467D01*
Y15455D01*
X126509D01*
Y15468D01*
X126550D01*
Y15482D01*
X126592D01*
Y15496D01*
X126633D01*
Y15510D01*
X126675D01*
Y15524D01*
X126716D01*
Y15538D01*
X126772D01*
Y15551D01*
X126813D01*
Y15565D01*
X126855D01*
Y15579D01*
X126896D01*
Y15593D01*
X126952D01*
Y15607D01*
X126993D01*
Y15620D01*
X127034D01*
Y15634D01*
X127076D01*
Y15648D01*
X127131D01*
Y15662D01*
X127173D01*
Y15676D01*
X127214D01*
Y15690D01*
X127270D01*
Y15703D01*
X127311D01*
Y15717D01*
X127353D01*
Y15731D01*
X127408D01*
Y15745D01*
X127449D01*
Y15759D01*
X127505D01*
Y15773D01*
X127546D01*
Y15787D01*
X127602D01*
Y15800D01*
X127643D01*
Y15814D01*
X127698D01*
Y15828D01*
X127740D01*
Y15842D01*
X127795D01*
Y15856D01*
X127850D01*
Y15869D01*
X127892D01*
Y15883D01*
X127947D01*
Y15897D01*
X127989D01*
Y15911D01*
X128044D01*
Y15925D01*
X128099D01*
Y15939D01*
X128155D01*
Y15953D01*
X128196D01*
Y15966D01*
X128252D01*
Y15980D01*
X128307D01*
Y15994D01*
X128362D01*
Y16008D01*
X128418D01*
Y16022D01*
X128473D01*
Y16035D01*
X128528D01*
Y16049D01*
X128584D01*
Y16063D01*
X128639D01*
Y16077D01*
X128694D01*
Y16091D01*
X128750D01*
Y16105D01*
X128805D01*
Y16118D01*
X128860D01*
Y16132D01*
X128915D01*
Y16146D01*
X128971D01*
Y16160D01*
X129040D01*
Y16174D01*
X129095D01*
Y16188D01*
X129150D01*
Y16201D01*
X129220D01*
Y16215D01*
X129275D01*
Y16229D01*
X129330D01*
Y16243D01*
X129400D01*
Y16257D01*
X129469D01*
Y16271D01*
X129524D01*
Y16284D01*
X129593D01*
Y16298D01*
X129662D01*
Y16312D01*
X129718D01*
Y16326D01*
X129787D01*
Y16340D01*
X129856D01*
Y16353D01*
X129925D01*
Y16367D01*
X129994D01*
Y16381D01*
X130063D01*
Y16395D01*
X130132D01*
Y16409D01*
X130202D01*
Y16423D01*
X130285D01*
Y16436D01*
X130354D01*
Y16450D01*
X130437D01*
Y16464D01*
X130506D01*
Y16478D01*
X130589D01*
Y16492D01*
X130658D01*
Y16506D01*
X130741D01*
Y16520D01*
X130824D01*
Y16533D01*
X130907D01*
Y16547D01*
X131004D01*
Y16561D01*
X131087D01*
Y16575D01*
X131170D01*
Y16589D01*
X131267D01*
Y16602D01*
X131363D01*
Y16616D01*
X131460D01*
Y16630D01*
X131557D01*
Y16644D01*
X131654D01*
Y16658D01*
X131751D01*
Y16672D01*
X131861D01*
Y16686D01*
X131972D01*
Y16699D01*
X132082D01*
Y16713D01*
X132207D01*
Y16727D01*
X132332D01*
Y16741D01*
X132456D01*
Y16755D01*
X132594D01*
Y16768D01*
X132733D01*
Y16782D01*
X132885D01*
Y16796D01*
X133051D01*
Y16810D01*
X133217D01*
Y16824D01*
X133410D01*
Y16838D01*
X133618D01*
Y16851D01*
X133853D01*
Y16865D01*
X134129D01*
Y16879D01*
X134489D01*
Y16893D01*
X135139D01*
Y16907D01*
X135789D01*
Y16893D01*
D02*
G37*
G36*
X118501Y12647D02*
X118515D01*
Y12633D01*
X118501D01*
Y12619D01*
X118460D01*
Y12606D01*
X118418D01*
Y12592D01*
X118377D01*
Y12578D01*
X118335D01*
Y12564D01*
X118308D01*
Y12550D01*
X118266D01*
Y12536D01*
X118238D01*
Y12522D01*
X118211D01*
Y12509D01*
X118183D01*
Y12495D01*
X118155D01*
Y12481D01*
X118128D01*
Y12467D01*
X118100D01*
Y12453D01*
X118072D01*
Y12440D01*
X118045D01*
Y12426D01*
X118017D01*
Y12412D01*
X118003D01*
Y12398D01*
X117976D01*
Y12384D01*
X117948D01*
Y12370D01*
X117934D01*
Y12357D01*
X117906D01*
Y12343D01*
X117893D01*
Y12329D01*
X117865D01*
Y12315D01*
X117851D01*
Y12301D01*
X117824D01*
Y12287D01*
X117810D01*
Y12274D01*
X117782D01*
Y12260D01*
X117768D01*
Y12246D01*
X117740D01*
Y12232D01*
X117727D01*
Y12218D01*
X117713D01*
Y12204D01*
X117685D01*
Y12191D01*
X117671D01*
Y12177D01*
X117657D01*
Y12163D01*
X117630D01*
Y12149D01*
X117616D01*
Y12135D01*
X117602D01*
Y12122D01*
X117575D01*
Y12108D01*
X117561D01*
Y12094D01*
X117547D01*
Y12080D01*
X117533D01*
Y12066D01*
X117505D01*
Y12052D01*
X117492D01*
Y12038D01*
X117478D01*
Y12025D01*
X117464D01*
Y12011D01*
X117450D01*
Y11997D01*
X117422D01*
Y11983D01*
X117409D01*
Y11969D01*
X117395D01*
Y11955D01*
X117381D01*
Y11942D01*
X117367D01*
Y11928D01*
X117353D01*
Y11914D01*
X117339D01*
Y11900D01*
X117312D01*
Y11886D01*
X117298D01*
Y11873D01*
X117284D01*
Y11859D01*
X117270D01*
Y11845D01*
X117256D01*
Y11831D01*
X117243D01*
Y11817D01*
X117229D01*
Y11803D01*
X117215D01*
Y11789D01*
X117201D01*
Y11776D01*
X117187D01*
Y11762D01*
X117174D01*
Y11748D01*
X117160D01*
Y11734D01*
X117146D01*
Y11720D01*
X117132D01*
Y11707D01*
X117118D01*
Y11693D01*
X117104D01*
Y11679D01*
X117077D01*
Y11665D01*
X117063D01*
Y11651D01*
X117049D01*
Y11637D01*
X117035D01*
Y11624D01*
X117021D01*
Y11610D01*
X117008D01*
Y11596D01*
X116994D01*
Y11582D01*
X116980D01*
Y11568D01*
X116952D01*
Y11554D01*
X116938D01*
Y11541D01*
X116911D01*
Y11527D01*
X116897D01*
Y11513D01*
X116869D01*
Y11499D01*
X116842D01*
Y11485D01*
X116814D01*
Y11472D01*
X116786D01*
Y11458D01*
X116745D01*
Y11444D01*
X116717D01*
Y11430D01*
X116662D01*
Y11416D01*
X116593D01*
Y11402D01*
X116371D01*
Y11416D01*
X116302D01*
Y11430D01*
X116274D01*
Y11444D01*
X116233D01*
Y11458D01*
X116205D01*
Y11472D01*
X116178D01*
Y11485D01*
X116164D01*
Y11499D01*
X116136D01*
Y11513D01*
X116122D01*
Y11527D01*
X116109D01*
Y11541D01*
X116095D01*
Y11554D01*
X116081D01*
Y11568D01*
X116067D01*
Y11582D01*
Y11596D01*
X116081D01*
Y11610D01*
Y11624D01*
X116095D01*
Y11637D01*
X116109D01*
Y11651D01*
Y11665D01*
X116122D01*
Y11679D01*
X116136D01*
Y11693D01*
X116150D01*
Y11707D01*
X116164D01*
Y11720D01*
X116178D01*
Y11734D01*
X116191D01*
Y11748D01*
X116205D01*
Y11762D01*
X116219D01*
Y11776D01*
X116233D01*
Y11789D01*
X116247D01*
Y11803D01*
X116261D01*
Y11817D01*
X116274D01*
Y11831D01*
X116288D01*
Y11845D01*
X116302D01*
Y11859D01*
X116316D01*
Y11873D01*
X116344D01*
Y11886D01*
X116358D01*
Y11900D01*
X116371D01*
Y11914D01*
X116399D01*
Y11928D01*
X116413D01*
Y11942D01*
X116427D01*
Y11955D01*
X116454D01*
Y11969D01*
X116468D01*
Y11983D01*
X116496D01*
Y11997D01*
X116510D01*
Y12011D01*
X116537D01*
Y12025D01*
X116565D01*
Y12038D01*
X116579D01*
Y12052D01*
X116606D01*
Y12066D01*
X116634D01*
Y12080D01*
X116662D01*
Y12094D01*
X116689D01*
Y12108D01*
X116717D01*
Y12122D01*
X116745D01*
Y12135D01*
X116772D01*
Y12149D01*
X116800D01*
Y12163D01*
X116828D01*
Y12177D01*
X116855D01*
Y12191D01*
X116883D01*
Y12204D01*
X116911D01*
Y12218D01*
X116952D01*
Y12232D01*
X116980D01*
Y12246D01*
X117021D01*
Y12260D01*
X117049D01*
Y12274D01*
X117090D01*
Y12287D01*
X117118D01*
Y12301D01*
X117160D01*
Y12315D01*
X117201D01*
Y12329D01*
X117229D01*
Y12343D01*
X117270D01*
Y12357D01*
X117312D01*
Y12370D01*
X117353D01*
Y12384D01*
X117395D01*
Y12398D01*
X117436D01*
Y12412D01*
X117492D01*
Y12426D01*
X117533D01*
Y12440D01*
X117575D01*
Y12453D01*
X117630D01*
Y12467D01*
X117671D01*
Y12481D01*
X117727D01*
Y12495D01*
X117782D01*
Y12509D01*
X117824D01*
Y12522D01*
X117879D01*
Y12536D01*
X117934D01*
Y12550D01*
X117990D01*
Y12564D01*
X118045D01*
Y12578D01*
X118114D01*
Y12592D01*
X118169D01*
Y12606D01*
X118225D01*
Y12619D01*
X118294D01*
Y12633D01*
X118363D01*
Y12647D01*
X118432D01*
Y12661D01*
X118501D01*
Y12647D01*
D02*
G37*
G36*
X147116Y13034D02*
X147102D01*
Y13020D01*
Y13007D01*
X147088D01*
Y12993D01*
X147075D01*
Y12979D01*
X147061D01*
Y12965D01*
X147047D01*
Y12951D01*
X147033D01*
Y12937D01*
X147019D01*
Y12924D01*
X147005D01*
Y12910D01*
Y12896D01*
X146992D01*
Y12882D01*
X146978D01*
Y12868D01*
X146964D01*
Y12855D01*
X146950D01*
Y12841D01*
X146936D01*
Y12827D01*
X146923D01*
Y12813D01*
X146909D01*
Y12799D01*
X146895D01*
Y12785D01*
Y12772D01*
X146881D01*
Y12758D01*
X146867D01*
Y12744D01*
X146853D01*
Y12730D01*
X146839D01*
Y12716D01*
X146826D01*
Y12702D01*
X146812D01*
Y12688D01*
X146798D01*
Y12675D01*
Y12661D01*
X146784D01*
Y12647D01*
X146770D01*
Y12633D01*
X146756D01*
Y12619D01*
X146743D01*
Y12606D01*
X146729D01*
Y12592D01*
X146715D01*
Y12578D01*
X146701D01*
Y12564D01*
Y12550D01*
X146687D01*
Y12536D01*
X146674D01*
Y12522D01*
X146660D01*
Y12509D01*
X146646D01*
Y12495D01*
X146632D01*
Y12481D01*
X146618D01*
Y12467D01*
X146604D01*
Y12453D01*
X146590D01*
Y12440D01*
Y12426D01*
X146577D01*
Y12412D01*
X146563D01*
Y12398D01*
X146549D01*
Y12384D01*
X146535D01*
Y12370D01*
X146521D01*
Y12357D01*
X146508D01*
Y12343D01*
X146494D01*
Y12329D01*
Y12315D01*
X146480D01*
Y12301D01*
X146466D01*
Y12287D01*
X146452D01*
Y12274D01*
X146438D01*
Y12260D01*
X146425D01*
Y12246D01*
X146411D01*
Y12232D01*
X146397D01*
Y12218D01*
Y12204D01*
X146383D01*
Y12191D01*
X146369D01*
Y12177D01*
X146355D01*
Y12163D01*
X146342D01*
Y12149D01*
X146328D01*
Y12135D01*
X146314D01*
Y12122D01*
X146300D01*
Y12108D01*
X146286D01*
Y12094D01*
Y12080D01*
X146273D01*
Y12066D01*
X146259D01*
Y12052D01*
X146245D01*
Y12038D01*
X146231D01*
Y12025D01*
X146217D01*
Y12011D01*
X146203D01*
Y11997D01*
X146189D01*
Y11983D01*
Y11969D01*
X146176D01*
Y11955D01*
X146162D01*
Y11942D01*
X146148D01*
Y11928D01*
X146134D01*
Y11914D01*
X146120D01*
Y11900D01*
X146107D01*
Y11886D01*
X146093D01*
Y11873D01*
X146079D01*
Y11859D01*
Y11845D01*
X146065D01*
Y11831D01*
X146051D01*
Y11817D01*
X146037D01*
Y11803D01*
X146023D01*
Y11789D01*
X146010D01*
Y11776D01*
X145996D01*
Y11762D01*
X145982D01*
Y11748D01*
Y11734D01*
X145968D01*
Y11720D01*
X145954D01*
Y11707D01*
X145940D01*
Y11693D01*
X145927D01*
Y11679D01*
X145913D01*
Y11665D01*
X145899D01*
Y11651D01*
X145885D01*
Y11637D01*
Y11624D01*
X145871D01*
Y11610D01*
X145858D01*
Y11596D01*
X145844D01*
Y11582D01*
X145830D01*
Y11568D01*
X145816D01*
Y11554D01*
X145802D01*
Y11541D01*
X145788D01*
Y11527D01*
X145774D01*
Y11513D01*
Y11499D01*
X145761D01*
Y11485D01*
X145747D01*
Y11472D01*
X145733D01*
Y11458D01*
X145719D01*
Y11444D01*
X145705D01*
Y11430D01*
X145692D01*
Y11416D01*
X145678D01*
Y11402D01*
Y11389D01*
X145664D01*
Y11375D01*
X145650D01*
Y11361D01*
X145636D01*
Y11347D01*
X145622D01*
Y11333D01*
X145609D01*
Y11319D01*
X145595D01*
Y11305D01*
X145581D01*
Y11292D01*
X145567D01*
Y11278D01*
Y11264D01*
X145553D01*
Y11250D01*
X145539D01*
Y11236D01*
X145526D01*
Y11223D01*
X145512D01*
Y11209D01*
X145498D01*
Y11195D01*
X145484D01*
Y11181D01*
X145470D01*
Y11167D01*
Y11153D01*
X145456D01*
Y11140D01*
X145443D01*
Y11126D01*
X145429D01*
Y11112D01*
X145415D01*
Y11098D01*
X145401D01*
Y11084D01*
X145387D01*
Y11070D01*
X145373D01*
Y11056D01*
Y11043D01*
X145360D01*
Y11029D01*
X145346D01*
Y11015D01*
X145332D01*
Y11001D01*
X145318D01*
Y10987D01*
X145304D01*
Y10973D01*
X145291D01*
Y10960D01*
X145277D01*
Y10946D01*
X145263D01*
Y10932D01*
Y10918D01*
X145249D01*
Y10904D01*
X145235D01*
Y10891D01*
X145221D01*
Y10877D01*
X145208D01*
Y10863D01*
X145194D01*
Y10849D01*
X145180D01*
Y10835D01*
X145166D01*
Y10821D01*
Y10808D01*
X145152D01*
Y10794D01*
X145138D01*
Y10780D01*
X145124D01*
Y10766D01*
X145111D01*
Y10752D01*
X145097D01*
Y10738D01*
X145083D01*
Y10725D01*
X145069D01*
Y10711D01*
Y10697D01*
X145055D01*
Y10683D01*
X145042D01*
Y10669D01*
X145028D01*
Y10655D01*
X145014D01*
Y10642D01*
X145000D01*
Y10628D01*
X144986D01*
Y10614D01*
X144972D01*
Y10600D01*
X144958D01*
Y10586D01*
Y10572D01*
X144945D01*
Y10559D01*
X144931D01*
Y10545D01*
X144917D01*
Y10531D01*
X144903D01*
Y10517D01*
X144889D01*
Y10503D01*
X144876D01*
Y10490D01*
X144862D01*
Y10476D01*
Y10462D01*
X144848D01*
Y10448D01*
X144834D01*
Y10434D01*
X144820D01*
Y10420D01*
X144806D01*
Y10407D01*
X144793D01*
Y10393D01*
X144779D01*
Y10379D01*
X144765D01*
Y10365D01*
X144751D01*
Y10351D01*
Y10337D01*
X144737D01*
Y10323D01*
X144723D01*
Y10310D01*
X144710D01*
Y10296D01*
X144696D01*
Y10282D01*
X144682D01*
Y10268D01*
X144668D01*
Y10254D01*
X144654D01*
Y10240D01*
Y10227D01*
X144641D01*
Y10213D01*
X144627D01*
Y10199D01*
X144613D01*
Y10185D01*
X144599D01*
Y10171D01*
Y10158D01*
Y10144D01*
Y10130D01*
X144613D01*
Y10116D01*
Y10102D01*
Y10088D01*
X144627D01*
Y10075D01*
Y10061D01*
Y10047D01*
X144641D01*
Y10033D01*
Y10019D01*
X144654D01*
Y10005D01*
Y9992D01*
Y9978D01*
X144668D01*
Y9964D01*
Y9950D01*
X144682D01*
Y9936D01*
Y9922D01*
Y9909D01*
X144696D01*
Y9895D01*
Y9881D01*
Y9867D01*
X144710D01*
Y9853D01*
Y9839D01*
X144723D01*
Y9826D01*
Y9812D01*
Y9798D01*
X144737D01*
Y9784D01*
Y9770D01*
X144751D01*
Y9757D01*
Y9743D01*
Y9729D01*
X144765D01*
Y9715D01*
Y9701D01*
Y9687D01*
X144779D01*
Y9674D01*
Y9660D01*
X144793D01*
Y9646D01*
Y9632D01*
Y9618D01*
X144806D01*
Y9604D01*
Y9590D01*
Y9577D01*
X144820D01*
Y9563D01*
Y9549D01*
X144834D01*
Y9535D01*
Y9521D01*
Y9507D01*
X144848D01*
Y9494D01*
Y9480D01*
X144862D01*
Y9466D01*
Y9452D01*
Y9438D01*
X144876D01*
Y9425D01*
Y9411D01*
Y9397D01*
X144889D01*
Y9383D01*
Y9369D01*
X144903D01*
Y9355D01*
Y9342D01*
Y9328D01*
X144917D01*
Y9314D01*
Y9300D01*
Y9286D01*
X144931D01*
Y9272D01*
Y9259D01*
X144945D01*
Y9245D01*
Y9231D01*
Y9217D01*
X144958D01*
Y9203D01*
Y9189D01*
X144972D01*
Y9176D01*
Y9162D01*
Y9148D01*
X144986D01*
Y9134D01*
Y9120D01*
Y9106D01*
X145000D01*
Y9093D01*
Y9079D01*
X145014D01*
Y9065D01*
Y9051D01*
Y9037D01*
X145028D01*
Y9024D01*
Y9010D01*
X145042D01*
Y8996D01*
Y8982D01*
Y8968D01*
X145055D01*
Y8954D01*
Y8941D01*
Y8927D01*
X145069D01*
Y8913D01*
Y8899D01*
X145083D01*
Y8885D01*
Y8871D01*
Y8857D01*
X145097D01*
Y8844D01*
Y8830D01*
Y8816D01*
X145111D01*
Y8802D01*
Y8788D01*
X145124D01*
Y8775D01*
Y8761D01*
Y8747D01*
X145138D01*
Y8733D01*
Y8719D01*
X145152D01*
Y8705D01*
Y8692D01*
Y8678D01*
X145166D01*
Y8664D01*
Y8650D01*
Y8636D01*
X145180D01*
Y8622D01*
Y8609D01*
X145194D01*
Y8595D01*
Y8581D01*
Y8567D01*
X145208D01*
Y8553D01*
Y8539D01*
Y8526D01*
X145221D01*
Y8512D01*
Y8498D01*
X145235D01*
Y8484D01*
Y8470D01*
Y8456D01*
X145249D01*
Y8443D01*
Y8429D01*
X145263D01*
Y8415D01*
Y8401D01*
Y8387D01*
X145277D01*
Y8373D01*
Y8360D01*
Y8346D01*
X145291D01*
Y8332D01*
Y8318D01*
X145304D01*
Y8304D01*
Y8291D01*
Y8277D01*
X145318D01*
Y8263D01*
Y8249D01*
X145332D01*
Y8235D01*
Y8221D01*
Y8207D01*
X145346D01*
Y8194D01*
Y8180D01*
Y8166D01*
X145360D01*
Y8152D01*
Y8138D01*
X145373D01*
Y8124D01*
Y8111D01*
Y8097D01*
X145387D01*
Y8083D01*
Y8069D01*
Y8055D01*
X145401D01*
Y8042D01*
Y8028D01*
X145415D01*
Y8014D01*
Y8000D01*
Y7986D01*
X145429D01*
Y7972D01*
Y7959D01*
X145443D01*
Y7945D01*
Y7931D01*
Y7917D01*
X145456D01*
Y7903D01*
Y7889D01*
Y7876D01*
X145470D01*
Y7862D01*
Y7848D01*
X145484D01*
Y7834D01*
Y7820D01*
Y7806D01*
X145498D01*
Y7793D01*
Y7779D01*
X145512D01*
Y7765D01*
Y7751D01*
Y7737D01*
X145526D01*
Y7723D01*
Y7710D01*
Y7696D01*
X145539D01*
Y7682D01*
Y7668D01*
X145553D01*
Y7654D01*
Y7640D01*
Y7627D01*
X145567D01*
Y7613D01*
Y7599D01*
Y7585D01*
X145581D01*
Y7571D01*
Y7558D01*
X145595D01*
Y7544D01*
Y7530D01*
Y7516D01*
X145609D01*
Y7502D01*
Y7488D01*
X145622D01*
Y7474D01*
Y7461D01*
Y7447D01*
X145636D01*
Y7433D01*
Y7419D01*
Y7405D01*
X145650D01*
Y7391D01*
Y7378D01*
X145664D01*
Y7364D01*
Y7350D01*
Y7336D01*
X145678D01*
Y7322D01*
Y7309D01*
Y7295D01*
X145692D01*
Y7281D01*
Y7267D01*
X145705D01*
Y7253D01*
Y7239D01*
Y7226D01*
X145719D01*
Y7212D01*
X144641D01*
Y7226D01*
Y7239D01*
X144627D01*
Y7253D01*
Y7267D01*
Y7281D01*
X144613D01*
Y7295D01*
Y7309D01*
Y7322D01*
X144599D01*
Y7336D01*
Y7350D01*
X144585D01*
Y7364D01*
Y7378D01*
Y7391D01*
X144571D01*
Y7405D01*
Y7419D01*
Y7433D01*
X144557D01*
Y7447D01*
Y7461D01*
X144544D01*
Y7474D01*
Y7488D01*
Y7502D01*
X144530D01*
Y7516D01*
Y7530D01*
Y7544D01*
X144516D01*
Y7558D01*
Y7571D01*
X144502D01*
Y7585D01*
Y7599D01*
Y7613D01*
X144488D01*
Y7627D01*
Y7640D01*
Y7654D01*
X144474D01*
Y7668D01*
Y7682D01*
X144461D01*
Y7696D01*
Y7710D01*
Y7723D01*
X144447D01*
Y7737D01*
Y7751D01*
Y7765D01*
X144433D01*
Y7779D01*
Y7793D01*
Y7806D01*
X144419D01*
Y7820D01*
Y7834D01*
X144405D01*
Y7848D01*
Y7862D01*
Y7876D01*
X144392D01*
Y7889D01*
Y7903D01*
Y7917D01*
X144378D01*
Y7931D01*
Y7945D01*
X144364D01*
Y7959D01*
Y7972D01*
Y7986D01*
X144350D01*
Y8000D01*
Y8014D01*
Y8028D01*
X144336D01*
Y8042D01*
Y8055D01*
X144322D01*
Y8069D01*
Y8083D01*
Y8097D01*
X144308D01*
Y8111D01*
Y8124D01*
Y8138D01*
X144295D01*
Y8152D01*
Y8166D01*
X144281D01*
Y8180D01*
Y8194D01*
Y8207D01*
X144267D01*
Y8221D01*
Y8235D01*
Y8249D01*
X144253D01*
Y8263D01*
Y8277D01*
Y8291D01*
X144239D01*
Y8304D01*
Y8318D01*
X144226D01*
Y8332D01*
Y8346D01*
Y8360D01*
X144212D01*
Y8373D01*
Y8387D01*
Y8401D01*
X144198D01*
Y8415D01*
Y8429D01*
X144184D01*
Y8443D01*
Y8456D01*
Y8470D01*
X144170D01*
Y8484D01*
Y8498D01*
Y8512D01*
X144156D01*
Y8526D01*
Y8539D01*
X144143D01*
Y8553D01*
Y8567D01*
Y8581D01*
X144129D01*
Y8595D01*
Y8609D01*
Y8622D01*
X144115D01*
Y8636D01*
Y8650D01*
X144101D01*
Y8664D01*
Y8678D01*
Y8692D01*
X144087D01*
Y8705D01*
Y8719D01*
Y8733D01*
X144073D01*
Y8747D01*
Y8761D01*
X144060D01*
Y8775D01*
Y8788D01*
Y8802D01*
X144046D01*
Y8816D01*
Y8830D01*
Y8844D01*
X144032D01*
Y8857D01*
Y8871D01*
Y8885D01*
X144018D01*
Y8899D01*
Y8913D01*
X144004D01*
Y8927D01*
Y8941D01*
Y8954D01*
X143990D01*
Y8968D01*
Y8982D01*
Y8996D01*
X143977D01*
Y9010D01*
Y9024D01*
X143963D01*
Y9037D01*
Y9051D01*
Y9065D01*
X143949D01*
Y9079D01*
Y9093D01*
Y9106D01*
X143935D01*
Y9120D01*
Y9134D01*
X143921D01*
Y9148D01*
Y9162D01*
Y9176D01*
X143907D01*
Y9189D01*
Y9203D01*
Y9217D01*
X143894D01*
Y9231D01*
Y9245D01*
X143880D01*
Y9259D01*
Y9272D01*
Y9286D01*
X143866D01*
Y9300D01*
Y9314D01*
Y9328D01*
X143852D01*
Y9342D01*
Y9355D01*
Y9369D01*
X143838D01*
Y9383D01*
Y9397D01*
X143825D01*
Y9411D01*
Y9425D01*
X143797D01*
Y9411D01*
X143783D01*
Y9397D01*
Y9383D01*
X143769D01*
Y9369D01*
X143755D01*
Y9355D01*
X143742D01*
Y9342D01*
X143728D01*
Y9328D01*
X143714D01*
Y9314D01*
Y9300D01*
X143700D01*
Y9286D01*
X143686D01*
Y9272D01*
X143672D01*
Y9259D01*
X143658D01*
Y9245D01*
X143645D01*
Y9231D01*
X143631D01*
Y9217D01*
Y9203D01*
X143617D01*
Y9189D01*
X143603D01*
Y9176D01*
X143589D01*
Y9162D01*
X143576D01*
Y9148D01*
X143562D01*
Y9134D01*
Y9120D01*
X143548D01*
Y9106D01*
X143534D01*
Y9093D01*
X143520D01*
Y9079D01*
X143506D01*
Y9065D01*
X143492D01*
Y9051D01*
X143479D01*
Y9037D01*
Y9024D01*
X143465D01*
Y9010D01*
X143451D01*
Y8996D01*
X143437D01*
Y8982D01*
X143423D01*
Y8968D01*
X143410D01*
Y8954D01*
X143396D01*
Y8941D01*
Y8927D01*
X143382D01*
Y8913D01*
X143368D01*
Y8899D01*
X143354D01*
Y8885D01*
X143340D01*
Y8871D01*
X143327D01*
Y8857D01*
Y8844D01*
X143313D01*
Y8830D01*
X143299D01*
Y8816D01*
X143285D01*
Y8802D01*
X143271D01*
Y8788D01*
X143257D01*
Y8775D01*
X143244D01*
Y8761D01*
Y8747D01*
X143230D01*
Y8733D01*
X143216D01*
Y8719D01*
X143202D01*
Y8705D01*
X143188D01*
Y8692D01*
X143175D01*
Y8678D01*
Y8664D01*
X143161D01*
Y8650D01*
X143147D01*
Y8636D01*
X143133D01*
Y8622D01*
X143119D01*
Y8609D01*
X143105D01*
Y8595D01*
X143091D01*
Y8581D01*
Y8567D01*
X143078D01*
Y8553D01*
X143064D01*
Y8539D01*
X143050D01*
Y8526D01*
X143036D01*
Y8512D01*
X143022D01*
Y8498D01*
X143008D01*
Y8484D01*
Y8470D01*
X142995D01*
Y8456D01*
X142981D01*
Y8443D01*
X142967D01*
Y8429D01*
X142953D01*
Y8415D01*
X142939D01*
Y8401D01*
Y8387D01*
X142926D01*
Y8373D01*
X142912D01*
Y8360D01*
X142898D01*
Y8346D01*
X142884D01*
Y8332D01*
X142870D01*
Y8318D01*
X142856D01*
Y8304D01*
Y8291D01*
X142842D01*
Y8277D01*
X142829D01*
Y8263D01*
X142815D01*
Y8249D01*
X142801D01*
Y8235D01*
X142787D01*
Y8221D01*
Y8207D01*
X142773D01*
Y8194D01*
X142760D01*
Y8180D01*
X142746D01*
Y8166D01*
X142732D01*
Y8152D01*
X142718D01*
Y8138D01*
X142704D01*
Y8124D01*
Y8111D01*
X142690D01*
Y8097D01*
X142676D01*
Y8083D01*
X142663D01*
Y8069D01*
X142649D01*
Y8055D01*
X142635D01*
Y8042D01*
X142621D01*
Y8028D01*
Y8014D01*
X142607D01*
Y8000D01*
X142594D01*
Y7986D01*
X142580D01*
Y7972D01*
X142566D01*
Y7959D01*
X142552D01*
Y7945D01*
Y7931D01*
X142538D01*
Y7917D01*
X142524D01*
Y7903D01*
X142511D01*
Y7889D01*
X142497D01*
Y7876D01*
X142483D01*
Y7862D01*
X142469D01*
Y7848D01*
Y7834D01*
X142455D01*
Y7820D01*
X142441D01*
Y7806D01*
X142428D01*
Y7793D01*
X142414D01*
Y7779D01*
X142400D01*
Y7765D01*
Y7751D01*
X142386D01*
Y7737D01*
X142372D01*
Y7723D01*
X142358D01*
Y7710D01*
X142345D01*
Y7696D01*
X142331D01*
Y7682D01*
X142317D01*
Y7668D01*
Y7654D01*
X142303D01*
Y7640D01*
X142289D01*
Y7627D01*
X142276D01*
Y7613D01*
X142262D01*
Y7599D01*
X142248D01*
Y7585D01*
X142234D01*
Y7571D01*
Y7558D01*
X142220D01*
Y7544D01*
X142206D01*
Y7530D01*
X142192D01*
Y7516D01*
X142179D01*
Y7502D01*
X142165D01*
Y7488D01*
Y7474D01*
X142151D01*
Y7461D01*
X142137D01*
Y7447D01*
X142123D01*
Y7433D01*
X142110D01*
Y7419D01*
X142096D01*
Y7405D01*
X142082D01*
Y7391D01*
Y7378D01*
X142068D01*
Y7364D01*
X142054D01*
Y7350D01*
X142040D01*
Y7336D01*
X142026D01*
Y7322D01*
X142013D01*
Y7309D01*
Y7295D01*
X141999D01*
Y7281D01*
X141985D01*
Y7267D01*
X141971D01*
Y7253D01*
X141957D01*
Y7239D01*
X141944D01*
Y7226D01*
X141930D01*
Y7212D01*
X140740D01*
Y7226D01*
X140754D01*
Y7239D01*
X140768D01*
Y7253D01*
X140782D01*
Y7267D01*
X140796D01*
Y7281D01*
X140810D01*
Y7295D01*
X140823D01*
Y7309D01*
Y7322D01*
X140837D01*
Y7336D01*
X140851D01*
Y7350D01*
X140865D01*
Y7364D01*
X140879D01*
Y7378D01*
X140893D01*
Y7391D01*
X140906D01*
Y7405D01*
X140920D01*
Y7419D01*
Y7433D01*
X140934D01*
Y7447D01*
X140948D01*
Y7461D01*
X140962D01*
Y7474D01*
X140975D01*
Y7488D01*
X140989D01*
Y7502D01*
X141003D01*
Y7516D01*
X141017D01*
Y7530D01*
Y7544D01*
X141031D01*
Y7558D01*
X141045D01*
Y7571D01*
X141058D01*
Y7585D01*
X141072D01*
Y7599D01*
X141086D01*
Y7613D01*
X141100D01*
Y7627D01*
X141114D01*
Y7640D01*
Y7654D01*
X141128D01*
Y7668D01*
X141141D01*
Y7682D01*
X141155D01*
Y7696D01*
X141169D01*
Y7710D01*
X141183D01*
Y7723D01*
X141197D01*
Y7737D01*
X141210D01*
Y7751D01*
Y7765D01*
X141224D01*
Y7779D01*
X141238D01*
Y7793D01*
X141252D01*
Y7806D01*
X141266D01*
Y7820D01*
X141280D01*
Y7834D01*
X141294D01*
Y7848D01*
X141307D01*
Y7862D01*
Y7876D01*
X141321D01*
Y7889D01*
X141335D01*
Y7903D01*
X141349D01*
Y7917D01*
X141363D01*
Y7931D01*
X141376D01*
Y7945D01*
X141390D01*
Y7959D01*
X141404D01*
Y7972D01*
Y7986D01*
X141418D01*
Y8000D01*
X141432D01*
Y8014D01*
X141446D01*
Y8028D01*
X141460D01*
Y8042D01*
X141473D01*
Y8055D01*
X141487D01*
Y8069D01*
X141501D01*
Y8083D01*
Y8097D01*
X141515D01*
Y8111D01*
X141529D01*
Y8124D01*
X141542D01*
Y8138D01*
X141556D01*
Y8152D01*
X141570D01*
Y8166D01*
X141584D01*
Y8180D01*
X141598D01*
Y8194D01*
Y8207D01*
X141612D01*
Y8221D01*
X141625D01*
Y8235D01*
X141639D01*
Y8249D01*
X141653D01*
Y8263D01*
X141667D01*
Y8277D01*
X141681D01*
Y8291D01*
X141695D01*
Y8304D01*
Y8318D01*
X141708D01*
Y8332D01*
X141722D01*
Y8346D01*
X141736D01*
Y8360D01*
X141750D01*
Y8373D01*
X141764D01*
Y8387D01*
X141778D01*
Y8401D01*
X141791D01*
Y8415D01*
Y8429D01*
X141805D01*
Y8443D01*
X141819D01*
Y8456D01*
X141833D01*
Y8470D01*
X141847D01*
Y8484D01*
X141861D01*
Y8498D01*
X141874D01*
Y8512D01*
X141888D01*
Y8526D01*
Y8539D01*
X141902D01*
Y8553D01*
X141916D01*
Y8567D01*
X141930D01*
Y8581D01*
X141944D01*
Y8595D01*
X141957D01*
Y8609D01*
X141971D01*
Y8622D01*
X141985D01*
Y8636D01*
Y8650D01*
X141999D01*
Y8664D01*
X142013D01*
Y8678D01*
X142026D01*
Y8692D01*
X142040D01*
Y8705D01*
X142054D01*
Y8719D01*
X142068D01*
Y8733D01*
X142082D01*
Y8747D01*
Y8761D01*
X142096D01*
Y8775D01*
X142110D01*
Y8788D01*
X142123D01*
Y8802D01*
X142137D01*
Y8816D01*
X142151D01*
Y8830D01*
X142165D01*
Y8844D01*
X142179D01*
Y8857D01*
Y8871D01*
X142192D01*
Y8885D01*
X142206D01*
Y8899D01*
X142220D01*
Y8913D01*
X142234D01*
Y8927D01*
X142248D01*
Y8941D01*
X142262D01*
Y8954D01*
X142276D01*
Y8968D01*
Y8982D01*
X142289D01*
Y8996D01*
X142303D01*
Y9010D01*
X142317D01*
Y9024D01*
X142331D01*
Y9037D01*
X142345D01*
Y9051D01*
X142358D01*
Y9065D01*
X142372D01*
Y9079D01*
Y9093D01*
X142386D01*
Y9106D01*
X142400D01*
Y9120D01*
X142414D01*
Y9134D01*
X142428D01*
Y9148D01*
X142441D01*
Y9162D01*
X142455D01*
Y9176D01*
X142469D01*
Y9189D01*
Y9203D01*
X142483D01*
Y9217D01*
X142497D01*
Y9231D01*
X142511D01*
Y9245D01*
X142524D01*
Y9259D01*
X142538D01*
Y9272D01*
X142552D01*
Y9286D01*
X142566D01*
Y9300D01*
Y9314D01*
X142580D01*
Y9328D01*
X142594D01*
Y9342D01*
X142607D01*
Y9355D01*
X142621D01*
Y9369D01*
X142635D01*
Y9383D01*
X142649D01*
Y9397D01*
X142663D01*
Y9411D01*
Y9425D01*
X142676D01*
Y9438D01*
X142690D01*
Y9452D01*
X142704D01*
Y9466D01*
X142718D01*
Y9480D01*
X142732D01*
Y9494D01*
X142746D01*
Y9507D01*
X142760D01*
Y9521D01*
Y9535D01*
X142773D01*
Y9549D01*
X142787D01*
Y9563D01*
X142801D01*
Y9577D01*
X142815D01*
Y9590D01*
X142829D01*
Y9604D01*
X142842D01*
Y9618D01*
X142856D01*
Y9632D01*
Y9646D01*
X142870D01*
Y9660D01*
X142884D01*
Y9674D01*
X142898D01*
Y9687D01*
X142912D01*
Y9701D01*
X142926D01*
Y9715D01*
X142939D01*
Y9729D01*
X142953D01*
Y9743D01*
Y9757D01*
X142967D01*
Y9770D01*
X142981D01*
Y9784D01*
X142995D01*
Y9798D01*
X143008D01*
Y9812D01*
X143022D01*
Y9826D01*
X143036D01*
Y9839D01*
X143050D01*
Y9853D01*
Y9867D01*
X143064D01*
Y9881D01*
X143078D01*
Y9895D01*
X143091D01*
Y9909D01*
X143105D01*
Y9922D01*
X143119D01*
Y9936D01*
X143133D01*
Y9950D01*
X143147D01*
Y9964D01*
Y9978D01*
X143161D01*
Y9992D01*
X143175D01*
Y10005D01*
X143188D01*
Y10019D01*
X143202D01*
Y10033D01*
X143216D01*
Y10047D01*
X143230D01*
Y10061D01*
X143244D01*
Y10075D01*
Y10088D01*
X143257D01*
Y10102D01*
X143271D01*
Y10116D01*
X143285D01*
Y10130D01*
X143299D01*
Y10144D01*
X143313D01*
Y10158D01*
X143327D01*
Y10171D01*
X143340D01*
Y10185D01*
Y10199D01*
X143354D01*
Y10213D01*
Y10227D01*
Y10240D01*
Y10254D01*
X143340D01*
Y10268D01*
Y10282D01*
Y10296D01*
X143327D01*
Y10310D01*
Y10323D01*
X143313D01*
Y10337D01*
Y10351D01*
Y10365D01*
X143299D01*
Y10379D01*
Y10393D01*
Y10407D01*
X143285D01*
Y10420D01*
Y10434D01*
X143271D01*
Y10448D01*
Y10462D01*
Y10476D01*
X143257D01*
Y10490D01*
Y10503D01*
X143244D01*
Y10517D01*
Y10531D01*
Y10545D01*
X143230D01*
Y10559D01*
Y10572D01*
Y10586D01*
X143216D01*
Y10600D01*
Y10614D01*
X143202D01*
Y10628D01*
Y10642D01*
Y10655D01*
X143188D01*
Y10669D01*
Y10683D01*
X143175D01*
Y10697D01*
Y10711D01*
Y10725D01*
X143161D01*
Y10738D01*
Y10752D01*
Y10766D01*
X143147D01*
Y10780D01*
Y10794D01*
X143133D01*
Y10808D01*
Y10821D01*
Y10835D01*
X143119D01*
Y10849D01*
Y10863D01*
X143105D01*
Y10877D01*
Y10891D01*
Y10904D01*
X143091D01*
Y10918D01*
Y10932D01*
Y10946D01*
X143078D01*
Y10960D01*
Y10973D01*
X143064D01*
Y10987D01*
Y11001D01*
Y11015D01*
X143050D01*
Y11029D01*
Y11043D01*
X143036D01*
Y11056D01*
Y11070D01*
Y11084D01*
X143022D01*
Y11098D01*
Y11112D01*
Y11126D01*
X143008D01*
Y11140D01*
Y11153D01*
X142995D01*
Y11167D01*
Y11181D01*
Y11195D01*
X142981D01*
Y11209D01*
Y11223D01*
Y11236D01*
X142967D01*
Y11250D01*
Y11264D01*
X142953D01*
Y11278D01*
Y11292D01*
Y11305D01*
X142939D01*
Y11319D01*
Y11333D01*
X142926D01*
Y11347D01*
Y11361D01*
Y11375D01*
X142912D01*
Y11389D01*
Y11402D01*
Y11416D01*
X142898D01*
Y11430D01*
Y11444D01*
X142884D01*
Y11458D01*
Y11472D01*
Y11485D01*
X142870D01*
Y11499D01*
Y11513D01*
X142856D01*
Y11527D01*
Y11541D01*
Y11554D01*
X142842D01*
Y11568D01*
Y11582D01*
Y11596D01*
X142829D01*
Y11610D01*
Y11624D01*
X142815D01*
Y11637D01*
Y11651D01*
Y11665D01*
X142801D01*
Y11679D01*
Y11693D01*
X142787D01*
Y11707D01*
Y11720D01*
Y11734D01*
X142773D01*
Y11748D01*
Y11762D01*
Y11776D01*
X142760D01*
Y11789D01*
Y11803D01*
X142746D01*
Y11817D01*
Y11831D01*
Y11845D01*
X142732D01*
Y11859D01*
Y11873D01*
X142718D01*
Y11886D01*
Y11900D01*
Y11914D01*
X142704D01*
Y11928D01*
Y11942D01*
Y11955D01*
X142690D01*
Y11969D01*
Y11983D01*
X142676D01*
Y11997D01*
Y12011D01*
Y12025D01*
X142663D01*
Y12038D01*
Y12052D01*
X142649D01*
Y12066D01*
Y12080D01*
Y12094D01*
X142635D01*
Y12108D01*
Y12122D01*
Y12135D01*
X142621D01*
Y12149D01*
Y12163D01*
X142607D01*
Y12177D01*
Y12191D01*
Y12204D01*
X142594D01*
Y12218D01*
Y12232D01*
X142580D01*
Y12246D01*
Y12260D01*
Y12274D01*
X142566D01*
Y12287D01*
Y12301D01*
Y12315D01*
X142552D01*
Y12329D01*
Y12343D01*
X142538D01*
Y12357D01*
Y12370D01*
Y12384D01*
X142524D01*
Y12398D01*
Y12412D01*
X142511D01*
Y12426D01*
Y12440D01*
Y12453D01*
X142497D01*
Y12467D01*
Y12481D01*
Y12495D01*
X142483D01*
Y12509D01*
Y12522D01*
X142469D01*
Y12536D01*
Y12550D01*
Y12564D01*
X142455D01*
Y12578D01*
Y12592D01*
X142441D01*
Y12606D01*
Y12619D01*
Y12633D01*
X142428D01*
Y12647D01*
Y12661D01*
Y12675D01*
X142414D01*
Y12688D01*
Y12702D01*
X142400D01*
Y12716D01*
Y12730D01*
Y12744D01*
X142386D01*
Y12758D01*
Y12772D01*
X142372D01*
Y12785D01*
Y12799D01*
Y12813D01*
X142358D01*
Y12827D01*
Y12841D01*
Y12855D01*
X142345D01*
Y12868D01*
Y12882D01*
X142331D01*
Y12896D01*
Y12910D01*
Y12924D01*
X142317D01*
Y12937D01*
Y12951D01*
X142303D01*
Y12965D01*
Y12979D01*
Y12993D01*
X142289D01*
Y13007D01*
Y13020D01*
Y13034D01*
X142276D01*
Y13048D01*
X143340D01*
Y13034D01*
X143354D01*
Y13020D01*
Y13007D01*
Y12993D01*
X143368D01*
Y12979D01*
Y12965D01*
X143382D01*
Y12951D01*
Y12937D01*
Y12924D01*
X143396D01*
Y12910D01*
Y12896D01*
X143410D01*
Y12882D01*
Y12868D01*
Y12855D01*
X143423D01*
Y12841D01*
Y12827D01*
Y12813D01*
X143437D01*
Y12799D01*
Y12785D01*
X143451D01*
Y12772D01*
Y12758D01*
Y12744D01*
X143465D01*
Y12730D01*
Y12716D01*
X143479D01*
Y12702D01*
Y12688D01*
Y12675D01*
X143492D01*
Y12661D01*
Y12647D01*
Y12633D01*
X143506D01*
Y12619D01*
Y12606D01*
X143520D01*
Y12592D01*
Y12578D01*
Y12564D01*
X143534D01*
Y12550D01*
Y12536D01*
X143548D01*
Y12522D01*
Y12509D01*
Y12495D01*
X143562D01*
Y12481D01*
Y12467D01*
Y12453D01*
X143576D01*
Y12440D01*
Y12426D01*
X143589D01*
Y12412D01*
Y12398D01*
Y12384D01*
X143603D01*
Y12370D01*
Y12357D01*
X143617D01*
Y12343D01*
Y12329D01*
Y12315D01*
X143631D01*
Y12301D01*
Y12287D01*
Y12274D01*
X143645D01*
Y12260D01*
Y12246D01*
X143658D01*
Y12232D01*
Y12218D01*
Y12204D01*
X143672D01*
Y12191D01*
Y12177D01*
X143686D01*
Y12163D01*
Y12149D01*
Y12135D01*
X143700D01*
Y12122D01*
Y12108D01*
Y12094D01*
X143714D01*
Y12080D01*
Y12066D01*
X143728D01*
Y12052D01*
Y12038D01*
Y12025D01*
X143742D01*
Y12011D01*
Y11997D01*
X143755D01*
Y11983D01*
Y11969D01*
Y11955D01*
X143769D01*
Y11942D01*
Y11928D01*
Y11914D01*
X143783D01*
Y11900D01*
Y11886D01*
X143797D01*
Y11873D01*
Y11859D01*
Y11845D01*
X143811D01*
Y11831D01*
Y11817D01*
X143825D01*
Y11803D01*
Y11789D01*
Y11776D01*
X143838D01*
Y11762D01*
Y11748D01*
Y11734D01*
X143852D01*
Y11720D01*
Y11707D01*
X143866D01*
Y11693D01*
Y11679D01*
Y11665D01*
X143880D01*
Y11651D01*
Y11637D01*
X143894D01*
Y11624D01*
Y11610D01*
Y11596D01*
X143907D01*
Y11582D01*
Y11568D01*
X143921D01*
Y11554D01*
Y11541D01*
Y11527D01*
X143935D01*
Y11513D01*
Y11499D01*
Y11485D01*
X143949D01*
Y11472D01*
Y11458D01*
X143963D01*
Y11444D01*
Y11430D01*
Y11416D01*
X143977D01*
Y11402D01*
Y11389D01*
X143990D01*
Y11375D01*
Y11361D01*
Y11347D01*
X144004D01*
Y11333D01*
Y11319D01*
Y11305D01*
X144018D01*
Y11292D01*
Y11278D01*
X144032D01*
Y11264D01*
Y11250D01*
Y11236D01*
X144046D01*
Y11223D01*
Y11209D01*
X144060D01*
Y11195D01*
Y11181D01*
Y11167D01*
X144073D01*
Y11153D01*
Y11140D01*
Y11126D01*
X144087D01*
Y11112D01*
Y11098D01*
X144101D01*
Y11084D01*
Y11070D01*
Y11056D01*
X144115D01*
Y11043D01*
Y11029D01*
X144129D01*
Y11015D01*
Y11001D01*
Y10987D01*
X144143D01*
Y10973D01*
Y10960D01*
Y10946D01*
X144156D01*
Y10960D01*
X144170D01*
Y10973D01*
X144184D01*
Y10987D01*
X144198D01*
Y11001D01*
X144212D01*
Y11015D01*
X144226D01*
Y11029D01*
Y11043D01*
X144239D01*
Y11056D01*
X144253D01*
Y11070D01*
X144267D01*
Y11084D01*
X144281D01*
Y11098D01*
X144295D01*
Y11112D01*
Y11126D01*
X144308D01*
Y11140D01*
X144322D01*
Y11153D01*
X144336D01*
Y11167D01*
X144350D01*
Y11181D01*
X144364D01*
Y11195D01*
X144378D01*
Y11209D01*
Y11223D01*
X144392D01*
Y11236D01*
X144405D01*
Y11250D01*
X144419D01*
Y11264D01*
X144433D01*
Y11278D01*
X144447D01*
Y11292D01*
Y11305D01*
X144461D01*
Y11319D01*
X144474D01*
Y11333D01*
X144488D01*
Y11347D01*
X144502D01*
Y11361D01*
X144516D01*
Y11375D01*
X144530D01*
Y11389D01*
Y11402D01*
X144544D01*
Y11416D01*
X144557D01*
Y11430D01*
X144571D01*
Y11444D01*
X144585D01*
Y11458D01*
X144599D01*
Y11472D01*
Y11485D01*
X144613D01*
Y11499D01*
X144627D01*
Y11513D01*
X144641D01*
Y11527D01*
X144654D01*
Y11541D01*
X144668D01*
Y11554D01*
X144682D01*
Y11568D01*
Y11582D01*
X144696D01*
Y11596D01*
X144710D01*
Y11610D01*
X144723D01*
Y11624D01*
X144737D01*
Y11637D01*
X144751D01*
Y11651D01*
Y11665D01*
X144765D01*
Y11679D01*
X144779D01*
Y11693D01*
X144793D01*
Y11707D01*
X144806D01*
Y11720D01*
X144820D01*
Y11734D01*
X144834D01*
Y11748D01*
Y11762D01*
X144848D01*
Y11776D01*
X144862D01*
Y11789D01*
X144876D01*
Y11803D01*
X144889D01*
Y11817D01*
X144903D01*
Y11831D01*
X144917D01*
Y11845D01*
Y11859D01*
X144931D01*
Y11873D01*
X144945D01*
Y11886D01*
X144958D01*
Y11900D01*
X144972D01*
Y11914D01*
X144986D01*
Y11928D01*
Y11942D01*
X145000D01*
Y11955D01*
X145014D01*
Y11969D01*
X145028D01*
Y11983D01*
X145042D01*
Y11997D01*
X145055D01*
Y12011D01*
X145069D01*
Y12025D01*
Y12038D01*
X145083D01*
Y12052D01*
X145097D01*
Y12066D01*
X145111D01*
Y12080D01*
X145124D01*
Y12094D01*
X145138D01*
Y12108D01*
Y12122D01*
X145152D01*
Y12135D01*
X145166D01*
Y12149D01*
X145180D01*
Y12163D01*
X145194D01*
Y12177D01*
X145208D01*
Y12191D01*
X145221D01*
Y12204D01*
Y12218D01*
X145235D01*
Y12232D01*
X145249D01*
Y12246D01*
X145263D01*
Y12260D01*
X145277D01*
Y12274D01*
X145291D01*
Y12287D01*
Y12301D01*
X145304D01*
Y12315D01*
X145318D01*
Y12329D01*
X145332D01*
Y12343D01*
X145346D01*
Y12357D01*
X145360D01*
Y12370D01*
X145373D01*
Y12384D01*
Y12398D01*
X145387D01*
Y12412D01*
X145401D01*
Y12426D01*
X145415D01*
Y12440D01*
X145429D01*
Y12453D01*
X145443D01*
Y12467D01*
Y12481D01*
X145456D01*
Y12495D01*
X145470D01*
Y12509D01*
X145484D01*
Y12522D01*
X145498D01*
Y12536D01*
X145512D01*
Y12550D01*
X145526D01*
Y12564D01*
Y12578D01*
X145539D01*
Y12592D01*
X145553D01*
Y12606D01*
X145567D01*
Y12619D01*
X145581D01*
Y12633D01*
X145595D01*
Y12647D01*
X145609D01*
Y12661D01*
Y12675D01*
X145622D01*
Y12688D01*
X145636D01*
Y12702D01*
X145650D01*
Y12716D01*
X145664D01*
Y12730D01*
X145678D01*
Y12744D01*
Y12758D01*
X145692D01*
Y12772D01*
X145705D01*
Y12785D01*
X145719D01*
Y12799D01*
X145733D01*
Y12813D01*
X145747D01*
Y12827D01*
X145761D01*
Y12841D01*
Y12855D01*
X145774D01*
Y12868D01*
X145788D01*
Y12882D01*
X145802D01*
Y12896D01*
X145816D01*
Y12910D01*
X145830D01*
Y12924D01*
Y12937D01*
X145844D01*
Y12951D01*
X145858D01*
Y12965D01*
X145871D01*
Y12979D01*
X145885D01*
Y12993D01*
X145899D01*
Y13007D01*
X145913D01*
Y13020D01*
Y13034D01*
X145927D01*
Y13048D01*
X147116D01*
Y13034D01*
D02*
G37*
G36*
X154253D02*
X154239D01*
Y13020D01*
Y13007D01*
X154225D01*
Y12993D01*
Y12979D01*
X154211D01*
Y12965D01*
X154197D01*
Y12951D01*
Y12937D01*
X154183D01*
Y12924D01*
X154169D01*
Y12910D01*
Y12896D01*
X154156D01*
Y12882D01*
Y12868D01*
X154142D01*
Y12855D01*
X154128D01*
Y12841D01*
Y12827D01*
X154114D01*
Y12813D01*
X154100D01*
Y12799D01*
Y12785D01*
X154087D01*
Y12772D01*
X154073D01*
Y12758D01*
Y12744D01*
X154059D01*
Y12730D01*
Y12716D01*
X154045D01*
Y12702D01*
X154031D01*
Y12688D01*
Y12675D01*
X154017D01*
Y12661D01*
X154004D01*
Y12647D01*
Y12633D01*
X153990D01*
Y12619D01*
Y12606D01*
X153976D01*
Y12592D01*
X153962D01*
Y12578D01*
Y12564D01*
X153948D01*
Y12550D01*
X153934D01*
Y12536D01*
Y12522D01*
X153921D01*
Y12509D01*
Y12495D01*
X153907D01*
Y12481D01*
X153893D01*
Y12467D01*
Y12453D01*
X153879D01*
Y12440D01*
X153865D01*
Y12426D01*
Y12412D01*
X153851D01*
Y12398D01*
X153838D01*
Y12384D01*
Y12370D01*
X153824D01*
Y12357D01*
Y12343D01*
X153810D01*
Y12329D01*
X153796D01*
Y12315D01*
Y12301D01*
X153782D01*
Y12287D01*
X153769D01*
Y12274D01*
Y12260D01*
X153755D01*
Y12246D01*
Y12232D01*
X153741D01*
Y12218D01*
X153727D01*
Y12204D01*
Y12191D01*
X153713D01*
Y12177D01*
X153699D01*
Y12163D01*
Y12149D01*
X153685D01*
Y12135D01*
X153672D01*
Y12122D01*
Y12108D01*
X153658D01*
Y12094D01*
Y12080D01*
X153644D01*
Y12066D01*
X153630D01*
Y12052D01*
Y12038D01*
X153616D01*
Y12025D01*
X153603D01*
Y12011D01*
Y11997D01*
X153589D01*
Y11983D01*
Y11969D01*
X153575D01*
Y11955D01*
X153561D01*
Y11942D01*
Y11928D01*
X153547D01*
Y11914D01*
X153533D01*
Y11900D01*
Y11886D01*
X153519D01*
Y11873D01*
X153506D01*
Y11859D01*
Y11845D01*
X153492D01*
Y11831D01*
Y11817D01*
X153478D01*
Y11803D01*
X153464D01*
Y11789D01*
Y11776D01*
X153450D01*
Y11762D01*
X153437D01*
Y11748D01*
Y11734D01*
X153423D01*
Y11720D01*
Y11707D01*
X153409D01*
Y11693D01*
X153395D01*
Y11679D01*
Y11665D01*
X153381D01*
Y11651D01*
X153367D01*
Y11637D01*
Y11624D01*
X153354D01*
Y11610D01*
X153340D01*
Y11596D01*
Y11582D01*
X153326D01*
Y11568D01*
Y11554D01*
X153312D01*
Y11541D01*
X153298D01*
Y11527D01*
Y11513D01*
X153284D01*
Y11499D01*
X153271D01*
Y11485D01*
Y11472D01*
X153257D01*
Y11458D01*
Y11444D01*
X153243D01*
Y11430D01*
X153229D01*
Y11416D01*
Y11402D01*
X153215D01*
Y11389D01*
X153201D01*
Y11375D01*
Y11361D01*
X153188D01*
Y11347D01*
X153174D01*
Y11333D01*
Y11319D01*
X153160D01*
Y11305D01*
Y11292D01*
X153146D01*
Y11278D01*
X153132D01*
Y11264D01*
Y11250D01*
X153118D01*
Y11236D01*
X153105D01*
Y11223D01*
Y11209D01*
X153091D01*
Y11195D01*
Y11181D01*
X153077D01*
Y11167D01*
X153063D01*
Y11153D01*
Y11140D01*
X153049D01*
Y11126D01*
X153035D01*
Y11112D01*
Y11098D01*
X153022D01*
Y11084D01*
X153008D01*
Y11070D01*
Y11056D01*
X152994D01*
Y11043D01*
Y11029D01*
X152980D01*
Y11015D01*
X152966D01*
Y11001D01*
Y10987D01*
X152953D01*
Y10973D01*
X152939D01*
Y10960D01*
Y10946D01*
X152925D01*
Y10932D01*
Y10918D01*
X152911D01*
Y10904D01*
X152897D01*
Y10891D01*
Y10877D01*
X152883D01*
Y10863D01*
X152869D01*
Y10849D01*
Y10835D01*
X152856D01*
Y10821D01*
Y10808D01*
X152842D01*
Y10794D01*
X152828D01*
Y10780D01*
Y10766D01*
X152814D01*
Y10752D01*
X152800D01*
Y10738D01*
Y10725D01*
X152787D01*
Y10711D01*
X152773D01*
Y10697D01*
Y10683D01*
X152759D01*
Y10669D01*
Y10655D01*
X152745D01*
Y10642D01*
X152731D01*
Y10628D01*
Y10614D01*
X152717D01*
Y10600D01*
X152703D01*
Y10586D01*
Y10572D01*
X152690D01*
Y10559D01*
Y10545D01*
X152676D01*
Y10531D01*
X152662D01*
Y10517D01*
Y10503D01*
X152648D01*
Y10490D01*
X152634D01*
Y10476D01*
Y10462D01*
X152620D01*
Y10448D01*
X152607D01*
Y10434D01*
Y10420D01*
X152593D01*
Y10407D01*
Y10393D01*
X152579D01*
Y10379D01*
X152565D01*
Y10365D01*
Y10351D01*
X152551D01*
Y10337D01*
X152538D01*
Y10323D01*
Y10310D01*
X152524D01*
Y10296D01*
Y10282D01*
X152510D01*
Y10268D01*
X152496D01*
Y10254D01*
Y10240D01*
X152482D01*
Y10227D01*
X152468D01*
Y10213D01*
Y10199D01*
X152455D01*
Y10185D01*
X152441D01*
Y10171D01*
Y10158D01*
X152427D01*
Y10144D01*
Y10130D01*
X152413D01*
Y10116D01*
X152399D01*
Y10102D01*
Y10088D01*
X152385D01*
Y10075D01*
X152372D01*
Y10061D01*
Y10047D01*
X152358D01*
Y10033D01*
Y10019D01*
X152344D01*
Y10005D01*
X152330D01*
Y9992D01*
Y9978D01*
X152316D01*
Y9964D01*
X152302D01*
Y9950D01*
Y9936D01*
X152289D01*
Y9922D01*
X152275D01*
Y9909D01*
Y9895D01*
X152261D01*
Y9881D01*
Y9867D01*
X152247D01*
Y9853D01*
X152233D01*
Y9839D01*
Y9826D01*
X152219D01*
Y9812D01*
X152206D01*
Y9798D01*
Y9784D01*
X152192D01*
Y9770D01*
Y9757D01*
X152178D01*
Y9743D01*
X152164D01*
Y9729D01*
Y9715D01*
X152150D01*
Y9701D01*
X152137D01*
Y9687D01*
Y9674D01*
X152123D01*
Y9660D01*
X152109D01*
Y9646D01*
Y9632D01*
X152095D01*
Y9618D01*
Y9604D01*
X152081D01*
Y9590D01*
X152067D01*
Y9577D01*
Y9563D01*
X152053D01*
Y9549D01*
X152040D01*
Y9535D01*
Y9521D01*
X152026D01*
Y9507D01*
Y9494D01*
X152012D01*
Y9480D01*
X151998D01*
Y9466D01*
Y9452D01*
X151984D01*
Y9438D01*
X151971D01*
Y9425D01*
Y9411D01*
X151957D01*
Y9397D01*
X151943D01*
Y9383D01*
Y9369D01*
X151929D01*
Y9355D01*
Y9342D01*
X151915D01*
Y9328D01*
X151901D01*
Y9314D01*
Y9300D01*
X151888D01*
Y9286D01*
X151874D01*
Y9272D01*
Y9259D01*
X151860D01*
Y9245D01*
Y9231D01*
X151846D01*
Y9217D01*
X151832D01*
Y9203D01*
Y9189D01*
X151818D01*
Y9176D01*
X151805D01*
Y9162D01*
Y9148D01*
X151791D01*
Y9134D01*
Y9120D01*
X151777D01*
Y9106D01*
X151763D01*
Y9093D01*
Y9079D01*
X151749D01*
Y9065D01*
X151735D01*
Y9051D01*
Y9037D01*
X151722D01*
Y9024D01*
X151708D01*
Y9010D01*
Y8996D01*
X151694D01*
Y8982D01*
Y8968D01*
X151680D01*
Y8954D01*
X151666D01*
Y8941D01*
Y8927D01*
X151652D01*
Y8913D01*
X151639D01*
Y8899D01*
Y8885D01*
X151625D01*
Y8871D01*
Y8857D01*
X151611D01*
Y8844D01*
X151597D01*
Y8830D01*
Y8816D01*
X151583D01*
Y8802D01*
X151569D01*
Y8788D01*
Y8775D01*
X151556D01*
Y8761D01*
X151542D01*
Y8747D01*
Y8733D01*
X151528D01*
Y8719D01*
Y8705D01*
X151514D01*
Y8692D01*
X151500D01*
Y8678D01*
Y8664D01*
X151487D01*
Y8650D01*
X151473D01*
Y8636D01*
Y8622D01*
X151459D01*
Y8609D01*
Y8595D01*
X151445D01*
Y8581D01*
X151431D01*
Y8567D01*
Y8553D01*
X151417D01*
Y8539D01*
X151403D01*
Y8526D01*
Y8512D01*
X151390D01*
Y8498D01*
X151376D01*
Y8484D01*
Y8470D01*
X151362D01*
Y8456D01*
Y8443D01*
X151348D01*
Y8429D01*
X151334D01*
Y8415D01*
Y8401D01*
X151321D01*
Y8387D01*
X151307D01*
Y8373D01*
Y8360D01*
X151293D01*
Y8346D01*
Y8332D01*
X151279D01*
Y8318D01*
X151265D01*
Y8304D01*
Y8291D01*
X151251D01*
Y8277D01*
X151237D01*
Y8263D01*
Y8249D01*
X151224D01*
Y8235D01*
X151210D01*
Y8221D01*
Y8207D01*
X151196D01*
Y8194D01*
Y8180D01*
X151182D01*
Y8166D01*
X151168D01*
Y8152D01*
Y8138D01*
X151154D01*
Y8124D01*
X151141D01*
Y8111D01*
Y8097D01*
X151127D01*
Y8083D01*
Y8069D01*
X151113D01*
Y8055D01*
X151099D01*
Y8042D01*
Y8028D01*
X151085D01*
Y8014D01*
X151072D01*
Y8000D01*
Y7986D01*
X151058D01*
Y7972D01*
X151044D01*
Y7959D01*
Y7945D01*
X151030D01*
Y7931D01*
Y7917D01*
X151016D01*
Y7903D01*
X151002D01*
Y7889D01*
Y7876D01*
X150989D01*
Y7862D01*
X150975D01*
Y7848D01*
Y7834D01*
X150961D01*
Y7820D01*
Y7806D01*
X150947D01*
Y7793D01*
X150933D01*
Y7779D01*
Y7765D01*
X150919D01*
Y7751D01*
X150906D01*
Y7737D01*
Y7723D01*
X150892D01*
Y7710D01*
X150878D01*
Y7696D01*
Y7682D01*
X150864D01*
Y7668D01*
Y7654D01*
X150850D01*
Y7640D01*
X150836D01*
Y7627D01*
Y7613D01*
X150823D01*
Y7599D01*
X150809D01*
Y7585D01*
Y7571D01*
X150795D01*
Y7558D01*
Y7544D01*
X150781D01*
Y7530D01*
X150767D01*
Y7516D01*
Y7502D01*
X150753D01*
Y7488D01*
X150740D01*
Y7474D01*
Y7461D01*
X150726D01*
Y7447D01*
Y7433D01*
X150712D01*
Y7419D01*
X150698D01*
Y7405D01*
Y7391D01*
X150684D01*
Y7378D01*
X150671D01*
Y7364D01*
Y7350D01*
X150657D01*
Y7336D01*
X150643D01*
Y7322D01*
Y7309D01*
X150629D01*
Y7295D01*
Y7281D01*
X150615D01*
Y7267D01*
X150601D01*
Y7253D01*
Y7239D01*
X150587D01*
Y7226D01*
X150574D01*
Y7212D01*
X149813D01*
Y7226D01*
Y7239D01*
Y7253D01*
Y7267D01*
Y7281D01*
X149799D01*
Y7295D01*
Y7309D01*
Y7322D01*
Y7336D01*
Y7350D01*
Y7364D01*
Y7378D01*
Y7391D01*
X149785D01*
Y7405D01*
Y7419D01*
Y7433D01*
Y7447D01*
Y7461D01*
Y7474D01*
Y7488D01*
Y7502D01*
X149771D01*
Y7516D01*
Y7530D01*
Y7544D01*
Y7558D01*
Y7571D01*
Y7585D01*
Y7599D01*
Y7613D01*
X149758D01*
Y7627D01*
Y7640D01*
Y7654D01*
Y7668D01*
Y7682D01*
Y7696D01*
Y7710D01*
Y7723D01*
X149744D01*
Y7737D01*
Y7751D01*
Y7765D01*
Y7779D01*
Y7793D01*
Y7806D01*
Y7820D01*
Y7834D01*
X149730D01*
Y7848D01*
Y7862D01*
Y7876D01*
Y7889D01*
Y7903D01*
Y7917D01*
Y7931D01*
Y7945D01*
X149716D01*
Y7959D01*
Y7972D01*
Y7986D01*
Y8000D01*
Y8014D01*
Y8028D01*
Y8042D01*
Y8055D01*
X149702D01*
Y8069D01*
Y8083D01*
Y8097D01*
Y8111D01*
Y8124D01*
Y8138D01*
Y8152D01*
Y8166D01*
X149688D01*
Y8180D01*
Y8194D01*
Y8207D01*
Y8221D01*
Y8235D01*
Y8249D01*
Y8263D01*
Y8277D01*
X149675D01*
Y8291D01*
Y8304D01*
Y8318D01*
Y8332D01*
Y8346D01*
Y8360D01*
Y8373D01*
Y8387D01*
X149661D01*
Y8401D01*
Y8415D01*
Y8429D01*
Y8443D01*
Y8456D01*
Y8470D01*
Y8484D01*
Y8498D01*
X149647D01*
Y8512D01*
Y8526D01*
Y8539D01*
Y8553D01*
Y8567D01*
Y8581D01*
Y8595D01*
Y8609D01*
X149633D01*
Y8622D01*
Y8636D01*
Y8650D01*
Y8664D01*
Y8678D01*
Y8692D01*
Y8705D01*
Y8719D01*
X149619D01*
Y8733D01*
Y8747D01*
Y8761D01*
Y8775D01*
Y8788D01*
Y8802D01*
Y8816D01*
X149606D01*
Y8830D01*
Y8844D01*
Y8857D01*
Y8871D01*
Y8885D01*
Y8899D01*
Y8913D01*
Y8927D01*
X149592D01*
Y8941D01*
Y8954D01*
Y8968D01*
Y8982D01*
Y8996D01*
Y9010D01*
Y9024D01*
Y9037D01*
X149578D01*
Y9051D01*
Y9065D01*
Y9079D01*
Y9093D01*
Y9106D01*
Y9120D01*
Y9134D01*
Y9148D01*
X149564D01*
Y9162D01*
Y9176D01*
Y9189D01*
Y9203D01*
Y9217D01*
Y9231D01*
Y9245D01*
Y9259D01*
X149550D01*
Y9272D01*
Y9286D01*
Y9300D01*
Y9314D01*
Y9328D01*
Y9342D01*
Y9355D01*
Y9369D01*
X149536D01*
Y9383D01*
Y9397D01*
Y9411D01*
Y9425D01*
Y9438D01*
Y9452D01*
Y9466D01*
Y9480D01*
X149523D01*
Y9494D01*
Y9507D01*
Y9521D01*
Y9535D01*
Y9549D01*
Y9563D01*
Y9577D01*
Y9590D01*
X149509D01*
Y9604D01*
Y9618D01*
Y9632D01*
Y9646D01*
Y9660D01*
Y9674D01*
Y9687D01*
Y9701D01*
X149495D01*
Y9715D01*
Y9729D01*
Y9743D01*
Y9757D01*
Y9770D01*
Y9784D01*
Y9798D01*
Y9812D01*
X149481D01*
Y9826D01*
Y9839D01*
Y9853D01*
Y9867D01*
Y9881D01*
Y9895D01*
Y9909D01*
Y9922D01*
X149467D01*
Y9936D01*
Y9950D01*
Y9964D01*
Y9978D01*
Y9992D01*
Y10005D01*
Y10019D01*
Y10033D01*
X149453D01*
Y10047D01*
Y10061D01*
Y10075D01*
Y10088D01*
Y10102D01*
Y10116D01*
Y10130D01*
Y10144D01*
X149440D01*
Y10158D01*
Y10171D01*
Y10185D01*
Y10199D01*
Y10213D01*
Y10227D01*
Y10240D01*
Y10254D01*
X149426D01*
Y10268D01*
Y10282D01*
Y10296D01*
Y10310D01*
Y10323D01*
Y10337D01*
Y10351D01*
X149412D01*
Y10365D01*
Y10379D01*
Y10393D01*
Y10407D01*
Y10420D01*
Y10434D01*
Y10448D01*
Y10462D01*
X149398D01*
Y10476D01*
Y10490D01*
Y10503D01*
Y10517D01*
Y10531D01*
Y10545D01*
Y10559D01*
Y10572D01*
X149384D01*
Y10586D01*
Y10600D01*
Y10614D01*
Y10628D01*
Y10642D01*
Y10655D01*
Y10669D01*
Y10683D01*
X149370D01*
Y10697D01*
Y10711D01*
Y10725D01*
Y10738D01*
Y10752D01*
Y10766D01*
Y10780D01*
Y10794D01*
X149357D01*
Y10808D01*
Y10821D01*
Y10835D01*
Y10849D01*
Y10863D01*
Y10877D01*
Y10891D01*
Y10904D01*
X149343D01*
Y10918D01*
Y10932D01*
Y10946D01*
Y10960D01*
Y10973D01*
Y10987D01*
Y11001D01*
Y11015D01*
X149329D01*
Y11029D01*
Y11043D01*
Y11056D01*
Y11070D01*
Y11084D01*
Y11098D01*
Y11112D01*
Y11126D01*
X149315D01*
Y11140D01*
Y11153D01*
Y11167D01*
Y11181D01*
Y11195D01*
Y11209D01*
Y11223D01*
Y11236D01*
X149301D01*
Y11250D01*
Y11264D01*
Y11278D01*
Y11292D01*
Y11305D01*
Y11319D01*
Y11333D01*
Y11347D01*
X149287D01*
Y11361D01*
Y11375D01*
Y11389D01*
Y11402D01*
Y11416D01*
Y11430D01*
Y11444D01*
Y11458D01*
X149274D01*
Y11472D01*
Y11485D01*
Y11499D01*
Y11513D01*
Y11527D01*
Y11541D01*
Y11554D01*
Y11568D01*
X149260D01*
Y11582D01*
Y11596D01*
Y11610D01*
Y11624D01*
Y11637D01*
Y11651D01*
Y11665D01*
Y11679D01*
X149246D01*
Y11693D01*
Y11707D01*
Y11720D01*
Y11734D01*
Y11748D01*
Y11762D01*
Y11776D01*
Y11789D01*
X149232D01*
Y11803D01*
Y11817D01*
Y11831D01*
Y11845D01*
Y11859D01*
Y11873D01*
Y11886D01*
X149218D01*
Y11900D01*
Y11914D01*
Y11928D01*
Y11942D01*
Y11955D01*
Y11969D01*
Y11983D01*
Y11997D01*
X149205D01*
Y12011D01*
Y12025D01*
Y12038D01*
Y12052D01*
Y12066D01*
Y12080D01*
Y12094D01*
Y12108D01*
X149191D01*
Y12122D01*
Y12135D01*
Y12149D01*
Y12163D01*
Y12177D01*
Y12191D01*
Y12204D01*
Y12218D01*
X149177D01*
Y12232D01*
Y12246D01*
Y12260D01*
Y12274D01*
Y12287D01*
Y12301D01*
Y12315D01*
Y12329D01*
X149163D01*
Y12343D01*
Y12357D01*
Y12370D01*
Y12384D01*
Y12398D01*
Y12412D01*
Y12426D01*
Y12440D01*
X149149D01*
Y12453D01*
Y12467D01*
Y12481D01*
Y12495D01*
Y12509D01*
Y12522D01*
Y12536D01*
Y12550D01*
X149135D01*
Y12564D01*
Y12578D01*
Y12592D01*
Y12606D01*
Y12619D01*
Y12633D01*
Y12647D01*
Y12661D01*
X149121D01*
Y12675D01*
Y12688D01*
Y12702D01*
Y12716D01*
Y12730D01*
Y12744D01*
Y12758D01*
Y12772D01*
X149108D01*
Y12785D01*
Y12799D01*
Y12813D01*
Y12827D01*
Y12841D01*
Y12855D01*
Y12868D01*
Y12882D01*
X149094D01*
Y12896D01*
Y12910D01*
Y12924D01*
Y12937D01*
Y12951D01*
Y12965D01*
Y12979D01*
Y12993D01*
X149080D01*
Y13007D01*
Y13020D01*
Y13034D01*
Y13048D01*
X150145D01*
Y13034D01*
Y13020D01*
Y13007D01*
X150159D01*
Y12993D01*
Y12979D01*
Y12965D01*
Y12951D01*
Y12937D01*
Y12924D01*
Y12910D01*
Y12896D01*
X150173D01*
Y12882D01*
Y12868D01*
Y12855D01*
Y12841D01*
Y12827D01*
Y12813D01*
Y12799D01*
Y12785D01*
Y12772D01*
X150186D01*
Y12758D01*
Y12744D01*
Y12730D01*
Y12716D01*
Y12702D01*
Y12688D01*
Y12675D01*
Y12661D01*
Y12647D01*
X150200D01*
Y12633D01*
Y12619D01*
Y12606D01*
Y12592D01*
Y12578D01*
Y12564D01*
Y12550D01*
Y12536D01*
X150214D01*
Y12522D01*
Y12509D01*
Y12495D01*
Y12481D01*
Y12467D01*
Y12453D01*
Y12440D01*
Y12426D01*
Y12412D01*
X150228D01*
Y12398D01*
Y12384D01*
Y12370D01*
Y12357D01*
Y12343D01*
Y12329D01*
Y12315D01*
Y12301D01*
X150242D01*
Y12287D01*
Y12274D01*
Y12260D01*
Y12246D01*
Y12232D01*
Y12218D01*
Y12204D01*
Y12191D01*
Y12177D01*
X150256D01*
Y12163D01*
Y12149D01*
Y12135D01*
Y12122D01*
Y12108D01*
Y12094D01*
Y12080D01*
Y12066D01*
Y12052D01*
X150269D01*
Y12038D01*
Y12025D01*
Y12011D01*
Y11997D01*
Y11983D01*
Y11969D01*
Y11955D01*
Y11942D01*
X150283D01*
Y11928D01*
Y11914D01*
Y11900D01*
Y11886D01*
Y11873D01*
Y11859D01*
Y11845D01*
Y11831D01*
Y11817D01*
X150297D01*
Y11803D01*
Y11789D01*
Y11776D01*
Y11762D01*
Y11748D01*
Y11734D01*
Y11720D01*
Y11707D01*
Y11693D01*
X150311D01*
Y11679D01*
Y11665D01*
Y11651D01*
Y11637D01*
Y11624D01*
Y11610D01*
Y11596D01*
Y11582D01*
X150325D01*
Y11568D01*
Y11554D01*
Y11541D01*
Y11527D01*
Y11513D01*
Y11499D01*
Y11485D01*
Y11472D01*
Y11458D01*
X150339D01*
Y11444D01*
Y11430D01*
Y11416D01*
Y11402D01*
Y11389D01*
Y11375D01*
Y11361D01*
Y11347D01*
X150352D01*
Y11333D01*
Y11319D01*
Y11305D01*
Y11292D01*
Y11278D01*
Y11264D01*
Y11250D01*
Y11236D01*
Y11223D01*
X150366D01*
Y11209D01*
Y11195D01*
Y11181D01*
Y11167D01*
Y11153D01*
Y11140D01*
Y11126D01*
Y11112D01*
Y11098D01*
X150380D01*
Y11084D01*
Y11070D01*
Y11056D01*
Y11043D01*
Y11029D01*
Y11015D01*
Y11001D01*
Y10987D01*
X150394D01*
Y10973D01*
Y10960D01*
Y10946D01*
Y10932D01*
Y10918D01*
Y10904D01*
Y10891D01*
Y10877D01*
Y10863D01*
X150408D01*
Y10849D01*
Y10835D01*
Y10821D01*
Y10808D01*
Y10794D01*
Y10780D01*
Y10766D01*
Y10752D01*
Y10738D01*
X150422D01*
Y10725D01*
Y10711D01*
Y10697D01*
Y10683D01*
Y10669D01*
Y10655D01*
Y10642D01*
Y10628D01*
X150435D01*
Y10614D01*
Y10600D01*
Y10586D01*
Y10572D01*
Y10559D01*
Y10545D01*
Y10531D01*
Y10517D01*
Y10503D01*
X150449D01*
Y10490D01*
Y10476D01*
Y10462D01*
Y10448D01*
Y10434D01*
Y10420D01*
Y10407D01*
Y10393D01*
X150463D01*
Y10379D01*
Y10365D01*
Y10351D01*
Y10337D01*
Y10323D01*
Y10310D01*
Y10296D01*
Y10282D01*
Y10268D01*
X150477D01*
Y10254D01*
Y10240D01*
Y10227D01*
Y10213D01*
Y10199D01*
Y10185D01*
Y10171D01*
Y10158D01*
Y10144D01*
X150491D01*
Y10130D01*
Y10116D01*
Y10102D01*
Y10088D01*
Y10075D01*
Y10061D01*
Y10047D01*
Y10033D01*
X150505D01*
Y10019D01*
Y10005D01*
Y9992D01*
Y9978D01*
Y9964D01*
Y9950D01*
Y9936D01*
Y9922D01*
Y9909D01*
X150518D01*
Y9895D01*
Y9881D01*
Y9867D01*
Y9853D01*
Y9839D01*
Y9826D01*
Y9812D01*
Y9798D01*
Y9784D01*
X150532D01*
Y9770D01*
Y9757D01*
Y9743D01*
Y9729D01*
Y9715D01*
Y9701D01*
Y9687D01*
Y9674D01*
X150546D01*
Y9660D01*
Y9646D01*
Y9632D01*
Y9618D01*
Y9604D01*
Y9590D01*
Y9577D01*
Y9563D01*
Y9549D01*
X150560D01*
Y9535D01*
Y9521D01*
Y9507D01*
Y9494D01*
Y9480D01*
Y9466D01*
Y9452D01*
Y9438D01*
X150574D01*
Y9425D01*
Y9411D01*
Y9397D01*
Y9383D01*
Y9369D01*
Y9355D01*
Y9342D01*
Y9328D01*
Y9314D01*
X150587D01*
Y9300D01*
Y9286D01*
Y9272D01*
Y9259D01*
Y9245D01*
Y9231D01*
Y9217D01*
Y9203D01*
Y9189D01*
X150601D01*
Y9176D01*
Y9162D01*
Y9148D01*
Y9134D01*
Y9120D01*
Y9106D01*
Y9093D01*
Y9079D01*
X150615D01*
Y9065D01*
Y9051D01*
Y9037D01*
Y9024D01*
Y9010D01*
Y8996D01*
Y8982D01*
Y8968D01*
Y8954D01*
X150629D01*
Y8941D01*
Y8927D01*
Y8913D01*
X150643D01*
Y8927D01*
X150657D01*
Y8941D01*
Y8954D01*
X150671D01*
Y8968D01*
X150684D01*
Y8982D01*
Y8996D01*
X150698D01*
Y9010D01*
X150712D01*
Y9024D01*
Y9037D01*
X150726D01*
Y9051D01*
Y9065D01*
X150740D01*
Y9079D01*
X150753D01*
Y9093D01*
Y9106D01*
X150767D01*
Y9120D01*
Y9134D01*
X150781D01*
Y9148D01*
X150795D01*
Y9162D01*
Y9176D01*
X150809D01*
Y9189D01*
X150823D01*
Y9203D01*
Y9217D01*
X150836D01*
Y9231D01*
Y9245D01*
X150850D01*
Y9259D01*
X150864D01*
Y9272D01*
Y9286D01*
X150878D01*
Y9300D01*
Y9314D01*
X150892D01*
Y9328D01*
X150906D01*
Y9342D01*
Y9355D01*
X150919D01*
Y9369D01*
Y9383D01*
X150933D01*
Y9397D01*
X150947D01*
Y9411D01*
Y9425D01*
X150961D01*
Y9438D01*
X150975D01*
Y9452D01*
Y9466D01*
X150989D01*
Y9480D01*
Y9494D01*
X151002D01*
Y9507D01*
X151016D01*
Y9521D01*
Y9535D01*
X151030D01*
Y9549D01*
Y9563D01*
X151044D01*
Y9577D01*
X151058D01*
Y9590D01*
Y9604D01*
X151072D01*
Y9618D01*
X151085D01*
Y9632D01*
Y9646D01*
X151099D01*
Y9660D01*
Y9674D01*
X151113D01*
Y9687D01*
X151127D01*
Y9701D01*
Y9715D01*
X151141D01*
Y9729D01*
Y9743D01*
X151154D01*
Y9757D01*
X151168D01*
Y9770D01*
Y9784D01*
X151182D01*
Y9798D01*
Y9812D01*
X151196D01*
Y9826D01*
X151210D01*
Y9839D01*
Y9853D01*
X151224D01*
Y9867D01*
X151237D01*
Y9881D01*
Y9895D01*
X151251D01*
Y9909D01*
Y9922D01*
X151265D01*
Y9936D01*
X151279D01*
Y9950D01*
Y9964D01*
X151293D01*
Y9978D01*
Y9992D01*
X151307D01*
Y10005D01*
X151321D01*
Y10019D01*
Y10033D01*
X151334D01*
Y10047D01*
X151348D01*
Y10061D01*
Y10075D01*
X151362D01*
Y10088D01*
Y10102D01*
X151376D01*
Y10116D01*
X151390D01*
Y10130D01*
Y10144D01*
X151403D01*
Y10158D01*
Y10171D01*
X151417D01*
Y10185D01*
X151431D01*
Y10199D01*
Y10213D01*
X151445D01*
Y10227D01*
X151459D01*
Y10240D01*
Y10254D01*
X151473D01*
Y10268D01*
Y10282D01*
X151487D01*
Y10296D01*
X151500D01*
Y10310D01*
Y10323D01*
X151514D01*
Y10337D01*
Y10351D01*
X151528D01*
Y10365D01*
X151542D01*
Y10379D01*
Y10393D01*
X151556D01*
Y10407D01*
Y10420D01*
X151569D01*
Y10434D01*
X151583D01*
Y10448D01*
Y10462D01*
X151597D01*
Y10476D01*
X151611D01*
Y10490D01*
Y10503D01*
X151625D01*
Y10517D01*
Y10531D01*
X151639D01*
Y10545D01*
X151652D01*
Y10559D01*
Y10572D01*
X151666D01*
Y10586D01*
Y10600D01*
X151680D01*
Y10614D01*
X151694D01*
Y10628D01*
Y10642D01*
X151708D01*
Y10655D01*
X151722D01*
Y10669D01*
Y10683D01*
X151735D01*
Y10697D01*
Y10711D01*
X151749D01*
Y10725D01*
X151763D01*
Y10738D01*
Y10752D01*
X151777D01*
Y10766D01*
Y10780D01*
X151791D01*
Y10794D01*
X151805D01*
Y10808D01*
Y10821D01*
X151818D01*
Y10835D01*
Y10849D01*
X151832D01*
Y10863D01*
X151846D01*
Y10877D01*
Y10891D01*
X151860D01*
Y10904D01*
X151874D01*
Y10918D01*
Y10932D01*
X151888D01*
Y10946D01*
Y10960D01*
X151901D01*
Y10973D01*
X151915D01*
Y10987D01*
Y11001D01*
X151929D01*
Y11015D01*
Y11029D01*
X151943D01*
Y11043D01*
X151957D01*
Y11056D01*
Y11070D01*
X151971D01*
Y11084D01*
X151984D01*
Y11098D01*
Y11112D01*
X151998D01*
Y11126D01*
Y11140D01*
X152012D01*
Y11153D01*
X152026D01*
Y11167D01*
Y11181D01*
X152040D01*
Y11195D01*
Y11209D01*
X152053D01*
Y11223D01*
X152067D01*
Y11236D01*
Y11250D01*
X152081D01*
Y11264D01*
X152095D01*
Y11278D01*
Y11292D01*
X152109D01*
Y11305D01*
Y11319D01*
X152123D01*
Y11333D01*
X152137D01*
Y11347D01*
Y11361D01*
X152150D01*
Y11375D01*
Y11389D01*
X152164D01*
Y11402D01*
X152178D01*
Y11416D01*
Y11430D01*
X152192D01*
Y11444D01*
Y11458D01*
X152206D01*
Y11472D01*
X152219D01*
Y11485D01*
Y11499D01*
X152233D01*
Y11513D01*
X152247D01*
Y11527D01*
Y11541D01*
X152261D01*
Y11554D01*
Y11568D01*
X152275D01*
Y11582D01*
X152289D01*
Y11596D01*
Y11610D01*
X152302D01*
Y11624D01*
Y11637D01*
X152316D01*
Y11651D01*
X152330D01*
Y11665D01*
Y11679D01*
X152344D01*
Y11693D01*
X152358D01*
Y11707D01*
Y11720D01*
X152372D01*
Y11734D01*
Y11748D01*
X152385D01*
Y11762D01*
X152399D01*
Y11776D01*
Y11789D01*
X152413D01*
Y11803D01*
Y11817D01*
X152427D01*
Y11831D01*
X152441D01*
Y11845D01*
Y11859D01*
X152455D01*
Y11873D01*
Y11886D01*
X152468D01*
Y11900D01*
X152482D01*
Y11914D01*
Y11928D01*
X152496D01*
Y11942D01*
X152510D01*
Y11955D01*
Y11969D01*
X152524D01*
Y11983D01*
Y11997D01*
X152538D01*
Y12011D01*
X152551D01*
Y12025D01*
Y12038D01*
X152565D01*
Y12052D01*
Y12066D01*
X152579D01*
Y12080D01*
X152593D01*
Y12094D01*
Y12108D01*
X152607D01*
Y12122D01*
X152620D01*
Y12135D01*
Y12149D01*
X152634D01*
Y12163D01*
Y12177D01*
X152648D01*
Y12191D01*
X152662D01*
Y12204D01*
Y12218D01*
X152676D01*
Y12232D01*
Y12246D01*
X152690D01*
Y12260D01*
X152703D01*
Y12274D01*
Y12287D01*
X152717D01*
Y12301D01*
X152731D01*
Y12315D01*
Y12329D01*
X152745D01*
Y12343D01*
Y12357D01*
X152759D01*
Y12370D01*
X152773D01*
Y12384D01*
Y12398D01*
X152787D01*
Y12412D01*
Y12426D01*
X152800D01*
Y12440D01*
X152814D01*
Y12453D01*
Y12467D01*
X152828D01*
Y12481D01*
Y12495D01*
X152842D01*
Y12509D01*
X152856D01*
Y12522D01*
Y12536D01*
X152869D01*
Y12550D01*
X152883D01*
Y12564D01*
Y12578D01*
X152897D01*
Y12592D01*
Y12606D01*
X152911D01*
Y12619D01*
X152925D01*
Y12633D01*
Y12647D01*
X152939D01*
Y12661D01*
Y12675D01*
X152953D01*
Y12688D01*
X152966D01*
Y12702D01*
Y12716D01*
X152980D01*
Y12730D01*
X152994D01*
Y12744D01*
Y12758D01*
X153008D01*
Y12772D01*
Y12785D01*
X153022D01*
Y12799D01*
X153035D01*
Y12813D01*
Y12827D01*
X153049D01*
Y12841D01*
Y12855D01*
X153063D01*
Y12868D01*
X153077D01*
Y12882D01*
Y12896D01*
X153091D01*
Y12910D01*
Y12924D01*
X153105D01*
Y12937D01*
X153118D01*
Y12951D01*
Y12965D01*
X153132D01*
Y12979D01*
X153146D01*
Y12993D01*
Y13007D01*
X153160D01*
Y13020D01*
Y13034D01*
X153174D01*
Y13048D01*
X154253D01*
Y13034D01*
D02*
G37*
G36*
X133175Y8512D02*
X133867D01*
Y8498D01*
X134420D01*
Y8484D01*
X134918D01*
Y8470D01*
X135416D01*
Y8456D01*
X135872D01*
Y8443D01*
X136246D01*
Y8429D01*
X136550D01*
Y8415D01*
X136812D01*
Y8401D01*
X137034D01*
Y8387D01*
X137241D01*
Y8373D01*
X137435D01*
Y8360D01*
X137601D01*
Y8346D01*
X137767D01*
Y8332D01*
X137933D01*
Y8318D01*
X138085D01*
Y8304D01*
X138223D01*
Y8291D01*
X138375D01*
Y8277D01*
X138500D01*
Y8263D01*
X138638D01*
Y8249D01*
X138763D01*
Y8235D01*
X138887D01*
Y8221D01*
X139012D01*
Y8207D01*
X139136D01*
Y8194D01*
X139260D01*
Y8180D01*
X139371D01*
Y8166D01*
X139482D01*
Y8152D01*
X139606D01*
Y8138D01*
X139717D01*
Y8124D01*
X139828D01*
Y8111D01*
X139938D01*
Y8097D01*
X140035D01*
Y8083D01*
X140146D01*
Y8069D01*
X140256D01*
Y8055D01*
X140353D01*
Y8042D01*
X140464D01*
Y8028D01*
X140560D01*
Y8014D01*
X140657D01*
Y8000D01*
X140754D01*
Y7986D01*
X140768D01*
Y7972D01*
Y7959D01*
Y7945D01*
X140699D01*
Y7959D01*
X140547D01*
Y7972D01*
X140395D01*
Y7986D01*
X140242D01*
Y8000D01*
X140090D01*
Y8014D01*
X139924D01*
Y8028D01*
X139772D01*
Y8042D01*
X139592D01*
Y8055D01*
X139426D01*
Y8069D01*
X139247D01*
Y8083D01*
X139053D01*
Y8097D01*
X138859D01*
Y8111D01*
X138652D01*
Y8124D01*
X138431D01*
Y8138D01*
X138209D01*
Y8152D01*
X137947D01*
Y8166D01*
X137670D01*
Y8180D01*
X137352D01*
Y8194D01*
X136992D01*
Y8207D01*
X136550D01*
Y8221D01*
X136010D01*
Y8235D01*
X135402D01*
Y8249D01*
X134752D01*
Y8263D01*
X133977D01*
Y8277D01*
X131723D01*
Y8263D01*
X131156D01*
Y8249D01*
X130755D01*
Y8235D01*
X130437D01*
Y8221D01*
X130174D01*
Y8207D01*
X129925D01*
Y8194D01*
X129718D01*
Y8180D01*
X129510D01*
Y8166D01*
X129330D01*
Y8152D01*
X129164D01*
Y8138D01*
X128998D01*
Y8124D01*
X128846D01*
Y8111D01*
X128694D01*
Y8097D01*
X128556D01*
Y8083D01*
X128418D01*
Y8069D01*
X128293D01*
Y8055D01*
X128169D01*
Y8042D01*
X128044D01*
Y8028D01*
X127933D01*
Y8014D01*
X127823D01*
Y8000D01*
X127712D01*
Y7986D01*
X127602D01*
Y7972D01*
X127505D01*
Y7959D01*
X127394D01*
Y7945D01*
X127297D01*
Y7931D01*
X127200D01*
Y7917D01*
X127104D01*
Y7903D01*
X127021D01*
Y7889D01*
X126924D01*
Y7876D01*
X126841D01*
Y7862D01*
X126744D01*
Y7848D01*
X126661D01*
Y7834D01*
X126578D01*
Y7820D01*
X126495D01*
Y7806D01*
X126412D01*
Y7793D01*
X126329D01*
Y7779D01*
X126260D01*
Y7765D01*
X126177D01*
Y7751D01*
X126094D01*
Y7737D01*
X126025D01*
Y7723D01*
X125956D01*
Y7710D01*
X125873D01*
Y7696D01*
X125804D01*
Y7682D01*
X125734D01*
Y7668D01*
X125665D01*
Y7654D01*
X125596D01*
Y7640D01*
X124020D01*
Y7627D01*
X123577D01*
Y7613D01*
X123328D01*
Y7627D01*
Y7640D01*
Y7654D01*
X123356D01*
Y7668D01*
X123425D01*
Y7682D01*
X123480D01*
Y7696D01*
X123535D01*
Y7710D01*
X123591D01*
Y7723D01*
X123646D01*
Y7737D01*
X123715D01*
Y7751D01*
X123770D01*
Y7765D01*
X123826D01*
Y7779D01*
X123895D01*
Y7793D01*
X123950D01*
Y7806D01*
X124020D01*
Y7820D01*
X124089D01*
Y7834D01*
X124144D01*
Y7848D01*
X124213D01*
Y7862D01*
X124282D01*
Y7876D01*
X124351D01*
Y7889D01*
X124407D01*
Y7903D01*
X124476D01*
Y7917D01*
X124545D01*
Y7931D01*
X124628D01*
Y7945D01*
X124697D01*
Y7959D01*
X124766D01*
Y7972D01*
X124836D01*
Y7986D01*
X124918D01*
Y8000D01*
X124988D01*
Y8014D01*
X125071D01*
Y8028D01*
X125154D01*
Y8042D01*
X125223D01*
Y8055D01*
X125306D01*
Y8069D01*
X125389D01*
Y8083D01*
X125486D01*
Y8097D01*
X125568D01*
Y8111D01*
X125652D01*
Y8124D01*
X125748D01*
Y8138D01*
X125831D01*
Y8152D01*
X125928D01*
Y8166D01*
X126025D01*
Y8180D01*
X126122D01*
Y8194D01*
X126218D01*
Y8207D01*
X126329D01*
Y8221D01*
X126440D01*
Y8235D01*
X126537D01*
Y8249D01*
X126647D01*
Y8263D01*
X126772D01*
Y8277D01*
X126882D01*
Y8291D01*
X127007D01*
Y8304D01*
X127145D01*
Y8318D01*
X127270D01*
Y8332D01*
X127408D01*
Y8346D01*
X127560D01*
Y8360D01*
X127698D01*
Y8373D01*
X127864D01*
Y8387D01*
X128030D01*
Y8401D01*
X128210D01*
Y8415D01*
X128404D01*
Y8429D01*
X128597D01*
Y8443D01*
X128819D01*
Y8456D01*
X129068D01*
Y8470D01*
X129344D01*
Y8484D01*
X129662D01*
Y8498D01*
X130050D01*
Y8512D01*
X130575D01*
Y8526D01*
X133175D01*
Y8512D01*
D02*
G37*
G36*
X148790Y13034D02*
X148776D01*
Y13020D01*
Y13007D01*
Y12993D01*
Y12979D01*
X148762D01*
Y12965D01*
Y12951D01*
Y12937D01*
Y12924D01*
X148748D01*
Y12910D01*
Y12896D01*
Y12882D01*
X148734D01*
Y12868D01*
Y12855D01*
Y12841D01*
Y12827D01*
X148720D01*
Y12813D01*
Y12799D01*
Y12785D01*
Y12772D01*
X148707D01*
Y12758D01*
Y12744D01*
Y12730D01*
Y12716D01*
X148693D01*
Y12702D01*
Y12688D01*
Y12675D01*
X148679D01*
Y12661D01*
Y12647D01*
Y12633D01*
Y12619D01*
X148665D01*
Y12606D01*
Y12592D01*
Y12578D01*
Y12564D01*
X148651D01*
Y12550D01*
Y12536D01*
Y12522D01*
Y12509D01*
X148637D01*
Y12495D01*
Y12481D01*
Y12467D01*
X148624D01*
Y12453D01*
Y12440D01*
Y12426D01*
Y12412D01*
X148610D01*
Y12398D01*
Y12384D01*
Y12370D01*
Y12357D01*
X148596D01*
Y12343D01*
Y12329D01*
Y12315D01*
X148582D01*
Y12301D01*
Y12287D01*
Y12274D01*
Y12260D01*
X148568D01*
Y12246D01*
Y12232D01*
Y12218D01*
Y12204D01*
X148554D01*
Y12191D01*
Y12177D01*
Y12163D01*
Y12149D01*
X148541D01*
Y12135D01*
Y12122D01*
Y12108D01*
X148527D01*
Y12094D01*
Y12080D01*
Y12066D01*
Y12052D01*
X148513D01*
Y12038D01*
Y12025D01*
Y12011D01*
Y11997D01*
X148499D01*
Y11983D01*
Y11969D01*
Y11955D01*
X148485D01*
Y11942D01*
Y11928D01*
Y11914D01*
Y11900D01*
X148471D01*
Y11886D01*
Y11873D01*
Y11859D01*
Y11845D01*
X148458D01*
Y11831D01*
Y11817D01*
Y11803D01*
Y11789D01*
X148444D01*
Y11776D01*
Y11762D01*
Y11748D01*
X148430D01*
Y11734D01*
Y11720D01*
Y11707D01*
Y11693D01*
X148416D01*
Y11679D01*
Y11665D01*
Y11651D01*
Y11637D01*
X148402D01*
Y11624D01*
Y11610D01*
Y11596D01*
X148389D01*
Y11582D01*
Y11568D01*
Y11554D01*
Y11541D01*
X148375D01*
Y11527D01*
Y11513D01*
Y11499D01*
Y11485D01*
X148361D01*
Y11472D01*
Y11458D01*
Y11444D01*
Y11430D01*
X148347D01*
Y11416D01*
Y11402D01*
Y11389D01*
X148333D01*
Y11375D01*
Y11361D01*
Y11347D01*
Y11333D01*
X148319D01*
Y11319D01*
Y11305D01*
Y11292D01*
Y11278D01*
X148305D01*
Y11264D01*
Y11250D01*
Y11236D01*
X148292D01*
Y11223D01*
Y11209D01*
Y11195D01*
Y11181D01*
X148278D01*
Y11167D01*
Y11153D01*
Y11140D01*
Y11126D01*
X148264D01*
Y11112D01*
Y11098D01*
Y11084D01*
Y11070D01*
X148250D01*
Y11056D01*
Y11043D01*
Y11029D01*
X148236D01*
Y11015D01*
Y11001D01*
Y10987D01*
Y10973D01*
X148222D01*
Y10960D01*
Y10946D01*
Y10932D01*
Y10918D01*
X148209D01*
Y10904D01*
Y10891D01*
Y10877D01*
X148195D01*
Y10863D01*
Y10849D01*
Y10835D01*
Y10821D01*
X148181D01*
Y10808D01*
Y10794D01*
Y10780D01*
Y10766D01*
X148167D01*
Y10752D01*
Y10738D01*
Y10725D01*
Y10711D01*
X148153D01*
Y10697D01*
Y10683D01*
Y10669D01*
X148140D01*
Y10655D01*
Y10642D01*
Y10628D01*
Y10614D01*
X148126D01*
Y10600D01*
Y10586D01*
Y10572D01*
Y10559D01*
X148112D01*
Y10545D01*
Y10531D01*
Y10517D01*
X148098D01*
Y10503D01*
Y10490D01*
Y10476D01*
Y10462D01*
X148084D01*
Y10448D01*
Y10434D01*
Y10420D01*
Y10407D01*
X148070D01*
Y10393D01*
Y10379D01*
Y10365D01*
Y10351D01*
X148056D01*
Y10337D01*
Y10323D01*
Y10310D01*
X148043D01*
Y10296D01*
Y10282D01*
Y10268D01*
Y10254D01*
X148029D01*
Y10240D01*
Y10227D01*
Y10213D01*
Y10199D01*
X148015D01*
Y10185D01*
Y10171D01*
Y10158D01*
Y10144D01*
X148001D01*
Y10130D01*
Y10116D01*
Y10102D01*
X147987D01*
Y10088D01*
Y10075D01*
Y10061D01*
Y10047D01*
X147974D01*
Y10033D01*
Y10019D01*
Y10005D01*
Y9992D01*
X147960D01*
Y9978D01*
Y9964D01*
Y9950D01*
X147946D01*
Y9936D01*
Y9922D01*
Y9909D01*
Y9895D01*
X147932D01*
Y9881D01*
Y9867D01*
Y9853D01*
Y9839D01*
X147918D01*
Y9826D01*
Y9812D01*
Y9798D01*
Y9784D01*
X147904D01*
Y9770D01*
Y9757D01*
Y9743D01*
X147891D01*
Y9729D01*
Y9715D01*
Y9701D01*
Y9687D01*
X147877D01*
Y9674D01*
Y9660D01*
Y9646D01*
Y9632D01*
X147863D01*
Y9618D01*
Y9604D01*
Y9590D01*
X147849D01*
Y9577D01*
Y9563D01*
Y9549D01*
Y9535D01*
X147835D01*
Y9521D01*
Y9507D01*
Y9494D01*
Y9480D01*
X147821D01*
Y9466D01*
Y9452D01*
Y9438D01*
Y9425D01*
X147808D01*
Y9411D01*
Y9397D01*
Y9383D01*
X147794D01*
Y9369D01*
Y9355D01*
Y9342D01*
Y9328D01*
X147780D01*
Y9314D01*
Y9300D01*
Y9286D01*
Y9272D01*
X147766D01*
Y9259D01*
Y9245D01*
Y9231D01*
X147752D01*
Y9217D01*
Y9203D01*
Y9189D01*
Y9176D01*
X147739D01*
Y9162D01*
Y9148D01*
Y9134D01*
Y9120D01*
X147725D01*
Y9106D01*
Y9093D01*
Y9079D01*
Y9065D01*
X147711D01*
Y9051D01*
Y9037D01*
Y9024D01*
X147697D01*
Y9010D01*
Y8996D01*
Y8982D01*
Y8968D01*
X147683D01*
Y8954D01*
Y8941D01*
Y8927D01*
Y8913D01*
X147669D01*
Y8899D01*
Y8885D01*
Y8871D01*
X147655D01*
Y8857D01*
Y8844D01*
Y8830D01*
Y8816D01*
X147642D01*
Y8802D01*
Y8788D01*
Y8775D01*
Y8761D01*
X147628D01*
Y8747D01*
Y8733D01*
Y8719D01*
Y8705D01*
X147614D01*
Y8692D01*
Y8678D01*
Y8664D01*
X147600D01*
Y8650D01*
Y8636D01*
Y8622D01*
Y8609D01*
X147586D01*
Y8595D01*
Y8581D01*
Y8567D01*
Y8553D01*
X147573D01*
Y8539D01*
Y8526D01*
Y8512D01*
X147559D01*
Y8498D01*
Y8484D01*
Y8470D01*
Y8456D01*
X147545D01*
Y8443D01*
Y8429D01*
Y8415D01*
Y8401D01*
X147531D01*
Y8387D01*
Y8373D01*
Y8360D01*
Y8346D01*
X147517D01*
Y8332D01*
Y8318D01*
Y8304D01*
X147503D01*
Y8291D01*
Y8277D01*
Y8263D01*
Y8249D01*
X147490D01*
Y8235D01*
Y8221D01*
Y8207D01*
Y8194D01*
X147476D01*
Y8180D01*
Y8166D01*
Y8152D01*
Y8138D01*
X147462D01*
Y8124D01*
Y8111D01*
Y8097D01*
X147448D01*
Y8083D01*
Y8069D01*
Y8055D01*
Y8042D01*
X147434D01*
Y8028D01*
Y8014D01*
Y8000D01*
Y7986D01*
X147420D01*
Y7972D01*
Y7959D01*
Y7945D01*
X147406D01*
Y7931D01*
Y7917D01*
Y7903D01*
Y7889D01*
X147393D01*
Y7876D01*
Y7862D01*
Y7848D01*
Y7834D01*
X147379D01*
Y7820D01*
Y7806D01*
Y7793D01*
Y7779D01*
X147365D01*
Y7765D01*
Y7751D01*
Y7737D01*
X147351D01*
Y7723D01*
Y7710D01*
Y7696D01*
Y7682D01*
X147337D01*
Y7668D01*
Y7654D01*
Y7640D01*
Y7627D01*
X147324D01*
Y7613D01*
Y7599D01*
Y7585D01*
X147310D01*
Y7571D01*
Y7558D01*
Y7544D01*
Y7530D01*
X147296D01*
Y7516D01*
Y7502D01*
Y7488D01*
Y7474D01*
X147282D01*
Y7461D01*
Y7447D01*
Y7433D01*
Y7419D01*
X147268D01*
Y7405D01*
Y7391D01*
Y7378D01*
X147254D01*
Y7364D01*
Y7350D01*
Y7336D01*
Y7322D01*
X147241D01*
Y7309D01*
Y7295D01*
Y7281D01*
Y7267D01*
X147227D01*
Y7253D01*
Y7239D01*
Y7226D01*
X147213D01*
Y7212D01*
X146231D01*
Y7226D01*
Y7239D01*
X146245D01*
Y7253D01*
Y7267D01*
Y7281D01*
Y7295D01*
X146259D01*
Y7309D01*
Y7322D01*
Y7336D01*
X146273D01*
Y7350D01*
Y7364D01*
Y7378D01*
Y7391D01*
X146286D01*
Y7405D01*
Y7419D01*
Y7433D01*
Y7447D01*
X146300D01*
Y7461D01*
Y7474D01*
Y7488D01*
X146314D01*
Y7502D01*
Y7516D01*
Y7530D01*
Y7544D01*
X146328D01*
Y7558D01*
Y7571D01*
Y7585D01*
Y7599D01*
X146342D01*
Y7613D01*
Y7627D01*
Y7640D01*
Y7654D01*
X146355D01*
Y7668D01*
Y7682D01*
Y7696D01*
X146369D01*
Y7710D01*
Y7723D01*
Y7737D01*
Y7751D01*
X146383D01*
Y7765D01*
Y7779D01*
Y7793D01*
Y7806D01*
X146397D01*
Y7820D01*
Y7834D01*
Y7848D01*
X146411D01*
Y7862D01*
Y7876D01*
Y7889D01*
Y7903D01*
X146425D01*
Y7917D01*
Y7931D01*
Y7945D01*
Y7959D01*
X146438D01*
Y7972D01*
Y7986D01*
Y8000D01*
Y8014D01*
X146452D01*
Y8028D01*
Y8042D01*
Y8055D01*
X146466D01*
Y8069D01*
Y8083D01*
Y8097D01*
Y8111D01*
X146480D01*
Y8124D01*
Y8138D01*
Y8152D01*
Y8166D01*
X146494D01*
Y8180D01*
Y8194D01*
Y8207D01*
X146508D01*
Y8221D01*
Y8235D01*
Y8249D01*
Y8263D01*
X146521D01*
Y8277D01*
Y8291D01*
Y8304D01*
Y8318D01*
X146535D01*
Y8332D01*
Y8346D01*
Y8360D01*
Y8373D01*
X146549D01*
Y8387D01*
Y8401D01*
Y8415D01*
X146563D01*
Y8429D01*
Y8443D01*
Y8456D01*
Y8470D01*
X146577D01*
Y8484D01*
Y8498D01*
Y8512D01*
Y8526D01*
X146590D01*
Y8539D01*
Y8553D01*
Y8567D01*
X146604D01*
Y8581D01*
Y8595D01*
Y8609D01*
Y8622D01*
X146618D01*
Y8636D01*
Y8650D01*
Y8664D01*
Y8678D01*
X146632D01*
Y8692D01*
Y8705D01*
Y8719D01*
Y8733D01*
X146646D01*
Y8747D01*
Y8761D01*
Y8775D01*
X146660D01*
Y8788D01*
Y8802D01*
Y8816D01*
Y8830D01*
X146674D01*
Y8844D01*
Y8857D01*
Y8871D01*
Y8885D01*
X146687D01*
Y8899D01*
Y8913D01*
Y8927D01*
Y8941D01*
X146701D01*
Y8954D01*
Y8968D01*
Y8982D01*
X146715D01*
Y8996D01*
Y9010D01*
Y9024D01*
Y9037D01*
X146729D01*
Y9051D01*
Y9065D01*
Y9079D01*
Y9093D01*
X146743D01*
Y9106D01*
Y9120D01*
Y9134D01*
X146756D01*
Y9148D01*
Y9162D01*
Y9176D01*
Y9189D01*
X146770D01*
Y9203D01*
Y9217D01*
Y9231D01*
Y9245D01*
X146784D01*
Y9259D01*
Y9272D01*
Y9286D01*
Y9300D01*
X146798D01*
Y9314D01*
Y9328D01*
Y9342D01*
X146812D01*
Y9355D01*
Y9369D01*
Y9383D01*
Y9397D01*
X146826D01*
Y9411D01*
Y9425D01*
Y9438D01*
Y9452D01*
X146839D01*
Y9466D01*
Y9480D01*
Y9494D01*
X146853D01*
Y9507D01*
Y9521D01*
Y9535D01*
Y9549D01*
X146867D01*
Y9563D01*
Y9577D01*
Y9590D01*
Y9604D01*
X146881D01*
Y9618D01*
Y9632D01*
Y9646D01*
Y9660D01*
X146895D01*
Y9674D01*
Y9687D01*
Y9701D01*
X146909D01*
Y9715D01*
Y9729D01*
Y9743D01*
Y9757D01*
X146923D01*
Y9770D01*
Y9784D01*
Y9798D01*
Y9812D01*
X146936D01*
Y9826D01*
Y9839D01*
Y9853D01*
X146950D01*
Y9867D01*
Y9881D01*
Y9895D01*
Y9909D01*
X146964D01*
Y9922D01*
Y9936D01*
Y9950D01*
Y9964D01*
X146978D01*
Y9978D01*
Y9992D01*
Y10005D01*
Y10019D01*
X146992D01*
Y10033D01*
Y10047D01*
Y10061D01*
X147005D01*
Y10075D01*
Y10088D01*
Y10102D01*
Y10116D01*
X147019D01*
Y10130D01*
Y10144D01*
Y10158D01*
Y10171D01*
X147033D01*
Y10185D01*
Y10199D01*
Y10213D01*
X147047D01*
Y10227D01*
Y10240D01*
Y10254D01*
Y10268D01*
X147061D01*
Y10282D01*
Y10296D01*
Y10310D01*
Y10323D01*
X147075D01*
Y10337D01*
Y10351D01*
Y10365D01*
Y10379D01*
X147088D01*
Y10393D01*
Y10407D01*
Y10420D01*
X147102D01*
Y10434D01*
Y10448D01*
Y10462D01*
Y10476D01*
X147116D01*
Y10490D01*
Y10503D01*
Y10517D01*
Y10531D01*
X147130D01*
Y10545D01*
Y10559D01*
Y10572D01*
X147144D01*
Y10586D01*
Y10600D01*
Y10614D01*
Y10628D01*
X147158D01*
Y10642D01*
Y10655D01*
Y10669D01*
Y10683D01*
X147171D01*
Y10697D01*
Y10711D01*
Y10725D01*
Y10738D01*
X147185D01*
Y10752D01*
Y10766D01*
Y10780D01*
X147199D01*
Y10794D01*
Y10808D01*
Y10821D01*
Y10835D01*
X147213D01*
Y10849D01*
Y10863D01*
Y10877D01*
Y10891D01*
X147227D01*
Y10904D01*
Y10918D01*
Y10932D01*
Y10946D01*
X147241D01*
Y10960D01*
Y10973D01*
Y10987D01*
X147254D01*
Y11001D01*
Y11015D01*
Y11029D01*
Y11043D01*
X147268D01*
Y11056D01*
Y11070D01*
Y11084D01*
Y11098D01*
X147282D01*
Y11112D01*
Y11126D01*
Y11140D01*
X147296D01*
Y11153D01*
Y11167D01*
Y11181D01*
Y11195D01*
X147310D01*
Y11209D01*
Y11223D01*
Y11236D01*
Y11250D01*
X147324D01*
Y11264D01*
Y11278D01*
Y11292D01*
Y11305D01*
X147337D01*
Y11319D01*
Y11333D01*
Y11347D01*
X147351D01*
Y11361D01*
Y11375D01*
Y11389D01*
Y11402D01*
X147365D01*
Y11416D01*
Y11430D01*
Y11444D01*
Y11458D01*
X147379D01*
Y11472D01*
Y11485D01*
Y11499D01*
X147393D01*
Y11513D01*
Y11527D01*
Y11541D01*
Y11554D01*
X147406D01*
Y11568D01*
Y11582D01*
Y11596D01*
Y11610D01*
X147420D01*
Y11624D01*
Y11637D01*
Y11651D01*
Y11665D01*
X147434D01*
Y11679D01*
Y11693D01*
Y11707D01*
X147448D01*
Y11720D01*
Y11734D01*
Y11748D01*
Y11762D01*
X147462D01*
Y11776D01*
Y11789D01*
Y11803D01*
Y11817D01*
X147476D01*
Y11831D01*
Y11845D01*
Y11859D01*
X147490D01*
Y11873D01*
Y11886D01*
Y11900D01*
Y11914D01*
X147503D01*
Y11928D01*
Y11942D01*
Y11955D01*
Y11969D01*
X147517D01*
Y11983D01*
Y11997D01*
Y12011D01*
Y12025D01*
X147531D01*
Y12038D01*
Y12052D01*
Y12066D01*
X147545D01*
Y12080D01*
Y12094D01*
Y12108D01*
Y12122D01*
X147559D01*
Y12135D01*
Y12149D01*
Y12163D01*
Y12177D01*
X147573D01*
Y12191D01*
Y12204D01*
Y12218D01*
X147586D01*
Y12232D01*
Y12246D01*
Y12260D01*
Y12274D01*
X147600D01*
Y12287D01*
Y12301D01*
Y12315D01*
Y12329D01*
X147614D01*
Y12343D01*
Y12357D01*
Y12370D01*
Y12384D01*
X147628D01*
Y12398D01*
Y12412D01*
Y12426D01*
X147642D01*
Y12440D01*
Y12453D01*
Y12467D01*
Y12481D01*
X147655D01*
Y12495D01*
Y12509D01*
Y12522D01*
Y12536D01*
X147669D01*
Y12550D01*
Y12564D01*
Y12578D01*
X147683D01*
Y12592D01*
Y12606D01*
Y12619D01*
Y12633D01*
X147697D01*
Y12647D01*
Y12661D01*
Y12675D01*
Y12688D01*
X147711D01*
Y12702D01*
Y12716D01*
Y12730D01*
Y12744D01*
X147725D01*
Y12758D01*
Y12772D01*
Y12785D01*
X147739D01*
Y12799D01*
Y12813D01*
Y12827D01*
Y12841D01*
X147752D01*
Y12855D01*
Y12868D01*
Y12882D01*
Y12896D01*
X147766D01*
Y12910D01*
Y12924D01*
Y12937D01*
Y12951D01*
X147780D01*
Y12965D01*
Y12979D01*
Y12993D01*
X147794D01*
Y13007D01*
Y13020D01*
Y13034D01*
Y13048D01*
X148790D01*
Y13034D01*
D02*
G37*
G36*
X120617Y12633D02*
X120742D01*
Y12619D01*
X120825D01*
Y12606D01*
X120908D01*
Y12592D01*
X120977D01*
Y12578D01*
X121046D01*
Y12564D01*
X121101D01*
Y12550D01*
X121143D01*
Y12536D01*
X121198D01*
Y12522D01*
X121240D01*
Y12509D01*
X121281D01*
Y12495D01*
X121323D01*
Y12481D01*
X121364D01*
Y12467D01*
X121405D01*
Y12453D01*
X121433D01*
Y12440D01*
X121475D01*
Y12426D01*
X121502D01*
Y12412D01*
X121530D01*
Y12398D01*
X121572D01*
Y12384D01*
X121599D01*
Y12370D01*
X121627D01*
Y12357D01*
X121654D01*
Y12343D01*
X121682D01*
Y12329D01*
X121710D01*
Y12315D01*
X121738D01*
Y12301D01*
X121765D01*
Y12287D01*
X121779D01*
Y12274D01*
X121807D01*
Y12260D01*
X121834D01*
Y12246D01*
X121862D01*
Y12232D01*
X121876D01*
Y12218D01*
X121903D01*
Y12204D01*
X121917D01*
Y12191D01*
X121945D01*
Y12177D01*
X121959D01*
Y12163D01*
X121986D01*
Y12149D01*
X122000D01*
Y12135D01*
X122028D01*
Y12122D01*
X122042D01*
Y12108D01*
X122069D01*
Y12094D01*
X122083D01*
Y12080D01*
X122097D01*
Y12066D01*
X122125D01*
Y12052D01*
X122139D01*
Y12038D01*
X122152D01*
Y12025D01*
X122180D01*
Y12011D01*
X122194D01*
Y11997D01*
X122208D01*
Y11983D01*
X122222D01*
Y11969D01*
X122249D01*
Y11955D01*
X122263D01*
Y11942D01*
X122277D01*
Y11928D01*
X122291D01*
Y11914D01*
X122304D01*
Y11900D01*
X122318D01*
Y11886D01*
X122332D01*
Y11873D01*
X122346D01*
Y11859D01*
X122374D01*
Y11845D01*
X122388D01*
Y11831D01*
X122401D01*
Y11817D01*
X122415D01*
Y11803D01*
X122429D01*
Y11789D01*
X122443D01*
Y11776D01*
X122457D01*
Y11762D01*
X122470D01*
Y11748D01*
X122484D01*
Y11734D01*
Y11720D01*
X122498D01*
Y11707D01*
X122512D01*
Y11693D01*
X122526D01*
Y11679D01*
X122540D01*
Y11665D01*
X122554D01*
Y11651D01*
X122567D01*
Y11637D01*
X122581D01*
Y11624D01*
X122595D01*
Y11610D01*
Y11596D01*
X122609D01*
Y11582D01*
X122623D01*
Y11568D01*
X122636D01*
Y11554D01*
X122650D01*
Y11541D01*
Y11527D01*
X122664D01*
Y11513D01*
X122678D01*
Y11499D01*
X122692D01*
Y11485D01*
X122706D01*
Y11472D01*
Y11458D01*
X122719D01*
Y11444D01*
X122733D01*
Y11430D01*
Y11416D01*
X122747D01*
Y11402D01*
X122761D01*
Y11389D01*
Y11375D01*
X122775D01*
Y11361D01*
X122789D01*
Y11347D01*
Y11333D01*
X122802D01*
Y11319D01*
X122816D01*
Y11305D01*
Y11292D01*
X122830D01*
Y11278D01*
X122844D01*
Y11264D01*
Y11250D01*
X122858D01*
Y11236D01*
X122872D01*
Y11223D01*
Y11209D01*
X122885D01*
Y11195D01*
Y11181D01*
X122899D01*
Y11167D01*
Y11153D01*
X122913D01*
Y11140D01*
X122927D01*
Y11126D01*
Y11112D01*
X122941D01*
Y11098D01*
Y11084D01*
X122954D01*
Y11070D01*
Y11056D01*
X122968D01*
Y11043D01*
Y11029D01*
X122982D01*
Y11015D01*
Y11001D01*
X122996D01*
Y10987D01*
Y10973D01*
X123010D01*
Y10960D01*
Y10946D01*
X123024D01*
Y10932D01*
Y10918D01*
Y10904D01*
X123038D01*
Y10891D01*
Y10877D01*
X123051D01*
Y10863D01*
Y10849D01*
X123065D01*
Y10835D01*
Y10821D01*
Y10808D01*
X123079D01*
Y10794D01*
Y10780D01*
X123093D01*
Y10766D01*
Y10752D01*
Y10738D01*
X123107D01*
Y10725D01*
Y10711D01*
Y10697D01*
X123120D01*
Y10683D01*
Y10669D01*
X123134D01*
Y10655D01*
Y10642D01*
Y10628D01*
Y10614D01*
X123148D01*
Y10600D01*
Y10586D01*
Y10572D01*
X123162D01*
Y10559D01*
Y10545D01*
Y10531D01*
X123176D01*
Y10517D01*
Y10503D01*
Y10490D01*
Y10476D01*
X123190D01*
Y10462D01*
Y10448D01*
Y10434D01*
Y10420D01*
X123204D01*
Y10407D01*
Y10393D01*
Y10379D01*
Y10365D01*
X123217D01*
Y10351D01*
Y10337D01*
Y10323D01*
Y10310D01*
Y10296D01*
X123231D01*
Y10282D01*
Y10268D01*
Y10254D01*
Y10240D01*
Y10227D01*
X123245D01*
Y10213D01*
Y10199D01*
Y10185D01*
Y10171D01*
Y10158D01*
Y10144D01*
X123259D01*
Y10130D01*
Y10116D01*
Y10102D01*
Y10088D01*
Y10075D01*
Y10061D01*
Y10047D01*
Y10033D01*
X123273D01*
Y10019D01*
Y10005D01*
Y9992D01*
Y9978D01*
Y9964D01*
Y9950D01*
Y9936D01*
Y9922D01*
Y9909D01*
Y9895D01*
Y9881D01*
Y9867D01*
Y9853D01*
Y9839D01*
X123286D01*
Y9826D01*
Y9812D01*
Y9798D01*
Y9784D01*
Y9770D01*
Y9757D01*
Y9743D01*
Y9729D01*
Y9715D01*
Y9701D01*
Y9687D01*
Y9674D01*
Y9660D01*
Y9646D01*
Y9632D01*
Y9618D01*
Y9604D01*
X123273D01*
Y9590D01*
Y9577D01*
Y9563D01*
Y9549D01*
Y9535D01*
Y9521D01*
Y9507D01*
Y9494D01*
Y9480D01*
Y9466D01*
Y9452D01*
Y9438D01*
Y9425D01*
Y9411D01*
X123259D01*
Y9397D01*
Y9383D01*
Y9369D01*
Y9355D01*
Y9342D01*
Y9328D01*
Y9314D01*
Y9300D01*
Y9286D01*
X123245D01*
Y9272D01*
Y9259D01*
Y9245D01*
Y9231D01*
Y9217D01*
Y9203D01*
X123231D01*
Y9189D01*
Y9176D01*
Y9162D01*
Y9148D01*
Y9134D01*
Y9120D01*
X123217D01*
Y9106D01*
Y9093D01*
Y9079D01*
Y9065D01*
Y9051D01*
X123204D01*
Y9037D01*
Y9024D01*
Y9010D01*
Y8996D01*
X123190D01*
Y8982D01*
Y8968D01*
Y8954D01*
Y8941D01*
Y8927D01*
X123176D01*
Y8913D01*
Y8899D01*
Y8885D01*
X123162D01*
Y8871D01*
Y8857D01*
Y8844D01*
Y8830D01*
X123148D01*
Y8816D01*
Y8802D01*
Y8788D01*
X123134D01*
Y8775D01*
Y8761D01*
Y8747D01*
X123120D01*
Y8733D01*
Y8719D01*
Y8705D01*
X123107D01*
Y8692D01*
Y8678D01*
Y8664D01*
X123093D01*
Y8650D01*
Y8636D01*
Y8622D01*
X123079D01*
Y8609D01*
Y8595D01*
Y8581D01*
X123065D01*
Y8567D01*
Y8553D01*
X123051D01*
Y8539D01*
Y8526D01*
Y8512D01*
X123038D01*
Y8498D01*
Y8484D01*
X123024D01*
Y8470D01*
Y8456D01*
X123010D01*
Y8443D01*
Y8429D01*
Y8415D01*
X122996D01*
Y8401D01*
Y8387D01*
X122982D01*
Y8373D01*
Y8360D01*
X122968D01*
Y8346D01*
Y8332D01*
X122954D01*
Y8318D01*
Y8304D01*
X122941D01*
Y8291D01*
Y8277D01*
X122927D01*
Y8263D01*
X122913D01*
Y8249D01*
Y8235D01*
X122899D01*
Y8221D01*
Y8207D01*
X122885D01*
Y8194D01*
Y8180D01*
X122872D01*
Y8166D01*
X122858D01*
Y8152D01*
Y8138D01*
X122844D01*
Y8124D01*
Y8111D01*
X122830D01*
Y8097D01*
X122816D01*
Y8083D01*
Y8069D01*
X122802D01*
Y8055D01*
X122789D01*
Y8042D01*
Y8028D01*
X122775D01*
Y8014D01*
X122761D01*
Y8000D01*
Y7986D01*
X122747D01*
Y7972D01*
X122733D01*
Y7959D01*
X122719D01*
Y7945D01*
Y7931D01*
X122706D01*
Y7917D01*
X122692D01*
Y7903D01*
X122678D01*
Y7889D01*
Y7876D01*
X122664D01*
Y7862D01*
X122650D01*
Y7848D01*
X122636D01*
Y7834D01*
X122623D01*
Y7820D01*
Y7806D01*
X122609D01*
Y7793D01*
X122595D01*
Y7779D01*
X122581D01*
Y7765D01*
X122567D01*
Y7751D01*
X122554D01*
Y7737D01*
X122540D01*
Y7723D01*
X122526D01*
Y7710D01*
X122512D01*
Y7696D01*
X122498D01*
Y7682D01*
X122484D01*
Y7668D01*
X122470D01*
Y7654D01*
X122457D01*
Y7640D01*
X122443D01*
Y7627D01*
X122429D01*
Y7613D01*
X122415D01*
Y7599D01*
X122401D01*
Y7585D01*
X122388D01*
Y7571D01*
X122374D01*
Y7558D01*
X122360D01*
Y7544D01*
X122346D01*
Y7530D01*
X122332D01*
Y7516D01*
X122304D01*
Y7502D01*
X122291D01*
Y7488D01*
X122277D01*
Y7474D01*
X122263D01*
Y7461D01*
X122235D01*
Y7447D01*
X122222D01*
Y7433D01*
X122208D01*
Y7419D01*
X122180D01*
Y7405D01*
X122166D01*
Y7391D01*
X122152D01*
Y7378D01*
X122125D01*
Y7364D01*
X122111D01*
Y7350D01*
X122083D01*
Y7336D01*
X122069D01*
Y7322D01*
X122042D01*
Y7309D01*
X122028D01*
Y7295D01*
X122000D01*
Y7281D01*
X121973D01*
Y7267D01*
X121959D01*
Y7253D01*
X121931D01*
Y7239D01*
X121903D01*
Y7226D01*
X121876D01*
Y7212D01*
X121848D01*
Y7198D01*
X121820D01*
Y7184D01*
X121793D01*
Y7170D01*
X121765D01*
Y7156D01*
X121738D01*
Y7143D01*
X121710D01*
Y7129D01*
X121668D01*
Y7115D01*
X121641D01*
Y7101D01*
X121613D01*
Y7087D01*
X121544D01*
Y7101D01*
Y7115D01*
X121558D01*
Y7129D01*
X121572D01*
Y7143D01*
X121599D01*
Y7156D01*
X121627D01*
Y7170D01*
X121654D01*
Y7184D01*
X121682D01*
Y7198D01*
X121710D01*
Y7212D01*
X121738D01*
Y7226D01*
X121765D01*
Y7239D01*
X121779D01*
Y7253D01*
X121807D01*
Y7267D01*
X121834D01*
Y7281D01*
X121848D01*
Y7295D01*
X121876D01*
Y7309D01*
X121890D01*
Y7322D01*
X121917D01*
Y7336D01*
X121931D01*
Y7350D01*
X121959D01*
Y7364D01*
X121973D01*
Y7378D01*
X121986D01*
Y7391D01*
X122014D01*
Y7405D01*
X122028D01*
Y7419D01*
X122042D01*
Y7433D01*
X122069D01*
Y7447D01*
X122083D01*
Y7461D01*
X122097D01*
Y7474D01*
X122111D01*
Y7488D01*
X122125D01*
Y7502D01*
X122152D01*
Y7516D01*
X122166D01*
Y7530D01*
X122180D01*
Y7544D01*
X122194D01*
Y7558D01*
X122208D01*
Y7571D01*
X122222D01*
Y7585D01*
X122235D01*
Y7599D01*
X122249D01*
Y7613D01*
X122263D01*
Y7627D01*
X122277D01*
Y7640D01*
X122291D01*
Y7654D01*
X122304D01*
Y7668D01*
X122318D01*
Y7682D01*
X122332D01*
Y7696D01*
X122346D01*
Y7710D01*
X122360D01*
Y7723D01*
X122374D01*
Y7737D01*
X122388D01*
Y7751D01*
X122401D01*
Y7765D01*
Y7779D01*
X122415D01*
Y7793D01*
X122429D01*
Y7806D01*
X122443D01*
Y7820D01*
X122457D01*
Y7834D01*
X122470D01*
Y7848D01*
Y7862D01*
X122484D01*
Y7876D01*
X122498D01*
Y7889D01*
X122512D01*
Y7903D01*
Y7917D01*
X122526D01*
Y7931D01*
X122540D01*
Y7945D01*
X122554D01*
Y7959D01*
Y7972D01*
X122567D01*
Y7986D01*
X122581D01*
Y8000D01*
Y8014D01*
X122595D01*
Y8028D01*
X122609D01*
Y8042D01*
Y8055D01*
X122623D01*
Y8069D01*
X122636D01*
Y8083D01*
Y8097D01*
X122650D01*
Y8111D01*
Y8124D01*
X122664D01*
Y8138D01*
X122678D01*
Y8152D01*
Y8166D01*
X122692D01*
Y8180D01*
Y8194D01*
X122706D01*
Y8207D01*
Y8221D01*
X122719D01*
Y8235D01*
Y8249D01*
X122733D01*
Y8263D01*
X122747D01*
Y8277D01*
Y8291D01*
X122761D01*
Y8304D01*
Y8318D01*
Y8332D01*
X122775D01*
Y8346D01*
Y8360D01*
X122789D01*
Y8373D01*
Y8387D01*
X122802D01*
Y8401D01*
Y8415D01*
X122816D01*
Y8429D01*
Y8443D01*
Y8456D01*
X122830D01*
Y8470D01*
Y8484D01*
X122844D01*
Y8498D01*
Y8512D01*
Y8526D01*
X122858D01*
Y8539D01*
Y8553D01*
X122872D01*
Y8567D01*
Y8581D01*
Y8595D01*
X122885D01*
Y8609D01*
Y8622D01*
Y8636D01*
X122899D01*
Y8650D01*
Y8664D01*
Y8678D01*
X122913D01*
Y8692D01*
Y8705D01*
Y8719D01*
X122927D01*
Y8733D01*
Y8747D01*
Y8761D01*
X122941D01*
Y8775D01*
Y8788D01*
Y8802D01*
Y8816D01*
X122954D01*
Y8830D01*
Y8844D01*
Y8857D01*
Y8871D01*
X122968D01*
Y8885D01*
Y8899D01*
Y8913D01*
Y8927D01*
X122982D01*
Y8941D01*
Y8954D01*
Y8968D01*
Y8982D01*
Y8996D01*
X122996D01*
Y9010D01*
Y9024D01*
Y9037D01*
Y9051D01*
Y9065D01*
Y9079D01*
X123010D01*
Y9093D01*
Y9106D01*
Y9120D01*
Y9134D01*
Y9148D01*
Y9162D01*
X123024D01*
Y9176D01*
Y9189D01*
Y9203D01*
Y9217D01*
Y9231D01*
Y9245D01*
Y9259D01*
Y9272D01*
Y9286D01*
X123038D01*
Y9300D01*
Y9314D01*
Y9328D01*
Y9342D01*
Y9355D01*
Y9369D01*
Y9383D01*
Y9397D01*
Y9411D01*
Y9425D01*
Y9438D01*
Y9452D01*
Y9466D01*
Y9480D01*
Y9494D01*
Y9507D01*
Y9521D01*
Y9535D01*
X123051D01*
Y9549D01*
Y9563D01*
Y9577D01*
Y9590D01*
Y9604D01*
Y9618D01*
Y9632D01*
Y9646D01*
Y9660D01*
X123038D01*
Y9674D01*
Y9687D01*
Y9701D01*
Y9715D01*
Y9729D01*
Y9743D01*
Y9757D01*
Y9770D01*
Y9784D01*
Y9798D01*
Y9812D01*
Y9826D01*
Y9839D01*
Y9853D01*
Y9867D01*
Y9881D01*
Y9895D01*
X123024D01*
Y9909D01*
Y9922D01*
Y9936D01*
Y9950D01*
Y9964D01*
Y9978D01*
Y9992D01*
Y10005D01*
X123010D01*
Y10019D01*
Y10033D01*
Y10047D01*
Y10061D01*
Y10075D01*
Y10088D01*
Y10102D01*
X122996D01*
Y10116D01*
Y10130D01*
Y10144D01*
Y10158D01*
Y10171D01*
X122982D01*
Y10185D01*
Y10199D01*
Y10213D01*
Y10227D01*
X122968D01*
Y10240D01*
Y10254D01*
Y10268D01*
Y10282D01*
Y10296D01*
X122954D01*
Y10310D01*
Y10323D01*
Y10337D01*
X122941D01*
Y10351D01*
Y10365D01*
Y10379D01*
Y10393D01*
X122927D01*
Y10407D01*
Y10420D01*
Y10434D01*
X122913D01*
Y10448D01*
Y10462D01*
Y10476D01*
X122899D01*
Y10490D01*
Y10503D01*
Y10517D01*
X122885D01*
Y10531D01*
Y10545D01*
Y10559D01*
X122872D01*
Y10572D01*
Y10586D01*
X122858D01*
Y10600D01*
Y10614D01*
Y10628D01*
X122844D01*
Y10642D01*
Y10655D01*
X122830D01*
Y10669D01*
Y10683D01*
Y10697D01*
X122816D01*
Y10711D01*
Y10725D01*
X122802D01*
Y10738D01*
Y10752D01*
X122789D01*
Y10766D01*
Y10780D01*
X122775D01*
Y10794D01*
Y10808D01*
X122761D01*
Y10821D01*
Y10835D01*
X122747D01*
Y10849D01*
Y10863D01*
X122733D01*
Y10877D01*
Y10891D01*
X122719D01*
Y10904D01*
Y10918D01*
X122706D01*
Y10932D01*
Y10946D01*
X122692D01*
Y10960D01*
X122678D01*
Y10973D01*
Y10987D01*
X122664D01*
Y11001D01*
Y11015D01*
X122650D01*
Y11029D01*
X122636D01*
Y11043D01*
Y11056D01*
X122623D01*
Y11070D01*
X122609D01*
Y11084D01*
Y11098D01*
X122595D01*
Y11112D01*
Y11126D01*
X122581D01*
Y11140D01*
X122567D01*
Y11153D01*
X122554D01*
Y11167D01*
Y11181D01*
X122540D01*
Y11195D01*
X122526D01*
Y11209D01*
Y11223D01*
X122512D01*
Y11236D01*
X122498D01*
Y11250D01*
X122484D01*
Y11264D01*
Y11278D01*
X122470D01*
Y11292D01*
X122457D01*
Y11305D01*
X122443D01*
Y11319D01*
X122429D01*
Y11333D01*
X122415D01*
Y11347D01*
Y11361D01*
X122401D01*
Y11375D01*
X122388D01*
Y11389D01*
X122374D01*
Y11402D01*
X122360D01*
Y11416D01*
X122346D01*
Y11430D01*
X122332D01*
Y11444D01*
X122318D01*
Y11458D01*
X122304D01*
Y11472D01*
X122291D01*
Y11485D01*
X122277D01*
Y11499D01*
Y11513D01*
X122263D01*
Y11527D01*
X122249D01*
Y11541D01*
X122222D01*
Y11554D01*
X122208D01*
Y11568D01*
X122194D01*
Y11582D01*
X122180D01*
Y11596D01*
X122166D01*
Y11610D01*
X122152D01*
Y11624D01*
X122139D01*
Y11637D01*
X122125D01*
Y11651D01*
X122111D01*
Y11665D01*
X122083D01*
Y11679D01*
X122069D01*
Y11693D01*
X122056D01*
Y11707D01*
X122042D01*
Y11720D01*
X122028D01*
Y11734D01*
X122000D01*
Y11748D01*
X121986D01*
Y11762D01*
X121973D01*
Y11776D01*
X121945D01*
Y11789D01*
X121931D01*
Y11803D01*
X121917D01*
Y11817D01*
X121890D01*
Y11831D01*
X121876D01*
Y11845D01*
X121848D01*
Y11859D01*
X121834D01*
Y11873D01*
X121807D01*
Y11886D01*
X121793D01*
Y11900D01*
X121765D01*
Y11914D01*
X121738D01*
Y11928D01*
X121724D01*
Y11942D01*
X121696D01*
Y11955D01*
X121668D01*
Y11969D01*
X121641D01*
Y11983D01*
X121613D01*
Y11997D01*
X121599D01*
Y12011D01*
X121572D01*
Y12025D01*
X121544D01*
Y12038D01*
X121516D01*
Y12052D01*
X121475D01*
Y12066D01*
X121447D01*
Y12080D01*
X121419D01*
Y12094D01*
X121392D01*
Y12108D01*
X121350D01*
Y12122D01*
X121309D01*
Y12135D01*
X121281D01*
Y12149D01*
X121240D01*
Y12163D01*
X121198D01*
Y12177D01*
X121157D01*
Y12191D01*
X121115D01*
Y12204D01*
X121060D01*
Y12218D01*
X121004D01*
Y12232D01*
X120949D01*
Y12246D01*
X120880D01*
Y12260D01*
X120811D01*
Y12274D01*
X120714D01*
Y12287D01*
X120590D01*
Y12301D01*
X120133D01*
Y12287D01*
X119995D01*
Y12274D01*
X119898D01*
Y12260D01*
X119829D01*
Y12246D01*
X119760D01*
Y12232D01*
X119704D01*
Y12218D01*
X119649D01*
Y12204D01*
X119608D01*
Y12191D01*
X119552D01*
Y12177D01*
X119511D01*
Y12163D01*
X119469D01*
Y12149D01*
X119428D01*
Y12135D01*
X119400D01*
Y12122D01*
X119359D01*
Y12108D01*
X119331D01*
Y12094D01*
X119303D01*
Y12080D01*
X119262D01*
Y12066D01*
X119234D01*
Y12052D01*
X119207D01*
Y12038D01*
X119179D01*
Y12025D01*
X119151D01*
Y12011D01*
X119124D01*
Y11997D01*
X119096D01*
Y11983D01*
X119068D01*
Y11969D01*
X119041D01*
Y11955D01*
X119027D01*
Y11942D01*
X118999D01*
Y11928D01*
X118971D01*
Y11914D01*
X118944D01*
Y11900D01*
X118930D01*
Y11886D01*
X118902D01*
Y11873D01*
X118888D01*
Y11859D01*
X118861D01*
Y11845D01*
X118847D01*
Y11831D01*
X118819D01*
Y11817D01*
X118805D01*
Y11803D01*
X118792D01*
Y11789D01*
X118764D01*
Y11776D01*
X118750D01*
Y11762D01*
X118736D01*
Y11748D01*
X118709D01*
Y11734D01*
X118695D01*
Y11720D01*
X118681D01*
Y11707D01*
X118667D01*
Y11693D01*
X118640D01*
Y11679D01*
X118626D01*
Y11665D01*
X118612D01*
Y11651D01*
X118598D01*
Y11637D01*
X118584D01*
Y11624D01*
X118570D01*
Y11610D01*
X118556D01*
Y11596D01*
X118529D01*
Y11582D01*
X118515D01*
Y11568D01*
X118501D01*
Y11554D01*
X118487D01*
Y11541D01*
X118473D01*
Y11527D01*
X118460D01*
Y11513D01*
X118446D01*
Y11499D01*
X118432D01*
Y11485D01*
X118418D01*
Y11472D01*
X118404D01*
Y11458D01*
Y11444D01*
X118391D01*
Y11430D01*
X118377D01*
Y11416D01*
X118363D01*
Y11402D01*
X118349D01*
Y11389D01*
X118335D01*
Y11375D01*
X118321D01*
Y11361D01*
X118308D01*
Y11347D01*
X118294D01*
Y11333D01*
Y11319D01*
X118280D01*
Y11305D01*
X118266D01*
Y11292D01*
X118252D01*
Y11278D01*
X118238D01*
Y11264D01*
Y11250D01*
X118225D01*
Y11236D01*
X118211D01*
Y11223D01*
X118197D01*
Y11209D01*
Y11195D01*
X118183D01*
Y11181D01*
X118169D01*
Y11167D01*
Y11153D01*
X118155D01*
Y11140D01*
X118142D01*
Y11126D01*
X118128D01*
Y11112D01*
Y11098D01*
X118114D01*
Y11084D01*
X118100D01*
Y11070D01*
Y11056D01*
X118086D01*
Y11043D01*
Y11029D01*
X118072D01*
Y11015D01*
X118059D01*
Y11001D01*
Y10987D01*
X118045D01*
Y10973D01*
Y10960D01*
X118031D01*
Y10946D01*
X118017D01*
Y10932D01*
Y10918D01*
X118003D01*
Y10904D01*
Y10891D01*
X117990D01*
Y10877D01*
Y10863D01*
X117976D01*
Y10849D01*
Y10835D01*
X117962D01*
Y10821D01*
Y10808D01*
X117948D01*
Y10794D01*
Y10780D01*
X117934D01*
Y10766D01*
Y10752D01*
X117920D01*
Y10738D01*
Y10725D01*
X117906D01*
Y10711D01*
Y10697D01*
X117893D01*
Y10683D01*
Y10669D01*
Y10655D01*
X117879D01*
Y10642D01*
Y10628D01*
X117865D01*
Y10614D01*
Y10600D01*
Y10586D01*
X117851D01*
Y10572D01*
Y10559D01*
X117837D01*
Y10545D01*
Y10531D01*
Y10517D01*
X117824D01*
Y10503D01*
Y10490D01*
Y10476D01*
X117810D01*
Y10462D01*
Y10448D01*
Y10434D01*
X117796D01*
Y10420D01*
Y10407D01*
Y10393D01*
X117782D01*
Y10379D01*
Y10365D01*
Y10351D01*
Y10337D01*
X117768D01*
Y10323D01*
Y10310D01*
Y10296D01*
X117754D01*
Y10282D01*
Y10268D01*
Y10254D01*
Y10240D01*
X117740D01*
Y10227D01*
Y10213D01*
Y10199D01*
Y10185D01*
Y10171D01*
X117727D01*
Y10158D01*
Y10144D01*
Y10130D01*
Y10116D01*
Y10102D01*
X117713D01*
Y10088D01*
Y10075D01*
Y10061D01*
Y10047D01*
Y10033D01*
Y10019D01*
X117699D01*
Y10005D01*
Y9992D01*
Y9978D01*
Y9964D01*
Y9950D01*
Y9936D01*
Y9922D01*
X117685D01*
Y9909D01*
Y9895D01*
Y9881D01*
Y9867D01*
Y9853D01*
Y9839D01*
Y9826D01*
Y9812D01*
Y9798D01*
Y9784D01*
Y9770D01*
X117671D01*
Y9757D01*
Y9743D01*
Y9729D01*
Y9715D01*
Y9701D01*
Y9687D01*
Y9674D01*
Y9660D01*
Y9646D01*
Y9632D01*
Y9618D01*
Y9604D01*
Y9590D01*
Y9577D01*
Y9563D01*
Y9549D01*
Y9535D01*
Y9521D01*
Y9507D01*
Y9494D01*
Y9480D01*
Y9466D01*
Y9452D01*
Y9438D01*
Y9425D01*
Y9411D01*
X117685D01*
Y9397D01*
Y9383D01*
Y9369D01*
Y9355D01*
Y9342D01*
Y9328D01*
Y9314D01*
Y9300D01*
Y9286D01*
Y9272D01*
Y9259D01*
Y9245D01*
X117699D01*
Y9231D01*
Y9217D01*
Y9203D01*
Y9189D01*
Y9176D01*
Y9162D01*
Y9148D01*
X117713D01*
Y9134D01*
Y9120D01*
Y9106D01*
Y9093D01*
Y9079D01*
Y9065D01*
Y9051D01*
X117727D01*
Y9037D01*
Y9024D01*
Y9010D01*
Y8996D01*
Y8982D01*
X117740D01*
Y8968D01*
Y8954D01*
Y8941D01*
Y8927D01*
X117754D01*
Y8913D01*
Y8899D01*
Y8885D01*
Y8871D01*
Y8857D01*
X117768D01*
Y8844D01*
Y8830D01*
Y8816D01*
X117782D01*
Y8802D01*
Y8788D01*
Y8775D01*
Y8761D01*
X117796D01*
Y8747D01*
Y8733D01*
Y8719D01*
X117810D01*
Y8705D01*
Y8692D01*
Y8678D01*
X117824D01*
Y8664D01*
Y8650D01*
Y8636D01*
X117837D01*
Y8622D01*
Y8609D01*
Y8595D01*
X117851D01*
Y8581D01*
Y8567D01*
Y8553D01*
X117865D01*
Y8539D01*
Y8526D01*
Y8512D01*
X117879D01*
Y8498D01*
Y8484D01*
X117893D01*
Y8470D01*
Y8456D01*
Y8443D01*
X117906D01*
Y8429D01*
Y8415D01*
X117920D01*
Y8401D01*
Y8387D01*
X117934D01*
Y8373D01*
Y8360D01*
Y8346D01*
X117948D01*
Y8332D01*
Y8318D01*
X117962D01*
Y8304D01*
Y8291D01*
X117976D01*
Y8277D01*
Y8263D01*
X117990D01*
Y8249D01*
Y8235D01*
X118003D01*
Y8221D01*
Y8207D01*
X118017D01*
Y8194D01*
X118031D01*
Y8180D01*
Y8166D01*
X118045D01*
Y8152D01*
Y8138D01*
X118059D01*
Y8124D01*
Y8111D01*
X118072D01*
Y8097D01*
X118086D01*
Y8083D01*
Y8069D01*
X118100D01*
Y8055D01*
Y8042D01*
X118114D01*
Y8028D01*
X118128D01*
Y8014D01*
Y8000D01*
X118142D01*
Y7986D01*
X118155D01*
Y7972D01*
Y7959D01*
X118169D01*
Y7945D01*
X118183D01*
Y7931D01*
Y7917D01*
X118197D01*
Y7903D01*
X118211D01*
Y7889D01*
Y7876D01*
X118225D01*
Y7862D01*
X118238D01*
Y7848D01*
X118252D01*
Y7834D01*
X118266D01*
Y7820D01*
Y7806D01*
X118280D01*
Y7793D01*
X118294D01*
Y7779D01*
X118308D01*
Y7765D01*
Y7751D01*
X118321D01*
Y7737D01*
X118335D01*
Y7723D01*
X118349D01*
Y7710D01*
X118363D01*
Y7696D01*
X118377D01*
Y7682D01*
X118391D01*
Y7668D01*
X118404D01*
Y7654D01*
Y7640D01*
X118418D01*
Y7627D01*
X118432D01*
Y7613D01*
X118446D01*
Y7599D01*
X118460D01*
Y7585D01*
X118473D01*
Y7571D01*
X118487D01*
Y7558D01*
X118501D01*
Y7544D01*
X118515D01*
Y7530D01*
X118529D01*
Y7516D01*
X118543D01*
Y7502D01*
X118570D01*
Y7488D01*
X118584D01*
Y7474D01*
X118598D01*
Y7461D01*
X118612D01*
Y7447D01*
X118626D01*
Y7433D01*
X118640D01*
Y7419D01*
X118653D01*
Y7405D01*
X118681D01*
Y7391D01*
X118695D01*
Y7378D01*
X118709D01*
Y7364D01*
X118722D01*
Y7350D01*
X118750D01*
Y7336D01*
X118764D01*
Y7322D01*
X118778D01*
Y7309D01*
X118805D01*
Y7295D01*
X118819D01*
Y7281D01*
X118847D01*
Y7267D01*
X118861D01*
Y7253D01*
X118888D01*
Y7239D01*
X118902D01*
Y7226D01*
X118930D01*
Y7212D01*
X118944D01*
Y7198D01*
X118971D01*
Y7184D01*
Y7170D01*
Y7156D01*
X118916D01*
Y7170D01*
X118888D01*
Y7184D01*
X118861D01*
Y7198D01*
X118833D01*
Y7212D01*
X118819D01*
Y7226D01*
X118792D01*
Y7239D01*
X118764D01*
Y7253D01*
X118750D01*
Y7267D01*
X118722D01*
Y7281D01*
X118695D01*
Y7295D01*
X118681D01*
Y7309D01*
X118653D01*
Y7322D01*
X118640D01*
Y7336D01*
X118612D01*
Y7350D01*
X118598D01*
Y7364D01*
X118584D01*
Y7378D01*
X118556D01*
Y7391D01*
X118543D01*
Y7405D01*
X118515D01*
Y7419D01*
X118501D01*
Y7433D01*
X118487D01*
Y7447D01*
X118473D01*
Y7461D01*
X118446D01*
Y7474D01*
X118432D01*
Y7488D01*
X118418D01*
Y7502D01*
X118404D01*
Y7516D01*
X118391D01*
Y7530D01*
X118377D01*
Y7544D01*
X118349D01*
Y7558D01*
X118335D01*
Y7571D01*
X118321D01*
Y7585D01*
X118308D01*
Y7599D01*
X118294D01*
Y7613D01*
X118280D01*
Y7627D01*
X118266D01*
Y7640D01*
X118252D01*
Y7654D01*
X118238D01*
Y7668D01*
X118225D01*
Y7682D01*
X118211D01*
Y7696D01*
X118197D01*
Y7710D01*
X118183D01*
Y7723D01*
X118169D01*
Y7737D01*
Y7751D01*
X118155D01*
Y7765D01*
X118142D01*
Y7779D01*
X118128D01*
Y7793D01*
X118114D01*
Y7806D01*
X118100D01*
Y7820D01*
X118086D01*
Y7834D01*
Y7848D01*
X118072D01*
Y7862D01*
X118059D01*
Y7876D01*
X118045D01*
Y7889D01*
X118031D01*
Y7903D01*
Y7917D01*
X118017D01*
Y7931D01*
X118003D01*
Y7945D01*
X117990D01*
Y7959D01*
Y7972D01*
X117976D01*
Y7986D01*
X117962D01*
Y8000D01*
Y8014D01*
X117948D01*
Y8028D01*
X117934D01*
Y8042D01*
Y8055D01*
X117920D01*
Y8069D01*
X117906D01*
Y8083D01*
Y8097D01*
X117893D01*
Y8111D01*
X117879D01*
Y8124D01*
Y8138D01*
X117865D01*
Y8152D01*
X117851D01*
Y8166D01*
Y8180D01*
X117837D01*
Y8194D01*
Y8207D01*
X117824D01*
Y8221D01*
Y8235D01*
X117810D01*
Y8249D01*
X117796D01*
Y8263D01*
Y8277D01*
X117782D01*
Y8291D01*
Y8304D01*
X117768D01*
Y8318D01*
Y8332D01*
X117754D01*
Y8346D01*
Y8360D01*
X117740D01*
Y8373D01*
Y8387D01*
X117727D01*
Y8401D01*
Y8415D01*
X117713D01*
Y8429D01*
Y8443D01*
X117699D01*
Y8456D01*
Y8470D01*
Y8484D01*
X117685D01*
Y8498D01*
Y8512D01*
X117671D01*
Y8526D01*
Y8539D01*
X117657D01*
Y8553D01*
Y8567D01*
Y8581D01*
X117644D01*
Y8595D01*
Y8609D01*
X117630D01*
Y8622D01*
Y8636D01*
Y8650D01*
X117616D01*
Y8664D01*
Y8678D01*
Y8692D01*
X117602D01*
Y8705D01*
Y8719D01*
Y8733D01*
X117588D01*
Y8747D01*
Y8761D01*
Y8775D01*
X117575D01*
Y8788D01*
Y8802D01*
Y8816D01*
X117561D01*
Y8830D01*
Y8844D01*
Y8857D01*
X117547D01*
Y8871D01*
Y8885D01*
Y8899D01*
Y8913D01*
X117533D01*
Y8927D01*
Y8941D01*
Y8954D01*
X117519D01*
Y8968D01*
Y8982D01*
Y8996D01*
Y9010D01*
Y9024D01*
X117505D01*
Y9037D01*
Y9051D01*
Y9065D01*
Y9079D01*
X117492D01*
Y9093D01*
Y9106D01*
Y9120D01*
Y9134D01*
Y9148D01*
X117478D01*
Y9162D01*
Y9176D01*
Y9189D01*
Y9203D01*
Y9217D01*
Y9231D01*
X117464D01*
Y9245D01*
Y9259D01*
Y9272D01*
Y9286D01*
Y9300D01*
Y9314D01*
Y9328D01*
X117450D01*
Y9342D01*
Y9355D01*
Y9369D01*
Y9383D01*
Y9397D01*
Y9411D01*
Y9425D01*
Y9438D01*
Y9452D01*
X117436D01*
Y9466D01*
Y9480D01*
Y9494D01*
Y9507D01*
Y9521D01*
Y9535D01*
Y9549D01*
Y9563D01*
Y9577D01*
Y9590D01*
Y9604D01*
Y9618D01*
Y9632D01*
Y9646D01*
Y9660D01*
Y9674D01*
Y9687D01*
Y9701D01*
Y9715D01*
Y9729D01*
Y9743D01*
Y9757D01*
Y9770D01*
Y9784D01*
Y9798D01*
Y9812D01*
Y9826D01*
Y9839D01*
Y9853D01*
Y9867D01*
Y9881D01*
Y9895D01*
Y9909D01*
Y9922D01*
Y9936D01*
Y9950D01*
Y9964D01*
X117450D01*
Y9978D01*
Y9992D01*
Y10005D01*
Y10019D01*
Y10033D01*
Y10047D01*
Y10061D01*
Y10075D01*
Y10088D01*
X117464D01*
Y10102D01*
Y10116D01*
Y10130D01*
Y10144D01*
Y10158D01*
Y10171D01*
Y10185D01*
X117478D01*
Y10199D01*
Y10213D01*
Y10227D01*
Y10240D01*
Y10254D01*
X117492D01*
Y10268D01*
Y10282D01*
Y10296D01*
Y10310D01*
Y10323D01*
X117505D01*
Y10337D01*
Y10351D01*
Y10365D01*
Y10379D01*
Y10393D01*
X117519D01*
Y10407D01*
Y10420D01*
Y10434D01*
Y10448D01*
X117533D01*
Y10462D01*
Y10476D01*
Y10490D01*
Y10503D01*
X117547D01*
Y10517D01*
Y10531D01*
Y10545D01*
X117561D01*
Y10559D01*
Y10572D01*
Y10586D01*
X117575D01*
Y10600D01*
Y10614D01*
Y10628D01*
Y10642D01*
X117588D01*
Y10655D01*
Y10669D01*
X117602D01*
Y10683D01*
Y10697D01*
Y10711D01*
X117616D01*
Y10725D01*
Y10738D01*
Y10752D01*
X117630D01*
Y10766D01*
Y10780D01*
Y10794D01*
X117644D01*
Y10808D01*
Y10821D01*
X117657D01*
Y10835D01*
Y10849D01*
Y10863D01*
X117671D01*
Y10877D01*
Y10891D01*
X117685D01*
Y10904D01*
Y10918D01*
X117699D01*
Y10932D01*
Y10946D01*
X117713D01*
Y10960D01*
Y10973D01*
X117727D01*
Y10987D01*
Y11001D01*
Y11015D01*
X117740D01*
Y11029D01*
Y11043D01*
X117754D01*
Y11056D01*
Y11070D01*
X117768D01*
Y11084D01*
Y11098D01*
X117782D01*
Y11112D01*
X117796D01*
Y11126D01*
Y11140D01*
X117810D01*
Y11153D01*
Y11167D01*
X117824D01*
Y11181D01*
Y11195D01*
X117837D01*
Y11209D01*
Y11223D01*
X117851D01*
Y11236D01*
X117865D01*
Y11250D01*
Y11264D01*
X117879D01*
Y11278D01*
X117893D01*
Y11292D01*
Y11305D01*
X117906D01*
Y11319D01*
Y11333D01*
X117920D01*
Y11347D01*
X117934D01*
Y11361D01*
Y11375D01*
X117948D01*
Y11389D01*
X117962D01*
Y11402D01*
Y11416D01*
X117976D01*
Y11430D01*
X117990D01*
Y11444D01*
X118003D01*
Y11458D01*
Y11472D01*
X118017D01*
Y11485D01*
X118031D01*
Y11499D01*
X118045D01*
Y11513D01*
Y11527D01*
X118059D01*
Y11541D01*
X118072D01*
Y11554D01*
X118086D01*
Y11568D01*
Y11582D01*
X118100D01*
Y11596D01*
X118114D01*
Y11610D01*
X118128D01*
Y11624D01*
X118142D01*
Y11637D01*
X118155D01*
Y11651D01*
Y11665D01*
X118169D01*
Y11679D01*
X118183D01*
Y11693D01*
X118197D01*
Y11707D01*
X118211D01*
Y11720D01*
X118225D01*
Y11734D01*
X118238D01*
Y11748D01*
X118252D01*
Y11762D01*
X118266D01*
Y11776D01*
X118280D01*
Y11789D01*
X118294D01*
Y11803D01*
X118308D01*
Y11817D01*
X118321D01*
Y11831D01*
X118335D01*
Y11845D01*
X118349D01*
Y11859D01*
X118363D01*
Y11873D01*
X118377D01*
Y11886D01*
X118391D01*
Y11900D01*
X118404D01*
Y11914D01*
X118418D01*
Y11928D01*
X118432D01*
Y11942D01*
X118460D01*
Y11955D01*
X118473D01*
Y11969D01*
X118487D01*
Y11983D01*
X118501D01*
Y11997D01*
X118515D01*
Y12011D01*
X118543D01*
Y12025D01*
X118556D01*
Y12038D01*
X118570D01*
Y12052D01*
X118598D01*
Y12066D01*
X118612D01*
Y12080D01*
X118626D01*
Y12094D01*
X118653D01*
Y12108D01*
X118667D01*
Y12122D01*
X118681D01*
Y12135D01*
X118709D01*
Y12149D01*
X118722D01*
Y12163D01*
X118750D01*
Y12177D01*
X118764D01*
Y12191D01*
X118792D01*
Y12204D01*
X118805D01*
Y12218D01*
X118833D01*
Y12232D01*
X118861D01*
Y12246D01*
X118875D01*
Y12260D01*
X118902D01*
Y12274D01*
X118930D01*
Y12287D01*
X118958D01*
Y12301D01*
X118971D01*
Y12315D01*
X118999D01*
Y12329D01*
X119027D01*
Y12343D01*
X119054D01*
Y12357D01*
X119082D01*
Y12370D01*
X119110D01*
Y12384D01*
X119151D01*
Y12398D01*
X119179D01*
Y12412D01*
X119207D01*
Y12426D01*
X119248D01*
Y12440D01*
X119276D01*
Y12453D01*
X119317D01*
Y12467D01*
X119345D01*
Y12481D01*
X119386D01*
Y12495D01*
X119428D01*
Y12509D01*
X119469D01*
Y12522D01*
X119511D01*
Y12536D01*
X119566D01*
Y12550D01*
X119621D01*
Y12564D01*
X119677D01*
Y12578D01*
X119732D01*
Y12592D01*
X119801D01*
Y12606D01*
X119870D01*
Y12619D01*
X119967D01*
Y12633D01*
X120092D01*
Y12647D01*
X120617D01*
Y12633D01*
D02*
G37*
D10*
X212646Y244637D02*
G03*
X212646Y244637I-197J0D01*
G01*
X190110Y149362D02*
G03*
X190110Y149362I-197J0D01*
G01*
X87056Y44244D02*
G03*
X87056Y44244I-197J0D01*
G01*
X126819Y245425D02*
G03*
X126819Y245425I-197J0D01*
G01*
X73670D02*
G03*
X73670Y245425I-197J0D01*
G01*
X31055Y212039D02*
G03*
X31055Y212039I-197J0D01*
G01*
X190503Y189913D02*
G03*
X190503Y189913I-197J0D01*
G01*
D11*
X205217Y189567D02*
G03*
X205217Y189567I-492J0D01*
G01*
Y152508D02*
G03*
X205217Y152508I-492J0D01*
G01*
X124705Y259055D02*
G03*
X124705Y259055I-492J0D01*
G01*
X91634Y57874D02*
G03*
X91634Y57874I-492J0D01*
G01*
X210138Y258268D02*
G03*
X210138Y258268I-492J0D01*
G01*
X71555Y259055D02*
G03*
X71555Y259055I-492J0D01*
G01*
X44980Y205883D02*
G03*
X44980Y205883I-492J0D01*
G01*
D12*
X214764Y172244D02*
X226969D01*
X214764Y191535D02*
X226969D01*
X245091Y232382D02*
Y242082D01*
X214764Y135186D02*
X226969D01*
X214764Y154477D02*
X226969D01*
X141535Y269094D02*
Y281299D01*
X122244Y269094D02*
Y281299D01*
X108465Y67913D02*
Y80118D01*
X89173Y67913D02*
Y80118D01*
X36756Y172190D02*
Y181890D01*
X226969Y268307D02*
Y280512D01*
X207677Y268307D02*
Y280512D01*
X152756Y243197D02*
X162456D01*
X100000Y243449D02*
X109700D01*
X117859Y40157D02*
X127559D01*
X162741Y170724D02*
X172441D01*
X69095Y269094D02*
Y281299D01*
X88386Y269094D02*
Y281299D01*
X54528Y207851D02*
X66732D01*
X54528Y188560D02*
X66732D01*
X162347Y130173D02*
X172047D01*
D13*
X196457Y28346D02*
Y33465D01*
X177559Y28346D02*
Y33465D01*
X196457Y84646D02*
Y89764D01*
X177559Y84646D02*
Y89764D01*
X181496Y24803D02*
X192520D01*
X177559Y28346D02*
X181496D01*
X192520Y24803D02*
Y28346D01*
X196457D01*
X181496Y24803D02*
Y28346D01*
X192520Y89764D02*
Y93307D01*
X177559Y89764D02*
X181496D01*
Y93307D01*
X192520Y89764D02*
X196457D01*
X181496Y93307D02*
X192520D01*
X127165Y182677D02*
Y212598D01*
X94095Y182677D02*
X127165D01*
X94095D02*
Y212598D01*
X127165D01*
X164917Y116110D02*
X301181D01*
X164917Y1969D02*
Y116110D01*
Y1969D02*
X301181D01*
Y116110D01*
X109488Y139606D02*
X119803D01*
X78543D02*
X88858D01*
X101019Y109350D02*
X102876D01*
X95445D02*
X97303D01*
X102876D02*
X106592D01*
X91730D02*
X95445D01*
X106592D02*
X119862D01*
X78602D02*
X91730D01*
X97303D02*
X101019D01*
X78602D02*
Y139606D01*
X119862Y109350D02*
Y139606D01*
X88858D02*
X109488D01*
X89961Y312992D02*
X146850D01*
Y342913D01*
X89961D02*
X146850D01*
X89961Y312992D02*
Y342913D01*
X259449Y197244D02*
X289370D01*
Y128740D02*
Y197244D01*
X259449Y128740D02*
X289370D01*
X259449D02*
Y197244D01*
X198465Y340787D02*
X208780D01*
X167520D02*
X177835D01*
X189995Y310531D02*
X191853D01*
X184422D02*
X186279D01*
X191853D02*
X195568D01*
X180706D02*
X184422D01*
X195568D02*
X208839D01*
X167579D02*
X180706D01*
X186279D02*
X189995D01*
X167579D02*
Y340787D01*
X208839Y310531D02*
Y340787D01*
X177835D02*
X198465D01*
X255945Y340394D02*
X266260D01*
X225000D02*
X235315D01*
X247475Y310138D02*
X249333D01*
X241902D02*
X243760D01*
X249333D02*
X253049D01*
X238187D02*
X241902D01*
X253049D02*
X266319D01*
X225059D02*
X238187D01*
X243760D02*
X247475D01*
X225059D02*
Y340394D01*
X266319Y310138D02*
Y340394D01*
X235315D02*
X255945D01*
X15354Y47638D02*
X45276D01*
X15354D02*
Y151575D01*
X45276D01*
Y47638D02*
Y151575D01*
X30217Y11811D02*
X41634D01*
Y6299D02*
Y11811D01*
X30217Y6299D02*
X41634D01*
X30217D02*
Y11811D01*
D14*
X54853Y49277D02*
X58438D01*
X74474Y83688D02*
Y87273D01*
X230105Y205250D02*
X233690D01*
X230499Y167455D02*
X234084D01*
X70302Y220802D02*
X73887D01*
X108923Y284830D02*
Y288414D01*
X154857Y284814D02*
Y288398D01*
X193372Y284082D02*
Y287666D01*
X242061Y283594D02*
Y287178D01*
X102101Y284814D02*
Y288398D01*
X54789Y284476D02*
Y288060D01*
X111417Y180709D02*
X110368D01*
X110893D01*
Y177560D01*
X111417Y178085D01*
X107611Y348424D02*
X106561Y347899D01*
X105512Y346850D01*
Y345800D01*
X106037Y345276D01*
X107086D01*
X107611Y345800D01*
Y346325D01*
X107086Y346850D01*
X105512D01*
X129921Y307480D02*
X130971D01*
X130446D01*
Y310629D01*
X129921Y310104D01*
X253937Y145669D02*
Y144620D01*
Y145144D01*
X257086D01*
X256561Y145669D01*
X294356Y181496D02*
X294881Y180971D01*
Y179922D01*
X294356Y179397D01*
X293831D01*
X293307Y179922D01*
X292782Y179397D01*
X292257D01*
X291732Y179922D01*
Y180971D01*
X292257Y181496D01*
X292782D01*
X293307Y180971D01*
X293831Y181496D01*
X294356D01*
X293307Y180971D02*
Y179922D01*
X50787Y134646D02*
Y135695D01*
Y135170D01*
X47639D01*
X48164Y134646D01*
X12992Y61811D02*
Y62861D01*
Y62336D01*
X9843D01*
X10368Y61811D01*
X12992Y66009D02*
X9843D01*
X11418Y64435D01*
Y66534D01*
X177000Y96400D02*
Y99549D01*
X178574D01*
X179099Y99024D01*
Y97974D01*
X178574Y97449D01*
X177000D01*
X180149Y96400D02*
X181198D01*
X180673D01*
Y99549D01*
X180149Y99024D01*
X201575Y120472D02*
Y123621D01*
X203149D01*
X203674Y123096D01*
Y122047D01*
X203149Y121522D01*
X201575D01*
X202624D02*
X203674Y120472D01*
X204723Y123621D02*
X206822D01*
Y123096D01*
X204723Y120997D01*
Y120472D01*
X20079Y192913D02*
Y196062D01*
X21653D01*
X22178Y195537D01*
Y194488D01*
X21653Y193963D01*
X20079D01*
X21128D02*
X22178Y192913D01*
X25326Y196062D02*
X23227D01*
Y194488D01*
X24277Y195012D01*
X24802D01*
X25326Y194488D01*
Y193438D01*
X24802Y192913D01*
X23752D01*
X23227Y193438D01*
X28475Y196062D02*
X26376D01*
Y194488D01*
X27426Y195012D01*
X27950D01*
X28475Y194488D01*
Y193438D01*
X27950Y192913D01*
X26901D01*
X26376Y193438D01*
X224426Y13386D02*
Y16534D01*
X226000D01*
X226525Y16010D01*
Y14960D01*
X226000Y14435D01*
X224426D01*
X225476D02*
X226525Y13386D01*
X229674Y16534D02*
X227575D01*
Y14960D01*
X228624Y15485D01*
X229149D01*
X229674Y14960D01*
Y13911D01*
X229149Y13386D01*
X228099D01*
X227575Y13911D01*
X232298Y13386D02*
Y16534D01*
X230723Y14960D01*
X232822D01*
X19685Y185827D02*
Y188975D01*
X21259D01*
X21784Y188451D01*
Y187401D01*
X21259Y186876D01*
X19685D01*
X20735D02*
X21784Y185827D01*
X24933Y188975D02*
X22834D01*
Y187401D01*
X23883Y187926D01*
X24408D01*
X24933Y187401D01*
Y186352D01*
X24408Y185827D01*
X23358D01*
X22834Y186352D01*
X25982Y188451D02*
X26507Y188975D01*
X27556D01*
X28081Y188451D01*
Y187926D01*
X27556Y187401D01*
X27032D01*
X27556D01*
X28081Y186876D01*
Y186352D01*
X27556Y185827D01*
X26507D01*
X25982Y186352D01*
X103150Y42126D02*
X106298D01*
Y40552D01*
X105773Y40027D01*
X104724D01*
X104199Y40552D01*
Y42126D01*
Y41076D02*
X103150Y40027D01*
X106298Y36878D02*
Y38977D01*
X104724D01*
X105249Y37928D01*
Y37403D01*
X104724Y36878D01*
X103674D01*
X103150Y37403D01*
Y38453D01*
X103674Y38977D01*
X103150Y33730D02*
Y35829D01*
X105249Y33730D01*
X105773D01*
X106298Y34255D01*
Y35304D01*
X105773Y35829D01*
X223228Y57480D02*
Y60629D01*
X224803D01*
X225327Y60104D01*
Y59055D01*
X224803Y58530D01*
X223228D01*
X224278D02*
X225327Y57480D01*
X228476Y60629D02*
X226377D01*
Y59055D01*
X227427Y59579D01*
X227951D01*
X228476Y59055D01*
Y58005D01*
X227951Y57480D01*
X226902D01*
X226377Y58005D01*
X229525Y57480D02*
X230575D01*
X230050D01*
Y60629D01*
X229525Y60104D01*
X111024Y42126D02*
X114172D01*
Y40552D01*
X113647Y40027D01*
X112598D01*
X112073Y40552D01*
Y42126D01*
Y41076D02*
X111024Y40027D01*
X114172Y36878D02*
Y38977D01*
X112598D01*
X113123Y37928D01*
Y37403D01*
X112598Y36878D01*
X111548D01*
X111024Y37403D01*
Y38453D01*
X111548Y38977D01*
X113647Y35829D02*
X114172Y35304D01*
Y34255D01*
X113647Y33730D01*
X111548D01*
X111024Y34255D01*
Y35304D01*
X111548Y35829D01*
X113647D01*
X175900Y178300D02*
Y181449D01*
X177474D01*
X177999Y180924D01*
Y179874D01*
X177474Y179350D01*
X175900D01*
X176950D02*
X177999Y178300D01*
X180623D02*
Y181449D01*
X179049Y179874D01*
X181148D01*
X182197Y178825D02*
X182722Y178300D01*
X183772D01*
X184296Y178825D01*
Y180924D01*
X183772Y181449D01*
X182722D01*
X182197Y180924D01*
Y180399D01*
X182722Y179874D01*
X184296D01*
X225590Y87008D02*
Y90157D01*
X227165D01*
X227690Y89632D01*
Y88582D01*
X227165Y88057D01*
X225590D01*
X226640D02*
X227690Y87008D01*
X230313D02*
Y90157D01*
X228739Y88582D01*
X230838D01*
X231888Y89632D02*
X232413Y90157D01*
X233462D01*
X233987Y89632D01*
Y89107D01*
X233462Y88582D01*
X233987Y88057D01*
Y87533D01*
X233462Y87008D01*
X232413D01*
X231888Y87533D01*
Y88057D01*
X232413Y88582D01*
X231888Y89107D01*
Y89632D01*
X232413Y88582D02*
X233462D01*
X190157Y161417D02*
Y164566D01*
X191732D01*
X192256Y164041D01*
Y162992D01*
X191732Y162467D01*
X190157D01*
X191207D02*
X192256Y161417D01*
X194880D02*
Y164566D01*
X193306Y162992D01*
X195405D01*
X196455Y164566D02*
X198554D01*
Y164041D01*
X196455Y161942D01*
Y161417D01*
X30315Y168897D02*
Y165748D01*
X31889D01*
X32414Y166273D01*
Y168372D01*
X31889Y168897D01*
X30315D01*
X33463D02*
X35563D01*
Y168372D01*
X33463Y166273D01*
Y165748D01*
X117413Y70680D02*
Y67532D01*
X118987D01*
X119512Y68056D01*
Y70155D01*
X118987Y70680D01*
X117413D01*
X122660D02*
X121611Y70155D01*
X120561Y69106D01*
Y68056D01*
X121086Y67532D01*
X122135D01*
X122660Y68056D01*
Y68581D01*
X122135Y69106D01*
X120561D01*
X162300Y201217D02*
Y198068D01*
X163874D01*
X164399Y198593D01*
Y200692D01*
X163874Y201217D01*
X162300D01*
X167548D02*
X165449D01*
Y199643D01*
X166498Y200168D01*
X167023D01*
X167548Y199643D01*
Y198593D01*
X167023Y198068D01*
X165973D01*
X165449Y198593D01*
X195012Y13322D02*
X194488Y13847D01*
X193438D01*
X192913Y13322D01*
Y11223D01*
X193438Y10698D01*
X194488D01*
X195012Y11223D01*
X198161Y10698D02*
X196062D01*
X198161Y12797D01*
Y13322D01*
X197636Y13847D01*
X196587D01*
X196062Y13322D01*
X200785Y10698D02*
Y13847D01*
X199211Y12273D01*
X201310D01*
X226902Y50655D02*
X226377Y51180D01*
X225328D01*
X224803Y50655D01*
Y48556D01*
X225328Y48031D01*
X226377D01*
X226902Y48556D01*
X230051Y48031D02*
X227952D01*
X230051Y50131D01*
Y50655D01*
X229526Y51180D01*
X228477D01*
X227952Y50655D01*
X225721Y82939D02*
X225196Y83464D01*
X224147D01*
X223622Y82939D01*
Y80840D01*
X224147Y80315D01*
X225196D01*
X225721Y80840D01*
X226771Y80315D02*
X227820D01*
X227295D01*
Y83464D01*
X226771Y82939D01*
X237402Y171653D02*
Y174802D01*
X238976D01*
X239501Y174277D01*
Y173228D01*
X238976Y172703D01*
X237402D01*
X238451D02*
X239501Y171653D01*
X242125D02*
Y174802D01*
X240550Y173228D01*
X242649D01*
X245798Y174802D02*
X244748Y174277D01*
X243699Y173228D01*
Y172178D01*
X244223Y171653D01*
X245273D01*
X245798Y172178D01*
Y172703D01*
X245273Y173228D01*
X243699D01*
X86614Y190945D02*
X89763D01*
Y189371D01*
X89238Y188846D01*
X88188D01*
X87664Y189371D01*
Y190945D01*
Y189895D02*
X86614Y188846D01*
Y186222D02*
X89763D01*
X88188Y187796D01*
Y185697D01*
X89763Y182549D02*
Y184648D01*
X88188D01*
X88713Y183598D01*
Y183073D01*
X88188Y182549D01*
X87139D01*
X86614Y183073D01*
Y184123D01*
X87139Y184648D01*
X95276Y101575D02*
Y104723D01*
X96850D01*
X97375Y104199D01*
Y103149D01*
X96850Y102624D01*
X95276D01*
X96325D02*
X97375Y101575D01*
X99998D02*
Y104723D01*
X98424Y103149D01*
X100523D01*
X103147Y101575D02*
Y104723D01*
X101573Y103149D01*
X103672D01*
X111417Y86613D02*
Y83989D01*
X111942Y83465D01*
X112992D01*
X113516Y83989D01*
Y86613D01*
X114566Y83465D02*
X115615D01*
X115091D01*
Y86613D01*
X114566Y86088D01*
X25800Y337600D02*
Y340749D01*
X27374D01*
X27899Y340224D01*
Y339174D01*
X27374Y338650D01*
X25800D01*
X30523Y337600D02*
Y340749D01*
X28949Y339174D01*
X31048D01*
X61417Y281101D02*
Y278478D01*
X61942Y277953D01*
X62992D01*
X63516Y278478D01*
Y281101D01*
X64566Y280577D02*
X65091Y281101D01*
X66140D01*
X66665Y280577D01*
Y280052D01*
X66140Y279527D01*
X66665Y279002D01*
Y278478D01*
X66140Y277953D01*
X65091D01*
X64566Y278478D01*
Y279002D01*
X65091Y279527D01*
X64566Y280052D01*
Y280577D01*
X65091Y279527D02*
X66140D01*
X145276Y279920D02*
Y277296D01*
X145800Y276772D01*
X146850D01*
X147375Y277296D01*
Y279920D01*
X150523D02*
X149474Y279396D01*
X148424Y278346D01*
Y277296D01*
X148949Y276772D01*
X149998D01*
X150523Y277296D01*
Y277821D01*
X149998Y278346D01*
X148424D01*
X62205Y184251D02*
Y181627D01*
X62730Y181102D01*
X63779D01*
X64304Y181627D01*
Y184251D01*
X67452D02*
X65353D01*
Y182677D01*
X66403Y183201D01*
X66928D01*
X67452Y182677D01*
Y181627D01*
X66928Y181102D01*
X65878D01*
X65353Y181627D01*
X223228Y197243D02*
Y194619D01*
X223753Y194095D01*
X224803D01*
X225327Y194619D01*
Y197243D01*
X227951Y194095D02*
Y197243D01*
X226377Y195669D01*
X228476D01*
X221654Y160235D02*
Y157611D01*
X222178Y157087D01*
X223228D01*
X223753Y157611D01*
Y160235D01*
X224802Y159710D02*
X225327Y160235D01*
X226376D01*
X226901Y159710D01*
Y159186D01*
X226376Y158661D01*
X225852D01*
X226376D01*
X226901Y158136D01*
Y157611D01*
X226376Y157087D01*
X225327D01*
X224802Y157611D01*
X229921Y273227D02*
Y270603D01*
X230446Y270079D01*
X231496D01*
X232020Y270603D01*
Y273227D01*
X235169Y270079D02*
X233070D01*
X235169Y272178D01*
Y272703D01*
X234644Y273227D01*
X233595D01*
X233070Y272703D01*
X30274Y18049D02*
X32373D01*
X31324D01*
Y14900D01*
X33423D02*
Y18049D01*
X34997D01*
X35522Y17524D01*
Y16474D01*
X34997Y15949D01*
X33423D01*
X36571Y17524D02*
X37096Y18049D01*
X38146D01*
X38670Y17524D01*
Y16999D01*
X38146Y16474D01*
X38670Y15949D01*
Y15425D01*
X38146Y14900D01*
X37096D01*
X36571Y15425D01*
Y15949D01*
X37096Y16474D01*
X36571Y16999D01*
Y17524D01*
X37096Y16474D02*
X38146D01*
X92126Y269685D02*
X95275D01*
Y268111D01*
X94750Y267586D01*
X93700D01*
X93176Y268111D01*
Y269685D01*
Y268636D02*
X92126Y267586D01*
Y264962D02*
X95275D01*
X93700Y266536D01*
Y264437D01*
X94750Y263388D02*
X95275Y262863D01*
Y261814D01*
X94750Y261289D01*
X94225D01*
X93700Y261814D01*
Y262338D01*
Y261814D01*
X93176Y261289D01*
X92651D01*
X92126Y261814D01*
Y262863D01*
X92651Y263388D01*
X40945Y301181D02*
X44093D01*
Y299607D01*
X43569Y299082D01*
X42519D01*
X41994Y299607D01*
Y301181D01*
Y300132D02*
X40945Y299082D01*
Y296458D02*
X44093D01*
X42519Y298032D01*
Y295933D01*
X40945Y292785D02*
Y294884D01*
X43044Y292785D01*
X43569D01*
X44093Y293310D01*
Y294359D01*
X43569Y294884D01*
X98425Y304724D02*
Y307873D01*
X99999D01*
X100524Y307348D01*
Y306299D01*
X99999Y305774D01*
X98425D01*
X99475D02*
X100524Y304724D01*
X103148D02*
Y307873D01*
X101574Y306299D01*
X103673D01*
X104722Y304724D02*
X105772D01*
X105247D01*
Y307873D01*
X104722Y307348D01*
X224410Y28740D02*
Y31889D01*
X225984D01*
X226508Y31364D01*
Y30314D01*
X225984Y29790D01*
X224410D01*
X225459D02*
X226508Y28740D01*
X229132D02*
Y31889D01*
X227558Y30314D01*
X229657D01*
X230707Y31364D02*
X231231Y31889D01*
X232281D01*
X232806Y31364D01*
Y29265D01*
X232281Y28740D01*
X231231D01*
X230707Y29265D01*
Y31364D01*
X91339Y234252D02*
X94487D01*
Y232678D01*
X93962Y232153D01*
X92913D01*
X92388Y232678D01*
Y234252D01*
Y233202D02*
X91339Y232153D01*
X93962Y231103D02*
X94487Y230579D01*
Y229529D01*
X93962Y229004D01*
X93438D01*
X92913Y229529D01*
Y230054D01*
Y229529D01*
X92388Y229004D01*
X91863D01*
X91339Y229529D01*
Y230579D01*
X91863Y231103D01*
Y227955D02*
X91339Y227430D01*
Y226380D01*
X91863Y225856D01*
X93962D01*
X94487Y226380D01*
Y227430D01*
X93962Y227955D01*
X93438D01*
X92913Y227430D01*
Y225856D01*
X64961Y243307D02*
X68109D01*
Y241733D01*
X67585Y241208D01*
X66535D01*
X66010Y241733D01*
Y243307D01*
Y242258D02*
X64961Y241208D01*
X67585Y240159D02*
X68109Y239634D01*
Y238584D01*
X67585Y238059D01*
X67060D01*
X66535Y238584D01*
Y239109D01*
Y238584D01*
X66010Y238059D01*
X65485D01*
X64961Y238584D01*
Y239634D01*
X65485Y240159D01*
X67585Y237010D02*
X68109Y236485D01*
Y235436D01*
X67585Y234911D01*
X67060D01*
X66535Y235436D01*
X66010Y234911D01*
X65485D01*
X64961Y235436D01*
Y236485D01*
X65485Y237010D01*
X66010D01*
X66535Y236485D01*
X67060Y237010D01*
X67585D01*
X66535Y236485D02*
Y235436D01*
X76673Y300787D02*
Y303936D01*
X78247D01*
X78772Y303411D01*
Y302362D01*
X78247Y301837D01*
X76673D01*
X77723D02*
X78772Y300787D01*
X79822Y303411D02*
X80347Y303936D01*
X81396D01*
X81921Y303411D01*
Y302887D01*
X81396Y302362D01*
X80871D01*
X81396D01*
X81921Y301837D01*
Y301312D01*
X81396Y300787D01*
X80347D01*
X79822Y301312D01*
X82970Y303936D02*
X85070D01*
Y303411D01*
X82970Y301312D01*
Y300787D01*
X53543Y293701D02*
Y296849D01*
X55118D01*
X55642Y296325D01*
Y295275D01*
X55118Y294750D01*
X53543D01*
X54593D02*
X55642Y293701D01*
X56692Y296325D02*
X57217Y296849D01*
X58266D01*
X58791Y296325D01*
Y295800D01*
X58266Y295275D01*
X57741D01*
X58266D01*
X58791Y294750D01*
Y294226D01*
X58266Y293701D01*
X57217D01*
X56692Y294226D01*
X61940Y296849D02*
X60890Y296325D01*
X59841Y295275D01*
Y294226D01*
X60365Y293701D01*
X61415D01*
X61940Y294226D01*
Y294750D01*
X61415Y295275D01*
X59841D01*
X73622Y239370D02*
Y242519D01*
X75196D01*
X75721Y241994D01*
Y240944D01*
X75196Y240420D01*
X73622D01*
X74672D02*
X75721Y239370D01*
X76771Y241994D02*
X77295Y242519D01*
X78345D01*
X78870Y241994D01*
Y241469D01*
X78345Y240944D01*
X77820D01*
X78345D01*
X78870Y240420D01*
Y239895D01*
X78345Y239370D01*
X77295D01*
X76771Y239895D01*
X82018Y242519D02*
X79919D01*
Y240944D01*
X80969Y241469D01*
X81494D01*
X82018Y240944D01*
Y239895D01*
X81494Y239370D01*
X80444D01*
X79919Y239895D01*
X84252Y220472D02*
X87401D01*
Y218898D01*
X86876Y218373D01*
X85826D01*
X85302Y218898D01*
Y220472D01*
Y219423D02*
X84252Y218373D01*
X86876Y217324D02*
X87401Y216799D01*
Y215750D01*
X86876Y215225D01*
X86351D01*
X85826Y215750D01*
Y216274D01*
Y215750D01*
X85302Y215225D01*
X84777D01*
X84252Y215750D01*
Y216799D01*
X84777Y217324D01*
X84252Y212601D02*
X87401D01*
X85826Y214175D01*
Y212076D01*
X29600Y217000D02*
Y220149D01*
X31174D01*
X31699Y219624D01*
Y218574D01*
X31174Y218050D01*
X29600D01*
X30650D02*
X31699Y217000D01*
X32749Y219624D02*
X33273Y220149D01*
X34323D01*
X34848Y219624D01*
Y219099D01*
X34323Y218574D01*
X33798D01*
X34323D01*
X34848Y218050D01*
Y217525D01*
X34323Y217000D01*
X33273D01*
X32749Y217525D01*
X35897Y219624D02*
X36422Y220149D01*
X37472D01*
X37996Y219624D01*
Y219099D01*
X37472Y218574D01*
X36947D01*
X37472D01*
X37996Y218050D01*
Y217525D01*
X37472Y217000D01*
X36422D01*
X35897Y217525D01*
X146063Y269291D02*
X149212D01*
Y267717D01*
X148687Y267192D01*
X147637D01*
X147113Y267717D01*
Y269291D01*
Y268242D02*
X146063Y267192D01*
X148687Y266143D02*
X149212Y265618D01*
Y264568D01*
X148687Y264044D01*
X148162D01*
X147637Y264568D01*
Y265093D01*
Y264568D01*
X147113Y264044D01*
X146588D01*
X146063Y264568D01*
Y265618D01*
X146588Y266143D01*
X146063Y260895D02*
Y262994D01*
X148162Y260895D01*
X148687D01*
X149212Y261420D01*
Y262469D01*
X148687Y262994D01*
X107480Y304724D02*
Y307873D01*
X109055D01*
X109579Y307348D01*
Y306299D01*
X109055Y305774D01*
X107480D01*
X108530D02*
X109579Y304724D01*
X110629Y307348D02*
X111154Y307873D01*
X112203D01*
X112728Y307348D01*
Y306823D01*
X112203Y306299D01*
X111678D01*
X112203D01*
X112728Y305774D01*
Y305249D01*
X112203Y304724D01*
X111154D01*
X110629Y305249D01*
X113777Y304724D02*
X114827D01*
X114302D01*
Y307873D01*
X113777Y307348D01*
X156799Y305211D02*
Y308360D01*
X158373D01*
X158898Y307835D01*
Y306785D01*
X158373Y306261D01*
X156799D01*
X157849D02*
X158898Y305211D01*
X159948Y307835D02*
X160473Y308360D01*
X161522D01*
X162047Y307835D01*
Y307310D01*
X161522Y306785D01*
X160997D01*
X161522D01*
X162047Y306261D01*
Y305736D01*
X161522Y305211D01*
X160473D01*
X159948Y305736D01*
X163096Y307835D02*
X163621Y308360D01*
X164671D01*
X165196Y307835D01*
Y305736D01*
X164671Y305211D01*
X163621D01*
X163096Y305736D01*
Y307835D01*
X224016Y42126D02*
Y45275D01*
X225590D01*
X226115Y44750D01*
Y43700D01*
X225590Y43176D01*
X224016D01*
X225065D02*
X226115Y42126D01*
X229263D02*
X227164D01*
X229263Y44225D01*
Y44750D01*
X228739Y45275D01*
X227689D01*
X227164Y44750D01*
X230313Y42651D02*
X230838Y42126D01*
X231887D01*
X232412Y42651D01*
Y44750D01*
X231887Y45275D01*
X230838D01*
X230313Y44750D01*
Y44225D01*
X230838Y43700D01*
X232412D01*
X145669Y233858D02*
X148818D01*
Y232284D01*
X148293Y231759D01*
X147244D01*
X146719Y232284D01*
Y233858D01*
Y232809D02*
X145669Y231759D01*
Y228611D02*
Y230710D01*
X147768Y228611D01*
X148293D01*
X148818Y229135D01*
Y230185D01*
X148293Y230710D01*
Y227561D02*
X148818Y227036D01*
Y225987D01*
X148293Y225462D01*
X147768D01*
X147244Y225987D01*
X146719Y225462D01*
X146194D01*
X145669Y225987D01*
Y227036D01*
X146194Y227561D01*
X146719D01*
X147244Y227036D01*
X147768Y227561D01*
X148293D01*
X147244Y227036D02*
Y225987D01*
X118504Y243701D02*
X121652D01*
Y242126D01*
X121128Y241602D01*
X120078D01*
X119553Y242126D01*
Y243701D01*
Y242651D02*
X118504Y241602D01*
Y238453D02*
Y240552D01*
X120603Y238453D01*
X121128D01*
X121652Y238978D01*
Y240027D01*
X121128Y240552D01*
X121652Y237404D02*
Y235305D01*
X121128D01*
X119029Y237404D01*
X118504D01*
X132283Y292913D02*
Y296062D01*
X133858D01*
X134382Y295537D01*
Y294488D01*
X133858Y293963D01*
X132283D01*
X133333D02*
X134382Y292913D01*
X137531D02*
X135432D01*
X137531Y295012D01*
Y295537D01*
X137006Y296062D01*
X135957D01*
X135432Y295537D01*
X140680Y296062D02*
X139630Y295537D01*
X138581Y294488D01*
Y293438D01*
X139105Y292913D01*
X140155D01*
X140680Y293438D01*
Y293963D01*
X140155Y294488D01*
X138581D01*
X68110Y102362D02*
X71259D01*
Y100788D01*
X70734Y100263D01*
X69684D01*
X69160Y100788D01*
Y102362D01*
Y101313D02*
X68110Y100263D01*
Y97114D02*
Y99214D01*
X70209Y97114D01*
X70734D01*
X71259Y97639D01*
Y98689D01*
X70734Y99214D01*
X71259Y93966D02*
Y96065D01*
X69684D01*
X70209Y95016D01*
Y94491D01*
X69684Y93966D01*
X68635D01*
X68110Y94491D01*
Y95540D01*
X68635Y96065D01*
X115644Y299906D02*
Y303055D01*
X117218D01*
X117743Y302530D01*
Y301481D01*
X117218Y300956D01*
X115644D01*
X116694D02*
X117743Y299906D01*
X120892D02*
X118793D01*
X120892Y302005D01*
Y302530D01*
X120367Y303055D01*
X119317D01*
X118793Y302530D01*
X123516Y299906D02*
Y303055D01*
X121941Y301481D01*
X124040D01*
X127165Y239370D02*
Y242519D01*
X128740D01*
X129264Y241994D01*
Y240944D01*
X128740Y240420D01*
X127165D01*
X128215D02*
X129264Y239370D01*
X132413D02*
X130314D01*
X132413Y241469D01*
Y241994D01*
X131888Y242519D01*
X130839D01*
X130314Y241994D01*
X133463D02*
X133987Y242519D01*
X135037D01*
X135562Y241994D01*
Y241469D01*
X135037Y240944D01*
X134512D01*
X135037D01*
X135562Y240420D01*
Y239895D01*
X135037Y239370D01*
X133987D01*
X133463Y239895D01*
X85433Y38189D02*
Y41338D01*
X87007D01*
X87532Y40813D01*
Y39763D01*
X87007Y39239D01*
X85433D01*
X86483D02*
X87532Y38189D01*
X90681D02*
X88582D01*
X90681Y40288D01*
Y40813D01*
X90156Y41338D01*
X89106D01*
X88582Y40813D01*
X93829Y38189D02*
X91730D01*
X93829Y40288D01*
Y40813D01*
X93305Y41338D01*
X92255D01*
X91730Y40813D01*
X238583Y190945D02*
Y194094D01*
X240157D01*
X240682Y193569D01*
Y192519D01*
X240157Y191994D01*
X238583D01*
X239632D02*
X240682Y190945D01*
X243830D02*
X241731D01*
X243830Y193044D01*
Y193569D01*
X243306Y194094D01*
X242256D01*
X241731Y193569D01*
X244880Y190945D02*
X245929D01*
X245405D01*
Y194094D01*
X244880Y193569D01*
X189000Y194900D02*
Y198049D01*
X190574D01*
X191099Y197524D01*
Y196474D01*
X190574Y195949D01*
X189000D01*
X190050D02*
X191099Y194900D01*
X194248D02*
X192149D01*
X194248Y196999D01*
Y197524D01*
X193723Y198049D01*
X192673D01*
X192149Y197524D01*
X195297D02*
X195822Y198049D01*
X196871D01*
X197396Y197524D01*
Y195425D01*
X196871Y194900D01*
X195822D01*
X195297Y195425D01*
Y197524D01*
X237008Y257874D02*
X240157D01*
Y256300D01*
X239632Y255775D01*
X238582D01*
X238057Y256300D01*
Y257874D01*
Y256824D02*
X237008Y255775D01*
Y254725D02*
Y253676D01*
Y254201D01*
X240157D01*
X239632Y254725D01*
X237533Y252102D02*
X237008Y251577D01*
Y250527D01*
X237533Y250003D01*
X239632D01*
X240157Y250527D01*
Y251577D01*
X239632Y252102D01*
X239107D01*
X238582Y251577D01*
Y250003D01*
X247244Y301575D02*
X250393D01*
Y300001D01*
X249868Y299476D01*
X248818D01*
X248294Y300001D01*
Y301575D01*
Y300525D02*
X247244Y299476D01*
Y298426D02*
Y297377D01*
Y297902D01*
X250393D01*
X249868Y298426D01*
Y295802D02*
X250393Y295278D01*
Y294228D01*
X249868Y293703D01*
X249343D01*
X248818Y294228D01*
X248294Y293703D01*
X247769D01*
X247244Y294228D01*
Y295278D01*
X247769Y295802D01*
X248294D01*
X248818Y295278D01*
X249343Y295802D01*
X249868D01*
X248818Y295278D02*
Y294228D01*
X223622Y70866D02*
Y74015D01*
X225196D01*
X225721Y73490D01*
Y72440D01*
X225196Y71916D01*
X223622D01*
X224672D02*
X225721Y70866D01*
X226771D02*
X227820D01*
X227295D01*
Y74015D01*
X226771Y73490D01*
X229395Y74015D02*
X231493D01*
Y73490D01*
X229395Y71391D01*
Y70866D01*
X237008Y243701D02*
X240157D01*
Y242126D01*
X239632Y241602D01*
X238582D01*
X238057Y242126D01*
Y243701D01*
Y242651D02*
X237008Y241602D01*
Y240552D02*
Y239503D01*
Y240027D01*
X240157D01*
X239632Y240552D01*
X240157Y235829D02*
X239632Y236879D01*
X238582Y237928D01*
X237533D01*
X237008Y237404D01*
Y236354D01*
X237533Y235829D01*
X238057D01*
X238582Y236354D01*
Y237928D01*
X180315Y300394D02*
X183464D01*
Y298819D01*
X182939Y298295D01*
X181889D01*
X181365Y298819D01*
Y300394D01*
Y299344D02*
X180315Y298295D01*
Y297245D02*
Y296196D01*
Y296720D01*
X183464D01*
X182939Y297245D01*
X183464Y292522D02*
Y294621D01*
X181889D01*
X182414Y293572D01*
Y293047D01*
X181889Y292522D01*
X180840D01*
X180315Y293047D01*
Y294096D01*
X180840Y294621D01*
X238976Y152756D02*
Y155904D01*
X240551D01*
X241075Y155380D01*
Y154330D01*
X240551Y153805D01*
X238976D01*
X240026D02*
X241075Y152756D01*
X242125D02*
X243175D01*
X242650D01*
Y155904D01*
X242125Y155380D01*
X246323Y152756D02*
Y155904D01*
X244749Y154330D01*
X246848D01*
X180315Y118898D02*
X177166D01*
Y120472D01*
X177691Y120997D01*
X178741D01*
X179265Y120472D01*
Y118898D01*
Y119947D02*
X180315Y120997D01*
Y122046D02*
Y123096D01*
Y122571D01*
X177166D01*
X177691Y122046D01*
Y124670D02*
X177166Y125195D01*
Y126244D01*
X177691Y126769D01*
X178216D01*
X178741Y126244D01*
Y125720D01*
Y126244D01*
X179265Y126769D01*
X179790D01*
X180315Y126244D01*
Y125195D01*
X179790Y124670D01*
X179528Y155512D02*
Y158660D01*
X181102D01*
X181627Y158136D01*
Y157086D01*
X181102Y156561D01*
X179528D01*
X180577D02*
X181627Y155512D01*
X182676D02*
X183726D01*
X183201D01*
Y158660D01*
X182676Y158136D01*
X187399Y155512D02*
X185300D01*
X187399Y157611D01*
Y158136D01*
X186874Y158660D01*
X185825D01*
X185300Y158136D01*
X201575Y129134D02*
Y132282D01*
X203149D01*
X203674Y131758D01*
Y130708D01*
X203149Y130183D01*
X201575D01*
X202624D02*
X203674Y129134D01*
X204723D02*
X205773D01*
X205248D01*
Y132282D01*
X204723Y131758D01*
X207347Y129134D02*
X208397D01*
X207872D01*
Y132282D01*
X207347Y131758D01*
X198031Y253543D02*
X201180D01*
Y251969D01*
X200655Y251444D01*
X199606D01*
X199081Y251969D01*
Y253543D01*
Y252494D02*
X198031Y251444D01*
Y250395D02*
Y249345D01*
Y249870D01*
X201180D01*
X200655Y250395D01*
Y247771D02*
X201180Y247246D01*
Y246197D01*
X200655Y245672D01*
X198556D01*
X198031Y246197D01*
Y247246D01*
X198556Y247771D01*
X200655D01*
X217717Y292126D02*
Y295275D01*
X219291D01*
X219816Y294750D01*
Y293700D01*
X219291Y293176D01*
X217717D01*
X218766D02*
X219816Y292126D01*
X220865Y292651D02*
X221390Y292126D01*
X222439D01*
X222964Y292651D01*
Y294750D01*
X222439Y295275D01*
X221390D01*
X220865Y294750D01*
Y294225D01*
X221390Y293700D01*
X222964D01*
X225197Y103543D02*
Y106692D01*
X226771D01*
X227296Y106167D01*
Y105118D01*
X226771Y104593D01*
X225197D01*
X226246D02*
X227296Y103543D01*
X228345Y106167D02*
X228870Y106692D01*
X229920D01*
X230445Y106167D01*
Y105642D01*
X229920Y105118D01*
X230445Y104593D01*
Y104068D01*
X229920Y103543D01*
X228870D01*
X228345Y104068D01*
Y104593D01*
X228870Y105118D01*
X228345Y105642D01*
Y106167D01*
X228870Y105118D02*
X229920D01*
X238583Y133071D02*
Y136220D01*
X240157D01*
X240682Y135695D01*
Y134645D01*
X240157Y134120D01*
X238583D01*
X239632D02*
X240682Y133071D01*
X243830Y136220D02*
X242781Y135695D01*
X241731Y134645D01*
Y133596D01*
X242256Y133071D01*
X243306D01*
X243830Y133596D01*
Y134120D01*
X243306Y134645D01*
X241731D01*
X194488Y292520D02*
Y295668D01*
X196063D01*
X196587Y295144D01*
Y294094D01*
X196063Y293569D01*
X194488D01*
X195538D02*
X196587Y292520D01*
X199736Y295668D02*
X197637D01*
Y294094D01*
X198686Y294619D01*
X199211D01*
X199736Y294094D01*
Y293044D01*
X199211Y292520D01*
X198161D01*
X197637Y293044D01*
X212205Y239370D02*
Y242519D01*
X213779D01*
X214304Y241994D01*
Y240944D01*
X213779Y240420D01*
X212205D01*
X213254D02*
X214304Y239370D01*
X216928D02*
Y242519D01*
X215353Y240944D01*
X217452D01*
X183858Y148031D02*
X187007D01*
Y146457D01*
X186482Y145932D01*
X185433D01*
X184908Y146457D01*
Y148031D01*
Y146982D02*
X183858Y145932D01*
X186482Y144883D02*
X187007Y144358D01*
Y143309D01*
X186482Y142784D01*
X185957D01*
X185433Y143309D01*
Y143833D01*
Y143309D01*
X184908Y142784D01*
X184383D01*
X183858Y143309D01*
Y144358D01*
X184383Y144883D01*
X47638Y50787D02*
Y53936D01*
X49212D01*
X49737Y53411D01*
Y52362D01*
X49212Y51837D01*
X47638D01*
X48687D02*
X49737Y50787D01*
X50786D02*
X51836D01*
X51311D01*
Y53936D01*
X50786Y53411D01*
X225062Y347800D02*
Y350949D01*
X226637D01*
X227161Y350424D01*
Y349374D01*
X226637Y348850D01*
X225062D01*
X228211Y348325D02*
X228736Y347800D01*
X229785D01*
X230310Y348325D01*
Y350424D01*
X229785Y350949D01*
X228736D01*
X228211Y350424D01*
Y349899D01*
X228736Y349374D01*
X230310D01*
X167562Y348200D02*
Y351349D01*
X169137D01*
X169661Y350824D01*
Y349774D01*
X169137Y349250D01*
X167562D01*
X170711Y350824D02*
X171236Y351349D01*
X172285D01*
X172810Y350824D01*
Y350299D01*
X172285Y349774D01*
X172810Y349250D01*
Y348725D01*
X172285Y348200D01*
X171236D01*
X170711Y348725D01*
Y349250D01*
X171236Y349774D01*
X170711Y350299D01*
Y350824D01*
X171236Y349774D02*
X172285D01*
X133858Y201969D02*
Y205117D01*
X135433D01*
X135957Y204592D01*
Y203543D01*
X135433Y203018D01*
X133858D01*
X137007Y205117D02*
X139106D01*
Y204592D01*
X137007Y202493D01*
Y201969D01*
X78600Y147100D02*
Y150249D01*
X80174D01*
X80699Y149724D01*
Y148674D01*
X80174Y148150D01*
X78600D01*
X83848Y150249D02*
X82798Y149724D01*
X81749Y148674D01*
Y147625D01*
X82273Y147100D01*
X83323D01*
X83848Y147625D01*
Y148150D01*
X83323Y148674D01*
X81749D01*
X90100Y350200D02*
Y353349D01*
X91674D01*
X92199Y352824D01*
Y351774D01*
X91674Y351250D01*
X90100D01*
X95348Y353349D02*
X93249D01*
Y351774D01*
X94298Y352299D01*
X94823D01*
X95348Y351774D01*
Y350725D01*
X94823Y350200D01*
X93773D01*
X93249Y350725D01*
X10640Y154619D02*
Y157767D01*
X12215D01*
X12740Y157243D01*
Y156193D01*
X12215Y155668D01*
X10640D01*
X13789Y157243D02*
X14314Y157767D01*
X15363D01*
X15888Y157243D01*
Y156718D01*
X15363Y156193D01*
X14839D01*
X15363D01*
X15888Y155668D01*
Y155144D01*
X15363Y154619D01*
X14314D01*
X13789Y155144D01*
X254700Y200300D02*
Y203449D01*
X256274D01*
X256799Y202924D01*
Y201874D01*
X256274Y201349D01*
X254700D01*
X259948Y200300D02*
X257849D01*
X259948Y202399D01*
Y202924D01*
X259423Y203449D01*
X258373D01*
X257849Y202924D01*
X38583Y287794D02*
Y284646D01*
X40682D01*
X43830Y287794D02*
X41731D01*
Y284646D01*
X43830D01*
X41731Y286220D02*
X42781D01*
X44880Y287794D02*
Y284646D01*
X46454D01*
X46979Y285170D01*
Y287269D01*
X46454Y287794D01*
X44880D01*
X48028Y284646D02*
X49078D01*
X48553D01*
Y287794D01*
X48028Y287269D01*
X52751Y284646D02*
X50652D01*
X52751Y286745D01*
Y287269D01*
X52227Y287794D01*
X51177D01*
X50652Y287269D01*
X91339Y283070D02*
Y279921D01*
X93438D01*
X96586Y283070D02*
X94487D01*
Y279921D01*
X96586D01*
X94487Y281496D02*
X95537D01*
X97636Y283070D02*
Y279921D01*
X99210D01*
X99735Y280446D01*
Y282545D01*
X99210Y283070D01*
X97636D01*
X100784Y279921D02*
X101834D01*
X101309D01*
Y283070D01*
X100784Y282545D01*
X103408Y279921D02*
X104458D01*
X103933D01*
Y283070D01*
X103408Y282545D01*
X62598Y227952D02*
Y224803D01*
X64697D01*
X67846Y227952D02*
X65747D01*
Y224803D01*
X67846D01*
X65747Y226377D02*
X66797D01*
X68896Y227952D02*
Y224803D01*
X70470D01*
X70995Y225328D01*
Y227427D01*
X70470Y227952D01*
X68896D01*
X72044Y224803D02*
X73094D01*
X72569D01*
Y227952D01*
X72044Y227427D01*
X74668D02*
X75193Y227952D01*
X76242D01*
X76767Y227427D01*
Y225328D01*
X76242Y224803D01*
X75193D01*
X74668Y225328D01*
Y227427D01*
X107874Y283070D02*
Y279921D01*
X109973D01*
X113122Y283070D02*
X111023D01*
Y279921D01*
X113122D01*
X111023Y281496D02*
X112072D01*
X114171Y283070D02*
Y279921D01*
X115745D01*
X116270Y280446D01*
Y282545D01*
X115745Y283070D01*
X114171D01*
X117320Y280446D02*
X117845Y279921D01*
X118894D01*
X119419Y280446D01*
Y282545D01*
X118894Y283070D01*
X117845D01*
X117320Y282545D01*
Y282020D01*
X117845Y281496D01*
X119419D01*
X157480Y288188D02*
Y285039D01*
X159579D01*
X162728Y288188D02*
X160629D01*
Y285039D01*
X162728D01*
X160629Y286614D02*
X161678D01*
X163777Y288188D02*
Y285039D01*
X165352D01*
X165876Y285564D01*
Y287663D01*
X165352Y288188D01*
X163777D01*
X166926Y287663D02*
X167451Y288188D01*
X168500D01*
X169025Y287663D01*
Y287138D01*
X168500Y286614D01*
X169025Y286089D01*
Y285564D01*
X168500Y285039D01*
X167451D01*
X166926Y285564D01*
Y286089D01*
X167451Y286614D01*
X166926Y287138D01*
Y287663D01*
X167451Y286614D02*
X168500D01*
X74016Y81889D02*
Y78740D01*
X76115D01*
X79263Y81889D02*
X77164D01*
Y78740D01*
X79263D01*
X77164Y80314D02*
X78214D01*
X80313Y81889D02*
Y78740D01*
X81887D01*
X82412Y79265D01*
Y81364D01*
X81887Y81889D01*
X80313D01*
X83461D02*
X85561D01*
Y81364D01*
X83461Y79265D01*
Y78740D01*
X236614Y207086D02*
Y203937D01*
X238713D01*
X241862Y207086D02*
X239763D01*
Y203937D01*
X241862D01*
X239763Y205511D02*
X240812D01*
X242911Y207086D02*
Y203937D01*
X244486D01*
X245010Y204462D01*
Y206561D01*
X244486Y207086D01*
X242911D01*
X248159D02*
X247110Y206561D01*
X246060Y205511D01*
Y204462D01*
X246585Y203937D01*
X247634D01*
X248159Y204462D01*
Y204987D01*
X247634Y205511D01*
X246060D01*
X243701Y286613D02*
Y283465D01*
X245800D01*
X248948Y286613D02*
X246849D01*
Y283465D01*
X248948D01*
X246849Y285039D02*
X247899D01*
X249998Y286613D02*
Y283465D01*
X251572D01*
X252097Y283989D01*
Y286088D01*
X251572Y286613D01*
X249998D01*
X255246D02*
X253147D01*
Y285039D01*
X254196Y285564D01*
X254721D01*
X255246Y285039D01*
Y283989D01*
X254721Y283465D01*
X253671D01*
X253147Y283989D01*
X179921Y287401D02*
Y284252D01*
X182020D01*
X185169Y287401D02*
X183070D01*
Y284252D01*
X185169D01*
X183070Y285826D02*
X184119D01*
X186218Y287401D02*
Y284252D01*
X187793D01*
X188318Y284777D01*
Y286876D01*
X187793Y287401D01*
X186218D01*
X190941Y284252D02*
Y287401D01*
X189367Y285826D01*
X191466D01*
X237008Y167322D02*
Y164173D01*
X239107D01*
X242255Y167322D02*
X240157D01*
Y164173D01*
X242255D01*
X240157Y165747D02*
X241206D01*
X243305Y167322D02*
Y164173D01*
X244879D01*
X245404Y164698D01*
Y166797D01*
X244879Y167322D01*
X243305D01*
X246454Y166797D02*
X246978Y167322D01*
X248028D01*
X248553Y166797D01*
Y166272D01*
X248028Y165747D01*
X247503D01*
X248028D01*
X248553Y165223D01*
Y164698D01*
X248028Y164173D01*
X246978D01*
X246454Y164698D01*
X51929Y46259D02*
Y43110D01*
X54028D01*
X57177Y46259D02*
X55078D01*
Y43110D01*
X57177D01*
X55078Y44684D02*
X56127D01*
X58226Y46259D02*
Y43110D01*
X59801D01*
X60325Y43635D01*
Y45734D01*
X59801Y46259D01*
X58226D01*
X61375Y43110D02*
X62424D01*
X61900D01*
Y46259D01*
X61375Y45734D01*
X102756Y249605D02*
Y246457D01*
X104330D01*
X104855Y246982D01*
Y249080D01*
X104330Y249605D01*
X102756D01*
X107479Y246457D02*
Y249605D01*
X105904Y248031D01*
X108004D01*
X154724Y248818D02*
Y245669D01*
X156299D01*
X156824Y246194D01*
Y248293D01*
X156299Y248818D01*
X154724D01*
X157873Y248293D02*
X158398Y248818D01*
X159447D01*
X159972Y248293D01*
Y247768D01*
X159447Y247244D01*
X158923D01*
X159447D01*
X159972Y246719D01*
Y246194D01*
X159447Y245669D01*
X158398D01*
X157873Y246194D01*
X246272Y248523D02*
Y245374D01*
X247846D01*
X248371Y245899D01*
Y247998D01*
X247846Y248523D01*
X246272D01*
X251519Y245374D02*
X249420D01*
X251519Y247473D01*
Y247998D01*
X250994Y248523D01*
X249945D01*
X249420Y247998D01*
X161900Y160649D02*
Y157500D01*
X163474D01*
X163999Y158025D01*
Y160124D01*
X163474Y160649D01*
X161900D01*
X165049Y157500D02*
X166098D01*
X165573D01*
Y160649D01*
X165049Y160124D01*
X81364Y189240D02*
X81889Y189764D01*
Y190814D01*
X81364Y191339D01*
X79265D01*
X78740Y190814D01*
Y189764D01*
X79265Y189240D01*
X78740Y186091D02*
Y188190D01*
X80839Y186091D01*
X81364D01*
X81889Y186616D01*
Y187665D01*
X81364Y188190D01*
Y185041D02*
X81889Y184517D01*
Y183467D01*
X81364Y182942D01*
X80839D01*
X80314Y183467D01*
Y183992D01*
Y183467D01*
X79790Y182942D01*
X79265D01*
X78740Y183467D01*
Y184517D01*
X79265Y185041D01*
X97375Y95144D02*
X96850Y95668D01*
X95800D01*
X95276Y95144D01*
Y93045D01*
X95800Y92520D01*
X96850D01*
X97375Y93045D01*
X100523Y92520D02*
X98424D01*
X100523Y94619D01*
Y95144D01*
X99998Y95668D01*
X98949D01*
X98424Y95144D01*
X103672Y92520D02*
X101573D01*
X103672Y94619D01*
Y95144D01*
X103147Y95668D01*
X102097D01*
X101573Y95144D01*
X250918Y174277D02*
X250393Y174802D01*
X249344D01*
X248819Y174277D01*
Y172178D01*
X249344Y171653D01*
X250393D01*
X250918Y172178D01*
X254067Y171653D02*
X251968D01*
X254067Y173753D01*
Y174277D01*
X253542Y174802D01*
X252492D01*
X251968Y174277D01*
X255116Y171653D02*
X256166D01*
X255641D01*
Y174802D01*
X255116Y174277D01*
X226508Y24277D02*
X225984Y24802D01*
X224934D01*
X224410Y24277D01*
Y22178D01*
X224934Y21654D01*
X225984D01*
X226508Y22178D01*
X229657Y21654D02*
X227558D01*
X229657Y23753D01*
Y24277D01*
X229132Y24802D01*
X228083D01*
X227558Y24277D01*
X230707D02*
X231231Y24802D01*
X232281D01*
X232806Y24277D01*
Y22178D01*
X232281Y21654D01*
X231231D01*
X230707Y22178D01*
Y24277D01*
X79264Y295931D02*
X78740Y296456D01*
X77690D01*
X77165Y295931D01*
Y293832D01*
X77690Y293307D01*
X78740D01*
X79264Y293832D01*
X80314Y293307D02*
X81363D01*
X80839D01*
Y296456D01*
X80314Y295931D01*
X82938Y293832D02*
X83463Y293307D01*
X84512D01*
X85037Y293832D01*
Y295931D01*
X84512Y296456D01*
X83463D01*
X82938Y295931D01*
Y295406D01*
X83463Y294881D01*
X85037D01*
X56036Y303805D02*
X55511Y304330D01*
X54462D01*
X53937Y303805D01*
Y301706D01*
X54462Y301181D01*
X55511D01*
X56036Y301706D01*
X57086Y301181D02*
X58135D01*
X57610D01*
Y304330D01*
X57086Y303805D01*
X59709D02*
X60234Y304330D01*
X61284D01*
X61809Y303805D01*
Y303280D01*
X61284Y302755D01*
X61809Y302231D01*
Y301706D01*
X61284Y301181D01*
X60234D01*
X59709Y301706D01*
Y302231D01*
X60234Y302755D01*
X59709Y303280D01*
Y303805D01*
X60234Y302755D02*
X61284D01*
X58136Y269948D02*
X58660Y270473D01*
Y271522D01*
X58136Y272047D01*
X56037D01*
X55512Y271522D01*
Y270473D01*
X56037Y269948D01*
X55512Y268899D02*
Y267849D01*
Y268374D01*
X58660D01*
X58136Y268899D01*
X58660Y266275D02*
Y264176D01*
X58136D01*
X56037Y266275D01*
X55512D01*
X225721Y39238D02*
X225196Y39763D01*
X224147D01*
X223622Y39238D01*
Y37139D01*
X224147Y36614D01*
X225196D01*
X225721Y37139D01*
X226771Y36614D02*
X227820D01*
X227295D01*
Y39763D01*
X226771Y39238D01*
X231493Y39763D02*
X230444Y39238D01*
X229395Y38188D01*
Y37139D01*
X229919Y36614D01*
X230969D01*
X231493Y37139D01*
Y37664D01*
X230969Y38188D01*
X229395D01*
X50388Y222455D02*
X49863Y222980D01*
X48814D01*
X48289Y222455D01*
Y220356D01*
X48814Y219831D01*
X49863D01*
X50388Y220356D01*
X51438Y219831D02*
X52487D01*
X51962D01*
Y222980D01*
X51438Y222455D01*
X56160Y222980D02*
X54061D01*
Y221406D01*
X55111Y221931D01*
X55636D01*
X56160Y221406D01*
Y220356D01*
X55636Y219831D01*
X54586D01*
X54061Y220356D01*
X145800Y308923D02*
X145275Y309448D01*
X144226D01*
X143701Y308923D01*
Y306824D01*
X144226Y306299D01*
X145275D01*
X145800Y306824D01*
X146849Y306299D02*
X147899D01*
X147374D01*
Y309448D01*
X146849Y308923D01*
X151048Y306299D02*
Y309448D01*
X149473Y307874D01*
X151572D01*
X128772Y303805D02*
X128247Y304330D01*
X127198D01*
X126673Y303805D01*
Y301706D01*
X127198Y301181D01*
X128247D01*
X128772Y301706D01*
X129822Y301181D02*
X130871D01*
X130347D01*
Y304330D01*
X129822Y303805D01*
X132446D02*
X132970Y304330D01*
X134020D01*
X134545Y303805D01*
Y303280D01*
X134020Y302755D01*
X133495D01*
X134020D01*
X134545Y302231D01*
Y301706D01*
X134020Y301181D01*
X132970D01*
X132446Y301706D01*
X111679Y271523D02*
X112204Y272048D01*
Y273097D01*
X111679Y273622D01*
X109580D01*
X109055Y273097D01*
Y272048D01*
X109580Y271523D01*
X109055Y270474D02*
Y269424D01*
Y269949D01*
X112204D01*
X111679Y270474D01*
X109055Y265751D02*
Y267850D01*
X111154Y265751D01*
X111679D01*
X112204Y266275D01*
Y267325D01*
X111679Y267850D01*
X78214Y67980D02*
X78739Y68504D01*
Y69554D01*
X78214Y70079D01*
X76115D01*
X75590Y69554D01*
Y68504D01*
X76115Y67980D01*
X75590Y66930D02*
Y65881D01*
Y66405D01*
X78739D01*
X78214Y66930D01*
X75590Y64306D02*
Y63257D01*
Y63781D01*
X78739D01*
X78214Y64306D01*
X211942Y204592D02*
X211417Y205117D01*
X210367D01*
X209842Y204592D01*
Y202493D01*
X210367Y201969D01*
X211417D01*
X211942Y202493D01*
X212991Y201969D02*
X214041D01*
X213516D01*
Y205117D01*
X212991Y204592D01*
X215615D02*
X216140Y205117D01*
X217189D01*
X217714Y204592D01*
Y202493D01*
X217189Y201969D01*
X216140D01*
X215615Y202493D01*
Y204592D01*
X226902Y97506D02*
X226377Y98031D01*
X225328D01*
X224803Y97506D01*
Y95407D01*
X225328Y94882D01*
X226377D01*
X226902Y95407D01*
X227952D02*
X228477Y94882D01*
X229526D01*
X230051Y95407D01*
Y97506D01*
X229526Y98031D01*
X228477D01*
X227952Y97506D01*
Y96981D01*
X228477Y96456D01*
X230051D01*
X219422Y302624D02*
X218897Y303149D01*
X217848D01*
X217323Y302624D01*
Y300525D01*
X217848Y300000D01*
X218897D01*
X219422Y300525D01*
X220471Y302624D02*
X220996Y303149D01*
X222046D01*
X222570Y302624D01*
Y302099D01*
X222046Y301574D01*
X222570Y301049D01*
Y300525D01*
X222046Y300000D01*
X220996D01*
X220471Y300525D01*
Y301049D01*
X220996Y301574D01*
X220471Y302099D01*
Y302624D01*
X220996Y301574D02*
X222046D01*
X249737Y135695D02*
X249212Y136220D01*
X248163D01*
X247638Y135695D01*
Y133596D01*
X248163Y133071D01*
X249212D01*
X249737Y133596D01*
X250786Y136220D02*
X252885D01*
Y135695D01*
X250786Y133596D01*
Y133071D01*
X196981Y303411D02*
X196456Y303936D01*
X195407D01*
X194882Y303411D01*
Y301312D01*
X195407Y300787D01*
X196456D01*
X196981Y301312D01*
X200130Y303936D02*
X199080Y303411D01*
X198030Y302362D01*
Y301312D01*
X198555Y300787D01*
X199605D01*
X200130Y301312D01*
Y301837D01*
X199605Y302362D01*
X198030D01*
X226115Y66403D02*
X225590Y66928D01*
X224540D01*
X224016Y66403D01*
Y64304D01*
X224540Y63779D01*
X225590D01*
X226115Y64304D01*
X229263Y66928D02*
X227164D01*
Y65354D01*
X228214Y65879D01*
X228739D01*
X229263Y65354D01*
Y64304D01*
X228739Y63779D01*
X227689D01*
X227164Y64304D01*
X210760Y167585D02*
X210236Y168109D01*
X209186D01*
X208661Y167585D01*
Y165485D01*
X209186Y164961D01*
X210236D01*
X210760Y165485D01*
X213384Y164961D02*
Y168109D01*
X211810Y166535D01*
X213909D01*
X200524Y276640D02*
X199999Y277164D01*
X198950D01*
X198425Y276640D01*
Y274540D01*
X198950Y274016D01*
X199999D01*
X200524Y274540D01*
X201574Y276640D02*
X202099Y277164D01*
X203148D01*
X203673Y276640D01*
Y276115D01*
X203148Y275590D01*
X202623D01*
X203148D01*
X203673Y275065D01*
Y274540D01*
X203148Y274016D01*
X202099D01*
X201574Y274540D01*
M02*
