G04*
G04 #@! TF.GenerationSoftware,Altium Limited,Altium Designer,20.0.10 (225)*
G04*
G04 Layer_Color=16711935*
%FSLAX25Y25*%
%MOIN*%
G70*
G01*
G75*
%ADD10C,0.00394*%
%ADD68R,0.03150X0.00847*%
%ADD69R,0.00847X0.03150*%
D10*
X211122Y246457D02*
X224311D01*
X211122Y251969D02*
X224311D01*
X211122Y246457D02*
Y251969D01*
X224311Y246457D02*
Y251969D01*
X203937Y246850D02*
Y253150D01*
X207087Y246850D02*
Y253150D01*
X203937Y246850D02*
X207087D01*
X203937Y253150D02*
X207087D01*
X199291Y263878D02*
Y270768D01*
X203071Y263878D02*
Y270768D01*
X199291Y263878D02*
X203071D01*
X199291Y270768D02*
X203071D01*
X211122Y199134D02*
X218012D01*
X211122Y195354D02*
X218012D01*
X211122D02*
Y199134D01*
X218012Y195354D02*
Y199134D01*
X213189Y172244D02*
X228543D01*
Y191535D01*
X213189D02*
X228543D01*
X213189Y172244D02*
Y191535D01*
X191339Y133481D02*
X197638D01*
X191339Y130332D02*
X197638D01*
X191339D02*
Y133481D01*
X197638Y130332D02*
Y133481D01*
X191732Y120866D02*
Y124016D01*
X198031Y120866D02*
Y124016D01*
X191732D02*
X198031D01*
X191732Y120866D02*
X198031D01*
X183071Y119291D02*
Y125591D01*
X186221Y119291D02*
Y125591D01*
X183071Y119291D02*
X186221D01*
X183071Y125591D02*
X186221D01*
X231496Y250000D02*
Y256299D01*
X234646Y250000D02*
Y256299D01*
X231496Y250000D02*
X234646D01*
X231496Y256299D02*
X234646D01*
Y237008D02*
Y243307D01*
X231496Y237008D02*
Y243307D01*
X234646D01*
X231496Y237008D02*
X234646D01*
X191339Y167323D02*
X197638D01*
X191339Y170472D02*
X197638D01*
Y167323D02*
Y170472D01*
X191339Y167323D02*
Y170472D01*
Y157874D02*
X197638D01*
X191339Y154724D02*
X197638D01*
X191339D02*
Y157874D01*
X197638Y154724D02*
Y157874D01*
X191732Y137500D02*
Y150689D01*
X197244Y137500D02*
Y150689D01*
X191732D02*
X197244D01*
X191732Y137500D02*
X197244D01*
X208760Y162126D02*
X215650D01*
X208760Y158346D02*
X215650D01*
X208760D02*
Y162126D01*
X215650Y158346D02*
Y162126D01*
X213189Y135186D02*
X228543D01*
Y154477D01*
X213189D02*
X228543D01*
X213189Y135186D02*
Y154477D01*
X117028Y304252D02*
X123917D01*
X117028Y300472D02*
X123917D01*
X117028D02*
Y304252D01*
X123917Y300472D02*
Y304252D01*
X141535Y267520D02*
Y282874D01*
X122244D02*
X141535D01*
X122244Y267520D02*
Y282874D01*
Y267520D02*
X141535D01*
X48819Y57874D02*
Y64173D01*
X51968Y57874D02*
Y64173D01*
X48819Y57874D02*
X51968D01*
X48819Y64173D02*
X51968D01*
X55118Y58026D02*
X58268D01*
X55118Y51727D02*
X58268D01*
Y58026D01*
X55118Y51727D02*
Y58026D01*
X108465Y66339D02*
Y81693D01*
X89173D02*
X108465D01*
X89173Y66339D02*
Y81693D01*
Y66339D02*
X108465D01*
X85138Y95984D02*
X92028D01*
X85138Y92205D02*
X92028D01*
X85138D02*
Y95984D01*
X92028Y92205D02*
Y95984D01*
X85039Y104331D02*
X91339D01*
X85039Y101181D02*
X91339D01*
X85039D02*
Y104331D01*
X91339Y101181D02*
Y104331D01*
X76772Y94882D02*
Y101181D01*
X73622Y94882D02*
Y101181D01*
X76772D01*
X73622Y94882D02*
X76772D01*
X83223Y83858D02*
Y87008D01*
X76924Y83858D02*
Y87008D01*
Y83858D02*
X83223D01*
X76924Y87008D02*
X83223D01*
X103150Y46358D02*
Y52658D01*
X106299Y46358D02*
Y52658D01*
X103150Y46358D02*
X106299D01*
X103150Y52658D02*
X106299D01*
X113779Y46457D02*
Y52756D01*
X110630Y46457D02*
Y52756D01*
X113779D01*
X110630Y46457D02*
X113779D01*
X80394Y63484D02*
Y70374D01*
X84173Y63484D02*
Y70374D01*
X80394Y63484D02*
X84173D01*
X80394Y70374D02*
X84173D01*
X85532Y46063D02*
X98721D01*
X85532Y51575D02*
X98721D01*
X85532Y46063D02*
Y51575D01*
X98721Y46063D02*
Y51575D01*
X239764Y178347D02*
Y184646D01*
X242913Y178347D02*
Y184646D01*
X239764Y178347D02*
X242913D01*
X239764Y184646D02*
X242913D01*
X249685Y178051D02*
Y184941D01*
X253465Y178051D02*
Y184941D01*
X249685Y178051D02*
X253465D01*
X249685Y184941D02*
X253465D01*
X230275Y196501D02*
X233425D01*
X230275Y202800D02*
X233425D01*
X230275Y196501D02*
Y202800D01*
X233425Y196501D02*
Y202800D01*
X238976Y196850D02*
X245276D01*
X238976Y200000D02*
X245276D01*
Y196850D02*
Y200000D01*
X238976Y196850D02*
Y200000D01*
X230669Y158706D02*
X233819D01*
X230669Y165005D02*
X233819D01*
X230669Y158706D02*
Y165005D01*
X233819Y158706D02*
Y165005D01*
X240158Y158268D02*
X246457D01*
X240158Y161417D02*
X246457D01*
Y158268D02*
Y161417D01*
X240158Y158268D02*
Y161417D01*
X247716Y139862D02*
Y146752D01*
X251496Y139862D02*
Y146752D01*
X247716Y139862D02*
X251496D01*
X247716Y146752D02*
X251496D01*
X239370Y140157D02*
Y146457D01*
X242520Y140157D02*
Y146457D01*
X239370Y140157D02*
X242520D01*
X239370Y146457D02*
X242520D01*
X32677Y185433D02*
X38976D01*
X32677Y188583D02*
X38976D01*
Y185433D02*
Y188583D01*
X32677Y185433D02*
Y188583D01*
Y195669D02*
X38976D01*
X32677Y192520D02*
X38976D01*
X32677D02*
Y195669D01*
X38976Y192520D02*
Y195669D01*
X86221Y194488D02*
Y200787D01*
X89370Y194488D02*
Y200787D01*
X86221Y194488D02*
X89370D01*
X86221Y200787D02*
X89370D01*
X78425Y194587D02*
Y201476D01*
X82205Y194587D02*
Y201476D01*
X78425Y194587D02*
X82205D01*
X78425Y201476D02*
X82205D01*
X77953Y212205D02*
Y218504D01*
X81102Y212205D02*
Y218504D01*
X77953Y212205D02*
X81102D01*
X77953Y218504D02*
X81102D01*
X70472Y212052D02*
X73622D01*
X70472Y218352D02*
X73622D01*
X70472Y212052D02*
Y218352D01*
X73622Y212052D02*
Y218352D01*
X88287Y292992D02*
X95177D01*
X88287Y296772D02*
X95177D01*
Y292992D02*
Y296772D01*
X88287Y292992D02*
Y296772D01*
X88583Y300787D02*
X94882D01*
X88583Y303937D02*
X94882D01*
Y300787D02*
Y303937D01*
X88583Y300787D02*
Y303937D01*
X117672Y285000D02*
Y288149D01*
X111373Y285000D02*
Y288149D01*
Y285000D02*
X117672D01*
X111373Y288149D02*
X117672D01*
X144193Y300472D02*
X151083D01*
X144193Y304252D02*
X151083D01*
Y300472D02*
Y304252D01*
X144193Y300472D02*
Y304252D01*
X61102Y265453D02*
Y272342D01*
X64882Y265453D02*
Y272342D01*
X61102Y265453D02*
X64882D01*
X61102Y272342D02*
X64882D01*
X144095Y293307D02*
X150394D01*
X144095Y296457D02*
X150394D01*
Y293307D02*
Y296457D01*
X144095Y293307D02*
Y296457D01*
X146107Y285079D02*
Y288229D01*
X152407Y285079D02*
Y288229D01*
X146107D02*
X152407D01*
X146107Y285079D02*
X152407D01*
X244094Y294882D02*
Y301181D01*
X240945Y294882D02*
Y301181D01*
X244094D01*
X240945Y294882D02*
X244094D01*
X225295Y299685D02*
X232185D01*
X225295Y303465D02*
X232185D01*
Y299685D02*
Y303465D01*
X225295Y299685D02*
Y303465D01*
X225984Y292520D02*
X232283D01*
X225984Y295669D02*
X232283D01*
Y292520D02*
Y295669D01*
X225984Y292520D02*
Y295669D01*
X203543D02*
X209842D01*
X203543Y292520D02*
X209842D01*
X203543D02*
Y295669D01*
X209842Y292520D02*
Y295669D01*
X226969Y266732D02*
Y282087D01*
X207677D02*
X226969D01*
X207677Y266732D02*
Y282087D01*
Y266732D02*
X226969D01*
X203248Y303465D02*
X210138D01*
X203248Y299685D02*
X210138D01*
X203248D02*
Y303465D01*
X210138Y299685D02*
Y303465D01*
X190551Y293307D02*
Y299606D01*
X187402Y293307D02*
Y299606D01*
X190551D01*
X187402Y293307D02*
X190551D01*
X202121Y284252D02*
Y287401D01*
X195822Y284252D02*
Y287401D01*
Y284252D02*
X202121D01*
X195822Y287401D02*
X202121D01*
X233312Y283859D02*
Y287008D01*
X239611Y283859D02*
Y287008D01*
X233312D02*
X239611D01*
X233312Y283859D02*
X239611D01*
X114646Y266142D02*
Y273031D01*
X118425Y266142D02*
Y273031D01*
X114646Y266142D02*
X118425D01*
X114646Y273031D02*
X118425D01*
X145669Y250787D02*
Y257087D01*
X148819Y250787D02*
Y257087D01*
X145669Y250787D02*
X148819D01*
X145669Y257087D02*
X148819D01*
Y237795D02*
Y244094D01*
X145669Y237795D02*
Y244094D01*
X148819D01*
X145669Y237795D02*
X148819D01*
X118504Y247638D02*
Y253937D01*
X121653Y247638D02*
Y253937D01*
X118504Y247638D02*
X121653D01*
X118504Y253937D02*
X121653D01*
X125295Y247244D02*
X138484D01*
X125295Y252756D02*
X138484D01*
X125295Y247244D02*
Y252756D01*
X138484Y247244D02*
Y252756D01*
X111811Y294488D02*
Y300787D01*
X108661Y294488D02*
Y300787D01*
X111811D01*
X108661Y294488D02*
X111811D01*
X103543D02*
Y300787D01*
X100394Y294488D02*
Y300787D01*
X103543D01*
X100394Y294488D02*
X103543D01*
X92126Y250787D02*
Y257087D01*
X95276Y250787D02*
Y257087D01*
X92126Y250787D02*
X95276D01*
X92126Y257087D02*
X95276D01*
Y237795D02*
Y244094D01*
X92126Y237795D02*
Y244094D01*
X95276D01*
X92126Y237795D02*
X95276D01*
X72146Y247244D02*
X85335D01*
X72146Y252756D02*
X85335D01*
X72146Y247244D02*
Y252756D01*
X85335Y247244D02*
Y252756D01*
X93352Y285079D02*
Y288229D01*
X99651Y285079D02*
Y288229D01*
X93352D02*
X99651D01*
X93352Y285079D02*
X99651D01*
X49606Y293701D02*
Y300000D01*
X46457Y293701D02*
Y300000D01*
X49606D01*
X46457Y293701D02*
X49606D01*
X65059Y304252D02*
X71949D01*
X65059Y300472D02*
X71949D01*
X65059D02*
Y304252D01*
X71949Y300472D02*
Y304252D01*
X65748Y296457D02*
X72047D01*
X65748Y293307D02*
X72047D01*
X65748D02*
Y296457D01*
X72047Y293307D02*
Y296457D01*
X63538Y284645D02*
Y287795D01*
X57239Y284645D02*
Y287795D01*
Y284645D02*
X63538D01*
X57239Y287795D02*
X63538D01*
X212992Y72047D02*
X219291D01*
X212992Y75197D02*
X219291D01*
Y72047D02*
Y75197D01*
X212992Y72047D02*
Y75197D01*
X213779Y103543D02*
X220079D01*
X213779Y106693D02*
X220079D01*
Y103543D02*
Y106693D01*
X213779Y103543D02*
Y106693D01*
X212303Y64252D02*
X219193D01*
X212303Y68032D02*
X219193D01*
Y64252D02*
Y68032D01*
X212303Y64252D02*
Y68032D01*
X213090Y95748D02*
X219980D01*
X213090Y99528D02*
X219980D01*
Y95748D02*
Y99528D01*
X213090Y95748D02*
Y99528D01*
X212992Y88583D02*
X219291D01*
X212992Y91732D02*
X219291D01*
Y88583D02*
Y91732D01*
X212992Y88583D02*
Y91732D01*
X212402Y80787D02*
X219291D01*
X212402Y84567D02*
X219291D01*
Y80787D02*
Y84567D01*
X212402Y80787D02*
Y84567D01*
X212992Y57480D02*
X219291D01*
X212992Y60630D02*
X219291D01*
Y57480D02*
Y60630D01*
X212992Y57480D02*
Y60630D01*
X212303Y50079D02*
X219193D01*
X212303Y53858D02*
X219193D01*
Y50079D02*
Y53858D01*
X212303Y50079D02*
Y53858D01*
X212598Y43324D02*
X218898D01*
X212598Y46473D02*
X218898D01*
Y43324D02*
Y46473D01*
X212598Y43324D02*
Y46473D01*
X211910Y35512D02*
X218799D01*
X211910Y39291D02*
X218799D01*
Y35512D02*
Y39291D01*
X211910Y35512D02*
Y39291D01*
X212598Y28740D02*
X218898D01*
X212598Y31890D02*
X218898D01*
Y28740D02*
Y31890D01*
X212598Y28740D02*
Y31890D01*
X211910Y20945D02*
X218799D01*
X211910Y24724D02*
X218799D01*
Y20945D02*
Y24724D01*
X211910Y20945D02*
Y24724D01*
X213009Y14173D02*
X219308D01*
X213009Y17323D02*
X219308D01*
Y14173D02*
Y17323D01*
X213009Y14173D02*
Y17323D01*
X204409Y9547D02*
Y16437D01*
X208189Y9547D02*
Y16437D01*
X204409Y9547D02*
X208189D01*
X204409Y16437D02*
X208189D01*
X184252Y171260D02*
Y174409D01*
X177953Y171260D02*
Y174409D01*
Y171260D02*
X184252D01*
X177953Y174409D02*
X184252D01*
X65354Y253937D02*
X68504D01*
X65354Y247638D02*
X68504D01*
Y253937D01*
X65354Y247638D02*
Y253937D01*
X69095Y267520D02*
X88386D01*
X69095D02*
Y282874D01*
X88386D01*
Y267520D02*
Y282874D01*
X52953Y188560D02*
Y207851D01*
X68307D01*
Y188560D02*
Y207851D01*
X52953Y188560D02*
X68307D01*
X124016Y292913D02*
Y296063D01*
X117717Y292913D02*
Y296063D01*
Y292913D02*
X124016D01*
X117717Y296063D02*
X124016D01*
X56595Y212283D02*
Y216063D01*
X49705Y212283D02*
Y216063D01*
Y212283D02*
X56595D01*
X49705Y216063D02*
X56595D01*
X157480Y293701D02*
X160630D01*
X157480Y300000D02*
X160630D01*
X157480Y293701D02*
Y300000D01*
X160630Y293701D02*
Y300000D01*
X32677Y200177D02*
X38189D01*
X32677Y213366D02*
X38189D01*
Y200177D02*
Y213366D01*
X32677Y200177D02*
Y213366D01*
X192126Y178051D02*
X197638D01*
X192126Y191240D02*
X197638D01*
Y178051D02*
Y191240D01*
X192126Y178051D02*
Y191240D01*
X32776Y7480D02*
Y10630D01*
X39075Y7480D02*
Y10630D01*
X32776D02*
X39075D01*
X32776Y7480D02*
X39075D01*
D68*
X56693Y52151D02*
D03*
X231850Y202377D02*
D03*
X232244Y164582D02*
D03*
X72047Y217928D02*
D03*
D69*
X77348Y85433D02*
D03*
X111796Y286575D02*
D03*
X151983Y286654D02*
D03*
X196245Y285826D02*
D03*
X239188Y285433D02*
D03*
X99227Y286654D02*
D03*
X57663Y286220D02*
D03*
M02*
