G04*
G04 #@! TF.GenerationSoftware,Altium Limited,Altium Designer,19.1.9 (167)*
G04*
G04 Layer_Physical_Order=3*
G04 Layer_Color=16440176*
%FSLAX25Y25*%
%MOIN*%
G70*
G01*
G75*
%ADD15C,0.01000*%
%ADD88C,0.07087*%
%ADD90C,0.08678*%
%ADD94C,0.06299*%
%ADD95R,0.06299X0.06299*%
%ADD96R,0.06299X0.06299*%
%ADD97C,0.01772*%
G36*
X600439Y100348D02*
X577514D01*
Y123274D01*
X600439D01*
Y100348D01*
D02*
G37*
G36*
X482329Y1923D02*
X459403D01*
Y24849D01*
X482329D01*
Y1923D01*
D02*
G37*
G36*
X600439Y1529D02*
X577514D01*
Y24455D01*
X600439D01*
Y1529D01*
D02*
G37*
G36*
X600833Y392959D02*
X600833Y126332D01*
X575984D01*
X575399Y126216D01*
X574903Y125885D01*
X574571Y125388D01*
X574455Y124803D01*
Y98819D01*
X574571Y98234D01*
X574903Y97737D01*
X575399Y97406D01*
X575984Y97290D01*
X600833D01*
X600833Y27514D01*
X575984D01*
X575399Y27397D01*
X574903Y27066D01*
X574571Y26570D01*
X574455Y25984D01*
Y1529D01*
X485388Y1529D01*
Y26378D01*
X485271Y26963D01*
X484940Y27459D01*
X484444Y27791D01*
X483858Y27907D01*
X457874D01*
X457289Y27791D01*
X456793Y27459D01*
X456461Y26963D01*
X456345Y26378D01*
Y1529D01*
X1529Y1529D01*
X1529Y392959D01*
X600833Y392959D01*
D02*
G37*
%LPC*%
G36*
X588976Y120135D02*
X587353Y119975D01*
X585791Y119501D01*
X584352Y118732D01*
X583091Y117697D01*
X582056Y116435D01*
X581286Y114996D01*
X580813Y113435D01*
X580653Y111811D01*
X580813Y110187D01*
X581286Y108626D01*
X582056Y107187D01*
X583091Y105925D01*
X584352Y104890D01*
X585791Y104121D01*
X587353Y103647D01*
X588976Y103488D01*
X590600Y103647D01*
X592162Y104121D01*
X593601Y104890D01*
X594862Y105925D01*
X595897Y107187D01*
X596666Y108626D01*
X597140Y110187D01*
X597300Y111811D01*
X597140Y113435D01*
X596666Y114996D01*
X595897Y116435D01*
X594862Y117697D01*
X593601Y118732D01*
X592162Y119501D01*
X590600Y119975D01*
X588976Y120135D01*
D02*
G37*
G36*
X470866Y21709D02*
X469242Y21549D01*
X467681Y21076D01*
X466242Y20307D01*
X464981Y19271D01*
X463945Y18010D01*
X463176Y16571D01*
X462703Y15010D01*
X462543Y13386D01*
X462703Y11762D01*
X463176Y10200D01*
X463945Y8761D01*
X464981Y7500D01*
X466242Y6465D01*
X467681Y5696D01*
X469242Y5222D01*
X470866Y5062D01*
X472490Y5222D01*
X474051Y5696D01*
X475491Y6465D01*
X476752Y7500D01*
X477787Y8761D01*
X478556Y10200D01*
X479030Y11762D01*
X479190Y13386D01*
X479030Y15010D01*
X478556Y16571D01*
X477787Y18010D01*
X476752Y19271D01*
X475491Y20307D01*
X474051Y21076D01*
X472490Y21549D01*
X470866Y21709D01*
D02*
G37*
G36*
X588976Y21316D02*
X587353Y21156D01*
X585791Y20682D01*
X584352Y19913D01*
X583091Y18878D01*
X582056Y17616D01*
X581286Y16177D01*
X580813Y14616D01*
X580653Y12992D01*
X580813Y11368D01*
X581286Y9807D01*
X582056Y8368D01*
X583091Y7107D01*
X584352Y6071D01*
X585791Y5302D01*
X587353Y4829D01*
X588976Y4669D01*
X590600Y4829D01*
X592162Y5302D01*
X593601Y6071D01*
X594862Y7107D01*
X595897Y8368D01*
X596666Y9807D01*
X597140Y11368D01*
X597300Y12992D01*
X597140Y14616D01*
X596666Y16177D01*
X595897Y17616D01*
X594862Y18878D01*
X593601Y19913D01*
X592162Y20682D01*
X590600Y21156D01*
X588976Y21316D01*
D02*
G37*
G36*
X318504Y381931D02*
X317719Y381828D01*
X316987Y381525D01*
X316359Y381043D01*
X315877Y380415D01*
X315574Y379683D01*
X315470Y378898D01*
X315574Y378112D01*
X315877Y377381D01*
X316359Y376752D01*
X316987Y376270D01*
X317719Y375967D01*
X318504Y375864D01*
X319289Y375967D01*
X320021Y376270D01*
X320649Y376752D01*
X321131Y377381D01*
X321434Y378112D01*
X321538Y378898D01*
X321434Y379683D01*
X321131Y380415D01*
X320649Y381043D01*
X320021Y381525D01*
X319289Y381828D01*
X318504Y381931D01*
D02*
G37*
G36*
X353937Y381931D02*
X353152Y381828D01*
X352420Y381525D01*
X351792Y381043D01*
X351310Y380415D01*
X351007Y379683D01*
X350903Y378898D01*
X351007Y378112D01*
X351310Y377381D01*
X351792Y376752D01*
X352420Y376270D01*
X353152Y375967D01*
X353937Y375864D01*
X354722Y375967D01*
X355454Y376270D01*
X356082Y376752D01*
X356564Y377381D01*
X356868Y378112D01*
X356971Y378898D01*
X356868Y379683D01*
X356564Y380415D01*
X356082Y381043D01*
X355454Y381525D01*
X354722Y381828D01*
X353937Y381931D01*
D02*
G37*
G36*
X105905Y384267D02*
X104719Y384111D01*
X103614Y383654D01*
X102665Y382925D01*
X101937Y381976D01*
X101479Y380871D01*
X101323Y379685D01*
X101479Y378499D01*
X101937Y377394D01*
X102665Y376445D01*
X103614Y375716D01*
X104719Y375259D01*
X105905Y375102D01*
X107092Y375259D01*
X108197Y375716D01*
X109146Y376445D01*
X109874Y377394D01*
X110332Y378499D01*
X110488Y379685D01*
X110332Y380871D01*
X109874Y381976D01*
X109146Y382925D01*
X108197Y383654D01*
X107092Y384111D01*
X105905Y384267D01*
D02*
G37*
G36*
X82284D02*
X81097Y384111D01*
X79992Y383654D01*
X79043Y382925D01*
X78315Y381976D01*
X77857Y380871D01*
X77701Y379685D01*
X77857Y378499D01*
X78315Y377394D01*
X79043Y376445D01*
X79992Y375716D01*
X81097Y375259D01*
X82284Y375102D01*
X83469Y375259D01*
X84575Y375716D01*
X85524Y376445D01*
X86252Y377394D01*
X86710Y378499D01*
X86866Y379685D01*
X86710Y380871D01*
X86252Y381976D01*
X85524Y382925D01*
X84575Y383654D01*
X83469Y384111D01*
X82284Y384267D01*
D02*
G37*
G36*
X58661D02*
X57475Y384111D01*
X56370Y383654D01*
X55421Y382925D01*
X54693Y381976D01*
X54235Y380871D01*
X54079Y379685D01*
X54235Y378499D01*
X54693Y377394D01*
X55421Y376445D01*
X56370Y375716D01*
X57475Y375259D01*
X58661Y375102D01*
X59847Y375259D01*
X60953Y375716D01*
X61902Y376445D01*
X62630Y377394D01*
X63088Y378499D01*
X63244Y379685D01*
X63088Y380871D01*
X62630Y381976D01*
X61902Y382925D01*
X60953Y383654D01*
X59847Y384111D01*
X58661Y384267D01*
D02*
G37*
G36*
X35039D02*
X33853Y384111D01*
X32748Y383654D01*
X31799Y382925D01*
X31071Y381976D01*
X30613Y380871D01*
X30457Y379685D01*
X30613Y378499D01*
X31071Y377394D01*
X31799Y376445D01*
X32748Y375716D01*
X33853Y375259D01*
X35039Y375102D01*
X36225Y375259D01*
X37331Y375716D01*
X38280Y376445D01*
X39008Y377394D01*
X39466Y378499D01*
X39622Y379685D01*
X39466Y380871D01*
X39008Y381976D01*
X38280Y382925D01*
X37331Y383654D01*
X36225Y384111D01*
X35039Y384267D01*
D02*
G37*
G36*
X588976Y387448D02*
X587738Y387326D01*
X586548Y386965D01*
X585451Y386379D01*
X584489Y385589D01*
X583700Y384628D01*
X583114Y383531D01*
X582753Y382340D01*
X582631Y381102D01*
X582753Y379864D01*
X583114Y378674D01*
X583700Y377577D01*
X584489Y376615D01*
X585451Y375826D01*
X586548Y375240D01*
X587738Y374879D01*
X588976Y374757D01*
X590214Y374879D01*
X591405Y375240D01*
X592502Y375826D01*
X593463Y376615D01*
X594252Y377577D01*
X594839Y378674D01*
X595200Y379864D01*
X595322Y381102D01*
X595200Y382340D01*
X594839Y383531D01*
X594252Y384628D01*
X593463Y385589D01*
X592502Y386379D01*
X591405Y386965D01*
X590214Y387326D01*
X588976Y387448D01*
D02*
G37*
G36*
X379921D02*
X378683Y387326D01*
X377493Y386965D01*
X376396Y386379D01*
X375434Y385589D01*
X374645Y384628D01*
X374059Y383531D01*
X373698Y382340D01*
X373576Y381102D01*
X373698Y379864D01*
X374059Y378674D01*
X374645Y377577D01*
X375434Y376615D01*
X376396Y375826D01*
X377493Y375240D01*
X378683Y374879D01*
X379921Y374757D01*
X381159Y374879D01*
X382350Y375240D01*
X383447Y375826D01*
X384408Y376615D01*
X385197Y377577D01*
X385784Y378674D01*
X386145Y379864D01*
X386267Y381102D01*
X386145Y382340D01*
X385784Y383531D01*
X385197Y384628D01*
X384408Y385589D01*
X383447Y386379D01*
X382350Y386965D01*
X381159Y387326D01*
X379921Y387448D01*
D02*
G37*
G36*
X13386D02*
X12148Y387326D01*
X10958Y386965D01*
X9860Y386379D01*
X8899Y385589D01*
X8110Y384628D01*
X7523Y383531D01*
X7162Y382340D01*
X7040Y381102D01*
X7162Y379864D01*
X7523Y378674D01*
X8110Y377577D01*
X8899Y376615D01*
X9860Y375826D01*
X10958Y375240D01*
X12148Y374879D01*
X13386Y374757D01*
X14624Y374879D01*
X15814Y375240D01*
X16911Y375826D01*
X17873Y376615D01*
X18662Y377577D01*
X19248Y378674D01*
X19609Y379864D01*
X19731Y381102D01*
X19609Y382340D01*
X19248Y383531D01*
X18662Y384628D01*
X17873Y385589D01*
X16911Y386379D01*
X15814Y386965D01*
X14624Y387326D01*
X13386Y387448D01*
D02*
G37*
G36*
X294882Y383874D02*
X293696Y383718D01*
X292591Y383260D01*
X291642Y382532D01*
X290913Y381583D01*
X290456Y380477D01*
X290299Y379291D01*
X290456Y378105D01*
X290913Y377000D01*
X291642Y376051D01*
X292591Y375323D01*
X293696Y374865D01*
X294882Y374709D01*
X296068Y374865D01*
X297173Y375323D01*
X298122Y376051D01*
X298850Y377000D01*
X299308Y378105D01*
X299464Y379291D01*
X299308Y380477D01*
X298850Y381583D01*
X298122Y382532D01*
X297173Y383260D01*
X296068Y383718D01*
X294882Y383874D01*
D02*
G37*
G36*
X271260D02*
X270074Y383718D01*
X268969Y383260D01*
X268020Y382532D01*
X267291Y381583D01*
X266833Y380477D01*
X266677Y379291D01*
X266833Y378105D01*
X267291Y377000D01*
X268020Y376051D01*
X268969Y375323D01*
X270074Y374865D01*
X271260Y374709D01*
X272446Y374865D01*
X273551Y375323D01*
X274500Y376051D01*
X275228Y377000D01*
X275686Y378105D01*
X275842Y379291D01*
X275686Y380477D01*
X275228Y381583D01*
X274500Y382532D01*
X273551Y383260D01*
X272446Y383718D01*
X271260Y383874D01*
D02*
G37*
G36*
X247638D02*
X246452Y383718D01*
X245346Y383260D01*
X244397Y382532D01*
X243669Y381583D01*
X243211Y380477D01*
X243055Y379291D01*
X243211Y378105D01*
X243669Y377000D01*
X244397Y376051D01*
X245346Y375323D01*
X246452Y374865D01*
X247638Y374709D01*
X248824Y374865D01*
X249929Y375323D01*
X250878Y376051D01*
X251606Y377000D01*
X252064Y378105D01*
X252220Y379291D01*
X252064Y380477D01*
X251606Y381583D01*
X250878Y382532D01*
X249929Y383260D01*
X248824Y383718D01*
X247638Y383874D01*
D02*
G37*
G36*
X224016D02*
X222830Y383718D01*
X221725Y383260D01*
X220775Y382532D01*
X220047Y381583D01*
X219589Y380477D01*
X219433Y379291D01*
X219589Y378105D01*
X220047Y377000D01*
X220775Y376051D01*
X221725Y375323D01*
X222830Y374865D01*
X224016Y374709D01*
X225202Y374865D01*
X226307Y375323D01*
X227256Y376051D01*
X227984Y377000D01*
X228442Y378105D01*
X228598Y379291D01*
X228442Y380477D01*
X227984Y381583D01*
X227256Y382532D01*
X226307Y383260D01*
X225202Y383718D01*
X224016Y383874D01*
D02*
G37*
G36*
X200394D02*
X199208Y383718D01*
X198102Y383260D01*
X197153Y382532D01*
X196425Y381583D01*
X195967Y380477D01*
X195811Y379291D01*
X195967Y378105D01*
X196425Y377000D01*
X197153Y376051D01*
X198102Y375323D01*
X199208Y374865D01*
X200394Y374709D01*
X201580Y374865D01*
X202685Y375323D01*
X203634Y376051D01*
X204362Y377000D01*
X204820Y378105D01*
X204976Y379291D01*
X204820Y380477D01*
X204362Y381583D01*
X203634Y382532D01*
X202685Y383260D01*
X201580Y383718D01*
X200394Y383874D01*
D02*
G37*
G36*
X176772D02*
X175586Y383718D01*
X174480Y383260D01*
X173531Y382532D01*
X172803Y381583D01*
X172345Y380477D01*
X172189Y379291D01*
X172345Y378105D01*
X172803Y377000D01*
X173531Y376051D01*
X174480Y375323D01*
X175586Y374865D01*
X176772Y374709D01*
X177958Y374865D01*
X179063Y375323D01*
X180012Y376051D01*
X180740Y377000D01*
X181198Y378105D01*
X181354Y379291D01*
X181198Y380477D01*
X180740Y381583D01*
X180012Y382532D01*
X179063Y383260D01*
X177958Y383718D01*
X176772Y383874D01*
D02*
G37*
G36*
X153150D02*
X151964Y383718D01*
X150858Y383260D01*
X149909Y382532D01*
X149181Y381583D01*
X148723Y380477D01*
X148567Y379291D01*
X148723Y378105D01*
X149181Y377000D01*
X149909Y376051D01*
X150858Y375323D01*
X151964Y374865D01*
X153150Y374709D01*
X154336Y374865D01*
X155441Y375323D01*
X156390Y376051D01*
X157118Y377000D01*
X157576Y378105D01*
X157732Y379291D01*
X157576Y380477D01*
X157118Y381583D01*
X156390Y382532D01*
X155441Y383260D01*
X154336Y383718D01*
X153150Y383874D01*
D02*
G37*
G36*
X129528D02*
X128341Y383718D01*
X127236Y383260D01*
X126287Y382532D01*
X125559Y381583D01*
X125101Y380477D01*
X124945Y379291D01*
X125101Y378105D01*
X125559Y377000D01*
X126287Y376051D01*
X127236Y375323D01*
X128341Y374865D01*
X129528Y374709D01*
X130714Y374865D01*
X131819Y375323D01*
X132768Y376051D01*
X133496Y377000D01*
X133954Y378105D01*
X134110Y379291D01*
X133954Y380477D01*
X133496Y381583D01*
X132768Y382532D01*
X131819Y383260D01*
X130714Y383718D01*
X129528Y383874D01*
D02*
G37*
G36*
X450394Y383480D02*
X449208Y383324D01*
X448103Y382866D01*
X447153Y382138D01*
X446425Y381189D01*
X445967Y380084D01*
X445811Y378898D01*
X445967Y377712D01*
X446425Y376606D01*
X447153Y375657D01*
X448103Y374929D01*
X449208Y374471D01*
X450394Y374315D01*
X451580Y374471D01*
X452685Y374929D01*
X453634Y375657D01*
X454362Y376606D01*
X454820Y377712D01*
X454976Y378898D01*
X454820Y380084D01*
X454362Y381189D01*
X453634Y382138D01*
X452685Y382866D01*
X451580Y383324D01*
X450394Y383480D01*
D02*
G37*
G36*
X403150D02*
X401964Y383324D01*
X400858Y382866D01*
X399909Y382138D01*
X399181Y381189D01*
X398723Y380084D01*
X398567Y378898D01*
X398723Y377712D01*
X399181Y376606D01*
X399909Y375657D01*
X400858Y374929D01*
X401964Y374471D01*
X403150Y374315D01*
X404336Y374471D01*
X405441Y374929D01*
X406390Y375657D01*
X407118Y376606D01*
X407576Y377712D01*
X407732Y378898D01*
X407576Y380084D01*
X407118Y381189D01*
X406390Y382138D01*
X405441Y382866D01*
X404336Y383324D01*
X403150Y383480D01*
D02*
G37*
G36*
X511417Y381905D02*
X510231Y381749D01*
X509126Y381291D01*
X508177Y380563D01*
X507449Y379614D01*
X506991Y378509D01*
X506835Y377323D01*
X506991Y376137D01*
X507449Y375032D01*
X508177Y374082D01*
X509126Y373354D01*
X510231Y372897D01*
X511417Y372740D01*
X512603Y372897D01*
X513709Y373354D01*
X514658Y374082D01*
X515386Y375032D01*
X515844Y376137D01*
X516000Y377323D01*
X515844Y378509D01*
X515386Y379614D01*
X514658Y380563D01*
X513709Y381291D01*
X512603Y381749D01*
X511417Y381905D01*
D02*
G37*
G36*
X487795D02*
X486609Y381749D01*
X485504Y381291D01*
X484555Y380563D01*
X483827Y379614D01*
X483369Y378509D01*
X483213Y377323D01*
X483369Y376137D01*
X483827Y375032D01*
X484555Y374082D01*
X485504Y373354D01*
X486609Y372897D01*
X487795Y372740D01*
X488981Y372897D01*
X490087Y373354D01*
X491036Y374082D01*
X491764Y375032D01*
X492222Y376137D01*
X492378Y377323D01*
X492222Y378509D01*
X491764Y379614D01*
X491036Y380563D01*
X490087Y381291D01*
X488981Y381749D01*
X487795Y381905D01*
D02*
G37*
G36*
X559842Y381905D02*
X558657Y381749D01*
X557551Y381291D01*
X556602Y380563D01*
X555874Y379614D01*
X555416Y378509D01*
X555260Y377323D01*
X555416Y376137D01*
X555874Y375032D01*
X556602Y374082D01*
X557551Y373354D01*
X558657Y372897D01*
X559842Y372740D01*
X561029Y372897D01*
X562134Y373354D01*
X563083Y374082D01*
X563811Y375032D01*
X564269Y376137D01*
X564425Y377323D01*
X564269Y378509D01*
X563811Y379614D01*
X563083Y380563D01*
X562134Y381291D01*
X561029Y381749D01*
X559842Y381905D01*
D02*
G37*
G36*
X536221D02*
X535035Y381749D01*
X533929Y381291D01*
X532980Y380563D01*
X532252Y379614D01*
X531794Y378509D01*
X531638Y377323D01*
X531794Y376137D01*
X532252Y375032D01*
X532980Y374082D01*
X533929Y373354D01*
X535035Y372897D01*
X536221Y372740D01*
X537406Y372897D01*
X538512Y373354D01*
X539461Y374082D01*
X540189Y375032D01*
X540647Y376137D01*
X540803Y377323D01*
X540647Y378509D01*
X540189Y379614D01*
X539461Y380563D01*
X538512Y381291D01*
X537406Y381749D01*
X536221Y381905D01*
D02*
G37*
G36*
X98638Y368717D02*
X89551D01*
Y359630D01*
X98638D01*
Y368717D01*
D02*
G37*
G36*
X51394D02*
X42307D01*
Y359630D01*
X51394D01*
Y368717D01*
D02*
G37*
G36*
X287614Y368323D02*
X278528D01*
Y359236D01*
X287614D01*
Y368323D01*
D02*
G37*
G36*
X240370D02*
X231283D01*
Y359236D01*
X240370D01*
Y368323D01*
D02*
G37*
G36*
X193126D02*
X184039D01*
Y359236D01*
X193126D01*
Y368323D01*
D02*
G37*
G36*
X145882D02*
X136795D01*
Y359236D01*
X145882D01*
Y368323D01*
D02*
G37*
G36*
X342126Y367571D02*
X341043Y367429D01*
X340033Y367010D01*
X339166Y366345D01*
X338501Y365478D01*
X338083Y364469D01*
X337941Y363386D01*
X338083Y362303D01*
X338501Y361293D01*
X339166Y360426D01*
X340033Y359761D01*
X341043Y359343D01*
X342126Y359200D01*
X343209Y359343D01*
X344219Y359761D01*
X345086Y360426D01*
X345751Y361293D01*
X346169Y362303D01*
X346311Y363386D01*
X346169Y364469D01*
X345751Y365478D01*
X345086Y366345D01*
X344219Y367010D01*
X343209Y367429D01*
X342126Y367571D01*
D02*
G37*
G36*
X330315D02*
X329232Y367429D01*
X328222Y367010D01*
X327355Y366345D01*
X326690Y365478D01*
X326272Y364469D01*
X326130Y363386D01*
X326272Y362303D01*
X326690Y361293D01*
X327355Y360426D01*
X328222Y359761D01*
X329232Y359343D01*
X330315Y359200D01*
X331398Y359343D01*
X332408Y359761D01*
X333275Y360426D01*
X333940Y361293D01*
X334358Y362303D01*
X334500Y363386D01*
X334358Y364469D01*
X333940Y365478D01*
X333275Y366345D01*
X332408Y367010D01*
X331398Y367429D01*
X330315Y367571D01*
D02*
G37*
G36*
X443126Y367929D02*
X434039D01*
Y358842D01*
X443126D01*
Y367929D01*
D02*
G37*
G36*
X426772Y367968D02*
X425586Y367812D01*
X424480Y367354D01*
X423531Y366626D01*
X422803Y365677D01*
X422345Y364572D01*
X422189Y363386D01*
X422345Y362200D01*
X422803Y361095D01*
X423531Y360145D01*
X424480Y359417D01*
X425586Y358960D01*
X426772Y358803D01*
X427958Y358960D01*
X429063Y359417D01*
X430012Y360145D01*
X430740Y361095D01*
X431198Y362200D01*
X431354Y363386D01*
X431198Y364572D01*
X430740Y365677D01*
X430012Y366626D01*
X429063Y367354D01*
X427958Y367812D01*
X426772Y367968D01*
D02*
G37*
G36*
X414961D02*
X413775Y367812D01*
X412669Y367354D01*
X411720Y366626D01*
X410992Y365677D01*
X410534Y364572D01*
X410378Y363386D01*
X410534Y362200D01*
X410992Y361095D01*
X411720Y360145D01*
X412669Y359417D01*
X413775Y358960D01*
X414961Y358803D01*
X416147Y358960D01*
X417252Y359417D01*
X418201Y360145D01*
X418929Y361095D01*
X419387Y362200D01*
X419543Y363386D01*
X419387Y364572D01*
X418929Y365677D01*
X418201Y366626D01*
X417252Y367354D01*
X416147Y367812D01*
X414961Y367968D01*
D02*
G37*
G36*
X504150Y366354D02*
X495063D01*
Y357268D01*
X504150D01*
Y366354D01*
D02*
G37*
G36*
X552575Y366354D02*
X543488D01*
Y357268D01*
X552575D01*
Y366354D01*
D02*
G37*
G36*
X576673Y298379D02*
X575937Y298233D01*
X575568Y297986D01*
X557368D01*
X556782Y297870D01*
X556286Y297538D01*
X549434Y290686D01*
X549103Y290190D01*
X548986Y289605D01*
Y288274D01*
X548486Y288014D01*
X547835Y288143D01*
X547099Y287997D01*
X546475Y287580D01*
X546058Y286956D01*
X545971Y286520D01*
X542871Y283419D01*
X460645D01*
X460453Y283881D01*
X461263Y284691D01*
X496335D01*
X496705Y284444D01*
X497441Y284298D01*
X498177Y284444D01*
X498801Y284861D01*
X499217Y285485D01*
X499364Y286221D01*
X499217Y286956D01*
X498801Y287580D01*
X498177Y287997D01*
X497441Y288143D01*
X496705Y287997D01*
X496335Y287750D01*
X460630D01*
X460045Y287633D01*
X459549Y287302D01*
X448914Y276668D01*
X448372Y276832D01*
X448292Y277232D01*
X447875Y277856D01*
X447252Y278273D01*
X446516Y278419D01*
X445780Y278273D01*
X445156Y277856D01*
X445006Y277630D01*
X444404D01*
X444175Y277974D01*
X443551Y278391D01*
X442815Y278537D01*
X442079Y278391D01*
X441455Y277974D01*
X441114Y278301D01*
X441442Y278792D01*
X441588Y279528D01*
X441442Y280263D01*
X441025Y280887D01*
X440401Y281304D01*
X439665Y281450D01*
X438930Y281304D01*
X438306Y280887D01*
X437889Y280263D01*
X437743Y279528D01*
X437889Y278792D01*
X438306Y278168D01*
X438930Y277751D01*
X439665Y277605D01*
X440401Y277751D01*
X441025Y278168D01*
X441366Y277840D01*
X441039Y277350D01*
X440952Y276914D01*
X433308Y269269D01*
X431436D01*
X431245Y269731D01*
X436146Y274633D01*
X436582Y274720D01*
X437206Y275136D01*
X437623Y275760D01*
X437769Y276496D01*
X437623Y277232D01*
X437206Y277856D01*
X436582Y278273D01*
X435847Y278419D01*
X435111Y278273D01*
X434487Y277856D01*
X434070Y277232D01*
X433983Y276796D01*
X428599Y271411D01*
X341157D01*
X340965Y271873D01*
X341578Y272486D01*
X379823D01*
X380408Y272603D01*
X380904Y272934D01*
X384552Y276582D01*
X384988Y276668D01*
X385612Y277085D01*
X386028Y277709D01*
X386175Y278445D01*
X386028Y279181D01*
X385612Y279804D01*
X384988Y280221D01*
X384252Y280368D01*
X383516Y280221D01*
X382892Y279804D01*
X382476Y279181D01*
X382389Y278745D01*
X379189Y275545D01*
X342732D01*
X342464Y276045D01*
X342721Y276430D01*
X342868Y277165D01*
X342721Y277901D01*
X342304Y278525D01*
X341681Y278942D01*
X340945Y279088D01*
X340209Y278942D01*
X339839Y278695D01*
X335535D01*
X335124Y279195D01*
X335191Y279528D01*
X335044Y280263D01*
X334627Y280887D01*
X334003Y281304D01*
X333268Y281450D01*
X332532Y281304D01*
X331908Y280887D01*
X331491Y280263D01*
X331345Y279528D01*
X331491Y278792D01*
X331908Y278168D01*
X332354Y277870D01*
X332263Y277364D01*
X332248Y277339D01*
X332162Y277322D01*
X331666Y276991D01*
X315454Y260779D01*
X315123Y260282D01*
X315006Y259697D01*
Y158800D01*
X296319Y140112D01*
X289295D01*
X288925Y140359D01*
X288189Y140505D01*
X287453Y140359D01*
X286829Y139942D01*
X286413Y139319D01*
X286266Y138583D01*
X286413Y137847D01*
X286446Y137797D01*
X286210Y137356D01*
X197506D01*
X197315Y137818D01*
X199357Y139860D01*
X253988D01*
X254573Y139977D01*
X255070Y140308D01*
X258567Y143806D01*
X259003Y143893D01*
X259627Y144310D01*
X260044Y144933D01*
X260191Y145669D01*
X260044Y146405D01*
X259627Y147029D01*
X259003Y147446D01*
X258268Y147592D01*
X257532Y147446D01*
X256908Y147029D01*
X256577Y146533D01*
X256474Y146505D01*
X256124D01*
X256021Y146533D01*
X255690Y147029D01*
X255066Y147446D01*
X254331Y147592D01*
X253595Y147446D01*
X252971Y147029D01*
X252554Y146405D01*
X252467Y145969D01*
X251016Y144518D01*
X249691D01*
X249431Y145018D01*
X249561Y145669D01*
X249414Y146405D01*
X248997Y147029D01*
X248374Y147446D01*
X247638Y147592D01*
X246902Y147446D01*
X246532Y147199D01*
X198425D01*
X197840Y147082D01*
X197344Y146751D01*
X189699Y139106D01*
X189311Y139425D01*
X189572Y139815D01*
X189718Y140551D01*
X189572Y141287D01*
X189325Y141657D01*
Y199468D01*
X198719Y208863D01*
X199051Y209359D01*
X199167Y209944D01*
Y232484D01*
X199667Y232628D01*
X200303Y231799D01*
X201252Y231071D01*
X202357Y230613D01*
X203543Y230457D01*
X204729Y230613D01*
X205835Y231071D01*
X206784Y231799D01*
X207512Y232748D01*
X207970Y233853D01*
X208126Y235039D01*
X207970Y236225D01*
X207512Y237331D01*
X206784Y238280D01*
X205835Y239008D01*
X204729Y239466D01*
X203543Y239622D01*
X202357Y239466D01*
X201252Y239008D01*
X200303Y238280D01*
X199667Y237451D01*
X199167Y237595D01*
Y255577D01*
X214108Y270518D01*
X262992D01*
X263577Y270634D01*
X264074Y270966D01*
X272347Y279239D01*
X272783Y279326D01*
X273407Y279743D01*
X273824Y280367D01*
X273970Y281102D01*
X273824Y281838D01*
X273407Y282462D01*
X272783Y282879D01*
X272047Y283025D01*
X271311Y282879D01*
X270688Y282462D01*
X270271Y281838D01*
X270184Y281402D01*
X262457Y273675D01*
X262182Y273710D01*
X262002Y274236D01*
X265186Y277421D01*
X265263Y277436D01*
X265887Y277853D01*
X266304Y278477D01*
X266450Y279213D01*
X266304Y279948D01*
X265887Y280572D01*
X265263Y280989D01*
X264528Y281135D01*
X263792Y280989D01*
X263168Y280572D01*
X263026Y280359D01*
X262526D01*
X262383Y280572D01*
X261759Y280989D01*
X261024Y281135D01*
X260288Y280989D01*
X260024Y280813D01*
X259681Y281126D01*
X259653Y281166D01*
X259797Y281890D01*
X259650Y282626D01*
X259234Y283249D01*
X258610Y283666D01*
X257874Y283812D01*
X257138Y283666D01*
X256514Y283249D01*
X256098Y282626D01*
X255951Y281890D01*
X256098Y281154D01*
X256514Y280530D01*
X257138Y280113D01*
X257874Y279967D01*
X258610Y280113D01*
X258793Y280236D01*
X259186Y279925D01*
X259155Y279507D01*
X256422Y276774D01*
X254694D01*
X254644Y277274D01*
X255066Y277358D01*
X255690Y277774D01*
X256107Y278398D01*
X256254Y279134D01*
X256107Y279870D01*
X255690Y280493D01*
X255066Y280910D01*
X254331Y281057D01*
X253595Y280910D01*
X253225Y280663D01*
X213779D01*
X213194Y280547D01*
X212698Y280215D01*
X193235Y260753D01*
X192773Y260944D01*
Y276531D01*
X192968Y276570D01*
X193592Y276987D01*
X194009Y277611D01*
X194155Y278346D01*
X194009Y279082D01*
X193592Y279706D01*
X192968Y280123D01*
X192232Y280269D01*
X191497Y280123D01*
X190873Y279706D01*
X190456Y279082D01*
X190369Y278646D01*
X190163Y278440D01*
X189831Y277943D01*
X189715Y277358D01*
Y236931D01*
X189215Y236831D01*
X189008Y237331D01*
X188280Y238280D01*
X187331Y239008D01*
X186225Y239466D01*
X185039Y239622D01*
X183853Y239466D01*
X182748Y239008D01*
X181799Y238280D01*
X181071Y237331D01*
X180613Y236225D01*
X180457Y235039D01*
X180613Y233853D01*
X181071Y232748D01*
X181799Y231799D01*
X182748Y231071D01*
X183853Y230613D01*
X185039Y230457D01*
X186225Y230613D01*
X187331Y231071D01*
X188280Y231799D01*
X189008Y232748D01*
X189215Y233247D01*
X189715Y233148D01*
Y214611D01*
X142147Y167043D01*
X141685Y167234D01*
Y195278D01*
X148841Y202434D01*
X149173Y202930D01*
X149289Y203515D01*
Y207752D01*
X149173Y208337D01*
X148841Y208833D01*
X131892Y225783D01*
Y261225D01*
X143130Y272463D01*
X165540D01*
X166125Y272579D01*
X166621Y272911D01*
X170639Y276928D01*
X170814Y276963D01*
X171438Y277380D01*
X171855Y278004D01*
X172001Y278740D01*
X171855Y279475D01*
X171438Y280099D01*
X170814Y280516D01*
X170078Y280662D01*
X169343Y280516D01*
X168719Y280099D01*
X168621Y279953D01*
X168020D01*
X167895Y280139D01*
X167271Y280556D01*
X166535Y280702D01*
X165800Y280556D01*
X165696Y280487D01*
X165246Y280787D01*
X165309Y281102D01*
X165162Y281838D01*
X164745Y282462D01*
X164122Y282879D01*
X163386Y283025D01*
X162650Y282879D01*
X162026Y282462D01*
X161609Y281838D01*
X161463Y281102D01*
X161609Y280367D01*
X161202Y280100D01*
X160578Y280517D01*
X159843Y280663D01*
X159107Y280517D01*
X158483Y280100D01*
X158383Y279951D01*
X142201D01*
X141615Y279834D01*
X141119Y279503D01*
X126084Y264467D01*
X125752Y263971D01*
X125636Y263386D01*
Y223224D01*
X125752Y222639D01*
X126084Y222143D01*
X135429Y212798D01*
Y145343D01*
X135018Y145078D01*
X134929Y145087D01*
X134213Y145230D01*
X133477Y145083D01*
X132853Y144667D01*
X132711Y144454D01*
X132211D01*
X132068Y144667D01*
X131445Y145083D01*
X130709Y145230D01*
X129973Y145083D01*
X129349Y144667D01*
X128932Y144043D01*
X128786Y143307D01*
X128932Y142571D01*
X129179Y142202D01*
Y123622D01*
X129260Y123216D01*
X128799Y122970D01*
X125624Y126145D01*
Y142202D01*
X125871Y142571D01*
X126017Y143307D01*
X125871Y144043D01*
X125454Y144667D01*
X124830Y145083D01*
X124094Y145230D01*
X123359Y145083D01*
X122735Y144667D01*
X122318Y144043D01*
X122172Y143307D01*
X122318Y142571D01*
X122565Y142202D01*
Y125512D01*
X122681Y124926D01*
X123013Y124430D01*
X130360Y117083D01*
Y86145D01*
X130113Y85775D01*
X129967Y85039D01*
X130113Y84304D01*
X130530Y83680D01*
X131154Y83263D01*
X131890Y83117D01*
X132626Y83263D01*
X133249Y83680D01*
X133581Y84175D01*
X133684Y84203D01*
X134033D01*
X134136Y84175D01*
X134467Y83680D01*
X135091Y83263D01*
X135827Y83117D01*
X136563Y83263D01*
X137186Y83680D01*
X137517Y84175D01*
X137621Y84203D01*
X137970D01*
X138073Y84175D01*
X138404Y83680D01*
X139028Y83263D01*
X139764Y83117D01*
X140500Y83263D01*
X141123Y83680D01*
X141455Y84175D01*
X141558Y84203D01*
X141907D01*
X142010Y84175D01*
X142341Y83680D01*
X142965Y83263D01*
X143701Y83117D01*
X144437Y83263D01*
X145060Y83680D01*
X145391Y84175D01*
X145495Y84203D01*
X145844D01*
X145947Y84175D01*
X146278Y83680D01*
X146902Y83263D01*
X147638Y83117D01*
X148374Y83263D01*
X148997Y83680D01*
X149328Y84175D01*
X149432Y84203D01*
X149781D01*
X149884Y84175D01*
X150215Y83680D01*
X150839Y83263D01*
X151575Y83117D01*
X152311Y83263D01*
X152934Y83680D01*
X153266Y84175D01*
X153369Y84203D01*
X153718D01*
X153821Y84175D01*
X154152Y83680D01*
X154776Y83263D01*
X155512Y83117D01*
X156248Y83263D01*
X156871Y83680D01*
X157202Y84175D01*
X157306Y84203D01*
X157655D01*
X157758Y84175D01*
X158089Y83680D01*
X158713Y83263D01*
X159449Y83117D01*
X160185Y83263D01*
X160569Y83520D01*
X161069Y83253D01*
Y80358D01*
X156256Y75545D01*
X141732D01*
X141147Y75429D01*
X140651Y75097D01*
X134216Y68662D01*
X133884Y68166D01*
X133768Y67581D01*
Y56829D01*
X133884Y56243D01*
X134216Y55747D01*
X142270Y47693D01*
X142766Y47362D01*
X143351Y47245D01*
X156245D01*
X156505Y46745D01*
X156376Y46093D01*
X156522Y45358D01*
X156939Y44734D01*
X157562Y44317D01*
X158298Y44171D01*
X158822Y44275D01*
X158889Y44239D01*
X159215Y43883D01*
X159215Y43882D01*
X159100Y43307D01*
X159247Y42571D01*
X159664Y41947D01*
X160287Y41531D01*
X161023Y41384D01*
X161759Y41531D01*
X162241Y41853D01*
X191021D01*
X191390Y41605D01*
X192126Y41459D01*
X192862Y41605D01*
X193231Y41853D01*
X239097D01*
X239248Y41751D01*
X239984Y41605D01*
X240720Y41751D01*
X241090Y41998D01*
X263815D01*
X295554Y10259D01*
X295362Y9797D01*
X130161D01*
X82632Y57326D01*
X82632Y152761D01*
X82515Y153346D01*
X82184Y153842D01*
X71651Y164374D01*
X71565Y164811D01*
X71317Y165180D01*
Y186447D01*
X71464Y186666D01*
X71610Y187402D01*
X71464Y188137D01*
X71430Y188187D01*
X71666Y188628D01*
X77635D01*
X78004Y188381D01*
X78740Y188235D01*
X79476Y188381D01*
X80100Y188798D01*
X80517Y189422D01*
X80663Y190157D01*
X80517Y190893D01*
X80100Y191517D01*
X79476Y191934D01*
X78740Y192080D01*
X78004Y191934D01*
X77635Y191687D01*
X52602D01*
X43262Y201027D01*
Y218186D01*
X43509Y218555D01*
X43655Y219291D01*
X43509Y220027D01*
X43092Y220651D01*
X42468Y221068D01*
X41732Y221214D01*
X40997Y221068D01*
X40373Y220651D01*
X39956Y220027D01*
X39810Y219291D01*
X39956Y218555D01*
X40203Y218186D01*
Y200394D01*
X40319Y199808D01*
X40651Y199312D01*
X50887Y189076D01*
X51383Y188744D01*
X51968Y188628D01*
X63825D01*
Y164717D01*
X63941Y164132D01*
X64273Y163636D01*
X75636Y152272D01*
Y28740D01*
X75752Y28155D01*
X76084Y27659D01*
X95763Y7980D01*
X95850Y7544D01*
X96266Y6920D01*
X96890Y6503D01*
X97626Y6357D01*
X98362Y6503D01*
X98985Y6920D01*
X99402Y7544D01*
X99549Y8280D01*
X99402Y9015D01*
X98985Y9639D01*
X98362Y10056D01*
X97926Y10143D01*
X78695Y29374D01*
Y152298D01*
X79195Y152505D01*
X79573Y152127D01*
X79573Y56693D01*
X79689Y56108D01*
X80021Y55611D01*
X128446Y7186D01*
X128942Y6855D01*
X129527Y6738D01*
X308685D01*
X309270Y6855D01*
X309767Y7186D01*
X329896Y27316D01*
X333953D01*
X334213Y26816D01*
X334084Y26164D01*
X334230Y25428D01*
X334647Y24804D01*
X335271Y24387D01*
X335707Y24301D01*
X339510Y20497D01*
X340006Y20166D01*
X340592Y20049D01*
X367238D01*
X367498Y19549D01*
X367369Y18898D01*
X367515Y18162D01*
X367932Y17538D01*
X368555Y17121D01*
X368740Y16575D01*
X368601Y16353D01*
X368555Y16343D01*
X367932Y15926D01*
X367515Y15303D01*
X367369Y14567D01*
X367503Y13892D01*
X367449Y13709D01*
X367280Y13392D01*
X342708D01*
X334540Y21560D01*
X334454Y21996D01*
X334037Y22619D01*
X333413Y23036D01*
X332677Y23183D01*
X331941Y23036D01*
X331318Y22619D01*
X330901Y21996D01*
X330754Y21260D01*
X330901Y20524D01*
X331318Y19900D01*
X331941Y19483D01*
X332377Y19397D01*
X340993Y10781D01*
X341490Y10449D01*
X342075Y10333D01*
X424067D01*
X424652Y10449D01*
X425148Y10781D01*
X450591Y36224D01*
X484122D01*
X484358Y35724D01*
X484190Y34875D01*
X484374Y33947D01*
X484900Y33161D01*
X485686Y32635D01*
X486614Y32451D01*
X487542Y32635D01*
X488329Y33161D01*
X488854Y33947D01*
X489039Y34875D01*
X488870Y35724D01*
X489107Y36224D01*
X499649D01*
X500234Y36340D01*
X500730Y36672D01*
X502687Y38628D01*
X504331D01*
X504916Y38745D01*
X505412Y39076D01*
X510930Y44594D01*
X511366Y44680D01*
X511989Y45097D01*
X512406Y45721D01*
X512553Y46457D01*
X512406Y47192D01*
X511989Y47816D01*
X511366Y48233D01*
X510630Y48379D01*
X509894Y48233D01*
X509270Y47816D01*
X508853Y47192D01*
X508767Y46756D01*
X503697Y41687D01*
X502053D01*
X501468Y41570D01*
X500972Y41239D01*
X499015Y39282D01*
X496162D01*
X495771Y39782D01*
X495846Y40157D01*
X495700Y40893D01*
X495283Y41517D01*
X494659Y41934D01*
X493923Y42080D01*
X493187Y41934D01*
X492564Y41517D01*
X492147Y40893D01*
X492144Y40881D01*
X490154D01*
X489962Y41343D01*
X491245Y42625D01*
X491681Y42712D01*
X492305Y43129D01*
X492721Y43752D01*
X492868Y44488D01*
X492721Y45224D01*
X492383Y45730D01*
X492335Y46062D01*
X492383Y46397D01*
X492720Y46902D01*
X492867Y47638D01*
X492796Y47994D01*
X493195Y48494D01*
X508291D01*
X508877Y48611D01*
X509373Y48942D01*
X509689Y49258D01*
X512674D01*
X513044Y49011D01*
X513779Y48865D01*
X514515Y49011D01*
X515139Y49428D01*
X515556Y50052D01*
X515702Y50787D01*
X515556Y51523D01*
X515139Y52147D01*
X514515Y52564D01*
X513779Y52710D01*
X513044Y52564D01*
X512674Y52317D01*
X510645D01*
X510453Y52779D01*
X510930Y53255D01*
X511366Y53342D01*
X511989Y53759D01*
X512406Y54382D01*
X512553Y55118D01*
X512406Y55854D01*
X511989Y56478D01*
X511366Y56894D01*
X510630Y57041D01*
X509894Y56894D01*
X509270Y56478D01*
X508853Y55854D01*
X508767Y55418D01*
X506823Y53474D01*
X500779D01*
X500587Y53936D01*
X511717Y65066D01*
X512153Y65153D01*
X512777Y65570D01*
X513194Y66193D01*
X513340Y66929D01*
X513194Y67665D01*
X512777Y68289D01*
X512153Y68706D01*
X511969Y69252D01*
X512108Y69474D01*
X512153Y69483D01*
X512777Y69900D01*
X513194Y70524D01*
X513340Y71260D01*
X513194Y71996D01*
X512777Y72619D01*
X512153Y73036D01*
X511974Y73072D01*
Y73582D01*
X512153Y73617D01*
X512777Y74034D01*
X513194Y74658D01*
X513340Y75394D01*
X513194Y76129D01*
X512777Y76753D01*
X512153Y77170D01*
X511417Y77316D01*
X510681Y77170D01*
X510058Y76753D01*
X509641Y76129D01*
X509554Y75693D01*
X499495Y65634D01*
X495177D01*
X494941Y66075D01*
X495020Y66193D01*
X495166Y66929D01*
X495020Y67665D01*
X494603Y68289D01*
X493979Y68706D01*
X493244Y68852D01*
X492508Y68706D01*
X491884Y68289D01*
X491467Y67665D01*
X491321Y66929D01*
X491467Y66193D01*
X491546Y66075D01*
X491310Y65634D01*
X471184D01*
X470815Y65881D01*
X470079Y66028D01*
X469343Y65881D01*
X468973Y65634D01*
X459395D01*
X459204Y66096D01*
X483753Y90645D01*
X484194Y90410D01*
X484190Y90387D01*
X484374Y89459D01*
X484900Y88672D01*
X485686Y88147D01*
X486614Y87962D01*
X487542Y88147D01*
X488329Y88672D01*
X488854Y89459D01*
X489039Y90387D01*
X488854Y91315D01*
X488329Y92101D01*
X487542Y92627D01*
X486614Y92811D01*
X486591Y92807D01*
X486355Y93248D01*
X506593Y113486D01*
X506925Y113982D01*
X507041Y114567D01*
Y234666D01*
X551597Y279222D01*
X551929Y279718D01*
X552045Y280304D01*
Y288971D01*
X558001Y294927D01*
X575568D01*
X575937Y294680D01*
X576673Y294534D01*
X577409Y294680D01*
X578033Y295097D01*
X578450Y295721D01*
X578596Y296457D01*
X578450Y297193D01*
X578033Y297816D01*
X577409Y298233D01*
X576673Y298379D01*
D02*
G37*
G36*
X554609Y288143D02*
X553873Y287997D01*
X553250Y287580D01*
X552833Y286956D01*
X552687Y286221D01*
X552833Y285485D01*
X553250Y284861D01*
X553873Y284444D01*
X554609Y284298D01*
X555345Y284444D01*
X555969Y284861D01*
X556386Y285485D01*
X556532Y286221D01*
X556386Y286956D01*
X555969Y287580D01*
X555345Y287997D01*
X554609Y288143D01*
D02*
G37*
G36*
X505118D02*
X504382Y287997D01*
X503758Y287580D01*
X503342Y286956D01*
X503195Y286221D01*
X503342Y285485D01*
X503758Y284861D01*
X504382Y284444D01*
X505118Y284298D01*
X505854Y284444D01*
X506478Y284861D01*
X506894Y285485D01*
X507041Y286221D01*
X506894Y286956D01*
X506478Y287580D01*
X505854Y287997D01*
X505118Y288143D01*
D02*
G37*
G36*
X68898Y283025D02*
X68162Y282879D01*
X67538Y282462D01*
X67121Y281838D01*
X66975Y281102D01*
X67121Y280367D01*
X67538Y279743D01*
X68162Y279326D01*
X68898Y279180D01*
X69634Y279326D01*
X70257Y279743D01*
X70674Y280367D01*
X70820Y281102D01*
X70674Y281838D01*
X70257Y282462D01*
X69634Y282879D01*
X68898Y283025D01*
D02*
G37*
G36*
X411811Y282631D02*
X411075Y282485D01*
X410451Y282068D01*
X410035Y281445D01*
X409888Y280709D01*
X410035Y279973D01*
X410451Y279349D01*
X411075Y278932D01*
X411811Y278786D01*
X412547Y278932D01*
X413171Y279349D01*
X413587Y279973D01*
X413734Y280709D01*
X413587Y281445D01*
X413171Y282068D01*
X412547Y282485D01*
X411811Y282631D01*
D02*
G37*
G36*
X391339Y280368D02*
X390603Y280221D01*
X389979Y279804D01*
X389562Y279181D01*
X389416Y278445D01*
X389562Y277709D01*
X389979Y277085D01*
X390603Y276668D01*
X391339Y276522D01*
X392074Y276668D01*
X392698Y277085D01*
X393115Y277709D01*
X393261Y278445D01*
X393115Y279181D01*
X392698Y279804D01*
X392074Y280221D01*
X391339Y280368D01*
D02*
G37*
G36*
X589134Y277443D02*
X588349Y277340D01*
X587617Y277037D01*
X586989Y276555D01*
X586507Y275926D01*
X586203Y275195D01*
X586100Y274410D01*
X586203Y273624D01*
X586507Y272892D01*
X586989Y272264D01*
X587617Y271782D01*
X588349Y271479D01*
X589134Y271376D01*
X589919Y271479D01*
X590651Y271782D01*
X591279Y272264D01*
X591761Y272892D01*
X592064Y273624D01*
X592168Y274410D01*
X592064Y275195D01*
X591761Y275926D01*
X591279Y276555D01*
X590651Y277037D01*
X589919Y277340D01*
X589134Y277443D01*
D02*
G37*
G36*
X81890Y279482D02*
X81154Y279335D01*
X80530Y278919D01*
X80113Y278295D01*
X80027Y277859D01*
X66606Y264438D01*
X66144Y264629D01*
Y265701D01*
X76220Y275777D01*
X76248Y275783D01*
X76871Y276200D01*
X77288Y276823D01*
X77435Y277559D01*
X77288Y278295D01*
X76871Y278919D01*
X76248Y279335D01*
X75512Y279482D01*
X74776Y279335D01*
X74152Y278919D01*
X74029Y278735D01*
X73529D01*
X73407Y278919D01*
X72783Y279335D01*
X72047Y279482D01*
X71311Y279335D01*
X70688Y278919D01*
X70271Y278295D01*
X70184Y277859D01*
X63409Y271083D01*
X62947Y271275D01*
Y272910D01*
X65733Y275696D01*
X66169Y275783D01*
X66793Y276200D01*
X67210Y276823D01*
X67356Y277559D01*
X67210Y278295D01*
X66793Y278919D01*
X66169Y279335D01*
X65433Y279482D01*
X64697Y279335D01*
X64073Y278919D01*
X63657Y278295D01*
X63570Y277859D01*
X60336Y274625D01*
X60004Y274129D01*
X59888Y273543D01*
X59888Y227165D01*
X60004Y226580D01*
X60336Y226084D01*
X83833Y202587D01*
Y96134D01*
X83949Y95549D01*
X84281Y95052D01*
X122546Y56787D01*
X122633Y56351D01*
X123050Y55727D01*
X123674Y55310D01*
X124409Y55164D01*
X125145Y55310D01*
X125769Y55727D01*
X126186Y56351D01*
X126332Y57087D01*
X126186Y57822D01*
X125946Y58182D01*
X126306Y58542D01*
X126429Y58460D01*
X127165Y58314D01*
X127901Y58460D01*
X128525Y58877D01*
X128942Y59500D01*
X129088Y60236D01*
X128942Y60972D01*
X128702Y61331D01*
X129062Y61692D01*
X129185Y61609D01*
X129921Y61463D01*
X130657Y61609D01*
X131281Y62026D01*
X131698Y62650D01*
X131844Y63386D01*
X131698Y64122D01*
X131281Y64745D01*
X130657Y65162D01*
X130221Y65249D01*
X90088Y105382D01*
Y108276D01*
X90550Y108468D01*
X125302Y73716D01*
X125389Y73280D01*
X125806Y72656D01*
X126429Y72239D01*
X127165Y72093D01*
X127901Y72239D01*
X128525Y72656D01*
X128942Y73280D01*
X129088Y74016D01*
X128942Y74752D01*
X128525Y75375D01*
X127901Y75792D01*
X127465Y75879D01*
X91687Y111657D01*
Y205454D01*
X91571Y206039D01*
X91239Y206535D01*
X67742Y230032D01*
Y261248D01*
X82190Y275696D01*
X82626Y275783D01*
X83249Y276200D01*
X83666Y276823D01*
X83812Y277559D01*
X83666Y278295D01*
X83249Y278919D01*
X82626Y279335D01*
X81890Y279482D01*
D02*
G37*
G36*
X573622Y266784D02*
X572539Y266641D01*
X571529Y266223D01*
X570662Y265558D01*
X569997Y264691D01*
X569579Y263682D01*
X569437Y262598D01*
X569579Y261515D01*
X569997Y260506D01*
X570662Y259639D01*
X571529Y258974D01*
X572539Y258556D01*
X573622Y258413D01*
X574705Y258556D01*
X575715Y258974D01*
X576582Y259639D01*
X577247Y260506D01*
X577665Y261515D01*
X577808Y262598D01*
X577665Y263682D01*
X577247Y264691D01*
X576582Y265558D01*
X575715Y266223D01*
X574705Y266641D01*
X573622Y266784D01*
D02*
G37*
G36*
Y254973D02*
X572539Y254830D01*
X571529Y254412D01*
X570662Y253747D01*
X569997Y252880D01*
X569579Y251871D01*
X569437Y250787D01*
X569579Y249704D01*
X569997Y248695D01*
X570662Y247828D01*
X571529Y247163D01*
X572539Y246745D01*
X573622Y246602D01*
X574705Y246745D01*
X575715Y247163D01*
X576582Y247828D01*
X577247Y248695D01*
X577665Y249704D01*
X577808Y250787D01*
X577665Y251871D01*
X577247Y252880D01*
X576582Y253747D01*
X575715Y254412D01*
X574705Y254830D01*
X573622Y254973D01*
D02*
G37*
G36*
X243126Y247457D02*
X234827D01*
Y239158D01*
X243126D01*
Y247457D01*
D02*
G37*
G36*
X112417D02*
X104118D01*
Y239158D01*
X112417D01*
Y247457D01*
D02*
G37*
G36*
X286221Y247890D02*
X285034Y247733D01*
X283929Y247276D01*
X282980Y246547D01*
X282252Y245598D01*
X281794Y244493D01*
X281638Y243307D01*
X281794Y242121D01*
X282252Y241016D01*
X282980Y240067D01*
X283929Y239338D01*
X285034Y238881D01*
X286221Y238725D01*
X287406Y238881D01*
X288512Y239338D01*
X289461Y240067D01*
X290189Y241016D01*
X290647Y242121D01*
X290803Y243307D01*
X290647Y244493D01*
X290189Y245598D01*
X289461Y246547D01*
X288512Y247276D01*
X287406Y247733D01*
X286221Y247890D01*
D02*
G37*
G36*
X274409D02*
X273223Y247733D01*
X272118Y247276D01*
X271169Y246547D01*
X270441Y245598D01*
X269983Y244493D01*
X269827Y243307D01*
X269983Y242121D01*
X270441Y241016D01*
X271169Y240067D01*
X272118Y239338D01*
X273223Y238881D01*
X274409Y238725D01*
X275595Y238881D01*
X276701Y239338D01*
X277650Y240067D01*
X278378Y241016D01*
X278836Y242121D01*
X278992Y243307D01*
X278836Y244493D01*
X278378Y245598D01*
X277650Y246547D01*
X276701Y247276D01*
X275595Y247733D01*
X274409Y247890D01*
D02*
G37*
G36*
X227165D02*
X225979Y247733D01*
X224874Y247276D01*
X223925Y246547D01*
X223197Y245598D01*
X222739Y244493D01*
X222583Y243307D01*
X222739Y242121D01*
X223197Y241016D01*
X223925Y240067D01*
X224874Y239338D01*
X225979Y238881D01*
X227165Y238725D01*
X228351Y238881D01*
X229457Y239338D01*
X230406Y240067D01*
X231134Y241016D01*
X231592Y242121D01*
X231748Y243307D01*
X231592Y244493D01*
X231134Y245598D01*
X230406Y246547D01*
X229457Y247276D01*
X228351Y247733D01*
X227165Y247890D01*
D02*
G37*
G36*
X161417D02*
X160231Y247733D01*
X159126Y247276D01*
X158177Y246547D01*
X157449Y245598D01*
X156991Y244493D01*
X156835Y243307D01*
X156991Y242121D01*
X157449Y241016D01*
X158177Y240067D01*
X159126Y239338D01*
X160231Y238881D01*
X161417Y238725D01*
X162603Y238881D01*
X163709Y239338D01*
X164658Y240067D01*
X165386Y241016D01*
X165844Y242121D01*
X166000Y243307D01*
X165844Y244493D01*
X165386Y245598D01*
X164658Y246547D01*
X163709Y247276D01*
X162603Y247733D01*
X161417Y247890D01*
D02*
G37*
G36*
X149606D02*
X148420Y247733D01*
X147315Y247276D01*
X146366Y246547D01*
X145638Y245598D01*
X145180Y244493D01*
X145024Y243307D01*
X145180Y242121D01*
X145638Y241016D01*
X146366Y240067D01*
X147315Y239338D01*
X148420Y238881D01*
X149606Y238725D01*
X150792Y238881D01*
X151898Y239338D01*
X152847Y240067D01*
X153575Y241016D01*
X154033Y242121D01*
X154189Y243307D01*
X154033Y244493D01*
X153575Y245598D01*
X152847Y246547D01*
X151898Y247276D01*
X150792Y247733D01*
X149606Y247890D01*
D02*
G37*
G36*
X96457D02*
X95271Y247733D01*
X94165Y247276D01*
X93216Y246547D01*
X92488Y245598D01*
X92030Y244493D01*
X91874Y243307D01*
X92030Y242121D01*
X92488Y241016D01*
X93216Y240067D01*
X94165Y239338D01*
X95271Y238881D01*
X96457Y238725D01*
X97643Y238881D01*
X98748Y239338D01*
X99697Y240067D01*
X100425Y241016D01*
X100883Y242121D01*
X101039Y243307D01*
X100883Y244493D01*
X100425Y245598D01*
X99697Y246547D01*
X98748Y247276D01*
X97643Y247733D01*
X96457Y247890D01*
D02*
G37*
G36*
X589134Y242010D02*
X588349Y241907D01*
X587617Y241604D01*
X586989Y241122D01*
X586507Y240493D01*
X586203Y239762D01*
X586100Y238976D01*
X586203Y238191D01*
X586507Y237459D01*
X586989Y236831D01*
X587617Y236349D01*
X588349Y236046D01*
X589134Y235943D01*
X589919Y236046D01*
X590651Y236349D01*
X591279Y236831D01*
X591761Y237459D01*
X592064Y238191D01*
X592168Y238976D01*
X592064Y239762D01*
X591761Y240493D01*
X591279Y241122D01*
X590651Y241604D01*
X589919Y241907D01*
X589134Y242010D01*
D02*
G37*
G36*
X309842Y239622D02*
X308657Y239466D01*
X307551Y239008D01*
X306602Y238280D01*
X305874Y237331D01*
X305416Y236225D01*
X305260Y235039D01*
X305416Y233853D01*
X305874Y232748D01*
X306602Y231799D01*
X307551Y231071D01*
X308657Y230613D01*
X309842Y230457D01*
X311029Y230613D01*
X312134Y231071D01*
X313083Y231799D01*
X313811Y232748D01*
X314269Y233853D01*
X314425Y235039D01*
X314269Y236225D01*
X313811Y237331D01*
X313083Y238280D01*
X312134Y239008D01*
X311029Y239466D01*
X309842Y239622D01*
D02*
G37*
G36*
X262598D02*
X261412Y239466D01*
X260307Y239008D01*
X259358Y238280D01*
X258630Y237331D01*
X258172Y236225D01*
X258016Y235039D01*
X258172Y233853D01*
X258630Y232748D01*
X259358Y231799D01*
X260307Y231071D01*
X261412Y230613D01*
X262598Y230457D01*
X263785Y230613D01*
X264890Y231071D01*
X265839Y231799D01*
X266567Y232748D01*
X267025Y233853D01*
X267181Y235039D01*
X267025Y236225D01*
X266567Y237331D01*
X265839Y238280D01*
X264890Y239008D01*
X263785Y239466D01*
X262598Y239622D01*
D02*
G37*
G36*
X250787D02*
X249601Y239466D01*
X248496Y239008D01*
X247547Y238280D01*
X246819Y237331D01*
X246361Y236225D01*
X246205Y235039D01*
X246361Y233853D01*
X246819Y232748D01*
X247547Y231799D01*
X248496Y231071D01*
X249601Y230613D01*
X250787Y230457D01*
X251973Y230613D01*
X253079Y231071D01*
X254028Y231799D01*
X254756Y232748D01*
X255214Y233853D01*
X255370Y235039D01*
X255214Y236225D01*
X254756Y237331D01*
X254028Y238280D01*
X253079Y239008D01*
X251973Y239466D01*
X250787Y239622D01*
D02*
G37*
G36*
X137795D02*
X136609Y239466D01*
X135504Y239008D01*
X134555Y238280D01*
X133827Y237331D01*
X133369Y236225D01*
X133213Y235039D01*
X133369Y233853D01*
X133827Y232748D01*
X134555Y231799D01*
X135504Y231071D01*
X136609Y230613D01*
X137795Y230457D01*
X138981Y230613D01*
X140086Y231071D01*
X141036Y231799D01*
X141764Y232748D01*
X142222Y233853D01*
X142378Y235039D01*
X142222Y236225D01*
X141764Y237331D01*
X141036Y238280D01*
X140086Y239008D01*
X138981Y239466D01*
X137795Y239622D01*
D02*
G37*
G36*
X120079D02*
X118893Y239466D01*
X117788Y239008D01*
X116838Y238280D01*
X116110Y237331D01*
X115652Y236225D01*
X115496Y235039D01*
X115652Y233853D01*
X116110Y232748D01*
X116838Y231799D01*
X117788Y231071D01*
X118893Y230613D01*
X120079Y230457D01*
X121265Y230613D01*
X122370Y231071D01*
X123319Y231799D01*
X124047Y232748D01*
X124505Y233853D01*
X124661Y235039D01*
X124505Y236225D01*
X124047Y237331D01*
X123319Y238280D01*
X122370Y239008D01*
X121265Y239466D01*
X120079Y239622D01*
D02*
G37*
G36*
X72835D02*
X71649Y239466D01*
X70543Y239008D01*
X69594Y238280D01*
X68866Y237331D01*
X68408Y236225D01*
X68252Y235039D01*
X68408Y233853D01*
X68866Y232748D01*
X69594Y231799D01*
X70543Y231071D01*
X71649Y230613D01*
X72835Y230457D01*
X74021Y230613D01*
X75126Y231071D01*
X76075Y231799D01*
X76803Y232748D01*
X77261Y233853D01*
X77417Y235039D01*
X77261Y236225D01*
X76803Y237331D01*
X76075Y238280D01*
X75126Y239008D01*
X74021Y239466D01*
X72835Y239622D01*
D02*
G37*
G36*
X584016Y210488D02*
X582830Y210332D01*
X581725Y209874D01*
X580775Y209146D01*
X580047Y208197D01*
X579589Y207092D01*
X579433Y205906D01*
X579589Y204719D01*
X580047Y203614D01*
X580775Y202665D01*
X581725Y201937D01*
X582830Y201479D01*
X584016Y201323D01*
X585202Y201479D01*
X586307Y201937D01*
X587256Y202665D01*
X587984Y203614D01*
X588442Y204719D01*
X588598Y205906D01*
X588442Y207092D01*
X587984Y208197D01*
X587256Y209146D01*
X586307Y209874D01*
X585202Y210332D01*
X584016Y210488D01*
D02*
G37*
G36*
X301181Y203196D02*
X299943Y203074D01*
X298753Y202713D01*
X297656Y202127D01*
X296694Y201337D01*
X295905Y200376D01*
X295319Y199279D01*
X294957Y198088D01*
X294836Y196850D01*
X294957Y195612D01*
X295319Y194422D01*
X295905Y193325D01*
X296694Y192363D01*
X297656Y191574D01*
X298753Y190988D01*
X299943Y190627D01*
X301181Y190505D01*
X302419Y190627D01*
X303609Y190988D01*
X304707Y191574D01*
X305668Y192363D01*
X306457Y193325D01*
X307044Y194422D01*
X307405Y195612D01*
X307527Y196850D01*
X307405Y198088D01*
X307044Y199279D01*
X306457Y200376D01*
X305668Y201337D01*
X304707Y202127D01*
X303609Y202713D01*
X302419Y203074D01*
X301181Y203196D01*
D02*
G37*
G36*
X573047Y198638D02*
X563961D01*
Y189551D01*
X573047D01*
Y198638D01*
D02*
G37*
G36*
X584016Y186866D02*
X582830Y186710D01*
X581725Y186252D01*
X580775Y185524D01*
X580047Y184575D01*
X579589Y183469D01*
X579433Y182283D01*
X579589Y181097D01*
X580047Y179992D01*
X580775Y179043D01*
X581725Y178315D01*
X582830Y177857D01*
X584016Y177701D01*
X585202Y177857D01*
X586307Y178315D01*
X587256Y179043D01*
X587984Y179992D01*
X588442Y181097D01*
X588598Y182283D01*
X588442Y183469D01*
X587984Y184575D01*
X587256Y185524D01*
X586307Y186252D01*
X585202Y186710D01*
X584016Y186866D01*
D02*
G37*
G36*
X583858Y166000D02*
X582672Y165844D01*
X581567Y165386D01*
X580618Y164658D01*
X579890Y163709D01*
X579432Y162603D01*
X579276Y161417D01*
X579432Y160231D01*
X579890Y159126D01*
X580618Y158177D01*
X581567Y157449D01*
X582672Y156991D01*
X583858Y156835D01*
X585044Y156991D01*
X586150Y157449D01*
X587099Y158177D01*
X587827Y159126D01*
X588285Y160231D01*
X588441Y161417D01*
X588285Y162603D01*
X587827Y163709D01*
X587099Y164658D01*
X586150Y165386D01*
X585044Y165844D01*
X583858Y166000D01*
D02*
G37*
G36*
X251181Y150742D02*
X250445Y150595D01*
X249821Y150179D01*
X249405Y149555D01*
X249258Y148819D01*
X249405Y148083D01*
X249821Y147459D01*
X250445Y147043D01*
X251181Y146896D01*
X251917Y147043D01*
X252541Y147459D01*
X252958Y148083D01*
X253104Y148819D01*
X252958Y149555D01*
X252541Y150179D01*
X251917Y150595D01*
X251181Y150742D01*
D02*
G37*
G36*
X127559Y149561D02*
X126823Y149414D01*
X126199Y148997D01*
X125783Y148374D01*
X125636Y147638D01*
X125783Y146902D01*
X126199Y146278D01*
X126823Y145861D01*
X127559Y145715D01*
X128295Y145861D01*
X128919Y146278D01*
X129335Y146902D01*
X129482Y147638D01*
X129335Y148374D01*
X128919Y148997D01*
X128295Y149414D01*
X127559Y149561D01*
D02*
G37*
G36*
X274803Y149167D02*
X274067Y149021D01*
X273444Y148604D01*
X273027Y147980D01*
X272880Y147244D01*
X273027Y146508D01*
X273444Y145885D01*
X274067Y145468D01*
X274803Y145321D01*
X275539Y145468D01*
X276163Y145885D01*
X276580Y146508D01*
X276726Y147244D01*
X276580Y147980D01*
X276163Y148604D01*
X275539Y149021D01*
X274803Y149167D01*
D02*
G37*
G36*
X572890Y154150D02*
X563803D01*
Y145063D01*
X572890D01*
Y154150D01*
D02*
G37*
G36*
X583858Y142378D02*
X582672Y142222D01*
X581567Y141764D01*
X580618Y141036D01*
X579890Y140086D01*
X579432Y138981D01*
X579276Y137795D01*
X579432Y136609D01*
X579890Y135504D01*
X580618Y134555D01*
X581567Y133827D01*
X582672Y133369D01*
X583858Y133213D01*
X585044Y133369D01*
X586150Y133827D01*
X587099Y134555D01*
X587827Y135504D01*
X588285Y136609D01*
X588441Y137795D01*
X588285Y138981D01*
X587827Y140086D01*
X587099Y141036D01*
X586150Y141764D01*
X585044Y142222D01*
X583858Y142378D01*
D02*
G37*
G36*
X62426Y129867D02*
X51748D01*
Y119189D01*
X62426D01*
Y129867D01*
D02*
G37*
G36*
X493307Y74364D02*
X492571Y74217D01*
X491948Y73800D01*
X491531Y73177D01*
X491384Y72441D01*
X491531Y71705D01*
X491948Y71081D01*
X492571Y70665D01*
X493307Y70518D01*
X494043Y70665D01*
X494667Y71081D01*
X495084Y71705D01*
X495230Y72441D01*
X495084Y73177D01*
X494667Y73800D01*
X494043Y74217D01*
X493307Y74364D01*
D02*
G37*
G36*
X475591Y72395D02*
X474855Y72249D01*
X474231Y71832D01*
X473814Y71208D01*
X473668Y70472D01*
X473814Y69737D01*
X474231Y69113D01*
X474855Y68696D01*
X475591Y68550D01*
X476326Y68696D01*
X476950Y69113D01*
X477367Y69737D01*
X477513Y70472D01*
X477367Y71208D01*
X476950Y71832D01*
X476326Y72249D01*
X475591Y72395D01*
D02*
G37*
G36*
X522047Y49561D02*
X521311Y49414D01*
X520688Y48997D01*
X520271Y48374D01*
X520124Y47638D01*
X520271Y46902D01*
X520688Y46278D01*
X521311Y45861D01*
X522047Y45715D01*
X522783Y45861D01*
X523407Y46278D01*
X523824Y46902D01*
X523970Y47638D01*
X523824Y48374D01*
X523407Y48997D01*
X522783Y49414D01*
X522047Y49561D01*
D02*
G37*
G36*
X13386Y19731D02*
X12148Y19609D01*
X10958Y19248D01*
X9860Y18662D01*
X8899Y17873D01*
X8110Y16911D01*
X7523Y15814D01*
X7162Y14624D01*
X7040Y13386D01*
X7162Y12148D01*
X7523Y10958D01*
X8110Y9860D01*
X8899Y8899D01*
X9860Y8110D01*
X10958Y7523D01*
X12148Y7162D01*
X13386Y7040D01*
X14624Y7162D01*
X15814Y7523D01*
X16911Y8110D01*
X17873Y8899D01*
X18662Y9860D01*
X19248Y10958D01*
X19609Y12148D01*
X19731Y13386D01*
X19609Y14624D01*
X19248Y15814D01*
X18662Y16911D01*
X17873Y17873D01*
X16911Y18662D01*
X15814Y19248D01*
X14624Y19609D01*
X13386Y19731D01*
D02*
G37*
%LPD*%
G36*
X253595Y277358D02*
X254017Y277274D01*
X253968Y276774D01*
X214235D01*
X214044Y277235D01*
X214413Y277605D01*
X253225D01*
X253595Y277358D01*
D02*
G37*
G36*
X548986Y284167D02*
Y280937D01*
X504430Y236381D01*
X504099Y235885D01*
X503982Y235300D01*
Y115200D01*
X501204Y112422D01*
X500742Y112613D01*
Y270233D01*
X506933Y276423D01*
X514249D01*
X514618Y276176D01*
X515354Y276030D01*
X516090Y276176D01*
X516714Y276593D01*
X517131Y277217D01*
X517277Y277953D01*
X517131Y278689D01*
X516714Y279312D01*
X516090Y279729D01*
X515431Y279860D01*
X515480Y280360D01*
X543504D01*
X544089Y280477D01*
X544585Y280808D01*
X548134Y284357D01*
X548486Y284427D01*
X548986Y284167D01*
D02*
G37*
G36*
X339848Y275168D02*
X339816Y275050D01*
X320347Y255581D01*
X319885Y255772D01*
Y257092D01*
X334158Y271365D01*
X334594Y271452D01*
X335218Y271869D01*
X335635Y272493D01*
X335781Y273228D01*
X335635Y273964D01*
X335218Y274588D01*
X334985Y274744D01*
X334936Y275241D01*
X335331Y275636D01*
X339605D01*
X339848Y275168D01*
D02*
G37*
G36*
X515278Y279860D02*
X514618Y279729D01*
X514249Y279482D01*
X506299D01*
X505714Y279366D01*
X505218Y279034D01*
X498131Y271948D01*
X497800Y271451D01*
X497683Y270866D01*
Y228659D01*
X497183Y228392D01*
X496897Y228583D01*
X496161Y228729D01*
X495510Y228600D01*
X495010Y228860D01*
Y255875D01*
X494893Y256461D01*
X494562Y256957D01*
X474847Y276672D01*
X474350Y277004D01*
X473765Y277120D01*
X464098D01*
X463728Y277367D01*
X462992Y277513D01*
X462256Y277367D01*
X461632Y276950D01*
X461216Y276326D01*
X461069Y275590D01*
X461216Y274855D01*
X461632Y274231D01*
X462256Y273814D01*
X462992Y273668D01*
X463728Y273814D01*
X464098Y274061D01*
X473132D01*
X490891Y256302D01*
X490644Y255841D01*
X490551Y255860D01*
X489815Y255713D01*
X489192Y255297D01*
X488775Y254673D01*
X488628Y253937D01*
X488648Y253841D01*
X488187Y253594D01*
X469440Y272341D01*
X468944Y272673D01*
X468359Y272789D01*
X464098D01*
X463728Y273036D01*
X462992Y273183D01*
X462256Y273036D01*
X461632Y272619D01*
X461216Y271996D01*
X461069Y271260D01*
X461216Y270524D01*
X461632Y269900D01*
X462256Y269483D01*
X462992Y269337D01*
X463728Y269483D01*
X464098Y269730D01*
X467725D01*
X488628Y248827D01*
Y248042D01*
X488187Y247806D01*
X488137Y247839D01*
X487402Y247986D01*
X486666Y247839D01*
X486042Y247423D01*
X485625Y246799D01*
X485479Y246063D01*
X485625Y245327D01*
X485872Y244957D01*
Y219137D01*
X463122Y196388D01*
X379811D01*
X379619Y196850D01*
X393995Y211225D01*
X394326Y211721D01*
X394443Y212306D01*
Y251043D01*
X404815Y261416D01*
X439615D01*
X440200Y261532D01*
X440696Y261863D01*
X459193Y280360D01*
X515229D01*
X515278Y279860D01*
D02*
G37*
G36*
X146230Y207119D02*
Y204149D01*
X140548Y198467D01*
X140086Y198658D01*
Y212609D01*
X140548Y212801D01*
X146230Y207119D01*
D02*
G37*
G36*
X400964Y264150D02*
X390233Y253420D01*
X389902Y252924D01*
X389786Y252339D01*
Y213602D01*
X375768Y199584D01*
X336333D01*
X335748Y199468D01*
X335251Y199137D01*
X326741Y190626D01*
X326279Y190817D01*
Y250333D01*
X340558Y264612D01*
X400772D01*
X400964Y264150D01*
D02*
G37*
G36*
X488628Y216861D02*
Y176107D01*
X488128Y175955D01*
X487974Y176186D01*
X487350Y176603D01*
X486614Y176750D01*
X486483Y176724D01*
X486183Y177173D01*
X486422Y177532D01*
X486568Y178268D01*
X486422Y179004D01*
X486005Y179627D01*
X485382Y180044D01*
X484646Y180191D01*
X483910Y180044D01*
X483658Y179876D01*
X342520D01*
X341934Y179759D01*
X341438Y179428D01*
X331536Y169526D01*
X331074Y169717D01*
Y185998D01*
X338405Y193329D01*
X463756D01*
X464341Y193445D01*
X464837Y193777D01*
X488128Y217068D01*
X488628Y216861D01*
D02*
G37*
G36*
X482783Y171354D02*
X482869Y170918D01*
X483286Y170294D01*
X483910Y169877D01*
X484646Y169731D01*
X485382Y169877D01*
X485772Y170138D01*
X486091Y169750D01*
X483807Y167466D01*
X483346Y167712D01*
X483437Y168170D01*
X483291Y168906D01*
X482874Y169530D01*
X482250Y169947D01*
X481515Y170093D01*
X480779Y169947D01*
X480409Y169700D01*
X343804D01*
X343219Y169583D01*
X342723Y169252D01*
X342702Y169231D01*
X342702Y169231D01*
X342123Y168652D01*
X334733Y161262D01*
X334271Y161454D01*
Y165674D01*
X342977Y174380D01*
X479756D01*
X482783Y171354D01*
D02*
G37*
G36*
X67944Y188187D02*
X67911Y188137D01*
X67765Y187402D01*
X67911Y186666D01*
X68259Y186145D01*
Y165180D01*
X68059Y164882D01*
X67522Y164712D01*
X66884Y165350D01*
Y188628D01*
X67708D01*
X67944Y188187D01*
D02*
G37*
G36*
X497427Y171954D02*
X497683Y171814D01*
Y111657D01*
X485850Y99823D01*
X485388Y100015D01*
Y124868D01*
X485271Y125453D01*
X484940Y125950D01*
X484444Y126281D01*
X483858Y126398D01*
X457874D01*
X457289Y126281D01*
X456793Y125950D01*
X456461Y125453D01*
X456345Y124868D01*
Y98884D01*
X456461Y98299D01*
X456793Y97802D01*
X457289Y97471D01*
X457874Y97355D01*
X482727D01*
X482919Y96893D01*
X455713Y69687D01*
X419440D01*
X418854Y69570D01*
X418358Y69239D01*
X408129Y59010D01*
X388901D01*
X388531Y59257D01*
X387795Y59403D01*
X387059Y59257D01*
X386436Y58840D01*
X386019Y58216D01*
X385873Y57480D01*
X386019Y56744D01*
X386436Y56121D01*
X387059Y55704D01*
X387795Y55558D01*
X388531Y55704D01*
X388901Y55951D01*
X406677D01*
X406869Y55489D01*
X404110Y52730D01*
X384570D01*
X384200Y52977D01*
X383465Y53124D01*
X382729Y52977D01*
X382105Y52560D01*
X381688Y51937D01*
X381542Y51201D01*
X381688Y50465D01*
X381734Y50396D01*
X381499Y49955D01*
X356539D01*
X334934Y71560D01*
X334847Y71996D01*
X334431Y72619D01*
X333807Y73036D01*
X333071Y73183D01*
X332335Y73036D01*
X331711Y72619D01*
X331294Y71996D01*
X331148Y71260D01*
X331294Y70524D01*
X331711Y69900D01*
X332335Y69483D01*
X332771Y69397D01*
X353350Y48818D01*
X353158Y48356D01*
X344358D01*
X321608Y71106D01*
Y93461D01*
X351027Y122880D01*
X367792D01*
X368162Y122633D01*
X368898Y122487D01*
X369633Y122633D01*
X370257Y123050D01*
X370674Y123674D01*
X370820Y124409D01*
X370674Y125145D01*
X370496Y125411D01*
X370763Y125911D01*
X446120D01*
X446312Y125450D01*
X402313Y81451D01*
X388900D01*
X388530Y81698D01*
X387794Y81844D01*
X387059Y81698D01*
X386435Y81281D01*
X386018Y80657D01*
X385872Y79921D01*
X386018Y79185D01*
X386435Y78562D01*
X387059Y78145D01*
X387794Y77999D01*
X388530Y78145D01*
X388900Y78392D01*
X401560D01*
X401751Y77930D01*
X394544Y70722D01*
X389047D01*
X388530Y71068D01*
X387794Y71214D01*
X387059Y71068D01*
X386435Y70651D01*
X386018Y70027D01*
X385872Y69291D01*
X386018Y68555D01*
X386435Y67932D01*
X387059Y67515D01*
X387794Y67369D01*
X388530Y67515D01*
X388753Y67664D01*
X395177D01*
X395762Y67780D01*
X396259Y68111D01*
X476097Y147950D01*
X490607D01*
X490977Y147703D01*
X491713Y147557D01*
X492448Y147703D01*
X493072Y148120D01*
X493489Y148744D01*
X493635Y149479D01*
X493489Y150215D01*
X493072Y150839D01*
X492448Y151256D01*
X491713Y151402D01*
X490977Y151256D01*
X490607Y151009D01*
X476850D01*
X476659Y151471D01*
X497183Y171995D01*
X497427Y171954D01*
D02*
G37*
G36*
X157919Y172281D02*
Y137416D01*
X157457Y137225D01*
X149895Y144788D01*
X149808Y145224D01*
X149391Y145848D01*
X148767Y146265D01*
X148031Y146411D01*
X147296Y146265D01*
X146980Y146054D01*
X146480Y146321D01*
Y161495D01*
X157457Y172472D01*
X157919Y172281D01*
D02*
G37*
G36*
X480779Y166394D02*
X481515Y166248D01*
X481973Y166339D01*
X482219Y165878D01*
X446910Y130569D01*
X442047D01*
X441855Y131031D01*
X456993Y146168D01*
X457429Y146255D01*
X458052Y146672D01*
X458469Y147295D01*
X458616Y148031D01*
X458469Y148767D01*
X458052Y149391D01*
X457429Y149808D01*
X456693Y149954D01*
X455957Y149808D01*
X455333Y149391D01*
X454916Y148767D01*
X454830Y148331D01*
X438666Y132167D01*
X430653D01*
X430461Y132629D01*
X441999Y144167D01*
X442331Y144663D01*
X442447Y145249D01*
Y146492D01*
X442721Y146902D01*
X442868Y147638D01*
X442721Y148373D01*
X442305Y148997D01*
X441681Y149414D01*
X440945Y149560D01*
X440209Y149414D01*
X439585Y148997D01*
X439169Y148373D01*
X439022Y147638D01*
X439169Y146902D01*
X439389Y146573D01*
Y145882D01*
X438250Y144744D01*
X437750Y144951D01*
Y146532D01*
X437997Y146902D01*
X438143Y147638D01*
X437997Y148373D01*
X437580Y148997D01*
X436956Y149414D01*
X436221Y149560D01*
X435485Y149414D01*
X434861Y148997D01*
X434764Y148853D01*
X434264D01*
X434218Y148923D01*
X433594Y149339D01*
X432858Y149486D01*
X432123Y149339D01*
X431499Y148923D01*
X431082Y148299D01*
X430935Y147563D01*
X431082Y146827D01*
X431499Y146203D01*
X432123Y145787D01*
X432858Y145640D01*
X433594Y145787D01*
X434191Y146186D01*
X434339Y146154D01*
X434691Y146012D01*
Y145122D01*
X424933Y135364D01*
X418495D01*
X418304Y135826D01*
X428253Y145775D01*
X428689Y145861D01*
X429312Y146278D01*
X429729Y146902D01*
X429876Y147638D01*
X429729Y148374D01*
X429312Y148997D01*
X428689Y149414D01*
X427953Y149561D01*
X427217Y149414D01*
X426593Y148997D01*
X426176Y148374D01*
X426090Y147938D01*
X415114Y136962D01*
X326107D01*
X325916Y137424D01*
X334994Y146502D01*
X352438D01*
X352807Y146255D01*
X353543Y146109D01*
X354279Y146255D01*
X354903Y146672D01*
X355320Y147296D01*
X355466Y148031D01*
X355320Y148767D01*
X354903Y149391D01*
X354279Y149808D01*
X353543Y149954D01*
X352807Y149808D01*
X352438Y149561D01*
X336225D01*
X335827Y150061D01*
X335869Y150272D01*
Y158073D01*
X344286Y166490D01*
X344437Y166641D01*
X480409D01*
X480779Y166394D01*
D02*
G37*
G36*
X186266Y198017D02*
Y141657D01*
X186019Y141287D01*
X185872Y140551D01*
X186019Y139815D01*
X186436Y139192D01*
X187059Y138775D01*
X187795Y138628D01*
X188531Y138775D01*
X188922Y139036D01*
X189240Y138647D01*
X166265Y115672D01*
X166226Y115614D01*
X165726Y115766D01*
Y130583D01*
X165610Y131169D01*
X165278Y131665D01*
X160978Y135965D01*
Y173382D01*
X185804Y198208D01*
X186266Y198017D01*
D02*
G37*
G36*
X482329Y100413D02*
X459403D01*
Y123339D01*
X482329D01*
Y100413D01*
D02*
G37*
G36*
X253161Y117552D02*
X235139Y99530D01*
X235100Y99472D01*
X234600Y99624D01*
Y102834D01*
X249780Y118014D01*
X252969D01*
X253161Y117552D01*
D02*
G37*
G36*
X340905Y128647D02*
X303447Y91189D01*
X302910Y91358D01*
X302711Y91657D01*
Y101790D01*
X330029Y129108D01*
X340714D01*
X340905Y128647D01*
D02*
G37*
G36*
X240469Y133835D02*
X196950Y90316D01*
X196911Y90258D01*
X196411Y90410D01*
Y129997D01*
X196658Y130367D01*
X196805Y131102D01*
X196658Y131838D01*
X196241Y132462D01*
X195618Y132879D01*
X195388Y132924D01*
X195224Y133467D01*
X196054Y134297D01*
X240278D01*
X240469Y133835D01*
D02*
G37*
G36*
X142171Y120941D02*
Y86145D01*
X142109Y86051D01*
X141558Y85999D01*
X141293Y86266D01*
Y118898D01*
X141177Y119483D01*
X140845Y119979D01*
X135742Y125082D01*
Y126664D01*
X136242Y126871D01*
X142171Y120941D01*
D02*
G37*
G36*
X150045Y122595D02*
Y86145D01*
X149983Y86051D01*
X149432Y85999D01*
X149167Y86266D01*
Y122480D01*
X149096Y122837D01*
X149557Y123083D01*
X150045Y122595D01*
D02*
G37*
G36*
X146108Y121847D02*
Y86145D01*
X146046Y86051D01*
X145495Y85999D01*
X145230Y86266D01*
Y121575D01*
X145120Y122128D01*
X145142Y122158D01*
X145628Y122327D01*
X146108Y121847D01*
D02*
G37*
G36*
X138234Y118264D02*
Y86145D01*
X138172Y86051D01*
X137621Y85999D01*
X137356Y86266D01*
Y118435D01*
X137519Y118559D01*
X137834Y118665D01*
X138234Y118264D01*
D02*
G37*
G36*
X153989Y121846D02*
X154724Y121699D01*
X155376Y121829D01*
X155876Y121569D01*
Y87567D01*
X155212Y86902D01*
X154776Y86816D01*
X154152Y86399D01*
X153920Y86051D01*
X153369Y85999D01*
X153104Y86266D01*
Y121835D01*
X153604Y122102D01*
X153989Y121846D01*
D02*
G37*
G36*
X134297Y117870D02*
Y86145D01*
X134235Y86051D01*
X133684Y85999D01*
X133419Y86266D01*
Y117717D01*
X133338Y118122D01*
X133799Y118369D01*
X134297Y117870D01*
D02*
G37*
G36*
X246896Y99758D02*
Y76519D01*
X229619Y59242D01*
X229545Y59254D01*
X229369Y59785D01*
X237302Y67718D01*
X237633Y68214D01*
X237750Y68799D01*
Y97815D01*
X238534Y98599D01*
X238757Y98549D01*
X239022Y98380D01*
Y86539D01*
X238775Y86169D01*
X238628Y85433D01*
X238775Y84697D01*
X239192Y84074D01*
X239815Y83657D01*
X240551Y83510D01*
X241287Y83657D01*
X241911Y84074D01*
X242073Y84316D01*
X242573D01*
X242735Y84074D01*
X243359Y83657D01*
X244094Y83510D01*
X244830Y83657D01*
X245454Y84074D01*
X245871Y84697D01*
X246017Y85433D01*
X245871Y86169D01*
X245600Y86574D01*
Y99116D01*
X246434Y99950D01*
X246896Y99758D01*
D02*
G37*
G36*
X231541Y101429D02*
Y86539D01*
X231294Y86169D01*
X231148Y85433D01*
X231294Y84697D01*
X231711Y84074D01*
X232335Y83657D01*
X233071Y83510D01*
X233807Y83657D01*
X234191Y83913D01*
X234691Y83646D01*
Y69433D01*
X224208Y58950D01*
X223772Y58863D01*
X223148Y58446D01*
X222731Y57822D01*
X222585Y57087D01*
X222731Y56351D01*
X223104Y55793D01*
X223029Y55520D01*
X222898Y55293D01*
X203185D01*
X203054Y55520D01*
X202979Y55793D01*
X203351Y56351D01*
X203498Y57087D01*
X203351Y57822D01*
X203171Y58091D01*
X203236Y58365D01*
X203759Y58483D01*
X204382Y58066D01*
X205118Y57920D01*
X205854Y58066D01*
X206478Y58483D01*
X206894Y59107D01*
X207041Y59842D01*
X206894Y60578D01*
X206647Y60948D01*
Y68798D01*
X207148Y68950D01*
X207302Y68719D01*
X207926Y68302D01*
X208661Y68156D01*
X209397Y68302D01*
X210021Y68719D01*
X210438Y69343D01*
X210584Y70079D01*
X210438Y70815D01*
X210191Y71184D01*
Y83403D01*
X210632Y83638D01*
X210682Y83605D01*
X211417Y83459D01*
X212153Y83605D01*
X212777Y84022D01*
X213194Y84646D01*
X213340Y85382D01*
X213194Y86117D01*
X212947Y86487D01*
Y92789D01*
X213757Y93599D01*
X214219Y93408D01*
Y86539D01*
X213972Y86169D01*
X213825Y85433D01*
X213972Y84697D01*
X214388Y84074D01*
X215012Y83657D01*
X215748Y83510D01*
X216484Y83657D01*
X217108Y84074D01*
X217524Y84697D01*
X217671Y85433D01*
X217524Y86169D01*
X217277Y86539D01*
Y94676D01*
X218087Y95486D01*
X218549Y95295D01*
Y86539D01*
X218302Y86169D01*
X218156Y85433D01*
X218302Y84697D01*
X218719Y84074D01*
X219343Y83657D01*
X220079Y83510D01*
X220815Y83657D01*
X221438Y84074D01*
X221855Y84697D01*
X222002Y85433D01*
X221855Y86169D01*
X221608Y86539D01*
Y96670D01*
X222418Y97480D01*
X222880Y97289D01*
Y86539D01*
X222633Y86169D01*
X222487Y85433D01*
X222633Y84697D01*
X223050Y84074D01*
X223674Y83657D01*
X224410Y83510D01*
X225145Y83657D01*
X225769Y84074D01*
X226186Y84697D01*
X226332Y85433D01*
X226186Y86169D01*
X225939Y86539D01*
Y98741D01*
X226749Y99550D01*
X227211Y99359D01*
Y86539D01*
X226964Y86169D01*
X226817Y85433D01*
X226964Y84697D01*
X227381Y84074D01*
X228004Y83657D01*
X228740Y83510D01*
X229476Y83657D01*
X230100Y84074D01*
X230517Y84697D01*
X230663Y85433D01*
X230517Y86169D01*
X230270Y86539D01*
Y100811D01*
X231080Y101621D01*
X231541Y101429D01*
D02*
G37*
G36*
X326840Y130245D02*
X300100Y103505D01*
X299768Y103008D01*
X299652Y102423D01*
Y91657D01*
X299405Y91287D01*
X299258Y90551D01*
X299405Y89815D01*
X299821Y89192D01*
X300374Y88822D01*
X300543Y88285D01*
X296556Y84298D01*
X296225Y83802D01*
X296124Y83294D01*
X295624Y83343D01*
Y107950D01*
X295871Y108319D01*
X296017Y109055D01*
X295871Y109791D01*
X295454Y110415D01*
X295223Y110569D01*
X295375Y111069D01*
X305709D01*
X306294Y111186D01*
X306790Y111517D01*
X325980Y130707D01*
X326648D01*
X326840Y130245D01*
D02*
G37*
G36*
X346736Y127048D02*
X300881Y81194D01*
X300445Y81107D01*
X299821Y80690D01*
X299667Y80459D01*
X299167Y80611D01*
Y82583D01*
X344094Y127510D01*
X346544D01*
X346736Y127048D01*
D02*
G37*
G36*
X500070Y62075D02*
X495749Y57754D01*
X460161D01*
X459791Y58001D01*
X459055Y58147D01*
X458319Y58001D01*
X457950Y57754D01*
X442391D01*
X442199Y58216D01*
X446559Y62575D01*
X468973D01*
X469343Y62328D01*
X470079Y62182D01*
X470815Y62328D01*
X471184Y62575D01*
X499863D01*
X500070Y62075D01*
D02*
G37*
G36*
X193704Y52558D02*
X193513Y52096D01*
X183531D01*
X176672Y58956D01*
X176176Y59287D01*
X175591Y59403D01*
X158979D01*
X158610Y59650D01*
X157874Y59797D01*
X157138Y59650D01*
X156514Y59234D01*
X156098Y58610D01*
X155951Y57874D01*
X156098Y57138D01*
X156514Y56514D01*
X157138Y56098D01*
X157874Y55951D01*
X158610Y56098D01*
X158979Y56345D01*
X174957D01*
X180536Y50766D01*
X180344Y50304D01*
X143985D01*
X136827Y57462D01*
Y61788D01*
X137327Y61957D01*
X137847Y61609D01*
X138583Y61463D01*
X139319Y61609D01*
X139942Y62026D01*
X140273Y62522D01*
X140376Y62550D01*
X140726D01*
X140829Y62522D01*
X141160Y62026D01*
X141784Y61609D01*
X142520Y61463D01*
X143255Y61609D01*
X143879Y62026D01*
X144210Y62522D01*
X144314Y62550D01*
X144663D01*
X144766Y62522D01*
X145097Y62026D01*
X145721Y61609D01*
X146457Y61463D01*
X147193Y61609D01*
X147816Y62026D01*
X148147Y62522D01*
X148250Y62550D01*
X148600D01*
X148703Y62522D01*
X149034Y62026D01*
X149658Y61609D01*
X150394Y61463D01*
X151129Y61609D01*
X151753Y62026D01*
X151915Y62269D01*
X152415D01*
X152577Y62026D01*
X153201Y61609D01*
X153937Y61463D01*
X154673Y61609D01*
X155043Y61856D01*
X163976D01*
X164562Y61973D01*
X165058Y62304D01*
X173223Y70470D01*
X173555Y70966D01*
X173671Y71551D01*
Y71912D01*
X173942Y72055D01*
X174171Y72091D01*
X193704Y52558D01*
D02*
G37*
G36*
X193060Y130596D02*
X193105Y130367D01*
X193352Y129997D01*
Y58807D01*
X193469Y58222D01*
X193800Y57725D01*
X197093Y54432D01*
X196917Y53901D01*
X196716Y53872D01*
X176726Y73862D01*
Y109918D01*
X176973Y110288D01*
X177120Y111024D01*
X176973Y111759D01*
X176556Y112383D01*
X175933Y112800D01*
X175375Y112911D01*
X175169Y113412D01*
X192517Y130760D01*
X193060Y130596D01*
D02*
G37*
G36*
X488764Y47994D02*
X488706Y47956D01*
X486768Y46018D01*
X451983D01*
X451792Y46479D01*
X453807Y48494D01*
X488612D01*
X488764Y47994D01*
D02*
G37*
G36*
X450176Y51552D02*
X443461Y44837D01*
X435751D01*
X435382Y45083D01*
X434646Y45230D01*
X434550Y45211D01*
X434303Y45672D01*
X440646Y52014D01*
X449985D01*
X450176Y51552D01*
D02*
G37*
G36*
X292966Y110569D02*
X292735Y110415D01*
X292318Y109791D01*
X292172Y109055D01*
X292318Y108319D01*
X292565Y107950D01*
Y64567D01*
X292682Y63982D01*
X293013Y63485D01*
X299318Y57181D01*
X299405Y56744D01*
X299821Y56121D01*
X300445Y55704D01*
X301181Y55558D01*
X301917Y55704D01*
X302541Y56121D01*
X302958Y56744D01*
X303104Y57480D01*
X302958Y58216D01*
X302541Y58840D01*
X301917Y59257D01*
X301481Y59343D01*
X295624Y65200D01*
Y78404D01*
X296124Y78453D01*
X296225Y77946D01*
X296556Y77449D01*
X299652Y74354D01*
Y69609D01*
X299405Y69240D01*
X299258Y68504D01*
X299405Y67768D01*
X299821Y67144D01*
X300445Y66728D01*
X301181Y66581D01*
X301917Y66728D01*
X302541Y67144D01*
X302958Y67768D01*
X303104Y68504D01*
X302958Y69240D01*
X302711Y69609D01*
Y74988D01*
X302594Y75573D01*
X302262Y76069D01*
X301392Y76940D01*
X301556Y77482D01*
X301917Y77554D01*
X302541Y77971D01*
X302958Y78595D01*
X303044Y79031D01*
X318049Y94036D01*
X318549Y93829D01*
Y70472D01*
X318666Y69887D01*
X318997Y69391D01*
X342643Y45745D01*
X343139Y45414D01*
X343724Y45297D01*
X381280D01*
X384117Y42460D01*
X383871Y41999D01*
X383464Y42080D01*
X382728Y41934D01*
X382358Y41687D01*
X282612D01*
X269454Y54845D01*
X268957Y55177D01*
X268372Y55293D01*
X231236D01*
X231105Y55520D01*
X231030Y55793D01*
X231402Y56351D01*
X231489Y56787D01*
X249507Y74804D01*
X249838Y75301D01*
X249955Y75886D01*
Y101210D01*
X259814Y111069D01*
X286909D01*
X287060Y110569D01*
X286829Y110415D01*
X286413Y109791D01*
X286266Y109055D01*
X286413Y108319D01*
X286660Y107950D01*
Y59449D01*
X286776Y58864D01*
X287107Y58367D01*
X299318Y46157D01*
X299405Y45721D01*
X299821Y45097D01*
X300445Y44680D01*
X301181Y44534D01*
X301917Y44680D01*
X302541Y45097D01*
X302958Y45721D01*
X303104Y46457D01*
X302958Y47192D01*
X302541Y47816D01*
X301917Y48233D01*
X301481Y48320D01*
X289718Y60082D01*
Y107950D01*
X289965Y108319D01*
X290112Y109055D01*
X289965Y109791D01*
X289549Y110415D01*
X289318Y110569D01*
X289469Y111069D01*
X292814D01*
X292966Y110569D01*
D02*
G37*
G36*
X444226Y64568D02*
X423554Y43896D01*
X423081Y44007D01*
X423019Y44068D01*
X422619Y44667D01*
X421996Y45083D01*
X421560Y45170D01*
X417223Y49507D01*
X416727Y49838D01*
X416142Y49955D01*
X406367D01*
X406160Y50455D01*
X420735Y65030D01*
X444034D01*
X444226Y64568D01*
D02*
G37*
G36*
X382728Y38381D02*
X383464Y38235D01*
X384200Y38381D01*
X384250Y38415D01*
X384691Y38179D01*
Y32917D01*
X383165Y31391D01*
X382729Y31304D01*
X382105Y30887D01*
X381688Y30263D01*
X381542Y29528D01*
X381688Y28792D01*
X381948Y28403D01*
X381680Y27903D01*
X370615D01*
X365395Y33123D01*
X364898Y33455D01*
X364313Y33571D01*
X327938D01*
X327353Y33455D01*
X326857Y33123D01*
X306755Y13022D01*
X303235D01*
X302974Y13521D01*
X303104Y14173D01*
X302958Y14909D01*
X302541Y15533D01*
X301917Y15950D01*
X301481Y16036D01*
X294312Y23205D01*
X294503Y23667D01*
X300076D01*
X300445Y23420D01*
X301181Y23274D01*
X301917Y23420D01*
X302541Y23837D01*
X302958Y24461D01*
X303104Y25197D01*
X302958Y25933D01*
X302541Y26557D01*
X301917Y26973D01*
X301181Y27120D01*
X300445Y26973D01*
X300076Y26726D01*
X293052D01*
X285942Y33835D01*
X286134Y34297D01*
X300076D01*
X300445Y34050D01*
X301181Y33904D01*
X301917Y34050D01*
X302541Y34467D01*
X302958Y35091D01*
X303104Y35827D01*
X302958Y36563D01*
X302541Y37186D01*
X301917Y37603D01*
X301181Y37749D01*
X300445Y37603D01*
X300076Y37356D01*
X284682D01*
X283872Y38166D01*
X284064Y38628D01*
X382358D01*
X382728Y38381D01*
D02*
G37*
G36*
X419397Y43007D02*
X419483Y42571D01*
X419900Y41947D01*
X420499Y41548D01*
X420560Y41486D01*
X420671Y41013D01*
X407561Y27903D01*
X385249D01*
X384981Y28403D01*
X385241Y28792D01*
X385328Y29228D01*
X387302Y31202D01*
X387633Y31698D01*
X387750Y32283D01*
Y42520D01*
X387633Y43105D01*
X387302Y43601D01*
X384469Y46434D01*
X384661Y46896D01*
X415508D01*
X419397Y43007D01*
D02*
G37*
G36*
X432742Y43403D02*
X432723Y43307D01*
X432869Y42571D01*
X433286Y41947D01*
X433910Y41531D01*
X434646Y41384D01*
X435382Y41531D01*
X435751Y41778D01*
X442111D01*
X442303Y41316D01*
X424095Y23108D01*
X412393D01*
X412202Y23570D01*
X432281Y43650D01*
X432742Y43403D01*
D02*
G37*
G36*
X366070Y23570D02*
X365878Y23108D01*
X341225D01*
X337870Y26464D01*
X337800Y26816D01*
X338060Y27316D01*
X362324D01*
X366070Y23570D01*
D02*
G37*
G36*
X299025Y14166D02*
X299014Y14092D01*
X298483Y13916D01*
X265995Y46404D01*
X266160Y46947D01*
X266231Y46961D01*
X299025Y14166D01*
D02*
G37*
%LPC*%
G36*
X471260Y253559D02*
X470074Y253403D01*
X468969Y252945D01*
X468019Y252217D01*
X467291Y251268D01*
X466833Y250162D01*
X466677Y248976D01*
X466833Y247790D01*
X467291Y246685D01*
X468019Y245736D01*
X468969Y245008D01*
X470074Y244550D01*
X471260Y244394D01*
X472446Y244550D01*
X473551Y245008D01*
X474500Y245736D01*
X475228Y246685D01*
X475686Y247790D01*
X475842Y248976D01*
X475686Y250162D01*
X475228Y251268D01*
X474500Y252217D01*
X473551Y252945D01*
X472446Y253403D01*
X471260Y253559D01*
D02*
G37*
G36*
X447638D02*
X446452Y253403D01*
X445347Y252945D01*
X444397Y252217D01*
X443669Y251268D01*
X443211Y250162D01*
X443055Y248976D01*
X443211Y247790D01*
X443669Y246685D01*
X444397Y245736D01*
X445347Y245008D01*
X446452Y244550D01*
X447638Y244394D01*
X448824Y244550D01*
X449929Y245008D01*
X450878Y245736D01*
X451606Y246685D01*
X452064Y247790D01*
X452220Y248976D01*
X452064Y250162D01*
X451606Y251268D01*
X450878Y252217D01*
X449929Y252945D01*
X448824Y253403D01*
X447638Y253559D01*
D02*
G37*
G36*
X429134D02*
X427948Y253403D01*
X426843Y252945D01*
X425893Y252217D01*
X425165Y251268D01*
X424708Y250162D01*
X424551Y248976D01*
X424708Y247790D01*
X425165Y246685D01*
X425893Y245736D01*
X426843Y245008D01*
X427948Y244550D01*
X429134Y244394D01*
X430320Y244550D01*
X431425Y245008D01*
X432374Y245736D01*
X433102Y246685D01*
X433560Y247790D01*
X433716Y248976D01*
X433560Y250162D01*
X433102Y251268D01*
X432374Y252217D01*
X431425Y252945D01*
X430320Y253403D01*
X429134Y253559D01*
D02*
G37*
G36*
X405512D02*
X404326Y253403D01*
X403221Y252945D01*
X402272Y252217D01*
X401543Y251268D01*
X401085Y250162D01*
X400929Y248976D01*
X401085Y247790D01*
X401543Y246685D01*
X402272Y245736D01*
X403221Y245008D01*
X404326Y244550D01*
X405512Y244394D01*
X406698Y244550D01*
X407803Y245008D01*
X408752Y245736D01*
X409480Y246685D01*
X409938Y247790D01*
X410094Y248976D01*
X409938Y250162D01*
X409480Y251268D01*
X408752Y252217D01*
X407803Y252945D01*
X406698Y253403D01*
X405512Y253559D01*
D02*
G37*
G36*
X463992Y238008D02*
X454906D01*
Y228921D01*
X463992D01*
Y238008D01*
D02*
G37*
G36*
X421866D02*
X412780D01*
Y228921D01*
X421866D01*
Y238008D01*
D02*
G37*
G36*
X342913Y245317D02*
X342128Y245214D01*
X341396Y244911D01*
X340768Y244429D01*
X340286Y243800D01*
X339983Y243069D01*
X339880Y242284D01*
X339983Y241498D01*
X340286Y240767D01*
X340768Y240138D01*
X341396Y239656D01*
X342128Y239353D01*
X342913Y239250D01*
X343699Y239353D01*
X344430Y239656D01*
X345059Y240138D01*
X345541Y240767D01*
X345844Y241498D01*
X345947Y242284D01*
X345844Y243069D01*
X345541Y243800D01*
X345059Y244429D01*
X344430Y244911D01*
X343699Y245214D01*
X342913Y245317D01*
D02*
G37*
G36*
X378346Y245317D02*
X377561Y245214D01*
X376830Y244911D01*
X376201Y244429D01*
X375719Y243800D01*
X375416Y243069D01*
X375313Y242283D01*
X375416Y241498D01*
X375719Y240767D01*
X376201Y240138D01*
X376830Y239656D01*
X377561Y239353D01*
X378346Y239250D01*
X379132Y239353D01*
X379863Y239656D01*
X380492Y240138D01*
X380974Y240767D01*
X381277Y241498D01*
X381380Y242283D01*
X381277Y243069D01*
X380974Y243800D01*
X380492Y244429D01*
X379863Y244911D01*
X379132Y245214D01*
X378346Y245317D01*
D02*
G37*
G36*
X366535Y230957D02*
X365452Y230814D01*
X364443Y230396D01*
X363576Y229731D01*
X362911Y228864D01*
X362493Y227855D01*
X362350Y226772D01*
X362493Y225688D01*
X362911Y224679D01*
X363576Y223812D01*
X364443Y223147D01*
X365452Y222729D01*
X366535Y222586D01*
X367619Y222729D01*
X368628Y223147D01*
X369495Y223812D01*
X370160Y224679D01*
X370578Y225688D01*
X370721Y226772D01*
X370578Y227855D01*
X370160Y228864D01*
X369495Y229731D01*
X368628Y230396D01*
X367619Y230814D01*
X366535Y230957D01*
D02*
G37*
G36*
X354724D02*
X353641Y230814D01*
X352632Y230396D01*
X351765Y229731D01*
X351100Y228864D01*
X350682Y227855D01*
X350539Y226772D01*
X350682Y225688D01*
X351100Y224679D01*
X351765Y223812D01*
X352632Y223147D01*
X353641Y222729D01*
X354724Y222586D01*
X355808Y222729D01*
X356817Y223147D01*
X357684Y223812D01*
X358349Y224679D01*
X358767Y225688D01*
X358910Y226772D01*
X358767Y227855D01*
X358349Y228864D01*
X357684Y229731D01*
X356817Y230396D01*
X355808Y230814D01*
X354724Y230957D01*
D02*
G37*
G36*
X355512Y73183D02*
X354776Y73036D01*
X354152Y72619D01*
X353735Y71996D01*
X353589Y71260D01*
X353735Y70524D01*
X354152Y69900D01*
X354776Y69483D01*
X355512Y69337D01*
X356248Y69483D01*
X356871Y69900D01*
X357288Y70524D01*
X357435Y71260D01*
X357288Y71996D01*
X356871Y72619D01*
X356248Y73036D01*
X355512Y73183D01*
D02*
G37*
G36*
X361417Y150923D02*
X360682Y150776D01*
X360058Y150360D01*
X359641Y149736D01*
X359495Y149000D01*
X359641Y148264D01*
X360058Y147640D01*
X360682Y147224D01*
X361417Y147077D01*
X362153Y147224D01*
X362777Y147640D01*
X363194Y148264D01*
X363340Y149000D01*
X363194Y149736D01*
X362777Y150360D01*
X362153Y150776D01*
X361417Y150923D01*
D02*
G37*
G36*
X368898Y149167D02*
X368162Y149021D01*
X367538Y148604D01*
X367121Y147980D01*
X366975Y147244D01*
X367121Y146508D01*
X367538Y145885D01*
X368162Y145468D01*
X368898Y145321D01*
X369633Y145468D01*
X370257Y145885D01*
X370674Y146508D01*
X370820Y147244D01*
X370674Y147980D01*
X370257Y148604D01*
X369633Y149021D01*
X368898Y149167D01*
D02*
G37*
G36*
X470866Y120200D02*
X469242Y120040D01*
X467681Y119566D01*
X466242Y118797D01*
X464981Y117762D01*
X463945Y116500D01*
X463176Y115061D01*
X462703Y113500D01*
X462543Y111876D01*
X462703Y110252D01*
X463176Y108691D01*
X463945Y107252D01*
X464981Y105990D01*
X466242Y104955D01*
X467681Y104186D01*
X469242Y103712D01*
X470866Y103552D01*
X472490Y103712D01*
X474051Y104186D01*
X475491Y104955D01*
X476752Y105990D01*
X477787Y107252D01*
X478556Y108691D01*
X479030Y110252D01*
X479190Y111876D01*
X479030Y113500D01*
X478556Y115061D01*
X477787Y116500D01*
X476752Y117762D01*
X475491Y118797D01*
X474051Y119566D01*
X472490Y120040D01*
X470866Y120200D01*
D02*
G37*
G36*
X176378Y66883D02*
X175642Y66737D01*
X175018Y66320D01*
X174601Y65696D01*
X174455Y64961D01*
X174601Y64225D01*
X175018Y63601D01*
X175642Y63184D01*
X176378Y63038D01*
X177114Y63184D01*
X177738Y63601D01*
X178154Y64225D01*
X178301Y64961D01*
X178154Y65696D01*
X177738Y66320D01*
X177114Y66737D01*
X176378Y66883D01*
D02*
G37*
G36*
X181102Y62223D02*
X180367Y62076D01*
X179743Y61659D01*
X179326Y61036D01*
X179180Y60300D01*
X179326Y59564D01*
X179743Y58940D01*
X180367Y58523D01*
X181102Y58377D01*
X181838Y58523D01*
X182462Y58940D01*
X182879Y59564D01*
X183025Y60300D01*
X182879Y61036D01*
X182462Y61659D01*
X181838Y62076D01*
X181102Y62223D01*
D02*
G37*
G36*
X255512Y66982D02*
X254776Y66835D01*
X254152Y66419D01*
X253735Y65795D01*
X253589Y65059D01*
X253735Y64323D01*
X254152Y63700D01*
X254776Y63283D01*
X255512Y63136D01*
X256248Y63283D01*
X256871Y63700D01*
X257288Y64323D01*
X257435Y65059D01*
X257288Y65795D01*
X256871Y66419D01*
X256248Y66835D01*
X255512Y66982D01*
D02*
G37*
G36*
X264784Y61748D02*
X264048Y61602D01*
X263424Y61185D01*
X263008Y60561D01*
X262861Y59825D01*
X263008Y59090D01*
X263424Y58466D01*
X264048Y58049D01*
X264784Y57903D01*
X265520Y58049D01*
X266144Y58466D01*
X266561Y59090D01*
X266707Y59825D01*
X266561Y60561D01*
X266144Y61185D01*
X265520Y61602D01*
X264784Y61748D01*
D02*
G37*
%LPD*%
G36*
X128058Y63086D02*
X128145Y62650D01*
X128385Y62291D01*
X128024Y61930D01*
X127901Y62013D01*
X127465Y62099D01*
X88490Y101074D01*
Y102001D01*
X88952Y102192D01*
X128058Y63086D01*
D02*
G37*
G36*
X125302Y59936D02*
X125389Y59500D01*
X125629Y59141D01*
X125268Y58781D01*
X125145Y58863D01*
X124709Y58950D01*
X86892Y96767D01*
Y97694D01*
X87353Y97885D01*
X125302Y59936D01*
D02*
G37*
D15*
X449958Y37753D02*
X499649D01*
X424067Y11862D02*
X449958Y37753D01*
X342075Y11862D02*
X424067D01*
X502053Y40157D02*
X504331D01*
X499649Y37753D02*
X502053Y40157D01*
X449283Y39351D02*
X493117D01*
X424498Y14567D02*
X449283Y39351D01*
X493117D02*
X493923Y40157D01*
X448621Y40950D02*
X487406D01*
X424919Y17248D02*
X448621Y40950D01*
X487406D02*
X490945Y44488D01*
X509055Y50787D02*
X513779D01*
X508291Y50024D02*
X509055Y50787D01*
X453173Y50024D02*
X508291D01*
X424728Y21579D02*
X453173Y50024D01*
X444095Y43307D02*
X452732Y51945D01*
X487402Y44488D02*
X489787Y46874D01*
X489971D01*
X490735Y47638D01*
X490944D01*
X452732Y51945D02*
X507457D01*
X510630Y55118D01*
X449898Y44488D02*
X487402D01*
X498032Y53543D02*
X511417Y66929D01*
Y66929D01*
X69788Y163677D02*
Y187402D01*
X459055Y56224D02*
X496382D01*
X470079Y64105D02*
X500129D01*
X445926D02*
X470079D01*
X408195Y26374D02*
X445926Y64105D01*
X387794Y69193D02*
X395177D01*
X475464Y149479D02*
X491713D01*
X395177Y69193D02*
X475464Y149479D01*
X496161Y173136D02*
Y226806D01*
X402946Y79921D02*
X496161Y173136D01*
X387794Y79921D02*
X402946D01*
X493480Y172716D02*
Y255875D01*
X448205Y127441D02*
X493480Y172716D01*
X349291Y127441D02*
X448205D01*
X490158Y171653D02*
Y249461D01*
X447543Y129039D02*
X490158Y171653D01*
X343461Y129039D02*
X447543D01*
X343804Y168170D02*
X481515D01*
X343783Y168150D02*
X343804Y168170D01*
X66213Y261882D02*
X81890Y277559D01*
X66213Y229399D02*
X90158Y205454D01*
X66213Y229399D02*
Y261882D01*
X505512Y114567D02*
Y235300D01*
X457504Y66559D02*
X505512Y114567D01*
X420102Y66559D02*
X457504D01*
X499213Y111024D02*
Y270866D01*
X456346Y68157D02*
X499213Y111024D01*
X419440Y68157D02*
X456346D01*
X334360Y148031D02*
X353543D01*
X304274Y117945D02*
X334360Y148031D01*
X332741Y166308D02*
X342343Y175909D01*
X480390D02*
X484646Y171653D01*
X342343Y175909D02*
X480390D01*
X381913Y46827D02*
X386221Y42520D01*
Y32283D02*
Y42520D01*
X383465Y29528D02*
X386221Y32283D01*
X343724Y46827D02*
X381913D01*
X320079Y94095D02*
X350394Y124409D01*
X320079Y70472D02*
Y94095D01*
Y70472D02*
X343724Y46827D01*
X350394Y124409D02*
X368898D01*
X416142Y48425D02*
X421260Y43307D01*
X355906Y48425D02*
X416142D01*
X333071Y71260D02*
X355906Y48425D01*
X268372Y53764D02*
X281978Y40157D01*
X383464D01*
X369981Y26374D02*
X408195D01*
X364313Y32042D02*
X369981Y26374D01*
X408857Y24776D02*
X440306Y56224D01*
X369319Y24776D02*
X408857D01*
X363651Y30443D02*
X369319Y24776D01*
X409646Y23177D02*
X440012Y53543D01*
X368625Y23177D02*
X409646D01*
X362958Y28845D02*
X368625Y23177D01*
X340592Y21579D02*
X424728D01*
X336006Y26164D02*
X340592Y21579D01*
X332677Y21260D02*
X342075Y11862D01*
X424308Y18898D02*
X449898Y44488D01*
X369291Y18898D02*
X424308D01*
X371972Y17248D02*
X424919D01*
X369291Y14567D02*
X371972Y17248D01*
X375197Y14567D02*
X424498D01*
X327938Y32042D02*
X364313D01*
X307388Y11492D02*
X327938Y32042D01*
X328600Y30443D02*
X363651D01*
X308050Y9894D02*
X328600Y30443D01*
X329262Y28845D02*
X362958D01*
X308685Y8268D02*
X329262Y28845D01*
X440918Y147611D02*
X440945Y147638D01*
X440918Y145249D02*
Y147611D01*
X427906Y132236D02*
X440918Y145249D01*
X325346Y132236D02*
X427906D01*
X439299Y130638D02*
X456693Y148031D01*
X329396Y130638D02*
X439299D01*
X244071Y85433D02*
Y99749D01*
X436221Y144488D02*
Y147638D01*
X425567Y133835D02*
X436221Y144488D01*
X324684Y133835D02*
X425567D01*
X415748Y135433D02*
X427953Y147638D01*
X324022Y135433D02*
X415748D01*
X487402Y218504D02*
Y246063D01*
X463756Y194858D02*
X487402Y218504D01*
X337772Y194858D02*
X463756D01*
X404182Y262945D02*
X439615D01*
X392913Y251677D02*
X404182Y262945D01*
X392913Y212306D02*
Y251677D01*
X377064Y196457D02*
X392913Y212306D01*
X391315Y252339D02*
X403520Y264543D01*
X391315Y212968D02*
Y252339D01*
X376402Y198055D02*
X391315Y212968D01*
X305709Y112598D02*
X325346Y132236D01*
X259180Y112598D02*
X305709D01*
X305417Y114567D02*
X324684Y133835D01*
X258888Y114567D02*
X305417D01*
X304754Y116165D02*
X324022Y135433D01*
X258226Y116165D02*
X304754D01*
X301181Y102423D02*
X329396Y130638D01*
X301181Y90551D02*
Y102423D01*
X236221Y98449D02*
X255716Y117945D01*
X236221Y68799D02*
Y98449D01*
X224508Y57087D02*
X236221Y68799D01*
X255716Y117945D02*
X304274D01*
X297638Y83216D02*
X343461Y129039D01*
X244071Y99749D02*
X258888Y114567D01*
X248425Y75886D02*
Y101843D01*
X240551Y85433D02*
Y98490D01*
X248425Y101843D02*
X259180Y112598D01*
X240551Y98490D02*
X258226Y116165D01*
X229626Y57087D02*
X248425Y75886D01*
X208661Y93005D02*
X244790Y129134D01*
X205118Y91800D02*
X244050Y130732D01*
X201575Y90518D02*
X243388Y132331D01*
X198031Y89235D02*
X242726Y133929D01*
X208661Y70079D02*
Y93005D01*
X244050Y130732D02*
X298551D01*
X243388Y132331D02*
X297787D01*
X205118Y59842D02*
Y91800D01*
X201575Y57087D02*
Y90518D01*
X244790Y129134D02*
X299314D01*
X242726Y133929D02*
X296921D01*
X198031Y59449D02*
Y89235D01*
X249147Y119543D02*
X303611D01*
X248438Y121142D02*
X302625D01*
X247776Y122740D02*
X301963D01*
X247113Y124339D02*
X301301D01*
X246375Y125937D02*
X300639D01*
X245530Y127535D02*
X299976D01*
X195421Y135827D02*
X296558D01*
X228740Y101444D02*
X248438Y121142D01*
X296558Y135827D02*
X318356Y157624D01*
X215748Y95310D02*
X246375Y125937D01*
X220079Y97304D02*
X247113Y124339D01*
X300639Y125937D02*
X327946Y153245D01*
X299314Y129134D02*
X324749Y154569D01*
X172142Y112548D02*
X195421Y135827D01*
X298551Y130732D02*
X323151Y155333D01*
X302625Y121142D02*
X332741Y151258D01*
X299976Y127535D02*
X326348Y153907D01*
X224410Y99374D02*
X247776Y122740D01*
X297787Y132331D02*
X321552Y156096D01*
X303611Y119543D02*
X334340Y150272D01*
X211417Y93423D02*
X245530Y127535D01*
X301963Y122740D02*
X331143Y151920D01*
X301301Y124339D02*
X329545Y152583D01*
X233071Y103467D02*
X249147Y119543D01*
X296921Y133929D02*
X319954Y156962D01*
Y253025D01*
X228740Y85433D02*
Y101444D01*
X224410Y85433D02*
Y99374D01*
X233071Y85433D02*
Y103467D01*
X408762Y57480D02*
X419440Y68157D01*
X387795Y57480D02*
X408762D01*
X404743Y51201D02*
X420102Y66559D01*
X383464Y51201D02*
X404743D01*
X434646Y43307D02*
X444095D01*
X343204Y167571D02*
X343783Y168150D01*
X334340Y158706D02*
X343204Y167571D01*
X332741Y151258D02*
Y166308D01*
X342520Y178347D02*
X484252D01*
X331143Y166970D02*
X342520Y178347D01*
X331143Y151920D02*
Y166970D01*
X334340Y150272D02*
Y158706D01*
X339925Y266142D02*
X436161D01*
X324749Y250966D02*
X339925Y266142D01*
X324749Y154569D02*
Y250966D01*
X458560Y281890D02*
X543504D01*
X439615Y262945D02*
X458560Y281890D01*
X438953Y264543D02*
X460630Y286221D01*
X403520Y264543D02*
X438953D01*
X460630Y286221D02*
X497441D01*
X506299Y277953D02*
X515354D01*
X499213Y270866D02*
X506299Y277953D01*
X543504Y281890D02*
X547835Y286221D01*
X81102Y152761D02*
X81102Y56693D01*
X69788Y164075D02*
X81102Y152761D01*
X81102Y56693D02*
X129527Y8268D01*
X77165Y28740D02*
X97626Y8280D01*
X266580Y48775D02*
X301181Y14173D01*
X264028Y46209D02*
X298744Y11492D01*
X307388D01*
X264448Y43527D02*
X298082Y9894D01*
X308050D01*
X129527Y8268D02*
X308685D01*
X239984Y43527D02*
X264448D01*
X237449Y46209D02*
X264028D01*
X143351Y48775D02*
X266580D01*
X77165Y28740D02*
Y152906D01*
X65354Y164717D02*
X77165Y152906D01*
X65354Y164717D02*
Y190157D01*
X78740D01*
X51968D02*
X65354D01*
X329545Y186631D02*
X337772Y194858D01*
X329545Y152583D02*
Y186631D01*
X336995Y196457D02*
X377064D01*
X327946Y187408D02*
X336995Y196457D01*
X327946Y153245D02*
Y187408D01*
X326348Y153907D02*
Y188070D01*
X336333Y198055D02*
X376402D01*
X326348Y188070D02*
X336333Y198055D01*
X323151Y155333D02*
Y251628D01*
X321552Y156096D02*
Y252291D01*
X318356Y157624D02*
Y257726D01*
X316535Y158166D02*
Y259697D01*
X296952Y138583D02*
X316535Y158166D01*
X288189Y138583D02*
X296952D01*
X339263Y267740D02*
X433941D01*
X323151Y251628D02*
X339263Y267740D01*
X339144Y269882D02*
X429232D01*
X321552Y252291D02*
X339144Y269882D01*
X379823Y274016D02*
X384252Y278445D01*
X340945Y274016D02*
X379823D01*
X319954Y253025D02*
X340945Y274016D01*
X429232Y269882D02*
X435847Y276496D01*
X165540Y273992D02*
X170078Y278531D01*
Y278740D01*
X142496Y273992D02*
X165540D01*
X130362Y261858D02*
X142496Y273992D01*
X130362Y225150D02*
Y261858D01*
X141732Y275590D02*
X163386D01*
X128764Y262622D02*
X141732Y275590D01*
X128764Y223886D02*
Y262622D01*
X163386Y275590D02*
X166535Y278740D01*
X142201Y278421D02*
X159524D01*
X159843Y278740D01*
X127165Y263386D02*
X142201Y278421D01*
X127165Y223224D02*
Y263386D01*
X191244Y277358D02*
X192232Y278346D01*
X191244Y213977D02*
Y277358D01*
X141754Y164487D02*
X191244Y213977D01*
X316535Y259697D02*
X332748Y275909D01*
X198425Y145669D02*
X247638D01*
X167347Y114591D02*
X198425Y145669D01*
X253988Y141390D02*
X258268Y145669D01*
X251650Y142988D02*
X254331Y145669D01*
X61417Y273543D02*
X65433Y277559D01*
X64614Y228737D02*
Y266334D01*
X75512Y277232D01*
Y277559D01*
X63016Y228075D02*
Y268528D01*
Y228075D02*
X86961Y204130D01*
X63016Y268528D02*
X72047Y277559D01*
X130362Y225150D02*
X147760Y207752D01*
Y203515D02*
Y207752D01*
X128764Y223886D02*
X138557Y214093D01*
Y131561D02*
Y214093D01*
X127165Y223224D02*
X136959Y213431D01*
X194441Y257535D02*
X212150Y275244D01*
X196039Y210606D02*
Y256873D01*
X257055Y275244D02*
X261024Y279213D01*
X212150Y275244D02*
X257055D01*
X259248Y273646D02*
X264528Y278925D01*
X212812Y273646D02*
X259248D01*
X196039Y256873D02*
X212812Y273646D01*
X262992Y272047D02*
X272047Y281102D01*
X213474Y272047D02*
X262992D01*
X197638Y256211D02*
X213474Y272047D01*
X197638Y209944D02*
Y256211D01*
X194441Y211618D02*
Y257535D01*
X144951Y162128D02*
X194441Y211618D01*
X164197Y77971D02*
Y130583D01*
X157248Y71023D02*
X164197Y77971D01*
X159449Y174016D02*
X196039Y210606D01*
X159449Y135331D02*
Y174016D01*
Y135331D02*
X164197Y130583D01*
X143352Y163825D02*
X192842Y213315D01*
X141754Y136592D02*
Y164487D01*
X192842Y213315D02*
Y258197D01*
X143352Y141293D02*
Y163825D01*
X144951Y142122D02*
Y162128D01*
X155512Y85039D02*
X157405Y86933D01*
X144951Y142122D02*
X159710Y127363D01*
Y85300D02*
Y127363D01*
X157405Y86933D02*
Y127240D01*
X143352Y141293D02*
X157405Y127240D01*
X148031Y144488D02*
X162598Y129921D01*
X141754Y136592D02*
X154724Y123622D01*
X140155Y195911D02*
X147760Y203515D01*
X140155Y134648D02*
Y195911D01*
Y134648D02*
X151575Y123228D01*
X138557Y131561D02*
X147638Y122480D01*
X151575Y85039D02*
Y123228D01*
X136959Y128317D02*
Y213431D01*
Y128317D02*
X143701Y121575D01*
X159449Y85039D02*
X159710Y85300D01*
X147638Y85039D02*
Y122480D01*
X143701Y85039D02*
Y121575D01*
X139764Y85039D02*
Y118898D01*
X134213Y124449D02*
X139764Y118898D01*
X134213Y124449D02*
Y143307D01*
X130709Y123622D02*
Y143307D01*
Y123622D02*
X135827Y118504D01*
Y85039D02*
Y118504D01*
X131890Y85039D02*
Y117717D01*
X124094Y125512D02*
X131890Y117717D01*
X124094Y125512D02*
Y143019D01*
X90158Y111024D02*
Y205454D01*
Y111024D02*
X127165Y74016D01*
X85362Y96134D02*
Y203221D01*
Y96134D02*
X124409Y57087D01*
X61417Y227165D02*
X85362Y203221D01*
X41732Y200394D02*
X51968Y190157D01*
X41732Y200394D02*
Y219291D01*
X473765Y275590D02*
X493480Y255875D01*
X433941Y267740D02*
X442815Y276614D01*
X440306Y56224D02*
X459055D01*
X496382D02*
X511417Y71260D01*
X500129Y64105D02*
X511417Y75394D01*
X192126Y43382D02*
X239839D01*
X161098D02*
X192126D01*
X440012Y53543D02*
X498032Y53543D01*
X183858Y46093D02*
X220836Y46093D01*
X158298Y46093D02*
X183858D01*
X175197Y73228D02*
Y111024D01*
Y73228D02*
X196260Y52165D01*
X172142Y71551D02*
Y112548D01*
X170543Y72213D02*
Y113210D01*
X168945Y78198D02*
Y113872D01*
X158572Y67826D02*
X168945Y78198D01*
X167347Y78860D02*
Y114591D01*
X157910Y69424D02*
X167347Y78860D01*
X163976Y63386D02*
X172142Y71551D01*
X170543Y113210D02*
X198723Y141390D01*
X164557Y66227D02*
X170543Y72213D01*
X168945Y113872D02*
X198061Y142988D01*
X196260Y52165D02*
X267710D01*
X462992Y275590D02*
X473765D01*
X468359Y271260D02*
X490158Y249461D01*
X550516Y280304D02*
Y289605D01*
X505512Y235300D02*
X550516Y280304D01*
Y289605D02*
X557368Y296457D01*
X576673D01*
X161023Y43307D02*
X161098Y43382D01*
X239839D02*
X239984Y43527D01*
X297638Y78531D02*
Y83216D01*
X301181Y79331D02*
X349291Y127441D01*
X462992Y271260D02*
X468359D01*
X297638Y78531D02*
X301181Y74988D01*
Y68504D02*
Y74988D01*
X436161Y266142D02*
X446516Y276496D01*
X333441Y275909D02*
X334697Y277165D01*
X332748Y275909D02*
X333441D01*
X334697Y277165D02*
X340945D01*
X318356Y257726D02*
X333858Y273228D01*
X504331Y40157D02*
X510630Y46457D01*
X187795Y200102D02*
X197638Y209944D01*
X187795Y140551D02*
Y200102D01*
X194882Y58807D02*
Y131102D01*
Y58807D02*
X199925Y53764D01*
X198723Y141390D02*
X253988D01*
X198061Y142988D02*
X251650D01*
X199925Y53764D02*
X268372D01*
X182898Y50567D02*
X267048D01*
X292418Y25197D01*
X267710Y52165D02*
X284049Y35827D01*
X162598Y79724D02*
Y129921D01*
X156890Y74016D02*
X162598Y79724D01*
X192842Y258197D02*
X213779Y279134D01*
X254331D01*
X220079Y85433D02*
Y97304D01*
X215748Y85433D02*
Y95310D01*
X211417Y85433D02*
Y93423D01*
X294094Y64567D02*
Y109055D01*
X288189Y59449D02*
Y109055D01*
X141732Y74016D02*
X156890D01*
X135297Y67581D02*
X141732Y74016D01*
X135297Y56829D02*
Y67581D01*
X142520Y63386D02*
Y64407D01*
X146457Y63386D02*
X146602D01*
X151042Y67826D02*
X158572D01*
X142520Y64407D02*
X147537Y69424D01*
X146602Y63386D02*
X151042Y67826D01*
X175591Y57874D02*
X182898Y50567D01*
X157874Y57874D02*
X175591D01*
X284049Y35827D02*
X301181D01*
X292418Y25197D02*
X301181D01*
X88559Y104748D02*
X129921Y63386D01*
X88559Y104748D02*
Y204792D01*
X294094Y64567D02*
X301181Y57480D01*
X288189Y59449D02*
X301181Y46457D01*
X135297Y56829D02*
X143351Y48775D01*
X237303Y46063D02*
X237449Y46209D01*
X220836Y46093D02*
X237273D01*
X61417Y273543D02*
X61417Y227165D01*
X64614Y228737D02*
X88559Y204792D01*
X86961Y100441D02*
X127165Y60236D01*
X86961Y100441D02*
Y204130D01*
X138583Y63386D02*
X146220Y71023D01*
X157248D01*
X147537Y69424D02*
X157910D01*
X152987Y66227D02*
X164557D01*
X150394Y63634D02*
X152987Y66227D01*
X150394Y63386D02*
Y63634D01*
X153937Y63386D02*
X163976D01*
X264528Y278925D02*
Y279213D01*
D88*
X499606Y373622D02*
D03*
X580158Y149606D02*
D03*
X580315Y194095D02*
D03*
X283071Y375590D02*
D03*
X235827D02*
D03*
X94095Y375984D02*
D03*
X46850D02*
D03*
X188583Y375590D02*
D03*
X141339D02*
D03*
X84646Y243307D02*
D03*
X215354D02*
D03*
X438583Y375197D02*
D03*
X426772D02*
D03*
X414961D02*
D03*
X417323Y245276D02*
D03*
X548032Y373622D02*
D03*
X459449Y245276D02*
D03*
D90*
X57087Y87008D02*
D03*
D94*
X585433Y250787D02*
D03*
X366535Y238583D02*
D03*
X342126Y375197D02*
D03*
D95*
X585433Y262598D02*
D03*
X173228Y243307D02*
D03*
X298031D02*
D03*
D96*
X354724Y238583D02*
D03*
X330315Y375197D02*
D03*
D97*
X470079Y64105D02*
D03*
X459055Y56224D02*
D03*
X513779Y50787D02*
D03*
X490944Y47638D02*
D03*
X493923Y40157D02*
D03*
X490945Y44488D02*
D03*
X481515Y168170D02*
D03*
X527378Y299213D02*
D03*
X122441Y387008D02*
D03*
X126378D02*
D03*
X124409Y389764D02*
D03*
X128346D02*
D03*
X131890D02*
D03*
X129921Y387008D02*
D03*
X133858D02*
D03*
X159055Y389764D02*
D03*
X155118D02*
D03*
X157087Y387008D02*
D03*
X137795D02*
D03*
X135827Y389764D02*
D03*
X145669Y387008D02*
D03*
X141732D02*
D03*
X143701Y389764D02*
D03*
X140157D02*
D03*
X147638D02*
D03*
X151181D02*
D03*
X149213Y387008D02*
D03*
X153150D02*
D03*
X567717Y26378D02*
D03*
X563779D02*
D03*
X567717Y20866D02*
D03*
X563779D02*
D03*
X565748Y23622D02*
D03*
X562205D02*
D03*
X558268D02*
D03*
X560236Y20866D02*
D03*
Y26378D02*
D03*
X533465D02*
D03*
X529528D02*
D03*
X533465Y20866D02*
D03*
X529528D02*
D03*
X531496Y23622D02*
D03*
X527953D02*
D03*
X540945Y26378D02*
D03*
X537008D02*
D03*
X540945Y20866D02*
D03*
X537008D02*
D03*
X538976Y23622D02*
D03*
X535433D02*
D03*
X548819Y26378D02*
D03*
X544882D02*
D03*
X548819Y20866D02*
D03*
X544882D02*
D03*
X546850Y23622D02*
D03*
X543307D02*
D03*
X550787D02*
D03*
X554331D02*
D03*
X552362Y20866D02*
D03*
X556299D02*
D03*
X552362Y26378D02*
D03*
X556299D02*
D03*
X301969Y177165D02*
D03*
X296457D02*
D03*
X299213Y175197D02*
D03*
Y178740D02*
D03*
Y182677D02*
D03*
X296457Y180709D02*
D03*
X301969D02*
D03*
X208661Y172441D02*
D03*
X203150D02*
D03*
X205906Y174409D02*
D03*
Y170472D02*
D03*
Y166929D02*
D03*
X203150Y168898D02*
D03*
X208661D02*
D03*
X307087Y387008D02*
D03*
X303150D02*
D03*
X305118Y389764D02*
D03*
X301575D02*
D03*
X294094D02*
D03*
X297638D02*
D03*
X295669Y387008D02*
D03*
X299606D02*
D03*
X289764Y389764D02*
D03*
X291732Y387008D02*
D03*
X311024D02*
D03*
X309055Y389764D02*
D03*
X312992D02*
D03*
X316535D02*
D03*
X314567Y387008D02*
D03*
X318504D02*
D03*
X276378D02*
D03*
X272441D02*
D03*
X274409Y389764D02*
D03*
X270866D02*
D03*
X263386D02*
D03*
X266929D02*
D03*
X264961Y387008D02*
D03*
X268898D02*
D03*
X259055Y389764D02*
D03*
X261024Y387008D02*
D03*
X280315D02*
D03*
X278346Y389764D02*
D03*
X282283D02*
D03*
X285827D02*
D03*
X283858Y387008D02*
D03*
X287795D02*
D03*
X226378D02*
D03*
X222441D02*
D03*
X224409Y389764D02*
D03*
X220866D02*
D03*
X216929D02*
D03*
X218898Y387008D02*
D03*
X199606D02*
D03*
X197638Y389764D02*
D03*
X207480Y387008D02*
D03*
X203543D02*
D03*
X205512Y389764D02*
D03*
X201969D02*
D03*
X209449D02*
D03*
X212992D02*
D03*
X211024Y387008D02*
D03*
X214961D02*
D03*
X257087D02*
D03*
X253150D02*
D03*
X255118Y389764D02*
D03*
X251575D02*
D03*
X247638D02*
D03*
X249606Y387008D02*
D03*
X230315D02*
D03*
X228346Y389764D02*
D03*
X238189Y387008D02*
D03*
X234252D02*
D03*
X236221Y389764D02*
D03*
X232677D02*
D03*
X240158D02*
D03*
X243701D02*
D03*
X241732Y387008D02*
D03*
X245669D02*
D03*
X118504D02*
D03*
X120472Y389764D02*
D03*
X116929D02*
D03*
X109449D02*
D03*
X112992D02*
D03*
X111024Y387008D02*
D03*
X114961D02*
D03*
X105118Y389764D02*
D03*
X107087Y387008D02*
D03*
X91732D02*
D03*
X95669D02*
D03*
X93701Y389764D02*
D03*
X97638D02*
D03*
X101181D02*
D03*
X99213Y387008D02*
D03*
X103150D02*
D03*
X164567D02*
D03*
X160630D02*
D03*
X162598Y389764D02*
D03*
X195276Y387008D02*
D03*
X191339D02*
D03*
X193307Y389764D02*
D03*
X189764D02*
D03*
X185827D02*
D03*
X187795Y387008D02*
D03*
X168504D02*
D03*
X166535Y389764D02*
D03*
X176378Y387008D02*
D03*
X172441D02*
D03*
X174409Y389764D02*
D03*
X170866D02*
D03*
X178346D02*
D03*
X181890D02*
D03*
X179921Y387008D02*
D03*
X183858D02*
D03*
X549611D02*
D03*
X545674D02*
D03*
X547643Y389764D02*
D03*
X544099D02*
D03*
X536619D02*
D03*
X540162D02*
D03*
X538194Y387008D02*
D03*
X542131D02*
D03*
X532288Y389764D02*
D03*
X534257Y387008D02*
D03*
X553548D02*
D03*
X551580Y389764D02*
D03*
X555517D02*
D03*
X559060D02*
D03*
X557092Y387008D02*
D03*
X561029D02*
D03*
X518903D02*
D03*
X514966D02*
D03*
X516934Y389764D02*
D03*
X513391D02*
D03*
X505910D02*
D03*
X509454D02*
D03*
X507485Y387008D02*
D03*
X511422D02*
D03*
X501580Y389764D02*
D03*
X503548Y387008D02*
D03*
X522840D02*
D03*
X520871Y389764D02*
D03*
X524808D02*
D03*
X528351D02*
D03*
X526383Y387008D02*
D03*
X530320D02*
D03*
X468903D02*
D03*
X464966D02*
D03*
X466934Y389764D02*
D03*
X463391D02*
D03*
X459454D02*
D03*
X461422Y387008D02*
D03*
X442131D02*
D03*
X440162Y389764D02*
D03*
X450005Y387008D02*
D03*
X446068D02*
D03*
X448036Y389764D02*
D03*
X444493D02*
D03*
X451973D02*
D03*
X455517D02*
D03*
X453548Y387008D02*
D03*
X457485D02*
D03*
X499611D02*
D03*
X495674D02*
D03*
X497643Y389764D02*
D03*
X494099D02*
D03*
X490162D02*
D03*
X492131Y387008D02*
D03*
X472840D02*
D03*
X470871Y389764D02*
D03*
X480714Y387008D02*
D03*
X476777D02*
D03*
X478745Y389764D02*
D03*
X475202D02*
D03*
X482682D02*
D03*
X486225D02*
D03*
X484257Y387008D02*
D03*
X488194D02*
D03*
X364966D02*
D03*
X361029D02*
D03*
X362997Y389764D02*
D03*
X359454D02*
D03*
X351973D02*
D03*
X355517D02*
D03*
X353548Y387008D02*
D03*
X357485D02*
D03*
X347643Y389764D02*
D03*
X349611Y387008D02*
D03*
X368903D02*
D03*
X366934Y389764D02*
D03*
X370871D02*
D03*
X334257Y387008D02*
D03*
X338194D02*
D03*
X336225Y389764D02*
D03*
X340162D02*
D03*
X343706D02*
D03*
X341737Y387008D02*
D03*
X345674D02*
D03*
X407092D02*
D03*
X403155D02*
D03*
X405123Y389764D02*
D03*
X401580D02*
D03*
X397643D02*
D03*
X399611Y387008D02*
D03*
X390162Y389764D02*
D03*
X393706D02*
D03*
X391737Y387008D02*
D03*
X395674D02*
D03*
X437800D02*
D03*
X433863D02*
D03*
X435832Y389764D02*
D03*
X432288D02*
D03*
X428351D02*
D03*
X430320Y387008D02*
D03*
X411029D02*
D03*
X409060Y389764D02*
D03*
X418903Y387008D02*
D03*
X414966D02*
D03*
X416934Y389764D02*
D03*
X413391D02*
D03*
X420871D02*
D03*
X424414D02*
D03*
X422446Y387008D02*
D03*
X426383D02*
D03*
X595276Y264961D02*
D03*
Y268898D02*
D03*
X598032Y266929D02*
D03*
Y270472D02*
D03*
Y277953D02*
D03*
Y274410D02*
D03*
X595276Y276378D02*
D03*
Y272441D02*
D03*
X598032Y282283D02*
D03*
X595276Y280315D02*
D03*
Y261024D02*
D03*
X598032Y262992D02*
D03*
Y259055D02*
D03*
Y255512D02*
D03*
X595276Y257480D02*
D03*
Y253543D02*
D03*
Y295669D02*
D03*
Y299606D02*
D03*
X598032Y297638D02*
D03*
Y301181D02*
D03*
Y308661D02*
D03*
Y305118D02*
D03*
X595276Y307087D02*
D03*
Y303150D02*
D03*
X598032Y312992D02*
D03*
X595276Y311024D02*
D03*
Y291732D02*
D03*
X598032Y293701D02*
D03*
Y289764D02*
D03*
Y286221D02*
D03*
X595276Y288189D02*
D03*
Y284252D02*
D03*
Y345669D02*
D03*
Y349606D02*
D03*
X598032Y347638D02*
D03*
Y351181D02*
D03*
Y355118D02*
D03*
X595276Y353150D02*
D03*
Y357087D02*
D03*
Y314961D02*
D03*
Y318898D02*
D03*
X598032Y316929D02*
D03*
Y320473D02*
D03*
Y324410D02*
D03*
X595276Y322441D02*
D03*
Y341732D02*
D03*
X598032Y343701D02*
D03*
X595276Y333858D02*
D03*
Y337795D02*
D03*
X598032Y335827D02*
D03*
Y339370D02*
D03*
Y331890D02*
D03*
Y328346D02*
D03*
X595276Y330315D02*
D03*
Y326378D02*
D03*
Y203150D02*
D03*
Y207087D02*
D03*
X598032Y205118D02*
D03*
Y208661D02*
D03*
Y216142D02*
D03*
Y212598D02*
D03*
X595276Y214567D02*
D03*
Y210630D02*
D03*
X598032Y220472D02*
D03*
X595276Y218504D02*
D03*
Y199213D02*
D03*
X598032Y201181D02*
D03*
Y197244D02*
D03*
Y193701D02*
D03*
X595276Y195669D02*
D03*
Y191732D02*
D03*
Y233858D02*
D03*
Y237795D02*
D03*
X598032Y235827D02*
D03*
Y239370D02*
D03*
Y246850D02*
D03*
Y243307D02*
D03*
X595276Y245276D02*
D03*
Y241339D02*
D03*
X598032Y251181D02*
D03*
X595276Y249213D02*
D03*
Y229921D02*
D03*
X598032Y231890D02*
D03*
Y227953D02*
D03*
Y224410D02*
D03*
X595276Y226378D02*
D03*
Y222441D02*
D03*
Y161024D02*
D03*
Y164961D02*
D03*
X598032Y162992D02*
D03*
Y166535D02*
D03*
Y170472D02*
D03*
X595276Y168504D02*
D03*
Y187795D02*
D03*
X598032Y189764D02*
D03*
X595276Y179921D02*
D03*
Y183858D02*
D03*
X598032Y181890D02*
D03*
Y185433D02*
D03*
Y177953D02*
D03*
Y174409D02*
D03*
X595276Y176378D02*
D03*
Y172441D02*
D03*
Y130315D02*
D03*
Y134252D02*
D03*
X598032Y132283D02*
D03*
Y135827D02*
D03*
Y139764D02*
D03*
X595276Y137795D02*
D03*
Y157087D02*
D03*
X598032Y159055D02*
D03*
X595276Y149213D02*
D03*
Y153150D02*
D03*
X598032Y151181D02*
D03*
Y154724D02*
D03*
Y147244D02*
D03*
Y143701D02*
D03*
X595276Y145669D02*
D03*
Y141732D02*
D03*
X575197Y35039D02*
D03*
Y38976D02*
D03*
X569685Y35039D02*
D03*
Y38976D02*
D03*
X572441Y37008D02*
D03*
Y40551D02*
D03*
Y48031D02*
D03*
Y44488D02*
D03*
X569685Y46457D02*
D03*
Y42520D02*
D03*
X575197Y46457D02*
D03*
Y42520D02*
D03*
X572441Y55905D02*
D03*
Y52362D02*
D03*
X569685Y54331D02*
D03*
Y50394D02*
D03*
X575197Y54331D02*
D03*
Y50394D02*
D03*
X572441Y63386D02*
D03*
Y59842D02*
D03*
X569685Y61811D02*
D03*
Y57874D02*
D03*
X575197Y61811D02*
D03*
Y57874D02*
D03*
X572441Y70866D02*
D03*
Y67323D02*
D03*
X569685Y69291D02*
D03*
Y65354D02*
D03*
X575197Y69291D02*
D03*
Y65354D02*
D03*
X569685Y103150D02*
D03*
Y107087D02*
D03*
X572441Y105118D02*
D03*
Y108661D02*
D03*
X569685Y95669D02*
D03*
Y99606D02*
D03*
X572441Y97638D02*
D03*
Y101181D02*
D03*
X575197Y88189D02*
D03*
Y92126D02*
D03*
X569685Y88189D02*
D03*
Y92126D02*
D03*
X572441Y90158D02*
D03*
Y93701D02*
D03*
X575197Y80315D02*
D03*
Y84252D02*
D03*
X569685Y80315D02*
D03*
Y84252D02*
D03*
X572441Y82284D02*
D03*
Y85827D02*
D03*
Y78347D02*
D03*
Y74803D02*
D03*
X569685Y76772D02*
D03*
Y72835D02*
D03*
X575197Y76772D02*
D03*
Y72835D02*
D03*
X569685Y31102D02*
D03*
X572441Y33071D02*
D03*
X569685Y27559D02*
D03*
Y23622D02*
D03*
X169685Y18110D02*
D03*
X173622D02*
D03*
X169685Y23622D02*
D03*
X173622D02*
D03*
X171653Y20866D02*
D03*
X175197D02*
D03*
X182677D02*
D03*
X179134D02*
D03*
X181102Y23622D02*
D03*
X177165D02*
D03*
X181102Y18110D02*
D03*
X177165D02*
D03*
X190551Y20866D02*
D03*
X187008D02*
D03*
X188976Y23622D02*
D03*
X185039D02*
D03*
X188976Y18110D02*
D03*
X185039D02*
D03*
X198031Y20866D02*
D03*
X194488D02*
D03*
X196457Y23622D02*
D03*
X192520D02*
D03*
X196457Y18110D02*
D03*
X192520D02*
D03*
X205512Y20866D02*
D03*
X201969D02*
D03*
X203937Y23622D02*
D03*
X200000D02*
D03*
X203937Y18110D02*
D03*
X200000D02*
D03*
X237795D02*
D03*
X241732D02*
D03*
X237795Y23622D02*
D03*
X241732D02*
D03*
X239764Y20866D02*
D03*
X243307D02*
D03*
X230315Y18110D02*
D03*
X234252D02*
D03*
X230315Y23622D02*
D03*
X234252D02*
D03*
X232283Y20866D02*
D03*
X235827D02*
D03*
X222835Y18110D02*
D03*
X226772D02*
D03*
X222835Y23622D02*
D03*
X226772D02*
D03*
X224803Y20866D02*
D03*
X228346D02*
D03*
X214961Y18110D02*
D03*
X218898D02*
D03*
X214961Y23622D02*
D03*
X218898D02*
D03*
X216929Y20866D02*
D03*
X220472D02*
D03*
X212992D02*
D03*
X209449D02*
D03*
X211417Y23622D02*
D03*
X207480D02*
D03*
X211417Y18110D02*
D03*
X207480D02*
D03*
X165748D02*
D03*
Y23622D02*
D03*
X167717Y20866D02*
D03*
X163779D02*
D03*
X160236D02*
D03*
X162205Y23622D02*
D03*
X158268D02*
D03*
X162205Y18110D02*
D03*
X158268D02*
D03*
X16929Y61024D02*
D03*
Y64961D02*
D03*
X11417Y61024D02*
D03*
Y64961D02*
D03*
X14173Y62992D02*
D03*
Y66535D02*
D03*
Y70472D02*
D03*
X11417Y68504D02*
D03*
X16929D02*
D03*
Y110236D02*
D03*
Y114173D02*
D03*
X11417Y110236D02*
D03*
Y114173D02*
D03*
X14173Y112205D02*
D03*
Y115748D02*
D03*
Y123228D02*
D03*
Y119685D02*
D03*
X11417Y121653D02*
D03*
Y117717D02*
D03*
X16929Y121653D02*
D03*
Y117717D02*
D03*
X14173Y131102D02*
D03*
Y127559D02*
D03*
X11417Y129527D02*
D03*
Y125591D02*
D03*
X16929Y129527D02*
D03*
Y125591D02*
D03*
X14173Y138583D02*
D03*
Y135039D02*
D03*
X11417Y137008D02*
D03*
Y133071D02*
D03*
X16929Y137008D02*
D03*
Y133071D02*
D03*
X14173Y146063D02*
D03*
Y142520D02*
D03*
X11417Y144488D02*
D03*
Y140551D02*
D03*
X16929Y144488D02*
D03*
Y140551D02*
D03*
Y102756D02*
D03*
Y106693D02*
D03*
X11417Y102756D02*
D03*
Y106693D02*
D03*
X14173Y104724D02*
D03*
Y108268D02*
D03*
X16929Y95276D02*
D03*
Y99213D02*
D03*
X11417Y95276D02*
D03*
Y99213D02*
D03*
X14173Y97244D02*
D03*
Y100787D02*
D03*
X16929Y87795D02*
D03*
Y91732D02*
D03*
X11417Y87795D02*
D03*
Y91732D02*
D03*
X14173Y89764D02*
D03*
Y93307D02*
D03*
X16929Y79921D02*
D03*
Y83858D02*
D03*
X11417Y79921D02*
D03*
Y83858D02*
D03*
X14173Y81890D02*
D03*
Y85433D02*
D03*
Y77953D02*
D03*
Y74410D02*
D03*
X11417Y76378D02*
D03*
Y72441D02*
D03*
X16929Y76378D02*
D03*
Y72441D02*
D03*
X346850Y144882D02*
D03*
X382677Y173228D02*
D03*
X484252Y302818D02*
D03*
X368898Y124409D02*
D03*
X383464Y40157D02*
D03*
X383465Y29528D02*
D03*
X369291Y18898D02*
D03*
Y14567D02*
D03*
X375197D02*
D03*
X415354Y172047D02*
D03*
X419946Y147563D02*
D03*
X440945Y147638D02*
D03*
X456693Y148031D02*
D03*
X436221Y147638D02*
D03*
X427953Y147638D02*
D03*
X353543Y148031D02*
D03*
X244094Y85433D02*
D03*
X240551D02*
D03*
X228740D02*
D03*
X224410D02*
D03*
X233071D02*
D03*
X229626Y57087D02*
D03*
X336614Y210343D02*
D03*
X387795Y57480D02*
D03*
X383465Y51201D02*
D03*
X434646Y43307D02*
D03*
X421260D02*
D03*
X344488Y170866D02*
D03*
X536811Y309941D02*
D03*
X365748Y79528D02*
D03*
X514961Y151969D02*
D03*
X154724Y167717D02*
D03*
X456693Y159449D02*
D03*
X463287Y300787D02*
D03*
X515354Y277953D02*
D03*
X485827Y291043D02*
D03*
X211417Y85382D02*
D03*
X497441Y286221D02*
D03*
X97626Y8280D02*
D03*
X301181Y14173D02*
D03*
X69788Y164075D02*
D03*
X240945Y148819D02*
D03*
X496161Y226806D02*
D03*
X491713Y149479D02*
D03*
X442815Y276614D02*
D03*
X412598Y289782D02*
D03*
X429134Y279858D02*
D03*
X425591Y299130D02*
D03*
X278740Y168799D02*
D03*
X56201Y193110D02*
D03*
X79921Y161024D02*
D03*
X145079Y204626D02*
D03*
X115059Y204267D02*
D03*
X117323Y147638D02*
D03*
X113779Y164335D02*
D03*
X237008Y165748D02*
D03*
X511417Y75394D02*
D03*
X21240Y256299D02*
D03*
X14173Y242913D02*
D03*
Y225197D02*
D03*
X529528Y267347D02*
D03*
X56299Y281102D02*
D03*
X54331Y300000D02*
D03*
X95965Y298819D02*
D03*
X149606Y299606D02*
D03*
X151969Y281102D02*
D03*
X190259Y298425D02*
D03*
X243701Y300000D02*
D03*
X246850Y281890D02*
D03*
X284646Y298425D02*
D03*
X316535Y303150D02*
D03*
X318504Y280379D02*
D03*
X376772Y278445D02*
D03*
X377559Y297638D02*
D03*
X357382Y301673D02*
D03*
X486614Y186614D02*
D03*
X509449Y193307D02*
D03*
X517323Y227658D02*
D03*
X538517Y291043D02*
D03*
X541028Y232874D02*
D03*
X492124Y261024D02*
D03*
X551575Y160335D02*
D03*
X548032Y193013D02*
D03*
X460630Y207480D02*
D03*
X452575Y214370D02*
D03*
X412402Y212484D02*
D03*
X266437Y208900D02*
D03*
X237285Y208268D02*
D03*
X78740Y190157D02*
D03*
X41732Y219291D02*
D03*
X192126Y43382D02*
D03*
X183858Y46093D02*
D03*
X487402Y246063D02*
D03*
X435847Y276496D02*
D03*
X462992Y271260D02*
D03*
X340945Y277165D02*
D03*
X333858Y273228D02*
D03*
X462992Y275590D02*
D03*
X510630Y46457D02*
D03*
Y55118D02*
D03*
X511417Y66929D02*
D03*
Y71260D02*
D03*
X153937Y46093D02*
D03*
X187795Y140551D02*
D03*
X194882Y131102D02*
D03*
X234646Y57087D02*
D03*
X237303Y46063D02*
D03*
X272047Y281102D02*
D03*
X224508Y57087D02*
D03*
X220079Y85433D02*
D03*
X215748D02*
D03*
X547835Y286221D02*
D03*
X294094Y109055D02*
D03*
X288189D02*
D03*
X175197Y111024D02*
D03*
X148031Y144488D02*
D03*
X154724Y123622D02*
D03*
X151575Y85039D02*
D03*
X155512D02*
D03*
X147638D02*
D03*
X192232Y278346D02*
D03*
X198031Y59449D02*
D03*
X201575Y57087D02*
D03*
X255512Y58268D02*
D03*
X127165Y74016D02*
D03*
X157874Y57874D02*
D03*
X81890Y277559D02*
D03*
X288189Y138583D02*
D03*
X208661Y70079D02*
D03*
X205118Y59842D02*
D03*
X384252Y278445D02*
D03*
X176378Y53248D02*
D03*
X132677Y74803D02*
D03*
X161023Y43307D02*
D03*
X239984Y43527D02*
D03*
X158298Y46093D02*
D03*
X214272Y70079D02*
D03*
X130709Y143307D02*
D03*
X143701Y85039D02*
D03*
X138583Y63386D02*
D03*
X153937D02*
D03*
X150394D02*
D03*
X146457D02*
D03*
X142520D02*
D03*
X134213Y143307D02*
D03*
X264528Y279213D02*
D03*
X170078Y278740D02*
D03*
X261024Y279213D02*
D03*
X254331Y279134D02*
D03*
X159449Y85039D02*
D03*
X139764D02*
D03*
X135827D02*
D03*
X131890D02*
D03*
X127165Y60236D02*
D03*
X129921Y63386D02*
D03*
X124409Y57087D02*
D03*
X166535Y278780D02*
D03*
X159843Y278740D02*
D03*
X576673Y296457D02*
D03*
X336006Y26164D02*
D03*
X333071Y71260D02*
D03*
X332677Y21260D02*
D03*
X69687Y187402D02*
D03*
X387794Y69291D02*
D03*
Y79921D02*
D03*
X484646Y171653D02*
D03*
Y178268D02*
D03*
X301181Y90551D02*
D03*
Y79331D02*
D03*
Y68504D02*
D03*
Y46457D02*
D03*
Y57480D02*
D03*
Y35827D02*
D03*
Y25197D02*
D03*
X258268Y145669D02*
D03*
X254331D02*
D03*
X247638D02*
D03*
X446516Y276496D02*
D03*
X124094Y143307D02*
D03*
X75512Y277559D02*
D03*
X72047D02*
D03*
X65433D02*
D03*
M02*
