G04*
G04 #@! TF.GenerationSoftware,Altium Limited,Altium Designer,19.1.9 (167)*
G04*
G04 Layer_Color=32768*
%FSLAX25Y25*%
%MOIN*%
G70*
G01*
G75*
%ADD12C,0.00394*%
%ADD89C,0.00197*%
D12*
X60674Y42953D02*
X63824D01*
X62249Y41378D02*
Y44528D01*
X60630Y42953D02*
X63779D01*
X62205Y41378D02*
Y44528D01*
X278740Y334646D02*
X281890D01*
X280315Y333071D02*
Y336221D01*
X237008Y334646D02*
X240158D01*
X238583Y333071D02*
Y336221D01*
X277559Y296850D02*
Y300000D01*
X275984Y298425D02*
X279134D01*
X277165Y322874D02*
Y326024D01*
X275590Y324449D02*
X278740D01*
X277210Y322874D02*
Y326024D01*
X275635Y324449D02*
X278785D01*
X242126Y322795D02*
Y325945D01*
X240551Y324370D02*
X243701D01*
X242082Y322795D02*
Y325945D01*
X240507Y324370D02*
X243656D01*
X525591Y50394D02*
Y53543D01*
X524016Y51968D02*
X527165D01*
X245276Y288189D02*
X248425D01*
X246850Y286614D02*
Y289764D01*
X268898Y341417D02*
Y345197D01*
X267008Y343307D02*
X270787D01*
X250000Y341417D02*
Y345197D01*
X248110Y343307D02*
X251890D01*
X268898Y330315D02*
Y333465D01*
X267323Y331890D02*
X270472D01*
X270276Y297835D02*
Y327362D01*
X248622D02*
X270276D01*
X248622Y297835D02*
Y327362D01*
Y297835D02*
X270276D01*
X257480Y312598D02*
X261417D01*
X259449Y310630D02*
Y314567D01*
X250000Y330315D02*
Y333465D01*
X248425Y331890D02*
X251575D01*
X270472Y287795D02*
X273622D01*
X272047Y286221D02*
Y289370D01*
X439370Y285827D02*
X443307D01*
X441339Y283858D02*
Y287795D01*
X395354Y33465D02*
X399134D01*
X397244Y31575D02*
Y35354D01*
X378854Y33465D02*
X382004D01*
X380429Y31890D02*
Y35039D01*
X257480Y287795D02*
X261417D01*
X259449Y285827D02*
Y289764D01*
X54232Y200787D02*
X58169D01*
X56201Y198819D02*
Y202756D01*
X23622Y242913D02*
X27559D01*
X25591Y240945D02*
Y244882D01*
X72835Y159449D02*
Y162598D01*
X71260Y161024D02*
X74410D01*
X527165Y62878D02*
X531102D01*
X529134Y60909D02*
Y64846D01*
X535039Y51968D02*
X538189D01*
X536614Y50394D02*
Y53543D01*
X248898Y55905D02*
X252677D01*
X250787Y54016D02*
Y57795D01*
X169764Y55905D02*
X173543D01*
X171653Y54016D02*
Y57795D01*
X170079Y68504D02*
X173228D01*
X171653Y66929D02*
Y70079D01*
X249213Y68504D02*
X252362D01*
X250787Y66929D02*
Y70079D01*
X282677Y212205D02*
Y215354D01*
X281102Y213779D02*
X284252D01*
X282283Y198898D02*
Y202677D01*
X280394Y200787D02*
X284173D01*
X259842Y212205D02*
Y215354D01*
X258268Y213779D02*
X261417D01*
X259842Y198898D02*
Y202677D01*
X257953Y200787D02*
X261732D01*
X252318Y191693D02*
X255467D01*
X253893Y190118D02*
Y193267D01*
X252362Y191693D02*
X255512D01*
X253937Y190118D02*
Y193268D01*
X287840Y191378D02*
X290989D01*
X289415Y189804D02*
Y192953D01*
X287795Y191378D02*
X290945D01*
X289370Y189803D02*
Y192953D01*
X248031Y201575D02*
X251181D01*
X249606Y200000D02*
Y203150D01*
X282874Y164370D02*
Y193898D01*
X261221D02*
X282874D01*
X261221Y164370D02*
Y193898D01*
Y164370D02*
X282874D01*
X270079Y179134D02*
X274016D01*
X272047Y177165D02*
Y181102D01*
X283071Y155512D02*
X286221D01*
X284646Y153937D02*
Y157087D01*
X290945Y167323D02*
Y170472D01*
X289370Y168898D02*
X292520D01*
X272047Y153150D02*
Y157087D01*
X270079Y155118D02*
X274016D01*
X258661Y155512D02*
X261811D01*
X260236Y153937D02*
Y157087D01*
X254410Y172343D02*
X258189D01*
X256299Y170453D02*
Y174232D01*
X161811Y166535D02*
Y169685D01*
X160236Y168110D02*
X163386D01*
X155905Y154331D02*
X159055D01*
X157480Y152756D02*
Y155905D01*
X154527Y164370D02*
Y193898D01*
X132874D02*
X154527D01*
X132874Y164370D02*
Y193898D01*
Y164370D02*
X154527D01*
X141732Y179134D02*
X145669D01*
X143701Y177165D02*
Y181102D01*
X40157Y174426D02*
X44094D01*
X42126Y172458D02*
Y176395D01*
X40157Y165748D02*
X44094D01*
X42126Y163779D02*
Y167717D01*
X54232Y169291D02*
X58169D01*
X56201Y167323D02*
Y171260D01*
X72835Y186614D02*
X75984D01*
X74410Y185039D02*
Y188189D01*
X72835Y172441D02*
X75984D01*
X74410Y170866D02*
Y174016D01*
X25591Y223228D02*
Y227165D01*
X23622Y225197D02*
X27559D01*
X243701Y304410D02*
Y308189D01*
X241811Y306299D02*
X245590D01*
X397244Y42992D02*
Y46772D01*
X395354Y44882D02*
X399134D01*
X380709Y43307D02*
Y46457D01*
X379134Y44882D02*
X382283D01*
X397244Y74882D02*
Y78661D01*
X395354Y76772D02*
X399134D01*
X397244Y64252D02*
Y68032D01*
X395354Y66142D02*
X399134D01*
X397244Y53622D02*
Y57402D01*
X395354Y55512D02*
X399134D01*
X292520Y12284D02*
Y16063D01*
X290630Y14173D02*
X294409D01*
X292520Y33937D02*
Y37716D01*
X290630Y35827D02*
X294409D01*
X290630Y57480D02*
X294409D01*
X292520Y55590D02*
Y59370D01*
Y88661D02*
Y92441D01*
X290630Y90551D02*
X294409D01*
X308268Y12598D02*
Y15748D01*
X306693Y14173D02*
X309842D01*
X308268Y55905D02*
Y59055D01*
X306693Y57480D02*
X309842D01*
X308268Y88976D02*
Y92126D01*
X306693Y90551D02*
X309842D01*
X380709Y75197D02*
Y78347D01*
X379134Y76772D02*
X382283D01*
X450689Y328031D02*
Y331811D01*
X448799Y329921D02*
X452579D01*
X431791Y328031D02*
Y331811D01*
X429902Y329921D02*
X433681D01*
X378346Y155512D02*
Y159449D01*
X376378Y157480D02*
X380315D01*
X360709Y175197D02*
X364488D01*
X362598Y173307D02*
Y177087D01*
X364567Y157874D02*
X367717D01*
X366142Y156299D02*
Y159449D01*
X392028Y161909D02*
X395177D01*
X393602Y160335D02*
Y163484D01*
X396654Y171063D02*
Y174213D01*
X395079Y172638D02*
X398228D01*
X388779Y204606D02*
Y208386D01*
X386890Y206496D02*
X390669D01*
X388779Y212402D02*
Y215551D01*
X387205Y213976D02*
X390354D01*
X407480Y203937D02*
X410630D01*
X409055Y202362D02*
Y205512D01*
X388976Y167717D02*
Y197244D01*
X367323D02*
X388976D01*
X367323Y167717D02*
Y197244D01*
Y167717D02*
X388976D01*
X376181Y182480D02*
X380118D01*
X378150Y180512D02*
Y184449D01*
X365945Y205000D02*
Y208780D01*
X364055Y206890D02*
X367835D01*
X354528Y204134D02*
X357677D01*
X356102Y202559D02*
Y205709D01*
X365846Y213189D02*
Y216339D01*
X364272Y214764D02*
X367421D01*
X358814Y194252D02*
X361964D01*
X360389Y192677D02*
Y195826D01*
X358858Y194252D02*
X362008D01*
X360433Y192677D02*
Y195827D01*
X395123Y193937D02*
X398273D01*
X396698Y192362D02*
Y195512D01*
X395079Y193937D02*
X398228D01*
X396654Y192362D02*
Y195512D01*
X450689Y339764D02*
Y342913D01*
X449114Y341339D02*
X452264D01*
X546457Y163386D02*
X549606D01*
X548032Y161811D02*
Y164961D01*
X538268Y163386D02*
X542047D01*
X540158Y161496D02*
Y165276D01*
X546457Y184252D02*
X549606D01*
X548032Y182677D02*
Y185827D01*
X538268Y184252D02*
X542047D01*
X540158Y182362D02*
Y186142D01*
X544095Y198819D02*
Y201969D01*
X542520Y200394D02*
X545669D01*
X531496Y189611D02*
Y192761D01*
X529921Y191186D02*
X533071D01*
X531496Y189567D02*
Y192717D01*
X529921Y191142D02*
X533071D01*
X509842Y155118D02*
X512992D01*
X511417Y153543D02*
Y156693D01*
X500000Y156595D02*
Y159744D01*
X498425Y158169D02*
X501575D01*
X380709Y64567D02*
Y67716D01*
X379134Y66142D02*
X382283D01*
X531890Y154483D02*
Y157633D01*
X530315Y156058D02*
X533465D01*
X531890Y154527D02*
Y157677D01*
X530315Y156102D02*
X533465D01*
X542913Y151969D02*
Y155118D01*
X541339Y153543D02*
X544488D01*
X505315Y162402D02*
X534842D01*
Y184055D01*
X505315D02*
X534842D01*
X505315Y162402D02*
Y184055D01*
X520079Y171260D02*
Y175197D01*
X518110Y173228D02*
X522047D01*
X511417Y186693D02*
Y190472D01*
X509528Y188583D02*
X513307D01*
X494193Y185039D02*
Y188189D01*
X492618Y186614D02*
X495768D01*
X492520Y173228D02*
X496457D01*
X494488Y171260D02*
Y175197D01*
X532283Y262598D02*
Y265748D01*
X530709Y264173D02*
X533858D01*
X542519Y258903D02*
Y262052D01*
X540945Y260477D02*
X544094D01*
X542520Y258858D02*
Y262008D01*
X540945Y260433D02*
X544095D01*
X499311Y245276D02*
Y248425D01*
X497736Y246850D02*
X500886D01*
X499311Y252362D02*
Y255512D01*
X497736Y253937D02*
X500886D01*
X499213Y259449D02*
Y262598D01*
X497638Y261024D02*
X500787D01*
X499213Y237795D02*
Y240945D01*
X497638Y239370D02*
X500787D01*
X512205Y230709D02*
X515354D01*
X513779Y229134D02*
Y232283D01*
X532677Y230787D02*
Y234567D01*
X530787Y232677D02*
X534567D01*
X550079Y246063D02*
X553858D01*
X551968Y244173D02*
Y247953D01*
X543701Y244488D02*
Y247638D01*
X542126Y246063D02*
X545276D01*
X533071Y340945D02*
X536221D01*
X534646Y339370D02*
Y342520D01*
X544882Y344094D02*
Y347244D01*
X543307Y345669D02*
X546457D01*
X545276Y336299D02*
Y340079D01*
X543386Y338189D02*
X547165D01*
X380709Y53937D02*
Y57087D01*
X379134Y55512D02*
X382283D01*
X430217Y341339D02*
X433366D01*
X431791Y339764D02*
Y342913D01*
X566339Y303346D02*
Y332874D01*
X544685D02*
X566339D01*
X544685Y303346D02*
Y332874D01*
Y303346D02*
X566339D01*
X553543Y318110D02*
X557480D01*
X555512Y316142D02*
Y320079D01*
X537874Y311122D02*
X541653D01*
X539764Y309232D02*
Y313012D01*
X568898Y313779D02*
X572047D01*
X570472Y312205D02*
Y315354D01*
X573622Y300394D02*
Y303543D01*
X572047Y301969D02*
X575197D01*
X553034Y294094D02*
X556184D01*
X554609Y292520D02*
Y295669D01*
X546325Y294094D02*
X549474D01*
X547900Y292520D02*
Y295669D01*
X539615Y294094D02*
X542765D01*
X541190Y292520D02*
Y295669D01*
X523228Y307087D02*
Y310236D01*
X521654Y308661D02*
X524803D01*
X511024Y295276D02*
X514173D01*
X512598Y293701D02*
Y296850D01*
X503543Y295276D02*
X506693D01*
X505118Y293701D02*
Y296850D01*
X495686Y294882D02*
X498836D01*
X497261Y293307D02*
Y296457D01*
X488976Y294882D02*
X492126D01*
X490551Y293307D02*
Y296457D01*
X486693Y312500D02*
X490472D01*
X488583Y310610D02*
Y314390D01*
X494095Y337480D02*
Y341260D01*
X492205Y339370D02*
X495984D01*
X485389Y330669D02*
X488538D01*
X486964Y329094D02*
Y332244D01*
X485433Y330669D02*
X488583D01*
X487008Y329095D02*
Y332244D01*
X515748Y304921D02*
Y334449D01*
X494095D02*
X515748D01*
X494095Y304921D02*
Y334449D01*
Y304921D02*
X515748D01*
X502953Y319685D02*
X506890D01*
X504921Y317717D02*
Y321654D01*
X493701Y345276D02*
Y348425D01*
X492126Y346850D02*
X495276D01*
X482283Y342421D02*
X485433D01*
X483858Y340846D02*
Y343996D01*
X421609Y322401D02*
X424759D01*
X423184Y320827D02*
Y323976D01*
X421654Y322402D02*
X424803D01*
X423228Y320827D02*
Y323976D01*
X460138Y331890D02*
X463287D01*
X461713Y330315D02*
Y333465D01*
X457525Y322481D02*
X460674D01*
X459099Y320906D02*
Y324055D01*
X457480Y322480D02*
X460630D01*
X459055Y320905D02*
Y324055D01*
X418996Y331890D02*
X422146D01*
X420571Y330315D02*
Y333465D01*
X457874Y63555D02*
X461024D01*
X459449Y61980D02*
Y65130D01*
X467717Y63613D02*
X470866D01*
X469291Y62038D02*
Y65188D01*
X451968Y286221D02*
X455118D01*
X453543Y284646D02*
Y287795D01*
X459842Y294882D02*
Y298031D01*
X458268Y296457D02*
X461417D01*
X412992Y294882D02*
Y298031D01*
X411417Y296457D02*
X414567D01*
X423701Y305512D02*
X427480D01*
X425591Y303622D02*
Y307402D01*
X308268Y77953D02*
Y81102D01*
X306693Y79528D02*
X309842D01*
X292520Y77638D02*
Y81417D01*
X290630Y79528D02*
X294409D01*
X427559Y286221D02*
X430709D01*
X429134Y284646D02*
Y287795D01*
X185039Y332677D02*
Y335827D01*
X183465Y334252D02*
X186614D01*
X51181Y333465D02*
Y336614D01*
X49606Y335039D02*
X52756D01*
X51968Y322795D02*
Y325945D01*
X50394Y324370D02*
X53543D01*
X51924Y322795D02*
Y325945D01*
X50349Y324370D02*
X53499D01*
X182677Y322874D02*
Y326024D01*
X181102Y324449D02*
X184252D01*
X182722Y322874D02*
Y326024D01*
X181147Y324449D02*
X184296D01*
X183071Y296850D02*
Y300000D01*
X181496Y298425D02*
X184646D01*
X308268Y34252D02*
Y37402D01*
X306693Y35827D02*
X309842D01*
X177165Y287795D02*
X180315D01*
X178740Y286221D02*
Y289370D01*
X175787Y297835D02*
Y327362D01*
X154134D02*
X175787D01*
X154134Y297835D02*
Y327362D01*
Y297835D02*
X175787D01*
X162992Y312598D02*
X166929D01*
X164961Y310630D02*
Y314567D01*
X54331Y304803D02*
Y308583D01*
X52441Y306693D02*
X56221D01*
X81299Y298228D02*
Y327756D01*
X59646D02*
X81299D01*
X59646Y298228D02*
Y327756D01*
Y298228D02*
X81299D01*
X68504Y312992D02*
X72441D01*
X70472Y311024D02*
Y314961D01*
X89764Y333071D02*
Y336221D01*
X88189Y334646D02*
X91339D01*
X88976Y322874D02*
Y326024D01*
X87402Y324449D02*
X90551D01*
X89021Y322874D02*
Y326024D01*
X87446Y324449D02*
X90596D01*
X174409Y341732D02*
Y344882D01*
X172835Y343307D02*
X175984D01*
X174409Y330000D02*
Y333780D01*
X172520Y331890D02*
X176299D01*
X144882Y332677D02*
Y335827D01*
X143307Y334252D02*
X146457D01*
X146850Y322402D02*
Y325551D01*
X145276Y323976D02*
X148425D01*
X146806Y322401D02*
Y325551D01*
X145231Y323976D02*
X148381D01*
X149606Y304410D02*
Y308189D01*
X147716Y306299D02*
X151496D01*
X155512Y341732D02*
Y344882D01*
X153937Y343307D02*
X157087D01*
X155512Y330000D02*
Y333780D01*
X153622Y331890D02*
X157402D01*
X150394Y288189D02*
X153543D01*
X151969Y286614D02*
Y289764D01*
X164961Y285827D02*
Y289764D01*
X162992Y287795D02*
X166929D01*
X308268Y66929D02*
Y70079D01*
X306693Y68504D02*
X309842D01*
X339370Y287795D02*
X342520D01*
X340945Y286221D02*
Y289370D01*
X308268Y44882D02*
Y48031D01*
X306693Y46457D02*
X309842D01*
X292520Y66614D02*
Y70394D01*
X290630Y68504D02*
X294409D01*
X292520Y44567D02*
Y48346D01*
X290630Y46457D02*
X294409D01*
X331693Y287795D02*
X334842D01*
X333268Y286221D02*
Y289370D01*
X324410Y287795D02*
X327559D01*
X325984Y286221D02*
Y289370D01*
X316929Y287795D02*
X320079D01*
X318504Y286221D02*
Y289370D01*
X372047Y332283D02*
X375197D01*
X373622Y330709D02*
Y333858D01*
X398031Y339764D02*
Y342913D01*
X396457Y341339D02*
X399606D01*
X398031Y328031D02*
Y331811D01*
X396142Y329921D02*
X399921D01*
X374759Y322401D02*
X377908D01*
X376333Y320827D02*
Y323976D01*
X374803Y322402D02*
X377953D01*
X376378Y320827D02*
Y323976D01*
X389764Y285827D02*
X392913D01*
X391339Y284252D02*
Y287402D01*
X382677Y285827D02*
X385827D01*
X384252Y284252D02*
Y287402D01*
X375197Y285827D02*
X378346D01*
X376772Y284252D02*
Y287402D01*
X375669Y304331D02*
X379449D01*
X377559Y302441D02*
Y306221D01*
X405315Y295866D02*
Y325394D01*
X383661D02*
X405315D01*
X383661Y295866D02*
Y325394D01*
Y295866D02*
X405315D01*
X392520Y310630D02*
X396457D01*
X394488Y308661D02*
Y312598D01*
X313386Y333858D02*
X316535D01*
X314961Y332283D02*
Y335433D01*
X318189Y305906D02*
X321969D01*
X320079Y304016D02*
Y307795D01*
X345669Y330787D02*
Y334567D01*
X343779Y332677D02*
X347559D01*
X316885Y324370D02*
X320034D01*
X318460Y322795D02*
Y325945D01*
X316929Y324370D02*
X320079D01*
X318504Y322795D02*
Y325945D01*
X345669Y342126D02*
Y345276D01*
X344094Y343701D02*
X347244D01*
X292520Y23307D02*
Y27087D01*
X290630Y25197D02*
X294409D01*
X308268Y23622D02*
Y26772D01*
X306693Y25197D02*
X309842D01*
X80709Y288189D02*
X83858D01*
X82284Y286614D02*
Y289764D01*
X89370Y297244D02*
Y300394D01*
X87795Y298819D02*
X90945D01*
X54724Y288090D02*
X57874D01*
X56299Y286516D02*
Y289665D01*
X70472Y286221D02*
Y290158D01*
X68504Y288189D02*
X72441D01*
X79921Y342126D02*
Y345276D01*
X78347Y343701D02*
X81496D01*
X79921Y330394D02*
Y334173D01*
X78031Y332283D02*
X81811D01*
X61024Y342126D02*
Y345276D01*
X59449Y343701D02*
X62598D01*
X61024Y330394D02*
Y334173D01*
X59134Y332283D02*
X62913D01*
X143701Y151969D02*
Y155905D01*
X141732Y153937D02*
X145669D01*
X130315Y154331D02*
X133465D01*
X131890Y152756D02*
Y155905D01*
X163386Y201575D02*
X166535D01*
X164961Y200000D02*
Y203150D01*
X154724Y208661D02*
Y211811D01*
X153150Y210236D02*
X156299D01*
X154331Y196535D02*
Y200315D01*
X152441Y198425D02*
X156220D01*
X159887Y190591D02*
X163037D01*
X161462Y189016D02*
Y192166D01*
X159843Y190591D02*
X162992D01*
X161417Y189016D02*
Y192165D01*
X124365Y190512D02*
X127515D01*
X125940Y188937D02*
Y192086D01*
X124409Y190512D02*
X127559D01*
X125984Y188937D02*
Y192087D01*
X126457Y171260D02*
X130236D01*
X128347Y169370D02*
Y173150D01*
X132677Y196535D02*
Y200315D01*
X130787Y198425D02*
X134567D01*
X120473Y200787D02*
X123622D01*
X122047Y199213D02*
Y202362D01*
X132677Y208661D02*
Y211811D01*
X131102Y210236D02*
X134252D01*
X536176Y329094D02*
X539326D01*
X537751Y327519D02*
Y330669D01*
X536221Y329095D02*
X539370D01*
X537795Y327520D02*
Y330669D01*
X344488Y41732D02*
Y45669D01*
X342520Y43701D02*
X346457D01*
X397244Y285827D02*
X400394D01*
X398819Y284252D02*
Y287402D01*
X27067Y256299D02*
X31004D01*
X29035Y254331D02*
Y258268D01*
X346654Y297441D02*
Y326969D01*
X325000D02*
X346654D01*
X325000Y297441D02*
Y326969D01*
Y297441D02*
X346654D01*
X333858Y312205D02*
X337795D01*
X335827Y310236D02*
Y314173D01*
X452165Y295866D02*
Y325394D01*
X430512D02*
X452165D01*
X430512Y295866D02*
Y325394D01*
Y295866D02*
X452165D01*
X439370Y310630D02*
X443307D01*
X441339Y308661D02*
Y312598D01*
X352756Y298031D02*
X355906D01*
X354331Y296457D02*
Y299606D01*
X522047Y249213D02*
X525984D01*
X524016Y247244D02*
Y251181D01*
X509252Y238386D02*
Y260039D01*
X538780D01*
Y238386D02*
Y260039D01*
X509252Y238386D02*
X538780D01*
X292913Y200000D02*
Y203150D01*
X291339Y201575D02*
X294488D01*
X59449Y50394D02*
Y53543D01*
X57874Y51968D02*
X61024D01*
X43996Y11417D02*
X47146D01*
X45571Y9843D02*
Y12992D01*
D89*
X283071Y328937D02*
Y340354D01*
X277559Y328937D02*
Y340354D01*
X283071D01*
X277559Y328937D02*
X283071D01*
X241339D02*
Y340354D01*
X235827Y328937D02*
Y340354D01*
X241339D01*
X235827Y328937D02*
X241339D01*
X271850Y295669D02*
X283268D01*
X271850Y301181D02*
X283268D01*
Y295669D02*
Y301181D01*
X271850Y295669D02*
Y301181D01*
X522835Y46260D02*
X528346D01*
X522835Y57677D02*
X528346D01*
X522835Y46260D02*
Y57677D01*
X528346Y46260D02*
Y57677D01*
X244094Y282480D02*
Y293898D01*
X249606Y282480D02*
Y293898D01*
X244094Y282480D02*
X249606D01*
X244094Y293898D02*
X249606D01*
X263583Y340354D02*
X274213D01*
X263583Y346260D02*
X274213D01*
Y340354D02*
Y346260D01*
X263583Y340354D02*
Y346260D01*
X244685Y346260D02*
X255315D01*
X244685Y340354D02*
X255315D01*
X244685D02*
Y346260D01*
X255315Y340354D02*
Y346260D01*
X263189Y329134D02*
X274606D01*
X263189Y334646D02*
X274606D01*
Y329134D02*
Y334646D01*
X263189Y329134D02*
Y334646D01*
X244291Y334646D02*
X255709D01*
X244291Y329134D02*
X255709D01*
X244291D02*
Y334646D01*
X255709Y329134D02*
Y334646D01*
X274803Y282087D02*
Y293504D01*
X269291Y282087D02*
Y293504D01*
X274803D01*
X269291Y282087D02*
X274803D01*
X448917Y279488D02*
Y292165D01*
X433760Y279488D02*
Y292165D01*
X448917D01*
X433760Y279488D02*
X448917D01*
X391929Y30512D02*
Y36417D01*
X402559Y30512D02*
Y36417D01*
X391929D02*
X402559D01*
X391929Y30512D02*
X402559D01*
X374721Y30709D02*
Y36220D01*
X386138Y30709D02*
Y36220D01*
X374721D02*
X386138D01*
X374721Y30709D02*
X386138D01*
X267028Y281457D02*
Y294134D01*
X251870Y281457D02*
Y294134D01*
X267028D01*
X251870Y281457D02*
X267028D01*
X62894Y197047D02*
Y204527D01*
X49508Y197047D02*
Y204527D01*
Y197047D02*
X62894D01*
X49508Y204527D02*
X62894D01*
X36811Y235236D02*
Y250591D01*
X14370Y235236D02*
Y250591D01*
Y235236D02*
X36811D01*
X14370Y250591D02*
X36811D01*
X67126Y158268D02*
X78543D01*
X67126Y163779D02*
X78543D01*
Y158268D02*
Y163779D01*
X67126Y158268D02*
Y163779D01*
X522441Y59138D02*
Y66618D01*
X535827Y59138D02*
Y66618D01*
X522441D02*
X535827D01*
X522441Y59138D02*
X535827D01*
X533858Y46260D02*
Y57677D01*
X539370Y46260D02*
Y57677D01*
X533858Y46260D02*
X539370D01*
X533858Y57677D02*
X539370D01*
X247835Y50591D02*
Y61221D01*
X253740Y50591D02*
Y61221D01*
X247835Y50591D02*
X253740D01*
X247835Y61221D02*
X253740D01*
X168701Y50591D02*
Y61221D01*
X174606Y50591D02*
Y61221D01*
X168701Y50591D02*
X174606D01*
X168701Y61221D02*
X174606D01*
X174409Y62795D02*
Y74213D01*
X168898Y62795D02*
Y74213D01*
X174409D01*
X168898Y62795D02*
X174409D01*
X253543D02*
Y74213D01*
X248031Y62795D02*
Y74213D01*
X253543D01*
X248031Y62795D02*
X253543D01*
X276969Y211024D02*
X288386D01*
X276969Y216535D02*
X288386D01*
Y211024D02*
Y216535D01*
X276969Y211024D02*
Y216535D01*
Y197835D02*
X287598D01*
X276969Y203740D02*
X287598D01*
Y197835D02*
Y203740D01*
X276969Y197835D02*
Y203740D01*
X254134Y216535D02*
X265551D01*
X254134Y211024D02*
X265551D01*
X254134D02*
Y216535D01*
X265551Y211024D02*
Y216535D01*
X254528Y203740D02*
X265158D01*
X254528Y197835D02*
X265158D01*
X254528D02*
Y203740D01*
X265158Y197835D02*
Y203740D01*
X252362Y195866D02*
Y207283D01*
X246850Y195866D02*
Y207283D01*
X252362D01*
X246850Y195866D02*
X252362D01*
X287402Y149803D02*
Y161221D01*
X281890Y149803D02*
Y161221D01*
X287402D01*
X281890Y149803D02*
X287402D01*
X285236Y166142D02*
X296654D01*
X285236Y171653D02*
X296654D01*
Y166142D02*
Y171653D01*
X285236Y166142D02*
Y171653D01*
X264469Y148779D02*
X279626D01*
X264469Y161457D02*
X279626D01*
X264469Y148779D02*
Y161457D01*
X279626Y148779D02*
Y161457D01*
X257480Y149803D02*
Y161221D01*
X262992Y149803D02*
Y161221D01*
X257480Y149803D02*
X262992D01*
X257480Y161221D02*
X262992D01*
X253346Y167027D02*
Y177657D01*
X259252Y167027D02*
Y177657D01*
X253346Y167027D02*
X259252D01*
X253346Y177657D02*
X259252D01*
X156102Y165354D02*
X167520D01*
X156102Y170866D02*
X167520D01*
Y165354D02*
Y170866D01*
X156102Y165354D02*
Y170866D01*
X160236Y148622D02*
Y160039D01*
X154724Y148622D02*
Y160039D01*
X160236D01*
X154724Y148622D02*
X160236D01*
X48819Y170686D02*
Y178166D01*
X35433Y170686D02*
Y178166D01*
Y170686D02*
X48819D01*
X35433Y178166D02*
X48819D01*
Y162008D02*
Y169488D01*
X35433Y162008D02*
Y169488D01*
Y162008D02*
X48819D01*
X35433Y169488D02*
X48819D01*
X60925Y160039D02*
Y178543D01*
X51476Y160039D02*
Y178543D01*
X60925D01*
X51476Y160039D02*
X60925D01*
X71653Y180905D02*
Y192323D01*
X77165Y180905D02*
Y192323D01*
X71653Y180905D02*
X77165D01*
X71653Y192323D02*
X77165D01*
X71653Y166732D02*
Y178150D01*
X77165Y166732D02*
Y178150D01*
X71653Y166732D02*
X77165D01*
X71653Y178150D02*
X77165D01*
X14370Y232874D02*
X36811D01*
X14370Y217520D02*
X36811D01*
X14370D02*
Y232874D01*
X36811Y217520D02*
Y232874D01*
X240748Y311614D02*
X246654D01*
X240748Y300984D02*
X246654D01*
Y311614D01*
X240748Y300984D02*
Y311614D01*
X391929Y41929D02*
X402559D01*
X391929Y47835D02*
X402559D01*
Y41929D02*
Y47835D01*
X391929Y41929D02*
Y47835D01*
X375000Y42126D02*
X386417D01*
X375000Y47638D02*
X386417D01*
Y42126D02*
Y47638D01*
X375000Y42126D02*
Y47638D01*
X391929Y73819D02*
X402559D01*
X391929Y79724D02*
X402559D01*
Y73819D02*
Y79724D01*
X391929Y73819D02*
Y79724D01*
Y63189D02*
X402559D01*
X391929Y69095D02*
X402559D01*
Y63189D02*
Y69095D01*
X391929Y63189D02*
Y69095D01*
X391929Y52559D02*
X402559D01*
X391929Y58465D02*
X402559D01*
Y52559D02*
Y58465D01*
X391929Y52559D02*
Y58465D01*
X287205Y17126D02*
X297835D01*
X287205Y11220D02*
X297835D01*
X287205D02*
Y17126D01*
X297835Y11220D02*
Y17126D01*
X287205Y38780D02*
X297835D01*
X287205Y32874D02*
X297835D01*
X287205D02*
Y38780D01*
X297835Y32874D02*
Y38780D01*
X297835Y54528D02*
Y60433D01*
X287205Y54528D02*
Y60433D01*
Y54528D02*
X297835D01*
X287205Y60433D02*
X297835D01*
X287205Y93504D02*
X297835D01*
X287205Y87598D02*
X297835D01*
X287205D02*
Y93504D01*
X297835Y87598D02*
Y93504D01*
X302559Y16929D02*
X313976D01*
X302559Y11417D02*
X313976D01*
X302559D02*
Y16929D01*
X313976Y11417D02*
Y16929D01*
X302559Y60236D02*
X313976D01*
X302559Y54724D02*
X313976D01*
X302559D02*
Y60236D01*
X313976Y54724D02*
Y60236D01*
X302559Y93307D02*
X313976D01*
X302559Y87795D02*
X313976D01*
X302559D02*
Y93307D01*
X313976Y87795D02*
Y93307D01*
X375000Y74016D02*
X386417D01*
X375000Y79528D02*
X386417D01*
Y74016D02*
Y79528D01*
X375000Y74016D02*
Y79528D01*
X445374Y326969D02*
X456004D01*
X445374Y332874D02*
X456004D01*
Y326969D02*
Y332874D01*
X445374Y326969D02*
Y332874D01*
X426476Y332874D02*
X437106D01*
X426476Y326969D02*
X437106D01*
X426476D02*
Y332874D01*
X437106Y326969D02*
Y332874D01*
X370768Y151142D02*
X385925D01*
X370768Y163819D02*
X385925D01*
X370768Y151142D02*
Y163819D01*
X385925Y151142D02*
Y163819D01*
X359646Y169882D02*
Y180512D01*
X365551Y169882D02*
Y180512D01*
X359646Y169882D02*
X365551D01*
X359646Y180512D02*
X365551D01*
X363386Y152165D02*
Y163583D01*
X368898Y152165D02*
Y163583D01*
X363386Y152165D02*
X368898D01*
X363386Y163583D02*
X368898D01*
X396358Y156201D02*
Y167618D01*
X390846Y156201D02*
Y167618D01*
X396358D01*
X390846Y156201D02*
X396358D01*
X390945Y169882D02*
X402362D01*
X390945Y175394D02*
X402362D01*
Y169882D02*
Y175394D01*
X390945Y169882D02*
Y175394D01*
X383465Y203543D02*
X394094D01*
X383465Y209449D02*
X394094D01*
Y203543D02*
Y209449D01*
X383465Y203543D02*
Y209449D01*
X383071Y211221D02*
X394488D01*
X383071Y216732D02*
X394488D01*
Y211221D02*
Y216732D01*
X383071Y211221D02*
Y216732D01*
X411811Y198228D02*
Y209646D01*
X406299Y198228D02*
Y209646D01*
X411811D01*
X406299Y198228D02*
X411811D01*
X360630Y209842D02*
X371260D01*
X360630Y203937D02*
X371260D01*
X360630D02*
Y209842D01*
X371260Y203937D02*
Y209842D01*
X358858Y198425D02*
Y209842D01*
X353346Y198425D02*
Y209842D01*
X358858D01*
X353346Y198425D02*
X358858D01*
X360138Y217520D02*
X371555D01*
X360138Y212008D02*
X371555D01*
X360138D02*
Y217520D01*
X371555Y212008D02*
Y217520D01*
X444980Y338583D02*
X456398D01*
X444980Y344094D02*
X456398D01*
Y338583D02*
Y344094D01*
X444980Y338583D02*
Y344094D01*
X545276Y157677D02*
Y169095D01*
X550787Y157677D02*
Y169095D01*
X545276Y157677D02*
X550787D01*
X545276Y169095D02*
X550787D01*
X537205Y158071D02*
Y168701D01*
X543110Y158071D02*
Y168701D01*
X537205Y158071D02*
X543110D01*
X537205Y168701D02*
X543110D01*
X550787Y178543D02*
Y189961D01*
X545276Y178543D02*
Y189961D01*
X550787D01*
X545276Y178543D02*
X550787D01*
X543110Y178937D02*
Y189567D01*
X537205Y178937D02*
Y189567D01*
X543110D01*
X537205Y178937D02*
X543110D01*
X538386Y197638D02*
X549803D01*
X538386Y203150D02*
X549803D01*
Y197638D02*
Y203150D01*
X538386Y197638D02*
Y203150D01*
X508661Y149409D02*
Y160827D01*
X514173Y149409D02*
Y160827D01*
X508661Y149409D02*
X514173D01*
X508661Y160827D02*
X514173D01*
X494291Y155413D02*
X505709D01*
X494291Y160925D02*
X505709D01*
Y155413D02*
Y160925D01*
X494291Y155413D02*
Y160925D01*
X375000Y63386D02*
X386417D01*
X375000Y68898D02*
X386417D01*
Y63386D02*
Y68898D01*
X375000Y63386D02*
Y68898D01*
X537205Y150787D02*
X548622D01*
X537205Y156299D02*
X548622D01*
Y150787D02*
Y156299D01*
X537205Y150787D02*
Y156299D01*
X506102Y191535D02*
X516732D01*
X506102Y185630D02*
X516732D01*
X506102D02*
Y191535D01*
X516732Y185630D02*
Y191535D01*
X488484Y189370D02*
X499902D01*
X488484Y183858D02*
X499902D01*
X488484D02*
Y189370D01*
X499902Y183858D02*
Y189370D01*
X488150Y165650D02*
Y180807D01*
X500827Y165650D02*
Y180807D01*
X488150D02*
X500827D01*
X488150Y165650D02*
X500827D01*
X526575Y266929D02*
X537992D01*
X526575Y261417D02*
X537992D01*
X526575D02*
Y266929D01*
X537992Y261417D02*
Y266929D01*
X493602Y244094D02*
X505020D01*
X493602Y249606D02*
X505020D01*
Y244094D02*
Y249606D01*
X493602Y244094D02*
Y249606D01*
Y251181D02*
X505020D01*
X493602Y256693D02*
X505020D01*
Y251181D02*
Y256693D01*
X493602Y251181D02*
Y256693D01*
X493504Y263779D02*
X504921D01*
X493504Y258268D02*
X504921D01*
X493504D02*
Y263779D01*
X504921Y258268D02*
Y263779D01*
X493504Y236614D02*
X504921D01*
X493504Y242126D02*
X504921D01*
Y236614D02*
Y242126D01*
X493504Y236614D02*
Y242126D01*
X511024Y225000D02*
Y236417D01*
X516536Y225000D02*
Y236417D01*
X511024Y225000D02*
X516536D01*
X511024Y236417D02*
X516536D01*
X527362Y229724D02*
X537992D01*
X527362Y235630D02*
X537992D01*
Y229724D02*
Y235630D01*
X527362Y229724D02*
Y235630D01*
X549016Y240748D02*
Y251378D01*
X554921Y240748D02*
Y251378D01*
X549016Y240748D02*
X554921D01*
X549016Y251378D02*
X554921D01*
X540945Y251772D02*
X546457D01*
X540945Y240354D02*
X546457D01*
Y251772D01*
X540945Y240354D02*
Y251772D01*
X537402Y335236D02*
Y346654D01*
X531890Y335236D02*
Y346654D01*
X537402D01*
X531890Y335236D02*
X537402D01*
X539173Y348425D02*
X550591D01*
X539173Y342913D02*
X550591D01*
X539173D02*
Y348425D01*
X550591Y342913D02*
Y348425D01*
X539961Y341142D02*
X550591D01*
X539961Y335236D02*
X550591D01*
X539961D02*
Y341142D01*
X550591Y335236D02*
Y341142D01*
X375000Y52756D02*
X386417D01*
X375000Y58268D02*
X386417D01*
Y52756D02*
Y58268D01*
X375000Y52756D02*
Y58268D01*
X437500Y338583D02*
Y344094D01*
X426083Y338583D02*
Y344094D01*
Y338583D02*
X437500D01*
X426083Y344094D02*
X437500D01*
X536811Y305807D02*
Y316437D01*
X542717Y305807D02*
Y316437D01*
X536811Y305807D02*
X542717D01*
X536811Y316437D02*
X542717D01*
X573228Y308071D02*
Y319488D01*
X567717Y308071D02*
Y319488D01*
X573228D01*
X567717Y308071D02*
X573228D01*
X567913Y304724D02*
X579331D01*
X567913Y299213D02*
X579331D01*
X567913D02*
Y304724D01*
X579331Y299213D02*
Y304724D01*
X557365Y288386D02*
Y299803D01*
X551853Y288386D02*
Y299803D01*
X557365D01*
X551853Y288386D02*
X557365D01*
X550656D02*
Y299803D01*
X545144Y288386D02*
Y299803D01*
X550656D01*
X545144Y288386D02*
X550656D01*
X538434D02*
Y299803D01*
X543946Y288386D02*
Y299803D01*
X538434Y288386D02*
X543946D01*
X538434Y299803D02*
X543946D01*
X517520Y305906D02*
X528937D01*
X517520Y311417D02*
X528937D01*
Y305906D02*
Y311417D01*
X517520Y305906D02*
Y311417D01*
X515354Y289567D02*
Y300984D01*
X509842Y289567D02*
Y300984D01*
X515354D01*
X509842Y289567D02*
X515354D01*
X507874Y289567D02*
Y300984D01*
X502362Y289567D02*
Y300984D01*
X507874D01*
X502362Y289567D02*
X507874D01*
X500017Y289173D02*
Y300590D01*
X494505Y289173D02*
Y300590D01*
X500017D01*
X494505Y289173D02*
X500017D01*
X487795D02*
Y300590D01*
X493307Y289173D02*
Y300590D01*
X487795Y289173D02*
X493307D01*
X487795Y300590D02*
X493307D01*
X485630Y307185D02*
Y317815D01*
X491535Y307185D02*
Y317815D01*
X485630Y307185D02*
X491535D01*
X485630Y317815D02*
X491535D01*
X488779Y342323D02*
X499409D01*
X488779Y336417D02*
X499409D01*
X488779D02*
Y342323D01*
X499409Y336417D02*
Y342323D01*
X487992Y349606D02*
X499409D01*
X487992Y344094D02*
X499409D01*
X487992D02*
Y349606D01*
X499409Y344094D02*
Y349606D01*
X486614Y336713D02*
Y348130D01*
X481102Y336713D02*
Y348130D01*
X486614D01*
X481102Y336713D02*
X486614D01*
X464468Y326181D02*
Y337598D01*
X458957Y326181D02*
Y337598D01*
X464468D01*
X458957Y326181D02*
X464468D01*
X423327D02*
Y337598D01*
X417815Y326181D02*
Y337598D01*
X423327D01*
X417815Y326181D02*
X423327D01*
X456693Y57846D02*
Y69263D01*
X462205Y57846D02*
Y69263D01*
X456693Y57846D02*
X462205D01*
X456693Y69263D02*
X462205D01*
X466535Y57904D02*
Y69321D01*
X472047Y57904D02*
Y69321D01*
X466535Y57904D02*
X472047D01*
X466535Y69321D02*
X472047D01*
X456299Y280512D02*
Y291929D01*
X450787Y280512D02*
Y291929D01*
X456299D01*
X450787Y280512D02*
X456299D01*
X454134Y293701D02*
X465551D01*
X454134Y299213D02*
X465551D01*
Y293701D02*
Y299213D01*
X454134Y293701D02*
Y299213D01*
X407283Y293701D02*
X418701D01*
X407283Y299213D02*
X418701D01*
Y293701D02*
Y299213D01*
X407283Y293701D02*
Y299213D01*
X422638Y300197D02*
Y310827D01*
X428543Y300197D02*
Y310827D01*
X422638Y300197D02*
X428543D01*
X422638Y310827D02*
X428543D01*
X302559Y82284D02*
X313976D01*
X302559Y76772D02*
X313976D01*
X302559D02*
Y82284D01*
X313976Y76772D02*
Y82284D01*
X287205Y82480D02*
X297835D01*
X287205Y76575D02*
X297835D01*
X287205D02*
Y82480D01*
X297835Y76575D02*
Y82480D01*
X426378Y280512D02*
Y291929D01*
X431890Y280512D02*
Y291929D01*
X426378Y280512D02*
X431890D01*
X426378Y291929D02*
X431890D01*
X182283Y328543D02*
X187795D01*
X182283Y339961D02*
X187795D01*
X182283Y328543D02*
Y339961D01*
X187795Y328543D02*
Y339961D01*
X48425Y329331D02*
X53937D01*
X48425Y340748D02*
X53937D01*
X48425Y329331D02*
Y340748D01*
X53937Y329331D02*
Y340748D01*
X177362Y295669D02*
X188779D01*
X177362Y301181D02*
X188779D01*
Y295669D02*
Y301181D01*
X177362Y295669D02*
Y301181D01*
X302559Y38583D02*
X313976D01*
X302559Y33071D02*
X313976D01*
X302559D02*
Y38583D01*
X313976Y33071D02*
Y38583D01*
X181496Y282087D02*
Y293504D01*
X175984Y282087D02*
Y293504D01*
X181496D01*
X175984Y282087D02*
X181496D01*
X51378Y312008D02*
X57284D01*
X51378Y301378D02*
X57284D01*
Y312008D01*
X51378Y301378D02*
Y312008D01*
X87008Y328937D02*
X92520D01*
X87008Y340354D02*
X92520D01*
X87008Y328937D02*
Y340354D01*
X92520Y328937D02*
Y340354D01*
X168701Y340551D02*
X180118D01*
X168701Y346063D02*
X180118D01*
Y340551D02*
Y346063D01*
X168701Y340551D02*
Y346063D01*
X169095Y328937D02*
X179724D01*
X169095Y334842D02*
X179724D01*
Y328937D02*
Y334842D01*
X169095Y328937D02*
Y334842D01*
X142126Y328543D02*
X147638D01*
X142126Y339961D02*
X147638D01*
X142126Y328543D02*
Y339961D01*
X147638Y328543D02*
Y339961D01*
X146653Y311614D02*
X152559D01*
X146653Y300984D02*
X152559D01*
Y311614D01*
X146653Y300984D02*
Y311614D01*
X149803Y346063D02*
X161221D01*
X149803Y340551D02*
X161221D01*
X149803D02*
Y346063D01*
X161221Y340551D02*
Y346063D01*
X150197Y334842D02*
X160827D01*
X150197Y328937D02*
X160827D01*
X150197D02*
Y334842D01*
X160827Y328937D02*
Y334842D01*
X149213Y282480D02*
Y293898D01*
X154724Y282480D02*
Y293898D01*
X149213Y282480D02*
X154724D01*
X149213Y293898D02*
X154724D01*
X157382Y281457D02*
X172539D01*
X157382Y294134D02*
X172539D01*
X157382Y281457D02*
Y294134D01*
X172539Y281457D02*
Y294134D01*
X302559Y71260D02*
X313976D01*
X302559Y65748D02*
X313976D01*
X302559D02*
Y71260D01*
X313976Y65748D02*
Y71260D01*
X343701Y282087D02*
Y293504D01*
X338189Y282087D02*
Y293504D01*
X343701D01*
X338189Y282087D02*
X343701D01*
X302559Y49213D02*
X313976D01*
X302559Y43701D02*
X313976D01*
X302559D02*
Y49213D01*
X313976Y43701D02*
Y49213D01*
X287205Y71457D02*
X297835D01*
X287205Y65551D02*
X297835D01*
X287205D02*
Y71457D01*
X297835Y65551D02*
Y71457D01*
X287205Y49409D02*
X297835D01*
X287205Y43504D02*
X297835D01*
X287205D02*
Y49409D01*
X297835Y43504D02*
Y49409D01*
X336024Y282087D02*
Y293504D01*
X330512Y282087D02*
Y293504D01*
X336024D01*
X330512Y282087D02*
X336024D01*
X328740D02*
Y293504D01*
X323228Y282087D02*
Y293504D01*
X328740D01*
X323228Y282087D02*
X328740D01*
X315748D02*
Y293504D01*
X321260Y282087D02*
Y293504D01*
X315748Y282087D02*
X321260D01*
X315748Y293504D02*
X321260D01*
X376378Y326575D02*
Y337992D01*
X370866Y326575D02*
Y337992D01*
X376378D01*
X370866Y326575D02*
X376378D01*
X392323Y338583D02*
X403740D01*
X392323Y344094D02*
X403740D01*
Y338583D02*
Y344094D01*
X392323Y338583D02*
Y344094D01*
X392717Y326969D02*
X403346D01*
X392717Y332874D02*
X403346D01*
Y326969D02*
Y332874D01*
X392717Y326969D02*
Y332874D01*
X394094Y280118D02*
Y291535D01*
X388583Y280118D02*
Y291535D01*
X394094D01*
X388583Y280118D02*
X394094D01*
X387008D02*
Y291535D01*
X381496Y280118D02*
Y291535D01*
X387008D01*
X381496Y280118D02*
X387008D01*
X374016D02*
Y291535D01*
X379528Y280118D02*
Y291535D01*
X374016Y280118D02*
X379528D01*
X374016Y291535D02*
X379528D01*
X374606Y299016D02*
Y309646D01*
X380512Y299016D02*
Y309646D01*
X374606Y299016D02*
X380512D01*
X374606Y309646D02*
X380512D01*
X317717Y328150D02*
Y339567D01*
X312205Y328150D02*
Y339567D01*
X317717D01*
X312205Y328150D02*
X317717D01*
X317126Y300590D02*
Y311221D01*
X323031Y300590D02*
Y311221D01*
X317126Y300590D02*
X323031D01*
X317126Y311221D02*
X323031D01*
X340354Y329724D02*
X350984D01*
X340354Y335630D02*
X350984D01*
Y329724D02*
Y335630D01*
X340354Y329724D02*
Y335630D01*
X339961Y340945D02*
X351378D01*
X339961Y346457D02*
X351378D01*
Y340945D02*
Y346457D01*
X339961Y340945D02*
Y346457D01*
X287205Y28150D02*
X297835D01*
X287205Y22244D02*
X297835D01*
X287205D02*
Y28150D01*
X297835Y22244D02*
Y28150D01*
X302559Y27953D02*
X313976D01*
X302559Y22441D02*
X313976D01*
X302559D02*
Y27953D01*
X313976Y22441D02*
Y27953D01*
X85039Y282480D02*
Y293898D01*
X79527Y282480D02*
Y293898D01*
X85039D01*
X79527Y282480D02*
X85039D01*
X83661Y296063D02*
X95079D01*
X83661Y301575D02*
X95079D01*
Y296063D02*
Y301575D01*
X83661Y296063D02*
Y301575D01*
X53543Y282382D02*
Y293799D01*
X59055Y282382D02*
Y293799D01*
X53543Y282382D02*
X59055D01*
X53543Y293799D02*
X59055D01*
X62894Y281850D02*
X78051D01*
X62894Y294528D02*
X78051D01*
X62894Y281850D02*
Y294528D01*
X78051Y281850D02*
Y294528D01*
X74213Y340945D02*
X85630D01*
X74213Y346457D02*
X85630D01*
Y340945D02*
Y346457D01*
X74213Y340945D02*
Y346457D01*
X74606Y329331D02*
X85236D01*
X74606Y335236D02*
X85236D01*
Y329331D02*
Y335236D01*
X74606Y329331D02*
Y335236D01*
X55315Y346457D02*
X66732D01*
X55315Y340945D02*
X66732D01*
X55315D02*
Y346457D01*
X66732Y340945D02*
Y346457D01*
X55709Y335236D02*
X66339D01*
X55709Y329331D02*
X66339D01*
X55709D02*
Y335236D01*
X66339Y329331D02*
Y335236D01*
X136122Y147598D02*
X151279D01*
X136122Y160276D02*
X151279D01*
X136122Y147598D02*
Y160276D01*
X151279Y147598D02*
Y160276D01*
X129134Y148622D02*
Y160039D01*
X134646Y148622D02*
Y160039D01*
X129134Y148622D02*
X134646D01*
X129134Y160039D02*
X134646D01*
X167717Y195866D02*
Y207283D01*
X162205Y195866D02*
Y207283D01*
X167717D01*
X162205Y195866D02*
X167717D01*
X149016Y207480D02*
X160433D01*
X149016Y212992D02*
X160433D01*
Y207480D02*
Y212992D01*
X149016Y207480D02*
Y212992D01*
Y195472D02*
X159646D01*
X149016Y201378D02*
X159646D01*
Y195472D02*
Y201378D01*
X149016Y195472D02*
Y201378D01*
X125394Y165945D02*
Y176575D01*
X131299Y165945D02*
Y176575D01*
X125394Y165945D02*
X131299D01*
X125394Y176575D02*
X131299D01*
X127362Y201378D02*
X137992D01*
X127362Y195472D02*
X137992D01*
X127362D02*
Y201378D01*
X137992Y195472D02*
Y201378D01*
X124803Y195079D02*
Y206496D01*
X119291Y195079D02*
Y206496D01*
X124803D01*
X119291Y195079D02*
X124803D01*
X126969Y212992D02*
X138386D01*
X126969Y207480D02*
X138386D01*
X126969D02*
Y212992D01*
X138386Y207480D02*
Y212992D01*
X321161Y12008D02*
X367815D01*
X321161Y75394D02*
X367815D01*
Y12008D02*
Y75394D01*
X321161Y12008D02*
Y75394D01*
X401575Y280118D02*
Y291535D01*
X396063Y280118D02*
Y291535D01*
X401575D01*
X396063Y280118D02*
X401575D01*
X35728Y252559D02*
Y260039D01*
X22343Y252559D02*
Y260039D01*
Y252559D02*
X35728D01*
X22343Y260039D02*
X35728D01*
X348622Y295276D02*
Y300787D01*
X360039Y295276D02*
Y300787D01*
X348622D02*
X360039D01*
X348622Y295276D02*
X360039D01*
X290158Y195866D02*
X295669D01*
X290158Y207283D02*
X295669D01*
X290158Y195866D02*
Y207283D01*
X295669Y195866D02*
Y207283D01*
X56693Y57677D02*
X62205D01*
X56693Y46260D02*
X62205D01*
Y57677D01*
X56693Y46260D02*
Y57677D01*
X51279Y8661D02*
Y14173D01*
X39862Y8661D02*
Y14173D01*
Y8661D02*
X51279D01*
X39862Y14173D02*
X51279D01*
M02*
