G04*
G04 #@! TF.GenerationSoftware,Altium Limited,Altium Designer,19.1.8 (144)*
G04*
G04 Layer_Physical_Order=2*
G04 Layer_Color=16711680*
%FSLAX25Y25*%
%MOIN*%
G70*
G01*
G75*
%ADD13C,0.01000*%
%ADD58C,0.02756*%
%ADD59R,0.07087X0.07087*%
%ADD60C,0.07087*%
%ADD61C,0.10630*%
%ADD62R,0.06299X0.06299*%
%ADD63C,0.06299*%
%ADD64R,0.06299X0.06299*%
%ADD65R,0.07087X0.07087*%
%ADD66C,0.02362*%
G36*
X301620Y319700D02*
X301158Y319509D01*
X268327Y352339D01*
X268519Y352801D01*
X301620D01*
X301620Y319700D01*
D02*
G37*
G36*
X134067Y243640D02*
X133861Y243502D01*
X133379Y242780D01*
X133209Y241929D01*
X133379Y241078D01*
X133861Y240357D01*
X133904Y240328D01*
Y238943D01*
X133404Y238736D01*
X132082Y240058D01*
X131586Y240389D01*
X131001Y240506D01*
X91972D01*
X91190Y241288D01*
X91200Y241339D01*
X91056Y242065D01*
X91336Y242565D01*
X128319D01*
X128349Y242522D01*
X129070Y242039D01*
X129921Y241870D01*
X130772Y242039D01*
X131493Y242522D01*
X131975Y243243D01*
X132145Y244094D01*
X132183Y244140D01*
X133916D01*
X134067Y243640D01*
D02*
G37*
G36*
X221223D02*
X220780Y242977D01*
X220611Y242126D01*
X220780Y241275D01*
X221262Y240553D01*
X221305Y240525D01*
Y237248D01*
X189177Y205119D01*
X189070Y205117D01*
X188582Y205605D01*
X188584Y205713D01*
X213680Y230808D01*
X214011Y231305D01*
X214128Y231890D01*
Y240314D01*
X214373Y240447D01*
X214628Y240514D01*
X215291Y240071D01*
X216142Y239902D01*
X216993Y240071D01*
X217714Y240553D01*
X218196Y241275D01*
X218366Y242126D01*
X218196Y242977D01*
X217753Y243640D01*
X217820Y243894D01*
X217953Y244140D01*
X221091D01*
X221223Y243640D01*
D02*
G37*
G36*
X90257Y237895D02*
X90753Y237563D01*
X91339Y237447D01*
X124412D01*
X124692Y236947D01*
X124548Y236221D01*
X124717Y235369D01*
X125160Y234707D01*
X125028Y234207D01*
X87248D01*
X86338Y235117D01*
X86584Y235578D01*
X86614Y235572D01*
X87465Y235741D01*
X88187Y236223D01*
X88669Y236944D01*
X88838Y237795D01*
X88740Y238287D01*
X89106Y238823D01*
X89310Y238842D01*
X90257Y237895D01*
D02*
G37*
G36*
X78618Y239522D02*
X78644Y239384D01*
X78485Y238583D01*
X78654Y237732D01*
X79136Y237010D01*
X79858Y236528D01*
X80709Y236359D01*
X80760Y236369D01*
X85533Y231596D01*
X85591Y231557D01*
X85439Y231057D01*
X82523D01*
X75836Y237744D01*
X75846Y237795D01*
X75677Y238646D01*
X75195Y239368D01*
X75170Y239384D01*
X75322Y239884D01*
X78425D01*
X78618Y239522D01*
D02*
G37*
G36*
X210724Y243640D02*
X210544Y243371D01*
X210375Y242520D01*
X210544Y241669D01*
X211026Y240947D01*
X211069Y240918D01*
Y232523D01*
X186271Y207725D01*
X186220Y207735D01*
X185369Y207566D01*
X184648Y207084D01*
X184221Y206445D01*
X183678Y206280D01*
X159300Y230658D01*
X159310Y230709D01*
X159141Y231560D01*
X158659Y232281D01*
X157938Y232763D01*
X157087Y232932D01*
X156236Y232763D01*
X155514Y232281D01*
X155032Y231560D01*
X154863Y230709D01*
X155032Y229858D01*
X155514Y229136D01*
X156236Y228654D01*
X157087Y228485D01*
X157137Y228495D01*
X228368Y157264D01*
Y156151D01*
X227868Y156102D01*
X227791Y156491D01*
X227459Y156987D01*
X194388Y190058D01*
X193892Y190389D01*
X193307Y190506D01*
X175591D01*
X175005Y190389D01*
X174509Y190058D01*
X168948Y184497D01*
X168898Y184507D01*
X168246Y184378D01*
X167746Y184693D01*
Y212130D01*
X167630Y212715D01*
X167298Y213211D01*
X141687Y238823D01*
Y241273D01*
X141730Y241301D01*
X142212Y242023D01*
X142381Y242874D01*
X142229Y243640D01*
X142490Y244140D01*
X210456D01*
X210724Y243640D01*
D02*
G37*
G36*
X223442Y230808D02*
X223452Y230733D01*
X221799Y229080D01*
X221467Y228583D01*
X221351Y227998D01*
Y170033D01*
X221467Y169448D01*
X221799Y168952D01*
X229682Y161068D01*
X229668Y160997D01*
X229126Y160833D01*
X194999Y194959D01*
X195245Y195420D01*
X195276Y195414D01*
X196127Y195583D01*
X196848Y196065D01*
X197330Y196787D01*
X197499Y197638D01*
X197330Y198489D01*
X196848Y199210D01*
X196805Y199239D01*
Y204878D01*
X222910Y230983D01*
X223442Y230808D01*
D02*
G37*
G36*
X183376Y181357D02*
X183719Y181014D01*
X183735Y180980D01*
X183603Y180315D01*
X183772Y179464D01*
X184254Y178743D01*
X184297Y178714D01*
Y170866D01*
X184414Y170281D01*
X184745Y169785D01*
X192838Y161692D01*
X192433Y161087D01*
X192264Y160236D01*
X192433Y159385D01*
X192915Y158663D01*
X193637Y158181D01*
X194488Y158012D01*
X195339Y158181D01*
X196060Y158663D01*
X196542Y159385D01*
X196712Y160236D01*
X196542Y161087D01*
X196060Y161808D01*
X196017Y161837D01*
Y162205D01*
X195901Y162790D01*
X195569Y163287D01*
X187356Y171500D01*
Y173553D01*
X187856Y173760D01*
X222167Y139449D01*
Y138183D01*
X221668Y137976D01*
X209349Y150294D01*
X208853Y150626D01*
X208268Y150742D01*
X176575D01*
X175989Y150626D01*
X175493Y150294D01*
X172689Y147489D01*
X172638Y147499D01*
X171986Y147370D01*
X171486Y147685D01*
Y170111D01*
X182626Y181251D01*
X182677Y181241D01*
X183342Y181373D01*
X183376Y181357D01*
D02*
G37*
G36*
X50532Y242065D02*
X35926Y227459D01*
X35595Y226963D01*
X35478Y226378D01*
Y183559D01*
X9472Y157553D01*
X9010Y157744D01*
Y168658D01*
X15988Y175636D01*
X23596D01*
X23624Y175593D01*
X24346Y175111D01*
X25197Y174942D01*
X26048Y175111D01*
X26769Y175593D01*
X27251Y176314D01*
X27421Y177165D01*
X27251Y178016D01*
X26769Y178738D01*
X26048Y179220D01*
X25197Y179389D01*
X24346Y179220D01*
X23624Y178738D01*
X23596Y178695D01*
X15354D01*
X14769Y178578D01*
X14273Y178247D01*
X7109Y171083D01*
X6647Y171275D01*
Y177713D01*
X29664Y200730D01*
X29996Y201226D01*
X30112Y201811D01*
Y206824D01*
X30155Y206853D01*
X30637Y207574D01*
X30806Y208425D01*
X30637Y209276D01*
X30155Y209998D01*
X29434Y210480D01*
X28583Y210649D01*
X27732Y210480D01*
X27561Y210366D01*
X27120Y210601D01*
Y221020D01*
X48665Y242565D01*
X50325D01*
X50532Y242065D01*
D02*
G37*
G36*
X187365Y147183D02*
X186922Y146520D01*
X186752Y145669D01*
X186922Y144818D01*
X187404Y144097D01*
X188125Y143615D01*
X188976Y143446D01*
X189827Y143615D01*
X190549Y144097D01*
X190578Y144140D01*
X207634D01*
X208406Y143368D01*
X208199Y142868D01*
X173860D01*
X173709Y143368D01*
X174210Y143703D01*
X174692Y144425D01*
X174862Y145276D01*
X174852Y145326D01*
X177208Y147683D01*
X187233D01*
X187365Y147183D01*
D02*
G37*
G36*
X224849Y155272D02*
Y141801D01*
X224349Y141594D01*
X190112Y175830D01*
Y181470D01*
X190155Y181498D01*
X190637Y182220D01*
X190806Y183071D01*
X190637Y183922D01*
X190155Y184643D01*
X189434Y185125D01*
X188583Y185295D01*
X187732Y185125D01*
X187010Y184643D01*
X186528Y183922D01*
X186359Y183071D01*
X186403Y182848D01*
X186050Y182494D01*
X185827Y182539D01*
X185161Y182406D01*
X185128Y182423D01*
X184785Y182766D01*
X184769Y182799D01*
X184901Y183465D01*
X184732Y184316D01*
X184250Y185037D01*
X183528Y185519D01*
X182677Y185688D01*
X181826Y185519D01*
X181105Y185037D01*
X181056Y184965D01*
X180789Y185006D01*
X180555Y185115D01*
X180401Y185890D01*
X179919Y186612D01*
X179417Y186947D01*
X179569Y187447D01*
X192674D01*
X224849Y155272D01*
D02*
G37*
G36*
X183463Y120540D02*
Y102206D01*
X177199Y95943D01*
X171724D01*
X171139Y95826D01*
X170643Y95495D01*
X169072Y93924D01*
X168984Y93793D01*
X168604Y93412D01*
X168565Y93354D01*
X168065Y93506D01*
Y117477D01*
X174359Y123770D01*
X174409Y123760D01*
X175260Y123930D01*
X175982Y124412D01*
X176464Y125133D01*
X176633Y125984D01*
X176464Y126835D01*
X176860Y127143D01*
X183463Y120540D01*
D02*
G37*
G36*
X80098Y352339D02*
X54704Y326945D01*
X53942Y327261D01*
X52756Y327417D01*
X51570Y327261D01*
X50465Y326803D01*
X49516Y326075D01*
X48787Y325126D01*
X48330Y324021D01*
X48173Y322835D01*
X48330Y321649D01*
X48787Y320543D01*
X49516Y319594D01*
X50465Y318866D01*
X51570Y318408D01*
X52756Y318252D01*
X53942Y318408D01*
X55047Y318866D01*
X55996Y319594D01*
X56725Y320543D01*
X57182Y321649D01*
X57338Y322835D01*
X57182Y324021D01*
X56867Y324782D01*
X82523Y350439D01*
X265902D01*
X299652Y316689D01*
Y110829D01*
X299170Y110696D01*
X298583Y111793D01*
X297794Y112755D01*
X296832Y113544D01*
X295736Y114130D01*
X294545Y114491D01*
X293307Y114613D01*
X292069Y114491D01*
X290879Y114130D01*
X289782Y113544D01*
X288820Y112755D01*
X288031Y111793D01*
X287445Y110696D01*
X287084Y109506D01*
X286962Y108268D01*
X287084Y107030D01*
X287445Y105839D01*
X288031Y104742D01*
X288820Y103781D01*
X289782Y102992D01*
X290879Y102405D01*
X292069Y102044D01*
X293307Y101922D01*
X294545Y102044D01*
X295736Y102405D01*
X296832Y102992D01*
X297794Y103781D01*
X298583Y104742D01*
X299170Y105839D01*
X299652Y105706D01*
Y97878D01*
X257241Y55466D01*
X222903D01*
X222696Y55966D01*
X232577Y65848D01*
X232909Y66344D01*
X233026Y66929D01*
Y71657D01*
X233525Y71936D01*
X234252Y71792D01*
X235103Y71961D01*
X235824Y72443D01*
X236307Y73165D01*
X236476Y74016D01*
X236307Y74867D01*
X235824Y75588D01*
X235781Y75617D01*
Y77165D01*
X235781Y195823D01*
X258562Y218604D01*
X258893Y219100D01*
X259010Y219685D01*
Y235407D01*
X259053Y235435D01*
X259535Y236157D01*
X259704Y237008D01*
X259535Y237859D01*
X259053Y238580D01*
X258331Y239062D01*
X257480Y239232D01*
X256629Y239062D01*
X255908Y238580D01*
X255426Y237859D01*
X255257Y237008D01*
X255426Y236157D01*
X255908Y235435D01*
X255951Y235407D01*
Y220319D01*
X233171Y197538D01*
X232839Y197042D01*
X232723Y196457D01*
Y163061D01*
X232223Y162854D01*
X224410Y170667D01*
Y227365D01*
X225933Y228889D01*
X225984Y228878D01*
X226835Y229048D01*
X227557Y229530D01*
X228039Y230251D01*
X228208Y231102D01*
X228039Y231953D01*
X227557Y232675D01*
X226835Y233157D01*
X225984Y233326D01*
X225954Y233320D01*
X225708Y233781D01*
X227066Y235139D01*
X227397Y235635D01*
X227514Y236221D01*
Y242768D01*
X227397Y243353D01*
X227066Y243849D01*
X224164Y246751D01*
X223668Y247082D01*
X223083Y247199D01*
X216142D01*
X216011Y247173D01*
X215881Y247199D01*
X131496D01*
X130911Y247082D01*
X130415Y246751D01*
X129972Y246308D01*
X129921Y246318D01*
X129070Y246148D01*
X128349Y245667D01*
X128320Y245624D01*
X78767D01*
X78738Y245667D01*
X78016Y246149D01*
X77165Y246318D01*
X76314Y246149D01*
X75593Y245667D01*
X75564Y245624D01*
X48031D01*
X47446Y245508D01*
X46950Y245176D01*
X24509Y222735D01*
X24178Y222239D01*
X24061Y221654D01*
Y206719D01*
X24018Y206691D01*
X23536Y205969D01*
X23367Y205118D01*
X23536Y204267D01*
X24018Y203546D01*
X24739Y203064D01*
X25591Y202894D01*
X26442Y203064D01*
X26612Y203178D01*
X27053Y202942D01*
Y202445D01*
X4037Y179428D01*
X3705Y178932D01*
X3589Y178347D01*
X3589Y33071D01*
X3705Y32486D01*
X4037Y31989D01*
X31202Y4824D01*
X31698Y4493D01*
X32283Y4376D01*
X156299D01*
X156885Y4493D01*
X157381Y4824D01*
X170712Y18156D01*
X185013D01*
X185042Y18113D01*
X185763Y17630D01*
X186614Y17461D01*
X187465Y17630D01*
X188187Y18113D01*
X188669Y18834D01*
X188838Y19685D01*
X188708Y20337D01*
X189023Y20837D01*
X208890D01*
X215060Y14667D01*
X215556Y14335D01*
X216142Y14219D01*
X221338D01*
X221366Y14175D01*
X222088Y13693D01*
X222939Y13524D01*
X223790Y13693D01*
X224511Y14175D01*
X224993Y14897D01*
X225163Y15748D01*
X224993Y16599D01*
X224511Y17321D01*
X223790Y17803D01*
X222939Y17972D01*
X222088Y17803D01*
X221366Y17321D01*
X221338Y17277D01*
X216775D01*
X211264Y22788D01*
X211456Y23250D01*
X218874D01*
X219459Y23367D01*
X219955Y23698D01*
X223965Y27707D01*
X224016Y27697D01*
X224867Y27867D01*
X225588Y28349D01*
X226070Y29070D01*
X226240Y29921D01*
X226070Y30772D01*
X225588Y31494D01*
X224867Y31976D01*
X224016Y32145D01*
X223165Y31976D01*
X222443Y31494D01*
X221961Y30772D01*
X221792Y29921D01*
X221802Y29870D01*
X218240Y26309D01*
X216187D01*
X215980Y26809D01*
X223916Y34745D01*
X224248Y35241D01*
X224364Y35827D01*
Y48399D01*
X224407Y48428D01*
X224889Y49149D01*
X225059Y50000D01*
X224889Y50851D01*
X224407Y51573D01*
X223906Y51908D01*
X224057Y52408D01*
X257874D01*
X258459Y52524D01*
X258956Y52856D01*
X301158Y95058D01*
X301620Y94867D01*
X301620Y1529D01*
X1529D01*
X1529Y352801D01*
X79906D01*
X80098Y352339D01*
D02*
G37*
G36*
X213431Y134406D02*
Y106708D01*
X212969Y106516D01*
X203395Y116091D01*
X203405Y116142D01*
X203236Y116993D01*
X202754Y117714D01*
X202032Y118196D01*
X201181Y118366D01*
X200529Y118236D01*
X200029Y118551D01*
Y126551D01*
X199913Y127137D01*
X199581Y127633D01*
X187867Y139347D01*
X188058Y139809D01*
X208028D01*
X213431Y134406D01*
D02*
G37*
G36*
X192128Y111026D02*
X192850Y110544D01*
X193701Y110375D01*
X194552Y110544D01*
X194872Y110758D01*
X195372Y110491D01*
Y100044D01*
X191883Y96555D01*
X191844Y96497D01*
X191344Y96648D01*
Y111300D01*
X191844Y111451D01*
X192128Y111026D01*
D02*
G37*
G36*
X228368Y88379D02*
Y71476D01*
X225726Y68834D01*
X225226Y69041D01*
Y87748D01*
X225726Y88063D01*
X226378Y87934D01*
X227229Y88103D01*
X227868Y88530D01*
X228368Y88379D01*
D02*
G37*
G36*
X201181Y109981D02*
X201232Y109991D01*
X209864Y101359D01*
Y82500D01*
X205169Y77804D01*
X205118Y77814D01*
X204267Y77645D01*
X203546Y77163D01*
X203064Y76442D01*
X202894Y75590D01*
X202986Y75129D01*
X202758Y74670D01*
X202613Y74636D01*
X201905Y74496D01*
X201183Y74013D01*
X200701Y73292D01*
X200532Y72441D01*
X200701Y71590D01*
X201183Y70868D01*
X201905Y70386D01*
X202756Y70217D01*
X203607Y70386D01*
X204328Y70868D01*
X204357Y70912D01*
X205760D01*
X206345Y71028D01*
X206842Y71359D01*
X212969Y77487D01*
X213431Y77296D01*
Y67563D01*
X211571Y65703D01*
X201208D01*
X201179Y65746D01*
X200457Y66228D01*
X199606Y66397D01*
X198755Y66228D01*
X198034Y65746D01*
X197552Y65024D01*
X197382Y64173D01*
X197552Y63322D01*
X198034Y62601D01*
X198755Y62119D01*
X199463Y61978D01*
X199609Y61945D01*
X199837Y61485D01*
X199745Y61024D01*
X199755Y60971D01*
X199438Y60584D01*
X190971D01*
X190943Y60628D01*
X190221Y61110D01*
X189370Y61279D01*
X188519Y61110D01*
X187798Y60628D01*
X187781Y60602D01*
X187212Y60566D01*
X186962Y60831D01*
Y62205D01*
X186846Y62790D01*
X186514Y63286D01*
X186364Y63437D01*
X186529Y63979D01*
X187072Y64087D01*
X187793Y64569D01*
X188275Y65291D01*
X188444Y66142D01*
X188434Y66193D01*
X198326Y76084D01*
X198657Y76580D01*
X198774Y77165D01*
Y92099D01*
X198817Y92128D01*
X199299Y92850D01*
X199468Y93701D01*
X199299Y94552D01*
X198817Y95273D01*
X198264Y95642D01*
X198133Y96219D01*
X199581Y97667D01*
X199913Y98163D01*
X200029Y98748D01*
Y109795D01*
X200529Y110110D01*
X201181Y109981D01*
D02*
G37*
G36*
X220015Y108182D02*
X220866Y108012D01*
X221668Y108172D01*
X221805Y108146D01*
X222167Y107952D01*
Y69067D01*
X219746Y66645D01*
X219246Y66852D01*
Y108094D01*
X219746Y108361D01*
X220015Y108182D01*
D02*
G37*
G36*
X187798Y57483D02*
X188519Y57001D01*
X189370Y56831D01*
X190221Y57001D01*
X190943Y57483D01*
X190971Y57526D01*
X197229D01*
X197421Y57064D01*
X190574Y50217D01*
X190112Y50409D01*
Y52336D01*
X190155Y52364D01*
X190637Y53086D01*
X190806Y53937D01*
X190637Y54788D01*
X190155Y55510D01*
X189434Y55992D01*
X188583Y56161D01*
X187732Y55992D01*
X187010Y55510D01*
X186528Y54788D01*
X186359Y53937D01*
X186528Y53086D01*
X187010Y52364D01*
X187053Y52336D01*
Y51748D01*
X186553Y51481D01*
X186284Y51661D01*
X185433Y51830D01*
X185382Y51820D01*
X183470Y53732D01*
Y57235D01*
X183970Y57409D01*
X184582Y57001D01*
X185433Y56831D01*
X186284Y57001D01*
X187006Y57483D01*
X187152Y57701D01*
X187652D01*
X187798Y57483D01*
D02*
G37*
G36*
X199848Y54459D02*
X199745Y53937D01*
X199914Y53086D01*
X200396Y52364D01*
X201117Y51882D01*
X201969Y51713D01*
X202819Y51882D01*
X203541Y52364D01*
X203570Y52408D01*
X221612D01*
X221764Y51908D01*
X221262Y51573D01*
X220780Y50851D01*
X220611Y50000D01*
X220780Y49149D01*
X221262Y48428D01*
X221305Y48399D01*
Y36460D01*
X213933Y29089D01*
X182935D01*
X182790Y29567D01*
X182817Y29585D01*
X183342Y30371D01*
X183527Y31299D01*
X183342Y32227D01*
X182817Y33014D01*
X182030Y33539D01*
X181102Y33724D01*
X180175Y33539D01*
X179388Y33014D01*
X178862Y32227D01*
X178678Y31299D01*
X178862Y30371D01*
X179388Y29585D01*
X179415Y29567D01*
X179270Y29089D01*
X177334D01*
X177202Y29588D01*
X177645Y30251D01*
X177814Y31102D01*
X177645Y31953D01*
X177163Y32675D01*
X177120Y32704D01*
Y35339D01*
X186198Y44416D01*
X186660Y44225D01*
Y43727D01*
X186617Y43698D01*
X186134Y42977D01*
X185965Y42126D01*
X186134Y41275D01*
X186617Y40554D01*
X187338Y40071D01*
X188189Y39902D01*
X189040Y40071D01*
X189761Y40554D01*
X190243Y41275D01*
X190413Y42126D01*
X190243Y42977D01*
X189761Y43698D01*
X189718Y43727D01*
Y45036D01*
X199388Y54705D01*
X199848Y54459D01*
D02*
G37*
G36*
X72074Y239384D02*
X72050Y239368D01*
X71567Y238646D01*
X71398Y237795D01*
X71567Y236944D01*
X72050Y236223D01*
X72771Y235741D01*
X73622Y235572D01*
X73673Y235582D01*
X80808Y228446D01*
X81305Y228115D01*
X81890Y227998D01*
X132831D01*
X155534Y205296D01*
Y141235D01*
X155650Y140650D01*
X155982Y140154D01*
X167067Y129068D01*
X167563Y128737D01*
X168149Y128620D01*
X173918D01*
X173968Y128120D01*
X173558Y128039D01*
X172837Y127557D01*
X172355Y126835D01*
X172186Y125984D01*
X172196Y125933D01*
X165454Y119192D01*
X165122Y118695D01*
X165006Y118110D01*
Y87153D01*
X165122Y86568D01*
X165454Y86072D01*
X168156Y83370D01*
Y64200D01*
X168113Y64171D01*
X167631Y63450D01*
X167461Y62598D01*
X167631Y61747D01*
X168035Y61142D01*
X151335Y44443D01*
X95302D01*
X95273Y44486D01*
X94552Y44968D01*
X93701Y45137D01*
X92850Y44968D01*
X92128Y44486D01*
X91646Y43764D01*
X91477Y42913D01*
X91646Y42062D01*
X92128Y41341D01*
X92522Y41078D01*
Y40943D01*
X92040Y40221D01*
X91871Y39370D01*
X92040Y38519D01*
X92522Y37798D01*
X93243Y37315D01*
X94095Y37146D01*
X94946Y37315D01*
X95667Y37798D01*
X95696Y37841D01*
X152609D01*
X153194Y37957D01*
X153691Y38289D01*
X169343Y53941D01*
X169805Y53750D01*
Y52287D01*
X169922Y51702D01*
X170253Y51205D01*
X170621Y50838D01*
X170610Y50787D01*
X170780Y49936D01*
X171262Y49215D01*
X171983Y48733D01*
X172834Y48564D01*
X173685Y48733D01*
X174407Y49215D01*
X174889Y49936D01*
X175058Y50787D01*
X174889Y51638D01*
X174578Y52103D01*
X174795Y52656D01*
X174867Y52670D01*
X175588Y53152D01*
X176070Y53873D01*
X176240Y54724D01*
X176230Y54775D01*
X179306Y57852D01*
X179637Y58348D01*
X179754Y58933D01*
Y84318D01*
X180254Y84555D01*
X181102Y84386D01*
X182030Y84571D01*
X182817Y85097D01*
X183342Y85883D01*
X183403Y86190D01*
X183903Y86140D01*
Y80735D01*
X183860Y80706D01*
X183378Y79985D01*
X183209Y79134D01*
X183378Y78283D01*
X183860Y77561D01*
X184582Y77079D01*
X185433Y76910D01*
X185955Y77014D01*
X186201Y76553D01*
X180859Y71211D01*
X180528Y70715D01*
X180412Y70130D01*
Y53098D01*
X180528Y52513D01*
X180859Y52017D01*
X183219Y49657D01*
X183209Y49606D01*
X183379Y48755D01*
X183861Y48034D01*
X184413Y47665D01*
X184544Y47088D01*
X174509Y37054D01*
X174178Y36557D01*
X174061Y35972D01*
Y32704D01*
X174018Y32675D01*
X173536Y31953D01*
X173367Y31102D01*
X173536Y30251D01*
X173979Y29588D01*
X173847Y29089D01*
X163779D01*
X163194Y28972D01*
X162698Y28640D01*
X149366Y15309D01*
X136854D01*
X124655Y27508D01*
X124665Y27559D01*
X124495Y28410D01*
X124013Y29131D01*
X123292Y29614D01*
X122441Y29783D01*
X121590Y29614D01*
X120869Y29131D01*
X120386Y28410D01*
X120217Y27559D01*
X120386Y26708D01*
X120869Y25987D01*
X121590Y25504D01*
X122441Y25335D01*
X122492Y25345D01*
X134429Y13409D01*
X134237Y12947D01*
X34098D01*
X10978Y36067D01*
X10978Y154733D01*
X38089Y181844D01*
X38421Y182341D01*
X38537Y182926D01*
Y225745D01*
X52677Y239884D01*
X71922D01*
X72074Y239384D01*
D02*
G37*
%LPC*%
G36*
X293307Y350834D02*
X292069Y350712D01*
X290879Y350351D01*
X289782Y349764D01*
X288820Y348975D01*
X288031Y348014D01*
X287445Y346917D01*
X287084Y345726D01*
X286962Y344488D01*
X287084Y343250D01*
X287445Y342060D01*
X288031Y340963D01*
X288820Y340001D01*
X289782Y339212D01*
X290879Y338626D01*
X292069Y338265D01*
X293307Y338143D01*
X294545Y338265D01*
X295735Y338626D01*
X296832Y339212D01*
X297794Y340001D01*
X298583Y340963D01*
X299170Y342060D01*
X299531Y343250D01*
X299653Y344488D01*
X299531Y345726D01*
X299170Y346917D01*
X298583Y348014D01*
X297794Y348975D01*
X296832Y349764D01*
X295735Y350351D01*
X294545Y350712D01*
X293307Y350834D01*
D02*
G37*
G36*
X175197Y113826D02*
X173959Y113704D01*
X172769Y113343D01*
X171671Y112756D01*
X170710Y111967D01*
X169921Y111006D01*
X169334Y109909D01*
X168973Y108718D01*
X168851Y107480D01*
X168973Y106242D01*
X169334Y105052D01*
X169921Y103955D01*
X170710Y102993D01*
X171671Y102204D01*
X172769Y101618D01*
X173959Y101257D01*
X175197Y101135D01*
X176435Y101257D01*
X177625Y101618D01*
X178722Y102204D01*
X179684Y102993D01*
X180473Y103955D01*
X181059Y105052D01*
X181421Y106242D01*
X181542Y107480D01*
X181421Y108718D01*
X181059Y109909D01*
X180473Y111006D01*
X179684Y111967D01*
X178722Y112756D01*
X177625Y113343D01*
X176435Y113704D01*
X175197Y113826D01*
D02*
G37*
G36*
X9843Y350834D02*
X8605Y350712D01*
X7414Y350351D01*
X6317Y349764D01*
X5356Y348975D01*
X4566Y348014D01*
X3980Y346917D01*
X3619Y345726D01*
X3497Y344488D01*
X3619Y343250D01*
X3980Y342060D01*
X4566Y340963D01*
X5356Y340001D01*
X6317Y339212D01*
X7414Y338626D01*
X8605Y338265D01*
X9843Y338143D01*
X11080Y338265D01*
X12271Y338626D01*
X13368Y339212D01*
X14330Y340001D01*
X15119Y340963D01*
X15705Y342060D01*
X16066Y343250D01*
X16188Y344488D01*
X16066Y345726D01*
X15705Y346917D01*
X15119Y348014D01*
X14330Y348975D01*
X13368Y349764D01*
X12271Y350351D01*
X11080Y350712D01*
X9843Y350834D01*
D02*
G37*
G36*
X142126Y342929D02*
X140940Y342773D01*
X139835Y342315D01*
X138886Y341587D01*
X138157Y340638D01*
X137700Y339532D01*
X137543Y338347D01*
X137700Y337160D01*
X138157Y336055D01*
X138886Y335106D01*
X139835Y334378D01*
X140940Y333920D01*
X142126Y333764D01*
X143312Y333920D01*
X144417Y334378D01*
X145366Y335106D01*
X146095Y336055D01*
X146552Y337160D01*
X146709Y338347D01*
X146552Y339532D01*
X146095Y340638D01*
X145366Y341587D01*
X144417Y342315D01*
X143312Y342773D01*
X142126Y342929D01*
D02*
G37*
G36*
X94882D02*
X93696Y342773D01*
X92591Y342315D01*
X91642Y341587D01*
X90913Y340638D01*
X90456Y339532D01*
X90299Y338347D01*
X90456Y337160D01*
X90913Y336055D01*
X91642Y335106D01*
X92591Y334378D01*
X93696Y333920D01*
X94882Y333764D01*
X96068Y333920D01*
X97173Y334378D01*
X98122Y335106D01*
X98851Y336055D01*
X99308Y337160D01*
X99464Y338347D01*
X99308Y339532D01*
X98851Y340638D01*
X98122Y341587D01*
X97173Y342315D01*
X96068Y342773D01*
X94882Y342929D01*
D02*
G37*
G36*
X170472Y339412D02*
X169687Y339308D01*
X168956Y339005D01*
X168327Y338523D01*
X167845Y337895D01*
X167542Y337163D01*
X167439Y336378D01*
X167542Y335593D01*
X167845Y334861D01*
X168327Y334233D01*
X168956Y333751D01*
X169687Y333448D01*
X170472Y333344D01*
X171258Y333448D01*
X171989Y333751D01*
X172618Y334233D01*
X173100Y334861D01*
X173403Y335593D01*
X173506Y336378D01*
X173403Y337163D01*
X173100Y337895D01*
X172618Y338523D01*
X171989Y339005D01*
X171258Y339308D01*
X170472Y339412D01*
D02*
G37*
G36*
X205906Y339412D02*
X205120Y339308D01*
X204389Y339005D01*
X203760Y338523D01*
X203278Y337895D01*
X202975Y337163D01*
X202872Y336378D01*
X202975Y335593D01*
X203278Y334861D01*
X203760Y334233D01*
X204389Y333751D01*
X205120Y333448D01*
X205906Y333344D01*
X206691Y333448D01*
X207422Y333751D01*
X208051Y334233D01*
X208533Y334861D01*
X208836Y335593D01*
X208939Y336378D01*
X208836Y337163D01*
X208533Y337895D01*
X208051Y338523D01*
X207422Y339005D01*
X206691Y339308D01*
X205906Y339412D01*
D02*
G37*
G36*
X227953Y339018D02*
X227168Y338915D01*
X226436Y338612D01*
X225807Y338129D01*
X225325Y337501D01*
X225022Y336770D01*
X224919Y335984D01*
X225022Y335199D01*
X225325Y334467D01*
X225807Y333839D01*
X226436Y333357D01*
X227168Y333054D01*
X227953Y332950D01*
X228738Y333054D01*
X229470Y333357D01*
X230098Y333839D01*
X230580Y334467D01*
X230883Y335199D01*
X230987Y335984D01*
X230883Y336770D01*
X230580Y337501D01*
X230098Y338129D01*
X229470Y338612D01*
X228738Y338915D01*
X227953Y339018D01*
D02*
G37*
G36*
X263386Y339018D02*
X262601Y338915D01*
X261869Y338612D01*
X261241Y338129D01*
X260758Y337501D01*
X260455Y336769D01*
X260352Y335984D01*
X260455Y335199D01*
X260758Y334467D01*
X261241Y333839D01*
X261869Y333357D01*
X262601Y333054D01*
X263386Y332950D01*
X264171Y333054D01*
X264903Y333357D01*
X265531Y333839D01*
X266013Y334467D01*
X266316Y335199D01*
X266420Y335984D01*
X266316Y336769D01*
X266013Y337501D01*
X265531Y338129D01*
X264903Y338612D01*
X264171Y338915D01*
X263386Y339018D01*
D02*
G37*
G36*
X76378Y335685D02*
X75192Y335529D01*
X74087Y335071D01*
X73138Y334343D01*
X72409Y333394D01*
X71952Y332288D01*
X71795Y331102D01*
X71952Y329916D01*
X72409Y328811D01*
X73138Y327862D01*
X74087Y327134D01*
X75192Y326676D01*
X76378Y326520D01*
X77564Y326676D01*
X78669Y327134D01*
X79618Y327862D01*
X80347Y328811D01*
X80804Y329916D01*
X80961Y331102D01*
X80804Y332288D01*
X80347Y333394D01*
X79618Y334343D01*
X78669Y335071D01*
X77564Y335529D01*
X76378Y335685D01*
D02*
G37*
G36*
X29134D02*
X27948Y335529D01*
X26843Y335071D01*
X25894Y334343D01*
X25165Y333394D01*
X24708Y332288D01*
X24551Y331102D01*
X24708Y329916D01*
X25165Y328811D01*
X25894Y327862D01*
X26843Y327134D01*
X27948Y326676D01*
X29134Y326520D01*
X30320Y326676D01*
X31425Y327134D01*
X32374Y327862D01*
X33102Y328811D01*
X33560Y329916D01*
X33716Y331102D01*
X33560Y332288D01*
X33102Y333394D01*
X32374Y334343D01*
X31425Y335071D01*
X30320Y335529D01*
X29134Y335685D01*
D02*
G37*
G36*
X134858Y327378D02*
X125772D01*
Y318291D01*
X134858D01*
Y327378D01*
D02*
G37*
G36*
X118504Y327417D02*
X117318Y327261D01*
X116213Y326803D01*
X115264Y326075D01*
X114535Y325126D01*
X114078Y324021D01*
X113921Y322835D01*
X114078Y321649D01*
X114535Y320543D01*
X115264Y319594D01*
X116213Y318866D01*
X117318Y318408D01*
X118504Y318252D01*
X119690Y318408D01*
X120795Y318866D01*
X121744Y319594D01*
X122473Y320543D01*
X122930Y321649D01*
X123086Y322835D01*
X122930Y324021D01*
X122473Y325126D01*
X121744Y326075D01*
X120795Y326803D01*
X119690Y327261D01*
X118504Y327417D01*
D02*
G37*
G36*
X106693D02*
X105507Y327261D01*
X104402Y326803D01*
X103453Y326075D01*
X102724Y325126D01*
X102267Y324021D01*
X102110Y322835D01*
X102267Y321649D01*
X102724Y320543D01*
X103453Y319594D01*
X104402Y318866D01*
X105507Y318408D01*
X106693Y318252D01*
X107879Y318408D01*
X108984Y318866D01*
X109933Y319594D01*
X110661Y320543D01*
X111119Y321649D01*
X111275Y322835D01*
X111119Y324021D01*
X110661Y325126D01*
X109933Y326075D01*
X108984Y326803D01*
X107879Y327261D01*
X106693Y327417D01*
D02*
G37*
G36*
X64567Y327417D02*
X63381Y327261D01*
X62276Y326803D01*
X61327Y326075D01*
X60598Y325126D01*
X60141Y324021D01*
X59984Y322835D01*
X60141Y321649D01*
X60598Y320543D01*
X61327Y319594D01*
X62276Y318866D01*
X63381Y318408D01*
X64567Y318252D01*
X65753Y318408D01*
X66858Y318866D01*
X67807Y319594D01*
X68536Y320543D01*
X68993Y321649D01*
X69149Y322835D01*
X68993Y324021D01*
X68536Y325126D01*
X67807Y326075D01*
X66858Y326803D01*
X65753Y327261D01*
X64567Y327417D01*
D02*
G37*
G36*
X194095Y325052D02*
X193011Y324909D01*
X192002Y324491D01*
X191135Y323826D01*
X190470Y322959D01*
X190052Y321949D01*
X189909Y320866D01*
X190052Y319783D01*
X190470Y318773D01*
X191135Y317907D01*
X192002Y317242D01*
X193011Y316823D01*
X194095Y316681D01*
X195178Y316823D01*
X196187Y317242D01*
X197054Y317907D01*
X197719Y318773D01*
X198137Y319783D01*
X198280Y320866D01*
X198137Y321949D01*
X197719Y322959D01*
X197054Y323826D01*
X196187Y324491D01*
X195178Y324909D01*
X194095Y325052D01*
D02*
G37*
G36*
X182283D02*
X181200Y324909D01*
X180191Y324491D01*
X179324Y323826D01*
X178659Y322959D01*
X178241Y321949D01*
X178098Y320866D01*
X178241Y319783D01*
X178659Y318773D01*
X179324Y317907D01*
X180191Y317242D01*
X181200Y316823D01*
X182283Y316681D01*
X183367Y316823D01*
X184376Y317242D01*
X185243Y317907D01*
X185908Y318773D01*
X186326Y319783D01*
X186469Y320866D01*
X186326Y321949D01*
X185908Y322959D01*
X185243Y323826D01*
X184376Y324491D01*
X183367Y324909D01*
X182283Y325052D01*
D02*
G37*
G36*
X251575Y324658D02*
X250492Y324515D01*
X249482Y324097D01*
X248615Y323432D01*
X247950Y322565D01*
X247532Y321556D01*
X247389Y320472D01*
X247532Y319389D01*
X247950Y318380D01*
X248615Y317513D01*
X249482Y316848D01*
X250492Y316430D01*
X251575Y316287D01*
X252658Y316430D01*
X253667Y316848D01*
X254534Y317513D01*
X255200Y318380D01*
X255618Y319389D01*
X255760Y320472D01*
X255618Y321556D01*
X255200Y322565D01*
X254534Y323432D01*
X253667Y324097D01*
X252658Y324515D01*
X251575Y324658D01*
D02*
G37*
G36*
X239764D02*
X238681Y324515D01*
X237671Y324097D01*
X236804Y323432D01*
X236139Y322565D01*
X235721Y321556D01*
X235578Y320472D01*
X235721Y319389D01*
X236139Y318380D01*
X236804Y317513D01*
X237671Y316848D01*
X238681Y316430D01*
X239764Y316287D01*
X240847Y316430D01*
X241857Y316848D01*
X242723Y317513D01*
X243389Y318380D01*
X243807Y319389D01*
X243949Y320472D01*
X243807Y321556D01*
X243389Y322565D01*
X242723Y323432D01*
X241857Y324097D01*
X240847Y324515D01*
X239764Y324658D01*
D02*
G37*
G36*
X284803Y197102D02*
X283617Y196946D01*
X282512Y196488D01*
X281563Y195760D01*
X280835Y194811D01*
X280377Y193706D01*
X280221Y192520D01*
X280377Y191334D01*
X280835Y190228D01*
X281563Y189279D01*
X282512Y188551D01*
X283617Y188093D01*
X284803Y187937D01*
X285989Y188093D01*
X287094Y188551D01*
X288043Y189279D01*
X288772Y190228D01*
X289229Y191334D01*
X289386Y192520D01*
X289229Y193706D01*
X288772Y194811D01*
X288043Y195760D01*
X287094Y196488D01*
X285989Y196946D01*
X284803Y197102D01*
D02*
G37*
G36*
X269291Y185291D02*
X268105Y185135D01*
X267000Y184677D01*
X266051Y183949D01*
X265323Y183000D01*
X264865Y181895D01*
X264709Y180709D01*
X264865Y179523D01*
X265323Y178417D01*
X266051Y177468D01*
X267000Y176740D01*
X268105Y176282D01*
X269291Y176126D01*
X270477Y176282D01*
X271583Y176740D01*
X272532Y177468D01*
X273260Y178417D01*
X273718Y179523D01*
X273874Y180709D01*
X273718Y181895D01*
X273260Y183000D01*
X272532Y183949D01*
X271583Y184677D01*
X270477Y185135D01*
X269291Y185291D01*
D02*
G37*
G36*
Y173480D02*
X268105Y173324D01*
X267000Y172866D01*
X266051Y172138D01*
X265323Y171189D01*
X264865Y170084D01*
X264709Y168898D01*
X264865Y167712D01*
X265323Y166606D01*
X266051Y165657D01*
X267000Y164929D01*
X268105Y164471D01*
X269291Y164315D01*
X270477Y164471D01*
X271583Y164929D01*
X272532Y165657D01*
X273260Y166606D01*
X273718Y167712D01*
X273874Y168898D01*
X273718Y170084D01*
X273260Y171189D01*
X272532Y172138D01*
X271583Y172866D01*
X270477Y173324D01*
X269291Y173480D01*
D02*
G37*
G36*
Y161669D02*
X268105Y161513D01*
X267000Y161055D01*
X266051Y160327D01*
X265323Y159378D01*
X264865Y158273D01*
X264709Y157087D01*
X264865Y155901D01*
X265323Y154795D01*
X266051Y153846D01*
X267000Y153118D01*
X268105Y152660D01*
X269291Y152504D01*
X270477Y152660D01*
X271583Y153118D01*
X272532Y153846D01*
X273260Y154795D01*
X273718Y155901D01*
X273874Y157087D01*
X273718Y158273D01*
X273260Y159378D01*
X272532Y160327D01*
X271583Y161055D01*
X270477Y161513D01*
X269291Y161669D01*
D02*
G37*
G36*
X273835Y149819D02*
X264748D01*
Y140732D01*
X273835D01*
Y149819D01*
D02*
G37*
G36*
X284803Y138047D02*
X283617Y137891D01*
X282512Y137433D01*
X281563Y136705D01*
X280835Y135756D01*
X280377Y134651D01*
X280221Y133465D01*
X280377Y132279D01*
X280835Y131173D01*
X281563Y130224D01*
X282512Y129496D01*
X283617Y129038D01*
X284803Y128882D01*
X285989Y129038D01*
X287094Y129496D01*
X288043Y130224D01*
X288772Y131173D01*
X289229Y132279D01*
X289386Y133465D01*
X289229Y134651D01*
X288772Y135756D01*
X288043Y136705D01*
X287094Y137433D01*
X285989Y137891D01*
X284803Y138047D01*
D02*
G37*
G36*
X9843Y16188D02*
X8605Y16066D01*
X7414Y15705D01*
X6317Y15119D01*
X5356Y14330D01*
X4566Y13368D01*
X3980Y12271D01*
X3619Y11080D01*
X3497Y9843D01*
X3619Y8605D01*
X3980Y7414D01*
X4566Y6317D01*
X5356Y5356D01*
X6317Y4566D01*
X7414Y3980D01*
X8605Y3619D01*
X9843Y3497D01*
X11080Y3619D01*
X12271Y3980D01*
X13368Y4566D01*
X14330Y5356D01*
X15119Y6317D01*
X15705Y7414D01*
X16066Y8605D01*
X16188Y9843D01*
X16066Y11080D01*
X15705Y12271D01*
X15119Y13368D01*
X14330Y14330D01*
X13368Y15119D01*
X12271Y15705D01*
X11080Y16066D01*
X9843Y16188D01*
D02*
G37*
G36*
X293307Y16188D02*
X292069Y16066D01*
X290879Y15705D01*
X289782Y15119D01*
X288820Y14329D01*
X288031Y13368D01*
X287445Y12271D01*
X287084Y11080D01*
X286962Y9843D01*
X287084Y8604D01*
X287445Y7414D01*
X288031Y6317D01*
X288820Y5356D01*
X289782Y4566D01*
X290879Y3980D01*
X292069Y3619D01*
X293307Y3497D01*
X294545Y3619D01*
X295736Y3980D01*
X296832Y4566D01*
X297794Y5356D01*
X298583Y6317D01*
X299170Y7414D01*
X299531Y8604D01*
X299653Y9843D01*
X299531Y11080D01*
X299170Y12271D01*
X298583Y13368D01*
X297794Y14329D01*
X296832Y15119D01*
X295736Y15705D01*
X294545Y16066D01*
X293307Y16188D01*
D02*
G37*
G36*
X175197Y15401D02*
X173959Y15279D01*
X172769Y14918D01*
X171671Y14331D01*
X170710Y13542D01*
X169921Y12581D01*
X169334Y11483D01*
X168973Y10293D01*
X168851Y9055D01*
X168973Y7817D01*
X169334Y6627D01*
X169921Y5530D01*
X170710Y4568D01*
X171671Y3779D01*
X172769Y3193D01*
X173959Y2832D01*
X175197Y2710D01*
X176435Y2832D01*
X177625Y3193D01*
X178722Y3779D01*
X179684Y4568D01*
X180473Y5530D01*
X181059Y6627D01*
X181421Y7817D01*
X181542Y9055D01*
X181421Y10293D01*
X181059Y11483D01*
X180473Y12581D01*
X179684Y13542D01*
X178722Y14331D01*
X177625Y14918D01*
X176435Y15279D01*
X175197Y15401D01*
D02*
G37*
G36*
X115173Y207299D02*
X106087D01*
Y198213D01*
X115173D01*
Y207299D01*
D02*
G37*
G36*
X122441Y191827D02*
X121255Y191671D01*
X120150Y191213D01*
X119201Y190484D01*
X118472Y189535D01*
X118015Y188430D01*
X117858Y187244D01*
X118015Y186058D01*
X118472Y184953D01*
X119201Y184004D01*
X120150Y183275D01*
X121255Y182818D01*
X122441Y182662D01*
X123627Y182818D01*
X124732Y183275D01*
X125681Y184004D01*
X126409Y184953D01*
X126867Y186058D01*
X127023Y187244D01*
X126867Y188430D01*
X126409Y189535D01*
X125681Y190484D01*
X124732Y191213D01*
X123627Y191671D01*
X122441Y191827D01*
D02*
G37*
G36*
X98819D02*
X97633Y191671D01*
X96528Y191213D01*
X95579Y190484D01*
X94850Y189535D01*
X94393Y188430D01*
X94236Y187244D01*
X94393Y186058D01*
X94850Y184953D01*
X95579Y184004D01*
X96528Y183275D01*
X97633Y182818D01*
X98819Y182662D01*
X100005Y182818D01*
X101110Y183275D01*
X102059Y184004D01*
X102787Y184953D01*
X103245Y186058D01*
X103401Y187244D01*
X103245Y188430D01*
X102787Y189535D01*
X102059Y190484D01*
X101110Y191213D01*
X100005Y191671D01*
X98819Y191827D01*
D02*
G37*
G36*
X19921Y151433D02*
X18735Y151277D01*
X17630Y150819D01*
X16681Y150091D01*
X15953Y149142D01*
X15495Y148036D01*
X15339Y146850D01*
X15495Y145664D01*
X15953Y144559D01*
X16681Y143610D01*
X17630Y142882D01*
X18735Y142424D01*
X19921Y142268D01*
X21107Y142424D01*
X22212Y142882D01*
X23162Y143610D01*
X23890Y144559D01*
X24348Y145664D01*
X24504Y146850D01*
X24348Y148036D01*
X23890Y149142D01*
X23162Y150091D01*
X22212Y150819D01*
X21107Y151277D01*
X19921Y151433D01*
D02*
G37*
G36*
X81496Y138231D02*
X80711Y138127D01*
X79979Y137824D01*
X79351Y137342D01*
X78869Y136714D01*
X78566Y135982D01*
X78462Y135197D01*
X78566Y134412D01*
X78869Y133680D01*
X79351Y133052D01*
X79979Y132570D01*
X80711Y132266D01*
X81496Y132163D01*
X82281Y132266D01*
X83013Y132570D01*
X83641Y133052D01*
X84123Y133680D01*
X84426Y134412D01*
X84530Y135197D01*
X84426Y135982D01*
X84123Y136714D01*
X83641Y137342D01*
X83013Y137824D01*
X82281Y138127D01*
X81496Y138231D01*
D02*
G37*
G36*
X116929Y138231D02*
X116144Y138127D01*
X115412Y137824D01*
X114784Y137342D01*
X114302Y136714D01*
X113999Y135982D01*
X113895Y135197D01*
X113999Y134412D01*
X114302Y133680D01*
X114784Y133052D01*
X115412Y132570D01*
X116144Y132266D01*
X116929Y132163D01*
X117714Y132266D01*
X118446Y132570D01*
X119074Y133052D01*
X119556Y133680D01*
X119860Y134412D01*
X119963Y135197D01*
X119860Y135982D01*
X119556Y136714D01*
X119074Y137342D01*
X118446Y137824D01*
X117714Y138127D01*
X116929Y138231D01*
D02*
G37*
G36*
X39976Y139583D02*
X30890D01*
Y130496D01*
X39976D01*
Y139583D01*
D02*
G37*
G36*
X35433Y127811D02*
X34247Y127655D01*
X33142Y127197D01*
X32193Y126469D01*
X31464Y125520D01*
X31007Y124414D01*
X30851Y123228D01*
X31007Y122042D01*
X31464Y120937D01*
X32193Y119988D01*
X33142Y119260D01*
X34247Y118802D01*
X35433Y118646D01*
X36619Y118802D01*
X37724Y119260D01*
X38673Y119988D01*
X39402Y120937D01*
X39859Y122042D01*
X40016Y123228D01*
X39859Y124414D01*
X39402Y125520D01*
X38673Y126469D01*
X37724Y127197D01*
X36619Y127655D01*
X35433Y127811D01*
D02*
G37*
G36*
X105118Y123871D02*
X104035Y123728D01*
X103025Y123310D01*
X102159Y122645D01*
X101493Y121778D01*
X101075Y120768D01*
X100933Y119685D01*
X101075Y118602D01*
X101493Y117592D01*
X102159Y116726D01*
X103025Y116060D01*
X104035Y115642D01*
X105118Y115500D01*
X106201Y115642D01*
X107211Y116060D01*
X108078Y116726D01*
X108743Y117592D01*
X109161Y118602D01*
X109303Y119685D01*
X109161Y120768D01*
X108743Y121778D01*
X108078Y122645D01*
X107211Y123310D01*
X106201Y123728D01*
X105118Y123871D01*
D02*
G37*
G36*
X93307D02*
X92224Y123728D01*
X91214Y123310D01*
X90348Y122645D01*
X89682Y121778D01*
X89264Y120768D01*
X89122Y119685D01*
X89264Y118602D01*
X89682Y117592D01*
X90348Y116726D01*
X91214Y116060D01*
X92224Y115642D01*
X93307Y115500D01*
X94390Y115642D01*
X95400Y116060D01*
X96267Y116726D01*
X96932Y117592D01*
X97350Y118602D01*
X97492Y119685D01*
X97350Y120768D01*
X96932Y121778D01*
X96267Y122645D01*
X95400Y123310D01*
X94390Y123728D01*
X93307Y123871D01*
D02*
G37*
G36*
X35433Y116000D02*
X34247Y115844D01*
X33142Y115386D01*
X32193Y114658D01*
X31464Y113709D01*
X31007Y112603D01*
X30851Y111417D01*
X31007Y110231D01*
X31464Y109126D01*
X32193Y108177D01*
X33142Y107449D01*
X34247Y106991D01*
X35433Y106835D01*
X36619Y106991D01*
X37724Y107449D01*
X38673Y108177D01*
X39402Y109126D01*
X39859Y110231D01*
X40016Y111417D01*
X39859Y112603D01*
X39402Y113709D01*
X38673Y114658D01*
X37724Y115386D01*
X36619Y115844D01*
X35433Y116000D01*
D02*
G37*
G36*
Y104189D02*
X34247Y104033D01*
X33142Y103575D01*
X32193Y102847D01*
X31464Y101898D01*
X31007Y100792D01*
X30851Y99606D01*
X31007Y98420D01*
X31464Y97315D01*
X32193Y96366D01*
X33142Y95638D01*
X34247Y95180D01*
X35433Y95024D01*
X36619Y95180D01*
X37724Y95638D01*
X38673Y96366D01*
X39402Y97315D01*
X39859Y98420D01*
X40016Y99606D01*
X39859Y100792D01*
X39402Y101898D01*
X38673Y102847D01*
X37724Y103575D01*
X36619Y104033D01*
X35433Y104189D01*
D02*
G37*
G36*
Y92378D02*
X34247Y92222D01*
X33142Y91764D01*
X32193Y91036D01*
X31464Y90087D01*
X31007Y88981D01*
X30851Y87795D01*
X31007Y86609D01*
X31464Y85504D01*
X32193Y84555D01*
X33142Y83827D01*
X34247Y83369D01*
X35433Y83213D01*
X36619Y83369D01*
X37724Y83827D01*
X38673Y84555D01*
X39402Y85504D01*
X39859Y86609D01*
X40016Y87795D01*
X39859Y88981D01*
X39402Y90087D01*
X38673Y91036D01*
X37724Y91764D01*
X36619Y92222D01*
X35433Y92378D01*
D02*
G37*
G36*
Y80567D02*
X34247Y80411D01*
X33142Y79953D01*
X32193Y79225D01*
X31464Y78276D01*
X31007Y77170D01*
X30851Y75984D01*
X31007Y74798D01*
X31464Y73693D01*
X32193Y72744D01*
X33142Y72016D01*
X34247Y71558D01*
X35433Y71402D01*
X36619Y71558D01*
X37724Y72016D01*
X38673Y72744D01*
X39402Y73693D01*
X39859Y74798D01*
X40016Y75984D01*
X39859Y77170D01*
X39402Y78276D01*
X38673Y79225D01*
X37724Y79953D01*
X36619Y80411D01*
X35433Y80567D01*
D02*
G37*
G36*
Y68756D02*
X34247Y68600D01*
X33142Y68142D01*
X32193Y67414D01*
X31464Y66465D01*
X31007Y65359D01*
X30851Y64173D01*
X31007Y62987D01*
X31464Y61882D01*
X32193Y60933D01*
X33142Y60205D01*
X34247Y59747D01*
X35433Y59591D01*
X36619Y59747D01*
X37724Y60205D01*
X38673Y60933D01*
X39402Y61882D01*
X39859Y62987D01*
X40016Y64173D01*
X39859Y65359D01*
X39402Y66465D01*
X38673Y67414D01*
X37724Y68142D01*
X36619Y68600D01*
X35433Y68756D01*
D02*
G37*
G36*
X19921Y56945D02*
X18735Y56789D01*
X17630Y56331D01*
X16681Y55603D01*
X15953Y54653D01*
X15495Y53548D01*
X15339Y52362D01*
X15495Y51176D01*
X15953Y50071D01*
X16681Y49122D01*
X17630Y48394D01*
X18735Y47936D01*
X19921Y47780D01*
X21107Y47936D01*
X22212Y48394D01*
X23162Y49122D01*
X23890Y50071D01*
X24348Y51176D01*
X24504Y52362D01*
X24348Y53548D01*
X23890Y54653D01*
X23162Y55603D01*
X22212Y56331D01*
X21107Y56789D01*
X19921Y56945D01*
D02*
G37*
%LPD*%
D13*
X178347Y184646D02*
Y185039D01*
X168358Y174657D02*
X178347Y184646D01*
X175591Y188976D02*
X193307D01*
X168898Y182283D02*
X175591Y188976D01*
X166217Y143384D02*
Y212130D01*
Y143384D02*
X171459Y138142D01*
X140157Y238189D02*
X166217Y212130D01*
X194488Y160236D02*
Y162205D01*
X185827Y170866D02*
X194488Y162205D01*
X122441Y27559D02*
X136221Y13780D01*
X150000D01*
X7480Y35039D02*
Y169291D01*
Y35039D02*
X33858Y8661D01*
X7480Y169291D02*
X15354Y177165D01*
X222880Y227998D02*
X225984Y231102D01*
X222880Y170033D02*
Y227998D01*
Y170033D02*
X231496Y161417D01*
X218874Y24780D02*
X224016Y29921D01*
X169685Y62598D02*
Y84004D01*
Y60630D02*
Y62598D01*
X166535Y87153D02*
X169685Y84004D01*
X214961Y66929D02*
Y135039D01*
X208661Y141339D02*
X214961Y135039D01*
X172783Y141339D02*
X208661D01*
X217717Y66535D02*
Y136221D01*
X208268Y145669D02*
X217717Y136221D01*
X188976Y145669D02*
X208268D01*
X156299Y5906D02*
X170079Y19685D01*
X32283Y5906D02*
X156299D01*
X5118Y33071D02*
X32283Y5906D01*
X170079Y19685D02*
X186614D01*
X151969Y42913D02*
X169685Y60630D01*
X93701Y42913D02*
X151969D01*
X212992Y79673D02*
Y104331D01*
X205760Y72441D02*
X212992Y79673D01*
X202756Y72441D02*
X205760D01*
X211394Y81866D02*
Y101992D01*
X205118Y75590D02*
X211394Y81866D01*
X212205Y64173D02*
X214961Y66929D01*
X199606Y64173D02*
X212205D01*
X212205Y61024D02*
X217717Y66535D01*
X201969Y61024D02*
X212205D01*
X201181Y112205D02*
X211394Y101992D01*
X201181Y116142D02*
X212992Y104331D01*
X208268Y149213D02*
X220866Y136614D01*
Y110236D02*
Y136614D01*
X188583Y175197D02*
X223697Y140083D01*
Y68433D02*
Y140083D01*
X220547Y65284D02*
X223697Y68433D01*
X220547Y65035D02*
Y65284D01*
X213854Y58342D02*
X220547Y65035D01*
X193307Y188976D02*
X226378Y155905D01*
Y90158D02*
Y155905D01*
X157087Y230709D02*
X229898Y157898D01*
Y70842D02*
Y157898D01*
X223228Y64173D02*
X229898Y70842D01*
X231496Y66929D02*
Y161417D01*
X221311Y56744D02*
X231496Y66929D01*
X234252Y74016D02*
Y77165D01*
X234252Y196457D02*
X257480Y219685D01*
X234252Y196457D02*
X234252Y77165D01*
X198500Y98748D02*
Y126551D01*
X185311Y139740D02*
X198500Y126551D01*
X172121Y139740D02*
X185311D01*
X196902Y99410D02*
Y124358D01*
X186221Y135039D02*
X196902Y124358D01*
X166535Y118110D02*
X174409Y125984D01*
X166535Y87153D02*
Y118110D01*
X225984Y236221D02*
Y242768D01*
X223083Y245669D02*
X225984Y242768D01*
X216142Y245669D02*
X223083D01*
X195276Y205512D02*
X225984Y236221D01*
X169957Y170744D02*
X182677Y183465D01*
X169957Y144165D02*
Y170744D01*
X168358Y143503D02*
Y174657D01*
X184992Y101573D02*
Y121174D01*
X177833Y94413D02*
X184992Y101573D01*
X171724Y94413D02*
X177833D01*
X176016Y130150D02*
X184992Y121174D01*
X170153Y92843D02*
X171724Y94413D01*
X170153Y92799D02*
Y92843D01*
X169685Y92331D02*
X170153Y92799D01*
X169685Y87795D02*
Y92331D01*
X133465Y229528D02*
X157063Y205929D01*
Y141235D02*
Y205929D01*
Y141235D02*
X168149Y130150D01*
X176016D01*
X158661Y141897D02*
X168811Y131748D01*
X176678D02*
X186591Y121836D01*
X168811Y131748D02*
X176678D01*
X160634Y142185D02*
X169473Y133346D01*
X177340D02*
X188189Y122498D01*
X169473Y133346D02*
X177340D01*
X162598Y142481D02*
X170135Y134945D01*
X178002D02*
X189815Y123132D01*
X170135Y134945D02*
X178002D01*
X164567Y142773D02*
X170797Y136543D01*
X178664D02*
X191413Y123794D01*
X170797Y136543D02*
X178664D01*
X179326Y138142D02*
X194094Y123374D01*
X171459Y138142D02*
X179326D01*
X168358Y143503D02*
X172121Y139740D01*
X169957Y144165D02*
X172783Y141339D01*
X158661Y141897D02*
Y206693D01*
X160634Y142185D02*
Y206981D01*
X162598Y142481D02*
Y207379D01*
X164567Y142773D02*
Y209449D01*
X186591Y111556D02*
Y121836D01*
X188189Y112218D02*
Y122498D01*
X189815Y85090D02*
Y123132D01*
X191413Y115031D02*
Y123794D01*
X194094Y116142D02*
Y123374D01*
X176575Y149213D02*
X208268D01*
X172638Y145276D02*
X176575Y149213D01*
X186614Y100934D02*
Y111532D01*
X186591Y111556D02*
X186614Y111532D01*
X188189Y83465D02*
X189815Y85090D01*
X188189Y112218D02*
X188213Y112194D01*
Y100272D02*
Y112194D01*
X178224Y90284D02*
X188213Y100272D01*
X176626Y90946D02*
X186614Y100934D01*
X191413Y115031D02*
X193701Y112744D01*
X176626Y61126D02*
Y90946D01*
X178224Y58933D02*
Y90284D01*
X193701Y112598D02*
Y112744D01*
X192965Y95473D02*
X196902Y99410D01*
X192965Y81154D02*
Y95473D01*
X181941Y70130D02*
X192965Y81154D01*
X194563Y94811D02*
X198500Y98748D01*
X194563Y79996D02*
Y94811D01*
X183539Y68972D02*
X194563Y79996D01*
X185433Y79134D02*
Y93701D01*
X174016Y54724D02*
X178224Y58933D01*
X154724Y8661D02*
X168429Y22366D01*
X33858Y8661D02*
X154724D01*
X152756Y11417D02*
X166118Y24780D01*
X33465Y11417D02*
X152756D01*
X9449Y35433D02*
X33465Y11417D01*
X150000Y13780D02*
X163779Y27559D01*
X168429Y22366D02*
X209524D01*
X166118Y24780D02*
X218874D01*
X214567Y27559D02*
X222835Y35827D01*
X163779Y27559D02*
X214567D01*
X175591Y35972D02*
X188583Y48964D01*
X175591Y31102D02*
Y35972D01*
X209524Y22366D02*
X216142Y15748D01*
X5118Y178347D02*
X5118Y33071D01*
X9449Y155367D02*
X9449Y35433D01*
X301181Y97244D02*
Y317323D01*
X266535Y351969D02*
X301181Y317323D01*
X81890Y351969D02*
X266535D01*
X172835Y59596D02*
Y91732D01*
X152609Y39370D02*
X172835Y59596D01*
X185433Y59055D02*
Y62205D01*
X183539Y64098D02*
X185433Y62205D01*
X183539Y64098D02*
Y68972D01*
X181941Y53098D02*
X185433Y49606D01*
X181941Y53098D02*
Y70130D01*
X94095Y39370D02*
X152609D01*
X185827Y170866D02*
Y180315D01*
X188583Y175197D02*
Y183071D01*
X195276Y197638D02*
Y205512D01*
X216142Y242126D02*
Y245669D01*
X131496D02*
X215881D01*
X135433Y238583D02*
Y241929D01*
Y238583D02*
X164567Y209449D01*
X140157Y238189D02*
Y242874D01*
X129921Y244094D02*
X131496Y245669D01*
X212598Y231890D02*
Y242520D01*
X186220Y205511D02*
X212598Y231890D01*
X131001Y238976D02*
X162598Y207379D01*
X131394Y236221D02*
X160634Y206981D01*
X126772Y236221D02*
X131394D01*
X91339Y238976D02*
X131001D01*
X82996Y241413D02*
X86614Y237795D01*
X52043Y241413D02*
X82996D01*
X88976Y241339D02*
X91339Y238976D01*
X77165Y244094D02*
X129921D01*
X48031D02*
X77165D01*
X25591Y221654D02*
X48031Y244094D01*
X25591Y205118D02*
Y221654D01*
X81890Y229528D02*
X133465D01*
X73622Y237795D02*
X81890Y229528D01*
X86614Y232677D02*
X132677D01*
X80709Y238583D02*
X86614Y232677D01*
X37008Y226378D02*
X52043Y241413D01*
X5118Y178347D02*
X28583Y201811D01*
X15354Y177165D02*
X25197D01*
X28583Y201811D02*
Y208425D01*
X199264Y56744D02*
X221311D01*
X188189Y42126D02*
Y45669D01*
X199264Y56744D01*
X201969Y53937D02*
X257874D01*
X301181Y97244D01*
X222835Y35827D02*
Y50000D01*
X257480Y219685D02*
Y237008D01*
X200858Y58342D02*
X213854D01*
X200145Y59055D02*
X200858Y58342D01*
X189370Y59055D02*
X200145D01*
X188583Y48964D02*
Y53937D01*
X216142Y15748D02*
X222939D01*
X132677Y232677D02*
X158661Y206693D01*
X197244Y77165D02*
Y93701D01*
X186221Y66142D02*
X197244Y77165D01*
X171335Y52287D02*
Y55835D01*
Y52287D02*
X172834Y50787D01*
X171335Y55835D02*
X176626Y61126D01*
X37008Y182926D02*
Y226378D01*
X188976Y202756D02*
X222835Y236614D01*
Y242126D01*
X9449Y155367D02*
X37008Y182926D01*
X52756Y322835D02*
X81890Y351969D01*
D58*
X181102Y86811D02*
D03*
Y31299D02*
D03*
D59*
X110630Y202756D02*
D03*
X130315Y322835D02*
D03*
D60*
X110630Y190945D02*
D03*
X122441Y187244D02*
D03*
X98819D02*
D03*
X29134Y331102D02*
D03*
X52756Y322835D02*
D03*
X64567D02*
D03*
X76378Y331102D02*
D03*
X142126Y338347D02*
D03*
X94882D02*
D03*
X118504Y322835D02*
D03*
X106693D02*
D03*
X130315Y334646D02*
D03*
X118504D02*
D03*
X106693D02*
D03*
X281102Y180709D02*
D03*
Y168898D02*
D03*
Y157087D02*
D03*
Y145276D02*
D03*
X269291Y180709D02*
D03*
Y168898D02*
D03*
Y157087D02*
D03*
X284803Y192520D02*
D03*
Y133465D02*
D03*
X23622Y64173D02*
D03*
Y75984D02*
D03*
Y111417D02*
D03*
X35433Y87795D02*
D03*
X23622Y122835D02*
D03*
Y134646D02*
D03*
X35433Y64173D02*
D03*
Y75984D02*
D03*
Y99606D02*
D03*
Y111417D02*
D03*
Y123228D02*
D03*
X19921Y52362D02*
D03*
Y146850D02*
D03*
X23622Y99606D02*
D03*
Y87795D02*
D03*
D61*
X9843Y9843D02*
D03*
X293307Y344488D02*
D03*
X9843D02*
D03*
X175197Y107480D02*
D03*
X293307Y108268D02*
D03*
X175197Y9055D02*
D03*
X293307Y9843D02*
D03*
D62*
X40945Y322835D02*
D03*
D63*
X93307Y119685D02*
D03*
X105118D02*
D03*
Y131496D02*
D03*
X182283Y320866D02*
D03*
X194095D02*
D03*
Y332677D02*
D03*
X239764Y320472D02*
D03*
X251575D02*
D03*
Y332283D02*
D03*
D64*
X93307Y131496D02*
D03*
X182283Y332677D02*
D03*
X239764Y332283D02*
D03*
D65*
X269291Y145276D02*
D03*
X35433Y135039D02*
D03*
D66*
X153150Y186614D02*
D03*
X146850D02*
D03*
X143701D02*
D03*
X145276Y189370D02*
D03*
X140551Y186614D02*
D03*
X142126Y189370D02*
D03*
X137402Y186614D02*
D03*
X138976Y189370D02*
D03*
X148425D02*
D03*
X150000Y186614D02*
D03*
Y191732D02*
D03*
X148425Y194488D02*
D03*
X138976D02*
D03*
X137402Y191732D02*
D03*
X142126Y194488D02*
D03*
X140551Y191732D02*
D03*
X145276Y194488D02*
D03*
X143701Y191732D02*
D03*
X146850D02*
D03*
X150000Y196850D02*
D03*
X148425Y199606D02*
D03*
X138976D02*
D03*
X137402Y196850D02*
D03*
X142126Y199606D02*
D03*
X140551Y196850D02*
D03*
X145276Y199606D02*
D03*
X143701Y196850D02*
D03*
X146850D02*
D03*
X135827Y188976D02*
D03*
X134252Y191732D02*
D03*
X131102D02*
D03*
X132677Y188976D02*
D03*
X135827Y194488D02*
D03*
X132677D02*
D03*
X134252Y197244D02*
D03*
X131102D02*
D03*
X135827Y199606D02*
D03*
X132677D02*
D03*
X134252Y186614D02*
D03*
X131102D02*
D03*
X151575Y189370D02*
D03*
Y194488D02*
D03*
X153150Y191732D02*
D03*
Y196850D02*
D03*
X151575Y199606D02*
D03*
X149606Y170866D02*
D03*
X146457D02*
D03*
X148031Y173622D02*
D03*
X143307Y170866D02*
D03*
X144882Y173622D02*
D03*
X140157Y170866D02*
D03*
X141732Y173622D02*
D03*
X151181D02*
D03*
X152756Y170866D02*
D03*
Y175984D02*
D03*
X151181Y178740D02*
D03*
X141732D02*
D03*
X140157Y175984D02*
D03*
X144882Y178740D02*
D03*
X143307Y175984D02*
D03*
X148031Y178740D02*
D03*
X146457Y175984D02*
D03*
X149606D02*
D03*
X152756Y181102D02*
D03*
X151181Y183858D02*
D03*
X141732D02*
D03*
X140157Y181102D02*
D03*
X144882Y183858D02*
D03*
X143307Y181102D02*
D03*
X148031Y183858D02*
D03*
X146457Y181102D02*
D03*
X149606D02*
D03*
X138583Y173228D02*
D03*
X137008Y175984D02*
D03*
X130709D02*
D03*
X133858D02*
D03*
X132283Y173228D02*
D03*
X135433D02*
D03*
X138583Y178740D02*
D03*
X135433D02*
D03*
X137008Y181496D02*
D03*
X133858D02*
D03*
X132283Y178740D02*
D03*
X138583Y183858D02*
D03*
X135433D02*
D03*
X137008Y170866D02*
D03*
X133858D02*
D03*
X154331Y173622D02*
D03*
Y178740D02*
D03*
X130709Y181496D02*
D03*
X154331Y183858D02*
D03*
X132283D02*
D03*
X268898Y30315D02*
D03*
X265748D02*
D03*
X267323Y33071D02*
D03*
X262598Y30315D02*
D03*
X264173Y33071D02*
D03*
X259449Y30315D02*
D03*
X261024Y33071D02*
D03*
X270472D02*
D03*
X272047Y30315D02*
D03*
Y35433D02*
D03*
X270472Y38189D02*
D03*
X261024D02*
D03*
X259449Y35433D02*
D03*
X264173Y38189D02*
D03*
X262598Y35433D02*
D03*
X267323Y38189D02*
D03*
X265748Y35433D02*
D03*
X268898D02*
D03*
X272047Y40551D02*
D03*
X270472Y43307D02*
D03*
X261024D02*
D03*
X259449Y40551D02*
D03*
X264173Y43307D02*
D03*
X262598Y40551D02*
D03*
X267323Y43307D02*
D03*
X265748Y40551D02*
D03*
X268898D02*
D03*
X257874Y32677D02*
D03*
X256299Y35433D02*
D03*
X250000D02*
D03*
X253150D02*
D03*
X251575Y32677D02*
D03*
X254724D02*
D03*
X257874Y38189D02*
D03*
X254724D02*
D03*
X256299Y40945D02*
D03*
X253150D02*
D03*
X251575Y38189D02*
D03*
X257874Y43307D02*
D03*
X254724D02*
D03*
X256299Y30315D02*
D03*
X253150D02*
D03*
X273622Y33071D02*
D03*
Y38189D02*
D03*
X275197Y35433D02*
D03*
X250000Y40945D02*
D03*
X275197Y40551D02*
D03*
X273622Y43307D02*
D03*
X251575D02*
D03*
X268110Y14567D02*
D03*
X264961D02*
D03*
X266535Y17323D02*
D03*
X261811Y14567D02*
D03*
X263386Y17323D02*
D03*
X258661Y14567D02*
D03*
X260236Y17323D02*
D03*
X269685D02*
D03*
X271260Y14567D02*
D03*
Y19685D02*
D03*
X269685Y22441D02*
D03*
X260236D02*
D03*
X258661Y19685D02*
D03*
X263386Y22441D02*
D03*
X261811Y19685D02*
D03*
X266535Y22441D02*
D03*
X264961Y19685D02*
D03*
X268110D02*
D03*
X271260Y24803D02*
D03*
X269685Y27559D02*
D03*
X260236D02*
D03*
X258661Y24803D02*
D03*
X263386Y27559D02*
D03*
X261811Y24803D02*
D03*
X266535Y27559D02*
D03*
X264961Y24803D02*
D03*
X268110D02*
D03*
X257087Y16929D02*
D03*
X255512Y19685D02*
D03*
X249213D02*
D03*
X252362D02*
D03*
X250787Y16929D02*
D03*
X253937D02*
D03*
X257087Y22441D02*
D03*
X253937D02*
D03*
X255512Y25197D02*
D03*
X252362D02*
D03*
X250787Y22441D02*
D03*
X257087Y27559D02*
D03*
X253937D02*
D03*
X255512Y14567D02*
D03*
X252362D02*
D03*
X272835Y17323D02*
D03*
Y22441D02*
D03*
X274409Y19685D02*
D03*
X249213Y25197D02*
D03*
X274409Y24803D02*
D03*
X272835Y27559D02*
D03*
X250787D02*
D03*
X283465Y211811D02*
D03*
X280315D02*
D03*
X281890Y214567D02*
D03*
X277165Y211811D02*
D03*
X278740Y214567D02*
D03*
X274016Y211811D02*
D03*
X275590Y214567D02*
D03*
X285039D02*
D03*
X286614Y211811D02*
D03*
Y216929D02*
D03*
X285039Y219685D02*
D03*
X275590D02*
D03*
X274016Y216929D02*
D03*
X278740Y219685D02*
D03*
X277165Y216929D02*
D03*
X281890Y219685D02*
D03*
X280315Y216929D02*
D03*
X283465D02*
D03*
X286614Y222047D02*
D03*
X285039Y224803D02*
D03*
X275590D02*
D03*
X274016Y222047D02*
D03*
X278740Y224803D02*
D03*
X277165Y222047D02*
D03*
X281890Y224803D02*
D03*
X280315Y222047D02*
D03*
X283465D02*
D03*
X272441Y214173D02*
D03*
X270866Y216929D02*
D03*
X264567D02*
D03*
X267717D02*
D03*
X266142Y214173D02*
D03*
X269291D02*
D03*
X272441Y219685D02*
D03*
X269291D02*
D03*
X270866Y222441D02*
D03*
X267717D02*
D03*
X266142Y219685D02*
D03*
X272441Y224803D02*
D03*
X269291D02*
D03*
X270866Y211811D02*
D03*
X267717D02*
D03*
X288189Y214567D02*
D03*
Y219685D02*
D03*
X289764Y216929D02*
D03*
X264567Y222441D02*
D03*
X289764Y222047D02*
D03*
X288189Y224803D02*
D03*
X266142D02*
D03*
X25984Y296063D02*
D03*
X22835D02*
D03*
X24409Y298819D02*
D03*
X19685Y296063D02*
D03*
X21260Y298819D02*
D03*
X16535Y296063D02*
D03*
X18110Y298819D02*
D03*
X27559D02*
D03*
X29134Y296063D02*
D03*
Y301181D02*
D03*
X27559Y303937D02*
D03*
X18110D02*
D03*
X16535Y301181D02*
D03*
X21260Y303937D02*
D03*
X19685Y301181D02*
D03*
X24409Y303937D02*
D03*
X22835Y301181D02*
D03*
X25984D02*
D03*
X29134Y306299D02*
D03*
X27559Y309055D02*
D03*
X18110D02*
D03*
X16535Y306299D02*
D03*
X21260Y309055D02*
D03*
X19685Y306299D02*
D03*
X24409Y309055D02*
D03*
X22835Y306299D02*
D03*
X25984D02*
D03*
X14961Y298425D02*
D03*
X13386Y301181D02*
D03*
X7087D02*
D03*
X10236D02*
D03*
X8661Y298425D02*
D03*
X11811D02*
D03*
X14961Y303937D02*
D03*
X11811D02*
D03*
X13386Y306693D02*
D03*
X10236D02*
D03*
X8661Y303937D02*
D03*
X14961Y309055D02*
D03*
X11811D02*
D03*
X13386Y296063D02*
D03*
X10236D02*
D03*
X30709Y298819D02*
D03*
Y303937D02*
D03*
X32283Y301181D02*
D03*
X7087Y306693D02*
D03*
X32283Y306299D02*
D03*
X30709Y309055D02*
D03*
X8661D02*
D03*
X107087Y152756D02*
D03*
X103937D02*
D03*
X105512Y155512D02*
D03*
X100787Y152756D02*
D03*
X102362Y155512D02*
D03*
X97638Y152756D02*
D03*
X99213Y155512D02*
D03*
X108661D02*
D03*
X110236Y152756D02*
D03*
Y157874D02*
D03*
X108661Y160630D02*
D03*
X99213D02*
D03*
X97638Y157874D02*
D03*
X102362Y160630D02*
D03*
X100787Y157874D02*
D03*
X105512Y160630D02*
D03*
X103937Y157874D02*
D03*
X107087D02*
D03*
X110236Y162992D02*
D03*
X108661Y165748D02*
D03*
X99213D02*
D03*
X97638Y162992D02*
D03*
X102362Y165748D02*
D03*
X100787Y162992D02*
D03*
X105512Y165748D02*
D03*
X103937Y162992D02*
D03*
X107087D02*
D03*
X96063Y155118D02*
D03*
X94488Y157874D02*
D03*
X88189D02*
D03*
X91339D02*
D03*
X89764Y155118D02*
D03*
X92913D02*
D03*
X96063Y160630D02*
D03*
X92913D02*
D03*
X94488Y163386D02*
D03*
X91339D02*
D03*
X89764Y160630D02*
D03*
X96063Y165748D02*
D03*
X92913D02*
D03*
X94488Y152756D02*
D03*
X91339D02*
D03*
X111811Y155512D02*
D03*
Y160630D02*
D03*
X113386Y157874D02*
D03*
X88189Y163386D02*
D03*
X113386Y162992D02*
D03*
X111811Y165748D02*
D03*
X89764D02*
D03*
X251575Y168898D02*
D03*
X248425D02*
D03*
X250000Y171260D02*
D03*
X245276Y168898D02*
D03*
X246850Y171260D02*
D03*
X178347Y185039D02*
D03*
X168898Y182283D02*
D03*
X194488Y160236D02*
D03*
X211811Y116929D02*
D03*
X208661D02*
D03*
X210236Y119291D02*
D03*
X205512Y116929D02*
D03*
X207087Y119291D02*
D03*
X249606Y117323D02*
D03*
X271654D02*
D03*
X273228Y114567D02*
D03*
X248031Y114961D02*
D03*
X273228Y109449D02*
D03*
X271654Y112205D02*
D03*
Y107087D02*
D03*
X251181Y104331D02*
D03*
X254331D02*
D03*
X252756Y117323D02*
D03*
X255906D02*
D03*
X249606Y112205D02*
D03*
X251181Y114961D02*
D03*
X254331D02*
D03*
X252756Y112205D02*
D03*
X255906D02*
D03*
X252756Y106693D02*
D03*
X249606D02*
D03*
X251181Y109449D02*
D03*
X248031D02*
D03*
X254331D02*
D03*
X255906Y106693D02*
D03*
X266929Y114567D02*
D03*
X263779D02*
D03*
X265354Y117323D02*
D03*
X260630Y114567D02*
D03*
X262205Y117323D02*
D03*
X257480Y114567D02*
D03*
X259055Y117323D02*
D03*
X268504D02*
D03*
X270079Y114567D02*
D03*
X266929Y109449D02*
D03*
X263779D02*
D03*
X265354Y112205D02*
D03*
X260630Y109449D02*
D03*
X262205Y112205D02*
D03*
X257480Y109449D02*
D03*
X259055Y112205D02*
D03*
X268504D02*
D03*
X270079Y109449D02*
D03*
Y104331D02*
D03*
X268504Y107087D02*
D03*
X259055D02*
D03*
X257480Y104331D02*
D03*
X262205Y107087D02*
D03*
X260630Y104331D02*
D03*
X265354Y107087D02*
D03*
X263779Y104331D02*
D03*
X266929D02*
D03*
X249213Y101575D02*
D03*
X271260D02*
D03*
X272835Y98819D02*
D03*
X247638Y99213D02*
D03*
X272835Y93701D02*
D03*
X271260Y96457D02*
D03*
Y91339D02*
D03*
X250787Y88583D02*
D03*
X253937D02*
D03*
X252362Y101575D02*
D03*
X255512D02*
D03*
X249213Y96457D02*
D03*
X250787Y99213D02*
D03*
X253937D02*
D03*
X252362Y96457D02*
D03*
X255512D02*
D03*
X252362Y90945D02*
D03*
X249213D02*
D03*
X250787Y93701D02*
D03*
X247638D02*
D03*
X253937D02*
D03*
X255512Y90945D02*
D03*
X266535Y98819D02*
D03*
X263386D02*
D03*
X264961Y101575D02*
D03*
X260236Y98819D02*
D03*
X261811Y101575D02*
D03*
X257087Y98819D02*
D03*
X258661Y101575D02*
D03*
X268110D02*
D03*
X269685Y98819D02*
D03*
X266535Y93701D02*
D03*
X263386D02*
D03*
X264961Y96457D02*
D03*
X260236Y93701D02*
D03*
X261811Y96457D02*
D03*
X257087Y93701D02*
D03*
X258661Y96457D02*
D03*
X268110D02*
D03*
X269685Y93701D02*
D03*
Y88583D02*
D03*
X268110Y91339D02*
D03*
X258661D02*
D03*
X257087Y88583D02*
D03*
X261811Y91339D02*
D03*
X260236Y88583D02*
D03*
X264961Y91339D02*
D03*
X263386Y88583D02*
D03*
X266535D02*
D03*
X122441Y27559D02*
D03*
X107087Y179528D02*
D03*
X110236D02*
D03*
X113386D02*
D03*
X96457Y137008D02*
D03*
X99606D02*
D03*
X102756D02*
D03*
X296457Y172047D02*
D03*
X293701Y170472D02*
D03*
Y161024D02*
D03*
X296457Y159449D02*
D03*
X293701Y164173D02*
D03*
X296457Y162598D02*
D03*
X293701Y167323D02*
D03*
X296457Y165748D02*
D03*
Y168898D02*
D03*
X296063Y156299D02*
D03*
Y153150D02*
D03*
X293701Y157874D02*
D03*
Y154724D02*
D03*
X296063Y150000D02*
D03*
X296457Y175197D02*
D03*
X293701Y173622D02*
D03*
Y151575D02*
D03*
X255118Y346063D02*
D03*
X253543Y348819D02*
D03*
X244094D02*
D03*
X242520Y346063D02*
D03*
X247244Y348819D02*
D03*
X245669Y346063D02*
D03*
X250394Y348819D02*
D03*
X248819Y346063D02*
D03*
X251969D02*
D03*
X239370Y346457D02*
D03*
X236221D02*
D03*
X240945Y348819D02*
D03*
X237795D02*
D03*
X233071Y346457D02*
D03*
X258268Y346063D02*
D03*
X256693Y348819D02*
D03*
X234646D02*
D03*
X198425Y345669D02*
D03*
X196850Y348425D02*
D03*
X187402D02*
D03*
X185827Y345669D02*
D03*
X190551Y348425D02*
D03*
X188976Y345669D02*
D03*
X193701Y348425D02*
D03*
X192126Y345669D02*
D03*
X195276D02*
D03*
X182677Y346063D02*
D03*
X179528D02*
D03*
X184252Y348425D02*
D03*
X181102D02*
D03*
X176378Y346063D02*
D03*
X201575Y345669D02*
D03*
X200000Y348425D02*
D03*
X177953D02*
D03*
X128347Y346063D02*
D03*
X126772Y348819D02*
D03*
X117323D02*
D03*
X115748Y346063D02*
D03*
X120472Y348819D02*
D03*
X118898Y346063D02*
D03*
X123622Y348819D02*
D03*
X122047Y346063D02*
D03*
X125197D02*
D03*
X112598Y346457D02*
D03*
X109449D02*
D03*
X114173Y348819D02*
D03*
X111024D02*
D03*
X106299Y346457D02*
D03*
X131496Y346063D02*
D03*
X129921Y348819D02*
D03*
X107874D02*
D03*
X264961Y281496D02*
D03*
X287008D02*
D03*
X288583Y278740D02*
D03*
X263386Y279134D02*
D03*
X288583Y273622D02*
D03*
X287008Y276378D02*
D03*
Y271260D02*
D03*
X266535Y268504D02*
D03*
X269685D02*
D03*
X268110Y281496D02*
D03*
X271260D02*
D03*
X264961Y276378D02*
D03*
X266535Y279134D02*
D03*
X269685D02*
D03*
X268110Y276378D02*
D03*
X271260D02*
D03*
X268110Y270866D02*
D03*
X264961D02*
D03*
X266535Y273622D02*
D03*
X263386D02*
D03*
X269685D02*
D03*
X271260Y270866D02*
D03*
X282283Y278740D02*
D03*
X279134D02*
D03*
X280709Y281496D02*
D03*
X275984Y278740D02*
D03*
X277559Y281496D02*
D03*
X272835Y278740D02*
D03*
X274409Y281496D02*
D03*
X283858D02*
D03*
X285433Y278740D02*
D03*
X282283Y273622D02*
D03*
X279134D02*
D03*
X280709Y276378D02*
D03*
X275984Y273622D02*
D03*
X277559Y276378D02*
D03*
X272835Y273622D02*
D03*
X274409Y276378D02*
D03*
X283858D02*
D03*
X285433Y273622D02*
D03*
Y268504D02*
D03*
X283858Y271260D02*
D03*
X274409D02*
D03*
X272835Y268504D02*
D03*
X277559Y271260D02*
D03*
X275984Y268504D02*
D03*
X280709Y271260D02*
D03*
X279134Y268504D02*
D03*
X282283D02*
D03*
X264567Y265748D02*
D03*
X286614D02*
D03*
X288189Y262992D02*
D03*
X262992Y263386D02*
D03*
X288189Y257874D02*
D03*
X286614Y260630D02*
D03*
Y255512D02*
D03*
X266142Y252756D02*
D03*
X269291D02*
D03*
X267717Y265748D02*
D03*
X270866D02*
D03*
X264567Y260630D02*
D03*
X266142Y263386D02*
D03*
X269291D02*
D03*
X267717Y260630D02*
D03*
X270866D02*
D03*
X267717Y255118D02*
D03*
X264567D02*
D03*
X266142Y257874D02*
D03*
X262992D02*
D03*
X269291D02*
D03*
X270866Y255118D02*
D03*
X281890Y262992D02*
D03*
X278740D02*
D03*
X280315Y265748D02*
D03*
X275590Y262992D02*
D03*
X277165Y265748D02*
D03*
X272441Y262992D02*
D03*
X274016Y265748D02*
D03*
X283465D02*
D03*
X285039Y262992D02*
D03*
X281890Y257874D02*
D03*
X278740D02*
D03*
X280315Y260630D02*
D03*
X275590Y257874D02*
D03*
X277165Y260630D02*
D03*
X272441Y257874D02*
D03*
X274016Y260630D02*
D03*
X283465D02*
D03*
X285039Y257874D02*
D03*
Y252756D02*
D03*
X283465Y255512D02*
D03*
X274016D02*
D03*
X272441Y252756D02*
D03*
X277165Y255512D02*
D03*
X275590Y252756D02*
D03*
X280315Y255512D02*
D03*
X278740Y252756D02*
D03*
X281890D02*
D03*
X12992Y127559D02*
D03*
Y130709D02*
D03*
Y133858D02*
D03*
Y137008D02*
D03*
Y112992D02*
D03*
Y116142D02*
D03*
Y119291D02*
D03*
Y122441D02*
D03*
Y98425D02*
D03*
Y101575D02*
D03*
Y104724D02*
D03*
Y107874D02*
D03*
Y83858D02*
D03*
Y87008D02*
D03*
Y90158D02*
D03*
Y93307D02*
D03*
Y81102D02*
D03*
Y77953D02*
D03*
Y74803D02*
D03*
Y71653D02*
D03*
X15354Y131890D02*
D03*
Y125984D02*
D03*
Y120079D02*
D03*
Y114173D02*
D03*
Y108661D02*
D03*
Y102362D02*
D03*
Y96850D02*
D03*
Y90945D02*
D03*
Y85039D02*
D03*
Y79528D02*
D03*
Y73228D02*
D03*
Y70079D02*
D03*
Y82284D02*
D03*
Y93701D02*
D03*
Y105512D02*
D03*
Y117323D02*
D03*
Y128740D02*
D03*
Y134646D02*
D03*
Y122835D02*
D03*
Y111417D02*
D03*
Y99606D02*
D03*
Y88189D02*
D03*
Y76378D02*
D03*
X18110Y128740D02*
D03*
Y117323D02*
D03*
Y105512D02*
D03*
Y93701D02*
D03*
Y82284D02*
D03*
Y70079D02*
D03*
X143307Y95669D02*
D03*
X140157D02*
D03*
X141732Y98425D02*
D03*
X137008Y95669D02*
D03*
X138583Y98425D02*
D03*
X133858Y95669D02*
D03*
X135433Y98425D02*
D03*
X144882D02*
D03*
X146457Y95669D02*
D03*
Y100787D02*
D03*
X144882Y103543D02*
D03*
X135433D02*
D03*
X133858Y100787D02*
D03*
X138583Y103543D02*
D03*
X137008Y100787D02*
D03*
X141732Y103543D02*
D03*
X140157Y100787D02*
D03*
X143307D02*
D03*
X146457Y105905D02*
D03*
X144882Y108661D02*
D03*
X135433D02*
D03*
X133858Y105905D02*
D03*
X138583Y108661D02*
D03*
X137008Y105905D02*
D03*
X141732Y108661D02*
D03*
X140157Y105905D02*
D03*
X143307D02*
D03*
X132283Y98032D02*
D03*
X130709Y100787D02*
D03*
X124409D02*
D03*
X127559D02*
D03*
X125984Y98032D02*
D03*
X129134D02*
D03*
X132283Y103543D02*
D03*
X129134D02*
D03*
X130709Y106299D02*
D03*
X127559D02*
D03*
X125984Y103543D02*
D03*
X132283Y108661D02*
D03*
X129134D02*
D03*
X130709Y95669D02*
D03*
X127559D02*
D03*
X148031Y98425D02*
D03*
Y103543D02*
D03*
X149606Y100787D02*
D03*
X124409Y106299D02*
D03*
X149606Y105905D02*
D03*
X148031Y108661D02*
D03*
X125984D02*
D03*
X143701Y111417D02*
D03*
X140551D02*
D03*
X142126Y114173D02*
D03*
X137402Y111417D02*
D03*
X138976Y114173D02*
D03*
X134252Y111417D02*
D03*
X135827Y114173D02*
D03*
X145276D02*
D03*
X146850Y111417D02*
D03*
Y116535D02*
D03*
X145276Y119291D02*
D03*
X135827D02*
D03*
X134252Y116535D02*
D03*
X138976Y119291D02*
D03*
X137402Y116535D02*
D03*
X142126Y119291D02*
D03*
X140551Y116535D02*
D03*
X143701D02*
D03*
X146850Y121653D02*
D03*
X145276Y124409D02*
D03*
X135827D02*
D03*
X134252Y121653D02*
D03*
X138976Y124409D02*
D03*
X137402Y121653D02*
D03*
X142126Y124409D02*
D03*
X140551Y121653D02*
D03*
X143701D02*
D03*
X132677Y113779D02*
D03*
X131102Y116535D02*
D03*
X124803D02*
D03*
X127953D02*
D03*
X126378Y113779D02*
D03*
X129527D02*
D03*
X132677Y119291D02*
D03*
X129527D02*
D03*
X131102Y122047D02*
D03*
X127953D02*
D03*
X126378Y119291D02*
D03*
X132677Y124409D02*
D03*
X129527D02*
D03*
X131102Y111417D02*
D03*
X127953D02*
D03*
X148425Y114173D02*
D03*
Y119291D02*
D03*
X150000Y116535D02*
D03*
X124803Y122047D02*
D03*
X150000Y121653D02*
D03*
X148425Y124409D02*
D03*
X126378D02*
D03*
X47638Y33465D02*
D03*
X69685D02*
D03*
X71260Y30709D02*
D03*
X46063Y31102D02*
D03*
X71260Y25591D02*
D03*
X69685Y28346D02*
D03*
Y23228D02*
D03*
X49213Y20472D02*
D03*
X52362D02*
D03*
X50787Y33465D02*
D03*
X53937D02*
D03*
X47638Y28346D02*
D03*
X49213Y31102D02*
D03*
X52362D02*
D03*
X50787Y28346D02*
D03*
X53937D02*
D03*
X50787Y22835D02*
D03*
X47638D02*
D03*
X49213Y25591D02*
D03*
X46063D02*
D03*
X52362D02*
D03*
X53937Y22835D02*
D03*
X64961Y30709D02*
D03*
X61811D02*
D03*
X63386Y33465D02*
D03*
X58661Y30709D02*
D03*
X60236Y33465D02*
D03*
X55512Y30709D02*
D03*
X57087Y33465D02*
D03*
X66535D02*
D03*
X68110Y30709D02*
D03*
X64961Y25591D02*
D03*
X61811D02*
D03*
X63386Y28346D02*
D03*
X58661Y25591D02*
D03*
X60236Y28346D02*
D03*
X55512Y25591D02*
D03*
X57087Y28346D02*
D03*
X66535D02*
D03*
X68110Y25591D02*
D03*
Y20472D02*
D03*
X66535Y23228D02*
D03*
X57087D02*
D03*
X55512Y20472D02*
D03*
X60236Y23228D02*
D03*
X58661Y20472D02*
D03*
X63386Y23228D02*
D03*
X61811Y20472D02*
D03*
X64961D02*
D03*
X170866Y38583D02*
D03*
X225984Y231102D02*
D03*
X224016Y29921D02*
D03*
X210630Y114567D02*
D03*
X205118Y75590D02*
D03*
X199606Y64173D02*
D03*
X220866Y110236D02*
D03*
X226378Y90158D02*
D03*
X234252Y74016D02*
D03*
X180709Y119291D02*
D03*
X202756Y127559D02*
D03*
X174409Y125984D02*
D03*
X186221Y135039D02*
D03*
X172638Y145276D02*
D03*
X194094Y116142D02*
D03*
X193701Y112598D02*
D03*
X201181Y112205D02*
D03*
Y116142D02*
D03*
X185433Y93701D02*
D03*
X175591Y31102D02*
D03*
X186614Y19685D02*
D03*
X169685Y62598D02*
D03*
X172835Y91732D02*
D03*
X202756Y72441D02*
D03*
X185433Y59055D02*
D03*
X169685Y87795D02*
D03*
X94095Y39370D02*
D03*
X93701Y42913D02*
D03*
X188976Y145669D02*
D03*
X185827Y180315D02*
D03*
X188583Y183071D02*
D03*
X182677Y183465D02*
D03*
X195276Y197638D02*
D03*
X135433Y241929D02*
D03*
X140157Y242874D02*
D03*
X216142Y242126D02*
D03*
X212598Y242520D02*
D03*
X129921Y244094D02*
D03*
X86614Y237795D02*
D03*
X88976Y241339D02*
D03*
X126772Y236221D02*
D03*
X80709Y238583D02*
D03*
X73622Y237795D02*
D03*
X77165Y244094D02*
D03*
X25591Y205118D02*
D03*
X223228Y64173D02*
D03*
X222835Y50000D02*
D03*
X201969Y61024D02*
D03*
X188189Y42126D02*
D03*
X222939Y15748D02*
D03*
X188189Y83465D02*
D03*
X197244Y93701D02*
D03*
X186221Y66142D02*
D03*
X189370Y59055D02*
D03*
X185433Y79134D02*
D03*
X28583Y208425D02*
D03*
X201969Y53937D02*
D03*
X186220Y205511D02*
D03*
X188976Y202756D02*
D03*
X257480Y237008D02*
D03*
X222835Y242126D02*
D03*
X25197Y177165D02*
D03*
X157087Y230709D02*
D03*
X172834Y50787D02*
D03*
X174016Y54724D02*
D03*
X185433Y49606D02*
D03*
X188583Y53937D02*
D03*
M02*
