G04*
G04 #@! TF.GenerationSoftware,Altium Limited,Altium Designer,20.0.10 (225)*
G04*
G04 Layer_Color=8421504*
%FSLAX25Y25*%
%MOIN*%
G70*
G01*
G75*
%ADD15R,0.02520X0.02756*%
%ADD16R,0.01968X0.02756*%
%ADD17R,0.03347X0.03347*%
%ADD18R,0.03937X0.03543*%
%ADD19R,0.03543X0.03937*%
%ADD20R,0.05158X0.01772*%
%ADD21R,0.07087X0.03150*%
%ADD22O,0.06299X0.01181*%
%ADD23R,0.06299X0.01181*%
%ADD24R,0.03347X0.03347*%
%ADD25R,0.07000X0.08500*%
%ADD26R,0.02756X0.02520*%
%ADD27R,0.02756X0.01968*%
%ADD28R,0.01772X0.05158*%
%ADD29R,0.03150X0.03150*%
%ADD30R,0.03150X0.03150*%
%ADD31R,0.08500X0.07000*%
G36*
X65847Y190331D02*
X55413D01*
Y197615D01*
X65847D01*
Y190331D01*
D02*
G37*
G36*
X106693Y68799D02*
X99410D01*
Y79232D01*
X106693D01*
Y68799D01*
D02*
G37*
G36*
X98228Y68799D02*
X90945D01*
Y79232D01*
X98228D01*
Y68799D01*
D02*
G37*
G36*
X215650Y136957D02*
X226083D01*
Y144241D01*
X215650D01*
Y136957D01*
D02*
G37*
G36*
X226083Y152705D02*
X215650D01*
Y145422D01*
X226083D01*
Y152705D01*
D02*
G37*
G36*
X215650Y174016D02*
X226083D01*
Y181299D01*
X215650D01*
Y174016D01*
D02*
G37*
G36*
X226083Y189764D02*
X215650D01*
Y182480D01*
X226083D01*
Y189764D01*
D02*
G37*
G36*
X65847Y206079D02*
X55413D01*
Y198796D01*
X65847D01*
Y206079D01*
D02*
G37*
G36*
X70866Y280413D02*
Y269980D01*
X78150D01*
Y280413D01*
X70866D01*
D02*
G37*
G36*
X86614Y269980D02*
Y280413D01*
X79331D01*
Y269980D01*
X86614D01*
D02*
G37*
G36*
X124016Y280413D02*
Y269980D01*
X131299D01*
Y280413D01*
X124016D01*
D02*
G37*
G36*
X139764Y269980D02*
Y280413D01*
X132480D01*
Y269980D01*
X139764D01*
D02*
G37*
G36*
X209449Y279626D02*
Y269193D01*
X216732D01*
Y279626D01*
X209449D01*
D02*
G37*
G36*
X225197Y269193D02*
Y279626D01*
X217913D01*
Y269193D01*
X225197D01*
D02*
G37*
D15*
X212677Y246457D02*
D03*
X222756D02*
D03*
X212677Y251969D02*
D03*
X222756D02*
D03*
X87087Y46063D02*
D03*
X97165D02*
D03*
X87087Y51575D02*
D03*
X97165D02*
D03*
X126850Y247244D02*
D03*
X136929D02*
D03*
X126850Y252756D02*
D03*
X136929D02*
D03*
X73701Y247244D02*
D03*
X83780D02*
D03*
X73701Y252756D02*
D03*
X83780D02*
D03*
D16*
X216142Y246457D02*
D03*
X219291D02*
D03*
X216142Y251969D02*
D03*
X219291D02*
D03*
X90551Y46063D02*
D03*
X93701D02*
D03*
X90551Y51575D02*
D03*
X93701D02*
D03*
X130315Y247244D02*
D03*
X133465D02*
D03*
X130315Y252756D02*
D03*
X133465D02*
D03*
X77165Y247244D02*
D03*
X80315D02*
D03*
X77165Y252756D02*
D03*
X80315D02*
D03*
D17*
X205512Y246949D02*
D03*
Y253051D02*
D03*
X184646Y119390D02*
D03*
Y125492D02*
D03*
X233071Y250098D02*
D03*
Y256201D02*
D03*
Y243209D02*
D03*
Y237106D02*
D03*
X50394Y57972D02*
D03*
Y64075D02*
D03*
X75197Y101083D02*
D03*
Y94980D02*
D03*
X104724Y46457D02*
D03*
Y52559D02*
D03*
X112205Y52658D02*
D03*
Y46555D02*
D03*
X241339Y178445D02*
D03*
Y184547D02*
D03*
X240945Y140256D02*
D03*
Y146358D02*
D03*
X87795Y194587D02*
D03*
Y200689D02*
D03*
X79528Y212303D02*
D03*
Y218406D02*
D03*
X242520Y301083D02*
D03*
Y294980D02*
D03*
X188976Y299508D02*
D03*
Y293406D02*
D03*
X147244Y250886D02*
D03*
Y256988D02*
D03*
Y243996D02*
D03*
Y237894D02*
D03*
X120079Y247736D02*
D03*
Y253839D02*
D03*
X110236Y300689D02*
D03*
Y294587D02*
D03*
X101969Y300689D02*
D03*
Y294587D02*
D03*
X93701Y250886D02*
D03*
Y256988D02*
D03*
Y243996D02*
D03*
Y237894D02*
D03*
X48031Y299902D02*
D03*
Y293799D02*
D03*
X66929Y253839D02*
D03*
Y247736D02*
D03*
X159055Y293799D02*
D03*
Y299902D02*
D03*
D18*
X201181Y264665D02*
D03*
Y269980D02*
D03*
X82284Y64272D02*
D03*
Y69587D02*
D03*
X251575Y178839D02*
D03*
Y184153D02*
D03*
X249606Y140650D02*
D03*
Y145965D02*
D03*
X80315Y195374D02*
D03*
Y200689D02*
D03*
X62992Y266240D02*
D03*
Y271555D02*
D03*
X116535Y266929D02*
D03*
Y272244D02*
D03*
X206299Y10335D02*
D03*
Y15650D02*
D03*
D19*
X211910Y197244D02*
D03*
X217224D02*
D03*
X209547Y160236D02*
D03*
X214862D02*
D03*
X117815Y302362D02*
D03*
X123130D02*
D03*
X85925Y94095D02*
D03*
X91240D02*
D03*
X94390Y294882D02*
D03*
X89075D02*
D03*
X150295Y302362D02*
D03*
X144980D02*
D03*
X231398Y301575D02*
D03*
X226083D02*
D03*
X204035D02*
D03*
X209350D02*
D03*
X65847Y302362D02*
D03*
X71161D02*
D03*
X218406Y66142D02*
D03*
X213090D02*
D03*
X219193Y97638D02*
D03*
X213878D02*
D03*
X218504Y82677D02*
D03*
X213189D02*
D03*
X218406Y51968D02*
D03*
X213090D02*
D03*
X218012Y37402D02*
D03*
X212697D02*
D03*
X218012Y22835D02*
D03*
X212697D02*
D03*
X55807Y214173D02*
D03*
X50492D02*
D03*
D20*
X209646Y189567D02*
D03*
Y187008D02*
D03*
Y184449D02*
D03*
Y181890D02*
D03*
Y179331D02*
D03*
Y176772D02*
D03*
Y174213D02*
D03*
X232087D02*
D03*
Y176772D02*
D03*
Y179331D02*
D03*
Y181890D02*
D03*
Y184449D02*
D03*
Y187008D02*
D03*
Y189567D02*
D03*
X209646Y152508D02*
D03*
Y149949D02*
D03*
Y147390D02*
D03*
Y144831D02*
D03*
Y142272D02*
D03*
Y139713D02*
D03*
Y137154D02*
D03*
X232087D02*
D03*
Y139713D02*
D03*
Y142272D02*
D03*
Y144831D02*
D03*
Y147390D02*
D03*
Y149949D02*
D03*
Y152508D02*
D03*
X71850Y205883D02*
D03*
Y203323D02*
D03*
Y200764D02*
D03*
Y198205D02*
D03*
Y195646D02*
D03*
Y193087D02*
D03*
Y190528D02*
D03*
X49409D02*
D03*
Y193087D02*
D03*
Y195646D02*
D03*
Y198205D02*
D03*
Y200764D02*
D03*
Y203323D02*
D03*
Y205883D02*
D03*
D21*
X187008Y89764D02*
D03*
Y28346D02*
D03*
D22*
X179921Y82677D02*
D03*
Y80709D02*
D03*
Y78740D02*
D03*
Y76772D02*
D03*
Y74803D02*
D03*
Y72835D02*
D03*
Y70866D02*
D03*
Y68898D02*
D03*
Y66929D02*
D03*
Y64961D02*
D03*
Y62992D02*
D03*
Y61024D02*
D03*
Y59055D02*
D03*
Y57087D02*
D03*
Y55118D02*
D03*
Y53150D02*
D03*
Y51181D02*
D03*
Y49213D02*
D03*
Y47244D02*
D03*
Y45276D02*
D03*
Y43307D02*
D03*
Y41339D02*
D03*
Y39370D02*
D03*
Y37402D02*
D03*
Y35433D02*
D03*
X194095D02*
D03*
Y37402D02*
D03*
Y39370D02*
D03*
Y41339D02*
D03*
Y43307D02*
D03*
Y45276D02*
D03*
Y47244D02*
D03*
Y49213D02*
D03*
Y51181D02*
D03*
Y53150D02*
D03*
Y55118D02*
D03*
Y57087D02*
D03*
Y59055D02*
D03*
Y61024D02*
D03*
Y62992D02*
D03*
Y64961D02*
D03*
Y66929D02*
D03*
Y68898D02*
D03*
Y70866D02*
D03*
Y72835D02*
D03*
Y74803D02*
D03*
Y76772D02*
D03*
Y78740D02*
D03*
Y80709D02*
D03*
D23*
Y82677D02*
D03*
D24*
X191437Y131906D02*
D03*
X197539D02*
D03*
X191831Y122441D02*
D03*
X197933D02*
D03*
X197539Y168898D02*
D03*
X191437D02*
D03*
Y156299D02*
D03*
X197539D02*
D03*
X85138Y102756D02*
D03*
X91240D02*
D03*
X245177Y198425D02*
D03*
X239075D02*
D03*
X246358Y159843D02*
D03*
X240256D02*
D03*
X38878Y187008D02*
D03*
X32776D02*
D03*
Y194095D02*
D03*
X38878D02*
D03*
X94784Y302362D02*
D03*
X88681D02*
D03*
X150295Y294882D02*
D03*
X144193D02*
D03*
X232185Y294094D02*
D03*
X226083D02*
D03*
X203642D02*
D03*
X209744D02*
D03*
X65847Y294882D02*
D03*
X71949D02*
D03*
X219193Y73622D02*
D03*
X213090D02*
D03*
X219980Y105118D02*
D03*
X213878D02*
D03*
X219193Y90158D02*
D03*
X213090D02*
D03*
X219193Y59055D02*
D03*
X213090D02*
D03*
X218799Y44899D02*
D03*
X212697D02*
D03*
X218799Y30315D02*
D03*
X212697D02*
D03*
X219210Y15748D02*
D03*
X213107D02*
D03*
X184153Y172835D02*
D03*
X178051D02*
D03*
X123917Y294488D02*
D03*
X117815D02*
D03*
D25*
X265957Y237106D02*
D03*
X249957D02*
D03*
X15890Y177165D02*
D03*
X31890D02*
D03*
D26*
X191732Y149134D02*
D03*
Y139055D02*
D03*
X197244Y149134D02*
D03*
Y139055D02*
D03*
X38189Y201732D02*
D03*
Y211811D02*
D03*
X32677Y201732D02*
D03*
Y211811D02*
D03*
X197638Y179606D02*
D03*
Y189685D02*
D03*
X192126Y179606D02*
D03*
Y189685D02*
D03*
D27*
X191732Y145669D02*
D03*
Y142520D02*
D03*
X197244Y145669D02*
D03*
Y142520D02*
D03*
X38189Y205197D02*
D03*
Y208347D02*
D03*
X32677Y205197D02*
D03*
Y208347D02*
D03*
X197638Y183071D02*
D03*
Y186221D02*
D03*
X192126Y183071D02*
D03*
Y186221D02*
D03*
D28*
X124213Y263976D02*
D03*
X126772D02*
D03*
X129331D02*
D03*
X131890D02*
D03*
X134449D02*
D03*
X137008D02*
D03*
X139567D02*
D03*
Y286417D02*
D03*
X137008D02*
D03*
X134449D02*
D03*
X131890D02*
D03*
X129331D02*
D03*
X126772D02*
D03*
X124213D02*
D03*
X91142Y62795D02*
D03*
X93701D02*
D03*
X96260D02*
D03*
X98819D02*
D03*
X101378D02*
D03*
X103937D02*
D03*
X106496D02*
D03*
Y85236D02*
D03*
X103937D02*
D03*
X101378D02*
D03*
X98819D02*
D03*
X96260D02*
D03*
X93701D02*
D03*
X91142D02*
D03*
X209646Y263189D02*
D03*
X212205D02*
D03*
X214764D02*
D03*
X217323D02*
D03*
X219882D02*
D03*
X222441D02*
D03*
X225000D02*
D03*
Y285630D02*
D03*
X222441D02*
D03*
X219882D02*
D03*
X217323D02*
D03*
X214764D02*
D03*
X212205D02*
D03*
X209646D02*
D03*
X71063Y286417D02*
D03*
X73622D02*
D03*
X76181D02*
D03*
X78740D02*
D03*
X81299D02*
D03*
X83858D02*
D03*
X86417D02*
D03*
Y263976D02*
D03*
X83858D02*
D03*
X81299D02*
D03*
X78740D02*
D03*
X76181D02*
D03*
X73622D02*
D03*
X71063D02*
D03*
D29*
X56693Y57874D02*
D03*
Y51968D02*
D03*
X231850Y196653D02*
D03*
Y202559D02*
D03*
X232244Y158858D02*
D03*
Y164764D02*
D03*
X72047Y212205D02*
D03*
Y218110D02*
D03*
D30*
X83071Y85433D02*
D03*
X77165D02*
D03*
X117520Y286575D02*
D03*
X111614D02*
D03*
X146260Y286653D02*
D03*
X152165D02*
D03*
X201969Y285827D02*
D03*
X196063D02*
D03*
X233465Y285433D02*
D03*
X239370D02*
D03*
X93504Y286653D02*
D03*
X99410D02*
D03*
X63386Y286221D02*
D03*
X57480D02*
D03*
D31*
X157480Y222331D02*
D03*
Y238331D02*
D03*
X104724Y222583D02*
D03*
Y238583D02*
D03*
X122835Y45024D02*
D03*
Y61024D02*
D03*
X167717Y175591D02*
D03*
Y191591D02*
D03*
X167323Y135039D02*
D03*
Y151039D02*
D03*
M02*
