M48
;Layer_Color=9474304
;FILE_FORMAT=2:3
INCH,LZ
;TYPE=PLATED
T1F00S00C0.012
T2F00S00C0.028
T3F00S00C0.040
T4F00S00C0.040
T5F00S00C0.106
%
T01
X00492Y00205
X00524
X00555
X00587
X00618
X0065
X00681
X00697Y00232
X00665
X00634
X00602
X00571
X00539Y00228
X00508
X00476
X00461Y00256
X00492
X00524
X00555Y00256
X00587
X00618
X0065
X00681
X00713
X00697Y00283
X00665
X00634
X00602
X00571
X00539
X00508
X00476
X00461Y00311
X00492Y00311
X00524
X00555Y00307
X00587
X00618
X0065
X00681
X00713
X00697Y00335
X00665
X00634
X00602
X00571
X00539
X00508
X00476
X00941Y00394
X00937Y00429
X01224Y00276
X01276Y00957
X01307
X01339
X0137
X01402
X01433
X01465
X0148Y00984
X01449
X01417
X01386
X01354
X01323Y0098
X01291
X0126
X01244Y01008
X01276
X01307
X01339Y01008
X0137
X01402
X01433
X01465
X01496
X0148Y01035
X01449
X01417
X01386
X01354
X01323
X01291
X0126
X01276Y01063
X01307
X01339Y01059
X0137
X01402
X01433
X01465
X01496
X0148Y01087
X01449
X01417
X01386
X01354
X01323
X01291
X0126
X01244Y01063
X0128Y01114
X01311
X01343
X01374
X01406
X01437
X01469
X01484Y01142
X01453
X01421
X0139
X01358
X01327Y01138
X01295
X01264
X01248Y01165
X0128
X01311
X01343Y01165
X01374
X01406
X01437
X01469
X015
X01484Y01193
X01453
X01421
X0139
X01358
X01327
X01295
X01264
X0128Y0122
X01311
X01343Y01217
X01374
X01406
X01437
X01469
X015
X01484Y01244
X01453
X01421
X0139
X01358
X01327
X01295
X01264
X01248Y0122
X01028Y0137
X00996
X00965
X00976Y01528
X01008
X01039
X01071
X01102
X01118Y01555
X01087
X01055
X01024
X00992
X00961Y01551
X00929
X00898
X00913Y01528
X00945
X0013Y0137
Y01339
X00154Y01346
Y01319
Y01287
Y0126
Y01228
X0013Y01224
Y01193
X00154Y01201
Y01173
X00181
X00154Y01142
Y01114
Y01087
X0013Y01079
Y01047
X00154Y01055
X00181
X00154Y01024
Y00996
Y00969
Y00937
X0013Y00933
Y00902
X00154Y00909
Y00882
Y0085
Y00823
Y00795
Y00764
Y00732
Y00701
X00181
X0013Y00717
Y00748
Y0078
Y00811
Y00839
Y0087
X00181Y00823
Y00937
X0013Y00984
Y01016
Y0113
Y01161
Y01276
Y01307
X00181Y01287
X01744Y0126
X01807Y01193
X01941Y01161
X01937Y01126
X02012Y01122
Y01161
X02055Y01169
X02087Y01169
X02118
X02106Y01146
X02102Y01193
X02071
X02028Y01276
X01862Y0135
X0189Y01457
X01726Y01453
X01728Y00917
X01697Y00878
X01854Y00937
X01972Y00937
X01882Y00835
X01854Y00791
X01862Y00661
X01854Y00591
X01894
X01886Y00539
X01854Y00496
X01882Y00421
X01709Y00386
X01756Y00311
X01866Y00197
X02229Y00157
X0224Y00299
X02228Y005
X02232Y00642
X02343Y0074
X02264Y00902
X02492Y00909
X02524
X02555
X02587Y00913
X02618
X0265
X02681
X02713
X02728Y00937
X02697
X02665
X02634
X02602
X02571
X02539Y00937
X02508
X02476
X02492Y00965
X02524
X02555
X02587
X02618
X0265
X02681
X02713
X02728Y00988
X02697
X02665
X02634
X02602
X02571
X02539Y00992
X02508
X02476Y00992
X02492Y01016
X02524
X02555
X02587
X02618
X0265
X02681
X02713
X02701Y01043
X02669
X02638
X02606
X02575
X02543
X02512
X02528Y01067
X02496
X0248Y01094
X02512
X02543
X02575Y01094
X02606
X02638
X02669
X02701
X02732
X02717Y01071
X02685
X02654
X02622
X02591
X02559Y01067
Y01122
X02591
X02622
X02654
X02685
X02717
X02732Y01146
X02701
X02669
X02638
X02606
X02575
X02543Y0115
X02512
X0248Y0115
X02496Y01173
X02528
X02559
X02591
X02622
X02654
X02685
X02717
X02528Y01122
X02496
X02508Y00886
X02539
X02571
X02602
X02634
X02665
X02697
X02705Y00433
X02673
X02642
X0261
X02579
X02547
X02516
X02531Y00409
X02563
X02594Y00406
X02626
X02657
X02689
X0272
X02752
X02736Y00382
X02705
X02673
X02642
X0261
X02579
X02547
X02516
X02531Y00354
X02563
X02594Y00354
X02626
X02657
X02689
X0272
X02752
X02736Y00331
X02705
X02673
X02642
X0261
X02579Y00327
X02547
X02516
X02531Y00303
X02563
X02594
X02626
X02657
X02689
X0272
X02728Y00276
X02697
X02665
X02634
X02602
X02571
X02539
X02508
X02524Y00252
X02555
X02587Y00248
X02618
X0265
X02681
X02713
X02744
X02728Y00224
X02697
X02665
X02634
X02602
X02571
X02539
X02508
X02524Y00197
X02555
X02587Y00197
X02618
X0265
X02681
X02713
X02744
X02728Y00173
X02697
X02665
X02634
X02602
X02571Y00169
X02539
X02508
X02524Y00146
X02555
X02587
X02618
X0265
X02681
X02713
X02492Y00197
Y00252
X025Y00354
Y00409
X02736Y00433
X0202Y00539
Y0061
X01996Y00642
X02028Y00724
X02051Y00756
X01697Y00626
X0174Y00547
X01728Y00508
X02209Y01102
X02937Y01516
Y01547
X02961Y01531
X02961Y015
X02961Y01563
X02965Y01594
Y01626
Y01657
Y01689
Y0172
Y01752
X02937Y01736
Y01705
Y01673
Y01642
Y0161
Y01579
X02516Y01689
X02484
X02453Y01689
X02469Y01713
X025
X02677Y02118
X02709
X0274
X02772
X02803
X02835
X02866
X02882Y02146
X0285
X02819
X02787
X02756
X02724Y02142
X02693
X02661
X02646Y02169
X02677
X02709
X0274Y02169
X02772
X02803
X02835
X02866
X02898
X02882Y02197
X0285
X02819
X02787
X02756
X02724
X02693
X02661
X02677Y02224
X02709
X0274Y0222
X02772
X02803
X02835
X02866
X02898
X02882Y02248
X0285
X02819
X02787
X02756
X02724
X02693
X02661
X02646Y02224
X02575Y0237
X02661Y02528
X02693
X02724
X02756
X02787
X02819
X0285
X02866Y02555
X02835
X02803
X02772
X0274
X02709Y02551
X02677
X02646
X0263Y02579
X02661
X02693
X02724Y02579
X02756
X02787
X02819
X0285
X02882
X02866Y02606
X02835
X02803
X02772
X0274
X02709
X02677
X02646
X0263Y02634
X02661Y02634
X02693
X02724Y0263
X02756
X02787
X02819
X0285
X02882
X02866Y02657
X02835
X02803
X02772
X0274
X02709
X02677
X02646
X02665Y02685
X02697
X02728
X0276
X02791
X02823
X02854
X0287Y02713
X02839
X02807
X02776
X02744
X02713Y02709
X02681
X0265
X02634Y02736
X02665
X02697
X02728Y02736
X0276
X02791
X02823
X02854
X02886
X0287Y02764
X02839
X02807
X02776
X02744
X02713
X02681
X0265
X02634Y02791
X02665Y02791
X02697
X02728Y02787
X0276
X02791
X02823
X02854
X02886
X0287Y02815
X02839
X02807
X02776
X02744
X02713
X02681
X0265
X02228Y02421
X02161
X02126Y02425
X0226Y02311
X01953Y01976
X0189Y02028
X01862Y02055
X01886Y01831
X01858Y01803
X01827Y01835
X01783Y0185
X01689Y01823
X01945Y01602
X01571Y02307
X01402Y02429
X01354Y02419
X01299Y02441
X01268Y02362
X00866Y02378
X0089Y02413
X00807Y02386
X00736Y02378
X00772Y02441
X00286Y02084
X00256Y02051
X00252Y01772
X00898Y01657
X00929
X00961
X00992
X01024
X01055
X01087
X01118
X01102Y0163
X01134
X01118Y01606
X01087
X01055
X01024
X00992
X00961
X00929
X00898
X00913Y01579
X00945
X00976Y01579
X01008
X01039
X01071
X01102
X01134
X01071Y0163
X01039
X01008
X00976
X00945Y01634
X00913
X00882Y01634
Y01579
X01071Y01795
X01102
X01134
X01307Y01815
X01339Y01815
X0137
X01402Y01811
X01433
X01465
X01496
X01528
X01543Y01787
X01512
X0148
X01449
X01417
X01386
X01354
X01323
X01339Y0176
X0137
X01402Y0176
X01433
X01465
X01496
X01528
X01543Y01736
X01512
X0148
X01449
X01417
X01386Y01732
X01354
X01323
X01339Y01709
X0137
X01402
X01433
X01465
X01496
X01528
X01543Y01839
X01512
X0148
X01449
X01417
X01386
X01354
X01323
X01311Y01866
X01343
X01374
X01406
X01437
X01469
X015
X01531
X01516Y01894
X01484
X01453
X01421
X0139
X01358Y0189
X01327
X01343Y01917
X01311
X01327Y01945
X01358
X0139
X01421
X01453
X01484
X01516
X015Y01969
X01531
X01516Y01996
X01484
X01453
X01421
X0139
X01358
X01327
X01311Y01972
X01343
X01374Y01969
X01406
X01437
X01469
Y01917
X015
X01531
X01437
X01406
X01374
X01307Y0176
X00291Y02961
X0026
X00228
X00197
X00165
X00134
X00102
X00118Y02984
X0015
X00181Y02988
X00213
X00244
X00276
X00307
X00291Y03012
X00323
X00307Y03039
X00276
X00244
X00213
X00181
X0015
X00118
X00087
X00102Y03012
X00134
X00165Y03012
X00197
X00228
X0026
Y03063
X00291
X00323
X00307Y03091
X00276
X00244
X00213
X00181
X0015
X00118
X00087
X00102Y03067
X00134
X00165Y03063
X00197
X00228
X00071Y03067
Y03012
X00087Y02984
X01063Y03465
X01094Y03465
X01126
X01157Y03461
X01189
X0122
X01252
X01283
X01315
X01299Y03488
X01268
X01236
X01205
X01173
X01142
X0111
X01079
X0178Y03484
X01811
X01843
X01874
X01906
X01937
X01969
X02
X01984Y03457
X02016
X01953
X01921
X0189
X01858
X01827Y03461
X01795
X01764Y03461
X02331Y03465
X02362Y03465
X02394
X02425Y03461
X02457
X02488
X0252
X02551
X02583
X02567Y03488
X02535
X02504
X02472
X02441
X02409
X02378
X02346
T02
X01811Y00313
Y00868
T03
X00933Y01197
X01051
Y01315
X00933
X00409Y03228
X01823Y03209
X01941
Y03327
X01823
X02398Y03323
Y03205
X02516
Y03323
T04
X00199Y00524
X00236Y00642
Y0076
X00354
Y00642
Y00878
Y00996
Y01114
X00236Y01114
Y01228
Y01346
X00354Y0135
Y01232
X00236Y00996
Y00878
X00199Y01469
X00815Y01352
X01169Y01352
X02693Y01453
X02811
X02848Y01335
X02811Y01571
X02693
Y01689
X02811
Y01807
X02693
X02848Y01925
X01224Y01872
X01106Y01909
Y02028
X00988Y01872
X01067Y03228
Y03346
X01185
Y03228
X01303
Y03346
X01421Y03383
X00949
X00764Y03311
X00646Y03228
X00528
X00291Y03311
X01705Y03364
X02059Y03364
X0228Y0336
X02634Y0336
T05
X00098Y00098
X01752Y00091
Y01075
X02933Y01083
Y00098
X00098Y03445
X02933
M30
