G04*
G04 #@! TF.GenerationSoftware,Altium Limited,Altium Designer,19.1.9 (167)*
G04*
G04 Layer_Color=16711935*
%FSLAX25Y25*%
%MOIN*%
G70*
G01*
G75*
%ADD12C,0.00394*%
%ADD90R,0.00847X0.03150*%
%ADD91R,0.03150X0.00847*%
D12*
X335039Y70866D02*
G03*
X335039Y70866I-1969J0D01*
G01*
X59100Y41378D02*
Y44528D01*
X65399Y41378D02*
Y44528D01*
X59100D02*
X65399D01*
X59100Y41378D02*
X65399D01*
X281890Y331496D02*
Y337795D01*
X278740Y331496D02*
Y337795D01*
X281890D01*
X278740Y331496D02*
X281890D01*
X240158D02*
Y337795D01*
X237008Y331496D02*
Y337795D01*
X240158D01*
X237008Y331496D02*
X240158D01*
X274410Y296850D02*
X280709D01*
X274410Y300000D02*
X280709D01*
Y296850D02*
Y300000D01*
X274410Y296850D02*
Y300000D01*
X274060Y322874D02*
X280359D01*
X274060Y326024D02*
X280359D01*
Y322874D02*
Y326024D01*
X274060Y322874D02*
Y326024D01*
X238932Y325945D02*
X245231D01*
X238932Y322795D02*
X245231D01*
X238932D02*
Y325945D01*
X245231Y322795D02*
Y325945D01*
X524016Y48819D02*
X527165D01*
X524016Y55118D02*
X527165D01*
X524016Y48819D02*
Y55118D01*
X527165Y48819D02*
Y55118D01*
X245276Y285039D02*
Y291339D01*
X248425Y285039D02*
Y291339D01*
X245276Y285039D02*
X248425D01*
X245276Y291339D02*
X248425D01*
X265453Y341417D02*
X272342D01*
X265453Y345197D02*
X272342D01*
Y341417D02*
Y345197D01*
X265453Y341417D02*
Y345197D01*
X246555Y345197D02*
X253445D01*
X246555Y341417D02*
X253445D01*
X246555D02*
Y345197D01*
X253445Y341417D02*
Y345197D01*
X265748Y330315D02*
X272047D01*
X265748Y333465D02*
X272047D01*
Y330315D02*
Y333465D01*
X265748Y330315D02*
Y333465D01*
X269094Y304921D02*
Y320276D01*
X249803D02*
X269094D01*
X249803Y304921D02*
Y320276D01*
Y304921D02*
X269094D01*
X246850Y333465D02*
X253150D01*
X246850Y330315D02*
X253150D01*
X246850D02*
Y333465D01*
X253150Y330315D02*
Y333465D01*
X273622Y284646D02*
Y290945D01*
X270472Y284646D02*
Y290945D01*
X273622D01*
X270472Y284646D02*
X273622D01*
X447933Y283071D02*
Y288583D01*
X434744Y283071D02*
Y288583D01*
X447933D01*
X434744Y283071D02*
X447933D01*
X393799Y31575D02*
Y35354D01*
X400689Y31575D02*
Y35354D01*
X393799D02*
X400689D01*
X393799Y31575D02*
X400689D01*
X377280Y31890D02*
Y35039D01*
X383579Y31890D02*
Y35039D01*
X377280D02*
X383579D01*
X377280Y31890D02*
X383579D01*
X266043Y285039D02*
Y290551D01*
X252854Y285039D02*
Y290551D01*
X266043D01*
X252854Y285039D02*
X266043D01*
X60138Y198327D02*
Y203248D01*
X52264Y198327D02*
Y203248D01*
Y198327D02*
X60138D01*
X52264Y203248D02*
X60138D01*
X32677Y237402D02*
Y248425D01*
X18504Y237402D02*
Y248425D01*
Y237402D02*
X32677D01*
X18504Y248425D02*
X32677D01*
X69685Y159449D02*
X75984D01*
X69685Y162598D02*
X75984D01*
Y159449D02*
Y162598D01*
X69685Y159449D02*
Y162598D01*
X525197Y60417D02*
Y65338D01*
X533071Y60417D02*
Y65338D01*
X525197D02*
X533071D01*
X525197Y60417D02*
X533071D01*
X535039Y48819D02*
Y55118D01*
X538189Y48819D02*
Y55118D01*
X535039Y48819D02*
X538189D01*
X535039Y55118D02*
X538189D01*
X248898Y52461D02*
Y59350D01*
X252677Y52461D02*
Y59350D01*
X248898Y52461D02*
X252677D01*
X248898Y59350D02*
X252677D01*
X169764Y52461D02*
Y59350D01*
X173543Y52461D02*
Y59350D01*
X169764Y52461D02*
X173543D01*
X169764Y59350D02*
X173543D01*
X173228Y65354D02*
Y71653D01*
X170079Y65354D02*
Y71653D01*
X173228D01*
X170079Y65354D02*
X173228D01*
X252362D02*
Y71653D01*
X249213Y65354D02*
Y71653D01*
X252362D01*
X249213Y65354D02*
X252362D01*
X279528Y212205D02*
X285827D01*
X279528Y215354D02*
X285827D01*
Y212205D02*
Y215354D01*
X279528Y212205D02*
Y215354D01*
X278839Y198898D02*
X285728D01*
X278839Y202677D02*
X285728D01*
Y198898D02*
Y202677D01*
X278839Y198898D02*
Y202677D01*
X256693Y215354D02*
X262992D01*
X256693Y212205D02*
X262992D01*
X256693D02*
Y215354D01*
X262992Y212205D02*
Y215354D01*
X256398Y202677D02*
X263287D01*
X256398Y198898D02*
X263287D01*
X256398D02*
Y202677D01*
X263287Y198898D02*
Y202677D01*
X257042Y190118D02*
Y193267D01*
X250743Y190118D02*
Y193267D01*
Y190118D02*
X257042D01*
X250743Y193267D02*
X257042D01*
X286265Y189804D02*
Y192953D01*
X292564Y189804D02*
Y192953D01*
X286265D02*
X292564D01*
X286265Y189804D02*
X292564D01*
X251181Y198425D02*
Y204724D01*
X248031Y198425D02*
Y204724D01*
X251181D01*
X248031Y198425D02*
X251181D01*
X281693Y171457D02*
Y186811D01*
X262402D02*
X281693D01*
X262402Y171457D02*
Y186811D01*
Y171457D02*
X281693D01*
X286221Y152362D02*
Y158661D01*
X283071Y152362D02*
Y158661D01*
X286221D01*
X283071Y152362D02*
X286221D01*
X287795Y167323D02*
X294094D01*
X287795Y170472D02*
X294094D01*
Y167323D02*
Y170472D01*
X287795Y167323D02*
Y170472D01*
X265453Y152362D02*
X278642D01*
X265453Y157874D02*
X278642D01*
X265453Y152362D02*
Y157874D01*
X278642Y152362D02*
Y157874D01*
X258661Y152362D02*
Y158661D01*
X261811Y152362D02*
Y158661D01*
X258661Y152362D02*
X261811D01*
X258661Y158661D02*
X261811D01*
X254410Y168898D02*
Y175787D01*
X258189Y168898D02*
Y175787D01*
X254410Y168898D02*
X258189D01*
X254410Y175787D02*
X258189D01*
X158661Y166535D02*
X164961D01*
X158661Y169685D02*
X164961D01*
Y166535D02*
Y169685D01*
X158661Y166535D02*
Y169685D01*
X159055Y151181D02*
Y157480D01*
X155905Y151181D02*
Y157480D01*
X159055D01*
X155905Y151181D02*
X159055D01*
X153347Y171457D02*
Y186811D01*
X134055D02*
X153347D01*
X134055Y171457D02*
Y186811D01*
Y171457D02*
X153347D01*
X46063Y171966D02*
Y176887D01*
X38189Y171966D02*
Y176887D01*
Y171966D02*
X46063D01*
X38189Y176887D02*
X46063D01*
Y163287D02*
Y168209D01*
X38189Y163287D02*
Y168209D01*
Y163287D02*
X46063D01*
X38189Y168209D02*
X46063D01*
X59842Y162500D02*
Y176083D01*
X52559Y162500D02*
Y176083D01*
X59842D01*
X52559Y162500D02*
X59842D01*
X72835Y183465D02*
Y189764D01*
X75984Y183465D02*
Y189764D01*
X72835Y183465D02*
X75984D01*
X72835Y189764D02*
X75984D01*
X72835Y169291D02*
Y175591D01*
X75984Y169291D02*
Y175591D01*
X72835Y169291D02*
X75984D01*
X72835Y175591D02*
X75984D01*
X18504Y230709D02*
X32677D01*
X18504Y219685D02*
X32677D01*
X18504D02*
Y230709D01*
X32677Y219685D02*
Y230709D01*
X241811Y309744D02*
X245590D01*
X241811Y302854D02*
X245590D01*
Y309744D01*
X241811Y302854D02*
Y309744D01*
X393799Y42992D02*
X400689D01*
X393799Y46772D02*
X400689D01*
Y42992D02*
Y46772D01*
X393799Y42992D02*
Y46772D01*
X377559Y43307D02*
X383858D01*
X377559Y46457D02*
X383858D01*
Y43307D02*
Y46457D01*
X377559Y43307D02*
Y46457D01*
X393799Y74882D02*
X400689D01*
X393799Y78661D02*
X400689D01*
Y74882D02*
Y78661D01*
X393799Y74882D02*
Y78661D01*
Y64252D02*
X400689D01*
X393799Y68032D02*
X400689D01*
Y64252D02*
Y68032D01*
X393799Y64252D02*
Y68032D01*
X393799Y53622D02*
X400689D01*
X393799Y57402D02*
X400689D01*
Y53622D02*
Y57402D01*
X393799Y53622D02*
Y57402D01*
X289075Y16063D02*
X295965D01*
X289075Y12284D02*
X295965D01*
X289075D02*
Y16063D01*
X295965Y12284D02*
Y16063D01*
X289075Y37716D02*
X295965D01*
X289075Y33937D02*
X295965D01*
X289075D02*
Y37716D01*
X295965Y33937D02*
Y37716D01*
X295965Y55590D02*
Y59370D01*
X289075Y55590D02*
Y59370D01*
Y55590D02*
X295965D01*
X289075Y59370D02*
X295965D01*
X289075Y92441D02*
X295965D01*
X289075Y88661D02*
X295965D01*
X289075D02*
Y92441D01*
X295965Y88661D02*
Y92441D01*
X305118Y15748D02*
X311417D01*
X305118Y12598D02*
X311417D01*
X305118D02*
Y15748D01*
X311417Y12598D02*
Y15748D01*
X305118Y59055D02*
X311417D01*
X305118Y55905D02*
X311417D01*
X305118D02*
Y59055D01*
X311417Y55905D02*
Y59055D01*
X305118Y92126D02*
X311417D01*
X305118Y88976D02*
X311417D01*
X305118D02*
Y92126D01*
X311417Y88976D02*
Y92126D01*
X377559Y75197D02*
X383858D01*
X377559Y78347D02*
X383858D01*
Y75197D02*
Y78347D01*
X377559Y75197D02*
Y78347D01*
X447244Y328031D02*
X454134D01*
X447244Y331811D02*
X454134D01*
Y328031D02*
Y331811D01*
X447244Y328031D02*
Y331811D01*
X428346Y331811D02*
X435236D01*
X428346Y328031D02*
X435236D01*
X428346D02*
Y331811D01*
X435236Y328031D02*
Y331811D01*
X371752Y154724D02*
X384941D01*
X371752Y160236D02*
X384941D01*
X371752Y154724D02*
Y160236D01*
X384941Y154724D02*
Y160236D01*
X360709Y171752D02*
Y178642D01*
X364488Y171752D02*
Y178642D01*
X360709Y171752D02*
X364488D01*
X360709Y178642D02*
X364488D01*
X364567Y154724D02*
Y161024D01*
X367717Y154724D02*
Y161024D01*
X364567Y154724D02*
X367717D01*
X364567Y161024D02*
X367717D01*
X395177Y158760D02*
Y165059D01*
X392028Y158760D02*
Y165059D01*
X395177D01*
X392028Y158760D02*
X395177D01*
X393504Y171063D02*
X399803D01*
X393504Y174213D02*
X399803D01*
Y171063D02*
Y174213D01*
X393504Y171063D02*
Y174213D01*
X385335Y204606D02*
X392224D01*
X385335Y208386D02*
X392224D01*
Y204606D02*
Y208386D01*
X385335Y204606D02*
Y208386D01*
X385630Y212402D02*
X391929D01*
X385630Y215551D02*
X391929D01*
Y212402D02*
Y215551D01*
X385630Y212402D02*
Y215551D01*
X410630Y200787D02*
Y207087D01*
X407480Y200787D02*
Y207087D01*
X410630D01*
X407480Y200787D02*
X410630D01*
X387795Y174803D02*
Y190157D01*
X368504D02*
X387795D01*
X368504Y174803D02*
Y190157D01*
Y174803D02*
X387795D01*
X362500Y208780D02*
X369390D01*
X362500Y205000D02*
X369390D01*
X362500D02*
Y208780D01*
X369390Y205000D02*
Y208780D01*
X357677Y200984D02*
Y207283D01*
X354528Y200984D02*
Y207283D01*
X357677D01*
X354528Y200984D02*
X357677D01*
X362697Y216339D02*
X368996D01*
X362697Y213189D02*
X368996D01*
X362697D02*
Y216339D01*
X368996Y213189D02*
Y216339D01*
X363538Y192677D02*
Y195826D01*
X357239Y192677D02*
Y195826D01*
Y192677D02*
X363538D01*
X357239Y195826D02*
X363538D01*
X393548Y192362D02*
Y195512D01*
X399848Y192362D02*
Y195512D01*
X393548D02*
X399848D01*
X393548Y192362D02*
X399848D01*
X447539Y339764D02*
X453839D01*
X447539Y342913D02*
X453839D01*
Y339764D02*
Y342913D01*
X447539Y339764D02*
Y342913D01*
X546457Y160236D02*
Y166535D01*
X549606Y160236D02*
Y166535D01*
X546457Y160236D02*
X549606D01*
X546457Y166535D02*
X549606D01*
X538268Y159941D02*
Y166831D01*
X542047Y159941D02*
Y166831D01*
X538268Y159941D02*
X542047D01*
X538268Y166831D02*
X542047D01*
X549606Y181102D02*
Y187402D01*
X546457Y181102D02*
Y187402D01*
X549606D01*
X546457Y181102D02*
X549606D01*
X542047Y180807D02*
Y187697D01*
X538268Y180807D02*
Y187697D01*
X542047D01*
X538268Y180807D02*
X542047D01*
X540945Y198819D02*
X547244D01*
X540945Y201969D02*
X547244D01*
Y198819D02*
Y201969D01*
X540945Y198819D02*
Y201969D01*
X529921Y188037D02*
X533071D01*
X529921Y194336D02*
X533071D01*
X529921Y188037D02*
Y194336D01*
X533071Y188037D02*
Y194336D01*
X509842Y151969D02*
Y158268D01*
X512992Y151969D02*
Y158268D01*
X509842Y151969D02*
X512992D01*
X509842Y158268D02*
X512992D01*
X496850Y156595D02*
X503150D01*
X496850Y159744D02*
X503150D01*
Y156595D02*
Y159744D01*
X496850Y156595D02*
Y159744D01*
X377559Y64567D02*
X383858D01*
X377559Y67716D02*
X383858D01*
Y64567D02*
Y67716D01*
X377559Y64567D02*
Y67716D01*
X530315Y159207D02*
X533465D01*
X530315Y152908D02*
X533465D01*
Y159207D01*
X530315Y152908D02*
Y159207D01*
X539764Y151969D02*
X546063D01*
X539764Y155118D02*
X546063D01*
Y151969D02*
Y155118D01*
X539764Y151969D02*
Y155118D01*
X512402Y163583D02*
X527756D01*
Y182874D01*
X512402D02*
X527756D01*
X512402Y163583D02*
Y182874D01*
X507972Y190472D02*
X514862D01*
X507972Y186693D02*
X514862D01*
X507972D02*
Y190472D01*
X514862Y186693D02*
Y190472D01*
X491043Y188189D02*
X497342D01*
X491043Y185039D02*
X497342D01*
X491043D02*
Y188189D01*
X497342Y185039D02*
Y188189D01*
X491732Y166634D02*
Y179823D01*
X497244Y166634D02*
Y179823D01*
X491732D02*
X497244D01*
X491732Y166634D02*
X497244D01*
X529134Y265748D02*
X535433D01*
X529134Y262598D02*
X535433D01*
X529134D02*
Y265748D01*
X535433Y262598D02*
Y265748D01*
X540945Y257328D02*
X544094D01*
X540945Y263627D02*
X544094D01*
X540945Y257328D02*
Y263627D01*
X544094Y257328D02*
Y263627D01*
X496161Y245276D02*
X502461D01*
X496161Y248425D02*
X502461D01*
Y245276D02*
Y248425D01*
X496161Y245276D02*
Y248425D01*
Y252362D02*
X502461D01*
X496161Y255512D02*
X502461D01*
Y252362D02*
Y255512D01*
X496161Y252362D02*
Y255512D01*
X496063Y262598D02*
X502362D01*
X496063Y259449D02*
X502362D01*
X496063D02*
Y262598D01*
X502362Y259449D02*
Y262598D01*
X496063Y237795D02*
X502362D01*
X496063Y240945D02*
X502362D01*
Y237795D02*
Y240945D01*
X496063Y237795D02*
Y240945D01*
X512205Y227559D02*
Y233858D01*
X515354Y227559D02*
Y233858D01*
X512205Y227559D02*
X515354D01*
X512205Y233858D02*
X515354D01*
X529232Y230787D02*
X536122D01*
X529232Y234567D02*
X536122D01*
Y230787D02*
Y234567D01*
X529232Y230787D02*
Y234567D01*
X550079Y242618D02*
Y249508D01*
X553858Y242618D02*
Y249508D01*
X550079Y242618D02*
X553858D01*
X550079Y249508D02*
X553858D01*
X542126Y249213D02*
X545276D01*
X542126Y242913D02*
X545276D01*
Y249213D01*
X542126Y242913D02*
Y249213D01*
X536221Y337795D02*
Y344094D01*
X533071Y337795D02*
Y344094D01*
X536221D01*
X533071Y337795D02*
X536221D01*
X541732Y347244D02*
X548032D01*
X541732Y344094D02*
X548032D01*
X541732D02*
Y347244D01*
X548032Y344094D02*
Y347244D01*
X541831Y340079D02*
X548721D01*
X541831Y336299D02*
X548721D01*
X541831D02*
Y340079D01*
X548721Y336299D02*
Y340079D01*
X377559Y53937D02*
X383858D01*
X377559Y57087D02*
X383858D01*
Y53937D02*
Y57087D01*
X377559Y53937D02*
Y57087D01*
X434941Y339764D02*
Y342913D01*
X428642Y339764D02*
Y342913D01*
Y339764D02*
X434941D01*
X428642Y342913D02*
X434941D01*
X565158Y310433D02*
Y325787D01*
X545866D02*
X565158D01*
X545866Y310433D02*
Y325787D01*
Y310433D02*
X565158D01*
X537874Y307677D02*
Y314567D01*
X541653Y307677D02*
Y314567D01*
X537874Y307677D02*
X541653D01*
X537874Y314567D02*
X541653D01*
X572047Y310630D02*
Y316929D01*
X568898Y310630D02*
Y316929D01*
X572047D01*
X568898Y310630D02*
X572047D01*
X570472Y303543D02*
X576772D01*
X570472Y300394D02*
X576772D01*
X570472D02*
Y303543D01*
X576772Y300394D02*
Y303543D01*
X556184Y290945D02*
Y297244D01*
X553034Y290945D02*
Y297244D01*
X556184D01*
X553034Y290945D02*
X556184D01*
X549474D02*
Y297244D01*
X546325Y290945D02*
Y297244D01*
X549474D01*
X546325Y290945D02*
X549474D01*
X539615D02*
Y297244D01*
X542765Y290945D02*
Y297244D01*
X539615Y290945D02*
X542765D01*
X539615Y297244D02*
X542765D01*
X520079Y307087D02*
X526378D01*
X520079Y310236D02*
X526378D01*
Y307087D02*
Y310236D01*
X520079Y307087D02*
Y310236D01*
X514173Y292126D02*
Y298425D01*
X511024Y292126D02*
Y298425D01*
X514173D01*
X511024Y292126D02*
X514173D01*
X506693Y292126D02*
Y298425D01*
X503543Y292126D02*
Y298425D01*
X506693D01*
X503543Y292126D02*
X506693D01*
X498836Y291732D02*
Y298031D01*
X495686Y291732D02*
Y298031D01*
X498836D01*
X495686Y291732D02*
X498836D01*
X488976D02*
Y298031D01*
X492126Y291732D02*
Y298031D01*
X488976Y291732D02*
X492126D01*
X488976Y298031D02*
X492126D01*
X486693Y309055D02*
Y315945D01*
X490472Y309055D02*
Y315945D01*
X486693Y309055D02*
X490472D01*
X486693Y315945D02*
X490472D01*
X490650Y341260D02*
X497539D01*
X490650Y337480D02*
X497539D01*
X490650D02*
Y341260D01*
X497539Y337480D02*
Y341260D01*
X490113Y329094D02*
Y332244D01*
X483814Y329094D02*
Y332244D01*
Y329094D02*
X490113D01*
X483814Y332244D02*
X490113D01*
X514567Y312008D02*
Y327362D01*
X495276D02*
X514567D01*
X495276Y312008D02*
Y327362D01*
Y312008D02*
X514567D01*
X490551Y348425D02*
X496850D01*
X490551Y345276D02*
X496850D01*
X490551D02*
Y348425D01*
X496850Y345276D02*
Y348425D01*
X485433Y339272D02*
Y345571D01*
X482283Y339272D02*
Y345571D01*
X485433D01*
X482283Y339272D02*
X485433D01*
X426334Y320827D02*
Y323976D01*
X420034Y320827D02*
Y323976D01*
Y320827D02*
X426334D01*
X420034Y323976D02*
X426334D01*
X463287Y328740D02*
Y335039D01*
X460138Y328740D02*
Y335039D01*
X463287D01*
X460138Y328740D02*
X463287D01*
X455950Y320906D02*
Y324055D01*
X462249Y320906D02*
Y324055D01*
X455950D02*
X462249D01*
X455950Y320906D02*
X462249D01*
X422146Y328740D02*
Y335039D01*
X418996Y328740D02*
Y335039D01*
X422146D01*
X418996Y328740D02*
X422146D01*
X457874Y60405D02*
Y66704D01*
X461024Y60405D02*
Y66704D01*
X457874Y60405D02*
X461024D01*
X457874Y66704D02*
X461024D01*
X467717Y60463D02*
Y66762D01*
X470866Y60463D02*
Y66762D01*
X467717Y60463D02*
X470866D01*
X467717Y66762D02*
X470866D01*
X455118Y283071D02*
Y289370D01*
X451968Y283071D02*
Y289370D01*
X455118D01*
X451968Y283071D02*
X455118D01*
X456693Y294882D02*
X462992D01*
X456693Y298031D02*
X462992D01*
Y294882D02*
Y298031D01*
X456693Y294882D02*
Y298031D01*
X409842Y294882D02*
X416142D01*
X409842Y298031D02*
X416142D01*
Y294882D02*
Y298031D01*
X409842Y294882D02*
Y298031D01*
X423701Y302067D02*
Y308957D01*
X427480Y302067D02*
Y308957D01*
X423701Y302067D02*
X427480D01*
X423701Y308957D02*
X427480D01*
X305118Y81102D02*
X311417D01*
X305118Y77953D02*
X311417D01*
X305118D02*
Y81102D01*
X311417Y77953D02*
Y81102D01*
X289075Y81417D02*
X295965D01*
X289075Y77638D02*
X295965D01*
X289075D02*
Y81417D01*
X295965Y77638D02*
Y81417D01*
X427559Y283071D02*
Y289370D01*
X430709Y283071D02*
Y289370D01*
X427559Y283071D02*
X430709D01*
X427559Y289370D02*
X430709D01*
X183465Y331102D02*
X186614D01*
X183465Y337402D02*
X186614D01*
X183465Y331102D02*
Y337402D01*
X186614Y331102D02*
Y337402D01*
X49606Y331890D02*
X52756D01*
X49606Y338189D02*
X52756D01*
X49606Y331890D02*
Y338189D01*
X52756Y331890D02*
Y338189D01*
X48774Y325945D02*
X55074D01*
X48774Y322795D02*
X55074D01*
X48774D02*
Y325945D01*
X55074Y322795D02*
Y325945D01*
X179572Y322874D02*
X185871D01*
X179572Y326024D02*
X185871D01*
Y322874D02*
Y326024D01*
X179572Y322874D02*
Y326024D01*
X179921Y296850D02*
X186221D01*
X179921Y300000D02*
X186221D01*
Y296850D02*
Y300000D01*
X179921Y296850D02*
Y300000D01*
X305118Y37402D02*
X311417D01*
X305118Y34252D02*
X311417D01*
X305118D02*
Y37402D01*
X311417Y34252D02*
Y37402D01*
X180315Y284646D02*
Y290945D01*
X177165Y284646D02*
Y290945D01*
X180315D01*
X177165Y284646D02*
X180315D01*
X174606Y304921D02*
Y320276D01*
X155315D02*
X174606D01*
X155315Y304921D02*
Y320276D01*
Y304921D02*
X174606D01*
X52441Y310138D02*
X56221D01*
X52441Y303248D02*
X56221D01*
Y310138D01*
X52441Y303248D02*
Y310138D01*
X80118Y305315D02*
Y320669D01*
X60827D02*
X80118D01*
X60827Y305315D02*
Y320669D01*
Y305315D02*
X80118D01*
X88189Y331496D02*
X91339D01*
X88189Y337795D02*
X91339D01*
X88189Y331496D02*
Y337795D01*
X91339Y331496D02*
Y337795D01*
X85871Y322874D02*
X92170D01*
X85871Y326024D02*
X92170D01*
Y322874D02*
Y326024D01*
X85871Y322874D02*
Y326024D01*
X171260Y341732D02*
X177559D01*
X171260Y344882D02*
X177559D01*
Y341732D02*
Y344882D01*
X171260Y341732D02*
Y344882D01*
X170965Y330000D02*
X177854D01*
X170965Y333780D02*
X177854D01*
Y330000D02*
Y333780D01*
X170965Y330000D02*
Y333780D01*
X143307Y331102D02*
X146457D01*
X143307Y337402D02*
X146457D01*
X143307Y331102D02*
Y337402D01*
X146457Y331102D02*
Y337402D01*
X143656Y325551D02*
X149956D01*
X143656Y322401D02*
X149956D01*
X143656D02*
Y325551D01*
X149956Y322401D02*
Y325551D01*
X147716Y309744D02*
X151496D01*
X147716Y302854D02*
X151496D01*
Y309744D01*
X147716Y302854D02*
Y309744D01*
X152362Y344882D02*
X158661D01*
X152362Y341732D02*
X158661D01*
X152362D02*
Y344882D01*
X158661Y341732D02*
Y344882D01*
X152067Y333780D02*
X158957D01*
X152067Y330000D02*
X158957D01*
X152067D02*
Y333780D01*
X158957Y330000D02*
Y333780D01*
X150394Y285039D02*
Y291339D01*
X153543Y285039D02*
Y291339D01*
X150394Y285039D02*
X153543D01*
X150394Y291339D02*
X153543D01*
X158366Y285039D02*
X171555D01*
X158366Y290551D02*
X171555D01*
X158366Y285039D02*
Y290551D01*
X171555Y285039D02*
Y290551D01*
X305118Y70079D02*
X311417D01*
X305118Y66929D02*
X311417D01*
X305118D02*
Y70079D01*
X311417Y66929D02*
Y70079D01*
X342520Y284646D02*
Y290945D01*
X339370Y284646D02*
Y290945D01*
X342520D01*
X339370Y284646D02*
X342520D01*
X305118Y48031D02*
X311417D01*
X305118Y44882D02*
X311417D01*
X305118D02*
Y48031D01*
X311417Y44882D02*
Y48031D01*
X289075Y70394D02*
X295965D01*
X289075Y66614D02*
X295965D01*
X289075D02*
Y70394D01*
X295965Y66614D02*
Y70394D01*
X289075Y48346D02*
X295965D01*
X289075Y44567D02*
X295965D01*
X289075D02*
Y48346D01*
X295965Y44567D02*
Y48346D01*
X334842Y284646D02*
Y290945D01*
X331693Y284646D02*
Y290945D01*
X334842D01*
X331693Y284646D02*
X334842D01*
X327559D02*
Y290945D01*
X324410Y284646D02*
Y290945D01*
X327559D01*
X324410Y284646D02*
X327559D01*
X316929D02*
Y290945D01*
X320079Y284646D02*
Y290945D01*
X316929Y284646D02*
X320079D01*
X316929Y290945D02*
X320079D01*
X375197Y329134D02*
Y335433D01*
X372047Y329134D02*
Y335433D01*
X375197D01*
X372047Y329134D02*
X375197D01*
X394882Y339764D02*
X401181D01*
X394882Y342913D02*
X401181D01*
Y339764D02*
Y342913D01*
X394882Y339764D02*
Y342913D01*
X394587Y328031D02*
X401476D01*
X394587Y331811D02*
X401476D01*
Y328031D02*
Y331811D01*
X394587Y328031D02*
Y331811D01*
X379483Y320827D02*
Y323976D01*
X373184Y320827D02*
Y323976D01*
Y320827D02*
X379483D01*
X373184Y323976D02*
X379483D01*
X392913Y282677D02*
Y288976D01*
X389764Y282677D02*
Y288976D01*
X392913D01*
X389764Y282677D02*
X392913D01*
X385827D02*
Y288976D01*
X382677Y282677D02*
Y288976D01*
X385827D01*
X382677Y282677D02*
X385827D01*
X375197D02*
Y288976D01*
X378346Y282677D02*
Y288976D01*
X375197Y282677D02*
X378346D01*
X375197Y288976D02*
X378346D01*
X375669Y300886D02*
Y307776D01*
X379449Y300886D02*
Y307776D01*
X375669Y300886D02*
X379449D01*
X375669Y307776D02*
X379449D01*
X404134Y302953D02*
Y318307D01*
X384842D02*
X404134D01*
X384842Y302953D02*
Y318307D01*
Y302953D02*
X404134D01*
X316535Y330709D02*
Y337008D01*
X313386Y330709D02*
Y337008D01*
X316535D01*
X313386Y330709D02*
X316535D01*
X318189Y302461D02*
Y309350D01*
X321969Y302461D02*
Y309350D01*
X318189Y302461D02*
X321969D01*
X318189Y309350D02*
X321969D01*
X342224Y330787D02*
X349114D01*
X342224Y334567D02*
X349114D01*
Y330787D02*
Y334567D01*
X342224Y330787D02*
Y334567D01*
X321609Y322795D02*
Y325945D01*
X315310Y322795D02*
Y325945D01*
Y322795D02*
X321609D01*
X315310Y325945D02*
X321609D01*
X342520Y342126D02*
X348819D01*
X342520Y345276D02*
X348819D01*
Y342126D02*
Y345276D01*
X342520Y342126D02*
Y345276D01*
X289075Y27087D02*
X295965D01*
X289075Y23307D02*
X295965D01*
X289075D02*
Y27087D01*
X295965Y23307D02*
Y27087D01*
X305118Y26772D02*
X311417D01*
X305118Y23622D02*
X311417D01*
X305118D02*
Y26772D01*
X311417Y23622D02*
Y26772D01*
X83858Y285039D02*
Y291339D01*
X80709Y285039D02*
Y291339D01*
X83858D01*
X80709Y285039D02*
X83858D01*
X86221Y297244D02*
X92520D01*
X86221Y300394D02*
X92520D01*
Y297244D02*
Y300394D01*
X86221Y297244D02*
Y300394D01*
X54724Y284941D02*
Y291240D01*
X57874Y284941D02*
Y291240D01*
X54724Y284941D02*
X57874D01*
X54724Y291240D02*
X57874D01*
X63878Y285433D02*
X77067D01*
X63878Y290945D02*
X77067D01*
X63878Y285433D02*
Y290945D01*
X77067Y285433D02*
Y290945D01*
X76772Y342126D02*
X83071D01*
X76772Y345276D02*
X83071D01*
Y342126D02*
Y345276D01*
X76772Y342126D02*
Y345276D01*
X76476Y330394D02*
X83366D01*
X76476Y334173D02*
X83366D01*
Y330394D02*
Y334173D01*
X76476Y330394D02*
Y334173D01*
X57874Y345276D02*
X64173D01*
X57874Y342126D02*
X64173D01*
X57874D02*
Y345276D01*
X64173Y342126D02*
Y345276D01*
X57579Y334173D02*
X64468D01*
X57579Y330394D02*
X64468D01*
X57579D02*
Y334173D01*
X64468Y330394D02*
Y334173D01*
X137106Y151181D02*
X150295D01*
X137106Y156693D02*
X150295D01*
X137106Y151181D02*
Y156693D01*
X150295Y151181D02*
Y156693D01*
X130315Y151181D02*
Y157480D01*
X133465Y151181D02*
Y157480D01*
X130315Y151181D02*
X133465D01*
X130315Y157480D02*
X133465D01*
X166535Y198425D02*
Y204724D01*
X163386Y198425D02*
Y204724D01*
X166535D01*
X163386Y198425D02*
X166535D01*
X151575Y208661D02*
X157874D01*
X151575Y211811D02*
X157874D01*
Y208661D02*
Y211811D01*
X151575Y208661D02*
Y211811D01*
X150886Y196535D02*
X157776D01*
X150886Y200315D02*
X157776D01*
Y196535D02*
Y200315D01*
X150886Y196535D02*
Y200315D01*
X158312Y189016D02*
Y192166D01*
X164611Y189016D02*
Y192166D01*
X158312D02*
X164611D01*
X158312Y189016D02*
X164611D01*
X129089Y188937D02*
Y192086D01*
X122790Y188937D02*
Y192086D01*
Y188937D02*
X129089D01*
X122790Y192086D02*
X129089D01*
X126457Y167815D02*
Y174705D01*
X130236Y167815D02*
Y174705D01*
X126457Y167815D02*
X130236D01*
X126457Y174705D02*
X130236D01*
X129232Y200315D02*
X136122D01*
X129232Y196535D02*
X136122D01*
X129232D02*
Y200315D01*
X136122Y196535D02*
Y200315D01*
X123622Y197638D02*
Y203937D01*
X120473Y197638D02*
Y203937D01*
X123622D01*
X120473Y197638D02*
X123622D01*
X129528Y211811D02*
X135827D01*
X129528Y208661D02*
X135827D01*
X129528D02*
Y211811D01*
X135827Y208661D02*
Y211811D01*
X540901Y327519D02*
Y330669D01*
X534601Y327519D02*
Y330669D01*
Y327519D02*
X540901D01*
X534601Y330669D02*
X540901D01*
X329528Y12992D02*
X359449D01*
X329528Y74410D02*
X359449D01*
Y12992D02*
Y74410D01*
X329528Y12992D02*
Y74410D01*
X400394Y282677D02*
Y288976D01*
X397244Y282677D02*
Y288976D01*
X400394D01*
X397244Y282677D02*
X400394D01*
X32972Y253839D02*
Y258760D01*
X25098Y253839D02*
Y258760D01*
Y253839D02*
X32972D01*
X25098Y258760D02*
X32972D01*
X345472Y304528D02*
Y319882D01*
X326181D02*
X345472D01*
X326181Y304528D02*
Y319882D01*
Y304528D02*
X345472D01*
X450984Y302953D02*
Y318307D01*
X431693D02*
X450984D01*
X431693Y302953D02*
Y318307D01*
Y302953D02*
X450984D01*
X351181Y296457D02*
Y299606D01*
X357480Y296457D02*
Y299606D01*
X351181D02*
X357480D01*
X351181Y296457D02*
X357480D01*
X516339Y239567D02*
Y258858D01*
X531693D01*
Y239567D02*
Y258858D01*
X516339Y239567D02*
X531693D01*
X291339Y198425D02*
X294488D01*
X291339Y204724D02*
X294488D01*
X291339Y198425D02*
Y204724D01*
X294488Y198425D02*
Y204724D01*
X57874Y55118D02*
X61024D01*
X57874Y48819D02*
X61024D01*
Y55118D01*
X57874Y48819D02*
Y55118D01*
X48720Y9843D02*
Y12992D01*
X42421Y9843D02*
Y12992D01*
Y9843D02*
X48720D01*
X42421Y12992D02*
X48720D01*
D90*
X64975Y42953D02*
D03*
X279936Y324449D02*
D03*
X239356Y324370D02*
D03*
X251167Y191693D02*
D03*
X292141Y191378D02*
D03*
X357663Y194252D02*
D03*
X399424Y193937D02*
D03*
X484237Y330669D02*
D03*
X420458Y322401D02*
D03*
X461826Y322481D02*
D03*
X49198Y324370D02*
D03*
X185448Y324449D02*
D03*
X91747Y324449D02*
D03*
X144080Y323976D02*
D03*
X373607Y322401D02*
D03*
X315734Y324370D02*
D03*
X164188Y190591D02*
D03*
X123214Y190512D02*
D03*
X535025Y329094D02*
D03*
D91*
X531496Y193912D02*
D03*
X531890Y153332D02*
D03*
X542519Y263204D02*
D03*
M02*
