G04*
G04 #@! TF.GenerationSoftware,Altium Limited,Altium Designer,19.1.9 (167)*
G04*
G04 Layer_Color=255*
%FSLAX25Y25*%
%MOIN*%
G70*
G01*
G75*
%ADD17R,0.07087X0.03150*%
%ADD18R,0.06299X0.01181*%
%ADD19O,0.06299X0.01181*%
%ADD20C,0.23622*%
%ADD21R,0.03347X0.03347*%
%ADD22R,0.01772X0.05158*%
%ADD23R,0.03937X0.03543*%
%ADD24R,0.03347X0.03347*%
%ADD25R,0.03150X0.03150*%
%ADD26R,0.03543X0.03937*%
%ADD27R,0.02362X0.03150*%
%ADD28R,0.03150X0.02362*%
%ADD29R,0.03150X0.03150*%
%ADD30O,0.01772X0.05512*%
%ADD31R,0.02520X0.02756*%
%ADD32R,0.01968X0.02756*%
%ADD33R,0.04921X0.11417*%
%ADD34R,0.03347X0.01378*%
%ADD35R,0.32284X0.12992*%
%ADD36R,0.04528X0.05512*%
%ADD37R,0.07284X0.05906*%
%ADD38R,0.05158X0.01772*%
%ADD39R,0.02756X0.02520*%
%ADD40R,0.02756X0.01968*%
%ADD41O,0.07677X0.02165*%
%ADD42R,0.07677X0.02165*%
%ADD49R,0.15748X0.10433*%
%ADD66R,0.10433X0.15748*%
%ADD82R,0.03937X0.03937*%
%ADD83R,0.03937X0.03937*%
%ADD87C,0.02756*%
%ADD88C,0.07087*%
%ADD89R,0.07087X0.07087*%
%ADD90C,0.08678*%
%ADD91R,0.08678X0.08678*%
%ADD92C,0.10630*%
%ADD93R,0.07087X0.07087*%
%ADD94C,0.06299*%
%ADD95R,0.06299X0.06299*%
%ADD96R,0.06299X0.06299*%
D17*
X492520Y31922D02*
D03*
Y93340D02*
D03*
D18*
X499606Y86253D02*
D03*
D19*
Y84284D02*
D03*
Y82316D02*
D03*
Y80347D02*
D03*
Y78379D02*
D03*
Y76410D02*
D03*
Y74442D02*
D03*
Y72473D02*
D03*
Y70505D02*
D03*
Y68536D02*
D03*
Y66568D02*
D03*
Y64599D02*
D03*
Y62631D02*
D03*
Y60662D02*
D03*
Y58694D02*
D03*
Y56725D02*
D03*
Y54757D02*
D03*
Y52788D02*
D03*
Y50820D02*
D03*
Y48851D02*
D03*
Y46883D02*
D03*
Y44914D02*
D03*
Y42946D02*
D03*
Y40977D02*
D03*
Y39009D02*
D03*
X485433D02*
D03*
Y40977D02*
D03*
Y42946D02*
D03*
Y44914D02*
D03*
Y46883D02*
D03*
Y48851D02*
D03*
Y50820D02*
D03*
Y52788D02*
D03*
Y54757D02*
D03*
Y56725D02*
D03*
Y58694D02*
D03*
Y60662D02*
D03*
Y62631D02*
D03*
Y64599D02*
D03*
Y66568D02*
D03*
Y68536D02*
D03*
Y70505D02*
D03*
Y72473D02*
D03*
Y74442D02*
D03*
Y76410D02*
D03*
Y78379D02*
D03*
Y80347D02*
D03*
Y82316D02*
D03*
Y84284D02*
D03*
Y86253D02*
D03*
D20*
X470866Y111876D02*
D03*
X588976Y111811D02*
D03*
Y12992D02*
D03*
X470866Y13386D02*
D03*
D21*
X511417Y152067D02*
D03*
Y158169D02*
D03*
X478150Y342815D02*
D03*
Y336713D02*
D03*
X515354Y297146D02*
D03*
Y291043D02*
D03*
X505118Y297146D02*
D03*
Y291043D02*
D03*
X497441Y297146D02*
D03*
Y291043D02*
D03*
X489764D02*
D03*
Y297146D02*
D03*
X280315Y337697D02*
D03*
Y331594D02*
D03*
X238583Y337697D02*
D03*
Y331594D02*
D03*
X522047Y52461D02*
D03*
Y58563D02*
D03*
X246850Y285138D02*
D03*
Y291240D02*
D03*
X272047Y290846D02*
D03*
Y284744D02*
D03*
X533071Y52461D02*
D03*
Y58563D02*
D03*
X171653Y71555D02*
D03*
Y65453D02*
D03*
X250787Y71555D02*
D03*
Y65453D02*
D03*
X230315Y204626D02*
D03*
Y198524D02*
D03*
X265354Y158563D02*
D03*
Y152461D02*
D03*
X240945D02*
D03*
Y158563D02*
D03*
X142913Y157382D02*
D03*
Y151279D02*
D03*
X74410Y183563D02*
D03*
Y189665D02*
D03*
Y169390D02*
D03*
Y175492D02*
D03*
X422441Y152461D02*
D03*
Y158563D02*
D03*
X447638D02*
D03*
Y152461D02*
D03*
X465354Y207382D02*
D03*
Y201279D02*
D03*
X412402Y207579D02*
D03*
Y201476D02*
D03*
X548032Y160335D02*
D03*
Y166437D02*
D03*
Y187303D02*
D03*
Y181201D02*
D03*
X513779Y227658D02*
D03*
Y233760D02*
D03*
X543701Y249114D02*
D03*
Y243012D02*
D03*
X534646Y343996D02*
D03*
Y337894D02*
D03*
X570472Y316831D02*
D03*
Y310728D02*
D03*
X554609Y297146D02*
D03*
Y291043D02*
D03*
X547900Y297146D02*
D03*
Y291043D02*
D03*
X541190D02*
D03*
Y297146D02*
D03*
X368898Y158563D02*
D03*
Y152461D02*
D03*
X361417Y158563D02*
D03*
Y152461D02*
D03*
X353543Y158563D02*
D03*
Y152461D02*
D03*
X346850D02*
D03*
Y158563D02*
D03*
X340354Y210531D02*
D03*
Y204429D02*
D03*
X461713Y334941D02*
D03*
Y328839D02*
D03*
X420571Y334941D02*
D03*
Y328839D02*
D03*
X457874Y63878D02*
D03*
Y69980D02*
D03*
X465354Y63878D02*
D03*
Y69980D02*
D03*
X453543Y289272D02*
D03*
Y283169D02*
D03*
X429134D02*
D03*
Y289272D02*
D03*
X185039Y331201D02*
D03*
Y337303D02*
D03*
X51181Y331988D02*
D03*
Y338090D02*
D03*
X178740Y290846D02*
D03*
Y284744D02*
D03*
X89764Y331594D02*
D03*
Y337697D02*
D03*
X144882Y331201D02*
D03*
Y337303D02*
D03*
X151969Y285138D02*
D03*
Y291240D02*
D03*
X340945Y290846D02*
D03*
Y284744D02*
D03*
X333268Y290846D02*
D03*
Y284744D02*
D03*
X325984Y290846D02*
D03*
Y284744D02*
D03*
X318504D02*
D03*
Y290846D02*
D03*
X373622Y335335D02*
D03*
Y329232D02*
D03*
X391339Y288878D02*
D03*
Y282776D02*
D03*
X384252Y288878D02*
D03*
Y282776D02*
D03*
X376772D02*
D03*
Y288878D02*
D03*
X314961Y336910D02*
D03*
Y330807D02*
D03*
X82284Y291240D02*
D03*
Y285138D02*
D03*
X56299Y285039D02*
D03*
Y291142D02*
D03*
X117323Y151279D02*
D03*
Y157382D02*
D03*
X150394Y204626D02*
D03*
Y198524D02*
D03*
X107480Y203839D02*
D03*
Y197736D02*
D03*
X398819Y288878D02*
D03*
Y282776D02*
D03*
X273622Y198524D02*
D03*
Y204626D02*
D03*
D22*
X353740Y190354D02*
D03*
X356299D02*
D03*
X358858D02*
D03*
X361417D02*
D03*
X363976D02*
D03*
X366535D02*
D03*
X369094D02*
D03*
Y167913D02*
D03*
X366535D02*
D03*
X363976D02*
D03*
X361417D02*
D03*
X358858D02*
D03*
X356299D02*
D03*
X353740D02*
D03*
X492323Y329331D02*
D03*
X494882D02*
D03*
X497441D02*
D03*
X500000D02*
D03*
X502559D02*
D03*
X505118D02*
D03*
X507677D02*
D03*
Y306890D02*
D03*
X505118D02*
D03*
X502559D02*
D03*
X500000D02*
D03*
X497441D02*
D03*
X494882D02*
D03*
X492323D02*
D03*
X251772Y301378D02*
D03*
X254331D02*
D03*
X256890D02*
D03*
X259449D02*
D03*
X262008D02*
D03*
X264567D02*
D03*
X267126D02*
D03*
Y323819D02*
D03*
X264567D02*
D03*
X262008D02*
D03*
X259449D02*
D03*
X256890D02*
D03*
X254331D02*
D03*
X251772D02*
D03*
X245079Y167913D02*
D03*
X247638D02*
D03*
X250197D02*
D03*
X252756D02*
D03*
X255315D02*
D03*
X257874D02*
D03*
X260433D02*
D03*
Y190354D02*
D03*
X257874D02*
D03*
X255315D02*
D03*
X252756D02*
D03*
X250197D02*
D03*
X247638D02*
D03*
X245079D02*
D03*
X121457Y167913D02*
D03*
X124016D02*
D03*
X126575D02*
D03*
X129134D02*
D03*
X131693D02*
D03*
X134252D02*
D03*
X136811D02*
D03*
Y190354D02*
D03*
X134252D02*
D03*
X131693D02*
D03*
X129134D02*
D03*
X126575D02*
D03*
X124016D02*
D03*
X121457D02*
D03*
X426575Y168225D02*
D03*
X429134D02*
D03*
X431693D02*
D03*
X434252D02*
D03*
X436811D02*
D03*
X439370D02*
D03*
X441929D02*
D03*
Y190666D02*
D03*
X439370D02*
D03*
X436811D02*
D03*
X434252D02*
D03*
X431693D02*
D03*
X429134D02*
D03*
X426575D02*
D03*
X547835Y306890D02*
D03*
X550394D02*
D03*
X552953D02*
D03*
X555512D02*
D03*
X558071D02*
D03*
X560630D02*
D03*
X563189D02*
D03*
Y329331D02*
D03*
X560630D02*
D03*
X558071D02*
D03*
X555512D02*
D03*
X552953D02*
D03*
X550394D02*
D03*
X547835D02*
D03*
X157283Y301378D02*
D03*
X159843D02*
D03*
X162401D02*
D03*
X164961D02*
D03*
X167520D02*
D03*
X170079D02*
D03*
X172638D02*
D03*
Y323819D02*
D03*
X170079D02*
D03*
X167520D02*
D03*
X164961D02*
D03*
X162401D02*
D03*
X159843D02*
D03*
X157283D02*
D03*
X62795Y301772D02*
D03*
X65354D02*
D03*
X67913D02*
D03*
X70472D02*
D03*
X73032D02*
D03*
X75590D02*
D03*
X78150D02*
D03*
Y324213D02*
D03*
X75590D02*
D03*
X73032D02*
D03*
X70472D02*
D03*
X67913D02*
D03*
X65354D02*
D03*
X62795D02*
D03*
X386811Y299410D02*
D03*
X389370D02*
D03*
X391929D02*
D03*
X394488D02*
D03*
X397047D02*
D03*
X399606D02*
D03*
X402165D02*
D03*
Y321850D02*
D03*
X399606D02*
D03*
X397047D02*
D03*
X394488D02*
D03*
X391929D02*
D03*
X389370D02*
D03*
X386811D02*
D03*
X328150Y300984D02*
D03*
X330709D02*
D03*
X333268D02*
D03*
X335827D02*
D03*
X338386D02*
D03*
X340945D02*
D03*
X343504D02*
D03*
Y323425D02*
D03*
X340945D02*
D03*
X338386D02*
D03*
X335827D02*
D03*
X333268D02*
D03*
X330709D02*
D03*
X328150D02*
D03*
X433661Y299410D02*
D03*
X436221D02*
D03*
X438779D02*
D03*
X441339D02*
D03*
X443898D02*
D03*
X446457D02*
D03*
X449016D02*
D03*
Y321850D02*
D03*
X446457D02*
D03*
X443898D02*
D03*
X441339D02*
D03*
X438779D02*
D03*
X436221D02*
D03*
X433661D02*
D03*
D23*
X484252Y312205D02*
D03*
Y306890D02*
D03*
X250787Y53248D02*
D03*
Y58563D02*
D03*
X171653Y53248D02*
D03*
Y58563D02*
D03*
X237008Y169685D02*
D03*
Y175000D02*
D03*
X243701Y308957D02*
D03*
Y303642D02*
D03*
X418898Y172933D02*
D03*
Y178248D02*
D03*
X540158Y160728D02*
D03*
Y166043D02*
D03*
Y186909D02*
D03*
Y181595D02*
D03*
X551968Y243406D02*
D03*
Y248721D02*
D03*
X344488Y174508D02*
D03*
Y179823D02*
D03*
X540354Y309941D02*
D03*
Y315256D02*
D03*
X425591Y302854D02*
D03*
Y308169D02*
D03*
X54331Y309350D02*
D03*
Y304035D02*
D03*
X149606Y308957D02*
D03*
Y303642D02*
D03*
X377559Y301673D02*
D03*
Y306988D02*
D03*
X320079Y303248D02*
D03*
Y308563D02*
D03*
X113779Y168602D02*
D03*
Y173917D02*
D03*
D24*
X274705Y168504D02*
D03*
X268602D02*
D03*
X150689Y167717D02*
D03*
X144587D02*
D03*
X92028Y298819D02*
D03*
X85925D02*
D03*
X463287Y296457D02*
D03*
X457185D02*
D03*
X186122Y297638D02*
D03*
X180020D02*
D03*
X383760Y59055D02*
D03*
X377658D02*
D03*
X504232Y338148D02*
D03*
X498130D02*
D03*
X522342Y306890D02*
D03*
X516240D02*
D03*
X456201Y168504D02*
D03*
X450098D02*
D03*
X280610Y298425D02*
D03*
X274508D02*
D03*
X271949Y331890D02*
D03*
X265846D02*
D03*
X246949D02*
D03*
X253051D02*
D03*
X377378Y36614D02*
D03*
X383480D02*
D03*
X75886Y161024D02*
D03*
X69784D02*
D03*
X266437Y213779D02*
D03*
X260335D02*
D03*
X237500D02*
D03*
X243602D02*
D03*
X383760Y48031D02*
D03*
X377658D02*
D03*
X305217Y14173D02*
D03*
X311319D02*
D03*
X305217Y57480D02*
D03*
X311319D02*
D03*
X305217Y90551D02*
D03*
X311319D02*
D03*
X383760Y79921D02*
D03*
X377658D02*
D03*
X448130Y214370D02*
D03*
X442028D02*
D03*
X419095Y215158D02*
D03*
X425197D02*
D03*
X453740Y341339D02*
D03*
X447638D02*
D03*
X547146Y200394D02*
D03*
X541043D02*
D03*
X503051Y158169D02*
D03*
X496949D02*
D03*
X383760Y69291D02*
D03*
X377658D02*
D03*
X545965Y153543D02*
D03*
X539862D02*
D03*
X491142Y186614D02*
D03*
X497244D02*
D03*
X529232Y264173D02*
D03*
X535335D02*
D03*
X502362Y246850D02*
D03*
X496260D02*
D03*
X502362Y253937D02*
D03*
X496260D02*
D03*
X496161Y261024D02*
D03*
X502264D02*
D03*
X502264Y239370D02*
D03*
X496161D02*
D03*
X541831Y345669D02*
D03*
X547933D02*
D03*
X383480Y25413D02*
D03*
X377378D02*
D03*
X434842Y341339D02*
D03*
X428740D02*
D03*
X570571Y301969D02*
D03*
X576673D02*
D03*
X382579Y168504D02*
D03*
X376476D02*
D03*
X346966Y210343D02*
D03*
X353068D02*
D03*
X416043Y296457D02*
D03*
X409941D02*
D03*
X305217Y79528D02*
D03*
X311319D02*
D03*
X305217Y35827D02*
D03*
X311319D02*
D03*
X177461Y343307D02*
D03*
X171358D02*
D03*
X152461D02*
D03*
X158563D02*
D03*
X305217Y68504D02*
D03*
X311319D02*
D03*
X305217Y46457D02*
D03*
X311319D02*
D03*
X401083Y341339D02*
D03*
X394980D02*
D03*
X348721Y343701D02*
D03*
X342618D02*
D03*
X305217Y25197D02*
D03*
X311319D02*
D03*
X82972Y343701D02*
D03*
X76870D02*
D03*
X57972D02*
D03*
X64075D02*
D03*
X143209Y210236D02*
D03*
X137106D02*
D03*
X115059D02*
D03*
X121161D02*
D03*
X351279Y298031D02*
D03*
X357382D02*
D03*
X91969Y107480D02*
D03*
X98071D02*
D03*
D25*
X478150Y329291D02*
D03*
X484055D02*
D03*
X280118Y324449D02*
D03*
X274213D02*
D03*
X239173Y324370D02*
D03*
X245079D02*
D03*
X237598Y191693D02*
D03*
X231693D02*
D03*
X267126Y191378D02*
D03*
X273031D02*
D03*
X419685Y194646D02*
D03*
X413779D02*
D03*
X450000Y194331D02*
D03*
X455905D02*
D03*
X346260Y194161D02*
D03*
X340354D02*
D03*
X426181Y322402D02*
D03*
X420276D02*
D03*
X456102Y322480D02*
D03*
X462008D02*
D03*
X49016Y324370D02*
D03*
X54921D02*
D03*
X185630Y324449D02*
D03*
X179724D02*
D03*
X91929D02*
D03*
X86024D02*
D03*
X143898Y323976D02*
D03*
X149803D02*
D03*
X379331Y322402D02*
D03*
X373425D02*
D03*
X321457Y324370D02*
D03*
X315551D02*
D03*
X143898Y190591D02*
D03*
X149803D02*
D03*
X114370Y190512D02*
D03*
X108465D02*
D03*
X540748Y329095D02*
D03*
X534842D02*
D03*
D26*
X394587Y59055D02*
D03*
X399902D02*
D03*
X498130Y345054D02*
D03*
X503445D02*
D03*
X356004Y79528D02*
D03*
X361319D02*
D03*
X44783Y165748D02*
D03*
X39469D02*
D03*
X31693Y256299D02*
D03*
X26378D02*
D03*
X58858Y200787D02*
D03*
X53543D02*
D03*
X271555Y343307D02*
D03*
X266240D02*
D03*
X247342D02*
D03*
X252658D02*
D03*
X394587Y36614D02*
D03*
X399902D02*
D03*
X265650Y200787D02*
D03*
X260335D02*
D03*
X237894D02*
D03*
X243209D02*
D03*
X399902Y48031D02*
D03*
X394587D02*
D03*
X399902Y79921D02*
D03*
X394587D02*
D03*
X399902Y69291D02*
D03*
X394587D02*
D03*
X399622Y25413D02*
D03*
X394307D02*
D03*
X289862Y14173D02*
D03*
X295177D02*
D03*
X289862Y35827D02*
D03*
X295177D02*
D03*
X295177Y57480D02*
D03*
X289862D02*
D03*
Y90551D02*
D03*
X295177D02*
D03*
X453346Y329921D02*
D03*
X448032D02*
D03*
X429134D02*
D03*
X434449D02*
D03*
X447736Y206890D02*
D03*
X442421D02*
D03*
X419587Y207283D02*
D03*
X424902D02*
D03*
X508760Y188583D02*
D03*
X514075D02*
D03*
X535335Y232677D02*
D03*
X530020D02*
D03*
X542618Y338189D02*
D03*
X547933D02*
D03*
X347736Y202862D02*
D03*
X353051D02*
D03*
X289862Y79528D02*
D03*
X295177D02*
D03*
X177067Y331890D02*
D03*
X171752D02*
D03*
X152854D02*
D03*
X158169D02*
D03*
X289862Y68504D02*
D03*
X295177D02*
D03*
X289862Y46457D02*
D03*
X295177D02*
D03*
X400689Y329921D02*
D03*
X395374D02*
D03*
X348327Y332677D02*
D03*
X343012D02*
D03*
X289862Y25197D02*
D03*
X295177D02*
D03*
X82579Y332283D02*
D03*
X77264D02*
D03*
X58366D02*
D03*
X63681D02*
D03*
X142421Y198425D02*
D03*
X137106D02*
D03*
X115453D02*
D03*
X120768D02*
D03*
D27*
X525197Y299213D02*
D03*
Y289764D02*
D03*
X408661Y280315D02*
D03*
Y289764D02*
D03*
X285433Y291732D02*
D03*
Y282283D02*
D03*
X378346Y161024D02*
D03*
Y151575D02*
D03*
X456693Y162992D02*
D03*
Y153543D02*
D03*
X586258Y312449D02*
D03*
Y303000D02*
D03*
X192232Y291732D02*
D03*
Y282283D02*
D03*
X96850Y292126D02*
D03*
Y282677D02*
D03*
X274803Y161024D02*
D03*
Y151575D02*
D03*
X151575Y160236D02*
D03*
Y150787D02*
D03*
X462992Y289764D02*
D03*
Y280315D02*
D03*
X350787Y291339D02*
D03*
Y281890D02*
D03*
D28*
X505512Y230331D02*
D03*
X496063D02*
D03*
X505102Y149479D02*
D03*
X495653D02*
D03*
D29*
X98071Y100591D02*
D03*
Y94685D02*
D03*
X531496Y188189D02*
D03*
Y194095D02*
D03*
X531890Y159055D02*
D03*
Y153150D02*
D03*
X542520Y257480D02*
D03*
Y263386D02*
D03*
D30*
X135297Y51378D02*
D03*
X137856D02*
D03*
X140415D02*
D03*
X142974D02*
D03*
X145534D02*
D03*
X148092D02*
D03*
X150652D02*
D03*
X153211D02*
D03*
X155770D02*
D03*
X158329D02*
D03*
X160888D02*
D03*
X163447D02*
D03*
X135297Y74606D02*
D03*
X137856D02*
D03*
X140415D02*
D03*
X142974D02*
D03*
X145534D02*
D03*
X148092D02*
D03*
X150652D02*
D03*
X153211D02*
D03*
X155770D02*
D03*
X158329D02*
D03*
X160888D02*
D03*
X163447D02*
D03*
X214272Y51378D02*
D03*
X216831D02*
D03*
X219390D02*
D03*
X221949D02*
D03*
X224508D02*
D03*
X227067D02*
D03*
X229626D02*
D03*
X232185D02*
D03*
X234744D02*
D03*
X237303D02*
D03*
X239862D02*
D03*
X242421D02*
D03*
X214272Y74606D02*
D03*
X216831D02*
D03*
X219390D02*
D03*
X221949D02*
D03*
X224508D02*
D03*
X227067D02*
D03*
X229626D02*
D03*
X232185D02*
D03*
X234744D02*
D03*
X237303D02*
D03*
X239862D02*
D03*
X242421D02*
D03*
D31*
X446378Y288583D02*
D03*
X436299D02*
D03*
X446378Y283071D02*
D03*
X436299D02*
D03*
X264488Y290551D02*
D03*
X254410D02*
D03*
X264488Y285039D02*
D03*
X254410D02*
D03*
X247716Y152362D02*
D03*
X257795D02*
D03*
X247716Y157874D02*
D03*
X257795D02*
D03*
X429606Y151575D02*
D03*
X439685D02*
D03*
X429606Y157087D02*
D03*
X439685D02*
D03*
X159921Y285039D02*
D03*
X170000D02*
D03*
X159921Y290551D02*
D03*
X170000D02*
D03*
X65433Y285433D02*
D03*
X75512D02*
D03*
X65433Y290945D02*
D03*
X75512D02*
D03*
X124094Y151181D02*
D03*
X134173D02*
D03*
X124094Y156693D02*
D03*
X134173D02*
D03*
D32*
X442913Y288583D02*
D03*
X439764D02*
D03*
X442913Y283071D02*
D03*
X439764D02*
D03*
X261024Y290551D02*
D03*
X257874D02*
D03*
X261024Y285039D02*
D03*
X257874D02*
D03*
X251181Y152362D02*
D03*
X254331D02*
D03*
X251181Y157874D02*
D03*
X254331D02*
D03*
X433071Y151575D02*
D03*
X436221D02*
D03*
X433071Y157087D02*
D03*
X436221D02*
D03*
X163386Y285039D02*
D03*
X166535D02*
D03*
X163386Y290551D02*
D03*
X166535D02*
D03*
X68898Y285433D02*
D03*
X72047D02*
D03*
X68898Y290945D02*
D03*
X72047D02*
D03*
X127559Y151181D02*
D03*
X130709D02*
D03*
X127559Y156693D02*
D03*
X130709D02*
D03*
D33*
X32382Y242913D02*
D03*
X18799D02*
D03*
Y225197D02*
D03*
X32382D02*
D03*
D34*
X65059Y191142D02*
D03*
Y187402D02*
D03*
Y183661D02*
D03*
X56201D02*
D03*
Y187402D02*
D03*
Y191142D02*
D03*
D35*
X26772Y188583D02*
D03*
Y207087D02*
D03*
D36*
X522146Y66421D02*
D03*
X529035D02*
D03*
X45571Y174426D02*
D03*
X38681D02*
D03*
D37*
X56201Y174508D02*
D03*
Y164075D02*
D03*
D38*
X508858Y180905D02*
D03*
Y178347D02*
D03*
Y175787D02*
D03*
Y173228D02*
D03*
Y170669D02*
D03*
Y168110D02*
D03*
Y165551D02*
D03*
X531299D02*
D03*
Y168110D02*
D03*
Y170669D02*
D03*
Y173228D02*
D03*
Y175787D02*
D03*
Y178347D02*
D03*
Y180905D02*
D03*
X535236Y256890D02*
D03*
Y254331D02*
D03*
Y251772D02*
D03*
Y249213D02*
D03*
Y246654D02*
D03*
Y244094D02*
D03*
Y241535D02*
D03*
X512795D02*
D03*
Y244094D02*
D03*
Y246654D02*
D03*
Y249213D02*
D03*
Y251772D02*
D03*
Y254331D02*
D03*
Y256890D02*
D03*
D39*
X491732Y178268D02*
D03*
Y168189D02*
D03*
X497244Y178268D02*
D03*
Y168189D02*
D03*
D40*
X491732Y174803D02*
D03*
Y171653D02*
D03*
X497244Y174803D02*
D03*
Y171653D02*
D03*
D41*
X362992Y16184D02*
D03*
Y21184D02*
D03*
Y26184D02*
D03*
Y31184D02*
D03*
Y36184D02*
D03*
Y41184D02*
D03*
Y46184D02*
D03*
Y51184D02*
D03*
Y56184D02*
D03*
Y61184D02*
D03*
Y66184D02*
D03*
Y71184D02*
D03*
X325984Y16184D02*
D03*
Y21184D02*
D03*
Y26184D02*
D03*
Y31184D02*
D03*
Y36184D02*
D03*
Y41184D02*
D03*
Y46184D02*
D03*
Y51184D02*
D03*
Y56184D02*
D03*
Y61184D02*
D03*
Y66184D02*
D03*
D42*
Y71184D02*
D03*
D49*
X361417Y179134D02*
D03*
X500000Y318110D02*
D03*
X259449Y312598D02*
D03*
X252756Y179134D02*
D03*
X129134Y179134D02*
D03*
X434252Y179446D02*
D03*
X555512Y318110D02*
D03*
X164961Y312598D02*
D03*
X70472Y312992D02*
D03*
X394488Y310630D02*
D03*
X335827Y312205D02*
D03*
X441339Y310630D02*
D03*
D66*
X520079Y173228D02*
D03*
X524016Y249213D02*
D03*
D82*
X110630Y101969D02*
D03*
Y91732D02*
D03*
D83*
X192126Y33858D02*
D03*
X183465D02*
D03*
D87*
X486614Y34875D02*
D03*
Y90387D02*
D03*
D88*
X511417Y377323D02*
D03*
X487795D02*
D03*
X499606Y373622D02*
D03*
X583858Y137795D02*
D03*
Y161417D02*
D03*
X580158Y149606D02*
D03*
X584016Y182283D02*
D03*
Y205906D02*
D03*
X580315Y194095D02*
D03*
X283071Y375590D02*
D03*
X271260Y379291D02*
D03*
X294882D02*
D03*
X235827Y375590D02*
D03*
X224016Y379291D02*
D03*
X247638D02*
D03*
X105905Y379685D02*
D03*
X82284D02*
D03*
X94095Y375984D02*
D03*
X58661Y379685D02*
D03*
X35039D02*
D03*
X46850Y375984D02*
D03*
X200394Y379291D02*
D03*
X176772D02*
D03*
X188583Y375590D02*
D03*
X153150Y379291D02*
D03*
X129528D02*
D03*
X141339Y375590D02*
D03*
X137795Y235039D02*
D03*
X149606Y243307D02*
D03*
X161417D02*
D03*
X185039Y235039D02*
D03*
X72835D02*
D03*
X84646Y243307D02*
D03*
X96457D02*
D03*
X120079Y235039D02*
D03*
X203543D02*
D03*
X215354Y243307D02*
D03*
X227165D02*
D03*
X250787Y235039D02*
D03*
X262598D02*
D03*
X274409Y243307D02*
D03*
X286221D02*
D03*
X309842Y235039D02*
D03*
X450394Y378898D02*
D03*
X403150D02*
D03*
X426772Y363386D02*
D03*
X414961D02*
D03*
X438583Y375197D02*
D03*
X426772D02*
D03*
X414961D02*
D03*
X417323Y245276D02*
D03*
X405512Y248976D02*
D03*
X429134D02*
D03*
X548032Y373622D02*
D03*
X536221Y377323D02*
D03*
X559842D02*
D03*
X459449Y245276D02*
D03*
X447638Y248976D02*
D03*
X471260D02*
D03*
D89*
X499606Y361811D02*
D03*
X283071Y363779D02*
D03*
X235827D02*
D03*
X94095Y364173D02*
D03*
X46850D02*
D03*
X188583Y363779D02*
D03*
X141339D02*
D03*
X438583Y363386D02*
D03*
X417323Y233465D02*
D03*
X548032Y361811D02*
D03*
X459449Y233465D02*
D03*
D90*
X57087Y87008D02*
D03*
D91*
Y124528D02*
D03*
D92*
X379921Y381102D02*
D03*
X301181Y196850D02*
D03*
X13386Y381102D02*
D03*
X588976D02*
D03*
X470866Y111811D02*
D03*
X588976D02*
D03*
X470866Y13386D02*
D03*
X13386Y13386D02*
D03*
X588976D02*
D03*
D93*
X568347Y149606D02*
D03*
X568504Y194095D02*
D03*
D94*
X573622Y262598D02*
D03*
Y250787D02*
D03*
X585433D02*
D03*
X354724Y226772D02*
D03*
X366535D02*
D03*
Y238583D02*
D03*
X342126Y375197D02*
D03*
Y363386D02*
D03*
X330315D02*
D03*
D95*
X585433Y262598D02*
D03*
X173228Y243307D02*
D03*
X108268D02*
D03*
X238976D02*
D03*
X298031D02*
D03*
D96*
X354724Y238583D02*
D03*
X330315Y375197D02*
D03*
M02*
