M48
;Layer_Color=9474304
;FILE_FORMAT=2:5
INCH,TZ
;TYPE=PLATED
T1F00S00C0.00787
T2F00S00C0.01181
T3F00S00C0.02756
T4F00S00C0.03346
T5F00S00C0.03937
T6F00S00C0.03937
T7F00S00C0.04016
T8F00S00C0.04016
T9F00S00C0.05118
T10F00S00C0.09055
T11F00S00C0.10630
T12F00S00C0.10827
%
T01
X77953Y236416
Y240747
X82284
Y236416
X86615
Y240747
T02
X9625Y42323
X9843Y55118
X5010Y53786
X23622Y55118
Y48031
X24016Y42323
Y38387
X49016Y39370
X54232Y33465
Y28605
X49016Y22404
X77165Y21654
X82703Y26476
X77165Y32180
Y34843
Y37802
X82677Y40945
X71017Y43012
X61586Y47725
X45276Y51968
X46555Y56890
X33957Y57086
X92315Y48327
X154823Y44980
Y69980
X216220Y95276
X233240Y141656
X238583Y171260
Y182148
X206693Y167323
X182678Y162992
X161811Y167323
X147621Y182041
X137106Y162992
X122835Y176772
X191932Y182035
X80123Y181495
X77588Y183925
X77422Y179097
X71653Y179133
X69445Y181495
X71654Y183925
X69685Y187795
X66535Y188189
X65808Y195229
X67604Y198071
X67617Y201433
Y204796
Y208158
Y211520
X60677Y209847
Y213209
X59646Y204329
X53543
X44685Y203178
Y206298
X37008Y204329
X46850Y196850
X49212
X48031Y194488
X45669
X40256Y185623
X32672
X25630Y175005
X56595Y187886
X74410Y192520
X74016Y195669
X69678Y163992
X67789Y161693
X69678Y159192
X79343Y159192
X81423Y161693
X79343Y163878
X54593Y111384
X52362Y113386
X50000Y115508
X47638Y117717
X40945Y100787
Y94390
X33786Y79353
X35428Y76805
X33858Y73819
X28740Y80315
X28740Y82674
X23739Y62992
X5969Y64960
X51220Y66535
X51121Y71063
X60630Y91339
X70866Y88189
X77953Y82677
Y79724
Y76963
X82734Y71063
X82677Y85827
X92346Y92650
X5394Y138073
X5369Y242953
X51987Y247262
X60677Y246831
Y243469
Y240107
Y236744
Y233382
Y230020
Y226658
Y223296
Y219934
Y216571
X67617Y218244
Y214882
Y221606
Y224969
Y228331
Y231693
Y235055
Y238418
Y241780
Y245142
Y248504
X66611Y251712
X64233Y254089
X61656Y256248
X57002Y256418
X53640
X50278
X46916
X51673Y227558
X54626Y219881
X48819Y216535
X84353Y217609
X92146Y214758
X91732Y226772
X92053Y250196
X98975Y232774
X97638Y217609
X198031Y251871
X209802Y240611
X214764
T03
X15748Y31299
Y86811
T04
X53119Y57579
X63119
X73119
X83119
X93119
X93150Y101969
X83150
X73150
X63150
X53150
T05
X29605Y267323
T06
X29605Y277323
X39605
Y267323
X49605
Y277323
X59605
Y267323
X69605
Y277323
X79605
Y267323
X89605
Y277323
X99605
Y267323
X109605
Y277323
X119605
Y267323
X129605
Y277323
X139605
Y267323
X149605
Y277323
X159605
Y267323
X169605
Y277323
X179605
Y267323
X189605
Y277323
X199605
Y267323
X209605
Y277323
X219605
Y267323
T07
X60731Y173228
X74511
T08
X107483Y133465
X119294
Y145276
X107483
X131105Y148976
X140554
X152365Y145276
Y133465
X164176
Y145276
X175987Y148976
X185436
X197247Y145276
Y133465
X209058
Y145276
X220869Y148976
X220863Y184490
X209052Y188190
Y200001
X197241
Y188190
X185430Y184490
X175898Y184396
X164086Y188097
Y199908
X152276
Y188097
X140464Y184396
X95672Y148976
X86223
X74412Y145276
Y133465
X62601
Y145276
X50790Y148976
X108662Y230156
X120867Y233857
Y245668
X132284Y230156
T09
X144403Y220904
Y250904
X239284
X219206Y220904
T10
X50889Y170748
X84353
T11
X127953Y9843
Y108268
X9843
X9843Y181495
X9841Y272047
T12
X9843Y9843
X238187Y272047
M30
