G04*
G04 #@! TF.GenerationSoftware,Altium Limited,Altium Designer,20.0.11 (256)*
G04*
G04 Layer_Color=16711935*
%FSLAX25Y25*%
%MOIN*%
G70*
G01*
G75*
%ADD11C,0.00394*%
%ADD14C,0.00787*%
%ADD19C,0.00500*%
%ADD119C,0.00000*%
%ADD120C,0.00100*%
%ADD121R,0.10600X0.02273*%
%ADD122R,0.03150X0.00847*%
D11*
X-59672Y-363791D02*
G03*
X-59672Y-363791I-1969J0D01*
G01*
X-821279Y-268760D02*
G03*
X-821279Y-268760I-1969J0D01*
G01*
X-832499Y-253012D02*
G03*
X-832499Y-253012I-1969J0D01*
G01*
X-862175Y-182476D02*
G03*
X-862175Y-182476I-1181J0D01*
G01*
X-766161Y-268760D02*
G03*
X-766161Y-268760I-1969J0D01*
G01*
X-707302Y-253012D02*
G03*
X-707302Y-253012I-1969J0D01*
G01*
X-603428Y-186413D02*
G03*
X-603428Y-186413I-1181J0D01*
G01*
X-577381Y-253012D02*
G03*
X-577381Y-253012I-1969J0D01*
G01*
X-561436Y-268760D02*
G03*
X-561436Y-268760I-1969J0D01*
G01*
X-443523Y-253012D02*
G03*
X-443523Y-253012I-1969J0D01*
G01*
X-504881Y-268760D02*
G03*
X-504881Y-268760I-1969J0D01*
G01*
X-344373Y-186413D02*
G03*
X-344373Y-186413I-1181J0D01*
G01*
X-318976Y-251929D02*
G03*
X-318976Y-251929I-1969J0D01*
G01*
X-301377Y-270728D02*
G03*
X-301377Y-270728I-1969J0D01*
G01*
X-85214Y-64743D02*
G03*
X-85214Y-64743I-1969J0D01*
G01*
X-176200Y-253012D02*
G03*
X-176200Y-253012I-1969J0D01*
G01*
X-167082Y-192445D02*
G03*
X-167082Y-192445I-1181J0D01*
G01*
X-246458Y-270746D02*
G03*
X-246458Y-270746I-1969J0D01*
G01*
X-599822Y-373878D02*
G03*
X-599822Y-373878I-1969J0D01*
G01*
X-95232Y-95850D02*
G03*
X-95232Y-95850I-1181J0D01*
G01*
X-686767Y-192445D02*
G03*
X-686767Y-192445I-1181J0D01*
G01*
X-424956Y-194413D02*
G03*
X-424956Y-194413I-1181J0D01*
G01*
X-138555Y-403944D02*
Y-390756D01*
X-145445Y-403944D02*
Y-390756D01*
X-138555D01*
X-145445Y-403944D02*
X-138555D01*
X-131276Y-376240D02*
X-90724D01*
X-131276Y-413445D02*
X-90724D01*
Y-376240D01*
X-131276Y-413445D02*
Y-376240D01*
X-148848Y-57117D02*
X-123552D01*
X-115531Y-49095D01*
Y-12629D01*
X-156869D02*
X-115531D01*
X-156869Y-49095D02*
Y-12629D01*
Y-49095D02*
X-148848Y-57117D01*
X-580039Y-275551D02*
X-576259D01*
X-580039Y-282441D02*
X-576259D01*
Y-275551D01*
X-580039Y-282441D02*
Y-275551D01*
X-85842Y-109249D02*
X-82062D01*
X-85842Y-116139D02*
X-82062D01*
Y-109249D01*
X-85842Y-116139D02*
Y-109249D01*
X-113472Y-144239D02*
X-97428D01*
X-118442Y-149209D02*
X-113472Y-144239D01*
X-118442Y-170223D02*
Y-149209D01*
Y-170223D02*
X-92458D01*
Y-149209D01*
X-97428Y-144239D02*
X-92458Y-149209D01*
X-54743Y-369260D02*
X-47657D01*
X-54743Y-358040D02*
X-47657D01*
X-54743Y-369260D02*
Y-358040D01*
X-47657Y-369260D02*
Y-358040D01*
X-30243Y-359440D02*
X-23157D01*
X-30243Y-370660D02*
X-23157D01*
Y-359440D01*
X-30243Y-370660D02*
Y-359440D01*
X-19990Y-359205D02*
X-16210D01*
X-19990Y-366095D02*
X-16210D01*
Y-359205D01*
X-19990Y-366095D02*
Y-359205D01*
X-84361Y-376223D02*
X-79439D01*
X-84361Y-372877D02*
X-79439D01*
Y-376223D02*
Y-372877D01*
X-84361Y-376223D02*
Y-372877D01*
X-70302Y-360248D02*
X-58098D01*
X-70302Y-372452D02*
X-58098D01*
Y-360248D01*
X-70302Y-372452D02*
Y-360248D01*
X-77075Y-363700D02*
Y-357400D01*
X-73925Y-363700D02*
Y-357400D01*
X-77075Y-363700D02*
X-73925D01*
X-77075Y-357400D02*
X-73925D01*
X-41798Y-388325D02*
X-35499D01*
X-41798Y-385175D02*
X-35499D01*
Y-388325D02*
Y-385175D01*
X-41798Y-388325D02*
Y-385175D01*
X-44700Y-373900D02*
X-34100D01*
X-44700Y-357000D02*
X-34100D01*
X-44700Y-373900D02*
Y-357000D01*
X-34100Y-373900D02*
Y-357000D01*
X-32492Y-416180D02*
Y-394920D01*
X-56508Y-416180D02*
Y-394920D01*
Y-416180D02*
X-32492D01*
X-56508Y-394920D02*
X-32492D01*
X-75406Y-392806D02*
Y-387294D01*
X-63595Y-392806D02*
Y-387294D01*
X-75406Y-392806D02*
X-63595D01*
X-75406Y-387294D02*
X-63595D01*
X-144560Y-376350D02*
Y-367885D01*
X-139048Y-376350D02*
Y-367885D01*
X-144560Y-376350D02*
X-139048D01*
X-144560Y-367885D02*
X-139048D01*
X-70848Y-186022D02*
Y-179722D01*
X-67698Y-186022D02*
Y-179722D01*
X-70848Y-186022D02*
X-67698D01*
X-70848Y-179722D02*
X-67698D01*
X-79305Y-185879D02*
X-76156D01*
X-79305Y-179580D02*
X-76156D01*
X-79305Y-185879D02*
Y-179580D01*
X-76156Y-185879D02*
Y-179580D01*
X-79305Y-136230D02*
Y-129930D01*
X-76155Y-136230D02*
Y-129930D01*
X-79305Y-136230D02*
X-76155D01*
X-79305Y-129930D02*
X-76155D01*
X-72090Y-129163D02*
X-68310D01*
X-72090Y-136053D02*
X-68310D01*
Y-129163D01*
X-72090Y-136053D02*
Y-129163D01*
X-69814Y-205494D02*
Y-197029D01*
X-75326Y-205494D02*
Y-197029D01*
X-69814D01*
X-75326Y-205494D02*
X-69814D01*
X-78305Y-201221D02*
Y-192757D01*
X-83817Y-201221D02*
Y-192757D01*
X-78305D01*
X-83817Y-201221D02*
X-78305D01*
X-178464Y-275551D02*
X-174684D01*
X-178464Y-282441D02*
X-174684D01*
Y-275551D01*
X-178464Y-282441D02*
Y-275551D01*
X-250708Y-287362D02*
X-246928D01*
X-250708Y-294252D02*
X-246928D01*
Y-287362D01*
X-250708Y-294252D02*
Y-287362D01*
X-321633Y-273583D02*
X-317853D01*
X-321633Y-280472D02*
X-317853D01*
Y-273583D01*
X-321633Y-280472D02*
Y-273583D01*
X-305496Y-304155D02*
X-301716D01*
X-305496Y-311045D02*
X-301716D01*
Y-304155D01*
X-305496Y-311045D02*
Y-304155D01*
X-360452Y-367972D02*
X-354153D01*
X-360452Y-371122D02*
X-354153D01*
X-360452D02*
Y-367972D01*
X-354153Y-371122D02*
Y-367972D01*
X-360566Y-380475D02*
X-354267D01*
X-360566Y-383625D02*
X-354267D01*
X-360566D02*
Y-380475D01*
X-354267Y-383625D02*
Y-380475D01*
X-296167Y-353437D02*
Y-349658D01*
X-289277Y-353437D02*
Y-349658D01*
X-296167D02*
X-289277D01*
X-296167Y-353437D02*
X-289277D01*
X-295370Y-365531D02*
Y-361752D01*
X-288481Y-365531D02*
Y-361752D01*
X-295370D02*
X-288481D01*
X-295370Y-365531D02*
X-288481D01*
X-295370Y-377992D02*
Y-374213D01*
X-288481Y-377992D02*
Y-374213D01*
X-295370D02*
X-288481D01*
X-295370Y-377992D02*
X-288481D01*
X-354330Y-352819D02*
Y-349040D01*
X-361220Y-352819D02*
Y-349040D01*
Y-352819D02*
X-354330D01*
X-361220Y-349040D02*
X-354330D01*
X-390755Y-381790D02*
Y-378010D01*
X-397645Y-381790D02*
Y-378010D01*
Y-381790D02*
X-390755D01*
X-397645Y-378010D02*
X-390755D01*
X-380137Y-393275D02*
Y-389495D01*
X-387027Y-393275D02*
Y-389495D01*
Y-393275D02*
X-380137D01*
X-387027Y-389495D02*
X-380137D01*
X-309271Y-382933D02*
X-302972D01*
X-309271Y-379784D02*
X-302972D01*
Y-382933D02*
Y-379784D01*
X-309271Y-382933D02*
Y-379784D01*
Y-371122D02*
X-302972D01*
X-309271Y-367972D02*
X-302972D01*
Y-371122D02*
Y-367972D01*
X-309271Y-371122D02*
Y-367972D01*
Y-359311D02*
X-302972D01*
X-309271Y-356161D02*
X-302972D01*
Y-359311D02*
Y-356161D01*
X-309271Y-359311D02*
Y-356161D01*
X-360452D02*
X-354153D01*
X-360452Y-359311D02*
X-354153D01*
X-360452D02*
Y-356161D01*
X-354153Y-359311D02*
Y-356161D01*
X-382499Y-353647D02*
X-379349D01*
X-382499Y-359946D02*
X-379349D01*
Y-353647D01*
X-382499Y-359946D02*
Y-353647D01*
X-382499Y-345138D02*
Y-338839D01*
X-379350Y-345138D02*
Y-338839D01*
X-382499Y-345138D02*
X-379350D01*
X-382499Y-338839D02*
X-379350D01*
X-446290Y-274757D02*
X-442510D01*
X-446290Y-281646D02*
X-442510D01*
Y-274757D01*
X-446290Y-281646D02*
Y-274757D01*
X-509090Y-287314D02*
X-505310D01*
X-509090Y-294204D02*
X-505310D01*
Y-287314D01*
X-509090Y-294204D02*
Y-287314D01*
X-536655Y-341910D02*
Y-338130D01*
X-543545Y-341910D02*
Y-338130D01*
Y-341910D02*
X-536655D01*
X-543545Y-338130D02*
X-536655D01*
X-580039Y-386476D02*
X-576259D01*
X-580039Y-393366D02*
X-576259D01*
Y-386476D01*
X-580039Y-393366D02*
Y-386476D01*
X-605038Y-352118D02*
X-601259D01*
X-605038Y-345228D02*
X-601259D01*
X-605038Y-352118D02*
Y-345228D01*
X-601259Y-352118D02*
Y-345228D01*
X-615290Y-350305D02*
X-611510D01*
X-615290Y-357195D02*
X-611510D01*
Y-350305D01*
X-615290Y-357195D02*
Y-350305D01*
X-84697Y-135758D02*
Y-127884D01*
X-89618Y-135758D02*
Y-127884D01*
X-84697D01*
X-89618Y-135758D02*
X-84697D01*
X-709795Y-277520D02*
X-706015D01*
X-709795Y-284409D02*
X-706015D01*
Y-277520D01*
X-709795Y-284409D02*
Y-277520D01*
X-770490Y-289914D02*
X-766710D01*
X-770490Y-296804D02*
X-766710D01*
Y-289914D01*
X-770490Y-296804D02*
Y-289914D01*
X-825400D02*
X-821620D01*
X-825400Y-296804D02*
X-821620D01*
Y-289914D01*
X-825400Y-296804D02*
Y-289914D01*
X-835157Y-277520D02*
X-831377D01*
X-835157Y-284409D02*
X-831377D01*
Y-277520D01*
X-835157Y-284409D02*
Y-277520D01*
X-846416Y-279390D02*
X-840117D01*
X-846416Y-282539D02*
X-840117D01*
X-846416D02*
Y-279390D01*
X-840117Y-282539D02*
Y-279390D01*
X-846416Y-287264D02*
X-840117D01*
X-846416Y-290413D02*
X-840117D01*
X-846416D02*
Y-287264D01*
X-840117Y-290413D02*
Y-287264D01*
X-92795Y-91515D02*
Y-87736D01*
X-85905Y-91515D02*
Y-87736D01*
X-92795D02*
X-85905D01*
X-92795Y-91515D02*
X-85905D01*
X-835157Y-237165D02*
X-831377D01*
X-835157Y-230276D02*
X-831377D01*
X-835157Y-237165D02*
Y-230276D01*
X-831377Y-237165D02*
Y-230276D01*
X-825511Y-229291D02*
X-821731D01*
X-825511Y-222402D02*
X-821731D01*
X-825511Y-229291D02*
Y-222402D01*
X-821731Y-229291D02*
Y-222402D01*
X-785452Y-272303D02*
Y-242382D01*
X-826791Y-272303D02*
Y-242382D01*
X-785452D01*
X-826791Y-272303D02*
X-785452D01*
X-850609Y-265216D02*
Y-249468D01*
X-830924Y-265216D02*
Y-249468D01*
X-850609Y-265216D02*
X-830924D01*
X-850609Y-249468D02*
X-830924D01*
X-843129Y-228996D02*
Y-222697D01*
X-839979Y-228996D02*
Y-222697D01*
X-843129Y-228996D02*
X-839979D01*
X-843129Y-222697D02*
X-839979D01*
X-843444Y-190087D02*
X-839664D01*
X-843444Y-196976D02*
X-839664D01*
Y-190087D01*
X-843444Y-196976D02*
Y-190087D01*
X-865261Y-192382D02*
Y-180571D01*
X-853450Y-192382D02*
Y-180571D01*
X-865261D02*
X-853450D01*
X-865261Y-192382D02*
X-853450D01*
X-888247Y-165685D02*
Y-158795D01*
X-876239Y-165685D02*
Y-158795D01*
X-888247Y-165685D02*
X-876239D01*
X-888247Y-158795D02*
X-876239D01*
X-886082Y-139307D02*
X-879783D01*
X-886082Y-136158D02*
X-879783D01*
Y-139307D02*
Y-136158D01*
X-886082Y-139307D02*
Y-136158D01*
X-730334Y-272303D02*
Y-242382D01*
X-771672Y-272303D02*
Y-242382D01*
X-730334D01*
X-771672Y-272303D02*
X-730334D01*
X-725413Y-265216D02*
Y-249468D01*
X-705727Y-265216D02*
Y-249468D01*
X-725413Y-265216D02*
X-705727D01*
X-725413Y-249468D02*
X-705727D01*
X-705235Y-241008D02*
Y-237228D01*
X-698346Y-241008D02*
Y-237228D01*
X-705235D02*
X-698346D01*
X-705235Y-241008D02*
X-698346D01*
X-713802Y-238839D02*
Y-232539D01*
X-710653Y-238839D02*
Y-232539D01*
X-713802Y-238839D02*
X-710653D01*
X-713802Y-232539D02*
X-710653D01*
X-721082Y-238839D02*
Y-232539D01*
X-717932Y-238839D02*
Y-232539D01*
X-721082Y-238839D02*
X-717932D01*
X-721082Y-232539D02*
X-717932D01*
X-661928Y-186339D02*
X-658149D01*
X-661928Y-193228D02*
X-658149D01*
Y-186339D01*
X-661928Y-193228D02*
Y-186339D01*
X-670216Y-193169D02*
X-666436D01*
X-670216Y-186279D02*
X-666436D01*
X-670216Y-193169D02*
Y-186279D01*
X-666436Y-193169D02*
Y-186279D01*
X-669783Y-170236D02*
Y-163347D01*
X-657775Y-170236D02*
Y-163347D01*
X-669783Y-170236D02*
X-657775D01*
X-669783Y-163347D02*
X-657775D01*
X-667539Y-145175D02*
X-661239D01*
X-667539Y-142025D02*
X-661239D01*
Y-145175D02*
Y-142025D01*
X-667539Y-145175D02*
Y-142025D01*
X-632068Y-129488D02*
Y-123189D01*
X-628919Y-129488D02*
Y-123189D01*
X-632068Y-129488D02*
X-628919D01*
X-632068Y-123189D02*
X-628919D01*
X-630592Y-144744D02*
X-624293D01*
X-630592Y-141595D02*
X-624293D01*
Y-144744D02*
Y-141595D01*
X-630592Y-144744D02*
Y-141595D01*
X-633188Y-170236D02*
Y-163347D01*
X-621180Y-170236D02*
Y-163347D01*
X-633188Y-170236D02*
X-621180D01*
X-633188Y-163347D02*
X-621180D01*
X-585039Y-194843D02*
X-581259D01*
X-585039Y-201732D02*
X-581259D01*
Y-194843D01*
X-585039Y-201732D02*
Y-194843D01*
X-606515Y-196319D02*
Y-184508D01*
X-594704Y-196319D02*
Y-184508D01*
X-606515D02*
X-594704D01*
X-606515Y-196319D02*
X-594704D01*
X-625334Y-185000D02*
X-621554D01*
X-625334Y-191890D02*
X-621554D01*
Y-185000D01*
X-625334Y-191890D02*
Y-185000D01*
X-630334Y-203799D02*
X-624035D01*
X-630334Y-200650D02*
X-624035D01*
Y-203799D02*
Y-200650D01*
X-630334Y-203799D02*
Y-200650D01*
X-587224Y-231762D02*
Y-225463D01*
X-584074Y-231762D02*
Y-225463D01*
X-587224Y-231762D02*
X-584074D01*
X-587224Y-225463D02*
X-584074D01*
X-595491Y-265216D02*
Y-249468D01*
X-575806Y-265216D02*
Y-249468D01*
X-595491Y-265216D02*
X-575806D01*
X-595491Y-249468D02*
X-575806D01*
X-525609Y-272303D02*
Y-242382D01*
X-566948Y-272303D02*
Y-242382D01*
X-525609D01*
X-566948Y-272303D02*
X-525609D01*
X-449428Y-237953D02*
Y-231653D01*
X-446279Y-237953D02*
Y-231653D01*
X-449428Y-237953D02*
X-446279D01*
X-449428Y-231653D02*
X-446279D01*
X-457302Y-237953D02*
Y-231653D01*
X-454153Y-237953D02*
Y-231653D01*
X-457302Y-237953D02*
X-454153D01*
X-457302Y-231653D02*
X-454153D01*
X-440176Y-239744D02*
Y-235965D01*
X-433287Y-239744D02*
Y-235965D01*
X-440176D02*
X-433287D01*
X-440176Y-239744D02*
X-433287D01*
X-461633Y-265216D02*
Y-249468D01*
X-441948Y-265216D02*
Y-249468D01*
X-461633Y-265216D02*
X-441948D01*
X-461633Y-249468D02*
X-441948D01*
X-469054Y-272303D02*
Y-242382D01*
X-510393Y-272303D02*
Y-242382D01*
X-469054D01*
X-510393Y-272303D02*
X-469054D01*
X-508798Y-229291D02*
X-505019D01*
X-508798Y-222402D02*
X-505019D01*
X-508798Y-229291D02*
Y-222402D01*
X-505019Y-229291D02*
Y-222402D01*
X-449330Y-186255D02*
X-445550D01*
X-449330Y-179365D02*
X-445550D01*
X-449330Y-186255D02*
Y-179365D01*
X-445550Y-186255D02*
Y-179365D01*
X-408385Y-202618D02*
X-402086D01*
X-408385Y-205768D02*
X-402086D01*
X-408385D02*
Y-202618D01*
X-402086Y-205768D02*
Y-202618D01*
X-402499Y-188937D02*
X-398720D01*
X-402499Y-195827D02*
X-398720D01*
Y-188937D01*
X-402499Y-195827D02*
Y-188937D01*
X-410176Y-195827D02*
X-406397D01*
X-410176Y-188937D02*
X-406397D01*
X-410176Y-195827D02*
Y-188937D01*
X-406397Y-195827D02*
Y-188937D01*
X-410550Y-170236D02*
Y-163347D01*
X-398542Y-170236D02*
Y-163347D01*
X-410550Y-170236D02*
X-398542D01*
X-410550Y-163347D02*
X-398542D01*
X-408779Y-144744D02*
X-402480D01*
X-408779Y-141595D02*
X-402480D01*
Y-144744D02*
Y-141595D01*
X-408779Y-144744D02*
Y-141595D01*
X-410255Y-130571D02*
Y-124272D01*
X-407105Y-130571D02*
Y-124272D01*
X-410255Y-130571D02*
X-407105D01*
X-410255Y-124272D02*
X-407105D01*
X-372263Y-144744D02*
X-365964D01*
X-372263Y-141595D02*
X-365964D01*
Y-144744D02*
Y-141595D01*
X-372263Y-144744D02*
Y-141595D01*
X-371358Y-205768D02*
X-365059D01*
X-371358Y-202618D02*
X-365059D01*
Y-205768D02*
Y-202618D01*
X-371358Y-205768D02*
Y-202618D01*
X-366180Y-189619D02*
X-362401D01*
X-366180Y-196509D02*
X-362401D01*
Y-189619D01*
X-366180Y-196509D02*
Y-189619D01*
X-374054Y-196509D02*
X-370275D01*
X-374054Y-189619D02*
X-370275D01*
X-374054Y-196509D02*
Y-189619D01*
X-370275Y-196509D02*
Y-189619D01*
X-347460Y-196319D02*
Y-184508D01*
X-335649Y-196319D02*
Y-184508D01*
X-347460D02*
X-335649D01*
X-347460Y-196319D02*
X-335649D01*
X-327381Y-228996D02*
Y-222697D01*
X-324232Y-228996D02*
Y-222697D01*
X-327381Y-228996D02*
X-324232D01*
X-327381Y-222697D02*
X-324232D01*
X-335255Y-228996D02*
Y-222697D01*
X-332105Y-228996D02*
Y-222697D01*
X-335255Y-228996D02*
X-332105D01*
X-335255Y-222697D02*
X-332105D01*
X-337086Y-264134D02*
Y-248386D01*
X-317401Y-264134D02*
Y-248386D01*
X-337086Y-264134D02*
X-317401D01*
X-337086Y-248386D02*
X-317401D01*
X-321633Y-238445D02*
X-317853D01*
X-321633Y-231555D02*
X-317853D01*
X-321633Y-238445D02*
Y-231555D01*
X-317853Y-238445D02*
Y-231555D01*
X-305609Y-231260D02*
X-301830D01*
X-305609Y-224370D02*
X-301830D01*
X-305609Y-231260D02*
Y-224370D01*
X-301830Y-231260D02*
Y-224370D01*
X-265550Y-274272D02*
Y-244350D01*
X-306889Y-274272D02*
Y-244350D01*
X-265550D01*
X-306889Y-274272D02*
X-265550D01*
X-103324Y-76948D02*
Y-61200D01*
X-83639Y-76948D02*
Y-61200D01*
X-103324Y-76948D02*
X-83639D01*
X-103324Y-61200D02*
X-83639D01*
X-194310Y-265216D02*
Y-249468D01*
X-174625Y-265216D02*
Y-249468D01*
X-194310Y-265216D02*
X-174625D01*
X-194310Y-249468D02*
X-174625D01*
X-173739Y-240236D02*
Y-236457D01*
X-166850Y-240236D02*
Y-236457D01*
X-173739D02*
X-166850D01*
X-173739Y-240236D02*
X-166850D01*
X-189586Y-236870D02*
Y-230571D01*
X-186436Y-236870D02*
Y-230571D01*
X-189586Y-236870D02*
X-186436D01*
X-189586Y-230571D02*
X-186436D01*
X-149822Y-198681D02*
X-143523D01*
X-149822Y-201831D02*
X-143523D01*
X-149822D02*
Y-198681D01*
X-143523Y-201831D02*
Y-198681D01*
X-152873Y-170728D02*
Y-163839D01*
X-140865Y-170728D02*
Y-163839D01*
X-152873Y-170728D02*
X-140865D01*
X-152873Y-163839D02*
X-140865D01*
X-167380Y-162150D02*
Y-155850D01*
X-170530Y-162150D02*
Y-155850D01*
X-167380D01*
X-170530Y-162150D02*
X-167380D01*
X-165176Y-140169D02*
Y-133870D01*
X-162027Y-140169D02*
Y-133870D01*
X-165176Y-140169D02*
X-162027D01*
X-165176Y-133870D02*
X-162027D01*
X-166357Y-194350D02*
Y-182539D01*
X-178168Y-194350D02*
Y-182539D01*
Y-194350D02*
X-166357D01*
X-178168Y-182539D02*
X-166357D01*
X-191869Y-184311D02*
X-188090D01*
X-191869Y-177421D02*
X-188090D01*
X-191869Y-184311D02*
Y-177421D01*
X-188090Y-184311D02*
Y-177421D01*
X-250708Y-231260D02*
X-246928D01*
X-250708Y-224370D02*
X-246928D01*
X-250708Y-231260D02*
Y-224370D01*
X-246928Y-231260D02*
Y-224370D01*
X-210631Y-274290D02*
Y-244369D01*
X-251969Y-274290D02*
Y-244369D01*
X-210631D01*
X-251969Y-274290D02*
X-210631D01*
X-373739Y-130571D02*
Y-124272D01*
X-370590Y-130571D02*
Y-124272D01*
X-373739Y-130571D02*
X-370590D01*
X-373739Y-124272D02*
X-370590D01*
X-565964Y-377421D02*
Y-361673D01*
X-605334Y-377421D02*
Y-361673D01*
X-565964D01*
X-605334Y-377421D02*
X-565964D01*
X-101291Y-33708D02*
X-87709D01*
X-101291Y-40992D02*
X-87709D01*
X-101291D02*
Y-33708D01*
X-87709Y-40992D02*
Y-33708D01*
X-101291Y-44775D02*
X-87709D01*
X-101291Y-52058D02*
X-87709D01*
X-101291D02*
Y-44775D01*
X-87709Y-52058D02*
Y-44775D01*
X-98319Y-105755D02*
Y-93945D01*
X-86508Y-105755D02*
Y-93945D01*
X-98319D02*
X-86508D01*
X-98319Y-105755D02*
X-86508D01*
X-152499Y-187953D02*
X-148720D01*
X-152499Y-181063D02*
X-148720D01*
X-152499Y-187953D02*
Y-181063D01*
X-148720Y-187953D02*
Y-181063D01*
X-580038Y-239143D02*
X-576259D01*
X-580038Y-232253D02*
X-576259D01*
X-580038Y-239143D02*
Y-232253D01*
X-576259Y-239143D02*
Y-232253D01*
X-594724Y-231762D02*
Y-225463D01*
X-591574Y-231762D02*
Y-225463D01*
X-594724Y-231762D02*
X-591574D01*
X-594724Y-225463D02*
X-591574D01*
X-850216Y-229029D02*
Y-222730D01*
X-847066Y-229029D02*
Y-222730D01*
X-850216Y-229029D02*
X-847066D01*
X-850216Y-222730D02*
X-847066D01*
X-887558Y-125055D02*
Y-118756D01*
X-884409Y-125055D02*
Y-118756D01*
X-887558Y-125055D02*
X-884409D01*
X-887558Y-118756D02*
X-884409D01*
X-182499Y-236870D02*
Y-230571D01*
X-179350Y-236870D02*
Y-230571D01*
X-182499Y-236870D02*
X-179350D01*
X-182499Y-230571D02*
X-179350D01*
X-632383Y-191890D02*
X-628604D01*
X-632383Y-185000D02*
X-628604D01*
X-632383Y-191890D02*
Y-185000D01*
X-628604Y-191890D02*
Y-185000D01*
X-667539Y-200650D02*
X-661239D01*
X-667539Y-203799D02*
X-661239D01*
X-667539D02*
Y-200650D01*
X-661239Y-203799D02*
Y-200650D01*
X-145019Y-181063D02*
X-141239D01*
X-145019Y-187953D02*
X-141239D01*
Y-181063D01*
X-145019Y-187953D02*
Y-181063D01*
X-565890Y-294104D02*
Y-287214D01*
X-562110Y-294104D02*
Y-287214D01*
X-565890Y-294104D02*
X-562110D01*
X-565890Y-287214D02*
X-562110D01*
X-562106Y-229291D02*
Y-222402D01*
X-565885Y-229291D02*
Y-222402D01*
X-562106D01*
X-565885Y-229291D02*
X-562106D01*
X-669015Y-134378D02*
Y-128079D01*
X-665865Y-134378D02*
Y-128079D01*
X-669015Y-134378D02*
X-665865D01*
X-669015Y-128079D02*
X-665865D01*
X-770393Y-229291D02*
X-766613D01*
X-770393Y-222402D02*
X-766613D01*
X-770393Y-229291D02*
Y-222402D01*
X-766613Y-229291D02*
Y-222402D01*
X-323956Y-194565D02*
X-320176D01*
X-323956Y-201455D02*
X-320176D01*
Y-194565D01*
X-323956Y-201455D02*
Y-194565D01*
X-110488Y-102800D02*
Y-96500D01*
X-107338Y-102800D02*
Y-96500D01*
X-110488Y-102800D02*
X-107338D01*
X-110488Y-96500D02*
X-107338D01*
X-103068Y-113740D02*
Y-109960D01*
X-109958Y-113740D02*
Y-109960D01*
Y-113740D02*
X-103068D01*
X-109958Y-109960D02*
X-103068D01*
X-69263Y-88575D02*
X-62964D01*
X-69263Y-91725D02*
X-62964D01*
X-69263D02*
Y-88575D01*
X-62964Y-91725D02*
Y-88575D01*
X-69186Y-102906D02*
X-62886D01*
X-69186Y-106056D02*
X-62886D01*
X-69186D02*
Y-102906D01*
X-62886Y-106056D02*
Y-102906D01*
X-887677Y-184110D02*
Y-177811D01*
X-884527Y-184110D02*
Y-177811D01*
X-887677Y-184110D02*
X-884527D01*
X-887677Y-177811D02*
X-884527D01*
X-881042Y-177126D02*
X-877263D01*
X-881042Y-184016D02*
X-877263D01*
Y-177126D01*
X-881042Y-184016D02*
Y-177126D01*
X-886968Y-194661D02*
Y-190882D01*
X-880078Y-194661D02*
Y-190882D01*
X-886968D02*
X-880078D01*
X-886968Y-194661D02*
X-880078D01*
X-374035Y-163347D02*
X-362027D01*
X-374035Y-170236D02*
X-362027D01*
Y-163347D01*
X-374035Y-170236D02*
Y-163347D01*
X-706250Y-184291D02*
Y-177402D01*
X-710029Y-184291D02*
Y-177402D01*
X-706250D01*
X-710029Y-184291D02*
X-706250D01*
X-697854Y-182539D02*
X-686042D01*
X-697854Y-194350D02*
X-686042D01*
X-697854D02*
Y-182539D01*
X-686042Y-194350D02*
Y-182539D01*
X-436042Y-184508D02*
X-424231D01*
X-436042Y-196319D02*
X-424231D01*
X-436042D02*
Y-184508D01*
X-424231Y-196319D02*
Y-184508D01*
D14*
X-147827Y-414650D02*
G03*
X-147827Y-414650I-394J0D01*
G01*
D02*
G03*
X-147827Y-414650I-394J0D01*
G01*
X-881468Y-54587D02*
G03*
X-881468Y-54587I-394J0D01*
G01*
D02*
G03*
X-881468Y-54587I-394J0D01*
G01*
X-245759D02*
G03*
X-245759Y-54587I-394J0D01*
G01*
D02*
G03*
X-245759Y-54587I-394J0D01*
G01*
X-497727D02*
G03*
X-497727Y-54587I-394J0D01*
G01*
D02*
G03*
X-497727Y-54587I-394J0D01*
G01*
X-623712D02*
G03*
X-623712Y-54587I-394J0D01*
G01*
D02*
G03*
X-623712Y-54587I-394J0D01*
G01*
X-365838D02*
G03*
X-365838Y-54587I-394J0D01*
G01*
D02*
G03*
X-365838Y-54587I-394J0D01*
G01*
X-755483D02*
G03*
X-755483Y-54587I-394J0D01*
G01*
D02*
G03*
X-755483Y-54587I-394J0D01*
G01*
D19*
X-150780Y-432650D02*
Y-362650D01*
X-232300Y-432650D02*
X-150780D01*
X-232300D02*
Y-362650D01*
X-150780D01*
X-232300D02*
X-150780D01*
Y-432650D02*
Y-362650D01*
X-232300Y-432650D02*
X-150780D01*
X-232300D02*
Y-362650D01*
X-150780D01*
X-232300D02*
X-150780D01*
X-879302Y-106587D02*
Y-36587D01*
X-797783D01*
Y-106587D02*
Y-36587D01*
X-879302Y-106587D02*
X-797783D01*
X-879302D02*
X-797783D01*
X-879302D02*
Y-36587D01*
X-797783D01*
Y-106587D02*
Y-36587D01*
X-879302Y-106587D02*
X-797783D01*
X-879302D02*
X-797783D01*
X-243594D02*
Y-36587D01*
X-162074D01*
Y-106587D02*
Y-36587D01*
X-243594Y-106587D02*
X-162074D01*
X-243594D02*
X-162074D01*
X-243594D02*
Y-36587D01*
X-162074D01*
Y-106587D02*
Y-36587D01*
X-243594Y-106587D02*
X-162074D01*
X-243594D02*
X-162074D01*
X-495562D02*
Y-36587D01*
X-414043D01*
Y-106587D02*
Y-36587D01*
X-495562Y-106587D02*
X-414043D01*
X-495562D02*
X-414043D01*
X-495562D02*
Y-36587D01*
X-414043D01*
Y-106587D02*
Y-36587D01*
X-495562Y-106587D02*
X-414043D01*
X-495562D02*
X-414043D01*
X-621546D02*
Y-36587D01*
X-540027D01*
Y-106587D02*
Y-36587D01*
X-621546Y-106587D02*
X-540027D01*
X-621546D02*
X-540027D01*
X-621546D02*
Y-36587D01*
X-540027D01*
Y-106587D02*
Y-36587D01*
X-621546Y-106587D02*
X-540027D01*
X-621546D02*
X-540027D01*
X-363672D02*
Y-36587D01*
X-282153D01*
Y-106587D02*
Y-36587D01*
X-363672Y-106587D02*
X-282153D01*
X-363672D02*
X-282153D01*
X-363672D02*
Y-36587D01*
X-282153D01*
Y-106587D02*
Y-36587D01*
X-363672Y-106587D02*
X-282153D01*
X-363672D02*
X-282153D01*
X-753318D02*
X-671798D01*
X-753318D02*
X-671798D01*
Y-36587D01*
X-753318D02*
X-671798D01*
X-753318Y-106587D02*
Y-36587D01*
Y-106587D02*
X-671798D01*
X-753318D02*
X-671798D01*
Y-36587D01*
X-753318D02*
X-671798D01*
X-753318Y-106587D02*
Y-36587D01*
D119*
X-66900Y-155824D02*
G03*
X-66900Y-158224I0J-1200D01*
G01*
D120*
X-69873Y-148175D02*
X-68673D01*
Y-144025D01*
X-69873D02*
X-68673D01*
X-69873Y-148175D02*
Y-144025D01*
X-72432Y-148175D02*
X-71232D01*
Y-144025D01*
X-72432D02*
X-71232D01*
X-72432Y-148175D02*
Y-144025D01*
X-74991Y-148175D02*
X-73791D01*
Y-144025D01*
X-74991D02*
X-73791D01*
X-74991Y-148175D02*
Y-144025D01*
X-77550Y-148175D02*
X-76350D01*
Y-144025D01*
X-77550D02*
X-76350D01*
X-77550Y-148175D02*
Y-144025D01*
X-80109Y-148175D02*
X-78909D01*
Y-144025D01*
X-80109D02*
X-78909D01*
X-80109Y-148175D02*
Y-144025D01*
X-82668Y-148175D02*
X-81468D01*
Y-144025D01*
X-82668D02*
X-81468D01*
X-82668Y-148175D02*
Y-144025D01*
X-85227Y-148175D02*
X-84027D01*
Y-144025D01*
X-85227D02*
X-84027D01*
X-85227Y-148175D02*
Y-144025D01*
X-85227Y-165875D02*
X-84027D01*
X-85227Y-170025D02*
Y-165875D01*
Y-170025D02*
X-84027D01*
Y-165875D01*
X-82668D02*
X-81468D01*
X-82668Y-170025D02*
Y-165875D01*
Y-170025D02*
X-81468D01*
Y-165875D01*
X-80109D02*
X-78909D01*
X-80109Y-170025D02*
Y-165875D01*
Y-170025D02*
X-78909D01*
Y-165875D01*
X-77550D02*
X-76350D01*
X-77550Y-170025D02*
Y-165875D01*
Y-170025D02*
X-76350D01*
Y-165875D01*
X-74991D02*
X-73791D01*
X-74991Y-170025D02*
Y-165875D01*
Y-170025D02*
X-73791D01*
Y-165875D01*
X-72432D02*
X-71232D01*
X-72432Y-170025D02*
Y-165875D01*
Y-170025D02*
X-71232D01*
Y-165875D01*
X-69873D02*
X-68673D01*
X-69873Y-170025D02*
Y-165875D01*
Y-170025D02*
X-68673D01*
Y-165875D01*
X-87000D02*
Y-148175D01*
Y-165875D02*
X-66900D01*
Y-148175D01*
X-87000D02*
X-66900D01*
D121*
X-39400Y-358137D02*
D03*
D122*
X-77730Y-180003D02*
D03*
X-380924Y-359522D02*
D03*
M02*
