G04*
G04 #@! TF.GenerationSoftware,Altium Limited,Altium Designer,20.0.11 (256)*
G04*
G04 Layer_Color=255*
%FSLAX25Y25*%
%MOIN*%
G70*
G01*
G75*
%ADD106C,0.10630*%
G04:AMPARAMS|DCode=107|XSize=78.74mil|YSize=275.59mil|CornerRadius=19.68mil|HoleSize=0mil|Usage=FLASHONLY|Rotation=90.000|XOffset=0mil|YOffset=0mil|HoleType=Round|Shape=RoundedRectangle|*
%AMROUNDEDRECTD107*
21,1,0.07874,0.23622,0,0,90.0*
21,1,0.03937,0.27559,0,0,90.0*
1,1,0.03937,0.11811,0.01968*
1,1,0.03937,0.11811,-0.01968*
1,1,0.03937,-0.11811,-0.01968*
1,1,0.03937,-0.11811,0.01968*
%
%ADD107ROUNDEDRECTD107*%
G04:AMPARAMS|DCode=108|XSize=78.74mil|YSize=275.59mil|CornerRadius=19.68mil|HoleSize=0mil|Usage=FLASHONLY|Rotation=180.000|XOffset=0mil|YOffset=0mil|HoleType=Round|Shape=RoundedRectangle|*
%AMROUNDEDRECTD108*
21,1,0.07874,0.23622,0,0,180.0*
21,1,0.03937,0.27559,0,0,180.0*
1,1,0.03937,-0.01968,0.11811*
1,1,0.03937,0.01968,0.11811*
1,1,0.03937,0.01968,-0.11811*
1,1,0.03937,-0.01968,-0.11811*
%
%ADD108ROUNDEDRECTD108*%
%ADD109C,0.02756*%
%ADD110C,0.07087*%
%ADD111R,0.07087X0.07087*%
%ADD112C,0.06000*%
%ADD113C,0.13386*%
%ADD114R,0.13386X0.13386*%
%ADD115R,0.14600X0.14600*%
%ADD116C,0.14600*%
%ADD117R,0.07087X0.07087*%
D106*
X-222500Y-119300D02*
D03*
X-473562D02*
D03*
X-732028D02*
D03*
X-722064Y-355593D02*
D03*
X-671525Y-354571D02*
D03*
X-12311Y-430639D02*
D03*
X-11811Y-11811D02*
D03*
X-258526Y-355486D02*
D03*
X-87617Y-430639D02*
D03*
X-914389Y-11811D02*
D03*
X-914389Y-430639D02*
D03*
X-528562Y-399075D02*
D03*
X-410452D02*
D03*
Y-300650D02*
D03*
X-528562D02*
D03*
D107*
X-45600Y-324550D02*
D03*
X-106230D02*
D03*
D108*
X-106427Y-249944D02*
D03*
X-45403D02*
D03*
D109*
X-522657Y-377618D02*
D03*
Y-322106D02*
D03*
D110*
X-324074Y-404980D02*
D03*
Y-345925D02*
D03*
X-339586Y-381358D02*
D03*
Y-369547D02*
D03*
Y-357736D02*
D03*
X-327775Y-393169D02*
D03*
Y-381358D02*
D03*
Y-369547D02*
D03*
Y-357736D02*
D03*
X-201790Y-147028D02*
D03*
X-213601D02*
D03*
X-225413D02*
D03*
X-236830D02*
D03*
X-177775Y-139311D02*
D03*
X-248641D02*
D03*
X-293621Y-147028D02*
D03*
X-305432D02*
D03*
X-317243D02*
D03*
X-328661D02*
D03*
X-269605Y-139311D02*
D03*
X-340472D02*
D03*
X-461633Y-147028D02*
D03*
X-473444D02*
D03*
X-485255D02*
D03*
X-496672D02*
D03*
X-437617Y-139311D02*
D03*
X-508483D02*
D03*
X-553759Y-147028D02*
D03*
X-565570D02*
D03*
X-577381D02*
D03*
X-588798D02*
D03*
X-529743Y-139311D02*
D03*
X-600609D02*
D03*
X-721476Y-147028D02*
D03*
X-733287D02*
D03*
X-745098D02*
D03*
X-756515D02*
D03*
X-697460Y-139311D02*
D03*
X-768326D02*
D03*
X-813601Y-147028D02*
D03*
X-825413D02*
D03*
X-837224D02*
D03*
X-848641D02*
D03*
X-789586Y-139311D02*
D03*
X-860452D02*
D03*
X-332594Y-310839D02*
D03*
X-344011Y-307138D02*
D03*
X-320389D02*
D03*
D111*
X-339586Y-393169D02*
D03*
D112*
X-32600Y-212050D02*
D03*
X-200900Y-27450D02*
D03*
X-101000Y-24750D02*
D03*
D113*
X-33000Y-68554D02*
D03*
Y-150050D02*
D03*
D114*
Y-28042D02*
D03*
Y-190562D02*
D03*
D115*
X-172780Y-414650D02*
D03*
X-857302Y-54587D02*
D03*
X-221594D02*
D03*
X-473562D02*
D03*
X-599546D02*
D03*
X-341672D02*
D03*
X-731318D02*
D03*
D116*
X-210300Y-414650D02*
D03*
X-819783Y-54587D02*
D03*
X-184074D02*
D03*
X-436042D02*
D03*
X-562027D02*
D03*
X-304153D02*
D03*
X-693798D02*
D03*
D117*
X-189980Y-147028D02*
D03*
X-281810D02*
D03*
X-449822D02*
D03*
X-541948D02*
D03*
X-709664D02*
D03*
X-801791D02*
D03*
X-332594Y-322650D02*
D03*
M02*
