G04*
G04 #@! TF.GenerationSoftware,Altium Limited,Altium Designer,20.0.11 (256)*
G04*
G04 Layer_Color=8388736*
%FSLAX25Y25*%
%MOIN*%
G70*
G01*
G75*
%ADD51R,0.07887X0.06312*%
%ADD52R,0.04737X0.19304*%
%ADD53R,0.41942X0.38595*%
%ADD54R,0.10052X0.21469*%
%ADD55R,0.04737X0.04737*%
%ADD56R,0.04537X0.04143*%
%ADD57R,0.04737X0.04737*%
%ADD58R,0.06902X0.14383*%
%ADD59R,0.04816X0.04265*%
%ADD60R,0.03556X0.03162*%
%ADD61O,0.02572X0.07099*%
%ADD62R,0.04147X0.04147*%
%ADD63R,0.04147X0.04147*%
%ADD64R,0.06981X0.06922*%
%ADD65R,0.08280X0.22060*%
%ADD66R,0.03162X0.06115*%
%ADD67R,0.06312X0.05524*%
%ADD68R,0.10642X0.07493*%
%ADD69R,0.02200X0.07400*%
%ADD70R,0.03950X0.03950*%
%ADD71R,0.07887X0.03950*%
%ADD72R,0.07099X0.01981*%
%ADD73O,0.07099X0.01981*%
%ADD74C,0.24422*%
%ADD75R,0.04143X0.04537*%
%ADD76R,0.06312X0.05328*%
%ADD77O,0.03162X0.08280*%
%ADD78O,0.03162X0.06509*%
%ADD79R,0.06509X0.02158*%
G04:AMPARAMS|DCode=80|XSize=31.62mil|YSize=47.37mil|CornerRadius=9.91mil|HoleSize=0mil|Usage=FLASHONLY|Rotation=0.000|XOffset=0mil|YOffset=0mil|HoleType=Round|Shape=RoundedRectangle|*
%AMROUNDEDRECTD80*
21,1,0.03162,0.02756,0,0,0.0*
21,1,0.01181,0.04737,0,0,0.0*
1,1,0.01981,0.00591,-0.01378*
1,1,0.01981,-0.00591,-0.01378*
1,1,0.01981,-0.00591,0.01378*
1,1,0.01981,0.00591,0.01378*
%
%ADD80ROUNDEDRECTD80*%
%ADD81R,0.03162X0.04737*%
%ADD82O,0.03162X0.09461*%
%ADD83R,0.06706X0.08083*%
%ADD84C,0.11430*%
G04:AMPARAMS|DCode=85|XSize=86.74mil|YSize=283.59mil|CornerRadius=23.68mil|HoleSize=0mil|Usage=FLASHONLY|Rotation=90.000|XOffset=0mil|YOffset=0mil|HoleType=Round|Shape=RoundedRectangle|*
%AMROUNDEDRECTD85*
21,1,0.08674,0.23622,0,0,90.0*
21,1,0.03937,0.28359,0,0,90.0*
1,1,0.04737,0.11811,0.01968*
1,1,0.04737,0.11811,-0.01968*
1,1,0.04737,-0.11811,-0.01968*
1,1,0.04737,-0.11811,0.01968*
%
%ADD85ROUNDEDRECTD85*%
G04:AMPARAMS|DCode=86|XSize=86.74mil|YSize=283.59mil|CornerRadius=23.68mil|HoleSize=0mil|Usage=FLASHONLY|Rotation=180.000|XOffset=0mil|YOffset=0mil|HoleType=Round|Shape=RoundedRectangle|*
%AMROUNDEDRECTD86*
21,1,0.08674,0.23622,0,0,180.0*
21,1,0.03937,0.28359,0,0,180.0*
1,1,0.04737,-0.01968,0.11811*
1,1,0.04737,0.01968,0.11811*
1,1,0.04737,0.01968,-0.11811*
1,1,0.04737,-0.01968,-0.11811*
%
%ADD86ROUNDEDRECTD86*%
%ADD87C,0.03556*%
%ADD88C,0.00800*%
%ADD89C,0.07887*%
%ADD90R,0.07887X0.07887*%
%ADD91C,0.06800*%
%ADD92C,0.14186*%
%ADD93R,0.14186X0.14186*%
%ADD94R,0.15400X0.15400*%
%ADD95C,0.15400*%
%ADD96R,0.07887X0.07887*%
D51*
X-142000Y-391937D02*
D03*
Y-402763D02*
D03*
D52*
X-101000Y-361083D02*
D03*
X-121000D02*
D03*
D53*
X-111000Y-400650D02*
D03*
D54*
X-136200Y-17550D02*
D03*
Y-52196D02*
D03*
D55*
X-115684Y-103858D02*
D03*
X-585649Y-281260D02*
D03*
X-634068Y-351345D02*
D03*
X-96178Y-121663D02*
D03*
X-718070Y-283917D02*
D03*
X-113501Y-213335D02*
D03*
X-829743Y-184508D02*
D03*
Y-176634D02*
D03*
X-886180Y-147496D02*
D03*
X-723070Y-202063D02*
D03*
X-700609Y-202264D02*
D03*
X-667519Y-217972D02*
D03*
X-680137Y-161378D02*
D03*
X-571869Y-187126D02*
D03*
X-437617Y-205571D02*
D03*
X-453759D02*
D03*
X-408287Y-216004D02*
D03*
X-422263Y-161378D02*
D03*
X-365158Y-216004D02*
D03*
X-313995Y-180768D02*
D03*
Y-188445D02*
D03*
X-158483Y-206161D02*
D03*
X-174232D02*
D03*
X-380924Y-143169D02*
D03*
X-886180Y-206551D02*
D03*
X-193916Y-206161D02*
D03*
X-624133Y-216693D02*
D03*
X-640767Y-143169D02*
D03*
X-169206Y-175654D02*
D03*
X-571869Y-178602D02*
D03*
D56*
X-578149Y-276339D02*
D03*
Y-281653D02*
D03*
X-83952Y-110037D02*
D03*
Y-115352D02*
D03*
X-18100Y-359993D02*
D03*
Y-365307D02*
D03*
X-70200Y-129950D02*
D03*
Y-135265D02*
D03*
X-176574Y-276339D02*
D03*
Y-281653D02*
D03*
X-248818Y-288150D02*
D03*
Y-293465D02*
D03*
X-319743Y-274370D02*
D03*
Y-279685D02*
D03*
X-303606Y-304942D02*
D03*
Y-310258D02*
D03*
X-444400Y-275544D02*
D03*
Y-280859D02*
D03*
X-507200Y-288102D02*
D03*
Y-293417D02*
D03*
X-578149Y-387264D02*
D03*
Y-392579D02*
D03*
X-603149Y-351331D02*
D03*
Y-346016D02*
D03*
X-613400Y-351093D02*
D03*
Y-356407D02*
D03*
X-707905Y-278307D02*
D03*
Y-283622D02*
D03*
X-768600Y-290702D02*
D03*
Y-296017D02*
D03*
X-823510Y-290702D02*
D03*
Y-296017D02*
D03*
X-833267Y-278307D02*
D03*
Y-283622D02*
D03*
Y-236378D02*
D03*
Y-231063D02*
D03*
X-823621Y-228504D02*
D03*
Y-223189D02*
D03*
X-841554Y-190874D02*
D03*
Y-196189D02*
D03*
X-660039Y-187126D02*
D03*
Y-192441D02*
D03*
X-668326Y-192382D02*
D03*
Y-187067D02*
D03*
X-583149Y-195630D02*
D03*
Y-200945D02*
D03*
X-623444Y-185787D02*
D03*
Y-191102D02*
D03*
X-506909Y-228504D02*
D03*
Y-223189D02*
D03*
X-447440Y-185468D02*
D03*
Y-180153D02*
D03*
X-400609Y-189724D02*
D03*
Y-195039D02*
D03*
X-408287D02*
D03*
Y-189724D02*
D03*
X-364290Y-190406D02*
D03*
Y-195721D02*
D03*
X-372165D02*
D03*
Y-190406D02*
D03*
X-319743Y-237657D02*
D03*
Y-232343D02*
D03*
X-303720Y-230472D02*
D03*
Y-225157D02*
D03*
X-189980Y-183524D02*
D03*
Y-178209D02*
D03*
X-248818Y-230472D02*
D03*
Y-225157D02*
D03*
X-150609Y-187165D02*
D03*
Y-181850D02*
D03*
X-578149Y-238355D02*
D03*
Y-233040D02*
D03*
X-630493Y-191102D02*
D03*
Y-185787D02*
D03*
X-143129Y-181850D02*
D03*
Y-187165D02*
D03*
X-564000Y-293317D02*
D03*
Y-288002D02*
D03*
X-563995Y-223189D02*
D03*
Y-228504D02*
D03*
X-768503D02*
D03*
Y-223189D02*
D03*
X-322066Y-195353D02*
D03*
Y-200668D02*
D03*
X-879153Y-177913D02*
D03*
Y-183228D02*
D03*
X-708139Y-178189D02*
D03*
Y-183504D02*
D03*
D57*
X-92700Y-176231D02*
D03*
D58*
X-105450Y-168845D02*
D03*
Y-145617D02*
D03*
D59*
X-51200Y-370087D02*
D03*
Y-357213D02*
D03*
X-26700Y-358613D02*
D03*
Y-371487D02*
D03*
D60*
X-78947Y-374550D02*
D03*
X-84853D02*
D03*
D61*
X-60361Y-357885D02*
D03*
X-62920D02*
D03*
X-65479D02*
D03*
X-68039D02*
D03*
X-60361Y-374815D02*
D03*
X-62920D02*
D03*
X-65479D02*
D03*
X-68039D02*
D03*
D62*
X-75500Y-363601D02*
D03*
Y-357499D02*
D03*
X-69273Y-185923D02*
D03*
Y-179821D02*
D03*
X-77730Y-136131D02*
D03*
Y-130029D02*
D03*
X-380924Y-345039D02*
D03*
Y-338937D02*
D03*
X-841554Y-228898D02*
D03*
Y-222795D02*
D03*
X-712227Y-238740D02*
D03*
Y-232638D02*
D03*
X-719507Y-238740D02*
D03*
Y-232638D02*
D03*
X-630493Y-129390D02*
D03*
Y-123287D02*
D03*
X-585649Y-231663D02*
D03*
Y-225561D02*
D03*
X-447854Y-237854D02*
D03*
Y-231752D02*
D03*
X-455727Y-237854D02*
D03*
Y-231752D02*
D03*
X-408680Y-130472D02*
D03*
Y-124370D02*
D03*
X-325806Y-228898D02*
D03*
Y-222795D02*
D03*
X-333680Y-228898D02*
D03*
Y-222795D02*
D03*
X-188011Y-236772D02*
D03*
Y-230669D02*
D03*
X-168955Y-155949D02*
D03*
Y-162051D02*
D03*
X-163602Y-140071D02*
D03*
Y-133969D02*
D03*
X-372165Y-130472D02*
D03*
Y-124370D02*
D03*
X-593149Y-231663D02*
D03*
Y-225561D02*
D03*
X-848641Y-228931D02*
D03*
Y-222829D02*
D03*
X-885983Y-124957D02*
D03*
Y-118854D02*
D03*
X-180924Y-236772D02*
D03*
Y-230669D02*
D03*
X-667440Y-134280D02*
D03*
Y-128177D02*
D03*
X-108913Y-102701D02*
D03*
Y-96599D02*
D03*
X-886102Y-184012D02*
D03*
Y-177910D02*
D03*
D63*
X-35598Y-386750D02*
D03*
X-41700D02*
D03*
X-360353Y-369547D02*
D03*
X-354251D02*
D03*
X-360468Y-382050D02*
D03*
X-354365D02*
D03*
X-303070Y-381358D02*
D03*
X-309172D02*
D03*
X-303070Y-369547D02*
D03*
X-309172D02*
D03*
X-303070Y-357736D02*
D03*
X-309172D02*
D03*
X-360353D02*
D03*
X-354251D02*
D03*
X-846318Y-280965D02*
D03*
X-840216D02*
D03*
X-846318Y-288839D02*
D03*
X-840216D02*
D03*
X-879881Y-137732D02*
D03*
X-885983D02*
D03*
X-661338Y-143600D02*
D03*
X-667440D02*
D03*
X-624391Y-143169D02*
D03*
X-630493D02*
D03*
X-624133Y-202224D02*
D03*
X-630235D02*
D03*
X-408287Y-204193D02*
D03*
X-402184D02*
D03*
X-402578Y-143169D02*
D03*
X-408680D02*
D03*
X-366062D02*
D03*
X-372165D02*
D03*
X-365158Y-204193D02*
D03*
X-371260D02*
D03*
X-149724Y-200256D02*
D03*
X-143621D02*
D03*
X-667440Y-202224D02*
D03*
X-661338D02*
D03*
X-69164Y-90150D02*
D03*
X-63062D02*
D03*
X-69087Y-104481D02*
D03*
X-62985D02*
D03*
D64*
X-39400Y-372989D02*
D03*
Y-357911D02*
D03*
D65*
X-34854Y-405550D02*
D03*
X-54146D02*
D03*
D66*
X-69500Y-394774D02*
D03*
X-73240Y-385326D02*
D03*
X-65760D02*
D03*
D67*
X-141804Y-375661D02*
D03*
Y-368574D02*
D03*
X-72570Y-197719D02*
D03*
Y-204805D02*
D03*
X-81061Y-193446D02*
D03*
Y-200533D02*
D03*
D68*
X-113501Y-195421D02*
D03*
X-97753D02*
D03*
D69*
X-69273Y-145924D02*
D03*
X-71832D02*
D03*
X-74391D02*
D03*
X-76950D02*
D03*
X-79509D02*
D03*
X-82068D02*
D03*
X-84627D02*
D03*
X-84627Y-168124D02*
D03*
X-82068D02*
D03*
X-79509D02*
D03*
X-76950D02*
D03*
X-74391D02*
D03*
X-71832D02*
D03*
X-69273D02*
D03*
D70*
X-77730Y-185726D02*
D03*
Y-179821D02*
D03*
X-380924Y-353799D02*
D03*
Y-359705D02*
D03*
D71*
X-516751Y-380571D02*
D03*
Y-319154D02*
D03*
D72*
X-509664Y-326240D02*
D03*
D73*
Y-328209D02*
D03*
Y-330177D02*
D03*
Y-332146D02*
D03*
Y-334114D02*
D03*
Y-336083D02*
D03*
Y-338051D02*
D03*
Y-340020D02*
D03*
Y-341988D02*
D03*
Y-343957D02*
D03*
Y-345925D02*
D03*
Y-347894D02*
D03*
Y-349862D02*
D03*
Y-351831D02*
D03*
Y-353799D02*
D03*
Y-355768D02*
D03*
Y-357736D02*
D03*
Y-359705D02*
D03*
Y-361673D02*
D03*
Y-363642D02*
D03*
Y-365610D02*
D03*
Y-367579D02*
D03*
Y-369547D02*
D03*
Y-371516D02*
D03*
Y-373484D02*
D03*
X-523838D02*
D03*
Y-371516D02*
D03*
Y-369547D02*
D03*
Y-367579D02*
D03*
Y-365610D02*
D03*
Y-363642D02*
D03*
Y-361673D02*
D03*
Y-359705D02*
D03*
Y-357736D02*
D03*
Y-355768D02*
D03*
Y-353799D02*
D03*
Y-351831D02*
D03*
Y-349862D02*
D03*
Y-347894D02*
D03*
Y-345925D02*
D03*
Y-343957D02*
D03*
Y-341988D02*
D03*
Y-340020D02*
D03*
Y-338051D02*
D03*
Y-336083D02*
D03*
Y-334114D02*
D03*
Y-332146D02*
D03*
Y-330177D02*
D03*
Y-328209D02*
D03*
Y-326240D02*
D03*
D74*
X-528247Y-300509D02*
D03*
X-410452Y-300650D02*
D03*
X-528562Y-399075D02*
D03*
X-410452D02*
D03*
D75*
X-295380Y-351548D02*
D03*
X-290065D02*
D03*
X-294583Y-363642D02*
D03*
X-289268D02*
D03*
X-294583Y-376102D02*
D03*
X-289268D02*
D03*
X-355117Y-350929D02*
D03*
X-360432D02*
D03*
X-391543Y-379900D02*
D03*
X-396858D02*
D03*
X-380925Y-391385D02*
D03*
X-386239D02*
D03*
X-537442Y-340020D02*
D03*
X-542758D02*
D03*
X-92007Y-89626D02*
D03*
X-86693D02*
D03*
X-704448Y-239118D02*
D03*
X-699133D02*
D03*
X-439389Y-237854D02*
D03*
X-434074D02*
D03*
X-172952Y-238347D02*
D03*
X-167637D02*
D03*
X-103856Y-111850D02*
D03*
X-109171D02*
D03*
X-886180Y-192772D02*
D03*
X-880865D02*
D03*
D76*
X-87158Y-128376D02*
D03*
Y-135265D02*
D03*
D77*
X-788621Y-238642D02*
D03*
X-793621D02*
D03*
X-798621D02*
D03*
X-803621D02*
D03*
X-808621D02*
D03*
X-813621D02*
D03*
X-818621D02*
D03*
X-823621D02*
D03*
X-788621Y-276043D02*
D03*
X-793621D02*
D03*
X-798621D02*
D03*
X-803621D02*
D03*
X-808621D02*
D03*
X-813621D02*
D03*
X-818621D02*
D03*
X-823621D02*
D03*
X-733503Y-238642D02*
D03*
X-738503D02*
D03*
X-743503D02*
D03*
X-748503D02*
D03*
X-753503D02*
D03*
X-758503D02*
D03*
X-763503D02*
D03*
X-768503D02*
D03*
X-733503Y-276043D02*
D03*
X-738503D02*
D03*
X-743503D02*
D03*
X-748503D02*
D03*
X-753503D02*
D03*
X-758503D02*
D03*
X-763503D02*
D03*
X-768503D02*
D03*
X-528779Y-238642D02*
D03*
X-533779D02*
D03*
X-538779D02*
D03*
X-543779D02*
D03*
X-548779D02*
D03*
X-553779D02*
D03*
X-558779D02*
D03*
X-563779D02*
D03*
X-528779Y-276043D02*
D03*
X-533779D02*
D03*
X-538779D02*
D03*
X-543779D02*
D03*
X-548779D02*
D03*
X-553779D02*
D03*
X-558779D02*
D03*
X-563779D02*
D03*
X-472224Y-238642D02*
D03*
X-477224D02*
D03*
X-482224D02*
D03*
X-487224D02*
D03*
X-492224D02*
D03*
X-497224D02*
D03*
X-502224D02*
D03*
X-507224D02*
D03*
X-472224Y-276043D02*
D03*
X-477224D02*
D03*
X-482224D02*
D03*
X-487224D02*
D03*
X-492224D02*
D03*
X-497224D02*
D03*
X-502224D02*
D03*
X-507224D02*
D03*
X-268720Y-240610D02*
D03*
X-273720D02*
D03*
X-278720D02*
D03*
X-283720D02*
D03*
X-288720D02*
D03*
X-293720D02*
D03*
X-298720D02*
D03*
X-303720D02*
D03*
X-268720Y-278012D02*
D03*
X-273720D02*
D03*
X-278720D02*
D03*
X-283720D02*
D03*
X-288720D02*
D03*
X-293720D02*
D03*
X-298720D02*
D03*
X-303720D02*
D03*
X-213800Y-240628D02*
D03*
X-218800D02*
D03*
X-223800D02*
D03*
X-228800D02*
D03*
X-233800D02*
D03*
X-238800D02*
D03*
X-243800D02*
D03*
X-248800D02*
D03*
X-213800Y-278030D02*
D03*
X-218800D02*
D03*
X-223800D02*
D03*
X-228800D02*
D03*
X-233800D02*
D03*
X-238800D02*
D03*
X-243800D02*
D03*
X-248800D02*
D03*
D78*
X-848267Y-268071D02*
D03*
X-843267D02*
D03*
X-838267D02*
D03*
X-833267D02*
D03*
X-848267Y-246614D02*
D03*
X-843267D02*
D03*
X-838267D02*
D03*
X-833267D02*
D03*
X-723070Y-268071D02*
D03*
X-718070D02*
D03*
X-713070D02*
D03*
X-708070D02*
D03*
X-723070Y-246614D02*
D03*
X-718070D02*
D03*
X-713070D02*
D03*
X-708070D02*
D03*
X-593149Y-268071D02*
D03*
X-588149D02*
D03*
X-583149D02*
D03*
X-578149D02*
D03*
X-593149Y-246614D02*
D03*
X-588149D02*
D03*
X-583149D02*
D03*
X-578149D02*
D03*
X-459291Y-268071D02*
D03*
X-454290D02*
D03*
X-449291D02*
D03*
X-444290D02*
D03*
X-459291Y-246614D02*
D03*
X-454290D02*
D03*
X-449291D02*
D03*
X-444290D02*
D03*
X-334743Y-266988D02*
D03*
X-329743D02*
D03*
X-324743D02*
D03*
X-319743D02*
D03*
X-334743Y-245532D02*
D03*
X-329743D02*
D03*
X-324743D02*
D03*
X-319743D02*
D03*
X-191968Y-268071D02*
D03*
X-186968D02*
D03*
X-181968D02*
D03*
X-176968D02*
D03*
X-191968Y-246614D02*
D03*
X-186968D02*
D03*
X-181968D02*
D03*
X-176968D02*
D03*
X-568149Y-358819D02*
D03*
X-573149D02*
D03*
X-578149D02*
D03*
X-583149D02*
D03*
X-588149D02*
D03*
X-593149D02*
D03*
X-598149D02*
D03*
X-603149D02*
D03*
X-568149Y-380276D02*
D03*
X-573149D02*
D03*
X-578149D02*
D03*
X-583149D02*
D03*
X-588149D02*
D03*
X-593149D02*
D03*
X-598149D02*
D03*
X-603149D02*
D03*
D79*
X-868017Y-182539D02*
D03*
Y-184508D02*
D03*
Y-186476D02*
D03*
Y-188445D02*
D03*
Y-190413D02*
D03*
X-850694Y-182539D02*
D03*
Y-184508D02*
D03*
Y-186476D02*
D03*
Y-188445D02*
D03*
Y-190413D02*
D03*
X-609271Y-186476D02*
D03*
Y-188445D02*
D03*
Y-190413D02*
D03*
Y-192382D02*
D03*
Y-194350D02*
D03*
X-591948Y-186476D02*
D03*
Y-188445D02*
D03*
Y-190413D02*
D03*
Y-192382D02*
D03*
Y-194350D02*
D03*
X-350216Y-186476D02*
D03*
Y-188445D02*
D03*
Y-190413D02*
D03*
Y-192382D02*
D03*
Y-194350D02*
D03*
X-332893Y-186476D02*
D03*
Y-188445D02*
D03*
Y-190413D02*
D03*
Y-192382D02*
D03*
Y-194350D02*
D03*
X-163602Y-192382D02*
D03*
Y-190413D02*
D03*
Y-188445D02*
D03*
Y-186476D02*
D03*
Y-184508D02*
D03*
X-180924Y-192382D02*
D03*
Y-190413D02*
D03*
Y-188445D02*
D03*
Y-186476D02*
D03*
Y-184508D02*
D03*
X-101075Y-95913D02*
D03*
Y-97882D02*
D03*
Y-99850D02*
D03*
Y-101819D02*
D03*
Y-103787D02*
D03*
X-83752Y-95913D02*
D03*
Y-97882D02*
D03*
Y-99850D02*
D03*
Y-101819D02*
D03*
Y-103787D02*
D03*
X-700609Y-184508D02*
D03*
Y-186476D02*
D03*
Y-188445D02*
D03*
Y-190413D02*
D03*
Y-192382D02*
D03*
X-683287Y-184508D02*
D03*
Y-186476D02*
D03*
Y-188445D02*
D03*
Y-190413D02*
D03*
Y-192382D02*
D03*
X-438798Y-186476D02*
D03*
Y-188445D02*
D03*
Y-190413D02*
D03*
Y-192382D02*
D03*
Y-194350D02*
D03*
X-421476Y-186476D02*
D03*
Y-188445D02*
D03*
Y-190413D02*
D03*
Y-192382D02*
D03*
Y-194350D02*
D03*
D80*
X-878503Y-167654D02*
D03*
X-885983D02*
D03*
Y-156827D02*
D03*
X-882243D02*
D03*
X-660039Y-172205D02*
D03*
X-667519D02*
D03*
Y-161378D02*
D03*
X-663779D02*
D03*
X-623444Y-172205D02*
D03*
X-630924D02*
D03*
Y-161378D02*
D03*
X-627184D02*
D03*
X-400806Y-172205D02*
D03*
X-408287D02*
D03*
Y-161378D02*
D03*
X-404546D02*
D03*
X-143129Y-172697D02*
D03*
X-150609D02*
D03*
Y-161870D02*
D03*
X-146869D02*
D03*
X-368031Y-161378D02*
D03*
X-371771D02*
D03*
Y-172205D02*
D03*
X-364290D02*
D03*
D81*
X-878503Y-156827D02*
D03*
X-660039Y-161378D02*
D03*
X-623444D02*
D03*
X-400806D02*
D03*
X-143129Y-161870D02*
D03*
X-364290Y-161378D02*
D03*
D82*
X-100982Y-78522D02*
D03*
X-95982D02*
D03*
X-90982D02*
D03*
X-85982D02*
D03*
X-100982Y-59625D02*
D03*
X-95982D02*
D03*
X-90982D02*
D03*
X-85982D02*
D03*
D83*
X-99717Y-37350D02*
D03*
X-89283D02*
D03*
X-99716Y-48417D02*
D03*
X-89283D02*
D03*
D84*
X-222500Y-119300D02*
D03*
X-473562D02*
D03*
X-732028D02*
D03*
X-722064Y-355593D02*
D03*
X-671525Y-354571D02*
D03*
X-12311Y-430639D02*
D03*
X-11811Y-11811D02*
D03*
X-258526Y-355486D02*
D03*
X-87617Y-430639D02*
D03*
X-914389Y-11811D02*
D03*
X-914389Y-430639D02*
D03*
X-528562Y-399075D02*
D03*
X-410452D02*
D03*
Y-300650D02*
D03*
X-528562D02*
D03*
D85*
X-45600Y-324550D02*
D03*
X-106230D02*
D03*
D86*
X-106427Y-249944D02*
D03*
X-45403D02*
D03*
D87*
X-522657Y-377618D02*
D03*
Y-322106D02*
D03*
D88*
X-528247Y-300509D02*
D03*
X-410452Y-300650D02*
D03*
X-528562Y-399075D02*
D03*
X-410452D02*
D03*
D89*
X-324074Y-404980D02*
D03*
Y-345925D02*
D03*
X-339586Y-381358D02*
D03*
Y-369547D02*
D03*
Y-357736D02*
D03*
X-327775Y-393169D02*
D03*
Y-381358D02*
D03*
Y-369547D02*
D03*
Y-357736D02*
D03*
X-201790Y-147028D02*
D03*
X-213601D02*
D03*
X-225413D02*
D03*
X-236830D02*
D03*
X-177775Y-139311D02*
D03*
X-248641D02*
D03*
X-293621Y-147028D02*
D03*
X-305432D02*
D03*
X-317243D02*
D03*
X-328661D02*
D03*
X-269605Y-139311D02*
D03*
X-340472D02*
D03*
X-461633Y-147028D02*
D03*
X-473444D02*
D03*
X-485255D02*
D03*
X-496672D02*
D03*
X-437617Y-139311D02*
D03*
X-508483D02*
D03*
X-553759Y-147028D02*
D03*
X-565570D02*
D03*
X-577381D02*
D03*
X-588798D02*
D03*
X-529743Y-139311D02*
D03*
X-600609D02*
D03*
X-721476Y-147028D02*
D03*
X-733287D02*
D03*
X-745098D02*
D03*
X-756515D02*
D03*
X-697460Y-139311D02*
D03*
X-768326D02*
D03*
X-813601Y-147028D02*
D03*
X-825413D02*
D03*
X-837224D02*
D03*
X-848641D02*
D03*
X-789586Y-139311D02*
D03*
X-860452D02*
D03*
X-332594Y-310839D02*
D03*
X-344011Y-307138D02*
D03*
X-320389D02*
D03*
D90*
X-339586Y-393169D02*
D03*
D91*
X-32600Y-212050D02*
D03*
X-200900Y-27450D02*
D03*
X-101000Y-24750D02*
D03*
D92*
X-33000Y-68554D02*
D03*
Y-150050D02*
D03*
D93*
Y-28042D02*
D03*
Y-190562D02*
D03*
D94*
X-172780Y-414650D02*
D03*
X-857302Y-54587D02*
D03*
X-221594D02*
D03*
X-473562D02*
D03*
X-599546D02*
D03*
X-341672D02*
D03*
X-731318D02*
D03*
D95*
X-210300Y-414650D02*
D03*
X-819783Y-54587D02*
D03*
X-184074D02*
D03*
X-436042D02*
D03*
X-562027D02*
D03*
X-304153D02*
D03*
X-693798D02*
D03*
D96*
X-189980Y-147028D02*
D03*
X-281810D02*
D03*
X-449822D02*
D03*
X-541948D02*
D03*
X-709664D02*
D03*
X-801791D02*
D03*
X-332594Y-322650D02*
D03*
M02*
