G04*
G04 #@! TF.GenerationSoftware,Altium Limited,Altium Designer,20.0.10 (225)*
G04*
G04 Layer_Color=65535*
%FSLAX25Y25*%
%MOIN*%
G70*
G01*
G75*
%ADD35C,0.00787*%
%ADD36C,0.01000*%
%ADD42C,0.00591*%
%ADD55C,0.00984*%
%ADD56C,0.02362*%
%ADD57C,0.00500*%
G36*
X281240Y-35737D02*
X280635D01*
Y-33457D01*
X280630Y-33462D01*
X280621Y-33471D01*
X280603Y-33485D01*
X280576Y-33507D01*
X280544Y-33535D01*
X280507Y-33562D01*
X280462Y-33594D01*
X280412Y-33630D01*
X280357Y-33667D01*
X280298Y-33703D01*
X280234Y-33744D01*
X280166Y-33780D01*
X280020Y-33849D01*
X279857Y-33912D01*
Y-33366D01*
X279861D01*
X279866Y-33362D01*
X279879Y-33357D01*
X279898Y-33353D01*
X279943Y-33330D01*
X280007Y-33303D01*
X280084Y-33266D01*
X280171Y-33216D01*
X280266Y-33152D01*
X280366Y-33080D01*
X280371Y-33075D01*
X280380Y-33070D01*
X280394Y-33057D01*
X280412Y-33039D01*
X280462Y-32993D01*
X280516Y-32934D01*
X280580Y-32861D01*
X280644Y-32770D01*
X280703Y-32675D01*
X280749Y-32570D01*
X281240D01*
Y-35737D01*
D02*
G37*
G36*
X277950Y-32593D02*
X278037Y-32597D01*
X278132Y-32602D01*
X278232Y-32616D01*
X278328Y-32629D01*
X278414Y-32652D01*
X278419D01*
X278428Y-32656D01*
X278442Y-32661D01*
X278460Y-32666D01*
X278514Y-32688D01*
X278578Y-32720D01*
X278651Y-32761D01*
X278733Y-32811D01*
X278810Y-32870D01*
X278888Y-32943D01*
X278892D01*
X278897Y-32952D01*
X278919Y-32980D01*
X278956Y-33025D01*
X278997Y-33084D01*
X279047Y-33157D01*
X279097Y-33243D01*
X279147Y-33343D01*
X279188Y-33453D01*
Y-33457D01*
X279192Y-33466D01*
X279197Y-33485D01*
X279206Y-33507D01*
X279211Y-33535D01*
X279220Y-33571D01*
X279229Y-33612D01*
X279242Y-33657D01*
X279252Y-33707D01*
X279261Y-33767D01*
X279270Y-33826D01*
X279274Y-33894D01*
X279288Y-34035D01*
X279292Y-34194D01*
Y-34199D01*
Y-34212D01*
Y-34231D01*
Y-34258D01*
X279288Y-34294D01*
Y-34331D01*
X279283Y-34376D01*
X279279Y-34426D01*
X279270Y-34531D01*
X279252Y-34640D01*
X279224Y-34754D01*
X279192Y-34863D01*
Y-34868D01*
X279188Y-34877D01*
X279179Y-34895D01*
X279170Y-34922D01*
X279160Y-34950D01*
X279142Y-34982D01*
X279106Y-35063D01*
X279060Y-35150D01*
X279001Y-35245D01*
X278933Y-35336D01*
X278856Y-35423D01*
X278847Y-35432D01*
X278824Y-35450D01*
X278787Y-35477D01*
X278737Y-35514D01*
X278674Y-35555D01*
X278601Y-35596D01*
X278510Y-35637D01*
X278410Y-35673D01*
X278405D01*
X278401Y-35678D01*
X278387D01*
X278373Y-35682D01*
X278323Y-35691D01*
X278260Y-35705D01*
X278182Y-35719D01*
X278087Y-35728D01*
X277973Y-35732D01*
X277850Y-35737D01*
X276658D01*
Y-32588D01*
X277914D01*
X277950Y-32593D01*
D02*
G37*
G36*
X276130Y-33121D02*
X274606D01*
Y-33867D01*
X275921D01*
Y-34399D01*
X274606D01*
Y-35737D01*
X273969D01*
Y-32588D01*
X276130D01*
Y-33121D01*
D02*
G37*
G36*
X135571Y-35737D02*
X134965D01*
Y-33457D01*
X134961Y-33462D01*
X134952Y-33471D01*
X134933Y-33485D01*
X134906Y-33507D01*
X134874Y-33535D01*
X134838Y-33562D01*
X134792Y-33594D01*
X134742Y-33630D01*
X134688Y-33667D01*
X134629Y-33703D01*
X134565Y-33744D01*
X134497Y-33780D01*
X134351Y-33849D01*
X134187Y-33912D01*
Y-33366D01*
X134192D01*
X134196Y-33362D01*
X134210Y-33357D01*
X134228Y-33353D01*
X134274Y-33330D01*
X134337Y-33303D01*
X134415Y-33266D01*
X134501Y-33216D01*
X134597Y-33152D01*
X134697Y-33080D01*
X134702Y-33075D01*
X134711Y-33070D01*
X134724Y-33057D01*
X134742Y-33039D01*
X134792Y-32993D01*
X134847Y-32934D01*
X134911Y-32861D01*
X134975Y-32770D01*
X135034Y-32675D01*
X135079Y-32570D01*
X135571D01*
Y-35737D01*
D02*
G37*
G36*
X132281Y-32593D02*
X132367Y-32597D01*
X132463Y-32602D01*
X132563Y-32616D01*
X132659Y-32629D01*
X132745Y-32652D01*
X132749D01*
X132759Y-32656D01*
X132772Y-32661D01*
X132791Y-32666D01*
X132845Y-32688D01*
X132909Y-32720D01*
X132982Y-32761D01*
X133063Y-32811D01*
X133141Y-32870D01*
X133218Y-32943D01*
X133223D01*
X133227Y-32952D01*
X133250Y-32980D01*
X133286Y-33025D01*
X133327Y-33084D01*
X133377Y-33157D01*
X133428Y-33243D01*
X133477Y-33343D01*
X133519Y-33453D01*
Y-33457D01*
X133523Y-33466D01*
X133528Y-33485D01*
X133537Y-33507D01*
X133541Y-33535D01*
X133550Y-33571D01*
X133559Y-33612D01*
X133573Y-33657D01*
X133582Y-33707D01*
X133591Y-33767D01*
X133600Y-33826D01*
X133605Y-33894D01*
X133619Y-34035D01*
X133623Y-34194D01*
Y-34199D01*
Y-34212D01*
Y-34231D01*
Y-34258D01*
X133619Y-34294D01*
Y-34331D01*
X133614Y-34376D01*
X133609Y-34426D01*
X133600Y-34531D01*
X133582Y-34640D01*
X133555Y-34754D01*
X133523Y-34863D01*
Y-34868D01*
X133519Y-34877D01*
X133509Y-34895D01*
X133500Y-34922D01*
X133491Y-34950D01*
X133473Y-34982D01*
X133437Y-35063D01*
X133391Y-35150D01*
X133332Y-35245D01*
X133264Y-35336D01*
X133186Y-35423D01*
X133177Y-35432D01*
X133154Y-35450D01*
X133118Y-35477D01*
X133068Y-35514D01*
X133004Y-35555D01*
X132931Y-35596D01*
X132841Y-35637D01*
X132740Y-35673D01*
X132736D01*
X132731Y-35678D01*
X132718D01*
X132704Y-35682D01*
X132654Y-35691D01*
X132590Y-35705D01*
X132513Y-35719D01*
X132417Y-35728D01*
X132304Y-35732D01*
X132181Y-35737D01*
X130989D01*
Y-32588D01*
X132245D01*
X132281Y-32593D01*
D02*
G37*
G36*
X130461Y-33121D02*
X128937D01*
Y-33867D01*
X130252D01*
Y-34399D01*
X128937D01*
Y-35737D01*
X128300D01*
Y-32588D01*
X130461D01*
Y-33121D01*
D02*
G37*
G36*
X207586Y-85956D02*
X207627Y-85960D01*
X207672Y-85965D01*
X207722Y-85974D01*
X207777Y-85983D01*
X207895Y-86015D01*
X208014Y-86060D01*
X208077Y-86088D01*
X208132Y-86120D01*
X208191Y-86160D01*
X208241Y-86206D01*
X208246Y-86211D01*
X208255Y-86215D01*
X208264Y-86233D01*
X208282Y-86251D01*
X208305Y-86274D01*
X208328Y-86306D01*
X208350Y-86338D01*
X208378Y-86379D01*
X208423Y-86470D01*
X208469Y-86575D01*
X208487Y-86634D01*
X208496Y-86697D01*
X208505Y-86766D01*
X208509Y-86834D01*
Y-86843D01*
Y-86870D01*
X208505Y-86911D01*
X208500Y-86961D01*
X208491Y-87025D01*
X208478Y-87093D01*
X208459Y-87166D01*
X208432Y-87239D01*
X208428Y-87248D01*
X208418Y-87271D01*
X208400Y-87312D01*
X208373Y-87362D01*
X208341Y-87421D01*
X208300Y-87489D01*
X208250Y-87562D01*
X208191Y-87639D01*
X208187Y-87644D01*
X208168Y-87666D01*
X208141Y-87698D01*
X208100Y-87744D01*
X208045Y-87798D01*
X207977Y-87871D01*
X207895Y-87949D01*
X207795Y-88044D01*
X207791Y-88049D01*
X207782Y-88053D01*
X207768Y-88067D01*
X207750Y-88085D01*
X207700Y-88131D01*
X207641Y-88185D01*
X207581Y-88244D01*
X207522Y-88304D01*
X207468Y-88354D01*
X207449Y-88376D01*
X207431Y-88394D01*
X207427Y-88399D01*
X207417Y-88408D01*
X207404Y-88426D01*
X207386Y-88449D01*
X207345Y-88499D01*
X207308Y-88558D01*
X208509D01*
Y-89118D01*
X206394D01*
Y-89113D01*
Y-89104D01*
X206398Y-89086D01*
X206403Y-89063D01*
X206407Y-89036D01*
X206412Y-89004D01*
X206430Y-88922D01*
X206457Y-88831D01*
X206494Y-88731D01*
X206539Y-88622D01*
X206598Y-88517D01*
Y-88513D01*
X206608Y-88504D01*
X206617Y-88485D01*
X206635Y-88467D01*
X206653Y-88435D01*
X206680Y-88404D01*
X206712Y-88363D01*
X206749Y-88317D01*
X206790Y-88262D01*
X206840Y-88208D01*
X206894Y-88144D01*
X206958Y-88076D01*
X207026Y-88008D01*
X207104Y-87930D01*
X207186Y-87849D01*
X207277Y-87762D01*
X207281Y-87757D01*
X207295Y-87744D01*
X207313Y-87726D01*
X207340Y-87698D01*
X207377Y-87671D01*
X207413Y-87635D01*
X207495Y-87553D01*
X207577Y-87466D01*
X207659Y-87380D01*
X207695Y-87343D01*
X207732Y-87303D01*
X207759Y-87271D01*
X207777Y-87243D01*
X207782Y-87234D01*
X207795Y-87212D01*
X207818Y-87175D01*
X207841Y-87125D01*
X207863Y-87070D01*
X207886Y-87007D01*
X207900Y-86943D01*
X207904Y-86875D01*
Y-86870D01*
Y-86866D01*
Y-86843D01*
X207900Y-86802D01*
X207891Y-86756D01*
X207877Y-86706D01*
X207859Y-86656D01*
X207832Y-86606D01*
X207795Y-86561D01*
X207791Y-86556D01*
X207777Y-86543D01*
X207750Y-86524D01*
X207718Y-86506D01*
X207672Y-86488D01*
X207622Y-86470D01*
X207563Y-86456D01*
X207495Y-86452D01*
X207463D01*
X207427Y-86456D01*
X207386Y-86465D01*
X207336Y-86479D01*
X207286Y-86502D01*
X207236Y-86529D01*
X207190Y-86565D01*
X207186Y-86570D01*
X207172Y-86588D01*
X207154Y-86615D01*
X207135Y-86656D01*
X207113Y-86706D01*
X207095Y-86775D01*
X207076Y-86852D01*
X207067Y-86943D01*
X206467Y-86884D01*
Y-86879D01*
X206471Y-86861D01*
Y-86838D01*
X206480Y-86802D01*
X206485Y-86761D01*
X206498Y-86716D01*
X206512Y-86665D01*
X206526Y-86606D01*
X206571Y-86493D01*
X206626Y-86374D01*
X206662Y-86315D01*
X206703Y-86260D01*
X206749Y-86215D01*
X206799Y-86169D01*
X206803Y-86165D01*
X206812Y-86160D01*
X206826Y-86151D01*
X206849Y-86133D01*
X206876Y-86120D01*
X206912Y-86101D01*
X206949Y-86079D01*
X206994Y-86060D01*
X207044Y-86038D01*
X207099Y-86019D01*
X207217Y-85983D01*
X207358Y-85960D01*
X207431Y-85956D01*
X207508Y-85951D01*
X207554D01*
X207586Y-85956D01*
D02*
G37*
G36*
X204724Y-85974D02*
X204810Y-85978D01*
X204906Y-85983D01*
X205006Y-85997D01*
X205102Y-86010D01*
X205188Y-86033D01*
X205193D01*
X205202Y-86038D01*
X205215Y-86042D01*
X205234Y-86047D01*
X205288Y-86069D01*
X205352Y-86101D01*
X205425Y-86142D01*
X205506Y-86192D01*
X205584Y-86251D01*
X205661Y-86324D01*
X205666D01*
X205670Y-86333D01*
X205693Y-86361D01*
X205730Y-86406D01*
X205770Y-86465D01*
X205820Y-86538D01*
X205871Y-86624D01*
X205921Y-86725D01*
X205961Y-86834D01*
Y-86838D01*
X205966Y-86848D01*
X205971Y-86866D01*
X205980Y-86888D01*
X205984Y-86916D01*
X205993Y-86952D01*
X206002Y-86993D01*
X206016Y-87039D01*
X206025Y-87089D01*
X206034Y-87148D01*
X206043Y-87207D01*
X206048Y-87275D01*
X206062Y-87416D01*
X206066Y-87576D01*
Y-87580D01*
Y-87594D01*
Y-87612D01*
Y-87639D01*
X206062Y-87676D01*
Y-87712D01*
X206057Y-87757D01*
X206052Y-87808D01*
X206043Y-87912D01*
X206025Y-88021D01*
X205998Y-88135D01*
X205966Y-88244D01*
Y-88249D01*
X205961Y-88258D01*
X205952Y-88276D01*
X205943Y-88304D01*
X205934Y-88331D01*
X205916Y-88363D01*
X205880Y-88445D01*
X205834Y-88531D01*
X205775Y-88626D01*
X205707Y-88718D01*
X205629Y-88804D01*
X205620Y-88813D01*
X205597Y-88831D01*
X205561Y-88859D01*
X205511Y-88895D01*
X205447Y-88936D01*
X205375Y-88977D01*
X205284Y-89018D01*
X205184Y-89054D01*
X205179D01*
X205174Y-89059D01*
X205161D01*
X205147Y-89063D01*
X205097Y-89072D01*
X205033Y-89086D01*
X204956Y-89100D01*
X204860Y-89109D01*
X204747Y-89113D01*
X204624Y-89118D01*
X203432D01*
Y-85969D01*
X204688D01*
X204724Y-85974D01*
D02*
G37*
G36*
X202904Y-86502D02*
X201380D01*
Y-87248D01*
X202695D01*
Y-87780D01*
X201380D01*
Y-89118D01*
X200743D01*
Y-85969D01*
X202904D01*
Y-86502D01*
D02*
G37*
G36*
X61917Y-85956D02*
X61958Y-85960D01*
X62003Y-85965D01*
X62053Y-85974D01*
X62108Y-85983D01*
X62226Y-86015D01*
X62344Y-86060D01*
X62408Y-86088D01*
X62463Y-86120D01*
X62522Y-86160D01*
X62572Y-86206D01*
X62576Y-86211D01*
X62585Y-86215D01*
X62594Y-86233D01*
X62613Y-86251D01*
X62635Y-86274D01*
X62658Y-86306D01*
X62681Y-86338D01*
X62708Y-86379D01*
X62754Y-86470D01*
X62799Y-86575D01*
X62817Y-86634D01*
X62827Y-86697D01*
X62836Y-86766D01*
X62840Y-86834D01*
Y-86843D01*
Y-86870D01*
X62836Y-86911D01*
X62831Y-86961D01*
X62822Y-87025D01*
X62808Y-87093D01*
X62790Y-87166D01*
X62763Y-87239D01*
X62758Y-87248D01*
X62749Y-87271D01*
X62731Y-87312D01*
X62704Y-87362D01*
X62672Y-87421D01*
X62631Y-87489D01*
X62581Y-87562D01*
X62522Y-87639D01*
X62517Y-87644D01*
X62499Y-87666D01*
X62472Y-87698D01*
X62431Y-87744D01*
X62376Y-87798D01*
X62308Y-87871D01*
X62226Y-87949D01*
X62126Y-88044D01*
X62121Y-88049D01*
X62112Y-88053D01*
X62098Y-88067D01*
X62080Y-88085D01*
X62030Y-88131D01*
X61971Y-88185D01*
X61912Y-88244D01*
X61853Y-88304D01*
X61798Y-88354D01*
X61780Y-88376D01*
X61762Y-88394D01*
X61757Y-88399D01*
X61748Y-88408D01*
X61734Y-88426D01*
X61716Y-88449D01*
X61675Y-88499D01*
X61639Y-88558D01*
X62840D01*
Y-89118D01*
X60724D01*
Y-89113D01*
Y-89104D01*
X60729Y-89086D01*
X60733Y-89063D01*
X60738Y-89036D01*
X60743Y-89004D01*
X60761Y-88922D01*
X60788Y-88831D01*
X60825Y-88731D01*
X60870Y-88622D01*
X60929Y-88517D01*
Y-88513D01*
X60938Y-88504D01*
X60947Y-88485D01*
X60966Y-88467D01*
X60984Y-88435D01*
X61011Y-88404D01*
X61043Y-88363D01*
X61079Y-88317D01*
X61120Y-88262D01*
X61170Y-88208D01*
X61225Y-88144D01*
X61289Y-88076D01*
X61357Y-88008D01*
X61434Y-87930D01*
X61516Y-87849D01*
X61607Y-87762D01*
X61612Y-87757D01*
X61625Y-87744D01*
X61643Y-87726D01*
X61671Y-87698D01*
X61707Y-87671D01*
X61744Y-87635D01*
X61826Y-87553D01*
X61907Y-87466D01*
X61989Y-87380D01*
X62026Y-87343D01*
X62062Y-87303D01*
X62089Y-87271D01*
X62108Y-87243D01*
X62112Y-87234D01*
X62126Y-87212D01*
X62149Y-87175D01*
X62171Y-87125D01*
X62194Y-87070D01*
X62217Y-87007D01*
X62230Y-86943D01*
X62235Y-86875D01*
Y-86870D01*
Y-86866D01*
Y-86843D01*
X62230Y-86802D01*
X62221Y-86756D01*
X62208Y-86706D01*
X62190Y-86656D01*
X62162Y-86606D01*
X62126Y-86561D01*
X62121Y-86556D01*
X62108Y-86543D01*
X62080Y-86524D01*
X62049Y-86506D01*
X62003Y-86488D01*
X61953Y-86470D01*
X61894Y-86456D01*
X61826Y-86452D01*
X61794D01*
X61757Y-86456D01*
X61716Y-86465D01*
X61666Y-86479D01*
X61616Y-86502D01*
X61566Y-86529D01*
X61521Y-86565D01*
X61516Y-86570D01*
X61502Y-86588D01*
X61484Y-86615D01*
X61466Y-86656D01*
X61443Y-86706D01*
X61425Y-86775D01*
X61407Y-86852D01*
X61398Y-86943D01*
X60797Y-86884D01*
Y-86879D01*
X60802Y-86861D01*
Y-86838D01*
X60811Y-86802D01*
X60815Y-86761D01*
X60829Y-86716D01*
X60843Y-86665D01*
X60856Y-86606D01*
X60902Y-86493D01*
X60957Y-86374D01*
X60993Y-86315D01*
X61034Y-86260D01*
X61079Y-86215D01*
X61129Y-86169D01*
X61134Y-86165D01*
X61143Y-86160D01*
X61157Y-86151D01*
X61179Y-86133D01*
X61207Y-86120D01*
X61243Y-86101D01*
X61279Y-86079D01*
X61325Y-86060D01*
X61375Y-86038D01*
X61430Y-86019D01*
X61548Y-85983D01*
X61689Y-85960D01*
X61762Y-85956D01*
X61839Y-85951D01*
X61885D01*
X61917Y-85956D01*
D02*
G37*
G36*
X59055Y-85974D02*
X59141Y-85978D01*
X59237Y-85983D01*
X59337Y-85997D01*
X59432Y-86010D01*
X59519Y-86033D01*
X59523D01*
X59532Y-86038D01*
X59546Y-86042D01*
X59564Y-86047D01*
X59619Y-86069D01*
X59683Y-86101D01*
X59755Y-86142D01*
X59837Y-86192D01*
X59914Y-86251D01*
X59992Y-86324D01*
X59996D01*
X60001Y-86333D01*
X60024Y-86361D01*
X60060Y-86406D01*
X60101Y-86465D01*
X60151Y-86538D01*
X60201Y-86624D01*
X60251Y-86725D01*
X60292Y-86834D01*
Y-86838D01*
X60297Y-86848D01*
X60301Y-86866D01*
X60310Y-86888D01*
X60315Y-86916D01*
X60324Y-86952D01*
X60333Y-86993D01*
X60347Y-87039D01*
X60356Y-87089D01*
X60365Y-87148D01*
X60374Y-87207D01*
X60379Y-87275D01*
X60392Y-87416D01*
X60397Y-87576D01*
Y-87580D01*
Y-87594D01*
Y-87612D01*
Y-87639D01*
X60392Y-87676D01*
Y-87712D01*
X60388Y-87757D01*
X60383Y-87808D01*
X60374Y-87912D01*
X60356Y-88021D01*
X60329Y-88135D01*
X60297Y-88244D01*
Y-88249D01*
X60292Y-88258D01*
X60283Y-88276D01*
X60274Y-88304D01*
X60265Y-88331D01*
X60247Y-88363D01*
X60210Y-88445D01*
X60165Y-88531D01*
X60106Y-88626D01*
X60037Y-88718D01*
X59960Y-88804D01*
X59951Y-88813D01*
X59928Y-88831D01*
X59892Y-88859D01*
X59842Y-88895D01*
X59778Y-88936D01*
X59705Y-88977D01*
X59614Y-89018D01*
X59514Y-89054D01*
X59510D01*
X59505Y-89059D01*
X59491D01*
X59478Y-89063D01*
X59428Y-89072D01*
X59364Y-89086D01*
X59287Y-89100D01*
X59191Y-89109D01*
X59077Y-89113D01*
X58955Y-89118D01*
X57762D01*
Y-85969D01*
X59018D01*
X59055Y-85974D01*
D02*
G37*
G36*
X57235Y-86502D02*
X55710D01*
Y-87248D01*
X57025D01*
Y-87780D01*
X55710D01*
Y-89118D01*
X55073D01*
Y-85969D01*
X57235D01*
Y-86502D01*
D02*
G37*
G36*
X281240Y-161721D02*
X280635D01*
Y-159441D01*
X280630Y-159446D01*
X280621Y-159455D01*
X280603Y-159469D01*
X280576Y-159492D01*
X280544Y-159519D01*
X280507Y-159546D01*
X280462Y-159578D01*
X280412Y-159614D01*
X280357Y-159651D01*
X280298Y-159687D01*
X280234Y-159728D01*
X280166Y-159765D01*
X280020Y-159833D01*
X279857Y-159897D01*
Y-159351D01*
X279861D01*
X279866Y-159346D01*
X279879Y-159341D01*
X279898Y-159337D01*
X279943Y-159314D01*
X280007Y-159287D01*
X280084Y-159250D01*
X280171Y-159200D01*
X280266Y-159137D01*
X280366Y-159064D01*
X280371Y-159059D01*
X280380Y-159055D01*
X280394Y-159041D01*
X280412Y-159023D01*
X280462Y-158977D01*
X280516Y-158918D01*
X280580Y-158845D01*
X280644Y-158755D01*
X280703Y-158659D01*
X280749Y-158554D01*
X281240D01*
Y-161721D01*
D02*
G37*
G36*
X277950Y-158577D02*
X278037Y-158582D01*
X278132Y-158586D01*
X278232Y-158600D01*
X278328Y-158613D01*
X278414Y-158636D01*
X278419D01*
X278428Y-158641D01*
X278442Y-158645D01*
X278460Y-158650D01*
X278514Y-158673D01*
X278578Y-158704D01*
X278651Y-158745D01*
X278733Y-158795D01*
X278810Y-158855D01*
X278888Y-158927D01*
X278892D01*
X278897Y-158937D01*
X278919Y-158964D01*
X278956Y-159009D01*
X278997Y-159068D01*
X279047Y-159141D01*
X279097Y-159228D01*
X279147Y-159328D01*
X279188Y-159437D01*
Y-159441D01*
X279192Y-159451D01*
X279197Y-159469D01*
X279206Y-159492D01*
X279211Y-159519D01*
X279220Y-159555D01*
X279229Y-159596D01*
X279242Y-159642D01*
X279252Y-159692D01*
X279261Y-159751D01*
X279270Y-159810D01*
X279274Y-159878D01*
X279288Y-160019D01*
X279292Y-160179D01*
Y-160183D01*
Y-160197D01*
Y-160215D01*
Y-160242D01*
X279288Y-160279D01*
Y-160315D01*
X279283Y-160361D01*
X279279Y-160411D01*
X279270Y-160515D01*
X279252Y-160625D01*
X279224Y-160738D01*
X279192Y-160847D01*
Y-160852D01*
X279188Y-160861D01*
X279179Y-160879D01*
X279170Y-160907D01*
X279160Y-160934D01*
X279142Y-160966D01*
X279106Y-161048D01*
X279060Y-161134D01*
X279001Y-161230D01*
X278933Y-161321D01*
X278856Y-161407D01*
X278847Y-161416D01*
X278824Y-161434D01*
X278787Y-161462D01*
X278737Y-161498D01*
X278674Y-161539D01*
X278601Y-161580D01*
X278510Y-161621D01*
X278410Y-161657D01*
X278405D01*
X278401Y-161662D01*
X278387D01*
X278373Y-161667D01*
X278323Y-161676D01*
X278260Y-161689D01*
X278182Y-161703D01*
X278087Y-161712D01*
X277973Y-161716D01*
X277850Y-161721D01*
X276658D01*
Y-158572D01*
X277914D01*
X277950Y-158577D01*
D02*
G37*
G36*
X276130Y-159105D02*
X274606D01*
Y-159851D01*
X275921D01*
Y-160383D01*
X274606D01*
Y-161721D01*
X273969D01*
Y-158572D01*
X276130D01*
Y-159105D01*
D02*
G37*
G36*
X135571Y-161721D02*
X134965D01*
Y-159441D01*
X134961Y-159446D01*
X134952Y-159455D01*
X134933Y-159469D01*
X134906Y-159492D01*
X134874Y-159519D01*
X134838Y-159546D01*
X134792Y-159578D01*
X134742Y-159614D01*
X134688Y-159651D01*
X134629Y-159687D01*
X134565Y-159728D01*
X134497Y-159765D01*
X134351Y-159833D01*
X134187Y-159897D01*
Y-159351D01*
X134192D01*
X134196Y-159346D01*
X134210Y-159341D01*
X134228Y-159337D01*
X134274Y-159314D01*
X134337Y-159287D01*
X134415Y-159250D01*
X134501Y-159200D01*
X134597Y-159137D01*
X134697Y-159064D01*
X134702Y-159059D01*
X134711Y-159055D01*
X134724Y-159041D01*
X134742Y-159023D01*
X134792Y-158977D01*
X134847Y-158918D01*
X134911Y-158845D01*
X134975Y-158755D01*
X135034Y-158659D01*
X135079Y-158554D01*
X135571D01*
Y-161721D01*
D02*
G37*
G36*
X132281Y-158577D02*
X132367Y-158582D01*
X132463Y-158586D01*
X132563Y-158600D01*
X132659Y-158613D01*
X132745Y-158636D01*
X132749D01*
X132759Y-158641D01*
X132772Y-158645D01*
X132791Y-158650D01*
X132845Y-158673D01*
X132909Y-158704D01*
X132982Y-158745D01*
X133063Y-158795D01*
X133141Y-158855D01*
X133218Y-158927D01*
X133223D01*
X133227Y-158937D01*
X133250Y-158964D01*
X133286Y-159009D01*
X133327Y-159068D01*
X133377Y-159141D01*
X133428Y-159228D01*
X133477Y-159328D01*
X133519Y-159437D01*
Y-159441D01*
X133523Y-159451D01*
X133528Y-159469D01*
X133537Y-159492D01*
X133541Y-159519D01*
X133550Y-159555D01*
X133559Y-159596D01*
X133573Y-159642D01*
X133582Y-159692D01*
X133591Y-159751D01*
X133600Y-159810D01*
X133605Y-159878D01*
X133619Y-160019D01*
X133623Y-160179D01*
Y-160183D01*
Y-160197D01*
Y-160215D01*
Y-160242D01*
X133619Y-160279D01*
Y-160315D01*
X133614Y-160361D01*
X133609Y-160411D01*
X133600Y-160515D01*
X133582Y-160625D01*
X133555Y-160738D01*
X133523Y-160847D01*
Y-160852D01*
X133519Y-160861D01*
X133509Y-160879D01*
X133500Y-160907D01*
X133491Y-160934D01*
X133473Y-160966D01*
X133437Y-161048D01*
X133391Y-161134D01*
X133332Y-161230D01*
X133264Y-161321D01*
X133186Y-161407D01*
X133177Y-161416D01*
X133154Y-161434D01*
X133118Y-161462D01*
X133068Y-161498D01*
X133004Y-161539D01*
X132931Y-161580D01*
X132841Y-161621D01*
X132740Y-161657D01*
X132736D01*
X132731Y-161662D01*
X132718D01*
X132704Y-161667D01*
X132654Y-161676D01*
X132590Y-161689D01*
X132513Y-161703D01*
X132417Y-161712D01*
X132304Y-161716D01*
X132181Y-161721D01*
X130989D01*
Y-158572D01*
X132245D01*
X132281Y-158577D01*
D02*
G37*
G36*
X130461Y-159105D02*
X128937D01*
Y-159851D01*
X130252D01*
Y-160383D01*
X128937D01*
Y-161721D01*
X128300D01*
Y-158572D01*
X130461D01*
Y-159105D01*
D02*
G37*
G36*
X207586Y-211940D02*
X207627Y-211945D01*
X207672Y-211949D01*
X207722Y-211958D01*
X207777Y-211967D01*
X207895Y-211999D01*
X208014Y-212045D01*
X208077Y-212072D01*
X208132Y-212104D01*
X208191Y-212145D01*
X208241Y-212190D01*
X208246Y-212195D01*
X208255Y-212199D01*
X208264Y-212217D01*
X208282Y-212236D01*
X208305Y-212259D01*
X208328Y-212290D01*
X208350Y-212322D01*
X208378Y-212363D01*
X208423Y-212454D01*
X208469Y-212559D01*
X208487Y-212618D01*
X208496Y-212682D01*
X208505Y-212750D01*
X208509Y-212818D01*
Y-212827D01*
Y-212855D01*
X208505Y-212895D01*
X208500Y-212946D01*
X208491Y-213009D01*
X208478Y-213077D01*
X208459Y-213150D01*
X208432Y-213223D01*
X208428Y-213232D01*
X208418Y-213255D01*
X208400Y-213296D01*
X208373Y-213346D01*
X208341Y-213405D01*
X208300Y-213473D01*
X208250Y-213546D01*
X208191Y-213623D01*
X208187Y-213628D01*
X208168Y-213651D01*
X208141Y-213683D01*
X208100Y-213728D01*
X208045Y-213783D01*
X207977Y-213856D01*
X207895Y-213933D01*
X207795Y-214029D01*
X207791Y-214033D01*
X207782Y-214038D01*
X207768Y-214051D01*
X207750Y-214069D01*
X207700Y-214115D01*
X207641Y-214170D01*
X207581Y-214229D01*
X207522Y-214288D01*
X207468Y-214338D01*
X207449Y-214361D01*
X207431Y-214379D01*
X207427Y-214383D01*
X207417Y-214392D01*
X207404Y-214411D01*
X207386Y-214433D01*
X207345Y-214483D01*
X207308Y-214543D01*
X208509D01*
Y-215102D01*
X206394D01*
Y-215098D01*
Y-215089D01*
X206398Y-215070D01*
X206403Y-215048D01*
X206407Y-215020D01*
X206412Y-214988D01*
X206430Y-214907D01*
X206457Y-214816D01*
X206494Y-214716D01*
X206539Y-214606D01*
X206598Y-214502D01*
Y-214497D01*
X206608Y-214488D01*
X206617Y-214470D01*
X206635Y-214452D01*
X206653Y-214420D01*
X206680Y-214388D01*
X206712Y-214347D01*
X206749Y-214301D01*
X206790Y-214247D01*
X206840Y-214192D01*
X206894Y-214128D01*
X206958Y-214060D01*
X207026Y-213992D01*
X207104Y-213915D01*
X207186Y-213833D01*
X207277Y-213746D01*
X207281Y-213742D01*
X207295Y-213728D01*
X207313Y-213710D01*
X207340Y-213683D01*
X207377Y-213655D01*
X207413Y-213619D01*
X207495Y-213537D01*
X207577Y-213451D01*
X207659Y-213364D01*
X207695Y-213328D01*
X207732Y-213287D01*
X207759Y-213255D01*
X207777Y-213228D01*
X207782Y-213219D01*
X207795Y-213196D01*
X207818Y-213159D01*
X207841Y-213109D01*
X207863Y-213055D01*
X207886Y-212991D01*
X207900Y-212927D01*
X207904Y-212859D01*
Y-212855D01*
Y-212850D01*
Y-212827D01*
X207900Y-212786D01*
X207891Y-212741D01*
X207877Y-212691D01*
X207859Y-212641D01*
X207832Y-212591D01*
X207795Y-212545D01*
X207791Y-212541D01*
X207777Y-212527D01*
X207750Y-212509D01*
X207718Y-212491D01*
X207672Y-212472D01*
X207622Y-212454D01*
X207563Y-212440D01*
X207495Y-212436D01*
X207463D01*
X207427Y-212440D01*
X207386Y-212450D01*
X207336Y-212463D01*
X207286Y-212486D01*
X207236Y-212513D01*
X207190Y-212550D01*
X207186Y-212554D01*
X207172Y-212572D01*
X207154Y-212600D01*
X207135Y-212641D01*
X207113Y-212691D01*
X207095Y-212759D01*
X207076Y-212836D01*
X207067Y-212927D01*
X206467Y-212868D01*
Y-212864D01*
X206471Y-212845D01*
Y-212823D01*
X206480Y-212786D01*
X206485Y-212745D01*
X206498Y-212700D01*
X206512Y-212650D01*
X206526Y-212591D01*
X206571Y-212477D01*
X206626Y-212359D01*
X206662Y-212299D01*
X206703Y-212245D01*
X206749Y-212199D01*
X206799Y-212154D01*
X206803Y-212149D01*
X206812Y-212145D01*
X206826Y-212136D01*
X206849Y-212118D01*
X206876Y-212104D01*
X206912Y-212086D01*
X206949Y-212063D01*
X206994Y-212045D01*
X207044Y-212022D01*
X207099Y-212004D01*
X207217Y-211967D01*
X207358Y-211945D01*
X207431Y-211940D01*
X207508Y-211935D01*
X207554D01*
X207586Y-211940D01*
D02*
G37*
G36*
X204724Y-211958D02*
X204810Y-211963D01*
X204906Y-211967D01*
X205006Y-211981D01*
X205102Y-211995D01*
X205188Y-212017D01*
X205193D01*
X205202Y-212022D01*
X205215Y-212027D01*
X205234Y-212031D01*
X205288Y-212054D01*
X205352Y-212086D01*
X205425Y-212126D01*
X205506Y-212177D01*
X205584Y-212236D01*
X205661Y-212309D01*
X205666D01*
X205670Y-212318D01*
X205693Y-212345D01*
X205730Y-212390D01*
X205770Y-212450D01*
X205820Y-212522D01*
X205871Y-212609D01*
X205921Y-212709D01*
X205961Y-212818D01*
Y-212823D01*
X205966Y-212832D01*
X205971Y-212850D01*
X205980Y-212873D01*
X205984Y-212900D01*
X205993Y-212936D01*
X206002Y-212977D01*
X206016Y-213023D01*
X206025Y-213073D01*
X206034Y-213132D01*
X206043Y-213191D01*
X206048Y-213260D01*
X206062Y-213401D01*
X206066Y-213560D01*
Y-213564D01*
Y-213578D01*
Y-213596D01*
Y-213623D01*
X206062Y-213660D01*
Y-213696D01*
X206057Y-213742D01*
X206052Y-213792D01*
X206043Y-213896D01*
X206025Y-214006D01*
X205998Y-214120D01*
X205966Y-214229D01*
Y-214233D01*
X205961Y-214242D01*
X205952Y-214261D01*
X205943Y-214288D01*
X205934Y-214315D01*
X205916Y-214347D01*
X205880Y-214429D01*
X205834Y-214515D01*
X205775Y-214611D01*
X205707Y-214702D01*
X205629Y-214788D01*
X205620Y-214797D01*
X205597Y-214816D01*
X205561Y-214843D01*
X205511Y-214879D01*
X205447Y-214920D01*
X205375Y-214961D01*
X205284Y-215002D01*
X205184Y-215038D01*
X205179D01*
X205174Y-215043D01*
X205161D01*
X205147Y-215048D01*
X205097Y-215057D01*
X205033Y-215070D01*
X204956Y-215084D01*
X204860Y-215093D01*
X204747Y-215098D01*
X204624Y-215102D01*
X203432D01*
Y-211954D01*
X204688D01*
X204724Y-211958D01*
D02*
G37*
G36*
X202904Y-212486D02*
X201380D01*
Y-213232D01*
X202695D01*
Y-213765D01*
X201380D01*
Y-215102D01*
X200743D01*
Y-211954D01*
X202904D01*
Y-212486D01*
D02*
G37*
G36*
X61917Y-211940D02*
X61958Y-211945D01*
X62003Y-211949D01*
X62053Y-211958D01*
X62108Y-211967D01*
X62226Y-211999D01*
X62344Y-212045D01*
X62408Y-212072D01*
X62463Y-212104D01*
X62522Y-212145D01*
X62572Y-212190D01*
X62576Y-212195D01*
X62585Y-212199D01*
X62594Y-212217D01*
X62613Y-212236D01*
X62635Y-212259D01*
X62658Y-212290D01*
X62681Y-212322D01*
X62708Y-212363D01*
X62754Y-212454D01*
X62799Y-212559D01*
X62817Y-212618D01*
X62827Y-212682D01*
X62836Y-212750D01*
X62840Y-212818D01*
Y-212827D01*
Y-212855D01*
X62836Y-212895D01*
X62831Y-212946D01*
X62822Y-213009D01*
X62808Y-213077D01*
X62790Y-213150D01*
X62763Y-213223D01*
X62758Y-213232D01*
X62749Y-213255D01*
X62731Y-213296D01*
X62704Y-213346D01*
X62672Y-213405D01*
X62631Y-213473D01*
X62581Y-213546D01*
X62522Y-213623D01*
X62517Y-213628D01*
X62499Y-213651D01*
X62472Y-213683D01*
X62431Y-213728D01*
X62376Y-213783D01*
X62308Y-213856D01*
X62226Y-213933D01*
X62126Y-214029D01*
X62121Y-214033D01*
X62112Y-214038D01*
X62098Y-214051D01*
X62080Y-214069D01*
X62030Y-214115D01*
X61971Y-214170D01*
X61912Y-214229D01*
X61853Y-214288D01*
X61798Y-214338D01*
X61780Y-214361D01*
X61762Y-214379D01*
X61757Y-214383D01*
X61748Y-214392D01*
X61734Y-214411D01*
X61716Y-214433D01*
X61675Y-214483D01*
X61639Y-214543D01*
X62840D01*
Y-215102D01*
X60724D01*
Y-215098D01*
Y-215089D01*
X60729Y-215070D01*
X60733Y-215048D01*
X60738Y-215020D01*
X60743Y-214988D01*
X60761Y-214907D01*
X60788Y-214816D01*
X60825Y-214716D01*
X60870Y-214606D01*
X60929Y-214502D01*
Y-214497D01*
X60938Y-214488D01*
X60947Y-214470D01*
X60966Y-214452D01*
X60984Y-214420D01*
X61011Y-214388D01*
X61043Y-214347D01*
X61079Y-214301D01*
X61120Y-214247D01*
X61170Y-214192D01*
X61225Y-214128D01*
X61289Y-214060D01*
X61357Y-213992D01*
X61434Y-213915D01*
X61516Y-213833D01*
X61607Y-213746D01*
X61612Y-213742D01*
X61625Y-213728D01*
X61643Y-213710D01*
X61671Y-213683D01*
X61707Y-213655D01*
X61744Y-213619D01*
X61826Y-213537D01*
X61907Y-213451D01*
X61989Y-213364D01*
X62026Y-213328D01*
X62062Y-213287D01*
X62089Y-213255D01*
X62108Y-213228D01*
X62112Y-213219D01*
X62126Y-213196D01*
X62149Y-213159D01*
X62171Y-213109D01*
X62194Y-213055D01*
X62217Y-212991D01*
X62230Y-212927D01*
X62235Y-212859D01*
Y-212855D01*
Y-212850D01*
Y-212827D01*
X62230Y-212786D01*
X62221Y-212741D01*
X62208Y-212691D01*
X62190Y-212641D01*
X62162Y-212591D01*
X62126Y-212545D01*
X62121Y-212541D01*
X62108Y-212527D01*
X62080Y-212509D01*
X62049Y-212491D01*
X62003Y-212472D01*
X61953Y-212454D01*
X61894Y-212440D01*
X61826Y-212436D01*
X61794D01*
X61757Y-212440D01*
X61716Y-212450D01*
X61666Y-212463D01*
X61616Y-212486D01*
X61566Y-212513D01*
X61521Y-212550D01*
X61516Y-212554D01*
X61502Y-212572D01*
X61484Y-212600D01*
X61466Y-212641D01*
X61443Y-212691D01*
X61425Y-212759D01*
X61407Y-212836D01*
X61398Y-212927D01*
X60797Y-212868D01*
Y-212864D01*
X60802Y-212845D01*
Y-212823D01*
X60811Y-212786D01*
X60815Y-212745D01*
X60829Y-212700D01*
X60843Y-212650D01*
X60856Y-212591D01*
X60902Y-212477D01*
X60957Y-212359D01*
X60993Y-212299D01*
X61034Y-212245D01*
X61079Y-212199D01*
X61129Y-212154D01*
X61134Y-212149D01*
X61143Y-212145D01*
X61157Y-212136D01*
X61179Y-212118D01*
X61207Y-212104D01*
X61243Y-212086D01*
X61279Y-212063D01*
X61325Y-212045D01*
X61375Y-212022D01*
X61430Y-212004D01*
X61548Y-211967D01*
X61689Y-211945D01*
X61762Y-211940D01*
X61839Y-211935D01*
X61885D01*
X61917Y-211940D01*
D02*
G37*
G36*
X59055Y-211958D02*
X59141Y-211963D01*
X59237Y-211967D01*
X59337Y-211981D01*
X59432Y-211995D01*
X59519Y-212017D01*
X59523D01*
X59532Y-212022D01*
X59546Y-212027D01*
X59564Y-212031D01*
X59619Y-212054D01*
X59683Y-212086D01*
X59755Y-212126D01*
X59837Y-212177D01*
X59914Y-212236D01*
X59992Y-212309D01*
X59996D01*
X60001Y-212318D01*
X60024Y-212345D01*
X60060Y-212390D01*
X60101Y-212450D01*
X60151Y-212522D01*
X60201Y-212609D01*
X60251Y-212709D01*
X60292Y-212818D01*
Y-212823D01*
X60297Y-212832D01*
X60301Y-212850D01*
X60310Y-212873D01*
X60315Y-212900D01*
X60324Y-212936D01*
X60333Y-212977D01*
X60347Y-213023D01*
X60356Y-213073D01*
X60365Y-213132D01*
X60374Y-213191D01*
X60379Y-213260D01*
X60392Y-213401D01*
X60397Y-213560D01*
Y-213564D01*
Y-213578D01*
Y-213596D01*
Y-213623D01*
X60392Y-213660D01*
Y-213696D01*
X60388Y-213742D01*
X60383Y-213792D01*
X60374Y-213896D01*
X60356Y-214006D01*
X60329Y-214120D01*
X60297Y-214229D01*
Y-214233D01*
X60292Y-214242D01*
X60283Y-214261D01*
X60274Y-214288D01*
X60265Y-214315D01*
X60247Y-214347D01*
X60210Y-214429D01*
X60165Y-214515D01*
X60106Y-214611D01*
X60037Y-214702D01*
X59960Y-214788D01*
X59951Y-214797D01*
X59928Y-214816D01*
X59892Y-214843D01*
X59842Y-214879D01*
X59778Y-214920D01*
X59705Y-214961D01*
X59614Y-215002D01*
X59514Y-215038D01*
X59510D01*
X59505Y-215043D01*
X59491D01*
X59478Y-215048D01*
X59428Y-215057D01*
X59364Y-215070D01*
X59287Y-215084D01*
X59191Y-215093D01*
X59077Y-215098D01*
X58955Y-215102D01*
X57762D01*
Y-211954D01*
X59018D01*
X59055Y-211958D01*
D02*
G37*
G36*
X57235Y-212486D02*
X55710D01*
Y-213232D01*
X57025D01*
Y-213765D01*
X55710D01*
Y-215102D01*
X55073D01*
Y-211954D01*
X57235D01*
Y-212486D01*
D02*
G37*
G36*
X281240Y-287705D02*
X280635D01*
Y-285426D01*
X280630Y-285430D01*
X280621Y-285439D01*
X280603Y-285453D01*
X280576Y-285476D01*
X280544Y-285503D01*
X280507Y-285530D01*
X280462Y-285562D01*
X280412Y-285599D01*
X280357Y-285635D01*
X280298Y-285671D01*
X280234Y-285713D01*
X280166Y-285749D01*
X280020Y-285817D01*
X279857Y-285881D01*
Y-285335D01*
X279861D01*
X279866Y-285330D01*
X279879Y-285326D01*
X279898Y-285321D01*
X279943Y-285298D01*
X280007Y-285271D01*
X280084Y-285235D01*
X280171Y-285185D01*
X280266Y-285121D01*
X280366Y-285048D01*
X280371Y-285044D01*
X280380Y-285039D01*
X280394Y-285026D01*
X280412Y-285007D01*
X280462Y-284962D01*
X280516Y-284903D01*
X280580Y-284830D01*
X280644Y-284739D01*
X280703Y-284643D01*
X280749Y-284539D01*
X281240D01*
Y-287705D01*
D02*
G37*
G36*
X277950Y-284561D02*
X278037Y-284566D01*
X278132Y-284570D01*
X278232Y-284584D01*
X278328Y-284598D01*
X278414Y-284620D01*
X278419D01*
X278428Y-284625D01*
X278442Y-284630D01*
X278460Y-284634D01*
X278514Y-284657D01*
X278578Y-284689D01*
X278651Y-284730D01*
X278733Y-284780D01*
X278810Y-284839D01*
X278888Y-284912D01*
X278892D01*
X278897Y-284921D01*
X278919Y-284948D01*
X278956Y-284994D01*
X278997Y-285053D01*
X279047Y-285126D01*
X279097Y-285212D01*
X279147Y-285312D01*
X279188Y-285421D01*
Y-285426D01*
X279192Y-285435D01*
X279197Y-285453D01*
X279206Y-285476D01*
X279211Y-285503D01*
X279220Y-285540D01*
X279229Y-285580D01*
X279242Y-285626D01*
X279252Y-285676D01*
X279261Y-285735D01*
X279270Y-285794D01*
X279274Y-285863D01*
X279288Y-286004D01*
X279292Y-286163D01*
Y-286168D01*
Y-286181D01*
Y-286199D01*
Y-286227D01*
X279288Y-286263D01*
Y-286299D01*
X279283Y-286345D01*
X279279Y-286395D01*
X279270Y-286500D01*
X279252Y-286609D01*
X279224Y-286723D01*
X279192Y-286832D01*
Y-286836D01*
X279188Y-286845D01*
X279179Y-286864D01*
X279170Y-286891D01*
X279160Y-286918D01*
X279142Y-286950D01*
X279106Y-287032D01*
X279060Y-287118D01*
X279001Y-287214D01*
X278933Y-287305D01*
X278856Y-287391D01*
X278847Y-287401D01*
X278824Y-287419D01*
X278787Y-287446D01*
X278737Y-287483D01*
X278674Y-287523D01*
X278601Y-287564D01*
X278510Y-287605D01*
X278410Y-287642D01*
X278405D01*
X278401Y-287646D01*
X278387D01*
X278373Y-287651D01*
X278323Y-287660D01*
X278260Y-287673D01*
X278182Y-287687D01*
X278087Y-287696D01*
X277973Y-287701D01*
X277850Y-287705D01*
X276658D01*
Y-284557D01*
X277914D01*
X277950Y-284561D01*
D02*
G37*
G36*
X276130Y-285089D02*
X274606D01*
Y-285835D01*
X275921D01*
Y-286368D01*
X274606D01*
Y-287705D01*
X273969D01*
Y-284557D01*
X276130D01*
Y-285089D01*
D02*
G37*
G36*
X135571Y-287705D02*
X134965D01*
Y-285426D01*
X134961Y-285430D01*
X134952Y-285439D01*
X134933Y-285453D01*
X134906Y-285476D01*
X134874Y-285503D01*
X134838Y-285530D01*
X134792Y-285562D01*
X134742Y-285599D01*
X134688Y-285635D01*
X134629Y-285671D01*
X134565Y-285713D01*
X134497Y-285749D01*
X134351Y-285817D01*
X134187Y-285881D01*
Y-285335D01*
X134192D01*
X134196Y-285330D01*
X134210Y-285326D01*
X134228Y-285321D01*
X134274Y-285298D01*
X134337Y-285271D01*
X134415Y-285235D01*
X134501Y-285185D01*
X134597Y-285121D01*
X134697Y-285048D01*
X134702Y-285044D01*
X134711Y-285039D01*
X134724Y-285026D01*
X134742Y-285007D01*
X134792Y-284962D01*
X134847Y-284903D01*
X134911Y-284830D01*
X134975Y-284739D01*
X135034Y-284643D01*
X135079Y-284539D01*
X135571D01*
Y-287705D01*
D02*
G37*
G36*
X132281Y-284561D02*
X132367Y-284566D01*
X132463Y-284570D01*
X132563Y-284584D01*
X132659Y-284598D01*
X132745Y-284620D01*
X132749D01*
X132759Y-284625D01*
X132772Y-284630D01*
X132791Y-284634D01*
X132845Y-284657D01*
X132909Y-284689D01*
X132982Y-284730D01*
X133063Y-284780D01*
X133141Y-284839D01*
X133218Y-284912D01*
X133223D01*
X133227Y-284921D01*
X133250Y-284948D01*
X133286Y-284994D01*
X133327Y-285053D01*
X133377Y-285126D01*
X133428Y-285212D01*
X133477Y-285312D01*
X133519Y-285421D01*
Y-285426D01*
X133523Y-285435D01*
X133528Y-285453D01*
X133537Y-285476D01*
X133541Y-285503D01*
X133550Y-285540D01*
X133559Y-285580D01*
X133573Y-285626D01*
X133582Y-285676D01*
X133591Y-285735D01*
X133600Y-285794D01*
X133605Y-285863D01*
X133619Y-286004D01*
X133623Y-286163D01*
Y-286168D01*
Y-286181D01*
Y-286199D01*
Y-286227D01*
X133619Y-286263D01*
Y-286299D01*
X133614Y-286345D01*
X133609Y-286395D01*
X133600Y-286500D01*
X133582Y-286609D01*
X133555Y-286723D01*
X133523Y-286832D01*
Y-286836D01*
X133519Y-286845D01*
X133509Y-286864D01*
X133500Y-286891D01*
X133491Y-286918D01*
X133473Y-286950D01*
X133437Y-287032D01*
X133391Y-287118D01*
X133332Y-287214D01*
X133264Y-287305D01*
X133186Y-287391D01*
X133177Y-287401D01*
X133154Y-287419D01*
X133118Y-287446D01*
X133068Y-287483D01*
X133004Y-287523D01*
X132931Y-287564D01*
X132841Y-287605D01*
X132740Y-287642D01*
X132736D01*
X132731Y-287646D01*
X132718D01*
X132704Y-287651D01*
X132654Y-287660D01*
X132590Y-287673D01*
X132513Y-287687D01*
X132417Y-287696D01*
X132304Y-287701D01*
X132181Y-287705D01*
X130989D01*
Y-284557D01*
X132245D01*
X132281Y-284561D01*
D02*
G37*
G36*
X130461Y-285089D02*
X128937D01*
Y-285835D01*
X130252D01*
Y-286368D01*
X128937D01*
Y-287705D01*
X128300D01*
Y-284557D01*
X130461D01*
Y-285089D01*
D02*
G37*
G36*
X207586Y-337924D02*
X207627Y-337929D01*
X207672Y-337933D01*
X207722Y-337943D01*
X207777Y-337952D01*
X207895Y-337983D01*
X208014Y-338029D01*
X208077Y-338056D01*
X208132Y-338088D01*
X208191Y-338129D01*
X208241Y-338175D01*
X208246Y-338179D01*
X208255Y-338184D01*
X208264Y-338202D01*
X208282Y-338220D01*
X208305Y-338243D01*
X208328Y-338275D01*
X208350Y-338306D01*
X208378Y-338348D01*
X208423Y-338439D01*
X208469Y-338543D01*
X208487Y-338602D01*
X208496Y-338666D01*
X208505Y-338734D01*
X208509Y-338803D01*
Y-338812D01*
Y-338839D01*
X208505Y-338880D01*
X208500Y-338930D01*
X208491Y-338994D01*
X208478Y-339062D01*
X208459Y-339135D01*
X208432Y-339207D01*
X208428Y-339216D01*
X208418Y-339239D01*
X208400Y-339280D01*
X208373Y-339330D01*
X208341Y-339389D01*
X208300Y-339458D01*
X208250Y-339530D01*
X208191Y-339608D01*
X208187Y-339612D01*
X208168Y-339635D01*
X208141Y-339667D01*
X208100Y-339713D01*
X208045Y-339767D01*
X207977Y-339840D01*
X207895Y-339917D01*
X207795Y-340013D01*
X207791Y-340017D01*
X207782Y-340022D01*
X207768Y-340036D01*
X207750Y-340054D01*
X207700Y-340099D01*
X207641Y-340154D01*
X207581Y-340213D01*
X207522Y-340272D01*
X207468Y-340322D01*
X207449Y-340345D01*
X207431Y-340363D01*
X207427Y-340368D01*
X207417Y-340377D01*
X207404Y-340395D01*
X207386Y-340418D01*
X207345Y-340468D01*
X207308Y-340527D01*
X208509D01*
Y-341087D01*
X206394D01*
Y-341082D01*
Y-341073D01*
X206398Y-341055D01*
X206403Y-341032D01*
X206407Y-341005D01*
X206412Y-340973D01*
X206430Y-340891D01*
X206457Y-340800D01*
X206494Y-340700D01*
X206539Y-340591D01*
X206598Y-340486D01*
Y-340481D01*
X206608Y-340472D01*
X206617Y-340454D01*
X206635Y-340436D01*
X206653Y-340404D01*
X206680Y-340372D01*
X206712Y-340331D01*
X206749Y-340286D01*
X206790Y-340231D01*
X206840Y-340177D01*
X206894Y-340113D01*
X206958Y-340045D01*
X207026Y-339976D01*
X207104Y-339899D01*
X207186Y-339817D01*
X207277Y-339731D01*
X207281Y-339726D01*
X207295Y-339713D01*
X207313Y-339694D01*
X207340Y-339667D01*
X207377Y-339640D01*
X207413Y-339603D01*
X207495Y-339521D01*
X207577Y-339435D01*
X207659Y-339349D01*
X207695Y-339312D01*
X207732Y-339271D01*
X207759Y-339239D01*
X207777Y-339212D01*
X207782Y-339203D01*
X207795Y-339180D01*
X207818Y-339144D01*
X207841Y-339094D01*
X207863Y-339039D01*
X207886Y-338975D01*
X207900Y-338912D01*
X207904Y-338843D01*
Y-338839D01*
Y-338834D01*
Y-338812D01*
X207900Y-338771D01*
X207891Y-338725D01*
X207877Y-338675D01*
X207859Y-338625D01*
X207832Y-338575D01*
X207795Y-338529D01*
X207791Y-338525D01*
X207777Y-338511D01*
X207750Y-338493D01*
X207718Y-338475D01*
X207672Y-338457D01*
X207622Y-338439D01*
X207563Y-338425D01*
X207495Y-338420D01*
X207463D01*
X207427Y-338425D01*
X207386Y-338434D01*
X207336Y-338448D01*
X207286Y-338470D01*
X207236Y-338498D01*
X207190Y-338534D01*
X207186Y-338539D01*
X207172Y-338557D01*
X207154Y-338584D01*
X207135Y-338625D01*
X207113Y-338675D01*
X207095Y-338743D01*
X207076Y-338821D01*
X207067Y-338912D01*
X206467Y-338853D01*
Y-338848D01*
X206471Y-338830D01*
Y-338807D01*
X206480Y-338771D01*
X206485Y-338730D01*
X206498Y-338684D01*
X206512Y-338634D01*
X206526Y-338575D01*
X206571Y-338461D01*
X206626Y-338343D01*
X206662Y-338284D01*
X206703Y-338229D01*
X206749Y-338184D01*
X206799Y-338138D01*
X206803Y-338134D01*
X206812Y-338129D01*
X206826Y-338120D01*
X206849Y-338102D01*
X206876Y-338088D01*
X206912Y-338070D01*
X206949Y-338047D01*
X206994Y-338029D01*
X207044Y-338006D01*
X207099Y-337988D01*
X207217Y-337952D01*
X207358Y-337929D01*
X207431Y-337924D01*
X207508Y-337920D01*
X207554D01*
X207586Y-337924D01*
D02*
G37*
G36*
X204724Y-337943D02*
X204810Y-337947D01*
X204906Y-337952D01*
X205006Y-337965D01*
X205102Y-337979D01*
X205188Y-338002D01*
X205193D01*
X205202Y-338006D01*
X205215Y-338011D01*
X205234Y-338015D01*
X205288Y-338038D01*
X205352Y-338070D01*
X205425Y-338111D01*
X205506Y-338161D01*
X205584Y-338220D01*
X205661Y-338293D01*
X205666D01*
X205670Y-338302D01*
X205693Y-338329D01*
X205730Y-338375D01*
X205770Y-338434D01*
X205820Y-338507D01*
X205871Y-338593D01*
X205921Y-338693D01*
X205961Y-338803D01*
Y-338807D01*
X205966Y-338816D01*
X205971Y-338834D01*
X205980Y-338857D01*
X205984Y-338884D01*
X205993Y-338921D01*
X206002Y-338962D01*
X206016Y-339007D01*
X206025Y-339057D01*
X206034Y-339116D01*
X206043Y-339176D01*
X206048Y-339244D01*
X206062Y-339385D01*
X206066Y-339544D01*
Y-339549D01*
Y-339562D01*
Y-339580D01*
Y-339608D01*
X206062Y-339644D01*
Y-339681D01*
X206057Y-339726D01*
X206052Y-339776D01*
X206043Y-339881D01*
X206025Y-339990D01*
X205998Y-340104D01*
X205966Y-340213D01*
Y-340217D01*
X205961Y-340227D01*
X205952Y-340245D01*
X205943Y-340272D01*
X205934Y-340299D01*
X205916Y-340331D01*
X205880Y-340413D01*
X205834Y-340500D01*
X205775Y-340595D01*
X205707Y-340686D01*
X205629Y-340773D01*
X205620Y-340782D01*
X205597Y-340800D01*
X205561Y-340827D01*
X205511Y-340864D01*
X205447Y-340905D01*
X205375Y-340946D01*
X205284Y-340986D01*
X205184Y-341023D01*
X205179D01*
X205174Y-341027D01*
X205161D01*
X205147Y-341032D01*
X205097Y-341041D01*
X205033Y-341055D01*
X204956Y-341068D01*
X204860Y-341077D01*
X204747Y-341082D01*
X204624Y-341087D01*
X203432D01*
Y-337938D01*
X204688D01*
X204724Y-337943D01*
D02*
G37*
G36*
X202904Y-338470D02*
X201380D01*
Y-339216D01*
X202695D01*
Y-339749D01*
X201380D01*
Y-341087D01*
X200743D01*
Y-337938D01*
X202904D01*
Y-338470D01*
D02*
G37*
G36*
X61917Y-337924D02*
X61958Y-337929D01*
X62003Y-337933D01*
X62053Y-337943D01*
X62108Y-337952D01*
X62226Y-337983D01*
X62344Y-338029D01*
X62408Y-338056D01*
X62463Y-338088D01*
X62522Y-338129D01*
X62572Y-338175D01*
X62576Y-338179D01*
X62585Y-338184D01*
X62594Y-338202D01*
X62613Y-338220D01*
X62635Y-338243D01*
X62658Y-338275D01*
X62681Y-338306D01*
X62708Y-338348D01*
X62754Y-338439D01*
X62799Y-338543D01*
X62817Y-338602D01*
X62827Y-338666D01*
X62836Y-338734D01*
X62840Y-338803D01*
Y-338812D01*
Y-338839D01*
X62836Y-338880D01*
X62831Y-338930D01*
X62822Y-338994D01*
X62808Y-339062D01*
X62790Y-339135D01*
X62763Y-339207D01*
X62758Y-339216D01*
X62749Y-339239D01*
X62731Y-339280D01*
X62704Y-339330D01*
X62672Y-339389D01*
X62631Y-339458D01*
X62581Y-339530D01*
X62522Y-339608D01*
X62517Y-339612D01*
X62499Y-339635D01*
X62472Y-339667D01*
X62431Y-339713D01*
X62376Y-339767D01*
X62308Y-339840D01*
X62226Y-339917D01*
X62126Y-340013D01*
X62121Y-340017D01*
X62112Y-340022D01*
X62098Y-340036D01*
X62080Y-340054D01*
X62030Y-340099D01*
X61971Y-340154D01*
X61912Y-340213D01*
X61853Y-340272D01*
X61798Y-340322D01*
X61780Y-340345D01*
X61762Y-340363D01*
X61757Y-340368D01*
X61748Y-340377D01*
X61734Y-340395D01*
X61716Y-340418D01*
X61675Y-340468D01*
X61639Y-340527D01*
X62840D01*
Y-341087D01*
X60724D01*
Y-341082D01*
Y-341073D01*
X60729Y-341055D01*
X60733Y-341032D01*
X60738Y-341005D01*
X60743Y-340973D01*
X60761Y-340891D01*
X60788Y-340800D01*
X60825Y-340700D01*
X60870Y-340591D01*
X60929Y-340486D01*
Y-340481D01*
X60938Y-340472D01*
X60947Y-340454D01*
X60966Y-340436D01*
X60984Y-340404D01*
X61011Y-340372D01*
X61043Y-340331D01*
X61079Y-340286D01*
X61120Y-340231D01*
X61170Y-340177D01*
X61225Y-340113D01*
X61289Y-340045D01*
X61357Y-339976D01*
X61434Y-339899D01*
X61516Y-339817D01*
X61607Y-339731D01*
X61612Y-339726D01*
X61625Y-339713D01*
X61643Y-339694D01*
X61671Y-339667D01*
X61707Y-339640D01*
X61744Y-339603D01*
X61826Y-339521D01*
X61907Y-339435D01*
X61989Y-339349D01*
X62026Y-339312D01*
X62062Y-339271D01*
X62089Y-339239D01*
X62108Y-339212D01*
X62112Y-339203D01*
X62126Y-339180D01*
X62149Y-339144D01*
X62171Y-339094D01*
X62194Y-339039D01*
X62217Y-338975D01*
X62230Y-338912D01*
X62235Y-338843D01*
Y-338839D01*
Y-338834D01*
Y-338812D01*
X62230Y-338771D01*
X62221Y-338725D01*
X62208Y-338675D01*
X62190Y-338625D01*
X62162Y-338575D01*
X62126Y-338529D01*
X62121Y-338525D01*
X62108Y-338511D01*
X62080Y-338493D01*
X62049Y-338475D01*
X62003Y-338457D01*
X61953Y-338439D01*
X61894Y-338425D01*
X61826Y-338420D01*
X61794D01*
X61757Y-338425D01*
X61716Y-338434D01*
X61666Y-338448D01*
X61616Y-338470D01*
X61566Y-338498D01*
X61521Y-338534D01*
X61516Y-338539D01*
X61502Y-338557D01*
X61484Y-338584D01*
X61466Y-338625D01*
X61443Y-338675D01*
X61425Y-338743D01*
X61407Y-338821D01*
X61398Y-338912D01*
X60797Y-338853D01*
Y-338848D01*
X60802Y-338830D01*
Y-338807D01*
X60811Y-338771D01*
X60815Y-338730D01*
X60829Y-338684D01*
X60843Y-338634D01*
X60856Y-338575D01*
X60902Y-338461D01*
X60957Y-338343D01*
X60993Y-338284D01*
X61034Y-338229D01*
X61079Y-338184D01*
X61129Y-338138D01*
X61134Y-338134D01*
X61143Y-338129D01*
X61157Y-338120D01*
X61179Y-338102D01*
X61207Y-338088D01*
X61243Y-338070D01*
X61279Y-338047D01*
X61325Y-338029D01*
X61375Y-338006D01*
X61430Y-337988D01*
X61548Y-337952D01*
X61689Y-337929D01*
X61762Y-337924D01*
X61839Y-337920D01*
X61885D01*
X61917Y-337924D01*
D02*
G37*
G36*
X59055Y-337943D02*
X59141Y-337947D01*
X59237Y-337952D01*
X59337Y-337965D01*
X59432Y-337979D01*
X59519Y-338002D01*
X59523D01*
X59532Y-338006D01*
X59546Y-338011D01*
X59564Y-338015D01*
X59619Y-338038D01*
X59683Y-338070D01*
X59755Y-338111D01*
X59837Y-338161D01*
X59914Y-338220D01*
X59992Y-338293D01*
X59996D01*
X60001Y-338302D01*
X60024Y-338329D01*
X60060Y-338375D01*
X60101Y-338434D01*
X60151Y-338507D01*
X60201Y-338593D01*
X60251Y-338693D01*
X60292Y-338803D01*
Y-338807D01*
X60297Y-338816D01*
X60301Y-338834D01*
X60310Y-338857D01*
X60315Y-338884D01*
X60324Y-338921D01*
X60333Y-338962D01*
X60347Y-339007D01*
X60356Y-339057D01*
X60365Y-339116D01*
X60374Y-339176D01*
X60379Y-339244D01*
X60392Y-339385D01*
X60397Y-339544D01*
Y-339549D01*
Y-339562D01*
Y-339580D01*
Y-339608D01*
X60392Y-339644D01*
Y-339681D01*
X60388Y-339726D01*
X60383Y-339776D01*
X60374Y-339881D01*
X60356Y-339990D01*
X60329Y-340104D01*
X60297Y-340213D01*
Y-340217D01*
X60292Y-340227D01*
X60283Y-340245D01*
X60274Y-340272D01*
X60265Y-340299D01*
X60247Y-340331D01*
X60210Y-340413D01*
X60165Y-340500D01*
X60106Y-340595D01*
X60037Y-340686D01*
X59960Y-340773D01*
X59951Y-340782D01*
X59928Y-340800D01*
X59892Y-340827D01*
X59842Y-340864D01*
X59778Y-340905D01*
X59705Y-340946D01*
X59614Y-340986D01*
X59514Y-341023D01*
X59510D01*
X59505Y-341027D01*
X59491D01*
X59478Y-341032D01*
X59428Y-341041D01*
X59364Y-341055D01*
X59287Y-341068D01*
X59191Y-341077D01*
X59077Y-341082D01*
X58955Y-341087D01*
X57762D01*
Y-337938D01*
X59018D01*
X59055Y-337943D01*
D02*
G37*
G36*
X57235Y-338470D02*
X55710D01*
Y-339216D01*
X57025D01*
Y-339749D01*
X55710D01*
Y-341087D01*
X55073D01*
Y-337938D01*
X57235D01*
Y-338470D01*
D02*
G37*
%LPC*%
G36*
X277709Y-33121D02*
X277295D01*
Y-35204D01*
X277855D01*
X277914Y-35200D01*
X277977D01*
X278041Y-35191D01*
X278100Y-35186D01*
X278150Y-35177D01*
X278159D01*
X278178Y-35168D01*
X278205Y-35159D01*
X278241Y-35145D01*
X278282Y-35127D01*
X278323Y-35104D01*
X278364Y-35077D01*
X278405Y-35045D01*
X278410Y-35041D01*
X278423Y-35027D01*
X278442Y-35004D01*
X278464Y-34972D01*
X278487Y-34931D01*
X278519Y-34881D01*
X278542Y-34818D01*
X278569Y-34745D01*
Y-34740D01*
X278574Y-34736D01*
Y-34722D01*
X278578Y-34704D01*
X278587Y-34686D01*
X278592Y-34658D01*
X278605Y-34590D01*
X278614Y-34508D01*
X278628Y-34413D01*
X278633Y-34294D01*
X278637Y-34167D01*
Y-34163D01*
Y-34149D01*
Y-34131D01*
Y-34108D01*
Y-34076D01*
X278633Y-34040D01*
X278628Y-33962D01*
X278619Y-33871D01*
X278610Y-33776D01*
X278592Y-33689D01*
X278569Y-33607D01*
Y-33603D01*
X278565Y-33598D01*
X278555Y-33575D01*
X278542Y-33539D01*
X278523Y-33494D01*
X278496Y-33448D01*
X278464Y-33398D01*
X278428Y-33348D01*
X278387Y-33303D01*
X278382Y-33298D01*
X278369Y-33284D01*
X278342Y-33266D01*
X278310Y-33243D01*
X278264Y-33216D01*
X278214Y-33193D01*
X278159Y-33171D01*
X278096Y-33152D01*
X278091D01*
X278068Y-33148D01*
X278032Y-33143D01*
X277982Y-33134D01*
X277950D01*
X277909Y-33130D01*
X277868D01*
X277823Y-33125D01*
X277768D01*
X277709Y-33121D01*
D02*
G37*
G36*
X132040D02*
X131626D01*
Y-35204D01*
X132185D01*
X132245Y-35200D01*
X132308D01*
X132372Y-35191D01*
X132431Y-35186D01*
X132481Y-35177D01*
X132490D01*
X132508Y-35168D01*
X132536Y-35159D01*
X132572Y-35145D01*
X132613Y-35127D01*
X132654Y-35104D01*
X132695Y-35077D01*
X132736Y-35045D01*
X132740Y-35041D01*
X132754Y-35027D01*
X132772Y-35004D01*
X132795Y-34972D01*
X132818Y-34931D01*
X132850Y-34881D01*
X132872Y-34818D01*
X132900Y-34745D01*
Y-34740D01*
X132904Y-34736D01*
Y-34722D01*
X132909Y-34704D01*
X132918Y-34686D01*
X132922Y-34658D01*
X132936Y-34590D01*
X132945Y-34508D01*
X132959Y-34413D01*
X132963Y-34294D01*
X132968Y-34167D01*
Y-34163D01*
Y-34149D01*
Y-34131D01*
Y-34108D01*
Y-34076D01*
X132963Y-34040D01*
X132959Y-33962D01*
X132950Y-33871D01*
X132941Y-33776D01*
X132922Y-33689D01*
X132900Y-33607D01*
Y-33603D01*
X132895Y-33598D01*
X132886Y-33575D01*
X132872Y-33539D01*
X132854Y-33494D01*
X132827Y-33448D01*
X132795Y-33398D01*
X132759Y-33348D01*
X132718Y-33303D01*
X132713Y-33298D01*
X132700Y-33284D01*
X132672Y-33266D01*
X132640Y-33243D01*
X132595Y-33216D01*
X132545Y-33193D01*
X132490Y-33171D01*
X132427Y-33152D01*
X132422D01*
X132399Y-33148D01*
X132363Y-33143D01*
X132313Y-33134D01*
X132281D01*
X132240Y-33130D01*
X132199D01*
X132153Y-33125D01*
X132099D01*
X132040Y-33121D01*
D02*
G37*
G36*
X204483Y-86502D02*
X204069D01*
Y-88586D01*
X204628D01*
X204688Y-88581D01*
X204751D01*
X204815Y-88572D01*
X204874Y-88567D01*
X204924Y-88558D01*
X204933D01*
X204951Y-88549D01*
X204979Y-88540D01*
X205015Y-88526D01*
X205056Y-88508D01*
X205097Y-88485D01*
X205138Y-88458D01*
X205179Y-88426D01*
X205184Y-88422D01*
X205197Y-88408D01*
X205215Y-88385D01*
X205238Y-88354D01*
X205261Y-88313D01*
X205293Y-88262D01*
X205315Y-88199D01*
X205343Y-88126D01*
Y-88121D01*
X205347Y-88117D01*
Y-88103D01*
X205352Y-88085D01*
X205361Y-88067D01*
X205365Y-88040D01*
X205379Y-87971D01*
X205388Y-87889D01*
X205402Y-87794D01*
X205406Y-87676D01*
X205411Y-87548D01*
Y-87544D01*
Y-87530D01*
Y-87512D01*
Y-87489D01*
Y-87457D01*
X205406Y-87421D01*
X205402Y-87343D01*
X205393Y-87252D01*
X205384Y-87157D01*
X205365Y-87070D01*
X205343Y-86989D01*
Y-86984D01*
X205338Y-86979D01*
X205329Y-86957D01*
X205315Y-86920D01*
X205297Y-86875D01*
X205270Y-86829D01*
X205238Y-86779D01*
X205202Y-86729D01*
X205161Y-86684D01*
X205156Y-86679D01*
X205142Y-86665D01*
X205115Y-86647D01*
X205083Y-86624D01*
X205038Y-86597D01*
X204988Y-86575D01*
X204933Y-86552D01*
X204870Y-86533D01*
X204865D01*
X204842Y-86529D01*
X204806Y-86524D01*
X204756Y-86515D01*
X204724D01*
X204683Y-86511D01*
X204642D01*
X204596Y-86506D01*
X204542D01*
X204483Y-86502D01*
D02*
G37*
G36*
X58813D02*
X58399D01*
Y-88586D01*
X58959D01*
X59018Y-88581D01*
X59082D01*
X59146Y-88572D01*
X59205Y-88567D01*
X59255Y-88558D01*
X59264D01*
X59282Y-88549D01*
X59309Y-88540D01*
X59346Y-88526D01*
X59387Y-88508D01*
X59428Y-88485D01*
X59469Y-88458D01*
X59510Y-88426D01*
X59514Y-88422D01*
X59528Y-88408D01*
X59546Y-88385D01*
X59569Y-88354D01*
X59592Y-88313D01*
X59623Y-88262D01*
X59646Y-88199D01*
X59673Y-88126D01*
Y-88121D01*
X59678Y-88117D01*
Y-88103D01*
X59683Y-88085D01*
X59692Y-88067D01*
X59696Y-88040D01*
X59710Y-87971D01*
X59719Y-87889D01*
X59733Y-87794D01*
X59737Y-87676D01*
X59742Y-87548D01*
Y-87544D01*
Y-87530D01*
Y-87512D01*
Y-87489D01*
Y-87457D01*
X59737Y-87421D01*
X59733Y-87343D01*
X59723Y-87252D01*
X59714Y-87157D01*
X59696Y-87070D01*
X59673Y-86989D01*
Y-86984D01*
X59669Y-86979D01*
X59660Y-86957D01*
X59646Y-86920D01*
X59628Y-86875D01*
X59601Y-86829D01*
X59569Y-86779D01*
X59532Y-86729D01*
X59491Y-86684D01*
X59487Y-86679D01*
X59473Y-86665D01*
X59446Y-86647D01*
X59414Y-86624D01*
X59368Y-86597D01*
X59319Y-86575D01*
X59264Y-86552D01*
X59200Y-86533D01*
X59196D01*
X59173Y-86529D01*
X59136Y-86524D01*
X59086Y-86515D01*
X59055D01*
X59014Y-86511D01*
X58973D01*
X58927Y-86506D01*
X58873D01*
X58813Y-86502D01*
D02*
G37*
G36*
X277709Y-159105D02*
X277295D01*
Y-161189D01*
X277855D01*
X277914Y-161184D01*
X277977D01*
X278041Y-161175D01*
X278100Y-161170D01*
X278150Y-161161D01*
X278159D01*
X278178Y-161152D01*
X278205Y-161143D01*
X278241Y-161130D01*
X278282Y-161111D01*
X278323Y-161089D01*
X278364Y-161061D01*
X278405Y-161030D01*
X278410Y-161025D01*
X278423Y-161011D01*
X278442Y-160988D01*
X278464Y-160957D01*
X278487Y-160916D01*
X278519Y-160866D01*
X278542Y-160802D01*
X278569Y-160729D01*
Y-160725D01*
X278574Y-160720D01*
Y-160706D01*
X278578Y-160688D01*
X278587Y-160670D01*
X278592Y-160643D01*
X278605Y-160574D01*
X278614Y-160493D01*
X278628Y-160397D01*
X278633Y-160279D01*
X278637Y-160151D01*
Y-160147D01*
Y-160133D01*
Y-160115D01*
Y-160092D01*
Y-160060D01*
X278633Y-160024D01*
X278628Y-159947D01*
X278619Y-159856D01*
X278610Y-159760D01*
X278592Y-159674D01*
X278569Y-159592D01*
Y-159587D01*
X278565Y-159583D01*
X278555Y-159560D01*
X278542Y-159523D01*
X278523Y-159478D01*
X278496Y-159432D01*
X278464Y-159382D01*
X278428Y-159332D01*
X278387Y-159287D01*
X278382Y-159282D01*
X278369Y-159269D01*
X278342Y-159250D01*
X278310Y-159228D01*
X278264Y-159200D01*
X278214Y-159178D01*
X278159Y-159155D01*
X278096Y-159137D01*
X278091D01*
X278068Y-159132D01*
X278032Y-159128D01*
X277982Y-159118D01*
X277950D01*
X277909Y-159114D01*
X277868D01*
X277823Y-159109D01*
X277768D01*
X277709Y-159105D01*
D02*
G37*
G36*
X132040D02*
X131626D01*
Y-161189D01*
X132185D01*
X132245Y-161184D01*
X132308D01*
X132372Y-161175D01*
X132431Y-161170D01*
X132481Y-161161D01*
X132490D01*
X132508Y-161152D01*
X132536Y-161143D01*
X132572Y-161130D01*
X132613Y-161111D01*
X132654Y-161089D01*
X132695Y-161061D01*
X132736Y-161030D01*
X132740Y-161025D01*
X132754Y-161011D01*
X132772Y-160988D01*
X132795Y-160957D01*
X132818Y-160916D01*
X132850Y-160866D01*
X132872Y-160802D01*
X132900Y-160729D01*
Y-160725D01*
X132904Y-160720D01*
Y-160706D01*
X132909Y-160688D01*
X132918Y-160670D01*
X132922Y-160643D01*
X132936Y-160574D01*
X132945Y-160493D01*
X132959Y-160397D01*
X132963Y-160279D01*
X132968Y-160151D01*
Y-160147D01*
Y-160133D01*
Y-160115D01*
Y-160092D01*
Y-160060D01*
X132963Y-160024D01*
X132959Y-159947D01*
X132950Y-159856D01*
X132941Y-159760D01*
X132922Y-159674D01*
X132900Y-159592D01*
Y-159587D01*
X132895Y-159583D01*
X132886Y-159560D01*
X132872Y-159523D01*
X132854Y-159478D01*
X132827Y-159432D01*
X132795Y-159382D01*
X132759Y-159332D01*
X132718Y-159287D01*
X132713Y-159282D01*
X132700Y-159269D01*
X132672Y-159250D01*
X132640Y-159228D01*
X132595Y-159200D01*
X132545Y-159178D01*
X132490Y-159155D01*
X132427Y-159137D01*
X132422D01*
X132399Y-159132D01*
X132363Y-159128D01*
X132313Y-159118D01*
X132281D01*
X132240Y-159114D01*
X132199D01*
X132153Y-159109D01*
X132099D01*
X132040Y-159105D01*
D02*
G37*
G36*
X204483Y-212486D02*
X204069D01*
Y-214570D01*
X204628D01*
X204688Y-214565D01*
X204751D01*
X204815Y-214556D01*
X204874Y-214552D01*
X204924Y-214543D01*
X204933D01*
X204951Y-214533D01*
X204979Y-214524D01*
X205015Y-214511D01*
X205056Y-214493D01*
X205097Y-214470D01*
X205138Y-214442D01*
X205179Y-214411D01*
X205184Y-214406D01*
X205197Y-214392D01*
X205215Y-214370D01*
X205238Y-214338D01*
X205261Y-214297D01*
X205293Y-214247D01*
X205315Y-214183D01*
X205343Y-214110D01*
Y-214106D01*
X205347Y-214101D01*
Y-214088D01*
X205352Y-214069D01*
X205361Y-214051D01*
X205365Y-214024D01*
X205379Y-213956D01*
X205388Y-213874D01*
X205402Y-213778D01*
X205406Y-213660D01*
X205411Y-213532D01*
Y-213528D01*
Y-213514D01*
Y-213496D01*
Y-213473D01*
Y-213441D01*
X205406Y-213405D01*
X205402Y-213328D01*
X205393Y-213237D01*
X205384Y-213141D01*
X205365Y-213055D01*
X205343Y-212973D01*
Y-212968D01*
X205338Y-212964D01*
X205329Y-212941D01*
X205315Y-212905D01*
X205297Y-212859D01*
X205270Y-212814D01*
X205238Y-212764D01*
X205202Y-212714D01*
X205161Y-212668D01*
X205156Y-212664D01*
X205142Y-212650D01*
X205115Y-212632D01*
X205083Y-212609D01*
X205038Y-212582D01*
X204988Y-212559D01*
X204933Y-212536D01*
X204870Y-212518D01*
X204865D01*
X204842Y-212513D01*
X204806Y-212509D01*
X204756Y-212500D01*
X204724D01*
X204683Y-212495D01*
X204642D01*
X204596Y-212491D01*
X204542D01*
X204483Y-212486D01*
D02*
G37*
G36*
X58813D02*
X58399D01*
Y-214570D01*
X58959D01*
X59018Y-214565D01*
X59082D01*
X59146Y-214556D01*
X59205Y-214552D01*
X59255Y-214543D01*
X59264D01*
X59282Y-214533D01*
X59309Y-214524D01*
X59346Y-214511D01*
X59387Y-214493D01*
X59428Y-214470D01*
X59469Y-214442D01*
X59510Y-214411D01*
X59514Y-214406D01*
X59528Y-214392D01*
X59546Y-214370D01*
X59569Y-214338D01*
X59592Y-214297D01*
X59623Y-214247D01*
X59646Y-214183D01*
X59673Y-214110D01*
Y-214106D01*
X59678Y-214101D01*
Y-214088D01*
X59683Y-214069D01*
X59692Y-214051D01*
X59696Y-214024D01*
X59710Y-213956D01*
X59719Y-213874D01*
X59733Y-213778D01*
X59737Y-213660D01*
X59742Y-213532D01*
Y-213528D01*
Y-213514D01*
Y-213496D01*
Y-213473D01*
Y-213441D01*
X59737Y-213405D01*
X59733Y-213328D01*
X59723Y-213237D01*
X59714Y-213141D01*
X59696Y-213055D01*
X59673Y-212973D01*
Y-212968D01*
X59669Y-212964D01*
X59660Y-212941D01*
X59646Y-212905D01*
X59628Y-212859D01*
X59601Y-212814D01*
X59569Y-212764D01*
X59532Y-212714D01*
X59491Y-212668D01*
X59487Y-212664D01*
X59473Y-212650D01*
X59446Y-212632D01*
X59414Y-212609D01*
X59368Y-212582D01*
X59319Y-212559D01*
X59264Y-212536D01*
X59200Y-212518D01*
X59196D01*
X59173Y-212513D01*
X59136Y-212509D01*
X59086Y-212500D01*
X59055D01*
X59014Y-212495D01*
X58973D01*
X58927Y-212491D01*
X58873D01*
X58813Y-212486D01*
D02*
G37*
G36*
X277709Y-285089D02*
X277295D01*
Y-287173D01*
X277855D01*
X277914Y-287169D01*
X277977D01*
X278041Y-287159D01*
X278100Y-287155D01*
X278150Y-287146D01*
X278159D01*
X278178Y-287137D01*
X278205Y-287128D01*
X278241Y-287114D01*
X278282Y-287096D01*
X278323Y-287073D01*
X278364Y-287046D01*
X278405Y-287014D01*
X278410Y-287009D01*
X278423Y-286996D01*
X278442Y-286973D01*
X278464Y-286941D01*
X278487Y-286900D01*
X278519Y-286850D01*
X278542Y-286786D01*
X278569Y-286714D01*
Y-286709D01*
X278574Y-286704D01*
Y-286691D01*
X278578Y-286673D01*
X278587Y-286654D01*
X278592Y-286627D01*
X278605Y-286559D01*
X278614Y-286477D01*
X278628Y-286381D01*
X278633Y-286263D01*
X278637Y-286136D01*
Y-286131D01*
Y-286118D01*
Y-286099D01*
Y-286076D01*
Y-286045D01*
X278633Y-286008D01*
X278628Y-285931D01*
X278619Y-285840D01*
X278610Y-285744D01*
X278592Y-285658D01*
X278569Y-285576D01*
Y-285572D01*
X278565Y-285567D01*
X278555Y-285544D01*
X278542Y-285508D01*
X278523Y-285462D01*
X278496Y-285417D01*
X278464Y-285367D01*
X278428Y-285317D01*
X278387Y-285271D01*
X278382Y-285267D01*
X278369Y-285253D01*
X278342Y-285235D01*
X278310Y-285212D01*
X278264Y-285185D01*
X278214Y-285162D01*
X278159Y-285139D01*
X278096Y-285121D01*
X278091D01*
X278068Y-285116D01*
X278032Y-285112D01*
X277982Y-285103D01*
X277950D01*
X277909Y-285098D01*
X277868D01*
X277823Y-285094D01*
X277768D01*
X277709Y-285089D01*
D02*
G37*
G36*
X132040D02*
X131626D01*
Y-287173D01*
X132185D01*
X132245Y-287169D01*
X132308D01*
X132372Y-287159D01*
X132431Y-287155D01*
X132481Y-287146D01*
X132490D01*
X132508Y-287137D01*
X132536Y-287128D01*
X132572Y-287114D01*
X132613Y-287096D01*
X132654Y-287073D01*
X132695Y-287046D01*
X132736Y-287014D01*
X132740Y-287009D01*
X132754Y-286996D01*
X132772Y-286973D01*
X132795Y-286941D01*
X132818Y-286900D01*
X132850Y-286850D01*
X132872Y-286786D01*
X132900Y-286714D01*
Y-286709D01*
X132904Y-286704D01*
Y-286691D01*
X132909Y-286673D01*
X132918Y-286654D01*
X132922Y-286627D01*
X132936Y-286559D01*
X132945Y-286477D01*
X132959Y-286381D01*
X132963Y-286263D01*
X132968Y-286136D01*
Y-286131D01*
Y-286118D01*
Y-286099D01*
Y-286076D01*
Y-286045D01*
X132963Y-286008D01*
X132959Y-285931D01*
X132950Y-285840D01*
X132941Y-285744D01*
X132922Y-285658D01*
X132900Y-285576D01*
Y-285572D01*
X132895Y-285567D01*
X132886Y-285544D01*
X132872Y-285508D01*
X132854Y-285462D01*
X132827Y-285417D01*
X132795Y-285367D01*
X132759Y-285317D01*
X132718Y-285271D01*
X132713Y-285267D01*
X132700Y-285253D01*
X132672Y-285235D01*
X132640Y-285212D01*
X132595Y-285185D01*
X132545Y-285162D01*
X132490Y-285139D01*
X132427Y-285121D01*
X132422D01*
X132399Y-285116D01*
X132363Y-285112D01*
X132313Y-285103D01*
X132281D01*
X132240Y-285098D01*
X132199D01*
X132153Y-285094D01*
X132099D01*
X132040Y-285089D01*
D02*
G37*
G36*
X204483Y-338470D02*
X204069D01*
Y-340554D01*
X204628D01*
X204688Y-340550D01*
X204751D01*
X204815Y-340541D01*
X204874Y-340536D01*
X204924Y-340527D01*
X204933D01*
X204951Y-340518D01*
X204979Y-340509D01*
X205015Y-340495D01*
X205056Y-340477D01*
X205097Y-340454D01*
X205138Y-340427D01*
X205179Y-340395D01*
X205184Y-340390D01*
X205197Y-340377D01*
X205215Y-340354D01*
X205238Y-340322D01*
X205261Y-340281D01*
X205293Y-340231D01*
X205315Y-340167D01*
X205343Y-340095D01*
Y-340090D01*
X205347Y-340086D01*
Y-340072D01*
X205352Y-340054D01*
X205361Y-340036D01*
X205365Y-340008D01*
X205379Y-339940D01*
X205388Y-339858D01*
X205402Y-339762D01*
X205406Y-339644D01*
X205411Y-339517D01*
Y-339512D01*
Y-339499D01*
Y-339480D01*
Y-339458D01*
Y-339426D01*
X205406Y-339389D01*
X205402Y-339312D01*
X205393Y-339221D01*
X205384Y-339125D01*
X205365Y-339039D01*
X205343Y-338957D01*
Y-338953D01*
X205338Y-338948D01*
X205329Y-338925D01*
X205315Y-338889D01*
X205297Y-338843D01*
X205270Y-338798D01*
X205238Y-338748D01*
X205202Y-338698D01*
X205161Y-338652D01*
X205156Y-338648D01*
X205142Y-338634D01*
X205115Y-338616D01*
X205083Y-338593D01*
X205038Y-338566D01*
X204988Y-338543D01*
X204933Y-338520D01*
X204870Y-338502D01*
X204865D01*
X204842Y-338498D01*
X204806Y-338493D01*
X204756Y-338484D01*
X204724D01*
X204683Y-338479D01*
X204642D01*
X204596Y-338475D01*
X204542D01*
X204483Y-338470D01*
D02*
G37*
G36*
X58813D02*
X58399D01*
Y-340554D01*
X58959D01*
X59018Y-340550D01*
X59082D01*
X59146Y-340541D01*
X59205Y-340536D01*
X59255Y-340527D01*
X59264D01*
X59282Y-340518D01*
X59309Y-340509D01*
X59346Y-340495D01*
X59387Y-340477D01*
X59428Y-340454D01*
X59469Y-340427D01*
X59510Y-340395D01*
X59514Y-340390D01*
X59528Y-340377D01*
X59546Y-340354D01*
X59569Y-340322D01*
X59592Y-340281D01*
X59623Y-340231D01*
X59646Y-340167D01*
X59673Y-340095D01*
Y-340090D01*
X59678Y-340086D01*
Y-340072D01*
X59683Y-340054D01*
X59692Y-340036D01*
X59696Y-340008D01*
X59710Y-339940D01*
X59719Y-339858D01*
X59733Y-339762D01*
X59737Y-339644D01*
X59742Y-339517D01*
Y-339512D01*
Y-339499D01*
Y-339480D01*
Y-339458D01*
Y-339426D01*
X59737Y-339389D01*
X59733Y-339312D01*
X59723Y-339221D01*
X59714Y-339125D01*
X59696Y-339039D01*
X59673Y-338957D01*
Y-338953D01*
X59669Y-338948D01*
X59660Y-338925D01*
X59646Y-338889D01*
X59628Y-338843D01*
X59601Y-338798D01*
X59569Y-338748D01*
X59532Y-338698D01*
X59491Y-338652D01*
X59487Y-338648D01*
X59473Y-338634D01*
X59446Y-338616D01*
X59414Y-338593D01*
X59368Y-338566D01*
X59319Y-338543D01*
X59264Y-338520D01*
X59200Y-338502D01*
X59196D01*
X59173Y-338498D01*
X59136Y-338493D01*
X59086Y-338484D01*
X59055D01*
X59014Y-338479D01*
X58973D01*
X58927Y-338475D01*
X58873D01*
X58813Y-338470D01*
D02*
G37*
%LPD*%
D35*
X124409Y-272756D02*
G03*
X124409Y-272756I-394J0D01*
G01*
X137402Y-267224D02*
Y-264862D01*
X143701Y-267224D02*
Y-264862D01*
X56791Y-278346D02*
X68602D01*
X56791Y-275197D02*
X68602D01*
X56791Y-278346D02*
Y-275197D01*
X68602Y-278346D02*
Y-275197D01*
X135236Y-340846D02*
Y-340059D01*
X132874Y-340846D02*
Y-340059D01*
X83662Y-268504D02*
Y-266142D01*
X77362Y-268504D02*
Y-266142D01*
X102165Y-268504D02*
Y-266142D01*
X95866Y-268504D02*
Y-266142D01*
X92717Y-268504D02*
Y-266142D01*
X86417Y-268504D02*
Y-266142D01*
X123524Y-265256D02*
X125886D01*
X123524Y-258957D02*
X125886D01*
X109646Y-334941D02*
Y-310531D01*
X85236Y-334941D02*
Y-310531D01*
X109646D01*
X85236Y-334941D02*
X109646D01*
X59941Y-310236D02*
Y-298425D01*
X56004Y-310236D02*
Y-298425D01*
Y-310236D02*
X59941D01*
X56004Y-298425D02*
X59941D01*
X270079Y-272756D02*
G03*
X270079Y-272756I-394J0D01*
G01*
X283071Y-267224D02*
Y-264862D01*
X289370Y-267224D02*
Y-264862D01*
X202461Y-278346D02*
X214272D01*
X202461Y-275197D02*
X214272D01*
X202461Y-278346D02*
Y-275197D01*
X214272Y-278346D02*
Y-275197D01*
X280906Y-340846D02*
Y-340059D01*
X278543Y-340846D02*
Y-340059D01*
X229331Y-268504D02*
Y-266142D01*
X223032Y-268504D02*
Y-266142D01*
X247835Y-268504D02*
Y-266142D01*
X241535Y-268504D02*
Y-266142D01*
X238386Y-268504D02*
Y-266142D01*
X232087Y-268504D02*
Y-266142D01*
X269193Y-265256D02*
X271555D01*
X269193Y-258957D02*
X271555D01*
X255315Y-334941D02*
Y-310531D01*
X230906Y-334941D02*
Y-310531D01*
X255315D01*
X230906Y-334941D02*
X255315D01*
X205610Y-310236D02*
Y-298425D01*
X201673Y-310236D02*
Y-298425D01*
Y-310236D02*
X205610D01*
X201673Y-298425D02*
X205610D01*
X124409Y-146772D02*
G03*
X124409Y-146772I-394J0D01*
G01*
X137402Y-141240D02*
Y-138878D01*
X143701Y-141240D02*
Y-138878D01*
X56791Y-152362D02*
X68602D01*
X56791Y-149213D02*
X68602D01*
X56791Y-152362D02*
Y-149213D01*
X68602Y-152362D02*
Y-149213D01*
X135236Y-214862D02*
Y-214075D01*
X132874Y-214862D02*
Y-214075D01*
X83662Y-142520D02*
Y-140157D01*
X77362Y-142520D02*
Y-140157D01*
X102165Y-142520D02*
Y-140157D01*
X95866Y-142520D02*
Y-140157D01*
X92717Y-142520D02*
Y-140157D01*
X86417Y-142520D02*
Y-140157D01*
X123524Y-139271D02*
X125886D01*
X123524Y-132972D02*
X125886D01*
X109646Y-208957D02*
Y-184547D01*
X85236Y-208957D02*
Y-184547D01*
X109646D01*
X85236Y-208957D02*
X109646D01*
X59941Y-184252D02*
Y-172441D01*
X56004Y-184252D02*
Y-172441D01*
Y-184252D02*
X59941D01*
X56004Y-172441D02*
X59941D01*
X270079Y-146772D02*
G03*
X270079Y-146772I-394J0D01*
G01*
X283071Y-141240D02*
Y-138878D01*
X289370Y-141240D02*
Y-138878D01*
X202461Y-152362D02*
X214272D01*
X202461Y-149213D02*
X214272D01*
X202461Y-152362D02*
Y-149213D01*
X214272Y-152362D02*
Y-149213D01*
X280906Y-214862D02*
Y-214075D01*
X278543Y-214862D02*
Y-214075D01*
X229331Y-142520D02*
Y-140157D01*
X223032Y-142520D02*
Y-140157D01*
X247835Y-142520D02*
Y-140157D01*
X241535Y-142520D02*
Y-140157D01*
X238386Y-142520D02*
Y-140157D01*
X232087Y-142520D02*
Y-140157D01*
X269193Y-139271D02*
X271555D01*
X269193Y-132972D02*
X271555D01*
X255315Y-208957D02*
Y-184547D01*
X230906Y-208957D02*
Y-184547D01*
X255315D01*
X230906Y-208957D02*
X255315D01*
X205610Y-184252D02*
Y-172441D01*
X201673Y-184252D02*
Y-172441D01*
Y-184252D02*
X205610D01*
X201673Y-172441D02*
X205610D01*
X124409Y-20787D02*
G03*
X124409Y-20787I-394J0D01*
G01*
X137402Y-15256D02*
Y-12893D01*
X143701Y-15256D02*
Y-12893D01*
X56791Y-26378D02*
X68602D01*
X56791Y-23228D02*
X68602D01*
X56791Y-26378D02*
Y-23228D01*
X68602Y-26378D02*
Y-23228D01*
X135236Y-88878D02*
Y-88090D01*
X132874Y-88878D02*
Y-88090D01*
X83662Y-16535D02*
Y-14173D01*
X77362Y-16535D02*
Y-14173D01*
X102165Y-16535D02*
Y-14173D01*
X95866Y-16535D02*
Y-14173D01*
X92717Y-16535D02*
Y-14173D01*
X86417Y-16535D02*
Y-14173D01*
X123524Y-13287D02*
X125886D01*
X123524Y-6988D02*
X125886D01*
X109646Y-82972D02*
Y-58563D01*
X85236Y-82972D02*
Y-58563D01*
X109646D01*
X85236Y-82972D02*
X109646D01*
X59941Y-58268D02*
Y-46457D01*
X56004Y-58268D02*
Y-46457D01*
Y-58268D02*
X59941D01*
X56004Y-46457D02*
X59941D01*
X270079Y-20787D02*
G03*
X270079Y-20787I-394J0D01*
G01*
X283071Y-15256D02*
Y-12893D01*
X289370Y-15256D02*
Y-12893D01*
X202461Y-26378D02*
X214272D01*
X202461Y-23228D02*
X214272D01*
X202461Y-26378D02*
Y-23228D01*
X214272Y-26378D02*
Y-23228D01*
X280906Y-88878D02*
Y-88090D01*
X278543Y-88878D02*
Y-88090D01*
X229331Y-16535D02*
Y-14173D01*
X223032Y-16535D02*
Y-14173D01*
X247835Y-16535D02*
Y-14173D01*
X241535Y-16535D02*
Y-14173D01*
X238386Y-16535D02*
Y-14173D01*
X232087Y-16535D02*
Y-14173D01*
X269193Y-13287D02*
X271555D01*
X269193Y-6988D02*
X271555D01*
X255315Y-82972D02*
Y-58563D01*
X230906Y-82972D02*
Y-58563D01*
X255315D01*
X230906Y-82972D02*
X255315D01*
X205610Y-58268D02*
Y-46457D01*
X201673Y-58268D02*
Y-46457D01*
Y-58268D02*
X205610D01*
X201673Y-46457D02*
X205610D01*
D36*
X77972Y-361103D02*
Y-355591D01*
X86024Y-367923D02*
X102953D01*
X86024Y-354035D02*
X102953D01*
X143898Y-277067D02*
X154921D01*
X139961Y-280610D02*
X143898D01*
X154921D02*
Y-277067D01*
Y-280610D02*
X158858D01*
X143898D02*
Y-277067D01*
X154921Y-345571D02*
Y-342027D01*
X139961D02*
X143898D01*
Y-345571D02*
Y-342027D01*
X154921D02*
X158858D01*
X143898Y-345571D02*
X154921D01*
X158858Y-285728D02*
Y-280610D01*
X139961Y-285728D02*
Y-280610D01*
X158858Y-342027D02*
Y-336909D01*
X139961Y-342027D02*
Y-336909D01*
X223642Y-361103D02*
Y-355591D01*
X231693Y-367923D02*
X248622D01*
X231693Y-354035D02*
X248622D01*
X289567Y-277067D02*
X300591D01*
X285630Y-280610D02*
X289567D01*
X300591D02*
Y-277067D01*
Y-280610D02*
X304528D01*
X289567D02*
Y-277067D01*
X300591Y-345571D02*
Y-342027D01*
X285630D02*
X289567D01*
Y-345571D02*
Y-342027D01*
X300591D02*
X304528D01*
X289567Y-345571D02*
X300591D01*
X304528Y-285728D02*
Y-280610D01*
X285630Y-285728D02*
Y-280610D01*
X304528Y-342027D02*
Y-336909D01*
X285630Y-342027D02*
Y-336909D01*
X77972Y-235118D02*
Y-229606D01*
X86024Y-241938D02*
X102953D01*
X86024Y-228051D02*
X102953D01*
X143898Y-151083D02*
X154921D01*
X139961Y-154626D02*
X143898D01*
X154921D02*
Y-151083D01*
Y-154626D02*
X158858D01*
X143898D02*
Y-151083D01*
X154921Y-219586D02*
Y-216043D01*
X139961D02*
X143898D01*
Y-219586D02*
Y-216043D01*
X154921D02*
X158858D01*
X143898Y-219586D02*
X154921D01*
X158858Y-159744D02*
Y-154626D01*
X139961Y-159744D02*
Y-154626D01*
X158858Y-216043D02*
Y-210925D01*
X139961Y-216043D02*
Y-210925D01*
X223642Y-235118D02*
Y-229606D01*
X231693Y-241938D02*
X248622D01*
X231693Y-228051D02*
X248622D01*
X289567Y-151083D02*
X300591D01*
X285630Y-154626D02*
X289567D01*
X300591D02*
Y-151083D01*
Y-154626D02*
X304528D01*
X289567D02*
Y-151083D01*
X300591Y-219586D02*
Y-216043D01*
X285630D02*
X289567D01*
Y-219586D02*
Y-216043D01*
X300591D02*
X304528D01*
X289567Y-219586D02*
X300591D01*
X304528Y-159744D02*
Y-154626D01*
X285630Y-159744D02*
Y-154626D01*
X304528Y-216043D02*
Y-210925D01*
X285630Y-216043D02*
Y-210925D01*
X77972Y-109134D02*
Y-103622D01*
X86024Y-115954D02*
X102953D01*
X86024Y-102067D02*
X102953D01*
X143898Y-25098D02*
X154921D01*
X139961Y-28642D02*
X143898D01*
X154921D02*
Y-25098D01*
Y-28642D02*
X158858D01*
X143898D02*
Y-25098D01*
X154921Y-93602D02*
Y-90059D01*
X139961D02*
X143898D01*
Y-93602D02*
Y-90059D01*
X154921D02*
X158858D01*
X143898Y-93602D02*
X154921D01*
X158858Y-33760D02*
Y-28642D01*
X139961Y-33760D02*
Y-28642D01*
X158858Y-90059D02*
Y-84941D01*
X139961Y-90059D02*
Y-84941D01*
X223642Y-109134D02*
Y-103622D01*
X231693Y-115954D02*
X248622D01*
X231693Y-102067D02*
X248622D01*
X289567Y-25098D02*
X300591D01*
X285630Y-28642D02*
X289567D01*
X300591D02*
Y-25098D01*
Y-28642D02*
X304528D01*
X289567D02*
Y-25098D01*
X300591Y-93602D02*
Y-90059D01*
X285630D02*
X289567D01*
Y-93602D02*
Y-90059D01*
X300591D02*
X304528D01*
X289567Y-93602D02*
X300591D01*
X304528Y-33760D02*
Y-28642D01*
X285630Y-33760D02*
Y-28642D01*
X304528Y-90059D02*
Y-84941D01*
X285630Y-90059D02*
Y-84941D01*
D42*
X67471Y-265949D02*
Y-268573D01*
X67995Y-269098D01*
X69045D01*
X69570Y-268573D01*
Y-265949D01*
X72193Y-269098D02*
Y-265949D01*
X70619Y-267524D01*
X72718D01*
X59941Y-362895D02*
Y-366043D01*
X61515D01*
X62040Y-365518D01*
Y-363419D01*
X61515Y-362895D01*
X59941D01*
X63090Y-363419D02*
X63614Y-362895D01*
X64664D01*
X65189Y-363419D01*
Y-363944D01*
X64664Y-364469D01*
X64139D01*
X64664D01*
X65189Y-364994D01*
Y-365518D01*
X64664Y-366043D01*
X63614D01*
X63090Y-365518D01*
X73890Y-287377D02*
X73365Y-286852D01*
X72316D01*
X71791Y-287377D01*
Y-289476D01*
X72316Y-290001D01*
X73365D01*
X73890Y-289476D01*
X77039Y-290001D02*
X74940D01*
X77039Y-287902D01*
Y-287377D01*
X76514Y-286852D01*
X75464D01*
X74940Y-287377D01*
X78088D02*
X78613Y-286852D01*
X79663D01*
X80187Y-287377D01*
Y-287902D01*
X79663Y-288427D01*
X79138D01*
X79663D01*
X80187Y-288951D01*
Y-289476D01*
X79663Y-290001D01*
X78613D01*
X78088Y-289476D01*
X62176Y-259482D02*
X61651Y-258958D01*
X60601D01*
X60076Y-259482D01*
Y-261581D01*
X60601Y-262106D01*
X61651D01*
X62176Y-261581D01*
X65324Y-262106D02*
X63225D01*
X65324Y-260007D01*
Y-259482D01*
X64799Y-258958D01*
X63750D01*
X63225Y-259482D01*
X68473Y-262106D02*
X66374D01*
X68473Y-260007D01*
Y-259482D01*
X67948Y-258958D01*
X66898D01*
X66374Y-259482D01*
X144685Y-349114D02*
X147834D01*
Y-350688D01*
X147309Y-351213D01*
X146259D01*
X145735Y-350688D01*
Y-349114D01*
Y-350164D02*
X144685Y-351213D01*
X147309Y-352263D02*
X147834Y-352787D01*
Y-353837D01*
X147309Y-354362D01*
X146784D01*
X146259Y-353837D01*
X145735Y-354362D01*
X145210D01*
X144685Y-353837D01*
Y-352787D01*
X145210Y-352263D01*
X145735D01*
X146259Y-352787D01*
X146784Y-352263D01*
X147309D01*
X146259Y-352787D02*
Y-353837D01*
X136811Y-349114D02*
X139960D01*
Y-350688D01*
X139435Y-351213D01*
X138385D01*
X137861Y-350688D01*
Y-349114D01*
Y-350164D02*
X136811Y-351213D01*
X139960Y-352263D02*
Y-354362D01*
X139435D01*
X137336Y-352263D01*
X136811D01*
X128937Y-349114D02*
X132086D01*
Y-350688D01*
X131561Y-351213D01*
X130511D01*
X129987Y-350688D01*
Y-349114D01*
Y-350164D02*
X128937Y-351213D01*
X132086Y-354362D02*
X131561Y-353312D01*
X130511Y-352263D01*
X129462D01*
X128937Y-352787D01*
Y-353837D01*
X129462Y-354362D01*
X129987D01*
X130511Y-353837D01*
Y-352263D01*
X64665Y-352574D02*
Y-349426D01*
X66240D01*
X66764Y-349951D01*
Y-351000D01*
X66240Y-351525D01*
X64665D01*
X65715D02*
X66764Y-352574D01*
X69913Y-349426D02*
X67814D01*
Y-351000D01*
X68863Y-350475D01*
X69388D01*
X69913Y-351000D01*
Y-352050D01*
X69388Y-352574D01*
X68339D01*
X67814Y-352050D01*
X135432Y-329166D02*
Y-327067D01*
X133858D01*
Y-328116D01*
Y-327067D01*
X132283D01*
X135432Y-330216D02*
X132283D01*
Y-331790D01*
X132808Y-332314D01*
X133333D01*
X133858Y-331790D01*
Y-330216D01*
Y-331790D01*
X134382Y-332314D01*
X134907D01*
X135432Y-331790D01*
Y-330216D01*
X132283Y-333364D02*
Y-334414D01*
Y-333889D01*
X135432D01*
X134907Y-333364D01*
X164632Y-272079D02*
X165156Y-271555D01*
Y-270505D01*
X164632Y-269980D01*
X162533D01*
X162008Y-270505D01*
Y-271555D01*
X162533Y-272079D01*
X162008Y-275228D02*
Y-273129D01*
X164107Y-275228D01*
X164632D01*
X165156Y-274703D01*
Y-273654D01*
X164632Y-273129D01*
X162008Y-276277D02*
Y-277327D01*
Y-276802D01*
X165156D01*
X164632Y-276277D01*
X148096Y-263812D02*
X148621Y-263287D01*
Y-262237D01*
X148096Y-261713D01*
X145997D01*
X145473Y-262237D01*
Y-263287D01*
X145997Y-263812D01*
X145473Y-266960D02*
Y-264861D01*
X147572Y-266960D01*
X148096D01*
X148621Y-266435D01*
Y-265386D01*
X148096Y-264861D01*
Y-268010D02*
X148621Y-268534D01*
Y-269584D01*
X148096Y-270109D01*
X145997D01*
X145473Y-269584D01*
Y-268534D01*
X145997Y-268010D01*
X148096D01*
X109383Y-348852D02*
X108858Y-348328D01*
X107808D01*
X107283Y-348852D01*
Y-350952D01*
X107808Y-351476D01*
X108858D01*
X109383Y-350952D01*
X110432Y-351476D02*
X111482D01*
X110957D01*
Y-348328D01*
X110432Y-348852D01*
X113056D02*
X113581Y-348328D01*
X114630D01*
X115155Y-348852D01*
Y-349377D01*
X114630Y-349902D01*
X115155Y-350427D01*
Y-350952D01*
X114630Y-351476D01*
X113581D01*
X113056Y-350952D01*
Y-350427D01*
X113581Y-349902D01*
X113056Y-349377D01*
Y-348852D01*
X113581Y-349902D02*
X114630D01*
X76829Y-348852D02*
X76305Y-348328D01*
X75255D01*
X74730Y-348852D01*
Y-350952D01*
X75255Y-351476D01*
X76305D01*
X76829Y-350952D01*
X77879Y-351476D02*
X78928D01*
X78404D01*
Y-348328D01*
X77879Y-348852D01*
X80503Y-348328D02*
X82602D01*
Y-348852D01*
X80503Y-350952D01*
Y-351476D01*
X97571Y-296490D02*
X97047Y-295966D01*
X95997D01*
X95473Y-296490D01*
Y-298589D01*
X95997Y-299114D01*
X97047D01*
X97571Y-298589D01*
X98621Y-299114D02*
X99671D01*
X99146D01*
Y-295966D01*
X98621Y-296490D01*
X101245D02*
X101770Y-295966D01*
X102819D01*
X103344Y-296490D01*
Y-297015D01*
X102819Y-297540D01*
X102294D01*
X102819D01*
X103344Y-298065D01*
Y-298589D01*
X102819Y-299114D01*
X101770D01*
X101245Y-298589D01*
X110827Y-339273D02*
Y-341896D01*
X111352Y-342421D01*
X112401D01*
X112926Y-341896D01*
Y-339273D01*
X113975Y-339797D02*
X114500Y-339273D01*
X115550D01*
X116075Y-339797D01*
Y-340322D01*
X115550Y-340847D01*
X115025D01*
X115550D01*
X116075Y-341372D01*
Y-341896D01*
X115550Y-342421D01*
X114500D01*
X113975Y-341896D01*
X55906Y-293407D02*
Y-296030D01*
X56430Y-296555D01*
X57480D01*
X58005Y-296030D01*
Y-293407D01*
X59054Y-296555D02*
X60104D01*
X59579D01*
Y-293407D01*
X59054Y-293931D01*
X109566Y-269717D02*
Y-272340D01*
X110090Y-272865D01*
X111140D01*
X111665Y-272340D01*
Y-269717D01*
X114813Y-272865D02*
X112714D01*
X114813Y-270766D01*
Y-270241D01*
X114289Y-269717D01*
X113239D01*
X112714Y-270241D01*
X121457Y-349114D02*
X124605D01*
Y-350688D01*
X124081Y-351213D01*
X123031D01*
X122506Y-350688D01*
Y-349114D01*
Y-350164D02*
X121457Y-351213D01*
X124081Y-352263D02*
X124605Y-352787D01*
Y-353837D01*
X124081Y-354362D01*
X123556D01*
X123031Y-353837D01*
Y-353312D01*
Y-353837D01*
X122506Y-354362D01*
X121982D01*
X121457Y-353837D01*
Y-352787D01*
X121982Y-352263D01*
X49242Y-292390D02*
X52391D01*
Y-293964D01*
X51866Y-294489D01*
X50816D01*
X50292Y-293964D01*
Y-292390D01*
Y-293439D02*
X49242Y-294489D01*
Y-297637D02*
Y-295538D01*
X51341Y-297637D01*
X51866D01*
X52391Y-297113D01*
Y-296063D01*
X51866Y-295538D01*
X76904Y-338133D02*
X76379Y-338658D01*
Y-339708D01*
X76904Y-340232D01*
X79003D01*
X79528Y-339708D01*
Y-338658D01*
X79003Y-338133D01*
X79528Y-337084D02*
Y-336034D01*
Y-336559D01*
X76379D01*
X76904Y-337084D01*
X76379Y-332361D02*
Y-334460D01*
X77953D01*
X77429Y-333411D01*
Y-332886D01*
X77953Y-332361D01*
X79003D01*
X79528Y-332886D01*
Y-333935D01*
X79003Y-334460D01*
X121392Y-301838D02*
X120867Y-302363D01*
Y-303412D01*
X121392Y-303937D01*
X123491D01*
X124016Y-303412D01*
Y-302363D01*
X123491Y-301838D01*
X124016Y-300788D02*
Y-299739D01*
Y-300264D01*
X120867D01*
X121392Y-300788D01*
X124016Y-296590D02*
X120867D01*
X122441Y-298165D01*
Y-296065D01*
X97571Y-290191D02*
X97047Y-289666D01*
X95997D01*
X95473Y-290191D01*
Y-292290D01*
X95997Y-292815D01*
X97047D01*
X97571Y-292290D01*
X98621Y-292815D02*
X99671D01*
X99146D01*
Y-289666D01*
X98621Y-290191D01*
X103344Y-292815D02*
X101245D01*
X103344Y-290716D01*
Y-290191D01*
X102819Y-289666D01*
X101770D01*
X101245Y-290191D01*
X127494Y-301838D02*
X126970Y-302363D01*
Y-303412D01*
X127494Y-303937D01*
X129593D01*
X130118Y-303412D01*
Y-302363D01*
X129593Y-301838D01*
X130118Y-300788D02*
Y-299739D01*
Y-300264D01*
X126970D01*
X127494Y-300788D01*
X130118Y-298165D02*
Y-297115D01*
Y-297640D01*
X126970D01*
X127494Y-298165D01*
X123293Y-328379D02*
X123818Y-327854D01*
Y-326804D01*
X123293Y-326279D01*
X121194D01*
X120669Y-326804D01*
Y-327854D01*
X121194Y-328379D01*
X120669Y-329428D02*
Y-330478D01*
Y-329953D01*
X123818D01*
X123293Y-329428D01*
Y-332052D02*
X123818Y-332577D01*
Y-333626D01*
X123293Y-334151D01*
X121194D01*
X120669Y-333626D01*
Y-332577D01*
X121194Y-332052D01*
X123293D01*
X129199Y-331135D02*
X129723Y-330610D01*
Y-329560D01*
X129199Y-329035D01*
X127100D01*
X126575Y-329560D01*
Y-330610D01*
X127100Y-331135D01*
Y-332184D02*
X126575Y-332709D01*
Y-333758D01*
X127100Y-334283D01*
X129199D01*
X129723Y-333758D01*
Y-332709D01*
X129199Y-332184D01*
X128674D01*
X128149Y-332709D01*
Y-334283D01*
X90616Y-279560D02*
X91141Y-279035D01*
Y-277985D01*
X90616Y-277461D01*
X88517D01*
X87992Y-277985D01*
Y-279035D01*
X88517Y-279560D01*
X90616Y-280609D02*
X91141Y-281134D01*
Y-282184D01*
X90616Y-282708D01*
X90091D01*
X89566Y-282184D01*
X89042Y-282708D01*
X88517D01*
X87992Y-282184D01*
Y-281134D01*
X88517Y-280609D01*
X89042D01*
X89566Y-281134D01*
X90091Y-280609D01*
X90616D01*
X89566Y-281134D02*
Y-282184D01*
X80774Y-279560D02*
X81298Y-279035D01*
Y-277985D01*
X80774Y-277461D01*
X78674D01*
X78150Y-277985D01*
Y-279035D01*
X78674Y-279560D01*
X81298Y-280609D02*
Y-282708D01*
X80774D01*
X78674Y-280609D01*
X78150D01*
X112041Y-260675D02*
X111516Y-260151D01*
X110467D01*
X109942Y-260675D01*
Y-262774D01*
X110467Y-263299D01*
X111516D01*
X112041Y-262774D01*
X113091Y-260675D02*
X113616Y-260151D01*
X114665D01*
X115190Y-260675D01*
Y-261200D01*
X114665Y-261725D01*
X114140D01*
X114665D01*
X115190Y-262250D01*
Y-262774D01*
X114665Y-263299D01*
X113616D01*
X113091Y-262774D01*
X108333Y-289205D02*
X108857Y-288681D01*
Y-287631D01*
X108333Y-287106D01*
X106234D01*
X105709Y-287631D01*
Y-288681D01*
X106234Y-289205D01*
X108857Y-292354D02*
Y-290255D01*
X107283D01*
X107808Y-291304D01*
Y-291829D01*
X107283Y-292354D01*
X106234D01*
X105709Y-291829D01*
Y-290780D01*
X106234Y-290255D01*
X130347Y-268833D02*
X129822Y-268308D01*
X128773D01*
X128248Y-268833D01*
Y-270932D01*
X128773Y-271457D01*
X129822D01*
X130347Y-270932D01*
X132971Y-271457D02*
Y-268308D01*
X131397Y-269882D01*
X133496D01*
X41010Y-281086D02*
X41535Y-280561D01*
Y-279511D01*
X41010Y-278987D01*
X38911D01*
X38386Y-279511D01*
Y-280561D01*
X38911Y-281086D01*
X38386Y-284234D02*
Y-282135D01*
X40485Y-284234D01*
X41010D01*
X41535Y-283710D01*
Y-282660D01*
X41010Y-282135D01*
X70931Y-294290D02*
X71456Y-293765D01*
Y-292716D01*
X70931Y-292191D01*
X68832D01*
X68307Y-292716D01*
Y-293765D01*
X68832Y-294290D01*
X68307Y-295340D02*
Y-296389D01*
Y-295865D01*
X71456D01*
X70931Y-295340D01*
X146654Y-275098D02*
Y-271950D01*
X148228D01*
X148753Y-272475D01*
Y-273524D01*
X148228Y-274049D01*
X146654D01*
X149802Y-272475D02*
X150327Y-271950D01*
X151376D01*
X151901Y-272475D01*
Y-272999D01*
X151376Y-273524D01*
X150852D01*
X151376D01*
X151901Y-274049D01*
Y-274574D01*
X151376Y-275098D01*
X150327D01*
X149802Y-274574D01*
X38189Y-309350D02*
X41338D01*
Y-310925D01*
X40813Y-311449D01*
X39763D01*
X39239Y-310925D01*
Y-309350D01*
Y-310400D02*
X38189Y-311449D01*
Y-312499D02*
Y-313548D01*
Y-313024D01*
X41338D01*
X40813Y-312499D01*
X100065Y-279560D02*
X100590Y-279035D01*
Y-277985D01*
X100065Y-277461D01*
X97966D01*
X97441Y-277985D01*
Y-279035D01*
X97966Y-279560D01*
X100590Y-282708D02*
X100065Y-281659D01*
X99015Y-280609D01*
X97966D01*
X97441Y-281134D01*
Y-282184D01*
X97966Y-282708D01*
X98491D01*
X99015Y-282184D01*
Y-280609D01*
X109252Y-364774D02*
Y-365299D01*
X110301Y-366348D01*
X111351Y-365299D01*
Y-364774D01*
X110301Y-366348D02*
Y-367923D01*
X112401D02*
X113450D01*
X112925D01*
Y-364774D01*
X112401Y-365299D01*
X213140Y-265949D02*
Y-268573D01*
X213665Y-269098D01*
X214714D01*
X215239Y-268573D01*
Y-265949D01*
X217863Y-269098D02*
Y-265949D01*
X216288Y-267524D01*
X218388D01*
X205610Y-362895D02*
Y-366043D01*
X207185D01*
X207709Y-365518D01*
Y-363419D01*
X207185Y-362895D01*
X205610D01*
X208759Y-363419D02*
X209284Y-362895D01*
X210333D01*
X210858Y-363419D01*
Y-363944D01*
X210333Y-364469D01*
X209808D01*
X210333D01*
X210858Y-364994D01*
Y-365518D01*
X210333Y-366043D01*
X209284D01*
X208759Y-365518D01*
X219560Y-287377D02*
X219035Y-286852D01*
X217985D01*
X217460Y-287377D01*
Y-289476D01*
X217985Y-290001D01*
X219035D01*
X219560Y-289476D01*
X222708Y-290001D02*
X220609D01*
X222708Y-287902D01*
Y-287377D01*
X222183Y-286852D01*
X221134D01*
X220609Y-287377D01*
X223758D02*
X224282Y-286852D01*
X225332D01*
X225857Y-287377D01*
Y-287902D01*
X225332Y-288427D01*
X224807D01*
X225332D01*
X225857Y-288951D01*
Y-289476D01*
X225332Y-290001D01*
X224282D01*
X223758Y-289476D01*
X207845Y-259482D02*
X207320Y-258958D01*
X206271D01*
X205746Y-259482D01*
Y-261581D01*
X206271Y-262106D01*
X207320D01*
X207845Y-261581D01*
X210993Y-262106D02*
X208894D01*
X210993Y-260007D01*
Y-259482D01*
X210469Y-258958D01*
X209419D01*
X208894Y-259482D01*
X214142Y-262106D02*
X212043D01*
X214142Y-260007D01*
Y-259482D01*
X213617Y-258958D01*
X212568D01*
X212043Y-259482D01*
X290354Y-349114D02*
X293503D01*
Y-350688D01*
X292978Y-351213D01*
X291929D01*
X291404Y-350688D01*
Y-349114D01*
Y-350164D02*
X290354Y-351213D01*
X292978Y-352263D02*
X293503Y-352787D01*
Y-353837D01*
X292978Y-354362D01*
X292454D01*
X291929Y-353837D01*
X291404Y-354362D01*
X290879D01*
X290354Y-353837D01*
Y-352787D01*
X290879Y-352263D01*
X291404D01*
X291929Y-352787D01*
X292454Y-352263D01*
X292978D01*
X291929Y-352787D02*
Y-353837D01*
X282480Y-349114D02*
X285629D01*
Y-350688D01*
X285104Y-351213D01*
X284055D01*
X283530Y-350688D01*
Y-349114D01*
Y-350164D02*
X282480Y-351213D01*
X285629Y-352263D02*
Y-354362D01*
X285104D01*
X283005Y-352263D01*
X282480D01*
X274606Y-349114D02*
X277755D01*
Y-350688D01*
X277230Y-351213D01*
X276181D01*
X275656Y-350688D01*
Y-349114D01*
Y-350164D02*
X274606Y-351213D01*
X277755Y-354362D02*
X277230Y-353312D01*
X276181Y-352263D01*
X275131D01*
X274606Y-352787D01*
Y-353837D01*
X275131Y-354362D01*
X275656D01*
X276181Y-353837D01*
Y-352263D01*
X210335Y-352574D02*
Y-349426D01*
X211909D01*
X212434Y-349951D01*
Y-351000D01*
X211909Y-351525D01*
X210335D01*
X211384D02*
X212434Y-352574D01*
X215582Y-349426D02*
X213483D01*
Y-351000D01*
X214533Y-350475D01*
X215058D01*
X215582Y-351000D01*
Y-352050D01*
X215058Y-352574D01*
X214008D01*
X213483Y-352050D01*
X281101Y-329166D02*
Y-327067D01*
X279527D01*
Y-328116D01*
Y-327067D01*
X277953D01*
X281101Y-330216D02*
X277953D01*
Y-331790D01*
X278478Y-332314D01*
X279002D01*
X279527Y-331790D01*
Y-330216D01*
Y-331790D01*
X280052Y-332314D01*
X280577D01*
X281101Y-331790D01*
Y-330216D01*
X277953Y-333364D02*
Y-334414D01*
Y-333889D01*
X281101D01*
X280577Y-333364D01*
X310301Y-272079D02*
X310826Y-271555D01*
Y-270505D01*
X310301Y-269980D01*
X308202D01*
X307677Y-270505D01*
Y-271555D01*
X308202Y-272079D01*
X307677Y-275228D02*
Y-273129D01*
X309776Y-275228D01*
X310301D01*
X310826Y-274703D01*
Y-273654D01*
X310301Y-273129D01*
X307677Y-276277D02*
Y-277327D01*
Y-276802D01*
X310826D01*
X310301Y-276277D01*
X293766Y-263812D02*
X294290Y-263287D01*
Y-262237D01*
X293766Y-261713D01*
X291667D01*
X291142Y-262237D01*
Y-263287D01*
X291667Y-263812D01*
X291142Y-266960D02*
Y-264861D01*
X293241Y-266960D01*
X293766D01*
X294290Y-266435D01*
Y-265386D01*
X293766Y-264861D01*
Y-268010D02*
X294290Y-268534D01*
Y-269584D01*
X293766Y-270109D01*
X291667D01*
X291142Y-269584D01*
Y-268534D01*
X291667Y-268010D01*
X293766D01*
X255052Y-348852D02*
X254527Y-348328D01*
X253478D01*
X252953Y-348852D01*
Y-350952D01*
X253478Y-351476D01*
X254527D01*
X255052Y-350952D01*
X256101Y-351476D02*
X257151D01*
X256626D01*
Y-348328D01*
X256101Y-348852D01*
X258725D02*
X259250Y-348328D01*
X260300D01*
X260824Y-348852D01*
Y-349377D01*
X260300Y-349902D01*
X260824Y-350427D01*
Y-350952D01*
X260300Y-351476D01*
X259250D01*
X258725Y-350952D01*
Y-350427D01*
X259250Y-349902D01*
X258725Y-349377D01*
Y-348852D01*
X259250Y-349902D02*
X260300D01*
X222499Y-348852D02*
X221974Y-348328D01*
X220924D01*
X220400Y-348852D01*
Y-350952D01*
X220924Y-351476D01*
X221974D01*
X222499Y-350952D01*
X223548Y-351476D02*
X224598D01*
X224073D01*
Y-348328D01*
X223548Y-348852D01*
X226172Y-348328D02*
X228271D01*
Y-348852D01*
X226172Y-350952D01*
Y-351476D01*
X243241Y-296490D02*
X242716Y-295966D01*
X241667D01*
X241142Y-296490D01*
Y-298589D01*
X241667Y-299114D01*
X242716D01*
X243241Y-298589D01*
X244290Y-299114D02*
X245340D01*
X244815D01*
Y-295966D01*
X244290Y-296490D01*
X246914D02*
X247439Y-295966D01*
X248488D01*
X249013Y-296490D01*
Y-297015D01*
X248488Y-297540D01*
X247964D01*
X248488D01*
X249013Y-298065D01*
Y-298589D01*
X248488Y-299114D01*
X247439D01*
X246914Y-298589D01*
X256496Y-339273D02*
Y-341896D01*
X257021Y-342421D01*
X258070D01*
X258595Y-341896D01*
Y-339273D01*
X259645Y-339797D02*
X260170Y-339273D01*
X261219D01*
X261744Y-339797D01*
Y-340322D01*
X261219Y-340847D01*
X260694D01*
X261219D01*
X261744Y-341372D01*
Y-341896D01*
X261219Y-342421D01*
X260170D01*
X259645Y-341896D01*
X201575Y-293407D02*
Y-296030D01*
X202100Y-296555D01*
X203149D01*
X203674Y-296030D01*
Y-293407D01*
X204724Y-296555D02*
X205773D01*
X205248D01*
Y-293407D01*
X204724Y-293931D01*
X255235Y-269717D02*
Y-272340D01*
X255760Y-272865D01*
X256809D01*
X257334Y-272340D01*
Y-269717D01*
X260483Y-272865D02*
X258384D01*
X260483Y-270766D01*
Y-270241D01*
X259958Y-269717D01*
X258909D01*
X258384Y-270241D01*
X267126Y-349114D02*
X270275D01*
Y-350688D01*
X269750Y-351213D01*
X268700D01*
X268176Y-350688D01*
Y-349114D01*
Y-350164D02*
X267126Y-351213D01*
X269750Y-352263D02*
X270275Y-352787D01*
Y-353837D01*
X269750Y-354362D01*
X269225D01*
X268700Y-353837D01*
Y-353312D01*
Y-353837D01*
X268176Y-354362D01*
X267651D01*
X267126Y-353837D01*
Y-352787D01*
X267651Y-352263D01*
X194912Y-292390D02*
X198060D01*
Y-293964D01*
X197535Y-294489D01*
X196486D01*
X195961Y-293964D01*
Y-292390D01*
Y-293439D02*
X194912Y-294489D01*
Y-297637D02*
Y-295538D01*
X197011Y-297637D01*
X197535D01*
X198060Y-297113D01*
Y-296063D01*
X197535Y-295538D01*
X222573Y-338133D02*
X222048Y-338658D01*
Y-339708D01*
X222573Y-340232D01*
X224672D01*
X225197Y-339708D01*
Y-338658D01*
X224672Y-338133D01*
X225197Y-337084D02*
Y-336034D01*
Y-336559D01*
X222048D01*
X222573Y-337084D01*
X222048Y-332361D02*
Y-334460D01*
X223623D01*
X223098Y-333411D01*
Y-332886D01*
X223623Y-332361D01*
X224672D01*
X225197Y-332886D01*
Y-333935D01*
X224672Y-334460D01*
X267061Y-301838D02*
X266536Y-302363D01*
Y-303412D01*
X267061Y-303937D01*
X269160D01*
X269685Y-303412D01*
Y-302363D01*
X269160Y-301838D01*
X269685Y-300788D02*
Y-299739D01*
Y-300264D01*
X266536D01*
X267061Y-300788D01*
X269685Y-296590D02*
X266536D01*
X268111Y-298165D01*
Y-296065D01*
X243241Y-290191D02*
X242716Y-289666D01*
X241667D01*
X241142Y-290191D01*
Y-292290D01*
X241667Y-292815D01*
X242716D01*
X243241Y-292290D01*
X244290Y-292815D02*
X245340D01*
X244815D01*
Y-289666D01*
X244290Y-290191D01*
X249013Y-292815D02*
X246914D01*
X249013Y-290716D01*
Y-290191D01*
X248488Y-289666D01*
X247439D01*
X246914Y-290191D01*
X273164Y-301838D02*
X272639Y-302363D01*
Y-303412D01*
X273164Y-303937D01*
X275263D01*
X275787Y-303412D01*
Y-302363D01*
X275263Y-301838D01*
X275787Y-300788D02*
Y-299739D01*
Y-300264D01*
X272639D01*
X273164Y-300788D01*
X275787Y-298165D02*
Y-297115D01*
Y-297640D01*
X272639D01*
X273164Y-298165D01*
X268963Y-328379D02*
X269487Y-327854D01*
Y-326804D01*
X268963Y-326279D01*
X266863D01*
X266339Y-326804D01*
Y-327854D01*
X266863Y-328379D01*
X266339Y-329428D02*
Y-330478D01*
Y-329953D01*
X269487D01*
X268963Y-329428D01*
Y-332052D02*
X269487Y-332577D01*
Y-333626D01*
X268963Y-334151D01*
X266863D01*
X266339Y-333626D01*
Y-332577D01*
X266863Y-332052D01*
X268963D01*
X274868Y-331135D02*
X275393Y-330610D01*
Y-329560D01*
X274868Y-329035D01*
X272769D01*
X272244Y-329560D01*
Y-330610D01*
X272769Y-331135D01*
Y-332184D02*
X272244Y-332709D01*
Y-333758D01*
X272769Y-334283D01*
X274868D01*
X275393Y-333758D01*
Y-332709D01*
X274868Y-332184D01*
X274343D01*
X273818Y-332709D01*
Y-334283D01*
X236285Y-279560D02*
X236810Y-279035D01*
Y-277985D01*
X236285Y-277461D01*
X234186D01*
X233662Y-277985D01*
Y-279035D01*
X234186Y-279560D01*
X236285Y-280609D02*
X236810Y-281134D01*
Y-282184D01*
X236285Y-282708D01*
X235761D01*
X235236Y-282184D01*
X234711Y-282708D01*
X234186D01*
X233662Y-282184D01*
Y-281134D01*
X234186Y-280609D01*
X234711D01*
X235236Y-281134D01*
X235761Y-280609D01*
X236285D01*
X235236Y-281134D02*
Y-282184D01*
X226443Y-279560D02*
X226968Y-279035D01*
Y-277985D01*
X226443Y-277461D01*
X224344D01*
X223819Y-277985D01*
Y-279035D01*
X224344Y-279560D01*
X226968Y-280609D02*
Y-282708D01*
X226443D01*
X224344Y-280609D01*
X223819D01*
X257711Y-260675D02*
X257186Y-260151D01*
X256136D01*
X255611Y-260675D01*
Y-262774D01*
X256136Y-263299D01*
X257186D01*
X257711Y-262774D01*
X258760Y-260675D02*
X259285Y-260151D01*
X260334D01*
X260859Y-260675D01*
Y-261200D01*
X260334Y-261725D01*
X259810D01*
X260334D01*
X260859Y-262250D01*
Y-262774D01*
X260334Y-263299D01*
X259285D01*
X258760Y-262774D01*
X254002Y-289205D02*
X254527Y-288681D01*
Y-287631D01*
X254002Y-287106D01*
X251903D01*
X251378Y-287631D01*
Y-288681D01*
X251903Y-289205D01*
X254527Y-292354D02*
Y-290255D01*
X252952D01*
X253477Y-291304D01*
Y-291829D01*
X252952Y-292354D01*
X251903D01*
X251378Y-291829D01*
Y-290780D01*
X251903Y-290255D01*
X276016Y-268833D02*
X275492Y-268308D01*
X274442D01*
X273917Y-268833D01*
Y-270932D01*
X274442Y-271457D01*
X275492D01*
X276016Y-270932D01*
X278640Y-271457D02*
Y-268308D01*
X277066Y-269882D01*
X279165D01*
X186679Y-281086D02*
X187204Y-280561D01*
Y-279511D01*
X186679Y-278987D01*
X184580D01*
X184055Y-279511D01*
Y-280561D01*
X184580Y-281086D01*
X184055Y-284234D02*
Y-282135D01*
X186154Y-284234D01*
X186679D01*
X187204Y-283710D01*
Y-282660D01*
X186679Y-282135D01*
X216600Y-294290D02*
X217125Y-293765D01*
Y-292716D01*
X216600Y-292191D01*
X214501D01*
X213977Y-292716D01*
Y-293765D01*
X214501Y-294290D01*
X213977Y-295340D02*
Y-296389D01*
Y-295865D01*
X217125D01*
X216600Y-295340D01*
X292323Y-275098D02*
Y-271950D01*
X293897D01*
X294422Y-272475D01*
Y-273524D01*
X293897Y-274049D01*
X292323D01*
X295472Y-272475D02*
X295996Y-271950D01*
X297046D01*
X297571Y-272475D01*
Y-272999D01*
X297046Y-273524D01*
X296521D01*
X297046D01*
X297571Y-274049D01*
Y-274574D01*
X297046Y-275098D01*
X295996D01*
X295472Y-274574D01*
X183858Y-309350D02*
X187007D01*
Y-310925D01*
X186482Y-311449D01*
X185433D01*
X184908Y-310925D01*
Y-309350D01*
Y-310400D02*
X183858Y-311449D01*
Y-312499D02*
Y-313548D01*
Y-313024D01*
X187007D01*
X186482Y-312499D01*
X245734Y-279560D02*
X246259Y-279035D01*
Y-277985D01*
X245734Y-277461D01*
X243635D01*
X243110Y-277985D01*
Y-279035D01*
X243635Y-279560D01*
X246259Y-282708D02*
X245734Y-281659D01*
X244685Y-280609D01*
X243635D01*
X243110Y-281134D01*
Y-282184D01*
X243635Y-282708D01*
X244160D01*
X244685Y-282184D01*
Y-280609D01*
X254921Y-364774D02*
Y-365299D01*
X255971Y-366348D01*
X257020Y-365299D01*
Y-364774D01*
X255971Y-366348D02*
Y-367923D01*
X258070D02*
X259120D01*
X258595D01*
Y-364774D01*
X258070Y-365299D01*
X67471Y-139965D02*
Y-142589D01*
X67995Y-143114D01*
X69045D01*
X69570Y-142589D01*
Y-139965D01*
X72193Y-143114D02*
Y-139965D01*
X70619Y-141539D01*
X72718D01*
X59941Y-236910D02*
Y-240059D01*
X61515D01*
X62040Y-239534D01*
Y-237435D01*
X61515Y-236910D01*
X59941D01*
X63090Y-237435D02*
X63614Y-236910D01*
X64664D01*
X65189Y-237435D01*
Y-237960D01*
X64664Y-238485D01*
X64139D01*
X64664D01*
X65189Y-239009D01*
Y-239534D01*
X64664Y-240059D01*
X63614D01*
X63090Y-239534D01*
X73890Y-161393D02*
X73365Y-160868D01*
X72316D01*
X71791Y-161393D01*
Y-163492D01*
X72316Y-164017D01*
X73365D01*
X73890Y-163492D01*
X77039Y-164017D02*
X74940D01*
X77039Y-161918D01*
Y-161393D01*
X76514Y-160868D01*
X75464D01*
X74940Y-161393D01*
X78088D02*
X78613Y-160868D01*
X79663D01*
X80187Y-161393D01*
Y-161918D01*
X79663Y-162442D01*
X79138D01*
X79663D01*
X80187Y-162967D01*
Y-163492D01*
X79663Y-164017D01*
X78613D01*
X78088Y-163492D01*
X62176Y-133498D02*
X61651Y-132973D01*
X60601D01*
X60076Y-133498D01*
Y-135597D01*
X60601Y-136122D01*
X61651D01*
X62176Y-135597D01*
X65324Y-136122D02*
X63225D01*
X65324Y-134023D01*
Y-133498D01*
X64799Y-132973D01*
X63750D01*
X63225Y-133498D01*
X68473Y-136122D02*
X66374D01*
X68473Y-134023D01*
Y-133498D01*
X67948Y-132973D01*
X66898D01*
X66374Y-133498D01*
X144685Y-223130D02*
X147834D01*
Y-224704D01*
X147309Y-225229D01*
X146259D01*
X145735Y-224704D01*
Y-223130D01*
Y-224179D02*
X144685Y-225229D01*
X147309Y-226278D02*
X147834Y-226803D01*
Y-227853D01*
X147309Y-228378D01*
X146784D01*
X146259Y-227853D01*
X145735Y-228378D01*
X145210D01*
X144685Y-227853D01*
Y-226803D01*
X145210Y-226278D01*
X145735D01*
X146259Y-226803D01*
X146784Y-226278D01*
X147309D01*
X146259Y-226803D02*
Y-227853D01*
X136811Y-223130D02*
X139960D01*
Y-224704D01*
X139435Y-225229D01*
X138385D01*
X137861Y-224704D01*
Y-223130D01*
Y-224179D02*
X136811Y-225229D01*
X139960Y-226278D02*
Y-228378D01*
X139435D01*
X137336Y-226278D01*
X136811D01*
X128937Y-223130D02*
X132086D01*
Y-224704D01*
X131561Y-225229D01*
X130511D01*
X129987Y-224704D01*
Y-223130D01*
Y-224179D02*
X128937Y-225229D01*
X132086Y-228378D02*
X131561Y-227328D01*
X130511Y-226278D01*
X129462D01*
X128937Y-226803D01*
Y-227853D01*
X129462Y-228378D01*
X129987D01*
X130511Y-227853D01*
Y-226278D01*
X64665Y-226590D02*
Y-223442D01*
X66240D01*
X66764Y-223966D01*
Y-225016D01*
X66240Y-225541D01*
X64665D01*
X65715D02*
X66764Y-226590D01*
X69913Y-223442D02*
X67814D01*
Y-225016D01*
X68863Y-224491D01*
X69388D01*
X69913Y-225016D01*
Y-226065D01*
X69388Y-226590D01*
X68339D01*
X67814Y-226065D01*
X135432Y-203182D02*
Y-201083D01*
X133858D01*
Y-202132D01*
Y-201083D01*
X132283D01*
X135432Y-204231D02*
X132283D01*
Y-205805D01*
X132808Y-206330D01*
X133333D01*
X133858Y-205805D01*
Y-204231D01*
Y-205805D01*
X134382Y-206330D01*
X134907D01*
X135432Y-205805D01*
Y-204231D01*
X132283Y-207380D02*
Y-208429D01*
Y-207905D01*
X135432D01*
X134907Y-207380D01*
X164632Y-146095D02*
X165156Y-145570D01*
Y-144521D01*
X164632Y-143996D01*
X162533D01*
X162008Y-144521D01*
Y-145570D01*
X162533Y-146095D01*
X162008Y-149244D02*
Y-147145D01*
X164107Y-149244D01*
X164632D01*
X165156Y-148719D01*
Y-147669D01*
X164632Y-147145D01*
X162008Y-150293D02*
Y-151343D01*
Y-150818D01*
X165156D01*
X164632Y-150293D01*
X148096Y-137827D02*
X148621Y-137302D01*
Y-136253D01*
X148096Y-135728D01*
X145997D01*
X145473Y-136253D01*
Y-137302D01*
X145997Y-137827D01*
X145473Y-140976D02*
Y-138877D01*
X147572Y-140976D01*
X148096D01*
X148621Y-140451D01*
Y-139402D01*
X148096Y-138877D01*
Y-142025D02*
X148621Y-142550D01*
Y-143600D01*
X148096Y-144124D01*
X145997D01*
X145473Y-143600D01*
Y-142550D01*
X145997Y-142025D01*
X148096D01*
X109383Y-222868D02*
X108858Y-222343D01*
X107808D01*
X107283Y-222868D01*
Y-224967D01*
X107808Y-225492D01*
X108858D01*
X109383Y-224967D01*
X110432Y-225492D02*
X111482D01*
X110957D01*
Y-222343D01*
X110432Y-222868D01*
X113056D02*
X113581Y-222343D01*
X114630D01*
X115155Y-222868D01*
Y-223393D01*
X114630Y-223918D01*
X115155Y-224443D01*
Y-224967D01*
X114630Y-225492D01*
X113581D01*
X113056Y-224967D01*
Y-224443D01*
X113581Y-223918D01*
X113056Y-223393D01*
Y-222868D01*
X113581Y-223918D02*
X114630D01*
X76829Y-222868D02*
X76305Y-222343D01*
X75255D01*
X74730Y-222868D01*
Y-224967D01*
X75255Y-225492D01*
X76305D01*
X76829Y-224967D01*
X77879Y-225492D02*
X78928D01*
X78404D01*
Y-222343D01*
X77879Y-222868D01*
X80503Y-222343D02*
X82602D01*
Y-222868D01*
X80503Y-224967D01*
Y-225492D01*
X97571Y-170506D02*
X97047Y-169981D01*
X95997D01*
X95473Y-170506D01*
Y-172605D01*
X95997Y-173130D01*
X97047D01*
X97571Y-172605D01*
X98621Y-173130D02*
X99671D01*
X99146D01*
Y-169981D01*
X98621Y-170506D01*
X101245D02*
X101770Y-169981D01*
X102819D01*
X103344Y-170506D01*
Y-171031D01*
X102819Y-171555D01*
X102294D01*
X102819D01*
X103344Y-172080D01*
Y-172605D01*
X102819Y-173130D01*
X101770D01*
X101245Y-172605D01*
X110827Y-213288D02*
Y-215912D01*
X111352Y-216437D01*
X112401D01*
X112926Y-215912D01*
Y-213288D01*
X113975Y-213813D02*
X114500Y-213288D01*
X115550D01*
X116075Y-213813D01*
Y-214338D01*
X115550Y-214863D01*
X115025D01*
X115550D01*
X116075Y-215387D01*
Y-215912D01*
X115550Y-216437D01*
X114500D01*
X113975Y-215912D01*
X55906Y-167422D02*
Y-170046D01*
X56430Y-170571D01*
X57480D01*
X58005Y-170046D01*
Y-167422D01*
X59054Y-170571D02*
X60104D01*
X59579D01*
Y-167422D01*
X59054Y-167947D01*
X109566Y-143732D02*
Y-146356D01*
X110090Y-146881D01*
X111140D01*
X111665Y-146356D01*
Y-143732D01*
X114813Y-146881D02*
X112714D01*
X114813Y-144782D01*
Y-144257D01*
X114289Y-143732D01*
X113239D01*
X112714Y-144257D01*
X121457Y-223130D02*
X124605D01*
Y-224704D01*
X124081Y-225229D01*
X123031D01*
X122506Y-224704D01*
Y-223130D01*
Y-224179D02*
X121457Y-225229D01*
X124081Y-226278D02*
X124605Y-226803D01*
Y-227853D01*
X124081Y-228378D01*
X123556D01*
X123031Y-227853D01*
Y-227328D01*
Y-227853D01*
X122506Y-228378D01*
X121982D01*
X121457Y-227853D01*
Y-226803D01*
X121982Y-226278D01*
X49242Y-166405D02*
X52391D01*
Y-167980D01*
X51866Y-168505D01*
X50816D01*
X50292Y-167980D01*
Y-166405D01*
Y-167455D02*
X49242Y-168505D01*
Y-171653D02*
Y-169554D01*
X51341Y-171653D01*
X51866D01*
X52391Y-171128D01*
Y-170079D01*
X51866Y-169554D01*
X76904Y-212149D02*
X76379Y-212674D01*
Y-213723D01*
X76904Y-214248D01*
X79003D01*
X79528Y-213723D01*
Y-212674D01*
X79003Y-212149D01*
X79528Y-211100D02*
Y-210050D01*
Y-210575D01*
X76379D01*
X76904Y-211100D01*
X76379Y-206377D02*
Y-208476D01*
X77953D01*
X77429Y-207426D01*
Y-206902D01*
X77953Y-206377D01*
X79003D01*
X79528Y-206902D01*
Y-207951D01*
X79003Y-208476D01*
X121392Y-175854D02*
X120867Y-176378D01*
Y-177428D01*
X121392Y-177953D01*
X123491D01*
X124016Y-177428D01*
Y-176378D01*
X123491Y-175854D01*
X124016Y-174804D02*
Y-173755D01*
Y-174279D01*
X120867D01*
X121392Y-174804D01*
X124016Y-170606D02*
X120867D01*
X122441Y-172180D01*
Y-170081D01*
X97571Y-164207D02*
X97047Y-163682D01*
X95997D01*
X95473Y-164207D01*
Y-166306D01*
X95997Y-166831D01*
X97047D01*
X97571Y-166306D01*
X98621Y-166831D02*
X99671D01*
X99146D01*
Y-163682D01*
X98621Y-164207D01*
X103344Y-166831D02*
X101245D01*
X103344Y-164732D01*
Y-164207D01*
X102819Y-163682D01*
X101770D01*
X101245Y-164207D01*
X127494Y-175854D02*
X126970Y-176378D01*
Y-177428D01*
X127494Y-177953D01*
X129593D01*
X130118Y-177428D01*
Y-176378D01*
X129593Y-175854D01*
X130118Y-174804D02*
Y-173755D01*
Y-174279D01*
X126970D01*
X127494Y-174804D01*
X130118Y-172180D02*
Y-171131D01*
Y-171655D01*
X126970D01*
X127494Y-172180D01*
X123293Y-202394D02*
X123818Y-201870D01*
Y-200820D01*
X123293Y-200295D01*
X121194D01*
X120669Y-200820D01*
Y-201870D01*
X121194Y-202394D01*
X120669Y-203444D02*
Y-204493D01*
Y-203969D01*
X123818D01*
X123293Y-203444D01*
Y-206068D02*
X123818Y-206592D01*
Y-207642D01*
X123293Y-208167D01*
X121194D01*
X120669Y-207642D01*
Y-206592D01*
X121194Y-206068D01*
X123293D01*
X129199Y-205150D02*
X129723Y-204625D01*
Y-203576D01*
X129199Y-203051D01*
X127100D01*
X126575Y-203576D01*
Y-204625D01*
X127100Y-205150D01*
Y-206200D02*
X126575Y-206724D01*
Y-207774D01*
X127100Y-208299D01*
X129199D01*
X129723Y-207774D01*
Y-206724D01*
X129199Y-206200D01*
X128674D01*
X128149Y-206724D01*
Y-208299D01*
X90616Y-153575D02*
X91141Y-153051D01*
Y-152001D01*
X90616Y-151476D01*
X88517D01*
X87992Y-152001D01*
Y-153051D01*
X88517Y-153575D01*
X90616Y-154625D02*
X91141Y-155150D01*
Y-156199D01*
X90616Y-156724D01*
X90091D01*
X89566Y-156199D01*
X89042Y-156724D01*
X88517D01*
X87992Y-156199D01*
Y-155150D01*
X88517Y-154625D01*
X89042D01*
X89566Y-155150D01*
X90091Y-154625D01*
X90616D01*
X89566Y-155150D02*
Y-156199D01*
X80774Y-153575D02*
X81298Y-153051D01*
Y-152001D01*
X80774Y-151476D01*
X78674D01*
X78150Y-152001D01*
Y-153051D01*
X78674Y-153575D01*
X81298Y-154625D02*
Y-156724D01*
X80774D01*
X78674Y-154625D01*
X78150D01*
X112041Y-134691D02*
X111516Y-134166D01*
X110467D01*
X109942Y-134691D01*
Y-136790D01*
X110467Y-137315D01*
X111516D01*
X112041Y-136790D01*
X113091Y-134691D02*
X113616Y-134166D01*
X114665D01*
X115190Y-134691D01*
Y-135216D01*
X114665Y-135741D01*
X114140D01*
X114665D01*
X115190Y-136265D01*
Y-136790D01*
X114665Y-137315D01*
X113616D01*
X113091Y-136790D01*
X108333Y-163221D02*
X108857Y-162696D01*
Y-161647D01*
X108333Y-161122D01*
X106234D01*
X105709Y-161647D01*
Y-162696D01*
X106234Y-163221D01*
X108857Y-166370D02*
Y-164270D01*
X107283D01*
X107808Y-165320D01*
Y-165845D01*
X107283Y-166370D01*
X106234D01*
X105709Y-165845D01*
Y-164795D01*
X106234Y-164270D01*
X130347Y-142849D02*
X129822Y-142324D01*
X128773D01*
X128248Y-142849D01*
Y-144948D01*
X128773Y-145472D01*
X129822D01*
X130347Y-144948D01*
X132971Y-145472D02*
Y-142324D01*
X131397Y-143898D01*
X133496D01*
X41010Y-155101D02*
X41535Y-154577D01*
Y-153527D01*
X41010Y-153002D01*
X38911D01*
X38386Y-153527D01*
Y-154577D01*
X38911Y-155101D01*
X38386Y-158250D02*
Y-156151D01*
X40485Y-158250D01*
X41010D01*
X41535Y-157725D01*
Y-156676D01*
X41010Y-156151D01*
X70931Y-168306D02*
X71456Y-167781D01*
Y-166732D01*
X70931Y-166207D01*
X68832D01*
X68307Y-166732D01*
Y-167781D01*
X68832Y-168306D01*
X68307Y-169355D02*
Y-170405D01*
Y-169880D01*
X71456D01*
X70931Y-169355D01*
X146654Y-149114D02*
Y-145966D01*
X148228D01*
X148753Y-146490D01*
Y-147540D01*
X148228Y-148064D01*
X146654D01*
X149802Y-146490D02*
X150327Y-145966D01*
X151376D01*
X151901Y-146490D01*
Y-147015D01*
X151376Y-147540D01*
X150852D01*
X151376D01*
X151901Y-148064D01*
Y-148589D01*
X151376Y-149114D01*
X150327D01*
X149802Y-148589D01*
X38189Y-183366D02*
X41338D01*
Y-184940D01*
X40813Y-185465D01*
X39763D01*
X39239Y-184940D01*
Y-183366D01*
Y-184416D02*
X38189Y-185465D01*
Y-186515D02*
Y-187564D01*
Y-187039D01*
X41338D01*
X40813Y-186515D01*
X100065Y-153575D02*
X100590Y-153051D01*
Y-152001D01*
X100065Y-151476D01*
X97966D01*
X97441Y-152001D01*
Y-153051D01*
X97966Y-153575D01*
X100590Y-156724D02*
X100065Y-155674D01*
X99015Y-154625D01*
X97966D01*
X97441Y-155150D01*
Y-156199D01*
X97966Y-156724D01*
X98491D01*
X99015Y-156199D01*
Y-154625D01*
X109252Y-238790D02*
Y-239315D01*
X110301Y-240364D01*
X111351Y-239315D01*
Y-238790D01*
X110301Y-240364D02*
Y-241938D01*
X112401D02*
X113450D01*
X112925D01*
Y-238790D01*
X112401Y-239315D01*
X213140Y-139965D02*
Y-142589D01*
X213665Y-143114D01*
X214714D01*
X215239Y-142589D01*
Y-139965D01*
X217863Y-143114D02*
Y-139965D01*
X216288Y-141539D01*
X218388D01*
X205610Y-236910D02*
Y-240059D01*
X207185D01*
X207709Y-239534D01*
Y-237435D01*
X207185Y-236910D01*
X205610D01*
X208759Y-237435D02*
X209284Y-236910D01*
X210333D01*
X210858Y-237435D01*
Y-237960D01*
X210333Y-238485D01*
X209808D01*
X210333D01*
X210858Y-239009D01*
Y-239534D01*
X210333Y-240059D01*
X209284D01*
X208759Y-239534D01*
X219560Y-161393D02*
X219035Y-160868D01*
X217985D01*
X217460Y-161393D01*
Y-163492D01*
X217985Y-164017D01*
X219035D01*
X219560Y-163492D01*
X222708Y-164017D02*
X220609D01*
X222708Y-161918D01*
Y-161393D01*
X222183Y-160868D01*
X221134D01*
X220609Y-161393D01*
X223758D02*
X224282Y-160868D01*
X225332D01*
X225857Y-161393D01*
Y-161918D01*
X225332Y-162442D01*
X224807D01*
X225332D01*
X225857Y-162967D01*
Y-163492D01*
X225332Y-164017D01*
X224282D01*
X223758Y-163492D01*
X207845Y-133498D02*
X207320Y-132973D01*
X206271D01*
X205746Y-133498D01*
Y-135597D01*
X206271Y-136122D01*
X207320D01*
X207845Y-135597D01*
X210993Y-136122D02*
X208894D01*
X210993Y-134023D01*
Y-133498D01*
X210469Y-132973D01*
X209419D01*
X208894Y-133498D01*
X214142Y-136122D02*
X212043D01*
X214142Y-134023D01*
Y-133498D01*
X213617Y-132973D01*
X212568D01*
X212043Y-133498D01*
X290354Y-223130D02*
X293503D01*
Y-224704D01*
X292978Y-225229D01*
X291929D01*
X291404Y-224704D01*
Y-223130D01*
Y-224179D02*
X290354Y-225229D01*
X292978Y-226278D02*
X293503Y-226803D01*
Y-227853D01*
X292978Y-228378D01*
X292454D01*
X291929Y-227853D01*
X291404Y-228378D01*
X290879D01*
X290354Y-227853D01*
Y-226803D01*
X290879Y-226278D01*
X291404D01*
X291929Y-226803D01*
X292454Y-226278D01*
X292978D01*
X291929Y-226803D02*
Y-227853D01*
X282480Y-223130D02*
X285629D01*
Y-224704D01*
X285104Y-225229D01*
X284055D01*
X283530Y-224704D01*
Y-223130D01*
Y-224179D02*
X282480Y-225229D01*
X285629Y-226278D02*
Y-228378D01*
X285104D01*
X283005Y-226278D01*
X282480D01*
X274606Y-223130D02*
X277755D01*
Y-224704D01*
X277230Y-225229D01*
X276181D01*
X275656Y-224704D01*
Y-223130D01*
Y-224179D02*
X274606Y-225229D01*
X277755Y-228378D02*
X277230Y-227328D01*
X276181Y-226278D01*
X275131D01*
X274606Y-226803D01*
Y-227853D01*
X275131Y-228378D01*
X275656D01*
X276181Y-227853D01*
Y-226278D01*
X210335Y-226590D02*
Y-223442D01*
X211909D01*
X212434Y-223966D01*
Y-225016D01*
X211909Y-225541D01*
X210335D01*
X211384D02*
X212434Y-226590D01*
X215582Y-223442D02*
X213483D01*
Y-225016D01*
X214533Y-224491D01*
X215058D01*
X215582Y-225016D01*
Y-226065D01*
X215058Y-226590D01*
X214008D01*
X213483Y-226065D01*
X281101Y-203182D02*
Y-201083D01*
X279527D01*
Y-202132D01*
Y-201083D01*
X277953D01*
X281101Y-204231D02*
X277953D01*
Y-205805D01*
X278478Y-206330D01*
X279002D01*
X279527Y-205805D01*
Y-204231D01*
Y-205805D01*
X280052Y-206330D01*
X280577D01*
X281101Y-205805D01*
Y-204231D01*
X277953Y-207380D02*
Y-208429D01*
Y-207905D01*
X281101D01*
X280577Y-207380D01*
X310301Y-146095D02*
X310826Y-145570D01*
Y-144521D01*
X310301Y-143996D01*
X308202D01*
X307677Y-144521D01*
Y-145570D01*
X308202Y-146095D01*
X307677Y-149244D02*
Y-147145D01*
X309776Y-149244D01*
X310301D01*
X310826Y-148719D01*
Y-147669D01*
X310301Y-147145D01*
X307677Y-150293D02*
Y-151343D01*
Y-150818D01*
X310826D01*
X310301Y-150293D01*
X293766Y-137827D02*
X294290Y-137302D01*
Y-136253D01*
X293766Y-135728D01*
X291667D01*
X291142Y-136253D01*
Y-137302D01*
X291667Y-137827D01*
X291142Y-140976D02*
Y-138877D01*
X293241Y-140976D01*
X293766D01*
X294290Y-140451D01*
Y-139402D01*
X293766Y-138877D01*
Y-142025D02*
X294290Y-142550D01*
Y-143600D01*
X293766Y-144124D01*
X291667D01*
X291142Y-143600D01*
Y-142550D01*
X291667Y-142025D01*
X293766D01*
X255052Y-222868D02*
X254527Y-222343D01*
X253478D01*
X252953Y-222868D01*
Y-224967D01*
X253478Y-225492D01*
X254527D01*
X255052Y-224967D01*
X256101Y-225492D02*
X257151D01*
X256626D01*
Y-222343D01*
X256101Y-222868D01*
X258725D02*
X259250Y-222343D01*
X260300D01*
X260824Y-222868D01*
Y-223393D01*
X260300Y-223918D01*
X260824Y-224443D01*
Y-224967D01*
X260300Y-225492D01*
X259250D01*
X258725Y-224967D01*
Y-224443D01*
X259250Y-223918D01*
X258725Y-223393D01*
Y-222868D01*
X259250Y-223918D02*
X260300D01*
X222499Y-222868D02*
X221974Y-222343D01*
X220924D01*
X220400Y-222868D01*
Y-224967D01*
X220924Y-225492D01*
X221974D01*
X222499Y-224967D01*
X223548Y-225492D02*
X224598D01*
X224073D01*
Y-222343D01*
X223548Y-222868D01*
X226172Y-222343D02*
X228271D01*
Y-222868D01*
X226172Y-224967D01*
Y-225492D01*
X243241Y-170506D02*
X242716Y-169981D01*
X241667D01*
X241142Y-170506D01*
Y-172605D01*
X241667Y-173130D01*
X242716D01*
X243241Y-172605D01*
X244290Y-173130D02*
X245340D01*
X244815D01*
Y-169981D01*
X244290Y-170506D01*
X246914D02*
X247439Y-169981D01*
X248488D01*
X249013Y-170506D01*
Y-171031D01*
X248488Y-171555D01*
X247964D01*
X248488D01*
X249013Y-172080D01*
Y-172605D01*
X248488Y-173130D01*
X247439D01*
X246914Y-172605D01*
X256496Y-213288D02*
Y-215912D01*
X257021Y-216437D01*
X258070D01*
X258595Y-215912D01*
Y-213288D01*
X259645Y-213813D02*
X260170Y-213288D01*
X261219D01*
X261744Y-213813D01*
Y-214338D01*
X261219Y-214863D01*
X260694D01*
X261219D01*
X261744Y-215387D01*
Y-215912D01*
X261219Y-216437D01*
X260170D01*
X259645Y-215912D01*
X201575Y-167422D02*
Y-170046D01*
X202100Y-170571D01*
X203149D01*
X203674Y-170046D01*
Y-167422D01*
X204724Y-170571D02*
X205773D01*
X205248D01*
Y-167422D01*
X204724Y-167947D01*
X255235Y-143732D02*
Y-146356D01*
X255760Y-146881D01*
X256809D01*
X257334Y-146356D01*
Y-143732D01*
X260483Y-146881D02*
X258384D01*
X260483Y-144782D01*
Y-144257D01*
X259958Y-143732D01*
X258909D01*
X258384Y-144257D01*
X267126Y-223130D02*
X270275D01*
Y-224704D01*
X269750Y-225229D01*
X268700D01*
X268176Y-224704D01*
Y-223130D01*
Y-224179D02*
X267126Y-225229D01*
X269750Y-226278D02*
X270275Y-226803D01*
Y-227853D01*
X269750Y-228378D01*
X269225D01*
X268700Y-227853D01*
Y-227328D01*
Y-227853D01*
X268176Y-228378D01*
X267651D01*
X267126Y-227853D01*
Y-226803D01*
X267651Y-226278D01*
X194912Y-166405D02*
X198060D01*
Y-167980D01*
X197535Y-168505D01*
X196486D01*
X195961Y-167980D01*
Y-166405D01*
Y-167455D02*
X194912Y-168505D01*
Y-171653D02*
Y-169554D01*
X197011Y-171653D01*
X197535D01*
X198060Y-171128D01*
Y-170079D01*
X197535Y-169554D01*
X222573Y-212149D02*
X222048Y-212674D01*
Y-213723D01*
X222573Y-214248D01*
X224672D01*
X225197Y-213723D01*
Y-212674D01*
X224672Y-212149D01*
X225197Y-211100D02*
Y-210050D01*
Y-210575D01*
X222048D01*
X222573Y-211100D01*
X222048Y-206377D02*
Y-208476D01*
X223623D01*
X223098Y-207426D01*
Y-206902D01*
X223623Y-206377D01*
X224672D01*
X225197Y-206902D01*
Y-207951D01*
X224672Y-208476D01*
X267061Y-175854D02*
X266536Y-176378D01*
Y-177428D01*
X267061Y-177953D01*
X269160D01*
X269685Y-177428D01*
Y-176378D01*
X269160Y-175854D01*
X269685Y-174804D02*
Y-173755D01*
Y-174279D01*
X266536D01*
X267061Y-174804D01*
X269685Y-170606D02*
X266536D01*
X268111Y-172180D01*
Y-170081D01*
X243241Y-164207D02*
X242716Y-163682D01*
X241667D01*
X241142Y-164207D01*
Y-166306D01*
X241667Y-166831D01*
X242716D01*
X243241Y-166306D01*
X244290Y-166831D02*
X245340D01*
X244815D01*
Y-163682D01*
X244290Y-164207D01*
X249013Y-166831D02*
X246914D01*
X249013Y-164732D01*
Y-164207D01*
X248488Y-163682D01*
X247439D01*
X246914Y-164207D01*
X273164Y-175854D02*
X272639Y-176378D01*
Y-177428D01*
X273164Y-177953D01*
X275263D01*
X275787Y-177428D01*
Y-176378D01*
X275263Y-175854D01*
X275787Y-174804D02*
Y-173755D01*
Y-174279D01*
X272639D01*
X273164Y-174804D01*
X275787Y-172180D02*
Y-171131D01*
Y-171655D01*
X272639D01*
X273164Y-172180D01*
X268963Y-202394D02*
X269487Y-201870D01*
Y-200820D01*
X268963Y-200295D01*
X266863D01*
X266339Y-200820D01*
Y-201870D01*
X266863Y-202394D01*
X266339Y-203444D02*
Y-204493D01*
Y-203969D01*
X269487D01*
X268963Y-203444D01*
Y-206068D02*
X269487Y-206592D01*
Y-207642D01*
X268963Y-208167D01*
X266863D01*
X266339Y-207642D01*
Y-206592D01*
X266863Y-206068D01*
X268963D01*
X274868Y-205150D02*
X275393Y-204625D01*
Y-203576D01*
X274868Y-203051D01*
X272769D01*
X272244Y-203576D01*
Y-204625D01*
X272769Y-205150D01*
Y-206200D02*
X272244Y-206724D01*
Y-207774D01*
X272769Y-208299D01*
X274868D01*
X275393Y-207774D01*
Y-206724D01*
X274868Y-206200D01*
X274343D01*
X273818Y-206724D01*
Y-208299D01*
X236285Y-153575D02*
X236810Y-153051D01*
Y-152001D01*
X236285Y-151476D01*
X234186D01*
X233662Y-152001D01*
Y-153051D01*
X234186Y-153575D01*
X236285Y-154625D02*
X236810Y-155150D01*
Y-156199D01*
X236285Y-156724D01*
X235761D01*
X235236Y-156199D01*
X234711Y-156724D01*
X234186D01*
X233662Y-156199D01*
Y-155150D01*
X234186Y-154625D01*
X234711D01*
X235236Y-155150D01*
X235761Y-154625D01*
X236285D01*
X235236Y-155150D02*
Y-156199D01*
X226443Y-153575D02*
X226968Y-153051D01*
Y-152001D01*
X226443Y-151476D01*
X224344D01*
X223819Y-152001D01*
Y-153051D01*
X224344Y-153575D01*
X226968Y-154625D02*
Y-156724D01*
X226443D01*
X224344Y-154625D01*
X223819D01*
X257711Y-134691D02*
X257186Y-134166D01*
X256136D01*
X255611Y-134691D01*
Y-136790D01*
X256136Y-137315D01*
X257186D01*
X257711Y-136790D01*
X258760Y-134691D02*
X259285Y-134166D01*
X260334D01*
X260859Y-134691D01*
Y-135216D01*
X260334Y-135741D01*
X259810D01*
X260334D01*
X260859Y-136265D01*
Y-136790D01*
X260334Y-137315D01*
X259285D01*
X258760Y-136790D01*
X254002Y-163221D02*
X254527Y-162696D01*
Y-161647D01*
X254002Y-161122D01*
X251903D01*
X251378Y-161647D01*
Y-162696D01*
X251903Y-163221D01*
X254527Y-166370D02*
Y-164270D01*
X252952D01*
X253477Y-165320D01*
Y-165845D01*
X252952Y-166370D01*
X251903D01*
X251378Y-165845D01*
Y-164795D01*
X251903Y-164270D01*
X276016Y-142849D02*
X275492Y-142324D01*
X274442D01*
X273917Y-142849D01*
Y-144948D01*
X274442Y-145472D01*
X275492D01*
X276016Y-144948D01*
X278640Y-145472D02*
Y-142324D01*
X277066Y-143898D01*
X279165D01*
X186679Y-155101D02*
X187204Y-154577D01*
Y-153527D01*
X186679Y-153002D01*
X184580D01*
X184055Y-153527D01*
Y-154577D01*
X184580Y-155101D01*
X184055Y-158250D02*
Y-156151D01*
X186154Y-158250D01*
X186679D01*
X187204Y-157725D01*
Y-156676D01*
X186679Y-156151D01*
X216600Y-168306D02*
X217125Y-167781D01*
Y-166732D01*
X216600Y-166207D01*
X214501D01*
X213977Y-166732D01*
Y-167781D01*
X214501Y-168306D01*
X213977Y-169355D02*
Y-170405D01*
Y-169880D01*
X217125D01*
X216600Y-169355D01*
X292323Y-149114D02*
Y-145966D01*
X293897D01*
X294422Y-146490D01*
Y-147540D01*
X293897Y-148064D01*
X292323D01*
X295472Y-146490D02*
X295996Y-145966D01*
X297046D01*
X297571Y-146490D01*
Y-147015D01*
X297046Y-147540D01*
X296521D01*
X297046D01*
X297571Y-148064D01*
Y-148589D01*
X297046Y-149114D01*
X295996D01*
X295472Y-148589D01*
X183858Y-183366D02*
X187007D01*
Y-184940D01*
X186482Y-185465D01*
X185433D01*
X184908Y-184940D01*
Y-183366D01*
Y-184416D02*
X183858Y-185465D01*
Y-186515D02*
Y-187564D01*
Y-187039D01*
X187007D01*
X186482Y-186515D01*
X245734Y-153575D02*
X246259Y-153051D01*
Y-152001D01*
X245734Y-151476D01*
X243635D01*
X243110Y-152001D01*
Y-153051D01*
X243635Y-153575D01*
X246259Y-156724D02*
X245734Y-155674D01*
X244685Y-154625D01*
X243635D01*
X243110Y-155150D01*
Y-156199D01*
X243635Y-156724D01*
X244160D01*
X244685Y-156199D01*
Y-154625D01*
X254921Y-238790D02*
Y-239315D01*
X255971Y-240364D01*
X257020Y-239315D01*
Y-238790D01*
X255971Y-240364D02*
Y-241938D01*
X258070D02*
X259120D01*
X258595D01*
Y-238790D01*
X258070Y-239315D01*
X67471Y-13981D02*
Y-16604D01*
X67995Y-17129D01*
X69045D01*
X69570Y-16604D01*
Y-13981D01*
X72193Y-17129D02*
Y-13981D01*
X70619Y-15555D01*
X72718D01*
X59941Y-110926D02*
Y-114075D01*
X61515D01*
X62040Y-113550D01*
Y-111451D01*
X61515Y-110926D01*
X59941D01*
X63090Y-111451D02*
X63614Y-110926D01*
X64664D01*
X65189Y-111451D01*
Y-111976D01*
X64664Y-112500D01*
X64139D01*
X64664D01*
X65189Y-113025D01*
Y-113550D01*
X64664Y-114075D01*
X63614D01*
X63090Y-113550D01*
X73890Y-35409D02*
X73365Y-34884D01*
X72316D01*
X71791Y-35409D01*
Y-37508D01*
X72316Y-38032D01*
X73365D01*
X73890Y-37508D01*
X77039Y-38032D02*
X74940D01*
X77039Y-35933D01*
Y-35409D01*
X76514Y-34884D01*
X75464D01*
X74940Y-35409D01*
X78088D02*
X78613Y-34884D01*
X79663D01*
X80187Y-35409D01*
Y-35933D01*
X79663Y-36458D01*
X79138D01*
X79663D01*
X80187Y-36983D01*
Y-37508D01*
X79663Y-38032D01*
X78613D01*
X78088Y-37508D01*
X62176Y-7514D02*
X61651Y-6989D01*
X60601D01*
X60076Y-7514D01*
Y-9613D01*
X60601Y-10137D01*
X61651D01*
X62176Y-9613D01*
X65324Y-10137D02*
X63225D01*
X65324Y-8038D01*
Y-7514D01*
X64799Y-6989D01*
X63750D01*
X63225Y-7514D01*
X68473Y-10137D02*
X66374D01*
X68473Y-8038D01*
Y-7514D01*
X67948Y-6989D01*
X66898D01*
X66374Y-7514D01*
X144685Y-97145D02*
X147834D01*
Y-98720D01*
X147309Y-99245D01*
X146259D01*
X145735Y-98720D01*
Y-97145D01*
Y-98195D02*
X144685Y-99245D01*
X147309Y-100294D02*
X147834Y-100819D01*
Y-101868D01*
X147309Y-102393D01*
X146784D01*
X146259Y-101868D01*
X145735Y-102393D01*
X145210D01*
X144685Y-101868D01*
Y-100819D01*
X145210Y-100294D01*
X145735D01*
X146259Y-100819D01*
X146784Y-100294D01*
X147309D01*
X146259Y-100819D02*
Y-101868D01*
X136811Y-97145D02*
X139960D01*
Y-98720D01*
X139435Y-99245D01*
X138385D01*
X137861Y-98720D01*
Y-97145D01*
Y-98195D02*
X136811Y-99245D01*
X139960Y-100294D02*
Y-102393D01*
X139435D01*
X137336Y-100294D01*
X136811D01*
X128937Y-97145D02*
X132086D01*
Y-98720D01*
X131561Y-99245D01*
X130511D01*
X129987Y-98720D01*
Y-97145D01*
Y-98195D02*
X128937Y-99245D01*
X132086Y-102393D02*
X131561Y-101344D01*
X130511Y-100294D01*
X129462D01*
X128937Y-100819D01*
Y-101868D01*
X129462Y-102393D01*
X129987D01*
X130511Y-101868D01*
Y-100294D01*
X64665Y-100606D02*
Y-97457D01*
X66240D01*
X66764Y-97982D01*
Y-99032D01*
X66240Y-99556D01*
X64665D01*
X65715D02*
X66764Y-100606D01*
X69913Y-97457D02*
X67814D01*
Y-99032D01*
X68863Y-98507D01*
X69388D01*
X69913Y-99032D01*
Y-100081D01*
X69388Y-100606D01*
X68339D01*
X67814Y-100081D01*
X135432Y-77197D02*
Y-75098D01*
X133858D01*
Y-76148D01*
Y-75098D01*
X132283D01*
X135432Y-78247D02*
X132283D01*
Y-79821D01*
X132808Y-80346D01*
X133333D01*
X133858Y-79821D01*
Y-78247D01*
Y-79821D01*
X134382Y-80346D01*
X134907D01*
X135432Y-79821D01*
Y-78247D01*
X132283Y-81395D02*
Y-82445D01*
Y-81920D01*
X135432D01*
X134907Y-81395D01*
X164632Y-20111D02*
X165156Y-19586D01*
Y-18536D01*
X164632Y-18012D01*
X162533D01*
X162008Y-18536D01*
Y-19586D01*
X162533Y-20111D01*
X162008Y-23259D02*
Y-21160D01*
X164107Y-23259D01*
X164632D01*
X165156Y-22735D01*
Y-21685D01*
X164632Y-21160D01*
X162008Y-24309D02*
Y-25358D01*
Y-24834D01*
X165156D01*
X164632Y-24309D01*
X148096Y-11843D02*
X148621Y-11318D01*
Y-10269D01*
X148096Y-9744D01*
X145997D01*
X145473Y-10269D01*
Y-11318D01*
X145997Y-11843D01*
X145473Y-14992D02*
Y-12892D01*
X147572Y-14992D01*
X148096D01*
X148621Y-14467D01*
Y-13417D01*
X148096Y-12892D01*
Y-16041D02*
X148621Y-16566D01*
Y-17615D01*
X148096Y-18140D01*
X145997D01*
X145473Y-17615D01*
Y-16566D01*
X145997Y-16041D01*
X148096D01*
X109383Y-96884D02*
X108858Y-96359D01*
X107808D01*
X107283Y-96884D01*
Y-98983D01*
X107808Y-99508D01*
X108858D01*
X109383Y-98983D01*
X110432Y-99508D02*
X111482D01*
X110957D01*
Y-96359D01*
X110432Y-96884D01*
X113056D02*
X113581Y-96359D01*
X114630D01*
X115155Y-96884D01*
Y-97409D01*
X114630Y-97933D01*
X115155Y-98458D01*
Y-98983D01*
X114630Y-99508D01*
X113581D01*
X113056Y-98983D01*
Y-98458D01*
X113581Y-97933D01*
X113056Y-97409D01*
Y-96884D01*
X113581Y-97933D02*
X114630D01*
X76829Y-96884D02*
X76305Y-96359D01*
X75255D01*
X74730Y-96884D01*
Y-98983D01*
X75255Y-99508D01*
X76305D01*
X76829Y-98983D01*
X77879Y-99508D02*
X78928D01*
X78404D01*
Y-96359D01*
X77879Y-96884D01*
X80503Y-96359D02*
X82602D01*
Y-96884D01*
X80503Y-98983D01*
Y-99508D01*
X97571Y-44522D02*
X97047Y-43997D01*
X95997D01*
X95473Y-44522D01*
Y-46621D01*
X95997Y-47146D01*
X97047D01*
X97571Y-46621D01*
X98621Y-47146D02*
X99671D01*
X99146D01*
Y-43997D01*
X98621Y-44522D01*
X101245D02*
X101770Y-43997D01*
X102819D01*
X103344Y-44522D01*
Y-45046D01*
X102819Y-45571D01*
X102294D01*
X102819D01*
X103344Y-46096D01*
Y-46621D01*
X102819Y-47146D01*
X101770D01*
X101245Y-46621D01*
X110827Y-87304D02*
Y-89928D01*
X111352Y-90453D01*
X112401D01*
X112926Y-89928D01*
Y-87304D01*
X113975Y-87829D02*
X114500Y-87304D01*
X115550D01*
X116075Y-87829D01*
Y-88354D01*
X115550Y-88878D01*
X115025D01*
X115550D01*
X116075Y-89403D01*
Y-89928D01*
X115550Y-90453D01*
X114500D01*
X113975Y-89928D01*
X55906Y-41438D02*
Y-44062D01*
X56430Y-44587D01*
X57480D01*
X58005Y-44062D01*
Y-41438D01*
X59054Y-44587D02*
X60104D01*
X59579D01*
Y-41438D01*
X59054Y-41963D01*
X109566Y-17748D02*
Y-20372D01*
X110090Y-20896D01*
X111140D01*
X111665Y-20372D01*
Y-17748D01*
X114813Y-20896D02*
X112714D01*
X114813Y-18797D01*
Y-18273D01*
X114289Y-17748D01*
X113239D01*
X112714Y-18273D01*
X121457Y-97145D02*
X124605D01*
Y-98720D01*
X124081Y-99245D01*
X123031D01*
X122506Y-98720D01*
Y-97145D01*
Y-98195D02*
X121457Y-99245D01*
X124081Y-100294D02*
X124605Y-100819D01*
Y-101868D01*
X124081Y-102393D01*
X123556D01*
X123031Y-101868D01*
Y-101344D01*
Y-101868D01*
X122506Y-102393D01*
X121982D01*
X121457Y-101868D01*
Y-100819D01*
X121982Y-100294D01*
X49242Y-40421D02*
X52391D01*
Y-41995D01*
X51866Y-42520D01*
X50816D01*
X50292Y-41995D01*
Y-40421D01*
Y-41471D02*
X49242Y-42520D01*
Y-45669D02*
Y-43570D01*
X51341Y-45669D01*
X51866D01*
X52391Y-45144D01*
Y-44094D01*
X51866Y-43570D01*
X76904Y-86165D02*
X76379Y-86690D01*
Y-87739D01*
X76904Y-88264D01*
X79003D01*
X79528Y-87739D01*
Y-86690D01*
X79003Y-86165D01*
X79528Y-85115D02*
Y-84066D01*
Y-84591D01*
X76379D01*
X76904Y-85115D01*
X76379Y-80392D02*
Y-82491D01*
X77953D01*
X77429Y-81442D01*
Y-80917D01*
X77953Y-80392D01*
X79003D01*
X79528Y-80917D01*
Y-81967D01*
X79003Y-82491D01*
X121392Y-49869D02*
X120867Y-50394D01*
Y-51444D01*
X121392Y-51968D01*
X123491D01*
X124016Y-51444D01*
Y-50394D01*
X123491Y-49869D01*
X124016Y-48820D02*
Y-47770D01*
Y-48295D01*
X120867D01*
X121392Y-48820D01*
X124016Y-44622D02*
X120867D01*
X122441Y-46196D01*
Y-44097D01*
X97571Y-38223D02*
X97047Y-37698D01*
X95997D01*
X95473Y-38223D01*
Y-40321D01*
X95997Y-40846D01*
X97047D01*
X97571Y-40321D01*
X98621Y-40846D02*
X99671D01*
X99146D01*
Y-37698D01*
X98621Y-38223D01*
X103344Y-40846D02*
X101245D01*
X103344Y-38747D01*
Y-38223D01*
X102819Y-37698D01*
X101770D01*
X101245Y-38223D01*
X127494Y-49869D02*
X126970Y-50394D01*
Y-51444D01*
X127494Y-51968D01*
X129593D01*
X130118Y-51444D01*
Y-50394D01*
X129593Y-49869D01*
X130118Y-48820D02*
Y-47770D01*
Y-48295D01*
X126970D01*
X127494Y-48820D01*
X130118Y-46196D02*
Y-45146D01*
Y-45671D01*
X126970D01*
X127494Y-46196D01*
X123293Y-76410D02*
X123818Y-75885D01*
Y-74836D01*
X123293Y-74311D01*
X121194D01*
X120669Y-74836D01*
Y-75885D01*
X121194Y-76410D01*
X120669Y-77460D02*
Y-78509D01*
Y-77984D01*
X123818D01*
X123293Y-77460D01*
Y-80083D02*
X123818Y-80608D01*
Y-81658D01*
X123293Y-82182D01*
X121194D01*
X120669Y-81658D01*
Y-80608D01*
X121194Y-80083D01*
X123293D01*
X129199Y-79166D02*
X129723Y-78641D01*
Y-77592D01*
X129199Y-77067D01*
X127100D01*
X126575Y-77592D01*
Y-78641D01*
X127100Y-79166D01*
Y-80215D02*
X126575Y-80740D01*
Y-81790D01*
X127100Y-82314D01*
X129199D01*
X129723Y-81790D01*
Y-80740D01*
X129199Y-80215D01*
X128674D01*
X128149Y-80740D01*
Y-82314D01*
X90616Y-27591D02*
X91141Y-27066D01*
Y-26017D01*
X90616Y-25492D01*
X88517D01*
X87992Y-26017D01*
Y-27066D01*
X88517Y-27591D01*
X90616Y-28641D02*
X91141Y-29165D01*
Y-30215D01*
X90616Y-30740D01*
X90091D01*
X89566Y-30215D01*
X89042Y-30740D01*
X88517D01*
X87992Y-30215D01*
Y-29165D01*
X88517Y-28641D01*
X89042D01*
X89566Y-29165D01*
X90091Y-28641D01*
X90616D01*
X89566Y-29165D02*
Y-30215D01*
X80774Y-27591D02*
X81298Y-27066D01*
Y-26017D01*
X80774Y-25492D01*
X78674D01*
X78150Y-26017D01*
Y-27066D01*
X78674Y-27591D01*
X81298Y-28641D02*
Y-30740D01*
X80774D01*
X78674Y-28641D01*
X78150D01*
X112041Y-8707D02*
X111516Y-8182D01*
X110467D01*
X109942Y-8707D01*
Y-10806D01*
X110467Y-11331D01*
X111516D01*
X112041Y-10806D01*
X113091Y-8707D02*
X113616Y-8182D01*
X114665D01*
X115190Y-8707D01*
Y-9232D01*
X114665Y-9756D01*
X114140D01*
X114665D01*
X115190Y-10281D01*
Y-10806D01*
X114665Y-11331D01*
X113616D01*
X113091Y-10806D01*
X108333Y-37237D02*
X108857Y-36712D01*
Y-35662D01*
X108333Y-35138D01*
X106234D01*
X105709Y-35662D01*
Y-36712D01*
X106234Y-37237D01*
X108857Y-40385D02*
Y-38286D01*
X107283D01*
X107808Y-39336D01*
Y-39860D01*
X107283Y-40385D01*
X106234D01*
X105709Y-39860D01*
Y-38811D01*
X106234Y-38286D01*
X130347Y-16864D02*
X129822Y-16339D01*
X128773D01*
X128248Y-16864D01*
Y-18963D01*
X128773Y-19488D01*
X129822D01*
X130347Y-18963D01*
X132971Y-19488D02*
Y-16339D01*
X131397Y-17914D01*
X133496D01*
X41010Y-29117D02*
X41535Y-28592D01*
Y-27543D01*
X41010Y-27018D01*
X38911D01*
X38386Y-27543D01*
Y-28592D01*
X38911Y-29117D01*
X38386Y-32266D02*
Y-30167D01*
X40485Y-32266D01*
X41010D01*
X41535Y-31741D01*
Y-30691D01*
X41010Y-30167D01*
X70931Y-42322D02*
X71456Y-41797D01*
Y-40747D01*
X70931Y-40223D01*
X68832D01*
X68307Y-40747D01*
Y-41797D01*
X68832Y-42322D01*
X68307Y-43371D02*
Y-44421D01*
Y-43896D01*
X71456D01*
X70931Y-43371D01*
X146654Y-23130D02*
Y-19981D01*
X148228D01*
X148753Y-20506D01*
Y-21555D01*
X148228Y-22080D01*
X146654D01*
X149802Y-20506D02*
X150327Y-19981D01*
X151376D01*
X151901Y-20506D01*
Y-21031D01*
X151376Y-21555D01*
X150852D01*
X151376D01*
X151901Y-22080D01*
Y-22605D01*
X151376Y-23130D01*
X150327D01*
X149802Y-22605D01*
X38189Y-57382D02*
X41338D01*
Y-58956D01*
X40813Y-59481D01*
X39763D01*
X39239Y-58956D01*
Y-57382D01*
Y-58431D02*
X38189Y-59481D01*
Y-60530D02*
Y-61580D01*
Y-61055D01*
X41338D01*
X40813Y-60530D01*
X100065Y-27591D02*
X100590Y-27066D01*
Y-26017D01*
X100065Y-25492D01*
X97966D01*
X97441Y-26017D01*
Y-27066D01*
X97966Y-27591D01*
X100590Y-30740D02*
X100065Y-29690D01*
X99015Y-28641D01*
X97966D01*
X97441Y-29165D01*
Y-30215D01*
X97966Y-30740D01*
X98491D01*
X99015Y-30215D01*
Y-28641D01*
X109252Y-112805D02*
Y-113330D01*
X110301Y-114380D01*
X111351Y-113330D01*
Y-112805D01*
X110301Y-114380D02*
Y-115954D01*
X112401D02*
X113450D01*
X112925D01*
Y-112805D01*
X112401Y-113330D01*
X213140Y-13981D02*
Y-16604D01*
X213665Y-17129D01*
X214714D01*
X215239Y-16604D01*
Y-13981D01*
X217863Y-17129D02*
Y-13981D01*
X216288Y-15555D01*
X218388D01*
X205610Y-110926D02*
Y-114075D01*
X207185D01*
X207709Y-113550D01*
Y-111451D01*
X207185Y-110926D01*
X205610D01*
X208759Y-111451D02*
X209284Y-110926D01*
X210333D01*
X210858Y-111451D01*
Y-111976D01*
X210333Y-112500D01*
X209808D01*
X210333D01*
X210858Y-113025D01*
Y-113550D01*
X210333Y-114075D01*
X209284D01*
X208759Y-113550D01*
X219560Y-35409D02*
X219035Y-34884D01*
X217985D01*
X217460Y-35409D01*
Y-37508D01*
X217985Y-38032D01*
X219035D01*
X219560Y-37508D01*
X222708Y-38032D02*
X220609D01*
X222708Y-35933D01*
Y-35409D01*
X222183Y-34884D01*
X221134D01*
X220609Y-35409D01*
X223758D02*
X224282Y-34884D01*
X225332D01*
X225857Y-35409D01*
Y-35933D01*
X225332Y-36458D01*
X224807D01*
X225332D01*
X225857Y-36983D01*
Y-37508D01*
X225332Y-38032D01*
X224282D01*
X223758Y-37508D01*
X207845Y-7514D02*
X207320Y-6989D01*
X206271D01*
X205746Y-7514D01*
Y-9613D01*
X206271Y-10137D01*
X207320D01*
X207845Y-9613D01*
X210993Y-10137D02*
X208894D01*
X210993Y-8038D01*
Y-7514D01*
X210469Y-6989D01*
X209419D01*
X208894Y-7514D01*
X214142Y-10137D02*
X212043D01*
X214142Y-8038D01*
Y-7514D01*
X213617Y-6989D01*
X212568D01*
X212043Y-7514D01*
X290354Y-97145D02*
X293503D01*
Y-98720D01*
X292978Y-99245D01*
X291929D01*
X291404Y-98720D01*
Y-97145D01*
Y-98195D02*
X290354Y-99245D01*
X292978Y-100294D02*
X293503Y-100819D01*
Y-101868D01*
X292978Y-102393D01*
X292454D01*
X291929Y-101868D01*
X291404Y-102393D01*
X290879D01*
X290354Y-101868D01*
Y-100819D01*
X290879Y-100294D01*
X291404D01*
X291929Y-100819D01*
X292454Y-100294D01*
X292978D01*
X291929Y-100819D02*
Y-101868D01*
X282480Y-97145D02*
X285629D01*
Y-98720D01*
X285104Y-99245D01*
X284055D01*
X283530Y-98720D01*
Y-97145D01*
Y-98195D02*
X282480Y-99245D01*
X285629Y-100294D02*
Y-102393D01*
X285104D01*
X283005Y-100294D01*
X282480D01*
X274606Y-97145D02*
X277755D01*
Y-98720D01*
X277230Y-99245D01*
X276181D01*
X275656Y-98720D01*
Y-97145D01*
Y-98195D02*
X274606Y-99245D01*
X277755Y-102393D02*
X277230Y-101344D01*
X276181Y-100294D01*
X275131D01*
X274606Y-100819D01*
Y-101868D01*
X275131Y-102393D01*
X275656D01*
X276181Y-101868D01*
Y-100294D01*
X210335Y-100606D02*
Y-97457D01*
X211909D01*
X212434Y-97982D01*
Y-99032D01*
X211909Y-99556D01*
X210335D01*
X211384D02*
X212434Y-100606D01*
X215582Y-97457D02*
X213483D01*
Y-99032D01*
X214533Y-98507D01*
X215058D01*
X215582Y-99032D01*
Y-100081D01*
X215058Y-100606D01*
X214008D01*
X213483Y-100081D01*
X281101Y-77197D02*
Y-75098D01*
X279527D01*
Y-76148D01*
Y-75098D01*
X277953D01*
X281101Y-78247D02*
X277953D01*
Y-79821D01*
X278478Y-80346D01*
X279002D01*
X279527Y-79821D01*
Y-78247D01*
Y-79821D01*
X280052Y-80346D01*
X280577D01*
X281101Y-79821D01*
Y-78247D01*
X277953Y-81395D02*
Y-82445D01*
Y-81920D01*
X281101D01*
X280577Y-81395D01*
X310301Y-20111D02*
X310826Y-19586D01*
Y-18536D01*
X310301Y-18012D01*
X308202D01*
X307677Y-18536D01*
Y-19586D01*
X308202Y-20111D01*
X307677Y-23259D02*
Y-21160D01*
X309776Y-23259D01*
X310301D01*
X310826Y-22735D01*
Y-21685D01*
X310301Y-21160D01*
X307677Y-24309D02*
Y-25358D01*
Y-24834D01*
X310826D01*
X310301Y-24309D01*
X293766Y-11843D02*
X294290Y-11318D01*
Y-10269D01*
X293766Y-9744D01*
X291667D01*
X291142Y-10269D01*
Y-11318D01*
X291667Y-11843D01*
X291142Y-14992D02*
Y-12892D01*
X293241Y-14992D01*
X293766D01*
X294290Y-14467D01*
Y-13417D01*
X293766Y-12892D01*
Y-16041D02*
X294290Y-16566D01*
Y-17615D01*
X293766Y-18140D01*
X291667D01*
X291142Y-17615D01*
Y-16566D01*
X291667Y-16041D01*
X293766D01*
X255052Y-96884D02*
X254527Y-96359D01*
X253478D01*
X252953Y-96884D01*
Y-98983D01*
X253478Y-99508D01*
X254527D01*
X255052Y-98983D01*
X256101Y-99508D02*
X257151D01*
X256626D01*
Y-96359D01*
X256101Y-96884D01*
X258725D02*
X259250Y-96359D01*
X260300D01*
X260824Y-96884D01*
Y-97409D01*
X260300Y-97933D01*
X260824Y-98458D01*
Y-98983D01*
X260300Y-99508D01*
X259250D01*
X258725Y-98983D01*
Y-98458D01*
X259250Y-97933D01*
X258725Y-97409D01*
Y-96884D01*
X259250Y-97933D02*
X260300D01*
X222499Y-96884D02*
X221974Y-96359D01*
X220924D01*
X220400Y-96884D01*
Y-98983D01*
X220924Y-99508D01*
X221974D01*
X222499Y-98983D01*
X223548Y-99508D02*
X224598D01*
X224073D01*
Y-96359D01*
X223548Y-96884D01*
X226172Y-96359D02*
X228271D01*
Y-96884D01*
X226172Y-98983D01*
Y-99508D01*
X243241Y-44522D02*
X242716Y-43997D01*
X241667D01*
X241142Y-44522D01*
Y-46621D01*
X241667Y-47146D01*
X242716D01*
X243241Y-46621D01*
X244290Y-47146D02*
X245340D01*
X244815D01*
Y-43997D01*
X244290Y-44522D01*
X246914D02*
X247439Y-43997D01*
X248488D01*
X249013Y-44522D01*
Y-45046D01*
X248488Y-45571D01*
X247964D01*
X248488D01*
X249013Y-46096D01*
Y-46621D01*
X248488Y-47146D01*
X247439D01*
X246914Y-46621D01*
X256496Y-87304D02*
Y-89928D01*
X257021Y-90453D01*
X258070D01*
X258595Y-89928D01*
Y-87304D01*
X259645Y-87829D02*
X260170Y-87304D01*
X261219D01*
X261744Y-87829D01*
Y-88354D01*
X261219Y-88878D01*
X260694D01*
X261219D01*
X261744Y-89403D01*
Y-89928D01*
X261219Y-90453D01*
X260170D01*
X259645Y-89928D01*
X201575Y-41438D02*
Y-44062D01*
X202100Y-44587D01*
X203149D01*
X203674Y-44062D01*
Y-41438D01*
X204724Y-44587D02*
X205773D01*
X205248D01*
Y-41438D01*
X204724Y-41963D01*
X255235Y-17748D02*
Y-20372D01*
X255760Y-20896D01*
X256809D01*
X257334Y-20372D01*
Y-17748D01*
X260483Y-20896D02*
X258384D01*
X260483Y-18797D01*
Y-18273D01*
X259958Y-17748D01*
X258909D01*
X258384Y-18273D01*
X267126Y-97145D02*
X270275D01*
Y-98720D01*
X269750Y-99245D01*
X268700D01*
X268176Y-98720D01*
Y-97145D01*
Y-98195D02*
X267126Y-99245D01*
X269750Y-100294D02*
X270275Y-100819D01*
Y-101868D01*
X269750Y-102393D01*
X269225D01*
X268700Y-101868D01*
Y-101344D01*
Y-101868D01*
X268176Y-102393D01*
X267651D01*
X267126Y-101868D01*
Y-100819D01*
X267651Y-100294D01*
X194912Y-40421D02*
X198060D01*
Y-41995D01*
X197535Y-42520D01*
X196486D01*
X195961Y-41995D01*
Y-40421D01*
Y-41471D02*
X194912Y-42520D01*
Y-45669D02*
Y-43570D01*
X197011Y-45669D01*
X197535D01*
X198060Y-45144D01*
Y-44094D01*
X197535Y-43570D01*
X222573Y-86165D02*
X222048Y-86690D01*
Y-87739D01*
X222573Y-88264D01*
X224672D01*
X225197Y-87739D01*
Y-86690D01*
X224672Y-86165D01*
X225197Y-85115D02*
Y-84066D01*
Y-84591D01*
X222048D01*
X222573Y-85115D01*
X222048Y-80392D02*
Y-82491D01*
X223623D01*
X223098Y-81442D01*
Y-80917D01*
X223623Y-80392D01*
X224672D01*
X225197Y-80917D01*
Y-81967D01*
X224672Y-82491D01*
X267061Y-49869D02*
X266536Y-50394D01*
Y-51444D01*
X267061Y-51968D01*
X269160D01*
X269685Y-51444D01*
Y-50394D01*
X269160Y-49869D01*
X269685Y-48820D02*
Y-47770D01*
Y-48295D01*
X266536D01*
X267061Y-48820D01*
X269685Y-44622D02*
X266536D01*
X268111Y-46196D01*
Y-44097D01*
X243241Y-38223D02*
X242716Y-37698D01*
X241667D01*
X241142Y-38223D01*
Y-40321D01*
X241667Y-40846D01*
X242716D01*
X243241Y-40321D01*
X244290Y-40846D02*
X245340D01*
X244815D01*
Y-37698D01*
X244290Y-38223D01*
X249013Y-40846D02*
X246914D01*
X249013Y-38747D01*
Y-38223D01*
X248488Y-37698D01*
X247439D01*
X246914Y-38223D01*
X273164Y-49869D02*
X272639Y-50394D01*
Y-51444D01*
X273164Y-51968D01*
X275263D01*
X275787Y-51444D01*
Y-50394D01*
X275263Y-49869D01*
X275787Y-48820D02*
Y-47770D01*
Y-48295D01*
X272639D01*
X273164Y-48820D01*
X275787Y-46196D02*
Y-45146D01*
Y-45671D01*
X272639D01*
X273164Y-46196D01*
X268963Y-76410D02*
X269487Y-75885D01*
Y-74836D01*
X268963Y-74311D01*
X266863D01*
X266339Y-74836D01*
Y-75885D01*
X266863Y-76410D01*
X266339Y-77460D02*
Y-78509D01*
Y-77984D01*
X269487D01*
X268963Y-77460D01*
Y-80083D02*
X269487Y-80608D01*
Y-81658D01*
X268963Y-82182D01*
X266863D01*
X266339Y-81658D01*
Y-80608D01*
X266863Y-80083D01*
X268963D01*
X274868Y-79166D02*
X275393Y-78641D01*
Y-77592D01*
X274868Y-77067D01*
X272769D01*
X272244Y-77592D01*
Y-78641D01*
X272769Y-79166D01*
Y-80215D02*
X272244Y-80740D01*
Y-81790D01*
X272769Y-82314D01*
X274868D01*
X275393Y-81790D01*
Y-80740D01*
X274868Y-80215D01*
X274343D01*
X273818Y-80740D01*
Y-82314D01*
X236285Y-27591D02*
X236810Y-27066D01*
Y-26017D01*
X236285Y-25492D01*
X234186D01*
X233662Y-26017D01*
Y-27066D01*
X234186Y-27591D01*
X236285Y-28641D02*
X236810Y-29165D01*
Y-30215D01*
X236285Y-30740D01*
X235761D01*
X235236Y-30215D01*
X234711Y-30740D01*
X234186D01*
X233662Y-30215D01*
Y-29165D01*
X234186Y-28641D01*
X234711D01*
X235236Y-29165D01*
X235761Y-28641D01*
X236285D01*
X235236Y-29165D02*
Y-30215D01*
X226443Y-27591D02*
X226968Y-27066D01*
Y-26017D01*
X226443Y-25492D01*
X224344D01*
X223819Y-26017D01*
Y-27066D01*
X224344Y-27591D01*
X226968Y-28641D02*
Y-30740D01*
X226443D01*
X224344Y-28641D01*
X223819D01*
X257711Y-8707D02*
X257186Y-8182D01*
X256136D01*
X255611Y-8707D01*
Y-10806D01*
X256136Y-11331D01*
X257186D01*
X257711Y-10806D01*
X258760Y-8707D02*
X259285Y-8182D01*
X260334D01*
X260859Y-8707D01*
Y-9232D01*
X260334Y-9756D01*
X259810D01*
X260334D01*
X260859Y-10281D01*
Y-10806D01*
X260334Y-11331D01*
X259285D01*
X258760Y-10806D01*
X254002Y-37237D02*
X254527Y-36712D01*
Y-35662D01*
X254002Y-35138D01*
X251903D01*
X251378Y-35662D01*
Y-36712D01*
X251903Y-37237D01*
X254527Y-40385D02*
Y-38286D01*
X252952D01*
X253477Y-39336D01*
Y-39860D01*
X252952Y-40385D01*
X251903D01*
X251378Y-39860D01*
Y-38811D01*
X251903Y-38286D01*
X276016Y-16864D02*
X275492Y-16339D01*
X274442D01*
X273917Y-16864D01*
Y-18963D01*
X274442Y-19488D01*
X275492D01*
X276016Y-18963D01*
X278640Y-19488D02*
Y-16339D01*
X277066Y-17914D01*
X279165D01*
X186679Y-29117D02*
X187204Y-28592D01*
Y-27543D01*
X186679Y-27018D01*
X184580D01*
X184055Y-27543D01*
Y-28592D01*
X184580Y-29117D01*
X184055Y-32266D02*
Y-30167D01*
X186154Y-32266D01*
X186679D01*
X187204Y-31741D01*
Y-30691D01*
X186679Y-30167D01*
X216600Y-42322D02*
X217125Y-41797D01*
Y-40747D01*
X216600Y-40223D01*
X214501D01*
X213977Y-40747D01*
Y-41797D01*
X214501Y-42322D01*
X213977Y-43371D02*
Y-44421D01*
Y-43896D01*
X217125D01*
X216600Y-43371D01*
X292323Y-23130D02*
Y-19981D01*
X293897D01*
X294422Y-20506D01*
Y-21555D01*
X293897Y-22080D01*
X292323D01*
X295472Y-20506D02*
X295996Y-19981D01*
X297046D01*
X297571Y-20506D01*
Y-21031D01*
X297046Y-21555D01*
X296521D01*
X297046D01*
X297571Y-22080D01*
Y-22605D01*
X297046Y-23130D01*
X295996D01*
X295472Y-22605D01*
X183858Y-57382D02*
X187007D01*
Y-58956D01*
X186482Y-59481D01*
X185433D01*
X184908Y-58956D01*
Y-57382D01*
Y-58431D02*
X183858Y-59481D01*
Y-60530D02*
Y-61580D01*
Y-61055D01*
X187007D01*
X186482Y-60530D01*
X245734Y-27591D02*
X246259Y-27066D01*
Y-26017D01*
X245734Y-25492D01*
X243635D01*
X243110Y-26017D01*
Y-27066D01*
X243635Y-27591D01*
X246259Y-30740D02*
X245734Y-29690D01*
X244685Y-28641D01*
X243635D01*
X243110Y-29165D01*
Y-30215D01*
X243635Y-30740D01*
X244160D01*
X244685Y-30215D01*
Y-28641D01*
X254921Y-112805D02*
Y-113330D01*
X255971Y-114380D01*
X257020Y-113330D01*
Y-112805D01*
X255971Y-114380D02*
Y-115954D01*
X258070D02*
X259120D01*
X258595D01*
Y-112805D01*
X258070Y-113330D01*
D55*
X70276Y-272244D02*
G03*
X70276Y-272244I-492J0D01*
G01*
X84252Y-339567D02*
G03*
X84252Y-339567I-492J0D01*
G01*
X63681Y-311220D02*
G03*
X63681Y-311220I-492J0D01*
G01*
X215945Y-272244D02*
G03*
X215945Y-272244I-492J0D01*
G01*
X229921Y-339567D02*
G03*
X229921Y-339567I-492J0D01*
G01*
X209350Y-311220D02*
G03*
X209350Y-311220I-492J0D01*
G01*
X70276Y-146260D02*
G03*
X70276Y-146260I-492J0D01*
G01*
X84252Y-213583D02*
G03*
X84252Y-213583I-492J0D01*
G01*
X63681Y-185236D02*
G03*
X63681Y-185236I-492J0D01*
G01*
X215945Y-146260D02*
G03*
X215945Y-146260I-492J0D01*
G01*
X229921Y-213583D02*
G03*
X229921Y-213583I-492J0D01*
G01*
X209350Y-185236D02*
G03*
X209350Y-185236I-492J0D01*
G01*
X70276Y-20275D02*
G03*
X70276Y-20275I-492J0D01*
G01*
X84252Y-87598D02*
G03*
X84252Y-87598I-492J0D01*
G01*
X63681Y-59252D02*
G03*
X63681Y-59252I-492J0D01*
G01*
X215945Y-20275D02*
G03*
X215945Y-20275I-492J0D01*
G01*
X229921Y-87598D02*
G03*
X229921Y-87598I-492J0D01*
G01*
X209350Y-59252D02*
G03*
X209350Y-59252I-492J0D01*
G01*
D56*
X90354Y-331004D02*
G03*
X90354Y-331004I-1181J0D01*
G01*
X236024D02*
G03*
X236024Y-331004I-1181J0D01*
G01*
X90354Y-205020D02*
G03*
X90354Y-205020I-1181J0D01*
G01*
X236024D02*
G03*
X236024Y-205020I-1181J0D01*
G01*
X90354Y-79035D02*
G03*
X90354Y-79035I-1181J0D01*
G01*
X236024D02*
G03*
X236024Y-79035I-1181J0D01*
G01*
D57*
X112874Y-288898D02*
Y-274488D01*
X125709Y-288898D02*
Y-274646D01*
X258543Y-288898D02*
Y-274488D01*
X271378Y-288898D02*
Y-274646D01*
X112874Y-162913D02*
Y-148504D01*
X125709Y-162913D02*
Y-148661D01*
X258543Y-162913D02*
Y-148504D01*
X271378Y-162913D02*
Y-148661D01*
X112874Y-36929D02*
Y-22520D01*
X125709Y-36929D02*
Y-22677D01*
X258543Y-36929D02*
Y-22520D01*
X271378Y-36929D02*
Y-22677D01*
M02*
