G04*
G04 #@! TF.GenerationSoftware,Altium Limited,Altium Designer,19.1.7 (138)*
G04*
G04 Layer_Color=16711935*
%FSLAX25Y25*%
%MOIN*%
G70*
G01*
G75*
%ADD55R,0.07099X0.07099*%
%ADD56C,0.07099*%
%ADD57C,0.03162*%
%ADD58C,0.05800*%
D55*
X302500Y47244D02*
D03*
D56*
Y33465D02*
D03*
X300020Y57087D02*
D03*
Y23622D02*
D03*
D57*
X267717Y66142D02*
D03*
Y59843D02*
D03*
Y53543D02*
D03*
Y47244D02*
D03*
X266142Y69291D02*
D03*
X264567Y66142D02*
D03*
X266142Y62992D02*
D03*
X264567Y59843D02*
D03*
X266142Y56693D02*
D03*
X264567Y53543D02*
D03*
X266142Y50394D02*
D03*
X264567Y47244D02*
D03*
X262992Y69291D02*
D03*
X261418Y66142D02*
D03*
X262992Y62992D02*
D03*
X261418Y59843D02*
D03*
X262992Y56693D02*
D03*
X261418Y53543D02*
D03*
X262992Y50394D02*
D03*
X261418Y47244D02*
D03*
X259843Y69291D02*
D03*
X258268Y66142D02*
D03*
X259843Y62992D02*
D03*
X258268Y59843D02*
D03*
X259843Y56693D02*
D03*
X258268Y53543D02*
D03*
X259843Y50394D02*
D03*
X258268Y47244D02*
D03*
X256693Y69291D02*
D03*
X255118Y66142D02*
D03*
X256693Y62992D02*
D03*
X255118Y59843D02*
D03*
X256693Y56693D02*
D03*
X255118Y53543D02*
D03*
X256693Y50394D02*
D03*
X255118Y47244D02*
D03*
X253544Y69291D02*
D03*
X251969Y66142D02*
D03*
X253544Y62992D02*
D03*
X251969Y59843D02*
D03*
X253544Y56693D02*
D03*
X251969Y53543D02*
D03*
X253544Y50394D02*
D03*
X251969Y47244D02*
D03*
X250394Y81890D02*
D03*
Y69291D02*
D03*
X248819Y66142D02*
D03*
X250394Y62992D02*
D03*
X248819Y59843D02*
D03*
X250394Y56693D02*
D03*
X248819Y53543D02*
D03*
X250394Y50394D02*
D03*
X248819Y47244D02*
D03*
X247244Y69291D02*
D03*
X245670Y66142D02*
D03*
X247244Y62992D02*
D03*
X245670Y59843D02*
D03*
X247244Y56693D02*
D03*
X245670Y53543D02*
D03*
X247244Y50394D02*
D03*
X245670Y47244D02*
D03*
X244095Y69291D02*
D03*
X242520Y66142D02*
D03*
X244095Y62992D02*
D03*
X242520Y59843D02*
D03*
X244095Y56693D02*
D03*
X242520Y53543D02*
D03*
X244095Y50394D02*
D03*
X242520Y47244D02*
D03*
X240945Y69291D02*
D03*
X239370Y66142D02*
D03*
X240945Y62992D02*
D03*
X239370Y59843D02*
D03*
X240945Y56693D02*
D03*
X239370Y53543D02*
D03*
X240945Y50394D02*
D03*
X239370Y47244D02*
D03*
X237796Y69291D02*
D03*
X236221Y66142D02*
D03*
X237796Y62992D02*
D03*
X236221Y59843D02*
D03*
X237796Y56693D02*
D03*
X236221Y53543D02*
D03*
X237796Y50394D02*
D03*
X236221Y47244D02*
D03*
X234646Y69291D02*
D03*
X233071Y66142D02*
D03*
X234646Y62992D02*
D03*
X233071Y59843D02*
D03*
X234646Y56693D02*
D03*
X233071Y53543D02*
D03*
X234646Y50394D02*
D03*
X233071Y47244D02*
D03*
X231496Y81890D02*
D03*
Y69291D02*
D03*
X229922Y66142D02*
D03*
X231496Y62992D02*
D03*
X229922Y59843D02*
D03*
X231496Y56693D02*
D03*
X229922Y53543D02*
D03*
X231496Y50394D02*
D03*
X229922Y47244D02*
D03*
X228347Y81890D02*
D03*
Y69291D02*
D03*
X226772Y66142D02*
D03*
X228347Y62992D02*
D03*
X226772Y59843D02*
D03*
X228347Y56693D02*
D03*
X226772Y53543D02*
D03*
X228347Y50394D02*
D03*
X226772Y47244D02*
D03*
X225197Y69291D02*
D03*
X223622Y66142D02*
D03*
X225197Y62992D02*
D03*
X223622Y59843D02*
D03*
X225197Y56693D02*
D03*
X223622Y53543D02*
D03*
X225197Y50394D02*
D03*
X223622Y47244D02*
D03*
X222047Y69291D02*
D03*
X220473Y66142D02*
D03*
X222047Y62992D02*
D03*
X220473Y59843D02*
D03*
X222047Y56693D02*
D03*
X220473Y53543D02*
D03*
X222047Y50394D02*
D03*
X220473Y47244D02*
D03*
X218898Y69291D02*
D03*
X217323Y66142D02*
D03*
X218898Y62992D02*
D03*
X217323Y59843D02*
D03*
X218898Y56693D02*
D03*
X217323Y53543D02*
D03*
X218898Y50394D02*
D03*
X217323Y47244D02*
D03*
X215748Y69291D02*
D03*
X214174Y66142D02*
D03*
X215748Y62992D02*
D03*
X214174Y59843D02*
D03*
X215748Y56693D02*
D03*
X214174Y53543D02*
D03*
X215748Y50394D02*
D03*
X214174Y47244D02*
D03*
X212599Y69291D02*
D03*
X211024Y66142D02*
D03*
X212599Y62992D02*
D03*
X211024Y59843D02*
D03*
X212599Y56693D02*
D03*
X211024Y53543D02*
D03*
X212599Y50394D02*
D03*
X211024Y47244D02*
D03*
X209449Y81890D02*
D03*
Y69291D02*
D03*
X207874Y66142D02*
D03*
X209449Y62992D02*
D03*
X207874Y59843D02*
D03*
X209449Y56693D02*
D03*
X207874Y53543D02*
D03*
X209449Y50394D02*
D03*
X207874Y47244D02*
D03*
X206299Y69291D02*
D03*
X204725Y66142D02*
D03*
X206299Y62992D02*
D03*
X204725Y59843D02*
D03*
X206299Y56693D02*
D03*
X204725Y53543D02*
D03*
X206299Y50394D02*
D03*
X204725Y47244D02*
D03*
X203150Y69291D02*
D03*
X201575Y66142D02*
D03*
X203150Y62992D02*
D03*
X201575Y59843D02*
D03*
X203150Y56693D02*
D03*
X201575Y53543D02*
D03*
X203150Y50394D02*
D03*
X201575Y47244D02*
D03*
X200000Y69291D02*
D03*
X198425Y66142D02*
D03*
X200000Y62992D02*
D03*
X198425Y59843D02*
D03*
X200000Y56693D02*
D03*
X198425Y53543D02*
D03*
X200000Y50394D02*
D03*
X198425Y47244D02*
D03*
X196851Y69291D02*
D03*
X195276Y66142D02*
D03*
X196851Y62992D02*
D03*
X195276Y59843D02*
D03*
X196851Y56693D02*
D03*
X195276Y53543D02*
D03*
X196851Y50394D02*
D03*
X195276Y47244D02*
D03*
X193701Y69291D02*
D03*
X192126Y66142D02*
D03*
X193701Y62992D02*
D03*
X192126Y59843D02*
D03*
X193701Y56693D02*
D03*
X192126Y53543D02*
D03*
X193701Y50394D02*
D03*
X192126Y47244D02*
D03*
X190551Y81890D02*
D03*
Y69291D02*
D03*
X188977Y66142D02*
D03*
X190551Y62992D02*
D03*
X188977Y59843D02*
D03*
X190551Y56693D02*
D03*
X188977Y53543D02*
D03*
X190551Y50394D02*
D03*
X188977Y47244D02*
D03*
X187402Y69291D02*
D03*
X185827Y66142D02*
D03*
X187402Y62992D02*
D03*
X185827Y59843D02*
D03*
X187402Y56693D02*
D03*
X185827Y53543D02*
D03*
X187402Y50394D02*
D03*
X185827Y47244D02*
D03*
X184252Y69291D02*
D03*
X182677Y66142D02*
D03*
X184252Y62992D02*
D03*
X182677Y59843D02*
D03*
X184252Y56693D02*
D03*
X182677Y53543D02*
D03*
X184252Y50394D02*
D03*
X182677Y47244D02*
D03*
X181103Y69291D02*
D03*
X179528Y66142D02*
D03*
X181103Y62992D02*
D03*
X179528Y59843D02*
D03*
X181103Y56693D02*
D03*
X179528Y53543D02*
D03*
X181103Y50394D02*
D03*
X179528Y47244D02*
D03*
X177953Y69291D02*
D03*
X176378Y66142D02*
D03*
X177953Y62992D02*
D03*
X176378Y59843D02*
D03*
X177953Y56693D02*
D03*
X176378Y53543D02*
D03*
X177953Y50394D02*
D03*
X176378Y47244D02*
D03*
X174803Y69291D02*
D03*
X173229Y66142D02*
D03*
X174803Y62992D02*
D03*
X173229Y59843D02*
D03*
X174803Y56693D02*
D03*
X173229Y53543D02*
D03*
X174803Y50394D02*
D03*
X173229Y47244D02*
D03*
X171654Y81890D02*
D03*
Y69291D02*
D03*
X170079Y66142D02*
D03*
X171654Y62992D02*
D03*
X170079Y59843D02*
D03*
X171654Y56693D02*
D03*
X170079Y53543D02*
D03*
X171654Y50394D02*
D03*
X170079Y47244D02*
D03*
X168504Y81890D02*
D03*
Y69291D02*
D03*
X166929Y66142D02*
D03*
X168504Y62992D02*
D03*
X166929Y59843D02*
D03*
X168504Y56693D02*
D03*
X166929Y53543D02*
D03*
X168504Y50394D02*
D03*
X166929Y47244D02*
D03*
X165355Y69291D02*
D03*
X163780Y66142D02*
D03*
X165355Y62992D02*
D03*
X163780Y59843D02*
D03*
X165355Y56693D02*
D03*
X163780Y53543D02*
D03*
X165355Y50394D02*
D03*
X163780Y47244D02*
D03*
X162205Y69291D02*
D03*
X160630Y66142D02*
D03*
X162205Y62992D02*
D03*
X160630Y59843D02*
D03*
X162205Y56693D02*
D03*
X160630Y53543D02*
D03*
X162205Y50394D02*
D03*
X160630Y47244D02*
D03*
X159055Y69291D02*
D03*
X157481Y66142D02*
D03*
X159055Y62992D02*
D03*
X157481Y59843D02*
D03*
X159055Y56693D02*
D03*
X157481Y53543D02*
D03*
X159055Y50394D02*
D03*
X157481Y47244D02*
D03*
X155906Y69291D02*
D03*
X154331Y66142D02*
D03*
X155906Y62992D02*
D03*
X154331Y59843D02*
D03*
X155906Y56693D02*
D03*
X154331Y53543D02*
D03*
X155906Y50394D02*
D03*
X154331Y47244D02*
D03*
X152756Y69291D02*
D03*
Y62992D02*
D03*
Y56693D02*
D03*
Y50394D02*
D03*
D58*
X277500Y95000D02*
D03*
X190945Y130000D02*
D03*
X70000Y39618D02*
D03*
Y50721D02*
D03*
X85000Y115000D02*
D03*
X104828Y95000D02*
D03*
X95395Y120000D02*
D03*
M02*
