G04*
G04 #@! TF.GenerationSoftware,Altium Limited,Altium Designer,18.1.6 (161)*
G04*
G04 Layer_Color=65535*
%FSLAX25Y25*%
%MOIN*%
G70*
G01*
G75*
%ADD10C,0.00984*%
%ADD11C,0.02362*%
%ADD12C,0.00787*%
%ADD13C,0.01000*%
%ADD14C,0.00669*%
%ADD15C,0.00591*%
%ADD16C,0.00591*%
G36*
X130098Y106218D02*
X130194Y106191D01*
X130290Y106136D01*
X130303Y106122D01*
X130358Y106081D01*
X130413Y106013D01*
X130468Y105944D01*
X137934Y92806D01*
X137948Y92792D01*
X137975Y92724D01*
X137989Y92642D01*
X138003Y92518D01*
Y92491D01*
X137989Y92422D01*
X137975Y92326D01*
X137920Y92217D01*
X137907Y92189D01*
X137866Y92135D01*
X137811Y92066D01*
X137715Y91998D01*
X137688Y91984D01*
X137619Y91970D01*
X137509Y91943D01*
X137359Y91929D01*
X122371D01*
X122289Y91943D01*
X122193Y91970D01*
X122097Y92011D01*
X122083Y92025D01*
X122042Y92080D01*
X121987Y92148D01*
X121919Y92231D01*
X121905Y92258D01*
X121878Y92313D01*
X121850Y92395D01*
X121837Y92491D01*
Y92505D01*
Y92518D01*
Y92601D01*
X121850Y92683D01*
X121864Y92751D01*
X121878Y92765D01*
X121891Y92792D01*
X121919Y92820D01*
X121946Y92847D01*
X129440Y105930D01*
X129454Y105944D01*
X129495Y105999D01*
X129550Y106068D01*
X129632Y106136D01*
X129659Y106150D01*
X129714Y106191D01*
X129824Y106218D01*
X129974Y106232D01*
X130016D01*
X130098Y106218D01*
D02*
G37*
G36*
X454952Y99013D02*
X455048Y98999D01*
X455158Y98944D01*
X455185Y98930D01*
X455240Y98889D01*
X455308Y98835D01*
X455377Y98739D01*
X455391Y98711D01*
X455404Y98643D01*
X455432Y98533D01*
X455445Y98382D01*
Y83395D01*
X455432Y83312D01*
X455404Y83217D01*
X455363Y83121D01*
X455349Y83107D01*
X455295Y83066D01*
X455226Y83011D01*
X455144Y82942D01*
X455117Y82929D01*
X455062Y82901D01*
X454980Y82874D01*
X454884Y82860D01*
X454870D01*
X454856D01*
X454774D01*
X454692Y82874D01*
X454623Y82888D01*
X454610Y82901D01*
X454582Y82915D01*
X454555Y82942D01*
X454528Y82970D01*
X441444Y90464D01*
X441430Y90478D01*
X441376Y90519D01*
X441307Y90573D01*
X441239Y90656D01*
X441225Y90683D01*
X441184Y90738D01*
X441156Y90847D01*
X441143Y90998D01*
Y91039D01*
X441156Y91121D01*
X441184Y91217D01*
X441239Y91313D01*
X441252Y91327D01*
X441293Y91382D01*
X441362Y91436D01*
X441430Y91491D01*
X454569Y98958D01*
X454582Y98971D01*
X454651Y98999D01*
X454733Y99013D01*
X454856Y99026D01*
X454884D01*
X454952Y99013D01*
D02*
G37*
%LPC*%
G36*
X129974Y104794D02*
X123179Y92957D01*
X136660D01*
X129974Y104794D01*
D02*
G37*
%LPD*%
G36*
X130194Y102081D02*
X131262Y101971D01*
X129358Y98560D01*
X132016Y99601D01*
X130865Y95217D01*
X131933Y95135D01*
X129646Y93039D01*
X128782Y95971D01*
X129701Y95505D01*
X130221Y97395D01*
X127289Y96258D01*
X129440Y102752D01*
X130194Y102081D01*
D02*
G37*
%LPC*%
G36*
X454418Y97684D02*
X442581Y90998D01*
X454418Y84203D01*
Y97684D01*
D02*
G37*
%LPD*%
G36*
X452157Y91889D02*
X452240Y92957D01*
X454336Y90669D01*
X451404Y89806D01*
X451870Y90724D01*
X449979Y91245D01*
X451116Y88313D01*
X444623Y90464D01*
X445294Y91217D01*
X445403Y92286D01*
X448815Y90382D01*
X447773Y93039D01*
X452157Y91889D01*
D02*
G37*
D10*
X299744Y202063D02*
G03*
X299744Y202063I-492J0D01*
G01*
X200098Y143524D02*
G03*
X200098Y143524I-492J0D01*
G01*
X104134Y132677D02*
G03*
X104134Y132677I-492J0D01*
G01*
X150929Y204685D02*
G03*
X150929Y204685I-492J0D01*
G01*
X174918Y165453D02*
G03*
X174918Y165453I-492J0D01*
G01*
X109453Y173622D02*
G03*
X109453Y173622I-492J0D01*
G01*
D11*
X209055Y138583D02*
G03*
X209055Y138583I-1181J0D01*
G01*
D12*
X157098Y141358D02*
G03*
X157098Y141358I-394J0D01*
G01*
X160098Y137858D02*
G03*
X160098Y137858I-394J0D01*
G01*
X311909Y205961D02*
Y215016D01*
X299902Y205961D02*
X311909D01*
X299902Y215016D02*
X311909D01*
X299902Y205961D02*
Y215016D01*
X203937Y142520D02*
X216535D01*
Y122835D02*
Y142520D01*
X203937Y122835D02*
Y142520D01*
Y122835D02*
X216535D01*
X157874Y127953D02*
Y139764D01*
X166535Y127953D02*
Y139764D01*
X157874D02*
X166535D01*
X157874Y127953D02*
X166535D01*
X107087Y131693D02*
X111024D01*
Y119488D02*
Y131693D01*
X107087Y119488D02*
Y131693D01*
Y119488D02*
X111024D01*
X143122Y212811D02*
Y215173D01*
X136823Y212811D02*
Y215173D01*
X180512Y195866D02*
Y197047D01*
X205315Y195866D02*
Y197047D01*
X113386Y190157D02*
X117323D01*
X113386Y200394D02*
X117323D01*
X154335Y192028D02*
X163390D01*
X154335Y204035D02*
X163390D01*
Y192028D02*
Y204035D01*
X154335Y192028D02*
Y204035D01*
X161434Y159351D02*
X173245D01*
X161434Y162500D02*
X173245D01*
X161434Y159351D02*
Y162500D01*
X173245Y159351D02*
Y162500D01*
X116342Y160433D02*
Y172638D01*
X112406Y160433D02*
Y172638D01*
Y160433D02*
X116342D01*
X112406Y172638D02*
X116342D01*
D13*
X218110Y166929D02*
Y236221D01*
X210236Y166929D02*
X218110D01*
X210236Y98425D02*
Y166929D01*
X153937Y98425D02*
X210236D01*
X153937Y78740D02*
Y98425D01*
X78740Y78740D02*
Y236221D01*
Y78740D02*
X433071D01*
Y236221D01*
X78740D02*
X433071D01*
D14*
X170014Y52934D02*
X170539Y53459D01*
X171589D01*
X172114Y52934D01*
Y52409D01*
X171589Y51885D01*
X171064D01*
X171589D01*
X172114Y51360D01*
Y50835D01*
X171589Y50310D01*
X170539D01*
X170014Y50835D01*
X173163Y53459D02*
Y51360D01*
X174213Y50310D01*
X175262Y51360D01*
Y53459D01*
X176312Y52934D02*
X176836Y53459D01*
X177886D01*
X178411Y52934D01*
Y52409D01*
X177886Y51885D01*
X177361D01*
X177886D01*
X178411Y51360D01*
Y50835D01*
X177886Y50310D01*
X176836D01*
X176312Y50835D01*
X117852Y85400D02*
X117327Y85925D01*
X116278D01*
X115753Y85400D01*
Y83301D01*
X116278Y82776D01*
X117327D01*
X117852Y83301D01*
X118901Y82776D02*
Y84875D01*
X119951Y85925D01*
X121001Y84875D01*
Y82776D01*
Y84350D01*
X118901D01*
X122050Y85925D02*
Y83301D01*
X122575Y82776D01*
X123624D01*
X124149Y83301D01*
Y85925D01*
X125199D02*
X127298D01*
X126248D01*
Y82776D01*
X128347Y85925D02*
X129397D01*
X128872D01*
Y82776D01*
X128347D01*
X129397D01*
X132545Y85925D02*
X131496D01*
X130971Y85400D01*
Y83301D01*
X131496Y82776D01*
X132545D01*
X133070Y83301D01*
Y85400D01*
X132545Y85925D01*
X134120Y82776D02*
Y85925D01*
X136219Y82776D01*
Y85925D01*
X140417D02*
Y82776D01*
Y84350D01*
X142516D01*
Y85925D01*
Y82776D01*
X143565Y85925D02*
Y83826D01*
X144615Y82776D01*
X145664Y83826D01*
Y85925D01*
X173098Y11596D02*
X172573Y12120D01*
X171523D01*
X170999Y11596D01*
Y9497D01*
X171523Y8972D01*
X172573D01*
X173098Y9497D01*
Y10546D01*
X172048D01*
X174147Y8972D02*
Y12120D01*
X176246Y8972D01*
Y12120D01*
X177296D02*
Y8972D01*
X178870D01*
X179395Y9497D01*
Y11596D01*
X178870Y12120D01*
X177296D01*
X333062Y264017D02*
X333587Y264542D01*
X334636D01*
X335161Y264017D01*
Y263492D01*
X334636Y262967D01*
X334111D01*
X334636D01*
X335161Y262443D01*
Y261918D01*
X334636Y261393D01*
X333587D01*
X333062Y261918D01*
X336210Y264542D02*
Y262443D01*
X337260Y261393D01*
X338309Y262443D01*
Y264542D01*
X339359Y264017D02*
X339884Y264542D01*
X340933D01*
X341458Y264017D01*
Y263492D01*
X340933Y262967D01*
X340408D01*
X340933D01*
X341458Y262443D01*
Y261918D01*
X340933Y261393D01*
X339884D01*
X339359Y261918D01*
X105984Y12676D02*
Y9528D01*
X107559D01*
X108083Y10052D01*
Y12151D01*
X107559Y12676D01*
X105984D01*
X111232Y12151D02*
X110707Y12676D01*
X109658D01*
X109133Y12151D01*
Y11627D01*
X109658Y11102D01*
X110707D01*
X111232Y10577D01*
Y10052D01*
X110707Y9528D01*
X109658D01*
X109133Y10052D01*
X112281Y12676D02*
Y9528D01*
X113856D01*
X114380Y10052D01*
Y12151D01*
X113856Y12676D01*
X112281D01*
X115430Y9528D02*
Y11627D01*
X116480Y12676D01*
X117529Y11627D01*
Y9528D01*
Y11102D01*
X115430D01*
X121727D02*
X123826D01*
X128024Y9528D02*
Y12676D01*
X129599D01*
X130123Y12151D01*
Y11102D01*
X129599Y10577D01*
X128024D01*
X150065Y9528D02*
Y12676D01*
X152164Y9528D01*
Y12676D01*
X134190Y259956D02*
Y263105D01*
X135239Y262055D01*
X136289Y263105D01*
Y259956D01*
X137338D02*
Y263105D01*
X138913D01*
X139437Y262580D01*
Y261530D01*
X138913Y261006D01*
X137338D01*
X140487Y259956D02*
Y263105D01*
X142061D01*
X142586Y262580D01*
Y261530D01*
X142061Y261006D01*
X140487D01*
X143635Y263105D02*
X145735D01*
X144685D01*
Y259956D01*
X149933Y263105D02*
Y259956D01*
Y261530D01*
X152032D01*
Y263105D01*
Y259956D01*
X153081Y263105D02*
Y261006D01*
X154131Y259956D01*
X155180Y261006D01*
Y263105D01*
X106832Y54015D02*
Y50866D01*
X108406D01*
X108931Y51391D01*
Y53490D01*
X108406Y54015D01*
X106832D01*
X112079Y53490D02*
X111554Y54015D01*
X110505D01*
X109980Y53490D01*
Y52965D01*
X110505Y52440D01*
X111554D01*
X112079Y51916D01*
Y51391D01*
X111554Y50866D01*
X110505D01*
X109980Y51391D01*
X115228Y53490D02*
X114703Y54015D01*
X113654D01*
X113129Y53490D01*
Y51391D01*
X113654Y50866D01*
X114703D01*
X115228Y51391D01*
X116277Y54015D02*
Y50866D01*
X118376D01*
X122574Y52440D02*
X124674D01*
X128872Y50866D02*
Y54015D01*
X130446D01*
X130971Y53490D01*
Y52440D01*
X130446Y51916D01*
X128872D01*
X150912Y50866D02*
Y54015D01*
X153011Y50866D01*
Y54015D01*
X340236Y29904D02*
Y33052D01*
X341810D01*
X342335Y32527D01*
Y31478D01*
X341810Y30953D01*
X340236D01*
X343385Y33052D02*
Y30953D01*
X344434Y29904D01*
X345484Y30953D01*
Y33052D01*
X346533Y29379D02*
X348632D01*
X349682Y33052D02*
X350731D01*
X350207D01*
Y29904D01*
X349682D01*
X350731D01*
X352306D02*
Y33052D01*
X354405Y29904D01*
Y33052D01*
X355454Y31478D02*
X357553D01*
X360769Y301850D02*
Y304999D01*
X362868Y301850D01*
Y304999D01*
X382809Y301850D02*
Y304999D01*
X384383D01*
X384908Y304474D01*
Y303425D01*
X384383Y302900D01*
X382809D01*
X389106Y303425D02*
X391205D01*
X395403Y304999D02*
Y301850D01*
X396977D01*
X397502Y302375D01*
Y304474D01*
X396977Y304999D01*
X395403D01*
X400651Y304474D02*
X400126Y304999D01*
X399076D01*
X398552Y304474D01*
Y303949D01*
X399076Y303425D01*
X400126D01*
X400651Y302900D01*
Y302375D01*
X400126Y301850D01*
X399076D01*
X398552Y302375D01*
X401700Y301850D02*
Y303949D01*
X402750Y304999D01*
X403799Y303949D01*
Y301850D01*
Y303425D01*
X401700D01*
X404849Y304999D02*
Y301850D01*
X406423D01*
X406948Y302375D01*
Y304474D01*
X406423Y304999D01*
X404849D01*
X360769Y261496D02*
Y264645D01*
X362868Y261496D01*
Y264645D01*
X382809Y261496D02*
Y264645D01*
X384383D01*
X384908Y264120D01*
Y263070D01*
X384383Y262546D01*
X382809D01*
X389106Y263070D02*
X391205D01*
X395403Y264645D02*
Y261496D01*
X396977D01*
X397502Y262021D01*
Y264120D01*
X396977Y264645D01*
X395403D01*
X400651Y264120D02*
X400126Y264645D01*
X399076D01*
X398552Y264120D01*
Y263595D01*
X399076Y263070D01*
X400126D01*
X400651Y262546D01*
Y262021D01*
X400126Y261496D01*
X399076D01*
X398552Y262021D01*
X403799Y264120D02*
X403274Y264645D01*
X402225D01*
X401700Y264120D01*
Y262021D01*
X402225Y261496D01*
X403274D01*
X403799Y262021D01*
X404849Y264645D02*
Y261496D01*
X406948D01*
X398307Y29904D02*
Y33052D01*
X399881D01*
X400406Y32527D01*
Y31478D01*
X399881Y30953D01*
X398307D01*
X401456Y33052D02*
Y30953D01*
X402505Y29904D01*
X403555Y30953D01*
Y33052D01*
X404604Y29379D02*
X406703D01*
X407753Y33052D02*
X408802D01*
X408278D01*
Y29904D01*
X407753D01*
X408802D01*
X410377D02*
Y33052D01*
X412476Y29904D01*
Y33052D01*
X413525Y31478D02*
X415624D01*
X414575Y32527D02*
Y30428D01*
X461975Y78876D02*
X461450Y78351D01*
Y77301D01*
X461975Y76776D01*
X464074D01*
X464599Y77301D01*
Y78351D01*
X464074Y78876D01*
X464599Y79925D02*
X462499D01*
X461450Y80975D01*
X462499Y82024D01*
X464599D01*
X463024D01*
Y79925D01*
X461450Y83074D02*
X464074D01*
X464599Y83599D01*
Y84648D01*
X464074Y85173D01*
X461450D01*
Y86222D02*
Y88321D01*
Y87272D01*
X464599D01*
X461450Y89371D02*
Y90420D01*
Y89896D01*
X464599D01*
Y89371D01*
Y90420D01*
X461450Y93569D02*
Y92519D01*
X461975Y91995D01*
X464074D01*
X464599Y92519D01*
Y93569D01*
X464074Y94094D01*
X461975D01*
X461450Y93569D01*
X464599Y95143D02*
X461450D01*
X464599Y97242D01*
X461450D01*
Y101441D02*
X464599D01*
X463024D01*
Y103540D01*
X461450D01*
X464599D01*
X461450Y104589D02*
X463549D01*
X464599Y105639D01*
X463549Y106688D01*
X461450D01*
X132615Y303263D02*
Y306412D01*
X133665Y305362D01*
X134714Y306412D01*
Y303263D01*
X135764D02*
Y306412D01*
X137338D01*
X137863Y305887D01*
Y304837D01*
X137338Y304313D01*
X135764D01*
X138913Y303263D02*
Y306412D01*
X140487D01*
X141012Y305887D01*
Y304837D01*
X140487Y304313D01*
X138913D01*
X142061Y306412D02*
X144160D01*
X143111D01*
Y303263D01*
X150457Y305887D02*
X149933Y306412D01*
X148883D01*
X148358Y305887D01*
Y303788D01*
X148883Y303263D01*
X149933D01*
X150457Y303788D01*
Y304837D01*
X149408D01*
X151507Y303263D02*
Y306412D01*
X153606Y303263D01*
Y306412D01*
X154656D02*
Y303263D01*
X156230D01*
X156755Y303788D01*
Y305887D01*
X156230Y306412D01*
X154656D01*
X334515Y304903D02*
X333990Y305428D01*
X332941D01*
X332416Y304903D01*
Y302804D01*
X332941Y302279D01*
X333990D01*
X334515Y302804D01*
Y303853D01*
X333466D01*
X335565Y302279D02*
Y305428D01*
X337664Y302279D01*
Y305428D01*
X338713D02*
Y302279D01*
X340287D01*
X340812Y302804D01*
Y304903D01*
X340287Y305428D01*
X338713D01*
D15*
X313780Y200000D02*
X316404D01*
X316929Y200525D01*
Y201574D01*
X316404Y202099D01*
X313780D01*
Y203149D02*
Y205248D01*
X314305D01*
X316404Y203149D01*
X316929D01*
X196457Y121062D02*
Y118438D01*
X196981Y117913D01*
X198031D01*
X198556Y118438D01*
Y121062D01*
X201704D02*
X200655Y120537D01*
X199605Y119488D01*
Y118438D01*
X200130Y117913D01*
X201180D01*
X201704Y118438D01*
Y118963D01*
X201180Y119488D01*
X199605D01*
X150394Y126332D02*
Y123708D01*
X150918Y123183D01*
X151968D01*
X152493Y123708D01*
Y126332D01*
X155116Y123183D02*
Y126332D01*
X153542Y124757D01*
X155641D01*
X112205Y117322D02*
Y114698D01*
X112729Y114173D01*
X113779D01*
X114304Y114698D01*
Y117322D01*
X115353Y116797D02*
X115878Y117322D01*
X116928D01*
X117452Y116797D01*
Y116272D01*
X116928Y115748D01*
X116403D01*
X116928D01*
X117452Y115223D01*
Y114698D01*
X116928Y114173D01*
X115878D01*
X115353Y114698D01*
X254067Y196521D02*
X253543Y197046D01*
X252493D01*
X251969Y196521D01*
Y194422D01*
X252493Y193898D01*
X253543D01*
X254067Y194422D01*
Y195472D01*
X253018D01*
X255117Y193898D02*
Y197046D01*
X257216Y193898D01*
Y197046D01*
X258266D02*
Y193898D01*
X259840D01*
X260365Y194422D01*
Y196521D01*
X259840Y197046D01*
X258266D01*
X251969Y168962D02*
X252493Y169487D01*
X253543D01*
X254067Y168962D01*
Y168438D01*
X253543Y167913D01*
X253018D01*
X253543D01*
X254067Y167388D01*
Y166863D01*
X253543Y166339D01*
X252493D01*
X251969Y166863D01*
X255117Y169487D02*
Y167388D01*
X256167Y166339D01*
X257216Y167388D01*
Y169487D01*
X258266Y168962D02*
X258790Y169487D01*
X259840D01*
X260365Y168962D01*
Y168438D01*
X259840Y167913D01*
X259315D01*
X259840D01*
X260365Y167388D01*
Y166863D01*
X259840Y166339D01*
X258790D01*
X258266Y166863D01*
X328346Y208660D02*
X329396D01*
X328871D01*
Y205512D01*
X328346D01*
X329396D01*
X333069D02*
X330970D01*
X333069Y207611D01*
Y208136D01*
X332544Y208660D01*
X331495D01*
X330970Y208136D01*
X336218D02*
X335693Y208660D01*
X334644D01*
X334119Y208136D01*
Y206037D01*
X334644Y205512D01*
X335693D01*
X336218Y206037D01*
X337267Y204987D02*
X339367D01*
X340416Y208660D02*
Y205512D01*
X341990D01*
X342515Y206037D01*
Y206561D01*
X341990Y207086D01*
X340416D01*
X341990D01*
X342515Y207611D01*
Y208136D01*
X341990Y208660D01*
X340416D01*
X343565D02*
Y206037D01*
X344089Y205512D01*
X345139D01*
X345664Y206037D01*
Y208660D01*
X348812D02*
X346713D01*
Y207086D01*
X347763D01*
X346713D01*
Y205512D01*
X351961Y208660D02*
X349862D01*
Y207086D01*
X350911D01*
X349862D01*
Y205512D01*
X355109Y208660D02*
X353010D01*
Y205512D01*
X355109D01*
X353010Y207086D02*
X354060D01*
X356159Y205512D02*
Y208660D01*
X357733D01*
X358258Y208136D01*
Y207086D01*
X357733Y206561D01*
X356159D01*
X357208D02*
X358258Y205512D01*
X359308Y204987D02*
X361407D01*
X364555Y208660D02*
X362456D01*
Y205512D01*
X364555D01*
X362456Y207086D02*
X363506D01*
X365605Y205512D02*
Y208660D01*
X367704Y205512D01*
Y208660D01*
X283071Y180708D02*
Y177559D01*
X284645D01*
X285170Y178084D01*
Y178609D01*
X284645Y179133D01*
X283071D01*
X284645D01*
X285170Y179658D01*
Y180183D01*
X284645Y180708D01*
X283071D01*
X288318Y180183D02*
X287794Y180708D01*
X286744D01*
X286219Y180183D01*
Y179658D01*
X286744Y179133D01*
X287794D01*
X288318Y178609D01*
Y178084D01*
X287794Y177559D01*
X286744D01*
X286219Y178084D01*
X289368Y180708D02*
Y177559D01*
X290942D01*
X291467Y178084D01*
Y180183D01*
X290942Y180708D01*
X289368D01*
X292517Y177559D02*
Y179658D01*
X293566Y180708D01*
X294616Y179658D01*
Y177559D01*
Y179133D01*
X292517D01*
X316535Y180708D02*
Y177559D01*
X318110D01*
X318634Y178084D01*
Y178609D01*
X318110Y179133D01*
X316535D01*
X318110D01*
X318634Y179658D01*
Y180183D01*
X318110Y180708D01*
X316535D01*
X321783Y180183D02*
X321258Y180708D01*
X320209D01*
X319684Y180183D01*
Y179658D01*
X320209Y179133D01*
X321258D01*
X321783Y178609D01*
Y178084D01*
X321258Y177559D01*
X320209D01*
X319684Y178084D01*
X324932Y180183D02*
X324407Y180708D01*
X323357D01*
X322833Y180183D01*
Y178084D01*
X323357Y177559D01*
X324407D01*
X324932Y178084D01*
X325981Y180708D02*
Y177559D01*
X328080D01*
X179134Y152756D02*
X181233D01*
X182282Y151706D01*
X181233Y150657D01*
X179134D01*
X180708D01*
Y152756D01*
X181758Y147508D02*
X182282Y148033D01*
Y149083D01*
X181758Y149607D01*
X181233D01*
X180708Y149083D01*
Y148033D01*
X180183Y147508D01*
X179659D01*
X179134Y148033D01*
Y149083D01*
X179659Y149607D01*
X182282Y146459D02*
X179134D01*
Y144884D01*
X179659Y144360D01*
X181758D01*
X182282Y144884D01*
Y146459D01*
X179134Y143310D02*
X181233D01*
X182282Y142261D01*
X181233Y141211D01*
X179134D01*
X180708D01*
Y143310D01*
X185433Y123622D02*
X187532D01*
X188582Y122573D01*
X187532Y121523D01*
X185433D01*
X187007D01*
Y123622D01*
X188057Y118374D02*
X188582Y118899D01*
Y119949D01*
X188057Y120474D01*
X187532D01*
X187007Y119949D01*
Y118899D01*
X186483Y118374D01*
X185958D01*
X185433Y118899D01*
Y119949D01*
X185958Y120474D01*
X188057Y115226D02*
X188582Y115751D01*
Y116800D01*
X188057Y117325D01*
X185958D01*
X185433Y116800D01*
Y115751D01*
X185958Y115226D01*
X188582Y114176D02*
X185433D01*
Y112077D01*
X127953Y144487D02*
Y142388D01*
X129002Y141339D01*
X130052Y142388D01*
Y144487D01*
X131101Y140814D02*
X133200D01*
X136349Y143962D02*
X135824Y144487D01*
X134775D01*
X134250Y143962D01*
Y143438D01*
X134775Y142913D01*
X135824D01*
X136349Y142388D01*
Y141863D01*
X135824Y141339D01*
X134775D01*
X134250Y141863D01*
X139497Y144487D02*
X137399D01*
Y141339D01*
X139497D01*
X137399Y142913D02*
X138448D01*
X140547Y141339D02*
Y144487D01*
X142646Y141339D01*
Y144487D01*
X145795Y143962D02*
X145270Y144487D01*
X144220D01*
X143696Y143962D01*
Y143438D01*
X144220Y142913D01*
X145270D01*
X145795Y142388D01*
Y141863D01*
X145270Y141339D01*
X144220D01*
X143696Y141863D01*
X148943Y144487D02*
X146844D01*
Y141339D01*
X148943D01*
X146844Y142913D02*
X147894D01*
X26508Y152624D02*
X25984Y153149D01*
X24934D01*
X24409Y152624D01*
Y152099D01*
X24934Y151574D01*
X25984D01*
X26508Y151049D01*
Y150525D01*
X25984Y150000D01*
X24934D01*
X24409Y150525D01*
X29657Y152624D02*
X29132Y153149D01*
X28083D01*
X27558Y152624D01*
Y150525D01*
X28083Y150000D01*
X29132D01*
X29657Y150525D01*
X30707Y150000D02*
Y152099D01*
X31756Y153149D01*
X32806Y152099D01*
Y150000D01*
Y151574D01*
X30707D01*
X33855Y153149D02*
Y150000D01*
X35954D01*
X39103Y153149D02*
X37004D01*
Y150000D01*
X39103D01*
X37004Y151574D02*
X38053D01*
X40152Y153149D02*
Y150000D01*
X41727D01*
X42251Y150525D01*
Y152624D01*
X41727Y153149D01*
X40152D01*
X43301Y149475D02*
X45400D01*
X46450Y153149D02*
Y151049D01*
X47499Y150000D01*
X48549Y151049D01*
Y153149D01*
X51172D02*
X50123D01*
X49598Y152624D01*
Y150525D01*
X50123Y150000D01*
X51172D01*
X51697Y150525D01*
Y152624D01*
X51172Y153149D01*
X52747D02*
Y150000D01*
X54846D01*
X55895Y153149D02*
X57994D01*
X56945D01*
Y150000D01*
X59044Y149475D02*
X61143D01*
X64292Y152624D02*
X63767Y153149D01*
X62717D01*
X62192Y152624D01*
Y152099D01*
X62717Y151574D01*
X63767D01*
X64292Y151049D01*
Y150525D01*
X63767Y150000D01*
X62717D01*
X62192Y150525D01*
X67440Y153149D02*
X65341D01*
Y150000D01*
X67440D01*
X65341Y151574D02*
X66391D01*
X68490Y150000D02*
Y153149D01*
X70589Y150000D01*
Y153149D01*
X73737Y152624D02*
X73212Y153149D01*
X72163D01*
X71638Y152624D01*
Y152099D01*
X72163Y151574D01*
X73212D01*
X73737Y151049D01*
Y150525D01*
X73212Y150000D01*
X72163D01*
X71638Y150525D01*
X76886Y153149D02*
X74787D01*
Y150000D01*
X76886D01*
X74787Y151574D02*
X75836D01*
X130709Y115747D02*
X132808D01*
X131758D01*
Y112599D01*
X133857Y112074D02*
X135956D01*
X139105Y115222D02*
X138580Y115747D01*
X137531D01*
X137006Y115222D01*
Y114698D01*
X137531Y114173D01*
X138580D01*
X139105Y113648D01*
Y113123D01*
X138580Y112599D01*
X137531D01*
X137006Y113123D01*
X142253Y115747D02*
X140154D01*
Y112599D01*
X142253D01*
X140154Y114173D02*
X141204D01*
X143303Y112599D02*
Y115747D01*
X145402Y112599D01*
Y115747D01*
X148551Y115222D02*
X148026Y115747D01*
X146976D01*
X146452Y115222D01*
Y114698D01*
X146976Y114173D01*
X148026D01*
X148551Y113648D01*
Y113123D01*
X148026Y112599D01*
X146976D01*
X146452Y113123D01*
X151699Y115747D02*
X149600D01*
Y112599D01*
X151699D01*
X149600Y114173D02*
X150650D01*
X37008Y129133D02*
X39107D01*
X38057D01*
Y125984D01*
X42255Y129133D02*
X40156D01*
Y125984D01*
X42255D01*
X40156Y127559D02*
X41206D01*
X43305Y125984D02*
Y129133D01*
X44355Y128083D01*
X45404Y129133D01*
Y125984D01*
X46454D02*
Y129133D01*
X48028D01*
X48553Y128608D01*
Y127559D01*
X48028Y127034D01*
X46454D01*
X49602Y125460D02*
X51701D01*
X54850Y128608D02*
X54325Y129133D01*
X53276D01*
X52751Y128608D01*
Y128083D01*
X53276Y127559D01*
X54325D01*
X54850Y127034D01*
Y126509D01*
X54325Y125984D01*
X53276D01*
X52751Y126509D01*
X57998Y129133D02*
X55899D01*
Y125984D01*
X57998D01*
X55899Y127559D02*
X56949D01*
X59048Y125984D02*
Y129133D01*
X61147Y125984D01*
Y129133D01*
X64296Y128608D02*
X63771Y129133D01*
X62721D01*
X62197Y128608D01*
Y128083D01*
X62721Y127559D01*
X63771D01*
X64296Y127034D01*
Y126509D01*
X63771Y125984D01*
X62721D01*
X62197Y126509D01*
X67444Y129133D02*
X65345D01*
Y125984D01*
X67444D01*
X65345Y127559D02*
X66395D01*
X68494Y125460D02*
X70593D01*
X71642Y129133D02*
X72692D01*
X72167D01*
Y125984D01*
X71642D01*
X72692D01*
X74266D02*
Y129133D01*
X76365Y125984D01*
Y129133D01*
X238583Y154035D02*
Y157184D01*
X240157D01*
X240682Y156659D01*
Y155610D01*
X240157Y155085D01*
X238583D01*
X239632D02*
X240682Y154035D01*
X241731D02*
X242781D01*
X242256D01*
Y157184D01*
X241731Y156659D01*
X244355D02*
X244880Y157184D01*
X245929D01*
X246454Y156659D01*
Y156134D01*
X245929Y155610D01*
X246454Y155085D01*
Y154560D01*
X245929Y154035D01*
X244880D01*
X244355Y154560D01*
Y155085D01*
X244880Y155610D01*
X244355Y156134D01*
Y156659D01*
X244880Y155610D02*
X245929D01*
X250000Y153937D02*
Y157086D01*
X251574D01*
X252099Y156561D01*
Y155511D01*
X251574Y154987D01*
X250000D01*
X251049D02*
X252099Y153937D01*
X253149D02*
X254198D01*
X253673D01*
Y157086D01*
X253149Y156561D01*
X255772Y157086D02*
X257871D01*
Y156561D01*
X255772Y154462D01*
Y153937D01*
X183465Y131496D02*
Y134645D01*
X185039D01*
X185564Y134120D01*
Y133070D01*
X185039Y132546D01*
X183465D01*
X184514D02*
X185564Y131496D01*
X186613D02*
X187663D01*
X187138D01*
Y134645D01*
X186613Y134120D01*
X191336Y134645D02*
X190287Y134120D01*
X189237Y133070D01*
Y132021D01*
X189762Y131496D01*
X190811D01*
X191336Y132021D01*
Y132546D01*
X190811Y133070D01*
X189237D01*
X178740Y117323D02*
X181889D01*
Y115749D01*
X181364Y115224D01*
X180314D01*
X179790Y115749D01*
Y117323D01*
Y116273D02*
X178740Y115224D01*
Y114174D02*
Y113125D01*
Y113649D01*
X181889D01*
X181364Y114174D01*
X181889Y109451D02*
Y111550D01*
X180314D01*
X180839Y110501D01*
Y109976D01*
X180314Y109451D01*
X179265D01*
X178740Y109976D01*
Y111026D01*
X179265Y111550D01*
X88583Y155905D02*
Y159054D01*
X90157D01*
X90682Y158529D01*
Y157480D01*
X90157Y156955D01*
X88583D01*
X89632D02*
X90682Y155905D01*
X91731D02*
X92781D01*
X92256D01*
Y159054D01*
X91731Y158529D01*
X95929Y155905D02*
Y159054D01*
X94355Y157480D01*
X96454D01*
X139370Y161811D02*
Y164960D01*
X140944D01*
X141469Y164435D01*
Y163385D01*
X140944Y162861D01*
X139370D01*
X140420D02*
X141469Y161811D01*
X142519D02*
X143568D01*
X143043D01*
Y164960D01*
X142519Y164435D01*
X145142D02*
X145667Y164960D01*
X146717D01*
X147241Y164435D01*
Y163910D01*
X146717Y163385D01*
X146192D01*
X146717D01*
X147241Y162861D01*
Y162336D01*
X146717Y161811D01*
X145667D01*
X145142Y162336D01*
X90157Y115354D02*
Y118503D01*
X91732D01*
X92256Y117978D01*
Y116929D01*
X91732Y116404D01*
X90157D01*
X91207D02*
X92256Y115354D01*
X93306Y115879D02*
X93831Y115354D01*
X94880D01*
X95405Y115879D01*
Y117978D01*
X94880Y118503D01*
X93831D01*
X93306Y117978D01*
Y117453D01*
X93831Y116929D01*
X95405D01*
X120866Y114567D02*
Y117716D01*
X122440D01*
X122965Y117191D01*
Y116141D01*
X122440Y115617D01*
X120866D01*
X121916D02*
X122965Y114567D01*
X124015Y117191D02*
X124539Y117716D01*
X125589D01*
X126114Y117191D01*
Y116666D01*
X125589Y116141D01*
X126114Y115617D01*
Y115092D01*
X125589Y114567D01*
X124539D01*
X124015Y115092D01*
Y115617D01*
X124539Y116141D01*
X124015Y116666D01*
Y117191D01*
X124539Y116141D02*
X125589D01*
X96193Y144487D02*
X94094D01*
Y142913D01*
X95144D01*
X94094D01*
Y141339D01*
X97243D02*
X98293D01*
X97768D01*
Y144487D01*
X97243Y143962D01*
X274146Y232151D02*
X273622Y232676D01*
X272572D01*
X272047Y232151D01*
Y230052D01*
X272572Y229528D01*
X273622D01*
X274146Y230052D01*
X275196Y229528D02*
X276245D01*
X275721D01*
Y232676D01*
X275196Y232151D01*
X279919Y232676D02*
X278869Y232151D01*
X277820Y231102D01*
Y230052D01*
X278344Y229528D01*
X279394D01*
X279919Y230052D01*
Y230577D01*
X279394Y231102D01*
X277820D01*
X277690Y219947D02*
X277165Y220472D01*
X276115D01*
X275590Y219947D01*
Y217848D01*
X276115Y217323D01*
X277165D01*
X277690Y217848D01*
X278739Y217323D02*
X279789D01*
X279264D01*
Y220472D01*
X278739Y219947D01*
X283462Y220472D02*
X281363D01*
Y218897D01*
X282412Y219422D01*
X282937D01*
X283462Y218897D01*
Y217848D01*
X282937Y217323D01*
X281888D01*
X281363Y217848D01*
X277690Y212073D02*
X277165Y212597D01*
X276115D01*
X275590Y212073D01*
Y209974D01*
X276115Y209449D01*
X277165D01*
X277690Y209974D01*
X278739Y209449D02*
X279789D01*
X279264D01*
Y212597D01*
X278739Y212073D01*
X282937Y209449D02*
Y212597D01*
X281363Y211023D01*
X283462D01*
X277296Y195143D02*
X276771Y195668D01*
X275722D01*
X275197Y195143D01*
Y193044D01*
X275722Y192520D01*
X276771D01*
X277296Y193044D01*
X278345Y192520D02*
X279395D01*
X278870D01*
Y195668D01*
X278345Y195143D01*
X280969D02*
X281494Y195668D01*
X282543D01*
X283068Y195143D01*
Y194619D01*
X282543Y194094D01*
X282019D01*
X282543D01*
X283068Y193569D01*
Y193044D01*
X282543Y192520D01*
X281494D01*
X280969Y193044D01*
X277296Y202624D02*
X276771Y203149D01*
X275722D01*
X275197Y202624D01*
Y200525D01*
X275722Y200000D01*
X276771D01*
X277296Y200525D01*
X278345Y200000D02*
X279395D01*
X278870D01*
Y203149D01*
X278345Y202624D01*
X283068Y200000D02*
X280969D01*
X283068Y202099D01*
Y202624D01*
X282543Y203149D01*
X281494D01*
X280969Y202624D01*
X227913Y152752D02*
X227388Y152227D01*
Y151177D01*
X227913Y150653D01*
X230012D01*
X230536Y151177D01*
Y152227D01*
X230012Y152752D01*
X230536Y153801D02*
Y154851D01*
Y154326D01*
X227388D01*
X227913Y153801D01*
X230536Y156425D02*
Y157475D01*
Y156950D01*
X227388D01*
X227913Y156425D01*
X201836Y153806D02*
X202361Y154331D01*
Y155381D01*
X201836Y155905D01*
X199737D01*
X199213Y155381D01*
Y154331D01*
X199737Y153806D01*
X199213Y152757D02*
Y151707D01*
Y152232D01*
X202361D01*
X201836Y152757D01*
Y150133D02*
X202361Y149608D01*
Y148559D01*
X201836Y148034D01*
X199737D01*
X199213Y148559D01*
Y149608D01*
X199737Y150133D01*
X201836D01*
X123064Y154907D02*
X122539Y155432D01*
X121489D01*
X120965Y154907D01*
Y152808D01*
X121489Y152284D01*
X122539D01*
X123064Y152808D01*
X124113D02*
X124638Y152284D01*
X125687D01*
X126212Y152808D01*
Y154907D01*
X125687Y155432D01*
X124638D01*
X124113Y154907D01*
Y154383D01*
X124638Y153858D01*
X126212D01*
X165091Y117585D02*
X164566Y118109D01*
X163517D01*
X162992Y117585D01*
Y115485D01*
X163517Y114961D01*
X164566D01*
X165091Y115485D01*
X166141Y118109D02*
X168240D01*
Y117585D01*
X166141Y115485D01*
Y114961D01*
X132808Y133726D02*
X132283Y134251D01*
X131233D01*
X130709Y133726D01*
Y131627D01*
X131233Y131102D01*
X132283D01*
X132808Y131627D01*
X135956Y134251D02*
X134907Y133726D01*
X133857Y132677D01*
Y131627D01*
X134382Y131102D01*
X135432D01*
X135956Y131627D01*
Y132152D01*
X135432Y132677D01*
X133857D01*
X114304Y149081D02*
X113779Y149605D01*
X112729D01*
X112205Y149081D01*
Y146982D01*
X112729Y146457D01*
X113779D01*
X114304Y146982D01*
X117452Y149605D02*
X115353D01*
Y148031D01*
X116403Y148556D01*
X116928D01*
X117452Y148031D01*
Y146982D01*
X116928Y146457D01*
X115878D01*
X115353Y146982D01*
X30709Y226772D02*
Y229920D01*
X31758Y228871D01*
X32808Y229920D01*
Y226772D01*
X33857D02*
Y229920D01*
X35432D01*
X35956Y229396D01*
Y228346D01*
X35432Y227821D01*
X33857D01*
X37006Y226772D02*
Y229920D01*
X38580D01*
X39105Y229396D01*
Y228346D01*
X38580Y227821D01*
X37006D01*
X40154Y229920D02*
X42253D01*
X41204D01*
Y226772D01*
X43303Y226247D02*
X45402D01*
X46452Y229920D02*
Y226772D01*
Y228346D01*
X48551D01*
Y229920D01*
Y226772D01*
X49600Y229920D02*
Y227821D01*
X50650Y226772D01*
X51699Y227821D01*
Y229920D01*
X100984Y183366D02*
Y186515D01*
X102034Y185465D01*
X103083Y186515D01*
Y183366D01*
X104133D02*
Y186515D01*
X105707D01*
X106232Y185990D01*
Y184940D01*
X105707Y184416D01*
X104133D01*
X107281Y183366D02*
Y186515D01*
X108856D01*
X109380Y185990D01*
Y184940D01*
X108856Y184416D01*
X107281D01*
X110430Y186515D02*
X112529D01*
X111479D01*
Y183366D01*
X118826Y185990D02*
X118301Y186515D01*
X117252D01*
X116727Y185990D01*
Y183891D01*
X117252Y183366D01*
X118301D01*
X118826Y183891D01*
Y184940D01*
X117777D01*
X119876Y183366D02*
Y186515D01*
X121975Y183366D01*
Y186515D01*
X123024D02*
Y183366D01*
X124599D01*
X125123Y183891D01*
Y185990D01*
X124599Y186515D01*
X123024D01*
X440551Y184252D02*
Y187401D01*
X442125D01*
X442650Y186876D01*
Y185826D01*
X442125Y185301D01*
X440551D01*
X443700Y187401D02*
Y185301D01*
X444749Y184252D01*
X445799Y185301D01*
Y187401D01*
X446848Y183727D02*
X448947D01*
X449997Y187401D02*
X451046D01*
X450522D01*
Y184252D01*
X449997D01*
X451046D01*
X452621D02*
Y187401D01*
X454720Y184252D01*
Y187401D01*
X455769Y185826D02*
X457868D01*
X456819Y186876D02*
Y184777D01*
X439764Y128740D02*
Y131889D01*
X441338D01*
X441863Y131364D01*
Y130315D01*
X441338Y129790D01*
X439764D01*
X442912Y131889D02*
Y129790D01*
X443962Y128740D01*
X445011Y129790D01*
Y131889D01*
X446061Y128215D02*
X448160D01*
X449209Y131889D02*
X450259D01*
X449734D01*
Y128740D01*
X449209D01*
X450259D01*
X451833D02*
Y131889D01*
X453932Y128740D01*
Y131889D01*
X454982Y130315D02*
X457081D01*
X29921Y198425D02*
Y201574D01*
X30971Y200524D01*
X32020Y201574D01*
Y198425D01*
X33070D02*
Y201574D01*
X34644D01*
X35169Y201049D01*
Y199999D01*
X34644Y199475D01*
X33070D01*
X36218Y198425D02*
Y201574D01*
X37793D01*
X38317Y201049D01*
Y199999D01*
X37793Y199475D01*
X36218D01*
X39367Y201574D02*
X41466D01*
X40416D01*
Y198425D01*
X42516Y197900D02*
X44615D01*
X47763Y201049D02*
X47238Y201574D01*
X46189D01*
X45664Y201049D01*
Y198950D01*
X46189Y198425D01*
X47238D01*
X47763Y198950D01*
Y199999D01*
X46714D01*
X48813Y198425D02*
Y201574D01*
X50912Y198425D01*
Y201574D01*
X51961D02*
Y198425D01*
X53536D01*
X54060Y198950D01*
Y201049D01*
X53536Y201574D01*
X51961D01*
D16*
X170997Y175459D02*
X170472Y175983D01*
X169422D01*
X168898Y175459D01*
Y173359D01*
X169422Y172835D01*
X170472D01*
X170997Y173359D01*
X172046Y172835D02*
X173096D01*
X172571D01*
Y175983D01*
X172046Y175459D01*
X153674Y156167D02*
X153149Y156692D01*
X152100D01*
X151575Y156167D01*
Y154068D01*
X152100Y153543D01*
X153149D01*
X153674Y154068D01*
X156822Y153543D02*
X154723D01*
X156822Y155642D01*
Y156167D01*
X156298Y156692D01*
X155248D01*
X154723Y156167D01*
X181233Y163254D02*
X180708Y163778D01*
X179659D01*
X179134Y163254D01*
Y161155D01*
X179659Y160630D01*
X180708D01*
X181233Y161155D01*
X182282Y163254D02*
X182807Y163778D01*
X183857D01*
X184381Y163254D01*
Y162729D01*
X183857Y162204D01*
X183332D01*
X183857D01*
X184381Y161679D01*
Y161155D01*
X183857Y160630D01*
X182807D01*
X182282Y161155D01*
X148687Y220342D02*
X149212Y220867D01*
Y221916D01*
X148687Y222441D01*
X146588D01*
X146063Y221916D01*
Y220867D01*
X146588Y220342D01*
X146063Y217718D02*
X149212D01*
X147637Y219292D01*
Y217193D01*
X135564Y172309D02*
X135039Y172834D01*
X133989D01*
X133465Y172309D01*
Y170210D01*
X133989Y169685D01*
X135039D01*
X135564Y170210D01*
X136613Y172309D02*
X137138Y172834D01*
X138187D01*
X138712Y172309D01*
Y171784D01*
X138187Y171259D01*
X138712Y170735D01*
Y170210D01*
X138187Y169685D01*
X137138D01*
X136613Y170210D01*
Y170735D01*
X137138Y171259D01*
X136613Y171784D01*
Y172309D01*
X137138Y171259D02*
X138187D01*
X174016Y208660D02*
Y205512D01*
X176115D01*
X177164D02*
X178214D01*
X177689D01*
Y208660D01*
X177164Y208136D01*
X103543Y202756D02*
Y205905D01*
X105118D01*
X105642Y205380D01*
Y204330D01*
X105118Y203805D01*
X103543D01*
X104593D02*
X105642Y202756D01*
X106692D02*
X107741D01*
X107217D01*
Y205905D01*
X106692Y205380D01*
X158661Y172047D02*
Y175196D01*
X160236D01*
X160760Y174671D01*
Y173622D01*
X160236Y173097D01*
X158661D01*
X159711D02*
X160760Y172047D01*
X163909D02*
X161810D01*
X163909Y174146D01*
Y174671D01*
X163384Y175196D01*
X162335D01*
X161810Y174671D01*
X149606Y172047D02*
Y175196D01*
X151181D01*
X151705Y174671D01*
Y173622D01*
X151181Y173097D01*
X149606D01*
X150656D02*
X151705Y172047D01*
X152755Y174671D02*
X153280Y175196D01*
X154329D01*
X154854Y174671D01*
Y174146D01*
X154329Y173622D01*
X153804D01*
X154329D01*
X154854Y173097D01*
Y172572D01*
X154329Y172047D01*
X153280D01*
X152755Y172572D01*
X159843Y219291D02*
X162991D01*
Y217717D01*
X162466Y217192D01*
X161417D01*
X160892Y217717D01*
Y219291D01*
Y218242D02*
X159843Y217192D01*
Y214568D02*
X162991D01*
X161417Y216143D01*
Y214044D01*
X89370Y182677D02*
X92519D01*
Y181103D01*
X91994Y180578D01*
X90944D01*
X90420Y181103D01*
Y182677D01*
Y181628D02*
X89370Y180578D01*
Y179529D02*
Y178479D01*
Y179004D01*
X92519D01*
X91994Y179529D01*
X89370Y174806D02*
Y176905D01*
X91469Y174806D01*
X91994D01*
X92519Y175330D01*
Y176380D01*
X91994Y176905D01*
X191075Y176944D02*
X190026Y176420D01*
X188976Y175370D01*
Y174321D01*
X189501Y173796D01*
X190551D01*
X191075Y174321D01*
Y174845D01*
X190551Y175370D01*
X188976D01*
X192125Y176944D02*
Y174845D01*
X193174Y173796D01*
X194224Y174845D01*
Y176944D01*
X170997Y149605D02*
X168898D01*
Y148031D01*
X169947Y148556D01*
X170472D01*
X170997Y148031D01*
Y146981D01*
X170472Y146457D01*
X169422D01*
X168898Y146981D01*
X172046Y149605D02*
Y147506D01*
X173096Y146457D01*
X174145Y147506D01*
Y149605D01*
X146850Y210235D02*
Y207611D01*
X147375Y207087D01*
X148425D01*
X148949Y207611D01*
Y210235D01*
X149999Y207087D02*
X151049D01*
X150524D01*
Y210235D01*
X149999Y209710D01*
X175197Y170865D02*
Y168241D01*
X175722Y167717D01*
X176771D01*
X177296Y168241D01*
Y170865D01*
X180444Y167717D02*
X178345D01*
X180444Y169816D01*
Y170340D01*
X179920Y170865D01*
X178870D01*
X178345Y170340D01*
X106894Y158267D02*
Y155643D01*
X107419Y155118D01*
X108468D01*
X108993Y155643D01*
Y158267D01*
X112141D02*
X110042D01*
Y156692D01*
X111092Y157217D01*
X111617D01*
X112141Y156692D01*
Y155643D01*
X111617Y155118D01*
X110567D01*
X110042Y155643D01*
M02*
