G04*
G04 #@! TF.GenerationSoftware,Altium Limited,Altium Designer,19.1.7 (138)*
G04*
G04 Layer_Physical_Order=4*
G04 Layer_Color=16711680*
%FSLAX25Y25*%
%MOIN*%
G70*
G01*
G75*
%ADD11C,0.01000*%
%ADD125R,0.07087X0.07087*%
%ADD126C,0.07087*%
%ADD127C,0.06299*%
%ADD128R,0.06299X0.06299*%
%ADD129C,0.05906*%
%ADD130R,0.05906X0.05906*%
%ADD131C,0.10630*%
%ADD132C,0.08661*%
%ADD133R,0.06299X0.06299*%
%ADD134R,0.07087X0.07087*%
%ADD135C,0.02756*%
%ADD136C,0.09843*%
%ADD137C,0.02362*%
G36*
X589022Y1529D02*
X1529D01*
Y431541D01*
X589022D01*
X589022Y1529D01*
D02*
G37*
%LPC*%
G36*
X265748Y428996D02*
X264897Y428826D01*
X264176Y428344D01*
X263693Y427623D01*
X263524Y426772D01*
X263693Y425921D01*
X264176Y425199D01*
X264897Y424717D01*
X265748Y424548D01*
X266599Y424717D01*
X267320Y425199D01*
X267803Y425921D01*
X267972Y426772D01*
X267803Y427623D01*
X267320Y428344D01*
X266599Y428826D01*
X265748Y428996D01*
D02*
G37*
G36*
X106546Y427215D02*
X105514Y427079D01*
X104552Y426681D01*
X103726Y426048D01*
X103093Y425222D01*
X102695Y424260D01*
X102559Y423228D01*
X102695Y422196D01*
X103093Y421235D01*
X103726Y420409D01*
X104552Y419776D01*
X105514Y419377D01*
X106546Y419242D01*
X107577Y419377D01*
X108539Y419776D01*
X109365Y420409D01*
X109998Y421235D01*
X110397Y422196D01*
X110532Y423228D01*
X110397Y424260D01*
X109998Y425222D01*
X109365Y426048D01*
X108539Y426681D01*
X107577Y427079D01*
X106546Y427215D01*
D02*
G37*
G36*
X580709Y429574D02*
X579471Y429452D01*
X578280Y429091D01*
X577183Y428505D01*
X576222Y427715D01*
X575432Y426754D01*
X574846Y425657D01*
X574485Y424466D01*
X574363Y423228D01*
X574485Y421990D01*
X574846Y420800D01*
X575432Y419703D01*
X576222Y418741D01*
X577183Y417952D01*
X578280Y417366D01*
X579471Y417005D01*
X580709Y416883D01*
X581947Y417005D01*
X583137Y417366D01*
X584234Y417952D01*
X585196Y418741D01*
X585985Y419703D01*
X586571Y420800D01*
X586932Y421990D01*
X587054Y423228D01*
X586932Y424466D01*
X586571Y425657D01*
X585985Y426754D01*
X585196Y427715D01*
X584234Y428505D01*
X583137Y429091D01*
X581947Y429452D01*
X580709Y429574D01*
D02*
G37*
G36*
X9843D02*
X8605Y429452D01*
X7414Y429091D01*
X6317Y428505D01*
X5356Y427715D01*
X4566Y426754D01*
X3980Y425657D01*
X3619Y424466D01*
X3497Y423228D01*
X3619Y421990D01*
X3980Y420800D01*
X4566Y419703D01*
X5356Y418741D01*
X6317Y417952D01*
X7414Y417366D01*
X8605Y417005D01*
X9843Y416883D01*
X11080Y417005D01*
X12271Y417366D01*
X13368Y417952D01*
X14330Y418741D01*
X15119Y419703D01*
X15705Y420800D01*
X16066Y421990D01*
X16188Y423228D01*
X16066Y424466D01*
X15705Y425657D01*
X15119Y426754D01*
X14330Y427715D01*
X13368Y428505D01*
X12271Y429091D01*
X11080Y429452D01*
X9843Y429574D01*
D02*
G37*
G36*
X401575Y425229D02*
X400389Y425073D01*
X399284Y424615D01*
X398335Y423887D01*
X397606Y422938D01*
X397148Y421833D01*
X396992Y420647D01*
X397148Y419461D01*
X397606Y418355D01*
X398335Y417406D01*
X399284Y416678D01*
X400389Y416220D01*
X401575Y416064D01*
X402761Y416220D01*
X403866Y416678D01*
X404815Y417406D01*
X405543Y418355D01*
X406001Y419461D01*
X406157Y420647D01*
X406001Y421833D01*
X405543Y422938D01*
X404815Y423887D01*
X403866Y424615D01*
X402761Y425073D01*
X401575Y425229D01*
D02*
G37*
G36*
X318898D02*
X317712Y425073D01*
X316606Y424615D01*
X315657Y423887D01*
X314929Y422938D01*
X314471Y421833D01*
X314315Y420647D01*
X314471Y419461D01*
X314929Y418355D01*
X315657Y417406D01*
X316606Y416678D01*
X317712Y416220D01*
X318898Y416064D01*
X320084Y416220D01*
X321189Y416678D01*
X322138Y417406D01*
X322866Y418355D01*
X323324Y419461D01*
X323480Y420647D01*
X323324Y421833D01*
X322866Y422938D01*
X322138Y423887D01*
X321189Y424615D01*
X320084Y425073D01*
X318898Y425229D01*
D02*
G37*
G36*
X265748Y420334D02*
X264897Y420165D01*
X264176Y419683D01*
X263693Y418961D01*
X263524Y418110D01*
X263693Y417259D01*
X264176Y416538D01*
X264897Y416056D01*
X265748Y415886D01*
X266599Y416056D01*
X267320Y416538D01*
X267803Y417259D01*
X267972Y418110D01*
X267803Y418961D01*
X267320Y419683D01*
X266599Y420165D01*
X265748Y420334D01*
D02*
G37*
G36*
X485433Y424835D02*
X484247Y424679D01*
X483142Y424222D01*
X482193Y423493D01*
X481464Y422544D01*
X481007Y421439D01*
X480851Y420253D01*
X481007Y419067D01*
X481464Y417962D01*
X482193Y417013D01*
X483142Y416284D01*
X484247Y415827D01*
X485433Y415670D01*
X486619Y415827D01*
X487724Y416284D01*
X488673Y417013D01*
X489402Y417962D01*
X489859Y419067D01*
X490016Y420253D01*
X489859Y421439D01*
X489402Y422544D01*
X488673Y423493D01*
X487724Y424222D01*
X486619Y424679D01*
X485433Y424835D01*
D02*
G37*
G36*
X426378D02*
X425192Y424679D01*
X424087Y424222D01*
X423138Y423493D01*
X422409Y422544D01*
X421952Y421439D01*
X421796Y420253D01*
X421952Y419067D01*
X422409Y417962D01*
X423138Y417013D01*
X424087Y416284D01*
X425192Y415827D01*
X426378Y415670D01*
X427564Y415827D01*
X428669Y416284D01*
X429618Y417013D01*
X430347Y417962D01*
X430804Y419067D01*
X430961Y420253D01*
X430804Y421439D01*
X430347Y422544D01*
X429618Y423493D01*
X428669Y424222D01*
X427564Y424679D01*
X426378Y424835D01*
D02*
G37*
G36*
X565748Y424834D02*
X564562Y424678D01*
X563457Y424221D01*
X562508Y423492D01*
X561779Y422543D01*
X561322Y421438D01*
X561166Y420252D01*
X561322Y419066D01*
X561779Y417961D01*
X562508Y417012D01*
X563457Y416283D01*
X564562Y415826D01*
X565748Y415669D01*
X566934Y415826D01*
X568039Y416283D01*
X568988Y417012D01*
X569717Y417961D01*
X570174Y419066D01*
X570330Y420252D01*
X570174Y421438D01*
X569717Y422543D01*
X568988Y423492D01*
X568039Y424221D01*
X566934Y424678D01*
X565748Y424834D01*
D02*
G37*
G36*
X542126D02*
X540940Y424678D01*
X539835Y424221D01*
X538886Y423492D01*
X538157Y422543D01*
X537700Y421438D01*
X537543Y420252D01*
X537700Y419066D01*
X538157Y417961D01*
X538886Y417012D01*
X539835Y416283D01*
X540940Y415826D01*
X542126Y415669D01*
X543312Y415826D01*
X544417Y416283D01*
X545366Y417012D01*
X546095Y417961D01*
X546552Y419066D01*
X546708Y420252D01*
X546552Y421438D01*
X546095Y422543D01*
X545366Y423492D01*
X544417Y424221D01*
X543312Y424678D01*
X542126Y424834D01*
D02*
G37*
G36*
X523622D02*
X522436Y424678D01*
X521331Y424221D01*
X520382Y423492D01*
X519654Y422543D01*
X519196Y421438D01*
X519039Y420252D01*
X519196Y419066D01*
X519654Y417961D01*
X520382Y417012D01*
X521331Y416283D01*
X522436Y415826D01*
X523622Y415669D01*
X524808Y415826D01*
X525913Y416283D01*
X526862Y417012D01*
X527591Y417961D01*
X528048Y419066D01*
X528204Y420252D01*
X528048Y421438D01*
X527591Y422543D01*
X526862Y423492D01*
X525913Y424221D01*
X524808Y424678D01*
X523622Y424834D01*
D02*
G37*
G36*
X500000D02*
X498814Y424678D01*
X497709Y424221D01*
X496760Y423492D01*
X496031Y422543D01*
X495574Y421438D01*
X495417Y420252D01*
X495574Y419066D01*
X496031Y417961D01*
X496760Y417012D01*
X497709Y416283D01*
X498814Y415826D01*
X500000Y415669D01*
X501186Y415826D01*
X502291Y416283D01*
X503240Y417012D01*
X503969Y417961D01*
X504426Y419066D01*
X504583Y420252D01*
X504426Y421438D01*
X503969Y422543D01*
X503240Y423492D01*
X502291Y424221D01*
X501186Y424678D01*
X500000Y424834D01*
D02*
G37*
G36*
X266142Y412854D02*
X265291Y412684D01*
X264569Y412202D01*
X264087Y411481D01*
X263918Y410630D01*
X264087Y409779D01*
X264569Y409057D01*
X265291Y408575D01*
X266142Y408406D01*
X266993Y408575D01*
X267714Y409057D01*
X268196Y409779D01*
X268366Y410630D01*
X268196Y411481D01*
X267714Y412202D01*
X266993Y412684D01*
X266142Y412854D01*
D02*
G37*
G36*
X156118Y409283D02*
X147819D01*
Y404660D01*
X147319Y404561D01*
X146954Y405441D01*
X146068Y406596D01*
X144914Y407482D01*
X143569Y408039D01*
X142126Y408229D01*
X140683Y408039D01*
X139338Y407482D01*
X138184Y406596D01*
X137298Y405441D01*
X136741Y404097D01*
X136551Y402654D01*
X136741Y401211D01*
X137298Y399866D01*
X138184Y398711D01*
X139338Y397825D01*
X140683Y397268D01*
X142126Y397078D01*
X143569Y397268D01*
X144914Y397825D01*
X146068Y398711D01*
X146954Y399866D01*
X147368Y400865D01*
X147819Y400984D01*
X147959Y400984D01*
X156118D01*
Y409283D01*
D02*
G37*
G36*
X165748Y409319D02*
X164665Y409177D01*
X163655Y408758D01*
X162788Y408093D01*
X162123Y407227D01*
X161705Y406217D01*
X161563Y405134D01*
X161705Y404051D01*
X162123Y403041D01*
X162788Y402174D01*
X163655Y401509D01*
X164665Y401091D01*
X165748Y400948D01*
X166831Y401091D01*
X167841Y401509D01*
X168708Y402174D01*
X169373Y403041D01*
X169791Y404051D01*
X169933Y405134D01*
X169791Y406217D01*
X169373Y407227D01*
X168708Y408093D01*
X167841Y408758D01*
X166831Y409177D01*
X165748Y409319D01*
D02*
G37*
G36*
X394307Y409678D02*
X385221D01*
Y400592D01*
X394307D01*
Y409678D01*
D02*
G37*
G36*
X377953Y409717D02*
X376767Y409561D01*
X375661Y409103D01*
X374712Y408375D01*
X373984Y407426D01*
X373526Y406321D01*
X373370Y405135D01*
X373526Y403949D01*
X373984Y402844D01*
X374712Y401895D01*
X375661Y401166D01*
X376767Y400708D01*
X377953Y400552D01*
X379139Y400708D01*
X380244Y401166D01*
X381193Y401895D01*
X381921Y402844D01*
X382379Y403949D01*
X382535Y405135D01*
X382379Y406321D01*
X381921Y407426D01*
X381193Y408375D01*
X380244Y409103D01*
X379139Y409561D01*
X377953Y409717D01*
D02*
G37*
G36*
X366142D02*
X364956Y409561D01*
X363850Y409103D01*
X362901Y408375D01*
X362173Y407426D01*
X361715Y406321D01*
X361559Y405135D01*
X361715Y403949D01*
X362173Y402844D01*
X362901Y401895D01*
X363850Y401166D01*
X364956Y400708D01*
X366142Y400552D01*
X367328Y400708D01*
X368433Y401166D01*
X369382Y401895D01*
X370110Y402844D01*
X370568Y403949D01*
X370724Y405135D01*
X370568Y406321D01*
X370110Y407426D01*
X369382Y408375D01*
X368433Y409103D01*
X367328Y409561D01*
X366142Y409717D01*
D02*
G37*
G36*
X354331D02*
X353145Y409561D01*
X352040Y409103D01*
X351090Y408375D01*
X350362Y407426D01*
X349904Y406321D01*
X349748Y405135D01*
X349904Y403949D01*
X350362Y402844D01*
X351090Y401895D01*
X352040Y401166D01*
X353145Y400708D01*
X354331Y400552D01*
X355517Y400708D01*
X356622Y401166D01*
X357571Y401895D01*
X358299Y402844D01*
X358757Y403949D01*
X358913Y405135D01*
X358757Y406321D01*
X358299Y407426D01*
X357571Y408375D01*
X356622Y409103D01*
X355517Y409561D01*
X354331Y409717D01*
D02*
G37*
G36*
X342520D02*
X341334Y409561D01*
X340228Y409103D01*
X339279Y408375D01*
X338551Y407426D01*
X338093Y406321D01*
X337937Y405135D01*
X338093Y403949D01*
X338551Y402844D01*
X339279Y401895D01*
X340228Y401166D01*
X341334Y400708D01*
X342520Y400552D01*
X343706Y400708D01*
X344811Y401166D01*
X345760Y401895D01*
X346488Y402844D01*
X346946Y403949D01*
X347102Y405135D01*
X346946Y406321D01*
X346488Y407426D01*
X345760Y408375D01*
X344811Y409103D01*
X343706Y409561D01*
X342520Y409717D01*
D02*
G37*
G36*
X330709D02*
X329523Y409561D01*
X328417Y409103D01*
X327468Y408375D01*
X326740Y407426D01*
X326282Y406321D01*
X326126Y405135D01*
X326282Y403949D01*
X326740Y402844D01*
X327468Y401895D01*
X328417Y401166D01*
X329523Y400708D01*
X330709Y400552D01*
X331895Y400708D01*
X333000Y401166D01*
X333949Y401895D01*
X334677Y402844D01*
X335135Y403949D01*
X335291Y405135D01*
X335135Y406321D01*
X334677Y407426D01*
X333949Y408375D01*
X333000Y409103D01*
X331895Y409561D01*
X330709Y409717D01*
D02*
G37*
G36*
X478165Y409284D02*
X469079D01*
Y400198D01*
X478165D01*
Y409284D01*
D02*
G37*
G36*
X558480Y409283D02*
X549394D01*
Y400197D01*
X558480D01*
Y409283D01*
D02*
G37*
G36*
X516354D02*
X507268D01*
Y400197D01*
X516354D01*
Y409283D01*
D02*
G37*
G36*
X461811Y409324D02*
X460625Y409167D01*
X459520Y408710D01*
X458571Y407981D01*
X457842Y407032D01*
X457385Y405927D01*
X457229Y404741D01*
X457385Y403555D01*
X457842Y402450D01*
X458571Y401501D01*
X459520Y400773D01*
X460625Y400315D01*
X461811Y400159D01*
X462997Y400315D01*
X464102Y400773D01*
X465051Y401501D01*
X465780Y402450D01*
X466237Y403555D01*
X466394Y404741D01*
X466237Y405927D01*
X465780Y407032D01*
X465051Y407981D01*
X464102Y408710D01*
X462997Y409167D01*
X461811Y409324D01*
D02*
G37*
G36*
X450000D02*
X448814Y409167D01*
X447709Y408710D01*
X446760Y407981D01*
X446032Y407032D01*
X445574Y405927D01*
X445417Y404741D01*
X445574Y403555D01*
X446032Y402450D01*
X446760Y401501D01*
X447709Y400773D01*
X448814Y400315D01*
X450000Y400159D01*
X451186Y400315D01*
X452291Y400773D01*
X453240Y401501D01*
X453969Y402450D01*
X454426Y403555D01*
X454583Y404741D01*
X454426Y405927D01*
X453969Y407032D01*
X453240Y407981D01*
X452291Y408710D01*
X451186Y409167D01*
X450000Y409324D01*
D02*
G37*
G36*
X438189D02*
X437003Y409167D01*
X435898Y408710D01*
X434949Y407981D01*
X434220Y407032D01*
X433763Y405927D01*
X433606Y404741D01*
X433763Y403555D01*
X434220Y402450D01*
X434949Y401501D01*
X435898Y400773D01*
X437003Y400315D01*
X438189Y400159D01*
X439375Y400315D01*
X440480Y400773D01*
X441429Y401501D01*
X442158Y402450D01*
X442615Y403555D01*
X442771Y404741D01*
X442615Y405927D01*
X442158Y407032D01*
X441429Y407981D01*
X440480Y408710D01*
X439375Y409167D01*
X438189Y409324D01*
D02*
G37*
G36*
X266142Y403799D02*
X265291Y403629D01*
X264569Y403147D01*
X264087Y402426D01*
X263918Y401575D01*
X264087Y400724D01*
X264569Y400002D01*
X265291Y399520D01*
X266142Y399351D01*
X266993Y399520D01*
X267714Y400002D01*
X268196Y400724D01*
X268366Y401575D01*
X268196Y402426D01*
X267714Y403147D01*
X266993Y403629D01*
X266142Y403799D01*
D02*
G37*
G36*
X179528Y409319D02*
X178444Y409177D01*
X177435Y408758D01*
X176568Y408093D01*
X175903Y407227D01*
X175485Y406217D01*
X175342Y405134D01*
X175485Y404051D01*
X175903Y403041D01*
X176568Y402174D01*
X177435Y401509D01*
X178444Y401091D01*
X179528Y400948D01*
X180611Y401091D01*
X181620Y401509D01*
X182487Y402174D01*
X183152Y403041D01*
X183430Y403711D01*
X183917Y403581D01*
X183795Y402654D01*
X183985Y401211D01*
X184542Y399866D01*
X185428Y398711D01*
X186582Y397825D01*
X187927Y397268D01*
X189370Y397078D01*
X190813Y397268D01*
X192158Y397825D01*
X193312Y398711D01*
X194198Y399866D01*
X194755Y401211D01*
X194945Y402654D01*
X194755Y404097D01*
X194198Y405441D01*
X193312Y406596D01*
X192158Y407482D01*
X190813Y408039D01*
X189370Y408229D01*
X187927Y408039D01*
X186582Y407482D01*
X185428Y406596D01*
X184542Y405441D01*
X184125Y404436D01*
X183638Y404567D01*
X183713Y405134D01*
X183570Y406217D01*
X183152Y407227D01*
X182487Y408093D01*
X181620Y408758D01*
X180611Y409177D01*
X179528Y409319D01*
D02*
G37*
G36*
X38110Y406756D02*
X36667Y406566D01*
X35323Y406009D01*
X34168Y405123D01*
X33282Y403969D01*
X32725Y402624D01*
X32535Y401181D01*
X32725Y399738D01*
X33282Y398394D01*
X34168Y397239D01*
X35323Y396353D01*
X36667Y395796D01*
X38110Y395606D01*
X39553Y395796D01*
X40898Y396353D01*
X42053Y397239D01*
X42939Y398394D01*
X43496Y399738D01*
X43685Y401181D01*
X43496Y402624D01*
X42939Y403969D01*
X42053Y405123D01*
X40898Y406009D01*
X39553Y406566D01*
X38110Y406756D01*
D02*
G37*
G36*
X265748Y395925D02*
X264897Y395755D01*
X264176Y395273D01*
X263693Y394552D01*
X263524Y393701D01*
X263693Y392850D01*
X264176Y392128D01*
X264897Y391646D01*
X265748Y391477D01*
X266599Y391646D01*
X267320Y392128D01*
X267803Y392850D01*
X267972Y393701D01*
X267803Y394552D01*
X267320Y395273D01*
X266599Y395755D01*
X265748Y395925D01*
D02*
G37*
G36*
X329528Y394350D02*
X328677Y394180D01*
X327955Y393699D01*
X327473Y392977D01*
X327304Y392126D01*
X327473Y391275D01*
X327955Y390553D01*
X328677Y390071D01*
X329528Y389902D01*
X330379Y390071D01*
X331100Y390553D01*
X331582Y391275D01*
X331751Y392126D01*
X331582Y392977D01*
X331100Y393699D01*
X330379Y394180D01*
X329528Y394350D01*
D02*
G37*
G36*
X43701Y395524D02*
X42617Y395381D01*
X41608Y394963D01*
X40741Y394298D01*
X40076Y393431D01*
X39658Y392422D01*
X39515Y391339D01*
X39658Y390255D01*
X40076Y389246D01*
X40741Y388379D01*
X41608Y387714D01*
X42617Y387296D01*
X43701Y387153D01*
X44784Y387296D01*
X45794Y387714D01*
X46660Y388379D01*
X47326Y389246D01*
X47744Y390255D01*
X47886Y391339D01*
X47744Y392422D01*
X47326Y393431D01*
X46660Y394298D01*
X45794Y394963D01*
X44784Y395381D01*
X43701Y395524D01*
D02*
G37*
G36*
X379921Y390413D02*
X379070Y390244D01*
X378349Y389761D01*
X377867Y389040D01*
X377697Y388189D01*
X377867Y387338D01*
X378124Y386953D01*
X377857Y386453D01*
X284279Y386453D01*
X284158Y386428D01*
X284034Y386423D01*
X283964Y386390D01*
X283889Y386375D01*
X283786Y386306D01*
X283674Y386253D01*
X283622Y386197D01*
X283558Y386154D01*
X283489Y386051D01*
X283406Y385959D01*
X283297Y385935D01*
X282741Y386307D01*
X281890Y386476D01*
X281039Y386307D01*
X280483Y385935D01*
X280374Y385959D01*
X280290Y386051D01*
X280221Y386154D01*
X280157Y386197D01*
X280106Y386253D01*
X279993Y386306D01*
X279890Y386375D01*
X279815Y386390D01*
X279746Y386423D01*
X279622Y386428D01*
X279500Y386453D01*
X276944D01*
X276554Y386375D01*
X276223Y386154D01*
X276002Y385823D01*
X275924Y385433D01*
Y209055D01*
X276002Y208665D01*
X276223Y208334D01*
X276554Y208113D01*
X276944Y208035D01*
X337198D01*
X337345Y208065D01*
X337494Y208079D01*
X337538Y208103D01*
X337588Y208113D01*
X337713Y208196D01*
X337845Y208267D01*
X337877Y208306D01*
X337919Y208334D01*
X338002Y208459D01*
X338097Y208575D01*
X338405Y208652D01*
X338519Y208575D01*
X339370Y208406D01*
X340221Y208575D01*
X340335Y208652D01*
X340643Y208575D01*
X340738Y208459D01*
X340821Y208334D01*
X340863Y208306D01*
X340896Y208267D01*
X341028Y208196D01*
X341152Y208113D01*
X341202Y208103D01*
X341246Y208079D01*
X341395Y208065D01*
X341542Y208035D01*
X365256D01*
X365354Y208055D01*
X365455Y208055D01*
X365547Y208094D01*
X365646Y208113D01*
X365729Y208169D01*
X365822Y208207D01*
X365893Y208278D01*
X365977Y208334D01*
X366032Y208418D01*
X366103Y208489D01*
X366142Y208581D01*
X366198Y208665D01*
X366200Y208678D01*
X366485Y209105D01*
X366870Y209362D01*
X367323Y209452D01*
X367776Y209362D01*
X368160Y209105D01*
X368445Y208678D01*
X368448Y208665D01*
X368504Y208581D01*
X368542Y208489D01*
X368613Y208418D01*
X368669Y208334D01*
X368753Y208278D01*
X368824Y208207D01*
X368916Y208169D01*
X369000Y208113D01*
X369098Y208094D01*
X369191Y208055D01*
X369291Y208055D01*
X369390Y208035D01*
X394882D01*
X395272Y208113D01*
X395603Y208334D01*
X395824Y208665D01*
X395901Y209055D01*
Y324965D01*
X407371D01*
X407420Y324974D01*
X407471Y324970D01*
X407614Y325013D01*
X407761Y325042D01*
X407803Y325070D01*
X407852Y325085D01*
X407967Y325180D01*
X408092Y325263D01*
X408120Y325305D01*
X408159Y325337D01*
X408230Y325469D01*
X408313Y325594D01*
X408323Y325644D01*
X408347Y325688D01*
X408400Y325865D01*
X408923D01*
X408976Y325688D01*
X409000Y325644D01*
X409010Y325594D01*
X409093Y325469D01*
X409164Y325337D01*
X409203Y325305D01*
X409231Y325263D01*
X409355Y325180D01*
X409471Y325085D01*
X409520Y325070D01*
X409562Y325042D01*
X409709Y325013D01*
X409852Y324970D01*
X409902Y324974D01*
X409952Y324965D01*
X432024D01*
X432123Y324984D01*
X432223D01*
X432316Y325023D01*
X432414Y325042D01*
X432498Y325098D01*
X432591Y325136D01*
X432662Y325207D01*
X432745Y325263D01*
X432801Y325347D01*
X432872Y325418D01*
X433021Y325641D01*
X433405Y325897D01*
X433858Y325987D01*
X434311Y325897D01*
X434696Y325641D01*
X434844Y325418D01*
X434915Y325347D01*
X434971Y325263D01*
X435055Y325207D01*
X435126Y325136D01*
X435219Y325098D01*
X435302Y325042D01*
X435401Y325023D01*
X435493Y324984D01*
X435594D01*
X435692Y324965D01*
X444425D01*
X444577Y324465D01*
X444490Y324407D01*
X444008Y323686D01*
X443839Y322835D01*
X444008Y321984D01*
X444490Y321262D01*
X445212Y320780D01*
X446063Y320611D01*
X446914Y320780D01*
X447636Y321262D01*
X448117Y321984D01*
X448287Y322835D01*
X448117Y323686D01*
X447636Y324407D01*
X447549Y324465D01*
X447701Y324965D01*
X459981D01*
X460079Y324984D01*
X460180D01*
X460235Y325007D01*
X460632Y324412D01*
X461354Y323930D01*
X462205Y323760D01*
X463056Y323930D01*
X463777Y324412D01*
X464175Y325007D01*
X464230Y324984D01*
X464330D01*
X464429Y324965D01*
X489980D01*
X490030Y324974D01*
X490080Y324970D01*
X490223Y325013D01*
X490370Y325042D01*
X490690Y324966D01*
X490921Y324845D01*
X490947Y324805D01*
X491669Y324323D01*
X492520Y324154D01*
X493371Y324323D01*
X494092Y324805D01*
X494118Y324845D01*
X494350Y324966D01*
X494669Y325042D01*
X494816Y325013D01*
X494959Y324970D01*
X495010Y324974D01*
X495059Y324965D01*
X511579D01*
Y236021D01*
X511589Y235972D01*
X511584Y235922D01*
X511627Y235778D01*
X511657Y235631D01*
X511685Y235589D01*
X511699Y235541D01*
X511794Y235425D01*
X511877Y235300D01*
X511919Y235272D01*
X511952Y235233D01*
X512452Y234823D01*
X512496Y234799D01*
X512532Y234763D01*
X512670Y234706D01*
X512803Y234635D01*
X512853Y234630D01*
X512899Y234611D01*
X513049D01*
X513198Y234596D01*
X513247Y234611D01*
X513297D01*
X513487Y234649D01*
X513940Y234559D01*
X514325Y234302D01*
X514581Y233918D01*
X514672Y233465D01*
X514581Y233011D01*
X514325Y232627D01*
X513940Y232370D01*
X513487Y232280D01*
X513297Y232318D01*
X513247D01*
X513198Y232333D01*
X513049Y232318D01*
X512899D01*
X512853Y232299D01*
X512803Y232294D01*
X512670Y232223D01*
X512532Y232166D01*
X512496Y232130D01*
X512452Y232106D01*
X511952Y231696D01*
X511919Y231657D01*
X511877Y231629D01*
X511794Y231504D01*
X511699Y231388D01*
X511685Y231340D01*
X511657Y231298D01*
X511627Y231151D01*
X511584Y231008D01*
X511589Y230957D01*
X511579Y230908D01*
Y175197D01*
X511657Y174807D01*
X511877Y174476D01*
X512208Y174255D01*
X512598Y174177D01*
X550000D01*
X550390Y174255D01*
X550721Y174476D01*
X550942Y174807D01*
X551020Y175197D01*
X551020Y385433D01*
X550942Y385823D01*
X550721Y386154D01*
X550390Y386375D01*
X550000Y386453D01*
X381986Y386453D01*
X381718Y386953D01*
X381976Y387338D01*
X382145Y388189D01*
X381976Y389040D01*
X381494Y389761D01*
X380772Y390244D01*
X379921Y390413D01*
D02*
G37*
G36*
X579921Y388051D02*
X579070Y387881D01*
X578349Y387399D01*
X577867Y386678D01*
X577697Y385827D01*
X577867Y384976D01*
X578349Y384254D01*
X579070Y383772D01*
X579921Y383603D01*
X580772Y383772D01*
X581494Y384254D01*
X581976Y384976D01*
X582145Y385827D01*
X581976Y386678D01*
X581494Y387399D01*
X580772Y387881D01*
X579921Y388051D01*
D02*
G37*
G36*
X265748Y386673D02*
X264897Y386503D01*
X264176Y386021D01*
X263693Y385300D01*
X263524Y384449D01*
X263693Y383598D01*
X264176Y382876D01*
X264897Y382394D01*
X265748Y382225D01*
X266599Y382394D01*
X267320Y382876D01*
X267803Y383598D01*
X267972Y384449D01*
X267803Y385300D01*
X267320Y386021D01*
X266599Y386503D01*
X265748Y386673D01*
D02*
G37*
G36*
X218110Y382539D02*
X217259Y382369D01*
X216538Y381887D01*
X216056Y381166D01*
X215886Y380315D01*
X216056Y379464D01*
X216538Y378743D01*
X217259Y378260D01*
X218110Y378091D01*
X218961Y378260D01*
X219683Y378743D01*
X220165Y379464D01*
X220334Y380315D01*
X220165Y381166D01*
X219683Y381887D01*
X218961Y382369D01*
X218110Y382539D01*
D02*
G37*
G36*
X43701Y381745D02*
X42617Y381602D01*
X41608Y381184D01*
X40741Y380519D01*
X40076Y379652D01*
X39658Y378642D01*
X39515Y377559D01*
X39658Y376476D01*
X40076Y375466D01*
X40741Y374600D01*
X41608Y373934D01*
X42617Y373516D01*
X43701Y373374D01*
X44784Y373516D01*
X45794Y373934D01*
X46660Y374600D01*
X47326Y375466D01*
X47744Y376476D01*
X47886Y377559D01*
X47744Y378642D01*
X47326Y379652D01*
X46660Y380519D01*
X45794Y381184D01*
X44784Y381602D01*
X43701Y381745D01*
D02*
G37*
G36*
X127441Y373273D02*
X126280Y373158D01*
X125164Y372820D01*
X124135Y372270D01*
X123234Y371530D01*
X122494Y370628D01*
X121944Y369600D01*
X121605Y368484D01*
X121491Y367323D01*
X121605Y366162D01*
X121944Y365046D01*
X122494Y364017D01*
X123234Y363116D01*
X124135Y362376D01*
X125164Y361826D01*
X126280Y361487D01*
X127441Y361373D01*
X128602Y361487D01*
X129718Y361826D01*
X130746Y362376D01*
X131648Y363116D01*
X132388Y364017D01*
X132938Y365046D01*
X133276Y366162D01*
X133391Y367323D01*
X133276Y368484D01*
X132938Y369600D01*
X132388Y370628D01*
X131648Y371530D01*
X130746Y372270D01*
X129718Y372820D01*
X128602Y373158D01*
X127441Y373273D01*
D02*
G37*
G36*
X74410D02*
X73249Y373158D01*
X72132Y372820D01*
X71104Y372270D01*
X70202Y371530D01*
X69462Y370628D01*
X68913Y369600D01*
X68574Y368484D01*
X68459Y367323D01*
X68574Y366162D01*
X68913Y365046D01*
X69462Y364017D01*
X70202Y363116D01*
X71104Y362376D01*
X72132Y361826D01*
X73249Y361487D01*
X74410Y361373D01*
X75570Y361487D01*
X76686Y361826D01*
X77715Y362376D01*
X78617Y363116D01*
X79357Y364017D01*
X79906Y365046D01*
X80245Y366162D01*
X80359Y367323D01*
X80245Y368484D01*
X79906Y369600D01*
X79357Y370628D01*
X78617Y371530D01*
X77715Y372270D01*
X76686Y372820D01*
X75570Y373158D01*
X74410Y373273D01*
D02*
G37*
G36*
X43701Y367965D02*
X42617Y367822D01*
X41608Y367404D01*
X40741Y366739D01*
X40076Y365872D01*
X39658Y364863D01*
X39515Y363779D01*
X39658Y362696D01*
X40076Y361687D01*
X40741Y360820D01*
X41608Y360155D01*
X42617Y359737D01*
X43701Y359594D01*
X44784Y359737D01*
X45794Y360155D01*
X46660Y360820D01*
X47326Y361687D01*
X47744Y362696D01*
X47886Y363779D01*
X47744Y364863D01*
X47326Y365872D01*
X46660Y366739D01*
X45794Y367404D01*
X44784Y367822D01*
X43701Y367965D01*
D02*
G37*
G36*
X567323Y358523D02*
X566472Y358354D01*
X565750Y357872D01*
X565268Y357150D01*
X565099Y356299D01*
X565268Y355448D01*
X565750Y354727D01*
X566472Y354245D01*
X567323Y354075D01*
X568174Y354245D01*
X568895Y354727D01*
X569377Y355448D01*
X569547Y356299D01*
X569377Y357150D01*
X568895Y357872D01*
X568174Y358354D01*
X567323Y358523D01*
D02*
G37*
G36*
X38110Y359512D02*
X36667Y359322D01*
X35323Y358765D01*
X34168Y357879D01*
X33282Y356725D01*
X32725Y355380D01*
X32535Y353937D01*
X32725Y352494D01*
X33282Y351149D01*
X34168Y349995D01*
X35323Y349109D01*
X36667Y348552D01*
X38110Y348362D01*
X39553Y348552D01*
X40898Y349109D01*
X42053Y349995D01*
X42939Y351149D01*
X43496Y352494D01*
X43685Y353937D01*
X43496Y355380D01*
X42939Y356725D01*
X42053Y357879D01*
X40898Y358765D01*
X39553Y359322D01*
X38110Y359512D01*
D02*
G37*
G36*
X127441Y359887D02*
X126280Y359773D01*
X125164Y359434D01*
X124135Y358884D01*
X123234Y358144D01*
X122494Y357243D01*
X121944Y356214D01*
X121605Y355098D01*
X121491Y353937D01*
X121605Y352776D01*
X121944Y351660D01*
X122494Y350631D01*
X123234Y349730D01*
X124135Y348990D01*
X125164Y348440D01*
X126280Y348101D01*
X127441Y347987D01*
X128602Y348101D01*
X129718Y348440D01*
X130746Y348990D01*
X131648Y349730D01*
X132388Y350631D01*
X132938Y351660D01*
X133276Y352776D01*
X133391Y353937D01*
X133276Y355098D01*
X132938Y356214D01*
X132388Y357243D01*
X131648Y358144D01*
X130746Y358884D01*
X129718Y359434D01*
X128602Y359773D01*
X127441Y359887D01*
D02*
G37*
G36*
X74410D02*
X73249Y359773D01*
X72132Y359434D01*
X71104Y358884D01*
X70202Y358144D01*
X69462Y357243D01*
X68913Y356214D01*
X68574Y355098D01*
X68459Y353937D01*
X68574Y352776D01*
X68913Y351660D01*
X69462Y350631D01*
X70202Y349730D01*
X71104Y348990D01*
X72132Y348440D01*
X73249Y348101D01*
X74410Y347987D01*
X75570Y348101D01*
X76686Y348440D01*
X77715Y348990D01*
X78617Y349730D01*
X79357Y350631D01*
X79906Y351660D01*
X80245Y352776D01*
X80359Y353937D01*
X80245Y355098D01*
X79906Y356214D01*
X79357Y357243D01*
X78617Y358144D01*
X77715Y358884D01*
X76686Y359434D01*
X75570Y359773D01*
X74410Y359887D01*
D02*
G37*
G36*
X575984Y345921D02*
X574798Y345765D01*
X573693Y345307D01*
X572744Y344579D01*
X572016Y343630D01*
X571558Y342525D01*
X571402Y341339D01*
X571558Y340153D01*
X572016Y339047D01*
X572744Y338098D01*
X573693Y337370D01*
X574798Y336912D01*
X575984Y336756D01*
X577170Y336912D01*
X578275Y337370D01*
X579225Y338098D01*
X579953Y339047D01*
X580411Y340153D01*
X580567Y341339D01*
X580411Y342525D01*
X579953Y343630D01*
X579225Y344579D01*
X578275Y345307D01*
X577170Y345765D01*
X575984Y345921D01*
D02*
G37*
G36*
X565016Y334071D02*
X555929D01*
Y324984D01*
X565016D01*
Y334071D01*
D02*
G37*
G36*
X57087Y322463D02*
X55695Y322280D01*
X54398Y321743D01*
X53285Y320888D01*
X52430Y319775D01*
X52337Y319549D01*
X51837D01*
X51743Y319775D01*
X50889Y320888D01*
X49775Y321743D01*
X48478Y322280D01*
X47087Y322463D01*
X45695Y322280D01*
X44398Y321743D01*
X43285Y320888D01*
X42430Y319775D01*
X42337Y319549D01*
X41837D01*
X41743Y319775D01*
X40889Y320888D01*
X39775Y321743D01*
X38478Y322280D01*
X37087Y322463D01*
X35695Y322280D01*
X34398Y321743D01*
X33285Y320888D01*
X32430Y319775D01*
X32337Y319549D01*
X31837D01*
X31743Y319775D01*
X30889Y320888D01*
X29775Y321743D01*
X28478Y322280D01*
X27087Y322463D01*
X25695Y322280D01*
X24398Y321743D01*
X23285Y320888D01*
X22430Y319775D01*
X22337Y319549D01*
X21837D01*
X21743Y319775D01*
X20888Y320888D01*
X19775Y321743D01*
X18478Y322280D01*
X17087Y322463D01*
X15695Y322280D01*
X14398Y321743D01*
X13285Y320888D01*
X12430Y319775D01*
X11893Y318478D01*
X11710Y317087D01*
X11893Y315695D01*
X12430Y314398D01*
X13285Y313285D01*
X14398Y312430D01*
X14624Y312337D01*
Y311837D01*
X14398Y311743D01*
X13285Y310889D01*
X12430Y309775D01*
X11893Y308478D01*
X11710Y307087D01*
X11893Y305695D01*
X12430Y304398D01*
X13285Y303285D01*
X14398Y302430D01*
X14624Y302337D01*
Y301837D01*
X14398Y301743D01*
X13285Y300888D01*
X12430Y299775D01*
X11893Y298478D01*
X11710Y297087D01*
X11893Y295695D01*
X12430Y294398D01*
X13285Y293285D01*
X14398Y292430D01*
X14624Y292337D01*
Y291837D01*
X14398Y291743D01*
X13285Y290889D01*
X12430Y289775D01*
X11893Y288478D01*
X11710Y287087D01*
X11893Y285695D01*
X12430Y284398D01*
X13285Y283285D01*
X14398Y282430D01*
X14624Y282337D01*
Y281837D01*
X14398Y281743D01*
X13285Y280889D01*
X12430Y279775D01*
X11893Y278478D01*
X11710Y277087D01*
X11893Y275695D01*
X12430Y274398D01*
X13285Y273285D01*
X14398Y272430D01*
X15695Y271893D01*
X17087Y271710D01*
X18478Y271893D01*
X19775Y272430D01*
X20888Y273285D01*
X21743Y274398D01*
X21837Y274624D01*
X22337D01*
X22430Y274398D01*
X23285Y273285D01*
X24398Y272430D01*
X25695Y271893D01*
X27087Y271710D01*
X28478Y271893D01*
X29775Y272430D01*
X30889Y273285D01*
X31743Y274398D01*
X31837Y274624D01*
X32337D01*
X32430Y274398D01*
X33285Y273285D01*
X34398Y272430D01*
X35695Y271893D01*
X37087Y271710D01*
X38478Y271893D01*
X39775Y272430D01*
X40889Y273285D01*
X41743Y274398D01*
X41837Y274624D01*
X42337D01*
X42430Y274398D01*
X43285Y273285D01*
X44398Y272430D01*
X45695Y271893D01*
X47087Y271710D01*
X48478Y271893D01*
X49775Y272430D01*
X50889Y273285D01*
X51743Y274398D01*
X51837Y274624D01*
X52337D01*
X52430Y274398D01*
X53285Y273285D01*
X54398Y272430D01*
X55695Y271893D01*
X57087Y271710D01*
X58478Y271893D01*
X59775Y272430D01*
X60888Y273285D01*
X61743Y274398D01*
X62280Y275695D01*
X62463Y277087D01*
X62280Y278478D01*
X61743Y279775D01*
X60888Y280889D01*
X59775Y281743D01*
X59549Y281837D01*
Y282337D01*
X59775Y282430D01*
X60888Y283285D01*
X61743Y284398D01*
X62280Y285695D01*
X62463Y287087D01*
X62280Y288478D01*
X61743Y289775D01*
X60888Y290889D01*
X59775Y291743D01*
X59549Y291837D01*
Y292337D01*
X59775Y292430D01*
X60888Y293285D01*
X61743Y294398D01*
X62280Y295695D01*
X62463Y297087D01*
X62280Y298478D01*
X61743Y299775D01*
X60888Y300888D01*
X59775Y301743D01*
X59549Y301837D01*
Y302337D01*
X59775Y302430D01*
X60888Y303285D01*
X61743Y304398D01*
X62280Y305695D01*
X62463Y307087D01*
X62280Y308478D01*
X61743Y309775D01*
X60888Y310889D01*
X59775Y311743D01*
X59549Y311837D01*
Y312337D01*
X59775Y312430D01*
X60888Y313285D01*
X61743Y314398D01*
X62280Y315695D01*
X62463Y317087D01*
X62280Y318478D01*
X61743Y319775D01*
X60888Y320888D01*
X59775Y321743D01*
X58478Y322280D01*
X57087Y322463D01*
D02*
G37*
G36*
X432677Y321909D02*
X431826Y321740D01*
X431105Y321257D01*
X430623Y320536D01*
X430453Y319685D01*
X430623Y318834D01*
X431105Y318113D01*
X431826Y317631D01*
X432677Y317461D01*
X433528Y317631D01*
X434250Y318113D01*
X434732Y318834D01*
X434901Y319685D01*
X434732Y320536D01*
X434250Y321257D01*
X433528Y321740D01*
X432677Y321909D01*
D02*
G37*
G36*
X478740Y321122D02*
X477889Y320952D01*
X477168Y320470D01*
X476686Y319749D01*
X476516Y318898D01*
X476686Y318047D01*
X477168Y317325D01*
X477889Y316843D01*
X478740Y316674D01*
X479591Y316843D01*
X480313Y317325D01*
X480795Y318047D01*
X480964Y318898D01*
X480795Y319749D01*
X480313Y320470D01*
X479591Y320952D01*
X478740Y321122D01*
D02*
G37*
G36*
X575984Y322299D02*
X574798Y322143D01*
X573693Y321685D01*
X572744Y320957D01*
X572016Y320008D01*
X571558Y318903D01*
X571402Y317717D01*
X571558Y316530D01*
X572016Y315425D01*
X572744Y314476D01*
X573693Y313748D01*
X574798Y313290D01*
X575984Y313134D01*
X577170Y313290D01*
X578275Y313748D01*
X579225Y314476D01*
X579953Y315425D01*
X580411Y316530D01*
X580567Y317717D01*
X580411Y318903D01*
X579953Y320008D01*
X579225Y320957D01*
X578275Y321685D01*
X577170Y322143D01*
X575984Y322299D01*
D02*
G37*
G36*
X488976Y307736D02*
X488125Y307566D01*
X487404Y307084D01*
X486922Y306363D01*
X486753Y305512D01*
X486922Y304661D01*
X487404Y303939D01*
X488125Y303457D01*
X488976Y303288D01*
X489827Y303457D01*
X490549Y303939D01*
X491031Y304661D01*
X491200Y305512D01*
X491031Y306363D01*
X490549Y307084D01*
X489827Y307566D01*
X488976Y307736D01*
D02*
G37*
G36*
X476378Y307342D02*
X475527Y307173D01*
X474805Y306691D01*
X474323Y305969D01*
X474154Y305118D01*
X474164Y305067D01*
X471311Y302214D01*
X471260Y302224D01*
X470409Y302055D01*
X469687Y301572D01*
X469205Y300851D01*
X469036Y300000D01*
X469205Y299149D01*
X469687Y298428D01*
X470409Y297945D01*
X471260Y297776D01*
X471722Y297868D01*
X472181Y297640D01*
X472214Y297495D01*
X472355Y296787D01*
X472837Y296065D01*
X473558Y295583D01*
X474409Y295414D01*
X475260Y295583D01*
X475982Y296065D01*
X476464Y296787D01*
X476633Y297638D01*
X476464Y298489D01*
X475982Y299210D01*
X475260Y299692D01*
X474409Y299862D01*
X473948Y299770D01*
X473865Y299811D01*
X473710Y300288D01*
X476327Y302904D01*
X476378Y302894D01*
X477229Y303064D01*
X477950Y303546D01*
X478433Y304267D01*
X478602Y305118D01*
X478433Y305969D01*
X477950Y306691D01*
X477229Y307173D01*
X476378Y307342D01*
D02*
G37*
G36*
X441732Y314428D02*
X440881Y314259D01*
X440160Y313777D01*
X439678Y313056D01*
X439508Y312205D01*
X439678Y311354D01*
X440160Y310632D01*
Y310234D01*
X439678Y309512D01*
X439508Y308661D01*
X439678Y307810D01*
X440160Y307089D01*
X440553Y306826D01*
Y306690D01*
X440071Y305968D01*
X439901Y305118D01*
X440071Y304267D01*
X440553Y303545D01*
X441274Y303063D01*
X442125Y302894D01*
X442976Y303063D01*
X443698Y303545D01*
X444180Y304267D01*
X444349Y305118D01*
X444180Y305968D01*
X443698Y306690D01*
X443305Y306952D01*
Y307089D01*
X443787Y307810D01*
X443956Y308661D01*
X443787Y309512D01*
X443305Y310234D01*
Y310632D01*
X443787Y311354D01*
X443956Y312205D01*
X443787Y313056D01*
X443305Y313777D01*
X442583Y314259D01*
X441732Y314428D01*
D02*
G37*
G36*
X492520Y304192D02*
X491669Y304023D01*
X490947Y303541D01*
X490465Y302819D01*
X490296Y301969D01*
X490465Y301117D01*
X490947Y300396D01*
X491669Y299914D01*
X492520Y299745D01*
X493371Y299914D01*
X494092Y300396D01*
X494574Y301117D01*
X494743Y301969D01*
X494574Y302819D01*
X494092Y303541D01*
X493371Y304023D01*
X492520Y304192D01*
D02*
G37*
G36*
X428898Y302640D02*
X428112Y302537D01*
X427381Y302234D01*
X426752Y301751D01*
X426270Y301123D01*
X425967Y300392D01*
X425864Y299606D01*
X425967Y298821D01*
X426270Y298089D01*
X426752Y297461D01*
X427381Y296979D01*
X428112Y296676D01*
X428898Y296572D01*
X429683Y296676D01*
X430414Y296979D01*
X431043Y297461D01*
X431525Y298089D01*
X431828Y298821D01*
X431931Y299606D01*
X431828Y300392D01*
X431525Y301123D01*
X431043Y301751D01*
X430414Y302234D01*
X429683Y302537D01*
X428898Y302640D01*
D02*
G37*
G36*
X481890Y298680D02*
X481039Y298511D01*
X480317Y298029D01*
X479835Y297308D01*
X479666Y296457D01*
X479835Y295606D01*
X480317Y294884D01*
X481039Y294402D01*
X481890Y294233D01*
X482741Y294402D01*
X483462Y294884D01*
X483944Y295606D01*
X484114Y296457D01*
X483944Y297308D01*
X483462Y298029D01*
X482741Y298511D01*
X481890Y298680D01*
D02*
G37*
G36*
X220472Y297106D02*
X219621Y296936D01*
X218900Y296454D01*
X218418Y295733D01*
X218249Y294882D01*
X218418Y294031D01*
X218900Y293309D01*
X219621Y292827D01*
X220472Y292658D01*
X221323Y292827D01*
X222045Y293309D01*
X222527Y294031D01*
X222696Y294882D01*
X222527Y295733D01*
X222045Y296454D01*
X221323Y296936D01*
X220472Y297106D01*
D02*
G37*
G36*
X496063Y293562D02*
X495212Y293393D01*
X494490Y292911D01*
X494008Y292190D01*
X493839Y291339D01*
X494008Y290488D01*
X494490Y289766D01*
X495212Y289284D01*
X496063Y289115D01*
X496914Y289284D01*
X497636Y289766D01*
X498117Y290488D01*
X498287Y291339D01*
X498117Y292190D01*
X497636Y292911D01*
X496914Y293393D01*
X496063Y293562D01*
D02*
G37*
G36*
X413386Y291981D02*
X412303Y291838D01*
X411293Y291420D01*
X410426Y290755D01*
X409761Y289888D01*
X409343Y288878D01*
X409200Y287795D01*
X409343Y286712D01*
X409761Y285703D01*
X410426Y284836D01*
X411293Y284171D01*
X412303Y283752D01*
X413386Y283610D01*
X414469Y283752D01*
X415479Y284171D01*
X416345Y284836D01*
X417010Y285703D01*
X417429Y286712D01*
X417571Y287795D01*
X417429Y288878D01*
X417010Y289888D01*
X416345Y290755D01*
X415479Y291420D01*
X414469Y291838D01*
X413386Y291981D01*
D02*
G37*
G36*
X476772Y285688D02*
X475921Y285519D01*
X475199Y285037D01*
X474717Y284316D01*
X474548Y283465D01*
X474717Y282613D01*
X475199Y281892D01*
X475921Y281410D01*
X476772Y281241D01*
X477623Y281410D01*
X478344Y281892D01*
X478826Y282613D01*
X478996Y283465D01*
X478826Y284316D01*
X478344Y285037D01*
X477623Y285519D01*
X476772Y285688D01*
D02*
G37*
G36*
X249606Y358894D02*
X233071D01*
X232681Y358816D01*
X232350Y358595D01*
X232129Y358264D01*
X232051Y357874D01*
Y280315D01*
X232129Y279925D01*
X232350Y279594D01*
X232681Y279373D01*
X233071Y279295D01*
X249606D01*
X249996Y279373D01*
X250327Y279594D01*
X250548Y279925D01*
X250626Y280315D01*
Y357874D01*
X250548Y358264D01*
X250327Y358595D01*
X249996Y358816D01*
X249606Y358894D01*
D02*
G37*
G36*
X576535Y288441D02*
X575349Y288285D01*
X574244Y287827D01*
X573295Y287099D01*
X572567Y286150D01*
X572109Y285044D01*
X571953Y283858D01*
X572109Y282672D01*
X572567Y281567D01*
X573295Y280618D01*
X574244Y279890D01*
X575349Y279432D01*
X576535Y279276D01*
X577722Y279432D01*
X578827Y279890D01*
X579776Y280618D01*
X580504Y281567D01*
X580962Y282672D01*
X581118Y283858D01*
X580962Y285044D01*
X580504Y286150D01*
X579776Y287099D01*
X578827Y287827D01*
X577722Y288285D01*
X576535Y288441D01*
D02*
G37*
G36*
X504724Y279389D02*
X503873Y279220D01*
X503152Y278738D01*
X503123Y278695D01*
X499606D01*
X499021Y278578D01*
X498525Y278247D01*
X496901Y276623D01*
X496850Y276633D01*
X495999Y276464D01*
X495278Y275982D01*
X494796Y275260D01*
X494627Y274410D01*
X494796Y273558D01*
X495278Y272837D01*
X495999Y272355D01*
X496850Y272186D01*
X497701Y272355D01*
X498423Y272837D01*
X498905Y273558D01*
X499074Y274410D01*
X499064Y274460D01*
X500240Y275636D01*
X503123D01*
X503152Y275593D01*
X503873Y275111D01*
X504724Y274941D01*
X505575Y275111D01*
X506297Y275593D01*
X506779Y276314D01*
X506948Y277165D01*
X506779Y278016D01*
X506297Y278738D01*
X505575Y279220D01*
X504724Y279389D01*
D02*
G37*
G36*
X477953Y277421D02*
X477102Y277251D01*
X476380Y276769D01*
X475898Y276048D01*
X475729Y275197D01*
X475898Y274346D01*
X476380Y273624D01*
X477102Y273142D01*
X477953Y272973D01*
X478804Y273142D01*
X479525Y273624D01*
X480007Y274346D01*
X480177Y275197D01*
X480007Y276048D01*
X479525Y276769D01*
X478804Y277251D01*
X477953Y277421D01*
D02*
G37*
G36*
X413386Y280170D02*
X412303Y280027D01*
X411293Y279609D01*
X410426Y278944D01*
X409761Y278077D01*
X409343Y277067D01*
X409200Y275984D01*
X409343Y274901D01*
X409761Y273891D01*
X410426Y273025D01*
X411293Y272360D01*
X412303Y271941D01*
X413386Y271799D01*
X414469Y271941D01*
X415479Y272360D01*
X416345Y273025D01*
X417010Y273891D01*
X417429Y274901D01*
X417571Y275984D01*
X417429Y277067D01*
X417010Y278077D01*
X416345Y278944D01*
X415479Y279609D01*
X414469Y280027D01*
X413386Y280170D01*
D02*
G37*
G36*
X565567Y276590D02*
X556480D01*
Y267504D01*
X565567D01*
Y276590D01*
D02*
G37*
G36*
X428898Y267207D02*
X428112Y267104D01*
X427381Y266801D01*
X426752Y266318D01*
X426270Y265690D01*
X425967Y264958D01*
X425864Y264173D01*
X425967Y263388D01*
X426270Y262656D01*
X426752Y262028D01*
X427381Y261546D01*
X428112Y261243D01*
X428898Y261139D01*
X429683Y261243D01*
X430414Y261546D01*
X431043Y262028D01*
X431525Y262656D01*
X431828Y263388D01*
X431931Y264173D01*
X431828Y264958D01*
X431525Y265690D01*
X431043Y266318D01*
X430414Y266801D01*
X429683Y267104D01*
X428898Y267207D01*
D02*
G37*
G36*
X485827Y263641D02*
X484976Y263472D01*
X484254Y262990D01*
X483772Y262268D01*
X483603Y261417D01*
X483772Y260566D01*
X484254Y259845D01*
X484976Y259363D01*
X485827Y259193D01*
X486678Y259363D01*
X487399Y259845D01*
X487881Y260566D01*
X488051Y261417D01*
X487881Y262268D01*
X487399Y262990D01*
X486678Y263472D01*
X485827Y263641D01*
D02*
G37*
G36*
X442126Y258523D02*
X441275Y258354D01*
X440554Y257872D01*
X440525Y257829D01*
X433725D01*
X433528Y257960D01*
X432677Y258129D01*
X431826Y257960D01*
X431105Y257478D01*
X430623Y256756D01*
X430453Y255906D01*
X430623Y255054D01*
X431105Y254333D01*
X431826Y253851D01*
X432677Y253682D01*
X433528Y253851D01*
X434250Y254333D01*
X434542Y254770D01*
X440525D01*
X440554Y254727D01*
X441275Y254245D01*
X442126Y254075D01*
X442977Y254245D01*
X443699Y254727D01*
X444180Y255448D01*
X444350Y256299D01*
X444180Y257150D01*
X443699Y257872D01*
X442977Y258354D01*
X442126Y258523D01*
D02*
G37*
G36*
X492520Y261673D02*
X491669Y261503D01*
X490947Y261021D01*
X490465Y260300D01*
X490296Y259449D01*
X490465Y258598D01*
X490947Y257876D01*
X491669Y257394D01*
X492520Y257225D01*
X493371Y257394D01*
X494092Y257876D01*
X494574Y258598D01*
X494743Y259449D01*
X494574Y260300D01*
X494092Y261021D01*
X493371Y261503D01*
X492520Y261673D01*
D02*
G37*
G36*
X576535Y264819D02*
X575349Y264663D01*
X574244Y264205D01*
X573295Y263476D01*
X572567Y262527D01*
X572109Y261422D01*
X571953Y260236D01*
X572109Y259050D01*
X572567Y257945D01*
X573295Y256996D01*
X574244Y256268D01*
X575349Y255810D01*
X576535Y255654D01*
X577722Y255810D01*
X578827Y256268D01*
X579776Y256996D01*
X580504Y257945D01*
X580962Y259050D01*
X581118Y260236D01*
X580962Y261422D01*
X580504Y262527D01*
X579776Y263476D01*
X578827Y264205D01*
X577722Y264663D01*
X576535Y264819D01*
D02*
G37*
G36*
X127441Y261860D02*
X126280Y261746D01*
X125164Y261407D01*
X124135Y260858D01*
X123234Y260118D01*
X122494Y259216D01*
X121944Y258187D01*
X121605Y257071D01*
X121491Y255910D01*
X121605Y254750D01*
X121944Y253633D01*
X122494Y252605D01*
X123234Y251703D01*
X124135Y250963D01*
X125164Y250413D01*
X126280Y250075D01*
X127441Y249960D01*
X128602Y250075D01*
X129718Y250413D01*
X130746Y250963D01*
X131648Y251703D01*
X132388Y252605D01*
X132938Y253633D01*
X133276Y254750D01*
X133391Y255910D01*
X133276Y257071D01*
X132938Y258187D01*
X132388Y259216D01*
X131648Y260118D01*
X130746Y260858D01*
X129718Y261407D01*
X128602Y261746D01*
X127441Y261860D01*
D02*
G37*
G36*
X74410D02*
X73249Y261746D01*
X72132Y261407D01*
X71104Y260858D01*
X70202Y260118D01*
X69462Y259216D01*
X68913Y258187D01*
X68574Y257071D01*
X68459Y255910D01*
X68574Y254750D01*
X68913Y253633D01*
X69462Y252605D01*
X70202Y251703D01*
X71104Y250963D01*
X72132Y250413D01*
X73249Y250075D01*
X74410Y249960D01*
X75570Y250075D01*
X76686Y250413D01*
X77715Y250963D01*
X78617Y251703D01*
X79357Y252605D01*
X79906Y253633D01*
X80245Y254750D01*
X80359Y255910D01*
X80245Y257071D01*
X79906Y258187D01*
X79357Y259216D01*
X78617Y260118D01*
X77715Y260858D01*
X76686Y261407D01*
X75570Y261746D01*
X74410Y261860D01*
D02*
G37*
G36*
X573622Y249468D02*
X572771Y249299D01*
X572050Y248817D01*
X571567Y248095D01*
X571398Y247244D01*
X571567Y246393D01*
X572050Y245672D01*
X572771Y245189D01*
X573622Y245020D01*
X574473Y245189D01*
X575195Y245672D01*
X575677Y246393D01*
X575846Y247244D01*
X575677Y248095D01*
X575195Y248817D01*
X574473Y249299D01*
X573622Y249468D01*
D02*
G37*
G36*
X428898Y251065D02*
X428112Y250962D01*
X427381Y250659D01*
X426752Y250177D01*
X426270Y249548D01*
X425967Y248817D01*
X425864Y248031D01*
X425967Y247246D01*
X426270Y246515D01*
X426752Y245886D01*
X427381Y245404D01*
X428112Y245101D01*
X428898Y244998D01*
X429683Y245101D01*
X430414Y245404D01*
X431043Y245886D01*
X431525Y246515D01*
X431828Y247246D01*
X431931Y248031D01*
X431828Y248817D01*
X431525Y249548D01*
X431043Y250177D01*
X430414Y250659D01*
X429683Y250962D01*
X428898Y251065D01*
D02*
G37*
G36*
X477165Y247499D02*
X476314Y247330D01*
X475593Y246848D01*
X475111Y246127D01*
X474941Y245276D01*
X475111Y244425D01*
X475593Y243703D01*
X476314Y243221D01*
X477165Y243052D01*
X478016Y243221D01*
X478738Y243703D01*
X479220Y244425D01*
X479389Y245276D01*
X479220Y246127D01*
X478738Y246848D01*
X478016Y247330D01*
X477165Y247499D01*
D02*
G37*
G36*
X196457Y243956D02*
X195606Y243787D01*
X194884Y243305D01*
X194402Y242583D01*
X194233Y241732D01*
X194402Y240881D01*
X194884Y240160D01*
X195606Y239678D01*
X196457Y239508D01*
X197308Y239678D01*
X198029Y240160D01*
X198511Y240881D01*
X198680Y241732D01*
X198511Y242583D01*
X198029Y243305D01*
X197308Y243787D01*
X196457Y243956D01*
D02*
G37*
G36*
X153150Y242381D02*
X152299Y242212D01*
X151577Y241730D01*
X151095Y241008D01*
X150926Y240158D01*
X151095Y239306D01*
X151577Y238585D01*
X152299Y238103D01*
X153150Y237934D01*
X154001Y238103D01*
X154722Y238585D01*
X155204Y239306D01*
X155373Y240158D01*
X155204Y241008D01*
X154722Y241730D01*
X154001Y242212D01*
X153150Y242381D01*
D02*
G37*
G36*
X127441Y248475D02*
X126280Y248360D01*
X125164Y248022D01*
X124135Y247472D01*
X123234Y246732D01*
X122494Y245830D01*
X121944Y244801D01*
X121605Y243685D01*
X121491Y242525D01*
X121605Y241364D01*
X121944Y240248D01*
X122494Y239219D01*
X123234Y238317D01*
X124135Y237577D01*
X125164Y237028D01*
X126280Y236689D01*
X127441Y236575D01*
X128602Y236689D01*
X129718Y237028D01*
X130746Y237577D01*
X131648Y238317D01*
X132388Y239219D01*
X132938Y240248D01*
X133276Y241364D01*
X133391Y242525D01*
X133276Y243685D01*
X132938Y244801D01*
X132388Y245830D01*
X131648Y246732D01*
X130746Y247472D01*
X129718Y248022D01*
X128602Y248360D01*
X127441Y248475D01*
D02*
G37*
G36*
X74410D02*
X73249Y248360D01*
X72132Y248022D01*
X71104Y247472D01*
X70202Y246732D01*
X69462Y245830D01*
X68913Y244801D01*
X68574Y243685D01*
X68459Y242525D01*
X68574Y241364D01*
X68913Y240248D01*
X69462Y239219D01*
X70202Y238317D01*
X71104Y237577D01*
X72132Y237028D01*
X73249Y236689D01*
X74410Y236575D01*
X75570Y236689D01*
X76686Y237028D01*
X77715Y237577D01*
X78617Y238317D01*
X79357Y239219D01*
X79906Y240248D01*
X80245Y241364D01*
X80359Y242525D01*
X80245Y243685D01*
X79906Y244801D01*
X79357Y245830D01*
X78617Y246732D01*
X77715Y247472D01*
X76686Y248022D01*
X75570Y248360D01*
X74410Y248475D01*
D02*
G37*
G36*
X575984Y242378D02*
X574798Y242222D01*
X573693Y241764D01*
X572744Y241036D01*
X572016Y240087D01*
X571558Y238981D01*
X571402Y237795D01*
X571558Y236609D01*
X572016Y235504D01*
X572744Y234555D01*
X573693Y233827D01*
X574798Y233369D01*
X575984Y233213D01*
X577170Y233369D01*
X578275Y233827D01*
X579225Y234555D01*
X579953Y235504D01*
X580411Y236609D01*
X580567Y237795D01*
X580411Y238981D01*
X579953Y240087D01*
X579225Y241036D01*
X578275Y241764D01*
X577170Y242222D01*
X575984Y242378D01*
D02*
G37*
G36*
X413386Y240406D02*
X412303Y240263D01*
X411293Y239845D01*
X410426Y239180D01*
X409761Y238313D01*
X409343Y237304D01*
X409200Y236221D01*
X409343Y235137D01*
X409761Y234128D01*
X410426Y233261D01*
X411293Y232596D01*
X412303Y232178D01*
X413386Y232035D01*
X414469Y232178D01*
X415479Y232596D01*
X416345Y233261D01*
X417010Y234128D01*
X417429Y235137D01*
X417571Y236221D01*
X417429Y237304D01*
X417010Y238313D01*
X416345Y239180D01*
X415479Y239845D01*
X414469Y240263D01*
X413386Y240406D01*
D02*
G37*
G36*
X463386Y236082D02*
X462535Y235913D01*
X461813Y235431D01*
X461331Y234709D01*
X461162Y233858D01*
X461331Y233007D01*
X461813Y232286D01*
X462535Y231804D01*
X463386Y231634D01*
X464237Y231804D01*
X464958Y232286D01*
X465440Y233007D01*
X465610Y233858D01*
X465440Y234709D01*
X464958Y235431D01*
X464237Y235913D01*
X463386Y236082D01*
D02*
G37*
G36*
X471260Y234457D02*
X470409Y234288D01*
X469687Y233806D01*
X469205Y233084D01*
X469036Y232233D01*
X469205Y231382D01*
X469687Y230661D01*
X470409Y230179D01*
X471260Y230009D01*
X472111Y230179D01*
X472832Y230661D01*
X473314Y231382D01*
X473484Y232233D01*
X473314Y233084D01*
X472832Y233806D01*
X472111Y234288D01*
X471260Y234457D01*
D02*
G37*
G36*
X504331Y224271D02*
X503480Y224102D01*
X502758Y223620D01*
X502612Y223401D01*
X502112D01*
X501966Y223620D01*
X501245Y224102D01*
X500394Y224271D01*
X499543Y224102D01*
X498821Y223620D01*
X498339Y222898D01*
X498170Y222047D01*
X498339Y221196D01*
X498821Y220475D01*
X499543Y219993D01*
X500394Y219823D01*
X501245Y219993D01*
X501966Y220475D01*
X502112Y220693D01*
X502612D01*
X502758Y220475D01*
X503480Y219993D01*
X504331Y219823D01*
X505182Y219993D01*
X505903Y220475D01*
X506468Y220421D01*
X506695Y220081D01*
X507417Y219599D01*
X508268Y219430D01*
X509119Y219599D01*
X509840Y220081D01*
X510322Y220802D01*
X510492Y221654D01*
X510322Y222505D01*
X509840Y223226D01*
X509119Y223708D01*
X508268Y223877D01*
X507417Y223708D01*
X506695Y223226D01*
X506130Y223280D01*
X505903Y223620D01*
X505182Y224102D01*
X504331Y224271D01*
D02*
G37*
G36*
X560472Y230567D02*
X559286Y230411D01*
X558181Y229953D01*
X557232Y229225D01*
X556504Y228275D01*
X556046Y227170D01*
X555890Y225984D01*
X556046Y224798D01*
X556504Y223693D01*
X557232Y222744D01*
X558181Y222016D01*
X559286Y221558D01*
X560472Y221402D01*
X561658Y221558D01*
X562764Y222016D01*
X563713Y222744D01*
X564441Y223693D01*
X564899Y224798D01*
X565055Y225984D01*
X564899Y227170D01*
X564441Y228275D01*
X563713Y229225D01*
X562764Y229953D01*
X561658Y230411D01*
X560472Y230567D01*
D02*
G37*
G36*
X413386Y228595D02*
X412303Y228452D01*
X411293Y228034D01*
X410426Y227369D01*
X409761Y226502D01*
X409343Y225493D01*
X409200Y224410D01*
X409343Y223326D01*
X409761Y222317D01*
X410426Y221450D01*
X411293Y220785D01*
X412303Y220367D01*
X413386Y220224D01*
X414469Y220367D01*
X415479Y220785D01*
X416345Y221450D01*
X417010Y222317D01*
X417429Y223326D01*
X417571Y224410D01*
X417429Y225493D01*
X417010Y226502D01*
X416345Y227369D01*
X415479Y228034D01*
X414469Y228452D01*
X413386Y228595D01*
D02*
G37*
G36*
X468898Y223877D02*
X468047Y223708D01*
X467325Y223226D01*
X466843Y222505D01*
X466674Y221654D01*
X466843Y220802D01*
X467325Y220081D01*
X468047Y219599D01*
X468898Y219430D01*
X469749Y219599D01*
X470470Y220081D01*
X470952Y220802D01*
X471122Y221654D01*
X470952Y222505D01*
X470470Y223226D01*
X469749Y223708D01*
X468898Y223877D01*
D02*
G37*
G36*
X474016Y217184D02*
X473165Y217015D01*
X472443Y216533D01*
X471961Y215812D01*
X471792Y214961D01*
X471961Y214110D01*
X472443Y213388D01*
X473165Y212906D01*
X474016Y212737D01*
X474867Y212906D01*
X475588Y213388D01*
X476070Y214110D01*
X476240Y214961D01*
X476070Y215812D01*
X475588Y216533D01*
X474867Y217015D01*
X474016Y217184D01*
D02*
G37*
G36*
X560472Y218756D02*
X559286Y218600D01*
X558181Y218142D01*
X557232Y217413D01*
X556504Y216464D01*
X556046Y215359D01*
X555890Y214173D01*
X556046Y212987D01*
X556504Y211882D01*
X557232Y210933D01*
X558181Y210205D01*
X559286Y209747D01*
X560472Y209591D01*
X561658Y209747D01*
X562764Y210205D01*
X563713Y210933D01*
X564441Y211882D01*
X564899Y212987D01*
X565055Y214173D01*
X564899Y215359D01*
X564441Y216464D01*
X563713Y217413D01*
X562764Y218142D01*
X561658Y218600D01*
X560472Y218756D01*
D02*
G37*
G36*
X428898Y215632D02*
X428112Y215529D01*
X427381Y215226D01*
X426752Y214744D01*
X426270Y214115D01*
X425967Y213384D01*
X425864Y212598D01*
X425967Y211813D01*
X426270Y211082D01*
X426752Y210453D01*
X427381Y209971D01*
X428112Y209668D01*
X428898Y209565D01*
X429683Y209668D01*
X430414Y209971D01*
X431043Y210453D01*
X431525Y211082D01*
X431828Y211813D01*
X431931Y212598D01*
X431828Y213384D01*
X431525Y214115D01*
X431043Y214744D01*
X430414Y215226D01*
X429683Y215529D01*
X428898Y215632D01*
D02*
G37*
G36*
X438583Y207736D02*
X437732Y207566D01*
X437010Y207084D01*
X436528Y206363D01*
X436359Y205512D01*
X436528Y204661D01*
X437010Y203939D01*
X437732Y203457D01*
X438583Y203288D01*
X439434Y203457D01*
X440155Y203939D01*
X440637Y204661D01*
X440806Y205512D01*
X440637Y206363D01*
X440155Y207084D01*
X439434Y207566D01*
X438583Y207736D01*
D02*
G37*
G36*
X174606Y210098D02*
X173755Y209928D01*
X173034Y209447D01*
X172552Y208725D01*
X172382Y207874D01*
X172552Y207023D01*
X173034Y206301D01*
X173755Y205820D01*
X174606Y205650D01*
X175083Y205745D01*
X175383Y205295D01*
X175308Y205182D01*
X175138Y204331D01*
X175308Y203480D01*
X175790Y202758D01*
X176511Y202276D01*
X177362Y202107D01*
X178213Y202276D01*
X178935Y202758D01*
X179417Y203480D01*
X179586Y204331D01*
X179417Y205182D01*
X178935Y205903D01*
X178213Y206385D01*
X177362Y206555D01*
X176886Y206460D01*
X176585Y206910D01*
X176661Y207023D01*
X176830Y207874D01*
X176661Y208725D01*
X176179Y209447D01*
X175457Y209928D01*
X174606Y210098D01*
D02*
G37*
G36*
X405811Y205074D02*
X404960Y204905D01*
X404239Y204423D01*
X403757Y203701D01*
X403587Y202850D01*
X403757Y201999D01*
X404239Y201278D01*
X404960Y200796D01*
X405811Y200627D01*
X406662Y200796D01*
X407383Y201278D01*
X407866Y201999D01*
X408035Y202850D01*
X407866Y203701D01*
X407383Y204423D01*
X406662Y204905D01*
X405811Y205074D01*
D02*
G37*
G36*
X428740Y203011D02*
X427889Y202842D01*
X427168Y202360D01*
X426686Y201638D01*
X426516Y200787D01*
X426686Y199936D01*
X427168Y199215D01*
X427889Y198733D01*
X428740Y198564D01*
X429591Y198733D01*
X430313Y199215D01*
X430795Y199936D01*
X430964Y200787D01*
X430795Y201638D01*
X430313Y202360D01*
X429591Y202842D01*
X428740Y203011D01*
D02*
G37*
G36*
X464783Y202440D02*
X463933Y202271D01*
X463211Y201789D01*
X462729Y201068D01*
X462560Y200217D01*
X462729Y199365D01*
X463211Y198644D01*
X463933Y198162D01*
X464783Y197993D01*
X465634Y198162D01*
X466356Y198644D01*
X466838Y199365D01*
X467007Y200217D01*
X466838Y201068D01*
X466356Y201789D01*
X465634Y202271D01*
X464783Y202440D01*
D02*
G37*
G36*
X560472Y206945D02*
X559286Y206789D01*
X558181Y206331D01*
X557232Y205603D01*
X556504Y204653D01*
X556046Y203548D01*
X555890Y202362D01*
X556046Y201176D01*
X556504Y200071D01*
X557232Y199122D01*
X558181Y198394D01*
X559286Y197936D01*
X560472Y197780D01*
X561658Y197936D01*
X562764Y198394D01*
X563713Y199122D01*
X564441Y200071D01*
X564899Y201176D01*
X565055Y202362D01*
X564899Y203548D01*
X564441Y204653D01*
X563713Y205603D01*
X562764Y206331D01*
X561658Y206789D01*
X560472Y206945D01*
D02*
G37*
G36*
X395669Y200649D02*
X394818Y200480D01*
X394097Y199998D01*
X393615Y199276D01*
X393445Y198425D01*
X393615Y197574D01*
X394097Y196853D01*
X394818Y196371D01*
X395669Y196201D01*
X396520Y196371D01*
X397242Y196853D01*
X397724Y197574D01*
X397893Y198425D01*
X397724Y199276D01*
X397242Y199998D01*
X396520Y200480D01*
X395669Y200649D01*
D02*
G37*
G36*
X469685Y199074D02*
X468834Y198905D01*
X468113Y198423D01*
X467630Y197701D01*
X467461Y196850D01*
X467630Y195999D01*
X468113Y195278D01*
X468834Y194796D01*
X469685Y194627D01*
X470536Y194796D01*
X471257Y195278D01*
X471740Y195999D01*
X471909Y196850D01*
X471740Y197701D01*
X471257Y198423D01*
X470536Y198905D01*
X469685Y199074D01*
D02*
G37*
G36*
X454724Y197893D02*
X453873Y197724D01*
X453152Y197242D01*
X452670Y196520D01*
X452501Y195669D01*
X452670Y194818D01*
X453152Y194097D01*
X453873Y193615D01*
X454724Y193446D01*
X455575Y193615D01*
X456297Y194097D01*
X456779Y194818D01*
X456948Y195669D01*
X456779Y196520D01*
X456297Y197242D01*
X455575Y197724D01*
X454724Y197893D01*
D02*
G37*
G36*
X405905Y197499D02*
X405055Y197330D01*
X404333Y196848D01*
X403851Y196127D01*
X403682Y195276D01*
X403851Y194425D01*
X404333Y193703D01*
X405055Y193221D01*
X405905Y193052D01*
X406756Y193221D01*
X407478Y193703D01*
X407960Y194425D01*
X408129Y195276D01*
X407960Y196127D01*
X407478Y196848D01*
X406756Y197330D01*
X405905Y197499D01*
D02*
G37*
G36*
X395669Y193956D02*
X394818Y193787D01*
X394097Y193305D01*
X393615Y192583D01*
X393445Y191732D01*
X393615Y190881D01*
X394097Y190160D01*
X394818Y189678D01*
X395669Y189508D01*
X396520Y189678D01*
X397242Y190160D01*
X397724Y190881D01*
X397893Y191732D01*
X397724Y192583D01*
X397242Y193305D01*
X396520Y193787D01*
X395669Y193956D01*
D02*
G37*
G36*
X217323Y193169D02*
X216472Y192999D01*
X215750Y192517D01*
X215268Y191796D01*
X215099Y190945D01*
X215268Y190094D01*
X215750Y189372D01*
X216472Y188890D01*
X217323Y188721D01*
X218174Y188890D01*
X218895Y189372D01*
X219377Y190094D01*
X219547Y190945D01*
X219377Y191796D01*
X218895Y192517D01*
X218174Y192999D01*
X217323Y193169D01*
D02*
G37*
G36*
X388189Y188838D02*
X387338Y188669D01*
X386616Y188187D01*
X386134Y187465D01*
X386082Y187200D01*
X385572D01*
X385519Y187465D01*
X385037Y188187D01*
X384316Y188669D01*
X383465Y188838D01*
X382613Y188669D01*
X381892Y188187D01*
X381410Y187465D01*
X381241Y186614D01*
X381410Y185763D01*
X381892Y185042D01*
X382613Y184560D01*
X383465Y184390D01*
X384316Y184560D01*
X385037Y185042D01*
X385519Y185763D01*
X385572Y186028D01*
X386082D01*
X386134Y185763D01*
X386616Y185042D01*
X387338Y184560D01*
X388189Y184390D01*
X389040Y184560D01*
X389761Y185042D01*
X390244Y185763D01*
X390413Y186614D01*
X390244Y187465D01*
X389761Y188187D01*
X389040Y188669D01*
X388189Y188838D01*
D02*
G37*
G36*
X368110D02*
X367259Y188669D01*
X366538Y188187D01*
X366056Y187465D01*
X366003Y187200D01*
X365493D01*
X365440Y187465D01*
X364958Y188187D01*
X364237Y188669D01*
X363386Y188838D01*
X362535Y188669D01*
X361813Y188187D01*
X361331Y187465D01*
X361162Y186614D01*
X361331Y185763D01*
X361813Y185042D01*
X362535Y184560D01*
X363386Y184390D01*
X364237Y184560D01*
X364958Y185042D01*
X365440Y185763D01*
X365493Y186028D01*
X366003D01*
X366056Y185763D01*
X366538Y185042D01*
X367259Y184560D01*
X368110Y184390D01*
X368961Y184560D01*
X369683Y185042D01*
X370165Y185763D01*
X370334Y186614D01*
X370165Y187465D01*
X369683Y188187D01*
X368961Y188669D01*
X368110Y188838D01*
D02*
G37*
G36*
X459449Y190806D02*
X458598Y190637D01*
X457876Y190155D01*
X457394Y189434D01*
X457225Y188583D01*
X457394Y187732D01*
X457876Y187010D01*
X458598Y186528D01*
X459449Y186359D01*
X460300Y186528D01*
X461021Y187010D01*
X461503Y187732D01*
X461673Y188583D01*
X461503Y189434D01*
X461021Y190155D01*
X460300Y190637D01*
X459449Y190806D01*
D02*
G37*
G36*
X560472Y195134D02*
X559286Y194977D01*
X558181Y194520D01*
X557232Y193791D01*
X556504Y192842D01*
X556046Y191737D01*
X555890Y190551D01*
X556046Y189365D01*
X556504Y188260D01*
X557232Y187311D01*
X558181Y186583D01*
X559286Y186125D01*
X560472Y185969D01*
X561658Y186125D01*
X562764Y186583D01*
X563713Y187311D01*
X564441Y188260D01*
X564899Y189365D01*
X565055Y190551D01*
X564899Y191737D01*
X564441Y192842D01*
X563713Y193791D01*
X562764Y194520D01*
X561658Y194977D01*
X560472Y195134D01*
D02*
G37*
G36*
X378346Y188838D02*
X377495Y188669D01*
X376774Y188187D01*
X376292Y187465D01*
X376123Y186614D01*
X376292Y185763D01*
X376774Y185042D01*
X377495Y184560D01*
X378346Y184390D01*
X379198Y184560D01*
X379919Y185042D01*
X380401Y185763D01*
X380570Y186614D01*
X380401Y187465D01*
X379919Y188187D01*
X379198Y188669D01*
X378346Y188838D01*
D02*
G37*
G36*
X373223D02*
X372372Y188669D01*
X371651Y188187D01*
X371169Y187465D01*
X371000Y186614D01*
X371169Y185763D01*
X371651Y185042D01*
X372372Y184560D01*
X373223Y184390D01*
X374075Y184560D01*
X374796Y185042D01*
X375278Y185763D01*
X375447Y186614D01*
X375278Y187465D01*
X374796Y188187D01*
X374075Y188669D01*
X373223Y188838D01*
D02*
G37*
G36*
X250394Y257713D02*
X232283D01*
X231893Y257635D01*
X231562Y257414D01*
X231342Y257083D01*
X231264Y256693D01*
X231264Y178347D01*
X231342Y177956D01*
X231562Y177626D01*
X231893Y177404D01*
X232283Y177327D01*
X250394D01*
X250784Y177404D01*
X251115Y177626D01*
X251336Y177956D01*
X251413Y178347D01*
X251413Y256693D01*
X251336Y257083D01*
X251115Y257414D01*
X250784Y257635D01*
X250394Y257713D01*
D02*
G37*
G36*
X174409Y180570D02*
X173558Y180401D01*
X172837Y179919D01*
X172355Y179198D01*
X172186Y178346D01*
X172355Y177495D01*
X172837Y176774D01*
X173558Y176292D01*
X174409Y176123D01*
X175260Y176292D01*
X175982Y176774D01*
X176464Y177495D01*
X176633Y178346D01*
X176464Y179198D01*
X175982Y179919D01*
X175260Y180401D01*
X174409Y180570D01*
D02*
G37*
G36*
X560472Y183323D02*
X559286Y183167D01*
X558181Y182709D01*
X557232Y181981D01*
X556504Y181031D01*
X556046Y179926D01*
X555890Y178740D01*
X556046Y177554D01*
X556504Y176449D01*
X557232Y175500D01*
X558181Y174772D01*
X559286Y174314D01*
X560472Y174158D01*
X561658Y174314D01*
X562764Y174772D01*
X563713Y175500D01*
X564441Y176449D01*
X564899Y177554D01*
X565055Y178740D01*
X564899Y179926D01*
X564441Y181031D01*
X563713Y181981D01*
X562764Y182709D01*
X561658Y183167D01*
X560472Y183323D01*
D02*
G37*
G36*
X484646Y177814D02*
X483795Y177645D01*
X483073Y177163D01*
X482591Y176442D01*
X482422Y175591D01*
X482591Y174740D01*
X483073Y174018D01*
X483795Y173536D01*
X484646Y173367D01*
X485497Y173536D01*
X486218Y174018D01*
X486700Y174740D01*
X486869Y175591D01*
X486700Y176442D01*
X486218Y177163D01*
X485497Y177645D01*
X484646Y177814D01*
D02*
G37*
G36*
X479724D02*
X478873Y177645D01*
X478152Y177163D01*
X477670Y176442D01*
X477501Y175591D01*
X477670Y174740D01*
X478152Y174018D01*
X478873Y173536D01*
X479724Y173367D01*
X480575Y173536D01*
X481297Y174018D01*
X481779Y174740D01*
X481948Y175591D01*
X481779Y176442D01*
X481297Y177163D01*
X480575Y177645D01*
X479724Y177814D01*
D02*
G37*
G36*
X474606D02*
X473755Y177645D01*
X473034Y177163D01*
X472552Y176442D01*
X472382Y175591D01*
X472552Y174740D01*
X473034Y174018D01*
X473755Y173536D01*
X474606Y173367D01*
X475457Y173536D01*
X476179Y174018D01*
X476661Y174740D01*
X476830Y175591D01*
X476661Y176442D01*
X476179Y177163D01*
X475457Y177645D01*
X474606Y177814D01*
D02*
G37*
G36*
X449606Y177027D02*
X448755Y176858D01*
X448034Y176376D01*
X447552Y175654D01*
X447382Y174803D01*
X447552Y173952D01*
X448034Y173231D01*
X448755Y172749D01*
X449606Y172579D01*
X450457Y172749D01*
X451179Y173231D01*
X451661Y173952D01*
X451830Y174803D01*
X451661Y175654D01*
X451179Y176376D01*
X450457Y176858D01*
X449606Y177027D01*
D02*
G37*
G36*
X403937D02*
X403086Y176858D01*
X402364Y176376D01*
X401883Y175654D01*
X401713Y174803D01*
X401883Y173952D01*
X402364Y173231D01*
X403086Y172749D01*
X403937Y172579D01*
X404788Y172749D01*
X405510Y173231D01*
X405992Y173952D01*
X406161Y174803D01*
X405992Y175654D01*
X405510Y176376D01*
X404788Y176858D01*
X403937Y177027D01*
D02*
G37*
G36*
X358268D02*
X357417Y176858D01*
X356695Y176376D01*
X356213Y175654D01*
X356044Y174803D01*
X356213Y173952D01*
X356695Y173231D01*
X357417Y172749D01*
X358268Y172579D01*
X359119Y172749D01*
X359840Y173231D01*
X360322Y173952D01*
X360492Y174803D01*
X360322Y175654D01*
X359840Y176376D01*
X359119Y176858D01*
X358268Y177027D01*
D02*
G37*
G36*
X182677Y174271D02*
X181826Y174102D01*
X181105Y173620D01*
X180623Y172898D01*
X180453Y172047D01*
X180623Y171196D01*
X181105Y170475D01*
X181826Y169993D01*
X182677Y169823D01*
X183528Y169993D01*
X184250Y170475D01*
X184732Y171196D01*
X184901Y172047D01*
X184732Y172898D01*
X184250Y173620D01*
X183528Y174102D01*
X182677Y174271D01*
D02*
G37*
G36*
X560472Y171512D02*
X559286Y171355D01*
X558181Y170898D01*
X557232Y170169D01*
X556504Y169220D01*
X556046Y168115D01*
X555890Y166929D01*
X556046Y165743D01*
X556504Y164638D01*
X557232Y163689D01*
X558181Y162961D01*
X559286Y162503D01*
X560472Y162347D01*
X561658Y162503D01*
X562764Y162961D01*
X563713Y163689D01*
X564441Y164638D01*
X564899Y165743D01*
X565055Y166929D01*
X564899Y168115D01*
X564441Y169220D01*
X563713Y170169D01*
X562764Y170898D01*
X561658Y171355D01*
X560472Y171512D01*
D02*
G37*
G36*
X169685Y162066D02*
X168834Y161897D01*
X168113Y161415D01*
X167631Y160694D01*
X167461Y159843D01*
X167631Y158992D01*
X168113Y158270D01*
X168834Y157788D01*
X169685Y157619D01*
X170536Y157788D01*
X171257Y158270D01*
X171740Y158992D01*
X171909Y159843D01*
X171740Y160694D01*
X171257Y161415D01*
X170536Y161897D01*
X169685Y162066D01*
D02*
G37*
G36*
X534252Y158129D02*
X533401Y157960D01*
X532680Y157478D01*
X532197Y156756D01*
X532028Y155905D01*
X532197Y155054D01*
X532680Y154333D01*
X533401Y153851D01*
X534252Y153682D01*
X535103Y153851D01*
X535824Y154333D01*
X536306Y155054D01*
X536476Y155905D01*
X536306Y156756D01*
X535824Y157478D01*
X535103Y157960D01*
X534252Y158129D01*
D02*
G37*
G36*
X150394Y155767D02*
X149543Y155598D01*
X148821Y155116D01*
X148339Y154394D01*
X148170Y153543D01*
X148339Y152692D01*
X148821Y151971D01*
X149543Y151489D01*
X150394Y151320D01*
X151245Y151489D01*
X151966Y151971D01*
X152448Y152692D01*
X152618Y153543D01*
X152448Y154394D01*
X151966Y155116D01*
X151245Y155598D01*
X150394Y155767D01*
D02*
G37*
G36*
X565016Y159661D02*
X555929D01*
Y150575D01*
X565016D01*
Y159661D01*
D02*
G37*
G36*
X28071Y157150D02*
X26628Y156960D01*
X25283Y156403D01*
X24129Y155517D01*
X23243Y154362D01*
X22686Y153018D01*
X22496Y151575D01*
X22686Y150132D01*
X23243Y148787D01*
X24129Y147633D01*
X25283Y146747D01*
X26628Y146189D01*
X28071Y146000D01*
X29514Y146189D01*
X30858Y146747D01*
X32013Y147633D01*
X32899Y148787D01*
X33456Y150132D01*
X33646Y151575D01*
X33456Y153018D01*
X32899Y154362D01*
X32013Y155517D01*
X30858Y156403D01*
X29514Y156960D01*
X28071Y157150D01*
D02*
G37*
G36*
X153943Y144738D02*
X153092Y144569D01*
X152370Y144087D01*
X151888Y143365D01*
X151719Y142514D01*
X151888Y141663D01*
X152370Y140942D01*
X153092Y140460D01*
X153943Y140290D01*
X154794Y140460D01*
X155515Y140942D01*
X155997Y141663D01*
X156167Y142514D01*
X155997Y143365D01*
X155515Y144087D01*
X154794Y144569D01*
X153943Y144738D01*
D02*
G37*
G36*
X575984Y147890D02*
X574798Y147733D01*
X573693Y147276D01*
X572744Y146547D01*
X572016Y145598D01*
X571558Y144493D01*
X571402Y143307D01*
X571558Y142121D01*
X572016Y141016D01*
X572744Y140067D01*
X573693Y139339D01*
X574798Y138881D01*
X575984Y138725D01*
X577170Y138881D01*
X578275Y139339D01*
X579225Y140067D01*
X579953Y141016D01*
X580411Y142121D01*
X580567Y143307D01*
X580411Y144493D01*
X579953Y145598D01*
X579225Y146547D01*
X578275Y147276D01*
X577170Y147733D01*
X575984Y147890D01*
D02*
G37*
G36*
X528346Y141988D02*
X527495Y141818D01*
X526774Y141336D01*
X526292Y140615D01*
X526123Y139764D01*
X526292Y138913D01*
X526774Y138191D01*
X527495Y137709D01*
X528346Y137540D01*
X529198Y137709D01*
X529919Y138191D01*
X530401Y138913D01*
X530570Y139764D01*
X530401Y140615D01*
X529919Y141336D01*
X529198Y141818D01*
X528346Y141988D01*
D02*
G37*
G36*
X449606Y141200D02*
X448755Y141031D01*
X448034Y140549D01*
X447552Y139827D01*
X447382Y138976D01*
X447552Y138125D01*
X448034Y137404D01*
X448755Y136922D01*
X449606Y136752D01*
X450457Y136922D01*
X451179Y137404D01*
X451661Y138125D01*
X451830Y138976D01*
X451661Y139827D01*
X451179Y140549D01*
X450457Y141031D01*
X449606Y141200D01*
D02*
G37*
G36*
X403937D02*
X403086Y141031D01*
X402364Y140549D01*
X401883Y139827D01*
X401713Y138976D01*
X401883Y138125D01*
X402364Y137404D01*
X403086Y136922D01*
X403937Y136752D01*
X404788Y136922D01*
X405510Y137404D01*
X405992Y138125D01*
X406161Y138976D01*
X405992Y139827D01*
X405510Y140549D01*
X404788Y141031D01*
X403937Y141200D01*
D02*
G37*
G36*
X358268D02*
X357417Y141031D01*
X356695Y140549D01*
X356213Y139827D01*
X356044Y138976D01*
X356213Y138125D01*
X356695Y137404D01*
X357417Y136922D01*
X358268Y136752D01*
X359119Y136922D01*
X359840Y137404D01*
X360322Y138125D01*
X360492Y138976D01*
X360322Y139827D01*
X359840Y140549D01*
X359119Y141031D01*
X358268Y141200D01*
D02*
G37*
G36*
X454724Y138444D02*
X453873Y138275D01*
X453152Y137793D01*
X452670Y137072D01*
X452501Y136221D01*
X452670Y135370D01*
X453152Y134648D01*
X453873Y134166D01*
X454724Y133997D01*
X455575Y134166D01*
X456297Y134648D01*
X456779Y135370D01*
X456948Y136221D01*
X456779Y137072D01*
X456297Y137793D01*
X455575Y138275D01*
X454724Y138444D01*
D02*
G37*
G36*
X409055D02*
X408204Y138275D01*
X407483Y137793D01*
X407001Y137072D01*
X406831Y136221D01*
X407001Y135370D01*
X407483Y134648D01*
X408204Y134166D01*
X409055Y133997D01*
X409906Y134166D01*
X410628Y134648D01*
X411110Y135370D01*
X411279Y136221D01*
X411110Y137072D01*
X410628Y137793D01*
X409906Y138275D01*
X409055Y138444D01*
D02*
G37*
G36*
X363386D02*
X362535Y138275D01*
X361813Y137793D01*
X361331Y137072D01*
X361162Y136221D01*
X361331Y135370D01*
X361813Y134648D01*
X362535Y134166D01*
X363386Y133997D01*
X364237Y134166D01*
X364958Y134648D01*
X365440Y135370D01*
X365610Y136221D01*
X365440Y137072D01*
X364958Y137793D01*
X364237Y138275D01*
X363386Y138444D01*
D02*
G37*
G36*
X474754Y134950D02*
X473903Y134781D01*
X473181Y134299D01*
X472699Y133577D01*
X472530Y132726D01*
X472699Y131875D01*
X473181Y131154D01*
X473903Y130672D01*
X474754Y130502D01*
X475605Y130672D01*
X476326Y131154D01*
X476809Y131875D01*
X476978Y132726D01*
X476809Y133577D01*
X476326Y134299D01*
X475605Y134781D01*
X474754Y134950D01*
D02*
G37*
G36*
X429134Y134507D02*
X428283Y134338D01*
X427561Y133856D01*
X427079Y133134D01*
X426910Y132283D01*
X427079Y131432D01*
X427561Y130711D01*
X428283Y130229D01*
X429134Y130060D01*
X429985Y130229D01*
X430706Y130711D01*
X431188Y131432D01*
X431358Y132283D01*
X431188Y133134D01*
X430706Y133856D01*
X429985Y134338D01*
X429134Y134507D01*
D02*
G37*
G36*
X383071D02*
X382220Y134338D01*
X381498Y133856D01*
X381016Y133134D01*
X380847Y132283D01*
X381016Y131432D01*
X381498Y130711D01*
X382220Y130229D01*
X383071Y130060D01*
X383922Y130229D01*
X384643Y130711D01*
X385125Y131432D01*
X385295Y132283D01*
X385125Y133134D01*
X384643Y133856D01*
X383922Y134338D01*
X383071Y134507D01*
D02*
G37*
G36*
X373228D02*
X372377Y134338D01*
X371656Y133856D01*
X371174Y133134D01*
X371005Y132283D01*
X371174Y131432D01*
X371656Y130711D01*
X372377Y130229D01*
X373228Y130060D01*
X374079Y130229D01*
X374801Y130711D01*
X375283Y131432D01*
X375452Y132283D01*
X375283Y133134D01*
X374801Y133856D01*
X374079Y134338D01*
X373228Y134507D01*
D02*
G37*
G36*
X299606Y131751D02*
X298755Y131582D01*
X298034Y131100D01*
X297552Y130379D01*
X297382Y129528D01*
X297552Y128676D01*
X298034Y127955D01*
X298755Y127473D01*
X299606Y127304D01*
X300457Y127473D01*
X301179Y127955D01*
X301661Y128676D01*
X301830Y129528D01*
X301661Y130379D01*
X301179Y131100D01*
X300457Y131582D01*
X299606Y131751D01*
D02*
G37*
G36*
X393218Y131269D02*
X392368Y131100D01*
X391646Y130618D01*
X391164Y129896D01*
X390995Y129045D01*
X391164Y128194D01*
X391646Y127473D01*
X392368Y126991D01*
X393218Y126821D01*
X394070Y126991D01*
X394791Y127473D01*
X395273Y128194D01*
X395442Y129045D01*
X395273Y129896D01*
X394791Y130618D01*
X394070Y131100D01*
X393218Y131269D01*
D02*
G37*
G36*
X571260Y130964D02*
X570409Y130795D01*
X569687Y130313D01*
X569205Y129591D01*
X569036Y128740D01*
X569205Y127889D01*
X569687Y127168D01*
X570409Y126686D01*
X571260Y126516D01*
X572111Y126686D01*
X572832Y127168D01*
X573314Y127889D01*
X573484Y128740D01*
X573314Y129591D01*
X572832Y130313D01*
X572111Y130795D01*
X571260Y130964D01*
D02*
G37*
G36*
X544882D02*
X544031Y130795D01*
X543309Y130313D01*
X542827Y129591D01*
X542658Y128740D01*
X542827Y127889D01*
X543309Y127168D01*
X544031Y126686D01*
X544882Y126516D01*
X545733Y126686D01*
X546454Y127168D01*
X546936Y127889D01*
X547106Y128740D01*
X546936Y129591D01*
X546454Y130313D01*
X545733Y130795D01*
X544882Y130964D01*
D02*
G37*
G36*
X441732Y193956D02*
X440881Y193787D01*
X440160Y193305D01*
X439678Y192583D01*
X439508Y191732D01*
X439678Y190881D01*
X440160Y190160D01*
X440203Y190131D01*
Y130341D01*
X440160Y130313D01*
X439678Y129591D01*
X439508Y128740D01*
X439678Y127889D01*
X440160Y127168D01*
X440881Y126686D01*
X441732Y126516D01*
X442583Y126686D01*
X443305Y127168D01*
X443787Y127889D01*
X443956Y128740D01*
X443787Y129591D01*
X443305Y130313D01*
X443262Y130341D01*
Y190131D01*
X443305Y190160D01*
X443787Y190881D01*
X443956Y191732D01*
X443787Y192583D01*
X443305Y193305D01*
X442583Y193787D01*
X441732Y193956D01*
D02*
G37*
G36*
X25591Y132138D02*
X24507Y131996D01*
X23498Y131577D01*
X22631Y130912D01*
X21966Y130045D01*
X21548Y129036D01*
X21405Y127953D01*
X21548Y126869D01*
X21966Y125860D01*
X22631Y124993D01*
X23498Y124328D01*
X24507Y123910D01*
X25591Y123767D01*
X26674Y123910D01*
X27683Y124328D01*
X28550Y124993D01*
X29215Y125860D01*
X29633Y126869D01*
X29776Y127953D01*
X29633Y129036D01*
X29215Y130045D01*
X28550Y130912D01*
X27683Y131577D01*
X26674Y131996D01*
X25591Y132138D01*
D02*
G37*
G36*
X127441Y131934D02*
X126280Y131820D01*
X125164Y131481D01*
X124135Y130931D01*
X123234Y130192D01*
X122494Y129290D01*
X121944Y128261D01*
X121605Y127145D01*
X121491Y125984D01*
X121605Y124823D01*
X121944Y123707D01*
X122494Y122679D01*
X123234Y121777D01*
X124135Y121037D01*
X125164Y120487D01*
X126280Y120149D01*
X127441Y120034D01*
X128602Y120149D01*
X129718Y120487D01*
X130746Y121037D01*
X131648Y121777D01*
X132388Y122679D01*
X132938Y123707D01*
X133276Y124823D01*
X133391Y125984D01*
X133276Y127145D01*
X132938Y128261D01*
X132388Y129290D01*
X131648Y130192D01*
X130746Y130931D01*
X129718Y131481D01*
X128602Y131820D01*
X127441Y131934D01*
D02*
G37*
G36*
X74410D02*
X73249Y131820D01*
X72132Y131481D01*
X71104Y130931D01*
X70202Y130192D01*
X69462Y129290D01*
X68913Y128261D01*
X68574Y127145D01*
X68459Y125984D01*
X68574Y124823D01*
X68913Y123707D01*
X69462Y122679D01*
X70202Y121777D01*
X71104Y121037D01*
X72132Y120487D01*
X73249Y120149D01*
X74410Y120034D01*
X75570Y120149D01*
X76686Y120487D01*
X77715Y121037D01*
X78617Y121777D01*
X79357Y122679D01*
X79906Y123707D01*
X80245Y124823D01*
X80359Y125984D01*
X80245Y127145D01*
X79906Y128261D01*
X79357Y129290D01*
X78617Y130192D01*
X77715Y130931D01*
X76686Y131481D01*
X75570Y131820D01*
X74410Y131934D01*
D02*
G37*
G36*
X438976Y120728D02*
X438125Y120559D01*
X437404Y120076D01*
X436922Y119355D01*
X436753Y118504D01*
X436922Y117653D01*
X437404Y116931D01*
X438125Y116449D01*
X438976Y116280D01*
X439827Y116449D01*
X440549Y116931D01*
X441031Y117653D01*
X441200Y118504D01*
X441031Y119355D01*
X440549Y120076D01*
X439827Y120559D01*
X438976Y120728D01*
D02*
G37*
G36*
X25591Y118359D02*
X24507Y118216D01*
X23498Y117798D01*
X22631Y117133D01*
X21966Y116266D01*
X21548Y115257D01*
X21405Y114173D01*
X21548Y113090D01*
X21966Y112081D01*
X22631Y111214D01*
X23498Y110549D01*
X24507Y110130D01*
X25591Y109988D01*
X26674Y110130D01*
X27683Y110549D01*
X28550Y111214D01*
X29215Y112081D01*
X29633Y113090D01*
X29776Y114173D01*
X29633Y115257D01*
X29215Y116266D01*
X28550Y117133D01*
X27683Y117798D01*
X26674Y118216D01*
X25591Y118359D01*
D02*
G37*
G36*
X127441Y118548D02*
X126280Y118434D01*
X125164Y118095D01*
X124135Y117546D01*
X123234Y116806D01*
X122494Y115904D01*
X121944Y114875D01*
X121605Y113759D01*
X121491Y112598D01*
X121605Y111438D01*
X121944Y110321D01*
X122494Y109293D01*
X123234Y108391D01*
X124135Y107651D01*
X125164Y107101D01*
X126280Y106763D01*
X127441Y106649D01*
X128602Y106763D01*
X129718Y107101D01*
X130746Y107651D01*
X131648Y108391D01*
X132388Y109293D01*
X132938Y110321D01*
X133276Y111438D01*
X133391Y112598D01*
X133276Y113759D01*
X132938Y114875D01*
X132388Y115904D01*
X131648Y116806D01*
X130746Y117546D01*
X129718Y118095D01*
X128602Y118434D01*
X127441Y118548D01*
D02*
G37*
G36*
X74410D02*
X73249Y118434D01*
X72132Y118095D01*
X71104Y117546D01*
X70202Y116806D01*
X69462Y115904D01*
X68913Y114875D01*
X68574Y113759D01*
X68459Y112598D01*
X68574Y111438D01*
X68913Y110321D01*
X69462Y109293D01*
X70202Y108391D01*
X71104Y107651D01*
X72132Y107101D01*
X73249Y106763D01*
X74410Y106649D01*
X75570Y106763D01*
X76686Y107101D01*
X77715Y107651D01*
X78617Y108391D01*
X79357Y109293D01*
X79906Y110321D01*
X80245Y111438D01*
X80359Y112598D01*
X80245Y113759D01*
X79906Y114875D01*
X79357Y115904D01*
X78617Y116806D01*
X77715Y117546D01*
X76686Y118095D01*
X75570Y118434D01*
X74410Y118548D01*
D02*
G37*
G36*
X504331Y110492D02*
X503480Y110322D01*
X502758Y109840D01*
X502276Y109119D01*
X502107Y108268D01*
X502276Y107417D01*
X502758Y106695D01*
X503480Y106213D01*
X504331Y106044D01*
X505182Y106213D01*
X505903Y106695D01*
X506385Y107417D01*
X506555Y108268D01*
X506385Y109119D01*
X505903Y109840D01*
X505182Y110322D01*
X504331Y110492D01*
D02*
G37*
G36*
X495276D02*
X494425Y110322D01*
X493703Y109840D01*
X493221Y109119D01*
X493052Y108268D01*
X493221Y107417D01*
X493703Y106695D01*
X494425Y106213D01*
X495276Y106044D01*
X496127Y106213D01*
X496848Y106695D01*
X497330Y107417D01*
X497499Y108268D01*
X497330Y109119D01*
X496848Y109840D01*
X496127Y110322D01*
X495276Y110492D01*
D02*
G37*
G36*
X581496Y113826D02*
X580258Y113704D01*
X579068Y113343D01*
X577971Y112756D01*
X577009Y111967D01*
X576220Y111006D01*
X575634Y109909D01*
X575273Y108718D01*
X575151Y107480D01*
X575273Y106242D01*
X575634Y105052D01*
X576220Y103955D01*
X577009Y102993D01*
X577971Y102204D01*
X579068Y101618D01*
X580258Y101257D01*
X581496Y101135D01*
X582734Y101257D01*
X583924Y101618D01*
X585021Y102204D01*
X585983Y102993D01*
X586772Y103955D01*
X587359Y105052D01*
X587720Y106242D01*
X587842Y107480D01*
X587720Y108718D01*
X587359Y109909D01*
X586772Y111006D01*
X585983Y111967D01*
X585021Y112756D01*
X583924Y113343D01*
X582734Y113704D01*
X581496Y113826D01*
D02*
G37*
G36*
X463386D02*
X462148Y113704D01*
X460957Y113343D01*
X459861Y112756D01*
X458899Y111967D01*
X458110Y111006D01*
X457523Y109909D01*
X457162Y108718D01*
X457040Y107480D01*
X457162Y106242D01*
X457523Y105052D01*
X458110Y103955D01*
X458899Y102993D01*
X459861Y102204D01*
X460957Y101618D01*
X462148Y101257D01*
X463386Y101135D01*
X464624Y101257D01*
X465814Y101618D01*
X466911Y102204D01*
X467873Y102993D01*
X468662Y103955D01*
X469248Y105052D01*
X469609Y106242D01*
X469731Y107480D01*
X469609Y108718D01*
X469248Y109909D01*
X468662Y111006D01*
X467873Y111967D01*
X466911Y112756D01*
X465814Y113343D01*
X464624Y113704D01*
X463386Y113826D01*
D02*
G37*
G36*
X420472Y105373D02*
X419621Y105204D01*
X418900Y104722D01*
X418418Y104001D01*
X418249Y103150D01*
X418418Y102299D01*
X418900Y101577D01*
X419621Y101095D01*
X420472Y100926D01*
X421323Y101095D01*
X422045Y101577D01*
X422527Y102299D01*
X422696Y103150D01*
X422527Y104001D01*
X422045Y104722D01*
X421323Y105204D01*
X420472Y105373D01*
D02*
G37*
G36*
X430709Y103011D02*
X429858Y102842D01*
X429136Y102360D01*
X428654Y101638D01*
X428485Y100787D01*
X428654Y99936D01*
X429136Y99215D01*
X429858Y98733D01*
X430709Y98564D01*
X431560Y98733D01*
X432281Y99215D01*
X432763Y99936D01*
X432933Y100787D01*
X432763Y101638D01*
X432281Y102360D01*
X431560Y102842D01*
X430709Y103011D01*
D02*
G37*
G36*
X370472Y102618D02*
X369621Y102448D01*
X368900Y101966D01*
X368418Y101245D01*
X368249Y100394D01*
X368418Y99543D01*
X368900Y98821D01*
X369621Y98339D01*
X370472Y98170D01*
X371323Y98339D01*
X372045Y98821D01*
X372527Y99543D01*
X372696Y100394D01*
X372527Y101245D01*
X372045Y101966D01*
X371323Y102448D01*
X370472Y102618D01*
D02*
G37*
G36*
X380315Y102224D02*
X379464Y102055D01*
X378743Y101573D01*
X378260Y100851D01*
X378091Y100000D01*
X378260Y99149D01*
X378743Y98427D01*
X379464Y97945D01*
X380315Y97776D01*
X381166Y97945D01*
X381887Y98427D01*
X382369Y99149D01*
X382539Y100000D01*
X382369Y100851D01*
X381887Y101573D01*
X381166Y102055D01*
X380315Y102224D01*
D02*
G37*
G36*
X25591Y104579D02*
X24507Y104437D01*
X23498Y104018D01*
X22631Y103353D01*
X21966Y102486D01*
X21548Y101477D01*
X21405Y100394D01*
X21548Y99310D01*
X21966Y98301D01*
X22631Y97434D01*
X23498Y96769D01*
X24507Y96351D01*
X25591Y96208D01*
X26674Y96351D01*
X27683Y96769D01*
X28550Y97434D01*
X29215Y98301D01*
X29633Y99310D01*
X29776Y100394D01*
X29633Y101477D01*
X29215Y102486D01*
X28550Y103353D01*
X27683Y104018D01*
X26674Y104437D01*
X25591Y104579D01*
D02*
G37*
G36*
X360236Y105373D02*
X359385Y105204D01*
X358664Y104722D01*
X358182Y104001D01*
X358012Y103150D01*
X358182Y102299D01*
X358664Y101577D01*
X358707Y101548D01*
Y41759D01*
X358664Y41730D01*
X358182Y41008D01*
X358012Y40157D01*
X358182Y39307D01*
X358664Y38585D01*
X359385Y38103D01*
X360236Y37934D01*
X361087Y38103D01*
X361809Y38585D01*
X362291Y39307D01*
X362460Y40157D01*
X362291Y41008D01*
X361809Y41730D01*
X361766Y41759D01*
Y96021D01*
X362266Y96173D01*
X362601Y95672D01*
X363322Y95189D01*
X364173Y95020D01*
X365024Y95189D01*
X365746Y95672D01*
X366228Y96393D01*
X366397Y97244D01*
X366228Y98095D01*
X365746Y98817D01*
X365024Y99299D01*
X364173Y99468D01*
X363322Y99299D01*
X362601Y98817D01*
X362266Y98315D01*
X361766Y98467D01*
Y101548D01*
X361809Y101577D01*
X362291Y102299D01*
X362460Y103150D01*
X362291Y104001D01*
X361809Y104722D01*
X361087Y105204D01*
X360236Y105373D01*
D02*
G37*
G36*
X440158Y99074D02*
X439306Y98905D01*
X438585Y98423D01*
X438103Y97701D01*
X437934Y96850D01*
X438103Y95999D01*
X438585Y95278D01*
X439306Y94796D01*
X440158Y94627D01*
X441009Y94796D01*
X441730Y95278D01*
X442212Y95999D01*
X442381Y96850D01*
X442212Y97701D01*
X441730Y98423D01*
X441009Y98905D01*
X440158Y99074D01*
D02*
G37*
G36*
X420472Y97106D02*
X419621Y96936D01*
X418900Y96454D01*
X418418Y95733D01*
X418249Y94882D01*
X418418Y94031D01*
X418900Y93309D01*
X419621Y92827D01*
X420472Y92658D01*
X421323Y92827D01*
X422045Y93309D01*
X422527Y94031D01*
X422696Y94882D01*
X422527Y95733D01*
X422045Y96454D01*
X421323Y96936D01*
X420472Y97106D01*
D02*
G37*
G36*
X409055Y91594D02*
X408204Y91425D01*
X407483Y90943D01*
X407454Y90899D01*
X403176D01*
X403147Y90943D01*
X402426Y91425D01*
X401575Y91594D01*
X400724Y91425D01*
X400002Y90943D01*
X399520Y90221D01*
X399351Y89370D01*
X399520Y88519D01*
X400002Y87798D01*
X400724Y87315D01*
X401575Y87146D01*
X402426Y87315D01*
X403147Y87798D01*
X403176Y87841D01*
X407454D01*
X407483Y87798D01*
X408204Y87315D01*
X409055Y87146D01*
X409906Y87315D01*
X410628Y87798D01*
X411110Y88519D01*
X411279Y89370D01*
X411110Y90221D01*
X410628Y90943D01*
X409906Y91425D01*
X409055Y91594D01*
D02*
G37*
G36*
X453150Y95137D02*
X452299Y94968D01*
X451577Y94486D01*
X451095Y93764D01*
X450926Y92913D01*
X451095Y92062D01*
X451577Y91341D01*
X452299Y90859D01*
X453150Y90690D01*
X454001Y90859D01*
X454722Y91341D01*
X455204Y92062D01*
X455373Y92913D01*
X455204Y93764D01*
X454722Y94486D01*
X454001Y94968D01*
X453150Y95137D01*
D02*
G37*
G36*
X374803Y92775D02*
X373952Y92606D01*
X373231Y92124D01*
X372749Y91402D01*
X372579Y90551D01*
X372749Y89700D01*
X373231Y88979D01*
X373952Y88497D01*
X374803Y88327D01*
X375654Y88497D01*
X376376Y88979D01*
X376858Y89700D01*
X377027Y90551D01*
X376858Y91402D01*
X376376Y92124D01*
X375654Y92606D01*
X374803Y92775D01*
D02*
G37*
G36*
X469291Y88448D02*
X468364Y88264D01*
X467577Y87738D01*
X467051Y86952D01*
X466867Y86024D01*
X467051Y85096D01*
X467443Y84510D01*
X467194Y84010D01*
X461969D01*
X461809Y84250D01*
X461087Y84732D01*
X460236Y84901D01*
X459385Y84732D01*
X458664Y84250D01*
X458182Y83528D01*
X458012Y82677D01*
X458182Y81826D01*
X458664Y81105D01*
X459385Y80623D01*
X460236Y80453D01*
X461087Y80623D01*
X461579Y80951D01*
X472283D01*
X472443Y80711D01*
X473165Y80229D01*
X474016Y80060D01*
X474867Y80229D01*
X475588Y80711D01*
X476070Y81432D01*
X476240Y82284D01*
X476070Y83135D01*
X475588Y83856D01*
X474867Y84338D01*
X474016Y84507D01*
X473165Y84338D01*
X472673Y84010D01*
X471389D01*
X471140Y84510D01*
X471531Y85096D01*
X471716Y86024D01*
X471531Y86952D01*
X471006Y87738D01*
X470219Y88264D01*
X469291Y88448D01*
D02*
G37*
G36*
X366535Y87657D02*
X365684Y87488D01*
X364963Y87006D01*
X364481Y86284D01*
X364312Y85433D01*
X364481Y84582D01*
X364963Y83861D01*
X365684Y83378D01*
X366535Y83209D01*
X367387Y83378D01*
X368108Y83861D01*
X368590Y84582D01*
X368759Y85433D01*
X368590Y86284D01*
X368108Y87006D01*
X367387Y87488D01*
X366535Y87657D01*
D02*
G37*
G36*
X345276Y82933D02*
X344425Y82763D01*
X343703Y82281D01*
X343221Y81560D01*
X343052Y80709D01*
X343221Y79858D01*
X343703Y79136D01*
X344425Y78654D01*
X345276Y78485D01*
X346127Y78654D01*
X346848Y79136D01*
X347330Y79858D01*
X347499Y80709D01*
X347330Y81560D01*
X346848Y82281D01*
X346127Y82763D01*
X345276Y82933D01*
D02*
G37*
G36*
X225984D02*
X225133Y82763D01*
X224412Y82281D01*
X223930Y81560D01*
X223760Y80709D01*
X223930Y79858D01*
X224412Y79136D01*
X225133Y78654D01*
X225984Y78485D01*
X226835Y78654D01*
X227557Y79136D01*
X228039Y79858D01*
X228208Y80709D01*
X228039Y81560D01*
X227557Y82281D01*
X226835Y82763D01*
X225984Y82933D01*
D02*
G37*
G36*
X524803Y82145D02*
X523952Y81976D01*
X523231Y81494D01*
X522749Y80772D01*
X522579Y79921D01*
X522749Y79070D01*
X523231Y78349D01*
X523952Y77867D01*
X524803Y77697D01*
X525654Y77867D01*
X526376Y78349D01*
X526858Y79070D01*
X527027Y79921D01*
X526858Y80772D01*
X526376Y81494D01*
X525654Y81976D01*
X524803Y82145D01*
D02*
G37*
G36*
X513779Y86476D02*
X512928Y86307D01*
X512207Y85825D01*
X511725Y85103D01*
X511556Y84252D01*
X511725Y83401D01*
X512207Y82679D01*
X512644Y82387D01*
Y81786D01*
X512207Y81494D01*
X511725Y80772D01*
X511556Y79921D01*
X511725Y79070D01*
X512207Y78349D01*
X512928Y77867D01*
X513779Y77697D01*
X514631Y77867D01*
X515352Y78349D01*
X515834Y79070D01*
X516003Y79921D01*
X515834Y80772D01*
X515352Y81494D01*
X514915Y81786D01*
Y82387D01*
X515352Y82679D01*
X515834Y83401D01*
X516003Y84252D01*
X515834Y85103D01*
X515352Y85825D01*
X514631Y86307D01*
X513779Y86476D01*
D02*
G37*
G36*
X521654Y77027D02*
X520802Y76858D01*
X520081Y76376D01*
X519599Y75654D01*
X519430Y74803D01*
X519599Y73952D01*
X520081Y73231D01*
X520802Y72749D01*
X521654Y72579D01*
X522505Y72749D01*
X523226Y73231D01*
X523708Y73952D01*
X523877Y74803D01*
X523708Y75654D01*
X523226Y76376D01*
X522505Y76858D01*
X521654Y77027D01*
D02*
G37*
G36*
X339370Y76633D02*
X338519Y76464D01*
X337798Y75982D01*
X337316Y75261D01*
X337146Y74410D01*
X337316Y73558D01*
X337798Y72837D01*
X338519Y72355D01*
X339370Y72186D01*
X340221Y72355D01*
X340943Y72837D01*
X341425Y73558D01*
X341594Y74410D01*
X341425Y75261D01*
X340943Y75982D01*
X340221Y76464D01*
X339370Y76633D01*
D02*
G37*
G36*
X248819Y154169D02*
X233858D01*
X233468Y154092D01*
X233137Y153871D01*
X232916Y153540D01*
X232839Y153150D01*
Y104331D01*
X232916Y103940D01*
X233137Y103610D01*
X233468Y103389D01*
X233858Y103311D01*
X240597D01*
Y75617D01*
X240553Y75588D01*
X240071Y74867D01*
X239902Y74016D01*
X240071Y73165D01*
X240553Y72443D01*
X241275Y71961D01*
X242126Y71792D01*
X242977Y71961D01*
X243699Y72443D01*
X244180Y73165D01*
X244350Y74016D01*
X244180Y74867D01*
X243699Y75588D01*
X243655Y75617D01*
Y103311D01*
X248819D01*
X249209Y103389D01*
X249540Y103610D01*
X249761Y103940D01*
X249838Y104331D01*
Y153150D01*
X249761Y153540D01*
X249540Y153871D01*
X249209Y154092D01*
X248819Y154169D01*
D02*
G37*
G36*
X29740Y90764D02*
X21441D01*
Y82465D01*
X26064D01*
X26164Y81965D01*
X25283Y81600D01*
X24129Y80714D01*
X23243Y79559D01*
X22686Y78215D01*
X22496Y76772D01*
X22686Y75329D01*
X23243Y73984D01*
X24129Y72829D01*
X25283Y71943D01*
X26628Y71386D01*
X28071Y71196D01*
X29514Y71386D01*
X30858Y71943D01*
X32013Y72829D01*
X32899Y73984D01*
X33456Y75329D01*
X33646Y76772D01*
X33456Y78215D01*
X32899Y79559D01*
X32013Y80714D01*
X30858Y81600D01*
X29859Y82014D01*
X29740Y82465D01*
X29740Y82604D01*
Y90764D01*
D02*
G37*
G36*
X385039Y73727D02*
X384188Y73558D01*
X383467Y73075D01*
X382985Y72354D01*
X382816Y71503D01*
X382985Y70652D01*
X383467Y69930D01*
X384188Y69448D01*
X385039Y69279D01*
X385890Y69448D01*
X386612Y69930D01*
X387094Y70652D01*
X387263Y71503D01*
X387094Y72354D01*
X386612Y73075D01*
X385890Y73558D01*
X385039Y73727D01*
D02*
G37*
G36*
X374803D02*
X373952Y73558D01*
X373231Y73075D01*
X372749Y72354D01*
X372579Y71503D01*
X372749Y70652D01*
X373231Y69930D01*
X373952Y69448D01*
X374803Y69279D01*
X375654Y69448D01*
X376376Y69930D01*
X376858Y70652D01*
X377027Y71503D01*
X376858Y72354D01*
X376376Y73075D01*
X375654Y73558D01*
X374803Y73727D01*
D02*
G37*
G36*
X210236Y73484D02*
X209385Y73314D01*
X208664Y72832D01*
X208182Y72111D01*
X208012Y71260D01*
X208182Y70409D01*
X208664Y69687D01*
X209385Y69205D01*
X210236Y69036D01*
X211087Y69205D01*
X211809Y69687D01*
X212291Y70409D01*
X212460Y71260D01*
X212291Y72111D01*
X211809Y72832D01*
X211087Y73314D01*
X210236Y73484D01*
D02*
G37*
G36*
X519290Y71121D02*
X518439Y70952D01*
X517718Y70470D01*
X517236Y69749D01*
X517066Y68897D01*
X517236Y68046D01*
X517718Y67325D01*
X518439Y66843D01*
X519290Y66674D01*
X520141Y66843D01*
X520863Y67325D01*
X521345Y68046D01*
X521514Y68897D01*
X521345Y69749D01*
X520863Y70470D01*
X520141Y70952D01*
X519290Y71121D01*
D02*
G37*
G36*
X476771Y78602D02*
X475920Y78432D01*
X475198Y77950D01*
X474716Y77229D01*
X474547Y76378D01*
X474716Y75527D01*
X475198Y74805D01*
X475635Y74513D01*
Y73912D01*
X475198Y73620D01*
X474716Y72898D01*
X474547Y72047D01*
X474716Y71196D01*
X475198Y70475D01*
X475417Y70328D01*
Y69828D01*
X475199Y69683D01*
X474717Y68961D01*
X474548Y68110D01*
X474717Y67259D01*
X475199Y66538D01*
X475921Y66056D01*
X476772Y65886D01*
X477623Y66056D01*
X478344Y66538D01*
X478826Y67259D01*
X478996Y68110D01*
X478826Y68961D01*
X478344Y69683D01*
X478125Y69829D01*
Y70329D01*
X478343Y70475D01*
X478825Y71196D01*
X478995Y72047D01*
X478825Y72898D01*
X478343Y73620D01*
X477906Y73912D01*
Y74513D01*
X478343Y74805D01*
X478825Y75527D01*
X478995Y76378D01*
X478825Y77229D01*
X478343Y77950D01*
X477622Y78432D01*
X476771Y78602D01*
D02*
G37*
G36*
X453150Y70334D02*
X452299Y70165D01*
X451577Y69683D01*
X451095Y68961D01*
X450926Y68110D01*
X451095Y67259D01*
X451577Y66538D01*
X452299Y66056D01*
X453150Y65886D01*
X454001Y66056D01*
X454722Y66538D01*
X455204Y67259D01*
X455373Y68110D01*
X455204Y68961D01*
X454722Y69683D01*
X454001Y70165D01*
X453150Y70334D01*
D02*
G37*
G36*
X366142Y69002D02*
X365291Y68833D01*
X364569Y68351D01*
X364087Y67630D01*
X363918Y66778D01*
X364087Y65927D01*
X364569Y65206D01*
X365291Y64724D01*
X366142Y64555D01*
X366993Y64724D01*
X367714Y65206D01*
X368196Y65927D01*
X368366Y66778D01*
X368196Y67630D01*
X367714Y68351D01*
X366993Y68833D01*
X366142Y69002D01*
D02*
G37*
G36*
X388334Y68779D02*
X387483Y68610D01*
X386762Y68128D01*
X386280Y67406D01*
X386110Y66555D01*
X386280Y65704D01*
X386762Y64983D01*
X387483Y64501D01*
X388334Y64331D01*
X389185Y64501D01*
X389907Y64983D01*
X390389Y65704D01*
X390558Y66555D01*
X390389Y67406D01*
X389907Y68128D01*
X389185Y68610D01*
X388334Y68779D01*
D02*
G37*
G36*
X406299Y66791D02*
X405448Y66622D01*
X404727Y66139D01*
X404245Y65418D01*
X404075Y64567D01*
X404245Y63716D01*
X404727Y62994D01*
X405448Y62512D01*
X406299Y62343D01*
X407150Y62512D01*
X407872Y62994D01*
X408354Y63716D01*
X408523Y64567D01*
X408354Y65418D01*
X407872Y66139D01*
X407150Y66622D01*
X406299Y66791D01*
D02*
G37*
G36*
X424016Y80570D02*
X423165Y80401D01*
X422443Y79919D01*
X421961Y79198D01*
X421792Y78347D01*
X421961Y77495D01*
X422400Y76838D01*
X422442Y76376D01*
X421960Y75654D01*
X421791Y74803D01*
X421960Y73952D01*
X422061Y73801D01*
X421846Y73223D01*
X421261Y72832D01*
X420779Y72111D01*
X420610Y71260D01*
X420779Y70409D01*
X421168Y69828D01*
X421227Y69488D01*
X421168Y69148D01*
X420779Y68567D01*
X420610Y67716D01*
X420779Y66865D01*
X421261Y66144D01*
X421924Y65701D01*
X422062Y65175D01*
X421961Y65024D01*
X421792Y64173D01*
X421961Y63322D01*
X422443Y62601D01*
X423165Y62119D01*
X424016Y61949D01*
X424867Y62119D01*
X425588Y62601D01*
X426070Y63322D01*
X426240Y64173D01*
X426070Y65024D01*
X425588Y65746D01*
X424926Y66189D01*
X424788Y66715D01*
X424888Y66865D01*
X425058Y67716D01*
X424888Y68567D01*
X424500Y69148D01*
X424441Y69488D01*
X424500Y69828D01*
X424888Y70409D01*
X425058Y71260D01*
X424888Y72111D01*
X424787Y72262D01*
X425003Y72840D01*
X425587Y73230D01*
X426069Y73952D01*
X426239Y74803D01*
X426069Y75654D01*
X425631Y76311D01*
X425588Y76774D01*
X426070Y77495D01*
X426240Y78347D01*
X426070Y79198D01*
X425588Y79919D01*
X424867Y80401D01*
X424016Y80570D01*
D02*
G37*
G36*
X477534Y64429D02*
X476683Y64259D01*
X475961Y63777D01*
X475933Y63734D01*
X474555D01*
X473970Y63618D01*
X473473Y63286D01*
X457186Y46999D01*
X456855Y46503D01*
X456738Y45918D01*
Y39003D01*
X456695Y38974D01*
X456213Y38253D01*
X456044Y37402D01*
X456213Y36551D01*
X456695Y35829D01*
X457417Y35347D01*
X458268Y35178D01*
X459119Y35347D01*
X459840Y35829D01*
X460322Y36551D01*
X460492Y37402D01*
X460322Y38253D01*
X459840Y38974D01*
X459797Y39003D01*
Y45202D01*
X460190Y45543D01*
X460657Y45437D01*
X461026Y44884D01*
X461747Y44402D01*
X462598Y44233D01*
X463449Y44402D01*
X464171Y44884D01*
X464653Y45606D01*
X464822Y46457D01*
X464653Y47308D01*
X464171Y48029D01*
X463618Y48398D01*
X463488Y48975D01*
X475188Y60675D01*
X475933D01*
X475961Y60632D01*
X476683Y60150D01*
X477534Y59981D01*
X478385Y60150D01*
X479106Y60632D01*
X479589Y61354D01*
X479758Y62205D01*
X479589Y63056D01*
X479106Y63777D01*
X478385Y64259D01*
X477534Y64429D01*
D02*
G37*
G36*
X408661Y61673D02*
X407810Y61503D01*
X407089Y61021D01*
X406607Y60300D01*
X406438Y59449D01*
X406607Y58598D01*
X407089Y57876D01*
X407810Y57394D01*
X408661Y57225D01*
X409512Y57394D01*
X410234Y57876D01*
X410716Y58598D01*
X410885Y59449D01*
X410716Y60300D01*
X410234Y61021D01*
X409512Y61503D01*
X408661Y61673D01*
D02*
G37*
G36*
X502756Y62460D02*
X501905Y62291D01*
X501183Y61809D01*
X500701Y61087D01*
X500532Y60236D01*
X500701Y59385D01*
X501183Y58664D01*
X501905Y58182D01*
X502756Y58012D01*
X503082Y58077D01*
X503382Y57627D01*
X503063Y57150D01*
X502894Y56299D01*
X503063Y55448D01*
X503546Y54727D01*
X504267Y54245D01*
X505118Y54075D01*
X505969Y54245D01*
X506037Y54290D01*
X506453Y54012D01*
X506438Y53937D01*
X506607Y53086D01*
X507089Y52364D01*
X507810Y51882D01*
X508661Y51713D01*
X509512Y51882D01*
X510234Y52364D01*
X510716Y53086D01*
X510885Y53937D01*
X510716Y54788D01*
X510234Y55510D01*
X509512Y55992D01*
X508661Y56161D01*
X507810Y55992D01*
X507743Y55946D01*
X507327Y56224D01*
X507342Y56299D01*
X507173Y57150D01*
X506691Y57872D01*
X505969Y58354D01*
X505118Y58523D01*
X504792Y58458D01*
X504492Y58908D01*
X504810Y59385D01*
X504980Y60236D01*
X504810Y61087D01*
X504328Y61809D01*
X503607Y62291D01*
X502756Y62460D01*
D02*
G37*
G36*
X182677Y55373D02*
X181826Y55204D01*
X181105Y54722D01*
X180623Y54001D01*
X180453Y53150D01*
X180623Y52299D01*
X181105Y51577D01*
X181826Y51095D01*
X182677Y50926D01*
X183528Y51095D01*
X184250Y51577D01*
X184732Y52299D01*
X184901Y53150D01*
X184732Y54001D01*
X184250Y54722D01*
X183528Y55204D01*
X182677Y55373D01*
D02*
G37*
G36*
X153940Y54589D02*
X153089Y54420D01*
X152367Y53938D01*
X151885Y53216D01*
X151716Y52365D01*
X151885Y51514D01*
X152367Y50792D01*
X153089Y50310D01*
X153940Y50141D01*
X154791Y50310D01*
X155512Y50792D01*
X155994Y51514D01*
X156164Y52365D01*
X155994Y53216D01*
X155512Y53938D01*
X154791Y54420D01*
X153940Y54589D01*
D02*
G37*
G36*
X48819Y54586D02*
X47968Y54417D01*
X47246Y53935D01*
X46764Y53213D01*
X46595Y52362D01*
X46764Y51511D01*
X47246Y50790D01*
X47968Y50308D01*
X48819Y50138D01*
X49670Y50308D01*
X50391Y50790D01*
X50874Y51511D01*
X51043Y52362D01*
X50874Y53213D01*
X50391Y53935D01*
X49670Y54417D01*
X48819Y54586D01*
D02*
G37*
G36*
X5906Y54586D02*
X5054Y54417D01*
X4333Y53935D01*
X3851Y53213D01*
X3682Y52362D01*
X3851Y51511D01*
X4333Y50790D01*
X5054Y50308D01*
X5906Y50138D01*
X6757Y50308D01*
X7478Y50790D01*
X7960Y51511D01*
X8129Y52362D01*
X7960Y53213D01*
X7478Y53935D01*
X6757Y54417D01*
X5906Y54586D01*
D02*
G37*
G36*
X314173Y54192D02*
X313322Y54023D01*
X312601Y53541D01*
X312119Y52820D01*
X311949Y51968D01*
X312119Y51117D01*
X312601Y50396D01*
X313322Y49914D01*
X314173Y49745D01*
X315024Y49914D01*
X315746Y50396D01*
X316228Y51117D01*
X316397Y51968D01*
X316228Y52820D01*
X315746Y53541D01*
X315024Y54023D01*
X314173Y54192D01*
D02*
G37*
G36*
X474802Y58129D02*
X473951Y57960D01*
X473230Y57478D01*
X472748Y56756D01*
X472578Y55905D01*
X472748Y55054D01*
X473230Y54333D01*
X473951Y53851D01*
X474020Y53837D01*
Y53327D01*
X473558Y53236D01*
X472837Y52754D01*
X472355Y52032D01*
X472186Y51181D01*
X472355Y50330D01*
X472837Y49609D01*
X473558Y49126D01*
X474409Y48957D01*
X475260Y49126D01*
X475982Y49609D01*
X476464Y50330D01*
X476633Y51181D01*
X476464Y52032D01*
X475982Y52754D01*
X475260Y53236D01*
X475192Y53249D01*
Y53759D01*
X475653Y53851D01*
X476375Y54333D01*
X476857Y55054D01*
X477026Y55905D01*
X476857Y56756D01*
X476375Y57478D01*
X475653Y57960D01*
X474802Y58129D01*
D02*
G37*
G36*
X274016Y51830D02*
X273165Y51661D01*
X272443Y51179D01*
X271961Y50457D01*
X271792Y49606D01*
X271961Y48755D01*
X272443Y48034D01*
X273165Y47552D01*
X274016Y47383D01*
X274867Y47552D01*
X275588Y48034D01*
X276070Y48755D01*
X276240Y49606D01*
X276070Y50457D01*
X275588Y51179D01*
X274867Y51661D01*
X274016Y51830D01*
D02*
G37*
G36*
X264567D02*
X263716Y51661D01*
X262994Y51179D01*
X262512Y50457D01*
X262343Y49606D01*
X262512Y48755D01*
X262994Y48034D01*
X263716Y47552D01*
X264567Y47383D01*
X265418Y47552D01*
X266139Y48034D01*
X266621Y48755D01*
X266791Y49606D01*
X266621Y50457D01*
X266139Y51179D01*
X265418Y51661D01*
X264567Y51830D01*
D02*
G37*
G36*
X404331Y47499D02*
X403480Y47330D01*
X402758Y46848D01*
X402276Y46127D01*
X402107Y45276D01*
X402276Y44425D01*
X402758Y43703D01*
X403480Y43221D01*
X404331Y43052D01*
X405182Y43221D01*
X405903Y43703D01*
X406385Y44425D01*
X406555Y45276D01*
X406385Y46127D01*
X405903Y46848D01*
X405182Y47330D01*
X404331Y47499D01*
D02*
G37*
G36*
X398425Y46712D02*
X397574Y46543D01*
X396853Y46061D01*
X396371Y45339D01*
X396201Y44488D01*
X396371Y43637D01*
X396853Y42916D01*
X397574Y42434D01*
X398425Y42264D01*
X399276Y42434D01*
X399998Y42916D01*
X400480Y43637D01*
X400649Y44488D01*
X400480Y45339D01*
X399998Y46061D01*
X399276Y46543D01*
X398425Y46712D01*
D02*
G37*
G36*
X337795D02*
X336944Y46543D01*
X336223Y46061D01*
X335741Y45339D01*
X335572Y44488D01*
X335741Y43637D01*
X336223Y42916D01*
X336944Y42434D01*
X337795Y42264D01*
X338646Y42434D01*
X339368Y42916D01*
X339850Y43637D01*
X340019Y44488D01*
X339850Y45339D01*
X339368Y46061D01*
X338646Y46543D01*
X337795Y46712D01*
D02*
G37*
G36*
X261417D02*
X260566Y46543D01*
X259845Y46061D01*
X259363Y45339D01*
X259193Y44488D01*
X259363Y43637D01*
X259845Y42916D01*
X260566Y42434D01*
X261417Y42264D01*
X262268Y42434D01*
X262990Y42916D01*
X263472Y43637D01*
X263641Y44488D01*
X263472Y45339D01*
X262990Y46061D01*
X262268Y46543D01*
X261417Y46712D01*
D02*
G37*
G36*
X231890D02*
X231039Y46543D01*
X230317Y46061D01*
X229835Y45339D01*
X229666Y44488D01*
X229835Y43637D01*
X230317Y42916D01*
X231039Y42434D01*
X231890Y42264D01*
X232741Y42434D01*
X233462Y42916D01*
X233944Y43637D01*
X234114Y44488D01*
X233944Y45339D01*
X233462Y46061D01*
X232741Y46543D01*
X231890Y46712D01*
D02*
G37*
G36*
X174016D02*
X173165Y46543D01*
X172443Y46061D01*
X171961Y45339D01*
X171792Y44488D01*
X171961Y43637D01*
X172443Y42916D01*
X173165Y42434D01*
X174016Y42264D01*
X174867Y42434D01*
X175588Y42916D01*
X176070Y43637D01*
X176240Y44488D01*
X176070Y45339D01*
X175588Y46061D01*
X174867Y46543D01*
X174016Y46712D01*
D02*
G37*
G36*
X122047Y41988D02*
X121196Y41818D01*
X120475Y41336D01*
X119993Y40615D01*
X119823Y39764D01*
X119993Y38913D01*
X120475Y38191D01*
X121196Y37709D01*
X122047Y37540D01*
X122898Y37709D01*
X123620Y38191D01*
X124102Y38913D01*
X124271Y39764D01*
X124102Y40615D01*
X123620Y41336D01*
X122898Y41818D01*
X122047Y41988D01*
D02*
G37*
G36*
X515354Y41594D02*
X514503Y41425D01*
X513782Y40943D01*
X513300Y40221D01*
X513131Y39370D01*
X513300Y38519D01*
X513782Y37798D01*
X514503Y37315D01*
X515354Y37146D01*
X516205Y37315D01*
X516927Y37798D01*
X517409Y38519D01*
X517578Y39370D01*
X517409Y40221D01*
X516927Y40943D01*
X516205Y41425D01*
X515354Y41594D01*
D02*
G37*
G36*
X501968Y41200D02*
X501118Y41031D01*
X500396Y40549D01*
X499914Y39827D01*
X499745Y38976D01*
X499914Y38125D01*
X500396Y37404D01*
X501118Y36922D01*
X501968Y36753D01*
X502819Y36922D01*
X503541Y37404D01*
X504023Y38125D01*
X504192Y38976D01*
X504023Y39827D01*
X503541Y40549D01*
X502819Y41031D01*
X501968Y41200D01*
D02*
G37*
G36*
X386614Y40019D02*
X385763Y39850D01*
X385042Y39368D01*
X384560Y38646D01*
X384390Y37795D01*
X384560Y36944D01*
X385042Y36223D01*
X385763Y35741D01*
X386614Y35571D01*
X387465Y35741D01*
X388187Y36223D01*
X388669Y36944D01*
X388838Y37795D01*
X388669Y38646D01*
X388187Y39368D01*
X387465Y39850D01*
X386614Y40019D01*
D02*
G37*
G36*
X379921Y38444D02*
X379070Y38275D01*
X378349Y37793D01*
X377867Y37071D01*
X377697Y36220D01*
X377867Y35370D01*
X378349Y34648D01*
X379070Y34166D01*
X379921Y33997D01*
X380772Y34166D01*
X381494Y34648D01*
X381976Y35370D01*
X382145Y36220D01*
X381976Y37071D01*
X381494Y37793D01*
X380772Y38275D01*
X379921Y38444D01*
D02*
G37*
G36*
X353937D02*
X353086Y38275D01*
X352364Y37793D01*
X352336Y37750D01*
X335288D01*
X334702Y37633D01*
X334206Y37302D01*
X329142Y32238D01*
X294908D01*
X294880Y32281D01*
X294158Y32763D01*
X293307Y32932D01*
X292456Y32763D01*
X291735Y32281D01*
X291252Y31560D01*
X291083Y30709D01*
X291252Y29858D01*
X291735Y29136D01*
X292456Y28654D01*
X293307Y28485D01*
X294158Y28654D01*
X294880Y29136D01*
X294908Y29179D01*
X329776D01*
X330361Y29296D01*
X330857Y29627D01*
X335921Y34691D01*
X347464D01*
X347732Y34191D01*
X347552Y33922D01*
X347382Y33071D01*
X347491Y32528D01*
X347076Y32100D01*
X346850Y32145D01*
X345999Y31976D01*
X345278Y31494D01*
X344796Y30772D01*
X344627Y29921D01*
X344796Y29070D01*
X344927Y28874D01*
Y26769D01*
X344427Y26489D01*
X343701Y26633D01*
X342850Y26464D01*
X342128Y25982D01*
X341646Y25260D01*
X341477Y24409D01*
X341646Y23558D01*
X342128Y22837D01*
X342850Y22355D01*
X343701Y22186D01*
X344427Y22330D01*
X344927Y22050D01*
Y5932D01*
X344884Y5903D01*
X344402Y5182D01*
X344233Y4331D01*
X344402Y3480D01*
X344884Y2758D01*
X345606Y2276D01*
X346457Y2107D01*
X347308Y2276D01*
X348029Y2758D01*
X348511Y3480D01*
X348680Y4331D01*
X348636Y4556D01*
X349063Y4971D01*
X349606Y4863D01*
X350457Y5032D01*
X351179Y5514D01*
X351661Y6236D01*
X351830Y7087D01*
X351661Y7938D01*
X351179Y8659D01*
X351136Y8688D01*
Y31470D01*
X351179Y31498D01*
X351661Y32220D01*
X351830Y33071D01*
X351661Y33922D01*
X351481Y34191D01*
X351748Y34691D01*
X352336D01*
X352364Y34648D01*
X353086Y34166D01*
X353937Y33997D01*
X354788Y34166D01*
X355509Y34648D01*
X355992Y35370D01*
X356161Y36220D01*
X355992Y37071D01*
X355509Y37793D01*
X354788Y38275D01*
X353937Y38444D01*
D02*
G37*
G36*
X327559Y38051D02*
X326708Y37881D01*
X325987Y37399D01*
X325504Y36678D01*
X325335Y35827D01*
X325504Y34976D01*
X325987Y34254D01*
X326708Y33772D01*
X327559Y33603D01*
X328410Y33772D01*
X329132Y34254D01*
X329614Y34976D01*
X329783Y35827D01*
X329614Y36678D01*
X329132Y37399D01*
X328410Y37881D01*
X327559Y38051D01*
D02*
G37*
G36*
X412992Y36476D02*
X412141Y36307D01*
X411420Y35824D01*
X410938Y35103D01*
X410768Y34252D01*
X410938Y33401D01*
X411420Y32680D01*
X412141Y32197D01*
X412992Y32028D01*
X413843Y32197D01*
X414565Y32680D01*
X415047Y33401D01*
X415216Y34252D01*
X415047Y35103D01*
X414565Y35824D01*
X413843Y36307D01*
X412992Y36476D01*
D02*
G37*
G36*
X499213Y34901D02*
X498362Y34732D01*
X497640Y34250D01*
X497158Y33528D01*
X496989Y32677D01*
X497158Y31826D01*
X497640Y31105D01*
X498362Y30623D01*
X499213Y30453D01*
X500064Y30623D01*
X500785Y31105D01*
X501267Y31826D01*
X501436Y32677D01*
X501267Y33528D01*
X500785Y34250D01*
X500064Y34732D01*
X499213Y34901D01*
D02*
G37*
G36*
X105905D02*
X105054Y34732D01*
X104333Y34250D01*
X103851Y33528D01*
X103682Y32677D01*
X103851Y31826D01*
X104333Y31105D01*
X105054Y30623D01*
X105905Y30453D01*
X106756Y30623D01*
X107478Y31105D01*
X107960Y31826D01*
X108129Y32677D01*
X107960Y33528D01*
X107478Y34250D01*
X106756Y34732D01*
X105905Y34901D01*
D02*
G37*
G36*
X512992Y34507D02*
X512141Y34338D01*
X511420Y33856D01*
X510938Y33134D01*
X510768Y32283D01*
X510938Y31432D01*
X511420Y30711D01*
X512141Y30229D01*
X512992Y30060D01*
X513843Y30229D01*
X514565Y30711D01*
X515047Y31432D01*
X515216Y32283D01*
X515047Y33134D01*
X514565Y33856D01*
X513843Y34338D01*
X512992Y34507D01*
D02*
G37*
G36*
X433465Y32539D02*
X432614Y32370D01*
X431892Y31888D01*
X431410Y31166D01*
X431241Y30315D01*
X431410Y29464D01*
X431892Y28743D01*
X432614Y28260D01*
X433465Y28091D01*
X434316Y28260D01*
X435037Y28743D01*
X435519Y29464D01*
X435688Y30315D01*
X435519Y31166D01*
X435037Y31888D01*
X434316Y32370D01*
X433465Y32539D01*
D02*
G37*
G36*
X469291Y32936D02*
X468364Y32752D01*
X467577Y32226D01*
X467051Y31440D01*
X466867Y30512D01*
X467051Y29584D01*
X467577Y28797D01*
X468364Y28272D01*
X469291Y28087D01*
X470219Y28272D01*
X471006Y28797D01*
X471531Y29584D01*
X471716Y30512D01*
X471531Y31440D01*
X471006Y32226D01*
X470219Y32752D01*
X469291Y32936D01*
D02*
G37*
G36*
X548425Y39625D02*
X547574Y39456D01*
X546853Y38974D01*
X546371Y38253D01*
X546201Y37402D01*
X546371Y36551D01*
X546853Y35829D01*
X547574Y35347D01*
X548425Y35178D01*
X549097Y35311D01*
X549539Y34967D01*
X549506Y34800D01*
X549675Y33949D01*
X550157Y33228D01*
X550878Y32746D01*
X551729Y32576D01*
X552335Y32697D01*
X552769Y32316D01*
X552730Y32119D01*
X552899Y31268D01*
X553381Y30547D01*
X554103Y30065D01*
X554954Y29895D01*
X555805Y30065D01*
X556099Y30261D01*
X556549Y29960D01*
X556469Y29559D01*
X556638Y28708D01*
X557120Y27986D01*
X557842Y27504D01*
X558693Y27335D01*
X559544Y27504D01*
X560265Y27986D01*
X560747Y28708D01*
X560917Y29559D01*
X560747Y30410D01*
X560265Y31131D01*
X559544Y31613D01*
X558693Y31783D01*
X557842Y31613D01*
X557548Y31417D01*
X557098Y31718D01*
X557178Y32119D01*
X557008Y32970D01*
X556526Y33692D01*
X555805Y34174D01*
X554954Y34343D01*
X554348Y34222D01*
X553914Y34603D01*
X553953Y34800D01*
X553784Y35651D01*
X553302Y36373D01*
X552580Y36855D01*
X551729Y37024D01*
X551057Y36890D01*
X550616Y37235D01*
X550649Y37402D01*
X550480Y38253D01*
X549998Y38974D01*
X549276Y39456D01*
X548425Y39625D01*
D02*
G37*
G36*
X284646Y32145D02*
X283795Y31976D01*
X283073Y31494D01*
X282591Y30772D01*
X282422Y29921D01*
X282516Y29448D01*
X282155Y28892D01*
X281826Y28826D01*
X281104Y28344D01*
X280622Y27623D01*
X280453Y26772D01*
X280622Y25921D01*
X281104Y25199D01*
X281826Y24717D01*
X282677Y24548D01*
X283528Y24717D01*
X284249Y25199D01*
X284731Y25921D01*
X284900Y26772D01*
X284806Y27245D01*
X285167Y27801D01*
X285497Y27867D01*
X286218Y28349D01*
X286700Y29070D01*
X286870Y29921D01*
X286700Y30772D01*
X286218Y31494D01*
X285497Y31976D01*
X284646Y32145D01*
D02*
G37*
G36*
X127953Y27814D02*
X127102Y27645D01*
X126380Y27163D01*
X125898Y26442D01*
X125729Y25591D01*
X125898Y24739D01*
X126380Y24018D01*
X127102Y23536D01*
X127953Y23367D01*
X128804Y23536D01*
X129525Y24018D01*
X130007Y24739D01*
X130177Y25591D01*
X130007Y26442D01*
X129525Y27163D01*
X128804Y27645D01*
X127953Y27814D01*
D02*
G37*
G36*
X42126Y27027D02*
X41275Y26858D01*
X40554Y26376D01*
X40071Y25654D01*
X39902Y24803D01*
X40071Y23952D01*
X40554Y23231D01*
X41275Y22749D01*
X42126Y22579D01*
X42977Y22749D01*
X43698Y23231D01*
X44181Y23952D01*
X44350Y24803D01*
X44181Y25654D01*
X43698Y26376D01*
X42977Y26858D01*
X42126Y27027D01*
D02*
G37*
G36*
X14567D02*
X13716Y26858D01*
X12994Y26376D01*
X12512Y25654D01*
X12343Y24803D01*
X12512Y23952D01*
X12994Y23231D01*
X13716Y22749D01*
X14567Y22579D01*
X15418Y22749D01*
X16139Y23231D01*
X16622Y23952D01*
X16791Y24803D01*
X16622Y25654D01*
X16139Y26376D01*
X15418Y26858D01*
X14567Y27027D01*
D02*
G37*
G36*
X388189Y26240D02*
X387338Y26070D01*
X386616Y25588D01*
X386134Y24867D01*
X385965Y24016D01*
X386134Y23165D01*
X386616Y22443D01*
X387338Y21961D01*
X388189Y21792D01*
X389040Y21961D01*
X389761Y22443D01*
X390244Y23165D01*
X390413Y24016D01*
X390244Y24867D01*
X389761Y25588D01*
X389040Y26070D01*
X388189Y26240D01*
D02*
G37*
G36*
X406299Y25846D02*
X405448Y25677D01*
X404727Y25194D01*
X404245Y24473D01*
X404075Y23622D01*
X404245Y22771D01*
X404727Y22050D01*
X405448Y21567D01*
X406299Y21398D01*
X407150Y21567D01*
X407872Y22050D01*
X408354Y22771D01*
X408523Y23622D01*
X408354Y24473D01*
X407872Y25194D01*
X407150Y25677D01*
X406299Y25846D01*
D02*
G37*
G36*
X468504Y21909D02*
X467653Y21740D01*
X466931Y21258D01*
X466903Y21214D01*
X445696D01*
X445667Y21258D01*
X444945Y21740D01*
X444095Y21909D01*
X443244Y21740D01*
X442522Y21258D01*
X442040Y20536D01*
X441871Y19685D01*
X442040Y18834D01*
X442522Y18113D01*
X443244Y17630D01*
X444095Y17461D01*
X444945Y17630D01*
X445667Y18113D01*
X445696Y18156D01*
X466903D01*
X466931Y18113D01*
X467653Y17630D01*
X468504Y17461D01*
X469355Y17630D01*
X470076Y18113D01*
X470559Y18834D01*
X470728Y19685D01*
X470559Y20536D01*
X470076Y21258D01*
X469355Y21740D01*
X468504Y21909D01*
D02*
G37*
G36*
X72441Y21515D02*
X71590Y21346D01*
X70868Y20864D01*
X70386Y20142D01*
X70217Y19291D01*
X70386Y18440D01*
X70868Y17719D01*
X71590Y17237D01*
X72441Y17067D01*
X73292Y17237D01*
X74013Y17719D01*
X74496Y18440D01*
X74665Y19291D01*
X74496Y20142D01*
X74013Y20864D01*
X73292Y21346D01*
X72441Y21515D01*
D02*
G37*
G36*
X309449Y21122D02*
X308598Y20952D01*
X307876Y20470D01*
X307394Y19749D01*
X307225Y18898D01*
X307394Y18047D01*
X307876Y17325D01*
X308598Y16843D01*
X309449Y16674D01*
X310300Y16843D01*
X311021Y17325D01*
X311503Y18047D01*
X311673Y18898D01*
X311503Y19749D01*
X311021Y20470D01*
X310300Y20952D01*
X309449Y21122D01*
D02*
G37*
G36*
X322441Y17185D02*
X321590Y17015D01*
X320868Y16533D01*
X320478Y15948D01*
X319900Y15733D01*
X319749Y15834D01*
X318898Y16003D01*
X318047Y15834D01*
X317325Y15352D01*
X316843Y14630D01*
X316674Y13780D01*
X316843Y12928D01*
X317325Y12207D01*
X318047Y11725D01*
X318898Y11556D01*
X319749Y11725D01*
X320470Y12207D01*
X320861Y12792D01*
X321439Y13007D01*
X321590Y12906D01*
X322441Y12737D01*
X323292Y12906D01*
X324013Y13388D01*
X324496Y14110D01*
X324665Y14961D01*
X324496Y15812D01*
X324013Y16533D01*
X323292Y17015D01*
X322441Y17185D01*
D02*
G37*
G36*
X188189Y16003D02*
X187338Y15834D01*
X186617Y15352D01*
X186134Y14630D01*
X185965Y13780D01*
X186134Y12928D01*
X186617Y12207D01*
X187338Y11725D01*
X188189Y11556D01*
X189040Y11725D01*
X189761Y12207D01*
X190243Y12928D01*
X190413Y13780D01*
X190243Y14630D01*
X189761Y15352D01*
X189040Y15834D01*
X188189Y16003D01*
D02*
G37*
G36*
X177559D02*
X176708Y15834D01*
X175987Y15352D01*
X175505Y14630D01*
X175335Y13780D01*
X175505Y12928D01*
X175987Y12207D01*
X176708Y11725D01*
X177559Y11556D01*
X178410Y11725D01*
X179131Y12207D01*
X179614Y12928D01*
X179783Y13780D01*
X179614Y14630D01*
X179131Y15352D01*
X178410Y15834D01*
X177559Y16003D01*
D02*
G37*
G36*
X335039D02*
X334188Y15834D01*
X333467Y15352D01*
X332985Y14630D01*
X332816Y13780D01*
X332985Y12928D01*
X333467Y12207D01*
Y11809D01*
X333466Y11809D01*
X332984Y11087D01*
X332815Y10236D01*
X332984Y9385D01*
X333466Y8664D01*
X334188Y8182D01*
X335039Y8012D01*
X335890Y8182D01*
X336611Y8664D01*
X337093Y9385D01*
X337263Y10236D01*
X337093Y11087D01*
X336705Y11668D01*
X336646Y12009D01*
X336705Y12347D01*
X337094Y12928D01*
X337263Y13780D01*
X337094Y14630D01*
X336612Y15352D01*
X335890Y15834D01*
X335039Y16003D01*
D02*
G37*
G36*
X72441Y10492D02*
X71590Y10322D01*
X70868Y9840D01*
X70386Y9119D01*
X70217Y8268D01*
X70386Y7417D01*
X70868Y6695D01*
X71590Y6213D01*
X72441Y6044D01*
X73292Y6213D01*
X74013Y6695D01*
X74496Y7417D01*
X74665Y8268D01*
X74496Y9119D01*
X74013Y9840D01*
X73292Y10322D01*
X72441Y10492D01*
D02*
G37*
G36*
X428740Y9310D02*
X427889Y9141D01*
X427168Y8659D01*
X426686Y7938D01*
X426516Y7087D01*
X426686Y6236D01*
X427168Y5514D01*
X427889Y5032D01*
X428740Y4863D01*
X429591Y5032D01*
X430313Y5514D01*
X430795Y6236D01*
X430964Y7087D01*
X430795Y7938D01*
X430313Y8659D01*
X429591Y9141D01*
X428740Y9310D01*
D02*
G37*
G36*
X422047D02*
X421196Y9141D01*
X420475Y8659D01*
X419993Y7938D01*
X419823Y7087D01*
X419993Y6236D01*
X420475Y5514D01*
X421196Y5032D01*
X422047Y4863D01*
X422898Y5032D01*
X423620Y5514D01*
X424102Y6236D01*
X424271Y7087D01*
X424102Y7938D01*
X423620Y8659D01*
X422898Y9141D01*
X422047Y9310D01*
D02*
G37*
G36*
X9843Y16188D02*
X8605Y16066D01*
X7414Y15705D01*
X6317Y15119D01*
X5356Y14330D01*
X4566Y13368D01*
X3980Y12271D01*
X3619Y11080D01*
X3497Y9843D01*
X3619Y8605D01*
X3980Y7414D01*
X4566Y6317D01*
X5356Y5356D01*
X6317Y4566D01*
X7414Y3980D01*
X8605Y3619D01*
X9843Y3497D01*
X11080Y3619D01*
X12271Y3980D01*
X13368Y4566D01*
X14330Y5356D01*
X15119Y6317D01*
X15705Y7414D01*
X16066Y8605D01*
X16188Y9843D01*
X16066Y11080D01*
X15705Y12271D01*
X15119Y13368D01*
X14330Y14330D01*
X13368Y15119D01*
X12271Y15705D01*
X11080Y16066D01*
X9843Y16188D01*
D02*
G37*
G36*
X581496Y15401D02*
X580258Y15279D01*
X579068Y14918D01*
X577971Y14331D01*
X577009Y13542D01*
X576220Y12581D01*
X575634Y11484D01*
X575273Y10293D01*
X575151Y9055D01*
X575273Y7817D01*
X575634Y6627D01*
X576220Y5530D01*
X577009Y4568D01*
X577971Y3779D01*
X579068Y3193D01*
X580258Y2832D01*
X581496Y2710D01*
X582734Y2832D01*
X583924Y3193D01*
X585021Y3779D01*
X585983Y4568D01*
X586772Y5530D01*
X587359Y6627D01*
X587720Y7817D01*
X587842Y9055D01*
X587720Y10293D01*
X587359Y11484D01*
X586772Y12581D01*
X585983Y13542D01*
X585021Y14331D01*
X583924Y14918D01*
X582734Y15279D01*
X581496Y15401D01*
D02*
G37*
G36*
X463386D02*
X462148Y15279D01*
X460957Y14918D01*
X459861Y14331D01*
X458899Y13542D01*
X458110Y12581D01*
X457523Y11484D01*
X457162Y10293D01*
X457040Y9055D01*
X457162Y7817D01*
X457523Y6627D01*
X458110Y5530D01*
X458899Y4568D01*
X459861Y3779D01*
X460957Y3193D01*
X462148Y2832D01*
X463386Y2710D01*
X464624Y2832D01*
X465814Y3193D01*
X466911Y3779D01*
X467873Y4568D01*
X468662Y5530D01*
X469248Y6627D01*
X469609Y7817D01*
X469731Y9055D01*
X469609Y10293D01*
X469248Y11484D01*
X468662Y12581D01*
X467873Y13542D01*
X466911Y14331D01*
X465814Y14918D01*
X464624Y15279D01*
X463386Y15401D01*
D02*
G37*
G36*
X417717Y6555D02*
X416865Y6385D01*
X416144Y5903D01*
X415662Y5182D01*
X415493Y4331D01*
X415662Y3480D01*
X416144Y2758D01*
X416865Y2276D01*
X417717Y2107D01*
X418568Y2276D01*
X419289Y2758D01*
X419771Y3480D01*
X419940Y4331D01*
X419771Y5182D01*
X419289Y5903D01*
X418568Y6385D01*
X417717Y6555D01*
D02*
G37*
G36*
X410630D02*
X409779Y6385D01*
X409057Y5903D01*
X408575Y5182D01*
X408406Y4331D01*
X408575Y3480D01*
X409057Y2758D01*
X409779Y2276D01*
X410630Y2107D01*
X411481Y2276D01*
X412202Y2758D01*
X412684Y3480D01*
X412854Y4331D01*
X412684Y5182D01*
X412202Y5903D01*
X411481Y6385D01*
X410630Y6555D01*
D02*
G37*
%LPD*%
G36*
X550000Y175197D02*
X512598D01*
Y230908D01*
X513098Y231318D01*
X513487Y231241D01*
X514338Y231410D01*
X515060Y231892D01*
X515542Y232613D01*
X515711Y233465D01*
X515542Y234316D01*
X515060Y235037D01*
X514338Y235519D01*
X513487Y235688D01*
X513098Y235611D01*
X512598Y236021D01*
Y325984D01*
X495059D01*
X494822Y326273D01*
X494789Y326484D01*
X496357Y328052D01*
X496689Y328549D01*
X496805Y329134D01*
Y332257D01*
X496848Y332286D01*
X497330Y333007D01*
X497499Y333858D01*
X497330Y334709D01*
X496848Y335431D01*
X496127Y335913D01*
X495276Y336082D01*
X494425Y335913D01*
X493703Y335431D01*
X493221Y334709D01*
X493052Y333858D01*
X493221Y333007D01*
X493703Y332286D01*
X493746Y332257D01*
Y329767D01*
X492570Y328592D01*
X492520Y328602D01*
X491669Y328432D01*
X490947Y327950D01*
X490465Y327229D01*
X490296Y326378D01*
X490297Y326371D01*
X489980Y325984D01*
X464429D01*
X464259Y326835D01*
X463777Y327557D01*
X463056Y328039D01*
X462205Y328208D01*
X461354Y328039D01*
X460632Y327557D01*
X460150Y326835D01*
X459981Y325984D01*
X435692D01*
X435431Y326376D01*
X434709Y326858D01*
X433858Y327027D01*
X433007Y326858D01*
X432286Y326376D01*
X432024Y325984D01*
X409952D01*
X409800Y326484D01*
X410234Y326774D01*
X410716Y327495D01*
X410885Y328346D01*
X410716Y329198D01*
X410234Y329919D01*
X409512Y330401D01*
X408661Y330570D01*
X407810Y330401D01*
X407089Y329919D01*
X406607Y329198D01*
X406438Y328346D01*
X406607Y327495D01*
X407089Y326774D01*
X407522Y326484D01*
X407371Y325984D01*
X394882D01*
Y209055D01*
X369390D01*
X369377Y209119D01*
X368895Y209840D01*
X368174Y210322D01*
X367323Y210492D01*
X366472Y210322D01*
X365750Y209840D01*
X365268Y209119D01*
X365256Y209055D01*
X341542D01*
X341275Y209555D01*
X341425Y209779D01*
X341594Y210630D01*
X341425Y211481D01*
X340943Y212202D01*
X340221Y212684D01*
X339370Y212854D01*
X338519Y212684D01*
X337798Y212202D01*
X337316Y211481D01*
X337146Y210630D01*
X337316Y209779D01*
X337465Y209555D01*
X337198Y209055D01*
X276944D01*
Y385433D01*
X279500D01*
X279801Y384933D01*
X279666Y384252D01*
X279835Y383401D01*
X280317Y382680D01*
X281039Y382197D01*
X281890Y382028D01*
X282741Y382197D01*
X283462Y382680D01*
X283944Y383401D01*
X284114Y384252D01*
X283978Y384933D01*
X284279Y385433D01*
X550000Y385433D01*
X550000Y175197D01*
D02*
G37*
%LPC*%
G36*
X411024Y384901D02*
X410173Y384732D01*
X409451Y384250D01*
X408969Y383528D01*
X408800Y382677D01*
X408969Y381826D01*
X409451Y381105D01*
X410173Y380623D01*
X411024Y380453D01*
X411875Y380623D01*
X412596Y381105D01*
X413078Y381826D01*
X413247Y382677D01*
X413078Y383528D01*
X412596Y384250D01*
X411875Y384732D01*
X411024Y384901D01*
D02*
G37*
G36*
X332677Y380177D02*
X331826Y380007D01*
X331105Y379525D01*
X330623Y378804D01*
X330453Y377953D01*
X330623Y377102D01*
X331105Y376380D01*
X331826Y375898D01*
X332677Y375729D01*
X333528Y375898D01*
X334250Y376380D01*
X334732Y377102D01*
X334901Y377953D01*
X334732Y378804D01*
X334250Y379525D01*
X333528Y380007D01*
X332677Y380177D01*
D02*
G37*
G36*
X286614Y379389D02*
X285763Y379220D01*
X285042Y378738D01*
X284560Y378016D01*
X284390Y377165D01*
X284560Y376314D01*
X285042Y375593D01*
X285763Y375111D01*
X286614Y374941D01*
X287465Y375111D01*
X288187Y375593D01*
X288669Y376314D01*
X288838Y377165D01*
X288669Y378016D01*
X288187Y378738D01*
X287465Y379220D01*
X286614Y379389D01*
D02*
G37*
G36*
X510039Y375501D02*
X509188Y375332D01*
X508467Y374850D01*
X507985Y374129D01*
X507816Y373278D01*
X507985Y372427D01*
X508467Y371705D01*
X509188Y371223D01*
X510039Y371054D01*
X510890Y371223D01*
X511612Y371705D01*
X512094Y372427D01*
X512263Y373278D01*
X512094Y374129D01*
X511612Y374850D01*
X510890Y375332D01*
X510039Y375501D01*
D02*
G37*
G36*
X295669Y372696D02*
X294818Y372527D01*
X294097Y372045D01*
X293615Y371323D01*
X293445Y370472D01*
X293615Y369621D01*
X294097Y368900D01*
X294818Y368418D01*
X295669Y368249D01*
X296520Y368418D01*
X297242Y368900D01*
X297724Y369621D01*
X297893Y370472D01*
X297724Y371323D01*
X297242Y372045D01*
X296520Y372527D01*
X295669Y372696D01*
D02*
G37*
G36*
X380315Y371909D02*
X379464Y371740D01*
X378743Y371257D01*
X378260Y370536D01*
X378091Y369685D01*
X378260Y368834D01*
X378743Y368113D01*
X379464Y367631D01*
X380315Y367461D01*
X381166Y367631D01*
X381887Y368113D01*
X382369Y368834D01*
X382539Y369685D01*
X382369Y370536D01*
X381887Y371257D01*
X381166Y371740D01*
X380315Y371909D01*
D02*
G37*
G36*
X328740Y369153D02*
X327889Y368984D01*
X327168Y368502D01*
X326686Y367780D01*
X326516Y366929D01*
X326686Y366078D01*
X327168Y365357D01*
X327889Y364875D01*
X328740Y364705D01*
X329591Y364875D01*
X330313Y365357D01*
X330795Y366078D01*
X330964Y366929D01*
X330795Y367780D01*
X330313Y368502D01*
X329591Y368984D01*
X328740Y369153D01*
D02*
G37*
G36*
X299606Y367972D02*
X298755Y367803D01*
X298034Y367320D01*
X297552Y366599D01*
X297382Y365748D01*
X297552Y364897D01*
X298034Y364176D01*
X298755Y363693D01*
X299606Y363524D01*
X300457Y363693D01*
X301179Y364176D01*
X301661Y364897D01*
X301830Y365748D01*
X301661Y366599D01*
X301179Y367320D01*
X300457Y367803D01*
X299606Y367972D01*
D02*
G37*
G36*
X287402Y367004D02*
X286551Y366835D01*
X285829Y366353D01*
X285347Y365632D01*
X285178Y364780D01*
X285347Y363930D01*
X285829Y363208D01*
X286551Y362726D01*
X287402Y362557D01*
X288253Y362726D01*
X288974Y363208D01*
X289456Y363930D01*
X289625Y364780D01*
X289456Y365632D01*
X288974Y366353D01*
X288253Y366835D01*
X287402Y367004D01*
D02*
G37*
G36*
X522490Y363671D02*
X521639Y363501D01*
X520918Y363019D01*
X520436Y362298D01*
X520266Y361447D01*
X520436Y360596D01*
X520918Y359874D01*
X521639Y359392D01*
X522490Y359223D01*
X523341Y359392D01*
X524063Y359874D01*
X524545Y360596D01*
X524714Y361447D01*
X524545Y362298D01*
X524063Y363019D01*
X523341Y363501D01*
X522490Y363671D01*
D02*
G37*
G36*
X500787Y360098D02*
X499936Y359929D01*
X499215Y359447D01*
X498733Y358725D01*
X498564Y357874D01*
X498733Y357023D01*
X499215Y356301D01*
X499936Y355820D01*
X500787Y355650D01*
X501638Y355820D01*
X502360Y356301D01*
X502842Y357023D01*
X503011Y357874D01*
X502842Y358725D01*
X502360Y359447D01*
X501638Y359929D01*
X500787Y360098D01*
D02*
G37*
G36*
X456693Y359704D02*
X455842Y359535D01*
X455120Y359053D01*
X454638Y358331D01*
X454469Y357480D01*
X454638Y356629D01*
X455120Y355908D01*
X455842Y355426D01*
X456693Y355257D01*
X457544Y355426D01*
X458265Y355908D01*
X458747Y356629D01*
X458917Y357480D01*
X458747Y358331D01*
X458265Y359053D01*
X457544Y359535D01*
X456693Y359704D01*
D02*
G37*
G36*
X371260D02*
X370409Y359535D01*
X369687Y359053D01*
X369205Y358331D01*
X369036Y357480D01*
X369205Y356629D01*
X369687Y355908D01*
X370409Y355426D01*
X371260Y355257D01*
X372111Y355426D01*
X372832Y355908D01*
X373314Y356629D01*
X373484Y357480D01*
X373314Y358331D01*
X372832Y359053D01*
X372111Y359535D01*
X371260Y359704D01*
D02*
G37*
G36*
X416142Y356948D02*
X415291Y356779D01*
X414569Y356297D01*
X414087Y355575D01*
X413918Y354724D01*
X414087Y353873D01*
X414569Y353152D01*
X415291Y352670D01*
X416142Y352501D01*
X416993Y352670D01*
X417714Y353152D01*
X418196Y353873D01*
X418366Y354724D01*
X418196Y355575D01*
X417714Y356297D01*
X416993Y356779D01*
X416142Y356948D01*
D02*
G37*
G36*
X446063Y354586D02*
X445212Y354417D01*
X444490Y353935D01*
X444008Y353213D01*
X443839Y352362D01*
X444008Y351511D01*
X444490Y350790D01*
X445212Y350308D01*
X446063Y350138D01*
X446914Y350308D01*
X447636Y350790D01*
X448117Y351511D01*
X448287Y352362D01*
X448117Y353213D01*
X447636Y353935D01*
X446914Y354417D01*
X446063Y354586D01*
D02*
G37*
G36*
X489764Y353799D02*
X488913Y353629D01*
X488191Y353147D01*
X487709Y352426D01*
X487540Y351575D01*
X487709Y350724D01*
X488191Y350002D01*
X488913Y349520D01*
X489764Y349351D01*
X490615Y349520D01*
X491336Y350002D01*
X491818Y350724D01*
X491988Y351575D01*
X491818Y352426D01*
X491336Y353147D01*
X490615Y353629D01*
X489764Y353799D01*
D02*
G37*
G36*
X288661Y351043D02*
X287810Y350873D01*
X287089Y350391D01*
X286607Y349670D01*
X286438Y348819D01*
X286607Y347968D01*
X287089Y347246D01*
X287810Y346764D01*
X288661Y346595D01*
X289512Y346764D01*
X290234Y347246D01*
X290716Y347968D01*
X290885Y348819D01*
X290716Y349670D01*
X290234Y350391D01*
X289512Y350873D01*
X288661Y351043D01*
D02*
G37*
G36*
X338976Y354586D02*
X338125Y354417D01*
X337404Y353935D01*
X336922Y353213D01*
X336753Y352362D01*
X336922Y351511D01*
X337404Y350790D01*
X337447Y350761D01*
Y349452D01*
X334352Y346358D01*
X333892Y346604D01*
X333996Y347126D01*
X333826Y347977D01*
X333344Y348698D01*
X332623Y349181D01*
X331772Y349350D01*
X330921Y349181D01*
X330199Y348698D01*
X329717Y347977D01*
X329548Y347126D01*
X329717Y346275D01*
X330199Y345553D01*
X330921Y345071D01*
X331772Y344902D01*
X332293Y345006D01*
X332540Y344545D01*
X328004Y340009D01*
X327953Y340019D01*
X327102Y339850D01*
X326380Y339368D01*
X325898Y338646D01*
X325729Y337795D01*
X325898Y336944D01*
X326380Y336223D01*
X327102Y335741D01*
X327953Y335572D01*
X328804Y335741D01*
X329525Y336223D01*
X330007Y336944D01*
X330177Y337795D01*
X330167Y337846D01*
X340058Y347737D01*
X340389Y348234D01*
X340506Y348819D01*
Y350761D01*
X340549Y350790D01*
X341031Y351511D01*
X341200Y352362D01*
X341031Y353213D01*
X340549Y353935D01*
X339827Y354417D01*
X338976Y354586D01*
D02*
G37*
G36*
X369672Y348668D02*
X368821Y348499D01*
X368100Y348016D01*
X367618Y347295D01*
X367448Y346444D01*
X367618Y345593D01*
X368100Y344871D01*
X368821Y344389D01*
X369672Y344220D01*
X370523Y344389D01*
X371245Y344871D01*
X371727Y345593D01*
X371896Y346444D01*
X371727Y347295D01*
X371245Y348016D01*
X370523Y348499D01*
X369672Y348668D01*
D02*
G37*
G36*
X289763Y345136D02*
X288912Y344967D01*
X288191Y344485D01*
X287709Y343764D01*
X287539Y342913D01*
X287709Y342062D01*
X288191Y341340D01*
X288912Y340858D01*
X289763Y340689D01*
X290614Y340858D01*
X291336Y341340D01*
X291818Y342062D01*
X291987Y342913D01*
X291818Y343764D01*
X291336Y344485D01*
X290614Y344967D01*
X289763Y345136D01*
D02*
G37*
G36*
X298425Y362280D02*
X297574Y362111D01*
X296853Y361629D01*
X296371Y360907D01*
X296201Y360056D01*
X296371Y359205D01*
X296853Y358484D01*
X296896Y358455D01*
Y348231D01*
X297012Y347646D01*
X297344Y347150D01*
X299652Y344842D01*
Y340548D01*
X299152Y340268D01*
X298425Y340413D01*
X297574Y340244D01*
X296853Y339761D01*
X296371Y339040D01*
X296201Y338189D01*
X296371Y337338D01*
X296853Y336616D01*
X297574Y336134D01*
X298425Y335965D01*
X299152Y336110D01*
X299652Y335830D01*
Y335066D01*
X299609Y335037D01*
X299127Y334316D01*
X298957Y333465D01*
X299127Y332613D01*
X299609Y331892D01*
X300330Y331410D01*
X301181Y331241D01*
X302032Y331410D01*
X302754Y331892D01*
X303236Y332613D01*
X303405Y333465D01*
X303236Y334316D01*
X302754Y335037D01*
X302711Y335066D01*
Y345475D01*
X302594Y346061D01*
X302263Y346557D01*
X299955Y348865D01*
Y358455D01*
X299998Y358484D01*
X300480Y359205D01*
X300649Y360056D01*
X300480Y360907D01*
X299998Y361629D01*
X299276Y362111D01*
X298425Y362280D01*
D02*
G37*
G36*
X312598Y343956D02*
X311747Y343787D01*
X311026Y343305D01*
X310544Y342583D01*
X310375Y341732D01*
X310544Y340881D01*
X311026Y340160D01*
X311747Y339678D01*
X312598Y339508D01*
X313449Y339678D01*
X314171Y340160D01*
X314653Y340881D01*
X314822Y341732D01*
X314653Y342583D01*
X314171Y343305D01*
X313449Y343787D01*
X312598Y343956D01*
D02*
G37*
G36*
X355511Y343955D02*
X354660Y343786D01*
X353939Y343304D01*
X353457Y342583D01*
X353287Y341732D01*
X353457Y340881D01*
X353939Y340159D01*
X354660Y339677D01*
X355511Y339508D01*
X356362Y339677D01*
X357084Y340159D01*
X357566Y340881D01*
X357735Y341732D01*
X357566Y342583D01*
X357084Y343304D01*
X356362Y343786D01*
X355511Y343955D01*
D02*
G37*
G36*
X535039Y342381D02*
X534188Y342212D01*
X533467Y341730D01*
X532985Y341008D01*
X532816Y340158D01*
X532985Y339306D01*
X533394Y338695D01*
X533224Y338420D01*
X533084Y338285D01*
X532283Y338444D01*
X531432Y338275D01*
X530711Y337793D01*
X530229Y337071D01*
X530060Y336221D01*
X530229Y335369D01*
X530711Y334648D01*
X531432Y334166D01*
X532283Y333997D01*
X533135Y334166D01*
X533856Y334648D01*
X534338Y335369D01*
X534507Y336221D01*
X534338Y337071D01*
X533929Y337684D01*
X534099Y337958D01*
X534238Y338093D01*
X535039Y337934D01*
X535890Y338103D01*
X536612Y338585D01*
X537094Y339306D01*
X537263Y340158D01*
X537094Y341008D01*
X536612Y341730D01*
X535890Y342212D01*
X535039Y342381D01*
D02*
G37*
G36*
X488189Y341988D02*
X487338Y341818D01*
X486617Y341336D01*
X486134Y340615D01*
X485965Y339764D01*
X486134Y338913D01*
X486617Y338191D01*
X487338Y337709D01*
X488189Y337540D01*
X489040Y337709D01*
X489761Y338191D01*
X490243Y338913D01*
X490413Y339764D01*
X490243Y340615D01*
X489761Y341336D01*
X489040Y341818D01*
X488189Y341988D01*
D02*
G37*
G36*
X399491Y341594D02*
X398640Y341425D01*
X397919Y340943D01*
X397437Y340221D01*
X397267Y339370D01*
X397437Y338519D01*
X397919Y337798D01*
X398640Y337316D01*
X399491Y337146D01*
X400342Y337316D01*
X401064Y337798D01*
X401546Y338519D01*
X401715Y339370D01*
X401546Y340221D01*
X401064Y340943D01*
X400342Y341425D01*
X399491Y341594D01*
D02*
G37*
G36*
X362205Y341200D02*
X361354Y341031D01*
X360632Y340549D01*
X360150Y339827D01*
X359981Y338976D01*
X360150Y338125D01*
X360632Y337404D01*
X361354Y336922D01*
X362205Y336753D01*
X363056Y336922D01*
X363777Y337404D01*
X364259Y338125D01*
X364428Y338976D01*
X364259Y339827D01*
X363777Y340549D01*
X363056Y341031D01*
X362205Y341200D01*
D02*
G37*
G36*
X319291Y341199D02*
X318440Y341030D01*
X317718Y340548D01*
X317236Y339827D01*
X317067Y338976D01*
X317236Y338125D01*
X317718Y337403D01*
X318440Y336921D01*
X319291Y336752D01*
X320142Y336921D01*
X320863Y337403D01*
X321345Y338125D01*
X321515Y338976D01*
X321345Y339827D01*
X320863Y340548D01*
X320142Y341030D01*
X319291Y341199D01*
D02*
G37*
G36*
X335039Y340413D02*
X334188Y340244D01*
X333467Y339761D01*
X332985Y339040D01*
X332816Y338189D01*
X332985Y337338D01*
X333467Y336616D01*
X334188Y336134D01*
X335039Y335965D01*
X335890Y336134D01*
X336612Y336616D01*
X337094Y337338D01*
X337263Y338189D01*
X337094Y339040D01*
X336612Y339761D01*
X335890Y340244D01*
X335039Y340413D01*
D02*
G37*
G36*
X393068Y340174D02*
X392217Y340004D01*
X391495Y339522D01*
X391013Y338801D01*
X390844Y337950D01*
X391013Y337099D01*
X391495Y336377D01*
X392217Y335895D01*
X393068Y335726D01*
X393919Y335895D01*
X394640Y336377D01*
X395122Y337099D01*
X395291Y337950D01*
X395122Y338801D01*
X394640Y339522D01*
X393919Y340004D01*
X393068Y340174D01*
D02*
G37*
G36*
X410236Y351830D02*
X409385Y351661D01*
X408664Y351179D01*
X408182Y350457D01*
X408012Y349606D01*
X408182Y348755D01*
X408664Y348034D01*
X408707Y348005D01*
Y339397D01*
X408664Y339368D01*
X408182Y338646D01*
X408012Y337795D01*
X408182Y336944D01*
X408664Y336223D01*
X409385Y335741D01*
X410236Y335572D01*
X411087Y335741D01*
X411809Y336223D01*
X412291Y336944D01*
X412460Y337795D01*
X412291Y338646D01*
X411809Y339368D01*
X411766Y339397D01*
Y348005D01*
X411809Y348034D01*
X412291Y348755D01*
X412460Y349606D01*
X412291Y350457D01*
X411809Y351179D01*
X411087Y351661D01*
X410236Y351830D01*
D02*
G37*
G36*
X371654Y339232D02*
X370802Y339062D01*
X370081Y338580D01*
X369599Y337859D01*
X369430Y337008D01*
X369599Y336157D01*
X370081Y335435D01*
X370802Y334953D01*
X371654Y334784D01*
X372505Y334953D01*
X373226Y335435D01*
X373708Y336157D01*
X373877Y337008D01*
X373708Y337859D01*
X373226Y338580D01*
X372505Y339062D01*
X371654Y339232D01*
D02*
G37*
G36*
X458661Y335688D02*
X457810Y335519D01*
X457089Y335037D01*
X456607Y334316D01*
X456438Y333465D01*
X456607Y332613D01*
X457089Y331892D01*
X457810Y331410D01*
X458661Y331241D01*
X459512Y331410D01*
X460234Y331892D01*
X460716Y332613D01*
X460885Y333465D01*
X460716Y334316D01*
X460234Y335037D01*
X459512Y335519D01*
X458661Y335688D01*
D02*
G37*
G36*
X417717D02*
X416865Y335519D01*
X416144Y335037D01*
X415662Y334316D01*
X415493Y333465D01*
X415662Y332613D01*
X416144Y331892D01*
X416865Y331410D01*
X417717Y331241D01*
X418568Y331410D01*
X419289Y331892D01*
X419771Y332613D01*
X419940Y333465D01*
X419771Y334316D01*
X419289Y335037D01*
X418568Y335519D01*
X417717Y335688D01*
D02*
G37*
G36*
X542520Y334901D02*
X541669Y334732D01*
X540947Y334250D01*
X540465Y333528D01*
X540296Y332677D01*
X540465Y331826D01*
X540947Y331105D01*
X541669Y330623D01*
X542520Y330453D01*
X543371Y330623D01*
X544092Y331105D01*
X544574Y331826D01*
X544743Y332677D01*
X544574Y333528D01*
X544092Y334250D01*
X543371Y334732D01*
X542520Y334901D01*
D02*
G37*
G36*
X527164Y331751D02*
X526313Y331581D01*
X525592Y331099D01*
X525110Y330378D01*
X524940Y329527D01*
X525110Y328676D01*
X525592Y327954D01*
X526313Y327472D01*
X527164Y327303D01*
X528015Y327472D01*
X528737Y327954D01*
X529219Y328676D01*
X529388Y329527D01*
X529219Y330378D01*
X528737Y331099D01*
X528015Y331581D01*
X527164Y331751D01*
D02*
G37*
G36*
X468898Y331358D02*
X468047Y331188D01*
X467325Y330706D01*
X466843Y329985D01*
X466674Y329134D01*
X466843Y328283D01*
X467325Y327561D01*
X468047Y327079D01*
X468898Y326910D01*
X469749Y327079D01*
X470470Y327561D01*
X470952Y328283D01*
X471122Y329134D01*
X470952Y329985D01*
X470470Y330706D01*
X469749Y331188D01*
X468898Y331358D01*
D02*
G37*
G36*
X427165D02*
X426314Y331188D01*
X425593Y330706D01*
X425111Y329985D01*
X424941Y329134D01*
X425111Y328283D01*
X425593Y327561D01*
X426314Y327079D01*
X427165Y326910D01*
X428016Y327079D01*
X428738Y327561D01*
X429220Y328283D01*
X429389Y329134D01*
X429220Y329985D01*
X428738Y330706D01*
X428016Y331188D01*
X427165Y331358D01*
D02*
G37*
G36*
X520866Y343956D02*
X520015Y343787D01*
X519294Y343305D01*
X518812Y342583D01*
X518642Y341732D01*
X518812Y340881D01*
X519294Y340160D01*
X519337Y340131D01*
Y328723D01*
X519453Y328138D01*
X519785Y327642D01*
X521392Y326035D01*
X521382Y325984D01*
X521551Y325133D01*
X522033Y324412D01*
X522754Y323930D01*
X523605Y323760D01*
X524456Y323930D01*
X525178Y324412D01*
X525660Y325133D01*
X525829Y325984D01*
X525660Y326835D01*
X525178Y327557D01*
X524456Y328039D01*
X523605Y328208D01*
X523555Y328198D01*
X522396Y329357D01*
Y340131D01*
X522439Y340160D01*
X522921Y340881D01*
X523090Y341732D01*
X522921Y342583D01*
X522439Y343305D01*
X521717Y343787D01*
X520866Y343956D01*
D02*
G37*
G36*
X532283Y327027D02*
X531432Y326858D01*
X530711Y326376D01*
X530229Y325654D01*
X530060Y324803D01*
X530229Y323952D01*
X530711Y323231D01*
X531432Y322749D01*
X532283Y322579D01*
X533135Y322749D01*
X533856Y323231D01*
X534338Y323952D01*
X534507Y324803D01*
X534338Y325654D01*
X533856Y326376D01*
X533135Y326858D01*
X532283Y327027D01*
D02*
G37*
G36*
X383858Y342775D02*
X383007Y342606D01*
X382286Y342124D01*
X381804Y341402D01*
X381634Y340551D01*
X381804Y339700D01*
X382286Y338979D01*
X382526Y338818D01*
Y326146D01*
X382197Y325654D01*
X382028Y324803D01*
X382197Y323952D01*
X382680Y323231D01*
X383401Y322749D01*
X384252Y322579D01*
X385103Y322749D01*
X385824Y323231D01*
X386307Y323952D01*
X386476Y324803D01*
X386307Y325654D01*
X385824Y326376D01*
X385584Y326536D01*
Y339209D01*
X385913Y339700D01*
X386082Y340551D01*
X385913Y341402D01*
X385431Y342124D01*
X384709Y342606D01*
X383858Y342775D01*
D02*
G37*
G36*
X305512Y326633D02*
X304661Y326464D01*
X303939Y325982D01*
X303457Y325260D01*
X303288Y324410D01*
X303457Y323558D01*
X303939Y322837D01*
X304661Y322355D01*
X305512Y322186D01*
X306363Y322355D01*
X307084Y322837D01*
X307566Y323558D01*
X307736Y324410D01*
X307566Y325260D01*
X307084Y325982D01*
X306363Y326464D01*
X305512Y326633D01*
D02*
G37*
G36*
X362205Y326240D02*
X361354Y326070D01*
X360632Y325588D01*
X360150Y324867D01*
X359981Y324016D01*
X360150Y323165D01*
X360632Y322443D01*
X361354Y321961D01*
X362205Y321792D01*
X363056Y321961D01*
X363777Y322443D01*
X364259Y323165D01*
X364428Y324016D01*
X364259Y324867D01*
X363777Y325588D01*
X363056Y326070D01*
X362205Y326240D01*
D02*
G37*
G36*
X345276Y323484D02*
X344425Y323314D01*
X343703Y322832D01*
X343221Y322111D01*
X343052Y321260D01*
X343221Y320409D01*
X343703Y319687D01*
X344425Y319205D01*
X345276Y319036D01*
X346127Y319205D01*
X346848Y319687D01*
X347330Y320409D01*
X347499Y321260D01*
X347330Y322111D01*
X346848Y322832D01*
X346127Y323314D01*
X345276Y323484D01*
D02*
G37*
G36*
X546850Y317578D02*
X545999Y317409D01*
X545278Y316927D01*
X544796Y316205D01*
X544627Y315354D01*
X544796Y314503D01*
X545278Y313782D01*
X545999Y313300D01*
X546850Y313130D01*
X547701Y313300D01*
X548423Y313782D01*
X548905Y314503D01*
X549074Y315354D01*
X548905Y316205D01*
X548423Y316927D01*
X547701Y317409D01*
X546850Y317578D01*
D02*
G37*
G36*
X362205Y305767D02*
X361354Y305598D01*
X360632Y305116D01*
X360150Y304394D01*
X359981Y303543D01*
X360150Y302692D01*
X360632Y301971D01*
X361354Y301489D01*
X362205Y301320D01*
X363056Y301489D01*
X363777Y301971D01*
X364259Y302692D01*
X364428Y303543D01*
X364259Y304394D01*
X363777Y305116D01*
X363056Y305598D01*
X362205Y305767D01*
D02*
G37*
G36*
X346456Y297105D02*
X345605Y296936D01*
X344883Y296454D01*
X344401Y295732D01*
X344232Y294881D01*
X344401Y294030D01*
X344883Y293309D01*
X345605Y292827D01*
X346456Y292657D01*
X347307Y292827D01*
X348028Y293309D01*
X348511Y294030D01*
X348680Y294881D01*
X348511Y295732D01*
X348028Y296454D01*
X347307Y296936D01*
X346456Y297105D01*
D02*
G37*
G36*
X336221Y296318D02*
X335369Y296149D01*
X334648Y295667D01*
X334166Y294946D01*
X333997Y294094D01*
X334166Y293244D01*
X334648Y292522D01*
X335369Y292040D01*
X336221Y291871D01*
X337071Y292040D01*
X337793Y292522D01*
X338275Y293244D01*
X338444Y294094D01*
X338275Y294946D01*
X337793Y295667D01*
X337071Y296149D01*
X336221Y296318D01*
D02*
G37*
G36*
X343307Y291594D02*
X342456Y291425D01*
X341735Y290943D01*
X341252Y290221D01*
X341083Y289370D01*
X341252Y288519D01*
X341735Y287798D01*
X342456Y287316D01*
X343307Y287146D01*
X344158Y287316D01*
X344880Y287798D01*
X345362Y288519D01*
X345531Y289370D01*
X345362Y290221D01*
X344880Y290943D01*
X344158Y291425D01*
X343307Y291594D01*
D02*
G37*
G36*
X338189Y285295D02*
X337338Y285125D01*
X336616Y284643D01*
X336134Y283922D01*
X335965Y283071D01*
X336134Y282220D01*
X336616Y281498D01*
X337338Y281016D01*
X338189Y280847D01*
X339040Y281016D01*
X339761Y281498D01*
X340244Y282220D01*
X340413Y283071D01*
X340244Y283922D01*
X339761Y284643D01*
X339040Y285125D01*
X338189Y285295D01*
D02*
G37*
G36*
X343307Y284507D02*
X342456Y284338D01*
X341735Y283856D01*
X341252Y283135D01*
X341083Y282283D01*
X341252Y281432D01*
X341735Y280711D01*
X342456Y280229D01*
X343307Y280060D01*
X344158Y280229D01*
X344880Y280711D01*
X345362Y281432D01*
X345531Y282283D01*
X345362Y283135D01*
X344880Y283856D01*
X344158Y284338D01*
X343307Y284507D01*
D02*
G37*
G36*
X334252Y280964D02*
X333401Y280795D01*
X332680Y280313D01*
X332197Y279591D01*
X332028Y278740D01*
X332197Y277889D01*
X332680Y277168D01*
X333401Y276686D01*
X334252Y276516D01*
X335103Y276686D01*
X335824Y277168D01*
X336307Y277889D01*
X336476Y278740D01*
X336307Y279591D01*
X335824Y280313D01*
X335103Y280795D01*
X334252Y280964D01*
D02*
G37*
G36*
X517717Y274681D02*
X516865Y274512D01*
X516144Y274030D01*
X515662Y273309D01*
X515493Y272458D01*
X515662Y271607D01*
X516144Y270885D01*
X516865Y270403D01*
X517717Y270234D01*
X518568Y270403D01*
X519289Y270885D01*
X519771Y271607D01*
X519940Y272458D01*
X519771Y273309D01*
X519289Y274030D01*
X518568Y274512D01*
X517717Y274681D01*
D02*
G37*
G36*
X383071Y269940D02*
X382220Y269771D01*
X381498Y269289D01*
X381016Y268568D01*
X380847Y267717D01*
X381016Y266865D01*
X381498Y266144D01*
X382220Y265662D01*
X383071Y265493D01*
X383922Y265662D01*
X384643Y266144D01*
X385125Y266865D01*
X385295Y267717D01*
X385125Y268568D01*
X384643Y269289D01*
X383922Y269771D01*
X383071Y269940D01*
D02*
G37*
G36*
X353071Y272811D02*
X352220Y272642D01*
X351498Y272160D01*
X351016Y271439D01*
X350847Y270587D01*
X351016Y269737D01*
X351498Y269015D01*
X351444Y268450D01*
X351105Y268223D01*
X350623Y267502D01*
X350453Y266651D01*
X350623Y265800D01*
X351105Y265078D01*
X351826Y264596D01*
X352677Y264427D01*
X353528Y264596D01*
X354250Y265078D01*
X354732Y265800D01*
X354901Y266651D01*
X354732Y267502D01*
X354250Y268223D01*
X354304Y268788D01*
X354643Y269015D01*
X355125Y269737D01*
X355295Y270587D01*
X355125Y271439D01*
X354643Y272160D01*
X353922Y272642D01*
X353071Y272811D01*
D02*
G37*
G36*
X540158Y265610D02*
X539306Y265440D01*
X538585Y264958D01*
X538103Y264237D01*
X537934Y263386D01*
X538103Y262535D01*
X538585Y261813D01*
X539306Y261331D01*
X540158Y261162D01*
X541009Y261331D01*
X541730Y261813D01*
X542212Y262535D01*
X542381Y263386D01*
X542212Y264237D01*
X541730Y264958D01*
X541009Y265440D01*
X540158Y265610D01*
D02*
G37*
G36*
X535433Y262854D02*
X534582Y262684D01*
X533861Y262202D01*
X533379Y261481D01*
X533209Y260630D01*
X533379Y259779D01*
X533861Y259057D01*
X534582Y258575D01*
X535433Y258406D01*
X536284Y258575D01*
X537006Y259057D01*
X537488Y259779D01*
X537657Y260630D01*
X537488Y261481D01*
X537006Y262202D01*
X536284Y262684D01*
X535433Y262854D01*
D02*
G37*
G36*
X517717Y253011D02*
X516865Y252842D01*
X516144Y252360D01*
X515662Y251638D01*
X515493Y250787D01*
X515662Y249936D01*
X516144Y249215D01*
X516865Y248733D01*
X517717Y248564D01*
X518568Y248733D01*
X519289Y249215D01*
X519771Y249936D01*
X519940Y250787D01*
X519771Y251638D01*
X519289Y252360D01*
X518568Y252842D01*
X517717Y253011D01*
D02*
G37*
G36*
X387385Y243956D02*
X386534Y243787D01*
X385812Y243305D01*
X385330Y242583D01*
X385161Y241732D01*
X385330Y240881D01*
X385812Y240160D01*
X386534Y239678D01*
X387385Y239508D01*
X388236Y239678D01*
X388957Y240160D01*
X389439Y240881D01*
X389609Y241732D01*
X389439Y242583D01*
X388957Y243305D01*
X388236Y243787D01*
X387385Y243956D01*
D02*
G37*
G36*
X348819Y238051D02*
X347968Y237881D01*
X347246Y237399D01*
X346764Y236678D01*
X346595Y235827D01*
X346764Y234976D01*
X347246Y234254D01*
X347968Y233772D01*
X348819Y233603D01*
X349670Y233772D01*
X350391Y234254D01*
X350873Y234976D01*
X351043Y235827D01*
X350873Y236678D01*
X350391Y237399D01*
X349670Y237881D01*
X348819Y238051D01*
D02*
G37*
G36*
X356693Y234507D02*
X355842Y234338D01*
X355120Y233856D01*
X354638Y233135D01*
X354469Y232283D01*
X354638Y231432D01*
X355120Y230711D01*
X355842Y230229D01*
X356693Y230060D01*
X357544Y230229D01*
X358265Y230711D01*
X358748Y231432D01*
X358917Y232283D01*
X358748Y233135D01*
X358265Y233856D01*
X357544Y234338D01*
X356693Y234507D01*
D02*
G37*
G36*
X346063Y228995D02*
X345212Y228826D01*
X344491Y228344D01*
X344008Y227623D01*
X343839Y226772D01*
X344008Y225921D01*
X344491Y225199D01*
X345212Y224717D01*
X346063Y224548D01*
X346914Y224717D01*
X347636Y225199D01*
X348117Y225921D01*
X348287Y226772D01*
X348117Y227623D01*
X347636Y228344D01*
X346914Y228826D01*
X346063Y228995D01*
D02*
G37*
G36*
X339370Y222696D02*
X338519Y222527D01*
X337798Y222045D01*
X337505Y221608D01*
X336904D01*
X336612Y222045D01*
X335890Y222527D01*
X335039Y222696D01*
X334188Y222527D01*
X333467Y222045D01*
X332985Y221323D01*
X332816Y220472D01*
X332985Y219621D01*
X333467Y218900D01*
X334188Y218418D01*
X335039Y218249D01*
X335890Y218418D01*
X336612Y218900D01*
X336904Y219337D01*
X337505D01*
X337798Y218900D01*
X338519Y218418D01*
X339370Y218249D01*
X340221Y218418D01*
X340943Y218900D01*
X341425Y219621D01*
X341594Y220472D01*
X341425Y221323D01*
X340943Y222045D01*
X340221Y222527D01*
X339370Y222696D01*
D02*
G37*
G36*
X344488Y216003D02*
X343636Y215834D01*
X342915Y215352D01*
X342433Y214630D01*
X342264Y213779D01*
X342433Y212928D01*
X342915Y212207D01*
X343636Y211724D01*
X344488Y211555D01*
X345339Y211724D01*
X346060Y212207D01*
X346542Y212928D01*
X346711Y213779D01*
X346542Y214630D01*
X346060Y215352D01*
X345339Y215834D01*
X344488Y216003D01*
D02*
G37*
%LPD*%
G36*
X249606Y280315D02*
X233071D01*
Y357874D01*
X249606D01*
Y280315D01*
D02*
G37*
%LPC*%
G36*
X241445Y357242D02*
Y355618D01*
X243069D01*
X242999Y355969D01*
X242517Y356691D01*
X241796Y357173D01*
X241445Y357242D01*
D02*
G37*
G36*
X240445D02*
X240094Y357173D01*
X239372Y356691D01*
X238890Y355969D01*
X238821Y355618D01*
X240445D01*
Y357242D01*
D02*
G37*
G36*
X243069Y354618D02*
X241445D01*
Y352994D01*
X241796Y353064D01*
X242517Y353546D01*
X242999Y354267D01*
X243069Y354618D01*
D02*
G37*
G36*
X240445D02*
X238821D01*
X238890Y354267D01*
X239372Y353546D01*
X240094Y353064D01*
X240445Y352994D01*
Y354618D01*
D02*
G37*
G36*
X239476Y332833D02*
Y331209D01*
X241101D01*
X241031Y331560D01*
X240549Y332281D01*
X239827Y332763D01*
X239476Y332833D01*
D02*
G37*
G36*
X238476D02*
X238125Y332763D01*
X237404Y332281D01*
X236922Y331560D01*
X236852Y331209D01*
X238476D01*
Y332833D01*
D02*
G37*
G36*
X241101Y330209D02*
X239476D01*
Y328584D01*
X239827Y328654D01*
X240549Y329136D01*
X241031Y329858D01*
X241101Y330209D01*
D02*
G37*
G36*
X238476D02*
X236852D01*
X236922Y329858D01*
X237404Y329136D01*
X238125Y328654D01*
X238476Y328584D01*
Y330209D01*
D02*
G37*
G36*
X242626Y317085D02*
Y315461D01*
X244250D01*
X244180Y315812D01*
X243699Y316533D01*
X242977Y317015D01*
X242626Y317085D01*
D02*
G37*
G36*
X241626D02*
X241275Y317015D01*
X240553Y316533D01*
X240071Y315812D01*
X240002Y315461D01*
X241626D01*
Y317085D01*
D02*
G37*
G36*
X244250Y314461D02*
X242626D01*
Y312836D01*
X242977Y312906D01*
X243699Y313388D01*
X244180Y314110D01*
X244250Y314461D01*
D02*
G37*
G36*
X241626D02*
X240002D01*
X240071Y314110D01*
X240553Y313388D01*
X241275Y312906D01*
X241626Y312836D01*
Y314461D01*
D02*
G37*
G36*
X241339Y310098D02*
X240488Y309929D01*
X239766Y309447D01*
X239284Y308725D01*
X239115Y307874D01*
X239284Y307023D01*
X239766Y306301D01*
X240488Y305820D01*
X241339Y305650D01*
X242190Y305820D01*
X242911Y306301D01*
X243393Y307023D01*
X243562Y307874D01*
X243393Y308725D01*
X242911Y309447D01*
X242190Y309929D01*
X241339Y310098D01*
D02*
G37*
G36*
X238688Y297006D02*
Y295381D01*
X240313D01*
X240243Y295732D01*
X239761Y296454D01*
X239039Y296936D01*
X238688Y297006D01*
D02*
G37*
G36*
X237688D02*
X237337Y296936D01*
X236616Y296454D01*
X236134Y295732D01*
X236064Y295381D01*
X237688D01*
Y297006D01*
D02*
G37*
G36*
X240313Y294381D02*
X238688D01*
Y292757D01*
X239039Y292827D01*
X239761Y293309D01*
X240243Y294030D01*
X240313Y294381D01*
D02*
G37*
G36*
X237688D02*
X236064D01*
X236134Y294030D01*
X236616Y293309D01*
X237337Y292827D01*
X237688Y292757D01*
Y294381D01*
D02*
G37*
G36*
X241051Y285983D02*
Y284358D01*
X242676D01*
X242606Y284709D01*
X242124Y285431D01*
X241402Y285913D01*
X241051Y285983D01*
D02*
G37*
G36*
X240051D02*
X239700Y285913D01*
X238979Y285431D01*
X238497Y284709D01*
X238427Y284358D01*
X240051D01*
Y285983D01*
D02*
G37*
G36*
X242676Y283358D02*
X241051D01*
Y281734D01*
X241402Y281804D01*
X242124Y282286D01*
X242606Y283007D01*
X242676Y283358D01*
D02*
G37*
G36*
X240051D02*
X238427D01*
X238497Y283007D01*
X238979Y282286D01*
X239700Y281804D01*
X240051Y281734D01*
Y283358D01*
D02*
G37*
%LPD*%
G36*
X250394Y178347D02*
X232283D01*
X232283Y256693D01*
X250394D01*
X250394Y178347D01*
D02*
G37*
%LPC*%
G36*
X235933Y255274D02*
Y253650D01*
X237557D01*
X237488Y254001D01*
X237006Y254722D01*
X236284Y255204D01*
X235933Y255274D01*
D02*
G37*
G36*
X234933D02*
X234582Y255204D01*
X233861Y254722D01*
X233379Y254001D01*
X233309Y253650D01*
X234933D01*
Y255274D01*
D02*
G37*
G36*
X237557Y252650D02*
X235933D01*
Y251025D01*
X236284Y251095D01*
X237006Y251577D01*
X237488Y252299D01*
X237557Y252650D01*
D02*
G37*
G36*
X234933D02*
X233309D01*
X233379Y252299D01*
X233861Y251577D01*
X234582Y251095D01*
X234933Y251025D01*
Y252650D01*
D02*
G37*
G36*
X235646Y230364D02*
Y228740D01*
X237270D01*
X237200Y229091D01*
X236718Y229813D01*
X235997Y230295D01*
X235646Y230364D01*
D02*
G37*
G36*
X234646D02*
X234295Y230295D01*
X233573Y229813D01*
X233091Y229091D01*
X233021Y228740D01*
X234646D01*
Y230364D01*
D02*
G37*
G36*
X237270Y227740D02*
X235646D01*
Y226116D01*
X235997Y226186D01*
X236718Y226668D01*
X237200Y227389D01*
X237270Y227740D01*
D02*
G37*
G36*
X234646D02*
X233021D01*
X233091Y227389D01*
X233573Y226668D01*
X234295Y226186D01*
X234646Y226116D01*
Y227740D01*
D02*
G37*
G36*
X247350Y206455D02*
Y204831D01*
X248975D01*
X248905Y205182D01*
X248423Y205903D01*
X247701Y206385D01*
X247350Y206455D01*
D02*
G37*
G36*
X246350D02*
X245999Y206385D01*
X245278Y205903D01*
X244796Y205182D01*
X244726Y204831D01*
X246350D01*
Y206455D01*
D02*
G37*
G36*
X236327D02*
Y204831D01*
X237951D01*
X237881Y205182D01*
X237399Y205903D01*
X236678Y206385D01*
X236327Y206455D01*
D02*
G37*
G36*
X235327D02*
X234976Y206385D01*
X234254Y205903D01*
X233772Y205182D01*
X233702Y204831D01*
X235327D01*
Y206455D01*
D02*
G37*
G36*
X248975Y203831D02*
X247350D01*
Y202206D01*
X247701Y202276D01*
X248423Y202758D01*
X248905Y203480D01*
X248975Y203831D01*
D02*
G37*
G36*
X246350D02*
X244726D01*
X244796Y203480D01*
X245278Y202758D01*
X245999Y202276D01*
X246350Y202206D01*
Y203831D01*
D02*
G37*
G36*
X237951D02*
X236327D01*
Y202206D01*
X236678Y202276D01*
X237399Y202758D01*
X237881Y203480D01*
X237951Y203831D01*
D02*
G37*
G36*
X235327D02*
X233702D01*
X233772Y203480D01*
X234254Y202758D01*
X234976Y202276D01*
X235327Y202206D01*
Y203831D01*
D02*
G37*
G36*
X240945Y200255D02*
X240094Y200086D01*
X239372Y199604D01*
X238890Y198882D01*
X238721Y198031D01*
X238890Y197180D01*
X239372Y196459D01*
X240094Y195977D01*
X240945Y195808D01*
X241796Y195977D01*
X242517Y196459D01*
X242999Y197180D01*
X243169Y198031D01*
X242999Y198882D01*
X242517Y199604D01*
X241796Y200086D01*
X240945Y200255D01*
D02*
G37*
G36*
X236720Y183620D02*
Y181996D01*
X238345D01*
X238275Y182347D01*
X237793Y183069D01*
X237071Y183551D01*
X236720Y183620D01*
D02*
G37*
G36*
X235720D02*
X235369Y183551D01*
X234648Y183069D01*
X234166Y182347D01*
X234096Y181996D01*
X235720D01*
Y183620D01*
D02*
G37*
G36*
X238345Y180996D02*
X236720D01*
Y179372D01*
X237071Y179441D01*
X237793Y179924D01*
X238275Y180645D01*
X238345Y180996D01*
D02*
G37*
G36*
X235720D02*
X234096D01*
X234166Y180645D01*
X234648Y179924D01*
X235369Y179441D01*
X235720Y179372D01*
Y180996D01*
D02*
G37*
%LPD*%
G36*
X248819Y104331D02*
X243655D01*
Y105879D01*
X243699Y105908D01*
X244180Y106629D01*
X244250Y106980D01*
X240002D01*
X240071Y106629D01*
X240553Y105908D01*
X240597Y105879D01*
Y104331D01*
X233858D01*
Y153150D01*
X248819D01*
Y104331D01*
D02*
G37*
%LPC*%
G36*
X239083Y150943D02*
Y149319D01*
X240707D01*
X240637Y149670D01*
X240155Y150391D01*
X239434Y150873D01*
X239083Y150943D01*
D02*
G37*
G36*
X238083D02*
X237732Y150873D01*
X237010Y150391D01*
X236528Y149670D01*
X236458Y149319D01*
X238083D01*
Y150943D01*
D02*
G37*
G36*
X240707Y148319D02*
X239083D01*
Y146695D01*
X239434Y146764D01*
X240155Y147246D01*
X240637Y147968D01*
X240707Y148319D01*
D02*
G37*
G36*
X238083D02*
X236458D01*
X236528Y147968D01*
X237010Y147246D01*
X237732Y146764D01*
X238083Y146695D01*
Y148319D01*
D02*
G37*
G36*
X244988Y137164D02*
Y135539D01*
X246613D01*
X246543Y135890D01*
X246061Y136612D01*
X245339Y137094D01*
X244988Y137164D01*
D02*
G37*
G36*
X243988D02*
X243637Y137094D01*
X242916Y136612D01*
X242434Y135890D01*
X242364Y135539D01*
X243988D01*
Y137164D01*
D02*
G37*
G36*
X246613Y134539D02*
X244988D01*
Y132915D01*
X245339Y132985D01*
X246061Y133467D01*
X246543Y134188D01*
X246613Y134539D01*
D02*
G37*
G36*
X243988D02*
X242364D01*
X242434Y134188D01*
X242916Y133467D01*
X243637Y132985D01*
X243988Y132915D01*
Y134539D01*
D02*
G37*
G36*
X241339Y132145D02*
X240488Y131976D01*
X239766Y131494D01*
X239284Y130772D01*
X239115Y129921D01*
X239284Y129070D01*
X239766Y128349D01*
X240488Y127867D01*
X241339Y127697D01*
X242190Y127867D01*
X242911Y128349D01*
X243393Y129070D01*
X243562Y129921D01*
X243393Y130772D01*
X242911Y131494D01*
X242190Y131976D01*
X241339Y132145D01*
D02*
G37*
G36*
X238689Y128109D02*
Y126484D01*
X240313D01*
X240244Y126835D01*
X239761Y127557D01*
X239040Y128039D01*
X238689Y128109D01*
D02*
G37*
G36*
X237689D02*
X237338Y128039D01*
X236616Y127557D01*
X236134Y126835D01*
X236065Y126484D01*
X237689D01*
Y128109D01*
D02*
G37*
G36*
X240313Y125484D02*
X238689D01*
Y123860D01*
X239040Y123930D01*
X239761Y124412D01*
X240244Y125133D01*
X240313Y125484D01*
D02*
G37*
G36*
X237689D02*
X236065D01*
X236134Y125133D01*
X236616Y124412D01*
X237338Y123930D01*
X237689Y123860D01*
Y125484D01*
D02*
G37*
G36*
X242626Y109605D02*
Y107980D01*
X244250D01*
X244180Y108331D01*
X243699Y109053D01*
X242977Y109535D01*
X242626Y109605D01*
D02*
G37*
G36*
X241626D02*
X241275Y109535D01*
X240553Y109053D01*
X240071Y108331D01*
X240002Y107980D01*
X241626D01*
Y109605D01*
D02*
G37*
%LPD*%
D11*
X384055Y325000D02*
X384252Y324803D01*
X384055Y325000D02*
Y340354D01*
X383858Y340551D02*
X384055Y340354D01*
X338976Y348819D02*
Y352362D01*
X327953Y337795D02*
X338976Y348819D01*
X301181Y333465D02*
Y345475D01*
X298425Y348231D02*
X301181Y345475D01*
X298425Y348231D02*
Y360056D01*
X520866Y328723D02*
X523605Y325984D01*
X520866Y328723D02*
Y341732D01*
X499606Y277165D02*
X504724D01*
X496850Y274410D02*
X499606Y277165D01*
X495276Y329134D02*
Y333858D01*
X492520Y326378D02*
X495276Y329134D01*
X441485Y305118D02*
X442125D01*
X441484Y308661D02*
X441732D01*
X433071Y256299D02*
X442126D01*
X432677Y255906D02*
X433071Y256299D01*
X410236Y337795D02*
Y349606D01*
X242126Y74016D02*
Y107480D01*
X441732Y128740D02*
Y191732D01*
X471260Y300000D02*
X476378Y305118D01*
X346457Y29528D02*
X346850Y29921D01*
X346457Y4331D02*
Y29528D01*
X293914Y30742D02*
X293948Y30709D01*
X329776D02*
X335288Y36220D01*
X293948Y30709D02*
X329776D01*
X349606Y7087D02*
Y33071D01*
X335288Y36220D02*
X353937D01*
X444095Y19685D02*
X468504D01*
X473819Y82480D02*
X474016Y82284D01*
X460433Y82480D02*
X473819D01*
X460236Y82677D02*
X460433Y82480D01*
X474555Y62205D02*
X477534D01*
X458268Y45918D02*
X474555Y62205D01*
X458268Y37402D02*
Y45918D01*
X360236Y40157D02*
Y103150D01*
X401575Y89370D02*
X409055D01*
D125*
X553937Y404740D02*
D03*
X511811D02*
D03*
X389764Y405135D02*
D03*
X473622Y404741D02*
D03*
D126*
X553937Y416551D02*
D03*
X542126Y420252D02*
D03*
X565748D02*
D03*
X511811Y416551D02*
D03*
X500000Y420252D02*
D03*
X523622D02*
D03*
X330709Y416946D02*
D03*
X342520D02*
D03*
X401575Y420647D02*
D03*
X318898D02*
D03*
X377953Y405135D02*
D03*
X366142D02*
D03*
X354331D02*
D03*
X330709D02*
D03*
X389370Y416946D02*
D03*
X377559D02*
D03*
X365748D02*
D03*
X342520Y405135D02*
D03*
X354331Y416946D02*
D03*
X438189Y416552D02*
D03*
X450000D02*
D03*
X461811D02*
D03*
X473622D02*
D03*
X438189Y404741D02*
D03*
X450000D02*
D03*
X461811D02*
D03*
X426378Y420253D02*
D03*
X485433D02*
D03*
X572284Y225984D02*
D03*
Y214173D02*
D03*
Y178740D02*
D03*
X560472Y202362D02*
D03*
X572284Y167323D02*
D03*
Y155512D02*
D03*
X560472Y225984D02*
D03*
Y214173D02*
D03*
Y190551D02*
D03*
Y178740D02*
D03*
Y166929D02*
D03*
X575984Y237795D02*
D03*
Y143307D02*
D03*
X572284Y190551D02*
D03*
Y202362D02*
D03*
X572835Y272047D02*
D03*
X576535Y283858D02*
D03*
Y260236D02*
D03*
X572284Y329528D02*
D03*
X575984Y341339D02*
D03*
Y317717D02*
D03*
D127*
X43701Y363779D02*
D03*
Y377559D02*
D03*
Y391339D02*
D03*
X25591D02*
D03*
Y377559D02*
D03*
Y141732D02*
D03*
Y127953D02*
D03*
Y114173D02*
D03*
Y100394D02*
D03*
X179528Y405134D02*
D03*
X165748D02*
D03*
X425197Y275984D02*
D03*
X413386D02*
D03*
Y287795D02*
D03*
X425197Y224410D02*
D03*
X413386D02*
D03*
Y236221D02*
D03*
D128*
X25591Y363779D02*
D03*
Y86614D02*
D03*
X425197Y287795D02*
D03*
Y236221D02*
D03*
D129*
X106546Y423228D02*
D03*
D130*
X96546D02*
D03*
D131*
X580709D02*
D03*
X9843D02*
D03*
Y9843D02*
D03*
X581496Y9055D02*
D03*
X463386D02*
D03*
X581496Y107480D02*
D03*
X463386D02*
D03*
D132*
X47087Y182598D02*
D03*
X37087D02*
D03*
X27087D02*
D03*
X17087D02*
D03*
X47087Y192598D02*
D03*
X37087D02*
D03*
X27087D02*
D03*
X17087D02*
D03*
X47087Y202598D02*
D03*
X37087D02*
D03*
X27087D02*
D03*
X17087D02*
D03*
X47087Y222598D02*
D03*
X37087D02*
D03*
X27087D02*
D03*
X17087D02*
D03*
X57087Y182598D02*
D03*
Y192598D02*
D03*
Y202598D02*
D03*
Y222598D02*
D03*
X17087Y212598D02*
D03*
X27087D02*
D03*
X37087D02*
D03*
X57087D02*
D03*
X47087D02*
D03*
Y277087D02*
D03*
X37087D02*
D03*
X27087D02*
D03*
X17087D02*
D03*
X47087Y287087D02*
D03*
X37087D02*
D03*
X27087D02*
D03*
X17087D02*
D03*
X47087Y297087D02*
D03*
X37087D02*
D03*
X27087D02*
D03*
X17087D02*
D03*
X47087Y317087D02*
D03*
X37087D02*
D03*
X27087D02*
D03*
X17087D02*
D03*
X57087Y277087D02*
D03*
Y287087D02*
D03*
Y297087D02*
D03*
Y317087D02*
D03*
X17087Y307087D02*
D03*
X27087D02*
D03*
X37087D02*
D03*
X57087D02*
D03*
X47087D02*
D03*
D133*
X151969Y405134D02*
D03*
D134*
X560472Y155118D02*
D03*
X561024Y272047D02*
D03*
X560472Y329528D02*
D03*
D135*
X469291Y30512D02*
D03*
Y86024D02*
D03*
D136*
X127441Y353937D02*
D03*
X74410D02*
D03*
X127441Y367323D02*
D03*
X74410D02*
D03*
X127441Y112598D02*
D03*
X74410D02*
D03*
X127441Y125984D02*
D03*
X74410D02*
D03*
X127441Y242525D02*
D03*
X74410D02*
D03*
X127441Y255910D02*
D03*
X74410D02*
D03*
D137*
X182677Y53150D02*
D03*
Y172047D02*
D03*
X153940Y52365D02*
D03*
X289763Y342913D02*
D03*
X532283Y324803D02*
D03*
X335039Y338189D02*
D03*
X428740Y200787D02*
D03*
X438583Y205512D02*
D03*
X395669Y191732D02*
D03*
X405811Y202850D02*
D03*
X395669Y198425D02*
D03*
X405905Y195276D02*
D03*
X521654Y74803D02*
D03*
X524803Y79921D02*
D03*
X314173Y51968D02*
D03*
X501968Y38976D02*
D03*
X499213Y32677D02*
D03*
X512992Y32283D02*
D03*
X515354Y39370D02*
D03*
X246850Y204331D02*
D03*
X235146Y228240D02*
D03*
X489764Y351575D02*
D03*
X408661Y328346D02*
D03*
X571260Y128740D02*
D03*
X229134Y24409D02*
D03*
X501181Y342126D02*
D03*
X507874Y338976D02*
D03*
X511417Y344882D02*
D03*
X515354Y340945D02*
D03*
X500787Y374016D02*
D03*
X496850Y381890D02*
D03*
X500787Y380315D02*
D03*
X496457Y377559D02*
D03*
X510630Y359842D02*
D03*
X461811Y363779D02*
D03*
X411024Y368898D02*
D03*
X416535Y366929D02*
D03*
Y346850D02*
D03*
X410236Y333858D02*
D03*
X448032Y340945D02*
D03*
X450394Y335827D02*
D03*
X522835Y191339D02*
D03*
X519685Y185433D02*
D03*
X295276Y377165D02*
D03*
X299606Y365748D02*
D03*
X295669Y370472D02*
D03*
X320866Y287795D02*
D03*
X322441Y291339D02*
D03*
X324410Y294882D02*
D03*
X320866Y295276D02*
D03*
X321260Y303937D02*
D03*
X334252Y316142D02*
D03*
X330709Y313779D02*
D03*
X375197Y329528D02*
D03*
X370079D02*
D03*
X331496Y281890D02*
D03*
X333858Y285039D02*
D03*
X331890Y256693D02*
D03*
X330315Y251969D02*
D03*
X325590Y262205D02*
D03*
X327953Y258661D02*
D03*
X324803Y254331D02*
D03*
X326772Y250000D02*
D03*
X325984Y246457D02*
D03*
X332677Y214173D02*
D03*
X329921Y217323D02*
D03*
X327559Y221260D02*
D03*
X326378Y225197D02*
D03*
X281890Y211811D02*
D03*
X283858Y224410D02*
D03*
X286221Y229134D02*
D03*
X282283Y234646D02*
D03*
X285827Y240551D02*
D03*
X282283Y246063D02*
D03*
X285433Y253543D02*
D03*
X282283Y261811D02*
D03*
X284646Y270079D02*
D03*
X282283Y278346D02*
D03*
X283465Y287402D02*
D03*
X283858Y295669D02*
D03*
X281890Y314961D02*
D03*
X279528Y322835D02*
D03*
X279921Y333465D02*
D03*
X305512Y324410D02*
D03*
X301575Y321260D02*
D03*
X305906Y318504D02*
D03*
X302756Y315354D02*
D03*
X304331Y310236D02*
D03*
X299213Y300394D02*
D03*
X301969Y298031D02*
D03*
X299213Y294094D02*
D03*
X302362Y284646D02*
D03*
X283465Y217717D02*
D03*
X289764Y222047D02*
D03*
X288583Y212598D02*
D03*
X294094Y215354D02*
D03*
X300000Y230315D02*
D03*
X298819Y239370D02*
D03*
X301181Y248031D02*
D03*
Y235827D02*
D03*
X300787Y243307D02*
D03*
X300394Y253150D02*
D03*
X301969Y262205D02*
D03*
X300000Y257480D02*
D03*
X301969Y276772D02*
D03*
X298819Y272441D02*
D03*
X301969Y268898D02*
D03*
X299213Y265354D02*
D03*
X299606Y280709D02*
D03*
X300394Y288583D02*
D03*
X323622Y300000D02*
D03*
X505118Y347244D02*
D03*
X534252Y181102D02*
D03*
Y186221D02*
D03*
X529921Y179134D02*
D03*
Y183465D02*
D03*
Y188583D02*
D03*
X522835Y299606D02*
D03*
Y295276D02*
D03*
X518504Y293307D02*
D03*
X518898Y298031D02*
D03*
X520472Y303543D02*
D03*
Y307874D02*
D03*
X537402Y378740D02*
D03*
X535039Y370866D02*
D03*
X543307Y371654D02*
D03*
X532283Y374803D02*
D03*
X531102Y380709D02*
D03*
X474409Y364961D02*
D03*
X481496Y361024D02*
D03*
X474409Y360630D02*
D03*
X481496Y364567D02*
D03*
X467717Y366142D02*
D03*
X429921Y362598D02*
D03*
X433071Y358268D02*
D03*
X437402Y357480D02*
D03*
X425197Y357874D02*
D03*
X437795Y364173D02*
D03*
X425591Y365354D02*
D03*
X349606Y370079D02*
D03*
X397244Y370866D02*
D03*
X390551Y374410D02*
D03*
X391339Y369291D02*
D03*
X394094Y375197D02*
D03*
X401181Y372047D02*
D03*
X401575Y376772D02*
D03*
X355906Y371260D02*
D03*
X346063Y373228D02*
D03*
X350787Y376378D02*
D03*
X358268Y376772D02*
D03*
X317717Y374016D02*
D03*
X318898Y377559D02*
D03*
X309055Y377165D02*
D03*
X313779Y373228D02*
D03*
X379528Y295669D02*
D03*
X375590Y280709D02*
D03*
X380315Y281890D02*
D03*
X375590Y293307D02*
D03*
Y222047D02*
D03*
X381102Y216535D02*
D03*
X379528Y223622D02*
D03*
X376772Y214961D02*
D03*
X286614Y377165D02*
D03*
X281890Y384252D02*
D03*
X325590Y377559D02*
D03*
X339370Y367717D02*
D03*
X310630Y369291D02*
D03*
X319291Y370079D02*
D03*
X367323Y208268D02*
D03*
X242126Y314961D02*
D03*
X238189Y294881D02*
D03*
X238976Y330709D02*
D03*
X235827Y204331D02*
D03*
X240945Y355118D02*
D03*
X240551Y283858D02*
D03*
X238189Y125984D02*
D03*
X244488Y135039D02*
D03*
X238583Y148819D02*
D03*
X241339Y129921D02*
D03*
Y307874D02*
D03*
X240945Y198031D02*
D03*
X235433Y253150D02*
D03*
X236221Y181496D02*
D03*
X225984Y80709D02*
D03*
X210236Y71260D02*
D03*
X177362Y204331D02*
D03*
X433465Y30315D02*
D03*
X430709Y100787D02*
D03*
X440158Y96850D02*
D03*
X574016Y119291D02*
D03*
X573622Y247244D02*
D03*
X525984Y172441D02*
D03*
X517717Y272458D02*
D03*
X517717Y250787D02*
D03*
X540158Y263386D02*
D03*
X535433Y260630D02*
D03*
X578346Y308661D02*
D03*
X496850Y274410D02*
D03*
X504724Y277165D02*
D03*
X546850Y315354D02*
D03*
X532283Y336221D02*
D03*
X527164Y329527D02*
D03*
X499606Y322835D02*
D03*
X496063Y291339D02*
D03*
X491339Y281890D02*
D03*
X492520Y301969D02*
D03*
X488976Y305512D02*
D03*
X481890Y296457D02*
D03*
X495276Y333858D02*
D03*
X492520Y326378D02*
D03*
X508268Y221654D02*
D03*
X504331Y222047D02*
D03*
X500394D02*
D03*
X513779Y79921D02*
D03*
Y84252D02*
D03*
X477953Y275197D02*
D03*
X476772Y283465D02*
D03*
X462992Y290945D02*
D03*
X477559Y268110D02*
D03*
X477165Y245276D02*
D03*
X463386Y233858D02*
D03*
X471260Y232233D02*
D03*
X474016Y214961D02*
D03*
X468898Y221654D02*
D03*
X362205Y303543D02*
D03*
X442125Y305118D02*
D03*
X441732Y308661D02*
D03*
Y312205D02*
D03*
X442126Y256299D02*
D03*
X432677Y255906D02*
D03*
X344488Y213779D02*
D03*
X339370Y220472D02*
D03*
X335039D02*
D03*
X339370Y210630D02*
D03*
X356693Y232283D02*
D03*
X348819Y235827D02*
D03*
X338189Y283071D02*
D03*
X334252Y278740D02*
D03*
X343307Y289370D02*
D03*
Y282283D02*
D03*
X336221Y294094D02*
D03*
X579921Y385827D02*
D03*
X510039Y373278D02*
D03*
X560236Y373228D02*
D03*
X576378Y370079D02*
D03*
X567323Y356299D02*
D03*
X522490Y361447D02*
D03*
X520866Y341732D02*
D03*
X535039Y340158D02*
D03*
X562205Y352362D02*
D03*
X500787Y357874D02*
D03*
X456693Y357480D02*
D03*
X410236Y349606D02*
D03*
X218110Y380315D02*
D03*
X411024Y382677D02*
D03*
X416142Y354724D02*
D03*
X446063Y352362D02*
D03*
X265748Y426772D02*
D03*
X379921Y388189D02*
D03*
X265748Y418110D02*
D03*
X380315Y369685D02*
D03*
X266142Y410630D02*
D03*
Y401575D02*
D03*
X265748Y393701D02*
D03*
Y384449D02*
D03*
X371260Y357480D02*
D03*
X328740Y366929D02*
D03*
X371654Y337008D02*
D03*
X362205Y338976D02*
D03*
X393068Y337950D02*
D03*
X369672Y346444D02*
D03*
X383858Y340551D02*
D03*
X399491Y339370D02*
D03*
X332677Y377953D02*
D03*
X338976Y352362D02*
D03*
X287402Y364780D02*
D03*
X346456Y294881D02*
D03*
X410236Y337795D02*
D03*
X458661Y333465D02*
D03*
X301969Y389370D02*
D03*
X298425Y360056D02*
D03*
X327953Y337795D02*
D03*
X384252Y324803D02*
D03*
X362205Y324016D02*
D03*
X345276Y321260D02*
D03*
X329528Y392126D02*
D03*
X355511Y341732D02*
D03*
X331772Y347126D02*
D03*
X319291Y338976D02*
D03*
X312598Y341732D02*
D03*
X299606Y129528D02*
D03*
X242126Y74016D02*
D03*
X301181Y333465D02*
D03*
X174606Y207874D02*
D03*
X196457Y241732D02*
D03*
X153150Y240158D02*
D03*
X513487Y233465D02*
D03*
X433858Y324803D02*
D03*
X432677Y319685D02*
D03*
X427165Y329134D02*
D03*
X462205Y325984D02*
D03*
X446063Y322835D02*
D03*
X454724Y195669D02*
D03*
X459449Y188583D02*
D03*
X441732Y191732D02*
D03*
X387385Y241732D02*
D03*
X346063Y226772D02*
D03*
X383071Y267717D02*
D03*
X352677Y266651D02*
D03*
X353071Y270587D02*
D03*
X373223Y186614D02*
D03*
X378346D02*
D03*
X368110D02*
D03*
X464783Y200217D02*
D03*
X388189Y186614D02*
D03*
X363386D02*
D03*
X469685Y196850D02*
D03*
X383465Y186614D02*
D03*
X474754Y132726D02*
D03*
X441732Y128740D02*
D03*
X393218Y129045D02*
D03*
X373228Y132283D02*
D03*
X429134D02*
D03*
X383071D02*
D03*
X471260Y300000D02*
D03*
X476378Y305118D02*
D03*
X298425Y338189D02*
D03*
X345276Y80709D02*
D03*
X337795Y44488D02*
D03*
X534252Y155905D02*
D03*
X484646Y175591D02*
D03*
X474606D02*
D03*
X479724D02*
D03*
X449606Y174803D02*
D03*
X528346Y139764D02*
D03*
X358268Y174803D02*
D03*
X403937D02*
D03*
X446063Y150394D02*
D03*
X417717Y333465D02*
D03*
X478740Y318898D02*
D03*
X468898Y329134D02*
D03*
X488189Y339764D02*
D03*
X442126Y317323D02*
D03*
X492520Y259449D02*
D03*
X485827Y261417D02*
D03*
X475591Y207711D02*
D03*
Y222064D02*
D03*
X473622Y228166D02*
D03*
X288661Y348819D02*
D03*
X558693Y29559D02*
D03*
X554954Y32119D02*
D03*
X551729Y34800D02*
D03*
X548425Y37402D02*
D03*
X408661Y59449D02*
D03*
X437402Y85433D02*
D03*
X424016Y64173D02*
D03*
X422834Y67716D02*
D03*
Y71260D02*
D03*
X424015Y74803D02*
D03*
X424016Y78347D02*
D03*
X438976Y118504D02*
D03*
X366929Y18898D02*
D03*
X293307Y30709D02*
D03*
X295276Y40551D02*
D03*
X5906Y52362D02*
D03*
X42126Y24803D02*
D03*
X166240Y23327D02*
D03*
X164173Y14190D02*
D03*
X146457Y25984D02*
D03*
X219291Y17323D02*
D03*
X188189Y13780D02*
D03*
X318110Y40945D02*
D03*
X318898Y13780D02*
D03*
X322441Y14961D02*
D03*
X335039Y13780D02*
D03*
X309449Y18898D02*
D03*
X325984Y25984D02*
D03*
X327559Y35827D02*
D03*
X346850Y29921D02*
D03*
X343701Y24409D02*
D03*
X349606Y33071D02*
D03*
X346457Y4331D02*
D03*
X349606Y7087D02*
D03*
X353937Y36220D02*
D03*
X356693Y24409D02*
D03*
X388189Y24016D02*
D03*
X542520Y332677D02*
D03*
X544882Y128740D02*
D03*
X550000Y124803D02*
D03*
X523605Y325984D02*
D03*
X468504Y19685D02*
D03*
X444095D02*
D03*
X248819Y32283D02*
D03*
X273622Y39370D02*
D03*
X286614D02*
D03*
X261417Y12205D02*
D03*
X368110Y150394D02*
D03*
X459739Y150290D02*
D03*
X489764Y150394D02*
D03*
X414075Y150690D02*
D03*
X398322Y150290D02*
D03*
X378346Y150394D02*
D03*
X418504Y119685D02*
D03*
X392520Y118898D02*
D03*
X363779Y118504D02*
D03*
X397638Y93701D02*
D03*
X161417Y120079D02*
D03*
X74016Y77165D02*
D03*
X98032Y39370D02*
D03*
X82677Y40157D02*
D03*
X45472Y31299D02*
D03*
X45079Y41535D02*
D03*
X67323Y47638D02*
D03*
X142126Y39370D02*
D03*
X210762Y14075D02*
D03*
X502756Y60236D02*
D03*
X505118Y56299D02*
D03*
X508661Y53937D02*
D03*
X495276Y108268D02*
D03*
X504331D02*
D03*
X519290Y68897D02*
D03*
X453150Y92913D02*
D03*
X460236Y82677D02*
D03*
X453150Y68110D02*
D03*
X428740Y7087D02*
D03*
X422047D02*
D03*
X417717Y4331D02*
D03*
X410630D02*
D03*
X424409Y51968D02*
D03*
X335039Y10236D02*
D03*
X409055Y136221D02*
D03*
X363386D02*
D03*
X403937Y138976D02*
D03*
X358268D02*
D03*
X476772Y68110D02*
D03*
X477534Y62205D02*
D03*
X482283Y83858D02*
D03*
X454724Y136221D02*
D03*
X449606Y138976D02*
D03*
X476771Y76378D02*
D03*
Y72047D02*
D03*
X535950Y146169D02*
D03*
X474409Y51181D02*
D03*
Y297638D02*
D03*
X474802Y55905D02*
D03*
X474016Y82284D02*
D03*
X365748Y61417D02*
D03*
X342520Y53166D02*
D03*
X458268Y37402D02*
D03*
X462598Y40551D02*
D03*
X406299Y23622D02*
D03*
X379921Y36220D02*
D03*
X282677Y26772D02*
D03*
X284646Y29921D02*
D03*
X277559Y18898D02*
D03*
X72441Y8268D02*
D03*
X360236Y40157D02*
D03*
X242126Y107480D02*
D03*
X169685Y159843D02*
D03*
X174409Y178346D02*
D03*
X179958Y178383D02*
D03*
X339370Y74410D02*
D03*
X217323Y190945D02*
D03*
X420472Y94882D02*
D03*
X370472Y100394D02*
D03*
X380315Y100000D02*
D03*
X409055Y89370D02*
D03*
X401575D02*
D03*
X406299Y64567D02*
D03*
X420472Y103150D02*
D03*
X374803Y90551D02*
D03*
X220472Y294882D02*
D03*
X366535Y85433D02*
D03*
X386614Y37795D02*
D03*
X412992Y34252D02*
D03*
X462598Y46457D02*
D03*
X404331Y45276D02*
D03*
X398425Y44488D02*
D03*
X174016D02*
D03*
X231890D02*
D03*
X261417D02*
D03*
X274016Y49606D02*
D03*
X264567D02*
D03*
X177559Y13780D02*
D03*
X360236Y103150D02*
D03*
X153943Y142514D02*
D03*
X164222Y161762D02*
D03*
X122047Y39764D02*
D03*
X72441Y19291D02*
D03*
X117716Y24128D02*
D03*
X380642Y18504D02*
D03*
X127953Y25591D02*
D03*
X14567Y24803D02*
D03*
X105905Y32677D02*
D03*
X150394Y153543D02*
D03*
X48819Y52362D02*
D03*
X194488Y24409D02*
D03*
X364173Y97244D02*
D03*
X172244Y219685D02*
D03*
X180118D02*
D03*
X366142Y66778D02*
D03*
X375591Y59298D02*
D03*
X374803Y52999D02*
D03*
X388334Y66555D02*
D03*
X385039Y71503D02*
D03*
X374803D02*
D03*
M02*
