G04*
G04 #@! TF.GenerationSoftware,Altium Limited,Altium Designer,19.1.7 (138)*
G04*
G04 Layer_Physical_Order=3*
G04 Layer_Color=16440176*
%FSLAX25Y25*%
%MOIN*%
G70*
G01*
G75*
%ADD11C,0.01000*%
%ADD126C,0.07087*%
%ADD127C,0.06299*%
%ADD128R,0.06299X0.06299*%
%ADD130R,0.05906X0.05906*%
%ADD132C,0.08661*%
%ADD134R,0.07087X0.07087*%
%ADD137C,0.02362*%
G36*
X589022Y1529D02*
X1529D01*
Y431541D01*
X589022D01*
X589022Y1529D01*
D02*
G37*
%LPC*%
G36*
X390945Y430269D02*
X301380D01*
X300795Y430153D01*
X300299Y429822D01*
X298778Y428301D01*
X267349D01*
X267320Y428344D01*
X266599Y428826D01*
X265748Y428996D01*
X264897Y428826D01*
X264176Y428344D01*
X263693Y427623D01*
X263524Y426772D01*
X263693Y425921D01*
X264176Y425199D01*
X264897Y424717D01*
X265748Y424548D01*
X266599Y424717D01*
X267320Y425199D01*
X267349Y425242D01*
X299411D01*
X299569Y425274D01*
X299815Y424813D01*
X294642Y419640D01*
X267349D01*
X267320Y419683D01*
X266599Y420165D01*
X265748Y420334D01*
X264897Y420165D01*
X264176Y419683D01*
X263693Y418961D01*
X263524Y418110D01*
X263693Y417259D01*
X264176Y416538D01*
X264897Y416056D01*
X265748Y415886D01*
X266599Y416056D01*
X267320Y416538D01*
X267349Y416581D01*
X295276D01*
X295861Y416697D01*
X296357Y417029D01*
X304177Y424849D01*
X316089D01*
X316259Y424349D01*
X315657Y423887D01*
X314929Y422938D01*
X314471Y421833D01*
X314315Y420647D01*
X314471Y419461D01*
X314929Y418355D01*
X315657Y417406D01*
X316606Y416678D01*
X317712Y416220D01*
X318898Y416064D01*
X320084Y416220D01*
X321189Y416678D01*
X322138Y417406D01*
X322866Y418355D01*
X323324Y419461D01*
X323480Y420647D01*
X323324Y421833D01*
X322866Y422938D01*
X322138Y423887D01*
X321536Y424349D01*
X321706Y424849D01*
X389130D01*
X393278Y420701D01*
Y409678D01*
X385221D01*
Y400592D01*
X393278D01*
Y397803D01*
X385193Y389718D01*
X381523D01*
X381494Y389761D01*
X380772Y390244D01*
X379921Y390413D01*
X379070Y390244D01*
X378349Y389761D01*
X377867Y389040D01*
X377697Y388189D01*
X377867Y387338D01*
X378349Y386616D01*
X379070Y386134D01*
X379921Y385965D01*
X380772Y386134D01*
X381494Y386616D01*
X381523Y386660D01*
X385827D01*
X386412Y386776D01*
X386908Y387107D01*
X394540Y394740D01*
X395002Y394548D01*
Y386535D01*
X380366Y371899D01*
X380315Y371909D01*
X379464Y371740D01*
X378743Y371257D01*
X378260Y370536D01*
X378091Y369685D01*
X378260Y368834D01*
X378743Y368113D01*
X379464Y367631D01*
X380315Y367461D01*
X381166Y367631D01*
X381887Y368113D01*
X382369Y368834D01*
X382539Y369685D01*
X382529Y369736D01*
X387970Y375178D01*
X388431Y374931D01*
X388327Y374410D01*
X388497Y373558D01*
X388979Y372837D01*
X389700Y372355D01*
X390551Y372186D01*
X391402Y372355D01*
X392124Y372837D01*
X392333Y373150D01*
X393023Y373289D01*
X393244Y373142D01*
X394094Y372973D01*
X394946Y373142D01*
X395667Y373624D01*
X396149Y374346D01*
X396318Y375197D01*
X396149Y376048D01*
X395667Y376769D01*
X394946Y377251D01*
X394094Y377421D01*
X393244Y377251D01*
X392522Y376769D01*
X392313Y376457D01*
X391622Y376317D01*
X391402Y376464D01*
X390551Y376633D01*
X390029Y376530D01*
X389783Y376990D01*
X397613Y384820D01*
X397944Y385316D01*
X398061Y385902D01*
Y416986D01*
X398561Y417233D01*
X399284Y416678D01*
X400389Y416220D01*
X401575Y416064D01*
X402761Y416220D01*
X403866Y416678D01*
X404815Y417406D01*
X405543Y418355D01*
X406001Y419461D01*
X406157Y420647D01*
X406001Y421833D01*
X405543Y422938D01*
X404815Y423887D01*
X403866Y424615D01*
X402761Y425073D01*
X401575Y425229D01*
X400389Y425073D01*
X399284Y424615D01*
X398379Y423921D01*
X398237Y423904D01*
X397780Y423985D01*
X397613Y424235D01*
X392026Y429822D01*
X391530Y430153D01*
X390945Y430269D01*
D02*
G37*
G36*
X106546Y427215D02*
X105514Y427079D01*
X104552Y426681D01*
X103726Y426048D01*
X103093Y425222D01*
X102695Y424260D01*
X102559Y423228D01*
X102695Y422196D01*
X103093Y421235D01*
X103726Y420409D01*
X104552Y419776D01*
X105514Y419377D01*
X106546Y419242D01*
X107577Y419377D01*
X108539Y419776D01*
X109365Y420409D01*
X109998Y421235D01*
X110397Y422196D01*
X110532Y423228D01*
X110397Y424260D01*
X109998Y425222D01*
X109365Y426048D01*
X108539Y426681D01*
X107577Y427079D01*
X106546Y427215D01*
D02*
G37*
G36*
X580709Y429574D02*
X579471Y429452D01*
X578280Y429091D01*
X577183Y428505D01*
X576222Y427715D01*
X575432Y426754D01*
X574846Y425657D01*
X574485Y424466D01*
X574363Y423228D01*
X574485Y421990D01*
X574846Y420800D01*
X575432Y419703D01*
X576222Y418741D01*
X577183Y417952D01*
X578280Y417366D01*
X579471Y417005D01*
X580709Y416883D01*
X581947Y417005D01*
X583137Y417366D01*
X584234Y417952D01*
X585196Y418741D01*
X585985Y419703D01*
X586571Y420800D01*
X586932Y421990D01*
X587054Y423228D01*
X586932Y424466D01*
X586571Y425657D01*
X585985Y426754D01*
X585196Y427715D01*
X584234Y428505D01*
X583137Y429091D01*
X581947Y429452D01*
X580709Y429574D01*
D02*
G37*
G36*
X9843D02*
X8605Y429452D01*
X7414Y429091D01*
X6317Y428505D01*
X5356Y427715D01*
X4566Y426754D01*
X3980Y425657D01*
X3619Y424466D01*
X3497Y423228D01*
X3619Y421990D01*
X3980Y420800D01*
X4566Y419703D01*
X5356Y418741D01*
X6317Y417952D01*
X7414Y417366D01*
X8605Y417005D01*
X9843Y416883D01*
X11080Y417005D01*
X12271Y417366D01*
X13368Y417952D01*
X14330Y418741D01*
X15119Y419703D01*
X15705Y420800D01*
X16066Y421990D01*
X16188Y423228D01*
X16066Y424466D01*
X15705Y425657D01*
X15119Y426754D01*
X14330Y427715D01*
X13368Y428505D01*
X12271Y429091D01*
X11080Y429452D01*
X9843Y429574D01*
D02*
G37*
G36*
X485433Y424835D02*
X484247Y424679D01*
X483142Y424222D01*
X482193Y423493D01*
X481464Y422544D01*
X481007Y421439D01*
X480851Y420253D01*
X481007Y419067D01*
X481464Y417962D01*
X482193Y417013D01*
X483142Y416284D01*
X484247Y415827D01*
X485433Y415670D01*
X486619Y415827D01*
X487724Y416284D01*
X488673Y417013D01*
X489402Y417962D01*
X489859Y419067D01*
X490016Y420253D01*
X489859Y421439D01*
X489402Y422544D01*
X488673Y423493D01*
X487724Y424222D01*
X486619Y424679D01*
X485433Y424835D01*
D02*
G37*
G36*
X426378D02*
X425192Y424679D01*
X424087Y424222D01*
X423138Y423493D01*
X422409Y422544D01*
X421952Y421439D01*
X421796Y420253D01*
X421952Y419067D01*
X422409Y417962D01*
X423138Y417013D01*
X424087Y416284D01*
X425192Y415827D01*
X426378Y415670D01*
X427564Y415827D01*
X428669Y416284D01*
X429618Y417013D01*
X430347Y417962D01*
X430804Y419067D01*
X430961Y420253D01*
X430804Y421439D01*
X430347Y422544D01*
X429618Y423493D01*
X428669Y424222D01*
X427564Y424679D01*
X426378Y424835D01*
D02*
G37*
G36*
X565748Y424834D02*
X564562Y424678D01*
X563457Y424221D01*
X562508Y423492D01*
X561779Y422543D01*
X561322Y421438D01*
X561166Y420252D01*
X561322Y419066D01*
X561779Y417961D01*
X562508Y417012D01*
X563457Y416283D01*
X564562Y415826D01*
X565748Y415669D01*
X566934Y415826D01*
X568039Y416283D01*
X568988Y417012D01*
X569717Y417961D01*
X570174Y419066D01*
X570330Y420252D01*
X570174Y421438D01*
X569717Y422543D01*
X568988Y423492D01*
X568039Y424221D01*
X566934Y424678D01*
X565748Y424834D01*
D02*
G37*
G36*
X542126D02*
X540940Y424678D01*
X539835Y424221D01*
X538886Y423492D01*
X538157Y422543D01*
X537700Y421438D01*
X537543Y420252D01*
X537700Y419066D01*
X538157Y417961D01*
X538886Y417012D01*
X539835Y416283D01*
X540940Y415826D01*
X542126Y415669D01*
X543312Y415826D01*
X544417Y416283D01*
X545366Y417012D01*
X546095Y417961D01*
X546552Y419066D01*
X546708Y420252D01*
X546552Y421438D01*
X546095Y422543D01*
X545366Y423492D01*
X544417Y424221D01*
X543312Y424678D01*
X542126Y424834D01*
D02*
G37*
G36*
X523622D02*
X522436Y424678D01*
X521331Y424221D01*
X520382Y423492D01*
X519654Y422543D01*
X519196Y421438D01*
X519039Y420252D01*
X519196Y419066D01*
X519654Y417961D01*
X520382Y417012D01*
X521331Y416283D01*
X522436Y415826D01*
X523622Y415669D01*
X524808Y415826D01*
X525913Y416283D01*
X526862Y417012D01*
X527591Y417961D01*
X528048Y419066D01*
X528204Y420252D01*
X528048Y421438D01*
X527591Y422543D01*
X526862Y423492D01*
X525913Y424221D01*
X524808Y424678D01*
X523622Y424834D01*
D02*
G37*
G36*
X500000D02*
X498814Y424678D01*
X497709Y424221D01*
X496760Y423492D01*
X496031Y422543D01*
X495574Y421438D01*
X495417Y420252D01*
X495574Y419066D01*
X496031Y417961D01*
X496760Y417012D01*
X497709Y416283D01*
X498814Y415826D01*
X500000Y415669D01*
X501186Y415826D01*
X502291Y416283D01*
X503240Y417012D01*
X503969Y417961D01*
X504426Y419066D01*
X504583Y420252D01*
X504426Y421438D01*
X503969Y422543D01*
X503240Y423492D01*
X502291Y424221D01*
X501186Y424678D01*
X500000Y424834D01*
D02*
G37*
G36*
X156118Y409283D02*
X147819D01*
Y404660D01*
X147319Y404561D01*
X146954Y405441D01*
X146068Y406596D01*
X144914Y407482D01*
X143569Y408039D01*
X142126Y408229D01*
X140683Y408039D01*
X139338Y407482D01*
X138184Y406596D01*
X137298Y405441D01*
X136741Y404097D01*
X136551Y402654D01*
X136741Y401211D01*
X137298Y399866D01*
X138184Y398711D01*
X139338Y397825D01*
X140683Y397268D01*
X142126Y397078D01*
X143569Y397268D01*
X144914Y397825D01*
X146068Y398711D01*
X146954Y399866D01*
X147368Y400865D01*
X147819Y400984D01*
X147959Y400984D01*
X156118D01*
Y409283D01*
D02*
G37*
G36*
X165748Y409319D02*
X164665Y409177D01*
X163655Y408758D01*
X162788Y408093D01*
X162123Y407227D01*
X161705Y406217D01*
X161563Y405134D01*
X161705Y404051D01*
X162123Y403041D01*
X162788Y402174D01*
X163655Y401509D01*
X164665Y401091D01*
X165748Y400948D01*
X166831Y401091D01*
X167841Y401509D01*
X168708Y402174D01*
X169373Y403041D01*
X169791Y404051D01*
X169933Y405134D01*
X169791Y406217D01*
X169373Y407227D01*
X168708Y408093D01*
X167841Y408758D01*
X166831Y409177D01*
X165748Y409319D01*
D02*
G37*
G36*
X377953Y409717D02*
X376767Y409561D01*
X375661Y409103D01*
X374712Y408375D01*
X373984Y407426D01*
X373526Y406321D01*
X373370Y405135D01*
X373526Y403949D01*
X373984Y402844D01*
X374712Y401895D01*
X375661Y401166D01*
X376767Y400708D01*
X377953Y400552D01*
X379139Y400708D01*
X380244Y401166D01*
X381193Y401895D01*
X381921Y402844D01*
X382379Y403949D01*
X382535Y405135D01*
X382379Y406321D01*
X381921Y407426D01*
X381193Y408375D01*
X380244Y409103D01*
X379139Y409561D01*
X377953Y409717D01*
D02*
G37*
G36*
X366142D02*
X364956Y409561D01*
X363850Y409103D01*
X362901Y408375D01*
X362173Y407426D01*
X361715Y406321D01*
X361559Y405135D01*
X361715Y403949D01*
X362173Y402844D01*
X362901Y401895D01*
X363850Y401166D01*
X364956Y400708D01*
X366142Y400552D01*
X367328Y400708D01*
X368433Y401166D01*
X369382Y401895D01*
X370110Y402844D01*
X370568Y403949D01*
X370724Y405135D01*
X370568Y406321D01*
X370110Y407426D01*
X369382Y408375D01*
X368433Y409103D01*
X367328Y409561D01*
X366142Y409717D01*
D02*
G37*
G36*
X354331D02*
X353145Y409561D01*
X352040Y409103D01*
X351090Y408375D01*
X350362Y407426D01*
X349904Y406321D01*
X349748Y405135D01*
X349904Y403949D01*
X350362Y402844D01*
X351090Y401895D01*
X352040Y401166D01*
X353145Y400708D01*
X354331Y400552D01*
X355517Y400708D01*
X356622Y401166D01*
X357571Y401895D01*
X358299Y402844D01*
X358757Y403949D01*
X358913Y405135D01*
X358757Y406321D01*
X358299Y407426D01*
X357571Y408375D01*
X356622Y409103D01*
X355517Y409561D01*
X354331Y409717D01*
D02*
G37*
G36*
X342520D02*
X341334Y409561D01*
X340228Y409103D01*
X339279Y408375D01*
X338551Y407426D01*
X338093Y406321D01*
X337937Y405135D01*
X338093Y403949D01*
X338551Y402844D01*
X339279Y401895D01*
X340228Y401166D01*
X341334Y400708D01*
X342520Y400552D01*
X343706Y400708D01*
X344811Y401166D01*
X345760Y401895D01*
X346488Y402844D01*
X346946Y403949D01*
X347102Y405135D01*
X346946Y406321D01*
X346488Y407426D01*
X345760Y408375D01*
X344811Y409103D01*
X343706Y409561D01*
X342520Y409717D01*
D02*
G37*
G36*
X330709D02*
X329523Y409561D01*
X328417Y409103D01*
X327468Y408375D01*
X326740Y407426D01*
X326282Y406321D01*
X326126Y405135D01*
X326282Y403949D01*
X326740Y402844D01*
X327468Y401895D01*
X328417Y401166D01*
X329523Y400708D01*
X330709Y400552D01*
X331895Y400708D01*
X333000Y401166D01*
X333949Y401895D01*
X334677Y402844D01*
X335135Y403949D01*
X335291Y405135D01*
X335135Y406321D01*
X334677Y407426D01*
X333949Y408375D01*
X333000Y409103D01*
X331895Y409561D01*
X330709Y409717D01*
D02*
G37*
G36*
X478165Y409284D02*
X469079D01*
Y400198D01*
X478165D01*
Y409284D01*
D02*
G37*
G36*
X558480Y409283D02*
X549394D01*
Y400197D01*
X558480D01*
Y409283D01*
D02*
G37*
G36*
X516354D02*
X507268D01*
Y400197D01*
X516354D01*
Y409283D01*
D02*
G37*
G36*
X461811Y409324D02*
X460625Y409167D01*
X459520Y408710D01*
X458571Y407981D01*
X457842Y407032D01*
X457385Y405927D01*
X457229Y404741D01*
X457385Y403555D01*
X457842Y402450D01*
X458571Y401501D01*
X459520Y400773D01*
X460625Y400315D01*
X461811Y400159D01*
X462997Y400315D01*
X464102Y400773D01*
X465051Y401501D01*
X465780Y402450D01*
X466237Y403555D01*
X466394Y404741D01*
X466237Y405927D01*
X465780Y407032D01*
X465051Y407981D01*
X464102Y408710D01*
X462997Y409167D01*
X461811Y409324D01*
D02*
G37*
G36*
X450000D02*
X448814Y409167D01*
X447709Y408710D01*
X446760Y407981D01*
X446032Y407032D01*
X445574Y405927D01*
X445417Y404741D01*
X445574Y403555D01*
X446032Y402450D01*
X446760Y401501D01*
X447709Y400773D01*
X448814Y400315D01*
X450000Y400159D01*
X451186Y400315D01*
X452291Y400773D01*
X453240Y401501D01*
X453969Y402450D01*
X454426Y403555D01*
X454583Y404741D01*
X454426Y405927D01*
X453969Y407032D01*
X453240Y407981D01*
X452291Y408710D01*
X451186Y409167D01*
X450000Y409324D01*
D02*
G37*
G36*
X438189D02*
X437003Y409167D01*
X435898Y408710D01*
X434949Y407981D01*
X434220Y407032D01*
X433763Y405927D01*
X433606Y404741D01*
X433763Y403555D01*
X434220Y402450D01*
X434949Y401501D01*
X435898Y400773D01*
X437003Y400315D01*
X438189Y400159D01*
X439375Y400315D01*
X440480Y400773D01*
X441429Y401501D01*
X442158Y402450D01*
X442615Y403555D01*
X442771Y404741D01*
X442615Y405927D01*
X442158Y407032D01*
X441429Y407981D01*
X440480Y408710D01*
X439375Y409167D01*
X438189Y409324D01*
D02*
G37*
G36*
X179528Y409319D02*
X178444Y409177D01*
X177435Y408758D01*
X176568Y408093D01*
X175903Y407227D01*
X175485Y406217D01*
X175342Y405134D01*
X175485Y404051D01*
X175718Y403487D01*
X144588Y372357D01*
X144256Y371861D01*
X144140Y371276D01*
Y213779D01*
X144256Y213194D01*
X144588Y212698D01*
X172880Y184406D01*
Y179948D01*
X172837Y179919D01*
X172355Y179198D01*
X172186Y178346D01*
X172355Y177495D01*
X172837Y176774D01*
X172880Y176745D01*
Y171893D01*
X168604Y167617D01*
X168272Y167121D01*
X168156Y166535D01*
Y161444D01*
X168113Y161415D01*
X167631Y160694D01*
X167461Y159843D01*
X167631Y158992D01*
X168113Y158270D01*
X168834Y157788D01*
X169685Y157619D01*
X169736Y157629D01*
X172486Y154878D01*
Y46090D01*
X172443Y46061D01*
X171961Y45339D01*
X171792Y44488D01*
X171961Y43637D01*
X172443Y42916D01*
X173165Y42434D01*
X174016Y42264D01*
X174867Y42434D01*
X175588Y42916D01*
X176070Y43637D01*
X176240Y44488D01*
X176070Y45339D01*
X175588Y46061D01*
X175545Y46090D01*
Y155512D01*
X175429Y156097D01*
X175097Y156593D01*
X171899Y159792D01*
X171909Y159843D01*
X171740Y160694D01*
X171257Y161415D01*
X171214Y161444D01*
Y165902D01*
X175491Y170178D01*
X175822Y170675D01*
X175939Y171260D01*
Y176745D01*
X175982Y176774D01*
X176464Y177495D01*
X176633Y178346D01*
X176464Y179198D01*
X175982Y179919D01*
X175939Y179948D01*
Y185039D01*
X175822Y185625D01*
X175491Y186121D01*
X147199Y214413D01*
Y370642D01*
X177881Y401324D01*
X178444Y401091D01*
X179528Y400948D01*
X180611Y401091D01*
X181620Y401509D01*
X182487Y402174D01*
X183152Y403041D01*
X183430Y403711D01*
X183917Y403581D01*
X183795Y402654D01*
X183985Y401211D01*
X184542Y399866D01*
X185428Y398711D01*
X186582Y397825D01*
X187927Y397268D01*
X189370Y397078D01*
X190813Y397268D01*
X192158Y397825D01*
X193312Y398711D01*
X194198Y399866D01*
X194755Y401211D01*
X194945Y402654D01*
X194755Y404097D01*
X194198Y405441D01*
X193312Y406596D01*
X192158Y407482D01*
X190813Y408039D01*
X189370Y408229D01*
X187927Y408039D01*
X186582Y407482D01*
X185428Y406596D01*
X184542Y405441D01*
X184125Y404436D01*
X183638Y404567D01*
X183713Y405134D01*
X183570Y406217D01*
X183152Y407227D01*
X182487Y408093D01*
X181620Y408758D01*
X180611Y409177D01*
X179528Y409319D01*
D02*
G37*
G36*
X266142Y412854D02*
X265291Y412684D01*
X264569Y412202D01*
X264087Y411481D01*
X263918Y410630D01*
X264087Y409779D01*
X264569Y409057D01*
X265291Y408575D01*
X266142Y408406D01*
X266993Y408575D01*
X267714Y409057D01*
X267743Y409100D01*
X279288D01*
X289863Y398525D01*
X290360Y398193D01*
X290945Y398077D01*
X325205D01*
X325977Y397305D01*
X325770Y396805D01*
X287248D01*
X281396Y402656D01*
X280900Y402988D01*
X280315Y403104D01*
X267743D01*
X267714Y403147D01*
X266993Y403629D01*
X266142Y403799D01*
X265291Y403629D01*
X264569Y403147D01*
X264087Y402426D01*
X263918Y401575D01*
X264087Y400724D01*
X264569Y400002D01*
X265291Y399520D01*
X266142Y399351D01*
X266993Y399520D01*
X267714Y400002D01*
X267743Y400045D01*
X279681D01*
X285533Y394194D01*
X286029Y393863D01*
X286614Y393746D01*
X325745D01*
X327314Y392177D01*
X327304Y392126D01*
X327473Y391275D01*
X327955Y390553D01*
X328677Y390071D01*
X329528Y389902D01*
X330179Y390032D01*
X330679Y389717D01*
Y382179D01*
X327711Y379211D01*
X327314Y379132D01*
X327163D01*
X326442Y379614D01*
X325590Y379783D01*
X324740Y379614D01*
X324018Y379132D01*
X323536Y378410D01*
X323367Y377559D01*
X323536Y376708D01*
X324018Y375987D01*
X324740Y375504D01*
X325590Y375335D01*
X326442Y375504D01*
X326711Y375684D01*
X327211Y375417D01*
Y368530D01*
X327168Y368502D01*
X326686Y367780D01*
X326516Y366929D01*
X326686Y366078D01*
X327168Y365357D01*
X327889Y364875D01*
X328740Y364705D01*
X329591Y364875D01*
X330313Y365357D01*
X330795Y366078D01*
X330964Y366929D01*
X330795Y367780D01*
X330313Y368502D01*
X330270Y368530D01*
Y377443D01*
X333290Y380464D01*
X333622Y380960D01*
X333738Y381545D01*
Y393236D01*
X333622Y393822D01*
X333290Y394318D01*
X326920Y400688D01*
X326424Y401019D01*
X325839Y401136D01*
X291578D01*
X281003Y411711D01*
X280506Y412043D01*
X279921Y412159D01*
X267743D01*
X267714Y412202D01*
X266993Y412684D01*
X266142Y412854D01*
D02*
G37*
G36*
X38110Y406756D02*
X36667Y406566D01*
X35323Y406009D01*
X34168Y405123D01*
X33282Y403969D01*
X32725Y402624D01*
X32535Y401181D01*
X32725Y399738D01*
X33282Y398394D01*
X34168Y397239D01*
X35323Y396353D01*
X36667Y395796D01*
X38110Y395606D01*
X39553Y395796D01*
X40898Y396353D01*
X42053Y397239D01*
X42939Y398394D01*
X43496Y399738D01*
X43685Y401181D01*
X43496Y402624D01*
X42939Y403969D01*
X42053Y405123D01*
X40898Y406009D01*
X39553Y406566D01*
X38110Y406756D01*
D02*
G37*
G36*
X43701Y395524D02*
X42617Y395381D01*
X41608Y394963D01*
X40741Y394298D01*
X40076Y393431D01*
X39658Y392422D01*
X39515Y391339D01*
X39658Y390255D01*
X40076Y389246D01*
X40741Y388379D01*
X41608Y387714D01*
X42617Y387296D01*
X43701Y387153D01*
X44784Y387296D01*
X45794Y387714D01*
X46660Y388379D01*
X47326Y389246D01*
X47744Y390255D01*
X47886Y391339D01*
X47744Y392422D01*
X47326Y393431D01*
X46660Y394298D01*
X45794Y394963D01*
X44784Y395381D01*
X43701Y395524D01*
D02*
G37*
G36*
X265748Y386673D02*
X264897Y386503D01*
X264176Y386021D01*
X263693Y385300D01*
X263524Y384449D01*
X263693Y383598D01*
X264176Y382876D01*
X264897Y382394D01*
X265748Y382225D01*
X266599Y382394D01*
X267320Y382876D01*
X267349Y382919D01*
X280157D01*
X280317Y382680D01*
X281039Y382197D01*
X281890Y382028D01*
X282741Y382197D01*
X283462Y382680D01*
X283944Y383401D01*
X284114Y384252D01*
X283944Y385103D01*
X283462Y385824D01*
X282741Y386307D01*
X281890Y386476D01*
X281039Y386307D01*
X280547Y385978D01*
X267349D01*
X267320Y386021D01*
X266599Y386503D01*
X265748Y386673D01*
D02*
G37*
G36*
X531102Y382932D02*
X530251Y382763D01*
X529530Y382281D01*
X529048Y381560D01*
X528878Y380709D01*
X529048Y379858D01*
X529530Y379136D01*
X530251Y378654D01*
X531102Y378485D01*
X531953Y378654D01*
X532675Y379136D01*
X533157Y379858D01*
X533326Y380709D01*
X533157Y381560D01*
X532675Y382281D01*
X531953Y382763D01*
X531102Y382932D01*
D02*
G37*
G36*
X496850Y384114D02*
X495999Y383944D01*
X495278Y383462D01*
X494796Y382741D01*
X494627Y381890D01*
X494796Y381039D01*
X495278Y380317D01*
X495577Y380118D01*
X495588Y379916D01*
X495518Y379555D01*
X494884Y379132D01*
X494402Y378410D01*
X494233Y377559D01*
X494402Y376708D01*
X494884Y375987D01*
X495606Y375504D01*
X496457Y375335D01*
X497308Y375504D01*
X498029Y375987D01*
X498511Y376708D01*
X498680Y377559D01*
X498511Y378410D01*
X498029Y379132D01*
X497762Y379310D01*
X497790Y379790D01*
X498214Y380036D01*
X498657Y379843D01*
X498733Y379464D01*
X499215Y378743D01*
X499936Y378260D01*
X500787Y378091D01*
X501638Y378260D01*
X502360Y378743D01*
X502842Y379464D01*
X503011Y380315D01*
X502842Y381166D01*
X502360Y381887D01*
X501638Y382369D01*
X500787Y382539D01*
X499936Y382369D01*
X499541Y382105D01*
X498985Y382336D01*
X498905Y382741D01*
X498423Y383462D01*
X497701Y383944D01*
X496850Y384114D01*
D02*
G37*
G36*
X537402Y380964D02*
X536551Y380795D01*
X535829Y380313D01*
X535347Y379591D01*
X535178Y378740D01*
X535347Y377889D01*
X535829Y377168D01*
X536551Y376686D01*
X537402Y376516D01*
X538253Y376686D01*
X538974Y377168D01*
X539456Y377889D01*
X539625Y378740D01*
X539456Y379591D01*
X538974Y380313D01*
X538253Y380795D01*
X537402Y380964D01*
D02*
G37*
G36*
X309055Y379389D02*
X308204Y379220D01*
X307483Y378738D01*
X307001Y378016D01*
X306831Y377165D01*
X307001Y376314D01*
X307483Y375593D01*
X308204Y375111D01*
X309055Y374941D01*
X309906Y375111D01*
X310628Y375593D01*
X311110Y376314D01*
X311279Y377165D01*
X311110Y378016D01*
X310628Y378738D01*
X309906Y379220D01*
X309055Y379389D01*
D02*
G37*
G36*
X295276D02*
X294425Y379220D01*
X293703Y378738D01*
X293221Y378016D01*
X293052Y377165D01*
X293221Y376314D01*
X293703Y375593D01*
X294425Y375111D01*
X295276Y374941D01*
X296127Y375111D01*
X296848Y375593D01*
X297330Y376314D01*
X297499Y377165D01*
X297330Y378016D01*
X296848Y378738D01*
X296127Y379220D01*
X295276Y379389D01*
D02*
G37*
G36*
X318898Y379783D02*
X318047Y379614D01*
X317325Y379132D01*
X316843Y378410D01*
X316674Y377559D01*
X316843Y376708D01*
X316944Y376557D01*
X316729Y375979D01*
X316144Y375588D01*
X315786Y375052D01*
X315499Y374886D01*
X315164Y374926D01*
X314631Y375283D01*
X313779Y375452D01*
X312929Y375283D01*
X312207Y374801D01*
X311725Y374079D01*
X311556Y373228D01*
X311725Y372377D01*
X312207Y371656D01*
X312929Y371174D01*
X313779Y371005D01*
X314631Y371174D01*
X315352Y371656D01*
X315710Y372192D01*
X315997Y372358D01*
X316332Y372318D01*
X316865Y371961D01*
X317271Y371881D01*
X317501Y371325D01*
X317237Y370930D01*
X317068Y370079D01*
X317237Y369228D01*
X317719Y368506D01*
X318440Y368024D01*
X319291Y367855D01*
X320142Y368024D01*
X320864Y368506D01*
X321346Y369228D01*
X321515Y370079D01*
X321346Y370930D01*
X320864Y371651D01*
X320142Y372133D01*
X319737Y372214D01*
X319507Y372769D01*
X319771Y373165D01*
X319940Y374016D01*
X319771Y374867D01*
X319670Y375018D01*
X319885Y375596D01*
X320470Y375987D01*
X320952Y376708D01*
X321122Y377559D01*
X320952Y378410D01*
X320470Y379132D01*
X319749Y379614D01*
X318898Y379783D01*
D02*
G37*
G36*
X358268Y378995D02*
X357417Y378826D01*
X356695Y378344D01*
X356213Y377623D01*
X356044Y376772D01*
X356213Y375921D01*
X356695Y375199D01*
X357417Y374717D01*
X358268Y374548D01*
X359119Y374717D01*
X359840Y375199D01*
X360322Y375921D01*
X360492Y376772D01*
X360322Y377623D01*
X359840Y378344D01*
X359119Y378826D01*
X358268Y378995D01*
D02*
G37*
G36*
X350787Y378602D02*
X349936Y378432D01*
X349215Y377950D01*
X348733Y377229D01*
X348564Y376378D01*
X348733Y375527D01*
X349215Y374805D01*
X349936Y374323D01*
X350787Y374154D01*
X351638Y374323D01*
X352360Y374805D01*
X352842Y375527D01*
X353011Y376378D01*
X352842Y377229D01*
X352360Y377950D01*
X351638Y378432D01*
X350787Y378602D01*
D02*
G37*
G36*
X43701Y381745D02*
X42617Y381602D01*
X41608Y381184D01*
X40741Y380519D01*
X40076Y379652D01*
X39658Y378642D01*
X39515Y377559D01*
X39658Y376476D01*
X40076Y375466D01*
X40741Y374600D01*
X41608Y373934D01*
X42617Y373516D01*
X43701Y373374D01*
X44784Y373516D01*
X45794Y373934D01*
X46660Y374600D01*
X47326Y375466D01*
X47744Y376476D01*
X47886Y377559D01*
X47744Y378642D01*
X47326Y379652D01*
X46660Y380519D01*
X45794Y381184D01*
X44784Y381602D01*
X43701Y381745D01*
D02*
G37*
G36*
X401575Y378995D02*
X400724Y378826D01*
X400002Y378344D01*
X399520Y377623D01*
X399351Y376772D01*
X399520Y375921D01*
X400002Y375199D01*
X400724Y374717D01*
X400792Y374704D01*
Y374194D01*
X400330Y374102D01*
X399609Y373620D01*
X399127Y372898D01*
X399112Y372827D01*
X398559Y372610D01*
X398095Y372921D01*
X397244Y373090D01*
X396393Y372921D01*
X395672Y372439D01*
X395189Y371717D01*
X395020Y370866D01*
X395189Y370015D01*
X395672Y369294D01*
X396393Y368812D01*
X397244Y368642D01*
X398095Y368812D01*
X398817Y369294D01*
X399299Y370015D01*
X399313Y370086D01*
X399866Y370303D01*
X400330Y369993D01*
X401181Y369823D01*
X402032Y369993D01*
X402754Y370475D01*
X403236Y371196D01*
X403405Y372047D01*
X403236Y372898D01*
X402754Y373620D01*
X402032Y374102D01*
X401964Y374115D01*
Y374625D01*
X402426Y374717D01*
X403147Y375199D01*
X403629Y375921D01*
X403799Y376772D01*
X403629Y377623D01*
X403147Y378344D01*
X402426Y378826D01*
X401575Y378995D01*
D02*
G37*
G36*
X500787Y376240D02*
X499936Y376070D01*
X499215Y375588D01*
X498733Y374867D01*
X498564Y374016D01*
X498733Y373165D01*
X499215Y372443D01*
X499936Y371961D01*
X500787Y371792D01*
X501638Y371961D01*
X502360Y372443D01*
X502842Y373165D01*
X503011Y374016D01*
X502842Y374867D01*
X502360Y375588D01*
X501638Y376070D01*
X500787Y376240D01*
D02*
G37*
G36*
X543307Y373877D02*
X542456Y373708D01*
X541735Y373226D01*
X541253Y372505D01*
X541083Y371654D01*
X541253Y370802D01*
X541735Y370081D01*
X542456Y369599D01*
X543307Y369430D01*
X544158Y369599D01*
X544880Y370081D01*
X545362Y370802D01*
X545531Y371654D01*
X545362Y372505D01*
X544880Y373226D01*
X544158Y373708D01*
X543307Y373877D01*
D02*
G37*
G36*
X355906Y373484D02*
X355054Y373314D01*
X354333Y372832D01*
X353851Y372111D01*
X353682Y371260D01*
X353851Y370409D01*
X354333Y369687D01*
X355054Y369205D01*
X355906Y369036D01*
X356756Y369205D01*
X357478Y369687D01*
X357960Y370409D01*
X358129Y371260D01*
X357960Y372111D01*
X357478Y372832D01*
X356756Y373314D01*
X355906Y373484D01*
D02*
G37*
G36*
X579921Y388051D02*
X579070Y387881D01*
X578349Y387399D01*
X577867Y386678D01*
X577697Y385827D01*
X577867Y384976D01*
X578349Y384254D01*
X578392Y384226D01*
Y370464D01*
X576583Y368655D01*
X536557D01*
X536405Y369155D01*
X536612Y369294D01*
X537094Y370015D01*
X537263Y370866D01*
X537094Y371717D01*
X536612Y372439D01*
X535890Y372921D01*
X535039Y373090D01*
X534238Y372931D01*
X534099Y373066D01*
X533929Y373340D01*
X534338Y373952D01*
X534507Y374803D01*
X534338Y375654D01*
X533856Y376376D01*
X533135Y376858D01*
X532283Y377027D01*
X531432Y376858D01*
X530711Y376376D01*
X530229Y375654D01*
X530060Y374803D01*
X530229Y373952D01*
X530711Y373231D01*
X531432Y372749D01*
X532283Y372579D01*
X533084Y372739D01*
X533224Y372603D01*
X533394Y372329D01*
X532985Y371717D01*
X532816Y370866D01*
X532985Y370015D01*
X533467Y369294D01*
X533674Y369155D01*
X533522Y368655D01*
X511569D01*
Y371676D01*
X511612Y371705D01*
X512094Y372427D01*
X512263Y373278D01*
X512094Y374129D01*
X511612Y374850D01*
X510890Y375332D01*
X510039Y375501D01*
X509188Y375332D01*
X508467Y374850D01*
X507985Y374129D01*
X507816Y373278D01*
X507985Y372427D01*
X508467Y371705D01*
X508510Y371676D01*
Y367759D01*
X500838Y360088D01*
X500787Y360098D01*
X499936Y359929D01*
X499215Y359447D01*
X498923Y359010D01*
X483239D01*
X483108Y359510D01*
X483551Y360173D01*
X483720Y361024D01*
X483551Y361875D01*
X483069Y362596D01*
Y362995D01*
X483551Y363716D01*
X483720Y364567D01*
X483551Y365418D01*
X483069Y366139D01*
X482347Y366621D01*
X481496Y366791D01*
X480645Y366621D01*
X479924Y366139D01*
X479441Y365418D01*
X479272Y364567D01*
X479441Y363716D01*
X479924Y362995D01*
Y362596D01*
X479441Y361875D01*
X479272Y361024D01*
X479441Y360173D01*
X479884Y359510D01*
X479753Y359010D01*
X476551D01*
X476284Y359510D01*
X476464Y359779D01*
X476633Y360630D01*
X476464Y361481D01*
X475982Y362202D01*
X475545Y362495D01*
Y363096D01*
X475982Y363388D01*
X476464Y364110D01*
X476633Y364961D01*
X476464Y365812D01*
X475982Y366533D01*
X475260Y367015D01*
X474409Y367184D01*
X473558Y367015D01*
X472837Y366533D01*
X472355Y365812D01*
X472186Y364961D01*
X472355Y364110D01*
X472837Y363388D01*
X473274Y363096D01*
Y362495D01*
X472837Y362202D01*
X472355Y361481D01*
X472186Y360630D01*
X472355Y359779D01*
X472535Y359510D01*
X472267Y359010D01*
X458294D01*
X458265Y359053D01*
X457544Y359535D01*
X456693Y359704D01*
X455842Y359535D01*
X455120Y359053D01*
X454638Y358331D01*
X454469Y357480D01*
X454479Y357430D01*
X448185Y351136D01*
X411837D01*
X411809Y351179D01*
X411087Y351661D01*
X410236Y351830D01*
X409385Y351661D01*
X408664Y351179D01*
X408635Y351136D01*
X369137D01*
X363286Y356987D01*
X362790Y357318D01*
X362205Y357435D01*
X244583D01*
X220621Y381396D01*
X220125Y381728D01*
X219738Y381805D01*
X219683Y381887D01*
X218961Y382369D01*
X218110Y382539D01*
X217259Y382369D01*
X216538Y381887D01*
X216056Y381166D01*
X215886Y380315D01*
X216056Y379464D01*
X216538Y378743D01*
X217259Y378260D01*
X218110Y378091D01*
X218961Y378260D01*
X219243Y378449D01*
X240056Y357636D01*
X239925Y357060D01*
X239372Y356691D01*
X238890Y355969D01*
X238721Y355118D01*
X238890Y354267D01*
X239372Y353546D01*
X240094Y353064D01*
X240945Y352894D01*
X241796Y353064D01*
X242517Y353546D01*
X242999Y354267D01*
X243547Y354456D01*
X243949Y354376D01*
X361571D01*
X367423Y348525D01*
X367500Y348473D01*
X367348Y347973D01*
X334881D01*
X334358Y347869D01*
X334241Y347881D01*
X333749Y348093D01*
X333344Y348698D01*
X332623Y349181D01*
X331772Y349350D01*
X330921Y349181D01*
X330199Y348698D01*
X330170Y348655D01*
X298307D01*
X297722Y348539D01*
X297226Y348207D01*
X292353Y343335D01*
X291874Y343480D01*
X291818Y343764D01*
X291336Y344485D01*
X290614Y344967D01*
X289763Y345136D01*
X288912Y344967D01*
X288191Y344485D01*
X287709Y343764D01*
X287539Y342913D01*
X287709Y342062D01*
X288191Y341340D01*
X288234Y341311D01*
Y333071D01*
X288234Y333069D01*
X288234Y333067D01*
X288530Y240705D01*
X288030Y240655D01*
X287978Y240917D01*
X287881Y241402D01*
X287399Y242124D01*
X286678Y242606D01*
X285827Y242775D01*
X284976Y242606D01*
X284254Y242124D01*
X283772Y241402D01*
X283603Y240551D01*
X283772Y239700D01*
X284254Y238979D01*
X284976Y238497D01*
X285827Y238327D01*
X286678Y238497D01*
X287399Y238979D01*
X287881Y239700D01*
X287978Y240188D01*
X288031Y240450D01*
X288531Y240402D01*
X288544Y236300D01*
Y230483D01*
X288044Y230331D01*
X287793Y230706D01*
X287071Y231188D01*
X286221Y231358D01*
X285369Y231188D01*
X284648Y230706D01*
X284166Y229985D01*
X283997Y229134D01*
X284166Y228283D01*
X284648Y227561D01*
X285369Y227079D01*
X286221Y226910D01*
X287071Y227079D01*
X287793Y227561D01*
X288044Y227937D01*
X288544Y227785D01*
Y227643D01*
X288660Y227058D01*
X288992Y226562D01*
X291325Y224229D01*
X291006Y223840D01*
X290615Y224102D01*
X289764Y224271D01*
X288913Y224102D01*
X288191Y223620D01*
X287709Y222898D01*
X287540Y222047D01*
X287709Y221196D01*
X288191Y220475D01*
X288913Y219993D01*
X289764Y219823D01*
X290615Y219993D01*
X291336Y220475D01*
X291818Y221196D01*
X291988Y222047D01*
X291818Y222898D01*
X291557Y223290D01*
X291945Y223609D01*
X337155Y178399D01*
X337651Y178067D01*
X338236Y177951D01*
X470083D01*
X472393Y175641D01*
X472382Y175591D01*
X472552Y174740D01*
X473034Y174018D01*
X473755Y173536D01*
X474606Y173367D01*
X475457Y173536D01*
X476179Y174018D01*
X476661Y174740D01*
X476777Y175326D01*
X476891Y175434D01*
X477301Y175589D01*
X477531Y175439D01*
X477670Y174740D01*
X478152Y174018D01*
X478873Y173536D01*
X479724Y173367D01*
X480575Y173536D01*
X481297Y174018D01*
X481779Y174740D01*
X481822Y174954D01*
X482386Y175228D01*
X482506Y175167D01*
X482591Y174740D01*
X483073Y174018D01*
X483795Y173536D01*
X484646Y173367D01*
X485497Y173536D01*
X486218Y174018D01*
X486700Y174740D01*
X486869Y175591D01*
X486700Y176442D01*
X486218Y177163D01*
X485497Y177645D01*
X484646Y177814D01*
X484595Y177804D01*
X478641Y183759D01*
X478144Y184090D01*
X477559Y184207D01*
X389412D01*
X389260Y184707D01*
X389761Y185042D01*
X390244Y185763D01*
X390413Y186614D01*
X390244Y187465D01*
X389761Y188187D01*
X389040Y188669D01*
X388189Y188838D01*
X388138Y188828D01*
X380808Y196158D01*
X380999Y196620D01*
X388225D01*
X393528Y191317D01*
X393615Y190881D01*
X394097Y190160D01*
X394818Y189678D01*
X395669Y189508D01*
X396520Y189678D01*
X397242Y190160D01*
X397724Y190881D01*
X397893Y191732D01*
X397724Y192583D01*
X397281Y193246D01*
X397413Y193746D01*
X404304D01*
X404333Y193703D01*
X405055Y193221D01*
X405905Y193052D01*
X406756Y193221D01*
X407478Y193703D01*
X407960Y194425D01*
X408129Y195276D01*
X407960Y196127D01*
X407478Y196848D01*
X406756Y197330D01*
X405905Y197499D01*
X405055Y197330D01*
X404333Y196848D01*
X404304Y196805D01*
X397811D01*
X397544Y197305D01*
X397724Y197574D01*
X397893Y198425D01*
X397724Y199276D01*
X397242Y199998D01*
X396520Y200480D01*
X395669Y200649D01*
X395648Y200645D01*
X395334Y200982D01*
X395515Y201415D01*
X404147D01*
X404239Y201278D01*
X404960Y200796D01*
X405811Y200627D01*
X406662Y200796D01*
X407383Y201278D01*
X407866Y201999D01*
X407973Y202542D01*
X408516Y202707D01*
X423722Y187501D01*
X424218Y187170D01*
X424803Y187053D01*
X457847D01*
X457876Y187010D01*
X458598Y186528D01*
X459449Y186359D01*
X460300Y186528D01*
X461021Y187010D01*
X461503Y187732D01*
X461673Y188583D01*
X461503Y189434D01*
X461021Y190155D01*
X460300Y190637D01*
X459449Y190806D01*
X458598Y190637D01*
X457876Y190155D01*
X457847Y190112D01*
X443874D01*
X443607Y190612D01*
X443787Y190881D01*
X443956Y191732D01*
X443787Y192583D01*
X443305Y193305D01*
X442803Y193640D01*
X442955Y194140D01*
X453123D01*
X453152Y194097D01*
X453873Y193615D01*
X454724Y193446D01*
X455575Y193615D01*
X456297Y194097D01*
X456779Y194818D01*
X456948Y195669D01*
X456779Y196520D01*
X456297Y197242D01*
X455575Y197724D01*
X454724Y197893D01*
X453873Y197724D01*
X453152Y197242D01*
X453123Y197199D01*
X425830D01*
X374558Y248471D01*
X374062Y248802D01*
X373477Y248919D01*
X351174D01*
X344836Y255256D01*
Y280682D01*
X344880Y280711D01*
X345362Y281432D01*
X345531Y282283D01*
X345362Y283135D01*
X344919Y283797D01*
X345050Y284297D01*
X376378D01*
X376963Y284414D01*
X377459Y284745D01*
X420319Y327605D01*
X425564D01*
X425593Y327561D01*
X426314Y327079D01*
X427165Y326910D01*
X428016Y327079D01*
X428738Y327561D01*
X428767Y327605D01*
X440951D01*
X441103Y327104D01*
X441045Y327066D01*
X437501Y323522D01*
X437170Y323026D01*
X437053Y322441D01*
Y318125D01*
X436591Y317934D01*
X434891Y319634D01*
X434901Y319685D01*
X434732Y320536D01*
X434250Y321257D01*
X433528Y321740D01*
X432677Y321909D01*
X431826Y321740D01*
X431105Y321257D01*
X430623Y320536D01*
X430453Y319685D01*
X430623Y318834D01*
X431105Y318113D01*
X431826Y317631D01*
X432677Y317461D01*
X432728Y317471D01*
X435085Y315115D01*
Y257128D01*
X434585Y256977D01*
X434250Y257478D01*
X433528Y257960D01*
X432677Y258129D01*
X431826Y257960D01*
X431105Y257478D01*
X431076Y257435D01*
X372287D01*
X361990Y267732D01*
X361494Y268064D01*
X360909Y268180D01*
X354278D01*
X354250Y268223D01*
X353528Y268705D01*
X352677Y268874D01*
X351826Y268705D01*
X351105Y268223D01*
X350623Y267502D01*
X350453Y266651D01*
X350623Y265800D01*
X351105Y265078D01*
X351826Y264596D01*
X352677Y264427D01*
X353528Y264596D01*
X354250Y265078D01*
X354278Y265121D01*
X360275D01*
X370572Y254824D01*
X371068Y254492D01*
X371654Y254376D01*
X431076D01*
X431105Y254333D01*
X431826Y253851D01*
X432677Y253682D01*
X433528Y253851D01*
X434250Y254333D01*
X434585Y254835D01*
X435085Y254683D01*
Y209689D01*
X428325Y202929D01*
X427889Y202842D01*
X427168Y202360D01*
X426686Y201638D01*
X426516Y200787D01*
X426686Y199936D01*
X427168Y199215D01*
X427889Y198733D01*
X428740Y198564D01*
X429591Y198733D01*
X430313Y199215D01*
X430795Y199936D01*
X430964Y200787D01*
X430889Y201167D01*
X436002Y206280D01*
X436463Y206034D01*
X436359Y205512D01*
X436528Y204661D01*
X437010Y203939D01*
X437732Y203457D01*
X438583Y203288D01*
X439434Y203457D01*
X440155Y203939D01*
X440637Y204661D01*
X440806Y205512D01*
X440637Y206363D01*
X440155Y207084D01*
X440112Y207113D01*
Y254556D01*
X440612Y254688D01*
X441275Y254245D01*
X442126Y254075D01*
X442977Y254245D01*
X443699Y254727D01*
X444180Y255448D01*
X444350Y256299D01*
X444180Y257150D01*
X443699Y257872D01*
X442977Y258354D01*
X442126Y258523D01*
X441275Y258354D01*
X440612Y257911D01*
X440112Y258043D01*
Y303373D01*
X440612Y303505D01*
X441274Y303063D01*
X442125Y302894D01*
X442976Y303063D01*
X443698Y303545D01*
X444138Y303305D01*
X445715Y301729D01*
Y236614D01*
X445831Y236029D01*
X446163Y235533D01*
X467816Y213879D01*
X468312Y213548D01*
X468898Y213431D01*
X472414D01*
X472443Y213388D01*
X473165Y212906D01*
X474016Y212737D01*
X474867Y212906D01*
X475588Y213388D01*
X476070Y214110D01*
X476240Y214961D01*
X476070Y215812D01*
X475588Y216533D01*
X474867Y217015D01*
X474016Y217184D01*
X473165Y217015D01*
X472443Y216533D01*
X472414Y216490D01*
X469531D01*
X448773Y237248D01*
Y238982D01*
X449273Y239134D01*
X449312Y239076D01*
X466684Y221704D01*
X466674Y221654D01*
X466843Y220802D01*
X467325Y220081D01*
X468047Y219599D01*
X468898Y219430D01*
X469749Y219599D01*
X470470Y220081D01*
X470952Y220802D01*
X471122Y221654D01*
X470952Y222505D01*
X470470Y223226D01*
X469749Y223708D01*
X468898Y223877D01*
X468847Y223867D01*
X451923Y240791D01*
Y242919D01*
X452423Y243071D01*
X452462Y243013D01*
X461237Y234238D01*
X461162Y233858D01*
X461331Y233007D01*
X461813Y232286D01*
X462535Y231804D01*
X463386Y231634D01*
X464237Y231804D01*
X464958Y232286D01*
X465440Y233007D01*
X465610Y233858D01*
X465440Y234709D01*
X464958Y235431D01*
X464237Y235913D01*
X463801Y235999D01*
X455073Y244728D01*
Y303937D01*
X454956Y304522D01*
X454625Y305018D01*
X446357Y313286D01*
X445861Y313618D01*
X445276Y313734D01*
X443334D01*
X443305Y313777D01*
X442583Y314259D01*
X441732Y314428D01*
X440881Y314259D01*
X440612Y314079D01*
X440112Y314347D01*
Y321808D01*
X442760Y324455D01*
X443921D01*
X444188Y323955D01*
X444008Y323686D01*
X443839Y322835D01*
X444008Y321984D01*
X444490Y321262D01*
X445212Y320780D01*
X446063Y320611D01*
X446914Y320780D01*
X447636Y321262D01*
X447664Y321305D01*
X453883D01*
X472837Y302351D01*
X472810Y302189D01*
X472263Y301953D01*
X472111Y302055D01*
X471260Y302224D01*
X470409Y302055D01*
X469687Y301572D01*
X469205Y300851D01*
X469036Y300000D01*
X469046Y299948D01*
X468717Y299455D01*
X468601Y298870D01*
Y234151D01*
X468717Y233565D01*
X469049Y233069D01*
X469177Y232941D01*
X469036Y232233D01*
X469205Y231382D01*
X469687Y230661D01*
X470409Y230179D01*
X471260Y230009D01*
X472111Y230179D01*
X472832Y230661D01*
X473314Y231382D01*
X473328Y231450D01*
X473460Y231648D01*
X473577Y232233D01*
X473460Y232819D01*
X473328Y233017D01*
X473314Y233084D01*
X472832Y233806D01*
X472246Y234198D01*
X471659Y234784D01*
Y241273D01*
X472121Y241464D01*
X484223Y229363D01*
Y207397D01*
X478572Y201746D01*
X466385D01*
X466356Y201789D01*
X465634Y202271D01*
X464783Y202440D01*
X463933Y202271D01*
X463211Y201789D01*
X462729Y201068D01*
X462560Y200217D01*
X462729Y199365D01*
X463211Y198644D01*
X463933Y198162D01*
X464783Y197993D01*
X465634Y198162D01*
X466356Y198644D01*
X466385Y198687D01*
X467688D01*
X467955Y198187D01*
X467630Y197701D01*
X467461Y196850D01*
X467630Y195999D01*
X468113Y195278D01*
X468834Y194796D01*
X469685Y194627D01*
X470536Y194796D01*
X471257Y195278D01*
X471286Y195321D01*
X478099D01*
X478685Y195437D01*
X479181Y195769D01*
X488432Y205020D01*
X488763Y205516D01*
X488880Y206101D01*
Y230658D01*
X488763Y231243D01*
X488432Y231740D01*
X477553Y242619D01*
X477717Y243162D01*
X478016Y243221D01*
X478738Y243703D01*
X479220Y244425D01*
X479389Y245276D01*
X479220Y246127D01*
X478738Y246848D01*
X478695Y246877D01*
Y263291D01*
X488283Y272880D01*
X495249D01*
X495278Y272837D01*
X495999Y272355D01*
X496850Y272186D01*
X497701Y272355D01*
X498423Y272837D01*
X498452Y272880D01*
X499367D01*
X537176Y235070D01*
Y157435D01*
X535853D01*
X535824Y157478D01*
X535103Y157960D01*
X534252Y158129D01*
X533401Y157960D01*
X532680Y157478D01*
X532197Y156756D01*
X532028Y155905D01*
X532197Y155054D01*
X532680Y154333D01*
X533401Y153851D01*
X534252Y153682D01*
X535103Y153851D01*
X535824Y154333D01*
X535853Y154376D01*
X537176D01*
Y28316D01*
X534406Y25545D01*
X516884D01*
Y37769D01*
X516927Y37798D01*
X517409Y38519D01*
X517578Y39370D01*
X517409Y40221D01*
X516927Y40943D01*
X516205Y41425D01*
X515354Y41594D01*
X514503Y41425D01*
X513782Y40943D01*
X513300Y40221D01*
X513131Y39370D01*
X513300Y38519D01*
X513782Y37798D01*
X513825Y37769D01*
Y34736D01*
X513438Y34418D01*
X512992Y34507D01*
X512141Y34338D01*
X511420Y33856D01*
X510938Y33134D01*
X510768Y32283D01*
X510938Y31432D01*
X511420Y30711D01*
X511463Y30682D01*
Y25545D01*
X504177D01*
X499634Y30088D01*
X499779Y30566D01*
X500064Y30623D01*
X500785Y31105D01*
X501267Y31826D01*
X501436Y32677D01*
X501267Y33528D01*
X500785Y34250D01*
X500742Y34279D01*
Y36617D01*
X501242Y36897D01*
X501968Y36753D01*
X502819Y36922D01*
X503541Y37404D01*
X504023Y38125D01*
X504192Y38976D01*
X504023Y39827D01*
X503541Y40549D01*
X503498Y40578D01*
Y52516D01*
X505067Y54085D01*
X505118Y54075D01*
X505969Y54245D01*
X506037Y54290D01*
X506453Y54012D01*
X506438Y53937D01*
X506607Y53086D01*
X507089Y52364D01*
X507810Y51882D01*
X508661Y51713D01*
X509512Y51882D01*
X510234Y52364D01*
X510716Y53086D01*
X510885Y53937D01*
X510875Y53988D01*
X532578Y75690D01*
X532909Y76186D01*
X533026Y76772D01*
Y136614D01*
X532909Y137199D01*
X532578Y137696D01*
X530560Y139713D01*
X530570Y139764D01*
X530401Y140615D01*
X529919Y141336D01*
X529198Y141818D01*
X528346Y141988D01*
X527495Y141818D01*
X526774Y141336D01*
X526292Y140615D01*
X526123Y139764D01*
X526292Y138913D01*
X526774Y138191D01*
X527495Y137709D01*
X528346Y137540D01*
X528397Y137550D01*
X529967Y135981D01*
Y77405D01*
X521880Y69318D01*
X521402Y69464D01*
X521345Y69749D01*
X520863Y70470D01*
X520141Y70952D01*
X519589Y71062D01*
Y73068D01*
X520081Y73231D01*
X520802Y72749D01*
X521654Y72579D01*
X522505Y72749D01*
X523226Y73231D01*
X523708Y73952D01*
X523877Y74803D01*
X523708Y75654D01*
X523226Y76376D01*
X522505Y76858D01*
X521654Y77027D01*
X521603Y77017D01*
X521187Y77433D01*
Y80721D01*
X521649Y80913D01*
X522589Y79972D01*
X522579Y79921D01*
X522749Y79070D01*
X523231Y78349D01*
X523952Y77867D01*
X524803Y77697D01*
X525654Y77867D01*
X526376Y78349D01*
X526858Y79070D01*
X527027Y79921D01*
X526858Y80772D01*
X526376Y81494D01*
X525654Y81976D01*
X524803Y82145D01*
X524752Y82135D01*
X522785Y84102D01*
Y120362D01*
X522669Y120947D01*
X522337Y121443D01*
X503199Y140582D01*
Y214422D01*
X508217Y219440D01*
X508268Y219430D01*
X509119Y219599D01*
X509840Y220081D01*
X510322Y220802D01*
X510492Y221654D01*
X510322Y222505D01*
X509840Y223226D01*
X509119Y223708D01*
X508268Y223877D01*
X507417Y223708D01*
X506695Y223226D01*
X506130Y223280D01*
X505903Y223620D01*
X505182Y224102D01*
X504331Y224271D01*
X503480Y224102D01*
X502758Y223620D01*
X502612Y223401D01*
X502112D01*
X501966Y223620D01*
X501245Y224102D01*
X500394Y224271D01*
X499543Y224102D01*
X498903Y223675D01*
X498403Y223826D01*
Y255095D01*
X498287Y255680D01*
X497956Y256176D01*
X494733Y259398D01*
X494743Y259449D01*
X494574Y260300D01*
X494092Y261021D01*
X493371Y261503D01*
X492520Y261673D01*
X491669Y261503D01*
X490947Y261021D01*
X490578Y260469D01*
X490002Y260338D01*
X487841Y262499D01*
X487636Y262636D01*
X487399Y262990D01*
X486678Y263472D01*
X485827Y263641D01*
X484976Y263472D01*
X484254Y262990D01*
X483772Y262268D01*
X483603Y261417D01*
X483772Y260566D01*
X484254Y259845D01*
X484976Y259363D01*
X485827Y259193D01*
X486656Y259358D01*
X493746Y252268D01*
Y139385D01*
X493284Y139194D01*
X492420Y140058D01*
X491924Y140389D01*
X491339Y140506D01*
X451208D01*
X451179Y140549D01*
X450457Y141031D01*
X449606Y141200D01*
X448755Y141031D01*
X448034Y140549D01*
X448005Y140506D01*
X405538D01*
X405510Y140549D01*
X404788Y141031D01*
X403937Y141200D01*
X403086Y141031D01*
X402364Y140549D01*
X402336Y140506D01*
X359869D01*
X359840Y140549D01*
X359119Y141031D01*
X358268Y141200D01*
X357417Y141031D01*
X356695Y140549D01*
X356268Y139909D01*
X355726Y139744D01*
X354679Y140791D01*
Y172201D01*
X355752Y173274D01*
X356666D01*
X356695Y173231D01*
X357417Y172749D01*
X358268Y172579D01*
X359119Y172749D01*
X359840Y173231D01*
X359869Y173274D01*
X402336D01*
X402364Y173231D01*
X403086Y172749D01*
X403937Y172579D01*
X404788Y172749D01*
X405510Y173231D01*
X405538Y173274D01*
X448005D01*
X448034Y173231D01*
X448755Y172749D01*
X449606Y172579D01*
X450457Y172749D01*
X451179Y173231D01*
X451661Y173952D01*
X451830Y174803D01*
X451661Y175654D01*
X451179Y176376D01*
X450457Y176858D01*
X449606Y177027D01*
X448755Y176858D01*
X448034Y176376D01*
X448005Y176332D01*
X405538D01*
X405510Y176376D01*
X404788Y176858D01*
X403937Y177027D01*
X403086Y176858D01*
X402364Y176376D01*
X402336Y176332D01*
X359869D01*
X359840Y176376D01*
X359119Y176858D01*
X358268Y177027D01*
X357417Y176858D01*
X356695Y176376D01*
X356666Y176332D01*
X355118D01*
X354533Y176216D01*
X354037Y175885D01*
X352068Y173916D01*
X351737Y173420D01*
X351620Y172835D01*
Y140157D01*
X351737Y139572D01*
X352068Y139076D01*
X359942Y131202D01*
X360438Y130870D01*
X361024Y130754D01*
X371627D01*
X371656Y130711D01*
X372377Y130229D01*
X373228Y130060D01*
X374079Y130229D01*
X374801Y130711D01*
X374830Y130754D01*
X381470D01*
X381498Y130711D01*
X382220Y130229D01*
X383071Y130060D01*
X383922Y130229D01*
X384643Y130711D01*
X384672Y130754D01*
X391136D01*
X391403Y130254D01*
X391164Y129896D01*
X390995Y129045D01*
X391164Y128194D01*
X391646Y127473D01*
X392368Y126991D01*
X393218Y126821D01*
X393269Y126832D01*
X393700Y126401D01*
X393509Y125939D01*
X305358D01*
X301820Y129477D01*
X301830Y129528D01*
X301661Y130379D01*
X301179Y131100D01*
X300457Y131582D01*
X299606Y131751D01*
X298755Y131582D01*
X298034Y131100D01*
X297552Y130379D01*
X297382Y129528D01*
X297552Y128676D01*
X298034Y127955D01*
X298755Y127473D01*
X299606Y127304D01*
X299657Y127314D01*
X303643Y123328D01*
X304139Y122996D01*
X304724Y122880D01*
X426532D01*
X444510Y104902D01*
Y101905D01*
X444048Y101714D01*
X429696Y116066D01*
X429200Y116397D01*
X428615Y116514D01*
X350811D01*
X350226Y116397D01*
X349730Y116066D01*
X337162Y103498D01*
X254571D01*
X242868Y115200D01*
Y128320D01*
X242911Y128349D01*
X243393Y129070D01*
X243562Y129921D01*
X243393Y130772D01*
X242911Y131494D01*
X242190Y131976D01*
X241339Y132145D01*
X240488Y131976D01*
X239766Y131494D01*
X239284Y130772D01*
X239115Y129921D01*
X239284Y129070D01*
X239617Y128571D01*
X239566Y128288D01*
X239042Y128040D01*
X239033Y128040D01*
X238189Y128208D01*
X237338Y128039D01*
X236616Y127557D01*
X236134Y126835D01*
X235965Y125984D01*
X236134Y125133D01*
X236616Y124412D01*
X237338Y123930D01*
X238189Y123760D01*
X239040Y123930D01*
X239309Y124110D01*
X239809Y123842D01*
Y114567D01*
X239926Y113982D01*
X240257Y113486D01*
X251751Y101991D01*
X251560Y101529D01*
X236259D01*
X233026Y104763D01*
Y176138D01*
X236170Y179282D01*
X236221Y179272D01*
X237071Y179441D01*
X237793Y179924D01*
X238275Y180645D01*
X238444Y181496D01*
X238275Y182347D01*
X237793Y183069D01*
X237071Y183551D01*
X236221Y183720D01*
X235699Y183616D01*
X235452Y184077D01*
X242026Y190651D01*
X242358Y191147D01*
X242474Y191732D01*
Y196430D01*
X242517Y196459D01*
X242999Y197180D01*
X243169Y198031D01*
X242999Y198882D01*
X242517Y199604D01*
X241796Y200086D01*
X240945Y200255D01*
X240094Y200086D01*
X239372Y199604D01*
X238890Y198882D01*
X238721Y198031D01*
X238890Y197180D01*
X239372Y196459D01*
X239416Y196430D01*
Y192366D01*
X228739Y181690D01*
X228277Y181881D01*
Y278878D01*
X231729Y282329D01*
X238950D01*
X238979Y282286D01*
X239700Y281804D01*
X240551Y281634D01*
X241402Y281804D01*
X242124Y282286D01*
X242606Y283007D01*
X242775Y283858D01*
X242606Y284709D01*
X242124Y285431D01*
X241402Y285913D01*
X240551Y286082D01*
X239700Y285913D01*
X238979Y285431D01*
X238950Y285388D01*
X231095D01*
X230510Y285271D01*
X230014Y284940D01*
X225667Y280593D01*
X225651Y280570D01*
X225151Y280722D01*
Y285442D01*
X235718Y296008D01*
X236106Y295751D01*
X236130Y295713D01*
X235965Y294881D01*
X236134Y294030D01*
X236616Y293309D01*
X237337Y292827D01*
X238189Y292657D01*
X239039Y292827D01*
X239761Y293309D01*
X240243Y294030D01*
X240412Y294881D01*
X240243Y295732D01*
X239761Y296454D01*
X239039Y296936D01*
X238189Y297105D01*
X237357Y296940D01*
X237319Y296964D01*
X237062Y297352D01*
X242420Y302710D01*
X242752Y303206D01*
X242868Y303792D01*
Y306273D01*
X242911Y306301D01*
X243393Y307023D01*
X243562Y307874D01*
X243393Y308725D01*
X242911Y309447D01*
X242190Y309929D01*
X241339Y310098D01*
X240488Y309929D01*
X239766Y309447D01*
X239284Y308725D01*
X239115Y307874D01*
X239284Y307023D01*
X239766Y306301D01*
X239809Y306273D01*
Y304425D01*
X222541Y287157D01*
X222502Y287099D01*
X222002Y287250D01*
Y293281D01*
X222045Y293309D01*
X222527Y294031D01*
X222696Y294882D01*
X222527Y295733D01*
X222045Y296454D01*
X221323Y296936D01*
X220472Y297106D01*
X219621Y296936D01*
X218900Y296454D01*
X218418Y295733D01*
X218249Y294882D01*
X218418Y294031D01*
X218900Y293309D01*
X218943Y293281D01*
X218943Y193087D01*
X218443Y192820D01*
X218174Y192999D01*
X217323Y193169D01*
X216472Y192999D01*
X215750Y192517D01*
X215268Y191796D01*
X215099Y190945D01*
X215268Y190094D01*
X215750Y189372D01*
X215793Y189344D01*
Y86962D01*
X214961D01*
X214375Y86846D01*
X213879Y86515D01*
X209155Y81790D01*
X208823Y81294D01*
X208707Y80709D01*
Y72861D01*
X208664Y72832D01*
X208182Y72111D01*
X208012Y71260D01*
X208182Y70409D01*
X208664Y69687D01*
X209385Y69205D01*
X210236Y69036D01*
X211087Y69205D01*
X211809Y69687D01*
X212291Y70409D01*
X212460Y71260D01*
X212291Y72111D01*
X211809Y72832D01*
X211766Y72861D01*
Y80075D01*
X215594Y83904D01*
X364934D01*
X364963Y83861D01*
X365684Y83378D01*
X366535Y83209D01*
X367387Y83378D01*
X368108Y83861D01*
X368590Y84582D01*
X368759Y85433D01*
X368590Y86284D01*
X368108Y87006D01*
X367387Y87488D01*
X366535Y87657D01*
X365684Y87488D01*
X364963Y87006D01*
X364934Y86962D01*
X218852D01*
Y94100D01*
X219352Y94252D01*
X219391Y94194D01*
X224115Y89470D01*
X224612Y89138D01*
X225197Y89022D01*
X373202Y89022D01*
X373231Y88979D01*
X373952Y88497D01*
X374803Y88327D01*
X375654Y88497D01*
X376376Y88979D01*
X376858Y89700D01*
X377027Y90551D01*
X376858Y91402D01*
X376376Y92124D01*
X375654Y92606D01*
X374803Y92775D01*
X373952Y92606D01*
X373231Y92124D01*
X373202Y92081D01*
X342141D01*
X341950Y92542D01*
X355358Y105951D01*
X423382D01*
X424061Y105272D01*
Y80608D01*
X424016Y80570D01*
X423165Y80401D01*
X422443Y79919D01*
X421961Y79198D01*
X421792Y78347D01*
X421961Y77495D01*
X422400Y76838D01*
X422442Y76376D01*
X421960Y75654D01*
X421791Y74803D01*
X421960Y73952D01*
X422061Y73801D01*
X421846Y73223D01*
X421261Y72832D01*
X420779Y72111D01*
X420610Y71260D01*
X420779Y70409D01*
X421261Y69687D01*
Y69289D01*
X420779Y68567D01*
X420610Y67716D01*
X420779Y66865D01*
X421261Y66144D01*
X421924Y65701D01*
X422062Y65175D01*
X421961Y65024D01*
X421792Y64173D01*
X421961Y63322D01*
X422443Y62601D01*
X423165Y62119D01*
X424016Y61949D01*
X424867Y62119D01*
X425588Y62601D01*
X425617Y62644D01*
X435812D01*
X436003Y62182D01*
X434800Y60978D01*
X410263D01*
X410234Y61021D01*
X409512Y61503D01*
X408661Y61673D01*
X407810Y61503D01*
X407089Y61021D01*
X406607Y60300D01*
X406438Y59449D01*
X406607Y58598D01*
X407089Y57876D01*
X407810Y57394D01*
X408661Y57225D01*
X409512Y57394D01*
X410234Y57876D01*
X410263Y57919D01*
X435433D01*
X436018Y58036D01*
X436515Y58367D01*
X445646Y67499D01*
X446108Y67308D01*
Y58901D01*
X437457Y50250D01*
X318055Y50250D01*
X316387Y51918D01*
X316397Y51968D01*
X316228Y52820D01*
X315746Y53541D01*
X315024Y54023D01*
X314173Y54192D01*
X313322Y54023D01*
X312601Y53541D01*
X312119Y52820D01*
X311949Y51968D01*
X312119Y51117D01*
X312601Y50396D01*
X313322Y49914D01*
X314173Y49745D01*
X314224Y49755D01*
X316340Y47639D01*
X316836Y47308D01*
X317421Y47191D01*
X337641D01*
X337690Y46691D01*
X337433Y46640D01*
X336944Y46543D01*
X336223Y46061D01*
X336194Y46018D01*
X263019D01*
X262990Y46061D01*
X262268Y46543D01*
X261417Y46712D01*
X260566Y46543D01*
X259845Y46061D01*
X259363Y45339D01*
X259193Y44488D01*
X259363Y43637D01*
X259845Y42916D01*
X260566Y42434D01*
X261417Y42264D01*
X262268Y42434D01*
X262990Y42916D01*
X263019Y42959D01*
X336194D01*
X336223Y42916D01*
X336944Y42434D01*
X337795Y42264D01*
X338646Y42434D01*
X339368Y42916D01*
X339850Y43637D01*
X340019Y44488D01*
X339850Y45339D01*
X339368Y46061D01*
X338646Y46543D01*
X338157Y46640D01*
X337901Y46691D01*
X337950Y47191D01*
X398077Y47191D01*
X398114Y47160D01*
X398081Y46819D01*
X397988Y46625D01*
X397574Y46543D01*
X396853Y46061D01*
X396371Y45339D01*
X396201Y44488D01*
X396371Y43637D01*
X396853Y42916D01*
X396896Y42887D01*
Y42520D01*
X397012Y41934D01*
X397344Y41438D01*
X398131Y40651D01*
X398627Y40319D01*
X399213Y40203D01*
X445994D01*
X446201Y39703D01*
X445823Y39325D01*
X388215D01*
X388187Y39368D01*
X387465Y39850D01*
X386614Y40019D01*
X385763Y39850D01*
X385042Y39368D01*
X384560Y38646D01*
X384390Y37795D01*
X384560Y36944D01*
X385042Y36223D01*
X385763Y35741D01*
X386614Y35571D01*
X387465Y35741D01*
X388187Y36223D01*
X388215Y36266D01*
X411249D01*
X411380Y35766D01*
X410938Y35103D01*
X410768Y34252D01*
X410938Y33401D01*
X411420Y32680D01*
X412141Y32197D01*
X412992Y32028D01*
X413843Y32197D01*
X414565Y32680D01*
X414593Y32723D01*
X432242D01*
X432394Y32223D01*
X431892Y31888D01*
X431410Y31166D01*
X431241Y30315D01*
X431251Y30264D01*
X426138Y25151D01*
X407900D01*
X407872Y25194D01*
X407150Y25677D01*
X406299Y25846D01*
X405448Y25677D01*
X405251Y25545D01*
X389790D01*
X389761Y25588D01*
X389040Y26070D01*
X388189Y26240D01*
X387338Y26070D01*
X386616Y25588D01*
X386588Y25545D01*
X362851D01*
X362265Y25429D01*
X361769Y25097D01*
X357099Y20427D01*
X345230D01*
Y22808D01*
X345273Y22837D01*
X345755Y23558D01*
X345925Y24409D01*
X345755Y25260D01*
X345273Y25982D01*
X344552Y26464D01*
X343701Y26633D01*
X342850Y26464D01*
X342128Y25982D01*
X341646Y25260D01*
X341477Y24409D01*
X341646Y23558D01*
X342128Y22837D01*
X342171Y22808D01*
Y20427D01*
X330494D01*
X330195Y20791D01*
Y28421D01*
X330078Y29006D01*
X329747Y29503D01*
X329088Y30161D01*
Y34225D01*
X329132Y34254D01*
X329614Y34976D01*
X329783Y35827D01*
X329614Y36678D01*
X329132Y37399D01*
X328410Y37881D01*
X327559Y38051D01*
X326708Y37881D01*
X325987Y37399D01*
X325504Y36678D01*
X325335Y35827D01*
X325504Y34976D01*
X325987Y34254D01*
X326030Y34225D01*
Y29528D01*
X326146Y28942D01*
X326478Y28446D01*
X327136Y27788D01*
Y21425D01*
X326138Y20427D01*
X311050D01*
X311021Y20470D01*
X310300Y20952D01*
X309449Y21122D01*
X308598Y20952D01*
X307876Y20470D01*
X307394Y19749D01*
X307225Y18898D01*
X307394Y18047D01*
X307876Y17325D01*
X308598Y16843D01*
X309449Y16674D01*
X310300Y16843D01*
X311021Y17325D01*
X311050Y17368D01*
X321218D01*
X321370Y16868D01*
X320868Y16533D01*
X320478Y15948D01*
X319900Y15733D01*
X319749Y15834D01*
X318898Y16003D01*
X318047Y15834D01*
X317325Y15352D01*
X316843Y14630D01*
X316674Y13780D01*
X316843Y12928D01*
X317325Y12207D01*
X318047Y11725D01*
X318898Y11556D01*
X318949Y11566D01*
X321359Y9155D01*
X321417Y9116D01*
X321266Y8616D01*
X308114D01*
X286859Y29870D01*
X286870Y29921D01*
X286700Y30772D01*
X286218Y31494D01*
X285497Y31976D01*
X284646Y32145D01*
X283795Y31976D01*
X283073Y31494D01*
X282591Y30772D01*
X282422Y29921D01*
X282516Y29448D01*
X282155Y28892D01*
X281826Y28826D01*
X281104Y28344D01*
X280622Y27623D01*
X280453Y26772D01*
X280622Y25921D01*
X281104Y25199D01*
X281826Y24717D01*
X282677Y24548D01*
X282727Y24558D01*
X304036Y3249D01*
X304532Y2918D01*
X305118Y2801D01*
X344855D01*
X344884Y2758D01*
X345606Y2276D01*
X346457Y2107D01*
X347308Y2276D01*
X348029Y2758D01*
X348058Y2801D01*
X409029D01*
X409057Y2758D01*
X409779Y2276D01*
X410630Y2107D01*
X411481Y2276D01*
X412202Y2758D01*
X412684Y3480D01*
X412854Y4331D01*
X412709Y5057D01*
X412989Y5557D01*
X415357D01*
X415637Y5057D01*
X415493Y4331D01*
X415662Y3480D01*
X416144Y2758D01*
X416865Y2276D01*
X417717Y2107D01*
X418568Y2276D01*
X419289Y2758D01*
X419318Y2801D01*
X447180D01*
X447766Y2918D01*
X448262Y3249D01*
X457485Y12473D01*
X457891Y12172D01*
X457523Y11484D01*
X457162Y10293D01*
X457040Y9055D01*
X457162Y7817D01*
X457523Y6627D01*
X458110Y5530D01*
X458899Y4568D01*
X459861Y3779D01*
X460957Y3193D01*
X462148Y2832D01*
X463386Y2710D01*
X464624Y2832D01*
X465814Y3193D01*
X466911Y3779D01*
X467873Y4568D01*
X468662Y5530D01*
X469248Y6627D01*
X469609Y7817D01*
X469731Y9055D01*
X469609Y10293D01*
X469248Y11484D01*
X468662Y12581D01*
X467873Y13542D01*
X466911Y14331D01*
X465814Y14918D01*
X464624Y15279D01*
X463386Y15401D01*
X462148Y15279D01*
X460957Y14918D01*
X460269Y14550D01*
X459968Y14956D01*
X466395Y21383D01*
X466419Y21390D01*
X466820Y21091D01*
X466755Y20993D01*
X466449Y20536D01*
X466280Y19685D01*
X466449Y18834D01*
X466931Y18113D01*
X467653Y17630D01*
X468504Y17461D01*
X469355Y17630D01*
X470076Y18113D01*
X470105Y18156D01*
X535534D01*
X536119Y18272D01*
X536615Y18604D01*
X545963Y27952D01*
X546295Y28448D01*
X546411Y29033D01*
Y35658D01*
X546911Y35790D01*
X547574Y35347D01*
X548425Y35178D01*
X549097Y35311D01*
X549539Y34967D01*
X549506Y34800D01*
X549675Y33949D01*
X550157Y33228D01*
X550878Y32746D01*
X551729Y32576D01*
X552335Y32697D01*
X552769Y32316D01*
X552730Y32119D01*
X552899Y31268D01*
X553381Y30547D01*
X554103Y30065D01*
X554954Y29895D01*
X555805Y30065D01*
X556099Y30261D01*
X556549Y29960D01*
X556469Y29559D01*
X556638Y28708D01*
X557120Y27986D01*
X557842Y27504D01*
X558693Y27335D01*
X559544Y27504D01*
X560265Y27986D01*
X560747Y28708D01*
X560917Y29559D01*
X560747Y30410D01*
X560655Y30547D01*
Y132301D01*
X560539Y132887D01*
X560207Y133383D01*
X554356Y139234D01*
Y239096D01*
X554240Y239681D01*
X553908Y240177D01*
X536014Y258072D01*
X536159Y258550D01*
X536284Y258575D01*
X537006Y259057D01*
X537488Y259779D01*
X537657Y260630D01*
X537488Y261481D01*
X537006Y262202D01*
X536986Y262215D01*
Y284036D01*
X547932Y294982D01*
X548263Y295478D01*
X548380Y296063D01*
Y313753D01*
X548423Y313782D01*
X548905Y314503D01*
X549074Y315354D01*
X548905Y316205D01*
X548423Y316927D01*
X547701Y317409D01*
X546850Y317578D01*
X545999Y317409D01*
X545278Y316927D01*
X544796Y316205D01*
X544627Y315354D01*
X544796Y314503D01*
X545278Y313782D01*
X545321Y313753D01*
Y296696D01*
X534375Y285751D01*
X534313Y285657D01*
X533813Y285809D01*
Y323202D01*
X533856Y323231D01*
X534338Y323952D01*
X534507Y324803D01*
X534338Y325654D01*
X533856Y326376D01*
X533135Y326858D01*
X532283Y327027D01*
X531432Y326858D01*
X530711Y326376D01*
X530229Y325654D01*
X530060Y324803D01*
X530229Y323952D01*
X530711Y323231D01*
X530754Y323202D01*
Y261724D01*
X530292Y261533D01*
X528694Y263131D01*
Y327926D01*
X528737Y327954D01*
X529219Y328676D01*
X529388Y329527D01*
X529219Y330378D01*
X529038Y330648D01*
X529306Y331148D01*
X532532D01*
X533117Y331264D01*
X533613Y331596D01*
X536121Y334103D01*
X536452Y334599D01*
X536569Y335185D01*
Y338556D01*
X536612Y338585D01*
X537094Y339306D01*
X537263Y340158D01*
X537094Y341008D01*
X536612Y341730D01*
X535890Y342212D01*
X535039Y342381D01*
X534188Y342212D01*
X533467Y341730D01*
X532985Y341008D01*
X532816Y340158D01*
X532985Y339306D01*
X533278Y338867D01*
X533091Y338341D01*
X533010Y338300D01*
X532283Y338444D01*
X531432Y338275D01*
X530711Y337793D01*
X530682Y337750D01*
X510233D01*
X509953Y338250D01*
X510098Y338976D01*
X509929Y339827D01*
X509446Y340549D01*
X508725Y341031D01*
X507874Y341200D01*
X507023Y341031D01*
X506301Y340549D01*
X505820Y339827D01*
X505650Y338976D01*
X505795Y338250D01*
X505515Y337750D01*
X497638D01*
X497052Y337633D01*
X496556Y337302D01*
X495326Y336072D01*
X495276Y336082D01*
X494425Y335913D01*
X493703Y335431D01*
X493221Y334709D01*
X493052Y333858D01*
X493221Y333007D01*
X493703Y332286D01*
X494425Y331804D01*
X495276Y331634D01*
X496127Y331804D01*
X496848Y332286D01*
X497330Y333007D01*
X497499Y333858D01*
X497489Y333909D01*
X498271Y334691D01*
X512078D01*
X512127Y334191D01*
X511620Y334090D01*
X511123Y333759D01*
X508422Y331057D01*
X469945D01*
X469749Y331188D01*
X468898Y331358D01*
X468047Y331188D01*
X467325Y330706D01*
X467296Y330663D01*
X428767D01*
X428738Y330706D01*
X428695Y330735D01*
Y335039D01*
X428578Y335625D01*
X428247Y336121D01*
X420766Y343601D01*
X420270Y343933D01*
X419685Y344049D01*
X397638D01*
X397052Y343933D01*
X396556Y343601D01*
X393119Y340163D01*
X393068Y340174D01*
X392217Y340004D01*
X391495Y339522D01*
X391413Y339399D01*
X376817D01*
X373403Y342813D01*
X372907Y343145D01*
X372322Y343261D01*
X357112D01*
X357084Y343304D01*
X356362Y343786D01*
X355511Y343955D01*
X354660Y343786D01*
X353939Y343304D01*
X353910Y343261D01*
X334569D01*
X334362Y343761D01*
X335515Y344915D01*
X368071D01*
X368100Y344871D01*
X368821Y344389D01*
X369672Y344220D01*
X370523Y344389D01*
X371245Y344871D01*
X371727Y345593D01*
X371896Y346444D01*
X371727Y347295D01*
X371538Y347577D01*
X371806Y348077D01*
X408635D01*
X408664Y348034D01*
X409385Y347552D01*
X410236Y347382D01*
X411087Y347552D01*
X411809Y348034D01*
X411837Y348077D01*
X414176D01*
X414456Y347577D01*
X414312Y346850D01*
X414481Y345999D01*
X414963Y345278D01*
X415684Y344796D01*
X416535Y344627D01*
X417386Y344796D01*
X418108Y345278D01*
X418590Y345999D01*
X418759Y346850D01*
X418615Y347577D01*
X418895Y348077D01*
X448819D01*
X449404Y348193D01*
X449900Y348525D01*
X456642Y355267D01*
X456693Y355257D01*
X457544Y355426D01*
X458265Y355908D01*
X458294Y355951D01*
X499740D01*
X499936Y355820D01*
X500787Y355650D01*
X501638Y355820D01*
X502360Y356301D01*
X502842Y357023D01*
X503011Y357874D01*
X503001Y357925D01*
X510673Y365597D01*
X577217D01*
X577802Y365713D01*
X578298Y366044D01*
X581003Y368749D01*
X581334Y369245D01*
X581451Y369830D01*
Y384226D01*
X581494Y384254D01*
X581976Y384976D01*
X582145Y385827D01*
X581976Y386678D01*
X581494Y387399D01*
X580772Y387881D01*
X579921Y388051D01*
D02*
G37*
G36*
X346063Y375452D02*
X345212Y375283D01*
X344491Y374801D01*
X344008Y374079D01*
X343839Y373228D01*
X344008Y372377D01*
X344491Y371656D01*
X345212Y371174D01*
X346063Y371005D01*
X346914Y371174D01*
X347274Y371415D01*
X347635Y371054D01*
X347552Y370930D01*
X347382Y370079D01*
X347552Y369228D01*
X348034Y368506D01*
X348755Y368024D01*
X349606Y367855D01*
X350457Y368024D01*
X351179Y368506D01*
X351661Y369228D01*
X351830Y370079D01*
X351661Y370930D01*
X351179Y371651D01*
X350457Y372133D01*
X349606Y372303D01*
X348755Y372133D01*
X348395Y371892D01*
X348035Y372253D01*
X348117Y372377D01*
X348287Y373228D01*
X348117Y374079D01*
X347636Y374801D01*
X346914Y375283D01*
X346063Y375452D01*
D02*
G37*
G36*
X391339Y371515D02*
X390488Y371346D01*
X389766Y370864D01*
X389284Y370142D01*
X389115Y369291D01*
X389284Y368440D01*
X389766Y367719D01*
X390488Y367237D01*
X391339Y367068D01*
X392190Y367237D01*
X392911Y367719D01*
X393393Y368440D01*
X393562Y369291D01*
X393393Y370142D01*
X392911Y370864D01*
X392190Y371346D01*
X391339Y371515D01*
D02*
G37*
G36*
X310630D02*
X309779Y371346D01*
X309057Y370864D01*
X308575Y370142D01*
X308406Y369291D01*
X308575Y368440D01*
X309057Y367719D01*
X309779Y367237D01*
X310630Y367068D01*
X311481Y367237D01*
X312202Y367719D01*
X312684Y368440D01*
X312854Y369291D01*
X312684Y370142D01*
X312202Y370864D01*
X311481Y371346D01*
X310630Y371515D01*
D02*
G37*
G36*
X411024Y371122D02*
X410173Y370952D01*
X409451Y370470D01*
X408969Y369749D01*
X408800Y368898D01*
X408969Y368047D01*
X409451Y367325D01*
X410173Y366843D01*
X411024Y366674D01*
X411875Y366843D01*
X412596Y367325D01*
X413078Y368047D01*
X413247Y368898D01*
X413078Y369749D01*
X412596Y370470D01*
X411875Y370952D01*
X411024Y371122D01*
D02*
G37*
G36*
X339370Y369940D02*
X338519Y369771D01*
X337798Y369289D01*
X337316Y368568D01*
X337146Y367717D01*
X337316Y366865D01*
X337798Y366144D01*
X338519Y365662D01*
X339370Y365493D01*
X340221Y365662D01*
X340943Y366144D01*
X341425Y366865D01*
X341594Y367717D01*
X341425Y368568D01*
X340943Y369289D01*
X340221Y369771D01*
X339370Y369940D01*
D02*
G37*
G36*
X416535Y369153D02*
X415684Y368984D01*
X414963Y368502D01*
X414481Y367780D01*
X414312Y366929D01*
X414481Y366078D01*
X414963Y365357D01*
X415684Y364875D01*
X416535Y364705D01*
X417386Y364875D01*
X418108Y365357D01*
X418590Y366078D01*
X418759Y366929D01*
X418590Y367780D01*
X418108Y368502D01*
X417386Y368984D01*
X416535Y369153D01*
D02*
G37*
G36*
X467717Y368366D02*
X466865Y368196D01*
X466144Y367714D01*
X465662Y366993D01*
X465493Y366142D01*
X465662Y365291D01*
X466144Y364569D01*
X466865Y364087D01*
X467717Y363918D01*
X468568Y364087D01*
X469289Y364569D01*
X469771Y365291D01*
X469940Y366142D01*
X469771Y366993D01*
X469289Y367714D01*
X468568Y368196D01*
X467717Y368366D01*
D02*
G37*
G36*
X425591Y367578D02*
X424740Y367409D01*
X424018Y366927D01*
X423536Y366205D01*
X423367Y365354D01*
X423536Y364503D01*
X424018Y363782D01*
X424740Y363300D01*
X425591Y363130D01*
X426442Y363300D01*
X427163Y363782D01*
X427645Y364503D01*
X427814Y365354D01*
X427645Y366205D01*
X427163Y366927D01*
X426442Y367409D01*
X425591Y367578D01*
D02*
G37*
G36*
X265748Y395925D02*
X264897Y395755D01*
X264176Y395273D01*
X263693Y394552D01*
X263524Y393701D01*
X263693Y392850D01*
X264176Y392128D01*
X264897Y391646D01*
X265748Y391477D01*
X266599Y391646D01*
X267320Y392128D01*
X267349Y392171D01*
X280863D01*
X285085Y387949D01*
Y378767D01*
X285042Y378738D01*
X284560Y378016D01*
X284390Y377165D01*
X284560Y376314D01*
X285042Y375593D01*
X285085Y375564D01*
Y365748D01*
X285201Y365163D01*
X285242Y365102D01*
X285178Y364780D01*
X285347Y363930D01*
X285829Y363208D01*
X286551Y362726D01*
X287402Y362557D01*
X288253Y362726D01*
X288974Y363208D01*
X289456Y363930D01*
X289625Y364780D01*
X289456Y365632D01*
X288974Y366353D01*
X288253Y366835D01*
X288144Y366857D01*
Y375564D01*
X288187Y375593D01*
X288669Y376314D01*
X288838Y377165D01*
X288669Y378016D01*
X288187Y378738D01*
X288144Y378767D01*
Y388583D01*
X288027Y389168D01*
X287696Y389664D01*
X282577Y394782D01*
X282081Y395114D01*
X281496Y395230D01*
X267349D01*
X267320Y395273D01*
X266599Y395755D01*
X265748Y395925D01*
D02*
G37*
G36*
X437795Y366397D02*
X436944Y366228D01*
X436223Y365746D01*
X435741Y365024D01*
X435571Y364173D01*
X435741Y363322D01*
X436223Y362601D01*
X436944Y362119D01*
X437795Y361949D01*
X438646Y362119D01*
X439368Y362601D01*
X439850Y363322D01*
X440019Y364173D01*
X439850Y365024D01*
X439368Y365746D01*
X438646Y366228D01*
X437795Y366397D01*
D02*
G37*
G36*
X461811Y366003D02*
X460960Y365834D01*
X460239Y365352D01*
X459757Y364631D01*
X459587Y363779D01*
X459757Y362929D01*
X460239Y362207D01*
X460960Y361725D01*
X461811Y361556D01*
X462662Y361725D01*
X463383Y362207D01*
X463866Y362929D01*
X464035Y363779D01*
X463866Y364631D01*
X463383Y365352D01*
X462662Y365834D01*
X461811Y366003D01*
D02*
G37*
G36*
X127441Y373273D02*
X126280Y373158D01*
X125164Y372820D01*
X124135Y372270D01*
X123234Y371530D01*
X122494Y370628D01*
X121944Y369600D01*
X121605Y368484D01*
X121491Y367323D01*
X121605Y366162D01*
X121944Y365046D01*
X122494Y364017D01*
X123234Y363116D01*
X124135Y362376D01*
X125164Y361826D01*
X126280Y361487D01*
X127441Y361373D01*
X128602Y361487D01*
X129718Y361826D01*
X130746Y362376D01*
X131648Y363116D01*
X132388Y364017D01*
X132938Y365046D01*
X133276Y366162D01*
X133391Y367323D01*
X133276Y368484D01*
X132938Y369600D01*
X132388Y370628D01*
X131648Y371530D01*
X130746Y372270D01*
X129718Y372820D01*
X128602Y373158D01*
X127441Y373273D01*
D02*
G37*
G36*
X74410D02*
X73249Y373158D01*
X72132Y372820D01*
X71104Y372270D01*
X70202Y371530D01*
X69462Y370628D01*
X68913Y369600D01*
X68574Y368484D01*
X68459Y367323D01*
X68574Y366162D01*
X68913Y365046D01*
X69462Y364017D01*
X70202Y363116D01*
X71104Y362376D01*
X72132Y361826D01*
X73249Y361487D01*
X74410Y361373D01*
X75570Y361487D01*
X76686Y361826D01*
X77715Y362376D01*
X78617Y363116D01*
X79357Y364017D01*
X79906Y365046D01*
X80245Y366162D01*
X80359Y367323D01*
X80245Y368484D01*
X79906Y369600D01*
X79357Y370628D01*
X78617Y371530D01*
X77715Y372270D01*
X76686Y372820D01*
X75570Y373158D01*
X74410Y373273D01*
D02*
G37*
G36*
X429921Y364822D02*
X429070Y364653D01*
X428349Y364171D01*
X427867Y363449D01*
X427697Y362598D01*
X427867Y361747D01*
X428349Y361026D01*
X429070Y360544D01*
X429921Y360375D01*
X430772Y360544D01*
X431494Y361026D01*
X431976Y361747D01*
X432145Y362598D01*
X431976Y363449D01*
X431494Y364171D01*
X430772Y364653D01*
X429921Y364822D01*
D02*
G37*
G36*
X43701Y367965D02*
X42617Y367822D01*
X41608Y367404D01*
X40741Y366739D01*
X40076Y365872D01*
X39658Y364863D01*
X39515Y363779D01*
X39658Y362696D01*
X40076Y361687D01*
X40741Y360820D01*
X41608Y360155D01*
X42617Y359737D01*
X43701Y359594D01*
X44784Y359737D01*
X45794Y360155D01*
X46660Y360820D01*
X47326Y361687D01*
X47744Y362696D01*
X47886Y363779D01*
X47744Y364863D01*
X47326Y365872D01*
X46660Y366739D01*
X45794Y367404D01*
X44784Y367822D01*
X43701Y367965D01*
D02*
G37*
G36*
X510630Y362066D02*
X509779Y361897D01*
X509057Y361415D01*
X508575Y360694D01*
X508406Y359842D01*
X508575Y358992D01*
X509057Y358270D01*
X509779Y357788D01*
X510630Y357619D01*
X511481Y357788D01*
X512202Y358270D01*
X512684Y358992D01*
X512854Y359842D01*
X512684Y360694D01*
X512202Y361415D01*
X511481Y361897D01*
X510630Y362066D01*
D02*
G37*
G36*
X425197Y360098D02*
X424346Y359929D01*
X423624Y359447D01*
X423142Y358725D01*
X422973Y357874D01*
X423142Y357023D01*
X423624Y356301D01*
X424346Y355820D01*
X425197Y355650D01*
X426048Y355820D01*
X426769Y356301D01*
X427251Y357023D01*
X427421Y357874D01*
X427251Y358725D01*
X426769Y359447D01*
X426048Y359929D01*
X425197Y360098D01*
D02*
G37*
G36*
X433071Y360492D02*
X432220Y360322D01*
X431498Y359840D01*
X431016Y359119D01*
X430847Y358268D01*
X431016Y357417D01*
X431498Y356695D01*
X432220Y356213D01*
X433071Y356044D01*
X433922Y356213D01*
X434643Y356695D01*
X434783Y356904D01*
X435313Y356798D01*
X435347Y356629D01*
X435829Y355908D01*
X436551Y355426D01*
X437402Y355257D01*
X438253Y355426D01*
X438974Y355908D01*
X439456Y356629D01*
X439625Y357480D01*
X439456Y358331D01*
X438974Y359053D01*
X438253Y359535D01*
X437402Y359704D01*
X436551Y359535D01*
X435829Y359053D01*
X435690Y358844D01*
X435159Y358950D01*
X435125Y359119D01*
X434643Y359840D01*
X433922Y360322D01*
X433071Y360492D01*
D02*
G37*
G36*
X38110Y359512D02*
X36667Y359322D01*
X35323Y358765D01*
X34168Y357879D01*
X33282Y356725D01*
X32725Y355380D01*
X32535Y353937D01*
X32725Y352494D01*
X33282Y351149D01*
X34168Y349995D01*
X35323Y349109D01*
X36667Y348552D01*
X38110Y348362D01*
X39553Y348552D01*
X40898Y349109D01*
X42053Y349995D01*
X42939Y351149D01*
X43496Y352494D01*
X43685Y353937D01*
X43496Y355380D01*
X42939Y356725D01*
X42053Y357879D01*
X40898Y358765D01*
X39553Y359322D01*
X38110Y359512D01*
D02*
G37*
G36*
X127441Y359887D02*
X126280Y359773D01*
X125164Y359434D01*
X124135Y358884D01*
X123234Y358144D01*
X122494Y357243D01*
X121944Y356214D01*
X121605Y355098D01*
X121491Y353937D01*
X121605Y352776D01*
X121944Y351660D01*
X122494Y350631D01*
X123234Y349730D01*
X124135Y348990D01*
X125164Y348440D01*
X126280Y348101D01*
X127441Y347987D01*
X128602Y348101D01*
X129718Y348440D01*
X130746Y348990D01*
X131648Y349730D01*
X132388Y350631D01*
X132938Y351660D01*
X133276Y352776D01*
X133391Y353937D01*
X133276Y355098D01*
X132938Y356214D01*
X132388Y357243D01*
X131648Y358144D01*
X130746Y358884D01*
X129718Y359434D01*
X128602Y359773D01*
X127441Y359887D01*
D02*
G37*
G36*
X74410D02*
X73249Y359773D01*
X72132Y359434D01*
X71104Y358884D01*
X70202Y358144D01*
X69462Y357243D01*
X68913Y356214D01*
X68574Y355098D01*
X68459Y353937D01*
X68574Y352776D01*
X68913Y351660D01*
X69462Y350631D01*
X70202Y349730D01*
X71104Y348990D01*
X72132Y348440D01*
X73249Y348101D01*
X74410Y347987D01*
X75570Y348101D01*
X76686Y348440D01*
X77715Y348990D01*
X78617Y349730D01*
X79357Y350631D01*
X79906Y351660D01*
X80245Y352776D01*
X80359Y353937D01*
X80245Y355098D01*
X79906Y356214D01*
X79357Y357243D01*
X78617Y358144D01*
X77715Y358884D01*
X76686Y359434D01*
X75570Y359773D01*
X74410Y359887D01*
D02*
G37*
G36*
X505118Y349468D02*
X504267Y349299D01*
X503546Y348817D01*
X503064Y348095D01*
X502894Y347244D01*
X503064Y346393D01*
X503546Y345672D01*
X504267Y345189D01*
X505118Y345020D01*
X505969Y345189D01*
X506691Y345672D01*
X507173Y346393D01*
X507342Y347244D01*
X507173Y348095D01*
X506691Y348817D01*
X505969Y349299D01*
X505118Y349468D01*
D02*
G37*
G36*
X511417Y347106D02*
X510566Y346936D01*
X509845Y346454D01*
X509363Y345733D01*
X509194Y344882D01*
X509363Y344031D01*
X509845Y343309D01*
X510566Y342827D01*
X511417Y342658D01*
X512268Y342827D01*
X512990Y343309D01*
X513472Y344031D01*
X513641Y344882D01*
X513472Y345733D01*
X512990Y346454D01*
X512268Y346936D01*
X511417Y347106D01*
D02*
G37*
G36*
X501181Y344350D02*
X500330Y344180D01*
X499609Y343699D01*
X499127Y342977D01*
X498957Y342126D01*
X499127Y341275D01*
X499609Y340553D01*
X500330Y340071D01*
X501181Y339902D01*
X502032Y340071D01*
X502754Y340553D01*
X503236Y341275D01*
X503405Y342126D01*
X503236Y342977D01*
X502754Y343699D01*
X502032Y344180D01*
X501181Y344350D01*
D02*
G37*
G36*
X515354Y343169D02*
X514503Y342999D01*
X513782Y342517D01*
X513300Y341796D01*
X513131Y340945D01*
X513300Y340094D01*
X513782Y339372D01*
X514503Y338890D01*
X515354Y338721D01*
X516205Y338890D01*
X516927Y339372D01*
X517409Y340094D01*
X517578Y340945D01*
X517409Y341796D01*
X516927Y342517D01*
X516205Y342999D01*
X515354Y343169D01*
D02*
G37*
G36*
X448032D02*
X447181Y342999D01*
X446459Y342517D01*
X445977Y341796D01*
X445808Y340945D01*
X445977Y340094D01*
X446459Y339372D01*
X447181Y338890D01*
X448032Y338721D01*
X448882Y338890D01*
X449604Y339372D01*
X450086Y340094D01*
X450255Y340945D01*
X450086Y341796D01*
X449604Y342517D01*
X448882Y342999D01*
X448032Y343169D01*
D02*
G37*
G36*
X575984Y345921D02*
X574798Y345765D01*
X573693Y345307D01*
X572744Y344579D01*
X572016Y343630D01*
X571558Y342525D01*
X571402Y341339D01*
X571558Y340153D01*
X572016Y339047D01*
X572744Y338098D01*
X573693Y337370D01*
X574798Y336912D01*
X575984Y336756D01*
X577170Y336912D01*
X578275Y337370D01*
X579225Y338098D01*
X579953Y339047D01*
X580411Y340153D01*
X580567Y341339D01*
X580411Y342525D01*
X579953Y343630D01*
X579225Y344579D01*
X578275Y345307D01*
X577170Y345765D01*
X575984Y345921D01*
D02*
G37*
G36*
X450394Y338051D02*
X449543Y337881D01*
X448821Y337399D01*
X448339Y336678D01*
X448170Y335827D01*
X448339Y334976D01*
X448821Y334254D01*
X449543Y333772D01*
X450394Y333603D01*
X451245Y333772D01*
X451966Y334254D01*
X452448Y334976D01*
X452618Y335827D01*
X452448Y336678D01*
X451966Y337399D01*
X451245Y337881D01*
X450394Y338051D01*
D02*
G37*
G36*
X279921Y335688D02*
X279070Y335519D01*
X278349Y335037D01*
X277867Y334316D01*
X277697Y333465D01*
X277867Y332613D01*
X278349Y331892D01*
X279070Y331410D01*
X279921Y331241D01*
X280772Y331410D01*
X281494Y331892D01*
X281976Y332613D01*
X282145Y333465D01*
X281976Y334316D01*
X281494Y335037D01*
X280772Y335519D01*
X279921Y335688D01*
D02*
G37*
G36*
X238976Y332932D02*
X238125Y332763D01*
X237404Y332281D01*
X236922Y331560D01*
X236753Y330709D01*
X236922Y329858D01*
X237404Y329136D01*
X238125Y328654D01*
X238976Y328485D01*
X239827Y328654D01*
X240549Y329136D01*
X241031Y329858D01*
X241200Y330709D01*
X241031Y331560D01*
X240549Y332281D01*
X239827Y332763D01*
X238976Y332932D01*
D02*
G37*
G36*
X279528Y325059D02*
X278677Y324889D01*
X277955Y324407D01*
X277473Y323686D01*
X277304Y322835D01*
X277473Y321984D01*
X277955Y321262D01*
X278677Y320780D01*
X279528Y320611D01*
X280379Y320780D01*
X281100Y321262D01*
X281582Y321984D01*
X281751Y322835D01*
X281582Y323686D01*
X281100Y324407D01*
X280379Y324889D01*
X279528Y325059D01*
D02*
G37*
G36*
X57087Y322463D02*
X55695Y322280D01*
X54398Y321743D01*
X53285Y320888D01*
X52430Y319775D01*
X52337Y319549D01*
X51837D01*
X51743Y319775D01*
X50889Y320888D01*
X49775Y321743D01*
X48478Y322280D01*
X47087Y322463D01*
X45695Y322280D01*
X44398Y321743D01*
X43285Y320888D01*
X42430Y319775D01*
X42337Y319549D01*
X41837D01*
X41743Y319775D01*
X40889Y320888D01*
X39775Y321743D01*
X38478Y322280D01*
X37087Y322463D01*
X35695Y322280D01*
X34398Y321743D01*
X33285Y320888D01*
X32430Y319775D01*
X32337Y319549D01*
X31837D01*
X31743Y319775D01*
X30889Y320888D01*
X29775Y321743D01*
X28478Y322280D01*
X27087Y322463D01*
X25695Y322280D01*
X24398Y321743D01*
X23285Y320888D01*
X22430Y319775D01*
X22337Y319549D01*
X21837D01*
X21743Y319775D01*
X20888Y320888D01*
X19775Y321743D01*
X18478Y322280D01*
X17087Y322463D01*
X15695Y322280D01*
X14398Y321743D01*
X13285Y320888D01*
X12430Y319775D01*
X11893Y318478D01*
X11710Y317087D01*
X11893Y315695D01*
X12430Y314398D01*
X13285Y313285D01*
X14398Y312430D01*
X14624Y312337D01*
Y311837D01*
X14398Y311743D01*
X13285Y310889D01*
X12430Y309775D01*
X11893Y308478D01*
X11710Y307087D01*
X11893Y305695D01*
X12430Y304398D01*
X13285Y303285D01*
X14398Y302430D01*
X14624Y302337D01*
Y301837D01*
X14398Y301743D01*
X13285Y300888D01*
X12430Y299775D01*
X11893Y298478D01*
X11710Y297087D01*
X11893Y295695D01*
X12430Y294398D01*
X13285Y293285D01*
X14398Y292430D01*
X14624Y292337D01*
Y291837D01*
X14398Y291743D01*
X13285Y290889D01*
X12430Y289775D01*
X11893Y288478D01*
X11710Y287087D01*
X11893Y285695D01*
X12430Y284398D01*
X13285Y283285D01*
X14398Y282430D01*
X14624Y282337D01*
Y281837D01*
X14398Y281743D01*
X13285Y280889D01*
X12430Y279775D01*
X11893Y278478D01*
X11710Y277087D01*
X11893Y275695D01*
X12430Y274398D01*
X13285Y273285D01*
X14398Y272430D01*
X15695Y271893D01*
X17087Y271710D01*
X18478Y271893D01*
X19775Y272430D01*
X20888Y273285D01*
X21743Y274398D01*
X21837Y274624D01*
X22337D01*
X22430Y274398D01*
X23285Y273285D01*
X24398Y272430D01*
X25695Y271893D01*
X27087Y271710D01*
X28478Y271893D01*
X29775Y272430D01*
X30889Y273285D01*
X31743Y274398D01*
X31837Y274624D01*
X32337D01*
X32430Y274398D01*
X33285Y273285D01*
X34398Y272430D01*
X35695Y271893D01*
X37087Y271710D01*
X38478Y271893D01*
X39775Y272430D01*
X40889Y273285D01*
X41743Y274398D01*
X41837Y274624D01*
X42337D01*
X42430Y274398D01*
X43285Y273285D01*
X44398Y272430D01*
X45695Y271893D01*
X47087Y271710D01*
X48478Y271893D01*
X49775Y272430D01*
X50889Y273285D01*
X51743Y274398D01*
X51837Y274624D01*
X52337D01*
X52430Y274398D01*
X53285Y273285D01*
X54398Y272430D01*
X55695Y271893D01*
X57087Y271710D01*
X58478Y271893D01*
X59775Y272430D01*
X60888Y273285D01*
X61743Y274398D01*
X62280Y275695D01*
X62463Y277087D01*
X62280Y278478D01*
X61743Y279775D01*
X60888Y280889D01*
X59775Y281743D01*
X59549Y281837D01*
Y282337D01*
X59775Y282430D01*
X60888Y283285D01*
X61743Y284398D01*
X62280Y285695D01*
X62463Y287087D01*
X62280Y288478D01*
X61743Y289775D01*
X60888Y290889D01*
X59775Y291743D01*
X59549Y291837D01*
Y292337D01*
X59775Y292430D01*
X60888Y293285D01*
X61743Y294398D01*
X62280Y295695D01*
X62463Y297087D01*
X62280Y298478D01*
X61743Y299775D01*
X60888Y300888D01*
X59775Y301743D01*
X59549Y301837D01*
Y302337D01*
X59775Y302430D01*
X60888Y303285D01*
X61743Y304398D01*
X62280Y305695D01*
X62463Y307087D01*
X62280Y308478D01*
X61743Y309775D01*
X60888Y310889D01*
X59775Y311743D01*
X59549Y311837D01*
Y312337D01*
X59775Y312430D01*
X60888Y313285D01*
X61743Y314398D01*
X62280Y315695D01*
X62463Y317087D01*
X62280Y318478D01*
X61743Y319775D01*
X60888Y320888D01*
X59775Y321743D01*
X58478Y322280D01*
X57087Y322463D01*
D02*
G37*
G36*
X575984Y322299D02*
X574798Y322143D01*
X573693Y321685D01*
X572744Y320957D01*
X572016Y320008D01*
X571558Y318903D01*
X571402Y317717D01*
X571558Y316530D01*
X572016Y315425D01*
X572744Y314476D01*
X573693Y313748D01*
X574798Y313290D01*
X575984Y313134D01*
X577170Y313290D01*
X578275Y313748D01*
X579225Y314476D01*
X579953Y315425D01*
X580411Y316530D01*
X580567Y317717D01*
X580411Y318903D01*
X579953Y320008D01*
X579225Y320957D01*
X578275Y321685D01*
X577170Y322143D01*
X575984Y322299D01*
D02*
G37*
G36*
X281890Y317184D02*
X281039Y317015D01*
X280317Y316533D01*
X279835Y315812D01*
X279666Y314961D01*
X279835Y314110D01*
X280317Y313388D01*
X281039Y312906D01*
X281890Y312737D01*
X282741Y312906D01*
X283462Y313388D01*
X283944Y314110D01*
X284114Y314961D01*
X283944Y315812D01*
X283462Y316533D01*
X282741Y317015D01*
X281890Y317184D01*
D02*
G37*
G36*
X242126D02*
X241275Y317015D01*
X240553Y316533D01*
X240071Y315812D01*
X239902Y314961D01*
X240071Y314110D01*
X240553Y313388D01*
X241275Y312906D01*
X242126Y312737D01*
X242977Y312906D01*
X243699Y313388D01*
X244180Y314110D01*
X244350Y314961D01*
X244180Y315812D01*
X243699Y316533D01*
X242977Y317015D01*
X242126Y317184D01*
D02*
G37*
G36*
X428898Y302640D02*
X428112Y302537D01*
X427381Y302234D01*
X426752Y301751D01*
X426270Y301123D01*
X425967Y300392D01*
X425864Y299606D01*
X425967Y298821D01*
X426270Y298089D01*
X426752Y297461D01*
X427381Y296979D01*
X428112Y296676D01*
X428898Y296572D01*
X429683Y296676D01*
X430414Y296979D01*
X431043Y297461D01*
X431525Y298089D01*
X431828Y298821D01*
X431931Y299606D01*
X431828Y300392D01*
X431525Y301123D01*
X431043Y301751D01*
X430414Y302234D01*
X429683Y302537D01*
X428898Y302640D01*
D02*
G37*
G36*
X283858Y297893D02*
X283007Y297724D01*
X282286Y297242D01*
X281804Y296520D01*
X281634Y295669D01*
X281804Y294818D01*
X282286Y294097D01*
X283007Y293615D01*
X283858Y293445D01*
X284709Y293615D01*
X285431Y294097D01*
X285913Y294818D01*
X286082Y295669D01*
X285913Y296520D01*
X285431Y297242D01*
X284709Y297724D01*
X283858Y297893D01*
D02*
G37*
G36*
X283465Y289625D02*
X282613Y289456D01*
X281892Y288974D01*
X281410Y288253D01*
X281241Y287402D01*
X281410Y286551D01*
X281892Y285829D01*
X282613Y285347D01*
X283465Y285178D01*
X284316Y285347D01*
X285037Y285829D01*
X285519Y286551D01*
X285688Y287402D01*
X285519Y288253D01*
X285037Y288974D01*
X284316Y289456D01*
X283465Y289625D01*
D02*
G37*
G36*
X413386Y291981D02*
X412303Y291838D01*
X411293Y291420D01*
X410426Y290755D01*
X409761Y289888D01*
X409343Y288878D01*
X409200Y287795D01*
X409343Y286712D01*
X409761Y285703D01*
X410426Y284836D01*
X411293Y284171D01*
X412303Y283752D01*
X413386Y283610D01*
X414469Y283752D01*
X415479Y284171D01*
X416345Y284836D01*
X417010Y285703D01*
X417429Y286712D01*
X417571Y287795D01*
X417429Y288878D01*
X417010Y289888D01*
X416345Y290755D01*
X415479Y291420D01*
X414469Y291838D01*
X413386Y291981D01*
D02*
G37*
G36*
X380315Y284114D02*
X379464Y283944D01*
X378743Y283462D01*
X378260Y282741D01*
X378091Y281890D01*
X378260Y281039D01*
X378743Y280317D01*
X379464Y279835D01*
X380315Y279666D01*
X381166Y279835D01*
X381887Y280317D01*
X382369Y281039D01*
X382539Y281890D01*
X382369Y282741D01*
X381887Y283462D01*
X381166Y283944D01*
X380315Y284114D01*
D02*
G37*
G36*
X576535Y288441D02*
X575349Y288285D01*
X574244Y287827D01*
X573295Y287099D01*
X572567Y286150D01*
X572109Y285044D01*
X571953Y283858D01*
X572109Y282672D01*
X572567Y281567D01*
X573295Y280618D01*
X574244Y279890D01*
X575349Y279432D01*
X576535Y279276D01*
X577722Y279432D01*
X578827Y279890D01*
X579776Y280618D01*
X580504Y281567D01*
X580962Y282672D01*
X581118Y283858D01*
X580962Y285044D01*
X580504Y286150D01*
X579776Y287099D01*
X578827Y287827D01*
X577722Y288285D01*
X576535Y288441D01*
D02*
G37*
G36*
X375590Y282932D02*
X374740Y282763D01*
X374018Y282281D01*
X373536Y281560D01*
X373367Y280709D01*
X373536Y279858D01*
X374018Y279136D01*
X374740Y278654D01*
X375590Y278485D01*
X376442Y278654D01*
X377163Y279136D01*
X377645Y279858D01*
X377814Y280709D01*
X377645Y281560D01*
X377163Y282281D01*
X376442Y282763D01*
X375590Y282932D01*
D02*
G37*
G36*
X282283Y280570D02*
X281432Y280401D01*
X280711Y279919D01*
X280229Y279198D01*
X280060Y278346D01*
X280229Y277495D01*
X280711Y276774D01*
X281432Y276292D01*
X282283Y276123D01*
X283135Y276292D01*
X283856Y276774D01*
X284338Y277495D01*
X284507Y278346D01*
X284338Y279198D01*
X283856Y279919D01*
X283135Y280401D01*
X282283Y280570D01*
D02*
G37*
G36*
X413386Y280170D02*
X412303Y280027D01*
X411293Y279609D01*
X410426Y278944D01*
X409761Y278077D01*
X409343Y277067D01*
X409200Y275984D01*
X409343Y274901D01*
X409761Y273891D01*
X410426Y273025D01*
X411293Y272360D01*
X412303Y271941D01*
X413386Y271799D01*
X414469Y271941D01*
X415479Y272360D01*
X416345Y273025D01*
X417010Y273891D01*
X417429Y274901D01*
X417571Y275984D01*
X417429Y277067D01*
X417010Y278077D01*
X416345Y278944D01*
X415479Y279609D01*
X414469Y280027D01*
X413386Y280170D01*
D02*
G37*
G36*
X284646Y272303D02*
X283795Y272133D01*
X283073Y271651D01*
X282591Y270930D01*
X282422Y270079D01*
X282591Y269228D01*
X283073Y268506D01*
X283795Y268024D01*
X284646Y267855D01*
X285497Y268024D01*
X286218Y268506D01*
X286700Y269228D01*
X286870Y270079D01*
X286700Y270930D01*
X286218Y271651D01*
X285497Y272133D01*
X284646Y272303D01*
D02*
G37*
G36*
X565567Y276590D02*
X556480D01*
Y267504D01*
X565567D01*
Y276590D01*
D02*
G37*
G36*
X567323Y358523D02*
X566472Y358354D01*
X565750Y357872D01*
X565268Y357150D01*
X565099Y356299D01*
X565268Y355448D01*
X565750Y354727D01*
X565793Y354698D01*
Y347878D01*
X554037Y336121D01*
X553705Y335625D01*
X553589Y335039D01*
Y299452D01*
X539076Y284940D01*
X538744Y284443D01*
X538628Y283858D01*
Y264987D01*
X538585Y264958D01*
X538103Y264237D01*
X537934Y263386D01*
X538103Y262535D01*
X538585Y261813D01*
X539306Y261331D01*
X540158Y261162D01*
X541009Y261331D01*
X541730Y261813D01*
X542212Y262535D01*
X542381Y263386D01*
X542212Y264237D01*
X541730Y264958D01*
X541687Y264987D01*
Y283225D01*
X556200Y297738D01*
X556531Y298234D01*
X556647Y298819D01*
Y324984D01*
X565016D01*
Y334071D01*
X557020D01*
X556812Y334571D01*
X568404Y346163D01*
X568736Y346659D01*
X568852Y347244D01*
Y354698D01*
X568895Y354727D01*
X569377Y355448D01*
X569547Y356299D01*
X569377Y357150D01*
X568895Y357872D01*
X568174Y358354D01*
X567323Y358523D01*
D02*
G37*
G36*
X428898Y267207D02*
X428112Y267104D01*
X427381Y266801D01*
X426752Y266318D01*
X426270Y265690D01*
X425967Y264958D01*
X425864Y264173D01*
X425967Y263388D01*
X426270Y262656D01*
X426752Y262028D01*
X427381Y261546D01*
X428112Y261243D01*
X428898Y261139D01*
X429683Y261243D01*
X430414Y261546D01*
X431043Y262028D01*
X431525Y262656D01*
X431828Y263388D01*
X431931Y264173D01*
X431828Y264958D01*
X431525Y265690D01*
X431043Y266318D01*
X430414Y266801D01*
X429683Y267104D01*
X428898Y267207D01*
D02*
G37*
G36*
X282283Y264035D02*
X281432Y263866D01*
X280711Y263384D01*
X280229Y262662D01*
X280060Y261811D01*
X280229Y260960D01*
X280711Y260239D01*
X281432Y259756D01*
X282283Y259587D01*
X283135Y259756D01*
X283856Y260239D01*
X284338Y260960D01*
X284507Y261811D01*
X284338Y262662D01*
X283856Y263384D01*
X283135Y263866D01*
X282283Y264035D01*
D02*
G37*
G36*
X576535Y264819D02*
X575349Y264663D01*
X574244Y264205D01*
X573295Y263476D01*
X572567Y262527D01*
X572109Y261422D01*
X571953Y260236D01*
X572109Y259050D01*
X572567Y257945D01*
X573295Y256996D01*
X574244Y256268D01*
X575349Y255810D01*
X576535Y255654D01*
X577722Y255810D01*
X578827Y256268D01*
X579776Y256996D01*
X580504Y257945D01*
X580962Y259050D01*
X581118Y260236D01*
X580962Y261422D01*
X580504Y262527D01*
X579776Y263476D01*
X578827Y264205D01*
X577722Y264663D01*
X576535Y264819D01*
D02*
G37*
G36*
X285433Y255767D02*
X284582Y255598D01*
X283861Y255116D01*
X283379Y254394D01*
X283209Y253543D01*
X283379Y252692D01*
X283861Y251971D01*
X284582Y251489D01*
X285433Y251320D01*
X286284Y251489D01*
X287006Y251971D01*
X287488Y252692D01*
X287657Y253543D01*
X287488Y254394D01*
X287006Y255116D01*
X286284Y255598D01*
X285433Y255767D01*
D02*
G37*
G36*
X235433Y255373D02*
X234582Y255204D01*
X233861Y254722D01*
X233379Y254001D01*
X233209Y253150D01*
X233379Y252299D01*
X233861Y251577D01*
X234582Y251095D01*
X235433Y250926D01*
X236284Y251095D01*
X237006Y251577D01*
X237488Y252299D01*
X237657Y253150D01*
X237488Y254001D01*
X237006Y254722D01*
X236284Y255204D01*
X235433Y255373D01*
D02*
G37*
G36*
X127441Y261860D02*
X126280Y261746D01*
X125164Y261407D01*
X124135Y260858D01*
X123234Y260118D01*
X122494Y259216D01*
X121944Y258187D01*
X121605Y257071D01*
X121491Y255910D01*
X121605Y254750D01*
X121944Y253633D01*
X122494Y252605D01*
X123234Y251703D01*
X124135Y250963D01*
X125164Y250413D01*
X126280Y250075D01*
X127441Y249960D01*
X128602Y250075D01*
X129718Y250413D01*
X130746Y250963D01*
X131648Y251703D01*
X132388Y252605D01*
X132938Y253633D01*
X133276Y254750D01*
X133391Y255910D01*
X133276Y257071D01*
X132938Y258187D01*
X132388Y259216D01*
X131648Y260118D01*
X130746Y260858D01*
X129718Y261407D01*
X128602Y261746D01*
X127441Y261860D01*
D02*
G37*
G36*
X74410D02*
X73249Y261746D01*
X72132Y261407D01*
X71104Y260858D01*
X70202Y260118D01*
X69462Y259216D01*
X68913Y258187D01*
X68574Y257071D01*
X68459Y255910D01*
X68574Y254750D01*
X68913Y253633D01*
X69462Y252605D01*
X70202Y251703D01*
X71104Y250963D01*
X72132Y250413D01*
X73249Y250075D01*
X74410Y249960D01*
X75570Y250075D01*
X76686Y250413D01*
X77715Y250963D01*
X78617Y251703D01*
X79357Y252605D01*
X79906Y253633D01*
X80245Y254750D01*
X80359Y255910D01*
X80245Y257071D01*
X79906Y258187D01*
X79357Y259216D01*
X78617Y260118D01*
X77715Y260858D01*
X76686Y261407D01*
X75570Y261746D01*
X74410Y261860D01*
D02*
G37*
G36*
X573622Y249468D02*
X572771Y249299D01*
X572050Y248817D01*
X571567Y248095D01*
X571398Y247244D01*
X571567Y246393D01*
X572050Y245672D01*
X572771Y245189D01*
X573622Y245020D01*
X574473Y245189D01*
X575195Y245672D01*
X575677Y246393D01*
X575846Y247244D01*
X575677Y248095D01*
X575195Y248817D01*
X574473Y249299D01*
X573622Y249468D01*
D02*
G37*
G36*
X428898Y251065D02*
X428112Y250962D01*
X427381Y250659D01*
X426752Y250177D01*
X426270Y249548D01*
X425967Y248817D01*
X425864Y248031D01*
X425967Y247246D01*
X426270Y246515D01*
X426752Y245886D01*
X427381Y245404D01*
X428112Y245101D01*
X428898Y244998D01*
X429683Y245101D01*
X430414Y245404D01*
X431043Y245886D01*
X431525Y246515D01*
X431828Y247246D01*
X431931Y248031D01*
X431828Y248817D01*
X431525Y249548D01*
X431043Y250177D01*
X430414Y250659D01*
X429683Y250962D01*
X428898Y251065D01*
D02*
G37*
G36*
X282283Y248287D02*
X281432Y248117D01*
X280711Y247636D01*
X280229Y246914D01*
X280060Y246063D01*
X280229Y245212D01*
X280711Y244491D01*
X281432Y244008D01*
X282283Y243839D01*
X283135Y244008D01*
X283856Y244491D01*
X284338Y245212D01*
X284507Y246063D01*
X284338Y246914D01*
X283856Y247636D01*
X283135Y248117D01*
X282283Y248287D01*
D02*
G37*
G36*
X127441Y248475D02*
X126280Y248360D01*
X125164Y248022D01*
X124135Y247472D01*
X123234Y246732D01*
X122494Y245830D01*
X121944Y244801D01*
X121605Y243685D01*
X121491Y242525D01*
X121605Y241364D01*
X121944Y240248D01*
X122494Y239219D01*
X123234Y238317D01*
X124135Y237577D01*
X125164Y237028D01*
X126280Y236689D01*
X127441Y236575D01*
X128602Y236689D01*
X129718Y237028D01*
X130746Y237577D01*
X131648Y238317D01*
X132388Y239219D01*
X132938Y240248D01*
X133276Y241364D01*
X133391Y242525D01*
X133276Y243685D01*
X132938Y244801D01*
X132388Y245830D01*
X131648Y246732D01*
X130746Y247472D01*
X129718Y248022D01*
X128602Y248360D01*
X127441Y248475D01*
D02*
G37*
G36*
X74410D02*
X73249Y248360D01*
X72132Y248022D01*
X71104Y247472D01*
X70202Y246732D01*
X69462Y245830D01*
X68913Y244801D01*
X68574Y243685D01*
X68459Y242525D01*
X68574Y241364D01*
X68913Y240248D01*
X69462Y239219D01*
X70202Y238317D01*
X71104Y237577D01*
X72132Y237028D01*
X73249Y236689D01*
X74410Y236575D01*
X75570Y236689D01*
X76686Y237028D01*
X77715Y237577D01*
X78617Y238317D01*
X79357Y239219D01*
X79906Y240248D01*
X80245Y241364D01*
X80359Y242525D01*
X80245Y243685D01*
X79906Y244801D01*
X79357Y245830D01*
X78617Y246732D01*
X77715Y247472D01*
X76686Y248022D01*
X75570Y248360D01*
X74410Y248475D01*
D02*
G37*
G36*
X575984Y242378D02*
X574798Y242222D01*
X573693Y241764D01*
X572744Y241036D01*
X572016Y240087D01*
X571558Y238981D01*
X571402Y237795D01*
X571558Y236609D01*
X572016Y235504D01*
X572744Y234555D01*
X573693Y233827D01*
X574798Y233369D01*
X575984Y233213D01*
X577170Y233369D01*
X578275Y233827D01*
X579225Y234555D01*
X579953Y235504D01*
X580411Y236609D01*
X580567Y237795D01*
X580411Y238981D01*
X579953Y240087D01*
X579225Y241036D01*
X578275Y241764D01*
X577170Y242222D01*
X575984Y242378D01*
D02*
G37*
G36*
X282283Y236870D02*
X281432Y236700D01*
X280711Y236218D01*
X280229Y235497D01*
X280060Y234646D01*
X280229Y233795D01*
X280711Y233073D01*
X281432Y232591D01*
X282283Y232422D01*
X283135Y232591D01*
X283856Y233073D01*
X284338Y233795D01*
X284507Y234646D01*
X284338Y235497D01*
X283856Y236218D01*
X283135Y236700D01*
X282283Y236870D01*
D02*
G37*
G36*
X413386Y240406D02*
X412303Y240263D01*
X411293Y239845D01*
X410426Y239180D01*
X409761Y238313D01*
X409343Y237304D01*
X409200Y236221D01*
X409343Y235137D01*
X409761Y234128D01*
X410426Y233261D01*
X411293Y232596D01*
X412303Y232178D01*
X413386Y232035D01*
X414469Y232178D01*
X415479Y232596D01*
X416345Y233261D01*
X417010Y234128D01*
X417429Y235137D01*
X417571Y236221D01*
X417429Y237304D01*
X417010Y238313D01*
X416345Y239180D01*
X415479Y239845D01*
X414469Y240263D01*
X413386Y240406D01*
D02*
G37*
G36*
X235146Y230464D02*
X234295Y230295D01*
X233573Y229813D01*
X233091Y229091D01*
X232922Y228240D01*
X233091Y227389D01*
X233573Y226668D01*
X234295Y226186D01*
X235146Y226016D01*
X235997Y226186D01*
X236718Y226668D01*
X237200Y227389D01*
X237369Y228240D01*
X237200Y229091D01*
X236718Y229813D01*
X235997Y230295D01*
X235146Y230464D01*
D02*
G37*
G36*
X283858Y226633D02*
X283007Y226464D01*
X282286Y225982D01*
X281804Y225260D01*
X281634Y224410D01*
X281804Y223558D01*
X282286Y222837D01*
X283007Y222355D01*
X283858Y222186D01*
X284709Y222355D01*
X285431Y222837D01*
X285913Y223558D01*
X286082Y224410D01*
X285913Y225260D01*
X285431Y225982D01*
X284709Y226464D01*
X283858Y226633D01*
D02*
G37*
G36*
X560472Y230567D02*
X559286Y230411D01*
X558181Y229953D01*
X557232Y229225D01*
X556504Y228275D01*
X556046Y227170D01*
X555890Y225984D01*
X556046Y224798D01*
X556504Y223693D01*
X557232Y222744D01*
X558181Y222016D01*
X559286Y221558D01*
X560472Y221402D01*
X561658Y221558D01*
X562764Y222016D01*
X563713Y222744D01*
X564441Y223693D01*
X564899Y224798D01*
X565055Y225984D01*
X564899Y227170D01*
X564441Y228275D01*
X563713Y229225D01*
X562764Y229953D01*
X561658Y230411D01*
X560472Y230567D01*
D02*
G37*
G36*
X413386Y228595D02*
X412303Y228452D01*
X411293Y228034D01*
X410426Y227369D01*
X409761Y226502D01*
X409343Y225493D01*
X409200Y224410D01*
X409343Y223326D01*
X409761Y222317D01*
X410426Y221450D01*
X411293Y220785D01*
X412303Y220367D01*
X413386Y220224D01*
X414469Y220367D01*
X415479Y220785D01*
X416345Y221450D01*
X417010Y222317D01*
X417429Y223326D01*
X417571Y224410D01*
X417429Y225493D01*
X417010Y226502D01*
X416345Y227369D01*
X415479Y228034D01*
X414469Y228452D01*
X413386Y228595D01*
D02*
G37*
G36*
X283465Y219940D02*
X282613Y219771D01*
X281892Y219289D01*
X281410Y218568D01*
X281241Y217717D01*
X281410Y216865D01*
X281892Y216144D01*
X282613Y215662D01*
X283465Y215493D01*
X284316Y215662D01*
X285037Y216144D01*
X285519Y216865D01*
X285688Y217717D01*
X285519Y218568D01*
X285037Y219289D01*
X284316Y219771D01*
X283465Y219940D01*
D02*
G37*
G36*
X294094Y217578D02*
X293244Y217409D01*
X292522Y216927D01*
X292040Y216205D01*
X291871Y215354D01*
X292040Y214503D01*
X292522Y213782D01*
X293244Y213300D01*
X294094Y213130D01*
X294946Y213300D01*
X295667Y213782D01*
X296149Y214503D01*
X296318Y215354D01*
X296149Y216205D01*
X295667Y216927D01*
X294946Y217409D01*
X294094Y217578D01*
D02*
G37*
G36*
X288583Y214822D02*
X287732Y214653D01*
X287010Y214171D01*
X286528Y213449D01*
X286359Y212598D01*
X286528Y211747D01*
X287010Y211026D01*
X287732Y210544D01*
X288583Y210375D01*
X289434Y210544D01*
X290155Y211026D01*
X290637Y211747D01*
X290807Y212598D01*
X290637Y213449D01*
X290155Y214171D01*
X289434Y214653D01*
X288583Y214822D01*
D02*
G37*
G36*
X560472Y218756D02*
X559286Y218600D01*
X558181Y218142D01*
X557232Y217413D01*
X556504Y216464D01*
X556046Y215359D01*
X555890Y214173D01*
X556046Y212987D01*
X556504Y211882D01*
X557232Y210933D01*
X558181Y210205D01*
X559286Y209747D01*
X560472Y209591D01*
X561658Y209747D01*
X562764Y210205D01*
X563713Y210933D01*
X564441Y211882D01*
X564899Y212987D01*
X565055Y214173D01*
X564899Y215359D01*
X564441Y216464D01*
X563713Y217413D01*
X562764Y218142D01*
X561658Y218600D01*
X560472Y218756D01*
D02*
G37*
G36*
X281890Y214035D02*
X281039Y213866D01*
X280317Y213384D01*
X279835Y212662D01*
X279666Y211811D01*
X279835Y210960D01*
X280317Y210239D01*
X281039Y209756D01*
X281890Y209587D01*
X282741Y209756D01*
X283462Y210239D01*
X283944Y210960D01*
X284114Y211811D01*
X283944Y212662D01*
X283462Y213384D01*
X282741Y213866D01*
X281890Y214035D01*
D02*
G37*
G36*
X428898Y215632D02*
X428112Y215529D01*
X427381Y215226D01*
X426752Y214744D01*
X426270Y214115D01*
X425967Y213384D01*
X425864Y212598D01*
X425967Y211813D01*
X426270Y211082D01*
X426752Y210453D01*
X427381Y209971D01*
X428112Y209668D01*
X428898Y209565D01*
X429683Y209668D01*
X430414Y209971D01*
X431043Y210453D01*
X431525Y211082D01*
X431828Y211813D01*
X431931Y212598D01*
X431828Y213384D01*
X431525Y214115D01*
X431043Y214744D01*
X430414Y215226D01*
X429683Y215529D01*
X428898Y215632D01*
D02*
G37*
G36*
X196457Y243956D02*
X195606Y243787D01*
X194884Y243305D01*
X194402Y242583D01*
X194233Y241732D01*
X194402Y240881D01*
X194884Y240160D01*
X194927Y240131D01*
Y217169D01*
X187040Y209281D01*
X176289D01*
X176179Y209447D01*
X175457Y209928D01*
X174606Y210098D01*
X173755Y209928D01*
X173034Y209447D01*
X172552Y208725D01*
X172382Y207874D01*
X172552Y207023D01*
X173034Y206301D01*
X173535Y205966D01*
X173384Y205466D01*
X163232D01*
X154679Y214019D01*
Y238556D01*
X154722Y238585D01*
X155204Y239306D01*
X155373Y240158D01*
X155204Y241008D01*
X154722Y241730D01*
X154001Y242212D01*
X153150Y242381D01*
X152299Y242212D01*
X151577Y241730D01*
X151095Y241008D01*
X150926Y240158D01*
X151095Y239306D01*
X151577Y238585D01*
X151620Y238556D01*
Y213386D01*
X151737Y212801D01*
X152068Y212304D01*
X161517Y202856D01*
X162013Y202524D01*
X162598Y202408D01*
X176314D01*
X176511Y202276D01*
X177362Y202107D01*
X178213Y202276D01*
X178935Y202758D01*
X179417Y203480D01*
X179586Y204331D01*
X179417Y205182D01*
X179055Y205723D01*
X179288Y206223D01*
X187673D01*
X188259Y206339D01*
X188755Y206670D01*
X197538Y215454D01*
X197870Y215950D01*
X197986Y216535D01*
Y240131D01*
X198029Y240160D01*
X198511Y240881D01*
X198680Y241732D01*
X198511Y242583D01*
X198029Y243305D01*
X197308Y243787D01*
X196457Y243956D01*
D02*
G37*
G36*
X246850Y206555D02*
X245999Y206385D01*
X245278Y205903D01*
X244796Y205182D01*
X244627Y204331D01*
X244796Y203480D01*
X245278Y202758D01*
X245999Y202276D01*
X246850Y202107D01*
X247701Y202276D01*
X248423Y202758D01*
X248905Y203480D01*
X249074Y204331D01*
X248905Y205182D01*
X248423Y205903D01*
X247701Y206385D01*
X246850Y206555D01*
D02*
G37*
G36*
X235827D02*
X234976Y206385D01*
X234254Y205903D01*
X233772Y205182D01*
X233603Y204331D01*
X233772Y203480D01*
X234254Y202758D01*
X234976Y202276D01*
X235827Y202107D01*
X236678Y202276D01*
X237399Y202758D01*
X237881Y203480D01*
X238051Y204331D01*
X237881Y205182D01*
X237399Y205903D01*
X236678Y206385D01*
X235827Y206555D01*
D02*
G37*
G36*
X560472Y206945D02*
X559286Y206789D01*
X558181Y206331D01*
X557232Y205603D01*
X556504Y204653D01*
X556046Y203548D01*
X555890Y202362D01*
X556046Y201176D01*
X556504Y200071D01*
X557232Y199122D01*
X558181Y198394D01*
X559286Y197936D01*
X560472Y197780D01*
X561658Y197936D01*
X562764Y198394D01*
X563713Y199122D01*
X564441Y200071D01*
X564899Y201176D01*
X565055Y202362D01*
X564899Y203548D01*
X564441Y204653D01*
X563713Y205603D01*
X562764Y206331D01*
X561658Y206789D01*
X560472Y206945D01*
D02*
G37*
G36*
X522835Y193562D02*
X521984Y193393D01*
X521262Y192911D01*
X520780Y192190D01*
X520611Y191339D01*
X520780Y190488D01*
X521262Y189766D01*
X521984Y189284D01*
X522835Y189115D01*
X523686Y189284D01*
X524407Y189766D01*
X524889Y190488D01*
X525059Y191339D01*
X524889Y192190D01*
X524407Y192911D01*
X523686Y193393D01*
X522835Y193562D01*
D02*
G37*
G36*
X529921Y190806D02*
X529070Y190637D01*
X528349Y190155D01*
X527867Y189434D01*
X527697Y188583D01*
X527867Y187732D01*
X528349Y187010D01*
X529070Y186528D01*
X529921Y186359D01*
X530772Y186528D01*
X531494Y187010D01*
X531976Y187732D01*
X532145Y188583D01*
X531976Y189434D01*
X531494Y190155D01*
X530772Y190637D01*
X529921Y190806D01*
D02*
G37*
G36*
X560472Y195134D02*
X559286Y194977D01*
X558181Y194520D01*
X557232Y193791D01*
X556504Y192842D01*
X556046Y191737D01*
X555890Y190551D01*
X556046Y189365D01*
X556504Y188260D01*
X557232Y187311D01*
X558181Y186583D01*
X559286Y186125D01*
X560472Y185969D01*
X561658Y186125D01*
X562764Y186583D01*
X563713Y187311D01*
X564441Y188260D01*
X564899Y189365D01*
X565055Y190551D01*
X564899Y191737D01*
X564441Y192842D01*
X563713Y193791D01*
X562764Y194520D01*
X561658Y194977D01*
X560472Y195134D01*
D02*
G37*
G36*
X534252Y188444D02*
X533401Y188275D01*
X532680Y187793D01*
X532197Y187072D01*
X532028Y186221D01*
X532197Y185370D01*
X532680Y184648D01*
X533401Y184166D01*
X534252Y183997D01*
X535103Y184166D01*
X535824Y184648D01*
X536306Y185370D01*
X536476Y186221D01*
X536306Y187072D01*
X535824Y187793D01*
X535103Y188275D01*
X534252Y188444D01*
D02*
G37*
G36*
X519685Y187657D02*
X518834Y187488D01*
X518113Y187006D01*
X517630Y186284D01*
X517461Y185433D01*
X517630Y184582D01*
X518113Y183861D01*
X518834Y183379D01*
X519685Y183209D01*
X520536Y183379D01*
X521257Y183861D01*
X521740Y184582D01*
X521909Y185433D01*
X521740Y186284D01*
X521257Y187006D01*
X520536Y187488D01*
X519685Y187657D01*
D02*
G37*
G36*
X529921Y185688D02*
X529070Y185519D01*
X528349Y185037D01*
X527867Y184316D01*
X527697Y183465D01*
X527867Y182614D01*
X528349Y181892D01*
X528786Y181600D01*
Y180999D01*
X528349Y180706D01*
X527867Y179985D01*
X527697Y179134D01*
X527867Y178283D01*
X528349Y177561D01*
X529070Y177079D01*
X529921Y176910D01*
X530772Y177079D01*
X531494Y177561D01*
X531976Y178283D01*
X532145Y179134D01*
X532061Y179555D01*
X532532Y179750D01*
X532680Y179530D01*
X533401Y179048D01*
X534252Y178878D01*
X535103Y179048D01*
X535824Y179530D01*
X536306Y180251D01*
X536476Y181102D01*
X536306Y181953D01*
X535824Y182675D01*
X535103Y183157D01*
X534252Y183326D01*
X533401Y183157D01*
X532680Y182675D01*
X532197Y181953D01*
X532028Y181102D01*
X532112Y180681D01*
X531641Y180486D01*
X531494Y180706D01*
X531056Y180999D01*
Y181600D01*
X531494Y181892D01*
X531976Y182614D01*
X532145Y183465D01*
X531976Y184316D01*
X531494Y185037D01*
X530772Y185519D01*
X529921Y185688D01*
D02*
G37*
G36*
X560472Y183323D02*
X559286Y183167D01*
X558181Y182709D01*
X557232Y181981D01*
X556504Y181031D01*
X556046Y179926D01*
X555890Y178740D01*
X556046Y177554D01*
X556504Y176449D01*
X557232Y175500D01*
X558181Y174772D01*
X559286Y174314D01*
X560472Y174158D01*
X561658Y174314D01*
X562764Y174772D01*
X563713Y175500D01*
X564441Y176449D01*
X564899Y177554D01*
X565055Y178740D01*
X564899Y179926D01*
X564441Y181031D01*
X563713Y181981D01*
X562764Y182709D01*
X561658Y183167D01*
X560472Y183323D01*
D02*
G37*
G36*
Y171512D02*
X559286Y171355D01*
X558181Y170898D01*
X557232Y170169D01*
X556504Y169220D01*
X556046Y168115D01*
X555890Y166929D01*
X556046Y165743D01*
X556504Y164638D01*
X557232Y163689D01*
X558181Y162961D01*
X559286Y162503D01*
X560472Y162347D01*
X561658Y162503D01*
X562764Y162961D01*
X563713Y163689D01*
X564441Y164638D01*
X564899Y165743D01*
X565055Y166929D01*
X564899Y168115D01*
X564441Y169220D01*
X563713Y170169D01*
X562764Y170898D01*
X561658Y171355D01*
X560472Y171512D01*
D02*
G37*
G36*
X238583Y151043D02*
X237732Y150873D01*
X237010Y150391D01*
X236528Y149670D01*
X236359Y148819D01*
X236528Y147968D01*
X237010Y147246D01*
X237732Y146764D01*
X238583Y146595D01*
X239434Y146764D01*
X240155Y147246D01*
X240637Y147968D01*
X240807Y148819D01*
X240637Y149670D01*
X240155Y150391D01*
X239434Y150873D01*
X238583Y151043D01*
D02*
G37*
G36*
X28071Y157150D02*
X26628Y156960D01*
X25283Y156403D01*
X24129Y155517D01*
X23243Y154362D01*
X22686Y153018D01*
X22496Y151575D01*
X22686Y150132D01*
X23243Y148787D01*
X24129Y147633D01*
X25283Y146747D01*
X26628Y146189D01*
X28071Y146000D01*
X29514Y146189D01*
X30858Y146747D01*
X32013Y147633D01*
X32899Y148787D01*
X33456Y150132D01*
X33646Y151575D01*
X33456Y153018D01*
X32899Y154362D01*
X32013Y155517D01*
X30858Y156403D01*
X29514Y156960D01*
X28071Y157150D01*
D02*
G37*
G36*
X575984Y147890D02*
X574798Y147733D01*
X573693Y147276D01*
X572744Y146547D01*
X572016Y145598D01*
X571558Y144493D01*
X571402Y143307D01*
X571558Y142121D01*
X572016Y141016D01*
X572744Y140067D01*
X573693Y139339D01*
X574798Y138881D01*
X575984Y138725D01*
X577170Y138881D01*
X578275Y139339D01*
X579225Y140067D01*
X579953Y141016D01*
X580411Y142121D01*
X580567Y143307D01*
X580411Y144493D01*
X579953Y145598D01*
X579225Y146547D01*
X578275Y147276D01*
X577170Y147733D01*
X575984Y147890D01*
D02*
G37*
G36*
X244488Y137263D02*
X243637Y137094D01*
X242916Y136612D01*
X242434Y135890D01*
X242264Y135039D01*
X242434Y134188D01*
X242916Y133467D01*
X243637Y132985D01*
X244488Y132816D01*
X245339Y132985D01*
X246061Y133467D01*
X246543Y134188D01*
X246712Y135039D01*
X246543Y135890D01*
X246061Y136612D01*
X245339Y137094D01*
X244488Y137263D01*
D02*
G37*
G36*
X565016Y159661D02*
X555929D01*
Y150575D01*
X558943D01*
Y139528D01*
X559059Y138942D01*
X559391Y138446D01*
X569046Y128791D01*
X569036Y128740D01*
X569205Y127889D01*
X569687Y127168D01*
X570409Y126686D01*
X571260Y126516D01*
X572111Y126686D01*
X572832Y127168D01*
X573314Y127889D01*
X573484Y128740D01*
X573314Y129591D01*
X572832Y130313D01*
X572111Y130795D01*
X571260Y130964D01*
X571209Y130954D01*
X562002Y140161D01*
Y150575D01*
X565016D01*
Y159661D01*
D02*
G37*
G36*
X25591Y132138D02*
X24507Y131996D01*
X23498Y131577D01*
X22631Y130912D01*
X21966Y130045D01*
X21548Y129036D01*
X21405Y127953D01*
X21548Y126869D01*
X21966Y125860D01*
X22631Y124993D01*
X23498Y124328D01*
X24507Y123910D01*
X25591Y123767D01*
X26674Y123910D01*
X27683Y124328D01*
X28550Y124993D01*
X29215Y125860D01*
X29633Y126869D01*
X29776Y127953D01*
X29633Y129036D01*
X29215Y130045D01*
X28550Y130912D01*
X27683Y131577D01*
X26674Y131996D01*
X25591Y132138D01*
D02*
G37*
G36*
X127441Y131934D02*
X126280Y131820D01*
X125164Y131481D01*
X124135Y130931D01*
X123234Y130192D01*
X122494Y129290D01*
X121944Y128261D01*
X121605Y127145D01*
X121491Y125984D01*
X121605Y124823D01*
X121944Y123707D01*
X122494Y122679D01*
X123234Y121777D01*
X124135Y121037D01*
X125164Y120487D01*
X126280Y120149D01*
X127441Y120034D01*
X128602Y120149D01*
X129718Y120487D01*
X130746Y121037D01*
X131648Y121777D01*
X132388Y122679D01*
X132938Y123707D01*
X133276Y124823D01*
X133391Y125984D01*
X133276Y127145D01*
X132938Y128261D01*
X132388Y129290D01*
X131648Y130192D01*
X130746Y130931D01*
X129718Y131481D01*
X128602Y131820D01*
X127441Y131934D01*
D02*
G37*
G36*
X74410D02*
X73249Y131820D01*
X72132Y131481D01*
X71104Y130931D01*
X70202Y130192D01*
X69462Y129290D01*
X68913Y128261D01*
X68574Y127145D01*
X68459Y125984D01*
X68574Y124823D01*
X68913Y123707D01*
X69462Y122679D01*
X70202Y121777D01*
X71104Y121037D01*
X72132Y120487D01*
X73249Y120149D01*
X74410Y120034D01*
X75570Y120149D01*
X76686Y120487D01*
X77715Y121037D01*
X78617Y121777D01*
X79357Y122679D01*
X79906Y123707D01*
X80245Y124823D01*
X80359Y125984D01*
X80245Y127145D01*
X79906Y128261D01*
X79357Y129290D01*
X78617Y130192D01*
X77715Y130931D01*
X76686Y131481D01*
X75570Y131820D01*
X74410Y131934D01*
D02*
G37*
G36*
X25591Y118359D02*
X24507Y118216D01*
X23498Y117798D01*
X22631Y117133D01*
X21966Y116266D01*
X21548Y115257D01*
X21405Y114173D01*
X21548Y113090D01*
X21966Y112081D01*
X22631Y111214D01*
X23498Y110549D01*
X24507Y110130D01*
X25591Y109988D01*
X26674Y110130D01*
X27683Y110549D01*
X28550Y111214D01*
X29215Y112081D01*
X29633Y113090D01*
X29776Y114173D01*
X29633Y115257D01*
X29215Y116266D01*
X28550Y117133D01*
X27683Y117798D01*
X26674Y118216D01*
X25591Y118359D01*
D02*
G37*
G36*
X127441Y118548D02*
X126280Y118434D01*
X125164Y118095D01*
X124135Y117546D01*
X123234Y116806D01*
X122494Y115904D01*
X121944Y114875D01*
X121605Y113759D01*
X121491Y112598D01*
X121605Y111438D01*
X121944Y110321D01*
X122494Y109293D01*
X123234Y108391D01*
X124135Y107651D01*
X125164Y107101D01*
X126280Y106763D01*
X127441Y106649D01*
X128602Y106763D01*
X129718Y107101D01*
X130746Y107651D01*
X131648Y108391D01*
X132388Y109293D01*
X132938Y110321D01*
X133276Y111438D01*
X133391Y112598D01*
X133276Y113759D01*
X132938Y114875D01*
X132388Y115904D01*
X131648Y116806D01*
X130746Y117546D01*
X129718Y118095D01*
X128602Y118434D01*
X127441Y118548D01*
D02*
G37*
G36*
X74410D02*
X73249Y118434D01*
X72132Y118095D01*
X71104Y117546D01*
X70202Y116806D01*
X69462Y115904D01*
X68913Y114875D01*
X68574Y113759D01*
X68459Y112598D01*
X68574Y111438D01*
X68913Y110321D01*
X69462Y109293D01*
X70202Y108391D01*
X71104Y107651D01*
X72132Y107101D01*
X73249Y106763D01*
X74410Y106649D01*
X75570Y106763D01*
X76686Y107101D01*
X77715Y107651D01*
X78617Y108391D01*
X79357Y109293D01*
X79906Y110321D01*
X80245Y111438D01*
X80359Y112598D01*
X80245Y113759D01*
X79906Y114875D01*
X79357Y115904D01*
X78617Y116806D01*
X77715Y117546D01*
X76686Y118095D01*
X75570Y118434D01*
X74410Y118548D01*
D02*
G37*
G36*
X242126Y109704D02*
X241275Y109535D01*
X240553Y109053D01*
X240071Y108331D01*
X239902Y107480D01*
X240071Y106629D01*
X240553Y105908D01*
X241275Y105426D01*
X242126Y105256D01*
X242977Y105426D01*
X243699Y105908D01*
X244180Y106629D01*
X244350Y107480D01*
X244180Y108331D01*
X243699Y109053D01*
X242977Y109535D01*
X242126Y109704D01*
D02*
G37*
G36*
X420472Y105373D02*
X419621Y105204D01*
X418900Y104722D01*
X418871Y104679D01*
X373228D01*
X372643Y104563D01*
X372147Y104231D01*
X370523Y102607D01*
X370472Y102618D01*
X369621Y102448D01*
X368900Y101966D01*
X368418Y101245D01*
X368249Y100394D01*
X368418Y99543D01*
X368598Y99274D01*
X368331Y98773D01*
X365774D01*
X365746Y98817D01*
X365024Y99299D01*
X364173Y99468D01*
X363322Y99299D01*
X362601Y98817D01*
X362119Y98095D01*
X361949Y97244D01*
X362119Y96393D01*
X362601Y95672D01*
X363322Y95189D01*
X364173Y95020D01*
X365024Y95189D01*
X365746Y95672D01*
X365774Y95715D01*
X399366D01*
X404770Y90311D01*
Y66168D01*
X404727Y66139D01*
X404245Y65418D01*
X404075Y64567D01*
X404245Y63716D01*
X404727Y62994D01*
X405448Y62512D01*
X406299Y62343D01*
X407150Y62512D01*
X407872Y62994D01*
X408354Y63716D01*
X408523Y64567D01*
X408354Y65418D01*
X407872Y66139D01*
X407829Y66168D01*
Y87011D01*
X408329Y87291D01*
X409055Y87146D01*
X409906Y87315D01*
X410628Y87798D01*
X411110Y88519D01*
X411279Y89370D01*
X411110Y90221D01*
X410628Y90943D01*
X409906Y91425D01*
X409055Y91594D01*
X408204Y91425D01*
X408200Y91422D01*
X407712Y91530D01*
X407381Y92026D01*
X401436Y97971D01*
X401644Y98471D01*
X417477D01*
X418943Y97004D01*
Y96483D01*
X418900Y96454D01*
X418418Y95733D01*
X418249Y94882D01*
X418418Y94031D01*
X418900Y93309D01*
X419621Y92827D01*
X420472Y92658D01*
X421323Y92827D01*
X422045Y93309D01*
X422527Y94031D01*
X422696Y94882D01*
X422527Y95733D01*
X422045Y96454D01*
X422002Y96483D01*
Y97638D01*
X421885Y98223D01*
X421554Y98719D01*
X419704Y100569D01*
X419951Y101030D01*
X420472Y100926D01*
X421323Y101095D01*
X422045Y101577D01*
X422527Y102299D01*
X422696Y103150D01*
X422527Y104001D01*
X422045Y104722D01*
X421323Y105204D01*
X420472Y105373D01*
D02*
G37*
G36*
X581496Y113826D02*
X580258Y113704D01*
X579068Y113343D01*
X577971Y112756D01*
X577009Y111967D01*
X576220Y111006D01*
X575634Y109909D01*
X575273Y108718D01*
X575151Y107480D01*
X575273Y106242D01*
X575634Y105052D01*
X576220Y103955D01*
X577009Y102993D01*
X577971Y102204D01*
X579068Y101618D01*
X580258Y101257D01*
X581496Y101135D01*
X582734Y101257D01*
X583924Y101618D01*
X585021Y102204D01*
X585983Y102993D01*
X586772Y103955D01*
X587359Y105052D01*
X587720Y106242D01*
X587842Y107480D01*
X587720Y108718D01*
X587359Y109909D01*
X586772Y111006D01*
X585983Y111967D01*
X585021Y112756D01*
X583924Y113343D01*
X582734Y113704D01*
X581496Y113826D01*
D02*
G37*
G36*
X360236Y105373D02*
X359385Y105204D01*
X358664Y104722D01*
X358182Y104001D01*
X358012Y103150D01*
X358182Y102299D01*
X358664Y101577D01*
X359385Y101095D01*
X360236Y100926D01*
X361087Y101095D01*
X361809Y101577D01*
X362291Y102299D01*
X362460Y103150D01*
X362291Y104001D01*
X361809Y104722D01*
X361087Y105204D01*
X360236Y105373D01*
D02*
G37*
G36*
X25591Y104579D02*
X24507Y104437D01*
X23498Y104018D01*
X22631Y103353D01*
X21966Y102486D01*
X21548Y101477D01*
X21405Y100394D01*
X21548Y99310D01*
X21966Y98301D01*
X22631Y97434D01*
X23498Y96769D01*
X24507Y96351D01*
X25591Y96208D01*
X26674Y96351D01*
X27683Y96769D01*
X28550Y97434D01*
X29215Y98301D01*
X29633Y99310D01*
X29776Y100394D01*
X29633Y101477D01*
X29215Y102486D01*
X28550Y103353D01*
X27683Y104018D01*
X26674Y104437D01*
X25591Y104579D01*
D02*
G37*
G36*
X401575Y91594D02*
X400724Y91425D01*
X400002Y90943D01*
X399520Y90221D01*
X399351Y89370D01*
X399361Y89319D01*
X392280Y82238D01*
X346877D01*
X346848Y82281D01*
X346127Y82763D01*
X345276Y82933D01*
X344425Y82763D01*
X343703Y82281D01*
X343674Y82238D01*
X227586D01*
X227557Y82281D01*
X226835Y82763D01*
X225984Y82933D01*
X225133Y82763D01*
X224412Y82281D01*
X223930Y81560D01*
X223760Y80709D01*
X223930Y79858D01*
X224412Y79136D01*
X225133Y78654D01*
X225984Y78485D01*
X226835Y78654D01*
X227557Y79136D01*
X227586Y79179D01*
X343674D01*
X343703Y79136D01*
X344425Y78654D01*
X345276Y78485D01*
X346127Y78654D01*
X346848Y79136D01*
X346877Y79179D01*
X392913D01*
X393499Y79296D01*
X393995Y79627D01*
X401524Y87156D01*
X401575Y87146D01*
X402426Y87315D01*
X403147Y87798D01*
X403629Y88519D01*
X403799Y89370D01*
X403629Y90221D01*
X403147Y90943D01*
X402426Y91425D01*
X401575Y91594D01*
D02*
G37*
G36*
X339370Y76633D02*
X338519Y76464D01*
X337798Y75982D01*
X337506Y75545D01*
X243727D01*
X243699Y75588D01*
X242977Y76070D01*
X242126Y76240D01*
X241275Y76070D01*
X240553Y75588D01*
X240071Y74867D01*
X239902Y74016D01*
X240071Y73165D01*
X240553Y72443D01*
X241275Y71961D01*
X242126Y71792D01*
X242977Y71961D01*
X243699Y72443D01*
X243727Y72486D01*
X338322D01*
X338519Y72355D01*
X339370Y72186D01*
X340221Y72355D01*
X340943Y72837D01*
X341425Y73558D01*
X341594Y74410D01*
X341425Y75261D01*
X340943Y75982D01*
X340221Y76464D01*
X339370Y76633D01*
D02*
G37*
G36*
X385039Y73727D02*
X384188Y73558D01*
X383467Y73075D01*
X383438Y73032D01*
X376404D01*
X376376Y73075D01*
X375654Y73558D01*
X374803Y73727D01*
X373952Y73558D01*
X373231Y73075D01*
X372749Y72354D01*
X372579Y71503D01*
X372749Y70652D01*
X373231Y69930D01*
X373952Y69448D01*
X374803Y69279D01*
X375654Y69448D01*
X376376Y69930D01*
X376404Y69974D01*
X383438D01*
X383467Y69930D01*
X384188Y69448D01*
X385039Y69279D01*
X385890Y69448D01*
X386612Y69930D01*
X387094Y70652D01*
X387263Y71503D01*
X387094Y72354D01*
X386612Y73075D01*
X385890Y73558D01*
X385039Y73727D01*
D02*
G37*
G36*
X29740Y90764D02*
X21441D01*
Y82465D01*
X26064D01*
X26164Y81965D01*
X25283Y81600D01*
X24129Y80714D01*
X23243Y79559D01*
X22686Y78215D01*
X22496Y76772D01*
X22686Y75329D01*
X23243Y73984D01*
X24129Y72829D01*
X25283Y71943D01*
X26628Y71386D01*
X28071Y71196D01*
X29514Y71386D01*
X30858Y71943D01*
X32013Y72829D01*
X32899Y73984D01*
X33456Y75329D01*
X33646Y76772D01*
X33456Y78215D01*
X32899Y79559D01*
X32013Y80714D01*
X30858Y81600D01*
X29859Y82014D01*
X29740Y82465D01*
X29740Y82604D01*
Y90764D01*
D02*
G37*
G36*
X366142Y69002D02*
X365291Y68833D01*
X364569Y68351D01*
X364476Y68212D01*
X364375Y68191D01*
X363879Y67860D01*
X363548Y67364D01*
X363431Y66778D01*
X363548Y66193D01*
X363879Y65697D01*
X364375Y65366D01*
X364476Y65346D01*
X364569Y65206D01*
X365291Y64724D01*
X366142Y64555D01*
X366993Y64724D01*
X367714Y65206D01*
X367743Y65249D01*
X386721Y65043D01*
X386762Y64983D01*
X387483Y64501D01*
X388334Y64331D01*
X389185Y64501D01*
X389907Y64983D01*
X390389Y65704D01*
X390558Y66555D01*
X390389Y67406D01*
X389907Y68128D01*
X389185Y68610D01*
X388334Y68779D01*
X387483Y68610D01*
X386762Y68128D01*
X386744Y68102D01*
X367743Y68308D01*
X367714Y68351D01*
X366993Y68833D01*
X366142Y69002D01*
D02*
G37*
G36*
X48819Y54586D02*
X47968Y54417D01*
X47246Y53935D01*
X47218Y53892D01*
X7507D01*
X7478Y53935D01*
X6757Y54417D01*
X5906Y54586D01*
X5054Y54417D01*
X4333Y53935D01*
X3851Y53213D01*
X3682Y52362D01*
X3851Y51511D01*
X4333Y50790D01*
X5054Y50308D01*
X5906Y50138D01*
X6757Y50308D01*
X7478Y50790D01*
X7507Y50833D01*
X47218D01*
X47246Y50790D01*
X47968Y50308D01*
X48819Y50138D01*
X49670Y50308D01*
X50391Y50790D01*
X50874Y51511D01*
X51043Y52362D01*
X50874Y53213D01*
X50391Y53935D01*
X49670Y54417D01*
X48819Y54586D01*
D02*
G37*
G36*
X274016Y51830D02*
X273165Y51661D01*
X272443Y51179D01*
X272414Y51136D01*
X266168D01*
X266139Y51179D01*
X265418Y51661D01*
X264567Y51830D01*
X263716Y51661D01*
X262994Y51179D01*
X262512Y50457D01*
X262343Y49606D01*
X262512Y48755D01*
X262994Y48034D01*
X263716Y47552D01*
X264567Y47383D01*
X265418Y47552D01*
X266139Y48034D01*
X266168Y48077D01*
X272414D01*
X272443Y48034D01*
X273165Y47552D01*
X274016Y47383D01*
X274867Y47552D01*
X275588Y48034D01*
X276070Y48755D01*
X276240Y49606D01*
X276070Y50457D01*
X275588Y51179D01*
X274867Y51661D01*
X274016Y51830D01*
D02*
G37*
G36*
X182677Y174271D02*
X181826Y174102D01*
X181105Y173620D01*
X180623Y172898D01*
X180453Y172047D01*
X180623Y171196D01*
X181105Y170475D01*
X181148Y170446D01*
Y54751D01*
X181105Y54722D01*
X180623Y54001D01*
X180453Y53150D01*
X180623Y52299D01*
X181105Y51577D01*
X181826Y51095D01*
X182677Y50926D01*
X183528Y51095D01*
X184250Y51577D01*
X184732Y52299D01*
X184901Y53150D01*
X184732Y54001D01*
X184250Y54722D01*
X184207Y54751D01*
Y170446D01*
X184250Y170475D01*
X184732Y171196D01*
X184901Y172047D01*
X184732Y172898D01*
X184250Y173620D01*
X183528Y174102D01*
X182677Y174271D01*
D02*
G37*
G36*
X153943Y144738D02*
X153092Y144569D01*
X152370Y144087D01*
X151888Y143365D01*
X151719Y142514D01*
X151888Y141663D01*
X152370Y140942D01*
X152410Y140915D01*
Y53966D01*
X152367Y53938D01*
X151885Y53216D01*
X151716Y52365D01*
X151885Y51514D01*
X152367Y50792D01*
X153089Y50310D01*
X153940Y50141D01*
X154791Y50310D01*
X155512Y50792D01*
X155994Y51514D01*
X156164Y52365D01*
X155994Y53216D01*
X155512Y53938D01*
X155469Y53966D01*
Y140911D01*
X155515Y140942D01*
X155997Y141663D01*
X156167Y142514D01*
X155997Y143365D01*
X155515Y144087D01*
X154794Y144569D01*
X153943Y144738D01*
D02*
G37*
G36*
X231890Y46712D02*
X231039Y46543D01*
X230317Y46061D01*
X229835Y45339D01*
X229666Y44488D01*
X229835Y43637D01*
X230317Y42916D01*
X231039Y42434D01*
X231890Y42264D01*
X232741Y42434D01*
X233462Y42916D01*
X233944Y43637D01*
X234114Y44488D01*
X233944Y45339D01*
X233462Y46061D01*
X232741Y46543D01*
X231890Y46712D01*
D02*
G37*
G36*
X122047Y41988D02*
X121196Y41818D01*
X120475Y41336D01*
X119993Y40615D01*
X119823Y39764D01*
X119993Y38913D01*
X120475Y38191D01*
X121196Y37709D01*
X122047Y37540D01*
X122898Y37709D01*
X123620Y38191D01*
X124102Y38913D01*
X124271Y39764D01*
X124102Y40615D01*
X123620Y41336D01*
X122898Y41818D01*
X122047Y41988D01*
D02*
G37*
G36*
X360236Y42381D02*
X359385Y42212D01*
X358664Y41730D01*
X358635Y41687D01*
X322296D01*
X321710Y41570D01*
X321214Y41239D01*
X318194Y38218D01*
X149681D01*
X149096Y38102D01*
X148600Y37770D01*
X137949Y27120D01*
X129554D01*
X129525Y27163D01*
X128804Y27645D01*
X127953Y27814D01*
X127102Y27645D01*
X126380Y27163D01*
X125898Y26442D01*
X125729Y25591D01*
X125898Y24739D01*
X126380Y24018D01*
X127102Y23536D01*
X127953Y23367D01*
X128804Y23536D01*
X129525Y24018D01*
X129554Y24061D01*
X138583D01*
X139168Y24178D01*
X139664Y24509D01*
X150314Y35160D01*
X318827D01*
X319412Y35276D01*
X319908Y35607D01*
X322929Y38628D01*
X352714D01*
X352866Y38128D01*
X352364Y37793D01*
X351883Y37071D01*
X351713Y36220D01*
X351883Y35370D01*
X352364Y34648D01*
X353086Y34166D01*
X353937Y33997D01*
X354788Y34166D01*
X355509Y34648D01*
X355538Y34691D01*
X378320D01*
X378349Y34648D01*
X379070Y34166D01*
X379921Y33997D01*
X380772Y34166D01*
X381494Y34648D01*
X381976Y35370D01*
X382145Y36220D01*
X381976Y37071D01*
X381494Y37793D01*
X380772Y38275D01*
X379921Y38444D01*
X379070Y38275D01*
X378349Y37793D01*
X378320Y37750D01*
X361459D01*
X361307Y38250D01*
X361809Y38585D01*
X362291Y39307D01*
X362460Y40157D01*
X362291Y41008D01*
X361809Y41730D01*
X361087Y42212D01*
X360236Y42381D01*
D02*
G37*
G36*
X349606Y35295D02*
X348755Y35125D01*
X348034Y34643D01*
X347552Y33922D01*
X347382Y33071D01*
X347491Y32528D01*
X347076Y32100D01*
X346850Y32145D01*
X345999Y31976D01*
X345278Y31494D01*
X344796Y30772D01*
X344627Y29921D01*
X344796Y29070D01*
X345278Y28349D01*
X345999Y27867D01*
X346850Y27697D01*
X347701Y27867D01*
X348423Y28349D01*
X348905Y29070D01*
X349074Y29921D01*
X348966Y30465D01*
X349381Y30892D01*
X349606Y30847D01*
X350457Y31016D01*
X351179Y31498D01*
X351661Y32220D01*
X351830Y33071D01*
X351661Y33922D01*
X351179Y34643D01*
X350457Y35125D01*
X349606Y35295D01*
D02*
G37*
G36*
X150394Y155767D02*
X149543Y155598D01*
X148821Y155116D01*
X148339Y154394D01*
X148170Y153543D01*
X148180Y153492D01*
X148131Y153444D01*
X147800Y152947D01*
X147683Y152362D01*
Y58114D01*
X143461Y53892D01*
X111417D01*
X110832Y53775D01*
X110336Y53444D01*
X104824Y47932D01*
X104492Y47436D01*
X104376Y46850D01*
Y34279D01*
X104333Y34250D01*
X103851Y33528D01*
X103682Y32677D01*
X103851Y31826D01*
X104333Y31105D01*
X105054Y30623D01*
X105905Y30453D01*
X106756Y30623D01*
X107478Y31105D01*
X107960Y31826D01*
X108129Y32677D01*
X107960Y33528D01*
X107478Y34250D01*
X107435Y34279D01*
Y46217D01*
X112051Y50833D01*
X144095D01*
X144680Y50949D01*
X145176Y51281D01*
X150294Y56399D01*
X150626Y56895D01*
X150742Y57480D01*
Y151389D01*
X151245Y151489D01*
X151966Y151971D01*
X152448Y152692D01*
X152618Y153543D01*
X152448Y154394D01*
X151966Y155116D01*
X151245Y155598D01*
X150394Y155767D01*
D02*
G37*
G36*
X293307Y32932D02*
X292456Y32763D01*
X291735Y32281D01*
X291252Y31560D01*
X291083Y30709D01*
X291252Y29858D01*
X291735Y29136D01*
X292456Y28654D01*
X293307Y28485D01*
X294158Y28654D01*
X294880Y29136D01*
X295362Y29858D01*
X295531Y30709D01*
X295362Y31560D01*
X294880Y32281D01*
X294158Y32763D01*
X293307Y32932D01*
D02*
G37*
G36*
X42126Y27027D02*
X41275Y26858D01*
X40554Y26376D01*
X40525Y26333D01*
X16168D01*
X16139Y26376D01*
X15418Y26858D01*
X14567Y27027D01*
X13716Y26858D01*
X12994Y26376D01*
X12512Y25654D01*
X12343Y24803D01*
X12512Y23952D01*
X12994Y23231D01*
X13716Y22749D01*
X14567Y22579D01*
X15418Y22749D01*
X16139Y23231D01*
X16168Y23274D01*
X40525D01*
X40554Y23231D01*
X41275Y22749D01*
X42126Y22579D01*
X42977Y22749D01*
X43698Y23231D01*
X44181Y23952D01*
X44350Y24803D01*
X44181Y25654D01*
X43698Y26376D01*
X42977Y26858D01*
X42126Y27027D01*
D02*
G37*
G36*
X188189Y16003D02*
X187338Y15834D01*
X186617Y15352D01*
X186588Y15309D01*
X179160D01*
X179131Y15352D01*
X178410Y15834D01*
X177559Y16003D01*
X176708Y15834D01*
X175987Y15352D01*
X175505Y14630D01*
X175335Y13780D01*
X175505Y12928D01*
X175987Y12207D01*
X176708Y11725D01*
X177559Y11556D01*
X178410Y11725D01*
X179131Y12207D01*
X179160Y12250D01*
X186588D01*
X186617Y12207D01*
X187338Y11725D01*
X188189Y11556D01*
X189040Y11725D01*
X189761Y12207D01*
X190243Y12928D01*
X190413Y13780D01*
X190243Y14630D01*
X189761Y15352D01*
X189040Y15834D01*
X188189Y16003D01*
D02*
G37*
G36*
X72441Y21515D02*
X71590Y21346D01*
X70868Y20864D01*
X70386Y20142D01*
X70217Y19291D01*
X70386Y18440D01*
X70868Y17719D01*
X70886Y17707D01*
Y9852D01*
X70868Y9840D01*
X70386Y9119D01*
X70217Y8268D01*
X70386Y7417D01*
X70868Y6695D01*
X71590Y6213D01*
X72441Y6044D01*
X73292Y6213D01*
X74013Y6695D01*
X74496Y7417D01*
X74665Y8268D01*
X74496Y9119D01*
X74013Y9840D01*
X73945Y9886D01*
Y17673D01*
X74013Y17719D01*
X74496Y18440D01*
X74665Y19291D01*
X74496Y20142D01*
X74013Y20864D01*
X73292Y21346D01*
X72441Y21515D01*
D02*
G37*
G36*
X9843Y16188D02*
X8605Y16066D01*
X7414Y15705D01*
X6317Y15119D01*
X5356Y14330D01*
X4566Y13368D01*
X3980Y12271D01*
X3619Y11080D01*
X3497Y9843D01*
X3619Y8605D01*
X3980Y7414D01*
X4566Y6317D01*
X5356Y5356D01*
X6317Y4566D01*
X7414Y3980D01*
X8605Y3619D01*
X9843Y3497D01*
X11080Y3619D01*
X12271Y3980D01*
X13368Y4566D01*
X14330Y5356D01*
X15119Y6317D01*
X15705Y7414D01*
X16066Y8605D01*
X16188Y9843D01*
X16066Y11080D01*
X15705Y12271D01*
X15119Y13368D01*
X14330Y14330D01*
X13368Y15119D01*
X12271Y15705D01*
X11080Y16066D01*
X9843Y16188D01*
D02*
G37*
G36*
X581496Y15401D02*
X580258Y15279D01*
X579068Y14918D01*
X577971Y14331D01*
X577009Y13542D01*
X576220Y12581D01*
X575634Y11484D01*
X575273Y10293D01*
X575151Y9055D01*
X575273Y7817D01*
X575634Y6627D01*
X576220Y5530D01*
X577009Y4568D01*
X577971Y3779D01*
X579068Y3193D01*
X580258Y2832D01*
X581496Y2710D01*
X582734Y2832D01*
X583924Y3193D01*
X585021Y3779D01*
X585983Y4568D01*
X586772Y5530D01*
X587359Y6627D01*
X587720Y7817D01*
X587842Y9055D01*
X587720Y10293D01*
X587359Y11484D01*
X586772Y12581D01*
X585983Y13542D01*
X585021Y14331D01*
X583924Y14918D01*
X582734Y15279D01*
X581496Y15401D01*
D02*
G37*
%LPD*%
G36*
X375102Y336789D02*
X375598Y336457D01*
X376183Y336341D01*
X391550D01*
X392217Y335895D01*
X392758Y335787D01*
X392998Y335241D01*
X392886Y335069D01*
X373509D01*
X373315Y335569D01*
X373708Y336157D01*
X373877Y337008D01*
X373803Y337380D01*
X374264Y337626D01*
X375102Y336789D01*
D02*
G37*
G36*
X344669Y339703D02*
X337031Y332065D01*
X336569Y332256D01*
Y336588D01*
X336612Y336616D01*
X337094Y337338D01*
X337263Y338189D01*
X337094Y339040D01*
X336651Y339703D01*
X336783Y340203D01*
X344461D01*
X344669Y339703D01*
D02*
G37*
G36*
X425636Y334406D02*
Y330735D01*
X425593Y330706D01*
X425564Y330663D01*
X419685D01*
X419100Y330547D01*
X418604Y330215D01*
X375745Y287356D01*
X345050D01*
X344919Y287856D01*
X345362Y288519D01*
X345531Y289370D01*
X345362Y290221D01*
X344880Y290943D01*
X344158Y291425D01*
X343307Y291594D01*
X342456Y291425D01*
X341735Y290943D01*
X341706Y290899D01*
X328740D01*
X328155Y290783D01*
X327659Y290452D01*
X318917Y281709D01*
X318455Y281901D01*
X318456Y286577D01*
X318956Y286729D01*
X319294Y286223D01*
X320015Y285741D01*
X320866Y285572D01*
X321717Y285741D01*
X322439Y286223D01*
X322921Y286944D01*
X323090Y287795D01*
X322921Y288646D01*
X322838Y288770D01*
X323029Y289232D01*
X323292Y289284D01*
X324013Y289766D01*
X324496Y290488D01*
X324665Y291339D01*
X324496Y292190D01*
X324740Y292724D01*
X325260Y292827D01*
X325982Y293309D01*
X326464Y294031D01*
X326633Y294882D01*
X326464Y295733D01*
X325982Y296454D01*
X325260Y296936D01*
X324410Y297106D01*
X323558Y296936D01*
X322837Y296454D01*
X322702D01*
X322439Y296848D01*
X321717Y297330D01*
X320866Y297499D01*
X320015Y297330D01*
X319294Y296848D01*
X318958Y296346D01*
X318458Y296497D01*
X318460Y303091D01*
X318662Y303253D01*
X319197Y303089D01*
X319219Y303065D01*
X319687Y302364D01*
X320409Y301883D01*
X321260Y301713D01*
X321585Y301778D01*
X321886Y301328D01*
X321568Y300851D01*
X321398Y300000D01*
X321568Y299149D01*
X322050Y298428D01*
X322771Y297945D01*
X323622Y297776D01*
X324473Y297945D01*
X325195Y298428D01*
X325677Y299149D01*
X325846Y300000D01*
X325677Y300851D01*
X325195Y301572D01*
X324473Y302055D01*
X323622Y302224D01*
X323296Y302159D01*
X322996Y302609D01*
X323314Y303086D01*
X323484Y303937D01*
X323314Y304788D01*
X322832Y305509D01*
X322111Y305992D01*
X321827Y306048D01*
X321682Y306527D01*
X328167Y313012D01*
X328709Y312847D01*
X329136Y312207D01*
X329858Y311725D01*
X330709Y311556D01*
X331560Y311725D01*
X332281Y312207D01*
X332763Y312929D01*
X332932Y313779D01*
X332918Y313855D01*
X333333Y314132D01*
X333401Y314087D01*
X334252Y313918D01*
X335103Y314087D01*
X335824Y314569D01*
X336307Y315291D01*
X336476Y316142D01*
X336307Y316993D01*
X335824Y317714D01*
X335103Y318196D01*
X334252Y318366D01*
X334222Y318359D01*
X333975Y318820D01*
X347165Y332010D01*
X353167D01*
X353543Y331935D01*
X353919Y332010D01*
X369011D01*
X369120Y331510D01*
X368506Y331100D01*
X368024Y330379D01*
X367855Y329528D01*
X368024Y328677D01*
X368506Y327955D01*
X369228Y327473D01*
X370079Y327304D01*
X370930Y327473D01*
X371651Y327955D01*
X372133Y328677D01*
X372303Y329528D01*
X372133Y330379D01*
X371651Y331100D01*
X371038Y331510D01*
X371146Y332010D01*
X374129D01*
X374238Y331510D01*
X373624Y331100D01*
X373142Y330379D01*
X372973Y329528D01*
X373142Y328677D01*
X373624Y327955D01*
X374346Y327473D01*
X375197Y327304D01*
X376048Y327473D01*
X376769Y327955D01*
X377251Y328677D01*
X377421Y329528D01*
X377251Y330379D01*
X376769Y331100D01*
X376156Y331510D01*
X376265Y332010D01*
X393776D01*
X394361Y332126D01*
X394857Y332458D01*
X399559Y337160D01*
X400342Y337316D01*
X401064Y337798D01*
X401546Y338519D01*
X401715Y339370D01*
X401546Y340221D01*
X401366Y340490D01*
X401633Y340990D01*
X419052D01*
X425636Y334406D01*
D02*
G37*
G36*
X490645Y327498D02*
X490465Y327229D01*
X490296Y326378D01*
X490306Y326327D01*
X484745Y320766D01*
X484414Y320270D01*
X484297Y319685D01*
Y297679D01*
X483797Y297528D01*
X483462Y298029D01*
X482741Y298511D01*
X481890Y298680D01*
X481039Y298511D01*
X480317Y298029D01*
X480289Y297986D01*
X477559D01*
X477092Y297893D01*
X476545Y298082D01*
X476464Y298489D01*
X476199Y298885D01*
Y302420D01*
X476326Y302755D01*
X476656Y302950D01*
X477229Y303064D01*
X477950Y303546D01*
X478433Y304267D01*
X478602Y305118D01*
X478592Y305169D01*
X479822Y306399D01*
X480153Y306895D01*
X480269Y307480D01*
Y317296D01*
X480313Y317325D01*
X480795Y318047D01*
X480964Y318898D01*
X480795Y319749D01*
X480313Y320470D01*
X479591Y320952D01*
X478740Y321122D01*
X477889Y320952D01*
X477168Y320470D01*
X476686Y319749D01*
X476516Y318898D01*
X476686Y318047D01*
X477168Y317325D01*
X477211Y317296D01*
Y308114D01*
X476429Y307332D01*
X476378Y307342D01*
X475527Y307173D01*
X474805Y306691D01*
X474323Y305969D01*
X474298Y305840D01*
X473819Y305695D01*
X455598Y323916D01*
X455540Y323955D01*
X455692Y324455D01*
X460603D01*
X460632Y324412D01*
X461354Y323930D01*
X462205Y323760D01*
X463056Y323930D01*
X463777Y324412D01*
X464259Y325133D01*
X464429Y325984D01*
X464259Y326835D01*
X464079Y327104D01*
X464347Y327605D01*
X467296D01*
X467325Y327561D01*
X468047Y327079D01*
X468898Y326910D01*
X469749Y327079D01*
X470470Y327561D01*
X470762Y327998D01*
X490378D01*
X490645Y327498D01*
D02*
G37*
G36*
X503982Y310476D02*
X497004Y303498D01*
X494121D01*
X494092Y303541D01*
X493371Y304023D01*
X492520Y304192D01*
X491669Y304023D01*
X491350Y303810D01*
X490758Y304016D01*
X490707Y304176D01*
X491031Y304661D01*
X491200Y305512D01*
X491031Y306363D01*
X490549Y307084D01*
X489827Y307566D01*
X488976Y307736D01*
X488125Y307566D01*
X487856Y307386D01*
X487356Y307654D01*
Y319052D01*
X492469Y324164D01*
X492520Y324154D01*
X493371Y324323D01*
X494092Y324805D01*
X494574Y325527D01*
X494743Y326378D01*
X494574Y327229D01*
X494394Y327498D01*
X494662Y327998D01*
X503982D01*
Y310476D01*
D02*
G37*
G36*
X310510Y342415D02*
X310375Y341732D01*
X310544Y340881D01*
X311026Y340160D01*
X311747Y339678D01*
X312598Y339508D01*
X313449Y339678D01*
X314171Y340160D01*
X314199Y340203D01*
X316932D01*
X317212Y339703D01*
X317067Y338976D01*
X317236Y338125D01*
X317718Y337403D01*
X317761Y337374D01*
Y317956D01*
X308252Y308447D01*
X307921Y307950D01*
X307804Y307365D01*
Y302886D01*
X307342Y302695D01*
X299955Y310082D01*
Y319118D01*
X300455Y319385D01*
X300724Y319205D01*
X301575Y319036D01*
X302426Y319205D01*
X303147Y319687D01*
X303629Y320409D01*
X303799Y321260D01*
X303629Y322111D01*
X303147Y322832D01*
X302426Y323314D01*
X301575Y323484D01*
X300724Y323314D01*
X300455Y323134D01*
X299955Y323402D01*
Y336588D01*
X299998Y336616D01*
X300480Y337338D01*
X300649Y338189D01*
X300480Y339040D01*
X299998Y339761D01*
X299445Y340131D01*
X299314Y340707D01*
X301523Y342916D01*
X310210D01*
X310510Y342415D01*
D02*
G37*
G36*
X333428Y339703D02*
X332985Y339040D01*
X332816Y338189D01*
X332985Y337338D01*
X333467Y336616D01*
X333510Y336588D01*
Y330948D01*
X321282Y318721D01*
X320820Y318912D01*
Y337374D01*
X320863Y337403D01*
X321345Y338125D01*
X321515Y338976D01*
X321370Y339703D01*
X321650Y340203D01*
X333295D01*
X333428Y339703D01*
D02*
G37*
G36*
X305804Y299907D02*
X306062Y219195D01*
X305601Y219003D01*
X296935Y227669D01*
Y237432D01*
X297435Y237671D01*
X297968Y237316D01*
X298819Y237146D01*
X298894Y237161D01*
X299172Y236745D01*
X299127Y236678D01*
X298957Y235827D01*
X299127Y234976D01*
X299609Y234254D01*
X300330Y233772D01*
X301181Y233603D01*
X302032Y233772D01*
X302754Y234254D01*
X303236Y234976D01*
X303405Y235827D01*
X303236Y236678D01*
X302754Y237399D01*
X302032Y237881D01*
X301181Y238051D01*
X301106Y238036D01*
X300828Y238451D01*
X300873Y238519D01*
X301043Y239370D01*
X300873Y240221D01*
X300615Y240608D01*
X300686Y240804D01*
X300886Y241103D01*
X301638Y241252D01*
X302360Y241735D01*
X302842Y242456D01*
X303011Y243307D01*
X302842Y244158D01*
X302360Y244880D01*
X301638Y245362D01*
X301570Y245375D01*
Y245885D01*
X302032Y245977D01*
X302754Y246459D01*
X303236Y247181D01*
X303405Y248031D01*
X303236Y248883D01*
X302754Y249604D01*
X302032Y250086D01*
X301181Y250255D01*
X300330Y250086D01*
X299609Y249604D01*
X299127Y248883D01*
X298957Y248031D01*
X299127Y247181D01*
X299609Y246459D01*
X300330Y245977D01*
X300398Y245963D01*
Y245454D01*
X299936Y245362D01*
X299215Y244880D01*
X298733Y244158D01*
X298564Y243307D01*
X298733Y242456D01*
X298991Y242069D01*
X298920Y241873D01*
X298721Y241574D01*
X297968Y241425D01*
X297435Y241069D01*
X296935Y241308D01*
Y263937D01*
X297435Y264088D01*
X297640Y263782D01*
X298362Y263300D01*
X299213Y263130D01*
X299438Y263175D01*
X299853Y262748D01*
X299745Y262205D01*
X299914Y261354D01*
X300396Y260632D01*
X301117Y260150D01*
X301969Y259981D01*
X302819Y260150D01*
X303541Y260632D01*
X304023Y261354D01*
X304192Y262205D01*
X304023Y263056D01*
X303541Y263777D01*
X302819Y264259D01*
X301969Y264428D01*
X301743Y264384D01*
X301328Y264811D01*
X301436Y265354D01*
X301267Y266205D01*
X301191Y266319D01*
X301492Y266769D01*
X301969Y266674D01*
X302819Y266843D01*
X303541Y267325D01*
X304023Y268047D01*
X304192Y268898D01*
X304023Y269749D01*
X303541Y270470D01*
X302819Y270952D01*
X301969Y271122D01*
X301117Y270952D01*
X300993Y270869D01*
X300633Y271230D01*
X300873Y271590D01*
X301043Y272441D01*
X300873Y273292D01*
X300391Y274013D01*
X299670Y274496D01*
X298819Y274665D01*
X297968Y274496D01*
X297435Y274140D01*
X296935Y274379D01*
Y280394D01*
X297435Y280443D01*
X297552Y279858D01*
X298034Y279136D01*
X298755Y278654D01*
X299606Y278485D01*
X299932Y278550D01*
X300233Y278100D01*
X299914Y277623D01*
X299745Y276772D01*
X299914Y275921D01*
X300396Y275199D01*
X301117Y274717D01*
X301969Y274548D01*
X302819Y274717D01*
X303541Y275199D01*
X304023Y275921D01*
X304192Y276772D01*
X304023Y277623D01*
X303541Y278344D01*
X302819Y278826D01*
X301969Y278995D01*
X301643Y278931D01*
X301342Y279381D01*
X301661Y279858D01*
X301830Y280709D01*
X301661Y281560D01*
X301252Y282172D01*
X301421Y282446D01*
X301561Y282581D01*
X302362Y282422D01*
X303213Y282591D01*
X303935Y283073D01*
X304417Y283795D01*
X304586Y284646D01*
X304417Y285497D01*
X303935Y286218D01*
X303213Y286700D01*
X302461Y286850D01*
X302261Y287149D01*
X302190Y287345D01*
X302448Y287732D01*
X302618Y288583D01*
X302448Y289434D01*
X301966Y290155D01*
X301245Y290637D01*
X300394Y290807D01*
X299543Y290637D01*
X298821Y290155D01*
X298339Y289434D01*
X298170Y288583D01*
X298339Y287732D01*
X298821Y287010D01*
X299543Y286528D01*
X300295Y286378D01*
X300495Y286079D01*
X300566Y285883D01*
X300308Y285497D01*
X300138Y284646D01*
X300308Y283795D01*
X300717Y283183D01*
X300547Y282908D01*
X300407Y282773D01*
X299606Y282932D01*
X298755Y282763D01*
X298034Y282281D01*
X297552Y281560D01*
X297435Y280974D01*
X296935Y281023D01*
Y292677D01*
X297435Y292829D01*
X297640Y292522D01*
X298362Y292040D01*
X299213Y291871D01*
X300064Y292040D01*
X300785Y292522D01*
X301267Y293244D01*
X301436Y294094D01*
X301267Y294946D01*
X300858Y295557D01*
X301028Y295832D01*
X301168Y295967D01*
X301969Y295808D01*
X302819Y295977D01*
X303541Y296459D01*
X304023Y297181D01*
X304192Y298031D01*
X304023Y298883D01*
X303541Y299604D01*
X302819Y300086D01*
X301969Y300255D01*
X301876Y300237D01*
X301386Y300649D01*
X301267Y301245D01*
X300785Y301966D01*
X300064Y302448D01*
X299213Y302618D01*
X298362Y302448D01*
X297640Y301966D01*
X297435Y301660D01*
X296935Y301811D01*
Y308085D01*
X297078Y308183D01*
X297435Y308276D01*
X305804Y299907D01*
D02*
G37*
G36*
X340867Y287341D02*
X340360Y287240D01*
X339863Y286908D01*
X338240Y285285D01*
X338189Y285295D01*
X337338Y285125D01*
X336616Y284643D01*
X336469Y284423D01*
X335998Y284618D01*
X336082Y285039D01*
X335913Y285890D01*
X335431Y286612D01*
X334709Y287094D01*
X333858Y287263D01*
X333007Y287094D01*
X332286Y286612D01*
X331804Y285890D01*
X331634Y285039D01*
X331726Y284578D01*
X331499Y284118D01*
X331353Y284085D01*
X330645Y283944D01*
X329924Y283462D01*
X329441Y282741D01*
X329272Y281890D01*
X329441Y281039D01*
X329924Y280317D01*
X330645Y279835D01*
X331496Y279666D01*
X331722Y279711D01*
X332136Y279283D01*
X332028Y278740D01*
X332038Y278689D01*
X320889Y267540D01*
X320427Y267731D01*
Y278894D01*
X329374Y287841D01*
X340818D01*
X340867Y287341D01*
D02*
G37*
G36*
X487447Y295427D02*
Y289122D01*
X487563Y288537D01*
X487895Y288040D01*
X499535Y276401D01*
X499343Y275939D01*
X498452D01*
X498423Y275982D01*
X497701Y276464D01*
X496850Y276633D01*
X495999Y276464D01*
X495278Y275982D01*
X495249Y275939D01*
X487650D01*
X487065Y275822D01*
X486568Y275491D01*
X476084Y265006D01*
X475752Y264510D01*
X475636Y263925D01*
Y246877D01*
X475593Y246848D01*
X475356Y246494D01*
X474856Y246645D01*
Y281574D01*
X475356Y281787D01*
X475921Y281410D01*
X476423Y281310D01*
Y276798D01*
X476380Y276769D01*
X475898Y276048D01*
X475729Y275197D01*
X475898Y274346D01*
X476380Y273624D01*
X477102Y273142D01*
X477953Y272973D01*
X478804Y273142D01*
X479525Y273624D01*
X480007Y274346D01*
X480177Y275197D01*
X480007Y276048D01*
X479525Y276769D01*
X479482Y276798D01*
Y282283D01*
X479366Y282869D01*
X479034Y283365D01*
X478985Y283414D01*
X478996Y283465D01*
X478826Y284316D01*
X478344Y285037D01*
X477623Y285519D01*
X476772Y285688D01*
X476250Y285585D01*
X476004Y286045D01*
X481736Y291778D01*
X482532D01*
X483117Y291894D01*
X483613Y292226D01*
X486908Y295521D01*
X486947Y295579D01*
X487447Y295427D01*
D02*
G37*
G36*
X525290Y330648D02*
X525110Y330378D01*
X524940Y329527D01*
X525110Y328676D01*
X525592Y327954D01*
X525635Y327926D01*
Y262916D01*
X525135Y262709D01*
X497813Y290032D01*
X498117Y290488D01*
X498287Y291339D01*
X498117Y292190D01*
X497636Y292911D01*
X496914Y293393D01*
X496063Y293562D01*
X495212Y293393D01*
X494549Y292950D01*
X494049Y293082D01*
Y300367D01*
X494092Y300396D01*
X494121Y300439D01*
X497638D01*
X498223Y300555D01*
X498719Y300887D01*
X506593Y308761D01*
X506925Y309257D01*
X507041Y309842D01*
Y327998D01*
X509055D01*
X509640Y328115D01*
X510137Y328446D01*
X512838Y331148D01*
X525023D01*
X525290Y330648D01*
D02*
G37*
G36*
X333510Y275128D02*
Y258835D01*
X333010Y258568D01*
X332741Y258748D01*
X331890Y258917D01*
X331039Y258748D01*
X330652Y258489D01*
X330456Y258560D01*
X330157Y258760D01*
X330007Y259512D01*
X329525Y260234D01*
X328804Y260716D01*
X327953Y260885D01*
X327878Y260870D01*
X327600Y261286D01*
X327645Y261354D01*
X327814Y262205D01*
X327645Y263056D01*
X327163Y263777D01*
X326442Y264259D01*
X325590Y264428D01*
X324740Y264259D01*
X324018Y263777D01*
X323536Y263056D01*
X323367Y262205D01*
X323536Y261354D01*
X324018Y260632D01*
X324740Y260150D01*
X325590Y259981D01*
X325666Y259996D01*
X325943Y259580D01*
X325898Y259512D01*
X325729Y258661D01*
X325898Y257810D01*
X326380Y257089D01*
X327102Y256607D01*
X327953Y256438D01*
X328804Y256607D01*
X329190Y256865D01*
X329386Y256794D01*
X329685Y256595D01*
X329835Y255842D01*
X330317Y255120D01*
X331039Y254638D01*
X331890Y254469D01*
X332741Y254638D01*
X333010Y254818D01*
X333510Y254551D01*
Y222074D01*
X333467Y222045D01*
X332985Y221323D01*
X332816Y220472D01*
X332985Y219621D01*
X333467Y218900D01*
X334188Y218418D01*
X335039Y218249D01*
X335890Y218418D01*
X336612Y218900D01*
X336904Y219337D01*
X337505D01*
X337798Y218900D01*
X337841Y218871D01*
Y214422D01*
X337957Y213836D01*
X338289Y213340D01*
X338481Y213148D01*
X338350Y212572D01*
X337798Y212202D01*
X337316Y211481D01*
X337146Y210630D01*
X337316Y209779D01*
X337798Y209057D01*
X338519Y208575D01*
X339370Y208406D01*
X339421Y208416D01*
X346098Y201739D01*
X345906Y201277D01*
X341512D01*
X322025Y220764D01*
Y264351D01*
X333010Y275335D01*
X333510Y275128D01*
D02*
G37*
G36*
X341514Y283526D02*
X341252Y283135D01*
X341083Y282283D01*
X341252Y281432D01*
X341735Y280711D01*
X341778Y280682D01*
Y254623D01*
X341894Y254037D01*
X342226Y253541D01*
X349459Y246308D01*
X349955Y245976D01*
X350540Y245860D01*
X372843D01*
X380847Y237856D01*
X380640Y237356D01*
X350420D01*
X350391Y237399D01*
X349670Y237881D01*
X348819Y238051D01*
X347968Y237881D01*
X347246Y237399D01*
X346764Y236678D01*
X346595Y235827D01*
X346764Y234976D01*
X347246Y234254D01*
X347968Y233772D01*
X348819Y233603D01*
X349670Y233772D01*
X350391Y234254D01*
X350420Y234297D01*
X380469D01*
X407243Y207523D01*
X407052Y207061D01*
X353369D01*
X346701Y213728D01*
X346711Y213779D01*
X346542Y214630D01*
X346060Y215352D01*
X345339Y215834D01*
X344488Y216003D01*
X343636Y215834D01*
X342915Y215352D01*
X342433Y214630D01*
X342366Y214295D01*
X341824Y214131D01*
X340899Y215055D01*
Y218871D01*
X340943Y218900D01*
X341425Y219621D01*
X341594Y220472D01*
X341425Y221323D01*
X340943Y222045D01*
X340221Y222527D01*
X339370Y222696D01*
X338519Y222527D01*
X337798Y222045D01*
X337505Y221608D01*
X336904D01*
X336612Y222045D01*
X336569Y222074D01*
Y275102D01*
X339270Y277804D01*
X339602Y278300D01*
X339718Y278886D01*
Y281470D01*
X339761Y281498D01*
X340244Y282220D01*
X340413Y283071D01*
X340403Y283122D01*
X341126Y283845D01*
X341514Y283526D01*
D02*
G37*
G36*
X548101Y235418D02*
Y232814D01*
X547639Y232622D01*
X505614Y274647D01*
X505744Y275224D01*
X506297Y275593D01*
X506666Y276145D01*
X507242Y276276D01*
X548101Y235418D01*
D02*
G37*
G36*
X440404Y130475D02*
X440160Y130313D01*
X439678Y129591D01*
X439508Y128740D01*
X439678Y127889D01*
X440160Y127168D01*
X440881Y126686D01*
X441732Y126516D01*
X441783Y126526D01*
X446108Y122201D01*
Y108283D01*
X445646Y108091D01*
X437415Y116323D01*
X437734Y116711D01*
X438125Y116449D01*
X438976Y116280D01*
X439827Y116449D01*
X440549Y116931D01*
X441031Y117653D01*
X441200Y118504D01*
X441031Y119355D01*
X440549Y120076D01*
X439827Y120559D01*
X438976Y120728D01*
X438926Y120718D01*
X431962Y127681D01*
X431466Y128012D01*
X430881Y128129D01*
X396298D01*
X395432Y128995D01*
X395442Y129045D01*
X395273Y129896D01*
X395034Y130254D01*
X395301Y130754D01*
X427533D01*
X427561Y130711D01*
X428283Y130229D01*
X429134Y130060D01*
X429985Y130229D01*
X430706Y130711D01*
X430883Y130975D01*
X440252D01*
X440404Y130475D01*
D02*
G37*
G36*
X505482Y118339D02*
Y110677D01*
X504982Y110362D01*
X504331Y110492D01*
X503480Y110322D01*
X502758Y109840D01*
X502729Y109797D01*
X496877D01*
X496848Y109840D01*
X496127Y110322D01*
X495276Y110492D01*
X494425Y110322D01*
X493703Y109840D01*
X493674Y109797D01*
X491578D01*
X481790Y119585D01*
X481294Y119917D01*
X480709Y120033D01*
X476283D01*
Y131125D01*
X476326Y131154D01*
X476809Y131875D01*
X476978Y132726D01*
X476809Y133577D01*
X476398Y134191D01*
X476571Y134691D01*
X489130D01*
X505482Y118339D01*
D02*
G37*
G36*
X502758Y106695D02*
X503480Y106213D01*
X504331Y106044D01*
X504982Y106174D01*
X505482Y105859D01*
Y65126D01*
X502807Y62450D01*
X502756Y62460D01*
X501905Y62291D01*
X501183Y61809D01*
X500701Y61087D01*
X500532Y60236D01*
X500542Y60185D01*
X498131Y57774D01*
X497800Y57278D01*
X497683Y56693D01*
Y34279D01*
X497640Y34250D01*
X497158Y33528D01*
X497101Y33244D01*
X496623Y33099D01*
X492474Y37248D01*
Y106738D01*
X493674D01*
X493703Y106695D01*
X494425Y106213D01*
X495276Y106044D01*
X496127Y106213D01*
X496848Y106695D01*
X496877Y106738D01*
X502729D01*
X502758Y106695D01*
D02*
G37*
G36*
X429179Y102910D02*
Y102389D01*
X429136Y102360D01*
X428654Y101638D01*
X428485Y100787D01*
X428654Y99936D01*
X429136Y99215D01*
X429179Y99186D01*
Y81881D01*
X427620Y80322D01*
X427120Y80529D01*
Y104316D01*
X427582Y104507D01*
X429179Y102910D01*
D02*
G37*
G36*
X433116Y99565D02*
Y75437D01*
X430729Y73050D01*
X426068D01*
X425801Y73550D01*
X426069Y73952D01*
X426192Y74568D01*
X431790Y80166D01*
X432122Y80663D01*
X432238Y81248D01*
Y99186D01*
X432281Y99215D01*
X432616Y99717D01*
X433116Y99565D01*
D02*
G37*
G36*
X438628Y99760D02*
Y98452D01*
X438585Y98423D01*
X438103Y97701D01*
X437934Y96850D01*
X438103Y95999D01*
X438585Y95278D01*
X438628Y95249D01*
Y90551D01*
X438744Y89966D01*
X439076Y89470D01*
X440990Y87555D01*
Y72185D01*
X438051Y69246D01*
X424908D01*
X424657Y69746D01*
X424839Y69991D01*
X431363D01*
X431948Y70107D01*
X432444Y70439D01*
X435727Y73722D01*
X436059Y74218D01*
X436175Y74803D01*
Y101560D01*
X436637Y101751D01*
X438628Y99760D01*
D02*
G37*
G36*
X473224Y120033D02*
X459449D01*
X458864Y119917D01*
X458367Y119585D01*
X452068Y113286D01*
X451737Y112790D01*
X451620Y112205D01*
Y94515D01*
X451577Y94486D01*
X451095Y93764D01*
X450926Y92913D01*
X451095Y92062D01*
X451577Y91341D01*
X451620Y91312D01*
Y69712D01*
X451577Y69683D01*
X451095Y68961D01*
X450926Y68110D01*
X451095Y67259D01*
X451577Y66538D01*
X452299Y66056D01*
X453150Y65886D01*
X454001Y66056D01*
X454722Y66538D01*
X455204Y67259D01*
X455373Y68110D01*
X455204Y68961D01*
X454722Y69683D01*
X454679Y69712D01*
Y91312D01*
X454722Y91341D01*
X455204Y92062D01*
X455373Y92913D01*
X455204Y93764D01*
X454722Y94486D01*
X454679Y94515D01*
Y111571D01*
X460082Y116974D01*
X474754D01*
X474779Y116979D01*
X474803Y116974D01*
X480075D01*
X489416Y107634D01*
Y36614D01*
X489532Y36029D01*
X489863Y35533D01*
X502462Y22934D01*
X502958Y22603D01*
X503543Y22486D01*
X535039D01*
X535107Y22500D01*
X535674Y22105D01*
X535690Y22005D01*
X534900Y21214D01*
X470105D01*
X470076Y21258D01*
X469355Y21740D01*
X468504Y21909D01*
X467653Y21740D01*
X467196Y21434D01*
X467098Y21369D01*
X466799Y21770D01*
X466806Y21794D01*
X478172Y33160D01*
X478504Y33656D01*
X478620Y34241D01*
Y53617D01*
X478504Y54202D01*
X478172Y54698D01*
X477016Y55855D01*
X477026Y55905D01*
X476857Y56756D01*
X476375Y57478D01*
X475653Y57960D01*
X474802Y58129D01*
X473951Y57960D01*
X473230Y57478D01*
X472748Y56756D01*
X472578Y55905D01*
X472748Y55054D01*
X473230Y54333D01*
X473951Y53851D01*
X474020Y53837D01*
Y53327D01*
X473558Y53236D01*
X472837Y52754D01*
X472355Y52032D01*
X472186Y51181D01*
X472355Y50330D01*
X472837Y49609D01*
X472880Y49580D01*
Y45890D01*
X454888Y27898D01*
X454556Y27401D01*
X454440Y26816D01*
Y21893D01*
X441163Y8616D01*
X430341D01*
X430313Y8659D01*
X429591Y9141D01*
X428740Y9310D01*
X427889Y9141D01*
X427168Y8659D01*
X427139Y8616D01*
X423649D01*
X423620Y8659D01*
X422898Y9141D01*
X422047Y9310D01*
X421196Y9141D01*
X420475Y8659D01*
X420446Y8616D01*
X351208D01*
X351179Y8659D01*
X350457Y9141D01*
X349606Y9310D01*
X348755Y9141D01*
X348034Y8659D01*
X348005Y8616D01*
X337181D01*
X336913Y9116D01*
X337093Y9385D01*
X337263Y10236D01*
X337093Y11087D01*
X336705Y11668D01*
X336646Y12009D01*
X336705Y12347D01*
X337094Y12928D01*
X337263Y13780D01*
X337094Y14630D01*
X336612Y15352D01*
X335890Y15834D01*
X335039Y16003D01*
X334988Y15993D01*
X334940Y16042D01*
X334443Y16374D01*
X333858Y16490D01*
X324042D01*
X324013Y16533D01*
X323512Y16868D01*
X323663Y17368D01*
X357733D01*
X358318Y17485D01*
X358814Y17816D01*
X363484Y22486D01*
X386588D01*
X386616Y22443D01*
X387338Y21961D01*
X388189Y21792D01*
X389040Y21961D01*
X389761Y22443D01*
X389790Y22486D01*
X404435D01*
X404727Y22050D01*
X405448Y21567D01*
X406299Y21398D01*
X407150Y21567D01*
X407872Y22050D01*
X407900Y22093D01*
X426772D01*
X427357Y22209D01*
X427853Y22541D01*
X433414Y28101D01*
X433465Y28091D01*
X434316Y28260D01*
X435037Y28743D01*
X435519Y29464D01*
X435688Y30315D01*
X435519Y31166D01*
X435037Y31888D01*
X434536Y32223D01*
X434687Y32723D01*
X450394D01*
X450979Y32839D01*
X451475Y33171D01*
X455563Y37258D01*
X456105Y37093D01*
X456213Y36551D01*
X456695Y35829D01*
X457417Y35347D01*
X458268Y35178D01*
X459119Y35347D01*
X459840Y35829D01*
X460322Y36551D01*
X460492Y37402D01*
X460322Y38253D01*
X459840Y38974D01*
X459119Y39456D01*
X458576Y39564D01*
X458411Y40107D01*
X462548Y44243D01*
X462598Y44233D01*
X463449Y44402D01*
X464171Y44884D01*
X464653Y45606D01*
X464822Y46457D01*
X464653Y47308D01*
X464171Y48029D01*
X463449Y48511D01*
X462598Y48680D01*
X461747Y48511D01*
X461026Y48029D01*
X460544Y47308D01*
X460375Y46457D01*
X460385Y46406D01*
X449760Y35781D01*
X446584D01*
X446534Y36281D01*
X447042Y36382D01*
X447538Y36714D01*
X476721Y65896D01*
X476772Y65886D01*
X477623Y66056D01*
X478344Y66538D01*
X478826Y67259D01*
X478996Y68110D01*
X478826Y68961D01*
X478344Y69683D01*
X478125Y69829D01*
Y70329D01*
X478343Y70475D01*
X478825Y71196D01*
X478995Y72047D01*
X478825Y72898D01*
X478343Y73620D01*
X477906Y73912D01*
Y74513D01*
X478343Y74805D01*
X478825Y75527D01*
X478995Y76378D01*
X478825Y77229D01*
X478343Y77950D01*
X477622Y78432D01*
X476771Y78602D01*
X475920Y78432D01*
X475198Y77950D01*
X474716Y77229D01*
X474547Y76378D01*
X474646Y75877D01*
X445574Y46805D01*
X438712D01*
X438663Y47305D01*
X438676Y47308D01*
X439172Y47639D01*
X448719Y57186D01*
X449051Y57682D01*
X449167Y58268D01*
Y122835D01*
X449051Y123420D01*
X448719Y123916D01*
X443946Y128689D01*
X443956Y128740D01*
X443787Y129591D01*
X443305Y130313D01*
X443061Y130475D01*
X443213Y130975D01*
X473224D01*
Y120033D01*
D02*
G37*
G36*
X511628Y83889D02*
X511725Y83401D01*
X512207Y82679D01*
X512644Y82387D01*
Y81786D01*
X512207Y81494D01*
X511725Y80772D01*
X511556Y79921D01*
X511725Y79070D01*
X512207Y78349D01*
X512928Y77867D01*
X513779Y77697D01*
X514631Y77867D01*
X515352Y78349D01*
X515834Y79070D01*
X516003Y79921D01*
X515971Y80085D01*
X516030Y80133D01*
X516530Y79896D01*
Y70131D01*
X516646Y69546D01*
X516978Y69049D01*
X517077Y68950D01*
X517066Y68897D01*
X517236Y68046D01*
X517718Y67325D01*
X518439Y66843D01*
X518724Y66786D01*
X518869Y66308D01*
X508712Y56151D01*
X508661Y56161D01*
X508170Y56063D01*
X507634Y56429D01*
X507615Y56633D01*
X510581Y59600D01*
X510913Y60096D01*
X511029Y60681D01*
Y83684D01*
X511529Y83954D01*
X511628Y83889D01*
D02*
G37*
G36*
X546502Y229433D02*
Y136614D01*
X546619Y136029D01*
X546950Y135533D01*
X552801Y129682D01*
Y43941D01*
X548476Y39615D01*
X548425Y39625D01*
X547574Y39456D01*
X546911Y39013D01*
X546411Y39145D01*
Y127139D01*
X546454Y127168D01*
X546936Y127889D01*
X547106Y128740D01*
X546936Y129591D01*
X546454Y130313D01*
X545733Y130795D01*
X544882Y130964D01*
X544031Y130795D01*
X543309Y130313D01*
X542827Y129591D01*
X542658Y128740D01*
X542827Y127889D01*
X543309Y127168D01*
X543353Y127139D01*
Y29667D01*
X540717Y27031D01*
X540616Y27048D01*
X540222Y27614D01*
X540235Y27682D01*
Y155905D01*
Y235047D01*
X540697Y235238D01*
X546502Y229433D01*
D02*
G37*
G36*
X475561Y43538D02*
Y34874D01*
X472008Y31321D01*
X471486Y31507D01*
X471006Y32226D01*
X470219Y32752D01*
X469291Y32936D01*
X468364Y32752D01*
X467577Y32226D01*
X467051Y31440D01*
X466867Y30512D01*
X467051Y29584D01*
X467577Y28797D01*
X468296Y28317D01*
X468482Y27796D01*
X446547Y5860D01*
X443440D01*
X443232Y6360D01*
X457051Y20178D01*
X457382Y20675D01*
X457499Y21260D01*
Y26183D01*
X475061Y43745D01*
X475561Y43538D01*
D02*
G37*
%LPC*%
G36*
X410236Y340019D02*
X409385Y339850D01*
X408664Y339368D01*
X408182Y338646D01*
X408012Y337795D01*
X408022Y337744D01*
X378500Y308222D01*
X348819D01*
X348234Y308106D01*
X347737Y307774D01*
X336271Y296308D01*
X336221Y296318D01*
X335369Y296149D01*
X334648Y295667D01*
X334166Y294946D01*
X333997Y294094D01*
X334166Y293244D01*
X334648Y292522D01*
X335369Y292040D01*
X336221Y291871D01*
X337071Y292040D01*
X337793Y292522D01*
X338275Y293244D01*
X338444Y294094D01*
X338434Y294145D01*
X349452Y305164D01*
X379134D01*
X379719Y305280D01*
X380215Y305611D01*
X407694Y333090D01*
X408236Y332925D01*
X408664Y332286D01*
X409385Y331804D01*
X410236Y331634D01*
X411087Y331804D01*
X411809Y332286D01*
X412291Y333007D01*
X412460Y333858D01*
X412291Y334709D01*
X411809Y335431D01*
X411590Y335577D01*
Y336077D01*
X411809Y336223D01*
X412291Y336944D01*
X412460Y337795D01*
X412291Y338646D01*
X411809Y339368D01*
X411087Y339850D01*
X410236Y340019D01*
D02*
G37*
G36*
X379528Y297893D02*
X378677Y297724D01*
X377955Y297242D01*
X377473Y296520D01*
X377304Y295669D01*
X377368Y295344D01*
X376919Y295043D01*
X376442Y295362D01*
X375590Y295531D01*
X374740Y295362D01*
X374018Y294880D01*
X373536Y294158D01*
X373367Y293307D01*
X373536Y292456D01*
X374018Y291735D01*
X374740Y291252D01*
X375590Y291083D01*
X376442Y291252D01*
X377163Y291735D01*
X377645Y292456D01*
X377814Y293307D01*
X377750Y293633D01*
X378200Y293933D01*
X378677Y293615D01*
X379528Y293445D01*
X380379Y293615D01*
X381100Y294097D01*
X381582Y294818D01*
X381751Y295669D01*
X381582Y296520D01*
X381100Y297242D01*
X380379Y297724D01*
X379528Y297893D01*
D02*
G37*
G36*
X305906Y320728D02*
X305054Y320559D01*
X304333Y320076D01*
X303851Y319355D01*
X303682Y318504D01*
X303814Y317839D01*
X303798Y317805D01*
X303455Y317462D01*
X303421Y317446D01*
X302756Y317578D01*
X301905Y317409D01*
X301183Y316927D01*
X300701Y316205D01*
X300532Y315354D01*
X300701Y314503D01*
X301183Y313782D01*
X301905Y313300D01*
X302756Y313130D01*
X303607Y313300D01*
X304328Y313782D01*
X304811Y314503D01*
X304980Y315354D01*
X304847Y316020D01*
X304864Y316053D01*
X305207Y316396D01*
X305240Y316412D01*
X305906Y316280D01*
X306756Y316449D01*
X307478Y316931D01*
X307960Y317653D01*
X308129Y318504D01*
X307960Y319355D01*
X307478Y320076D01*
X306756Y320559D01*
X305906Y320728D01*
D02*
G37*
G36*
X304331Y312460D02*
X303480Y312291D01*
X302758Y311809D01*
X302276Y311087D01*
X302107Y310236D01*
X302276Y309385D01*
X302758Y308664D01*
X303480Y308182D01*
X304331Y308012D01*
X305182Y308182D01*
X305903Y308664D01*
X306385Y309385D01*
X306555Y310236D01*
X306385Y311087D01*
X305903Y311809D01*
X305182Y312291D01*
X304331Y312460D01*
D02*
G37*
G36*
X300000Y259704D02*
X299149Y259535D01*
X298428Y259053D01*
X297945Y258331D01*
X297776Y257480D01*
X297945Y256629D01*
X298428Y255908D01*
X299062Y255484D01*
X299132Y255123D01*
X299120Y254922D01*
X298821Y254722D01*
X298339Y254001D01*
X298170Y253150D01*
X298339Y252299D01*
X298821Y251577D01*
X299543Y251095D01*
X300394Y250926D01*
X301245Y251095D01*
X301966Y251577D01*
X302448Y252299D01*
X302618Y253150D01*
X302448Y254001D01*
X301966Y254722D01*
X301332Y255146D01*
X301262Y255507D01*
X301274Y255708D01*
X301572Y255908D01*
X302055Y256629D01*
X302224Y257480D01*
X302055Y258331D01*
X301572Y259053D01*
X300851Y259535D01*
X300000Y259704D01*
D02*
G37*
G36*
Y232539D02*
X299149Y232369D01*
X298428Y231887D01*
X297945Y231166D01*
X297776Y230315D01*
X297945Y229464D01*
X298428Y228743D01*
X299149Y228260D01*
X300000Y228091D01*
X300851Y228260D01*
X301572Y228743D01*
X302055Y229464D01*
X302224Y230315D01*
X302055Y231166D01*
X301572Y231887D01*
X300851Y232369D01*
X300000Y232539D01*
D02*
G37*
G36*
X520472Y310098D02*
X519621Y309929D01*
X518900Y309447D01*
X518418Y308725D01*
X518249Y307874D01*
X518418Y307023D01*
X518900Y306301D01*
X519337Y306009D01*
Y305408D01*
X518900Y305116D01*
X518418Y304394D01*
X518249Y303543D01*
X518418Y302692D01*
X518900Y301971D01*
X519621Y301489D01*
X520472Y301320D01*
X520798Y301384D01*
X521099Y300934D01*
X520780Y300457D01*
X520700Y300052D01*
X520144Y299822D01*
X519749Y300086D01*
X518898Y300255D01*
X518047Y300086D01*
X517325Y299604D01*
X516843Y298883D01*
X516674Y298031D01*
X516843Y297181D01*
X517325Y296459D01*
X518047Y295977D01*
X518115Y295963D01*
Y295454D01*
X517653Y295362D01*
X516931Y294880D01*
X516449Y294158D01*
X516280Y293307D01*
X516449Y292456D01*
X516931Y291735D01*
X517653Y291252D01*
X518504Y291083D01*
X519355Y291252D01*
X520076Y291735D01*
X520559Y292456D01*
X520728Y293307D01*
X520644Y293728D01*
X521115Y293923D01*
X521262Y293703D01*
X521984Y293221D01*
X522835Y293052D01*
X523686Y293221D01*
X524407Y293703D01*
X524889Y294425D01*
X525059Y295276D01*
X524889Y296127D01*
X524407Y296848D01*
X523970Y297140D01*
Y297742D01*
X524407Y298034D01*
X524889Y298755D01*
X525059Y299606D01*
X524889Y300457D01*
X524407Y301179D01*
X523686Y301661D01*
X522835Y301830D01*
X522509Y301765D01*
X522208Y302215D01*
X522527Y302692D01*
X522696Y303543D01*
X522527Y304394D01*
X522045Y305116D01*
X521608Y305408D01*
Y306009D01*
X522045Y306301D01*
X522527Y307023D01*
X522696Y307874D01*
X522527Y308725D01*
X522045Y309447D01*
X521323Y309929D01*
X520472Y310098D01*
D02*
G37*
G36*
X324803Y256555D02*
X323952Y256385D01*
X323231Y255903D01*
X322749Y255182D01*
X322579Y254331D01*
X322749Y253480D01*
X323231Y252758D01*
X323952Y252276D01*
X324803Y252107D01*
X325224Y252191D01*
X325419Y251720D01*
X325199Y251572D01*
X324717Y250851D01*
X324548Y250000D01*
X324717Y249149D01*
X325137Y248520D01*
X325133Y248511D01*
X324412Y248029D01*
X323930Y247308D01*
X323760Y246457D01*
X323930Y245606D01*
X324412Y244884D01*
X325133Y244402D01*
X325984Y244233D01*
X326835Y244402D01*
X327557Y244884D01*
X328039Y245606D01*
X328208Y246457D01*
X328039Y247308D01*
X327619Y247936D01*
X327623Y247945D01*
X328344Y248428D01*
X328826Y249149D01*
X328930Y249670D01*
X329464Y249914D01*
X330315Y249745D01*
X331166Y249914D01*
X331887Y250396D01*
X332369Y251117D01*
X332539Y251969D01*
X332369Y252819D01*
X331887Y253541D01*
X331166Y254023D01*
X330315Y254192D01*
X329464Y254023D01*
X328743Y253541D01*
X328260Y252819D01*
X328157Y252299D01*
X327623Y252055D01*
X326772Y252224D01*
X326350Y252140D01*
X326155Y252611D01*
X326376Y252758D01*
X326858Y253480D01*
X327027Y254331D01*
X326858Y255182D01*
X326376Y255903D01*
X325654Y256385D01*
X324803Y256555D01*
D02*
G37*
G36*
X326378Y227421D02*
X325527Y227251D01*
X324805Y226769D01*
X324323Y226048D01*
X324154Y225197D01*
X324323Y224346D01*
X324805Y223624D01*
X325527Y223142D01*
X325598Y223128D01*
X325815Y222575D01*
X325504Y222111D01*
X325335Y221260D01*
X325504Y220409D01*
X325987Y219687D01*
X326708Y219205D01*
X327559Y219036D01*
X327885Y219101D01*
X328185Y218651D01*
X327867Y218174D01*
X327697Y217323D01*
X327867Y216472D01*
X328349Y215750D01*
X329070Y215268D01*
X329921Y215099D01*
X330147Y215144D01*
X330561Y214717D01*
X330453Y214173D01*
X330623Y213322D01*
X331105Y212601D01*
X331826Y212119D01*
X332677Y211949D01*
X333528Y212119D01*
X334250Y212601D01*
X334732Y213322D01*
X334901Y214173D01*
X334732Y215024D01*
X334250Y215746D01*
X333528Y216228D01*
X332677Y216397D01*
X332451Y216352D01*
X332037Y216779D01*
X332145Y217323D01*
X331976Y218174D01*
X331494Y218895D01*
X330772Y219377D01*
X329921Y219547D01*
X329596Y219482D01*
X329295Y219932D01*
X329614Y220409D01*
X329783Y221260D01*
X329614Y222111D01*
X329132Y222832D01*
X328410Y223314D01*
X328339Y223328D01*
X328122Y223881D01*
X328432Y224346D01*
X328602Y225197D01*
X328432Y226048D01*
X327950Y226769D01*
X327229Y227251D01*
X326378Y227421D01*
D02*
G37*
G36*
X379528Y225846D02*
X378677Y225677D01*
X377955Y225195D01*
X377473Y224473D01*
X377392Y224068D01*
X376837Y223838D01*
X376442Y224102D01*
X375590Y224271D01*
X374740Y224102D01*
X374018Y223620D01*
X373536Y222898D01*
X373367Y222047D01*
X373536Y221196D01*
X374018Y220475D01*
X374740Y219993D01*
X375590Y219823D01*
X376442Y219993D01*
X377163Y220475D01*
X377645Y221196D01*
X377726Y221602D01*
X378281Y221832D01*
X378677Y221568D01*
X379528Y221398D01*
X380379Y221568D01*
X381100Y222050D01*
X381582Y222771D01*
X381751Y223622D01*
X381582Y224473D01*
X381100Y225195D01*
X380379Y225677D01*
X379528Y225846D01*
D02*
G37*
G36*
X381102Y218759D02*
X380251Y218590D01*
X379530Y218108D01*
X379048Y217387D01*
X378893Y216611D01*
X378659Y216502D01*
X378393Y216460D01*
X378344Y216533D01*
X377623Y217015D01*
X376772Y217184D01*
X375921Y217015D01*
X375199Y216533D01*
X374717Y215812D01*
X374548Y214961D01*
X374717Y214110D01*
X375199Y213388D01*
X375921Y212906D01*
X376772Y212737D01*
X377623Y212906D01*
X378344Y213388D01*
X378826Y214110D01*
X378980Y214885D01*
X379215Y214994D01*
X379481Y215036D01*
X379530Y214963D01*
X380251Y214481D01*
X381102Y214312D01*
X381953Y214481D01*
X382675Y214963D01*
X383157Y215684D01*
X383326Y216535D01*
X383157Y217387D01*
X382675Y218108D01*
X381953Y218590D01*
X381102Y218759D01*
D02*
G37*
G36*
X463386Y113826D02*
X462148Y113704D01*
X460957Y113343D01*
X459861Y112756D01*
X458899Y111967D01*
X458110Y111006D01*
X457523Y109909D01*
X457162Y108718D01*
X457040Y107480D01*
X457162Y106242D01*
X457523Y105052D01*
X458110Y103955D01*
X458899Y102993D01*
X459861Y102204D01*
X460957Y101618D01*
X462148Y101257D01*
X463386Y101135D01*
X464624Y101257D01*
X465814Y101618D01*
X466911Y102204D01*
X467873Y102993D01*
X468662Y103955D01*
X469248Y105052D01*
X469609Y106242D01*
X469731Y107480D01*
X469609Y108718D01*
X469248Y109909D01*
X468662Y111006D01*
X467873Y111967D01*
X466911Y112756D01*
X465814Y113343D01*
X464624Y113704D01*
X463386Y113826D01*
D02*
G37*
G36*
X469291Y88448D02*
X468364Y88264D01*
X467577Y87738D01*
X467051Y86952D01*
X466867Y86024D01*
X467051Y85096D01*
X467577Y84309D01*
X468364Y83784D01*
X469291Y83599D01*
X470219Y83784D01*
X471006Y84309D01*
X471531Y85096D01*
X471716Y86024D01*
X471531Y86952D01*
X471006Y87738D01*
X470219Y88264D01*
X469291Y88448D01*
D02*
G37*
G36*
X460236Y84901D02*
X459385Y84732D01*
X458664Y84250D01*
X458182Y83528D01*
X458012Y82677D01*
X458182Y81826D01*
X458664Y81105D01*
X459385Y80623D01*
X460236Y80453D01*
X461087Y80623D01*
X461809Y81105D01*
X462291Y81826D01*
X462460Y82677D01*
X462291Y83528D01*
X461809Y84250D01*
X461087Y84732D01*
X460236Y84901D01*
D02*
G37*
G36*
X474016Y84507D02*
X473165Y84338D01*
X472443Y83856D01*
X471961Y83135D01*
X471792Y82284D01*
X471961Y81432D01*
X472443Y80711D01*
X473165Y80229D01*
X474016Y80060D01*
X474867Y80229D01*
X475588Y80711D01*
X476070Y81432D01*
X476240Y82284D01*
X476070Y83135D01*
X475588Y83856D01*
X474867Y84338D01*
X474016Y84507D01*
D02*
G37*
G36*
X477534Y64429D02*
X476683Y64259D01*
X475961Y63777D01*
X475479Y63056D01*
X475310Y62205D01*
X475479Y61354D01*
X475961Y60632D01*
X476683Y60150D01*
X477534Y59981D01*
X478385Y60150D01*
X479106Y60632D01*
X479589Y61354D01*
X479758Y62205D01*
X479589Y63056D01*
X479106Y63777D01*
X478385Y64259D01*
X477534Y64429D01*
D02*
G37*
G36*
X444095Y21909D02*
X443244Y21740D01*
X442522Y21258D01*
X442040Y20536D01*
X441871Y19685D01*
X442040Y18834D01*
X442522Y18113D01*
X443244Y17630D01*
X444095Y17461D01*
X444945Y17630D01*
X445667Y18113D01*
X446149Y18834D01*
X446318Y19685D01*
X446149Y20536D01*
X445667Y21258D01*
X444945Y21740D01*
X444095Y21909D01*
D02*
G37*
%LPD*%
D11*
X149681Y36689D02*
X318827D01*
X138583Y25591D02*
X149681Y36689D01*
X318827D02*
X322296Y40157D01*
X261417Y44488D02*
X337795D01*
X182677Y53150D02*
Y172047D01*
X153940Y52365D02*
Y142511D01*
X153943Y142514D01*
X298307Y347126D02*
X331772D01*
X292858Y341677D02*
X298307Y347126D01*
X292858Y227323D02*
Y341677D01*
X320496Y264984D02*
X334252Y278740D01*
X320496Y220131D02*
Y264984D01*
Y220131D02*
X340879Y199748D01*
X318898Y279528D02*
X328740Y289370D01*
X318898Y219469D02*
Y279528D01*
Y219469D02*
X340217Y198150D01*
X338236Y179480D02*
X470716D01*
X290073Y227643D02*
X338236Y179480D01*
X290073Y227643D02*
Y236302D01*
X292858Y227323D02*
X339102Y181079D01*
X474236D01*
X339764Y182677D02*
X477559D01*
X295406Y227035D02*
X339764Y182677D01*
X295406Y227035D02*
Y338961D01*
X319291Y317322D02*
Y338188D01*
X309334Y307365D02*
X319291Y317322D01*
X309334Y217730D02*
Y307365D01*
X335039Y330315D02*
Y338189D01*
X311417Y306693D02*
X335039Y330315D01*
X311417Y217907D02*
Y306693D01*
X307331Y300543D02*
X307598Y217205D01*
X298425Y309449D02*
X307331Y300543D01*
X298425Y309449D02*
Y338189D01*
X393776Y333539D02*
X399549Y339313D01*
X316930Y303938D02*
X346532Y333539D01*
X316910Y219195D02*
X316930Y303938D01*
X316910Y219195D02*
X339555Y196551D01*
X314961Y304724D02*
X346063Y335827D01*
X314961Y235990D02*
Y304724D01*
Y235990D02*
X315016Y218830D01*
X338893Y194953D01*
X307598Y217205D02*
X338189Y186614D01*
X309334Y217730D02*
X336906Y190157D01*
X289763Y333071D02*
Y342913D01*
X532283Y259639D02*
Y324803D01*
Y259639D02*
X552827Y239096D01*
X535457Y260653D02*
Y284669D01*
X535433Y260630D02*
X535457Y260653D01*
Y284669D02*
X546850Y296063D01*
X428740Y200787D02*
Y201181D01*
X436614Y209055D01*
Y315748D01*
X438583Y205512D02*
Y322441D01*
X425197Y195669D02*
X454724D01*
X373477Y247390D02*
X425197Y195669D01*
X350540Y247390D02*
X373477D01*
X425197Y191732D02*
X441732D01*
X381102Y235827D02*
X425197Y191732D01*
X348819Y235827D02*
X381102D01*
X424803Y188583D02*
X459449D01*
X407854Y205532D02*
X424803Y188583D01*
X352735Y205532D02*
X407854D01*
X395276Y191732D02*
X395669D01*
X388858Y198150D02*
X395276Y191732D01*
X405717Y202945D02*
X405811Y202850D01*
X350847Y202945D02*
X405717D01*
X344488Y213779D02*
X352735Y205532D01*
X339370Y214422D02*
X350847Y202945D01*
X340217Y198150D02*
X388858D01*
X395027Y195276D02*
X405905D01*
X390555Y199748D02*
X395027Y195276D01*
X340879Y199748D02*
X390555D01*
X392748Y201346D02*
X395669Y198425D01*
X348654Y201346D02*
X392748D01*
X378252Y196551D02*
X388189Y186614D01*
X339555Y196551D02*
X378252D01*
X518059Y70131D02*
X519291Y68898D01*
X518059Y70131D02*
Y119037D01*
X519658Y76799D02*
X521654Y74803D01*
X519658Y76799D02*
Y119700D01*
X521256Y83469D02*
X524803Y79921D01*
X521256Y83469D02*
Y120362D01*
X174409Y171260D02*
Y185039D01*
X317421Y48720D02*
X438091Y48720D01*
X314173Y51968D02*
X317421Y48720D01*
X515354Y24016D02*
X535039D01*
X512992D02*
X515354D01*
Y39370D01*
X503543Y24016D02*
X512992D01*
Y32283D01*
X501968Y53150D02*
X505118Y56299D01*
X501968Y38976D02*
Y53150D01*
X499213Y56693D02*
X502756Y60236D01*
X499213Y32677D02*
Y56693D01*
X559126Y29992D02*
Y132301D01*
X558693Y29559D02*
X559126Y29992D01*
X303543Y426378D02*
X389764D01*
X295276Y418110D02*
X303543Y426378D01*
X265748Y418110D02*
X295276D01*
X299411Y426772D02*
X301380Y428740D01*
X265748Y426772D02*
X299411D01*
X176969Y203937D02*
X177362Y204331D01*
X560472Y139528D02*
Y155118D01*
Y139528D02*
X571260Y128740D01*
X509500Y60681D02*
Y120815D01*
X505118Y56299D02*
X509500Y60681D01*
X491339Y138976D02*
X509500Y120815D01*
X358268Y174803D02*
X403937D01*
X289763Y333071D02*
X290073Y236302D01*
X286614Y365748D02*
Y388583D01*
X281496Y393701D02*
X286614Y388583D01*
Y365748D02*
X287402Y364961D01*
X281693Y384449D02*
X281890Y384252D01*
X265748Y384449D02*
X281693D01*
X338893Y194953D02*
X375126D01*
X371606Y193354D02*
X378346Y186614D01*
X338230Y193354D02*
X371606D01*
X368082Y191756D02*
X373223Y186614D01*
X337568Y191756D02*
X368082D01*
X364567Y190157D02*
X368110Y186614D01*
X336906Y190157D02*
X364567D01*
X311417Y217907D02*
X337568Y191756D01*
X313417Y218167D02*
X338230Y193354D01*
X375126Y194953D02*
X383465Y186614D01*
X339370Y210630D02*
X348654Y201346D01*
X223622Y286075D02*
X241339Y303792D01*
Y307874D01*
X223622Y98425D02*
Y286075D01*
X219540Y380315D02*
X243949Y355906D01*
X218110Y380315D02*
X219540D01*
X243949Y355906D02*
X362205D01*
X231095Y283858D02*
X240551D01*
X226748Y279511D02*
X231095Y283858D01*
X226748Y99630D02*
Y279511D01*
X231496Y176772D02*
X236221Y181496D01*
X231496Y104129D02*
Y176772D01*
Y104129D02*
X235625Y100000D01*
X241339Y114567D02*
X253937Y101969D01*
X241339Y114567D02*
Y129921D01*
X253937Y101969D02*
X337795D01*
X240945Y191732D02*
Y198031D01*
X229134Y179921D02*
X240945Y191732D01*
X229134Y101181D02*
Y179921D01*
Y101181D02*
X232677Y97638D01*
X235625Y100000D02*
X338976D01*
X210236Y71260D02*
Y80709D01*
X214961Y85433D01*
X217323D01*
X366535D01*
X217323D02*
Y190945D01*
X225984Y80709D02*
X345276D01*
X145669Y371276D02*
X179528Y405134D01*
X145669Y213779D02*
Y371276D01*
Y213779D02*
X174409Y185039D01*
X162598Y203937D02*
X176969D01*
X346457Y4331D02*
X410630D01*
X417717D02*
X447180D01*
X428740Y7087D02*
X441796D01*
X422047D02*
X428740D01*
X349606D02*
X422047D01*
X447180Y4331D02*
X477091Y34241D01*
X426772Y23622D02*
X433465Y30315D01*
X430709Y81248D02*
Y100787D01*
Y103543D01*
X428615Y114984D02*
X444441Y99158D01*
X350811Y114984D02*
X428615D01*
X444441Y71213D02*
Y99158D01*
X424803Y109449D02*
X430709Y103543D01*
X424264Y74803D02*
X430709Y81248D01*
X425591Y111417D02*
X434646Y102362D01*
Y74803D02*
Y102362D01*
X431363Y71520D02*
X434646Y74803D01*
X423094Y71520D02*
X431363D01*
X440158Y96850D02*
Y100394D01*
Y90551D02*
Y96850D01*
Y90551D02*
X442520Y88189D01*
Y71552D02*
Y88189D01*
X438684Y67716D02*
X442520Y71552D01*
X427165Y113386D02*
X440158Y100394D01*
X352362Y113386D02*
X427165D01*
X422834Y67716D02*
X438684D01*
X437402Y64173D02*
X444441Y71213D01*
X424016Y64173D02*
X437402D01*
X427165Y124409D02*
X446039Y105535D01*
Y70055D02*
Y105535D01*
X435433Y59449D02*
X446039Y70055D01*
X408661Y59449D02*
X435433D01*
X441732Y128740D02*
X447638Y122835D01*
Y58268D02*
Y122835D01*
X438091Y48720D02*
X447638Y58268D01*
X552827Y138600D02*
X559126Y132301D01*
X557528Y34693D02*
Y131639D01*
X554954Y32119D02*
X557528Y34693D01*
X551228Y137938D02*
X557528Y131639D01*
X555929Y39000D02*
Y130977D01*
X551729Y34800D02*
X555929Y39000D01*
X549630Y137276D02*
X555929Y130977D01*
X548032Y136614D02*
X554331Y130315D01*
Y43307D02*
Y130315D01*
X548425Y37402D02*
X554331Y43307D01*
X549630Y137276D02*
Y236052D01*
X496063Y289618D02*
X549630Y236052D01*
X496063Y289618D02*
Y291339D01*
X538706Y155905D02*
Y235704D01*
X500000Y274410D02*
X538706Y235704D01*
X496850Y274410D02*
X500000D01*
X488976Y289122D02*
X548032Y230067D01*
X488976Y289122D02*
Y305512D01*
X548032Y136614D02*
Y230067D01*
X555118Y298819D02*
Y335039D01*
X540158Y283858D02*
X555118Y298819D01*
X540158Y263386D02*
Y283858D01*
X567323Y347244D02*
Y356299D01*
X555118Y335039D02*
X567323Y347244D01*
X552827Y138600D02*
Y239096D01*
X551228Y137938D02*
Y238434D01*
X527164Y262498D02*
X551228Y238434D01*
X527164Y262498D02*
Y329527D01*
X477165Y263925D02*
X487650Y274410D01*
X496850D01*
X477165Y245276D02*
Y263925D01*
X473327Y244682D02*
Y285531D01*
X471728Y244020D02*
Y290626D01*
X470130Y234151D02*
Y298870D01*
Y234151D02*
X472047Y232233D01*
X470130Y298870D02*
X471260Y300000D01*
X471728Y244020D02*
X485752Y229996D01*
X471728Y290626D02*
X477559Y296457D01*
X481890D01*
X473327Y244682D02*
X487350Y230658D01*
X473327Y285531D02*
X481102Y293307D01*
X482532D01*
X485827Y296602D01*
X492520Y289370D02*
X504724Y277165D01*
X492520Y289370D02*
Y301969D01*
X546850Y296063D02*
Y315354D01*
X505512Y309842D02*
Y329528D01*
X497638Y301969D02*
X505512Y309842D01*
X335039Y275736D02*
X338189Y278886D01*
Y283071D01*
X492520Y301969D02*
X497638D01*
X485827Y296602D02*
Y319685D01*
X492520Y326378D01*
X495276Y333858D02*
X497638Y336221D01*
X501669Y215055D02*
X508268Y221654D01*
X501669Y139948D02*
Y215055D01*
Y139948D02*
X521256Y120362D01*
X489764Y136221D02*
X507012Y118972D01*
Y64492D02*
Y118972D01*
X502756Y60236D02*
X507012Y64492D01*
X500071Y139286D02*
X519658Y119700D01*
X498472Y138624D02*
X518059Y119037D01*
X496874Y137962D02*
X516461Y118375D01*
Y83141D02*
Y118375D01*
X513779Y80460D02*
X516461Y83141D01*
X495276Y108268D02*
X504331D01*
X500071Y217787D02*
X504331Y222047D01*
X500071Y139286D02*
Y217787D01*
X512697Y85335D02*
X513779Y84252D01*
X512697Y85335D02*
Y119879D01*
X495276Y137300D02*
X512697Y119879D01*
X508661Y53937D02*
X531496Y76772D01*
X500394Y220472D02*
Y222047D01*
X498472Y218551D02*
X500394Y220472D01*
X498472Y138624D02*
Y218551D01*
X496874Y137962D02*
Y255095D01*
X492520Y259449D02*
X496874Y255095D01*
X486760Y261417D02*
X495276Y252901D01*
Y137300D02*
Y252901D01*
X519290Y68897D02*
X519291Y68898D01*
X513779Y79921D02*
Y80460D01*
X485827Y261417D02*
X486760D01*
X477953Y275197D02*
Y282283D01*
X476772Y283465D02*
X477953Y282283D01*
X454517Y322835D02*
X474670Y302681D01*
X446063Y322835D02*
X454517D01*
X474670Y297898D02*
Y302681D01*
X474409Y297638D02*
X474670Y297898D01*
X463386Y233858D02*
Y234252D01*
X453543Y244094D02*
X463386Y234252D01*
X453543Y244094D02*
Y303937D01*
X487350Y206101D02*
Y230658D01*
X485752Y206764D02*
Y229996D01*
X468898Y214961D02*
X474016D01*
X447244Y236614D02*
X468898Y214961D01*
X447244Y236614D02*
Y302362D01*
X450394Y240158D02*
X468898Y221654D01*
X450394Y240158D02*
Y303543D01*
X445276Y312205D02*
X453543Y303937D01*
X444489Y305118D02*
X447244Y302362D01*
X442125Y305118D02*
X444489D01*
X441732Y312205D02*
X445276D01*
X445276Y308661D02*
X450394Y303543D01*
X441732Y308661D02*
X445276D01*
X339370Y214422D02*
Y220472D01*
X371654Y255906D02*
X432677D01*
X360909Y266651D02*
X371654Y255906D01*
X432677Y319685D02*
X436614Y315748D01*
X438583Y322441D02*
X442126Y325984D01*
X335039Y220472D02*
Y275736D01*
X313215Y281252D02*
X313417Y218167D01*
X338189Y186614D02*
X363386D01*
X352677Y266651D02*
X360909D01*
X340945Y285827D02*
X376378D01*
X338189Y283071D02*
X340945Y285827D01*
X376378D02*
X419685Y329134D01*
X393068Y337950D02*
X397638Y342520D01*
X392988Y337870D02*
X393068Y337950D01*
X376183Y337870D02*
X392988D01*
X372322Y341732D02*
X376183Y337870D01*
X355511Y341732D02*
X372322D01*
X328740Y289370D02*
X343307D01*
Y254623D02*
X350540Y247390D01*
X343307Y254623D02*
Y282283D01*
X348819Y306693D02*
X379134D01*
X336221Y294094D02*
X348819Y306693D01*
X579921Y369830D02*
Y385827D01*
X577217Y367126D02*
X579921Y369830D01*
X510039Y367126D02*
X577217D01*
X510039D02*
Y373278D01*
X500787Y357874D02*
X510039Y367126D01*
X532532Y332677D02*
X535039Y335185D01*
Y340158D01*
X512205Y332677D02*
X532532D01*
X500394Y357480D02*
X500787Y357874D01*
X456693Y357480D02*
X500394D01*
X448819Y349606D02*
X456693Y357480D01*
X410236Y349606D02*
X448819D01*
X368504D02*
X410236D01*
X362205Y355906D02*
X368504Y349606D01*
X394807Y397169D02*
Y421335D01*
X385827Y388189D02*
X394807Y397169D01*
X379921Y388189D02*
X385827D01*
X301380Y428740D02*
X390945D01*
X389764Y426378D02*
X394807Y421335D01*
X390945Y428740D02*
X396532Y423153D01*
Y385902D02*
Y423153D01*
X380315Y369685D02*
X396532Y385902D01*
X266142Y410630D02*
X279921D01*
X290945Y399606D01*
X266142Y401575D02*
X280315D01*
X286614Y395276D01*
X265748Y393701D02*
X281496D01*
X328740Y378077D02*
X332209Y381545D01*
X328740Y366929D02*
Y378077D01*
X346063Y335827D02*
X370472D01*
X371654Y337008D01*
X346105Y338976D02*
X362205D01*
X334881Y346444D02*
X369672D01*
X312599Y341732D02*
X355510D01*
X313215Y306086D02*
X346105Y338976D01*
X332882Y344445D02*
X334881Y346444D01*
X313215Y281252D02*
Y306086D01*
X312598Y341732D02*
X312599Y341732D01*
X355510D02*
X355510Y341732D01*
X355511Y341732D01*
X419685Y342520D02*
X427165Y335039D01*
X397638Y342520D02*
X419685D01*
X353618Y333539D02*
X393776D01*
X295406Y338961D02*
X300889Y344445D01*
X332882D01*
X353468Y333539D02*
X353543Y333465D01*
X346532Y333539D02*
X353468D01*
X332209Y381545D02*
Y393236D01*
X325839Y399606D02*
X332209Y393236D01*
X379134Y306693D02*
X410236Y337795D01*
X410630D01*
X419685Y329134D02*
X427165D01*
X290945Y399606D02*
X325839D01*
X286614Y395276D02*
X326378D01*
X329528Y392126D01*
X474606Y175591D02*
X474803D01*
X319291Y338188D02*
Y338976D01*
X337795Y101969D02*
X350811Y114984D01*
X299606Y129528D02*
X304724Y124409D01*
X427165D01*
X242126Y74016D02*
X338976D01*
X339370Y74410D01*
X427165Y329134D02*
Y335039D01*
X196457Y216535D02*
Y241732D01*
X187673Y207752D02*
X196457Y216535D01*
X174728Y207752D02*
X187673D01*
X174606Y207874D02*
X174728Y207752D01*
X153150Y213386D02*
X162598Y203937D01*
X153150Y213386D02*
Y240158D01*
X169685Y166535D02*
X174409Y171260D01*
X338976Y100000D02*
X352362Y113386D01*
X253937Y97638D02*
X255220D01*
X339370D02*
X353150Y111417D01*
X338875Y97638D02*
X339370D01*
X338851Y97614D02*
X338875Y97638D01*
X255243Y97614D02*
X338851D01*
X255220Y97638D02*
X255243Y97614D01*
X232677Y97638D02*
X253937Y97638D01*
X251969Y95669D02*
X251992Y95646D01*
X230709Y95669D02*
X251969D01*
X226748Y99630D02*
X230709Y95669D01*
X223622Y98425D02*
X229134Y92913D01*
X340158D01*
X220472Y95276D02*
X225197Y90551D01*
X374803Y90551D01*
X345276Y80709D02*
X392913D01*
X169685Y159843D02*
Y166535D01*
Y159843D02*
X174016Y155512D01*
X497638Y336221D02*
X531102D01*
X469291Y329528D02*
X505512D01*
X509055D01*
X512205Y332677D01*
X427165Y329134D02*
X468898D01*
X442126Y325984D02*
X462205D01*
X445669Y322835D02*
X446063D01*
X459449Y118504D02*
X474754D01*
Y118553D02*
Y132726D01*
X470716Y179480D02*
X474606Y175591D01*
X474236Y181079D02*
X479528Y175787D01*
X477559Y182677D02*
X484646Y175591D01*
X454724Y136221D02*
X489764D01*
X393218Y129045D02*
X395665Y126599D01*
X430881D01*
X474533Y132505D02*
X474754Y132726D01*
X429355Y132505D02*
X474533D01*
X429134Y132283D02*
X429355Y132505D01*
X361024Y132283D02*
X373228D01*
X383071D01*
X353150Y140157D02*
X361024Y132283D01*
X474754Y118553D02*
X474803Y118504D01*
X383071Y132283D02*
X428765D01*
X476378Y305118D02*
X478740Y307480D01*
X353150Y111417D02*
X425591D01*
X534252Y155905D02*
X538706D01*
Y27682D02*
Y155905D01*
X403937Y174803D02*
X449606D01*
X353150Y140157D02*
Y172835D01*
X355118Y174803D01*
X358268D01*
X478099Y196850D02*
X487350Y206101D01*
X469685Y196850D02*
X478099D01*
X479205Y200217D02*
X485752Y206764D01*
X464783Y200217D02*
X479205D01*
X528346Y139764D02*
X531496Y136614D01*
Y76772D02*
Y136614D01*
X363386Y136221D02*
X409055D01*
X358268Y138976D02*
X403937D01*
X449606D01*
X409055Y136221D02*
X454724D01*
X478740Y307480D02*
Y318898D01*
X490945Y36614D02*
X503543Y24016D01*
X490945Y36614D02*
Y108268D01*
X544882Y29033D02*
Y128740D01*
X535534Y19685D02*
X544882Y29033D01*
X468504Y19685D02*
X535534D01*
X490945Y108268D02*
X495276D01*
X480709Y118504D02*
X490945Y108268D01*
X474803Y118504D02*
X480709D01*
X353937Y109449D02*
X424803D01*
X425591Y79921D02*
Y105905D01*
X424016Y107480D02*
X425591Y105905D01*
X354724Y107480D02*
X424016D01*
X422834Y71260D02*
X423094Y71520D01*
X424015Y74803D02*
X424264D01*
X424016Y78347D02*
X425591Y79921D01*
X430881Y126599D02*
X438976Y118504D01*
X364173Y97244D02*
X400000D01*
X406299Y90945D01*
X388189Y24016D02*
X405905D01*
X362851D02*
X388189D01*
X48819Y52362D02*
X48819Y52362D01*
X5906Y52362D02*
X48819D01*
X5906Y52362D02*
X5906Y52362D01*
X14567Y24803D02*
X41535D01*
X177559Y13780D02*
X188189D01*
X322441Y10236D02*
X335039D01*
X318898Y13780D02*
X322441Y10236D01*
X322441Y14961D02*
X333858D01*
X335039Y13780D01*
X309449Y18898D02*
X326772D01*
X343701D02*
Y24409D01*
X326772Y18898D02*
X343701D01*
X326772D02*
X328665Y20791D01*
Y28421D01*
X327559Y29528D02*
X328665Y28421D01*
X327559Y29528D02*
Y35827D01*
X72416Y8268D02*
Y19266D01*
X343701Y18898D02*
X357733D01*
X305118Y4331D02*
X346457D01*
X307480Y7087D02*
X349606D01*
X353937Y36220D02*
X379921D01*
X357733Y18898D02*
X362851Y24016D01*
X405905D02*
X406299Y23622D01*
X535039Y24016D02*
X538706Y27682D01*
X412992Y34252D02*
X450394D01*
X462598Y46457D01*
X399213Y41732D02*
X446456D01*
X386614Y37795D02*
X446457D01*
X476772Y68110D01*
X398425Y42520D02*
X399213Y41732D01*
X446456D02*
X476771Y72047D01*
X398425Y42520D02*
Y44488D01*
X404331Y45276D02*
X446208D01*
X476522Y75590D01*
X340134Y95646D02*
X353937Y109449D01*
X340158Y92913D02*
X354724Y107480D01*
X453150Y112205D02*
X459449Y118504D01*
X453150Y92913D02*
Y112205D01*
Y68110D02*
Y92913D01*
X441796Y7087D02*
X455969Y21260D01*
Y26816D01*
X474409Y45256D01*
Y51181D01*
X449606Y138976D02*
X491339D01*
X477091Y34241D02*
Y53617D01*
X474802Y55905D02*
X477091Y53617D01*
X406299Y23622D02*
X426772D01*
X392913Y80709D02*
X401575Y89370D01*
X284646Y29921D02*
X307480Y7087D01*
X282677Y26772D02*
X305118Y4331D01*
X127953Y25591D02*
X138583D01*
X322296Y40157D02*
X360236D01*
X220472Y294882D02*
X220472Y95276D01*
X373228Y103150D02*
X420472D01*
X370472Y100394D02*
X373228Y103150D01*
X251992Y95646D02*
X340134D01*
X406299Y64567D02*
Y90945D01*
X420472Y94882D02*
Y97638D01*
X418110Y100000D02*
X420472Y97638D01*
X380315Y100000D02*
X418110D01*
X174016Y44488D02*
Y155512D01*
X264567Y49606D02*
X274016D01*
X149213Y152362D02*
X150394Y153543D01*
X149213Y57480D02*
Y152362D01*
X144095Y52362D02*
X149213Y57480D01*
X111417Y52362D02*
X144095D01*
X105905Y46850D02*
X111417Y52362D01*
X105905Y32677D02*
Y46850D01*
X72416Y19266D02*
X72441Y19291D01*
X366142Y66778D02*
X367717D01*
X364961D02*
X366142D01*
X367717D02*
X388334Y66555D01*
X374803Y71503D02*
X385039D01*
D126*
X553937Y416551D02*
D03*
X511811D02*
D03*
X330709Y416946D02*
D03*
X342520D02*
D03*
X389370D02*
D03*
X377559D02*
D03*
X365748D02*
D03*
X354331D02*
D03*
X438189Y416552D02*
D03*
X450000D02*
D03*
X461811D02*
D03*
X473622D02*
D03*
X572284Y225984D02*
D03*
Y214173D02*
D03*
Y178740D02*
D03*
Y167323D02*
D03*
Y155512D02*
D03*
Y190551D02*
D03*
Y202362D02*
D03*
X572835Y272047D02*
D03*
X572284Y329528D02*
D03*
D127*
X25591Y391339D02*
D03*
Y377559D02*
D03*
Y141732D02*
D03*
X179528Y405134D02*
D03*
X425197Y275984D02*
D03*
Y224410D02*
D03*
D128*
X25591Y363779D02*
D03*
X425197Y287795D02*
D03*
Y236221D02*
D03*
D130*
X96546Y423228D02*
D03*
D132*
X47087Y182598D02*
D03*
X37087D02*
D03*
X27087D02*
D03*
X17087D02*
D03*
X47087Y192598D02*
D03*
X37087D02*
D03*
X27087D02*
D03*
X17087D02*
D03*
X47087Y202598D02*
D03*
X37087D02*
D03*
X27087D02*
D03*
X17087D02*
D03*
X47087Y222598D02*
D03*
X37087D02*
D03*
X27087D02*
D03*
X17087D02*
D03*
X57087Y182598D02*
D03*
Y192598D02*
D03*
Y202598D02*
D03*
Y222598D02*
D03*
X17087Y212598D02*
D03*
X27087D02*
D03*
X37087D02*
D03*
X57087D02*
D03*
X47087D02*
D03*
D134*
X560472Y155118D02*
D03*
D137*
X182677Y53150D02*
D03*
Y172047D02*
D03*
X153940Y52365D02*
D03*
X289763Y342913D02*
D03*
X532283Y324803D02*
D03*
X335039Y338189D02*
D03*
X428740Y200787D02*
D03*
X438583Y205512D02*
D03*
X395669Y191732D02*
D03*
X405811Y202850D02*
D03*
X395669Y198425D02*
D03*
X405905Y195276D02*
D03*
X521654Y74803D02*
D03*
X524803Y79921D02*
D03*
X314173Y51968D02*
D03*
X501968Y38976D02*
D03*
X499213Y32677D02*
D03*
X512992Y32283D02*
D03*
X515354Y39370D02*
D03*
X489764Y351575D02*
D03*
X408661Y328346D02*
D03*
X571260Y128740D02*
D03*
X229134Y24409D02*
D03*
X299606Y365748D02*
D03*
X295669Y370472D02*
D03*
X305512Y324410D02*
D03*
X286614Y377165D02*
D03*
X281890Y384252D02*
D03*
X367323Y208268D02*
D03*
X240551Y283858D02*
D03*
X241339Y129921D02*
D03*
Y307874D02*
D03*
X240945Y198031D02*
D03*
X236221Y181496D02*
D03*
X225984Y80709D02*
D03*
X210236Y71260D02*
D03*
X177362Y204331D02*
D03*
X433465Y30315D02*
D03*
X430709Y100787D02*
D03*
X440158Y96850D02*
D03*
X574016Y119291D02*
D03*
X525984Y172441D02*
D03*
X517717Y272458D02*
D03*
X517717Y250787D02*
D03*
X540158Y263386D02*
D03*
X535433Y260630D02*
D03*
X578346Y308661D02*
D03*
X496850Y274410D02*
D03*
X504724Y277165D02*
D03*
X546850Y315354D02*
D03*
X532283Y336221D02*
D03*
X527164Y329527D02*
D03*
X499606Y322835D02*
D03*
X496063Y291339D02*
D03*
X491339Y281890D02*
D03*
X492520Y301969D02*
D03*
X488976Y305512D02*
D03*
X481890Y296457D02*
D03*
X495276Y333858D02*
D03*
X492520Y326378D02*
D03*
X508268Y221654D02*
D03*
X504331Y222047D02*
D03*
X500394D02*
D03*
X513779Y79921D02*
D03*
Y84252D02*
D03*
X477953Y275197D02*
D03*
X476772Y283465D02*
D03*
X462992Y290945D02*
D03*
X477559Y268110D02*
D03*
X477165Y245276D02*
D03*
X463386Y233858D02*
D03*
X471260Y232233D02*
D03*
X474016Y214961D02*
D03*
X468898Y221654D02*
D03*
X362205Y303543D02*
D03*
X442125Y305118D02*
D03*
X441732Y308661D02*
D03*
Y312205D02*
D03*
X432677Y255906D02*
D03*
X344488Y213779D02*
D03*
X339370Y220472D02*
D03*
X335039D02*
D03*
X339370Y210630D02*
D03*
X356693Y232283D02*
D03*
X348819Y235827D02*
D03*
X338189Y283071D02*
D03*
X334252Y278740D02*
D03*
X343307Y289370D02*
D03*
Y282283D02*
D03*
X336221Y294094D02*
D03*
X579921Y385827D02*
D03*
X510039Y373278D02*
D03*
X560236Y373228D02*
D03*
X576378Y370079D02*
D03*
X567323Y356299D02*
D03*
X522490Y361447D02*
D03*
X520866Y341732D02*
D03*
X535039Y340158D02*
D03*
X562205Y352362D02*
D03*
X500787Y357874D02*
D03*
X456693Y357480D02*
D03*
X410236Y349606D02*
D03*
X218110Y380315D02*
D03*
X411024Y382677D02*
D03*
X416142Y354724D02*
D03*
X446063Y352362D02*
D03*
X265748Y426772D02*
D03*
X379921Y388189D02*
D03*
X265748Y418110D02*
D03*
X380315Y369685D02*
D03*
X266142Y410630D02*
D03*
Y401575D02*
D03*
X265748Y393701D02*
D03*
Y384449D02*
D03*
X371260Y357480D02*
D03*
X328740Y366929D02*
D03*
X371654Y337008D02*
D03*
X362205Y338976D02*
D03*
X393068Y337950D02*
D03*
X369672Y346444D02*
D03*
X383858Y340551D02*
D03*
X399491Y339370D02*
D03*
X332677Y377953D02*
D03*
X338976Y352362D02*
D03*
X287402Y364780D02*
D03*
X346456Y294881D02*
D03*
X410236Y337795D02*
D03*
X458661Y333465D02*
D03*
X301969Y389370D02*
D03*
X298425Y360056D02*
D03*
X327953Y337795D02*
D03*
X384252Y324803D02*
D03*
X362205Y324016D02*
D03*
X345276Y321260D02*
D03*
X329528Y392126D02*
D03*
X355511Y341732D02*
D03*
X331772Y347126D02*
D03*
X319291Y338976D02*
D03*
X312598Y341732D02*
D03*
X299606Y129528D02*
D03*
X242126Y74016D02*
D03*
X301181Y333465D02*
D03*
X174606Y207874D02*
D03*
X196457Y241732D02*
D03*
X153150Y240158D02*
D03*
X513487Y233465D02*
D03*
X433858Y324803D02*
D03*
X432677Y319685D02*
D03*
X427165Y329134D02*
D03*
X462205Y325984D02*
D03*
X446063Y322835D02*
D03*
X454724Y195669D02*
D03*
X459449Y188583D02*
D03*
X441732Y191732D02*
D03*
X387385Y241732D02*
D03*
X346063Y226772D02*
D03*
X383071Y267717D02*
D03*
X352677Y266651D02*
D03*
X353071Y270587D02*
D03*
X373223Y186614D02*
D03*
X378346D02*
D03*
X368110D02*
D03*
X464783Y200217D02*
D03*
X388189Y186614D02*
D03*
X363386D02*
D03*
X469685Y196850D02*
D03*
X383465Y186614D02*
D03*
X474754Y132726D02*
D03*
X441732Y128740D02*
D03*
X393218Y129045D02*
D03*
X373228Y132283D02*
D03*
X429134D02*
D03*
X383071D02*
D03*
X471260Y300000D02*
D03*
X476378Y305118D02*
D03*
X298425Y338189D02*
D03*
X345276Y80709D02*
D03*
X337795Y44488D02*
D03*
X534252Y155905D02*
D03*
X484646Y175591D02*
D03*
X474606D02*
D03*
X479724D02*
D03*
X449606Y174803D02*
D03*
X528346Y139764D02*
D03*
X358268Y174803D02*
D03*
X403937D02*
D03*
X446063Y150394D02*
D03*
X417717Y333465D02*
D03*
X478740Y318898D02*
D03*
X468898Y329134D02*
D03*
X488189Y339764D02*
D03*
X442126Y317323D02*
D03*
X492520Y259449D02*
D03*
X485827Y261417D02*
D03*
X475591Y207711D02*
D03*
Y222064D02*
D03*
X473622Y228166D02*
D03*
X288661Y348819D02*
D03*
X558693Y29559D02*
D03*
X554954Y32119D02*
D03*
X551729Y34800D02*
D03*
X548425Y37402D02*
D03*
X408661Y59449D02*
D03*
X437402Y85433D02*
D03*
X424016Y64173D02*
D03*
X422834Y67716D02*
D03*
Y71260D02*
D03*
X424015Y74803D02*
D03*
X424016Y78347D02*
D03*
X438976Y118504D02*
D03*
X366929Y18898D02*
D03*
X295276Y40551D02*
D03*
X5906Y52362D02*
D03*
X42126Y24803D02*
D03*
X166240Y23327D02*
D03*
X164173Y14190D02*
D03*
X146457Y25984D02*
D03*
X219291Y17323D02*
D03*
X188189Y13780D02*
D03*
X318110Y40945D02*
D03*
X318898Y13780D02*
D03*
X322441Y14961D02*
D03*
X335039Y13780D02*
D03*
X309449Y18898D02*
D03*
X325984Y25984D02*
D03*
X327559Y35827D02*
D03*
X343701Y24409D02*
D03*
X346457Y4331D02*
D03*
X349606Y7087D02*
D03*
X353937Y36220D02*
D03*
X356693Y24409D02*
D03*
X388189Y24016D02*
D03*
X542520Y332677D02*
D03*
X544882Y128740D02*
D03*
X550000Y124803D02*
D03*
X523605Y325984D02*
D03*
X468504Y19685D02*
D03*
X248819Y32283D02*
D03*
X273622Y39370D02*
D03*
X286614D02*
D03*
X261417Y12205D02*
D03*
X368110Y150394D02*
D03*
X459739Y150290D02*
D03*
X489764Y150394D02*
D03*
X414075Y150690D02*
D03*
X398322Y150290D02*
D03*
X378346Y150394D02*
D03*
X418504Y119685D02*
D03*
X392520Y118898D02*
D03*
X363779Y118504D02*
D03*
X397638Y93701D02*
D03*
X161417Y120079D02*
D03*
X74016Y77165D02*
D03*
X98032Y39370D02*
D03*
X82677Y40157D02*
D03*
X45472Y31299D02*
D03*
X45079Y41535D02*
D03*
X67323Y47638D02*
D03*
X142126Y39370D02*
D03*
X210762Y14075D02*
D03*
X502756Y60236D02*
D03*
X505118Y56299D02*
D03*
X508661Y53937D02*
D03*
X495276Y108268D02*
D03*
X504331D02*
D03*
X519290Y68897D02*
D03*
X453150Y92913D02*
D03*
Y68110D02*
D03*
X428740Y7087D02*
D03*
X422047D02*
D03*
X417717Y4331D02*
D03*
X410630D02*
D03*
X424409Y51968D02*
D03*
X335039Y10236D02*
D03*
X409055Y136221D02*
D03*
X363386D02*
D03*
X403937Y138976D02*
D03*
X358268D02*
D03*
X476772Y68110D02*
D03*
X482283Y83858D02*
D03*
X454724Y136221D02*
D03*
X449606Y138976D02*
D03*
X476771Y76378D02*
D03*
Y72047D02*
D03*
X535950Y146169D02*
D03*
X474409Y51181D02*
D03*
Y297638D02*
D03*
X474802Y55905D02*
D03*
X365748Y61417D02*
D03*
X342520Y53166D02*
D03*
X462598Y40551D02*
D03*
X406299Y23622D02*
D03*
X379921Y36220D02*
D03*
X282677Y26772D02*
D03*
X284646Y29921D02*
D03*
X277559Y18898D02*
D03*
X72441Y8268D02*
D03*
X360236Y40157D02*
D03*
X169685Y159843D02*
D03*
X174409Y178346D02*
D03*
X179958Y178383D02*
D03*
X339370Y74410D02*
D03*
X217323Y190945D02*
D03*
X420472Y94882D02*
D03*
X370472Y100394D02*
D03*
X380315Y100000D02*
D03*
X401575Y89370D02*
D03*
X406299Y64567D02*
D03*
X420472Y103150D02*
D03*
X374803Y90551D02*
D03*
X220472Y294882D02*
D03*
X366535Y85433D02*
D03*
X386614Y37795D02*
D03*
X412992Y34252D02*
D03*
X462598Y46457D02*
D03*
X404331Y45276D02*
D03*
X398425Y44488D02*
D03*
X174016D02*
D03*
X261417D02*
D03*
X274016Y49606D02*
D03*
X264567D02*
D03*
X177559Y13780D02*
D03*
X153943Y142514D02*
D03*
X164222Y161762D02*
D03*
X72441Y19291D02*
D03*
X117716Y24128D02*
D03*
X380642Y18504D02*
D03*
X127953Y25591D02*
D03*
X14567Y24803D02*
D03*
X105905Y32677D02*
D03*
X150394Y153543D02*
D03*
X48819Y52362D02*
D03*
X194488Y24409D02*
D03*
X364173Y97244D02*
D03*
X172244Y219685D02*
D03*
X180118D02*
D03*
X366142Y66778D02*
D03*
X375591Y59298D02*
D03*
X374803Y52999D02*
D03*
X388334Y66555D02*
D03*
X385039Y71503D02*
D03*
X374803D02*
D03*
M02*
