G04 Layer_Color=8388736*
%FSLAX25Y25*%
%MOIN*%
G70*
G01*
G75*
%ADD58R,0.06312X0.05524*%
%ADD59R,0.04143X0.04537*%
%ADD60R,0.07800X0.09300*%
%ADD61R,0.03950X0.03950*%
%ADD62R,0.08674X0.03556*%
G04:AMPARAMS|DCode=63|XSize=35.56mil|YSize=86.74mil|CornerRadius=10.89mil|HoleSize=0mil|Usage=FLASHONLY|Rotation=90.000|XOffset=0mil|YOffset=0mil|HoleType=Round|Shape=RoundedRectangle|*
%AMROUNDEDRECTD63*
21,1,0.03556,0.06496,0,0,90.0*
21,1,0.01378,0.08674,0,0,90.0*
1,1,0.02178,0.03248,0.00689*
1,1,0.02178,0.03248,-0.00689*
1,1,0.02178,-0.03248,-0.00689*
1,1,0.02178,-0.03248,0.00689*
%
%ADD63ROUNDEDRECTD63*%
%ADD64R,0.08674X0.05524*%
%ADD65R,0.04537X0.02962*%
%ADD66R,0.03162X0.04737*%
%ADD67R,0.02962X0.04537*%
%ADD68R,0.09068X0.13398*%
%ADD69R,0.09068X0.04343*%
%ADD70R,0.04343X0.03950*%
%ADD71R,0.04147X0.04147*%
%ADD72R,0.03950X0.04343*%
%ADD73R,0.04737X0.04737*%
%ADD74R,0.04737X0.04737*%
G04:AMPARAMS|DCode=75|XSize=47.37mil|YSize=98.16mil|CornerRadius=7.94mil|HoleSize=0mil|Usage=FLASHONLY|Rotation=180.000|XOffset=0mil|YOffset=0mil|HoleType=Round|Shape=RoundedRectangle|*
%AMROUNDEDRECTD75*
21,1,0.04737,0.08228,0,0,180.0*
21,1,0.03150,0.09816,0,0,180.0*
1,1,0.01587,-0.01575,0.04114*
1,1,0.01587,0.01575,0.04114*
1,1,0.01587,0.01575,-0.04114*
1,1,0.01587,-0.01575,-0.04114*
%
%ADD75ROUNDEDRECTD75*%
%ADD76R,0.04737X0.09816*%
%ADD77O,0.06509X0.03162*%
%ADD78O,0.09461X0.03162*%
G04:AMPARAMS|DCode=79|XSize=59.18mil|YSize=67.06mil|CornerRadius=10.4mil|HoleSize=0mil|Usage=FLASHONLY|Rotation=90.000|XOffset=0mil|YOffset=0mil|HoleType=Round|Shape=RoundedRectangle|*
%AMROUNDEDRECTD79*
21,1,0.05918,0.04626,0,0,90.0*
21,1,0.03839,0.06706,0,0,90.0*
1,1,0.02080,0.02313,0.01919*
1,1,0.02080,0.02313,-0.01919*
1,1,0.02080,-0.02313,-0.01919*
1,1,0.02080,-0.02313,0.01919*
%
%ADD79ROUNDEDRECTD79*%
%ADD80R,0.06706X0.05918*%
G04:AMPARAMS|DCode=81|XSize=31.62mil|YSize=45.4mil|CornerRadius=6.95mil|HoleSize=0mil|Usage=FLASHONLY|Rotation=90.000|XOffset=0mil|YOffset=0mil|HoleType=Round|Shape=RoundedRectangle|*
%AMROUNDEDRECTD81*
21,1,0.03162,0.03150,0,0,90.0*
21,1,0.01772,0.04540,0,0,90.0*
1,1,0.01391,0.01575,0.00886*
1,1,0.01391,0.01575,-0.00886*
1,1,0.01391,-0.01575,-0.00886*
1,1,0.01391,-0.01575,0.00886*
%
%ADD81ROUNDEDRECTD81*%
%ADD82R,0.04540X0.03162*%
G04:AMPARAMS|DCode=83|XSize=59.18mil|YSize=86.74mil|CornerRadius=16.8mil|HoleSize=0mil|Usage=FLASHONLY|Rotation=270.000|XOffset=0mil|YOffset=0mil|HoleType=Round|Shape=RoundedRectangle|*
%AMROUNDEDRECTD83*
21,1,0.05918,0.05315,0,0,270.0*
21,1,0.02559,0.08674,0,0,270.0*
1,1,0.03359,-0.02658,-0.01280*
1,1,0.03359,-0.02658,0.01280*
1,1,0.03359,0.02658,0.01280*
1,1,0.03359,0.02658,-0.01280*
%
%ADD83ROUNDEDRECTD83*%
G04:AMPARAMS|DCode=84|XSize=59.18mil|YSize=59.18mil|CornerRadius=16.8mil|HoleSize=0mil|Usage=FLASHONLY|Rotation=270.000|XOffset=0mil|YOffset=0mil|HoleType=Round|Shape=RoundedRectangle|*
%AMROUNDEDRECTD84*
21,1,0.05918,0.02559,0,0,270.0*
21,1,0.02559,0.05918,0,0,270.0*
1,1,0.03359,-0.01280,-0.01280*
1,1,0.03359,-0.01280,0.01280*
1,1,0.03359,0.01280,0.01280*
1,1,0.03359,0.01280,-0.01280*
%
%ADD84ROUNDEDRECTD84*%
%ADD85R,0.05918X0.05918*%
%ADD86R,0.04537X0.04143*%
%ADD87R,0.04147X0.04147*%
%ADD88C,0.11430*%
%ADD89C,0.00800*%
%ADD90C,0.07099*%
%ADD91R,0.07099X0.07099*%
%ADD92R,0.07099X0.07099*%
D58*
X168189Y-15905D02*
D03*
Y-8819D02*
D03*
D59*
X110701Y-80165D02*
D03*
X116016D02*
D03*
X126594Y-125161D02*
D03*
X121280D02*
D03*
D60*
X70130Y-143390D02*
D03*
X54130D02*
D03*
X70201Y-157709D02*
D03*
X54201D02*
D03*
D61*
X178173Y-131512D02*
D03*
Y-125606D02*
D03*
X141575Y-185706D02*
D03*
Y-191612D02*
D03*
X136323Y-185706D02*
D03*
Y-191612D02*
D03*
D62*
X35748Y-108614D02*
D03*
X77071Y-108661D02*
D03*
D63*
X35748Y-87354D02*
D03*
X12126D02*
D03*
Y-108614D02*
D03*
X77071Y-87402D02*
D03*
X53449Y-108661D02*
D03*
Y-96063D02*
D03*
Y-78740D02*
D03*
D64*
X156370Y-21252D02*
D03*
Y-8653D02*
D03*
D65*
X176732Y-32362D02*
D03*
Y-36102D02*
D03*
Y-39843D02*
D03*
X187480D02*
D03*
Y-36102D02*
D03*
Y-32362D02*
D03*
D66*
X99110Y-101413D02*
D03*
X95370Y-91965D02*
D03*
X102850D02*
D03*
D67*
X56315Y-130402D02*
D03*
X60055D02*
D03*
X63795D02*
D03*
Y-119653D02*
D03*
X60055D02*
D03*
X56315D02*
D03*
D68*
X53752Y-180339D02*
D03*
D69*
X76980Y-171283D02*
D03*
Y-180339D02*
D03*
Y-189394D02*
D03*
D70*
X184716Y-125602D02*
D03*
Y-130720D02*
D03*
X94988Y-137161D02*
D03*
Y-132043D02*
D03*
X147390Y-185811D02*
D03*
Y-190929D02*
D03*
X130547Y-185811D02*
D03*
Y-190929D02*
D03*
D71*
X100760Y-57032D02*
D03*
X94657D02*
D03*
X94736Y-42768D02*
D03*
X100839D02*
D03*
X116016Y-88228D02*
D03*
X109913D02*
D03*
X96598Y-80453D02*
D03*
X102701D02*
D03*
X48000Y-45153D02*
D03*
X41898D02*
D03*
X47992Y-60429D02*
D03*
X41890D02*
D03*
X94646Y-49779D02*
D03*
X100748D02*
D03*
D72*
X178701Y-103925D02*
D03*
X173583D02*
D03*
X15405Y-60429D02*
D03*
X10287D02*
D03*
X15405Y-45154D02*
D03*
X10287D02*
D03*
X31429Y-45098D02*
D03*
X26311D02*
D03*
X31429Y-60374D02*
D03*
X26311D02*
D03*
D73*
X94374Y-33968D02*
D03*
X6055Y-24638D02*
D03*
X184850Y-58728D02*
D03*
X122461Y-88232D02*
D03*
X82071Y-65488D02*
D03*
X55264Y-35626D02*
D03*
X22059Y-73425D02*
D03*
X25189Y-115744D02*
D03*
D74*
X135409Y-145614D02*
D03*
D75*
X132449Y-36937D02*
D03*
X152449D02*
D03*
X162449Y-75953D02*
D03*
X132449D02*
D03*
D76*
X162449Y-36937D02*
D03*
D77*
X126835Y-167043D02*
D03*
Y-162043D02*
D03*
Y-157043D02*
D03*
Y-152043D02*
D03*
Y-147043D02*
D03*
Y-142043D02*
D03*
Y-137043D02*
D03*
Y-132043D02*
D03*
X105378Y-167043D02*
D03*
Y-162043D02*
D03*
Y-157043D02*
D03*
Y-152043D02*
D03*
Y-147043D02*
D03*
Y-142043D02*
D03*
Y-137043D02*
D03*
Y-132043D02*
D03*
D78*
X82284Y-58043D02*
D03*
Y-53043D02*
D03*
Y-48043D02*
D03*
Y-43043D02*
D03*
X63386Y-58043D02*
D03*
Y-53043D02*
D03*
Y-48043D02*
D03*
Y-43043D02*
D03*
D79*
X164732Y-93937D02*
D03*
Y-103937D02*
D03*
X128512D02*
D03*
D80*
Y-93937D02*
D03*
D81*
X102764Y-73047D02*
D03*
Y-65567D02*
D03*
X91937Y-73047D02*
D03*
Y-69307D02*
D03*
D82*
Y-65567D02*
D03*
D83*
X32819Y-8858D02*
D03*
D84*
X28291Y-30512D02*
D03*
D85*
X37347D02*
D03*
D86*
X82583Y-36646D02*
D03*
Y-31331D02*
D03*
X109866Y-65610D02*
D03*
Y-70925D02*
D03*
X142110Y-136209D02*
D03*
Y-130894D02*
D03*
D87*
X135181Y-136996D02*
D03*
Y-130894D02*
D03*
D88*
X187795Y-9055D02*
D03*
Y-187795D02*
D03*
X9055D02*
D03*
Y-9055D02*
D03*
D89*
X34902Y-127791D02*
D03*
Y-188815D02*
D03*
X161437Y-127791D02*
D03*
Y-188815D02*
D03*
X129347Y-14602D02*
D03*
X54543D02*
D03*
D90*
X32421Y-137634D02*
D03*
Y-151413D02*
D03*
Y-165193D02*
D03*
X163917Y-151413D02*
D03*
Y-165193D02*
D03*
Y-178972D02*
D03*
X119504Y-12122D02*
D03*
X105724D02*
D03*
X91945D02*
D03*
X78165D02*
D03*
D91*
X32421Y-178972D02*
D03*
X163917Y-137634D02*
D03*
D92*
X64386Y-12122D02*
D03*
M02*
