G04*
G04 #@! TF.GenerationSoftware,Altium Limited,Altium Designer,18.1.6 (161)*
G04*
G04 Layer_Color=8388736*
%FSLAX25Y25*%
%MOIN*%
G70*
G01*
G75*
%ADD28R,0.03950X0.03950*%
%ADD29R,0.07887X0.03950*%
%ADD30O,0.07099X0.01981*%
%ADD31R,0.07099X0.01981*%
%ADD32R,0.04737X0.04737*%
%ADD33R,0.04737X0.04737*%
%ADD34R,0.04147X0.04147*%
%ADD35R,0.04537X0.04143*%
%ADD36R,0.04737X0.03162*%
G04:AMPARAMS|DCode=37|XSize=31.62mil|YSize=47.37mil|CornerRadius=9.91mil|HoleSize=0mil|Usage=FLASHONLY|Rotation=270.000|XOffset=0mil|YOffset=0mil|HoleType=Round|Shape=RoundedRectangle|*
%AMROUNDEDRECTD37*
21,1,0.03162,0.02756,0,0,270.0*
21,1,0.01181,0.04737,0,0,270.0*
1,1,0.01981,-0.01378,-0.00591*
1,1,0.01981,-0.01378,0.00591*
1,1,0.01981,0.01378,0.00591*
1,1,0.01981,0.01378,-0.00591*
%
%ADD37ROUNDEDRECTD37*%
%ADD38R,0.08674X0.17335*%
%ADD39R,0.05524X0.09461*%
G04:AMPARAMS|DCode=40|XSize=55.24mil|YSize=94.61mil|CornerRadius=15.81mil|HoleSize=0mil|Usage=FLASHONLY|Rotation=180.000|XOffset=0mil|YOffset=0mil|HoleType=Round|Shape=RoundedRectangle|*
%AMROUNDEDRECTD40*
21,1,0.05524,0.06299,0,0,180.0*
21,1,0.02362,0.09461,0,0,180.0*
1,1,0.03162,-0.01181,0.03150*
1,1,0.03162,0.01181,0.03150*
1,1,0.03162,0.01181,-0.03150*
1,1,0.03162,-0.01181,-0.03150*
%
%ADD40ROUNDEDRECTD40*%
%ADD41C,0.07099*%
%ADD42R,0.07099X0.07099*%
%ADD43C,0.03556*%
%ADD44C,0.11430*%
D28*
X14567Y84803D02*
D03*
X8661D02*
D03*
D29*
X80709Y89764D02*
D03*
Y28346D02*
D03*
D30*
X73622Y82677D02*
D03*
Y80709D02*
D03*
Y78740D02*
D03*
Y76772D02*
D03*
Y74803D02*
D03*
Y72835D02*
D03*
Y70866D02*
D03*
Y68898D02*
D03*
Y66929D02*
D03*
Y64961D02*
D03*
Y62992D02*
D03*
Y61024D02*
D03*
Y59055D02*
D03*
Y57087D02*
D03*
Y55118D02*
D03*
Y53150D02*
D03*
Y51181D02*
D03*
Y49213D02*
D03*
Y47244D02*
D03*
Y45276D02*
D03*
Y43307D02*
D03*
Y41339D02*
D03*
Y39370D02*
D03*
Y37402D02*
D03*
Y35433D02*
D03*
X87795D02*
D03*
Y37402D02*
D03*
Y39370D02*
D03*
Y41339D02*
D03*
Y43307D02*
D03*
Y45276D02*
D03*
Y47244D02*
D03*
Y49213D02*
D03*
Y51181D02*
D03*
Y53150D02*
D03*
Y55118D02*
D03*
Y57087D02*
D03*
Y59055D02*
D03*
Y61024D02*
D03*
Y62992D02*
D03*
Y64961D02*
D03*
Y66929D02*
D03*
Y68898D02*
D03*
Y70866D02*
D03*
Y72835D02*
D03*
Y74803D02*
D03*
Y76772D02*
D03*
Y78740D02*
D03*
Y80709D02*
D03*
D31*
Y82677D02*
D03*
D32*
X136221Y140157D02*
D03*
X31102Y71815D02*
D03*
D33*
X45669Y94488D02*
D03*
X93307Y138976D02*
D03*
X106299Y147244D02*
D03*
D34*
X8465Y90158D02*
D03*
X14567D02*
D03*
D35*
X118110Y134252D02*
D03*
Y128937D02*
D03*
D36*
X112106D02*
D03*
D37*
Y132677D02*
D03*
Y136417D02*
D03*
X101279D02*
D03*
Y128937D02*
D03*
D38*
X140170Y182992D02*
D03*
X56706D02*
D03*
D39*
X125997Y161024D02*
D03*
D40*
X118123D02*
D03*
X110249D02*
D03*
X102375D02*
D03*
X94501D02*
D03*
X86627D02*
D03*
X78753D02*
D03*
X70879D02*
D03*
D41*
X12717Y65748D02*
D03*
Y32283D02*
D03*
X10236Y55905D02*
D03*
D42*
Y42126D02*
D03*
D43*
X74803Y86811D02*
D03*
Y31299D02*
D03*
D44*
X187008Y187008D02*
D03*
X9843D02*
D03*
Y9843D02*
D03*
X68898Y108268D02*
D03*
X187008D02*
D03*
Y9843D02*
D03*
X68898D02*
D03*
M02*
