G04*
G04 #@! TF.GenerationSoftware,Altium Limited,Altium Designer,18.1.9 (240)*
G04*
G04 Layer_Color=32768*
%FSLAX25Y25*%
%MOIN*%
G70*
G01*
G75*
%ADD12C,0.00394*%
%ADD97C,0.00197*%
D12*
X183858Y201850D02*
Y205630D01*
X181968Y203740D02*
X185748D01*
X353543Y36496D02*
Y40276D01*
X351654Y38386D02*
X355433D01*
X341732Y36496D02*
Y40276D01*
X339843Y38386D02*
X343622D01*
X329921Y36496D02*
Y40276D01*
X328031Y38386D02*
X331811D01*
X318110Y36496D02*
Y40276D01*
X316220Y38386D02*
X320000D01*
X306299Y36496D02*
Y40276D01*
X304410Y38386D02*
X308189D01*
X261811Y36496D02*
Y40276D01*
X259921Y38386D02*
X263701D01*
X243701Y36496D02*
Y40276D01*
X241811Y38386D02*
X245591D01*
X231890Y36496D02*
Y40276D01*
X230000Y38386D02*
X233780D01*
X220079Y36496D02*
Y40276D01*
X218189Y38386D02*
X221969D01*
X208661Y36496D02*
Y40276D01*
X206772Y38386D02*
X210551D01*
X196457Y36496D02*
Y40276D01*
X194567Y38386D02*
X198346D01*
X184646Y36496D02*
Y40276D01*
X182756Y38386D02*
X186535D01*
X116142Y56772D02*
X120079D01*
X118110Y54803D02*
Y58740D01*
X116142Y82599D02*
X120079D01*
X118110Y80630D02*
Y84567D01*
X116142Y108425D02*
X120079D01*
X118110Y106457D02*
Y110394D01*
X116142Y134252D02*
X120079D01*
X118110Y132283D02*
Y136221D01*
X116142Y159843D02*
X120079D01*
X118110Y157874D02*
Y161811D01*
X116142Y185591D02*
X120079D01*
X118110Y183622D02*
Y187559D01*
X106299Y43858D02*
X110236D01*
X108268Y41890D02*
Y45827D01*
X106299Y69685D02*
X110236D01*
X108268Y67716D02*
Y71654D01*
X106299Y95512D02*
X110236D01*
X108268Y93543D02*
Y97480D01*
X106299Y121339D02*
X110236D01*
X108268Y119370D02*
Y123307D01*
X106299Y146929D02*
X110236D01*
X108268Y144961D02*
Y148898D01*
X106299Y172677D02*
X110236D01*
X108268Y170709D02*
Y174646D01*
X153543Y36496D02*
Y40276D01*
X151654Y38386D02*
X155433D01*
X266240Y138248D02*
Y142185D01*
X264272Y140217D02*
X268209D01*
X237283Y127717D02*
X241063D01*
X239173Y125827D02*
Y129606D01*
X237283Y153543D02*
X241063D01*
X239173Y151654D02*
Y155433D01*
X291831Y35512D02*
Y39291D01*
X289941Y37402D02*
X293721D01*
X108268Y187008D02*
Y190945D01*
X106299Y188976D02*
X110236D01*
X106299Y153543D02*
X110236D01*
X108268Y151575D02*
Y155512D01*
X106299Y11811D02*
X110236D01*
X108268Y9843D02*
Y13780D01*
X106299Y27559D02*
X110236D01*
X108268Y25591D02*
Y29528D01*
X106299Y47244D02*
X110236D01*
X108268Y45276D02*
Y49213D01*
X106299Y62992D02*
X110236D01*
X108268Y61024D02*
Y64961D01*
X106299Y98425D02*
X110236D01*
X108268Y96457D02*
Y100394D01*
X106299Y82677D02*
X110236D01*
X108268Y80709D02*
Y84646D01*
X106299Y118110D02*
X110236D01*
X108268Y116142D02*
Y120079D01*
X106299Y133858D02*
X110236D01*
X108268Y131890D02*
Y135827D01*
X161417Y119468D02*
Y123248D01*
X159528Y121358D02*
X163307D01*
X161417Y107658D02*
Y111437D01*
X159528Y109547D02*
X163307D01*
X170866Y117500D02*
Y121280D01*
X168976Y119390D02*
X172756D01*
X161417Y131280D02*
Y135059D01*
X159528Y133169D02*
X163307D01*
X254528Y64764D02*
Y68701D01*
X252559Y66732D02*
X256496D01*
X274606Y64764D02*
Y68701D01*
X272638Y66732D02*
X276575D01*
X86713Y181496D02*
Y184646D01*
X85138Y183071D02*
X88287D01*
X86614Y175591D02*
Y178740D01*
X85039Y177165D02*
X88189D01*
X62323Y159449D02*
X66260D01*
X64291Y157480D02*
Y161417D01*
X62323Y147963D02*
X66260D01*
X64291Y145994D02*
Y149932D01*
X62323Y62992D02*
X66260D01*
X64291Y61024D02*
Y64961D01*
X62323Y86614D02*
X66260D01*
X64291Y84646D02*
Y88583D01*
X42638Y68898D02*
X46575D01*
X44606Y66929D02*
Y70866D01*
X42638Y92126D02*
X46575D01*
X44606Y90158D02*
Y94095D01*
X42638Y141732D02*
X46575D01*
X44606Y139764D02*
Y143701D01*
X209449Y190399D02*
Y193548D01*
X207874Y191974D02*
X211023D01*
X209449Y190354D02*
Y193504D01*
X207874Y191929D02*
X211024D01*
X203740Y190453D02*
Y193602D01*
X202165Y192027D02*
X205315D01*
X56732Y202013D02*
Y205163D01*
X55157Y203588D02*
X58307D01*
X56732Y201969D02*
Y205118D01*
X55158Y203543D02*
X58307D01*
X49843Y202067D02*
Y205217D01*
X48268Y203642D02*
X51417D01*
X54429Y188976D02*
X57579D01*
X56004Y187402D02*
Y190551D01*
X352461Y71929D02*
Y75709D01*
X350571Y73819D02*
X354350D01*
X108583Y167323D02*
Y171260D01*
X106615Y169291D02*
X110552D01*
X108268Y202756D02*
Y206693D01*
X106299Y204724D02*
X110236D01*
X57087Y202756D02*
Y206693D01*
X55118Y204724D02*
X59055D01*
X57087Y187008D02*
Y190945D01*
X55118Y188976D02*
X59055D01*
X57087Y167323D02*
Y171260D01*
X55118Y169291D02*
X59055D01*
X57087Y151575D02*
Y155512D01*
X55118Y153543D02*
X59055D01*
X57087Y131890D02*
Y135827D01*
X55118Y133858D02*
X59055D01*
X57087Y116142D02*
Y120079D01*
X55118Y118110D02*
X59055D01*
X57087Y96457D02*
Y100394D01*
X55118Y98425D02*
X59055D01*
X57087Y80709D02*
Y84646D01*
X55118Y82677D02*
X59055D01*
X57284Y61024D02*
Y64961D01*
X55315Y62992D02*
X59252D01*
X57087Y45276D02*
Y49213D01*
X55118Y47244D02*
X59055D01*
X57087Y25591D02*
Y29528D01*
X55118Y27559D02*
X59055D01*
X57284Y9843D02*
Y13780D01*
X55315Y11811D02*
X59252D01*
X80709Y15748D02*
X84646D01*
X82677Y13780D02*
Y17717D01*
X82185Y25000D02*
Y28150D01*
X80610Y26575D02*
X83760D01*
X82185Y60433D02*
Y63583D01*
X80610Y62008D02*
X83760D01*
X80709Y51181D02*
X84646D01*
X82677Y49213D02*
Y53150D01*
X80709Y86614D02*
X84646D01*
X82677Y84646D02*
Y88583D01*
X82185Y95473D02*
Y98622D01*
X80610Y97047D02*
X83760D01*
X80709Y122047D02*
X84646D01*
X82677Y120079D02*
Y124016D01*
X82185Y132283D02*
Y135433D01*
X80610Y133858D02*
X83760D01*
X82185Y166732D02*
Y169882D01*
X80610Y168307D02*
X83760D01*
X80709Y157480D02*
X84646D01*
X82677Y155512D02*
Y159449D01*
X82185Y202165D02*
Y205315D01*
X80610Y203740D02*
X83760D01*
X80709Y192913D02*
X84646D01*
X82677Y190945D02*
Y194882D01*
X133366Y202165D02*
Y205315D01*
X131791Y203740D02*
X134941D01*
X131890Y192913D02*
X135827D01*
X133858Y190945D02*
Y194882D01*
X133366Y166732D02*
Y169882D01*
X131791Y168307D02*
X134941D01*
X131890Y157480D02*
X135827D01*
X133858Y155512D02*
Y159449D01*
X133366Y131299D02*
Y134449D01*
X131791Y132874D02*
X134941D01*
X131890Y122047D02*
X135827D01*
X133858Y120079D02*
Y124016D01*
X133366Y95473D02*
Y98622D01*
X131791Y97047D02*
X134941D01*
X131890Y86614D02*
X135827D01*
X133858Y84646D02*
Y88583D01*
X133366Y60433D02*
Y63583D01*
X131791Y62008D02*
X134941D01*
X131890Y51181D02*
X135827D01*
X133858Y49213D02*
Y53150D01*
X133366Y25000D02*
Y28150D01*
X131791Y26575D02*
X134941D01*
X131890Y15748D02*
X135827D01*
X133858Y13780D02*
Y17717D01*
X54928Y42717D02*
Y45866D01*
X53353Y44291D02*
X56502D01*
X42638Y57087D02*
X46575D01*
X44606Y55118D02*
Y59055D01*
X62323Y74803D02*
X66260D01*
X64291Y72835D02*
Y76772D01*
X42638Y80709D02*
X46575D01*
X44606Y78740D02*
Y82677D01*
X42638Y104331D02*
X46575D01*
X44606Y102362D02*
Y106299D01*
X143110Y189469D02*
X147047D01*
X145079Y187500D02*
Y191437D01*
X168898Y184055D02*
Y187992D01*
X166929Y186024D02*
X170866D01*
X177399Y156272D02*
X180549D01*
X178974Y154697D02*
Y157847D01*
X171093Y156272D02*
X174242D01*
X172668Y154697D02*
Y157847D01*
X165354Y121063D02*
Y125000D01*
X163386Y123031D02*
X167323D01*
X155020Y152559D02*
Y156496D01*
X153051Y154528D02*
X156988D01*
X132874Y140532D02*
Y144311D01*
X130984Y142421D02*
X134764D01*
X140748Y132658D02*
Y136437D01*
X138858Y134547D02*
X142638D01*
X132874Y128720D02*
Y132500D01*
X130984Y130610D02*
X134764D01*
X140748Y120846D02*
Y124626D01*
X138858Y122736D02*
X142638D01*
X132874Y111594D02*
Y115374D01*
X130984Y113484D02*
X134764D01*
X140748Y109035D02*
Y112815D01*
X138858Y110925D02*
X142638D01*
X132874Y99783D02*
Y103563D01*
X130984Y101673D02*
X134764D01*
X140748Y95846D02*
Y99626D01*
X138858Y97736D02*
X142638D01*
X173012Y92520D02*
X176791D01*
X174902Y90630D02*
Y94410D01*
X204035Y113287D02*
X207185D01*
X205610Y111713D02*
Y114862D01*
X210039Y113189D02*
X213189D01*
X211614Y111614D02*
Y114764D01*
X198228Y101486D02*
X201378D01*
X199803Y99911D02*
Y103060D01*
X192913Y99783D02*
Y103563D01*
X191024Y101673D02*
X194803D01*
X188976Y110787D02*
Y114567D01*
X187087Y112677D02*
X190866D01*
X186821Y123031D02*
X190601D01*
X188711Y121142D02*
Y124921D01*
X196260Y129508D02*
X199409D01*
X197835Y127933D02*
Y131083D01*
X204508Y132717D02*
X208287D01*
X206398Y130827D02*
Y134606D01*
X191339Y135610D02*
X194488D01*
X192913Y134036D02*
Y137185D01*
X192323Y156496D02*
X195472D01*
X193898Y154921D02*
Y158071D01*
X198228Y150266D02*
X201378D01*
X199803Y148691D02*
Y151841D01*
X206378Y153543D02*
X210157D01*
X208268Y151654D02*
Y155433D01*
X219685Y138976D02*
X222835D01*
X221260Y137402D02*
Y140551D01*
X219882Y126457D02*
X223031D01*
X221457Y124882D02*
Y128032D01*
X272638Y99410D02*
X276575D01*
X274606Y97441D02*
Y101378D01*
X252559Y99213D02*
X256496D01*
X254528Y97244D02*
Y101181D01*
X269685Y66929D02*
Y70866D01*
X267717Y68898D02*
X271654D01*
X234272Y82756D02*
Y86535D01*
X232382Y84646D02*
X236161D01*
X227362Y82756D02*
Y86535D01*
X225472Y84646D02*
X229252D01*
X218504Y86988D02*
Y90768D01*
X216614Y88878D02*
X220394D01*
X203248Y87795D02*
X207185D01*
X205217Y85827D02*
Y89764D01*
X304528Y56890D02*
X307677D01*
X306102Y55315D02*
Y58465D01*
X310433Y56890D02*
X313583D01*
X312008Y55315D02*
Y58465D01*
X305000Y78543D02*
X308150D01*
X306575Y76968D02*
Y80118D01*
X310433Y78543D02*
X313583D01*
X312008Y76968D02*
Y80118D01*
X261713Y187402D02*
Y190551D01*
X260138Y188976D02*
X263287D01*
X85039Y62992D02*
X88189D01*
X86614Y61417D02*
Y64567D01*
X85039Y68898D02*
X88189D01*
X86614Y67323D02*
Y70472D01*
X85039Y74803D02*
X88189D01*
X86614Y73228D02*
Y76378D01*
X85039Y86614D02*
X88189D01*
X86614Y85039D02*
Y88189D01*
X85039Y80709D02*
X88189D01*
X86614Y79134D02*
Y82284D01*
X85039Y92126D02*
X88189D01*
X86614Y90551D02*
Y93701D01*
X85039Y104331D02*
X88189D01*
X86614Y102756D02*
Y105905D01*
X85039Y141732D02*
X88189D01*
X86614Y140157D02*
Y143307D01*
X85039Y147963D02*
X88189D01*
X86614Y146388D02*
Y149538D01*
X85039Y153543D02*
X88189D01*
X86614Y151969D02*
Y155118D01*
X85039Y159449D02*
X88189D01*
X86614Y157874D02*
Y161024D01*
X85039Y165354D02*
X88189D01*
X86614Y163779D02*
Y166929D01*
X44606Y163386D02*
Y167323D01*
X42638Y165354D02*
X46575D01*
X44606Y151575D02*
Y155512D01*
X42638Y153543D02*
X46575D01*
X64291Y169291D02*
Y173228D01*
X62323Y171260D02*
X66260D01*
X85039D02*
X88189D01*
X86614Y169685D02*
Y172835D01*
X138858Y146358D02*
X142638D01*
X140748Y144468D02*
Y148248D01*
X44606Y175197D02*
Y179134D01*
X42638Y177165D02*
X46575D01*
D97*
X178543Y200787D02*
X189173D01*
X178543Y206693D02*
X189173D01*
Y200787D02*
Y206693D01*
X178543Y200787D02*
Y206693D01*
X350591Y33071D02*
X356496D01*
X350591Y43701D02*
X356496D01*
X350591Y33071D02*
Y43701D01*
X356496Y33071D02*
Y43701D01*
X338779Y33071D02*
X344685D01*
X338779Y43701D02*
X344685D01*
X338779Y33071D02*
Y43701D01*
X344685Y33071D02*
Y43701D01*
X326969Y33071D02*
X332874D01*
X326969Y43701D02*
X332874D01*
X326969Y33071D02*
Y43701D01*
X332874Y33071D02*
Y43701D01*
X315158Y33071D02*
X321063D01*
X315158Y43701D02*
X321063D01*
X315158Y33071D02*
Y43701D01*
X321063Y33071D02*
Y43701D01*
X303346Y33071D02*
X309252D01*
X303346Y43701D02*
X309252D01*
X303346Y33071D02*
Y43701D01*
X309252Y33071D02*
Y43701D01*
X258858Y33071D02*
X264764D01*
X258858Y43701D02*
X264764D01*
X258858Y33071D02*
Y43701D01*
X264764Y33071D02*
Y43701D01*
X240748Y33071D02*
X246654D01*
X240748Y43701D02*
X246654D01*
X240748Y33071D02*
Y43701D01*
X246654Y33071D02*
Y43701D01*
X228937Y33071D02*
X234842D01*
X228937Y43701D02*
X234842D01*
X228937Y33071D02*
Y43701D01*
X234842Y33071D02*
Y43701D01*
X217126Y33071D02*
X223031D01*
X217126Y43701D02*
X223031D01*
X217126Y33071D02*
Y43701D01*
X223031Y33071D02*
Y43701D01*
X205709Y33071D02*
X211614D01*
X205709Y43701D02*
X211614D01*
X205709Y33071D02*
Y43701D01*
X211614Y33071D02*
Y43701D01*
X193504Y33071D02*
X199409D01*
X193504Y43701D02*
X199409D01*
X193504Y33071D02*
Y43701D01*
X199409Y33071D02*
Y43701D01*
X181693Y33071D02*
X187598D01*
X181693Y43701D02*
X187598D01*
X181693Y33071D02*
Y43701D01*
X187598Y33071D02*
Y43701D01*
X113976Y47717D02*
Y65827D01*
X122244Y47717D02*
Y65827D01*
X113976Y47717D02*
X122244D01*
X113976Y65827D02*
X122244D01*
X113976Y73543D02*
Y91654D01*
X122244Y73543D02*
Y91654D01*
X113976Y73543D02*
X122244D01*
X113976Y91654D02*
X122244D01*
X113976Y99370D02*
Y117480D01*
X122244Y99370D02*
Y117480D01*
X113976Y99370D02*
X122244D01*
X113976Y117480D02*
X122244D01*
X113976Y125197D02*
Y143307D01*
X122244Y125197D02*
Y143307D01*
X113976Y125197D02*
X122244D01*
X113976Y143307D02*
X122244D01*
X113976Y150787D02*
Y168898D01*
X122244Y150787D02*
Y168898D01*
X113976Y150787D02*
X122244D01*
X113976Y168898D02*
X122244D01*
X113976Y176535D02*
Y194646D01*
X122244Y176535D02*
Y194646D01*
X113976Y176535D02*
X122244D01*
X113976Y194646D02*
X122244D01*
X104134Y34803D02*
Y52913D01*
X112402Y34803D02*
Y52913D01*
X104134Y34803D02*
X112402D01*
X104134Y52913D02*
X112402D01*
X104134Y60630D02*
Y78740D01*
X112402Y60630D02*
Y78740D01*
X104134Y60630D02*
X112402D01*
X104134Y78740D02*
X112402D01*
X104134Y86457D02*
Y104567D01*
X112402Y86457D02*
Y104567D01*
X104134Y86457D02*
X112402D01*
X104134Y104567D02*
X112402D01*
X104134Y112284D02*
Y130394D01*
X112402Y112284D02*
Y130394D01*
X104134Y112284D02*
X112402D01*
X104134Y130394D02*
X112402D01*
X104134Y137874D02*
Y155984D01*
X112402Y137874D02*
Y155984D01*
X104134Y137874D02*
X112402D01*
X104134Y155984D02*
X112402D01*
X104134Y163622D02*
Y181732D01*
X112402Y163622D02*
Y181732D01*
X104134Y163622D02*
X112402D01*
X104134Y181732D02*
X112402D01*
X150591Y33071D02*
X156496D01*
X150591Y43701D02*
X156496D01*
X150591Y33071D02*
Y43701D01*
X156496Y33071D02*
Y43701D01*
X245079Y113445D02*
X287402D01*
X245079Y166988D02*
X287402D01*
Y113445D02*
Y166988D01*
X245079Y113445D02*
Y166988D01*
X244488Y124764D02*
Y130669D01*
X233858Y124764D02*
Y130669D01*
Y124764D02*
X244488D01*
X233858Y130669D02*
X244488D01*
Y150591D02*
Y156496D01*
X233858Y150591D02*
Y156496D01*
Y150591D02*
X244488D01*
X233858Y156496D02*
X244488D01*
X286516Y40354D02*
X297146D01*
X286516Y34449D02*
X297146D01*
X286516D02*
Y40354D01*
X297146Y34449D02*
Y40354D01*
X93307Y181299D02*
X123228D01*
X93307Y196653D02*
X123228D01*
X93307Y181299D02*
Y196653D01*
X123228Y181299D02*
Y196653D01*
Y145866D02*
Y161221D01*
X93307Y145866D02*
Y161221D01*
X123228D01*
X93307Y145866D02*
X123228D01*
Y4134D02*
Y19488D01*
X93307Y4134D02*
Y19488D01*
X123228D01*
X93307Y4134D02*
X123228D01*
Y19882D02*
Y35236D01*
X93307Y19882D02*
Y35236D01*
X123228D01*
X93307Y19882D02*
X123228D01*
Y39567D02*
Y54921D01*
X93307Y39567D02*
Y54921D01*
X123228D01*
X93307Y39567D02*
X123228D01*
Y55315D02*
Y70669D01*
X93307Y55315D02*
Y70669D01*
X123228D01*
X93307Y55315D02*
X123228D01*
Y90748D02*
Y106102D01*
X93307Y90748D02*
Y106102D01*
X123228D01*
X93307Y90748D02*
X123228D01*
Y75000D02*
Y90354D01*
X93307Y75000D02*
Y90354D01*
X123228D01*
X93307Y75000D02*
X123228D01*
Y110433D02*
Y125787D01*
X93307Y110433D02*
Y125787D01*
X123228D01*
X93307Y110433D02*
X123228D01*
Y126181D02*
Y141535D01*
X93307Y126181D02*
Y141535D01*
X123228D01*
X93307Y126181D02*
X123228D01*
X158465Y126673D02*
X164370D01*
X158465Y116043D02*
X164370D01*
X158465D02*
Y126673D01*
X164370Y116043D02*
Y126673D01*
X158465Y114862D02*
X164370D01*
X158465Y104232D02*
X164370D01*
X158465D02*
Y114862D01*
X164370Y104232D02*
Y114862D01*
X167913Y124705D02*
X173819D01*
X167913Y114075D02*
X173819D01*
X167913D02*
Y124705D01*
X173819Y114075D02*
Y124705D01*
X158465Y138484D02*
X164370D01*
X158465Y127854D02*
X164370D01*
X158465D02*
Y138484D01*
X164370Y127854D02*
Y138484D01*
X246949Y60394D02*
X262106D01*
X246949Y73071D02*
X262106D01*
Y60394D02*
Y73071D01*
X246949Y60394D02*
Y73071D01*
X267028Y60394D02*
X282185D01*
X267028Y73071D02*
X282185D01*
Y60394D02*
Y73071D01*
X267028Y60394D02*
Y73071D01*
X81004Y185827D02*
X92421D01*
X81004Y180315D02*
X92421D01*
X81004D02*
Y185827D01*
X92421Y180315D02*
Y185827D01*
X80905Y174409D02*
X92323D01*
X80905Y179921D02*
X92323D01*
Y174409D02*
Y179921D01*
X80905Y174409D02*
Y179921D01*
X55236Y154331D02*
Y164567D01*
X73347Y154331D02*
Y164567D01*
X55236D02*
X73347D01*
X55236Y154331D02*
X73347D01*
X55236Y142845D02*
Y153081D01*
X73347Y142845D02*
Y153081D01*
X55236D02*
X73347D01*
X55236Y142845D02*
X73347D01*
X55236Y57874D02*
Y68110D01*
X73347Y57874D02*
Y68110D01*
X55236D02*
X73347D01*
X55236Y57874D02*
X73347D01*
X55236Y81496D02*
Y91732D01*
X73347Y81496D02*
Y91732D01*
X55236D02*
X73347D01*
X55236Y81496D02*
X73347D01*
X35551Y63779D02*
Y74016D01*
X53661Y63779D02*
Y74016D01*
X35551D02*
X53661D01*
X35551Y63779D02*
X53661D01*
X35551Y87008D02*
Y97244D01*
X53661Y87008D02*
Y97244D01*
X35551D02*
X53661D01*
X35551Y87008D02*
X53661D01*
X35551Y136614D02*
Y146850D01*
X53661Y136614D02*
Y146850D01*
X35551D02*
X53661D01*
X35551Y136614D02*
X53661D01*
X200984Y197736D02*
X206496D01*
X200984Y186319D02*
X206496D01*
Y197736D01*
X200984Y186319D02*
Y197736D01*
X47087Y209350D02*
X52598D01*
X47087Y197933D02*
X52598D01*
Y209350D01*
X47087Y197933D02*
Y209350D01*
X50295Y186221D02*
Y191732D01*
X61713Y186221D02*
Y191732D01*
X50295D02*
X61713D01*
X50295Y186221D02*
X61713D01*
X347146Y76772D02*
X357776D01*
X347146Y70866D02*
X357776D01*
X347146D02*
Y76772D01*
X357776Y70866D02*
Y76772D01*
X93623Y161614D02*
X123544D01*
X93623Y176969D02*
X123544D01*
X93623Y161614D02*
Y176969D01*
X123544Y161614D02*
Y176969D01*
X93307Y197047D02*
X123228D01*
X93307Y212402D02*
X123228D01*
X93307Y197047D02*
Y212402D01*
X123228Y197047D02*
Y212402D01*
X42126Y197047D02*
X72047D01*
X42126Y212402D02*
X72047D01*
X42126Y197047D02*
Y212402D01*
X72047Y197047D02*
Y212402D01*
X42126Y181299D02*
X72047D01*
X42126Y196653D02*
X72047D01*
X42126Y181299D02*
Y196653D01*
X72047Y181299D02*
Y196653D01*
X42126Y161614D02*
X72047D01*
X42126Y176969D02*
X72047D01*
X42126Y161614D02*
Y176969D01*
X72047Y161614D02*
Y176969D01*
X42126Y145866D02*
X72047D01*
X42126Y161221D02*
X72047D01*
X42126Y145866D02*
Y161221D01*
X72047Y145866D02*
Y161221D01*
X42126Y126181D02*
X72047D01*
X42126Y141535D02*
X72047D01*
X42126Y126181D02*
Y141535D01*
X72047Y126181D02*
Y141535D01*
X42126Y110433D02*
X72047D01*
X42126Y125787D02*
X72047D01*
X42126Y110433D02*
Y125787D01*
X72047Y110433D02*
Y125787D01*
X42126Y90748D02*
X72047D01*
X42126Y106102D02*
X72047D01*
X42126Y90748D02*
Y106102D01*
X72047Y90748D02*
Y106102D01*
X42126Y75000D02*
X72047D01*
X42126Y90354D02*
X72047D01*
X42126Y75000D02*
Y90354D01*
X72047Y75000D02*
Y90354D01*
X42323Y55315D02*
X72244D01*
X42323Y70669D02*
X72244D01*
X42323Y55315D02*
Y70669D01*
X72244Y55315D02*
Y70669D01*
X42126Y39567D02*
X72047D01*
X42126Y54921D02*
X72047D01*
X42126Y39567D02*
Y54921D01*
X72047Y39567D02*
Y54921D01*
X42126Y19882D02*
X72047D01*
X42126Y35236D02*
X72047D01*
X42126Y19882D02*
Y35236D01*
X72047Y19882D02*
Y35236D01*
X42323Y4134D02*
X72244D01*
X42323Y19488D02*
X72244D01*
X42323Y4134D02*
Y19488D01*
X72244Y4134D02*
Y19488D01*
X89370Y8366D02*
Y23130D01*
X75984Y8366D02*
Y23130D01*
Y8366D02*
X89370D01*
X75984Y23130D02*
X89370D01*
X76476Y23819D02*
X87894D01*
X76476Y29331D02*
X87894D01*
X76476Y23819D02*
Y29331D01*
X87894Y23819D02*
Y29331D01*
X76476Y59252D02*
X87894D01*
X76476Y64764D02*
X87894D01*
X76476Y59252D02*
Y64764D01*
X87894Y59252D02*
Y64764D01*
X89370Y43799D02*
Y58563D01*
X75984Y43799D02*
Y58563D01*
Y43799D02*
X89370D01*
X75984Y58563D02*
X89370D01*
Y79232D02*
Y93996D01*
X75984Y79232D02*
Y93996D01*
Y79232D02*
X89370D01*
X75984Y93996D02*
X89370D01*
X76476Y94291D02*
X87894D01*
X76476Y99803D02*
X87894D01*
X76476Y94291D02*
Y99803D01*
X87894Y94291D02*
Y99803D01*
X89370Y114665D02*
Y129429D01*
X75984Y114665D02*
Y129429D01*
Y114665D02*
X89370D01*
X75984Y129429D02*
X89370D01*
X76476Y131102D02*
X87894D01*
X76476Y136614D02*
X87894D01*
X76476Y131102D02*
Y136614D01*
X87894Y131102D02*
Y136614D01*
X76476Y165551D02*
X87894D01*
X76476Y171063D02*
X87894D01*
X76476Y165551D02*
Y171063D01*
X87894Y165551D02*
Y171063D01*
X89370Y150098D02*
Y164862D01*
X75984Y150098D02*
Y164862D01*
Y150098D02*
X89370D01*
X75984Y164862D02*
X89370D01*
X76476Y200984D02*
X87894D01*
X76476Y206496D02*
X87894D01*
X76476Y200984D02*
Y206496D01*
X87894Y200984D02*
Y206496D01*
X89370Y185531D02*
Y200295D01*
X75984Y185531D02*
Y200295D01*
Y185531D02*
X89370D01*
X75984Y200295D02*
X89370D01*
X127657Y200984D02*
X139075D01*
X127657Y206496D02*
X139075D01*
X127657Y200984D02*
Y206496D01*
X139075Y200984D02*
Y206496D01*
X140551Y185531D02*
Y200295D01*
X127165Y185531D02*
Y200295D01*
Y185531D02*
X140551D01*
X127165Y200295D02*
X140551D01*
X127657Y165551D02*
X139075D01*
X127657Y171063D02*
X139075D01*
X127657Y165551D02*
Y171063D01*
X139075Y165551D02*
Y171063D01*
X140551Y150098D02*
Y164862D01*
X127165Y150098D02*
Y164862D01*
Y150098D02*
X140551D01*
X127165Y164862D02*
X140551D01*
X127657Y130118D02*
X139075D01*
X127657Y135630D02*
X139075D01*
X127657Y130118D02*
Y135630D01*
X139075Y130118D02*
Y135630D01*
X140551Y114665D02*
Y129429D01*
X127165Y114665D02*
Y129429D01*
Y114665D02*
X140551D01*
X127165Y129429D02*
X140551D01*
X127657Y94291D02*
X139075D01*
X127657Y99803D02*
X139075D01*
X127657Y94291D02*
Y99803D01*
X139075Y94291D02*
Y99803D01*
X140551Y79232D02*
Y93996D01*
X127165Y79232D02*
Y93996D01*
Y79232D02*
X140551D01*
X127165Y93996D02*
X140551D01*
X127657Y59252D02*
X139075D01*
X127657Y64764D02*
X139075D01*
X127657Y59252D02*
Y64764D01*
X139075Y59252D02*
Y64764D01*
X140551Y43799D02*
Y58563D01*
X127165Y43799D02*
Y58563D01*
Y43799D02*
X140551D01*
X127165Y58563D02*
X140551D01*
X127657Y23819D02*
X139075D01*
X127657Y29331D02*
X139075D01*
X127657Y23819D02*
Y29331D01*
X139075Y23819D02*
Y29331D01*
X140551Y8366D02*
Y23130D01*
X127165Y8366D02*
Y23130D01*
Y8366D02*
X140551D01*
X127165Y23130D02*
X140551D01*
X49219Y47047D02*
X60636D01*
X49219Y41535D02*
X60636D01*
X49219D02*
Y47047D01*
X60636Y41535D02*
Y47047D01*
X35551Y51968D02*
Y62205D01*
X53661Y51968D02*
Y62205D01*
X35551D02*
X53661D01*
X35551Y51968D02*
X53661D01*
X55236Y69685D02*
Y79921D01*
X73347Y69685D02*
Y79921D01*
X55236D02*
X73347D01*
X55236Y69685D02*
X73347D01*
X35551Y75590D02*
Y85827D01*
X53661Y75590D02*
Y85827D01*
X35551D02*
X53661D01*
X35551Y75590D02*
X53661D01*
X35551Y99213D02*
Y109449D01*
X53661Y99213D02*
Y109449D01*
X35551D02*
X53661D01*
X35551Y99213D02*
X53661D01*
X148819Y182776D02*
Y196161D01*
X141339Y182776D02*
Y196161D01*
X148819D01*
X141339Y182776D02*
X148819D01*
X152165Y200197D02*
X185630D01*
X152165Y171850D02*
X185630D01*
X152165D02*
Y200197D01*
X185630Y171850D02*
Y200197D01*
X181730Y150563D02*
Y161980D01*
X176218Y150563D02*
Y161980D01*
X181730D01*
X176218Y150563D02*
X181730D01*
X175424D02*
Y161980D01*
X169912Y150563D02*
Y161980D01*
X175424D01*
X169912Y150563D02*
X175424D01*
X146850Y96260D02*
X183858D01*
X146850Y149803D02*
X183858D01*
Y96260D02*
Y149803D01*
X146850Y96260D02*
Y149803D01*
X148327Y150787D02*
X161713D01*
X148327Y158268D02*
X161713D01*
Y150787D02*
Y158268D01*
X148327Y150787D02*
Y158268D01*
X129921Y137106D02*
X135827D01*
X129921Y147736D02*
X135827D01*
X129921Y137106D02*
Y147736D01*
X135827Y137106D02*
Y147736D01*
X137795Y129232D02*
X143701D01*
X137795Y139862D02*
X143701D01*
X137795Y129232D02*
Y139862D01*
X143701Y129232D02*
Y139862D01*
X129921Y125295D02*
X135827D01*
X129921Y135925D02*
X135827D01*
X129921Y125295D02*
Y135925D01*
X135827Y125295D02*
Y135925D01*
X137795Y117421D02*
X143701D01*
X137795Y128051D02*
X143701D01*
X137795Y117421D02*
Y128051D01*
X143701Y117421D02*
Y128051D01*
X129921Y118799D02*
X135827D01*
X129921Y108169D02*
X135827D01*
Y118799D01*
X129921Y108169D02*
Y118799D01*
X137795Y105610D02*
X143701D01*
X137795Y116240D02*
X143701D01*
X137795Y105610D02*
Y116240D01*
X143701Y105610D02*
Y116240D01*
X129921Y106988D02*
X135827D01*
X129921Y96358D02*
X135827D01*
Y106988D01*
X129921Y96358D02*
Y106988D01*
X137795Y103051D02*
X143701D01*
X137795Y92421D02*
X143701D01*
Y103051D01*
X137795Y92421D02*
Y103051D01*
X169587Y89567D02*
Y95472D01*
X180217Y89567D02*
Y95472D01*
X169587D02*
X180217D01*
X169587Y89567D02*
X180217D01*
X202854Y107579D02*
Y118996D01*
X208366Y107579D02*
Y118996D01*
X202854Y107579D02*
X208366D01*
X202854Y118996D02*
X208366D01*
X214370Y107480D02*
Y118898D01*
X208858Y107480D02*
Y118898D01*
X214370D01*
X208858Y107480D02*
X214370D01*
X202559Y95777D02*
Y107194D01*
X197047Y95777D02*
Y107194D01*
X202559D01*
X197047Y95777D02*
X202559D01*
X189961Y106988D02*
X195866D01*
X189961Y96358D02*
X195866D01*
Y106988D01*
X189961Y96358D02*
Y106988D01*
X186024Y117992D02*
X191929D01*
X186024Y107362D02*
X191929D01*
Y117992D01*
X186024Y107362D02*
Y117992D01*
X183396Y120079D02*
Y125984D01*
X194026Y120079D02*
Y125984D01*
X183396D02*
X194026D01*
X183396Y120079D02*
X194026D01*
X195079Y123799D02*
Y135217D01*
X200591Y123799D02*
Y135217D01*
X195079Y123799D02*
X200591D01*
X195079Y135217D02*
X200591D01*
X201083Y129764D02*
Y135669D01*
X211713Y129764D02*
Y135669D01*
X201083D02*
X211713D01*
X201083Y129764D02*
X211713D01*
X190157Y129902D02*
Y141319D01*
X195669Y129902D02*
Y141319D01*
X190157Y129902D02*
X195669D01*
X190157Y141319D02*
X195669D01*
X191142Y150787D02*
Y162205D01*
X196653Y150787D02*
Y162205D01*
X191142Y150787D02*
X196653D01*
X191142Y162205D02*
X196653D01*
X197047Y144557D02*
Y155975D01*
X202559Y144557D02*
Y155975D01*
X197047Y144557D02*
X202559D01*
X197047Y155975D02*
X202559D01*
X202953Y150591D02*
Y156496D01*
X213583Y150591D02*
Y156496D01*
X202953D02*
X213583D01*
X202953Y150591D02*
X213583D01*
X224016Y133268D02*
Y144685D01*
X218504Y133268D02*
Y144685D01*
X224016D01*
X218504Y133268D02*
X224016D01*
X218701Y120748D02*
Y132165D01*
X224213Y120748D02*
Y132165D01*
X218701Y120748D02*
X224213D01*
X218701Y132165D02*
X224213D01*
X282185Y93071D02*
Y105748D01*
X267028Y93071D02*
Y105748D01*
X282185D01*
X267028Y93071D02*
X282185D01*
X262106Y92874D02*
Y105551D01*
X246949Y92874D02*
Y105551D01*
X262106D01*
X246949Y92874D02*
X262106D01*
X237992Y45571D02*
X301378D01*
X237992Y92224D02*
X301378D01*
X237992Y45571D02*
Y92224D01*
X301378Y45571D02*
Y92224D01*
X231319Y89961D02*
X237224D01*
X231319Y79331D02*
X237224D01*
Y89961D01*
X231319Y79331D02*
Y89961D01*
X224409D02*
X230315D01*
X224409Y79331D02*
X230315D01*
Y89961D01*
X224409Y79331D02*
Y89961D01*
X215551Y94193D02*
X221457D01*
X215551Y83563D02*
X221457D01*
Y94193D01*
X215551Y83563D02*
Y94193D01*
X196949Y80709D02*
Y94882D01*
X213484Y80709D02*
Y94882D01*
X196949D02*
X213484D01*
X196949Y80709D02*
X213484D01*
X303346Y51181D02*
Y62598D01*
X308858Y51181D02*
Y62598D01*
X303346Y51181D02*
X308858D01*
X303346Y62598D02*
X308858D01*
X309252Y51181D02*
Y62598D01*
X314764Y51181D02*
Y62598D01*
X309252Y51181D02*
X314764D01*
X309252Y62598D02*
X314764D01*
X309331Y72835D02*
Y84252D01*
X303819Y72835D02*
Y84252D01*
X309331D01*
X303819Y72835D02*
X309331D01*
X314764D02*
Y84252D01*
X309252Y72835D02*
Y84252D01*
X314764D01*
X309252Y72835D02*
X314764D01*
X256004Y186221D02*
X267421D01*
X256004Y191732D02*
X267421D01*
Y186221D02*
Y191732D01*
X256004Y186221D02*
Y191732D01*
X80905Y60236D02*
Y65748D01*
X92323Y60236D02*
Y65748D01*
X80905D02*
X92323D01*
X80905Y60236D02*
X92323D01*
X80905Y66142D02*
Y71653D01*
X92323Y66142D02*
Y71653D01*
X80905D02*
X92323D01*
X80905Y66142D02*
X92323D01*
X80905Y72047D02*
Y77559D01*
X92323Y72047D02*
Y77559D01*
X80905D02*
X92323D01*
X80905Y72047D02*
X92323D01*
X80905Y83858D02*
Y89370D01*
X92323Y83858D02*
Y89370D01*
X80905D02*
X92323D01*
X80905Y83858D02*
X92323D01*
X80905Y77953D02*
Y83465D01*
X92323Y77953D02*
Y83465D01*
X80905D02*
X92323D01*
X80905Y77953D02*
X92323D01*
X80905Y89370D02*
Y94882D01*
X92323Y89370D02*
Y94882D01*
X80905D02*
X92323D01*
X80905Y89370D02*
X92323D01*
X80905Y101575D02*
Y107087D01*
X92323Y101575D02*
Y107087D01*
X80905D02*
X92323D01*
X80905Y101575D02*
X92323D01*
X80905Y138976D02*
Y144488D01*
X92323Y138976D02*
Y144488D01*
X80905D02*
X92323D01*
X80905Y138976D02*
X92323D01*
X80905Y145207D02*
Y150719D01*
X92323Y145207D02*
Y150719D01*
X80905D02*
X92323D01*
X80905Y145207D02*
X92323D01*
X80905Y150787D02*
Y156299D01*
X92323Y150787D02*
Y156299D01*
X80905D02*
X92323D01*
X80905Y150787D02*
X92323D01*
X80905Y156693D02*
Y162205D01*
X92323Y156693D02*
Y162205D01*
X80905D02*
X92323D01*
X80905Y156693D02*
X92323D01*
X80905Y162598D02*
Y168110D01*
X92323Y162598D02*
Y168110D01*
X80905D02*
X92323D01*
X80905Y162598D02*
X92323D01*
X35551Y160236D02*
X53661D01*
X35551Y170472D02*
X53661D01*
Y160236D02*
Y170472D01*
X35551Y160236D02*
Y170472D01*
Y148425D02*
X53661D01*
X35551Y158661D02*
X53661D01*
Y148425D02*
Y158661D01*
X35551Y148425D02*
Y158661D01*
X55236Y166142D02*
X73347D01*
X55236Y176378D02*
X73347D01*
Y166142D02*
Y176378D01*
X55236Y166142D02*
Y176378D01*
X80905Y168504D02*
Y174016D01*
X92323Y168504D02*
Y174016D01*
X80905D02*
X92323D01*
X80905Y168504D02*
X92323D01*
X143701Y141043D02*
Y151673D01*
X137795Y141043D02*
Y151673D01*
X143701D01*
X137795Y141043D02*
X143701D01*
X35551Y172047D02*
X53661D01*
X35551Y182283D02*
X53661D01*
Y172047D02*
Y182283D01*
X35551Y172047D02*
Y182283D01*
M02*
