G04*
G04 #@! TF.GenerationSoftware,Altium Limited,Altium Designer,18.1.9 (240)*
G04*
G04 Layer_Color=8388736*
%FSLAX25Y25*%
%MOIN*%
G70*
G01*
G75*
%ADD41R,0.04143X0.04537*%
%ADD42R,0.04537X0.04143*%
%ADD43R,0.05603X0.04383*%
%ADD44O,0.07493X0.03792*%
%ADD45R,0.07493X0.03792*%
%ADD46R,0.04147X0.04147*%
%ADD47R,0.05288X0.08792*%
%ADD48R,0.03950X0.03950*%
%ADD49R,0.04147X0.04147*%
%ADD50R,0.06312X0.05328*%
%ADD51R,0.08674X0.15761*%
%ADD52R,0.08674X0.06706*%
%ADD53O,0.06115X0.01981*%
%ADD54R,0.06115X0.01981*%
%ADD55R,0.05328X0.06312*%
%ADD56R,0.03320X0.03556*%
%ADD57R,0.02769X0.03556*%
%ADD58R,0.02965X0.08477*%
%ADD59O,0.02965X0.08477*%
%ADD60R,0.04737X0.03162*%
G04:AMPARAMS|DCode=61|XSize=31.62mil|YSize=47.37mil|CornerRadius=9.91mil|HoleSize=0mil|Usage=FLASHONLY|Rotation=90.000|XOffset=0mil|YOffset=0mil|HoleType=Round|Shape=RoundedRectangle|*
%AMROUNDEDRECTD61*
21,1,0.03162,0.02756,0,0,90.0*
21,1,0.01181,0.04737,0,0,90.0*
1,1,0.01981,0.01378,0.00591*
1,1,0.01981,0.01378,-0.00591*
1,1,0.01981,-0.01378,-0.00591*
1,1,0.01981,-0.01378,0.00591*
%
%ADD61ROUNDEDRECTD61*%
G04:AMPARAMS|DCode=62|XSize=86.74mil|YSize=173.35mil|CornerRadius=23.68mil|HoleSize=0mil|Usage=FLASHONLY|Rotation=90.000|XOffset=0mil|YOffset=0mil|HoleType=Round|Shape=RoundedRectangle|*
%AMROUNDEDRECTD62*
21,1,0.08674,0.12598,0,0,90.0*
21,1,0.03937,0.17335,0,0,90.0*
1,1,0.04737,0.06299,0.01968*
1,1,0.04737,0.06299,-0.01968*
1,1,0.04737,-0.06299,-0.01968*
1,1,0.04737,-0.06299,0.01968*
%
%ADD62ROUNDEDRECTD62*%
%ADD63R,0.09461X0.05524*%
G04:AMPARAMS|DCode=64|XSize=55.24mil|YSize=94.61mil|CornerRadius=15.81mil|HoleSize=0mil|Usage=FLASHONLY|Rotation=90.000|XOffset=0mil|YOffset=0mil|HoleType=Round|Shape=RoundedRectangle|*
%AMROUNDEDRECTD64*
21,1,0.05524,0.06299,0,0,90.0*
21,1,0.02362,0.09461,0,0,90.0*
1,1,0.03162,0.03150,0.01181*
1,1,0.03162,0.03150,-0.01181*
1,1,0.03162,-0.03150,-0.01181*
1,1,0.03162,-0.03150,0.01181*
%
%ADD64ROUNDEDRECTD64*%
%ADD65C,0.06800*%
%ADD66R,0.06800X0.06800*%
%ADD67C,0.07887*%
%ADD68R,0.07887X0.07887*%
%ADD69R,0.07887X0.07887*%
%ADD70R,0.04343X0.04343*%
%ADD71C,0.04343*%
%ADD72C,0.11430*%
%ADD73C,0.03162*%
D41*
X186516Y203740D02*
D03*
X181201D02*
D03*
X241831Y127717D02*
D03*
X236516D02*
D03*
X241831Y153543D02*
D03*
X236516D02*
D03*
X289173Y37402D02*
D03*
X294488D02*
D03*
X349803Y73819D02*
D03*
X355118D02*
D03*
X172244Y92520D02*
D03*
X177559D02*
D03*
X186054Y123031D02*
D03*
X191368D02*
D03*
X203740Y132717D02*
D03*
X209055D02*
D03*
X205610Y153543D02*
D03*
X210925D02*
D03*
D42*
X353543Y35728D02*
D03*
Y41043D02*
D03*
X341732Y35728D02*
D03*
Y41043D02*
D03*
X329921Y35728D02*
D03*
Y41043D02*
D03*
X318110Y35728D02*
D03*
Y41043D02*
D03*
X306299Y35728D02*
D03*
Y41043D02*
D03*
X261811Y35728D02*
D03*
Y41043D02*
D03*
X243701Y35728D02*
D03*
Y41043D02*
D03*
X231890Y35728D02*
D03*
Y41043D02*
D03*
X220079Y35728D02*
D03*
Y41043D02*
D03*
X208661Y35728D02*
D03*
Y41043D02*
D03*
X196457Y35728D02*
D03*
Y41043D02*
D03*
X184646Y35728D02*
D03*
Y41043D02*
D03*
X153543Y35728D02*
D03*
Y41043D02*
D03*
X132874Y139764D02*
D03*
Y145079D02*
D03*
X140748Y131890D02*
D03*
Y137205D02*
D03*
X132874Y127953D02*
D03*
Y133268D02*
D03*
X140748Y120079D02*
D03*
Y125394D02*
D03*
X132874Y116142D02*
D03*
Y110827D02*
D03*
X140748Y108268D02*
D03*
Y113583D02*
D03*
X132874Y104331D02*
D03*
Y99016D02*
D03*
X140748Y100394D02*
D03*
Y95079D02*
D03*
X192913Y104331D02*
D03*
Y99016D02*
D03*
X188976Y115335D02*
D03*
Y110020D02*
D03*
X234272Y87303D02*
D03*
Y81988D02*
D03*
X227362Y87303D02*
D03*
Y81988D02*
D03*
X218504Y91535D02*
D03*
Y86221D02*
D03*
X140748Y149016D02*
D03*
Y143701D02*
D03*
D43*
X118110Y50315D02*
D03*
Y63228D02*
D03*
Y76142D02*
D03*
Y89055D02*
D03*
Y101969D02*
D03*
Y114882D02*
D03*
Y127795D02*
D03*
Y140709D02*
D03*
Y153386D02*
D03*
Y166299D02*
D03*
Y179134D02*
D03*
Y192047D02*
D03*
X108268Y37402D02*
D03*
Y50315D02*
D03*
Y63228D02*
D03*
Y76142D02*
D03*
Y89055D02*
D03*
Y101969D02*
D03*
Y114882D02*
D03*
Y127795D02*
D03*
Y140472D02*
D03*
Y153386D02*
D03*
Y166220D02*
D03*
Y179134D02*
D03*
D44*
X283465Y127717D02*
D03*
Y137716D02*
D03*
Y142717D02*
D03*
Y147716D02*
D03*
Y152717D02*
D03*
Y157717D02*
D03*
X249016Y122716D02*
D03*
Y127717D02*
D03*
Y132717D02*
D03*
Y137716D02*
D03*
Y142717D02*
D03*
Y152717D02*
D03*
Y147716D02*
D03*
X283465Y122716D02*
D03*
Y132717D02*
D03*
D45*
X249016Y157717D02*
D03*
D46*
X83661Y183071D02*
D03*
X89764D02*
D03*
X89665Y177165D02*
D03*
X83563D02*
D03*
X52953Y188976D02*
D03*
X59055D02*
D03*
X51876Y44291D02*
D03*
X57979D02*
D03*
X264764Y188976D02*
D03*
X258661D02*
D03*
X83563Y62992D02*
D03*
X89665D02*
D03*
X83563Y68898D02*
D03*
X89665D02*
D03*
X83563Y74803D02*
D03*
X89665D02*
D03*
X83563Y86614D02*
D03*
X89665D02*
D03*
X83563Y80709D02*
D03*
X89665D02*
D03*
X83563Y92126D02*
D03*
X89665D02*
D03*
X83563Y104331D02*
D03*
X89665D02*
D03*
X83563Y141732D02*
D03*
X89665D02*
D03*
X83563Y147963D02*
D03*
X89665D02*
D03*
X83563Y153543D02*
D03*
X89665D02*
D03*
X83563Y159449D02*
D03*
X89665D02*
D03*
X83563Y165354D02*
D03*
X89665D02*
D03*
X83563Y171260D02*
D03*
X89665D02*
D03*
D47*
X59055Y159449D02*
D03*
X69528D02*
D03*
X59055Y147963D02*
D03*
X69528D02*
D03*
X59055Y62992D02*
D03*
X69528D02*
D03*
X59055Y86614D02*
D03*
X69528D02*
D03*
X39370Y68898D02*
D03*
X49843D02*
D03*
X39370Y92126D02*
D03*
X49843D02*
D03*
X39370Y141732D02*
D03*
X49843D02*
D03*
X39370Y57087D02*
D03*
X49843D02*
D03*
X59055Y74803D02*
D03*
X69528D02*
D03*
X39370Y80709D02*
D03*
X49843D02*
D03*
X39370Y104331D02*
D03*
X49843D02*
D03*
Y165354D02*
D03*
X39370D02*
D03*
X49843Y153543D02*
D03*
X39370D02*
D03*
X69528Y171260D02*
D03*
X59055D02*
D03*
X49843Y177165D02*
D03*
X39370D02*
D03*
D48*
X209449Y188976D02*
D03*
Y194882D02*
D03*
X56732Y200590D02*
D03*
Y206496D02*
D03*
D49*
X203740Y195079D02*
D03*
Y188976D02*
D03*
X49843Y206693D02*
D03*
Y200591D02*
D03*
X178974Y159323D02*
D03*
Y153221D02*
D03*
X172668Y159323D02*
D03*
Y153221D02*
D03*
X205610Y110236D02*
D03*
Y116339D02*
D03*
X211614Y116240D02*
D03*
Y110138D02*
D03*
X199803Y104537D02*
D03*
Y98435D02*
D03*
X197835Y126457D02*
D03*
Y132559D02*
D03*
X192913D02*
D03*
Y138661D02*
D03*
X193898Y153445D02*
D03*
Y159547D02*
D03*
X199803Y147215D02*
D03*
Y153317D02*
D03*
X221260Y142028D02*
D03*
Y135925D02*
D03*
X221457Y123406D02*
D03*
Y129508D02*
D03*
X306102Y53839D02*
D03*
Y59941D02*
D03*
X312008Y53839D02*
D03*
Y59941D02*
D03*
X306575Y81595D02*
D03*
Y75492D02*
D03*
X312008Y81595D02*
D03*
Y75492D02*
D03*
D50*
X145079Y192913D02*
D03*
Y186024D02*
D03*
D51*
X156496D02*
D03*
D52*
X181299Y195079D02*
D03*
Y186024D02*
D03*
Y176969D02*
D03*
D53*
X179134Y100394D02*
D03*
Y102362D02*
D03*
Y104331D02*
D03*
Y106299D02*
D03*
Y108268D02*
D03*
Y110236D02*
D03*
Y112205D02*
D03*
Y114173D02*
D03*
Y116142D02*
D03*
Y118110D02*
D03*
Y120079D02*
D03*
Y122047D02*
D03*
Y124016D02*
D03*
Y125984D02*
D03*
Y127953D02*
D03*
Y129921D02*
D03*
Y131890D02*
D03*
Y133858D02*
D03*
Y135827D02*
D03*
Y137795D02*
D03*
Y139764D02*
D03*
Y141732D02*
D03*
Y143701D02*
D03*
Y145669D02*
D03*
X151575Y100394D02*
D03*
Y102362D02*
D03*
Y104331D02*
D03*
Y106299D02*
D03*
Y108268D02*
D03*
Y110236D02*
D03*
Y112205D02*
D03*
Y114173D02*
D03*
Y116142D02*
D03*
Y118110D02*
D03*
Y120079D02*
D03*
Y122047D02*
D03*
Y124016D02*
D03*
Y125984D02*
D03*
Y127953D02*
D03*
Y129921D02*
D03*
Y131890D02*
D03*
Y133858D02*
D03*
Y135827D02*
D03*
Y137795D02*
D03*
Y139764D02*
D03*
Y141732D02*
D03*
Y143701D02*
D03*
D54*
Y145669D02*
D03*
D55*
X158465Y154528D02*
D03*
X151575D02*
D03*
D56*
X279646Y102165D02*
D03*
X269567D02*
D03*
X279646Y96653D02*
D03*
X269567D02*
D03*
X259567Y101969D02*
D03*
X249488D02*
D03*
X259567Y96457D02*
D03*
X249488D02*
D03*
D57*
X276181Y102165D02*
D03*
X273031D02*
D03*
X276181Y96653D02*
D03*
X273031D02*
D03*
X256102Y101969D02*
D03*
X252953D02*
D03*
X256102Y96457D02*
D03*
X252953D02*
D03*
D58*
X242185Y50394D02*
D03*
D59*
X247185D02*
D03*
X252185D02*
D03*
X257185D02*
D03*
X262185D02*
D03*
X267185D02*
D03*
X272185D02*
D03*
X277185D02*
D03*
X282185D02*
D03*
X287185D02*
D03*
X292185D02*
D03*
X297185D02*
D03*
X242185Y87402D02*
D03*
X247185D02*
D03*
X252185D02*
D03*
X257185D02*
D03*
X262185D02*
D03*
X267185D02*
D03*
X272185D02*
D03*
X277185D02*
D03*
X282185D02*
D03*
X287185D02*
D03*
X292185D02*
D03*
X297185D02*
D03*
D60*
X199803Y91535D02*
D03*
D61*
Y87795D02*
D03*
Y84055D02*
D03*
X210630D02*
D03*
Y91535D02*
D03*
D62*
X334646Y136142D02*
D03*
Y99921D02*
D03*
Y185236D02*
D03*
Y149016D02*
D03*
D63*
X312677Y114094D02*
D03*
Y163189D02*
D03*
D64*
Y121968D02*
D03*
Y171063D02*
D03*
D65*
X284764Y198819D02*
D03*
X274764D02*
D03*
X264764D02*
D03*
X254764D02*
D03*
D66*
X244764D02*
D03*
D67*
X243701Y10630D02*
D03*
X231890D02*
D03*
X172835Y6929D02*
D03*
X255512D02*
D03*
X196457Y22441D02*
D03*
X208268D02*
D03*
X220079D02*
D03*
X243701D02*
D03*
X185039Y10630D02*
D03*
X196850D02*
D03*
X208661D02*
D03*
X231890Y22441D02*
D03*
X220079Y10630D02*
D03*
X138573Y6890D02*
D03*
X162195D02*
D03*
X150778Y10591D02*
D03*
X382874Y73819D02*
D03*
X386575Y85236D02*
D03*
Y61614D02*
D03*
X11811Y141732D02*
D03*
Y153543D02*
D03*
Y165354D02*
D03*
Y177165D02*
D03*
X23622Y141732D02*
D03*
Y153543D02*
D03*
Y165354D02*
D03*
X8110Y129921D02*
D03*
Y188976D02*
D03*
X8110Y116142D02*
D03*
Y45276D02*
D03*
X23622Y92520D02*
D03*
Y80709D02*
D03*
Y68898D02*
D03*
X11811Y103937D02*
D03*
Y92126D02*
D03*
Y80315D02*
D03*
Y68504D02*
D03*
X23622Y57087D02*
D03*
X11811D02*
D03*
X329921Y10630D02*
D03*
X318110D02*
D03*
X270866Y6929D02*
D03*
X365354D02*
D03*
X294488Y22441D02*
D03*
X306299D02*
D03*
X318110D02*
D03*
X341732D02*
D03*
X353543D02*
D03*
X283071Y10630D02*
D03*
X294882D02*
D03*
X329921Y22441D02*
D03*
X306299Y10630D02*
D03*
X341732D02*
D03*
X353543D02*
D03*
D68*
X184646Y22441D02*
D03*
X150778Y22402D02*
D03*
X282677Y22441D02*
D03*
D69*
X371063Y73819D02*
D03*
X23622Y177165D02*
D03*
X23622Y104331D02*
D03*
D70*
X386811Y33465D02*
D03*
D71*
X376969D02*
D03*
D72*
X383858Y206693D02*
D03*
X9843Y9843D02*
D03*
Y206693D02*
D03*
X383858Y9843D02*
D03*
D73*
X214961Y153543D02*
D03*
X213583Y132677D02*
D03*
X190551Y203740D02*
D03*
X186516Y207776D02*
D03*
X181201D02*
D03*
X176378Y203740D02*
D03*
X227362Y110236D02*
D03*
Y113702D02*
D03*
X32283Y68898D02*
D03*
X35433D02*
D03*
X156496Y176742D02*
D03*
X149707Y176969D02*
D03*
X149728Y181102D02*
D03*
X149606Y186024D02*
D03*
X169291Y192707D02*
D03*
Y188976D02*
D03*
Y185039D02*
D03*
Y181102D02*
D03*
Y177165D02*
D03*
X165354D02*
D03*
Y181102D02*
D03*
Y185039D02*
D03*
Y188976D02*
D03*
Y192707D02*
D03*
X346260Y73819D02*
D03*
X205512Y120079D02*
D03*
X185433Y127165D02*
D03*
X191368Y126392D02*
D03*
Y119331D02*
D03*
X225020Y142126D02*
D03*
X201575Y108536D02*
D03*
X193701Y108778D02*
D03*
X194882Y95079D02*
D03*
X136614Y101575D02*
D03*
X136811Y112283D02*
D03*
X53937Y50000D02*
D03*
X40945Y50000D02*
D03*
X50000D02*
D03*
X58071Y52652D02*
D03*
Y55271D02*
D03*
X53937Y53509D02*
D03*
Y60527D02*
D03*
Y57018D02*
D03*
X297185Y93445D02*
D03*
X218504Y82677D02*
D03*
X202672Y113406D02*
D03*
X249166Y73813D02*
D03*
X213386Y194882D02*
D03*
X199213Y195079D02*
D03*
X60433Y206496D02*
D03*
X309154Y51181D02*
D03*
X160433Y35827D02*
D03*
X277185Y80709D02*
D03*
X285433Y37402D02*
D03*
X281890Y38189D02*
D03*
X298425Y37402D02*
D03*
X345669Y35827D02*
D03*
X322047D02*
D03*
X310236Y35630D02*
D03*
X202136Y35827D02*
D03*
X213583D02*
D03*
X224705D02*
D03*
X261811Y44291D02*
D03*
X357283Y41043D02*
D03*
X345472D02*
D03*
X333661D02*
D03*
X321850D02*
D03*
X310039D02*
D03*
X240158D02*
D03*
X228346D02*
D03*
X216535D02*
D03*
X204724D02*
D03*
X192913D02*
D03*
X180118D02*
D03*
X157480D02*
D03*
X88583Y97047D02*
D03*
X287401Y44291D02*
D03*
X318110Y86221D02*
D03*
X86221Y192913D02*
D03*
X174213Y122047D02*
D03*
X170866Y125394D02*
D03*
X282185Y80709D02*
D03*
X279646Y60039D02*
D03*
X276181D02*
D03*
X273031D02*
D03*
X256890Y79724D02*
D03*
X251969Y76772D02*
D03*
X232480Y127717D02*
D03*
X227362Y91535D02*
D03*
X232382Y153543D02*
D03*
X292185Y44429D02*
D03*
Y93366D02*
D03*
X203484Y87795D02*
D03*
X196063D02*
D03*
X222441Y86221D02*
D03*
X213976D02*
D03*
X287185Y81693D02*
D03*
Y93504D02*
D03*
X244921Y102236D02*
D03*
X193720Y115335D02*
D03*
X269567Y60039D02*
D03*
X249488D02*
D03*
X252953D02*
D03*
X256102D02*
D03*
X259567D02*
D03*
X183916Y108268D02*
D03*
X174724D02*
D03*
X215453Y110138D02*
D03*
X225020Y123406D02*
D03*
X178974Y163189D02*
D03*
X183916Y137795D02*
D03*
X224705Y187008D02*
D03*
X174409Y136142D02*
D03*
X258661Y185236D02*
D03*
X309449Y85039D02*
D03*
X297185Y44291D02*
D03*
X300197Y50394D02*
D03*
X113189Y191929D02*
D03*
X86614Y174212D02*
D03*
X183071Y112205D02*
D03*
X173425Y112205D02*
D03*
X185039Y115157D02*
D03*
X174409Y116732D02*
D03*
X166339Y125000D02*
D03*
X149606Y192913D02*
D03*
X145079Y196850D02*
D03*
X102362Y41339D02*
D03*
X106299Y57087D02*
D03*
X182283Y92126D02*
D03*
X169291Y106299D02*
D03*
X155511Y106299D02*
D03*
X165354Y112205D02*
D03*
Y106299D02*
D03*
X156496Y112205D02*
D03*
X157480Y92519D02*
D03*
X92519Y90551D02*
D03*
X113189Y86614D02*
D03*
X136811Y145669D02*
D03*
X133858Y148622D02*
D03*
X92519Y171259D02*
D03*
X158465Y149606D02*
D03*
Y159035D02*
D03*
X140748Y26575D02*
D03*
X147638Y57087D02*
D03*
X145669Y133858D02*
D03*
X156890Y124016D02*
D03*
X145079Y125394D02*
D03*
X125000D02*
D03*
X134842Y122047D02*
D03*
X136811Y138779D02*
D03*
X126417Y133268D02*
D03*
X127953Y138198D02*
D03*
X146260Y95079D02*
D03*
X96457Y72835D02*
D03*
X63976Y146142D02*
D03*
X74803Y37402D02*
D03*
Y68898D02*
D03*
X40354Y27559D02*
D03*
X45276Y90551D02*
D03*
X64961Y108268D02*
D03*
X102362Y62008D02*
D03*
X91535Y118110D02*
D03*
X74803Y62992D02*
D03*
X74803Y74803D02*
D03*
X74803Y78740D02*
D03*
Y86614D02*
D03*
Y92126D02*
D03*
Y104331D02*
D03*
X96457Y143701D02*
D03*
X74803Y138779D02*
D03*
X91535Y189961D02*
D03*
X51181Y133858D02*
D03*
X55118Y153543D02*
D03*
X139764Y168307D02*
D03*
X88583Y26575D02*
D03*
X133858Y93504D02*
D03*
X140748Y62008D02*
D03*
X88583Y59055D02*
D03*
Y133858D02*
D03*
X74803Y171260D02*
D03*
X88583Y203740D02*
D03*
X139764D02*
D03*
X74803Y147963D02*
D03*
Y159449D02*
D03*
X54134Y165354D02*
D03*
Y171260D02*
D03*
X59055Y185039D02*
D03*
X185039Y98425D02*
D03*
X157480Y117126D02*
D03*
X156496Y130905D02*
D03*
X160433Y141732D02*
D03*
X156496Y141732D02*
D03*
X169291Y112205D02*
D03*
X166339Y118110D02*
D03*
X169291Y135827D02*
D03*
X165354Y135827D02*
D03*
X146653Y137795D02*
D03*
X156496Y135827D02*
D03*
M02*
