G04*
G04 #@! TF.GenerationSoftware,Altium Limited,Altium Designer,18.0.11 (651)*
G04*
G04 Layer_Color=8388736*
%FSLAX25Y25*%
%MOIN*%
G70*
G01*
G75*
%ADD17R,0.03150X0.00787*%
%ADD18R,0.00787X0.03150*%
%ADD42R,0.07493X0.04737*%
%ADD43R,0.01981X0.02769*%
%ADD44R,0.02769X0.01981*%
%ADD45R,0.04737X0.07493*%
%ADD46R,0.04143X0.04537*%
%ADD47R,0.19934X0.14028*%
%ADD48R,0.06312X0.06272*%
%ADD49R,0.06312X0.05328*%
%ADD50R,0.04147X0.04147*%
%ADD51R,0.03950X0.03950*%
%ADD52R,0.04537X0.04143*%
%ADD53R,0.05524X0.07296*%
%ADD54R,0.07296X0.05524*%
%ADD55R,0.07887X0.03950*%
%ADD56O,0.07099X0.01981*%
%ADD57R,0.07099X0.01981*%
%ADD58R,0.05524X0.07099*%
%ADD59R,0.03950X0.03950*%
%ADD60R,0.01981X0.03910*%
%ADD61R,0.02375X0.01784*%
%ADD62R,0.04737X0.05524*%
%ADD63R,0.03910X0.01981*%
%ADD64R,0.01784X0.02375*%
%ADD65R,0.05524X0.04737*%
%ADD66R,0.04147X0.04147*%
%ADD67R,0.06800X0.06800*%
%ADD68C,0.06800*%
%ADD69R,0.06800X0.06800*%
%ADD70C,0.07099*%
%ADD71R,0.07099X0.07099*%
%ADD72R,0.07099X0.07099*%
%ADD73C,0.00800*%
%ADD74C,0.03556*%
%ADD75C,0.06706*%
%ADD76R,0.06706X0.06706*%
%ADD77C,0.11430*%
%ADD78C,0.03162*%
D17*
X176772Y212795D02*
D03*
X264941Y84933D02*
D03*
X77559Y193004D02*
D03*
X54921D02*
D03*
X35236Y193791D02*
D03*
D18*
X190118Y45760D02*
D03*
Y67216D02*
D03*
X37205Y258358D02*
D03*
X190118Y87492D02*
D03*
D42*
X178740Y209842D02*
D03*
X262972Y87886D02*
D03*
X79528Y190051D02*
D03*
X56890D02*
D03*
X37205Y190839D02*
D03*
D43*
X181693Y213386D02*
D03*
X179724D02*
D03*
X177756D02*
D03*
X175787D02*
D03*
Y206299D02*
D03*
X177756D02*
D03*
X179724D02*
D03*
X181693D02*
D03*
X260020Y84342D02*
D03*
X261988D02*
D03*
X263957D02*
D03*
X265925D02*
D03*
Y91429D02*
D03*
X263957D02*
D03*
X261988D02*
D03*
X260020D02*
D03*
X82480Y186508D02*
D03*
X80512D02*
D03*
X78543D02*
D03*
X76575D02*
D03*
Y193595D02*
D03*
X78543D02*
D03*
X80512D02*
D03*
X82480D02*
D03*
X59843D02*
D03*
X57874D02*
D03*
X55906D02*
D03*
X53937D02*
D03*
Y186508D02*
D03*
X55906D02*
D03*
X57874D02*
D03*
X59843D02*
D03*
X40157Y187295D02*
D03*
X38189D02*
D03*
X36220D02*
D03*
X34252D02*
D03*
Y194382D02*
D03*
X36220D02*
D03*
X38189D02*
D03*
X40157D02*
D03*
D44*
X183622Y40839D02*
D03*
Y42807D02*
D03*
Y44776D02*
D03*
Y46744D02*
D03*
X190709D02*
D03*
Y44776D02*
D03*
Y42807D02*
D03*
Y40839D02*
D03*
X183622Y62295D02*
D03*
Y64264D02*
D03*
Y66232D02*
D03*
Y68201D02*
D03*
X190709D02*
D03*
Y66232D02*
D03*
Y64264D02*
D03*
Y62295D02*
D03*
X37795Y253437D02*
D03*
Y255405D02*
D03*
Y257374D02*
D03*
Y259343D02*
D03*
X30709D02*
D03*
Y257374D02*
D03*
Y255405D02*
D03*
Y253437D02*
D03*
X190709Y82571D02*
D03*
Y84539D02*
D03*
Y86508D02*
D03*
Y88476D02*
D03*
X183622D02*
D03*
Y86508D02*
D03*
Y84539D02*
D03*
Y82571D02*
D03*
D45*
X187165Y43791D02*
D03*
Y65248D02*
D03*
X34252Y256390D02*
D03*
X187165Y85524D02*
D03*
D46*
X170236Y43398D02*
D03*
X164921D02*
D03*
X170236Y64961D02*
D03*
X164921D02*
D03*
X170374Y86614D02*
D03*
X165059D02*
D03*
X252461Y103937D02*
D03*
X257776D02*
D03*
X190236Y55307D02*
D03*
X184921D02*
D03*
D47*
X168898Y260630D02*
D03*
D48*
X184547Y256988D02*
D03*
Y264232D02*
D03*
D49*
X161417Y216043D02*
D03*
Y209154D02*
D03*
D50*
X165059Y160630D02*
D03*
X171161D02*
D03*
X137303Y193201D02*
D03*
X131201D02*
D03*
D51*
X183071Y160709D02*
D03*
X177165D02*
D03*
X137008Y202650D02*
D03*
X131102D02*
D03*
X152362Y111024D02*
D03*
X158268D02*
D03*
X152362Y88150D02*
D03*
X158268D02*
D03*
X152362Y48181D02*
D03*
X158268D02*
D03*
X151772Y66102D02*
D03*
X157677D02*
D03*
D52*
X179134Y194783D02*
D03*
Y189469D02*
D03*
X68898Y200287D02*
D03*
Y194973D02*
D03*
X82677Y168398D02*
D03*
Y173713D02*
D03*
X22047Y248122D02*
D03*
Y253437D02*
D03*
X59449Y168398D02*
D03*
Y173713D02*
D03*
X37008Y168398D02*
D03*
Y173713D02*
D03*
D53*
X87008Y200681D02*
D03*
X75984D02*
D03*
X62205D02*
D03*
X51181D02*
D03*
X259449Y66535D02*
D03*
X270472D02*
D03*
X33071Y200681D02*
D03*
X44094D02*
D03*
D54*
X202126Y58063D02*
D03*
Y69087D02*
D03*
Y50681D02*
D03*
Y39658D02*
D03*
X52756Y266929D02*
D03*
Y255906D02*
D03*
X202126Y93496D02*
D03*
Y82472D02*
D03*
D55*
X22449Y90161D02*
D03*
Y28744D02*
D03*
D56*
X15362Y83075D02*
D03*
Y81106D02*
D03*
Y79138D02*
D03*
Y77169D02*
D03*
Y75201D02*
D03*
Y73232D02*
D03*
Y71264D02*
D03*
Y69295D02*
D03*
Y67327D02*
D03*
Y65358D02*
D03*
Y63390D02*
D03*
Y61421D02*
D03*
Y59453D02*
D03*
Y57484D02*
D03*
Y55516D02*
D03*
Y53547D02*
D03*
Y51579D02*
D03*
Y49610D02*
D03*
Y47642D02*
D03*
Y45673D02*
D03*
Y43705D02*
D03*
Y41736D02*
D03*
Y39768D02*
D03*
Y37799D02*
D03*
Y35831D02*
D03*
X29535D02*
D03*
Y37799D02*
D03*
Y39768D02*
D03*
Y41736D02*
D03*
Y43705D02*
D03*
Y45673D02*
D03*
Y47642D02*
D03*
Y49610D02*
D03*
Y51579D02*
D03*
Y53547D02*
D03*
Y55516D02*
D03*
Y57484D02*
D03*
Y59453D02*
D03*
Y61421D02*
D03*
Y63390D02*
D03*
Y65358D02*
D03*
Y67327D02*
D03*
Y69295D02*
D03*
Y71264D02*
D03*
Y73232D02*
D03*
Y75201D02*
D03*
Y77169D02*
D03*
Y79138D02*
D03*
Y81106D02*
D03*
D57*
Y83075D02*
D03*
D58*
X195669Y220866D02*
D03*
X184646D02*
D03*
D59*
X174409Y177559D02*
D03*
Y183465D02*
D03*
X205118Y185249D02*
D03*
Y191155D02*
D03*
X190945Y120472D02*
D03*
Y126378D02*
D03*
X77953Y150000D02*
D03*
Y155905D02*
D03*
X16929Y150000D02*
D03*
Y155905D02*
D03*
X33858Y150000D02*
D03*
Y155905D02*
D03*
X55118Y150000D02*
D03*
Y155905D02*
D03*
D60*
X217559Y184252D02*
D03*
D61*
X223031Y187894D02*
D03*
X220472D02*
D03*
X217913D02*
D03*
Y180610D02*
D03*
X220472D02*
D03*
X223031D02*
D03*
D62*
X221654Y184252D02*
D03*
D63*
X134154Y212335D02*
D03*
D64*
X130512Y217807D02*
D03*
Y215248D02*
D03*
Y212689D02*
D03*
X137795D02*
D03*
Y215248D02*
D03*
Y217807D02*
D03*
D65*
X134154Y216429D02*
D03*
D66*
X205905Y207592D02*
D03*
Y201489D02*
D03*
X198819Y119783D02*
D03*
Y125886D02*
D03*
D67*
X105512Y198031D02*
D03*
D68*
Y188189D02*
D03*
X186179Y23024D02*
D03*
D69*
X196021D02*
D03*
D70*
X192520Y238858D02*
D03*
X159055D02*
D03*
X182677Y241339D02*
D03*
X239646Y171653D02*
D03*
Y205118D02*
D03*
X242126Y181496D02*
D03*
X224410Y81496D02*
D03*
Y67716D02*
D03*
Y53937D02*
D03*
X242520D02*
D03*
Y67716D02*
D03*
X242126Y135039D02*
D03*
X239646Y158661D02*
D03*
Y125197D02*
D03*
X143898Y238575D02*
D03*
X110433D02*
D03*
X134055Y241055D02*
D03*
X45276Y221547D02*
D03*
X59055D02*
D03*
X72835D02*
D03*
Y239657D02*
D03*
X59055D02*
D03*
D71*
X168898Y241339D02*
D03*
X120276Y241055D02*
D03*
X45276Y239657D02*
D03*
D72*
X242126Y195276D02*
D03*
X242520Y81496D02*
D03*
X242126Y148819D02*
D03*
D73*
X230000Y44094D02*
D03*
Y91339D02*
D03*
X82677Y227138D02*
D03*
X35433D02*
D03*
D74*
X16543Y87209D02*
D03*
Y31697D02*
D03*
D75*
X145433Y147138D02*
D03*
X181733Y152363D02*
D03*
X145669Y162992D02*
D03*
D76*
X135433Y147138D02*
D03*
X191733Y152363D02*
D03*
X135669Y162992D02*
D03*
D77*
X264961Y11811D02*
D03*
X266929Y264961D02*
D03*
X9843Y265642D02*
D03*
X10638Y10240D02*
D03*
X128748D02*
D03*
X130709Y110736D02*
D03*
X10638Y108665D02*
D03*
D78*
X174409Y225984D02*
D03*
M02*
