G04*
G04 #@! TF.GenerationSoftware,Altium Limited,Altium Designer,19.1.7 (138)*
G04*
G04 Layer_Color=8388736*
%FSLAX25Y25*%
%MOIN*%
G70*
G01*
G75*
%ADD26R,0.06902X0.14383*%
%ADD27R,0.07887X0.18910*%
%ADD28R,0.04147X0.04147*%
%ADD29R,0.04147X0.04147*%
%ADD30R,0.07887X0.06312*%
%ADD31R,0.04537X0.04143*%
%ADD32R,0.20485X0.20485*%
G04:AMPARAMS|DCode=33|XSize=68mil|YSize=183mil|CornerRadius=19mil|HoleSize=0mil|Usage=FLASHONLY|Rotation=0.000|XOffset=0mil|YOffset=0mil|HoleType=Round|Shape=RoundedRectangle|*
%AMROUNDEDRECTD33*
21,1,0.06800,0.14500,0,0,0.0*
21,1,0.03000,0.18300,0,0,0.0*
1,1,0.03800,0.01500,-0.07250*
1,1,0.03800,-0.01500,-0.07250*
1,1,0.03800,-0.01500,0.07250*
1,1,0.03800,0.01500,0.07250*
%
%ADD33ROUNDEDRECTD33*%
%ADD34R,0.08280X0.22060*%
%ADD35R,0.03950X0.03950*%
%ADD36R,0.06706X0.17335*%
%ADD37C,0.16942*%
%ADD38C,0.10642*%
%ADD39C,0.18595*%
%ADD40C,0.16430*%
%ADD41C,0.07769*%
%ADD42C,0.09776*%
%ADD43C,0.10288*%
%ADD44R,0.07099X0.07099*%
%ADD45C,0.07099*%
%ADD46C,0.00800*%
%ADD47C,0.09461*%
%ADD48C,0.11430*%
%ADD49R,0.04343X0.04343*%
%ADD50C,0.04343*%
%ADD51C,0.19698*%
%ADD52R,0.19698X0.19698*%
%ADD53R,0.05524X0.05524*%
%ADD54C,0.05524*%
%ADD55R,0.07099X0.07099*%
%ADD56C,0.12611*%
%ADD57R,0.12611X0.12611*%
%ADD58C,0.10800*%
D26*
X629921Y159252D02*
D03*
Y136024D02*
D03*
D27*
X619291Y108268D02*
D03*
X643701D02*
D03*
D28*
X626083Y77756D02*
D03*
X619980D02*
D03*
D29*
X234252Y42421D02*
D03*
Y36319D02*
D03*
X248031Y28642D02*
D03*
Y22539D02*
D03*
X240158D02*
D03*
Y28642D02*
D03*
X282480Y22539D02*
D03*
Y28642D02*
D03*
X255906D02*
D03*
Y22539D02*
D03*
X264764D02*
D03*
Y28642D02*
D03*
D30*
X132283Y138091D02*
D03*
Y127264D02*
D03*
X40157Y155020D02*
D03*
Y144193D02*
D03*
D31*
X491142Y30217D02*
D03*
Y24902D02*
D03*
X650591Y145374D02*
D03*
Y140059D02*
D03*
X273622Y34154D02*
D03*
Y28839D02*
D03*
D32*
X246457Y121260D02*
D03*
D33*
X118720Y145822D02*
D03*
X53720D02*
D03*
Y101422D02*
D03*
X118720D02*
D03*
D34*
X254921Y59055D02*
D03*
X235630D02*
D03*
X255512Y83858D02*
D03*
X236221D02*
D03*
D35*
X234252Y23622D02*
D03*
Y29528D02*
D03*
D36*
X240158Y195276D02*
D03*
X254331Y195276D02*
D03*
D37*
X392717Y61024D02*
D03*
X376969Y187008D02*
D03*
X306102Y189370D02*
D03*
Y58661D02*
D03*
X463583D02*
D03*
Y189370D02*
D03*
D38*
X320000Y69016D02*
D03*
X415197Y179016D02*
D03*
X354488Y69016D02*
D03*
D39*
X337598Y182205D02*
D03*
X432087Y65827D02*
D03*
X337598D02*
D03*
Y182205D02*
D03*
X432087D02*
D03*
X406496Y65827D02*
D03*
X363189Y182205D02*
D03*
D40*
X371063Y69016D02*
D03*
X398622Y179016D02*
D03*
X449685D02*
D03*
X320000D02*
D03*
Y69016D02*
D03*
X449685D02*
D03*
D41*
X311024Y108268D02*
D03*
Y118583D02*
D03*
Y129449D02*
D03*
D42*
Y92520D02*
D03*
Y155512D02*
D03*
D43*
X458661Y91535D02*
D03*
Y113189D02*
D03*
Y134843D02*
D03*
Y156496D02*
D03*
D44*
X558071Y24606D02*
D03*
D45*
X544291D02*
D03*
X530512D02*
D03*
X22835Y167717D02*
D03*
X25315Y144095D02*
D03*
Y177559D02*
D03*
D46*
X567913Y27087D02*
D03*
X520669D02*
D03*
D47*
X636142Y53307D02*
D03*
X646142D02*
D03*
X626142D02*
D03*
X616142D02*
D03*
X606142D02*
D03*
X646142Y63307D02*
D03*
Y43307D02*
D03*
Y33307D02*
D03*
Y23307D02*
D03*
X606142Y63307D02*
D03*
X616142D02*
D03*
X626142D02*
D03*
X636142D02*
D03*
X606142Y43307D02*
D03*
X616142D02*
D03*
X626142D02*
D03*
X636142D02*
D03*
X606142Y33307D02*
D03*
X616142D02*
D03*
X626142D02*
D03*
X636142D02*
D03*
X606142Y23307D02*
D03*
X616142D02*
D03*
X626142D02*
D03*
X636142D02*
D03*
X636969Y183740D02*
D03*
X626968D02*
D03*
X616968D02*
D03*
X606968D02*
D03*
X636969Y193740D02*
D03*
X626968D02*
D03*
X616968D02*
D03*
X606968D02*
D03*
X636969Y203740D02*
D03*
X626968D02*
D03*
X616968D02*
D03*
X606968D02*
D03*
X636969Y223740D02*
D03*
X626968D02*
D03*
X616968D02*
D03*
X606968D02*
D03*
X646969Y183740D02*
D03*
Y193740D02*
D03*
Y203740D02*
D03*
Y223740D02*
D03*
X606968Y213740D02*
D03*
X616968D02*
D03*
X626968D02*
D03*
X646969D02*
D03*
X636969D02*
D03*
D48*
X648622Y240158D02*
D03*
Y7874D02*
D03*
X8858Y239173D02*
D03*
Y8858D02*
D03*
D49*
X584646Y14764D02*
D03*
D50*
Y24606D02*
D03*
D51*
X559055Y143701D02*
D03*
X179134Y85630D02*
D03*
X180118Y160433D02*
D03*
D52*
X559055Y104331D02*
D03*
X179134Y46260D02*
D03*
X180118Y199803D02*
D03*
D53*
X494095Y129921D02*
D03*
Y78740D02*
D03*
X274606Y169291D02*
D03*
Y118110D02*
D03*
D54*
X494095Y169291D02*
D03*
Y118110D02*
D03*
X274606Y129921D02*
D03*
Y78740D02*
D03*
D55*
X22835Y153937D02*
D03*
D56*
X23228Y25591D02*
D03*
D57*
X23228Y114567D02*
D03*
D58*
X190800Y131900D02*
D03*
X170100Y132200D02*
D03*
M02*
