G04*
G04 #@! TF.GenerationSoftware,Altium Limited,Altium Designer,18.1.9 (240)*
G04*
G04 Layer_Color=16711935*
%FSLAX25Y25*%
%MOIN*%
G70*
G01*
G75*
%ADD12C,0.00394*%
%ADD67R,0.00847X0.03150*%
D12*
X152953Y133940D02*
G03*
X152953Y133940I-1969J0D01*
G01*
X103248Y133923D02*
G03*
X103248Y133923I-1969J0D01*
G01*
X142323Y137484D02*
X154527D01*
X142323Y125279D02*
X154527D01*
Y137484D01*
X142323Y125279D02*
Y137484D01*
X97736Y130380D02*
X109941D01*
X97736Y142585D02*
X109941D01*
X97736Y130380D02*
Y142585D01*
X109941Y130380D02*
Y142585D01*
X60315Y151798D02*
X64095D01*
X60315Y144908D02*
X64095D01*
Y151798D01*
X60315Y144908D02*
Y151798D01*
X54528Y145269D02*
X57677D01*
X54528Y151568D02*
X57677D01*
X54528Y145269D02*
Y151568D01*
X57677Y145269D02*
Y151568D01*
X45276Y127835D02*
X52165D01*
X45276Y131614D02*
X52165D01*
Y127835D02*
Y131614D01*
X45276Y127835D02*
Y131614D01*
X63071Y138074D02*
X66850D01*
X63071Y131185D02*
X66850D01*
Y138074D01*
X63071Y131185D02*
Y138074D01*
X70472Y138567D02*
X76968D01*
X70472Y133645D02*
X76968D01*
Y138567D01*
X70472Y133645D02*
Y138567D01*
X77362Y126342D02*
Y130122D01*
X70472Y126342D02*
Y130122D01*
Y126342D02*
X77362D01*
X70472Y130122D02*
X77362D01*
X100807Y150814D02*
Y153963D01*
X94508Y150814D02*
Y153963D01*
Y150814D02*
X100807D01*
X94508Y153963D02*
X100807D01*
X106378Y150499D02*
Y154278D01*
X113268Y150499D02*
Y154278D01*
X106378D02*
X113268D01*
X106378Y150499D02*
X113268D01*
X88661Y135630D02*
X92441D01*
X88661Y142520D02*
X92441D01*
X88661Y135630D02*
Y142520D01*
X92441Y135630D02*
Y142520D01*
X95055Y122543D02*
X101944D01*
X95055Y118763D02*
X101944D01*
X95055D02*
Y122543D01*
X101944Y118763D02*
Y122543D01*
X107097Y119078D02*
Y122228D01*
X113396Y119078D02*
Y122228D01*
X107097D02*
X113396D01*
X107097Y119078D02*
X113396D01*
X123701Y151207D02*
X127480D01*
X123701Y144318D02*
X127480D01*
Y151207D01*
X123701Y144318D02*
Y151207D01*
X148425Y151654D02*
Y155433D01*
X155315Y151654D02*
Y155433D01*
X148425D02*
X155315D01*
X148425Y151654D02*
X155315D01*
X148425Y145437D02*
Y149216D01*
X155315Y145437D02*
Y149216D01*
X148425D02*
X155315D01*
X148425Y145437D02*
X155315D01*
X142896Y145923D02*
Y149073D01*
X136597Y145923D02*
Y149073D01*
Y145923D02*
X142896D01*
X136597Y149073D02*
X142896D01*
X116535Y137205D02*
X119685D01*
X116535Y130905D02*
X119685D01*
Y137205D01*
X116535Y130905D02*
Y137205D01*
X128138Y128051D02*
X131287D01*
X128138Y134350D02*
X131287D01*
X128138Y128051D02*
Y134350D01*
X131287Y128051D02*
Y134350D01*
X134900Y128274D02*
X138680D01*
X134900Y121385D02*
X138680D01*
Y128274D01*
X134900Y121385D02*
Y128274D01*
X150374Y115442D02*
X154154D01*
X150374Y108553D02*
X154154D01*
Y115442D01*
X150374Y108553D02*
Y115442D01*
X141317Y79528D02*
X144467D01*
X141317Y85828D02*
X144467D01*
X141317Y79528D02*
Y85828D01*
X144467Y79528D02*
Y85828D01*
X120529Y81005D02*
Y84154D01*
X114229Y81005D02*
Y84154D01*
Y81005D02*
X120529D01*
X114229Y84154D02*
X120529D01*
X126729Y81005D02*
Y84154D01*
X133029Y81005D02*
Y84154D01*
X126729D02*
X133029D01*
X126729Y81005D02*
X133029D01*
X126040Y74784D02*
Y78564D01*
X132930Y74784D02*
Y78564D01*
X126040D02*
X132930D01*
X126040Y74784D02*
X132930D01*
X121218Y74784D02*
Y78564D01*
X114328Y74784D02*
Y78564D01*
Y74784D02*
X121218D01*
X114328Y78564D02*
X121218D01*
X98699Y71912D02*
X101849D01*
X98699Y78211D02*
X101849D01*
X98699Y71912D02*
Y78211D01*
X101849Y71912D02*
Y78211D01*
X122244Y56181D02*
Y59961D01*
X129134Y56181D02*
Y59961D01*
X122244D02*
X129134D01*
X122244Y56181D02*
X129134D01*
X105118Y63071D02*
Y66850D01*
X98228Y63071D02*
Y66850D01*
Y63071D02*
X105118D01*
X98228Y66850D02*
X105118D01*
X106227Y41043D02*
X109377D01*
X106227Y47343D02*
X109377D01*
X106227Y41043D02*
Y47343D01*
X109377Y41043D02*
Y47343D01*
X100223Y41142D02*
X103373D01*
X100223Y47441D02*
X103373D01*
X100223Y41142D02*
Y47441D01*
X103373Y41142D02*
Y47441D01*
X94297Y41043D02*
X97446D01*
X94297Y47343D02*
X97446D01*
X94297Y41043D02*
Y47343D01*
X97446Y41043D02*
Y47343D01*
X30531Y67323D02*
Y70473D01*
X36830Y67323D02*
Y70473D01*
X30531D02*
X36830D01*
X30531Y67323D02*
X36830D01*
X37179Y61378D02*
Y64527D01*
X30880Y61378D02*
Y64527D01*
Y61378D02*
X37179D01*
X30880Y64527D02*
X37179D01*
X108955Y71616D02*
Y78506D01*
X105176Y71616D02*
Y78506D01*
X108955D01*
X105176Y71616D02*
X108955D01*
D67*
X36407Y68898D02*
D03*
M02*
