G04*
G04 #@! TF.GenerationSoftware,Altium Limited,Altium Designer,20.0.9 (164)*
G04*
G04 Layer_Physical_Order=2*
G04 Layer_Color=16711680*
%FSLAX25Y25*%
%MOIN*%
G70*
G01*
G75*
%ADD11C,0.01968*%
%ADD13C,0.01000*%
%ADD58R,0.03937X0.03937*%
%ADD61C,0.00606*%
%ADD63R,0.07087X0.07087*%
%ADD64C,0.07087*%
%ADD65R,0.06299X0.06299*%
%ADD66C,0.06299*%
%ADD67R,0.06299X0.06299*%
%ADD68C,0.10630*%
%ADD69C,0.05906*%
%ADD70C,0.02756*%
%ADD71C,0.05000*%
%ADD72C,0.02362*%
G36*
X176369Y119000D02*
X176493Y118376D01*
X176847Y117847D01*
X177376Y117493D01*
X178000Y117369D01*
X314369D01*
Y1631D01*
X1631Y1631D01*
X1631Y94982D01*
X2131Y95151D01*
X2533Y94628D01*
X3399Y93963D01*
X4407Y93546D01*
X5488Y93404D01*
X6570Y93546D01*
X7578Y93963D01*
X8443Y94628D01*
X9107Y95493D01*
X9525Y96501D01*
X9667Y97583D01*
X9525Y98664D01*
X9107Y99672D01*
X8443Y100538D01*
X7578Y101202D01*
X6570Y101619D01*
X5488Y101762D01*
X4407Y101619D01*
X3399Y101202D01*
X2533Y100538D01*
X2131Y100014D01*
X1631Y100184D01*
Y118604D01*
X2131Y118773D01*
X2533Y118250D01*
X3399Y117586D01*
X4407Y117168D01*
X5488Y117026D01*
X6570Y117168D01*
X7578Y117586D01*
X8443Y118250D01*
X9107Y119115D01*
X9525Y120123D01*
X9667Y121205D01*
X9525Y122286D01*
X9107Y123294D01*
X8443Y124160D01*
X7578Y124824D01*
X6570Y125241D01*
X5488Y125384D01*
X4407Y125241D01*
X3399Y124824D01*
X2533Y124160D01*
X2131Y123636D01*
X1631Y123806D01*
Y175369D01*
X176369Y175369D01*
Y119000D01*
D02*
G37*
%LPC*%
G36*
X146878Y173921D02*
Y170500D01*
X150299D01*
X150229Y171032D01*
X149831Y171993D01*
X149197Y172819D01*
X148371Y173453D01*
X147410Y173851D01*
X146878Y173921D01*
D02*
G37*
G36*
X111878D02*
Y170500D01*
X115299D01*
X115229Y171032D01*
X114831Y171993D01*
X114197Y172819D01*
X113371Y173453D01*
X112410Y173851D01*
X111878Y173921D01*
D02*
G37*
G36*
X76878D02*
Y170500D01*
X80299D01*
X80229Y171032D01*
X79831Y171993D01*
X79197Y172819D01*
X78371Y173453D01*
X77410Y173851D01*
X76878Y173921D01*
D02*
G37*
G36*
X110878D02*
X110346Y173851D01*
X109385Y173453D01*
X108559Y172819D01*
X107925Y171993D01*
X107527Y171032D01*
X107457Y170500D01*
X110878D01*
Y173921D01*
D02*
G37*
G36*
X145878D02*
X145346Y173851D01*
X144385Y173453D01*
X143559Y172819D01*
X142925Y171993D01*
X142527Y171032D01*
X142457Y170500D01*
X145878D01*
Y173921D01*
D02*
G37*
G36*
X75878D02*
X75346Y173851D01*
X74384Y173453D01*
X73559Y172819D01*
X72925Y171993D01*
X72527Y171032D01*
X72457Y170500D01*
X75878D01*
Y173921D01*
D02*
G37*
G36*
X170500D02*
Y170500D01*
X173921D01*
X173851Y171032D01*
X173453Y171993D01*
X172819Y172819D01*
X171993Y173453D01*
X171032Y173851D01*
X170500Y173921D01*
D02*
G37*
G36*
X135500D02*
Y170500D01*
X138921D01*
X138851Y171032D01*
X138453Y171993D01*
X137819Y172819D01*
X136993Y173453D01*
X136032Y173851D01*
X135500Y173921D01*
D02*
G37*
G36*
X100500D02*
Y170500D01*
X103921D01*
X103851Y171032D01*
X103453Y171993D01*
X102819Y172819D01*
X101993Y173453D01*
X101032Y173851D01*
X100500Y173921D01*
D02*
G37*
G36*
X65500D02*
Y170500D01*
X68921D01*
X68851Y171032D01*
X68453Y171993D01*
X67819Y172819D01*
X66993Y173453D01*
X66032Y173851D01*
X65500Y173921D01*
D02*
G37*
G36*
X41878D02*
Y170500D01*
X45299D01*
X45229Y171032D01*
X44831Y171993D01*
X44197Y172819D01*
X43371Y173453D01*
X42410Y173851D01*
X41878Y173921D01*
D02*
G37*
G36*
X169500D02*
X168968Y173851D01*
X168007Y173453D01*
X167181Y172819D01*
X166547Y171993D01*
X166149Y171032D01*
X166079Y170500D01*
X169500D01*
Y173921D01*
D02*
G37*
G36*
X134500D02*
X133968Y173851D01*
X133007Y173453D01*
X132181Y172819D01*
X131547Y171993D01*
X131149Y171032D01*
X131079Y170500D01*
X134500D01*
Y173921D01*
D02*
G37*
G36*
X99500D02*
X98968Y173851D01*
X98007Y173453D01*
X97181Y172819D01*
X96547Y171993D01*
X96149Y171032D01*
X96079Y170500D01*
X99500D01*
Y173921D01*
D02*
G37*
G36*
X64500D02*
X63968Y173851D01*
X63007Y173453D01*
X62181Y172819D01*
X61547Y171993D01*
X61149Y171032D01*
X61079Y170500D01*
X64500D01*
Y173921D01*
D02*
G37*
G36*
X40878D02*
X40346Y173851D01*
X39384Y173453D01*
X38559Y172819D01*
X37925Y171993D01*
X37527Y171032D01*
X37457Y170500D01*
X40878D01*
Y173921D01*
D02*
G37*
G36*
X30000Y173583D02*
X29073Y173461D01*
X28208Y173103D01*
X27466Y172534D01*
X26897Y171792D01*
X26539Y170927D01*
X26417Y170000D01*
X26539Y169073D01*
X26897Y168208D01*
X27466Y167466D01*
X28208Y166897D01*
X29073Y166539D01*
X30000Y166417D01*
X30927Y166539D01*
X31792Y166897D01*
X32534Y167466D01*
X33103Y168208D01*
X33461Y169073D01*
X33583Y170000D01*
X33461Y170927D01*
X33103Y171792D01*
X32534Y172534D01*
X31792Y173103D01*
X30927Y173461D01*
X30000Y173583D01*
D02*
G37*
G36*
X6378D02*
X5451Y173461D01*
X4586Y173103D01*
X3844Y172534D01*
X3275Y171792D01*
X2917Y170927D01*
X2795Y170000D01*
X2917Y169073D01*
X3275Y168208D01*
X3844Y167466D01*
X4586Y166897D01*
X5451Y166539D01*
X6378Y166417D01*
X7305Y166539D01*
X8170Y166897D01*
X8912Y167466D01*
X9481Y168208D01*
X9839Y169073D01*
X9961Y170000D01*
X9839Y170927D01*
X9481Y171792D01*
X8912Y172534D01*
X8170Y173103D01*
X7305Y173461D01*
X6378Y173583D01*
D02*
G37*
G36*
X150299Y169500D02*
X146878D01*
Y166079D01*
X147410Y166149D01*
X148371Y166547D01*
X149197Y167181D01*
X149831Y168007D01*
X150229Y168968D01*
X150299Y169500D01*
D02*
G37*
G36*
X115299D02*
X111878D01*
Y166079D01*
X112410Y166149D01*
X113371Y166547D01*
X114197Y167181D01*
X114831Y168007D01*
X115229Y168968D01*
X115299Y169500D01*
D02*
G37*
G36*
X80299D02*
X76878D01*
Y166079D01*
X77410Y166149D01*
X78371Y166547D01*
X79197Y167181D01*
X79831Y168007D01*
X80229Y168968D01*
X80299Y169500D01*
D02*
G37*
G36*
X103921Y169500D02*
X100500D01*
Y166079D01*
X101032Y166149D01*
X101993Y166547D01*
X102819Y167181D01*
X103453Y168007D01*
X103851Y168968D01*
X103921Y169500D01*
D02*
G37*
G36*
X173921D02*
X170500D01*
Y166079D01*
X171032Y166149D01*
X171993Y166547D01*
X172819Y167181D01*
X173453Y168007D01*
X173851Y168968D01*
X173921Y169500D01*
D02*
G37*
G36*
X138921D02*
X135500D01*
Y166079D01*
X136032Y166149D01*
X136993Y166547D01*
X137819Y167181D01*
X138453Y168007D01*
X138851Y168968D01*
X138921Y169500D01*
D02*
G37*
G36*
X68921D02*
X65500D01*
Y166079D01*
X66032Y166149D01*
X66993Y166547D01*
X67819Y167181D01*
X68453Y168007D01*
X68851Y168968D01*
X68921Y169500D01*
D02*
G37*
G36*
X45299D02*
X41878D01*
Y166079D01*
X42410Y166149D01*
X43371Y166547D01*
X44197Y167181D01*
X44831Y168007D01*
X45229Y168968D01*
X45299Y169500D01*
D02*
G37*
G36*
X64500D02*
X61079D01*
X61149Y168968D01*
X61547Y168007D01*
X62181Y167181D01*
X63007Y166547D01*
X63968Y166149D01*
X64500Y166079D01*
Y169500D01*
D02*
G37*
G36*
X40878D02*
X37457D01*
X37527Y168968D01*
X37925Y168007D01*
X38559Y167181D01*
X39384Y166547D01*
X40346Y166149D01*
X40878Y166079D01*
Y169500D01*
D02*
G37*
G36*
X169500D02*
X166079D01*
X166149Y168968D01*
X166547Y168007D01*
X167181Y167181D01*
X168007Y166547D01*
X168968Y166149D01*
X169500Y166079D01*
Y169500D01*
D02*
G37*
G36*
X134500D02*
X131079D01*
X131149Y168968D01*
X131547Y168007D01*
X132181Y167181D01*
X133007Y166547D01*
X133968Y166149D01*
X134500Y166079D01*
Y169500D01*
D02*
G37*
G36*
X99500D02*
X96079D01*
X96149Y168968D01*
X96547Y168007D01*
X97181Y167181D01*
X98007Y166547D01*
X98968Y166149D01*
X99500Y166079D01*
Y169500D01*
D02*
G37*
G36*
X145878Y169500D02*
X142457D01*
X142527Y168968D01*
X142925Y168007D01*
X143559Y167181D01*
X144385Y166547D01*
X145346Y166149D01*
X145878Y166079D01*
Y169500D01*
D02*
G37*
G36*
X110878D02*
X107457D01*
X107527Y168968D01*
X107925Y168007D01*
X108559Y167181D01*
X109385Y166547D01*
X110346Y166149D01*
X110878Y166079D01*
Y169500D01*
D02*
G37*
G36*
X75878D02*
X72457D01*
X72527Y168968D01*
X72925Y168007D01*
X73559Y167181D01*
X74384Y166547D01*
X75346Y166149D01*
X75878Y166079D01*
Y169500D01*
D02*
G37*
G36*
X170000Y142087D02*
X169073Y141965D01*
X168208Y141607D01*
X167466Y141038D01*
X166897Y140296D01*
X166539Y139431D01*
X166417Y138504D01*
X166539Y137576D01*
X166897Y136712D01*
X167466Y135970D01*
X168208Y135401D01*
X169073Y135043D01*
X170000Y134921D01*
X170927Y135043D01*
X171792Y135401D01*
X172534Y135970D01*
X173103Y136712D01*
X173461Y137576D01*
X173583Y138504D01*
X173461Y139431D01*
X173103Y140296D01*
X172534Y141038D01*
X171792Y141607D01*
X170927Y141965D01*
X170000Y142087D01*
D02*
G37*
G36*
X146378D02*
X145450Y141965D01*
X144586Y141607D01*
X143844Y141038D01*
X143275Y140296D01*
X142917Y139431D01*
X142795Y138504D01*
X142917Y137576D01*
X143275Y136712D01*
X143844Y135970D01*
X144586Y135401D01*
X145450Y135043D01*
X146378Y134921D01*
X147305Y135043D01*
X148170Y135401D01*
X148912Y135970D01*
X149481Y136712D01*
X149839Y137576D01*
X149961Y138504D01*
X149839Y139431D01*
X149481Y140296D01*
X148912Y141038D01*
X148170Y141607D01*
X147305Y141965D01*
X146378Y142087D01*
D02*
G37*
G36*
X135000D02*
X134073Y141965D01*
X133208Y141607D01*
X132466Y141038D01*
X131897Y140296D01*
X131539Y139431D01*
X131417Y138504D01*
X131539Y137576D01*
X131897Y136712D01*
X132466Y135970D01*
X133208Y135401D01*
X134073Y135043D01*
X135000Y134921D01*
X135927Y135043D01*
X136792Y135401D01*
X137534Y135970D01*
X138103Y136712D01*
X138461Y137576D01*
X138583Y138504D01*
X138461Y139431D01*
X138103Y140296D01*
X137534Y141038D01*
X136792Y141607D01*
X135927Y141965D01*
X135000Y142087D01*
D02*
G37*
G36*
X111378D02*
X110450Y141965D01*
X109586Y141607D01*
X108844Y141038D01*
X108275Y140296D01*
X107917Y139431D01*
X107794Y138504D01*
X107917Y137576D01*
X108275Y136712D01*
X108844Y135970D01*
X109586Y135401D01*
X110450Y135043D01*
X111378Y134921D01*
X112305Y135043D01*
X113170Y135401D01*
X113912Y135970D01*
X114481Y136712D01*
X114839Y137576D01*
X114961Y138504D01*
X114839Y139431D01*
X114481Y140296D01*
X113912Y141038D01*
X113170Y141607D01*
X112305Y141965D01*
X111378Y142087D01*
D02*
G37*
G36*
X100000D02*
X99073Y141965D01*
X98208Y141607D01*
X97466Y141038D01*
X96897Y140296D01*
X96539Y139431D01*
X96417Y138504D01*
X96539Y137576D01*
X96897Y136712D01*
X97466Y135970D01*
X98208Y135401D01*
X99073Y135043D01*
X100000Y134921D01*
X100927Y135043D01*
X101792Y135401D01*
X102534Y135970D01*
X103103Y136712D01*
X103461Y137576D01*
X103583Y138504D01*
X103461Y139431D01*
X103103Y140296D01*
X102534Y141038D01*
X101792Y141607D01*
X100927Y141965D01*
X100000Y142087D01*
D02*
G37*
G36*
X76378D02*
X75450Y141965D01*
X74586Y141607D01*
X73844Y141038D01*
X73275Y140296D01*
X72917Y139431D01*
X72795Y138504D01*
X72917Y137576D01*
X73275Y136712D01*
X73844Y135970D01*
X74586Y135401D01*
X75450Y135043D01*
X76378Y134921D01*
X77305Y135043D01*
X78170Y135401D01*
X78912Y135970D01*
X79481Y136712D01*
X79839Y137576D01*
X79961Y138504D01*
X79839Y139431D01*
X79481Y140296D01*
X78912Y141038D01*
X78170Y141607D01*
X77305Y141965D01*
X76378Y142087D01*
D02*
G37*
G36*
X65000D02*
X64073Y141965D01*
X63208Y141607D01*
X62466Y141038D01*
X61897Y140296D01*
X61539Y139431D01*
X61417Y138504D01*
X61539Y137576D01*
X61897Y136712D01*
X62466Y135970D01*
X63208Y135401D01*
X64073Y135043D01*
X65000Y134921D01*
X65927Y135043D01*
X66792Y135401D01*
X67534Y135970D01*
X68103Y136712D01*
X68461Y137576D01*
X68583Y138504D01*
X68461Y139431D01*
X68103Y140296D01*
X67534Y141038D01*
X66792Y141607D01*
X65927Y141965D01*
X65000Y142087D01*
D02*
G37*
G36*
X41378D02*
X40451Y141965D01*
X39586Y141607D01*
X38844Y141038D01*
X38275Y140296D01*
X37917Y139431D01*
X37795Y138504D01*
X37917Y137576D01*
X38275Y136712D01*
X38844Y135970D01*
X39586Y135401D01*
X40451Y135043D01*
X41378Y134921D01*
X42305Y135043D01*
X43170Y135401D01*
X43912Y135970D01*
X44481Y136712D01*
X44839Y137576D01*
X44961Y138504D01*
X44839Y139431D01*
X44481Y140296D01*
X43912Y141038D01*
X43170Y141607D01*
X42305Y141965D01*
X41378Y142087D01*
D02*
G37*
G36*
X30000D02*
X29073Y141965D01*
X28208Y141607D01*
X27466Y141038D01*
X26897Y140296D01*
X26539Y139431D01*
X26417Y138504D01*
X26539Y137576D01*
X26897Y136712D01*
X27466Y135970D01*
X28208Y135401D01*
X29073Y135043D01*
X30000Y134921D01*
X30927Y135043D01*
X31792Y135401D01*
X32534Y135970D01*
X33103Y136712D01*
X33461Y137576D01*
X33583Y138504D01*
X33461Y139431D01*
X33103Y140296D01*
X32534Y141038D01*
X31792Y141607D01*
X30927Y141965D01*
X30000Y142087D01*
D02*
G37*
G36*
X6378D02*
X5451Y141965D01*
X4586Y141607D01*
X3844Y141038D01*
X3275Y140296D01*
X2917Y139431D01*
X2795Y138504D01*
X2917Y137576D01*
X3275Y136712D01*
X3844Y135970D01*
X4586Y135401D01*
X5451Y135043D01*
X6378Y134921D01*
X7305Y135043D01*
X8170Y135401D01*
X8912Y135970D01*
X9481Y136712D01*
X9839Y137576D01*
X9961Y138504D01*
X9839Y139431D01*
X9481Y140296D01*
X8912Y141038D01*
X8170Y141607D01*
X7305Y141965D01*
X6378Y142087D01*
D02*
G37*
G36*
X260839Y113120D02*
Y109500D01*
X264458D01*
X264381Y110083D01*
X263963Y111093D01*
X263298Y111960D01*
X262431Y112625D01*
X261422Y113043D01*
X260839Y113120D01*
D02*
G37*
G36*
X259839D02*
X259255Y113043D01*
X258246Y112625D01*
X257379Y111960D01*
X256714Y111093D01*
X256296Y110083D01*
X256219Y109500D01*
X259839D01*
Y113120D01*
D02*
G37*
G36*
X208970Y112750D02*
X201471D01*
Y105250D01*
X208970D01*
Y112750D01*
D02*
G37*
G36*
X246559Y112782D02*
X245580Y112653D01*
X244668Y112275D01*
X243885Y111674D01*
X243284Y110891D01*
X242906Y109979D01*
X242777Y109000D01*
X242906Y108021D01*
X243284Y107109D01*
X243885Y106326D01*
X244668Y105725D01*
X245580Y105347D01*
X246559Y105218D01*
X247538Y105347D01*
X248450Y105725D01*
X249233Y106326D01*
X249834Y107109D01*
X250212Y108021D01*
X250341Y109000D01*
X250212Y109979D01*
X249834Y110891D01*
X249233Y111674D01*
X248450Y112275D01*
X247538Y112653D01*
X246559Y112782D01*
D02*
G37*
G36*
X232780D02*
X231801Y112653D01*
X230889Y112275D01*
X230105Y111674D01*
X229504Y110891D01*
X229126Y109979D01*
X228998Y109000D01*
X229126Y108021D01*
X229504Y107109D01*
X230105Y106326D01*
X230889Y105725D01*
X231801Y105347D01*
X232780Y105218D01*
X233758Y105347D01*
X234670Y105725D01*
X235454Y106326D01*
X236055Y107109D01*
X236433Y108021D01*
X236561Y109000D01*
X236433Y109979D01*
X236055Y110891D01*
X235454Y111674D01*
X234670Y112275D01*
X233758Y112653D01*
X232780Y112782D01*
D02*
G37*
G36*
X219000D02*
X218021Y112653D01*
X217109Y112275D01*
X216326Y111674D01*
X215725Y110891D01*
X215347Y109979D01*
X215218Y109000D01*
X215347Y108021D01*
X215725Y107109D01*
X216326Y106326D01*
X217109Y105725D01*
X218021Y105347D01*
X219000Y105218D01*
X219979Y105347D01*
X220891Y105725D01*
X221674Y106326D01*
X222275Y107109D01*
X222653Y108021D01*
X222782Y109000D01*
X222653Y109979D01*
X222275Y110891D01*
X221674Y111674D01*
X220891Y112275D01*
X219979Y112653D01*
X219000Y112782D01*
D02*
G37*
G36*
X264458Y108500D02*
X260839D01*
Y104880D01*
X261422Y104957D01*
X262431Y105375D01*
X263298Y106041D01*
X263963Y106907D01*
X264381Y107917D01*
X264458Y108500D01*
D02*
G37*
G36*
X259839D02*
X256219D01*
X256296Y107917D01*
X256714Y106907D01*
X257379Y106041D01*
X258246Y105375D01*
X259255Y104957D01*
X259839Y104880D01*
Y108500D01*
D02*
G37*
G36*
X25143Y113143D02*
X16857D01*
Y104857D01*
X25143D01*
Y113143D01*
D02*
G37*
G36*
X9189Y113179D02*
X8107Y113037D01*
X7100Y112619D01*
X6234Y111955D01*
X5570Y111090D01*
X5152Y110082D01*
X5010Y109000D01*
X5152Y107918D01*
X5570Y106911D01*
X6234Y106045D01*
X7100Y105381D01*
X8107Y104963D01*
X9189Y104821D01*
X10271Y104963D01*
X11278Y105381D01*
X12144Y106045D01*
X12808Y106911D01*
X13226Y107918D01*
X13368Y109000D01*
X13226Y110082D01*
X12808Y111090D01*
X12144Y111955D01*
X11278Y112619D01*
X10271Y113037D01*
X9189Y113179D01*
D02*
G37*
G36*
X163953Y116211D02*
X162793Y116097D01*
X161678Y115759D01*
X160651Y115210D01*
X159750Y114471D01*
X159011Y113570D01*
X158462Y112542D01*
X158123Y111427D01*
X158009Y110268D01*
X158123Y109108D01*
X158462Y107993D01*
X159011Y106966D01*
X159750Y106065D01*
X160651Y105326D01*
X161678Y104777D01*
X162793Y104438D01*
X163953Y104324D01*
X165112Y104438D01*
X166227Y104777D01*
X167255Y105326D01*
X168156Y106065D01*
X168895Y106966D01*
X169444Y107993D01*
X169782Y109108D01*
X169896Y110268D01*
X169782Y111427D01*
X169444Y112542D01*
X168895Y113570D01*
X168156Y114471D01*
X167255Y115210D01*
X166227Y115759D01*
X165112Y116097D01*
X163953Y116211D01*
D02*
G37*
G36*
X45842D02*
X44683Y116097D01*
X43568Y115759D01*
X42540Y115210D01*
X41640Y114471D01*
X40901Y113570D01*
X40351Y112542D01*
X40013Y111427D01*
X39899Y110268D01*
X40013Y109108D01*
X40351Y107993D01*
X40901Y106966D01*
X41640Y106065D01*
X42540Y105326D01*
X43568Y104777D01*
X44683Y104438D01*
X45842Y104324D01*
X47002Y104438D01*
X48117Y104777D01*
X49145Y105326D01*
X50045Y106065D01*
X50784Y106966D01*
X51334Y107993D01*
X51672Y109108D01*
X51786Y110268D01*
X51672Y111427D01*
X51334Y112542D01*
X50784Y113570D01*
X50045Y114471D01*
X49145Y115210D01*
X48117Y115759D01*
X47002Y116097D01*
X45842Y116211D01*
D02*
G37*
G36*
X270181Y111691D02*
X268843Y111515D01*
X267595Y110999D01*
X266524Y110177D01*
X265702Y109106D01*
X265185Y107858D01*
X265009Y106520D01*
X265185Y105181D01*
X265702Y103934D01*
X266524Y102863D01*
X267595Y102041D01*
X268843Y101524D01*
X270181Y101348D01*
X271520Y101524D01*
X272767Y102041D01*
X273838Y102863D01*
X274660Y103934D01*
X275177Y105181D01*
X275353Y106520D01*
X275177Y107858D01*
X274660Y109106D01*
X273838Y110177D01*
X272767Y110999D01*
X271520Y111515D01*
X270181Y111691D01*
D02*
G37*
G36*
X195378D02*
X194039Y111515D01*
X192792Y110999D01*
X191721Y110177D01*
X190899Y109106D01*
X190382Y107858D01*
X190206Y106520D01*
X190382Y105181D01*
X190899Y103934D01*
X191721Y102863D01*
X192792Y102041D01*
X194039Y101524D01*
X195378Y101348D01*
X196716Y101524D01*
X197964Y102041D01*
X199035Y102863D01*
X199857Y103934D01*
X200374Y105181D01*
X200550Y106520D01*
X200374Y107858D01*
X199857Y109106D01*
X199035Y110177D01*
X197964Y110999D01*
X196716Y111515D01*
X195378Y111691D01*
D02*
G37*
G36*
X304000Y111944D02*
X302840Y111829D01*
X301726Y111491D01*
X300698Y110942D01*
X299797Y110203D01*
X299058Y109302D01*
X298509Y108274D01*
X298171Y107159D01*
X298056Y106000D01*
X298171Y104841D01*
X298509Y103726D01*
X299058Y102698D01*
X299797Y101797D01*
X300698Y101058D01*
X301726Y100509D01*
X302840Y100171D01*
X304000Y100056D01*
X305159Y100171D01*
X306275Y100509D01*
X307302Y101058D01*
X308203Y101797D01*
X308942Y102698D01*
X309491Y103726D01*
X309829Y104841D01*
X309944Y106000D01*
X309829Y107159D01*
X309491Y108274D01*
X308942Y109302D01*
X308203Y110203D01*
X307302Y110942D01*
X306275Y111491D01*
X305159Y111829D01*
X304000Y111944D01*
D02*
G37*
G36*
X95299Y102338D02*
X90162D01*
Y97201D01*
X93372D01*
X93422Y96701D01*
X93305Y96678D01*
X92716Y96284D01*
X92322Y95695D01*
X92184Y95000D01*
X92322Y94305D01*
X92716Y93716D01*
X93079Y93473D01*
Y69994D01*
X92579Y69842D01*
X92284Y70284D01*
X91695Y70678D01*
X91000Y70816D01*
X90305Y70678D01*
X89716Y70284D01*
X89473Y69921D01*
X87294D01*
X86942Y69851D01*
X86643Y69651D01*
X82279Y65287D01*
X81695Y65678D01*
X81000Y65816D01*
X80305Y65678D01*
X79716Y65284D01*
X79421Y64842D01*
X78921Y64994D01*
Y69566D01*
X85928Y76574D01*
X86305Y76322D01*
X87000Y76184D01*
X87695Y76322D01*
X88284Y76716D01*
X88678Y77305D01*
X88816Y78000D01*
X88678Y78695D01*
X88284Y79284D01*
X87695Y79678D01*
X87000Y79816D01*
X86305Y79678D01*
X85716Y79284D01*
X85322Y78695D01*
X85292Y78542D01*
X77349Y70599D01*
X77149Y70300D01*
X77079Y69948D01*
Y55527D01*
X76716Y55284D01*
X76322Y54695D01*
X76184Y54000D01*
X76322Y53305D01*
X76716Y52716D01*
X77305Y52322D01*
X78000Y52184D01*
X78695Y52322D01*
X79284Y52716D01*
X79678Y53305D01*
X79816Y54000D01*
X79678Y54695D01*
X79284Y55284D01*
X78921Y55527D01*
Y60006D01*
X79421Y60158D01*
X79716Y59716D01*
X80305Y59322D01*
X81000Y59184D01*
X81695Y59322D01*
X82284Y59716D01*
X82678Y60305D01*
X82816Y61000D01*
X82731Y61428D01*
X86381Y65079D01*
X89473D01*
X89716Y64716D01*
X90305Y64322D01*
X91000Y64184D01*
X91695Y64322D01*
X92284Y64716D01*
X92579Y65158D01*
X93079Y65006D01*
Y53000D01*
X93149Y52648D01*
X93349Y52349D01*
X96269Y49428D01*
X96184Y49000D01*
X96322Y48305D01*
X96716Y47716D01*
X97305Y47322D01*
X98000Y47184D01*
X98695Y47322D01*
X99284Y47716D01*
X99678Y48305D01*
X99816Y49000D01*
X99678Y49695D01*
X99284Y50284D01*
X98695Y50678D01*
X98000Y50816D01*
X97571Y50731D01*
X94921Y53381D01*
Y82432D01*
X100002D01*
Y87568D01*
X99220D01*
X98953Y88068D01*
X99111Y88305D01*
X99249Y89000D01*
X99111Y89695D01*
X98717Y90284D01*
X98128Y90678D01*
X97433Y90816D01*
X96738Y90678D01*
X96149Y90284D01*
X95756Y89695D01*
X95617Y89000D01*
X95756Y88305D01*
X95914Y88068D01*
X95646Y87568D01*
X94921D01*
Y93473D01*
X95284Y93716D01*
X95678Y94305D01*
X95816Y95000D01*
X95678Y95695D01*
X95284Y96284D01*
X94695Y96678D01*
X94578Y96701D01*
X94628Y97201D01*
X95299D01*
Y98387D01*
X96208D01*
X96451Y98024D01*
X97040Y97631D01*
X97735Y97492D01*
X98430Y97631D01*
X99019Y98024D01*
X99413Y98613D01*
X99551Y99308D01*
X99413Y100003D01*
X99019Y100592D01*
X98430Y100986D01*
X97735Y101124D01*
X97040Y100986D01*
X96451Y100592D01*
X96208Y100229D01*
X95299D01*
Y102338D01*
D02*
G37*
G36*
X124068Y101568D02*
X118931D01*
Y96431D01*
X124068D01*
Y97213D01*
X124568Y97480D01*
X124805Y97322D01*
X125500Y97184D01*
X126195Y97322D01*
X126784Y97716D01*
X127178Y98305D01*
X127316Y99000D01*
X127178Y99695D01*
X126784Y100284D01*
X126195Y100678D01*
X125500Y100816D01*
X124805Y100678D01*
X124568Y100520D01*
X124068Y100787D01*
Y101568D01*
D02*
G37*
G36*
X51748Y90828D02*
X50976Y90674D01*
X50322Y90237D01*
X49885Y89583D01*
X49731Y88811D01*
X49885Y88039D01*
X50322Y87385D01*
X50976Y86948D01*
X51748Y86794D01*
X52520Y86948D01*
X53174Y87385D01*
X53611Y88039D01*
X53765Y88811D01*
X53611Y89583D01*
X53174Y90237D01*
X52520Y90674D01*
X51748Y90828D01*
D02*
G37*
G36*
X219069Y91069D02*
X213931D01*
Y88921D01*
X213500D01*
X213148Y88851D01*
X212849Y88651D01*
X211939Y87742D01*
X211740Y87443D01*
X211670Y87090D01*
Y86686D01*
X211284Y86422D01*
X210837Y86611D01*
Y86734D01*
X210767Y87086D01*
X210567Y87385D01*
X208801Y89151D01*
X208502Y89351D01*
X208150Y89421D01*
X196569D01*
Y91069D01*
X191431D01*
Y85931D01*
X196569D01*
Y87579D01*
X207768D01*
X208995Y86352D01*
Y83084D01*
X209065Y82732D01*
X209265Y82433D01*
X209769Y81928D01*
X209684Y81500D01*
X209822Y80805D01*
X210216Y80216D01*
X210805Y79822D01*
X211500Y79684D01*
X212195Y79822D01*
X212784Y80216D01*
X213178Y80805D01*
X213316Y81500D01*
X213178Y82195D01*
X212816Y82737D01*
X212856Y82996D01*
X212951Y83274D01*
X213195Y83322D01*
X213784Y83716D01*
X214178Y84305D01*
X214316Y85000D01*
X214230Y85431D01*
X214575Y85931D01*
X219069D01*
Y91069D01*
D02*
G37*
G36*
X13000Y89172D02*
X11661Y88996D01*
X10414Y88479D01*
X9343Y87657D01*
X8521Y86586D01*
X8004Y85339D01*
X7828Y84000D01*
X8004Y82661D01*
X8521Y81414D01*
X9343Y80343D01*
X10414Y79521D01*
X11661Y79004D01*
X13000Y78828D01*
X14339Y79004D01*
X15586Y79521D01*
X16657Y80343D01*
X17479Y81414D01*
X17996Y82661D01*
X18172Y84000D01*
X17996Y85339D01*
X17479Y86586D01*
X16657Y87657D01*
X15586Y88479D01*
X14339Y88996D01*
X13000Y89172D01*
D02*
G37*
G36*
X126567Y85816D02*
X125872Y85678D01*
X125283Y85284D01*
X124890Y84695D01*
X124751Y84000D01*
X124890Y83305D01*
X125048Y83069D01*
X124780Y82569D01*
X123999D01*
Y77431D01*
X129136D01*
Y82569D01*
X128354D01*
X128087Y83069D01*
X128245Y83305D01*
X128383Y84000D01*
X128245Y84695D01*
X127851Y85284D01*
X127262Y85678D01*
X126567Y85816D01*
D02*
G37*
G36*
X11020Y78277D02*
Y74657D01*
X14639D01*
X14562Y75241D01*
X14144Y76250D01*
X13479Y77117D01*
X12612Y77782D01*
X11603Y78200D01*
X11020Y78277D01*
D02*
G37*
G36*
X10020D02*
X9436Y78200D01*
X8427Y77782D01*
X7560Y77117D01*
X6895Y76250D01*
X6477Y75241D01*
X6400Y74657D01*
X10020D01*
Y78277D01*
D02*
G37*
G36*
X128000Y111816D02*
X127305Y111678D01*
X126716Y111284D01*
X126322Y110695D01*
X126184Y110000D01*
X126322Y109305D01*
X126716Y108716D01*
X127305Y108322D01*
X128000Y108184D01*
X128192Y108222D01*
X131159Y105254D01*
Y70398D01*
X130772Y70190D01*
X130659Y70185D01*
X130000Y70316D01*
X129571Y70231D01*
X114671Y85132D01*
Y87223D01*
X115034Y87466D01*
X115428Y88055D01*
X115566Y88750D01*
X115428Y89445D01*
X115034Y90034D01*
X114445Y90428D01*
X113750Y90566D01*
X113055Y90428D01*
X112466Y90034D01*
X112072Y89445D01*
X111934Y88750D01*
X112072Y88055D01*
X112466Y87466D01*
X112829Y87223D01*
Y84750D01*
X112899Y84398D01*
X113099Y84099D01*
X128269Y68928D01*
X128184Y68500D01*
X128322Y67805D01*
X128716Y67216D01*
X129305Y66822D01*
X130000Y66684D01*
X130659Y66815D01*
X130772Y66810D01*
X131159Y66602D01*
Y45746D01*
X127030Y41617D01*
X126568Y41808D01*
Y46069D01*
X121432D01*
Y44921D01*
X110527D01*
X110284Y45284D01*
X109695Y45678D01*
X109000Y45816D01*
X108305Y45678D01*
X107716Y45284D01*
X107322Y44695D01*
X107184Y44000D01*
X107322Y43305D01*
X107716Y42716D01*
X108305Y42322D01*
X109000Y42184D01*
X109695Y42322D01*
X110284Y42716D01*
X110527Y43079D01*
X121432D01*
Y40931D01*
X125692D01*
X125883Y40470D01*
X122535Y37122D01*
X113393D01*
X113284Y37284D01*
X112695Y37678D01*
X112000Y37816D01*
X111305Y37678D01*
X110716Y37284D01*
X110322Y36695D01*
X110184Y36000D01*
X110322Y35305D01*
X110716Y34716D01*
X111305Y34322D01*
X112000Y34184D01*
X112695Y34322D01*
X113284Y34716D01*
X113393Y34878D01*
X123000D01*
X123000Y34878D01*
X123429Y34964D01*
X123793Y35207D01*
X133074Y44488D01*
X133074Y44488D01*
X133317Y44852D01*
X133403Y45281D01*
X133403Y45281D01*
Y105719D01*
X133403Y105719D01*
X133317Y106148D01*
X133074Y106512D01*
X129778Y109808D01*
X129816Y110000D01*
X129678Y110695D01*
X129284Y111284D01*
X128695Y111678D01*
X128000Y111816D01*
D02*
G37*
G36*
X14639Y73658D02*
X11020D01*
Y70038D01*
X11603Y70115D01*
X12612Y70533D01*
X13479Y71198D01*
X14144Y72065D01*
X14562Y73074D01*
X14639Y73658D01*
D02*
G37*
G36*
X10020D02*
X6400D01*
X6477Y73074D01*
X6895Y72065D01*
X7560Y71198D01*
X8427Y70533D01*
X9436Y70115D01*
X10020Y70038D01*
Y73658D01*
D02*
G37*
G36*
X110154Y96816D02*
X109459Y96678D01*
X108870Y96284D01*
X108476Y95695D01*
X108338Y95000D01*
X108476Y94305D01*
X108870Y93716D01*
X109233Y93473D01*
Y65846D01*
X109303Y65494D01*
X109503Y65195D01*
X110269Y64429D01*
X110184Y64000D01*
X110322Y63305D01*
X110716Y62716D01*
X111305Y62322D01*
X112000Y62184D01*
X112695Y62322D01*
X113284Y62716D01*
X113678Y63305D01*
X113816Y64000D01*
X113678Y64695D01*
X113284Y65284D01*
X112695Y65678D01*
X112000Y65816D01*
X111572Y65731D01*
X111075Y66228D01*
Y93473D01*
X111438Y93716D01*
X111832Y94305D01*
X111970Y95000D01*
X111832Y95695D01*
X111438Y96284D01*
X110849Y96678D01*
X110154Y96816D01*
D02*
G37*
G36*
X98500Y36316D02*
X97805Y36178D01*
X97216Y35784D01*
X96973Y35421D01*
X85448D01*
X85095Y35351D01*
X84796Y35151D01*
X72566Y22921D01*
X71069D01*
Y24568D01*
X65931D01*
Y22706D01*
X65849Y22651D01*
X65649Y22352D01*
X65579Y22000D01*
X65649Y21648D01*
X65849Y21349D01*
X65931Y21294D01*
Y19432D01*
X71069D01*
Y21079D01*
X72948D01*
X73300Y21149D01*
X73599Y21349D01*
X85829Y33579D01*
X96973D01*
X97216Y33216D01*
X97805Y32822D01*
X98500Y32684D01*
X99195Y32822D01*
X99784Y33216D01*
X100178Y33805D01*
X100316Y34500D01*
X100178Y35195D01*
X99784Y35784D01*
X99195Y36178D01*
X98500Y36316D01*
D02*
G37*
G36*
X51748Y35316D02*
X50976Y35162D01*
X50322Y34725D01*
X49885Y34071D01*
X49731Y33299D01*
X49885Y32527D01*
X50322Y31873D01*
X50976Y31436D01*
X51748Y31282D01*
X52520Y31436D01*
X53174Y31873D01*
X53611Y32527D01*
X53765Y33299D01*
X53611Y34071D01*
X53174Y34725D01*
X52520Y35162D01*
X51748Y35316D01*
D02*
G37*
G36*
X166000Y55816D02*
X165305Y55678D01*
X164716Y55284D01*
X164322Y54695D01*
X164184Y54000D01*
X164322Y53305D01*
X164716Y52716D01*
X165305Y52322D01*
X166000Y52184D01*
X166428Y52269D01*
X176349Y42349D01*
X176648Y42149D01*
X177000Y42079D01*
X228816D01*
X229058Y41716D01*
X229422Y41473D01*
Y37657D01*
X229492Y37305D01*
X229691Y37006D01*
X234849Y31849D01*
X235148Y31649D01*
X235500Y31579D01*
X250431D01*
Y29932D01*
X255569D01*
Y35069D01*
X250431D01*
Y33421D01*
X235881D01*
X231263Y38039D01*
Y41473D01*
X231627Y41716D01*
X232020Y42305D01*
X232158Y43000D01*
X232020Y43695D01*
X231627Y44284D01*
X231037Y44678D01*
X230343Y44816D01*
X229648Y44678D01*
X229058Y44284D01*
X228816Y43921D01*
X177381D01*
X167731Y53571D01*
X167816Y54000D01*
X167678Y54695D01*
X167284Y55284D01*
X166695Y55678D01*
X166000Y55816D01*
D02*
G37*
G36*
X262000Y69816D02*
X261305Y69678D01*
X260716Y69284D01*
X260322Y68695D01*
X260184Y68000D01*
X260322Y67305D01*
X260385Y67212D01*
Y31669D01*
X235274Y6559D01*
X167626D01*
X167447Y7059D01*
X168156Y7640D01*
X168895Y8540D01*
X169444Y9568D01*
X169782Y10683D01*
X169896Y11842D01*
X169782Y13002D01*
X169444Y14117D01*
X168895Y15145D01*
X168156Y16045D01*
X167255Y16784D01*
X166227Y17334D01*
X165112Y17672D01*
X163953Y17786D01*
X162793Y17672D01*
X161678Y17334D01*
X160651Y16784D01*
X159750Y16045D01*
X159011Y15145D01*
X158462Y14117D01*
X158123Y13002D01*
X158009Y11842D01*
X158123Y10683D01*
X158462Y9568D01*
X159011Y8540D01*
X159750Y7640D01*
X160458Y7059D01*
X160279Y6559D01*
X67905D01*
X16674Y57789D01*
X16150Y58140D01*
X15532Y58262D01*
X14920D01*
X14269Y58913D01*
Y64127D01*
X6770D01*
Y56628D01*
X11985D01*
X12517Y56096D01*
X12357Y55623D01*
X11661Y55531D01*
X10414Y55014D01*
X9343Y54192D01*
X8521Y53121D01*
X8004Y51874D01*
X7828Y50535D01*
X8004Y49197D01*
X8521Y47949D01*
X9343Y46878D01*
X10414Y46057D01*
X11661Y45540D01*
X13000Y45364D01*
X14339Y45540D01*
X15586Y46057D01*
X16657Y46878D01*
X17479Y47949D01*
X17996Y49197D01*
X18172Y50535D01*
X18099Y51088D01*
X18573Y51322D01*
X66093Y3801D01*
X66617Y3451D01*
X67235Y3328D01*
X235943D01*
X236561Y3451D01*
X237086Y3801D01*
X263142Y29858D01*
X263492Y30382D01*
X263615Y31000D01*
Y67212D01*
X263678Y67305D01*
X263816Y68000D01*
X263678Y68695D01*
X263284Y69284D01*
X262695Y69678D01*
X262000Y69816D01*
D02*
G37*
G36*
X304000Y17944D02*
X302840Y17829D01*
X301726Y17491D01*
X300698Y16942D01*
X299797Y16203D01*
X299058Y15302D01*
X298509Y14275D01*
X298171Y13160D01*
X298056Y12000D01*
X298171Y10841D01*
X298509Y9725D01*
X299058Y8698D01*
X299797Y7797D01*
X300698Y7058D01*
X301726Y6509D01*
X302840Y6171D01*
X304000Y6056D01*
X305159Y6171D01*
X306275Y6509D01*
X307302Y7058D01*
X308203Y7797D01*
X308942Y8698D01*
X309491Y9725D01*
X309829Y10841D01*
X309944Y12000D01*
X309829Y13160D01*
X309491Y14275D01*
X308942Y15302D01*
X308203Y16203D01*
X307302Y16942D01*
X306275Y17491D01*
X305159Y17829D01*
X304000Y17944D01*
D02*
G37*
G36*
X45842Y17786D02*
X44683Y17672D01*
X43568Y17334D01*
X42540Y16784D01*
X41640Y16045D01*
X40901Y15145D01*
X40351Y14117D01*
X40013Y13002D01*
X39899Y11842D01*
X40013Y10683D01*
X40351Y9568D01*
X40901Y8540D01*
X41640Y7640D01*
X42540Y6901D01*
X43568Y6351D01*
X44683Y6013D01*
X45842Y5899D01*
X47002Y6013D01*
X48117Y6351D01*
X49145Y6901D01*
X50045Y7640D01*
X50784Y8540D01*
X51334Y9568D01*
X51672Y10683D01*
X51786Y11842D01*
X51672Y13002D01*
X51334Y14117D01*
X50784Y15145D01*
X50045Y16045D01*
X49145Y16784D01*
X48117Y17334D01*
X47002Y17672D01*
X45842Y17786D01*
D02*
G37*
%LPD*%
D11*
X262000Y31000D02*
Y68000D01*
X235943Y4943D02*
X262000Y31000D01*
X67235Y4943D02*
X235943D01*
X15532Y56647D02*
X67235Y4943D01*
X14250Y56647D02*
X15532D01*
X10520Y60378D02*
X14250Y56647D01*
D13*
X128000Y110000D02*
X132281Y105719D01*
Y45281D02*
Y105719D01*
X123000Y36000D02*
X132281Y45281D01*
X121500Y99000D02*
X125500D01*
X112000Y36000D02*
X123000D01*
D58*
X68500Y22000D02*
D03*
X253000Y32500D02*
D03*
X194000Y88500D02*
D03*
X216500D02*
D03*
X124000Y43500D02*
D03*
X126567Y80000D02*
D03*
X97433Y85000D02*
D03*
X92731Y99769D02*
D03*
X121500Y99000D02*
D03*
D61*
X66500Y22000D02*
X72948D01*
X113750Y84750D02*
X130000Y68500D01*
X113750Y84750D02*
Y88750D01*
X72948Y22000D02*
X85448Y34500D01*
X98500D01*
X235500Y32500D02*
X251000D01*
X230343Y37657D02*
X235500Y32500D01*
X230343Y37657D02*
Y43000D01*
X194000Y88500D02*
X208150D01*
X109000Y44000D02*
X123500D01*
X124000Y43500D01*
X97433Y85000D02*
Y89000D01*
X94000Y53000D02*
Y95000D01*
Y53000D02*
X98000Y49000D01*
X92731Y99769D02*
X93192Y99308D01*
X97735D01*
X126567Y80000D02*
Y84000D01*
X213500Y88000D02*
X216000D01*
X216500Y88500D01*
X212591Y87090D02*
X213500Y88000D01*
X212591Y85091D02*
Y87090D01*
X212500Y85000D02*
X212591Y85091D01*
X209916Y83084D02*
X211500Y81500D01*
X209916Y83084D02*
Y86734D01*
X208150Y88500D02*
X209916Y86734D01*
X110154Y65846D02*
Y95000D01*
Y65846D02*
X112000Y64000D01*
X86052Y78000D02*
X87000D01*
X78000Y69948D02*
X86052Y78000D01*
X87294Y69000D02*
X91000D01*
X82294Y64000D02*
X87294Y69000D01*
X81000Y61000D02*
X86000Y66000D01*
X91000D01*
X81000Y64000D02*
X82294D01*
X78000Y54000D02*
Y69948D01*
X177000Y43000D02*
X230343D01*
X166000Y54000D02*
X177000Y43000D01*
D63*
X21000Y109000D02*
D03*
D64*
X9189D02*
D03*
X5488Y97583D02*
D03*
Y121205D02*
D03*
D65*
X10520Y60378D02*
D03*
D66*
Y74158D02*
D03*
X13000Y50535D02*
D03*
Y84000D02*
D03*
X260339Y109000D02*
D03*
X246559D02*
D03*
X232780D02*
D03*
X219000D02*
D03*
D67*
X205221D02*
D03*
D68*
X304000Y12000D02*
D03*
Y106000D02*
D03*
X45842Y110268D02*
D03*
X163953D02*
D03*
Y11842D02*
D03*
X45842D02*
D03*
D69*
X170000Y138504D02*
D03*
X146378D02*
D03*
Y170000D02*
D03*
X170000D02*
D03*
X135000Y138504D02*
D03*
X111378D02*
D03*
Y170000D02*
D03*
X135000D02*
D03*
X100000Y138504D02*
D03*
X76378D02*
D03*
Y170000D02*
D03*
X100000D02*
D03*
X65000Y138504D02*
D03*
X41378D02*
D03*
Y170000D02*
D03*
X65000D02*
D03*
X30000Y138504D02*
D03*
X6378D02*
D03*
Y170000D02*
D03*
X30000D02*
D03*
D70*
X51748Y33299D02*
D03*
Y88811D02*
D03*
D71*
X85500Y21500D02*
D03*
X181260Y81447D02*
D03*
X181000Y93000D02*
D03*
X78000Y93500D02*
D03*
X82000Y116500D02*
D03*
X92500Y128500D02*
D03*
X141500Y150500D02*
D03*
X134427Y125495D02*
D03*
X71000Y153500D02*
D03*
D72*
X107000Y106000D02*
D03*
X108000Y50000D02*
D03*
X217000Y34000D02*
D03*
X236000Y43000D02*
D03*
X256000Y68000D02*
D03*
X251000Y69000D02*
D03*
X130000Y68500D02*
D03*
X98500Y34500D02*
D03*
X109000Y44000D02*
D03*
X97433Y89000D02*
D03*
X97735Y99308D02*
D03*
X126567Y84000D02*
D03*
X212500Y85000D02*
D03*
X211500Y81500D02*
D03*
X125500Y99000D02*
D03*
X113750Y88750D02*
D03*
X98000Y69000D02*
D03*
X78000Y74000D02*
D03*
X87000D02*
D03*
X91000Y66000D02*
D03*
Y69000D02*
D03*
X78000Y54000D02*
D03*
X81000Y64000D02*
D03*
X81000Y61000D02*
D03*
X87000Y78000D02*
D03*
X95000Y14000D02*
D03*
X112000Y36000D02*
D03*
X203000Y77150D02*
D03*
X128000Y110000D02*
D03*
X98000Y49000D02*
D03*
X94000Y95000D02*
D03*
X57000Y43000D02*
D03*
Y38000D02*
D03*
X262000Y68000D02*
D03*
X230343Y43000D02*
D03*
X166000Y54000D02*
D03*
X110154Y95000D02*
D03*
X112000Y64000D02*
D03*
X38000Y75000D02*
D03*
X11000Y21000D02*
D03*
Y27000D02*
D03*
X71000Y79000D02*
D03*
Y85000D02*
D03*
X77000Y29000D02*
D03*
X81000Y37000D02*
D03*
X250000Y97465D02*
D03*
X209000Y55000D02*
D03*
X225000Y82000D02*
D03*
M02*
