G04*
G04 #@! TF.GenerationSoftware,Altium Limited,Altium Designer,20.0.9 (164)*
G04*
G04 Layer_Color=255*
%FSLAX25Y25*%
%MOIN*%
G70*
G01*
G75*
%ADD58R,0.03937X0.03937*%
%ADD63R,0.07087X0.07087*%
%ADD64C,0.07087*%
%ADD65R,0.06299X0.06299*%
%ADD66C,0.06299*%
%ADD67R,0.06299X0.06299*%
%ADD68C,0.10630*%
%ADD69C,0.05906*%
%ADD70C,0.02756*%
D58*
X68500Y22000D02*
D03*
X253000Y32500D02*
D03*
X194000Y88500D02*
D03*
X216500D02*
D03*
X124000Y43500D02*
D03*
X126567Y80000D02*
D03*
X97433Y85000D02*
D03*
X92731Y99769D02*
D03*
X121500Y99000D02*
D03*
D63*
X21000Y109000D02*
D03*
D64*
X9189D02*
D03*
X5488Y97583D02*
D03*
Y121205D02*
D03*
D65*
X10520Y60378D02*
D03*
D66*
Y74158D02*
D03*
X13000Y50535D02*
D03*
Y84000D02*
D03*
X260339Y109000D02*
D03*
X246559D02*
D03*
X232780D02*
D03*
X219000D02*
D03*
D67*
X205221D02*
D03*
D68*
X304000Y12000D02*
D03*
Y106000D02*
D03*
X45842Y110268D02*
D03*
X163953D02*
D03*
Y11842D02*
D03*
X45842D02*
D03*
D69*
X170000Y138504D02*
D03*
X146378D02*
D03*
Y170000D02*
D03*
X170000D02*
D03*
X135000Y138504D02*
D03*
X111378D02*
D03*
Y170000D02*
D03*
X135000D02*
D03*
X100000Y138504D02*
D03*
X76378D02*
D03*
Y170000D02*
D03*
X100000D02*
D03*
X65000Y138504D02*
D03*
X41378D02*
D03*
Y170000D02*
D03*
X65000D02*
D03*
X30000Y138504D02*
D03*
X6378D02*
D03*
Y170000D02*
D03*
X30000D02*
D03*
D70*
X51748Y33299D02*
D03*
Y88811D02*
D03*
M02*
