G04*
G04 #@! TF.GenerationSoftware,Altium Limited,Altium Designer,18.0.12 (696)*
G04*
G04 Layer_Color=32768*
%FSLAX25Y25*%
%MOIN*%
G70*
G01*
G75*
%ADD12C,0.00394*%
%ADD14C,0.01575*%
%ADD104C,0.00197*%
D12*
X244539Y38583D02*
X247689D01*
X246114Y37008D02*
Y40157D01*
X244539Y38627D02*
X247688D01*
X246114Y37052D02*
Y40202D01*
X254367Y37303D02*
Y40453D01*
X252793Y38878D02*
X255942D01*
X200189Y73343D02*
X203339D01*
X201764Y71768D02*
Y74917D01*
X201854Y65831D02*
Y68980D01*
X200279Y67405D02*
X203429D01*
X201810Y65830D02*
Y68980D01*
X200235Y67405D02*
X203385D01*
X48602Y123024D02*
X52382D01*
X50492Y121134D02*
Y124913D01*
D14*
X247244Y113779D02*
X251181D01*
X249213Y111811D02*
Y115748D01*
X256299Y105905D02*
Y121653D01*
X242126Y105905D02*
Y121653D01*
X256299D01*
X242126Y105905D02*
X256299D01*
X124433Y59323D02*
Y80976D01*
X153961Y59323D02*
Y80976D01*
X124433Y59323D02*
X153961D01*
X124433Y80976D02*
X153961D01*
X137229Y70150D02*
X141166D01*
X139197Y68181D02*
Y72118D01*
X68898Y122335D02*
Y136508D01*
X52362Y122335D02*
Y136508D01*
Y122335D02*
X68898D01*
X52362Y136508D02*
X68898D01*
X58661Y129421D02*
X62598D01*
X60630Y127453D02*
Y131390D01*
X255290Y60630D02*
Y103937D01*
X208243Y60630D02*
Y103937D01*
Y60630D02*
X255290D01*
X208243Y103937D02*
X255290D01*
X229798Y82284D02*
X233735D01*
X231766Y80315D02*
Y84252D01*
X219168Y121551D02*
Y125488D01*
X217199Y123519D02*
X221136D01*
X209916Y128244D02*
X228420D01*
X209916Y118795D02*
X228420D01*
X209916D02*
Y128244D01*
X228420Y118795D02*
Y128244D01*
X191535Y78150D02*
X206890D01*
X191535Y100591D02*
X206890D01*
X191535Y78150D02*
Y100591D01*
X206890Y78150D02*
Y100591D01*
X199213Y87402D02*
Y91339D01*
X197244Y89370D02*
X201181D01*
X216535Y104409D02*
Y108189D01*
X214646Y106299D02*
X218425D01*
X211221Y103347D02*
X221850D01*
X211221Y109252D02*
X221850D01*
Y103347D02*
Y109252D01*
X211221Y103347D02*
Y109252D01*
X234820Y112795D02*
X238599D01*
X236710Y110906D02*
Y114685D01*
X233757Y107480D02*
Y118110D01*
X239662Y107480D02*
Y118110D01*
X233757Y107480D02*
X239662D01*
X233757Y118110D02*
X239662D01*
X256102Y101772D02*
X271457D01*
X256102Y79331D02*
X271457D01*
Y101772D01*
X256102Y79331D02*
Y101772D01*
X263779Y88583D02*
Y92520D01*
X261811Y90551D02*
X265748D01*
X262598Y116535D02*
X266535D01*
X264567Y114567D02*
Y118504D01*
X259842Y107283D02*
Y125787D01*
X269291Y107283D02*
Y125787D01*
X259842Y107283D02*
X269291D01*
X259842Y125787D02*
X269291D01*
X219168Y111811D02*
Y115748D01*
X217199Y113779D02*
X221136D01*
X209916Y109055D02*
X228420D01*
X209916Y118504D02*
X228420D01*
Y109055D02*
Y118504D01*
X209916Y109055D02*
Y118504D01*
X148031Y38386D02*
Y41535D01*
X146457Y39961D02*
X149606D01*
X142323Y42717D02*
X153740D01*
X142323Y37205D02*
X153740D01*
Y42717D01*
X142323Y37205D02*
Y42717D01*
X117323Y69461D02*
X123229D01*
X117323Y80091D02*
X123229D01*
Y69461D02*
Y80091D01*
X117323Y69461D02*
Y80091D01*
X120276Y72886D02*
Y76665D01*
X118386Y74776D02*
X122166D01*
X175197Y37795D02*
X181102D01*
X175197Y48425D02*
X181102D01*
Y37795D02*
Y48425D01*
X175197Y37795D02*
Y48425D01*
X178150Y41221D02*
Y45000D01*
X176260Y43110D02*
X180039D01*
X159744Y37795D02*
X165650D01*
X159744Y48425D02*
X165650D01*
Y37795D02*
Y48425D01*
X159744Y37795D02*
Y48425D01*
X162697Y41221D02*
Y45000D01*
X160807Y43110D02*
X164587D01*
X62992Y103150D02*
Y106299D01*
X61417Y104724D02*
X64567D01*
X57284Y107480D02*
X68701D01*
X57284Y101969D02*
X68701D01*
X57284D02*
Y107480D01*
X68701Y101969D02*
Y107480D01*
X101378Y147047D02*
X107283D01*
X101378Y136417D02*
X107283D01*
Y147047D01*
X101378Y136417D02*
Y147047D01*
X104331Y139842D02*
Y143622D01*
X102441Y141732D02*
X106220D01*
X105591Y160114D02*
X109370D01*
X107480Y158224D02*
Y162004D01*
X110433Y154799D02*
Y165429D01*
X104528Y154799D02*
Y165429D01*
X110433D01*
X104528Y154799D02*
X110433D01*
X118110Y151575D02*
X122047D01*
X120079Y149606D02*
Y153543D01*
X127165Y143307D02*
Y159843D01*
X112992Y143307D02*
Y159843D01*
X127165D01*
X112992Y143307D02*
X127165D01*
X131987Y152831D02*
X137499D01*
X131987Y164248D02*
X137499D01*
X131987Y152831D02*
Y164248D01*
X137499Y152831D02*
Y164248D01*
X134743Y156964D02*
Y160114D01*
X133168Y158539D02*
X136318D01*
X62598Y114252D02*
Y118032D01*
X60709Y116142D02*
X64488D01*
X57284Y119095D02*
X67913D01*
X57284Y113189D02*
X67913D01*
X57284D02*
Y119095D01*
X67913Y113189D02*
Y119095D01*
X49213Y150366D02*
Y154146D01*
X47323Y152256D02*
X51102D01*
X43898Y155209D02*
X54527D01*
X43898Y149303D02*
X54527D01*
X43898D02*
Y155209D01*
X54527Y149303D02*
Y155209D01*
X31575Y114854D02*
X35354D01*
X33465Y112965D02*
Y116744D01*
X36417Y109539D02*
Y120169D01*
X30512Y109539D02*
Y120169D01*
X36417D01*
X30512Y109539D02*
X36417D01*
X43504Y159736D02*
Y165248D01*
X54921Y159736D02*
Y165248D01*
X43504D02*
X54921D01*
X43504Y159736D02*
X54921D01*
X47638Y162492D02*
X50787D01*
X49213Y160917D02*
Y164067D01*
X131496Y138559D02*
X137008D01*
X131496Y149976D02*
X137008D01*
X131496Y138559D02*
Y149976D01*
X137008Y138559D02*
Y149976D01*
X134252Y142693D02*
Y145843D01*
X132677Y144268D02*
X135827D01*
X94095Y148008D02*
Y151945D01*
X92126Y149976D02*
X96063D01*
X89370Y155390D02*
X98721D01*
X89370Y144563D02*
X98721D01*
X89370D02*
Y155390D01*
X98721Y144563D02*
Y155390D01*
D104*
X251611Y33169D02*
X257123D01*
X251611Y44587D02*
X257123D01*
X251611Y33169D02*
Y44587D01*
X257123Y33169D02*
Y44587D01*
X196055Y70587D02*
Y76098D01*
X207472Y70587D02*
Y76098D01*
X196055D02*
X207472D01*
X196055Y70587D02*
X207472D01*
X47539Y117709D02*
Y128339D01*
X53445Y117709D02*
Y128339D01*
X47539Y117709D02*
X53445D01*
X47539Y128339D02*
X53445D01*
M02*
