M48
;Layer_Color=9474304
;FILE_FORMAT=2:5
INCH,TZ
;TYPE=PLATED
T1F00S00C0.01181
T2F00S00C0.02756
T3F00S00C0.03937
T4F00S00C0.03937
T5F00S00C0.04000
T6F00S00C0.04016
T7F00S00C0.09055
T8F00S00C0.10630
T9F00S00C0.10827
%
T01
X-5652Y31201
X-5512Y35236
X8563Y33760
X22835Y31890
Y36220
X30256Y31890
X61811Y33858
X156618Y45153
X172835Y32677
X166339Y6644
X289469Y22244
X289330Y29520
X290846Y97146
Y105409
X275984Y108735
X264173Y129921
X249016Y124803
X213943Y130905
X264469Y77953
X188484Y96063
X150886Y87697
X158563Y79626
X111122Y67716
X111516Y126476
X103800Y150366
X107517Y167323
X116142Y162598
X134743Y165847
X149764Y135827
X155020Y137205
X82677Y139445
X85039Y132283
X78740Y126772
X50098Y133161
X50787Y114665
X64468Y173819
X64370Y180709
X45177Y125681
X39075Y112106
X22244Y93405
X22719Y65158
X23130Y51378
X34252Y61811
X-5512Y64941
X5512Y117079
T02
X3150Y25394
Y80905
T03
X19764Y188189
T04
X209764Y188189
Y198189
X199764
X189764
X179764
X169764
X159764
X149764
X139764
X129764
X119764
X109764
X99764
X89764
X79764
X69764
X59764
X49764
Y188189
X59764
X69764
X79764
X89764
X99764
X109764
X119764
X129764
X139764
X149764
X159764
X169764
X179764
X189764
X199764
X39764
X29764
Y198189
X19764
X39764
T05
X175197Y20586
X270079Y46063
X38583Y66142
X-6103Y74216
T06
X166142Y-315
X179921
T07
X156299Y2165
X189764
T08
X-295Y0
X117815
Y98425
X-295
T09
X0Y0
X228346
Y192913
X0
M30
