G04*
G04 #@! TF.GenerationSoftware,Altium Limited,Altium Designer,18.1.7 (191)*
G04*
G04 Layer_Physical_Order=2*
G04 Layer_Color=16711680*
%FSLAX25Y25*%
%MOIN*%
G70*
G01*
G75*
%ADD15C,0.01000*%
%ADD37R,0.03937X0.03543*%
%ADD79R,0.03937X0.03937*%
%ADD82C,0.01575*%
%ADD83C,0.10630*%
%ADD84C,0.02756*%
%ADD85C,0.13386*%
%ADD86R,0.13386X0.13386*%
%ADD87C,0.06299*%
%ADD88R,0.06299X0.06299*%
%ADD89C,0.06000*%
%ADD90C,0.02362*%
G36*
X273959Y1631D02*
X1631D01*
Y57512D01*
X1631Y58012D01*
X37902D01*
X38169Y57512D01*
X38086Y57388D01*
X37948Y56693D01*
X38086Y55998D01*
X38480Y55409D01*
X38642Y55300D01*
Y50994D01*
X36802D01*
Y45857D01*
X41939D01*
Y50994D01*
X40885D01*
Y55300D01*
X41048Y55409D01*
X41442Y55998D01*
X41580Y56693D01*
X41442Y57388D01*
X41048Y57977D01*
X40885Y58086D01*
Y65143D01*
X41048Y65251D01*
X41442Y65841D01*
X41580Y66535D01*
X41442Y67230D01*
X41096Y67748D01*
X41177Y68033D01*
X41306Y68248D01*
X43367D01*
Y53755D01*
X43204Y53646D01*
X42810Y53057D01*
X42672Y52362D01*
X42810Y51667D01*
X43204Y51078D01*
X43367Y50969D01*
Y47244D01*
X43367Y47244D01*
X43452Y46815D01*
X43695Y46451D01*
X45270Y44876D01*
X45270Y44876D01*
X45634Y44633D01*
X46063Y44548D01*
X49400D01*
Y43101D01*
X54537D01*
Y48238D01*
X49400D01*
Y46791D01*
X46528D01*
X45610Y47709D01*
Y50969D01*
X45772Y51078D01*
X46166Y51667D01*
X46304Y52362D01*
X46166Y53057D01*
X45772Y53646D01*
X45610Y53755D01*
Y68248D01*
X64567D01*
X65026Y68438D01*
X65216Y68898D01*
Y83071D01*
X65026Y83530D01*
X64567Y83720D01*
X42653Y83720D01*
X42461Y84182D01*
X44953Y86674D01*
X101757D01*
X101865Y86511D01*
X102455Y86118D01*
X103150Y85979D01*
X103845Y86118D01*
X104434Y86511D01*
X104827Y87100D01*
X104966Y87795D01*
X104827Y88490D01*
X104434Y89079D01*
X103845Y89473D01*
X103150Y89611D01*
X102455Y89473D01*
X101865Y89079D01*
X101757Y88917D01*
X44488D01*
X44059Y88832D01*
X43695Y88588D01*
X43695Y88588D01*
X29833Y74727D01*
X29322Y74869D01*
X29203Y74918D01*
X29111Y75009D01*
X28982D01*
X28863Y75059D01*
X15579D01*
X15229Y75416D01*
X15408Y84521D01*
X15748Y84794D01*
X16520Y84948D01*
X17174Y85385D01*
X17611Y86039D01*
X17765Y86811D01*
X17611Y87583D01*
X17174Y88237D01*
X16520Y88674D01*
X15748Y88828D01*
X15497Y89038D01*
X15615Y95020D01*
X21654Y95020D01*
X21890Y95118D01*
X22113Y95210D01*
X22113Y95210D01*
X22113Y95210D01*
X22205Y95433D01*
X22303Y95669D01*
Y125591D01*
X22208Y125819D01*
X22113Y126049D01*
X22113Y126050D01*
X22113Y126050D01*
X21883Y126145D01*
X21654Y126240D01*
X16218Y126243D01*
X16218Y150925D01*
X125984D01*
X126444Y151116D01*
X126634Y151575D01*
X126634Y175984D01*
X126444Y176444D01*
X125984Y176634D01*
X1631D01*
X1631Y177096D01*
X1631Y228740D01*
X273959D01*
X273959Y1631D01*
D02*
G37*
G36*
X125984Y151575D02*
X15568D01*
X15568Y125594D01*
X21654Y125591D01*
Y95669D01*
X14978Y95669D01*
X14839Y88582D01*
X14322Y88237D01*
X13885Y87583D01*
X13731Y86811D01*
X13885Y86039D01*
X14322Y85385D01*
X14770Y85086D01*
X14572Y75059D01*
X1631D01*
X1631Y75559D01*
Y175984D01*
X125984D01*
X125984Y151575D01*
D02*
G37*
G36*
X64567Y68898D02*
X45610D01*
Y69867D01*
X45772Y69976D01*
X46166Y70565D01*
X46304Y71260D01*
X46166Y71955D01*
X45772Y72544D01*
X45183Y72938D01*
X44488Y73076D01*
X43793Y72938D01*
X43204Y72544D01*
X42810Y71955D01*
X42672Y71260D01*
X42810Y70565D01*
X43204Y69976D01*
X43367Y69867D01*
Y68898D01*
X39764D01*
Y68351D01*
X39069Y68213D01*
X38480Y67819D01*
X38086Y67230D01*
X37948Y66535D01*
X38086Y65841D01*
X38480Y65251D01*
X38642Y65143D01*
Y58661D01*
X1631D01*
Y74410D01*
X28863Y74409D01*
X29054Y73948D01*
X27095Y71988D01*
X23440D01*
X23331Y72150D01*
X22742Y72544D01*
X22047Y72682D01*
X21352Y72544D01*
X20763Y72150D01*
X20369Y71561D01*
X20231Y70866D01*
X20369Y70171D01*
X20763Y69582D01*
X21352Y69188D01*
X22047Y69050D01*
X22742Y69188D01*
X23331Y69582D01*
X23440Y69745D01*
X27559D01*
X27559Y69744D01*
X27988Y69830D01*
X28352Y70073D01*
X41350Y83071D01*
X64567Y83071D01*
Y68898D01*
D02*
G37*
G36*
X273959Y342126D02*
X145669D01*
Y392070D01*
X273959D01*
Y342126D01*
D02*
G37*
G36*
X104331Y250000D02*
X1631D01*
Y392070D01*
X104331D01*
Y250000D01*
D02*
G37*
G36*
X273959Y312205D02*
X228346D01*
Y240158D01*
X198819D01*
Y337008D01*
X273959D01*
X273959Y312205D01*
D02*
G37*
%LPC*%
G36*
X170276Y214415D02*
X168846Y214274D01*
X167471Y213857D01*
X166204Y213180D01*
X165094Y212268D01*
X164182Y211158D01*
X163505Y209891D01*
X163088Y208516D01*
X162947Y207087D01*
X163088Y205657D01*
X163505Y204282D01*
X164182Y203015D01*
X165094Y201905D01*
X166204Y200993D01*
X167471Y200316D01*
X168846Y199899D01*
X170276Y199758D01*
X171705Y199899D01*
X173080Y200316D01*
X174347Y200993D01*
X175457Y201905D01*
X176369Y203015D01*
X177046Y204282D01*
X177463Y205657D01*
X177604Y207087D01*
X177463Y208516D01*
X177046Y209891D01*
X176369Y211158D01*
X175457Y212268D01*
X174347Y213180D01*
X173080Y213857D01*
X171705Y214274D01*
X170276Y214415D01*
D02*
G37*
G36*
X83268D02*
X81838Y214274D01*
X80463Y213857D01*
X79196Y213180D01*
X78086Y212268D01*
X77175Y211158D01*
X76497Y209891D01*
X76080Y208516D01*
X75940Y207087D01*
X76080Y205657D01*
X76497Y204282D01*
X77175Y203015D01*
X78086Y201905D01*
X79196Y200993D01*
X80463Y200316D01*
X81838Y199899D01*
X83268Y199758D01*
X84697Y199899D01*
X86072Y200316D01*
X87339Y200993D01*
X88450Y201905D01*
X89361Y203015D01*
X90038Y204282D01*
X90455Y205657D01*
X90596Y207087D01*
X90455Y208516D01*
X90038Y209891D01*
X89361Y211158D01*
X88450Y212268D01*
X87339Y213180D01*
X86072Y213857D01*
X84697Y214274D01*
X83268Y214415D01*
D02*
G37*
G36*
X270866Y226619D02*
X270171Y226481D01*
X269777Y226218D01*
X231496D01*
X230955Y226110D01*
X230496Y225803D01*
X227346Y222654D01*
X227040Y222195D01*
X226932Y221654D01*
Y218018D01*
X226669Y217624D01*
X226531Y216929D01*
X226669Y216234D01*
X227062Y215645D01*
X227652Y215251D01*
X228346Y215113D01*
X229041Y215251D01*
X229631Y215645D01*
X230024Y216234D01*
X230162Y216929D01*
X230024Y217624D01*
X229761Y218018D01*
Y221068D01*
X232082Y223389D01*
X269452D01*
Y194967D01*
X268952Y194815D01*
X268903Y194888D01*
X268903Y194888D01*
X260636Y203155D01*
X260272Y203398D01*
X259842Y203484D01*
X259842Y203484D01*
X245881D01*
X245772Y203646D01*
X245183Y204040D01*
X244488Y204178D01*
X243793Y204040D01*
X243204Y203646D01*
X242810Y203057D01*
X242672Y202362D01*
X242810Y201667D01*
X243204Y201078D01*
X243793Y200684D01*
X244488Y200546D01*
X245183Y200684D01*
X245772Y201078D01*
X245881Y201241D01*
X259378D01*
X266989Y193630D01*
Y138654D01*
X232534Y104199D01*
X232291Y103835D01*
X232205Y103405D01*
X232205Y103405D01*
Y96412D01*
X232043Y96304D01*
X231649Y95715D01*
X231511Y95020D01*
X231649Y94325D01*
X232043Y93736D01*
X232632Y93342D01*
X233327Y93204D01*
X234022Y93342D01*
X234611Y93736D01*
X235004Y94325D01*
X235143Y95020D01*
X235004Y95715D01*
X234611Y96304D01*
X234448Y96412D01*
Y102941D01*
X268903Y137396D01*
X268903Y137396D01*
X268952Y137468D01*
X269452Y137317D01*
Y133263D01*
X254118Y117929D01*
X253811Y117471D01*
X253703Y116929D01*
Y60470D01*
X199757D01*
Y66234D01*
X200020Y66628D01*
X200158Y67323D01*
X200020Y68018D01*
X199626Y68607D01*
X199037Y69001D01*
X198342Y69139D01*
X197647Y69001D01*
X197058Y68607D01*
X196664Y68018D01*
X196526Y67323D01*
X196664Y66628D01*
X196927Y66234D01*
Y60470D01*
X176679D01*
X176286Y60733D01*
X175591Y60871D01*
X174896Y60733D01*
X174306Y60339D01*
X173913Y59750D01*
X173775Y59055D01*
X173913Y58360D01*
X174306Y57771D01*
X174896Y57377D01*
X175591Y57239D01*
X176286Y57377D01*
X176679Y57640D01*
X198342D01*
X198392Y57651D01*
X198442Y57640D01*
X255118D01*
X255660Y57748D01*
X256118Y58055D01*
X256425Y58514D01*
X256533Y59055D01*
Y116343D01*
X271866Y131677D01*
X272173Y132136D01*
X272281Y132677D01*
Y223714D01*
X272544Y224108D01*
X272682Y224803D01*
X272544Y225498D01*
X272150Y226087D01*
X271561Y226481D01*
X270866Y226619D01*
D02*
G37*
G36*
X259331Y190211D02*
X257992Y190035D01*
X256745Y189518D01*
X255674Y188696D01*
X254852Y187625D01*
X254335Y186378D01*
X254159Y185039D01*
X254335Y183701D01*
X254852Y182454D01*
X255674Y181382D01*
X256745Y180560D01*
X257992Y180044D01*
X259331Y179868D01*
X260669Y180044D01*
X261917Y180560D01*
X262988Y181382D01*
X263810Y182454D01*
X264326Y183701D01*
X264503Y185039D01*
X264326Y186378D01*
X263810Y187625D01*
X262988Y188696D01*
X261917Y189518D01*
X260669Y190035D01*
X259331Y190211D01*
D02*
G37*
G36*
X265561Y178946D02*
X258061D01*
Y171447D01*
X265561D01*
Y178946D01*
D02*
G37*
G36*
X262311Y165537D02*
Y161917D01*
X265931D01*
X265854Y162501D01*
X265436Y163510D01*
X264771Y164377D01*
X263904Y165042D01*
X262894Y165460D01*
X262311Y165537D01*
D02*
G37*
G36*
X261311Y165537D02*
X260728Y165460D01*
X259718Y165042D01*
X258852Y164377D01*
X258186Y163510D01*
X257768Y162501D01*
X257691Y161917D01*
X261311D01*
Y165537D01*
D02*
G37*
G36*
X265931Y160917D02*
X262311D01*
Y157298D01*
X262894Y157375D01*
X263904Y157793D01*
X264771Y158458D01*
X265436Y159325D01*
X265854Y160334D01*
X265931Y160917D01*
D02*
G37*
G36*
X261311D02*
X257691D01*
X257768Y160334D01*
X258186Y159325D01*
X258852Y158458D01*
X259718Y157793D01*
X260728Y157375D01*
X261311Y157298D01*
Y160917D01*
D02*
G37*
G36*
X259331Y156747D02*
X257992Y156570D01*
X256745Y156054D01*
X255674Y155232D01*
X254852Y154161D01*
X254335Y152913D01*
X254159Y151575D01*
X254335Y150236D01*
X254852Y148989D01*
X255674Y147918D01*
X256745Y147096D01*
X257992Y146579D01*
X259331Y146403D01*
X260669Y146579D01*
X261917Y147096D01*
X262988Y147918D01*
X263810Y148989D01*
X264326Y150236D01*
X264503Y151575D01*
X264326Y152913D01*
X263810Y154161D01*
X262988Y155232D01*
X261917Y156054D01*
X260669Y156570D01*
X259331Y156747D01*
D02*
G37*
G36*
X38189Y141186D02*
X37494Y141048D01*
X36905Y140654D01*
X36796Y140492D01*
X22259D01*
X22150Y140654D01*
X21561Y141048D01*
X20866Y141186D01*
X20171Y141048D01*
X19582Y140654D01*
X19188Y140065D01*
X19050Y139370D01*
X19188Y138675D01*
X19582Y138086D01*
X20171Y137692D01*
X20866Y137554D01*
X21561Y137692D01*
X22150Y138086D01*
X22259Y138249D01*
X36796D01*
X36905Y138086D01*
X37494Y137692D01*
X38189Y137554D01*
X38884Y137692D01*
X39473Y138086D01*
X39867Y138675D01*
X40005Y139370D01*
X39867Y140065D01*
X39473Y140654D01*
X38884Y141048D01*
X38189Y141186D01*
D02*
G37*
G36*
X265748Y114211D02*
X264588Y114097D01*
X263474Y113759D01*
X262446Y113210D01*
X261545Y112470D01*
X260806Y111570D01*
X260257Y110542D01*
X259919Y109427D01*
X259804Y108268D01*
X259919Y107108D01*
X260257Y105993D01*
X260806Y104966D01*
X261545Y104065D01*
X262446Y103326D01*
X263474Y102777D01*
X264588Y102438D01*
X265748Y102324D01*
X266908Y102438D01*
X268022Y102777D01*
X269050Y103326D01*
X269951Y104065D01*
X270690Y104966D01*
X271239Y105993D01*
X271577Y107108D01*
X271692Y108268D01*
X271577Y109427D01*
X271239Y110542D01*
X270690Y111570D01*
X269951Y112470D01*
X269050Y113210D01*
X268022Y113759D01*
X266908Y114097D01*
X265748Y114211D01*
D02*
G37*
G36*
X127953D02*
X126793Y114097D01*
X125678Y113759D01*
X124651Y113210D01*
X123750Y112470D01*
X123011Y111570D01*
X122462Y110542D01*
X122123Y109427D01*
X122009Y108268D01*
X122123Y107108D01*
X122462Y105993D01*
X123011Y104966D01*
X123750Y104065D01*
X124651Y103326D01*
X125678Y102777D01*
X126793Y102438D01*
X127953Y102324D01*
X129112Y102438D01*
X130227Y102777D01*
X131255Y103326D01*
X132156Y104065D01*
X132895Y104966D01*
X133444Y105993D01*
X133782Y107108D01*
X133896Y108268D01*
X133782Y109427D01*
X133444Y110542D01*
X132895Y111570D01*
X132156Y112470D01*
X131255Y113210D01*
X130227Y113759D01*
X129112Y114097D01*
X127953Y114211D01*
D02*
G37*
G36*
X104143Y55029D02*
X99006D01*
Y54171D01*
X97545D01*
X97152Y54434D01*
X96457Y54572D01*
X95762Y54434D01*
X95173Y54040D01*
X94779Y53451D01*
X94641Y52756D01*
X94779Y52061D01*
X95173Y51472D01*
X95762Y51078D01*
X96457Y50940D01*
X97152Y51078D01*
X97545Y51341D01*
X98653D01*
X99006Y50988D01*
X99006Y50356D01*
X98606Y50114D01*
X98606Y50044D01*
X98606Y50044D01*
Y47842D01*
X101575D01*
X104543D01*
Y50044D01*
X104543Y50044D01*
Y50114D01*
X104143Y50356D01*
X104143Y50614D01*
Y55029D01*
D02*
G37*
G36*
X59261Y54931D02*
X54124D01*
Y53582D01*
X51491D01*
X51382Y53745D01*
X50793Y54138D01*
X50098Y54277D01*
X49404Y54138D01*
X48814Y53745D01*
X48421Y53156D01*
X48282Y52461D01*
X48421Y51766D01*
X48814Y51177D01*
X49404Y50783D01*
X50098Y50645D01*
X50793Y50783D01*
X51382Y51177D01*
X51491Y51339D01*
X54124D01*
Y49794D01*
X59261D01*
Y54931D01*
D02*
G37*
G36*
X228740Y56147D02*
X228045Y56008D01*
X227456Y55615D01*
X227062Y55026D01*
X226924Y54331D01*
X227062Y53636D01*
X227456Y53047D01*
X227619Y52938D01*
Y47709D01*
X225126Y45216D01*
X125228D01*
X125202Y45244D01*
X125006Y45716D01*
X125300Y46155D01*
X125438Y46850D01*
X125300Y47545D01*
X124906Y48134D01*
X124317Y48528D01*
X123622Y48666D01*
X122927Y48528D01*
X122338Y48134D01*
X121944Y47545D01*
X121806Y46850D01*
X121944Y46155D01*
X122338Y45566D01*
X122501Y45458D01*
Y44094D01*
X122586Y43665D01*
X122829Y43301D01*
X123193Y43058D01*
X123622Y42973D01*
X225590D01*
X225590Y42973D01*
X226020Y43058D01*
X226384Y43301D01*
X229533Y46451D01*
X229533Y46451D01*
X229776Y46815D01*
X229862Y47244D01*
X229862Y47244D01*
Y52938D01*
X230024Y53047D01*
X230418Y53636D01*
X230556Y54331D01*
X230418Y55026D01*
X230024Y55615D01*
X229435Y56008D01*
X228740Y56147D01*
D02*
G37*
G36*
X104543Y46843D02*
X102075D01*
Y44571D01*
X104543D01*
Y46843D01*
D02*
G37*
G36*
X101075D02*
X98606D01*
Y44571D01*
X101075D01*
Y46843D01*
D02*
G37*
G36*
X80528Y53391D02*
X79833Y53253D01*
X79243Y52859D01*
X78850Y52270D01*
X78712Y51575D01*
X78850Y50880D01*
X79243Y50291D01*
X79300Y50253D01*
Y47549D01*
X77746D01*
X77746Y42875D01*
X77346Y42634D01*
X77346Y42564D01*
X77346Y42564D01*
Y40362D01*
X80315D01*
Y39862D01*
D01*
Y40362D01*
X83284D01*
Y42564D01*
X83284Y42564D01*
Y42634D01*
X82884Y42875D01*
X82884Y43134D01*
Y47549D01*
X81543D01*
Y50111D01*
X81812Y50291D01*
X82205Y50880D01*
X82344Y51575D01*
X82205Y52270D01*
X81812Y52859D01*
X81222Y53253D01*
X80528Y53391D01*
D02*
G37*
G36*
X83284Y39362D02*
X80815D01*
Y37091D01*
X83284D01*
Y39362D01*
D02*
G37*
G36*
X79815D02*
X77346D01*
Y37091D01*
X79815D01*
Y39362D01*
D02*
G37*
G36*
X36220Y45123D02*
X35526Y44985D01*
X34936Y44591D01*
X34543Y44002D01*
X34405Y43307D01*
X34543Y42612D01*
X34936Y42023D01*
X35099Y41914D01*
Y40551D01*
X35099Y40551D01*
X35184Y40122D01*
X35427Y39758D01*
X36608Y38577D01*
X36608Y38577D01*
X36972Y38334D01*
X37402Y38249D01*
X37402Y38249D01*
X66071D01*
X68563Y35756D01*
Y34070D01*
X68401Y33961D01*
X68007Y33372D01*
X67869Y32677D01*
X68007Y31982D01*
X68401Y31393D01*
X68990Y30999D01*
X69685Y30861D01*
X70380Y30999D01*
X70969Y31393D01*
X71363Y31982D01*
X71501Y32677D01*
X71363Y33372D01*
X70969Y33961D01*
X70807Y34070D01*
Y36220D01*
X70807Y36220D01*
X70721Y36650D01*
X70478Y37014D01*
X70478Y37014D01*
X67329Y40163D01*
X66965Y40406D01*
X66535Y40492D01*
X66535Y40492D01*
X37866D01*
X37342Y41016D01*
Y41914D01*
X37505Y42023D01*
X37898Y42612D01*
X38037Y43307D01*
X37898Y44002D01*
X37505Y44591D01*
X36915Y44985D01*
X36220Y45123D01*
D02*
G37*
G36*
X4331Y49847D02*
X3636Y49709D01*
X3047Y49316D01*
X2653Y48726D01*
X2515Y48031D01*
X2653Y47337D01*
X3047Y46747D01*
X3209Y46639D01*
Y30709D01*
X3209Y30709D01*
X3294Y30279D01*
X3538Y29916D01*
X13012Y20442D01*
X13012Y20442D01*
X13375Y20199D01*
X13805Y20113D01*
X30584D01*
X30584Y20113D01*
X31013Y20199D01*
X31377Y20442D01*
X38160Y27225D01*
X43489D01*
X43598Y27062D01*
X44187Y26669D01*
X44882Y26531D01*
X45577Y26669D01*
X46166Y27062D01*
X46560Y27652D01*
X46698Y28346D01*
X46560Y29041D01*
X46166Y29631D01*
X45577Y30024D01*
X44882Y30163D01*
X44187Y30024D01*
X43598Y29631D01*
X43489Y29468D01*
X38794D01*
X38603Y29930D01*
X40228Y31556D01*
X50182D01*
X50291Y31393D01*
X50880Y30999D01*
X51575Y30861D01*
X52270Y30999D01*
X52859Y31393D01*
X53253Y31982D01*
X53391Y32677D01*
X53253Y33372D01*
X52859Y33961D01*
X52270Y34355D01*
X51575Y34493D01*
X50880Y34355D01*
X50291Y33961D01*
X50182Y33799D01*
X39764D01*
X39764Y33799D01*
X39335Y33713D01*
X38971Y33470D01*
X38971Y33470D01*
X29457Y23956D01*
X17394D01*
X8602Y32748D01*
Y41127D01*
X8764Y41236D01*
X9158Y41825D01*
X9296Y42520D01*
X9158Y43215D01*
X8764Y43804D01*
X8175Y44197D01*
X7480Y44336D01*
X6785Y44197D01*
X6196Y43804D01*
X5952Y43439D01*
X5452Y43590D01*
Y46639D01*
X5615Y46747D01*
X6008Y47337D01*
X6147Y48031D01*
X6008Y48726D01*
X5615Y49316D01*
X5026Y49709D01*
X4331Y49847D01*
D02*
G37*
G36*
X15748Y33316D02*
X14976Y33162D01*
X14322Y32725D01*
X13885Y32071D01*
X13731Y31299D01*
X13885Y30527D01*
X14322Y29873D01*
X14976Y29436D01*
X15748Y29283D01*
X16520Y29436D01*
X17174Y29873D01*
X17611Y30527D01*
X17765Y31299D01*
X17611Y32071D01*
X17174Y32725D01*
X16520Y33162D01*
X15748Y33316D01*
D02*
G37*
G36*
X265748Y15786D02*
X264588Y15672D01*
X263474Y15334D01*
X262446Y14784D01*
X261545Y14045D01*
X260806Y13145D01*
X260257Y12117D01*
X259919Y11002D01*
X259804Y9843D01*
X259919Y8683D01*
X260257Y7568D01*
X260806Y6540D01*
X261545Y5640D01*
X262446Y4901D01*
X263474Y4351D01*
X264588Y4013D01*
X265748Y3899D01*
X266908Y4013D01*
X268022Y4351D01*
X269050Y4901D01*
X269951Y5640D01*
X270690Y6540D01*
X271239Y7568D01*
X271577Y8683D01*
X271692Y9843D01*
X271577Y11002D01*
X271239Y12117D01*
X270690Y13145D01*
X269951Y14045D01*
X269050Y14784D01*
X268022Y15334D01*
X266908Y15672D01*
X265748Y15786D01*
D02*
G37*
G36*
X127953D02*
X126793Y15672D01*
X125678Y15334D01*
X124651Y14784D01*
X123750Y14045D01*
X123011Y13145D01*
X122462Y12117D01*
X122123Y11002D01*
X122009Y9843D01*
X122123Y8683D01*
X122462Y7568D01*
X123011Y6540D01*
X123750Y5640D01*
X124651Y4901D01*
X125678Y4351D01*
X126793Y4013D01*
X127953Y3899D01*
X129112Y4013D01*
X130227Y4351D01*
X131255Y4901D01*
X132156Y5640D01*
X132895Y6540D01*
X133444Y7568D01*
X133782Y8683D01*
X133896Y9843D01*
X133782Y11002D01*
X133444Y12117D01*
X132895Y13145D01*
X132156Y14045D01*
X131255Y14784D01*
X130227Y15334D01*
X129112Y15672D01*
X127953Y15786D01*
D02*
G37*
G36*
X9843D02*
X8683Y15672D01*
X7568Y15334D01*
X6540Y14784D01*
X5640Y14045D01*
X4901Y13145D01*
X4351Y12117D01*
X4013Y11002D01*
X3899Y9843D01*
X4013Y8683D01*
X4351Y7568D01*
X4901Y6540D01*
X5640Y5640D01*
X6540Y4901D01*
X7568Y4351D01*
X8683Y4013D01*
X9843Y3899D01*
X11002Y4013D01*
X12117Y4351D01*
X13145Y4901D01*
X14045Y5640D01*
X14784Y6540D01*
X15334Y7568D01*
X15672Y8683D01*
X15786Y9843D01*
X15672Y11002D01*
X15334Y12117D01*
X14784Y13145D01*
X14045Y14045D01*
X13145Y14784D01*
X12117Y15334D01*
X11002Y15672D01*
X9843Y15786D01*
D02*
G37*
G36*
Y114211D02*
X8683Y114097D01*
X7568Y113759D01*
X6540Y113210D01*
X5640Y112470D01*
X4901Y111570D01*
X4351Y110542D01*
X4013Y109427D01*
X3899Y108268D01*
X4013Y107108D01*
X4351Y105993D01*
X4901Y104966D01*
X5640Y104065D01*
X6540Y103326D01*
X7568Y102777D01*
X8683Y102438D01*
X9843Y102324D01*
X11002Y102438D01*
X12117Y102777D01*
X13145Y103326D01*
X14045Y104065D01*
X14784Y104966D01*
X15334Y105993D01*
X15672Y107108D01*
X15786Y108268D01*
X15672Y109427D01*
X15334Y110542D01*
X14784Y111570D01*
X14045Y112470D01*
X13145Y113210D01*
X12117Y113759D01*
X11002Y114097D01*
X9843Y114211D01*
D02*
G37*
G36*
X265748Y389802D02*
X264588Y389688D01*
X263474Y389349D01*
X262446Y388800D01*
X261545Y388061D01*
X260806Y387160D01*
X260257Y386133D01*
X259919Y385018D01*
X259804Y383858D01*
X259919Y382699D01*
X260257Y381584D01*
X260806Y380556D01*
X261545Y379656D01*
X262446Y378916D01*
X263474Y378367D01*
X264588Y378029D01*
X265748Y377915D01*
X266908Y378029D01*
X268022Y378367D01*
X269050Y378916D01*
X269951Y379656D01*
X270690Y380556D01*
X271239Y381584D01*
X271577Y382699D01*
X271691Y383858D01*
X271577Y385018D01*
X271239Y386133D01*
X270690Y387160D01*
X269951Y388061D01*
X269050Y388800D01*
X268022Y389349D01*
X266908Y389688D01*
X265748Y389802D01*
D02*
G37*
G36*
X259331Y361471D02*
X257992Y361295D01*
X256745Y360778D01*
X255674Y359956D01*
X254852Y358885D01*
X254335Y357638D01*
X254159Y356299D01*
X254335Y354961D01*
X254852Y353713D01*
X255674Y352642D01*
X256745Y351820D01*
X257992Y351304D01*
X259331Y351127D01*
X260669Y351304D01*
X261917Y351820D01*
X262988Y352642D01*
X263810Y353713D01*
X264326Y354961D01*
X264503Y356299D01*
X264326Y357638D01*
X263810Y358885D01*
X262988Y359956D01*
X261917Y360778D01*
X260669Y361295D01*
X259331Y361471D01*
D02*
G37*
G36*
X9843Y389802D02*
X8683Y389688D01*
X7568Y389349D01*
X6540Y388800D01*
X5640Y388061D01*
X4901Y387160D01*
X4351Y386133D01*
X4013Y385018D01*
X3899Y383858D01*
X4013Y382699D01*
X4351Y381584D01*
X4901Y380556D01*
X5640Y379656D01*
X6540Y378916D01*
X7568Y378367D01*
X8683Y378029D01*
X9843Y377915D01*
X11002Y378029D01*
X12117Y378367D01*
X13145Y378916D01*
X14045Y379656D01*
X14784Y380556D01*
X15334Y381584D01*
X15672Y382699D01*
X15786Y383858D01*
X15672Y385018D01*
X15334Y386133D01*
X14784Y387160D01*
X14045Y388061D01*
X13145Y388800D01*
X12117Y389349D01*
X11002Y389688D01*
X9843Y389802D01*
D02*
G37*
G36*
Y291377D02*
X8683Y291262D01*
X7568Y290924D01*
X6540Y290375D01*
X5640Y289636D01*
X4901Y288735D01*
X4351Y287708D01*
X4013Y286593D01*
X3899Y285433D01*
X4013Y284274D01*
X4351Y283159D01*
X4901Y282131D01*
X5640Y281230D01*
X6540Y280491D01*
X7568Y279942D01*
X8683Y279604D01*
X9843Y279489D01*
X11002Y279604D01*
X12117Y279942D01*
X13145Y280491D01*
X14045Y281230D01*
X14784Y282131D01*
X15334Y283159D01*
X15672Y284274D01*
X15786Y285433D01*
X15672Y286593D01*
X15334Y287708D01*
X14784Y288735D01*
X14045Y289636D01*
X13145Y290375D01*
X12117Y290924D01*
X11002Y291262D01*
X9843Y291377D01*
D02*
G37*
G36*
X259331Y328006D02*
X257992Y327830D01*
X256745Y327314D01*
X255674Y326492D01*
X254852Y325421D01*
X254335Y324173D01*
X254159Y322835D01*
X254335Y321496D01*
X254852Y320249D01*
X255674Y319178D01*
X256745Y318356D01*
X257992Y317839D01*
X259331Y317663D01*
X260669Y317839D01*
X261917Y318356D01*
X262988Y319178D01*
X263810Y320249D01*
X264326Y321496D01*
X264503Y322835D01*
X264326Y324173D01*
X263810Y325421D01*
X262988Y326492D01*
X261917Y327314D01*
X260669Y327830D01*
X259331Y328006D01*
D02*
G37*
%LPD*%
D15*
X39764Y47244D02*
Y56693D01*
X44488Y70472D02*
X44882Y70866D01*
X80421Y51468D02*
X80528Y51575D01*
X80421Y46146D02*
Y51468D01*
X228740Y47244D02*
Y54331D01*
X225590Y44094D02*
X228740Y47244D01*
X123622Y44094D02*
X225590D01*
X123622D02*
Y46850D01*
X50098Y52461D02*
X56595D01*
X56693Y52362D01*
X20866Y139370D02*
X38189D01*
X44488Y71260D02*
X44882Y70866D01*
X44488Y52362D02*
Y70472D01*
X39764Y56693D02*
Y66535D01*
X268110Y138189D02*
Y194095D01*
X233327Y103405D02*
X268110Y138189D01*
X233327Y95020D02*
Y103405D01*
X259842Y202362D02*
X268110Y194095D01*
X244488Y202362D02*
X259842D01*
X27559Y70866D02*
X44488Y87795D01*
X103150D01*
X27559Y70866D02*
X27559Y70866D01*
X22047Y70866D02*
X27559D01*
X44488Y47244D02*
Y52362D01*
Y47244D02*
X46063Y45669D01*
X51968D01*
X39764Y32677D02*
X51575D01*
X29921Y22835D02*
X39764Y32677D01*
X16929Y22835D02*
X29921D01*
X7480Y32283D02*
X16929Y22835D01*
X7480Y32283D02*
Y42520D01*
X37696Y28346D02*
X44882D01*
X30584Y21235D02*
X37696Y28346D01*
X13805Y21235D02*
X30584D01*
X4331Y30709D02*
X13805Y21235D01*
X4331Y30709D02*
Y48031D01*
X69685Y32677D02*
Y36220D01*
X66535Y39370D02*
X69685Y36220D01*
X36220Y40551D02*
Y43307D01*
Y40551D02*
X37402Y39370D01*
X66535D01*
D37*
X101575Y52658D02*
D03*
Y47343D02*
D03*
X80315Y45177D02*
D03*
Y39862D02*
D03*
D79*
X56693Y52362D02*
D03*
X39370Y48425D02*
D03*
X51968Y45669D02*
D03*
D82*
X101476Y52756D02*
X101575Y52658D01*
X96457Y52756D02*
X101476D01*
X255118Y59055D02*
Y116929D01*
X270866Y132677D02*
Y224803D01*
X255118Y116929D02*
X270866Y132677D01*
X198442Y59055D02*
X255118D01*
X228346Y216929D02*
Y221654D01*
X231496Y224803D01*
X270866D01*
X175591Y59055D02*
X198342D01*
Y67323D01*
D83*
X265748Y108268D02*
D03*
X9843Y285433D02*
D03*
X265748D02*
D03*
X265748Y383858D02*
D03*
X265748Y9843D02*
D03*
X9843Y383858D02*
D03*
Y108268D02*
D03*
X127953D02*
D03*
Y9843D02*
D03*
X9843D02*
D03*
D84*
X15748Y31299D02*
D03*
Y86811D02*
D03*
D85*
X170276Y207087D02*
D03*
X83268D02*
D03*
Y270079D02*
D03*
X170276D02*
D03*
X126772Y237402D02*
D03*
Y291732D02*
D03*
X81890Y358268D02*
D03*
X163386D02*
D03*
D86*
X41378D02*
D03*
X203898D02*
D03*
D87*
X259331Y322835D02*
D03*
Y356299D02*
D03*
X261811Y332677D02*
D03*
X259331Y151575D02*
D03*
Y185039D02*
D03*
X261811Y161417D02*
D03*
D88*
Y346457D02*
D03*
Y175197D02*
D03*
D89*
X233071Y361024D02*
D03*
Y331102D02*
D03*
X251969Y263779D02*
D03*
D90*
X96457Y52756D02*
D03*
X80528Y51575D02*
D03*
X123622Y46850D02*
D03*
X44488Y71260D02*
D03*
X39764Y56693D02*
D03*
X50098Y52461D02*
D03*
X20866Y139370D02*
D03*
X38189D02*
D03*
X205512Y251969D02*
D03*
Y244094D02*
D03*
X212205Y259842D02*
D03*
X218504D02*
D03*
X205512D02*
D03*
X218504Y268110D02*
D03*
Y275590D02*
D03*
X205512Y268110D02*
D03*
X218504Y244094D02*
D03*
X218504Y251969D02*
D03*
X212205Y275590D02*
D03*
X205512D02*
D03*
X212205Y268110D02*
D03*
Y251969D02*
D03*
X246063Y332283D02*
D03*
X241732Y328346D02*
D03*
X246063Y324213D02*
D03*
X241732Y320472D02*
D03*
X246063Y316142D02*
D03*
X44488Y52362D02*
D03*
X54961Y65118D02*
D03*
X39764Y66535D02*
D03*
X7874Y72835D02*
D03*
X62205Y75984D02*
D03*
Y70472D02*
D03*
X7874Y68110D02*
D03*
Y62992D02*
D03*
X48031Y78740D02*
D03*
X70866Y100000D02*
D03*
X103150Y87795D02*
D03*
X233327Y95020D02*
D03*
X228740Y54331D02*
D03*
X175591Y59055D02*
D03*
X270866Y224803D02*
D03*
X228346Y216929D02*
D03*
X252362Y218110D02*
D03*
X258268D02*
D03*
X217717Y224803D02*
D03*
X223228Y216929D02*
D03*
X240945Y218110D02*
D03*
X244488Y202362D02*
D03*
X28740Y87402D02*
D03*
X22047Y38976D02*
D03*
Y44094D02*
D03*
X21654Y81102D02*
D03*
Y76378D02*
D03*
X186221Y48031D02*
D03*
X203150Y51575D02*
D03*
X208268D02*
D03*
X8268Y83858D02*
D03*
Y77953D02*
D03*
X3543D02*
D03*
Y83858D02*
D03*
Y89370D02*
D03*
X8268D02*
D03*
X18898Y174016D02*
D03*
Y168504D02*
D03*
Y162992D02*
D03*
X11811D02*
D03*
Y168504D02*
D03*
Y174016D02*
D03*
X122441Y172835D02*
D03*
X117323D02*
D03*
Y166535D02*
D03*
X122441Y166667D02*
D03*
X117323Y160630D02*
D03*
X122441Y160499D02*
D03*
X117323Y154331D02*
D03*
X122441D02*
D03*
X38976Y148425D02*
D03*
X50000D02*
D03*
X44882D02*
D03*
X63386Y122047D02*
D03*
Y114173D02*
D03*
X70079D02*
D03*
X212205Y244094D02*
D03*
X198342Y67323D02*
D03*
X22047Y70866D02*
D03*
X187008Y30315D02*
D03*
X82677Y91732D02*
D03*
Y84252D02*
D03*
X227559Y92126D02*
D03*
X242126Y133465D02*
D03*
X255512Y136221D02*
D03*
X248031Y126378D02*
D03*
X241732Y119291D02*
D03*
X51575Y32677D02*
D03*
X44882Y28346D02*
D03*
X7480Y42520D02*
D03*
X4331Y48031D02*
D03*
X69685Y32677D02*
D03*
X36220Y43307D02*
D03*
X40157Y21654D02*
D03*
X36220Y16535D02*
D03*
X28740D02*
D03*
M02*
