G04*
G04 #@! TF.GenerationSoftware,Altium Limited,Altium Designer,18.1.7 (191)*
G04*
G04 Layer_Color=65535*
%FSLAX25Y25*%
%MOIN*%
G70*
G01*
G75*
%ADD10C,0.01968*%
%ADD11C,0.00984*%
%ADD12C,0.00394*%
%ADD13C,0.00787*%
%ADD14C,0.00591*%
%ADD15C,0.01000*%
%ADD16C,0.00669*%
G36*
X219985Y346463D02*
X220080Y346451D01*
X220187Y346404D01*
X220211Y346392D01*
X220270Y346356D01*
X220342Y346285D01*
X220401Y346201D01*
X220413Y346178D01*
X220437Y346106D01*
X220461Y345999D01*
X220472Y345845D01*
Y330839D01*
X220461Y330755D01*
X220437Y330672D01*
X220389Y330577D01*
X220377Y330565D01*
X220330Y330517D01*
X220258Y330458D01*
X220175Y330398D01*
X220151Y330386D01*
X220092Y330363D01*
X220008Y330327D01*
X219913Y330315D01*
X219901D01*
X219889D01*
X219818D01*
X219735Y330327D01*
X219663Y330351D01*
X219651Y330363D01*
X219628Y330375D01*
X219592Y330398D01*
X219568Y330434D01*
X206466Y337919D01*
X206442Y337931D01*
X206395Y337979D01*
X206335Y338038D01*
X206264Y338109D01*
X206252Y338133D01*
X206216Y338193D01*
X206181Y338300D01*
X206169Y338443D01*
Y338514D01*
X206181Y338574D01*
X206204Y338669D01*
X206228Y338728D01*
X206264Y338764D01*
X206276Y338788D01*
X206323Y338824D01*
X206395Y338883D01*
X206466Y338931D01*
X219604Y346416D01*
X219616Y346428D01*
X219675Y346451D01*
X219758Y346463D01*
X219889Y346475D01*
X219901D01*
X219913D01*
X219985Y346463D01*
D02*
G37*
%LPC*%
G36*
X219449Y345130D02*
X207609Y338455D01*
X219449Y331636D01*
Y345130D01*
D02*
G37*
%LPD*%
G36*
X217188Y339347D02*
X217271Y340406D01*
X219366Y338121D01*
X216438Y337265D01*
X216902Y338181D01*
X214999Y338693D01*
X216153Y335765D01*
X209643Y337919D01*
X210310Y338669D01*
X210417Y339728D01*
X213832Y337836D01*
X212785Y340490D01*
X217188Y339347D01*
D02*
G37*
D10*
X173827Y39370D02*
G03*
X173827Y39370I-599J0D01*
G01*
D11*
X160417Y121913D02*
G03*
X160417Y121913I-492J0D01*
G01*
X242165Y243677D02*
G03*
X242165Y243677I-492J0D01*
G01*
X55453Y79488D02*
G03*
X55453Y79488I-492J0D01*
G01*
D12*
X84867Y51197D02*
G03*
X84867Y51197I-197J0D01*
G01*
D13*
X68844Y29741D02*
G03*
X66589Y29741I-1127J214D01*
G01*
X159843Y116732D02*
Y119488D01*
Y111221D02*
Y113976D01*
X169291Y111221D02*
Y113976D01*
Y116732D02*
Y119488D01*
X220984Y237772D02*
X240669D01*
X220984Y230685D02*
X240669D01*
Y237772D01*
X220984Y230685D02*
Y237772D01*
X229921Y260023D02*
X231496D01*
X229921Y253527D02*
X231496D01*
X175984Y117071D02*
X185684D01*
X58858Y66831D02*
X67913D01*
X58858Y78839D02*
X67913D01*
Y66831D02*
Y78839D01*
X58858Y66831D02*
Y78839D01*
X223228Y105512D02*
X225590D01*
X223228Y99213D02*
X225590D01*
X212205Y130610D02*
Y134400D01*
X217175Y139370D01*
X212205Y118356D02*
X217175Y113386D01*
X212205Y118356D02*
Y122146D01*
X217175Y139370D02*
X238189D01*
Y130610D02*
Y139370D01*
Y113386D02*
Y122146D01*
X217175Y113386D02*
X238189D01*
X229921Y270669D02*
X231496D01*
X229921Y264173D02*
X231496D01*
X91946Y52067D02*
X92733D01*
X91946Y45965D02*
X92733D01*
X86237D02*
X87025D01*
X86237Y52067D02*
X87025D01*
X72441Y29724D02*
Y39567D01*
X62992D02*
X72441D01*
X62992Y29724D02*
Y39567D01*
Y29724D02*
X66589D01*
X68844D02*
X72441D01*
D14*
X147373Y33332D02*
X150958D01*
X194617Y94946D02*
X198202D01*
X227417Y177886D02*
X226892Y177362D01*
Y176312D01*
X227417Y175787D01*
X229516D01*
X230041Y176312D01*
Y177362D01*
X229516Y177886D01*
X226892Y178936D02*
X229516D01*
X230041Y179461D01*
Y180510D01*
X229516Y181035D01*
X226892D01*
X230041Y182085D02*
X226892D01*
Y183659D01*
X227417Y184184D01*
X228466D01*
X228991Y183659D01*
Y182085D01*
Y183134D02*
X230041Y184184D01*
Y185233D02*
X226892D01*
Y186808D01*
X227417Y187332D01*
X228466D01*
X228991Y186808D01*
Y185233D01*
Y186283D02*
X230041Y187332D01*
X226892Y190481D02*
Y188382D01*
X230041D01*
Y190481D01*
X228466Y188382D02*
Y189431D01*
X230041Y191530D02*
X226892D01*
X230041Y193629D01*
X226892D01*
Y194679D02*
Y196778D01*
Y195729D01*
X230041D01*
X232612Y177886D02*
X232088Y177362D01*
Y176312D01*
X232612Y175787D01*
X233137D01*
X233662Y176312D01*
Y177362D01*
X234187Y177886D01*
X234712D01*
X235236Y177362D01*
Y176312D01*
X234712Y175787D01*
X232088Y181035D02*
Y178936D01*
X235236D01*
Y181035D01*
X233662Y178936D02*
Y179985D01*
X235236Y182085D02*
X232088D01*
X235236Y184184D01*
X232088D01*
X232612Y187332D02*
X232088Y186808D01*
Y185758D01*
X232612Y185233D01*
X233137D01*
X233662Y185758D01*
Y186808D01*
X234187Y187332D01*
X234712D01*
X235236Y186808D01*
Y185758D01*
X234712Y185233D01*
X232088Y190481D02*
Y188382D01*
X235236D01*
Y190481D01*
X233662Y188382D02*
Y189431D01*
X232088Y196253D02*
Y195204D01*
X232612Y194679D01*
X234712D01*
X235236Y195204D01*
Y196253D01*
X234712Y196778D01*
X232612D01*
X232088Y196253D01*
Y197827D02*
X234712D01*
X235236Y198352D01*
Y199402D01*
X234712Y199927D01*
X232088D01*
Y200976D02*
Y203075D01*
Y202026D01*
X235236D01*
X20409Y203501D02*
Y206650D01*
X21458Y205601D01*
X22508Y206650D01*
Y203501D01*
X25132Y206650D02*
X24082D01*
X23557Y206125D01*
Y204026D01*
X24082Y203501D01*
X25132D01*
X25656Y204026D01*
Y206125D01*
X25132Y206650D01*
X26706D02*
Y203501D01*
X28280D01*
X28805Y204026D01*
Y206125D01*
X28280Y206650D01*
X26706D01*
X31953D02*
X29855D01*
Y203501D01*
X31953D01*
X29855Y205076D02*
X30904D01*
X19359Y200930D02*
X18834Y201454D01*
X17785D01*
X17260Y200930D01*
Y200405D01*
X17785Y199880D01*
X18834D01*
X19359Y199355D01*
Y198831D01*
X18834Y198306D01*
X17785D01*
X17260Y198831D01*
X22508Y201454D02*
X20409D01*
Y198306D01*
X22508D01*
X20409Y199880D02*
X21458D01*
X23557Y201454D02*
Y198306D01*
X25656D01*
X28805Y201454D02*
X26706D01*
Y198306D01*
X28805D01*
X26706Y199880D02*
X27755D01*
X31953Y200930D02*
X31429Y201454D01*
X30379D01*
X29855Y200930D01*
Y198831D01*
X30379Y198306D01*
X31429D01*
X31953Y198831D01*
X33003Y201454D02*
X35102D01*
X34053D01*
Y198306D01*
X20671Y193110D02*
X21721D01*
X21196D01*
Y196259D01*
X20671Y195734D01*
X29592D02*
X30117Y196259D01*
X31166D01*
X31691Y195734D01*
Y193635D01*
X31166Y193110D01*
X30117D01*
X29592Y193635D01*
Y195734D01*
X248546Y268307D02*
X251694D01*
X250120D01*
Y270406D01*
X248546D01*
X251694D01*
X248546Y271456D02*
X250645D01*
X251694Y272505D01*
X250645Y273555D01*
X248546D01*
X249070Y279852D02*
X248546Y279327D01*
Y278278D01*
X249070Y277753D01*
X251169D01*
X251694Y278278D01*
Y279327D01*
X251169Y279852D01*
X248546Y280901D02*
X251169D01*
X251694Y281426D01*
Y282476D01*
X251169Y283000D01*
X248546D01*
X251694Y284050D02*
X248546D01*
Y285624D01*
X249070Y286149D01*
X250120D01*
X250645Y285624D01*
Y284050D01*
Y285100D02*
X251694Y286149D01*
Y287199D02*
X248546D01*
Y288773D01*
X249070Y289298D01*
X250120D01*
X250645Y288773D01*
Y287199D01*
Y288248D02*
X251694Y289298D01*
X248546Y292446D02*
Y290347D01*
X251694D01*
Y292446D01*
X250120Y290347D02*
Y291397D01*
X251694Y293496D02*
X248546D01*
X251694Y295595D01*
X248546D01*
Y296644D02*
Y298743D01*
Y297694D01*
X251694D01*
X254266Y270406D02*
X253741Y269881D01*
Y268832D01*
X254266Y268307D01*
X254791D01*
X255315Y268832D01*
Y269881D01*
X255840Y270406D01*
X256365D01*
X256890Y269881D01*
Y268832D01*
X256365Y268307D01*
X253741Y273555D02*
Y271456D01*
X256890D01*
Y273555D01*
X255315Y271456D02*
Y272505D01*
X256890Y274604D02*
X253741D01*
X256890Y276703D01*
X253741D01*
X254266Y279852D02*
X253741Y279327D01*
Y278278D01*
X254266Y277753D01*
X254791D01*
X255315Y278278D01*
Y279327D01*
X255840Y279852D01*
X256365D01*
X256890Y279327D01*
Y278278D01*
X256365Y277753D01*
X253741Y283000D02*
Y280901D01*
X256890D01*
Y283000D01*
X255315Y280901D02*
Y281951D01*
X156299Y48031D02*
X153151D01*
Y49606D01*
X153675Y50131D01*
X154725D01*
X155250Y49606D01*
Y48031D01*
Y49081D02*
X156299Y50131D01*
Y51180D02*
Y52230D01*
Y51705D01*
X153151D01*
X153675Y51180D01*
X155774Y53804D02*
X156299Y54329D01*
Y55378D01*
X155774Y55903D01*
X153675D01*
X153151Y55378D01*
Y54329D01*
X153675Y53804D01*
X154200D01*
X154725Y54329D01*
Y55903D01*
X153505Y33071D02*
X156653D01*
Y35170D01*
X153505Y38318D02*
Y36219D01*
X156653D01*
Y38318D01*
X155079Y36219D02*
Y37269D01*
X153505Y39368D02*
X156653D01*
Y40942D01*
X156129Y41467D01*
X154030D01*
X153505Y40942D01*
Y39368D01*
X156653Y44616D02*
Y42517D01*
X154554Y44616D01*
X154030D01*
X153505Y44091D01*
Y43041D01*
X154030Y42517D01*
X69291Y64960D02*
Y62336D01*
X69816Y61811D01*
X70866D01*
X71390Y62336D01*
Y64960D01*
X74539Y61811D02*
X72440D01*
X74539Y63910D01*
Y64435D01*
X74014Y64960D01*
X72965D01*
X72440Y64435D01*
X216535Y70866D02*
Y74015D01*
X218110D01*
X218635Y73490D01*
Y72440D01*
X218110Y71916D01*
X216535D01*
X217585D02*
X218635Y70866D01*
X219684D02*
X220734D01*
X220209D01*
Y74015D01*
X219684Y73490D01*
X224407Y70866D02*
X222308D01*
X224407Y72965D01*
Y73490D01*
X223882Y74015D01*
X222833D01*
X222308Y73490D01*
X192520Y63009D02*
Y66158D01*
X194094D01*
X194619Y65633D01*
Y64583D01*
X194094Y64058D01*
X192520D01*
X193569D02*
X194619Y63009D01*
X195668D02*
X196718D01*
X196193D01*
Y66158D01*
X195668Y65633D01*
X198292Y63009D02*
X199342D01*
X198817D01*
Y66158D01*
X198292Y65633D01*
X222441Y59055D02*
Y62204D01*
X224015D01*
X224540Y61679D01*
Y60629D01*
X224015Y60105D01*
X222441D01*
X223491D02*
X224540Y59055D01*
X225589D02*
X226639D01*
X226114D01*
Y62204D01*
X225589Y61679D01*
X228213D02*
X228738Y62204D01*
X229788D01*
X230312Y61679D01*
Y59580D01*
X229788Y59055D01*
X228738D01*
X228213Y59580D01*
Y61679D01*
X204331Y70866D02*
Y74015D01*
X205905D01*
X206430Y73490D01*
Y72440D01*
X205905Y71916D01*
X204331D01*
X205380D02*
X206430Y70866D01*
X207479Y71391D02*
X208004Y70866D01*
X209054D01*
X209578Y71391D01*
Y73490D01*
X209054Y74015D01*
X208004D01*
X207479Y73490D01*
Y72965D01*
X208004Y72440D01*
X209578D01*
X181496Y50787D02*
Y53936D01*
X183070D01*
X183595Y53411D01*
Y52362D01*
X183070Y51837D01*
X181496D01*
X182546D02*
X183595Y50787D01*
X184645Y53411D02*
X185169Y53936D01*
X186219D01*
X186744Y53411D01*
Y52886D01*
X186219Y52362D01*
X186744Y51837D01*
Y51312D01*
X186219Y50787D01*
X185169D01*
X184645Y51312D01*
Y51837D01*
X185169Y52362D01*
X184645Y52886D01*
Y53411D01*
X185169Y52362D02*
X186219D01*
X59842Y58268D02*
Y61416D01*
X61417D01*
X61942Y60891D01*
Y59842D01*
X61417Y59317D01*
X59842D01*
X60892D02*
X61942Y58268D01*
X62991Y61416D02*
X65090D01*
Y60891D01*
X62991Y58793D01*
Y58268D01*
X41339Y87795D02*
Y90944D01*
X42913D01*
X43438Y90419D01*
Y89370D01*
X42913Y88845D01*
X41339D01*
X42388D02*
X43438Y87795D01*
X46586Y90944D02*
X45537Y90419D01*
X44487Y89370D01*
Y88320D01*
X45012Y87795D01*
X46062D01*
X46586Y88320D01*
Y88845D01*
X46062Y89370D01*
X44487D01*
X181890Y62615D02*
Y65764D01*
X183464D01*
X183989Y65239D01*
Y64189D01*
X183464Y63665D01*
X181890D01*
X182939D02*
X183989Y62615D01*
X187137Y65764D02*
X185038D01*
Y64189D01*
X186088Y64714D01*
X186613D01*
X187137Y64189D01*
Y63140D01*
X186613Y62615D01*
X185563D01*
X185038Y63140D01*
X160742Y46712D02*
Y49860D01*
X162317D01*
X162842Y49336D01*
Y48286D01*
X162317Y47761D01*
X160742D01*
X165465Y46712D02*
Y49860D01*
X163891Y48286D01*
X165990D01*
X51968Y151574D02*
Y148425D01*
Y149475D01*
X54068Y151574D01*
X52493Y149999D01*
X54068Y148425D01*
X55117D02*
X56167D01*
X55642D01*
Y151574D01*
X55117Y151049D01*
X35564Y381495D02*
X33465D01*
Y379921D01*
X34514D01*
X33465D01*
Y378346D01*
X36613D02*
X37663D01*
X37138D01*
Y381495D01*
X36613Y380970D01*
X60760Y98687D02*
X60236Y99212D01*
X59186D01*
X58661Y98687D01*
Y96588D01*
X59186Y96063D01*
X60236D01*
X60760Y96588D01*
X63909Y99212D02*
X62859Y98687D01*
X61810Y97637D01*
Y96588D01*
X62335Y96063D01*
X63384D01*
X63909Y96588D01*
Y97113D01*
X63384Y97637D01*
X61810D01*
X60760Y103805D02*
X60236Y104330D01*
X59186D01*
X58661Y103805D01*
Y101706D01*
X59186Y101181D01*
X60236D01*
X60760Y101706D01*
X63909Y104330D02*
X61810D01*
Y102755D01*
X62859Y103280D01*
X63384D01*
X63909Y102755D01*
Y101706D01*
X63384Y101181D01*
X62335D01*
X61810Y101706D01*
X74934Y103805D02*
X74409Y104330D01*
X73359D01*
X72835Y103805D01*
Y101706D01*
X73359Y101181D01*
X74409D01*
X74934Y101706D01*
X77557Y101181D02*
Y104330D01*
X75983Y102755D01*
X78082D01*
X74934Y98687D02*
X74409Y99212D01*
X73359D01*
X72835Y98687D01*
Y96588D01*
X73359Y96063D01*
X74409D01*
X74934Y96588D01*
X75983Y98687D02*
X76508Y99212D01*
X77557D01*
X78082Y98687D01*
Y98162D01*
X77557Y97637D01*
X77033D01*
X77557D01*
X78082Y97113D01*
Y96588D01*
X77557Y96063D01*
X76508D01*
X75983Y96588D01*
X19575Y96375D02*
Y99523D01*
X21149D01*
X21674Y98999D01*
Y97949D01*
X21149Y97424D01*
X19575D01*
X22723Y96375D02*
X23773D01*
X23248D01*
Y99523D01*
X22723Y98999D01*
X212729Y144356D02*
X212204Y144881D01*
X211155D01*
X210630Y144356D01*
Y142257D01*
X211155Y141732D01*
X212204D01*
X212729Y142257D01*
X213778Y141732D02*
X214828D01*
X214303D01*
Y144881D01*
X213778Y144356D01*
X234778Y103280D02*
X234253Y102755D01*
Y101706D01*
X234778Y101181D01*
X236877D01*
X237402Y101706D01*
Y102755D01*
X236877Y103280D01*
X237402Y106429D02*
Y104330D01*
X235302Y106429D01*
X234778D01*
X234253Y105904D01*
Y104854D01*
X234778Y104330D01*
X175898Y143091D02*
Y139943D01*
X177472D01*
X177997Y140467D01*
Y142566D01*
X177472Y143091D01*
X175898D01*
X179046Y139943D02*
X180096D01*
X179571D01*
Y143091D01*
X179046Y142566D01*
X178740Y90550D02*
Y87402D01*
X180315D01*
X180839Y87926D01*
Y90025D01*
X180315Y90550D01*
X178740D01*
X183988Y87402D02*
X181889D01*
X183988Y89501D01*
Y90025D01*
X183463Y90550D01*
X182413D01*
X181889Y90025D01*
X189371Y95472D02*
X192520D01*
Y97571D01*
X189371Y100720D02*
Y98621D01*
X192520D01*
Y100720D01*
X190945Y98621D02*
Y99671D01*
X189371Y101770D02*
X192520D01*
Y103344D01*
X191995Y103869D01*
X189896D01*
X189371Y103344D01*
Y101770D01*
X192520Y104918D02*
Y105968D01*
Y105443D01*
X189371D01*
X189896Y104918D01*
X250338Y364306D02*
Y367455D01*
X251912D01*
X252437Y366930D01*
Y365881D01*
X251912Y365356D01*
X250338D01*
X255585Y364306D02*
X253486D01*
X255585Y366405D01*
Y366930D01*
X255061Y367455D01*
X254011D01*
X253486Y366930D01*
X242913Y186221D02*
Y189369D01*
X244488D01*
X245012Y188844D01*
Y187795D01*
X244488Y187270D01*
X242913D01*
X246062Y188844D02*
X246587Y189369D01*
X247636D01*
X248161Y188844D01*
Y188320D01*
X247636Y187795D01*
X247112D01*
X247636D01*
X248161Y187270D01*
Y186745D01*
X247636Y186221D01*
X246587D01*
X246062Y186745D01*
X161645Y126051D02*
Y128150D01*
X161120Y128675D01*
X160071D01*
X159546Y128150D01*
Y126051D01*
X160071Y125526D01*
X161120D01*
X160595Y126576D02*
X161645Y125526D01*
X161120D02*
X161645Y126051D01*
X162694Y125526D02*
X163744D01*
X163219D01*
Y128675D01*
X162694Y128150D01*
X244094Y253937D02*
X240946D01*
Y255511D01*
X241471Y256036D01*
X242520D01*
X243045Y255511D01*
Y253937D01*
Y254987D02*
X244094Y256036D01*
Y257086D02*
Y258135D01*
Y257610D01*
X240946D01*
X241471Y257086D01*
X192126Y110236D02*
X188977D01*
Y111811D01*
X189502Y112335D01*
X190552D01*
X191076Y111811D01*
Y110236D01*
Y111286D02*
X192126Y112335D01*
Y115484D02*
Y113385D01*
X190027Y115484D01*
X189502D01*
X188977Y114959D01*
Y113910D01*
X189502Y113385D01*
X146896Y118039D02*
Y121187D01*
X148471D01*
X148995Y120663D01*
Y119613D01*
X148471Y119088D01*
X146896D01*
X147946D02*
X148995Y118039D01*
X150045Y120663D02*
X150570Y121187D01*
X151619D01*
X152144Y120663D01*
Y120138D01*
X151619Y119613D01*
X151094D01*
X151619D01*
X152144Y119088D01*
Y118564D01*
X151619Y118039D01*
X150570D01*
X150045Y118564D01*
X146850Y92913D02*
Y96062D01*
X148425D01*
X148950Y95537D01*
Y94488D01*
X148425Y93963D01*
X146850D01*
X147900D02*
X148950Y92913D01*
X151573D02*
Y96062D01*
X149999Y94488D01*
X152098D01*
X231497Y366142D02*
X234646D01*
X233071D01*
Y368241D01*
X231497D01*
X234646D01*
X231497Y369290D02*
X233596D01*
X234646Y370340D01*
X233596Y371389D01*
X231497D01*
Y375588D02*
X234646D01*
X233071D01*
Y377687D01*
X231497D01*
X234646D01*
X231497Y378736D02*
Y379786D01*
Y379261D01*
X234646D01*
Y378736D01*
Y379786D01*
X232022Y383459D02*
X231497Y382934D01*
Y381885D01*
X232022Y381360D01*
X234121D01*
X234646Y381885D01*
Y382934D01*
X234121Y383459D01*
X233071D01*
Y382410D01*
X231497Y384508D02*
X234646D01*
X233071D01*
Y386608D01*
X231497D01*
X234646D01*
X231497Y307874D02*
X234646D01*
X233071D01*
Y309973D01*
X231497D01*
X234646D01*
X231497Y311023D02*
X233596D01*
X234646Y312072D01*
X233596Y313122D01*
X231497D01*
Y317320D02*
X234646D01*
Y319419D01*
X231497Y322043D02*
Y320993D01*
X232022Y320468D01*
X234121D01*
X234646Y320993D01*
Y322043D01*
X234121Y322567D01*
X232022D01*
X231497Y322043D01*
Y323617D02*
X234646D01*
X233596Y324667D01*
X234646Y325716D01*
X231497D01*
X213516Y86876D02*
X212992Y87401D01*
X211942D01*
X211417Y86876D01*
Y86351D01*
X211942Y85826D01*
X212992D01*
X213516Y85302D01*
Y84777D01*
X212992Y84252D01*
X211942D01*
X211417Y84777D01*
X216140Y87401D02*
X215091D01*
X214566Y86876D01*
Y84777D01*
X215091Y84252D01*
X216140D01*
X216665Y84777D01*
Y86876D01*
X216140Y87401D01*
X217715D02*
Y84252D01*
X219814D01*
X220863D02*
Y86351D01*
X221913Y87401D01*
X222962Y86351D01*
Y84252D01*
Y85826D01*
X220863D01*
X224012Y84252D02*
Y87401D01*
X225586D01*
X226111Y86876D01*
Y85826D01*
X225586Y85302D01*
X224012D01*
X225061D02*
X226111Y84252D01*
X230309D02*
Y87401D01*
X231883D01*
X232408Y86876D01*
Y85826D01*
X231883Y85302D01*
X230309D01*
X231358D02*
X232408Y84252D01*
X235557Y87401D02*
X233457D01*
Y84252D01*
X235557D01*
X233457Y85826D02*
X234507D01*
X236606Y87401D02*
Y84252D01*
X238705D01*
X239755D02*
Y86351D01*
X240804Y87401D01*
X241854Y86351D01*
Y84252D01*
Y85826D01*
X239755D01*
X242903Y87401D02*
Y86876D01*
X243953Y85826D01*
X245002Y86876D01*
Y87401D01*
X243953Y85826D02*
Y84252D01*
X251300Y86876D02*
X250775Y87401D01*
X249725D01*
X249200Y86876D01*
Y84777D01*
X249725Y84252D01*
X250775D01*
X251300Y84777D01*
Y85826D01*
X250250D01*
X252349Y84252D02*
Y87401D01*
X254448Y84252D01*
Y87401D01*
X255498D02*
Y84252D01*
X257072D01*
X257597Y84777D01*
Y86876D01*
X257072Y87401D01*
X255498D01*
X158136Y94358D02*
X158660Y94882D01*
Y95932D01*
X158136Y96457D01*
X157611D01*
X157086Y95932D01*
Y94882D01*
X156561Y94358D01*
X156037D01*
X155512Y94882D01*
Y95932D01*
X156037Y96457D01*
X158660Y91734D02*
Y92783D01*
X158136Y93308D01*
X156037D01*
X155512Y92783D01*
Y91734D01*
X156037Y91209D01*
X158136D01*
X158660Y91734D01*
Y90159D02*
X155512D01*
Y88060D01*
Y87011D02*
X157611D01*
X158660Y85961D01*
X157611Y84912D01*
X155512D01*
X157086D01*
Y87011D01*
X155512Y83862D02*
X158660D01*
Y82288D01*
X158136Y81763D01*
X157086D01*
X156561Y82288D01*
Y83862D01*
Y82813D02*
X155512Y81763D01*
Y77565D02*
X158660D01*
Y75991D01*
X158136Y75466D01*
X157086D01*
X156561Y75991D01*
Y77565D01*
Y76516D02*
X155512Y75466D01*
X158660Y72317D02*
Y74417D01*
X155512D01*
Y72317D01*
X157086Y74417D02*
Y73367D01*
X158660Y71268D02*
X155512D01*
Y69169D01*
Y68119D02*
X157611D01*
X158660Y67070D01*
X157611Y66020D01*
X155512D01*
X157086D01*
Y68119D01*
X158660Y64971D02*
X158136D01*
X157086Y63921D01*
X158136Y62872D01*
X158660D01*
X157086Y63921D02*
X155512D01*
X261156Y125721D02*
X260631Y125196D01*
Y124147D01*
X261156Y123622D01*
X263255D01*
X263779Y124147D01*
Y125196D01*
X263255Y125721D01*
X262205D01*
Y124672D01*
X263779Y126771D02*
X260631D01*
X263779Y128870D01*
X260631D01*
Y129919D02*
X263779D01*
Y131493D01*
X263255Y132018D01*
X261156D01*
X260631Y131493D01*
Y129919D01*
X268110Y204724D02*
Y205774D01*
Y205249D01*
X264962D01*
X265486Y204724D01*
X268110Y209447D02*
Y207348D01*
X266011Y209447D01*
X265486D01*
X264962Y208923D01*
Y207873D01*
X265486Y207348D01*
X264962Y210497D02*
X267061D01*
X268110Y211546D01*
X267061Y212596D01*
X264962D01*
X265093Y220079D02*
X264568Y220603D01*
Y221653D01*
X265093Y222178D01*
X265617D01*
X266142Y221653D01*
Y221128D01*
Y221653D01*
X266667Y222178D01*
X267192D01*
X267717Y221653D01*
Y220603D01*
X267192Y220079D01*
X264568Y223227D02*
X266667D01*
X267717Y224277D01*
X266667Y225326D01*
X264568D01*
X265093Y226376D02*
X264568Y226901D01*
Y227950D01*
X265093Y228475D01*
X265617D01*
X266142Y227950D01*
Y227426D01*
Y227950D01*
X266667Y228475D01*
X267192D01*
X267717Y227950D01*
Y226901D01*
X267192Y226376D01*
X246850Y32283D02*
Y29134D01*
X248425D01*
X248949Y29659D01*
Y31758D01*
X248425Y32283D01*
X246850D01*
X252098Y31758D02*
X251573Y32283D01*
X250524D01*
X249999Y31758D01*
Y31233D01*
X250524Y30708D01*
X251573D01*
X252098Y30183D01*
Y29659D01*
X251573Y29134D01*
X250524D01*
X249999Y29659D01*
X255247Y31758D02*
X254722Y32283D01*
X253672D01*
X253148Y31758D01*
Y29659D01*
X253672Y29134D01*
X254722D01*
X255247Y29659D01*
X256296Y32283D02*
Y29134D01*
X258395D01*
X259445D02*
Y32283D01*
X261019D01*
X261544Y31758D01*
Y30708D01*
X261019Y30183D01*
X259445D01*
X246850Y42519D02*
Y39370D01*
X248425D01*
X248949Y39895D01*
Y41994D01*
X248425Y42519D01*
X246850D01*
X252098Y41994D02*
X251573Y42519D01*
X250524D01*
X249999Y41994D01*
Y41469D01*
X250524Y40944D01*
X251573D01*
X252098Y40420D01*
Y39895D01*
X251573Y39370D01*
X250524D01*
X249999Y39895D01*
X255247Y41994D02*
X254722Y42519D01*
X253672D01*
X253148Y41994D01*
Y39895D01*
X253672Y39370D01*
X254722D01*
X255247Y39895D01*
X256296Y42519D02*
Y39370D01*
X258395D01*
X259445D02*
Y42519D01*
X261544Y39370D01*
Y42519D01*
X246850Y53149D02*
Y50000D01*
X248425D01*
X248949Y50525D01*
Y52624D01*
X248425Y53149D01*
X246850D01*
X252098Y52624D02*
X251573Y53149D01*
X250524D01*
X249999Y52624D01*
Y52099D01*
X250524Y51574D01*
X251573D01*
X252098Y51050D01*
Y50525D01*
X251573Y50000D01*
X250524D01*
X249999Y50525D01*
X253148Y53149D02*
Y50000D01*
X254722D01*
X255247Y50525D01*
Y52624D01*
X254722Y53149D01*
X253148D01*
X256296Y50000D02*
Y52099D01*
X257346Y53149D01*
X258395Y52099D01*
Y50000D01*
Y51574D01*
X256296D01*
X259445Y50000D02*
Y53149D01*
X261019D01*
X261544Y52624D01*
Y51574D01*
X261019Y51050D01*
X259445D01*
X246850Y63779D02*
Y60630D01*
X248425D01*
X248949Y61155D01*
Y63254D01*
X248425Y63779D01*
X246850D01*
X252098Y63254D02*
X251573Y63779D01*
X250524D01*
X249999Y63254D01*
Y62729D01*
X250524Y62204D01*
X251573D01*
X252098Y61679D01*
Y61155D01*
X251573Y60630D01*
X250524D01*
X249999Y61155D01*
X253148Y63779D02*
Y60630D01*
X254722D01*
X255247Y61155D01*
Y63254D01*
X254722Y63779D01*
X253148D01*
X256296Y60630D02*
Y62729D01*
X257346Y63779D01*
X258395Y62729D01*
Y60630D01*
Y62204D01*
X256296D01*
X259445Y60630D02*
Y63779D01*
X261544Y60630D01*
Y63779D01*
X243307Y240550D02*
Y237926D01*
X243832Y237402D01*
X244881D01*
X245406Y237926D01*
Y240550D01*
X246456Y237402D02*
X247505D01*
X246981D01*
Y240550D01*
X246456Y240025D01*
X246587Y214828D02*
X246062Y215353D01*
X245013D01*
X244488Y214828D01*
Y212730D01*
X245013Y212205D01*
X246062D01*
X246587Y212730D01*
X247637Y215353D02*
X249736D01*
Y214828D01*
X247637Y212730D01*
Y212205D01*
X244094Y263779D02*
X240946D01*
Y265354D01*
X241471Y265879D01*
X242520D01*
X243045Y265354D01*
Y263779D01*
Y264829D02*
X244094Y265879D01*
Y266928D02*
Y267978D01*
Y267453D01*
X240946D01*
X241471Y266928D01*
Y269552D02*
X240946Y270077D01*
Y271126D01*
X241471Y271651D01*
X241995D01*
X242520Y271126D01*
Y270602D01*
Y271126D01*
X243045Y271651D01*
X243570D01*
X244094Y271126D01*
Y270077D01*
X243570Y269552D01*
X55118Y137795D02*
Y140944D01*
X56692D01*
X57217Y140419D01*
Y139370D01*
X56692Y138845D01*
X55118D01*
X56168D02*
X57217Y137795D01*
X58267D02*
X59316D01*
X58792D01*
Y140944D01*
X58267Y140419D01*
X62465Y137795D02*
Y140944D01*
X60891Y139370D01*
X62990D01*
X54724Y131086D02*
Y134234D01*
X56299D01*
X56823Y133710D01*
Y132660D01*
X56299Y132135D01*
X54724D01*
X55774D02*
X56823Y131086D01*
X57873D02*
X58922D01*
X58398D01*
Y134234D01*
X57873Y133710D01*
X62596Y134234D02*
X60497D01*
Y132660D01*
X61546Y133185D01*
X62071D01*
X62596Y132660D01*
Y131610D01*
X62071Y131086D01*
X61022D01*
X60497Y131610D01*
X9973Y182939D02*
X9448Y183464D01*
X8399D01*
X7874Y182939D01*
Y182414D01*
X8399Y181889D01*
X9448D01*
X9973Y181365D01*
Y180840D01*
X9448Y180315D01*
X8399D01*
X7874Y180840D01*
X11023Y180315D02*
X12072D01*
X11547D01*
Y183464D01*
X11023Y182939D01*
X66272Y51049D02*
X65747Y51574D01*
X64698D01*
X64173Y51049D01*
Y48950D01*
X64698Y48425D01*
X65747D01*
X66272Y48950D01*
X67322Y51049D02*
X67847Y51574D01*
X68896D01*
X69421Y51049D01*
Y50524D01*
X68896Y49999D01*
X69421Y49475D01*
Y48950D01*
X68896Y48425D01*
X67847D01*
X67322Y48950D01*
Y49475D01*
X67847Y49999D01*
X67322Y50524D01*
Y51049D01*
X67847Y49999D02*
X68896D01*
X71653Y27558D02*
Y24934D01*
X72178Y24409D01*
X73228D01*
X73753Y24934D01*
Y27558D01*
X74802Y27033D02*
X75327Y27558D01*
X76376D01*
X76901Y27033D01*
Y26509D01*
X76376Y25984D01*
X75852D01*
X76376D01*
X76901Y25459D01*
Y24934D01*
X76376Y24409D01*
X75327D01*
X74802Y24934D01*
X87402Y44093D02*
Y41470D01*
X87926Y40945D01*
X88976D01*
X89501Y41470D01*
Y44093D01*
X92124Y40945D02*
Y44093D01*
X90550Y42519D01*
X92649D01*
X55512Y49606D02*
X58660D01*
Y48032D01*
X58136Y47507D01*
X57086D01*
X56561Y48032D01*
Y49606D01*
Y48557D02*
X55512Y47507D01*
Y46458D02*
Y45408D01*
Y45933D01*
X58660D01*
X58136Y46458D01*
X58660Y41735D02*
X58136Y42784D01*
X57086Y43834D01*
X56037D01*
X55512Y43309D01*
Y42260D01*
X56037Y41735D01*
X56561D01*
X57086Y42260D01*
Y43834D01*
X37402Y43307D02*
X40550D01*
Y41733D01*
X40025Y41208D01*
X38976D01*
X38451Y41733D01*
Y43307D01*
Y42258D02*
X37402Y41208D01*
Y40159D02*
Y39109D01*
Y39634D01*
X40550D01*
X40025Y40159D01*
X40550Y37535D02*
Y35436D01*
X40025D01*
X37926Y37535D01*
X37402D01*
X89894Y27033D02*
X89370Y27558D01*
X88320D01*
X87795Y27033D01*
Y24934D01*
X88320Y24409D01*
X89370D01*
X89894Y24934D01*
X90944Y24409D02*
X91993D01*
X91469D01*
Y27558D01*
X90944Y27033D01*
X93568Y24409D02*
X94617D01*
X94093D01*
Y27558D01*
X93568Y27033D01*
X98032Y29921D02*
Y33070D01*
X99606D01*
X100131Y32545D01*
Y31496D01*
X99606Y30971D01*
X98032D01*
X99081D02*
X100131Y29921D01*
X101180D02*
X102230D01*
X101705D01*
Y33070D01*
X101180Y32545D01*
X103804D02*
X104329Y33070D01*
X105378D01*
X105903Y32545D01*
Y32020D01*
X105378Y31496D01*
X105903Y30971D01*
Y30446D01*
X105378Y29921D01*
X104329D01*
X103804Y30446D01*
Y30971D01*
X104329Y31496D01*
X103804Y32020D01*
Y32545D01*
X104329Y31496D02*
X105378D01*
D15*
X137008Y233858D02*
X275590D01*
X16142Y93307D02*
X27165D01*
Y89764D02*
X31102D01*
X16142D02*
Y93307D01*
X12205Y89764D02*
X16142D01*
X27165D02*
Y93307D01*
X16142Y24803D02*
Y28346D01*
X27165D02*
X31102D01*
X27165Y24803D02*
Y28346D01*
X12205D02*
X16142D01*
Y24803D02*
X27165D01*
X12205Y84646D02*
Y89764D01*
X31102Y84646D02*
Y89764D01*
X12205Y28346D02*
Y33465D01*
X31102Y28346D02*
Y33465D01*
X0Y0D02*
X137795D01*
Y118110D01*
X0D02*
X137795D01*
X0Y0D02*
Y118110D01*
X160827Y5906D02*
X237008D01*
Y26575D02*
Y35433D01*
X160630Y26575D02*
Y35433D01*
X161417Y36417D02*
X175197D01*
X222441D02*
X236221D01*
X160630Y35433D02*
Y35630D01*
X161417Y36417D01*
X236221Y36220D02*
Y36417D01*
Y36220D02*
X237008Y35433D01*
X179587Y134815D02*
Y136815D01*
Y123815D02*
Y125815D01*
X197587Y134815D02*
Y136815D01*
X179587D02*
X197587D01*
Y123815D02*
Y125815D01*
X179587Y123815D02*
X197587D01*
X271142Y328740D02*
Y361199D01*
X250276Y317599D02*
Y361199D01*
X271142D01*
X250276Y317599D02*
X271142D01*
Y332677D01*
Y157480D02*
Y189939D01*
X250276Y146339D02*
Y189939D01*
X271142D01*
X250276Y146339D02*
X271142D01*
Y161417D01*
X0Y233858D02*
X118504D01*
D16*
X223065Y324840D02*
X222540Y324315D01*
Y323266D01*
X223065Y322741D01*
X225164D01*
X225689Y323266D01*
Y324315D01*
X225164Y324840D01*
X225689Y325890D02*
X223589D01*
X222540Y326939D01*
X223589Y327989D01*
X225689D01*
X224114D01*
Y325890D01*
X222540Y329038D02*
X225164D01*
X225689Y329563D01*
Y330612D01*
X225164Y331137D01*
X222540D01*
Y332187D02*
Y334286D01*
Y333236D01*
X225689D01*
X222540Y335335D02*
Y336385D01*
Y335860D01*
X225689D01*
Y335335D01*
Y336385D01*
X222540Y339533D02*
Y338484D01*
X223065Y337959D01*
X225164D01*
X225689Y338484D01*
Y339533D01*
X225164Y340058D01*
X223065D01*
X222540Y339533D01*
X225689Y341108D02*
X222540D01*
X225689Y343207D01*
X222540D01*
Y347405D02*
X225689D01*
X224114D01*
Y349504D01*
X222540D01*
X225689D01*
X222540Y350554D02*
X224639D01*
X225689Y351603D01*
X224639Y352653D01*
X222540D01*
M02*
