G04*
G04 #@! TF.GenerationSoftware,Altium Limited,Altium Designer,18.1.6 (161)*
G04*
G04 Layer_Color=8388736*
%FSLAX25Y25*%
%MOIN*%
G70*
G01*
G75*
%ADD39R,0.04537X0.04143*%
%ADD40R,0.04143X0.04537*%
%ADD41R,0.03162X0.05328*%
%ADD42R,0.03910X0.01981*%
%ADD43R,0.01784X0.02375*%
%ADD44R,0.05524X0.04737*%
%ADD45R,0.03950X0.03950*%
%ADD46R,0.01981X0.06902*%
%ADD47O,0.01981X0.06902*%
%ADD48O,0.06902X0.01981*%
%ADD49R,0.07887X0.03950*%
%ADD50R,0.07099X0.01981*%
%ADD51O,0.07099X0.01981*%
%ADD52R,0.10642X0.03753*%
G04:AMPARAMS|DCode=53|XSize=37.53mil|YSize=106.42mil|CornerRadius=11.38mil|HoleSize=0mil|Usage=FLASHONLY|Rotation=270.000|XOffset=0mil|YOffset=0mil|HoleType=Round|Shape=RoundedRectangle|*
%AMROUNDEDRECTD53*
21,1,0.03753,0.08366,0,0,270.0*
21,1,0.01476,0.10642,0,0,270.0*
1,1,0.02276,-0.04183,-0.00738*
1,1,0.02276,-0.04183,0.00738*
1,1,0.02276,0.04183,0.00738*
1,1,0.02276,0.04183,-0.00738*
%
%ADD53ROUNDEDRECTD53*%
%ADD54R,0.05524X0.04737*%
G04:AMPARAMS|DCode=55|XSize=55.24mil|YSize=94.61mil|CornerRadius=15.81mil|HoleSize=0mil|Usage=FLASHONLY|Rotation=270.000|XOffset=0mil|YOffset=0mil|HoleType=Round|Shape=RoundedRectangle|*
%AMROUNDEDRECTD55*
21,1,0.05524,0.06299,0,0,270.0*
21,1,0.02362,0.09461,0,0,270.0*
1,1,0.03162,-0.03150,-0.01181*
1,1,0.03162,-0.03150,0.01181*
1,1,0.03162,0.03150,0.01181*
1,1,0.03162,0.03150,-0.01181*
%
%ADD55ROUNDEDRECTD55*%
%ADD56R,0.09461X0.05524*%
G04:AMPARAMS|DCode=57|XSize=86.74mil|YSize=173.35mil|CornerRadius=23.68mil|HoleSize=0mil|Usage=FLASHONLY|Rotation=270.000|XOffset=0mil|YOffset=0mil|HoleType=Round|Shape=RoundedRectangle|*
%AMROUNDEDRECTD57*
21,1,0.08674,0.12598,0,0,270.0*
21,1,0.03937,0.17335,0,0,270.0*
1,1,0.04737,-0.06299,-0.01968*
1,1,0.04737,-0.06299,0.01968*
1,1,0.04737,0.06299,0.01968*
1,1,0.04737,0.06299,-0.01968*
%
%ADD57ROUNDEDRECTD57*%
%ADD58R,0.04147X0.04147*%
%ADD59R,0.04147X0.04147*%
%ADD60O,0.02572X0.05131*%
%ADD61R,0.02572X0.05131*%
%ADD62C,0.03556*%
%ADD63C,0.00800*%
%ADD64C,0.07099*%
%ADD65R,0.07099X0.07099*%
%ADD66C,0.11430*%
%ADD67R,0.07099X0.07099*%
%ADD68C,0.03162*%
D39*
X94095Y87517D02*
D03*
Y82202D02*
D03*
X94899Y25475D02*
D03*
Y30790D02*
D03*
X74820Y113681D02*
D03*
Y108366D02*
D03*
X81923Y113681D02*
D03*
Y108366D02*
D03*
D40*
X53248Y82497D02*
D03*
X58563D02*
D03*
X63484Y28346D02*
D03*
X68799D02*
D03*
X18029Y122441D02*
D03*
X23344D02*
D03*
X88090Y28346D02*
D03*
X82776D02*
D03*
D41*
X129472Y145133D02*
D03*
X136952D02*
D03*
X133212Y153991D02*
D03*
D42*
X140157Y54173D02*
D03*
X143164Y124646D02*
D03*
D43*
X136516Y59646D02*
D03*
Y57087D02*
D03*
Y54528D02*
D03*
X143799D02*
D03*
Y57087D02*
D03*
Y59646D02*
D03*
X139523Y130118D02*
D03*
Y127559D02*
D03*
Y125000D02*
D03*
X146806D02*
D03*
Y127559D02*
D03*
Y130118D02*
D03*
D44*
X140157Y58268D02*
D03*
X143164Y128740D02*
D03*
D45*
X186614Y45669D02*
D03*
Y51575D02*
D03*
X187047Y130118D02*
D03*
Y136024D02*
D03*
D46*
X66831Y39665D02*
D03*
D47*
X68799D02*
D03*
X70768D02*
D03*
X72736D02*
D03*
X74705D02*
D03*
X76673D02*
D03*
X78642D02*
D03*
X80610D02*
D03*
X82579D02*
D03*
X84547D02*
D03*
X86516D02*
D03*
X88484D02*
D03*
Y73327D02*
D03*
X86516D02*
D03*
X84547D02*
D03*
X82579D02*
D03*
X80610D02*
D03*
X78642D02*
D03*
X76673D02*
D03*
X74705D02*
D03*
X72736D02*
D03*
X70768D02*
D03*
X68799D02*
D03*
X66831D02*
D03*
D48*
X94488Y45669D02*
D03*
Y47638D02*
D03*
Y49606D02*
D03*
Y51575D02*
D03*
Y53543D02*
D03*
Y55512D02*
D03*
Y57480D02*
D03*
Y59449D02*
D03*
Y61417D02*
D03*
Y63386D02*
D03*
Y65354D02*
D03*
Y67323D02*
D03*
X60827D02*
D03*
Y65354D02*
D03*
Y63386D02*
D03*
Y61417D02*
D03*
Y59449D02*
D03*
Y57480D02*
D03*
Y55512D02*
D03*
Y53543D02*
D03*
Y51575D02*
D03*
Y49606D02*
D03*
Y47638D02*
D03*
Y45669D02*
D03*
D49*
X116142Y89764D02*
D03*
Y28346D02*
D03*
D50*
X109055Y35433D02*
D03*
D51*
Y37402D02*
D03*
Y39370D02*
D03*
Y41339D02*
D03*
Y43307D02*
D03*
Y45276D02*
D03*
Y47244D02*
D03*
Y49213D02*
D03*
Y51181D02*
D03*
Y53150D02*
D03*
Y55118D02*
D03*
Y57087D02*
D03*
Y59055D02*
D03*
Y61024D02*
D03*
Y62992D02*
D03*
Y64961D02*
D03*
Y66929D02*
D03*
Y68898D02*
D03*
Y70866D02*
D03*
Y72835D02*
D03*
Y74803D02*
D03*
Y76772D02*
D03*
Y78740D02*
D03*
Y80709D02*
D03*
Y82677D02*
D03*
X123228D02*
D03*
Y80709D02*
D03*
Y78740D02*
D03*
Y76772D02*
D03*
Y74803D02*
D03*
Y72835D02*
D03*
Y70866D02*
D03*
Y68898D02*
D03*
Y66929D02*
D03*
Y64961D02*
D03*
Y62992D02*
D03*
Y61024D02*
D03*
Y59055D02*
D03*
Y57087D02*
D03*
Y55118D02*
D03*
Y53150D02*
D03*
Y51181D02*
D03*
Y49213D02*
D03*
Y47244D02*
D03*
Y45276D02*
D03*
Y43307D02*
D03*
Y41339D02*
D03*
Y39370D02*
D03*
Y37402D02*
D03*
Y35433D02*
D03*
D52*
X8268Y167480D02*
D03*
D53*
X23622D02*
D03*
Y162480D02*
D03*
X8268D02*
D03*
X23622Y157480D02*
D03*
X8268D02*
D03*
X23622Y152480D02*
D03*
X8268D02*
D03*
X23622Y147480D02*
D03*
X8268D02*
D03*
D54*
X75591Y20948D02*
D03*
X82284D02*
D03*
X75591Y15830D02*
D03*
X82284D02*
D03*
D55*
X69882Y163779D02*
D03*
Y155905D02*
D03*
Y148031D02*
D03*
X120394Y163779D02*
D03*
Y155905D02*
D03*
Y148031D02*
D03*
D56*
X69882Y171653D02*
D03*
X120394D02*
D03*
D57*
X47913Y185827D02*
D03*
Y133858D02*
D03*
X98425Y185827D02*
D03*
Y133858D02*
D03*
D58*
X187008Y141831D02*
D03*
Y147933D02*
D03*
X144095Y96358D02*
D03*
Y90256D02*
D03*
X143701Y115256D02*
D03*
Y109153D02*
D03*
X51853Y53445D02*
D03*
Y47343D02*
D03*
X186415Y63803D02*
D03*
Y57700D02*
D03*
X142520Y42011D02*
D03*
Y48113D02*
D03*
D59*
X127679Y124803D02*
D03*
X133782D02*
D03*
X17618Y129347D02*
D03*
X23720D02*
D03*
D60*
X67618Y113484D02*
D03*
X65059D02*
D03*
X62500D02*
D03*
X59941D02*
D03*
X67618Y103051D02*
D03*
X65059D02*
D03*
X62500D02*
D03*
D61*
X59941D02*
D03*
D62*
X122047Y86811D02*
D03*
Y31299D02*
D03*
D63*
X158937Y86614D02*
D03*
Y147638D02*
D03*
Y70079D02*
D03*
Y9055D02*
D03*
D64*
X161417Y96457D02*
D03*
Y110236D02*
D03*
Y124016D02*
D03*
X168110Y167992D02*
D03*
X134646D02*
D03*
X158268Y170472D02*
D03*
X161417Y46457D02*
D03*
Y32677D02*
D03*
Y18898D02*
D03*
D65*
Y137795D02*
D03*
Y60236D02*
D03*
D66*
X9843Y108268D02*
D03*
X127953D02*
D03*
Y9843D02*
D03*
X9843D02*
D03*
X187008D02*
D03*
X187008Y187008D02*
D03*
X9843D02*
D03*
D67*
X144488Y170472D02*
D03*
D68*
X146806Y120866D02*
D03*
X143164Y120731D02*
D03*
X134885Y51181D02*
D03*
X88090Y23622D02*
D03*
X99903Y25475D02*
D03*
X53248Y87402D02*
D03*
X94095Y92189D02*
D03*
X134646Y33858D02*
D03*
Y39764D02*
D03*
X63779Y96457D02*
D03*
X61811Y40945D02*
D03*
X131102Y77559D02*
D03*
X144095Y80709D02*
D03*
X115748Y52756D02*
D03*
X132283Y54331D02*
D03*
X172441Y33465D02*
D03*
X179724D02*
D03*
X187008D02*
D03*
Y40551D02*
D03*
X179724D02*
D03*
X172441D02*
D03*
X135039Y100787D02*
D03*
X147638Y51575D02*
D03*
X53150Y77165D02*
D03*
X129528Y39764D02*
D03*
X180512Y46260D02*
D03*
X18701Y173228D02*
D03*
X11811D02*
D03*
X42323Y142717D02*
D03*
X7480Y129134D02*
D03*
X48031Y115354D02*
D03*
X47638Y142520D02*
D03*
X31496Y85433D02*
D03*
X78642Y46949D02*
D03*
X27165Y80709D02*
D03*
X36220D02*
D03*
X23622Y115748D02*
D03*
X42323Y85039D02*
D03*
X115748Y63779D02*
D03*
Y69291D02*
D03*
X81496Y57480D02*
D03*
X86614D02*
D03*
X81496Y52362D02*
D03*
X86614D02*
D03*
X129528Y33858D02*
D03*
X116929Y39764D02*
D03*
X101969Y40551D02*
D03*
Y35827D02*
D03*
X81496Y81102D02*
D03*
X101969Y70472D02*
D03*
X22047Y85433D02*
D03*
X46457Y46850D02*
D03*
X41732Y57087D02*
D03*
X82347Y11417D02*
D03*
X57087Y28346D02*
D03*
X75591Y25772D02*
D03*
X16142Y142913D02*
D03*
X12598Y122441D02*
D03*
X31496Y128740D02*
D03*
X36220Y125984D02*
D03*
X79134Y163779D02*
D03*
X58268D02*
D03*
X109843D02*
D03*
X74803Y120866D02*
D03*
X81890D02*
D03*
X116142Y82677D02*
D03*
X34252Y57480D02*
D03*
X116144Y59055D02*
D03*
X187008Y124016D02*
D03*
M02*
