G04*
G04 #@! TF.GenerationSoftware,Altium Limited,Altium Designer,18.1.6 (161)*
G04*
G04 Layer_Color=16711935*
%FSLAX25Y25*%
%MOIN*%
G70*
G01*
G75*
%ADD102C,0.00394*%
%ADD103R,0.00847X0.03150*%
D102*
X209559Y58898D02*
G03*
X209559Y58898I-1575J0D01*
G01*
X211559Y125303D02*
G03*
X211559Y125303I-1575J0D01*
G01*
X77838Y57087D02*
G03*
X77838Y57087I-1969J0D01*
G01*
X151476Y36755D02*
Y39904D01*
X157776Y36755D02*
Y39904D01*
X151476D02*
X157776D01*
X151476Y36755D02*
X157776D01*
X157633Y31736D02*
Y34886D01*
X151333Y31736D02*
Y34886D01*
Y31736D02*
X157633D01*
X151333Y34886D02*
X157633D01*
X37555Y119188D02*
Y122968D01*
X44445Y119188D02*
Y122968D01*
X37555Y119188D02*
X44445D01*
X37555Y122968D02*
X44445D01*
X39445Y156033D02*
Y159812D01*
X32555Y156033D02*
Y159812D01*
X39445D01*
X32555Y156033D02*
X39445D01*
X19499Y126311D02*
X34066D01*
X19499Y152689D02*
X34066D01*
X19499Y126311D02*
Y152689D01*
X34066Y126311D02*
Y152689D01*
X145075Y64850D02*
Y71150D01*
X141925Y64850D02*
Y71150D01*
X145075D01*
X141925Y64850D02*
X145075D01*
X104714Y57787D02*
X108493D01*
X104714Y50898D02*
X108493D01*
X104714D02*
Y57787D01*
X108493Y50898D02*
Y57787D01*
X97610D02*
X101390D01*
X97610Y50898D02*
X101390D01*
X97610D02*
Y57787D01*
X101390Y50898D02*
Y57787D01*
X69846Y78890D02*
Y90110D01*
X63153Y78890D02*
Y90110D01*
Y78890D02*
X69846D01*
X63153Y90110D02*
X69846D01*
X57514Y117713D02*
X61293D01*
X57514Y124602D02*
X61293D01*
X57514Y117713D02*
Y124602D01*
X61293Y117713D02*
Y124602D01*
X50410Y117635D02*
X54190D01*
X50410Y124525D02*
X54190D01*
X50410Y117635D02*
Y124525D01*
X54190Y117635D02*
Y124525D01*
X39291Y116946D02*
X45591D01*
X39291Y120096D02*
X45591D01*
Y116946D02*
Y120096D01*
X39291Y116946D02*
Y120096D01*
X41339Y98622D02*
X48425D01*
X41339Y110827D02*
X48425D01*
Y98622D02*
Y110827D01*
X41339Y98622D02*
Y110827D01*
X24575Y58350D02*
Y64650D01*
X21425Y58350D02*
Y64650D01*
Y58350D02*
X24575D01*
X21425Y64650D02*
X24575D01*
X32350Y63425D02*
X38650D01*
X32350Y66575D02*
X38650D01*
X32350Y63425D02*
Y66575D01*
X38650Y63425D02*
Y66575D01*
X34457Y72398D02*
X41543D01*
X34457Y84602D02*
X41543D01*
X34457Y72398D02*
Y84602D01*
X41543Y72398D02*
Y84602D01*
X75984Y83858D02*
X82284D01*
X75984Y87008D02*
X82284D01*
Y83858D02*
Y87008D01*
X75984Y83858D02*
Y87008D01*
X75590Y91732D02*
X81890D01*
X75590Y94882D02*
X81890D01*
Y91732D02*
Y94882D01*
X75590Y91732D02*
Y94882D01*
X212445Y84905D02*
Y98094D01*
X205555Y84905D02*
Y98094D01*
X212445D01*
X205555Y84905D02*
X212445D01*
X189750Y46125D02*
X196050D01*
X189750Y49275D02*
X196050D01*
Y46125D02*
Y49275D01*
X189750Y46125D02*
Y49275D01*
Y53225D02*
X196050D01*
X189750Y56375D02*
X196050D01*
Y53225D02*
Y56375D01*
X189750Y53225D02*
Y56375D01*
X202866Y62047D02*
X211134D01*
X202866Y53780D02*
X211134D01*
Y62047D01*
X202866Y53780D02*
Y62047D01*
X215210Y155992D02*
Y169181D01*
X222099Y155992D02*
Y169181D01*
X215210Y155992D02*
X222099D01*
X215210Y169181D02*
X222099D01*
X192914Y120425D02*
X199214D01*
X192914Y123575D02*
X199214D01*
Y120425D02*
Y123575D01*
X192914Y120425D02*
Y123575D01*
X192799Y113716D02*
X199098D01*
X192799Y116865D02*
X199098D01*
Y113716D02*
Y116865D01*
X192799Y113716D02*
Y116865D01*
X216445Y144066D02*
X222744D01*
X216445Y140916D02*
X222744D01*
X216445D02*
Y144066D01*
X222744Y140916D02*
Y144066D01*
X204866Y128453D02*
X213134D01*
X204866Y120185D02*
X213134D01*
Y128453D01*
X204866Y120185D02*
Y128453D01*
X204022Y182119D02*
X208992Y177149D01*
Y156135D02*
Y177149D01*
X183008Y156135D02*
X208992D01*
X183008D02*
Y177149D01*
X187978Y182119D01*
X204022D01*
X91850Y80452D02*
X98150D01*
X91850Y77302D02*
X98150D01*
X91850D02*
Y80452D01*
X98150Y77302D02*
Y80452D01*
X91244Y96905D02*
X96756D01*
X91244Y85094D02*
X96756D01*
X91244D02*
Y96905D01*
X96756Y85094D02*
Y96905D01*
X39291Y126805D02*
X45591D01*
X39291Y123655D02*
X45591D01*
X39291D02*
Y126805D01*
X45591Y123655D02*
Y126805D01*
X31086Y102765D02*
Y109064D01*
X34235Y102765D02*
Y109064D01*
X31086Y102765D02*
X34235D01*
X31086Y109064D02*
X34235D01*
X30999Y90150D02*
Y96449D01*
X34149Y90150D02*
Y96449D01*
X30999Y90150D02*
X34149D01*
X30999Y96449D02*
X34149D01*
X139425Y43150D02*
X142575D01*
X139425Y36850D02*
X142575D01*
X139425D02*
Y43150D01*
X142575Y36850D02*
Y43150D01*
X72326Y34646D02*
X90042D01*
X72326Y60630D02*
X90042D01*
Y34646D02*
Y60630D01*
X72326Y34646D02*
Y60630D01*
X87402Y68619D02*
X93701D01*
X87402Y65469D02*
X93701D01*
X87402D02*
Y68619D01*
X93701Y65469D02*
Y68619D01*
X92945Y118136D02*
Y121916D01*
X86055Y118136D02*
Y121916D01*
Y118136D02*
X92945D01*
X86055Y121916D02*
X92945D01*
X81757Y102194D02*
X88843D01*
X81757Y114005D02*
X88843D01*
Y102194D02*
Y114005D01*
X81757Y102194D02*
Y114005D01*
X172244Y132595D02*
Y144405D01*
X177756Y132595D02*
Y144405D01*
X172244D02*
X177756D01*
X172244Y132595D02*
X177756D01*
X70571Y118136D02*
Y121916D01*
X77461Y118136D02*
Y121916D01*
X70571D02*
X77461D01*
X70571Y118136D02*
X77461D01*
X86713Y18583D02*
X93602D01*
X86713Y22362D02*
X93602D01*
Y18583D02*
Y22362D01*
X86713Y18583D02*
Y22362D01*
X47736D02*
X54626D01*
X47736Y18583D02*
X54626D01*
X47736D02*
Y22362D01*
X54626Y18583D02*
Y22362D01*
X190759Y73575D02*
X197058D01*
X190759Y70425D02*
X197058D01*
X190759D02*
Y73575D01*
X197058Y70425D02*
Y73575D01*
X202539Y73692D02*
X208838D01*
X202539Y70542D02*
X208838D01*
X202539D02*
Y73692D01*
X208838Y70542D02*
Y73692D01*
X203550Y144026D02*
X209849D01*
X203550Y140877D02*
X209849D01*
X203550D02*
Y144026D01*
X209849Y140877D02*
Y144026D01*
X188022Y80008D02*
X192992Y84978D01*
X167008Y80008D02*
X188022D01*
X167008D02*
Y105992D01*
X188022D01*
X192992Y101022D01*
Y84978D02*
Y101022D01*
D103*
X151757Y33311D02*
D03*
X191182Y72000D02*
D03*
X203974Y142452D02*
D03*
M02*
