G04*
G04 #@! TF.GenerationSoftware,Altium Limited,Altium Designer,18.1.6 (161)*
G04*
G04 Layer_Color=8421504*
%FSLAX25Y25*%
%MOIN*%
G70*
G01*
G75*
%ADD16R,0.03937X0.03543*%
%ADD17R,0.03543X0.03937*%
%ADD18R,0.02362X0.04528*%
%ADD19R,0.03110X0.01181*%
%ADD20R,0.00984X0.01575*%
%ADD21R,0.04724X0.03937*%
%ADD22R,0.03150X0.03150*%
%ADD23R,0.01181X0.06102*%
%ADD24O,0.01181X0.06102*%
%ADD25O,0.06102X0.01181*%
%ADD26R,0.07087X0.03150*%
%ADD27R,0.06299X0.01181*%
%ADD28O,0.06299X0.01181*%
%ADD29R,0.09843X0.02953*%
G04:AMPARAMS|DCode=30|XSize=29.53mil|YSize=98.43mil|CornerRadius=7.38mil|HoleSize=0mil|Usage=FLASHONLY|Rotation=270.000|XOffset=0mil|YOffset=0mil|HoleType=Round|Shape=RoundedRectangle|*
%AMROUNDEDRECTD30*
21,1,0.02953,0.08366,0,0,270.0*
21,1,0.01476,0.09843,0,0,270.0*
1,1,0.01476,-0.04183,-0.00738*
1,1,0.01476,-0.04183,0.00738*
1,1,0.01476,0.04183,0.00738*
1,1,0.01476,0.04183,-0.00738*
%
%ADD30ROUNDEDRECTD30*%
%ADD31R,0.04724X0.03937*%
G04:AMPARAMS|DCode=32|XSize=47.24mil|YSize=86.61mil|CornerRadius=11.81mil|HoleSize=0mil|Usage=FLASHONLY|Rotation=270.000|XOffset=0mil|YOffset=0mil|HoleType=Round|Shape=RoundedRectangle|*
%AMROUNDEDRECTD32*
21,1,0.04724,0.06299,0,0,270.0*
21,1,0.02362,0.08661,0,0,270.0*
1,1,0.02362,-0.03150,-0.01181*
1,1,0.02362,-0.03150,0.01181*
1,1,0.02362,0.03150,0.01181*
1,1,0.02362,0.03150,-0.01181*
%
%ADD32ROUNDEDRECTD32*%
%ADD33R,0.08661X0.04724*%
G04:AMPARAMS|DCode=34|XSize=78.74mil|YSize=165.35mil|CornerRadius=19.68mil|HoleSize=0mil|Usage=FLASHONLY|Rotation=270.000|XOffset=0mil|YOffset=0mil|HoleType=Round|Shape=RoundedRectangle|*
%AMROUNDEDRECTD34*
21,1,0.07874,0.12598,0,0,270.0*
21,1,0.03937,0.16535,0,0,270.0*
1,1,0.03937,-0.06299,-0.01968*
1,1,0.03937,-0.06299,0.01968*
1,1,0.03937,0.06299,0.01968*
1,1,0.03937,0.06299,-0.01968*
%
%ADD34ROUNDEDRECTD34*%
%ADD35R,0.03347X0.03347*%
%ADD36R,0.03347X0.03347*%
%ADD37O,0.01772X0.04331*%
%ADD38R,0.01772X0.04331*%
D16*
X94095Y87517D02*
D03*
Y82202D02*
D03*
X94899Y25475D02*
D03*
Y30790D02*
D03*
X74820Y113681D02*
D03*
Y108366D02*
D03*
X81923Y113681D02*
D03*
Y108366D02*
D03*
D17*
X53248Y82497D02*
D03*
X58563D02*
D03*
X63484Y28346D02*
D03*
X68799D02*
D03*
X18029Y122441D02*
D03*
X23344D02*
D03*
X88090Y28346D02*
D03*
X82776D02*
D03*
D18*
X129472Y145133D02*
D03*
X136952D02*
D03*
X133212Y153991D02*
D03*
D19*
X140157Y54173D02*
D03*
X143164Y124646D02*
D03*
D20*
X136516Y59646D02*
D03*
Y57087D02*
D03*
Y54528D02*
D03*
X143799D02*
D03*
Y57087D02*
D03*
Y59646D02*
D03*
X139523Y130118D02*
D03*
Y127559D02*
D03*
Y125000D02*
D03*
X146806D02*
D03*
Y127559D02*
D03*
Y130118D02*
D03*
D21*
X140157Y58268D02*
D03*
X143164Y128740D02*
D03*
D22*
X186614Y45669D02*
D03*
Y51575D02*
D03*
X187047Y130118D02*
D03*
Y136024D02*
D03*
D23*
X66831Y39665D02*
D03*
D24*
X68799D02*
D03*
X70768D02*
D03*
X72736D02*
D03*
X74705D02*
D03*
X76673D02*
D03*
X78642D02*
D03*
X80610D02*
D03*
X82579D02*
D03*
X84547D02*
D03*
X86516D02*
D03*
X88484D02*
D03*
Y73327D02*
D03*
X86516D02*
D03*
X84547D02*
D03*
X82579D02*
D03*
X80610D02*
D03*
X78642D02*
D03*
X76673D02*
D03*
X74705D02*
D03*
X72736D02*
D03*
X70768D02*
D03*
X68799D02*
D03*
X66831D02*
D03*
D25*
X94488Y45669D02*
D03*
Y47638D02*
D03*
Y49606D02*
D03*
Y51575D02*
D03*
Y53543D02*
D03*
Y55512D02*
D03*
Y57480D02*
D03*
Y59449D02*
D03*
Y61417D02*
D03*
Y63386D02*
D03*
Y65354D02*
D03*
Y67323D02*
D03*
X60827D02*
D03*
Y65354D02*
D03*
Y63386D02*
D03*
Y61417D02*
D03*
Y59449D02*
D03*
Y57480D02*
D03*
Y55512D02*
D03*
Y53543D02*
D03*
Y51575D02*
D03*
Y49606D02*
D03*
Y47638D02*
D03*
Y45669D02*
D03*
D26*
X116142Y89764D02*
D03*
Y28346D02*
D03*
D27*
X109055Y35433D02*
D03*
D28*
Y37402D02*
D03*
Y39370D02*
D03*
Y41339D02*
D03*
Y43307D02*
D03*
Y45276D02*
D03*
Y47244D02*
D03*
Y49213D02*
D03*
Y51181D02*
D03*
Y53150D02*
D03*
Y55118D02*
D03*
Y57087D02*
D03*
Y59055D02*
D03*
Y61024D02*
D03*
Y62992D02*
D03*
Y64961D02*
D03*
Y66929D02*
D03*
Y68898D02*
D03*
Y70866D02*
D03*
Y72835D02*
D03*
Y74803D02*
D03*
Y76772D02*
D03*
Y78740D02*
D03*
Y80709D02*
D03*
Y82677D02*
D03*
X123228D02*
D03*
Y80709D02*
D03*
Y78740D02*
D03*
Y76772D02*
D03*
Y74803D02*
D03*
Y72835D02*
D03*
Y70866D02*
D03*
Y68898D02*
D03*
Y66929D02*
D03*
Y64961D02*
D03*
Y62992D02*
D03*
Y61024D02*
D03*
Y59055D02*
D03*
Y57087D02*
D03*
Y55118D02*
D03*
Y53150D02*
D03*
Y51181D02*
D03*
Y49213D02*
D03*
Y47244D02*
D03*
Y45276D02*
D03*
Y43307D02*
D03*
Y41339D02*
D03*
Y39370D02*
D03*
Y37402D02*
D03*
Y35433D02*
D03*
D29*
X8268Y167480D02*
D03*
D30*
X23622D02*
D03*
Y162480D02*
D03*
X8268D02*
D03*
X23622Y157480D02*
D03*
X8268D02*
D03*
X23622Y152480D02*
D03*
X8268D02*
D03*
X23622Y147480D02*
D03*
X8268D02*
D03*
D31*
X75591Y20948D02*
D03*
X82284D02*
D03*
X75591Y15830D02*
D03*
X82284D02*
D03*
D32*
X69882Y163779D02*
D03*
Y155905D02*
D03*
Y148031D02*
D03*
X120394Y163779D02*
D03*
Y155905D02*
D03*
Y148031D02*
D03*
D33*
X69882Y171653D02*
D03*
X120394D02*
D03*
D34*
X47913Y185827D02*
D03*
Y133858D02*
D03*
X98425Y185827D02*
D03*
Y133858D02*
D03*
D35*
X187008Y141831D02*
D03*
Y147933D02*
D03*
X144095Y96358D02*
D03*
Y90256D02*
D03*
X143701Y115256D02*
D03*
Y109153D02*
D03*
X51853Y53445D02*
D03*
Y47343D02*
D03*
X186415Y63803D02*
D03*
Y57700D02*
D03*
X142520Y42011D02*
D03*
Y48113D02*
D03*
D36*
X127679Y124803D02*
D03*
X133782D02*
D03*
X17618Y129347D02*
D03*
X23720D02*
D03*
D37*
X67618Y113484D02*
D03*
X65059D02*
D03*
X62500D02*
D03*
X59941D02*
D03*
X67618Y103051D02*
D03*
X65059D02*
D03*
X62500D02*
D03*
D38*
X59941D02*
D03*
M02*
