G04*
G04 #@! TF.GenerationSoftware,Altium Limited,Altium Designer,18.1.6 (161)*
G04*
G04 Layer_Color=255*
%FSLAX25Y25*%
%MOIN*%
G70*
G01*
G75*
%ADD18R,0.03347X0.03347*%
%ADD20R,0.03347X0.03347*%
%ADD21R,0.03937X0.03543*%
%ADD22R,0.03740X0.02362*%
%ADD33R,0.03543X0.03937*%
%ADD73R,0.03937X0.03937*%
%ADD78C,0.10630*%
%ADD79C,0.06299*%
%ADD80R,0.06299X0.06299*%
%ADD81R,0.06299X0.06299*%
%ADD82C,0.02756*%
%ADD84R,0.09449X0.12992*%
%ADD85R,0.09449X0.03937*%
%ADD86R,0.05512X0.08661*%
%ADD87R,0.05512X0.03543*%
%ADD88R,0.02756X0.03150*%
%ADD89R,0.08500X0.07000*%
%ADD90R,0.06693X0.09843*%
%ADD91R,0.03937X0.03937*%
%ADD92R,0.07000X0.08500*%
D18*
X32449Y65000D02*
D03*
X38551D02*
D03*
D20*
X23000Y58449D02*
D03*
Y64551D02*
D03*
X141000Y43051D02*
D03*
Y36949D02*
D03*
D21*
X106603Y57000D02*
D03*
Y51685D02*
D03*
X99500Y57000D02*
D03*
Y51685D02*
D03*
D22*
X32587Y72890D02*
D03*
Y76630D02*
D03*
Y80370D02*
D03*
Y84110D02*
D03*
X43413Y72890D02*
D03*
Y76630D02*
D03*
Y80370D02*
D03*
Y84110D02*
D03*
D33*
X38342Y121078D02*
D03*
X43657D02*
D03*
X38658Y157922D02*
D03*
X33342D02*
D03*
D73*
X86000Y29100D02*
D03*
X77953Y57087D02*
D03*
X68504Y52362D02*
D03*
X75197Y47638D02*
D03*
X76772Y36220D02*
D03*
X53150Y28740D02*
D03*
X158268Y64173D02*
D03*
X78740Y103937D02*
D03*
X93849Y17751D02*
D03*
X174016Y114961D02*
D03*
D78*
X9843Y108268D02*
D03*
X127953D02*
D03*
Y9843D02*
D03*
X9843D02*
D03*
X255906D02*
D03*
Y187008D02*
D03*
X9843Y187008D02*
D03*
D79*
X240721Y115142D02*
D03*
Y128921D02*
D03*
Y142701D02*
D03*
X151575Y18228D02*
D03*
X185039D02*
D03*
X161417Y15748D02*
D03*
X240721Y65929D02*
D03*
Y52150D02*
D03*
Y38370D02*
D03*
D80*
Y156480D02*
D03*
Y79709D02*
D03*
D81*
X175197Y15748D02*
D03*
D82*
X122047Y86811D02*
D03*
Y31299D02*
D03*
D84*
X15365Y139500D02*
D03*
D85*
X38200Y130445D02*
D03*
Y139500D02*
D03*
Y148555D02*
D03*
D86*
X57875Y49016D02*
D03*
X46260Y51968D02*
D03*
D87*
X57875Y59055D02*
D03*
X46260Y62008D02*
D03*
D88*
X66500Y78988D02*
D03*
Y90012D02*
D03*
D89*
X221000Y57500D02*
D03*
Y41500D02*
D03*
Y126500D02*
D03*
Y110500D02*
D03*
D90*
Y89748D02*
D03*
Y74000D02*
D03*
X207015Y142520D02*
D03*
Y126772D02*
D03*
D91*
X181890Y54331D02*
D03*
X78347Y111417D02*
D03*
D92*
X91339Y168898D02*
D03*
X75339D02*
D03*
X90945Y154724D02*
D03*
X74945D02*
D03*
M02*
