G04*
G04 #@! TF.GenerationSoftware,Altium Limited,Altium Designer,18.1.6 (161)*
G04*
G04 Layer_Physical_Order=1*
G04 Layer_Color=255*
%FSLAX25Y25*%
%MOIN*%
G70*
G01*
G75*
%ADD14C,0.01575*%
%ADD16C,0.01000*%
%ADD18R,0.03347X0.03347*%
%ADD19R,0.03150X0.03150*%
%ADD20R,0.03347X0.03347*%
%ADD21R,0.03937X0.03543*%
%ADD22R,0.03740X0.02362*%
%ADD23R,0.07087X0.05512*%
%ADD24R,0.03110X0.01181*%
%ADD25R,0.00984X0.01575*%
%ADD26R,0.04724X0.03937*%
%ADD27R,0.06102X0.13583*%
G04:AMPARAMS|DCode=28|XSize=78.74mil|YSize=165.35mil|CornerRadius=19.68mil|HoleSize=0mil|Usage=FLASHONLY|Rotation=270.000|XOffset=0mil|YOffset=0mil|HoleType=Round|Shape=RoundedRectangle|*
%AMROUNDEDRECTD28*
21,1,0.07874,0.12598,0,0,270.0*
21,1,0.03937,0.16535,0,0,270.0*
1,1,0.03937,-0.06299,-0.01968*
1,1,0.03937,-0.06299,0.01968*
1,1,0.03937,0.06299,0.01968*
1,1,0.03937,0.06299,-0.01968*
%
%ADD28ROUNDEDRECTD28*%
G04:AMPARAMS|DCode=29|XSize=47.24mil|YSize=86.61mil|CornerRadius=11.81mil|HoleSize=0mil|Usage=FLASHONLY|Rotation=270.000|XOffset=0mil|YOffset=0mil|HoleType=Round|Shape=RoundedRectangle|*
%AMROUNDEDRECTD29*
21,1,0.04724,0.06299,0,0,270.0*
21,1,0.02362,0.08661,0,0,270.0*
1,1,0.02362,-0.03150,-0.01181*
1,1,0.02362,-0.03150,0.01181*
1,1,0.02362,0.03150,0.01181*
1,1,0.02362,0.03150,-0.01181*
%
%ADD29ROUNDEDRECTD29*%
%ADD30R,0.08661X0.04724*%
%ADD31R,0.03543X0.03150*%
%ADD32R,0.05709X0.01772*%
%ADD33R,0.03543X0.03937*%
%ADD34O,0.04331X0.01772*%
%ADD35R,0.04331X0.01772*%
%ADD36R,0.04528X0.02362*%
%ADD37R,0.07087X0.03150*%
%ADD38R,0.06299X0.01181*%
%ADD39O,0.06299X0.01181*%
%ADD40R,0.07480X0.09449*%
%ADD41R,0.13583X0.06102*%
%ADD73R,0.03937X0.03937*%
%ADD74C,0.01500*%
%ADD75C,0.00606*%
%ADD76C,0.01181*%
%ADD77C,0.00988*%
%ADD78C,0.10630*%
%ADD79C,0.06299*%
%ADD80R,0.06299X0.06299*%
%ADD81R,0.06299X0.06299*%
%ADD82C,0.02756*%
%ADD83C,0.02362*%
G36*
X250500Y128500D02*
X245230D01*
X244900Y128876D01*
X244906Y128921D01*
X244763Y130005D01*
X244345Y131014D01*
X243680Y131881D01*
X242813Y132546D01*
X241804Y132964D01*
X240721Y133107D01*
X239637Y132964D01*
X238628Y132546D01*
X237761Y131881D01*
X237096Y131014D01*
X236678Y130005D01*
X236535Y128921D01*
X236541Y128876D01*
X236211Y128500D01*
X217500Y128500D01*
Y123000D01*
X214134D01*
Y123819D01*
X212642D01*
Y124819D01*
X214134D01*
Y125091D01*
Y126378D01*
X212642D01*
Y126878D01*
X212142D01*
Y128665D01*
X211150D01*
Y128469D01*
X209500D01*
Y125500D01*
X208500D01*
Y128469D01*
X206850D01*
Y128665D01*
X205858D01*
Y126878D01*
X205358D01*
Y126378D01*
X203866D01*
Y124819D01*
X205358D01*
Y123819D01*
X203866D01*
Y123529D01*
X202000D01*
Y138000D01*
X199000Y138000D01*
Y147500D01*
X220000Y147500D01*
Y145164D01*
X219972D01*
Y139818D01*
X220000D01*
Y139000D01*
X229000Y139000D01*
Y147000D01*
X228962Y147038D01*
X229153Y147500D01*
X232000D01*
X232000Y149500D01*
X250500Y149500D01*
Y128500D01*
D02*
G37*
G36*
X51262Y165480D02*
X51248Y165451D01*
X48000D01*
X47415Y165334D01*
X46919Y165003D01*
X46587Y164506D01*
X46471Y163921D01*
Y137838D01*
X46286Y137714D01*
X45760Y136928D01*
X45575Y136000D01*
X45760Y135072D01*
X46286Y134286D01*
X47072Y133760D01*
X48000Y133575D01*
X48928Y133760D01*
X49714Y134286D01*
X50240Y135072D01*
X50424Y136000D01*
X50240Y136928D01*
X49714Y137714D01*
X49529Y137838D01*
Y162392D01*
X51864D01*
X51964Y161889D01*
X52446Y161168D01*
X53168Y160686D01*
X54019Y160516D01*
X60318D01*
X61169Y160686D01*
X61891Y161168D01*
X62231Y161678D01*
X64947D01*
X65572Y161260D01*
X66500Y161075D01*
X67428Y161260D01*
X68214Y161786D01*
X68740Y162572D01*
X68924Y163500D01*
X68740Y164428D01*
X68214Y165214D01*
X67816Y165480D01*
X67968Y165980D01*
X105358Y165980D01*
X105509Y165480D01*
X105317Y165352D01*
X104835Y164630D01*
X104666Y163779D01*
Y163098D01*
X110039D01*
X115413D01*
Y163779D01*
X115243Y164630D01*
X114761Y165352D01*
X114569Y165480D01*
X114721Y165980D01*
X155869Y165980D01*
X156021Y165480D01*
X155829Y165352D01*
X155347Y164630D01*
X155178Y163779D01*
Y163098D01*
X160551D01*
X165925D01*
Y163779D01*
X165755Y164630D01*
X165273Y165352D01*
X165081Y165480D01*
X165233Y165980D01*
X180534D01*
X180534Y163000D01*
X180612Y162610D01*
X180833Y162279D01*
X181163Y162058D01*
X181553Y161980D01*
X191949D01*
Y158013D01*
X200051D01*
Y161980D01*
X225980D01*
Y148520D01*
X221020D01*
X220629Y148442D01*
X220510Y148362D01*
X220390Y148442D01*
X220000Y148520D01*
X199000Y148520D01*
X198610Y148442D01*
X198279Y148221D01*
X198058Y147890D01*
X197980Y147500D01*
Y138000D01*
X198058Y137610D01*
X198279Y137279D01*
X198610Y137058D01*
X199000Y136980D01*
X200980Y136980D01*
Y124673D01*
X196442D01*
Y119327D01*
X201788D01*
Y120471D01*
X203866D01*
Y119972D01*
X206445D01*
Y119815D01*
X208500D01*
Y121405D01*
X209500D01*
Y119815D01*
X211555D01*
Y119972D01*
X212142D01*
Y121760D01*
X213142D01*
Y119972D01*
X214134D01*
Y121980D01*
X217500D01*
X217890Y122058D01*
X218221Y122279D01*
X218442Y122610D01*
X218520Y123000D01*
Y127480D01*
X236211Y127480D01*
X236245Y127487D01*
X236278Y127483D01*
X236438Y127526D01*
X236601Y127558D01*
X236939Y127208D01*
X237096Y126829D01*
X237761Y125962D01*
X238628Y125297D01*
X239637Y124878D01*
X240721Y124736D01*
X241804Y124878D01*
X242813Y125297D01*
X243680Y125962D01*
X244345Y126829D01*
X244502Y127208D01*
X244839Y127558D01*
X245002Y127526D01*
X245163Y127483D01*
X245196Y127487D01*
X245230Y127480D01*
X249480D01*
Y99020D01*
X216500D01*
X216110Y98942D01*
X215779Y98721D01*
X215558Y98390D01*
X215480Y98000D01*
Y92520D01*
X203520D01*
Y99000D01*
X203442Y99390D01*
X203221Y99721D01*
X202890Y99942D01*
X202500Y100020D01*
X181500D01*
X181110Y99942D01*
X180779Y99721D01*
X180558Y99390D01*
X180480Y99000D01*
Y77500D01*
X180558Y77110D01*
X180779Y76779D01*
X181110Y76558D01*
X181500Y76480D01*
X184480D01*
Y57000D01*
X184558Y56610D01*
X184779Y56279D01*
X185110Y56058D01*
X185500Y55980D01*
X187176D01*
Y52127D01*
X188319D01*
Y50373D01*
X187176D01*
Y49229D01*
X183728D01*
X183604Y49414D01*
X182818Y49940D01*
X181890Y50125D01*
X180962Y49940D01*
X180175Y49414D01*
X180052Y49229D01*
X134141D01*
X133556Y49113D01*
X133059Y48781D01*
X131889Y47611D01*
X131805Y47485D01*
X131772Y47458D01*
X131550Y47343D01*
X131138Y47375D01*
X131103Y47399D01*
X131054Y47409D01*
X131009Y47432D01*
X130860Y47447D01*
X130713Y47476D01*
X127513D01*
X127369Y47448D01*
X127286Y47865D01*
X127043Y48228D01*
X127286Y48592D01*
X127409Y49213D01*
X127286Y49833D01*
X127043Y50197D01*
X127286Y50561D01*
X127409Y51181D01*
X127286Y51802D01*
X127043Y52165D01*
X127286Y52529D01*
X127409Y53150D01*
X127286Y53770D01*
X127043Y54134D01*
X127286Y54498D01*
X127409Y55118D01*
X127286Y55739D01*
X127043Y56102D01*
X127286Y56466D01*
X127409Y57087D01*
X127286Y57707D01*
X127043Y58071D01*
X127286Y58435D01*
X127409Y59055D01*
X127286Y59676D01*
X127043Y60039D01*
X127286Y60403D01*
X127409Y61024D01*
X127286Y61644D01*
X127043Y62008D01*
X127286Y62372D01*
X127409Y62992D01*
X127286Y63613D01*
X127043Y63976D01*
X127286Y64340D01*
X127409Y64961D01*
X127286Y65581D01*
X127043Y65945D01*
X127286Y66309D01*
X127409Y66929D01*
X127286Y67550D01*
X127043Y67913D01*
X127286Y68277D01*
X127409Y68898D01*
X127399Y68950D01*
X127716Y69337D01*
X140827D01*
Y68378D01*
X146173D01*
Y69522D01*
X156628D01*
X156786Y69286D01*
X157572Y68760D01*
X158500Y68576D01*
X159428Y68760D01*
X160214Y69286D01*
X160740Y70072D01*
X160924Y71000D01*
X160740Y71928D01*
X160214Y72714D01*
X159428Y73240D01*
X158500Y73425D01*
X157572Y73240D01*
X156786Y72714D01*
X156696Y72581D01*
X146173D01*
Y73724D01*
X140827D01*
Y72396D01*
X135212D01*
X135020Y72857D01*
X142133Y79971D01*
X150162D01*
X150286Y79786D01*
X151072Y79260D01*
X152000Y79075D01*
X152928Y79260D01*
X153714Y79786D01*
X154240Y80572D01*
X154425Y81500D01*
X154240Y82428D01*
X153714Y83214D01*
X152928Y83740D01*
X152000Y83925D01*
X151072Y83740D01*
X150286Y83214D01*
X150162Y83029D01*
X141500D01*
X140915Y82913D01*
X140419Y82581D01*
X132201Y74364D01*
X127716D01*
X127399Y74751D01*
X127409Y74803D01*
X127286Y75424D01*
X127043Y75787D01*
X127286Y76151D01*
X127310Y76272D01*
X126453D01*
X126408Y76302D01*
X125787Y76425D01*
X123228D01*
X120669D01*
X120049Y76302D01*
X120004Y76272D01*
X119147D01*
X119171Y76151D01*
X119414Y75787D01*
X119171Y75424D01*
X119048Y74803D01*
X119171Y74183D01*
X119414Y73819D01*
X119171Y73455D01*
X119088Y73038D01*
X118944Y73067D01*
X113339D01*
X113195Y73038D01*
X113112Y73455D01*
X112870Y73819D01*
X113112Y74183D01*
X113236Y74803D01*
X113112Y75424D01*
X112870Y75787D01*
X113112Y76151D01*
X113236Y76772D01*
X113112Y77392D01*
X112870Y77756D01*
X113112Y78120D01*
X113236Y78740D01*
X113112Y79361D01*
X112870Y79724D01*
X113112Y80088D01*
X113236Y80709D01*
X113112Y81329D01*
X112870Y81693D01*
X113112Y82057D01*
X113236Y82677D01*
X113112Y83298D01*
X112761Y83824D01*
X112235Y84175D01*
X111614Y84299D01*
X106496D01*
X105876Y84175D01*
X105349Y83824D01*
X104998Y83298D01*
X104874Y82677D01*
X104998Y82057D01*
X105241Y81693D01*
X104998Y81329D01*
X104874Y80709D01*
X104885Y80656D01*
X104568Y80270D01*
X100724D01*
Y81550D01*
X99466D01*
Y84882D01*
X100709D01*
Y90031D01*
X95165D01*
Y84882D01*
X96408D01*
Y81550D01*
X95378D01*
Y76204D01*
X100724D01*
Y77211D01*
X104568D01*
X104885Y76824D01*
X104874Y76772D01*
X104998Y76151D01*
X105241Y75787D01*
X104998Y75424D01*
X104874Y74803D01*
X104885Y74751D01*
X104568Y74364D01*
X96326D01*
X96203Y74549D01*
X95416Y75075D01*
X94488Y75259D01*
X93560Y75075D01*
X92774Y74549D01*
X92248Y73763D01*
X92064Y72835D01*
X92153Y72386D01*
X91743Y71886D01*
X74410Y71886D01*
X74019Y71808D01*
X73689Y71587D01*
X73467Y71256D01*
X73390Y70866D01*
X73390Y66849D01*
X72928Y66657D01*
X70122Y69463D01*
Y98632D01*
X73025Y101535D01*
X73763Y101682D01*
X74549Y102207D01*
X74750Y102508D01*
X78033D01*
X78068Y102485D01*
X78804Y102339D01*
X81363D01*
X82099Y102485D01*
X82723Y102902D01*
X83071Y103038D01*
X83120Y103023D01*
X83162Y102995D01*
X83309Y102966D01*
X83452Y102922D01*
X83502Y102927D01*
X83552Y102917D01*
X87048D01*
X87098Y102927D01*
X87148Y102922D01*
X87291Y102966D01*
X87438Y102995D01*
X87480Y103023D01*
X87529Y103038D01*
X87877Y102902D01*
X88501Y102485D01*
X89237Y102339D01*
X91796D01*
X92532Y102485D01*
X93156Y102902D01*
X93572Y103526D01*
X93719Y104261D01*
X93664Y104536D01*
X94074Y105036D01*
X94408D01*
X95091Y105172D01*
X95670Y105559D01*
X111262Y121150D01*
X111648Y121729D01*
X111784Y122412D01*
X111784Y122412D01*
Y143446D01*
X113189D01*
X114040Y143615D01*
X114761Y144097D01*
X115243Y144818D01*
X115413Y145669D01*
Y147969D01*
X117234Y149791D01*
X153198D01*
X155178Y147811D01*
Y145669D01*
X155347Y144818D01*
X155829Y144097D01*
X156551Y143615D01*
X157402Y143446D01*
X158767D01*
Y137449D01*
X158903Y136766D01*
X159290Y136187D01*
X161978Y133498D01*
X162557Y133111D01*
X163240Y132976D01*
X167307D01*
Y132579D01*
X173835D01*
Y136941D01*
X167307D01*
Y136544D01*
X163979D01*
X162335Y138188D01*
Y143446D01*
X163701D01*
X164552Y143615D01*
X165273Y144097D01*
X165755Y144818D01*
X165925Y145669D01*
Y148031D01*
X165755Y148882D01*
X165273Y149604D01*
X164552Y150086D01*
X163701Y150255D01*
X157780D01*
X157182Y150853D01*
X157379Y151272D01*
X157423Y151320D01*
X163701D01*
X164552Y151489D01*
X165273Y151971D01*
X165755Y152692D01*
X165805Y152940D01*
X166536D01*
X177445Y142032D01*
Y140681D01*
X176165D01*
Y136319D01*
X182693D01*
Y140681D01*
X181013D01*
Y142771D01*
X181013Y142771D01*
X180878Y143454D01*
X180491Y144033D01*
X180491Y144033D01*
X168537Y155986D01*
X167958Y156373D01*
X167276Y156509D01*
X165805D01*
X165755Y156756D01*
X165273Y157478D01*
X164552Y157960D01*
X163701Y158129D01*
X157402D01*
X156551Y157960D01*
X155829Y157478D01*
X155347Y156756D01*
X155298Y156509D01*
X115293D01*
X115243Y156756D01*
X114761Y157478D01*
X114040Y157960D01*
X113189Y158129D01*
X106890D01*
X106039Y157960D01*
X105317Y157478D01*
X104835Y156756D01*
X104688Y156016D01*
X104644Y155986D01*
X102910Y154252D01*
X102523Y153673D01*
X102387Y152990D01*
Y120858D01*
X94052Y112523D01*
X93672Y112638D01*
X93542Y112720D01*
X93156Y113298D01*
X92532Y113715D01*
X91796Y113861D01*
X90390D01*
Y117058D01*
X91658D01*
Y120026D01*
X92158D01*
D01*
X91658D01*
Y122995D01*
X90390D01*
Y127559D01*
X90517Y127715D01*
X94370D01*
X95145Y127817D01*
X95867Y128116D01*
X96487Y128592D01*
X96963Y129212D01*
X97262Y129934D01*
X97364Y130709D01*
Y134646D01*
X97262Y135421D01*
X96963Y136143D01*
X96487Y136763D01*
X95867Y137239D01*
X95145Y137538D01*
X94370Y137640D01*
X81772D01*
X80997Y137538D01*
X80275Y137239D01*
X79655Y136763D01*
X79179Y136143D01*
X78879Y135421D01*
X78777Y134646D01*
Y130709D01*
X78879Y129934D01*
X79179Y129212D01*
X79281Y129079D01*
X79034Y128579D01*
X74016D01*
X73626Y128501D01*
X73295Y128280D01*
X73074Y127949D01*
X72996Y127559D01*
Y122995D01*
X71858D01*
Y120026D01*
Y117058D01*
X72996D01*
Y114368D01*
X72835Y114236D01*
X71907Y114051D01*
X71325Y113663D01*
X70895D01*
X70895Y113663D01*
X70198Y113524D01*
X69607Y113129D01*
X61703Y105226D01*
X61308Y104634D01*
X61170Y103937D01*
X61170Y103937D01*
Y59055D01*
X61308Y58358D01*
X61703Y57766D01*
X62295Y57371D01*
X62992Y57233D01*
X65715D01*
Y55565D01*
X55610D01*
X55025Y55448D01*
X54529Y55117D01*
X52068Y52656D01*
X51737Y52160D01*
X51620Y51575D01*
Y36090D01*
X51435Y35966D01*
X50910Y35180D01*
X50725Y34252D01*
X50910Y33324D01*
X51435Y32538D01*
X52222Y32012D01*
X53150Y31827D01*
X54077Y32012D01*
X54864Y32538D01*
X55390Y33324D01*
X55574Y34252D01*
X55390Y35180D01*
X54864Y35966D01*
X54679Y36090D01*
Y50941D01*
X56244Y52506D01*
X65715D01*
Y49591D01*
Y47032D01*
Y43063D01*
X63681D01*
X63681Y43063D01*
X62984Y42924D01*
X62392Y42529D01*
X62392Y42529D01*
X61310Y41446D01*
X61231Y41328D01*
X61113Y41249D01*
X60718Y40658D01*
X60579Y39961D01*
Y26591D01*
X57661D01*
Y22396D01*
X56610D01*
Y23441D01*
X49024D01*
Y20472D01*
Y17504D01*
X56610D01*
Y19337D01*
X57661D01*
Y15142D01*
X67142D01*
Y26591D01*
X64224D01*
Y28333D01*
X64282Y28420D01*
X64421Y29117D01*
Y39403D01*
X64436Y39418D01*
X65715D01*
Y36795D01*
Y36622D01*
X69570D01*
X73424D01*
Y36859D01*
X76524D01*
Y29035D01*
X76663Y28338D01*
X76721Y28251D01*
Y26591D01*
X73803D01*
Y15142D01*
X83284D01*
Y19337D01*
X84728D01*
Y17504D01*
X92315D01*
Y20472D01*
Y23441D01*
X84728D01*
Y22396D01*
X83284D01*
Y26591D01*
X80366D01*
Y38681D01*
X80227Y39378D01*
X79832Y39970D01*
X79241Y40365D01*
X78543Y40503D01*
X73424D01*
Y44472D01*
Y47032D01*
Y49591D01*
Y52150D01*
Y54772D01*
X74705D01*
X75402Y54911D01*
X75993Y55306D01*
X76273Y55724D01*
X76527Y55673D01*
X82141D01*
X82191Y55683D01*
X82241Y55678D01*
X82385Y55722D01*
X82531Y55751D01*
X82845Y55705D01*
X83107Y55600D01*
X83128Y55569D01*
X83915Y55044D01*
X84842Y54859D01*
X85061Y54902D01*
X85614Y54349D01*
X85450Y53806D01*
X84997Y53716D01*
X84211Y53191D01*
X83685Y52404D01*
X83501Y51476D01*
X83685Y50548D01*
X84186Y49799D01*
X84121Y49600D01*
X83966Y49324D01*
X83632Y49310D01*
X83604Y49352D01*
X82818Y49878D01*
X81890Y50062D01*
X80962Y49878D01*
X80175Y49352D01*
X79650Y48566D01*
X79465Y47638D01*
X79650Y46710D01*
X80175Y45923D01*
X80962Y45398D01*
X81890Y45213D01*
X82818Y45398D01*
X83604Y45923D01*
X83666Y46016D01*
X87402D01*
X88022Y46139D01*
X88444Y46421D01*
X88944Y46252D01*
Y42868D01*
X86090D01*
X85966Y43053D01*
X85180Y43579D01*
X84252Y43763D01*
X83324Y43579D01*
X82538Y43053D01*
X82012Y42266D01*
X81827Y41339D01*
X82012Y40411D01*
X82538Y39624D01*
X83324Y39099D01*
X84252Y38914D01*
X85180Y39099D01*
X85966Y39624D01*
X86090Y39809D01*
X88944D01*
Y36795D01*
Y34236D01*
X96653D01*
Y36795D01*
Y39711D01*
X99508D01*
X100093Y39827D01*
X100333Y39987D01*
X100833Y39720D01*
Y39240D01*
X100648Y39116D01*
X100122Y38329D01*
X99938Y37402D01*
X100122Y36474D01*
X100648Y35687D01*
X101434Y35162D01*
X102362Y34977D01*
X103290Y35162D01*
X104077Y35687D01*
X104405Y36179D01*
X104905Y36028D01*
Y35933D01*
X109055D01*
X113205D01*
Y36902D01*
X109055D01*
Y37902D01*
X113136D01*
X113112Y38022D01*
X112870Y38386D01*
X113112Y38750D01*
X113136Y38870D01*
X109055D01*
Y39870D01*
X113136D01*
X113112Y39991D01*
X112870Y40354D01*
X113112Y40718D01*
X113136Y40839D01*
X109055D01*
Y41685D01*
X111614D01*
X112235Y41809D01*
X112280Y41839D01*
X113136D01*
X113112Y41959D01*
X112870Y42323D01*
X113112Y42687D01*
X113236Y43307D01*
X113225Y43360D01*
X113543Y43746D01*
X114206D01*
X114473Y43246D01*
X114260Y42928D01*
X114076Y42000D01*
X114260Y41072D01*
X114786Y40286D01*
X115572Y39760D01*
X116500Y39575D01*
X117428Y39760D01*
X118214Y40286D01*
X118625Y40900D01*
X119156Y40795D01*
X119171Y40718D01*
X119414Y40354D01*
X119171Y39991D01*
X119048Y39370D01*
X119171Y38750D01*
X119414Y38386D01*
X119171Y38022D01*
X119048Y37402D01*
X119171Y36781D01*
X119414Y36417D01*
X119171Y36054D01*
X119048Y35433D01*
X119171Y34813D01*
X119523Y34286D01*
X120049Y33935D01*
X120637Y33818D01*
X120687Y33731D01*
X120779Y33312D01*
X120333Y33014D01*
X119807Y32227D01*
X119623Y31299D01*
X119313Y30921D01*
X111598D01*
Y25772D01*
X120685D01*
Y28827D01*
X120935Y28961D01*
X121185Y29046D01*
X122047Y28875D01*
X122362Y28616D01*
X122362Y14907D01*
X122396Y14736D01*
X122422Y14564D01*
X122435Y14542D01*
X122440Y14517D01*
X122537Y14372D01*
X122626Y14223D01*
X122647Y14207D01*
X122661Y14186D01*
X122687Y14169D01*
X122813Y13784D01*
X122819Y13541D01*
X122677Y13368D01*
X122090Y12271D01*
X121729Y11080D01*
X121607Y9843D01*
X121729Y8605D01*
X122090Y7414D01*
X122677Y6317D01*
X122819Y6144D01*
X122813Y5901D01*
X122687Y5516D01*
X122661Y5499D01*
X122647Y5478D01*
X122626Y5462D01*
X122537Y5313D01*
X122440Y5168D01*
X122435Y5143D01*
X122422Y5121D01*
X122396Y4949D01*
X122362Y4778D01*
Y1822D01*
X1822D01*
Y69847D01*
X25984D01*
X26374Y69924D01*
X26705Y70145D01*
X26926Y70476D01*
X27004Y70866D01*
Y77655D01*
X26994Y77704D01*
X26999Y77755D01*
X26956Y77898D01*
X26926Y78045D01*
X27062Y78379D01*
X27189Y78552D01*
X27344Y78656D01*
X27468Y78841D01*
X50496D01*
X52971Y76367D01*
Y74673D01*
X52786Y74549D01*
X52260Y73763D01*
X52075Y72835D01*
X52260Y71907D01*
X52786Y71120D01*
X53572Y70595D01*
X54500Y70410D01*
X55428Y70595D01*
X55971Y70957D01*
X56471Y70690D01*
Y66838D01*
X56286Y66714D01*
X55760Y65928D01*
X55576Y65000D01*
X55760Y64072D01*
X56286Y63286D01*
X57072Y62760D01*
X58000Y62576D01*
X58928Y62760D01*
X59714Y63286D01*
X60240Y64072D01*
X60425Y65000D01*
X60240Y65928D01*
X59714Y66714D01*
X59529Y66838D01*
Y99500D01*
X59413Y100085D01*
X59081Y100581D01*
X55727Y103936D01*
X55231Y104267D01*
X54646Y104384D01*
X53165D01*
Y108846D01*
X54296D01*
X54978Y108390D01*
X55905Y108205D01*
X56833Y108390D01*
X57620Y108915D01*
X58145Y109702D01*
X58330Y110630D01*
X58145Y111558D01*
X57620Y112344D01*
X56833Y112870D01*
X55905Y113055D01*
X54978Y112870D01*
X54296Y112414D01*
X53165D01*
Y112516D01*
X53094D01*
X52903Y112978D01*
X53562Y113637D01*
X53562Y113637D01*
X53949Y114216D01*
X54084Y114899D01*
X54084Y114899D01*
Y115651D01*
X55269D01*
Y116638D01*
X56435D01*
Y115728D01*
X62372D01*
Y121043D01*
Y123315D01*
X59404D01*
X56435D01*
Y120206D01*
X55269D01*
Y123237D01*
X52300D01*
X49332D01*
Y120966D01*
Y115651D01*
X49822D01*
X50029Y115151D01*
X49034Y114155D01*
X48647Y113576D01*
X48511Y112894D01*
Y112516D01*
X47425D01*
X47021Y112748D01*
Y115848D01*
X48165D01*
Y121194D01*
X47021D01*
Y122557D01*
X48165D01*
Y127904D01*
X42819D01*
Y122557D01*
X43963D01*
Y121194D01*
X42819D01*
Y115848D01*
X43963D01*
Y99114D01*
X44079Y98529D01*
X44411Y98033D01*
X44907Y97701D01*
X45492Y97585D01*
X47425D01*
Y96933D01*
X53165D01*
Y101325D01*
X54012D01*
X56471Y98866D01*
Y77345D01*
X55971Y77296D01*
X55913Y77585D01*
X55581Y78081D01*
X52211Y81451D01*
X51715Y81783D01*
X51130Y81899D01*
X27468D01*
X27344Y82085D01*
X27189Y82188D01*
X27062Y82361D01*
X26926Y82695D01*
X26956Y82842D01*
X26999Y82986D01*
X26994Y83036D01*
X27004Y83085D01*
Y129185D01*
X27504Y129397D01*
X28126Y129139D01*
X28901Y129037D01*
X41499D01*
X42274Y129139D01*
X42996Y129438D01*
X43616Y129914D01*
X44092Y130534D01*
X44391Y131256D01*
X44493Y132032D01*
Y135968D01*
X44391Y136743D01*
X44092Y137466D01*
X43616Y138086D01*
X42996Y138561D01*
X42274Y138861D01*
X41499Y138963D01*
X28901D01*
X28126Y138861D01*
X27504Y138603D01*
X27004Y138815D01*
Y139576D01*
X27928Y139760D01*
X28714Y140286D01*
X29240Y141072D01*
X29425Y142000D01*
X29240Y142928D01*
X28714Y143714D01*
X27928Y144240D01*
X27004Y144424D01*
Y146076D01*
X27928Y146260D01*
X28714Y146786D01*
X29240Y147572D01*
X29425Y148500D01*
X29240Y149428D01*
X28714Y150214D01*
X27928Y150740D01*
X27004Y150924D01*
Y165980D01*
X50945D01*
X51262Y165480D01*
D02*
G37*
G36*
X106890Y143446D02*
X108216D01*
Y123151D01*
X106418Y121353D01*
X105956Y121544D01*
Y143122D01*
X106456Y143532D01*
X106890Y143446D01*
D02*
G37*
G36*
X76727Y109880D02*
X80084D01*
Y108879D01*
X76981D01*
X77027Y108644D01*
X77391Y108100D01*
X77027Y107556D01*
X76881Y106820D01*
X76937Y106540D01*
X76620Y106153D01*
X73775D01*
X73763Y106162D01*
X72835Y106346D01*
X71907Y106162D01*
X71120Y105636D01*
X70595Y104850D01*
X70448Y104112D01*
X67011Y100676D01*
X66616Y100084D01*
X66478Y99387D01*
X66478Y99387D01*
Y68708D01*
X66478Y68708D01*
X66616Y68010D01*
X67011Y67419D01*
X72882Y61548D01*
Y61039D01*
X65715D01*
Y60878D01*
X64815D01*
Y103182D01*
X71485Y109853D01*
X71907Y109571D01*
X72835Y109387D01*
X73763Y109571D01*
X74431Y110018D01*
X76614D01*
X76727Y109880D01*
D02*
G37*
G36*
X89370Y122995D02*
X87343D01*
Y120026D01*
X86843D01*
D01*
X87343D01*
Y117058D01*
X89370D01*
Y113861D01*
X89237D01*
X88501Y113715D01*
X87877Y113298D01*
X87461Y112674D01*
X87314Y111939D01*
X87461Y111203D01*
X87824Y110659D01*
X87461Y110115D01*
X87314Y109379D01*
X87461Y108644D01*
X87824Y108100D01*
X87461Y107556D01*
X87314Y106820D01*
X87461Y106085D01*
X87824Y105541D01*
X87461Y104997D01*
X87314Y104261D01*
X87048Y103937D01*
X83552D01*
X83286Y104261D01*
X83139Y104997D01*
X82776Y105541D01*
X83139Y106085D01*
X83186Y106321D01*
X80084D01*
Y107320D01*
X83186D01*
X83139Y107556D01*
X82776Y108100D01*
X83139Y108644D01*
X83286Y109379D01*
X83171Y109958D01*
X83249Y110053D01*
X83249D01*
Y113824D01*
X76918D01*
Y113663D01*
X74344D01*
X74016Y113882D01*
Y117058D01*
X76173D01*
Y120026D01*
Y122995D01*
X74016D01*
Y127559D01*
X89370D01*
Y122995D01*
D02*
G37*
G36*
X263378Y1822D02*
X123382D01*
Y4778D01*
X123882Y5014D01*
X124427Y4566D01*
X125524Y3980D01*
X126715Y3619D01*
X127953Y3497D01*
X129191Y3619D01*
X130381Y3980D01*
X131478Y4566D01*
X132440Y5356D01*
X133229Y6317D01*
X133815Y7414D01*
X134176Y8605D01*
X134298Y9843D01*
X134176Y11080D01*
X133815Y12271D01*
X133229Y13368D01*
X132440Y14330D01*
X131478Y15119D01*
X130381Y15705D01*
X129191Y16066D01*
X127953Y16188D01*
X126715Y16066D01*
X125524Y15705D01*
X124427Y15119D01*
X123882Y14671D01*
X123382Y14907D01*
X123382Y29331D01*
X123762Y29585D01*
X124287Y30371D01*
X124472Y31299D01*
X124287Y32227D01*
X123762Y33014D01*
X123382Y33268D01*
Y33812D01*
X125787D01*
X126408Y33935D01*
X126934Y34286D01*
X127286Y34813D01*
X127310Y34933D01*
X123228D01*
Y35933D01*
X127310D01*
X127286Y36054D01*
X127043Y36417D01*
X127286Y36781D01*
X127310Y36902D01*
X123228D01*
Y37902D01*
X127310D01*
X127286Y38022D01*
X127043Y38386D01*
X127286Y38750D01*
X127310Y38870D01*
X123228D01*
Y39870D01*
X127310D01*
X127286Y39991D01*
X127043Y40354D01*
X127286Y40718D01*
X127310Y40839D01*
X123228D01*
Y41685D01*
X125787D01*
X126408Y41809D01*
X126453Y41839D01*
X127310D01*
X127286Y41959D01*
X127043Y42323D01*
X127286Y42687D01*
X127409Y43307D01*
X127286Y43928D01*
X127043Y44291D01*
X127286Y44655D01*
X127409Y45276D01*
X127286Y45896D01*
X127245Y45957D01*
X127513Y46457D01*
X130713D01*
X130980Y45957D01*
X130731Y45583D01*
X130546Y44655D01*
X130731Y43727D01*
X131256Y42941D01*
X132043Y42415D01*
X132971Y42230D01*
X133898Y42415D01*
X134685Y42941D01*
X135211Y43727D01*
X135395Y44655D01*
X135211Y45583D01*
X135113Y45730D01*
X135348Y46171D01*
X172047D01*
X172047Y29970D01*
X232000Y29970D01*
X232351Y29971D01*
X232789Y29472D01*
X232665Y28528D01*
X232855Y27085D01*
X233412Y25740D01*
X234298Y24585D01*
X235453Y23699D01*
X236797Y23142D01*
X238240Y22952D01*
X239683Y23142D01*
X241028Y23699D01*
X242182Y24585D01*
X243069Y25740D01*
X243625Y27085D01*
X243815Y28528D01*
X243689Y29491D01*
X244127Y29992D01*
X249000Y30000D01*
X249000Y55980D01*
X249390Y56058D01*
X249721Y56279D01*
X249942Y56610D01*
X250020Y57000D01*
Y71500D01*
X249942Y71890D01*
X249721Y72221D01*
X249390Y72442D01*
X249000Y72520D01*
X215500D01*
X215110Y72442D01*
X214779Y72221D01*
X214558Y71890D01*
X214480Y71500D01*
Y70520D01*
X211413D01*
Y71617D01*
X208740D01*
X206066D01*
Y70520D01*
X205310D01*
Y74790D01*
X199964D01*
Y74614D01*
X199480Y74575D01*
Y74575D01*
X195168D01*
X195020Y74755D01*
Y77000D01*
X194942Y77390D01*
X194721Y77721D01*
X194390Y77942D01*
X194000Y78020D01*
X185500D01*
X185110Y77942D01*
X184779Y77721D01*
X184631Y77500D01*
X181500D01*
Y99000D01*
X202500D01*
Y91500D01*
X216500D01*
Y98000D01*
X250500D01*
Y127480D01*
X250890Y127558D01*
X251221Y127779D01*
X251442Y128110D01*
X251520Y128500D01*
Y149500D01*
X251442Y149890D01*
X251221Y150221D01*
X250890Y150442D01*
X250500Y150520D01*
X232000Y150520D01*
X231610Y150442D01*
X231279Y150221D01*
X231058Y149890D01*
X230980Y149500D01*
Y148520D01*
X229153D01*
X228763Y148442D01*
X228432Y148221D01*
X228211Y147890D01*
X228211Y147890D01*
X228020Y147428D01*
X228020Y147428D01*
X227942Y147038D01*
X227980Y146847D01*
Y140020D01*
X225319D01*
Y141991D01*
X222646D01*
Y142491D01*
X222146D01*
Y145164D01*
X221020D01*
Y147500D01*
X227000D01*
Y163000D01*
X200051D01*
Y165304D01*
X191949D01*
Y163000D01*
X181553D01*
X181553Y167000D01*
X61404Y167000D01*
X61169Y167157D01*
X60318Y167326D01*
X54019D01*
X53168Y167157D01*
X52933Y167000D01*
X25984D01*
Y150681D01*
X25286Y150214D01*
X24760Y149428D01*
X24576Y148500D01*
X24760Y147572D01*
X25286Y146786D01*
X25984Y146319D01*
Y144181D01*
X25286Y143714D01*
X24760Y142928D01*
X24576Y142000D01*
X24760Y141072D01*
X25286Y140286D01*
X25984Y139819D01*
Y136558D01*
X25907Y135968D01*
Y132032D01*
X25984Y131442D01*
Y83085D01*
X25630Y82795D01*
X24702Y82610D01*
X23915Y82085D01*
X23390Y81298D01*
X23205Y80370D01*
X23390Y79442D01*
X23915Y78656D01*
X24702Y78130D01*
X25630Y77946D01*
X25984Y77655D01*
Y70866D01*
X1822D01*
X1822Y195028D01*
X263378D01*
Y1822D01*
D02*
G37*
G36*
X98425Y68574D02*
X96276D01*
Y69718D01*
X90929D01*
Y64371D01*
X96276D01*
Y65515D01*
X96896D01*
Y61439D01*
X96653Y61039D01*
X93298D01*
Y59153D01*
X92798D01*
Y58653D01*
X88944D01*
Y56693D01*
X87596D01*
X87224Y57065D01*
X87267Y57284D01*
X87082Y58211D01*
X86557Y58998D01*
X85770Y59523D01*
X84842Y59708D01*
X83915Y59523D01*
X83128Y58998D01*
X82603Y58211D01*
X82418Y57284D01*
X82459Y57079D01*
X82141Y56693D01*
X76527D01*
Y62303D01*
X76388Y63001D01*
X75993Y63592D01*
X75993Y63592D01*
X74409Y65176D01*
X74410Y70866D01*
X93154Y70866D01*
X93560Y70595D01*
X94488Y70410D01*
X95416Y70595D01*
X95822Y70866D01*
X98425D01*
Y68574D01*
D02*
G37*
G36*
X104885Y66982D02*
X104874Y66929D01*
X104998Y66309D01*
X105241Y65945D01*
X104998Y65581D01*
X104874Y64961D01*
X104998Y64340D01*
X105241Y63976D01*
X104998Y63613D01*
X104874Y62992D01*
X104998Y62372D01*
X105241Y62008D01*
X104998Y61644D01*
X104874Y61024D01*
X104998Y60403D01*
X105241Y60039D01*
X104998Y59676D01*
X104874Y59055D01*
X104998Y58435D01*
X105241Y58071D01*
X104998Y57707D01*
X104874Y57087D01*
X104886Y57028D01*
X104569Y56642D01*
X102362D01*
X101779Y56526D01*
X101285Y56195D01*
X100648Y55559D01*
X100122D01*
X99857Y56059D01*
X99955Y56551D01*
Y66458D01*
X100396Y66694D01*
X100450Y66658D01*
X101378Y66473D01*
X102306Y66658D01*
X103092Y67183D01*
X103216Y67368D01*
X104568D01*
X104885Y66982D01*
D02*
G37*
G36*
X194000Y74755D02*
X193575Y74575D01*
X193500Y74575D01*
X191500D01*
Y72000D01*
Y69425D01*
X193575D01*
Y71018D01*
X194075Y71306D01*
X194227Y71229D01*
X194331Y71106D01*
Y69425D01*
X199472D01*
X199480Y69425D01*
Y69425D01*
X199964Y69444D01*
Y69444D01*
X205310D01*
Y69500D01*
X206066D01*
Y69444D01*
X211413D01*
Y69500D01*
X215500D01*
X215500Y71500D01*
X249000D01*
Y57000D01*
X212134D01*
Y57413D01*
X210642D01*
Y58413D01*
X212134D01*
Y59972D01*
X210642D01*
Y60472D01*
X210142D01*
Y62260D01*
X209150D01*
Y62063D01*
X207500D01*
Y59095D01*
X206500D01*
Y62063D01*
X204850D01*
Y62260D01*
X203858D01*
Y60473D01*
X203358D01*
Y59973D01*
X201866D01*
Y58413D01*
X203358D01*
Y57413D01*
X201866D01*
Y57000D01*
X198624D01*
Y57473D01*
X193278D01*
Y57000D01*
X192522D01*
Y57473D01*
X187176D01*
Y57000D01*
X185500D01*
Y77000D01*
X194000D01*
Y74755D01*
D02*
G37*
G36*
X119211Y71547D02*
X119171Y71487D01*
X119048Y70866D01*
X119171Y70246D01*
X119414Y69882D01*
X119171Y69518D01*
X119048Y68898D01*
X119171Y68277D01*
X119414Y67913D01*
X119171Y67550D01*
X119048Y66929D01*
X119171Y66309D01*
X119414Y65945D01*
X119171Y65581D01*
X119048Y64961D01*
X119171Y64340D01*
X119414Y63976D01*
X119171Y63613D01*
X119048Y62992D01*
X119171Y62372D01*
X119414Y62008D01*
X119171Y61644D01*
X119048Y61024D01*
X119171Y60403D01*
X119414Y60039D01*
X119171Y59676D01*
X119048Y59055D01*
X119171Y58435D01*
X119414Y58071D01*
X119171Y57707D01*
X119048Y57087D01*
X119171Y56466D01*
X119414Y56102D01*
X119171Y55739D01*
X119147Y55618D01*
X120004D01*
X120049Y55588D01*
X120669Y55465D01*
X123228D01*
Y54618D01*
X119147D01*
X119171Y54498D01*
X119414Y54134D01*
X119171Y53770D01*
X119147Y53650D01*
X123228D01*
Y52650D01*
X119147D01*
X119171Y52529D01*
X119414Y52165D01*
X119171Y51802D01*
X119147Y51681D01*
X123228D01*
Y50681D01*
X119147D01*
X119171Y50561D01*
X119414Y50197D01*
X119171Y49833D01*
X119147Y49713D01*
X123228D01*
Y48713D01*
X119147D01*
X119171Y48592D01*
X119414Y48228D01*
X119171Y47865D01*
X119147Y47744D01*
X123228D01*
Y46744D01*
X119147D01*
X119171Y46624D01*
X119414Y46260D01*
X119171Y45896D01*
X119147Y45776D01*
X123228D01*
Y44929D01*
X120669D01*
X120049Y44806D01*
X120004Y44776D01*
X118944D01*
X118727Y44488D01*
X117871D01*
Y45276D01*
X117755Y45861D01*
X117424Y46357D01*
X116927Y46689D01*
X116342Y46805D01*
X113543D01*
X113225Y47192D01*
X113236Y47244D01*
X113112Y47865D01*
X112870Y48228D01*
X113112Y48592D01*
X113236Y49213D01*
X113112Y49833D01*
X112870Y50197D01*
X113112Y50561D01*
X113236Y51181D01*
X113594Y51514D01*
X113989Y51502D01*
X114034Y51435D01*
X114820Y50910D01*
X115748Y50725D01*
X116676Y50910D01*
X117462Y51435D01*
X117988Y52222D01*
X118173Y53150D01*
X117988Y54077D01*
X117462Y54864D01*
X116676Y55390D01*
X115748Y55574D01*
X114820Y55390D01*
X114034Y54864D01*
X113989Y54798D01*
X113593Y54785D01*
X113236Y55118D01*
X113112Y55739D01*
X112870Y56102D01*
X113112Y56466D01*
X113236Y57087D01*
X113112Y57707D01*
X112870Y58071D01*
X113112Y58435D01*
X113236Y59055D01*
X113112Y59676D01*
X112870Y60039D01*
X113112Y60403D01*
X113236Y61024D01*
X113112Y61644D01*
X112870Y62008D01*
X113112Y62372D01*
X113236Y62992D01*
X113112Y63613D01*
X112870Y63976D01*
X113112Y64340D01*
X113236Y64961D01*
X113112Y65581D01*
X112870Y65945D01*
X113112Y66309D01*
X113236Y66929D01*
X113112Y67550D01*
X112870Y67913D01*
X113112Y68277D01*
X113236Y68898D01*
X113112Y69518D01*
X112870Y69882D01*
X113112Y70246D01*
X113236Y70866D01*
X113112Y71487D01*
X113072Y71547D01*
X113339Y72047D01*
X118944D01*
X119211Y71547D01*
D02*
G37*
G36*
X247980Y31018D02*
X244125Y31011D01*
X244092Y31005D01*
X244059Y31009D01*
X243899Y30966D01*
X243735Y30933D01*
X243614Y30926D01*
X243247Y31050D01*
X243142Y31137D01*
X243069Y31315D01*
X242182Y32470D01*
X241028Y33356D01*
X240023Y33772D01*
X240153Y34259D01*
X240220Y34251D01*
Y37870D01*
X236601D01*
X236678Y37287D01*
X237096Y36277D01*
X237761Y35411D01*
X238628Y34745D01*
X239298Y34468D01*
X239167Y33981D01*
X238240Y34103D01*
X236797Y33913D01*
X235453Y33356D01*
X234298Y32470D01*
X233412Y31315D01*
X233331Y31120D01*
X233228Y31034D01*
X232870Y30910D01*
X232739Y30914D01*
X232577Y30946D01*
X232416Y30989D01*
X232382Y30984D01*
X232349Y30991D01*
X231998Y30990D01*
X173067Y30990D01*
X173067Y46171D01*
X180052D01*
X180175Y45986D01*
X180962Y45460D01*
X181890Y45276D01*
X182818Y45460D01*
X183604Y45986D01*
X183728Y46171D01*
X187176D01*
Y45027D01*
X192522D01*
Y50373D01*
X191378D01*
Y52127D01*
X192522D01*
Y55980D01*
X193278D01*
Y52127D01*
X198624D01*
Y53825D01*
X201866D01*
Y53567D01*
X204445D01*
Y53409D01*
X206500D01*
Y55000D01*
X207500D01*
Y53409D01*
X209555D01*
Y53567D01*
X210142D01*
Y55354D01*
X210642D01*
Y55854D01*
X212134D01*
Y55980D01*
X238075D01*
X238245Y55480D01*
X237761Y55109D01*
X237096Y54242D01*
X236678Y53233D01*
X236535Y52150D01*
X236678Y51066D01*
X237096Y50057D01*
X237761Y49190D01*
X238628Y48525D01*
X239637Y48107D01*
X240721Y47964D01*
X241804Y48107D01*
X242813Y48525D01*
X243680Y49190D01*
X244345Y50057D01*
X244763Y51066D01*
X244906Y52150D01*
X244763Y53233D01*
X244345Y54242D01*
X243680Y55109D01*
X243196Y55480D01*
X243366Y55980D01*
X247980D01*
X247980Y31018D01*
D02*
G37*
%LPC*%
G36*
X219216Y145164D02*
X213870D01*
Y143981D01*
X212272D01*
Y145027D01*
X207122D01*
Y139877D01*
X212272D01*
Y140922D01*
X213870D01*
Y139818D01*
X219216D01*
Y145164D01*
D02*
G37*
G36*
X241220Y146820D02*
Y143201D01*
X244840D01*
X244763Y143784D01*
X244345Y144793D01*
X243680Y145660D01*
X242813Y146326D01*
X241804Y146744D01*
X241220Y146820D01*
D02*
G37*
G36*
X240220Y146820D02*
X239637Y146744D01*
X238628Y146326D01*
X237761Y145660D01*
X237096Y144793D01*
X236678Y143784D01*
X236601Y143201D01*
X240220D01*
Y146820D01*
D02*
G37*
G36*
X206366Y145027D02*
X204291D01*
Y142952D01*
X206366D01*
Y145027D01*
D02*
G37*
G36*
X203291D02*
X201217D01*
Y142952D01*
X203291D01*
Y145027D01*
D02*
G37*
G36*
X206366Y141952D02*
X204291D01*
Y139877D01*
X206366D01*
Y141952D01*
D02*
G37*
G36*
X203291D02*
X201217D01*
Y139877D01*
X203291D01*
Y141952D01*
D02*
G37*
G36*
X244840Y142201D02*
X241220D01*
Y138581D01*
X241804Y138658D01*
X242813Y139076D01*
X243680Y139741D01*
X244345Y140608D01*
X244763Y141618D01*
X244840Y142201D01*
D02*
G37*
G36*
X240220D02*
X236601D01*
X236678Y141618D01*
X237096Y140608D01*
X237761Y139741D01*
X238628Y139076D01*
X239637Y138658D01*
X240220Y138581D01*
Y142201D01*
D02*
G37*
G36*
X204858Y128665D02*
X203866D01*
Y127378D01*
X204858D01*
Y128665D01*
D02*
G37*
G36*
X214134D02*
X213142D01*
Y127378D01*
X214134D01*
Y128665D01*
D02*
G37*
G36*
X165925Y162098D02*
X161051D01*
Y159194D01*
X163701D01*
X164552Y159363D01*
X165273Y159845D01*
X165755Y160566D01*
X165925Y161417D01*
Y162098D01*
D02*
G37*
G36*
X160051D02*
X155178D01*
Y161417D01*
X155347Y160566D01*
X155829Y159845D01*
X156551Y159363D01*
X157402Y159194D01*
X160051D01*
Y162098D01*
D02*
G37*
G36*
X115413Y162098D02*
X110539D01*
Y159194D01*
X113189D01*
X114040Y159363D01*
X114761Y159845D01*
X115243Y160566D01*
X115413Y161417D01*
Y162098D01*
D02*
G37*
G36*
X109539D02*
X104666D01*
Y161417D01*
X104835Y160566D01*
X105317Y159845D01*
X106039Y159363D01*
X106890Y159194D01*
X109539D01*
Y162098D01*
D02*
G37*
G36*
X223198Y160929D02*
X219155D01*
Y157673D01*
X223198D01*
Y160929D01*
D02*
G37*
G36*
X218155D02*
X214111D01*
Y157673D01*
X218155D01*
Y160929D01*
D02*
G37*
G36*
X223198Y156673D02*
X219155D01*
Y153417D01*
X223198D01*
Y156673D01*
D02*
G37*
G36*
X218155D02*
X214111D01*
Y153417D01*
X218155D01*
Y156673D01*
D02*
G37*
G36*
X200051Y157013D02*
X196500D01*
Y149722D01*
X200051D01*
Y157013D01*
D02*
G37*
G36*
X195500D02*
X191949D01*
Y149722D01*
X195500D01*
Y157013D01*
D02*
G37*
G36*
X60318Y151578D02*
X57669D01*
Y148673D01*
X62542D01*
Y149354D01*
X62373Y150205D01*
X61891Y150927D01*
X61169Y151409D01*
X60318Y151578D01*
D02*
G37*
G36*
X56669D02*
X54019D01*
X53168Y151409D01*
X52446Y150927D01*
X51964Y150205D01*
X51795Y149354D01*
Y148673D01*
X56669D01*
Y151578D01*
D02*
G37*
G36*
X62542Y147673D02*
X57669D01*
Y144768D01*
X60318D01*
X61169Y144938D01*
X61891Y145420D01*
X62373Y146141D01*
X62542Y146992D01*
Y147673D01*
D02*
G37*
G36*
X56669D02*
X51795D01*
Y146992D01*
X51964Y146141D01*
X52446Y145420D01*
X53168Y144938D01*
X54019Y144768D01*
X56669D01*
Y147673D01*
D02*
G37*
G36*
X173835Y144421D02*
X171071D01*
Y142740D01*
X173835D01*
Y144421D01*
D02*
G37*
G36*
X170071D02*
X167307D01*
Y142740D01*
X170071D01*
Y144421D01*
D02*
G37*
G36*
X173835Y141740D02*
X171071D01*
Y140059D01*
X173835D01*
Y141740D01*
D02*
G37*
G36*
X170071D02*
X167307D01*
Y140059D01*
X170071D01*
Y141740D01*
D02*
G37*
G36*
X60318Y159452D02*
X54019D01*
X53168Y159283D01*
X52446Y158801D01*
X51964Y158079D01*
X51795Y157228D01*
Y154866D01*
X51964Y154015D01*
X52446Y153294D01*
X53168Y152812D01*
X54019Y152642D01*
X60318D01*
X61169Y152812D01*
X61891Y153294D01*
X62373Y154015D01*
X62473Y154518D01*
X64615D01*
X64738Y154333D01*
X64923Y154209D01*
Y135828D01*
X64482Y135592D01*
X64314Y135705D01*
X63386Y135889D01*
X62458Y135705D01*
X61671Y135179D01*
X61146Y134392D01*
X60961Y133465D01*
X61146Y132537D01*
X61671Y131750D01*
X62458Y131225D01*
X63386Y131040D01*
X64314Y131225D01*
X65100Y131750D01*
X65224Y131935D01*
X66264D01*
X66849Y132052D01*
X67345Y132383D01*
X67534Y132572D01*
X67866Y133068D01*
X67982Y133653D01*
Y154209D01*
X68167Y154333D01*
X68693Y155119D01*
X68877Y156047D01*
X68693Y156975D01*
X68167Y157762D01*
X67381Y158287D01*
X66453Y158472D01*
X65525Y158287D01*
X64738Y157762D01*
X64615Y157577D01*
X62473D01*
X62373Y158079D01*
X61891Y158801D01*
X61169Y159283D01*
X60318Y159452D01*
D02*
G37*
G36*
X144882Y137640D02*
X132283D01*
X131509Y137538D01*
X130786Y137239D01*
X130166Y136763D01*
X129691Y136143D01*
X129391Y135421D01*
X129289Y134646D01*
Y130709D01*
X129391Y129934D01*
X129691Y129212D01*
X130166Y128592D01*
X130786Y128116D01*
X131509Y127817D01*
X132283Y127715D01*
X144882D01*
X145657Y127817D01*
X146379Y128116D01*
X146999Y128592D01*
X147475Y129212D01*
X147774Y129934D01*
X147876Y130709D01*
Y134646D01*
X147774Y135421D01*
X147475Y136143D01*
X146999Y136763D01*
X146379Y137239D01*
X145657Y137538D01*
X144882Y137640D01*
D02*
G37*
G36*
X42063Y127904D02*
X39890D01*
Y125730D01*
X42063D01*
Y127904D01*
D02*
G37*
G36*
X38890D02*
X36716D01*
Y125730D01*
X38890D01*
Y127904D01*
D02*
G37*
G36*
X62372Y126587D02*
X59904D01*
Y124315D01*
X62372D01*
Y126587D01*
D02*
G37*
G36*
X58903D02*
X56435D01*
Y124315D01*
X58903D01*
Y126587D01*
D02*
G37*
G36*
X55269Y126509D02*
X52800D01*
Y124237D01*
X55269D01*
Y126509D01*
D02*
G37*
G36*
X51800D02*
X49332D01*
Y124237D01*
X51800D01*
Y126509D01*
D02*
G37*
G36*
X42063Y124730D02*
X39890D01*
Y122557D01*
X42063D01*
Y124730D01*
D02*
G37*
G36*
X38890D02*
X36716D01*
Y122557D01*
X38890D01*
Y124730D01*
D02*
G37*
G36*
X94929Y122995D02*
X92658D01*
Y120526D01*
X94929D01*
Y122995D01*
D02*
G37*
G36*
X70858Y122995D02*
X68587D01*
Y120526D01*
X70858D01*
Y122995D01*
D02*
G37*
G36*
Y119526D02*
X68587D01*
Y117058D01*
X70858D01*
Y119526D01*
D02*
G37*
G36*
X94929Y119526D02*
X92658D01*
Y117058D01*
X94929D01*
Y119526D01*
D02*
G37*
G36*
X195686Y124673D02*
X190340D01*
Y119327D01*
X191483D01*
Y117964D01*
X190224D01*
Y116529D01*
X182838D01*
X182714Y116714D01*
X181928Y117240D01*
X181000Y117424D01*
X180072Y117240D01*
X179286Y116714D01*
X178760Y115928D01*
X178576Y115000D01*
X178760Y114072D01*
X179286Y113286D01*
X180072Y112760D01*
X181000Y112575D01*
X181928Y112760D01*
X182714Y113286D01*
X182838Y113471D01*
X190224D01*
Y112617D01*
X195571D01*
Y117964D01*
X194542D01*
Y119327D01*
X195686D01*
Y124673D01*
D02*
G37*
G36*
X201673Y117964D02*
X199500D01*
Y115790D01*
X201673D01*
Y117964D01*
D02*
G37*
G36*
X198500D02*
X196327D01*
Y115790D01*
X198500D01*
Y117964D01*
D02*
G37*
G36*
X241220Y119261D02*
Y115642D01*
X244840D01*
X244763Y116225D01*
X244345Y117234D01*
X243680Y118101D01*
X242813Y118766D01*
X241804Y119185D01*
X241220Y119261D01*
D02*
G37*
G36*
X240220Y119261D02*
X239637Y119185D01*
X238628Y118766D01*
X237761Y118101D01*
X237096Y117234D01*
X236678Y116225D01*
X236601Y115642D01*
X240220D01*
Y119261D01*
D02*
G37*
G36*
X201673Y114790D02*
X199500D01*
Y112617D01*
X201673D01*
Y114790D01*
D02*
G37*
G36*
X198500D02*
X196327D01*
Y112617D01*
X198500D01*
Y114790D01*
D02*
G37*
G36*
X244840Y114642D02*
X241220D01*
Y111022D01*
X241804Y111099D01*
X242813Y111517D01*
X243680Y112182D01*
X244345Y113049D01*
X244763Y114058D01*
X244840Y114642D01*
D02*
G37*
G36*
X240220D02*
X236601D01*
X236678Y114058D01*
X237096Y113049D01*
X237761Y112182D01*
X238628Y111517D01*
X239298Y111240D01*
X239167Y110752D01*
X238240Y110874D01*
X236797Y110685D01*
X235453Y110127D01*
X234298Y109241D01*
X233412Y108087D01*
X232855Y106742D01*
X232665Y105299D01*
X232855Y103856D01*
X233412Y102512D01*
X234298Y101357D01*
X235453Y100471D01*
X236797Y99914D01*
X238240Y99724D01*
X239683Y99914D01*
X241028Y100471D01*
X242182Y101357D01*
X243069Y102512D01*
X243625Y103856D01*
X243815Y105299D01*
X243625Y106742D01*
X243069Y108087D01*
X242182Y109241D01*
X241028Y110127D01*
X240023Y110544D01*
X240153Y111031D01*
X240220Y111022D01*
Y114642D01*
D02*
G37*
G36*
X32500Y116925D02*
X31572Y116740D01*
X30786Y116214D01*
X30260Y115428D01*
X30075Y114500D01*
X30260Y113572D01*
X30786Y112786D01*
X30971Y112662D01*
Y111639D01*
X29987D01*
Y106292D01*
X35334D01*
Y111639D01*
X34029D01*
Y112662D01*
X34214Y112786D01*
X34740Y113572D01*
X34925Y114500D01*
X34740Y115428D01*
X34214Y116214D01*
X33428Y116740D01*
X32500Y116925D01*
D02*
G37*
G36*
X42063Y121194D02*
X36716D01*
Y115848D01*
X37860D01*
Y112516D01*
X36598D01*
Y108153D01*
Y104393D01*
X35334D01*
Y105536D01*
X29987D01*
Y100190D01*
X31131D01*
Y99024D01*
X29901D01*
Y93677D01*
X35247D01*
Y93937D01*
X35709Y94128D01*
X38419Y91419D01*
X38915Y91087D01*
X39500Y90971D01*
X51662D01*
X51786Y90786D01*
X52572Y90260D01*
X53500Y90075D01*
X54428Y90260D01*
X55214Y90786D01*
X55740Y91572D01*
X55924Y92500D01*
X55740Y93428D01*
X55214Y94214D01*
X54428Y94740D01*
X53500Y94924D01*
X52572Y94740D01*
X51786Y94214D01*
X51662Y94029D01*
X40134D01*
X37692Y96471D01*
X37883Y96933D01*
X38969D01*
Y99114D01*
X39469D01*
Y99614D01*
X42339D01*
Y100673D01*
Y104413D01*
Y108153D01*
Y112516D01*
X40919D01*
Y115848D01*
X42063D01*
Y121194D01*
D02*
G37*
G36*
X127953Y114613D02*
X126715Y114491D01*
X125524Y114130D01*
X124427Y113544D01*
X123466Y112755D01*
X122677Y111793D01*
X122090Y110696D01*
X121729Y109506D01*
X121607Y108268D01*
X121729Y107030D01*
X122090Y105839D01*
X122677Y104742D01*
X123466Y103781D01*
X124427Y102992D01*
X125524Y102405D01*
X126715Y102044D01*
X127953Y101922D01*
X129191Y102044D01*
X130381Y102405D01*
X131478Y102992D01*
X132440Y103781D01*
X133229Y104742D01*
X133815Y105839D01*
X134176Y107030D01*
X134298Y108268D01*
X134176Y109506D01*
X133815Y110696D01*
X133229Y111793D01*
X132440Y112755D01*
X131478Y113544D01*
X130381Y114130D01*
X129191Y114491D01*
X127953Y114613D01*
D02*
G37*
G36*
X213543Y100669D02*
X209500D01*
Y97413D01*
X213543D01*
Y100669D01*
D02*
G37*
G36*
X208500D02*
X204457D01*
Y97413D01*
X208500D01*
Y100669D01*
D02*
G37*
G36*
X42339Y98614D02*
X39968D01*
Y96933D01*
X42339D01*
Y98614D01*
D02*
G37*
G36*
X100709Y97118D02*
X98437D01*
Y95043D01*
X100709D01*
Y97118D01*
D02*
G37*
G36*
X97437D02*
X95165D01*
Y95043D01*
X97437D01*
Y97118D01*
D02*
G37*
G36*
X176177Y97051D02*
X168886D01*
Y93500D01*
X176177D01*
Y97051D01*
D02*
G37*
G36*
X167886D02*
X160594D01*
Y93500D01*
X167886D01*
Y97051D01*
D02*
G37*
G36*
X213543Y96413D02*
X209500D01*
Y93158D01*
X213543D01*
Y96413D01*
D02*
G37*
G36*
X208500D02*
X204457D01*
Y93158D01*
X208500D01*
Y96413D01*
D02*
G37*
G36*
X100709Y94043D02*
X98437D01*
Y91969D01*
X100709D01*
Y94043D01*
D02*
G37*
G36*
X97437D02*
X95165D01*
Y91969D01*
X97437D01*
Y94043D01*
D02*
G37*
G36*
X35247Y92921D02*
X33074D01*
Y90748D01*
X35247D01*
Y92921D01*
D02*
G37*
G36*
X32074D02*
X29901D01*
Y90748D01*
X32074D01*
Y92921D01*
D02*
G37*
G36*
X176177Y92500D02*
X168886D01*
Y88949D01*
X176177D01*
Y92500D01*
D02*
G37*
G36*
X167886D02*
X160594D01*
Y88949D01*
X167886D01*
Y92500D01*
D02*
G37*
G36*
X84465Y95980D02*
X79118D01*
Y90634D01*
X84465D01*
Y90727D01*
X84926Y90918D01*
X85926Y89919D01*
X86423Y89587D01*
X87008Y89471D01*
X87291D01*
Y88425D01*
X92835D01*
Y93575D01*
X87291D01*
Y93533D01*
X86829Y93341D01*
X85782Y94389D01*
X85286Y94720D01*
X84701Y94836D01*
X84465D01*
Y95980D01*
D02*
G37*
G36*
X35247Y89748D02*
X33074D01*
Y87575D01*
X35247D01*
Y89748D01*
D02*
G37*
G36*
X32074D02*
X29901D01*
Y87575D01*
X32074D01*
Y89748D01*
D02*
G37*
G36*
X84858Y88106D02*
X82685D01*
Y85933D01*
X84858D01*
Y88106D01*
D02*
G37*
G36*
X81685D02*
X79512D01*
Y85933D01*
X81685D01*
Y88106D01*
D02*
G37*
G36*
X120685Y92339D02*
X111598D01*
Y87189D01*
X119313D01*
X119623Y86811D01*
X119807Y85883D01*
X120333Y85097D01*
X120778Y84799D01*
X120687Y84380D01*
X120636Y84292D01*
X120049Y84175D01*
X119523Y83824D01*
X119171Y83298D01*
X119147Y83177D01*
X123228D01*
X127310D01*
X127286Y83298D01*
X126934Y83824D01*
X126408Y84175D01*
X125787Y84299D01*
X123468D01*
X123316Y84799D01*
X123762Y85097D01*
X124287Y85883D01*
X124472Y86811D01*
X124287Y87739D01*
X123762Y88525D01*
X122975Y89051D01*
X122047Y89236D01*
X121185Y89064D01*
X120935Y89150D01*
X120685Y89283D01*
Y92339D01*
D02*
G37*
G36*
X84858Y84933D02*
X82685D01*
Y82760D01*
X84858D01*
Y84933D01*
D02*
G37*
G36*
X81685D02*
X79512D01*
Y82760D01*
X81685D01*
Y84933D01*
D02*
G37*
G36*
X127310Y82177D02*
X123228D01*
X119147D01*
X119171Y82057D01*
X119414Y81693D01*
X119171Y81329D01*
X119147Y81209D01*
X123228D01*
X127310D01*
X127286Y81329D01*
X127043Y81693D01*
X127286Y82057D01*
X127310Y82177D01*
D02*
G37*
G36*
X94622Y81550D02*
X92449D01*
Y79377D01*
X94622D01*
Y81550D01*
D02*
G37*
G36*
X91449D02*
X89276D01*
Y79377D01*
X91449D01*
Y81550D01*
D02*
G37*
G36*
X127310Y80209D02*
X123228D01*
X119147D01*
X119171Y80088D01*
X119414Y79724D01*
X119171Y79361D01*
X119147Y79240D01*
X123228D01*
X127310D01*
X127286Y79361D01*
X127043Y79724D01*
X127286Y80088D01*
X127310Y80209D01*
D02*
G37*
G36*
Y78240D02*
X123228D01*
X119147D01*
X119171Y78120D01*
X119414Y77756D01*
X119171Y77392D01*
X119147Y77272D01*
X123228D01*
X127310D01*
X127286Y77392D01*
X127043Y77756D01*
X127286Y78120D01*
X127310Y78240D01*
D02*
G37*
G36*
X94622Y78377D02*
X92449D01*
Y76204D01*
X94622D01*
Y78377D01*
D02*
G37*
G36*
X91449D02*
X89276D01*
Y76204D01*
X91449D01*
Y78377D01*
D02*
G37*
G36*
X78362Y95980D02*
X73016D01*
Y90634D01*
X74419D01*
Y88106D01*
X73409D01*
Y82760D01*
X74471D01*
Y80338D01*
X74286Y80214D01*
X73760Y79428D01*
X73576Y78500D01*
X73760Y77572D01*
X74286Y76786D01*
X75072Y76260D01*
X76000Y76076D01*
X76928Y76260D01*
X77714Y76786D01*
X78240Y77572D01*
X78425Y78500D01*
X78240Y79428D01*
X77714Y80214D01*
X77529Y80338D01*
Y82760D01*
X78756D01*
Y88106D01*
X77478D01*
Y90634D01*
X78362D01*
Y95980D01*
D02*
G37*
G36*
X146173Y67622D02*
X140827D01*
Y66478D01*
X138571D01*
X137986Y66362D01*
X137489Y66030D01*
X135139Y63680D01*
X134808Y63184D01*
X134691Y62598D01*
Y59712D01*
X134506Y59588D01*
X133981Y58802D01*
X133796Y57874D01*
X133981Y56946D01*
X134506Y56160D01*
X135293Y55634D01*
X136221Y55449D01*
X137148Y55634D01*
X137935Y56160D01*
X138460Y56946D01*
X138645Y57874D01*
X138460Y58802D01*
X137935Y59588D01*
X137750Y59712D01*
Y61965D01*
X139204Y63419D01*
X140827D01*
Y62276D01*
X146173D01*
Y63038D01*
X151756D01*
Y61598D01*
X157693D01*
Y67535D01*
X151756D01*
Y66096D01*
X146173D01*
Y67622D01*
D02*
G37*
G36*
X169898Y58480D02*
X167429D01*
Y56012D01*
X169898D01*
Y58480D01*
D02*
G37*
G36*
X166429D02*
X163961D01*
Y56012D01*
X166429D01*
Y58480D01*
D02*
G37*
G36*
X169898Y55012D02*
X167429D01*
Y52543D01*
X169898D01*
Y55012D01*
D02*
G37*
G36*
X166429D02*
X163961D01*
Y52543D01*
X166429D01*
Y55012D01*
D02*
G37*
G36*
X73424Y35622D02*
X70070D01*
Y34236D01*
X73424D01*
Y35622D01*
D02*
G37*
G36*
X69070D02*
X65715D01*
Y34236D01*
X69070D01*
Y35622D01*
D02*
G37*
G36*
X113205Y34933D02*
X109555D01*
Y33843D01*
X113205D01*
Y34933D01*
D02*
G37*
G36*
X108555D02*
X104905D01*
Y33843D01*
X108555D01*
Y34933D01*
D02*
G37*
G36*
X95587Y23441D02*
X93315D01*
Y20973D01*
X95587D01*
Y23441D01*
D02*
G37*
G36*
X48024Y23441D02*
X45752D01*
Y20972D01*
X48024D01*
Y23441D01*
D02*
G37*
G36*
X95587Y19973D02*
X93315D01*
Y17504D01*
X95587D01*
Y19973D01*
D02*
G37*
G36*
X48024Y19972D02*
X45752D01*
Y17504D01*
X48024D01*
Y19972D01*
D02*
G37*
G36*
X9843Y16188D02*
X8605Y16066D01*
X7414Y15705D01*
X6317Y15119D01*
X5356Y14330D01*
X4566Y13368D01*
X3980Y12271D01*
X3619Y11080D01*
X3497Y9843D01*
X3619Y8605D01*
X3980Y7414D01*
X4566Y6317D01*
X5356Y5356D01*
X6317Y4566D01*
X7414Y3980D01*
X8605Y3619D01*
X9843Y3497D01*
X11080Y3619D01*
X12271Y3980D01*
X13368Y4566D01*
X14330Y5356D01*
X15119Y6317D01*
X15705Y7414D01*
X16066Y8605D01*
X16188Y9843D01*
X16066Y11080D01*
X15705Y12271D01*
X15119Y13368D01*
X14330Y14330D01*
X13368Y15119D01*
X12271Y15705D01*
X11080Y16066D01*
X9843Y16188D01*
D02*
G37*
G36*
X86343Y122995D02*
X84071D01*
Y120526D01*
X86343D01*
Y122995D01*
D02*
G37*
G36*
X79445Y122995D02*
X77173D01*
Y120526D01*
X79445D01*
Y122995D01*
D02*
G37*
G36*
Y119526D02*
X77173D01*
Y117058D01*
X79445D01*
Y119526D01*
D02*
G37*
G36*
X86343Y119526D02*
X84071D01*
Y117058D01*
X86343D01*
Y119526D01*
D02*
G37*
G36*
X200051Y188532D02*
X196500D01*
Y181241D01*
X200051D01*
Y188532D01*
D02*
G37*
G36*
X195500D02*
X191949D01*
Y181241D01*
X195500D01*
Y188532D01*
D02*
G37*
G36*
X41499Y190931D02*
X28901D01*
X28126Y190829D01*
X27404Y190530D01*
X26784Y190054D01*
X26308Y189434D01*
X26009Y188712D01*
X25907Y187937D01*
Y184000D01*
X26009Y183225D01*
X26308Y182503D01*
X26784Y181883D01*
X27404Y181407D01*
X28126Y181108D01*
X28901Y181006D01*
X41499D01*
X42274Y181108D01*
X42996Y181407D01*
X43616Y181883D01*
X44092Y182503D01*
X44391Y183225D01*
X44493Y184000D01*
Y187937D01*
X44391Y188712D01*
X44092Y189434D01*
X43616Y190054D01*
X42996Y190530D01*
X42274Y190829D01*
X41499Y190931D01*
D02*
G37*
G36*
X9843Y193353D02*
X8605Y193231D01*
X7414Y192870D01*
X6317Y192284D01*
X5356Y191495D01*
X4566Y190533D01*
X3980Y189436D01*
X3619Y188246D01*
X3497Y187008D01*
X3619Y185770D01*
X3980Y184580D01*
X4566Y183483D01*
X5356Y182521D01*
X6317Y181732D01*
X7414Y181145D01*
X8605Y180784D01*
X9843Y180662D01*
X11080Y180784D01*
X12271Y181145D01*
X13368Y181732D01*
X14330Y182521D01*
X15119Y183483D01*
X15705Y184580D01*
X16066Y185770D01*
X16188Y187008D01*
X16066Y188246D01*
X15705Y189436D01*
X15119Y190533D01*
X14330Y191495D01*
X13368Y192284D01*
X12271Y192870D01*
X11080Y193231D01*
X9843Y193353D01*
D02*
G37*
G36*
X255906Y193353D02*
X254668Y193231D01*
X253477Y192870D01*
X252380Y192284D01*
X251419Y191495D01*
X250629Y190533D01*
X250043Y189436D01*
X249682Y188246D01*
X249560Y187008D01*
X249682Y185770D01*
X250043Y184580D01*
X250629Y183483D01*
X251419Y182521D01*
X252380Y181732D01*
X253477Y181145D01*
X254668Y180784D01*
X255906Y180662D01*
X257143Y180784D01*
X258334Y181145D01*
X259431Y181732D01*
X260392Y182521D01*
X261182Y183483D01*
X261768Y184580D01*
X262129Y185770D01*
X262251Y187008D01*
X262129Y188246D01*
X261768Y189436D01*
X261182Y190533D01*
X260392Y191495D01*
X259431Y192284D01*
X258334Y192870D01*
X257143Y193231D01*
X255906Y193353D01*
D02*
G37*
G36*
X144882Y189608D02*
X132283D01*
X131509Y189506D01*
X130786Y189207D01*
X130166Y188731D01*
X129691Y188111D01*
X129391Y187389D01*
X129289Y186614D01*
Y182677D01*
X129391Y181902D01*
X129691Y181180D01*
X130166Y180560D01*
X130786Y180084D01*
X131509Y179785D01*
X132283Y179683D01*
X144882D01*
X145657Y179785D01*
X146379Y180084D01*
X146999Y180560D01*
X147475Y181180D01*
X147774Y181902D01*
X147876Y182677D01*
Y186614D01*
X147774Y187389D01*
X147475Y188111D01*
X146999Y188731D01*
X146379Y189207D01*
X145657Y189506D01*
X144882Y189608D01*
D02*
G37*
G36*
X94370D02*
X81772D01*
X80997Y189506D01*
X80275Y189207D01*
X79655Y188731D01*
X79179Y188111D01*
X78879Y187389D01*
X78777Y186614D01*
Y182677D01*
X78879Y181902D01*
X79179Y181180D01*
X79655Y180560D01*
X80275Y180084D01*
X80997Y179785D01*
X81772Y179683D01*
X94370D01*
X95145Y179785D01*
X95867Y180084D01*
X96487Y180560D01*
X96963Y181180D01*
X97262Y181902D01*
X97364Y182677D01*
Y186614D01*
X97262Y187389D01*
X96963Y188111D01*
X96487Y188731D01*
X95867Y189207D01*
X95145Y189506D01*
X94370Y189608D01*
D02*
G37*
G36*
X200051Y180241D02*
X196500D01*
Y172950D01*
X200051D01*
Y180241D01*
D02*
G37*
G36*
X195500D02*
X191949D01*
Y172950D01*
X195500D01*
Y180241D01*
D02*
G37*
G36*
X223198Y171756D02*
X219155D01*
Y168500D01*
X223198D01*
Y171756D01*
D02*
G37*
G36*
X218155D02*
X214111D01*
Y168500D01*
X218155D01*
Y171756D01*
D02*
G37*
G36*
X62499Y175157D02*
X51838D01*
Y168433D01*
X62499D01*
Y175157D01*
D02*
G37*
G36*
X223198Y167500D02*
X219155D01*
Y164244D01*
X223198D01*
Y167500D01*
D02*
G37*
G36*
X218155D02*
X214111D01*
Y164244D01*
X218155D01*
Y167500D01*
D02*
G37*
G36*
X244870Y160630D02*
X241220D01*
Y156980D01*
X244870D01*
Y160630D01*
D02*
G37*
G36*
X238240Y171898D02*
X236797Y171708D01*
X235453Y171151D01*
X234298Y170265D01*
X233412Y169111D01*
X232855Y167766D01*
X232665Y166323D01*
X232855Y164880D01*
X233412Y163535D01*
X234298Y162381D01*
X235453Y161495D01*
X236452Y161081D01*
X236571Y160630D01*
X236571Y160490D01*
Y156980D01*
X240220D01*
Y160763D01*
X240148Y161130D01*
X241028Y161495D01*
X242182Y162381D01*
X243069Y163535D01*
X243625Y164880D01*
X243815Y166323D01*
X243625Y167766D01*
X243069Y169111D01*
X242182Y170265D01*
X241028Y171151D01*
X239683Y171708D01*
X238240Y171898D01*
D02*
G37*
G36*
X244870Y155980D02*
X241220D01*
Y152331D01*
X244870D01*
Y155980D01*
D02*
G37*
G36*
X240220D02*
X236571D01*
Y152331D01*
X240220D01*
Y155980D01*
D02*
G37*
G36*
X225319Y145164D02*
X223146D01*
Y142991D01*
X225319D01*
Y145164D01*
D02*
G37*
G36*
X9843Y114613D02*
X8605Y114491D01*
X7414Y114130D01*
X6317Y113544D01*
X5356Y112755D01*
X4566Y111793D01*
X3980Y110696D01*
X3619Y109506D01*
X3497Y108268D01*
X3619Y107030D01*
X3980Y105839D01*
X4566Y104742D01*
X5356Y103781D01*
X6317Y102992D01*
X7414Y102405D01*
X8605Y102044D01*
X9843Y101922D01*
X11080Y102044D01*
X12271Y102405D01*
X13368Y102992D01*
X14330Y103781D01*
X15119Y104742D01*
X15705Y105839D01*
X16066Y107030D01*
X16188Y108268D01*
X16066Y109506D01*
X15705Y110696D01*
X15119Y111793D01*
X14330Y112755D01*
X13368Y113544D01*
X12271Y114130D01*
X11080Y114491D01*
X9843Y114613D01*
D02*
G37*
G36*
X199406Y97051D02*
X192114D01*
Y93500D01*
X199406D01*
Y97051D01*
D02*
G37*
G36*
X191114D02*
X183823D01*
Y93500D01*
X191114D01*
Y97051D01*
D02*
G37*
G36*
X199406Y92500D02*
X192114D01*
Y88949D01*
X199406D01*
Y92500D01*
D02*
G37*
G36*
X191114D02*
X183823D01*
Y88949D01*
X191114D01*
Y92500D01*
D02*
G37*
G36*
X213543Y89842D02*
X209500D01*
Y86587D01*
X213543D01*
Y89842D01*
D02*
G37*
G36*
X208500D02*
X204457D01*
Y86587D01*
X208500D01*
Y89842D01*
D02*
G37*
G36*
X213543Y85587D02*
X209500D01*
Y82331D01*
X213543D01*
Y85587D01*
D02*
G37*
G36*
X208500D02*
X204457D01*
Y82331D01*
X208500D01*
Y85587D01*
D02*
G37*
G36*
X244870Y83858D02*
X241220D01*
Y80209D01*
X244870D01*
Y83858D01*
D02*
G37*
G36*
X238240Y95126D02*
X236797Y94937D01*
X235453Y94380D01*
X234298Y93493D01*
X233412Y92339D01*
X232855Y90994D01*
X232665Y89551D01*
X232855Y88108D01*
X233412Y86764D01*
X234298Y85609D01*
X235453Y84723D01*
X236452Y84309D01*
X236571Y83858D01*
X236571Y83718D01*
Y80209D01*
X240220D01*
Y83992D01*
X240148Y84358D01*
X241028Y84723D01*
X242182Y85609D01*
X243069Y86764D01*
X243625Y88108D01*
X243815Y89551D01*
X243625Y90994D01*
X243069Y92339D01*
X242182Y93493D01*
X241028Y94380D01*
X239683Y94937D01*
X238240Y95126D01*
D02*
G37*
G36*
X244870Y79209D02*
X241220D01*
Y75559D01*
X244870D01*
Y79209D01*
D02*
G37*
G36*
X240220D02*
X236571D01*
Y75559D01*
X240220D01*
Y79209D01*
D02*
G37*
G36*
X211413Y74790D02*
X209240D01*
Y72617D01*
X211413D01*
Y74790D01*
D02*
G37*
G36*
X208240D02*
X206066D01*
Y72617D01*
X208240D01*
Y74790D01*
D02*
G37*
G36*
X169291Y43807D02*
X166823D01*
Y41339D01*
X169291D01*
Y43807D01*
D02*
G37*
G36*
X165823D02*
X163354D01*
Y41339D01*
X165823D01*
Y43807D01*
D02*
G37*
G36*
X169291Y40339D02*
X166823D01*
Y37870D01*
X169291D01*
Y40339D01*
D02*
G37*
G36*
X165823D02*
X163354D01*
Y37870D01*
X165823D01*
Y40339D01*
D02*
G37*
G36*
X157677Y44277D02*
X156826Y44107D01*
X156105Y43625D01*
X155623Y42904D01*
X155453Y42053D01*
X155563Y41503D01*
X155200Y41003D01*
X155004D01*
Y35886D01*
X154905D01*
Y33812D01*
X157480D01*
X160055D01*
Y35656D01*
X160350D01*
Y41003D01*
X160154D01*
X159792Y41503D01*
X159901Y42053D01*
X159732Y42904D01*
X159250Y43625D01*
X158528Y44107D01*
X157677Y44277D01*
D02*
G37*
G36*
X160055Y32811D02*
X157980D01*
Y30737D01*
X160055D01*
Y32811D01*
D02*
G37*
G36*
X156980D02*
X154905D01*
Y30737D01*
X156980D01*
Y32811D01*
D02*
G37*
G36*
X154248Y41003D02*
X148902D01*
Y35656D01*
X149000D01*
Y30737D01*
X154150D01*
Y35656D01*
X154248D01*
Y41003D01*
D02*
G37*
G36*
X174697Y19898D02*
X171047D01*
Y16248D01*
X174697D01*
Y19898D01*
D02*
G37*
G36*
X185039Y23804D02*
X183596Y23614D01*
X182252Y23057D01*
X181097Y22171D01*
X180211Y21016D01*
X179797Y20017D01*
X179347Y19898D01*
X179207Y19898D01*
X175697D01*
Y16248D01*
X179480D01*
X179847Y16321D01*
X180211Y15441D01*
X181097Y14286D01*
X182252Y13400D01*
X183596Y12843D01*
X185039Y12653D01*
X186482Y12843D01*
X187827Y13400D01*
X188982Y14286D01*
X189868Y15441D01*
X190425Y16785D01*
X190615Y18228D01*
X190425Y19671D01*
X189868Y21016D01*
X188982Y22171D01*
X187827Y23057D01*
X186482Y23614D01*
X185039Y23804D01*
D02*
G37*
G36*
X179347Y15248D02*
X175697D01*
Y11598D01*
X179347D01*
Y15248D01*
D02*
G37*
G36*
X174697D02*
X171047D01*
Y11598D01*
X174697D01*
Y15248D01*
D02*
G37*
G36*
X151575Y23804D02*
X150132Y23614D01*
X148787Y23057D01*
X147633Y22171D01*
X146747Y21016D01*
X146189Y19671D01*
X146000Y18228D01*
X146189Y16785D01*
X146747Y15441D01*
X147633Y14286D01*
X148787Y13400D01*
X150132Y12843D01*
X151575Y12653D01*
X153018Y12843D01*
X154362Y13400D01*
X155517Y14286D01*
X156403Y15441D01*
X156819Y16446D01*
X157307Y16315D01*
X157232Y15748D01*
X157375Y14665D01*
X157793Y13655D01*
X158458Y12788D01*
X159325Y12123D01*
X160334Y11705D01*
X161417Y11563D01*
X162501Y11705D01*
X163510Y12123D01*
X164377Y12788D01*
X165042Y13655D01*
X165460Y14665D01*
X165603Y15748D01*
X165460Y16831D01*
X165042Y17841D01*
X164377Y18708D01*
X163510Y19373D01*
X162501Y19791D01*
X161417Y19933D01*
X160334Y19791D01*
X159325Y19373D01*
X158458Y18708D01*
X157793Y17841D01*
X157515Y17171D01*
X157028Y17301D01*
X157150Y18228D01*
X156960Y19671D01*
X156403Y21016D01*
X155517Y22171D01*
X154362Y23057D01*
X153018Y23614D01*
X151575Y23804D01*
D02*
G37*
G36*
X140945Y31558D02*
X140017Y31374D01*
X139231Y30848D01*
X138705Y30062D01*
X138520Y29134D01*
X138705Y28206D01*
X139231Y27419D01*
X139416Y27296D01*
Y14043D01*
X139231Y13919D01*
X138705Y13133D01*
X138520Y12205D01*
X138705Y11277D01*
X139231Y10490D01*
X140017Y9965D01*
X140945Y9780D01*
X141873Y9965D01*
X142659Y10490D01*
X143185Y11277D01*
X143369Y12205D01*
X143185Y13133D01*
X142659Y13919D01*
X142474Y14043D01*
Y27296D01*
X142659Y27419D01*
X143185Y28206D01*
X143369Y29134D01*
X143185Y30062D01*
X142659Y30848D01*
X141873Y31374D01*
X140945Y31558D01*
D02*
G37*
G36*
X255906Y16188D02*
X254668Y16066D01*
X253477Y15705D01*
X252380Y15119D01*
X251419Y14330D01*
X250629Y13368D01*
X250043Y12271D01*
X249682Y11080D01*
X249560Y9843D01*
X249682Y8605D01*
X250043Y7414D01*
X250629Y6317D01*
X251419Y5356D01*
X252380Y4566D01*
X253477Y3980D01*
X254668Y3619D01*
X255906Y3497D01*
X257143Y3619D01*
X258334Y3980D01*
X259431Y4566D01*
X260392Y5356D01*
X261182Y6317D01*
X261768Y7414D01*
X262129Y8605D01*
X262251Y9843D01*
X262129Y11080D01*
X261768Y12271D01*
X261182Y13368D01*
X260392Y14330D01*
X259431Y15119D01*
X258334Y15705D01*
X257143Y16066D01*
X255906Y16188D01*
D02*
G37*
G36*
X90173Y69718D02*
X88000D01*
Y67544D01*
X90173D01*
Y69718D01*
D02*
G37*
G36*
X87000D02*
X84827D01*
Y67544D01*
X87000D01*
Y69718D01*
D02*
G37*
G36*
X90173Y66544D02*
X88000D01*
Y64371D01*
X90173D01*
Y66544D01*
D02*
G37*
G36*
X87000D02*
X84827D01*
Y64371D01*
X87000D01*
Y66544D01*
D02*
G37*
G36*
X92298Y61039D02*
X88944D01*
Y59654D01*
X92298D01*
Y61039D01*
D02*
G37*
G36*
X190500Y74575D02*
X188425D01*
Y72500D01*
X190500D01*
Y74575D01*
D02*
G37*
G36*
Y71500D02*
X188425D01*
Y69425D01*
X190500D01*
Y71500D01*
D02*
G37*
G36*
X241220Y70049D02*
Y66429D01*
X244840D01*
X244763Y67012D01*
X244345Y68022D01*
X243680Y68889D01*
X242813Y69554D01*
X241804Y69972D01*
X241220Y70049D01*
D02*
G37*
G36*
X240220Y70049D02*
X239637Y69972D01*
X238628Y69554D01*
X237761Y68889D01*
X237096Y68022D01*
X236678Y67012D01*
X236601Y66429D01*
X240220D01*
Y70049D01*
D02*
G37*
G36*
X244840Y65429D02*
X241220D01*
Y61810D01*
X241804Y61886D01*
X242813Y62305D01*
X243680Y62970D01*
X244345Y63836D01*
X244763Y64846D01*
X244840Y65429D01*
D02*
G37*
G36*
X240220D02*
X236601D01*
X236678Y64846D01*
X237096Y63836D01*
X237761Y62970D01*
X238628Y62305D01*
X239637Y61886D01*
X240220Y61809D01*
Y65429D01*
D02*
G37*
G36*
X202858Y62260D02*
X201866D01*
Y60972D01*
X202858D01*
Y62260D01*
D02*
G37*
G36*
X212134D02*
X211142D01*
Y60972D01*
X212134D01*
Y62260D01*
D02*
G37*
G36*
Y54854D02*
X211142D01*
Y53567D01*
X212134D01*
Y54854D01*
D02*
G37*
G36*
X198624Y50373D02*
X196451D01*
Y48200D01*
X198624D01*
Y50373D01*
D02*
G37*
G36*
X195451D02*
X193278D01*
Y48200D01*
X195451D01*
Y50373D01*
D02*
G37*
G36*
X198624Y47200D02*
X196451D01*
Y45027D01*
X198624D01*
Y47200D01*
D02*
G37*
G36*
X195451D02*
X193278D01*
Y45027D01*
X195451D01*
Y47200D01*
D02*
G37*
G36*
X241220Y42490D02*
Y38870D01*
X244840D01*
X244763Y39453D01*
X244345Y40463D01*
X243680Y41330D01*
X242813Y41995D01*
X241804Y42413D01*
X241220Y42490D01*
D02*
G37*
G36*
X240220Y42490D02*
X239637Y42413D01*
X238628Y41995D01*
X237761Y41330D01*
X237096Y40463D01*
X236678Y39453D01*
X236601Y38870D01*
X240220D01*
Y42490D01*
D02*
G37*
G36*
X244840Y37870D02*
X241220D01*
Y34251D01*
X241804Y34327D01*
X242813Y34745D01*
X243680Y35411D01*
X244345Y36277D01*
X244763Y37287D01*
X244840Y37870D01*
D02*
G37*
%LPD*%
D14*
X68300Y99387D02*
X72835Y103922D01*
X68300Y68708D02*
Y99387D01*
X73244Y104331D02*
X80053D01*
X72835Y103922D02*
X73244Y104331D01*
X80053D02*
X80084Y104300D01*
X70895Y111840D02*
X79824D01*
X62992Y59055D02*
X69570D01*
X58382Y163500D02*
X66500D01*
X58268Y163386D02*
X58382Y163500D01*
X62402Y20866D02*
Y39961D01*
X63681Y41240D02*
X69570D01*
X92798Y43799D02*
X92897Y43701D01*
X69472Y53937D02*
X69570Y54035D01*
Y38681D02*
X78347D01*
X78543D01*
X62598Y40157D02*
X63681Y41240D01*
X62598Y29117D02*
Y40157D01*
X69570Y56595D02*
X74705D01*
Y62303D01*
X68300Y68708D02*
X74705Y62303D01*
X62992Y59055D02*
Y103937D01*
X70895Y111840D01*
X78543Y20866D02*
Y38681D01*
X78347Y29035D02*
Y38681D01*
D16*
X157677Y38329D02*
Y42053D01*
X151575Y33312D02*
Y38329D01*
X76000Y78500D02*
Y85433D01*
X75949Y85484D02*
X76000Y85433D01*
X75949Y85484D02*
Y92126D01*
X81791Y93307D02*
X84701D01*
X87008Y91000D01*
X90063D01*
X143500Y71051D02*
X158500D01*
X92798Y51272D02*
X108965D01*
X84842Y57284D02*
X88090Y54035D01*
X63386Y133465D02*
X66264D01*
X66453Y133653D01*
X134141Y47700D02*
X181890D01*
X132971Y46530D02*
X134141Y47700D01*
X132971Y44655D02*
Y46530D01*
X140945Y12205D02*
Y29134D01*
X192898Y115290D02*
X193013Y115405D01*
Y122000D01*
X205118D02*
X205358Y121760D01*
X199115Y122000D02*
X205118D01*
X136221Y57874D02*
Y62598D01*
X138571Y64949D01*
X143500D01*
X98051Y78877D02*
X98188Y78740D01*
X97937Y78991D02*
X98051Y78877D01*
X98188Y78740D02*
X109055D01*
X97937Y78991D02*
Y87457D01*
X90063Y91000D02*
X90063Y91000D01*
X94488Y72835D02*
X109055D01*
X109055Y72835D01*
X101378Y68898D02*
X109055D01*
X93602Y67044D02*
X98425D01*
Y56551D02*
Y67044D01*
X92842Y56551D02*
X98425D01*
X58000Y65000D02*
Y99500D01*
X216504Y142452D02*
X216543Y142491D01*
X209697Y142452D02*
X216504D01*
X195951Y54800D02*
X196505Y55354D01*
X203358D01*
X189849Y47700D02*
Y54800D01*
X192607Y115000D02*
X192898Y115290D01*
X181000Y115000D02*
X192607D01*
X141500Y81500D02*
X152000D01*
X132835Y72835D02*
X141500Y81500D01*
X123228Y72835D02*
X132835D01*
X143315Y70866D02*
X143500Y71051D01*
X123228Y70866D02*
X143315D01*
X92798Y56595D02*
X92842Y56551D01*
X39390Y110413D02*
X39469Y110335D01*
X39390Y110413D02*
Y118521D01*
X45492Y99114D02*
X50295D01*
X45492D02*
Y118521D01*
Y125230D01*
X32500Y109126D02*
X32660Y108966D01*
X32500Y109126D02*
Y114500D01*
X50295Y102854D02*
Y106595D01*
Y102854D02*
X54646D01*
X39469Y106595D02*
Y110335D01*
X39500Y92500D02*
X53500D01*
X35650Y96350D02*
X39500Y92500D01*
X32574Y96350D02*
X35650D01*
X48000Y136000D02*
Y163921D01*
X57169D01*
Y156047D02*
X66453D01*
X32574Y96350D02*
X32660Y96437D01*
Y102863D01*
X39460D02*
X39469Y102854D01*
X32660Y102863D02*
X39460D01*
X57090Y164000D02*
X57169Y163921D01*
X54500Y72835D02*
Y77000D01*
X51130Y80370D02*
X54500Y77000D01*
X25630Y80370D02*
X51130D01*
X54646Y102854D02*
X58000Y99500D01*
X116342Y42158D02*
Y45276D01*
Y42158D02*
X116500Y42000D01*
X84252Y41339D02*
X92520D01*
X83858D02*
X84252D01*
X92798Y51272D02*
Y51476D01*
X108965Y51272D02*
X109055Y51181D01*
X92798Y43799D02*
X97342D01*
X92798Y41240D02*
X99508D01*
X97342Y43799D02*
X99213Y45669D01*
X109055Y53150D02*
X109055Y53150D01*
X102362Y37402D02*
Y40157D01*
X105512Y43307D01*
X109055D01*
X92798Y48917D02*
X93094Y49213D01*
X99508Y41240D02*
X105512Y47244D01*
X109055D01*
X93094Y49213D02*
X109055D01*
X109055Y53150D02*
X115748D01*
X109055Y45276D02*
X116342D01*
X123128Y49313D02*
X123228Y49213D01*
Y45276D02*
Y47244D01*
Y49213D01*
X240020Y142000D02*
X240721Y142701D01*
X55610Y54035D02*
X69570D01*
X53150Y51575D02*
X55610Y54035D01*
X53150Y34252D02*
Y51575D01*
X143882Y64567D02*
X154724D01*
X143500Y64949D02*
X143882Y64567D01*
X181890Y47700D02*
X189849D01*
X66453Y133653D02*
Y156047D01*
X71653Y107874D02*
X74016D01*
X75521Y109379D01*
X67716Y103937D02*
X71653Y107874D01*
X75521Y109379D02*
X80084D01*
X196906Y72000D02*
X202520D01*
X202637Y72117D01*
X54232Y20866D02*
X62402D01*
X53839Y20472D02*
X54232Y20866D01*
X78543D02*
X87106D01*
X87500Y20472D01*
D18*
X151575Y38329D02*
D03*
X157677D02*
D03*
X45492Y118521D02*
D03*
X39390D02*
D03*
X82185Y85433D02*
D03*
X76083D02*
D03*
X81791Y93307D02*
D03*
X75689D02*
D03*
X195951Y47700D02*
D03*
X189849D02*
D03*
X195951Y54800D02*
D03*
X189849D02*
D03*
X199115Y122000D02*
D03*
X193013D02*
D03*
X199000Y115290D02*
D03*
X192898D02*
D03*
X216543Y142491D02*
D03*
X222646D02*
D03*
X91949Y78877D02*
D03*
X98051D02*
D03*
X39390Y125230D02*
D03*
X45492D02*
D03*
X87500Y67044D02*
D03*
X93602D02*
D03*
X202637Y72117D02*
D03*
X208740D02*
D03*
D19*
X157480Y33312D02*
D03*
X151575D02*
D03*
X191000Y72000D02*
D03*
X196906D02*
D03*
X203791Y142452D02*
D03*
X209697D02*
D03*
D20*
X143500Y71051D02*
D03*
Y64949D02*
D03*
X32660Y102863D02*
D03*
Y108966D02*
D03*
X32574Y90248D02*
D03*
Y96350D02*
D03*
D21*
X59404Y118500D02*
D03*
Y123815D02*
D03*
X52300Y118422D02*
D03*
Y123737D02*
D03*
D22*
X50295Y99114D02*
D03*
Y102854D02*
D03*
Y106595D02*
D03*
Y110335D02*
D03*
X39469Y99114D02*
D03*
Y102854D02*
D03*
Y106595D02*
D03*
Y110335D02*
D03*
D23*
X209000Y96913D02*
D03*
Y86087D02*
D03*
X218654Y157173D02*
D03*
Y168000D02*
D03*
D24*
X207000Y55000D02*
D03*
X209000Y121405D02*
D03*
D25*
X203358Y60472D02*
D03*
Y57913D02*
D03*
Y55354D02*
D03*
X210642D02*
D03*
Y57913D02*
D03*
Y60472D02*
D03*
X205358Y126878D02*
D03*
Y124319D02*
D03*
Y121760D02*
D03*
X212642D02*
D03*
Y124319D02*
D03*
Y126878D02*
D03*
D26*
X207000Y59095D02*
D03*
X209000Y125500D02*
D03*
D27*
X196000Y180741D02*
D03*
Y157513D02*
D03*
D28*
X35200Y134000D02*
D03*
Y185968D02*
D03*
X88071Y184646D02*
D03*
Y132677D02*
D03*
X138583Y184646D02*
D03*
Y132677D02*
D03*
D29*
X57169Y148173D02*
D03*
Y156047D02*
D03*
Y163921D02*
D03*
X110039Y146850D02*
D03*
Y154724D02*
D03*
Y162598D02*
D03*
X160551D02*
D03*
Y154724D02*
D03*
Y146850D02*
D03*
D30*
X57169Y171795D02*
D03*
X110039Y170473D02*
D03*
X160551D02*
D03*
D31*
X90063Y91000D02*
D03*
X97937Y94543D02*
D03*
Y87457D02*
D03*
D32*
X92798Y36122D02*
D03*
Y38681D02*
D03*
Y41240D02*
D03*
Y43799D02*
D03*
Y46358D02*
D03*
Y48917D02*
D03*
Y51476D02*
D03*
Y54035D02*
D03*
Y56595D02*
D03*
Y59153D02*
D03*
X69570Y36122D02*
D03*
Y38681D02*
D03*
Y41240D02*
D03*
Y43799D02*
D03*
Y46358D02*
D03*
Y48917D02*
D03*
Y51476D02*
D03*
Y54035D02*
D03*
Y56595D02*
D03*
Y59153D02*
D03*
D33*
X92158Y120026D02*
D03*
X86843D02*
D03*
X71358Y120026D02*
D03*
X76673D02*
D03*
X92815Y20472D02*
D03*
X87500D02*
D03*
X48524Y20472D02*
D03*
X53839D02*
D03*
D34*
X90517Y104261D02*
D03*
Y106820D02*
D03*
Y109379D02*
D03*
Y111939D02*
D03*
X80084Y104261D02*
D03*
Y106820D02*
D03*
Y109379D02*
D03*
D35*
Y111939D02*
D03*
D36*
X170571Y142240D02*
D03*
Y134760D02*
D03*
X179429Y138500D02*
D03*
D37*
X116142Y89764D02*
D03*
Y28346D02*
D03*
D38*
X109055Y35433D02*
D03*
D39*
Y37402D02*
D03*
Y39370D02*
D03*
Y41339D02*
D03*
Y43307D02*
D03*
Y45276D02*
D03*
Y47244D02*
D03*
Y49213D02*
D03*
Y51181D02*
D03*
Y53150D02*
D03*
Y55118D02*
D03*
Y57087D02*
D03*
Y59055D02*
D03*
Y61024D02*
D03*
Y62992D02*
D03*
Y64961D02*
D03*
Y66929D02*
D03*
Y68898D02*
D03*
Y70866D02*
D03*
Y72835D02*
D03*
Y74803D02*
D03*
Y76772D02*
D03*
Y78740D02*
D03*
Y80709D02*
D03*
Y82677D02*
D03*
X123228D02*
D03*
Y80709D02*
D03*
Y78740D02*
D03*
Y76772D02*
D03*
Y74803D02*
D03*
Y72835D02*
D03*
Y70866D02*
D03*
Y68898D02*
D03*
Y66929D02*
D03*
Y64961D02*
D03*
Y62992D02*
D03*
Y61024D02*
D03*
Y59055D02*
D03*
Y57087D02*
D03*
Y55118D02*
D03*
Y53150D02*
D03*
Y51181D02*
D03*
Y49213D02*
D03*
Y47244D02*
D03*
Y45276D02*
D03*
Y43307D02*
D03*
Y41339D02*
D03*
Y39370D02*
D03*
Y37402D02*
D03*
Y35433D02*
D03*
D40*
X78543Y20866D02*
D03*
X62402D02*
D03*
D41*
X191614Y93000D02*
D03*
X168386D02*
D03*
D73*
X166323Y40839D02*
D03*
X154724Y64567D02*
D03*
X166929Y55512D02*
D03*
D74*
X116495Y151575D02*
X153937D01*
X112164Y147244D02*
X116495Y151575D01*
X110433Y147244D02*
X112164D01*
X110039Y145350D02*
Y146850D01*
X109327Y146063D02*
X110039Y145350D01*
X109252Y146063D02*
X109289Y146100D01*
X109327Y146063D02*
X110000Y145390D01*
X110039Y146850D02*
X110433Y147244D01*
X110000Y122412D02*
Y145390D01*
X94408Y106820D02*
X110000Y122412D01*
X179229Y138500D02*
Y142771D01*
X108268Y154724D02*
X110039D01*
X105905D02*
X108268D01*
X104171Y152990D02*
X105905Y154724D01*
X104171Y120119D02*
Y152990D01*
X50590Y110630D02*
X55905D01*
X50295Y110335D02*
X50590Y110630D01*
X50295Y110335D02*
Y112894D01*
X52300Y114899D01*
Y118422D01*
X59326D02*
X59404Y118500D01*
X52300Y118422D02*
X59326D01*
X163240Y134760D02*
X170571D01*
X160551Y137449D02*
X163240Y134760D01*
X160551Y137449D02*
Y146850D01*
X167276Y154724D02*
X179229Y142771D01*
X160551Y154724D02*
X167276D01*
X153937Y151575D02*
X157087Y148425D01*
X93432Y109379D02*
X104171Y120119D01*
X160551Y154724D02*
X160551Y154724D01*
X161301Y153974D01*
X110039Y154724D02*
X160551D01*
X90517Y109379D02*
X93432D01*
X90517Y106820D02*
X94408D01*
D75*
X88090Y54035D02*
X92798D01*
D76*
X87402Y47638D02*
X88681Y48917D01*
X92798D01*
Y54035D02*
X93192D01*
X81890Y47638D02*
X87402D01*
X85925Y51476D02*
X92798D01*
D77*
X93192Y54035D02*
X101279D01*
X102362Y55118D01*
X109055D01*
D78*
X9843Y108268D02*
D03*
X127953D02*
D03*
Y9843D02*
D03*
X9843D02*
D03*
X255906D02*
D03*
Y187008D02*
D03*
X9843Y187008D02*
D03*
D79*
X240721Y115142D02*
D03*
Y128921D02*
D03*
Y142701D02*
D03*
X151575Y18228D02*
D03*
X185039D02*
D03*
X161417Y15748D02*
D03*
X240721Y65929D02*
D03*
Y52150D02*
D03*
Y38370D02*
D03*
D80*
Y156480D02*
D03*
Y79709D02*
D03*
D81*
X175197Y15748D02*
D03*
D82*
X122047Y86811D02*
D03*
Y31299D02*
D03*
X72835Y103922D02*
D03*
X76000Y78500D02*
D03*
X55905Y110630D02*
D03*
X63386Y133465D02*
D03*
X132971Y44655D02*
D03*
X140945Y29134D02*
D03*
Y12205D02*
D03*
X48425Y178347D02*
D03*
X41339D02*
D03*
Y171260D02*
D03*
X48425D02*
D03*
X136221Y57874D02*
D03*
X21260Y87795D02*
D03*
X81890Y116929D02*
D03*
Y123622D02*
D03*
X94488Y72835D02*
D03*
X81890Y63779D02*
D03*
X115748Y70079D02*
D03*
Y64370D02*
D03*
X101378Y68898D02*
D03*
X158500Y71000D02*
D03*
X181000Y115000D02*
D03*
X152000Y81500D02*
D03*
X32500Y114500D02*
D03*
X53500Y92500D02*
D03*
X48000Y136000D02*
D03*
X66453Y156047D02*
D03*
X27000Y142000D02*
D03*
Y148500D02*
D03*
X54500Y72835D02*
D03*
X25630Y80370D02*
D03*
X66500Y163500D02*
D03*
X58000Y65000D02*
D03*
X116500Y42000D02*
D03*
X84252Y41339D02*
D03*
X99213Y45669D02*
D03*
X115748Y58661D02*
D03*
X102362Y37402D02*
D03*
X81890Y47638D02*
D03*
X85925Y51476D02*
D03*
X84842Y57284D02*
D03*
X115748Y53150D02*
D03*
X53150Y34252D02*
D03*
X181890Y47700D02*
D03*
X67716Y103937D02*
D03*
X224410Y137008D02*
D03*
X233071D02*
D03*
X216929Y65354D02*
D03*
X224803D02*
D03*
X72835Y111811D02*
D03*
X74016Y98425D02*
D03*
X93307Y99606D02*
D03*
X130709Y80709D02*
D03*
Y86614D02*
D03*
X118504Y130315D02*
D03*
X87008Y14567D02*
D03*
X41732Y20472D02*
D03*
X69291Y31496D02*
D03*
X57087Y140945D02*
D03*
X54724Y129134D02*
D03*
X71260Y125984D02*
D03*
X92520Y144488D02*
D03*
X176378Y129921D02*
D03*
D83*
X157677Y42053D02*
D03*
X169291Y162598D02*
D03*
X118898D02*
D03*
X151969D02*
D03*
X101575D02*
D03*
X119685Y20079D02*
D03*
X106693D02*
D03*
M02*
