G04*
G04 #@! TF.GenerationSoftware,Altium Limited,Altium Designer,18.1.6 (161)*
G04*
G04 Layer_Color=255*
%FSLAX25Y25*%
%MOIN*%
G70*
G01*
G75*
%ADD17R,0.03543X0.03937*%
%ADD35R,0.03347X0.03347*%
%ADD36R,0.03347X0.03347*%
%ADD70C,0.02756*%
%ADD71C,0.06299*%
%ADD72R,0.06299X0.06299*%
%ADD73C,0.10630*%
%ADD74R,0.06299X0.06299*%
%ADD76R,0.05512X0.04528*%
%ADD77R,0.03937X0.03937*%
%ADD78R,0.03937X0.03937*%
D17*
X50886Y40945D02*
D03*
X56201D02*
D03*
D35*
X127165Y67438D02*
D03*
Y61336D02*
D03*
D36*
X120965Y54724D02*
D03*
X127067D02*
D03*
D70*
X122047Y86811D02*
D03*
Y31299D02*
D03*
D71*
X161417Y96457D02*
D03*
Y110236D02*
D03*
Y124016D02*
D03*
X168110Y167992D02*
D03*
X134646D02*
D03*
X158268Y170472D02*
D03*
X161417Y46457D02*
D03*
Y32677D02*
D03*
Y18898D02*
D03*
D72*
Y137795D02*
D03*
Y60236D02*
D03*
D73*
X9843Y108268D02*
D03*
X127953D02*
D03*
Y9843D02*
D03*
X9843D02*
D03*
X187008D02*
D03*
X187008Y187008D02*
D03*
X9843D02*
D03*
D74*
X144488Y170472D02*
D03*
D76*
X100394Y64468D02*
D03*
Y57579D02*
D03*
X111417Y26476D02*
D03*
Y33366D02*
D03*
D77*
X101575Y77165D02*
D03*
X87402Y96457D02*
D03*
X143307Y37008D02*
D03*
X142913Y96457D02*
D03*
X127559D02*
D03*
X143307Y27165D02*
D03*
D78*
X127559Y47638D02*
D03*
M02*
