G04*
G04 #@! TF.GenerationSoftware,Altium Limited,Altium Designer,20.1.8 (145)*
G04*
G04 Layer_Color=255*
%FSLAX25Y25*%
%MOIN*%
G70*
G04*
G04 #@! TF.SameCoordinates,CA1AD960-CC60-4823-93EC-705349262C67*
G04*
G04*
G04 #@! TF.FilePolarity,Positive*
G04*
G01*
G75*
%ADD19R,0.03347X0.03347*%
%ADD21R,0.05709X0.01772*%
%ADD27R,0.03347X0.03347*%
%ADD28R,0.03543X0.03937*%
%ADD36R,0.03937X0.03543*%
%ADD74C,0.06299*%
%ADD75R,0.06299X0.06299*%
%ADD76C,0.06000*%
%ADD77C,0.08858*%
%ADD78C,0.10630*%
%ADD79C,0.02756*%
%ADD80C,0.07087*%
%ADD81R,0.07087X0.07087*%
%ADD82R,0.08268X0.08268*%
%ADD83C,0.08268*%
%ADD95R,0.02362X0.03937*%
G04:AMPARAMS|DCode=96|XSize=23.62mil|YSize=39.37mil|CornerRadius=5.91mil|HoleSize=0mil|Usage=FLASHONLY|Rotation=180.000|XOffset=0mil|YOffset=0mil|HoleType=Round|Shape=RoundedRectangle|*
%AMROUNDEDRECTD96*
21,1,0.02362,0.02756,0,0,180.0*
21,1,0.01181,0.03937,0,0,180.0*
1,1,0.01181,-0.00591,0.01378*
1,1,0.01181,0.00591,0.01378*
1,1,0.01181,0.00591,-0.01378*
1,1,0.01181,-0.00591,-0.01378*
%
%ADD96ROUNDEDRECTD96*%
%ADD97R,0.04134X0.02362*%
%ADD98O,0.05709X0.01772*%
D19*
X81496Y54626D02*
D03*
Y48524D02*
D03*
X81496Y66831D02*
D03*
Y60728D02*
D03*
X116929Y54626D02*
D03*
Y48524D02*
D03*
X152362Y66831D02*
D03*
Y60728D02*
D03*
Y54626D02*
D03*
Y48524D02*
D03*
X116929Y66831D02*
D03*
Y60728D02*
D03*
X28740Y66240D02*
D03*
Y72342D02*
D03*
X15748Y66240D02*
D03*
Y72342D02*
D03*
D21*
X11417Y51673D02*
D03*
D27*
X75295Y73622D02*
D03*
X81398D02*
D03*
X146161D02*
D03*
X152264D02*
D03*
X110728Y73622D02*
D03*
X116831D02*
D03*
D28*
X159153Y16929D02*
D03*
X164469D02*
D03*
X159153Y24803D02*
D03*
X164469D02*
D03*
X104035Y66535D02*
D03*
X109350D02*
D03*
X139469D02*
D03*
X144783D02*
D03*
X68602D02*
D03*
X73917D02*
D03*
X29429Y42520D02*
D03*
X24114D02*
D03*
X10335D02*
D03*
X15650D02*
D03*
D36*
X38976Y51279D02*
D03*
Y56595D02*
D03*
X191535Y20184D02*
D03*
Y25498D02*
D03*
X93701Y52264D02*
D03*
Y46949D02*
D03*
X58268Y52264D02*
D03*
Y46949D02*
D03*
X129134Y52264D02*
D03*
Y46949D02*
D03*
D74*
X51181Y29134D02*
D03*
X39370D02*
D03*
Y17323D02*
D03*
D75*
X51181D02*
D03*
D76*
X15157Y138189D02*
D03*
X20177Y131693D02*
D03*
Y117323D02*
D03*
Y102953D02*
D03*
X15157Y146457D02*
D03*
X48425D02*
D03*
Y138189D02*
D03*
X15157Y88189D02*
D03*
Y96457D02*
D03*
X48425Y88189D02*
D03*
Y96457D02*
D03*
X334842Y259055D02*
D03*
X329823Y265551D02*
D03*
Y279921D02*
D03*
Y294291D02*
D03*
X334842Y250787D02*
D03*
X301575D02*
D03*
Y259055D02*
D03*
X334842Y309055D02*
D03*
Y300787D02*
D03*
X301575Y309055D02*
D03*
Y300787D02*
D03*
X334842Y170079D02*
D03*
X329823Y176575D02*
D03*
Y190945D02*
D03*
Y205315D02*
D03*
X334842Y161811D02*
D03*
X301575D02*
D03*
Y170079D02*
D03*
X334842Y220079D02*
D03*
Y211811D02*
D03*
X301575Y220079D02*
D03*
Y211811D02*
D03*
X48425Y292126D02*
D03*
Y283858D02*
D03*
X15157Y292126D02*
D03*
Y283858D02*
D03*
X48425Y333858D02*
D03*
Y342126D02*
D03*
X15157D02*
D03*
X20177Y298622D02*
D03*
Y312992D02*
D03*
Y327362D02*
D03*
X15157Y333858D02*
D03*
X48425Y196063D02*
D03*
Y187795D02*
D03*
X15157Y196063D02*
D03*
Y187795D02*
D03*
X48425Y237795D02*
D03*
Y246063D02*
D03*
X15157D02*
D03*
X20177Y202559D02*
D03*
Y216929D02*
D03*
Y231299D02*
D03*
X15157Y237795D02*
D03*
X283858Y143701D02*
D03*
X125591Y274803D02*
D03*
X138189Y150000D02*
D03*
D77*
X33465Y97441D02*
D03*
Y106496D02*
D03*
Y137205D02*
D03*
Y128150D02*
D03*
X316535Y299803D02*
D03*
Y290748D02*
D03*
Y260039D02*
D03*
Y269094D02*
D03*
Y210827D02*
D03*
Y201772D02*
D03*
Y171063D02*
D03*
Y180118D02*
D03*
X33465Y323819D02*
D03*
Y332874D02*
D03*
Y302165D02*
D03*
Y293110D02*
D03*
Y227756D02*
D03*
Y236811D02*
D03*
Y206102D02*
D03*
Y197047D02*
D03*
D78*
X11811Y11811D02*
D03*
X362205Y145669D02*
D03*
X11811Y166929D02*
D03*
X362205Y362205D02*
D03*
X11811D02*
D03*
D79*
X244488Y92716D02*
D03*
Y37205D02*
D03*
D80*
X118110Y13622D02*
D03*
X141732D02*
D03*
X130315Y17323D02*
D03*
X90945D02*
D03*
X102362Y13622D02*
D03*
X78740D02*
D03*
D81*
X130315Y29134D02*
D03*
X90945D02*
D03*
D82*
X92323Y319685D02*
D03*
Y236614D02*
D03*
Y137008D02*
D03*
D83*
X131299Y319685D02*
D03*
Y306299D02*
D03*
X92323D02*
D03*
X131299Y236614D02*
D03*
Y223228D02*
D03*
X92323D02*
D03*
X131299Y137008D02*
D03*
Y123622D02*
D03*
X92323D02*
D03*
D95*
X101772Y58169D02*
D03*
X66339D02*
D03*
X137205Y58268D02*
D03*
D96*
X105512Y58169D02*
D03*
X109252D02*
D03*
Y47343D02*
D03*
X101772D02*
D03*
X70079Y58169D02*
D03*
X73819D02*
D03*
Y47343D02*
D03*
X66339D02*
D03*
X140945Y58268D02*
D03*
X144685D02*
D03*
Y47441D02*
D03*
X137205D02*
D03*
D97*
X173622Y24606D02*
D03*
Y17126D02*
D03*
X182677D02*
D03*
Y20866D02*
D03*
Y24606D02*
D03*
D98*
X28740Y59350D02*
D03*
Y56791D02*
D03*
Y54232D02*
D03*
Y51673D02*
D03*
X11417Y59350D02*
D03*
Y56791D02*
D03*
Y54232D02*
D03*
M02*
