G04*
G04 #@! TF.GenerationSoftware,Altium Limited,Altium Designer,20.1.8 (145)*
G04*
G04 Layer_Color=8388736*
%FSLAX25Y25*%
%MOIN*%
G70*
G04*
G04 #@! TF.SameCoordinates,CA1AD960-CC60-4823-93EC-705349262C67*
G04*
G04*
G04 #@! TF.FilePolarity,Negative*
G04*
G01*
G75*
%ADD38C,0.24422*%
%ADD39R,0.15564X0.16194*%
%ADD40R,0.06391X0.03202*%
%ADD41R,0.04147X0.04147*%
G04:AMPARAMS|DCode=42|XSize=25.72mil|YSize=65.09mil|CornerRadius=8.43mil|HoleSize=0mil|Usage=FLASHONLY|Rotation=90.000|XOffset=0mil|YOffset=0mil|HoleType=Round|Shape=RoundedRectangle|*
%AMROUNDEDRECTD42*
21,1,0.02572,0.04823,0,0,90.0*
21,1,0.00886,0.06509,0,0,90.0*
1,1,0.01686,0.02411,0.00443*
1,1,0.01686,0.02411,-0.00443*
1,1,0.01686,-0.02411,-0.00443*
1,1,0.01686,-0.02411,0.00443*
%
%ADD42ROUNDEDRECTD42*%
%ADD43R,0.06509X0.02572*%
%ADD44R,0.04737X0.04737*%
%ADD45R,0.07800X0.09300*%
%ADD46R,0.06902X0.14383*%
%ADD47R,0.11824X0.09265*%
%ADD48R,0.09461X0.06312*%
%ADD49R,0.04343X0.06312*%
%ADD50R,0.04147X0.04147*%
%ADD51R,0.04143X0.04537*%
%ADD52R,0.03950X0.04343*%
%ADD53R,0.07887X0.03950*%
%ADD54O,0.07099X0.01981*%
%ADD55R,0.07099X0.01981*%
%ADD56R,0.14383X0.06902*%
%ADD57R,0.06706X0.02572*%
G04:AMPARAMS|DCode=58|XSize=67.06mil|YSize=25.72mil|CornerRadius=8.43mil|HoleSize=0mil|Usage=FLASHONLY|Rotation=180.000|XOffset=0mil|YOffset=0mil|HoleType=Round|Shape=RoundedRectangle|*
%AMROUNDEDRECTD58*
21,1,0.06706,0.00886,0,0,180.0*
21,1,0.05020,0.02572,0,0,180.0*
1,1,0.01686,-0.02510,0.00443*
1,1,0.01686,0.02510,0.00443*
1,1,0.01686,0.02510,-0.00443*
1,1,0.01686,-0.02510,-0.00443*
%
%ADD58ROUNDEDRECTD58*%
%ADD59R,0.04537X0.04143*%
%ADD60R,0.03950X0.03950*%
%ADD61C,0.00800*%
%ADD62C,0.07099*%
%ADD63R,0.07099X0.07099*%
%ADD64C,0.06800*%
%ADD65C,0.09658*%
%ADD66C,0.11430*%
%ADD67C,0.03556*%
%ADD68C,0.07887*%
%ADD69R,0.07887X0.07887*%
%ADD70R,0.09068X0.09068*%
%ADD71C,0.09068*%
%ADD72C,0.02375*%
D38*
X238583Y114173D02*
D03*
X356693D02*
D03*
Y15748D02*
D03*
X238583D02*
D03*
D39*
X168484Y247264D02*
D03*
X211831Y247224D02*
D03*
Y221240D02*
D03*
Y180689D02*
D03*
X168484Y154744D02*
D03*
Y180728D02*
D03*
X148406Y346201D02*
D03*
X211831Y154705D02*
D03*
X168484Y317342D02*
D03*
X211831Y317303D02*
D03*
Y291319D02*
D03*
X168484Y291358D02*
D03*
Y221280D02*
D03*
D40*
X160276Y239764D02*
D03*
Y244764D02*
D03*
Y249764D02*
D03*
Y254764D02*
D03*
X181890D02*
D03*
Y249764D02*
D03*
Y244764D02*
D03*
Y239764D02*
D03*
X220039Y254724D02*
D03*
Y249724D02*
D03*
Y244724D02*
D03*
Y239724D02*
D03*
X198425D02*
D03*
Y244724D02*
D03*
Y249724D02*
D03*
Y254724D02*
D03*
X220039Y228740D02*
D03*
Y223740D02*
D03*
Y218740D02*
D03*
Y213740D02*
D03*
X198425D02*
D03*
Y218740D02*
D03*
Y223740D02*
D03*
Y228740D02*
D03*
X220039Y188189D02*
D03*
Y183189D02*
D03*
Y178189D02*
D03*
Y173189D02*
D03*
X198425D02*
D03*
Y178189D02*
D03*
Y183189D02*
D03*
Y188189D02*
D03*
X160276Y147244D02*
D03*
Y152244D02*
D03*
Y157244D02*
D03*
Y162244D02*
D03*
X181890D02*
D03*
Y157244D02*
D03*
Y152244D02*
D03*
Y147244D02*
D03*
X160276Y173228D02*
D03*
Y178228D02*
D03*
Y183228D02*
D03*
Y188228D02*
D03*
X181890D02*
D03*
Y183228D02*
D03*
Y178228D02*
D03*
Y173228D02*
D03*
X140197Y338701D02*
D03*
Y343701D02*
D03*
Y348701D02*
D03*
Y353701D02*
D03*
X161811D02*
D03*
Y348701D02*
D03*
Y343701D02*
D03*
Y338701D02*
D03*
X220039Y162205D02*
D03*
Y157205D02*
D03*
Y152205D02*
D03*
Y147205D02*
D03*
X198425D02*
D03*
Y152205D02*
D03*
Y157205D02*
D03*
Y162205D02*
D03*
X160276Y309842D02*
D03*
Y314843D02*
D03*
Y319843D02*
D03*
Y324843D02*
D03*
X181890D02*
D03*
Y319843D02*
D03*
Y314843D02*
D03*
Y309842D02*
D03*
X220039Y324803D02*
D03*
Y319803D02*
D03*
Y314803D02*
D03*
Y309803D02*
D03*
X198425D02*
D03*
Y314803D02*
D03*
Y319803D02*
D03*
Y324803D02*
D03*
X220039Y298819D02*
D03*
Y293819D02*
D03*
Y288819D02*
D03*
Y283819D02*
D03*
X198425D02*
D03*
Y288819D02*
D03*
Y293819D02*
D03*
Y298819D02*
D03*
X160276Y283858D02*
D03*
Y288858D02*
D03*
Y293858D02*
D03*
Y298858D02*
D03*
X181890D02*
D03*
Y293858D02*
D03*
Y288858D02*
D03*
Y283858D02*
D03*
Y213779D02*
D03*
Y218779D02*
D03*
Y223780D02*
D03*
Y228780D02*
D03*
X160276D02*
D03*
Y223780D02*
D03*
Y218779D02*
D03*
Y213779D02*
D03*
D41*
X42520Y69193D02*
D03*
Y63090D02*
D03*
X284252Y336910D02*
D03*
Y330807D02*
D03*
X179528Y72736D02*
D03*
Y66634D02*
D03*
X168898Y47736D02*
D03*
Y53839D02*
D03*
X179528Y85728D02*
D03*
Y79626D02*
D03*
Y59744D02*
D03*
Y53642D02*
D03*
X168898Y73721D02*
D03*
Y79823D02*
D03*
X158268Y67027D02*
D03*
Y73130D02*
D03*
Y54035D02*
D03*
Y60138D02*
D03*
X168898Y60728D02*
D03*
Y66831D02*
D03*
X158268Y41043D02*
D03*
Y47146D02*
D03*
X172835Y359744D02*
D03*
Y353642D02*
D03*
D42*
X210241Y51604D02*
D03*
Y54104D02*
D03*
Y56604D02*
D03*
Y59104D02*
D03*
Y61604D02*
D03*
Y64104D02*
D03*
Y66604D02*
D03*
Y69104D02*
D03*
Y71604D02*
D03*
Y74104D02*
D03*
Y76604D02*
D03*
Y79104D02*
D03*
X188784Y51604D02*
D03*
Y54104D02*
D03*
Y56604D02*
D03*
Y59104D02*
D03*
Y61604D02*
D03*
Y64104D02*
D03*
Y66604D02*
D03*
Y69104D02*
D03*
Y71604D02*
D03*
Y74104D02*
D03*
Y76604D02*
D03*
D43*
Y79104D02*
D03*
D44*
X156299Y8268D02*
D03*
X172236D02*
D03*
X150000Y141339D02*
D03*
X194418Y8268D02*
D03*
X40945Y356693D02*
D03*
X157874Y105512D02*
D03*
X173622D02*
D03*
X189370D02*
D03*
D45*
X185685Y22047D02*
D03*
X169685D02*
D03*
X83465Y284646D02*
D03*
X99465D02*
D03*
X83465Y201575D02*
D03*
X99465D02*
D03*
X83465Y102756D02*
D03*
X99465D02*
D03*
D46*
X260630Y321850D02*
D03*
Y345079D02*
D03*
D47*
X124803Y250590D02*
D03*
Y265945D02*
D03*
X124803Y333661D02*
D03*
Y349016D02*
D03*
Y150984D02*
D03*
Y166339D02*
D03*
D48*
X166732Y117717D02*
D03*
X188779Y117717D02*
D03*
X210827Y117717D02*
D03*
D49*
X156693D02*
D03*
X178740Y117717D02*
D03*
X200787Y117717D02*
D03*
D50*
X163091Y126378D02*
D03*
X169193D02*
D03*
X185138D02*
D03*
X191240D02*
D03*
X207185Y126378D02*
D03*
X213287D02*
D03*
X193209Y88583D02*
D03*
X187106D02*
D03*
X180020Y39764D02*
D03*
X186122D02*
D03*
X180020Y33071D02*
D03*
X186122D02*
D03*
X280807Y58661D02*
D03*
X286910D02*
D03*
X280807Y72835D02*
D03*
X286910D02*
D03*
X305906Y87008D02*
D03*
X312008D02*
D03*
X305807Y72835D02*
D03*
X311910D02*
D03*
X280807Y16142D02*
D03*
X286909D02*
D03*
X280807Y30315D02*
D03*
X286909D02*
D03*
X280807Y44488D02*
D03*
X286909D02*
D03*
X305807Y58661D02*
D03*
X311910D02*
D03*
X280807Y94095D02*
D03*
X286910D02*
D03*
X280807Y87008D02*
D03*
X286910D02*
D03*
X280807Y101181D02*
D03*
X286910D02*
D03*
D51*
X198229Y25785D02*
D03*
X203544D02*
D03*
X281201Y65748D02*
D03*
X286516D02*
D03*
X281201Y79921D02*
D03*
X286516D02*
D03*
X306299Y94095D02*
D03*
X311614D02*
D03*
X306201Y79921D02*
D03*
X311516D02*
D03*
X281201Y23228D02*
D03*
X286516D02*
D03*
X281201Y37402D02*
D03*
X286516D02*
D03*
X281201Y51575D02*
D03*
X286516D02*
D03*
X306201Y65748D02*
D03*
X311516D02*
D03*
X210335Y42520D02*
D03*
X215650D02*
D03*
X104035Y269291D02*
D03*
X109350D02*
D03*
X104035Y352362D02*
D03*
X109350D02*
D03*
X104035Y169685D02*
D03*
X109350D02*
D03*
X206004Y206299D02*
D03*
X211319D02*
D03*
X181398Y273228D02*
D03*
X176083D02*
D03*
X181398Y203150D02*
D03*
X176083D02*
D03*
X206004Y139764D02*
D03*
X211319D02*
D03*
X181398Y136614D02*
D03*
X176083D02*
D03*
X211299Y276398D02*
D03*
X205984D02*
D03*
D52*
X195170Y33954D02*
D03*
X202257D02*
D03*
X198713Y41828D02*
D03*
D53*
X250394Y95669D02*
D03*
Y34252D02*
D03*
D54*
X243307Y88583D02*
D03*
Y86614D02*
D03*
Y84646D02*
D03*
Y82677D02*
D03*
Y80709D02*
D03*
Y78740D02*
D03*
Y76772D02*
D03*
Y74803D02*
D03*
Y72835D02*
D03*
Y70866D02*
D03*
Y68898D02*
D03*
Y66929D02*
D03*
Y64961D02*
D03*
Y62992D02*
D03*
Y61024D02*
D03*
Y59055D02*
D03*
Y57087D02*
D03*
Y55118D02*
D03*
Y53150D02*
D03*
Y51181D02*
D03*
Y49213D02*
D03*
Y47244D02*
D03*
Y45276D02*
D03*
Y43307D02*
D03*
Y41339D02*
D03*
X257480D02*
D03*
Y43307D02*
D03*
Y45276D02*
D03*
Y47244D02*
D03*
Y49213D02*
D03*
Y51181D02*
D03*
Y53150D02*
D03*
Y55118D02*
D03*
Y57087D02*
D03*
Y59055D02*
D03*
Y61024D02*
D03*
Y62992D02*
D03*
Y64961D02*
D03*
Y66929D02*
D03*
Y68898D02*
D03*
Y70866D02*
D03*
Y72835D02*
D03*
Y74803D02*
D03*
Y76772D02*
D03*
Y78740D02*
D03*
Y80709D02*
D03*
Y82677D02*
D03*
Y84646D02*
D03*
Y86614D02*
D03*
D55*
Y88583D02*
D03*
D56*
X141142Y197244D02*
D03*
X117913D02*
D03*
X141142Y97638D02*
D03*
X117913D02*
D03*
D57*
X109843Y154724D02*
D03*
Y337402D02*
D03*
Y254331D02*
D03*
D58*
Y157283D02*
D03*
Y159843D02*
D03*
Y162402D02*
D03*
X87008Y154724D02*
D03*
Y157283D02*
D03*
Y159843D02*
D03*
Y162402D02*
D03*
X109843Y339961D02*
D03*
Y342520D02*
D03*
Y345079D02*
D03*
X87008Y337402D02*
D03*
Y339961D02*
D03*
Y342520D02*
D03*
Y345079D02*
D03*
Y262008D02*
D03*
Y259449D02*
D03*
Y256890D02*
D03*
Y254331D02*
D03*
X109843Y262008D02*
D03*
Y259449D02*
D03*
Y256890D02*
D03*
D59*
X214567Y89862D02*
D03*
Y95177D02*
D03*
X207480Y89862D02*
D03*
Y95177D02*
D03*
X200394Y89862D02*
D03*
Y95177D02*
D03*
D60*
X297047Y337047D02*
D03*
X291142D02*
D03*
D61*
X238583Y114173D02*
D03*
X356693D02*
D03*
Y15748D02*
D03*
X238583D02*
D03*
X27559Y13622D02*
D03*
X62992Y13622D02*
D03*
D62*
X51181Y29134D02*
D03*
X39370D02*
D03*
Y17323D02*
D03*
D63*
X51181D02*
D03*
D64*
X15157Y138189D02*
D03*
X20177Y131693D02*
D03*
Y117323D02*
D03*
Y102953D02*
D03*
X15157Y146457D02*
D03*
X48425D02*
D03*
Y138189D02*
D03*
X15157Y88189D02*
D03*
Y96457D02*
D03*
X48425Y88189D02*
D03*
Y96457D02*
D03*
X334842Y259055D02*
D03*
X329823Y265551D02*
D03*
Y279921D02*
D03*
Y294291D02*
D03*
X334842Y250787D02*
D03*
X301575D02*
D03*
Y259055D02*
D03*
X334842Y309055D02*
D03*
Y300787D02*
D03*
X301575Y309055D02*
D03*
Y300787D02*
D03*
X334842Y170079D02*
D03*
X329823Y176575D02*
D03*
Y190945D02*
D03*
Y205315D02*
D03*
X334842Y161811D02*
D03*
X301575D02*
D03*
Y170079D02*
D03*
X334842Y220079D02*
D03*
Y211811D02*
D03*
X301575Y220079D02*
D03*
Y211811D02*
D03*
X48425Y292126D02*
D03*
Y283858D02*
D03*
X15157Y292126D02*
D03*
Y283858D02*
D03*
X48425Y333858D02*
D03*
Y342126D02*
D03*
X15157D02*
D03*
X20177Y298622D02*
D03*
Y312992D02*
D03*
Y327362D02*
D03*
X15157Y333858D02*
D03*
X48425Y196063D02*
D03*
Y187795D02*
D03*
X15157Y196063D02*
D03*
Y187795D02*
D03*
X48425Y237795D02*
D03*
Y246063D02*
D03*
X15157D02*
D03*
X20177Y202559D02*
D03*
Y216929D02*
D03*
Y231299D02*
D03*
X15157Y237795D02*
D03*
X283858Y143701D02*
D03*
X125591Y274803D02*
D03*
X138189Y150000D02*
D03*
D65*
X33465Y97441D02*
D03*
Y106496D02*
D03*
Y137205D02*
D03*
Y128150D02*
D03*
X316535Y299803D02*
D03*
Y290748D02*
D03*
Y260039D02*
D03*
Y269094D02*
D03*
Y210827D02*
D03*
Y201772D02*
D03*
Y171063D02*
D03*
Y180118D02*
D03*
X33465Y323819D02*
D03*
Y332874D02*
D03*
Y302165D02*
D03*
Y293110D02*
D03*
Y227756D02*
D03*
Y236811D02*
D03*
Y206102D02*
D03*
Y197047D02*
D03*
D66*
X11811Y11811D02*
D03*
X362205Y145669D02*
D03*
X11811Y166929D02*
D03*
X362205Y362205D02*
D03*
X11811D02*
D03*
D67*
X244488Y92716D02*
D03*
Y37205D02*
D03*
D68*
X118110Y13622D02*
D03*
X141732D02*
D03*
X130315Y17323D02*
D03*
X90945D02*
D03*
X102362Y13622D02*
D03*
X78740D02*
D03*
D69*
X130315Y29134D02*
D03*
X90945D02*
D03*
D70*
X92323Y319685D02*
D03*
Y236614D02*
D03*
Y137008D02*
D03*
D71*
X131299Y319685D02*
D03*
Y306299D02*
D03*
X92323D02*
D03*
X131299Y236614D02*
D03*
Y223228D02*
D03*
X92323D02*
D03*
X131299Y137008D02*
D03*
Y123622D02*
D03*
X92323D02*
D03*
D72*
X148031Y240490D02*
D03*
X349213Y92913D02*
D03*
X335433Y65354D02*
D03*
X349213Y37795D02*
D03*
X335433Y10236D02*
D03*
X321654Y92913D02*
D03*
Y37795D02*
D03*
X307874Y10236D02*
D03*
X294095Y92913D02*
D03*
Y37795D02*
D03*
X280315Y10236D02*
D03*
X266535Y37795D02*
D03*
X238977Y92913D02*
D03*
X225197Y65354D02*
D03*
X238977Y37795D02*
D03*
X128740D02*
D03*
X87402Y10236D02*
D03*
X59843Y65354D02*
D03*
X73622Y37795D02*
D03*
X59843Y10236D02*
D03*
X46063Y37795D02*
D03*
X32283Y10236D02*
D03*
X18504Y37795D02*
D03*
X79527Y78346D02*
D03*
X87795Y64961D02*
D03*
M02*
