G04*
G04 #@! TF.GenerationSoftware,Altium Limited,Altium Designer,20.1.8 (145)*
G04*
G04 Layer_Color=32896*
%FSLAX25Y25*%
%MOIN*%
G70*
G04*
G04 #@! TF.SameCoordinates,CA1AD960-CC60-4823-93EC-705349262C67*
G04*
G04*
G04 #@! TF.FilePolarity,Positive*
G04*
G01*
G75*
%ADD11C,0.02362*%
%ADD12C,0.00984*%
%ADD14C,0.00787*%
%ADD15C,0.00591*%
D11*
X20669Y53347D02*
G03*
X20669Y53347I-1181J0D01*
G01*
D12*
X183169Y27953D02*
G03*
X183169Y27953I-492J0D01*
G01*
X63484Y58169D02*
G03*
X63484Y58169I-492J0D01*
G01*
X134350Y58268D02*
G03*
X134350Y58268I-492J0D01*
G01*
X98917Y58169D02*
G03*
X98917Y58169I-492J0D01*
G01*
X11909Y48622D02*
G03*
X11909Y48622I-492J0D01*
G01*
D14*
X99409Y50787D02*
Y54724D01*
X111614Y50787D02*
Y54724D01*
X99409D02*
X111614D01*
X99409Y50787D02*
X111614D01*
X176575Y14961D02*
Y26772D01*
X179724Y14961D02*
Y26772D01*
X176575Y14961D02*
X179724D01*
X176575Y26772D02*
X179724D01*
X63976Y50787D02*
Y54724D01*
X76181Y50787D02*
Y54724D01*
X63976D02*
X76181D01*
X63976Y50787D02*
X76181D01*
X134843Y50886D02*
Y54823D01*
X147047Y50886D02*
Y54823D01*
X134843D02*
X147047D01*
X134843Y50886D02*
X147047D01*
X15551Y61614D02*
X24606D01*
X15551Y49409D02*
X24606D01*
Y61614D01*
X15551Y49409D02*
Y61614D01*
D15*
X323212Y252783D02*
Y250684D01*
X322163Y249635D01*
X321113Y250684D01*
Y252783D01*
X320063D02*
Y249635D01*
X318489D01*
X317964Y250160D01*
Y250684D01*
X318489Y251209D01*
X320063D01*
X318489D01*
X317964Y251734D01*
Y252259D01*
X318489Y252783D01*
X320063D01*
X316915Y249635D02*
Y251734D01*
X315865Y252783D01*
X314816Y251734D01*
Y249635D01*
Y251209D01*
X316915D01*
X313766Y252783D02*
X311667D01*
X312717D01*
Y249635D01*
X35906Y189283D02*
X36431Y189808D01*
X37481D01*
X38005Y189283D01*
Y187184D01*
X37481Y186660D01*
X36431D01*
X35906Y187184D01*
Y188234D01*
X36956D01*
X34857Y186660D02*
Y189808D01*
X32758Y186660D01*
Y189808D01*
X31708D02*
Y186660D01*
X30134D01*
X29609Y187184D01*
Y189283D01*
X30134Y189808D01*
X31708D01*
X35906Y285346D02*
X36431Y285871D01*
X37481D01*
X38005Y285346D01*
Y283247D01*
X37481Y282722D01*
X36431D01*
X35906Y283247D01*
Y284297D01*
X36956D01*
X34857Y282722D02*
Y285871D01*
X32758Y282722D01*
Y285871D01*
X31708D02*
Y282722D01*
X30134D01*
X29609Y283247D01*
Y285346D01*
X30134Y285871D01*
X31708D01*
X35906Y90071D02*
X36431Y90596D01*
X37481D01*
X38005Y90071D01*
Y87972D01*
X37481Y87447D01*
X36431D01*
X35906Y87972D01*
Y89021D01*
X36956D01*
X34857Y87447D02*
Y90596D01*
X32758Y87447D01*
Y90596D01*
X31708D02*
Y87447D01*
X30134D01*
X29609Y87972D01*
Y90071D01*
X30134Y90596D01*
X31708D01*
X318570Y220537D02*
X319095Y221062D01*
X320145D01*
X320669Y220537D01*
Y218438D01*
X320145Y217913D01*
X319095D01*
X318570Y218438D01*
Y219488D01*
X319620D01*
X317521Y217913D02*
Y221062D01*
X315422Y217913D01*
Y221062D01*
X314372D02*
Y217913D01*
X312798D01*
X312273Y218438D01*
Y220537D01*
X312798Y221062D01*
X314372D01*
X318977Y308575D02*
X319502Y309099D01*
X320551D01*
X321076Y308575D01*
Y306476D01*
X320551Y305951D01*
X319502D01*
X318977Y306476D01*
Y307525D01*
X320027D01*
X317928Y305951D02*
Y309099D01*
X315828Y305951D01*
Y309099D01*
X314779D02*
Y305951D01*
X313205D01*
X312680Y306476D01*
Y308575D01*
X313205Y309099D01*
X314779D01*
X39173Y246259D02*
Y243110D01*
X37599D01*
X37074Y243635D01*
Y245734D01*
X37599Y246259D01*
X39173D01*
X33926Y245734D02*
X34450Y246259D01*
X35500D01*
X36025Y245734D01*
Y243635D01*
X35500Y243110D01*
X34450D01*
X33926Y243635D01*
X32876Y246259D02*
Y243110D01*
X31302D01*
X30777Y243635D01*
Y245734D01*
X31302Y246259D01*
X32876D01*
X27628Y245734D02*
X28153Y246259D01*
X29203D01*
X29728Y245734D01*
Y243635D01*
X29203Y243110D01*
X28153D01*
X27628Y243635D01*
X38005Y143746D02*
Y145845D01*
X36956Y146895D01*
X35906Y145845D01*
Y143746D01*
Y145320D01*
X38005D01*
X34857Y146895D02*
Y144271D01*
X34332Y143746D01*
X33282D01*
X32758Y144271D01*
Y146895D01*
X31708D02*
X29609Y143746D01*
Y146895D02*
X31708Y143746D01*
X322244Y163188D02*
Y161089D01*
X321195Y160039D01*
X320145Y161089D01*
Y163188D01*
X319095D02*
Y160039D01*
X317521D01*
X316997Y160564D01*
Y161089D01*
X317521Y161614D01*
X319095D01*
X317521D01*
X316997Y162138D01*
Y162663D01*
X317521Y163188D01*
X319095D01*
X315947Y160039D02*
Y162138D01*
X314897Y163188D01*
X313848Y162138D01*
Y160039D01*
Y161614D01*
X315947D01*
X312798Y163188D02*
X310699D01*
X311749D01*
Y160039D01*
X135630Y8542D02*
Y10641D01*
X134580Y11691D01*
X133531Y10641D01*
Y8542D01*
Y10116D01*
X135630D01*
X132481Y11691D02*
Y9067D01*
X131957Y8542D01*
X130907D01*
X130382Y9067D01*
Y11691D01*
X129333D02*
X127234Y8542D01*
Y11691D02*
X129333Y8542D01*
X133531Y6495D02*
X135630D01*
Y4921D01*
X134580D01*
X135630D01*
Y3347D01*
X132481Y6495D02*
Y3871D01*
X131957Y3347D01*
X130907D01*
X130382Y3871D01*
Y6495D01*
X127234Y5970D02*
X127758Y6495D01*
X128808D01*
X129333Y5970D01*
Y5446D01*
X128808Y4921D01*
X127758D01*
X127234Y4396D01*
Y3871D01*
X127758Y3347D01*
X128808D01*
X129333Y3871D01*
X124085Y6495D02*
X126184D01*
Y3347D01*
X124085D01*
X126184Y4921D02*
X125135D01*
X123036Y6495D02*
Y3347D01*
X121461D01*
X120937Y3871D01*
Y5970D01*
X121461Y6495D01*
X123036D01*
X41142Y345025D02*
Y348173D01*
X39567D01*
X39043Y347649D01*
Y346599D01*
X39567Y346074D01*
X41142D01*
X37468Y345025D02*
X36419D01*
X35894Y345549D01*
Y346599D01*
X36419Y347124D01*
X37468D01*
X37993Y346599D01*
Y345549D01*
X37468Y345025D01*
X34845Y347124D02*
Y345549D01*
X34320Y345025D01*
X33795Y345549D01*
X33270Y345025D01*
X32746Y345549D01*
Y347124D01*
X30122Y345025D02*
X31171D01*
X31696Y345549D01*
Y346599D01*
X31171Y347124D01*
X30122D01*
X29597Y346599D01*
Y346074D01*
X31696D01*
X28547Y347124D02*
Y345025D01*
Y346074D01*
X28023Y346599D01*
X27498Y347124D01*
X26973D01*
X39043Y342453D02*
X39567Y342978D01*
X40617D01*
X41142Y342453D01*
Y341928D01*
X40617Y341403D01*
X39567D01*
X39043Y340879D01*
Y340354D01*
X39567Y339829D01*
X40617D01*
X41142Y340354D01*
X37993Y341928D02*
Y340354D01*
X37468Y339829D01*
X35894D01*
Y341928D01*
X34845Y338779D02*
Y341928D01*
X33270D01*
X32746Y341403D01*
Y340354D01*
X33270Y339829D01*
X34845D01*
X31696Y338779D02*
Y341928D01*
X30122D01*
X29597Y341403D01*
Y340354D01*
X30122Y339829D01*
X31696D01*
X28547D02*
X27498D01*
X28023D01*
Y342978D01*
X28547D01*
X25924Y341928D02*
Y340354D01*
X25399Y339829D01*
X23824D01*
Y339304D01*
X24349Y338779D01*
X24874D01*
X23824Y339829D02*
Y341928D01*
X124213Y30196D02*
Y32295D01*
X123163Y33344D01*
X122114Y32295D01*
Y30196D01*
Y31770D01*
X124213D01*
X121064Y33344D02*
Y30720D01*
X120539Y30196D01*
X119490D01*
X118965Y30720D01*
Y33344D01*
X117915D02*
X115816Y30196D01*
Y33344D02*
X117915Y30196D01*
X122114Y27624D02*
X122638Y28149D01*
X123688D01*
X124213Y27624D01*
Y27099D01*
X123688Y26574D01*
X122638D01*
X122114Y26050D01*
Y25525D01*
X122638Y25000D01*
X123688D01*
X124213Y25525D01*
X121064Y27099D02*
Y25525D01*
X120539Y25000D01*
X120015Y25525D01*
X119490Y25000D01*
X118965Y25525D01*
Y27099D01*
X117915Y25000D02*
X116866D01*
X117391D01*
Y27099D01*
X117915D01*
X114767Y27624D02*
Y27099D01*
X115292D01*
X114242D01*
X114767D01*
Y25525D01*
X114242Y25000D01*
X110569Y27099D02*
X112143D01*
X112668Y26574D01*
Y25525D01*
X112143Y25000D01*
X110569D01*
X109519Y28149D02*
Y25000D01*
Y26574D01*
X108994Y27099D01*
X107945D01*
X107420Y26574D01*
Y25000D01*
X62665Y29986D02*
X63190Y30511D01*
X64239D01*
X64764Y29986D01*
Y27887D01*
X64239Y27362D01*
X63190D01*
X62665Y27887D01*
Y28936D01*
X63714D01*
X61615Y27362D02*
Y30511D01*
X59516Y27362D01*
Y30511D01*
X58467D02*
Y27362D01*
X56892D01*
X56368Y27887D01*
Y29986D01*
X56892Y30511D01*
X58467D01*
X85630Y30904D02*
X83531D01*
X84580D01*
Y27756D01*
X82481Y30904D02*
Y27756D01*
Y29330D01*
X81957Y29855D01*
X80907D01*
X80382Y29330D01*
Y27756D01*
X77759D02*
X78808D01*
X79333Y28281D01*
Y29330D01*
X78808Y29855D01*
X77759D01*
X77234Y29330D01*
Y28805D01*
X79333D01*
X76184Y29855D02*
Y27756D01*
Y28805D01*
X75659Y29330D01*
X75135Y29855D01*
X74610D01*
X73036Y27756D02*
Y29855D01*
X72511D01*
X71986Y29330D01*
Y27756D01*
Y29330D01*
X71461Y29855D01*
X70937Y29330D01*
Y27756D01*
X41535Y7676D02*
X39436D01*
X40486D01*
Y4528D01*
X38387Y7676D02*
Y4528D01*
Y6102D01*
X37862Y6627D01*
X36812D01*
X36288Y6102D01*
Y4528D01*
X33664D02*
X34714D01*
X35238Y5052D01*
Y6102D01*
X34714Y6627D01*
X33664D01*
X33139Y6102D01*
Y5577D01*
X35238D01*
X32090Y6627D02*
Y4528D01*
Y5577D01*
X31565Y6102D01*
X31040Y6627D01*
X30515D01*
X28941Y4528D02*
Y6627D01*
X28416D01*
X27892Y6102D01*
Y4528D01*
Y6102D01*
X27367Y6627D01*
X26842Y6102D01*
Y4528D01*
X60696Y7676D02*
X62795D01*
Y6102D01*
X61746D01*
X62795D01*
Y4528D01*
X59122Y6627D02*
X58072D01*
X57548Y6102D01*
Y4528D01*
X59122D01*
X59647Y5052D01*
X59122Y5577D01*
X57548D01*
X56498Y6627D02*
Y5052D01*
X55973Y4528D01*
X54399D01*
Y6627D01*
X53350Y4528D02*
X52300D01*
X52825D01*
Y7676D01*
X53350D01*
X50201Y7151D02*
Y6627D01*
X50726D01*
X49676D01*
X50201D01*
Y5052D01*
X49676Y4528D01*
X68504Y43700D02*
Y41076D01*
X67979Y40551D01*
X66930D01*
X66405Y41076D01*
Y43700D01*
X65355Y41076D02*
X64831Y40551D01*
X63781D01*
X63256Y41076D01*
Y43175D01*
X63781Y43700D01*
X64831D01*
X65355Y43175D01*
Y42650D01*
X64831Y42125D01*
X63256D01*
X3544Y54429D02*
X6168D01*
X6693Y53904D01*
Y52855D01*
X6168Y52330D01*
X3544D01*
Y51280D02*
Y49182D01*
X4069D01*
X6168Y51280D01*
X6693D01*
X103937Y43700D02*
Y41076D01*
X103412Y40551D01*
X102363D01*
X101838Y41076D01*
Y43700D01*
X98689D02*
X100788D01*
Y42125D01*
X99739Y42650D01*
X99214D01*
X98689Y42125D01*
Y41076D01*
X99214Y40551D01*
X100264D01*
X100788Y41076D01*
X139370Y43798D02*
Y41174D01*
X138845Y40650D01*
X137796D01*
X137271Y41174D01*
Y43798D01*
X136222Y43273D02*
X135697Y43798D01*
X134647D01*
X134122Y43273D01*
Y42749D01*
X134647Y42224D01*
X135172D01*
X134647D01*
X134122Y41699D01*
Y41174D01*
X134647Y40650D01*
X135697D01*
X136222Y41174D01*
X186221Y12597D02*
Y9974D01*
X185696Y9449D01*
X184646D01*
X184121Y9974D01*
Y12597D01*
X183072Y9449D02*
X182022D01*
X182547D01*
Y12597D01*
X183072Y12073D01*
X25197Y74508D02*
X22048D01*
Y72934D01*
X22573Y72409D01*
X23623D01*
X24147Y72934D01*
Y74508D01*
Y73458D02*
X25197Y72409D01*
X22573Y71359D02*
X22048Y70834D01*
Y69785D01*
X22573Y69260D01*
X23098D01*
X23623Y69785D01*
Y70310D01*
Y69785D01*
X24147Y69260D01*
X24672D01*
X25197Y69785D01*
Y70834D01*
X24672Y71359D01*
X22573Y68211D02*
X22048Y67686D01*
Y66636D01*
X22573Y66112D01*
X23098D01*
X23623Y66636D01*
Y67161D01*
Y66636D01*
X24147Y66112D01*
X24672D01*
X25197Y66636D01*
Y67686D01*
X24672Y68211D01*
X12205Y74409D02*
X9056D01*
Y72835D01*
X9581Y72310D01*
X10630D01*
X11155Y72835D01*
Y74409D01*
Y73360D02*
X12205Y72310D01*
X9581Y71261D02*
X9056Y70736D01*
Y69687D01*
X9581Y69162D01*
X10106D01*
X10630Y69687D01*
Y70211D01*
Y69687D01*
X11155Y69162D01*
X11680D01*
X12205Y69687D01*
Y70736D01*
X11680Y71261D01*
X12205Y68112D02*
Y67063D01*
Y67588D01*
X9056D01*
X9581Y68112D01*
X88583Y56693D02*
X85434D01*
Y55119D01*
X85959Y54594D01*
X87008D01*
X87533Y55119D01*
Y56693D01*
Y55643D02*
X88583Y54594D01*
Y51970D02*
X85434D01*
X87008Y53544D01*
Y51445D01*
X85959Y50396D02*
X85434Y49871D01*
Y48821D01*
X85959Y48297D01*
X88058D01*
X88583Y48821D01*
Y49871D01*
X88058Y50396D01*
X85959D01*
X88583Y68898D02*
X85434D01*
Y67323D01*
X85959Y66799D01*
X87008D01*
X87533Y67323D01*
Y68898D01*
Y67848D02*
X88583Y66799D01*
X85959Y65749D02*
X85434Y65224D01*
Y64175D01*
X85959Y63650D01*
X86484D01*
X87008Y64175D01*
Y64700D01*
Y64175D01*
X87533Y63650D01*
X88058D01*
X88583Y64175D01*
Y65224D01*
X88058Y65749D01*
Y62600D02*
X88583Y62076D01*
Y61026D01*
X88058Y60501D01*
X85959D01*
X85434Y61026D01*
Y62076D01*
X85959Y62600D01*
X86484D01*
X87008Y62076D01*
Y60501D01*
X83465Y77165D02*
Y80314D01*
X81890D01*
X81366Y79789D01*
Y78740D01*
X81890Y78215D01*
X83465D01*
X82415D02*
X81366Y77165D01*
X80316Y79789D02*
X79791Y80314D01*
X78742D01*
X78217Y79789D01*
Y79264D01*
X78742Y78740D01*
X79266D01*
X78742D01*
X78217Y78215D01*
Y77690D01*
X78742Y77165D01*
X79791D01*
X80316Y77690D01*
X77167Y80314D02*
X75068D01*
Y79789D01*
X77167Y77690D01*
Y77165D01*
X124016Y56693D02*
X120867D01*
Y55119D01*
X121392Y54594D01*
X122441D01*
X122966Y55119D01*
Y56693D01*
Y55643D02*
X124016Y54594D01*
Y53544D02*
Y52495D01*
Y53020D01*
X120867D01*
X121392Y53544D01*
Y50920D02*
X120867Y50396D01*
Y49346D01*
X121392Y48821D01*
X121917D01*
X122441Y49346D01*
Y49871D01*
Y49346D01*
X122966Y48821D01*
X123491D01*
X124016Y49346D01*
Y50396D01*
X123491Y50920D01*
X124016Y68898D02*
X120867D01*
Y67323D01*
X121392Y66799D01*
X122441D01*
X122966Y67323D01*
Y68898D01*
Y67848D02*
X124016Y66799D01*
Y65749D02*
Y64700D01*
Y65224D01*
X120867D01*
X121392Y65749D01*
X124016Y61026D02*
Y63125D01*
X121917Y61026D01*
X121392D01*
X120867Y61551D01*
Y62600D01*
X121392Y63125D01*
X118996Y77165D02*
Y80314D01*
X117422D01*
X116897Y79789D01*
Y78740D01*
X117422Y78215D01*
X118996D01*
X117947D02*
X116897Y77165D01*
X115848D02*
X114798D01*
X115323D01*
Y80314D01*
X115848Y79789D01*
X113224D02*
X112699Y80314D01*
X111649D01*
X111125Y79789D01*
Y77690D01*
X111649Y77165D01*
X112699D01*
X113224Y77690D01*
Y79789D01*
X159449Y55677D02*
X156300D01*
Y54103D01*
X156825Y53578D01*
X157875D01*
X158399Y54103D01*
Y55677D01*
Y54628D02*
X159449Y53578D01*
X156300Y52529D02*
Y50430D01*
X156825D01*
X158924Y52529D01*
X159449D01*
Y68898D02*
X156300D01*
Y67323D01*
X156825Y66799D01*
X157875D01*
X158399Y67323D01*
Y68898D01*
Y67848D02*
X159449Y66799D01*
X156300Y63650D02*
X156825Y64700D01*
X157875Y65749D01*
X158924D01*
X159449Y65224D01*
Y64175D01*
X158924Y63650D01*
X158399D01*
X157875Y64175D01*
Y65749D01*
X153937Y76625D02*
Y79773D01*
X152363D01*
X151838Y79248D01*
Y78199D01*
X152363Y77674D01*
X153937D01*
X152887D02*
X151838Y76625D01*
X149214D02*
Y79773D01*
X150788Y78199D01*
X148689D01*
X62862Y67585D02*
X63386Y68109D01*
X64436D01*
X64961Y67585D01*
Y65485D01*
X64436Y64961D01*
X63386D01*
X62862Y65485D01*
X61812Y67585D02*
X61287Y68109D01*
X60238D01*
X59713Y67585D01*
Y67060D01*
X60238Y66535D01*
X60763D01*
X60238D01*
X59713Y66010D01*
Y65485D01*
X60238Y64961D01*
X61287D01*
X61812Y65485D01*
X56564Y68109D02*
X57614Y67585D01*
X58663Y66535D01*
Y65485D01*
X58139Y64961D01*
X57089D01*
X56564Y65485D01*
Y66010D01*
X57089Y66535D01*
X58663D01*
X54199Y47375D02*
X54723Y46850D01*
Y45800D01*
X54199Y45276D01*
X52100D01*
X51575Y45800D01*
Y46850D01*
X52100Y47375D01*
X54199Y48424D02*
X54723Y48949D01*
Y49999D01*
X54199Y50523D01*
X53674D01*
X53149Y49999D01*
Y49474D01*
Y49999D01*
X52624Y50523D01*
X52100D01*
X51575Y49999D01*
Y48949D01*
X52100Y48424D01*
X54723Y53672D02*
Y51573D01*
X53149D01*
X53674Y52622D01*
Y53147D01*
X53149Y53672D01*
X52100D01*
X51575Y53147D01*
Y52097D01*
X52100Y51573D01*
X26509Y35959D02*
X25984Y35434D01*
X24934D01*
X24409Y35959D01*
Y38058D01*
X24934Y38583D01*
X25984D01*
X26509Y38058D01*
X27558Y35959D02*
X28083Y35434D01*
X29132D01*
X29657Y35959D01*
Y36484D01*
X29132Y37008D01*
X28608D01*
X29132D01*
X29657Y37533D01*
Y38058D01*
X29132Y38583D01*
X28083D01*
X27558Y38058D01*
X30707Y38583D02*
X31756D01*
X31231D01*
Y35434D01*
X30707Y35959D01*
X9973Y36353D02*
X9448Y35828D01*
X8399D01*
X7874Y36353D01*
Y38452D01*
X8399Y38976D01*
X9448D01*
X9973Y38452D01*
X13122Y38976D02*
X11023D01*
X13122Y36877D01*
Y36353D01*
X12597Y35828D01*
X11547D01*
X11023Y36353D01*
X14171Y38452D02*
X14696Y38976D01*
X15745D01*
X16270Y38452D01*
Y36353D01*
X15745Y35828D01*
X14696D01*
X14171Y36353D01*
Y36877D01*
X14696Y37402D01*
X16270D01*
X45537Y51705D02*
X46062Y51181D01*
Y50131D01*
X45537Y49606D01*
X43438D01*
X42913Y50131D01*
Y51181D01*
X43438Y51705D01*
X42913Y54854D02*
Y52755D01*
X45013Y54854D01*
X45537D01*
X46062Y54329D01*
Y53280D01*
X45537Y52755D01*
Y55904D02*
X46062Y56428D01*
Y57478D01*
X45537Y58003D01*
X45013D01*
X44488Y57478D01*
X43963Y58003D01*
X43438D01*
X42913Y57478D01*
Y56428D01*
X43438Y55904D01*
X43963D01*
X44488Y56428D01*
X45013Y55904D01*
X45537D01*
X44488Y56428D02*
Y57478D01*
X98295Y67585D02*
X98819Y68109D01*
X99869D01*
X100394Y67585D01*
Y65485D01*
X99869Y64961D01*
X98819D01*
X98295Y65485D01*
X97245Y64961D02*
X96196D01*
X96720D01*
Y68109D01*
X97245Y67585D01*
X93047Y64961D02*
Y68109D01*
X94621Y66535D01*
X92522D01*
X93570Y43175D02*
X94095Y43700D01*
X95144D01*
X95669Y43175D01*
Y41076D01*
X95144Y40551D01*
X94095D01*
X93570Y41076D01*
X92521Y40551D02*
X91471D01*
X91996D01*
Y43700D01*
X92521Y43175D01*
X89897D02*
X89372Y43700D01*
X88323D01*
X87798Y43175D01*
Y42650D01*
X88323Y42125D01*
X88847D01*
X88323D01*
X87798Y41601D01*
Y41076D01*
X88323Y40551D01*
X89372D01*
X89897Y41076D01*
X133728Y67585D02*
X134253Y68109D01*
X135302D01*
X135827Y67585D01*
Y65485D01*
X135302Y64961D01*
X134253D01*
X133728Y65485D01*
X132678Y67585D02*
X132153Y68109D01*
X131104D01*
X130579Y67585D01*
Y67060D01*
X131104Y66535D01*
X130579Y66010D01*
Y65485D01*
X131104Y64961D01*
X132153D01*
X132678Y65485D01*
Y66010D01*
X132153Y66535D01*
X132678Y67060D01*
Y67585D01*
X132153Y66535D02*
X131104D01*
X128085Y58925D02*
X127560Y59449D01*
Y60499D01*
X128085Y61024D01*
X130184D01*
X130709Y60499D01*
Y59449D01*
X130184Y58925D01*
X127560Y57875D02*
Y55776D01*
X128085D01*
X130184Y57875D01*
X130709D01*
X153125Y18074D02*
X153649Y18599D01*
X154699D01*
X155224Y18074D01*
Y15975D01*
X154699Y15450D01*
X153649D01*
X153125Y15975D01*
X149976Y15450D02*
X152075D01*
X149976Y17549D01*
Y18074D01*
X150501Y18599D01*
X151550D01*
X152075Y18074D01*
X153125Y25948D02*
X153649Y26473D01*
X154699D01*
X155224Y25948D01*
Y23849D01*
X154699Y23324D01*
X153649D01*
X153125Y23849D01*
X152075Y25948D02*
X151550Y26473D01*
X150501D01*
X149976Y25948D01*
Y25423D01*
X150501Y24899D01*
X151026D01*
X150501D01*
X149976Y24374D01*
Y23849D01*
X150501Y23324D01*
X151550D01*
X152075Y23849D01*
X191602Y15616D02*
X192127Y16141D01*
X193176D01*
X193701Y15616D01*
Y13517D01*
X193176Y12992D01*
X192127D01*
X191602Y13517D01*
X190552Y12992D02*
X189503D01*
X190027D01*
Y16141D01*
X190552Y15616D01*
M02*
