G04 Layer_Physical_Order=2*
G04 Layer_Color=36540*
%FSTAX24Y24*%
%MOIN*%
G70*
G01*
G75*
%ADD42C,0.0600*%
%ADD45C,0.0236*%
G36*
X046313Y046567D02*
X046313Y02713D01*
X01112D01*
X01112Y046567D01*
X046313Y046567D01*
D02*
G37*
%LPC*%
G36*
X034506Y032838D02*
X034437Y032824D01*
X034378Y032785D01*
X034339Y032726D01*
X034325Y032656D01*
X034339Y032587D01*
X034378Y032528D01*
X034437Y032489D01*
X034506Y032475D01*
X034576Y032489D01*
X034635Y032528D01*
X034674Y032587D01*
X034688Y032656D01*
X034674Y032726D01*
X034635Y032785D01*
X034576Y032824D01*
X034506Y032838D01*
D02*
G37*
G36*
X034006D02*
X033937Y032824D01*
X033878Y032785D01*
X033839Y032726D01*
X033825Y032656D01*
X033839Y032587D01*
X033878Y032528D01*
X033937Y032489D01*
X034006Y032475D01*
X034076Y032489D01*
X034135Y032528D01*
X034174Y032587D01*
X034188Y032656D01*
X034174Y032726D01*
X034135Y032785D01*
X034076Y032824D01*
X034006Y032838D01*
D02*
G37*
G36*
X0355Y032832D02*
X035431Y032818D01*
X035372Y032778D01*
X035332Y03272D01*
X035318Y03265D01*
X035332Y03258D01*
X035372Y032522D01*
X035431Y032482D01*
X0355Y032468D01*
X03557Y032482D01*
X035628Y032522D01*
X035668Y03258D01*
X035682Y03265D01*
X035668Y03272D01*
X035628Y032778D01*
X03557Y032818D01*
X0355Y032832D01*
D02*
G37*
G36*
X019368Y033666D02*
X019301Y033657D01*
X019239Y033631D01*
X019185Y03359D01*
X019144Y033536D01*
X019118Y033474D01*
X019109Y033407D01*
X019118Y03334D01*
X019144Y033277D01*
X019185Y033224D01*
X019239Y033182D01*
X019301Y033157D01*
X019368Y033148D01*
X019436Y033157D01*
X019498Y033182D01*
X019552Y033224D01*
X019593Y033277D01*
X019619Y03334D01*
X019628Y033407D01*
X019619Y033474D01*
X019593Y033536D01*
X019552Y03359D01*
X019498Y033631D01*
X019436Y033657D01*
X019368Y033666D01*
D02*
G37*
G36*
X029544Y033392D02*
X029474Y033378D01*
X029415Y033338D01*
X029376Y03328D01*
X029362Y03321D01*
X029376Y03314D01*
X029415Y033082D01*
X029474Y033042D01*
X029544Y033028D01*
X029613Y033042D01*
X029672Y033082D01*
X029711Y03314D01*
X029725Y03321D01*
X029711Y03328D01*
X029672Y033338D01*
X029613Y033378D01*
X029544Y033392D01*
D02*
G37*
G36*
X035006Y032838D02*
X034937Y032824D01*
X034878Y032785D01*
X034839Y032726D01*
X034825Y032656D01*
X034839Y032587D01*
X034878Y032528D01*
X034937Y032489D01*
X035006Y032475D01*
X035076Y032489D01*
X035135Y032528D01*
X035174Y032587D01*
X035188Y032656D01*
X035174Y032726D01*
X035135Y032785D01*
X035076Y032824D01*
X035006Y032838D01*
D02*
G37*
G36*
X019368Y032666D02*
X019301Y032657D01*
X019239Y032631D01*
X019185Y03259D01*
X019144Y032536D01*
X019118Y032474D01*
X019109Y032407D01*
X019118Y03234D01*
X019144Y032277D01*
X019185Y032224D01*
X019239Y032182D01*
X019301Y032157D01*
X019368Y032148D01*
X019436Y032157D01*
X019498Y032182D01*
X019552Y032224D01*
X019593Y032277D01*
X019619Y03234D01*
X019628Y032407D01*
X019619Y032474D01*
X019593Y032536D01*
X019552Y03259D01*
X019498Y032631D01*
X019436Y032657D01*
X019368Y032666D01*
D02*
G37*
G36*
X025994Y032142D02*
X025924Y032128D01*
X025865Y032088D01*
X025826Y03203D01*
X025812Y03196D01*
X025826Y03189D01*
X025865Y031832D01*
X025924Y031792D01*
X025994Y031778D01*
X026063Y031792D01*
X026122Y031832D01*
X026161Y03189D01*
X026175Y03196D01*
X026161Y03203D01*
X026122Y032088D01*
X026063Y032128D01*
X025994Y032142D01*
D02*
G37*
G36*
X015668Y032166D02*
X015601Y032157D01*
X015539Y032131D01*
X015485Y03209D01*
X015444Y032036D01*
X015418Y031974D01*
X015409Y031907D01*
X015418Y03184D01*
X015444Y031777D01*
X015485Y031724D01*
X015539Y031682D01*
X015601Y031657D01*
X015668Y031648D01*
X015736Y031657D01*
X015798Y031682D01*
X015852Y031724D01*
X015893Y031777D01*
X015919Y03184D01*
X015928Y031907D01*
X015919Y031974D01*
X015893Y032036D01*
X015852Y03209D01*
X015798Y032131D01*
X015736Y032157D01*
X015668Y032166D01*
D02*
G37*
G36*
X0335Y032832D02*
X033431Y032818D01*
X033372Y032778D01*
X033332Y03272D01*
X033318Y03265D01*
X033332Y03258D01*
X033372Y032522D01*
X033431Y032482D01*
X0335Y032468D01*
X03357Y032482D01*
X033628Y032522D01*
X033668Y03258D01*
X033682Y03265D01*
X033668Y03272D01*
X033628Y032778D01*
X03357Y032818D01*
X0335Y032832D01*
D02*
G37*
G36*
X022269Y032688D02*
X022199Y032675D01*
X02214Y032635D01*
X022101Y032576D01*
X022087Y032507D01*
X022101Y032437D01*
X02214Y032378D01*
X022199Y032339D01*
X022269Y032325D01*
X022338Y032339D01*
X022397Y032378D01*
X022436Y032437D01*
X02245Y032507D01*
X022436Y032576D01*
X022397Y032635D01*
X022338Y032675D01*
X022269Y032688D01*
D02*
G37*
G36*
X021268D02*
X021199Y032675D01*
X02114Y032635D01*
X021101Y032576D01*
X021087Y032507D01*
X021101Y032437D01*
X02114Y032378D01*
X021199Y032339D01*
X021268Y032325D01*
X021338Y032339D01*
X021397Y032378D01*
X021436Y032437D01*
X02145Y032507D01*
X021436Y032576D01*
X021397Y032635D01*
X021338Y032675D01*
X021268Y032688D01*
D02*
G37*
G36*
X015668Y033866D02*
X015601Y033857D01*
X015539Y033831D01*
X015485Y03379D01*
X015444Y033736D01*
X015418Y033674D01*
X015409Y033607D01*
X015418Y03354D01*
X015444Y033477D01*
X015485Y033424D01*
X015539Y033382D01*
X015601Y033357D01*
X015668Y033348D01*
X015736Y033357D01*
X015798Y033382D01*
X015852Y033424D01*
X015893Y033477D01*
X015919Y03354D01*
X015928Y033607D01*
X015919Y033674D01*
X015893Y033736D01*
X015852Y03379D01*
X015798Y033831D01*
X015736Y033857D01*
X015668Y033866D01*
D02*
G37*
G36*
X032494Y035292D02*
X032424Y035278D01*
X032365Y035238D01*
X032326Y03518D01*
X032312Y03511D01*
X032326Y035041D01*
X032365Y034982D01*
X032424Y034942D01*
X032494Y034928D01*
X032563Y034942D01*
X032622Y034982D01*
X032661Y035041D01*
X032675Y03511D01*
X032661Y03518D01*
X032622Y035238D01*
X032563Y035278D01*
X032494Y035292D01*
D02*
G37*
G36*
X031994D02*
X031924Y035278D01*
X031865Y035238D01*
X031826Y03518D01*
X031812Y03511D01*
X031826Y035041D01*
X031865Y034982D01*
X031924Y034942D01*
X031994Y034928D01*
X032063Y034942D01*
X032122Y034982D01*
X032161Y035041D01*
X032175Y03511D01*
X032161Y03518D01*
X032122Y035238D01*
X032063Y035278D01*
X031994Y035292D01*
D02*
G37*
G36*
X027839Y035096D02*
X027769Y035082D01*
X027711Y035043D01*
X027671Y034984D01*
X027657Y034915D01*
X027671Y034845D01*
X027711Y034786D01*
X027769Y034747D01*
X027839Y034733D01*
X027908Y034747D01*
X027967Y034786D01*
X028007Y034845D01*
X028021Y034915D01*
X028007Y034984D01*
X027967Y035043D01*
X027908Y035082D01*
X027839Y035096D01*
D02*
G37*
G36*
X015668Y035566D02*
X015601Y035557D01*
X015539Y035531D01*
X015485Y03549D01*
X015444Y035436D01*
X015418Y035374D01*
X015409Y035307D01*
X015418Y03524D01*
X015444Y035177D01*
X015485Y035124D01*
X015539Y035082D01*
X015601Y035057D01*
X015668Y035048D01*
X015736Y035057D01*
X015798Y035082D01*
X015852Y035124D01*
X015893Y035177D01*
X015919Y03524D01*
X015928Y035307D01*
X015919Y035374D01*
X015893Y035436D01*
X015852Y03549D01*
X015798Y035531D01*
X015736Y035557D01*
X015668Y035566D01*
D02*
G37*
G36*
X033494Y035292D02*
X033424Y035278D01*
X033365Y035238D01*
X033326Y03518D01*
X033312Y03511D01*
X033326Y035041D01*
X033365Y034982D01*
X033424Y034942D01*
X033494Y034928D01*
X033563Y034942D01*
X033622Y034982D01*
X033661Y035041D01*
X033675Y03511D01*
X033661Y03518D01*
X033622Y035238D01*
X033563Y035278D01*
X033494Y035292D01*
D02*
G37*
G36*
X032994D02*
X032924Y035278D01*
X032865Y035238D01*
X032826Y03518D01*
X032812Y03511D01*
X032826Y035041D01*
X032865Y034982D01*
X032924Y034942D01*
X032994Y034928D01*
X033063Y034942D01*
X033122Y034982D01*
X033161Y035041D01*
X033175Y03511D01*
X033161Y03518D01*
X033122Y035238D01*
X033063Y035278D01*
X032994Y035292D01*
D02*
G37*
G36*
X019368Y034666D02*
X019301Y034657D01*
X019239Y034631D01*
X019185Y03459D01*
X019144Y034536D01*
X019118Y034474D01*
X019109Y034407D01*
X019118Y03434D01*
X019144Y034277D01*
X019185Y034224D01*
X019239Y034182D01*
X019301Y034157D01*
X019368Y034148D01*
X019436Y034157D01*
X019498Y034182D01*
X019552Y034224D01*
X019593Y034277D01*
X019619Y03434D01*
X019628Y034407D01*
X019619Y034474D01*
X019593Y034536D01*
X019552Y03459D01*
X019498Y034631D01*
X019436Y034657D01*
X019368Y034666D01*
D02*
G37*
G36*
X022269Y033788D02*
X022199Y033775D01*
X02214Y033735D01*
X022101Y033676D01*
X022087Y033607D01*
X022101Y033537D01*
X02214Y033478D01*
X022199Y033439D01*
X022269Y033425D01*
X022338Y033439D01*
X022397Y033478D01*
X022436Y033537D01*
X02245Y033607D01*
X022436Y033676D01*
X022397Y033735D01*
X022338Y033775D01*
X022269Y033788D01*
D02*
G37*
G36*
X021268D02*
X021199Y033775D01*
X02114Y033735D01*
X021101Y033676D01*
X021087Y033607D01*
X021101Y033537D01*
X02114Y033478D01*
X021199Y033439D01*
X021268Y033425D01*
X021338Y033439D01*
X021397Y033478D01*
X021436Y033537D01*
X02145Y033607D01*
X021436Y033676D01*
X021397Y033735D01*
X021338Y033775D01*
X021268Y033788D01*
D02*
G37*
G36*
X028844Y034992D02*
X028774Y034978D01*
X028715Y034938D01*
X028676Y03488D01*
X028662Y03481D01*
X028676Y034741D01*
X028715Y034682D01*
X028774Y034642D01*
X028844Y034628D01*
X028913Y034642D01*
X028972Y034682D01*
X029011Y034741D01*
X029025Y03481D01*
X029011Y03488D01*
X028972Y034938D01*
X028913Y034978D01*
X028844Y034992D01*
D02*
G37*
G36*
X021268Y034888D02*
X021199Y034875D01*
X02114Y034835D01*
X021101Y034776D01*
X021087Y034707D01*
X021101Y034637D01*
X02114Y034578D01*
X021199Y034539D01*
X021268Y034525D01*
X021338Y034539D01*
X021397Y034578D01*
X021436Y034637D01*
X02145Y034707D01*
X021436Y034776D01*
X021397Y034835D01*
X021338Y034875D01*
X021268Y034888D01*
D02*
G37*
G36*
X022269Y034788D02*
X022199Y034775D01*
X02214Y034735D01*
X022101Y034676D01*
X022087Y034607D01*
X022101Y034537D01*
X02214Y034478D01*
X022199Y034439D01*
X022269Y034425D01*
X022338Y034439D01*
X022397Y034478D01*
X022436Y034537D01*
X02245Y034607D01*
X022436Y034676D01*
X022397Y034735D01*
X022338Y034775D01*
X022269Y034788D01*
D02*
G37*
G36*
X0299Y030032D02*
X029831Y030018D01*
X029772Y029978D01*
X029732Y02992D01*
X029718Y02985D01*
X029732Y02978D01*
X029772Y029722D01*
X029831Y029682D01*
X0299Y029668D01*
X029969Y029682D01*
X030028Y029722D01*
X030068Y02978D01*
X030082Y02985D01*
X030068Y02992D01*
X030028Y029978D01*
X029969Y030018D01*
X0299Y030032D01*
D02*
G37*
G36*
X0291D02*
X02903Y030018D01*
X028972Y029978D01*
X028932Y02992D01*
X028918Y02985D01*
X028932Y02978D01*
X028972Y029722D01*
X02903Y029682D01*
X0291Y029668D01*
X029169Y029682D01*
X029228Y029722D01*
X029268Y02978D01*
X029282Y02985D01*
X029268Y02992D01*
X029228Y029978D01*
X029169Y030018D01*
X0291Y030032D01*
D02*
G37*
G36*
X02835D02*
X02828Y030018D01*
X028222Y029978D01*
X028182Y02992D01*
X028168Y02985D01*
X028182Y02978D01*
X028222Y029722D01*
X02828Y029682D01*
X02835Y029668D01*
X028419Y029682D01*
X028478Y029722D01*
X028518Y02978D01*
X028532Y02985D01*
X028518Y02992D01*
X028478Y029978D01*
X028419Y030018D01*
X02835Y030032D01*
D02*
G37*
G36*
X015668Y030466D02*
X015601Y030457D01*
X015539Y030431D01*
X015485Y03039D01*
X015444Y030336D01*
X015418Y030274D01*
X015409Y030207D01*
X015418Y03014D01*
X015444Y030077D01*
X015485Y030024D01*
X015539Y029982D01*
X015601Y029957D01*
X015668Y029948D01*
X015736Y029957D01*
X015798Y029982D01*
X015852Y030024D01*
X015893Y030077D01*
X015919Y03014D01*
X015928Y030207D01*
X015919Y030274D01*
X015893Y030336D01*
X015852Y03039D01*
X015798Y030431D01*
X015736Y030457D01*
X015668Y030466D01*
D02*
G37*
G36*
X0315Y030032D02*
X03143Y030018D01*
X031372Y029978D01*
X031332Y02992D01*
X031318Y02985D01*
X031332Y02978D01*
X031372Y029722D01*
X03143Y029682D01*
X0315Y029668D01*
X031569Y029682D01*
X031628Y029722D01*
X031668Y02978D01*
X031682Y02985D01*
X031668Y02992D01*
X031628Y029978D01*
X031569Y030018D01*
X0315Y030032D01*
D02*
G37*
G36*
X0307D02*
X030631Y030018D01*
X030572Y029978D01*
X030532Y02992D01*
X030518Y02985D01*
X030532Y02978D01*
X030572Y029722D01*
X030631Y029682D01*
X0307Y029668D01*
X03077Y029682D01*
X030828Y029722D01*
X030868Y02978D01*
X030882Y02985D01*
X030868Y02992D01*
X030828Y029978D01*
X03077Y030018D01*
X0307Y030032D01*
D02*
G37*
G36*
X015668Y028766D02*
X015601Y028757D01*
X015539Y028731D01*
X015485Y02869D01*
X015444Y028636D01*
X015418Y028574D01*
X015409Y028507D01*
X015418Y02844D01*
X015444Y028377D01*
X015485Y028324D01*
X015539Y028282D01*
X015601Y028257D01*
X015668Y028248D01*
X015736Y028257D01*
X015798Y028282D01*
X015852Y028324D01*
X015893Y028377D01*
X015919Y02844D01*
X015928Y028507D01*
X015919Y028574D01*
X015893Y028636D01*
X015852Y02869D01*
X015798Y028731D01*
X015736Y028757D01*
X015668Y028766D01*
D02*
G37*
G36*
X045449Y028579D02*
X045333Y028567D01*
X045221Y028533D01*
X045119Y028478D01*
X045029Y028405D01*
X044955Y028314D01*
X0449Y028212D01*
X044866Y0281D01*
X044854Y027984D01*
X044866Y027868D01*
X0449Y027757D01*
X044955Y027654D01*
X045029Y027564D01*
X045119Y02749D01*
X045221Y027435D01*
X045333Y027401D01*
X045449Y02739D01*
X045565Y027401D01*
X045676Y027435D01*
X045779Y02749D01*
X045869Y027564D01*
X045943Y027654D01*
X045998Y027757D01*
X046032Y027868D01*
X046043Y027984D01*
X046032Y0281D01*
X045998Y028212D01*
X045943Y028314D01*
X045869Y028405D01*
X045779Y028478D01*
X045676Y028533D01*
X045565Y028567D01*
X045449Y028579D01*
D02*
G37*
G36*
X011984D02*
X011868Y028567D01*
X011757Y028533D01*
X011654Y028478D01*
X011564Y028405D01*
X01149Y028314D01*
X011435Y028212D01*
X011401Y0281D01*
X01139Y027984D01*
X011401Y027868D01*
X011435Y027757D01*
X01149Y027654D01*
X011564Y027564D01*
X011654Y02749D01*
X011757Y027435D01*
X011868Y027401D01*
X011984Y02739D01*
X0121Y027401D01*
X012212Y027435D01*
X012314Y02749D01*
X012405Y027564D01*
X012478Y027654D01*
X012533Y027757D01*
X012567Y027868D01*
X012579Y027984D01*
X012567Y0281D01*
X012533Y028212D01*
X012478Y028314D01*
X012405Y028405D01*
X012314Y028478D01*
X012212Y028533D01*
X0121Y028567D01*
X011984Y028579D01*
D02*
G37*
G36*
X02755Y030032D02*
X02748Y030018D01*
X027422Y029978D01*
X027382Y02992D01*
X027368Y02985D01*
X027382Y02978D01*
X027422Y029722D01*
X02748Y029682D01*
X02755Y029668D01*
X02762Y029682D01*
X027678Y029722D01*
X027718Y02978D01*
X027732Y02985D01*
X027718Y02992D01*
X027678Y029978D01*
X02762Y030018D01*
X02755Y030032D01*
D02*
G37*
G36*
X018168Y029866D02*
X018101Y029857D01*
X018039Y029831D01*
X017985Y02979D01*
X017944Y029736D01*
X017918Y029674D01*
X017909Y029607D01*
X017918Y02954D01*
X017944Y029477D01*
X017985Y029424D01*
X018039Y029382D01*
X018101Y029357D01*
X018168Y029348D01*
X018236Y029357D01*
X018298Y029382D01*
X018352Y029424D01*
X018393Y029477D01*
X018419Y02954D01*
X018428Y029607D01*
X018419Y029674D01*
X018393Y029736D01*
X018352Y02979D01*
X018298Y029831D01*
X018236Y029857D01*
X018168Y029866D01*
D02*
G37*
G36*
X022269Y029388D02*
X022199Y029375D01*
X02214Y029335D01*
X022101Y029276D01*
X022087Y029207D01*
X022101Y029137D01*
X02214Y029078D01*
X022199Y029039D01*
X022269Y029025D01*
X022338Y029039D01*
X022397Y029078D01*
X022436Y029137D01*
X02245Y029207D01*
X022436Y029276D01*
X022397Y029335D01*
X022338Y029375D01*
X022269Y029388D01*
D02*
G37*
G36*
X021268Y030488D02*
X021199Y030475D01*
X02114Y030435D01*
X021101Y030376D01*
X021087Y030307D01*
X021101Y030237D01*
X02114Y030178D01*
X021199Y030139D01*
X021268Y030125D01*
X021338Y030139D01*
X021397Y030178D01*
X021436Y030237D01*
X02145Y030307D01*
X021436Y030376D01*
X021397Y030435D01*
X021338Y030475D01*
X021268Y030488D01*
D02*
G37*
G36*
X04095Y031432D02*
X04088Y031418D01*
X040822Y031378D01*
X040782Y031319D01*
X040768Y03125D01*
X040782Y031181D01*
X040822Y031122D01*
X04088Y031082D01*
X04095Y031068D01*
X041019Y031082D01*
X041078Y031122D01*
X041118Y031181D01*
X041132Y03125D01*
X041118Y031319D01*
X041078Y031378D01*
X041019Y031418D01*
X04095Y031432D01*
D02*
G37*
G36*
X04015D02*
X04008Y031418D01*
X040022Y031378D01*
X039982Y031319D01*
X039968Y03125D01*
X039982Y031181D01*
X040022Y031122D01*
X04008Y031082D01*
X04015Y031068D01*
X040219Y031082D01*
X040278Y031122D01*
X040318Y031181D01*
X040332Y03125D01*
X040318Y031319D01*
X040278Y031378D01*
X040219Y031418D01*
X04015Y031432D01*
D02*
G37*
G36*
X03935D02*
X039281Y031418D01*
X039222Y031378D01*
X039182Y031319D01*
X039168Y03125D01*
X039182Y031181D01*
X039222Y031122D01*
X039281Y031082D01*
X03935Y031068D01*
X03942Y031082D01*
X039478Y031122D01*
X039518Y031181D01*
X039532Y03125D01*
X039518Y031319D01*
X039478Y031378D01*
X03942Y031418D01*
X03935Y031432D01*
D02*
G37*
G36*
X022269Y031588D02*
X022199Y031575D01*
X02214Y031535D01*
X022101Y031476D01*
X022087Y031407D01*
X022101Y031337D01*
X02214Y031278D01*
X022199Y031239D01*
X022269Y031225D01*
X022338Y031239D01*
X022397Y031278D01*
X022436Y031337D01*
X02245Y031407D01*
X022436Y031476D01*
X022397Y031535D01*
X022338Y031575D01*
X022269Y031588D01*
D02*
G37*
G36*
X021268D02*
X021199Y031575D01*
X02114Y031535D01*
X021101Y031476D01*
X021087Y031407D01*
X021101Y031337D01*
X02114Y031278D01*
X021199Y031239D01*
X021268Y031225D01*
X021338Y031239D01*
X021397Y031278D01*
X021436Y031337D01*
X02145Y031407D01*
X021436Y031476D01*
X021397Y031535D01*
X021338Y031575D01*
X021268Y031588D01*
D02*
G37*
G36*
X019368Y031716D02*
X019301Y031707D01*
X019239Y031681D01*
X019185Y03164D01*
X019144Y031586D01*
X019118Y031524D01*
X019109Y031457D01*
X019118Y03139D01*
X019144Y031327D01*
X019185Y031274D01*
X019239Y031232D01*
X019301Y031207D01*
X019368Y031198D01*
X019436Y031207D01*
X019498Y031232D01*
X019552Y031274D01*
X019593Y031327D01*
X019619Y03139D01*
X019628Y031457D01*
X019619Y031524D01*
X019593Y031586D01*
X019552Y03164D01*
X019498Y031681D01*
X019436Y031707D01*
X019368Y031716D01*
D02*
G37*
G36*
X0357Y030735D02*
X035631Y030721D01*
X035572Y030682D01*
X035533Y030623D01*
X035519Y030553D01*
X035533Y030484D01*
X035572Y030425D01*
X035631Y030386D01*
X0357Y030372D01*
X03577Y030386D01*
X035829Y030425D01*
X035868Y030484D01*
X035882Y030553D01*
X035868Y030623D01*
X035829Y030682D01*
X03577Y030721D01*
X0357Y030735D01*
D02*
G37*
G36*
X019368Y030766D02*
X019301Y030757D01*
X019239Y030731D01*
X019185Y03069D01*
X019144Y030636D01*
X019118Y030574D01*
X019109Y030507D01*
X019118Y03044D01*
X019144Y030377D01*
X019185Y030324D01*
X019239Y030282D01*
X019301Y030257D01*
X019368Y030248D01*
X019436Y030257D01*
X019498Y030282D01*
X019552Y030324D01*
X019593Y030377D01*
X019619Y03044D01*
X019628Y030507D01*
X019619Y030574D01*
X019593Y030636D01*
X019552Y03069D01*
X019498Y030731D01*
X019436Y030757D01*
X019368Y030766D01*
D02*
G37*
G36*
X022269Y030488D02*
X022199Y030475D01*
X02214Y030435D01*
X022101Y030376D01*
X022087Y030307D01*
X022101Y030237D01*
X02214Y030178D01*
X022199Y030139D01*
X022269Y030125D01*
X022338Y030139D01*
X022397Y030178D01*
X022436Y030237D01*
X02245Y030307D01*
X022436Y030376D01*
X022397Y030435D01*
X022338Y030475D01*
X022269Y030488D01*
D02*
G37*
G36*
X03855Y031432D02*
X038481Y031418D01*
X038422Y031378D01*
X038382Y031319D01*
X038368Y03125D01*
X038382Y031181D01*
X038422Y031122D01*
X038481Y031082D01*
X03855Y031068D01*
X038619Y031082D01*
X038678Y031122D01*
X038718Y031181D01*
X038732Y03125D01*
X038718Y031319D01*
X038678Y031378D01*
X038619Y031418D01*
X03855Y031432D01*
D02*
G37*
G36*
X0378D02*
X037731Y031418D01*
X037672Y031378D01*
X037632Y031319D01*
X037618Y03125D01*
X037632Y031181D01*
X037672Y031122D01*
X037731Y031082D01*
X0378Y031068D01*
X03787Y031082D01*
X037928Y031122D01*
X037968Y031181D01*
X037982Y03125D01*
X037968Y031319D01*
X037928Y031378D01*
X03787Y031418D01*
X0378Y031432D01*
D02*
G37*
G36*
X026748Y031387D02*
X026679Y031373D01*
X02662Y031334D01*
X02658Y031275D01*
X026566Y031206D01*
X02658Y031136D01*
X02662Y031077D01*
X026679Y031038D01*
X026748Y031024D01*
X026818Y031038D01*
X026876Y031077D01*
X026916Y031136D01*
X02693Y031206D01*
X026916Y031275D01*
X026876Y031334D01*
X026818Y031373D01*
X026748Y031387D01*
D02*
G37*
G36*
X019368Y035616D02*
X019301Y035607D01*
X019239Y035581D01*
X019185Y03554D01*
X019144Y035486D01*
X019118Y035424D01*
X019109Y035357D01*
X019118Y03529D01*
X019144Y035227D01*
X019185Y035174D01*
X019239Y035132D01*
X019301Y035107D01*
X019368Y035098D01*
X019436Y035107D01*
X019498Y035132D01*
X019552Y035174D01*
X019593Y035227D01*
X019619Y03529D01*
X019628Y035357D01*
X019619Y035424D01*
X019593Y035486D01*
X019552Y03554D01*
X019498Y035581D01*
X019436Y035607D01*
X019368Y035616D01*
D02*
G37*
G36*
X01937Y04272D02*
X019257Y042705D01*
X019152Y042661D01*
X019061Y042592D01*
X018992Y042501D01*
X018948Y042396D01*
X018933Y042283D01*
X018948Y04217D01*
X018992Y042064D01*
X019061Y041974D01*
X019152Y041905D01*
X019257Y041861D01*
X01937Y041846D01*
X019483Y041861D01*
X019588Y041905D01*
X019679Y041974D01*
X019748Y042064D01*
X019792Y04217D01*
X019807Y042283D01*
X019792Y042396D01*
X019748Y042501D01*
X019679Y042592D01*
X019588Y042661D01*
X019483Y042705D01*
X01937Y04272D01*
D02*
G37*
G36*
X015668Y042544D02*
X015555Y042529D01*
X01545Y042485D01*
X01536Y042416D01*
X01529Y042325D01*
X015247Y04222D01*
X015232Y042107D01*
X015247Y041994D01*
X01529Y041888D01*
X01536Y041798D01*
X01545Y041729D01*
X015555Y041685D01*
X015668Y04167D01*
X015782Y041685D01*
X015887Y041729D01*
X015977Y041798D01*
X016047Y041888D01*
X01609Y041994D01*
X016105Y042107D01*
X01609Y04222D01*
X016047Y042325D01*
X015977Y042416D01*
X015887Y042485D01*
X015782Y042529D01*
X015668Y042544D01*
D02*
G37*
G36*
X022269Y041714D02*
X022176Y041702D01*
X02209Y041666D01*
X022016Y04161D01*
X021959Y041536D01*
X021923Y041449D01*
X021911Y041357D01*
X021923Y041264D01*
X021959Y041178D01*
X022016Y041104D01*
X02209Y041047D01*
X022176Y041012D01*
X022269Y040999D01*
X022361Y041012D01*
X022447Y041047D01*
X022521Y041104D01*
X022578Y041178D01*
X022614Y041264D01*
X022626Y041357D01*
X022614Y041449D01*
X022578Y041536D01*
X022521Y04161D01*
X022447Y041666D01*
X022361Y041702D01*
X022269Y041714D01*
D02*
G37*
G36*
X01937Y043669D02*
X019257Y043654D01*
X019152Y04361D01*
X019061Y043541D01*
X018992Y04345D01*
X018948Y043345D01*
X018933Y043232D01*
X018948Y043119D01*
X018992Y043014D01*
X019061Y042923D01*
X019152Y042854D01*
X019257Y04281D01*
X01937Y042795D01*
X019483Y04281D01*
X019589Y042854D01*
X019679Y042923D01*
X019749Y043014D01*
X019792Y043119D01*
X019807Y043232D01*
X019792Y043345D01*
X019749Y04345D01*
X019679Y043541D01*
X019589Y04361D01*
X019483Y043654D01*
X01937Y043669D01*
D02*
G37*
G36*
X022269Y042814D02*
X022176Y042802D01*
X02209Y042766D01*
X022016Y04271D01*
X021959Y042636D01*
X021923Y042549D01*
X021911Y042457D01*
X021923Y042364D01*
X021959Y042278D01*
X022016Y042204D01*
X02209Y042147D01*
X022176Y042112D01*
X022269Y042099D01*
X022361Y042112D01*
X022447Y042147D01*
X022521Y042204D01*
X022578Y042278D01*
X022614Y042364D01*
X022626Y042457D01*
X022614Y042549D01*
X022578Y042636D01*
X022521Y04271D01*
X022447Y042766D01*
X022361Y042802D01*
X022269Y042814D01*
D02*
G37*
G36*
X021268D02*
X021176Y042802D01*
X02109Y042766D01*
X021016Y04271D01*
X020959Y042636D01*
X020923Y042549D01*
X020911Y042457D01*
X020923Y042364D01*
X020959Y042278D01*
X021016Y042204D01*
X02109Y042147D01*
X021176Y042112D01*
X021268Y042099D01*
X021361Y042112D01*
X021447Y042147D01*
X021521Y042204D01*
X021578Y042278D01*
X021614Y042364D01*
X021626Y042457D01*
X021614Y042549D01*
X021578Y042636D01*
X021521Y04271D01*
X021447Y042766D01*
X021361Y042802D01*
X021268Y042814D01*
D02*
G37*
G36*
X0337Y041092D02*
X03363Y041078D01*
X033572Y041038D01*
X033532Y040979D01*
X033518Y04091D01*
X033532Y040841D01*
X033572Y040782D01*
X03363Y040742D01*
X0337Y040728D01*
X03377Y040742D01*
X033828Y040782D01*
X033868Y040841D01*
X033882Y04091D01*
X033868Y040979D01*
X033828Y041038D01*
X03377Y041078D01*
X0337Y041092D01*
D02*
G37*
G36*
Y040692D02*
X03363Y040678D01*
X033572Y040638D01*
X033532Y04058D01*
X033518Y04051D01*
X033532Y040441D01*
X033572Y040382D01*
X03363Y040342D01*
X0337Y040328D01*
X03377Y040342D01*
X033828Y040382D01*
X033868Y040441D01*
X033882Y04051D01*
X033868Y04058D01*
X033828Y040638D01*
X03377Y040678D01*
X0337Y040692D01*
D02*
G37*
G36*
X021268Y040438D02*
X021199Y040425D01*
X02114Y040385D01*
X021101Y040326D01*
X021087Y040257D01*
X021101Y040187D01*
X02114Y040128D01*
X021199Y040089D01*
X021268Y040075D01*
X021338Y040089D01*
X021397Y040128D01*
X021436Y040187D01*
X02145Y040257D01*
X021436Y040326D01*
X021397Y040385D01*
X021338Y040425D01*
X021268Y040438D01*
D02*
G37*
G36*
Y041714D02*
X021176Y041702D01*
X02109Y041666D01*
X021016Y04161D01*
X020959Y041536D01*
X020923Y041449D01*
X020911Y041357D01*
X020923Y041264D01*
X020959Y041178D01*
X021016Y041104D01*
X02109Y041047D01*
X021176Y041012D01*
X021268Y040999D01*
X021361Y041012D01*
X021447Y041047D01*
X021521Y041104D01*
X021578Y041178D01*
X021614Y041264D01*
X021626Y041357D01*
X021614Y041449D01*
X021578Y041536D01*
X021521Y04161D01*
X021447Y041666D01*
X021361Y041702D01*
X021268Y041714D01*
D02*
G37*
G36*
X01937Y041732D02*
X019257Y041717D01*
X019152Y041674D01*
X019061Y041604D01*
X018992Y041514D01*
X018948Y041408D01*
X018933Y041295D01*
X018948Y041182D01*
X018992Y041077D01*
X019061Y040987D01*
X019152Y040917D01*
X019257Y040874D01*
X01937Y040859D01*
X019483Y040874D01*
X019588Y040917D01*
X019679Y040987D01*
X019748Y041077D01*
X019792Y041182D01*
X019807Y041295D01*
X019792Y041408D01*
X019748Y041514D01*
X019679Y041604D01*
X019588Y041674D01*
X019483Y041717D01*
X01937Y041732D01*
D02*
G37*
G36*
X026268Y041118D02*
X026199Y041105D01*
X02614Y041065D01*
X026101Y041006D01*
X026087Y040937D01*
X026101Y040867D01*
X02614Y040808D01*
X026199Y040769D01*
X026268Y040755D01*
X026338Y040769D01*
X026397Y040808D01*
X026436Y040867D01*
X02645Y040937D01*
X026436Y041006D01*
X026397Y041065D01*
X026338Y041105D01*
X026268Y041118D01*
D02*
G37*
G36*
X021268Y043914D02*
X021176Y043902D01*
X02109Y043866D01*
X021016Y04381D01*
X020959Y043736D01*
X020923Y043649D01*
X020911Y043557D01*
X020923Y043464D01*
X020959Y043378D01*
X021016Y043304D01*
X02109Y043247D01*
X021176Y043212D01*
X021268Y043199D01*
X021361Y043212D01*
X021447Y043247D01*
X021521Y043304D01*
X021578Y043378D01*
X021614Y043464D01*
X021626Y043557D01*
X021614Y043649D01*
X021578Y043736D01*
X021521Y04381D01*
X021447Y043866D01*
X021361Y043902D01*
X021268Y043914D01*
D02*
G37*
G36*
X011984Y046295D02*
X011868Y046284D01*
X011757Y04625D01*
X011654Y046195D01*
X011564Y046121D01*
X01149Y046031D01*
X011435Y045928D01*
X011401Y045817D01*
X01139Y045701D01*
X011401Y045585D01*
X011435Y045473D01*
X01149Y045371D01*
X011564Y045281D01*
X011654Y045207D01*
X011757Y045152D01*
X011868Y045118D01*
X011984Y045106D01*
X0121Y045118D01*
X012212Y045152D01*
X012314Y045207D01*
X012405Y045281D01*
X012478Y045371D01*
X012533Y045473D01*
X012567Y045585D01*
X012579Y045701D01*
X012567Y045817D01*
X012533Y045928D01*
X012478Y046031D01*
X012405Y046121D01*
X012314Y046195D01*
X012212Y04625D01*
X0121Y046284D01*
X011984Y046295D01*
D02*
G37*
G36*
X015668Y045944D02*
X015555Y045929D01*
X01545Y045885D01*
X01536Y045816D01*
X01529Y045725D01*
X015247Y04562D01*
X015232Y045507D01*
X015247Y045394D01*
X01529Y045288D01*
X01536Y045198D01*
X01545Y045129D01*
X015555Y045085D01*
X015668Y04507D01*
X015782Y045085D01*
X015887Y045129D01*
X015977Y045198D01*
X016047Y045288D01*
X01609Y045394D01*
X016105Y045507D01*
X01609Y04562D01*
X016047Y045725D01*
X015977Y045816D01*
X015887Y045885D01*
X015782Y045929D01*
X015668Y045944D01*
D02*
G37*
G36*
X01937Y045644D02*
X019257Y045629D01*
X019152Y045585D01*
X019061Y045516D01*
X018992Y045425D01*
X018948Y04532D01*
X018933Y045207D01*
X018948Y045094D01*
X018992Y044988D01*
X019061Y044898D01*
X019152Y044829D01*
X019257Y044785D01*
X01937Y04477D01*
X019483Y044785D01*
X019589Y044829D01*
X019679Y044898D01*
X019749Y044988D01*
X019792Y045094D01*
X019807Y045207D01*
X019792Y04532D01*
X019749Y045425D01*
X019679Y045516D01*
X019589Y045585D01*
X019483Y045629D01*
X01937Y045644D01*
D02*
G37*
G36*
X021268Y046114D02*
X021176Y046102D01*
X02109Y046066D01*
X021016Y04601D01*
X020959Y045936D01*
X020923Y045849D01*
X020911Y045757D01*
X020923Y045664D01*
X020959Y045578D01*
X021016Y045504D01*
X02109Y045447D01*
X021176Y045412D01*
X021268Y045399D01*
X021361Y045412D01*
X021447Y045447D01*
X021521Y045504D01*
X021578Y045578D01*
X021614Y045664D01*
X021626Y045757D01*
X021614Y045849D01*
X021578Y045936D01*
X021521Y04601D01*
X021447Y046066D01*
X021361Y046102D01*
X021268Y046114D01*
D02*
G37*
G36*
X045449Y046295D02*
X045333Y046284D01*
X045221Y04625D01*
X045119Y046195D01*
X045029Y046121D01*
X044955Y046031D01*
X0449Y045928D01*
X044866Y045817D01*
X044854Y045701D01*
X044866Y045585D01*
X0449Y045473D01*
X044955Y045371D01*
X045029Y045281D01*
X045119Y045207D01*
X045221Y045152D01*
X045333Y045118D01*
X045449Y045106D01*
X045565Y045118D01*
X045676Y045152D01*
X045779Y045207D01*
X045869Y045281D01*
X045943Y045371D01*
X045998Y045473D01*
X046032Y045585D01*
X046043Y045701D01*
X046032Y045817D01*
X045998Y045928D01*
X045943Y046031D01*
X045869Y046121D01*
X045779Y046195D01*
X045676Y04625D01*
X045565Y046284D01*
X045449Y046295D01*
D02*
G37*
G36*
X028717D02*
X028601Y046284D01*
X028489Y04625D01*
X028386Y046195D01*
X028296Y046121D01*
X028222Y046031D01*
X028167Y045928D01*
X028134Y045817D01*
X028122Y045701D01*
X028134Y045585D01*
X028167Y045473D01*
X028222Y045371D01*
X028296Y045281D01*
X028386Y045207D01*
X028489Y045152D01*
X028601Y045118D01*
X028717Y045106D01*
X028832Y045118D01*
X028944Y045152D01*
X029047Y045207D01*
X029137Y045281D01*
X029211Y045371D01*
X029266Y045473D01*
X029299Y045585D01*
X029311Y045701D01*
X029299Y045817D01*
X029266Y045928D01*
X029211Y046031D01*
X029137Y046121D01*
X029047Y046195D01*
X028944Y04625D01*
X028832Y046284D01*
X028717Y046295D01*
D02*
G37*
G36*
X01937Y044656D02*
X019257Y044641D01*
X019152Y044598D01*
X019061Y044528D01*
X018992Y044438D01*
X018948Y044332D01*
X018933Y044219D01*
X018948Y044106D01*
X018992Y044001D01*
X019061Y043911D01*
X019152Y043841D01*
X019257Y043798D01*
X01937Y043783D01*
X019483Y043798D01*
X019589Y043841D01*
X019679Y043911D01*
X019749Y044001D01*
X019792Y044106D01*
X019807Y044219D01*
X019792Y044332D01*
X019749Y044438D01*
X019679Y044528D01*
X019589Y044598D01*
X019483Y044641D01*
X01937Y044656D01*
D02*
G37*
G36*
X015668Y044244D02*
X015555Y044229D01*
X01545Y044185D01*
X01536Y044116D01*
X01529Y044025D01*
X015247Y04392D01*
X015232Y043807D01*
X015247Y043694D01*
X01529Y043588D01*
X01536Y043498D01*
X01545Y043429D01*
X015555Y043385D01*
X015668Y04337D01*
X015782Y043385D01*
X015887Y043429D01*
X015977Y043498D01*
X016047Y043588D01*
X01609Y043694D01*
X016105Y043807D01*
X01609Y04392D01*
X016047Y044025D01*
X015977Y044116D01*
X015887Y044185D01*
X015782Y044229D01*
X015668Y044244D01*
D02*
G37*
G36*
X022269Y043914D02*
X022176Y043902D01*
X02209Y043866D01*
X022016Y04381D01*
X021959Y043736D01*
X021923Y043649D01*
X021911Y043557D01*
X021923Y043464D01*
X021959Y043378D01*
X022016Y043304D01*
X02209Y043247D01*
X022176Y043212D01*
X022269Y043199D01*
X022361Y043212D01*
X022447Y043247D01*
X022521Y043304D01*
X022578Y043378D01*
X022614Y043464D01*
X022626Y043557D01*
X022614Y043649D01*
X022578Y043736D01*
X022521Y04381D01*
X022447Y043866D01*
X022361Y043902D01*
X022269Y043914D01*
D02*
G37*
G36*
Y045014D02*
X022176Y045002D01*
X02209Y044966D01*
X022016Y04491D01*
X021959Y044836D01*
X021923Y044749D01*
X021911Y044657D01*
X021923Y044564D01*
X021959Y044478D01*
X022016Y044404D01*
X02209Y044347D01*
X022176Y044312D01*
X022269Y044299D01*
X022361Y044312D01*
X022447Y044347D01*
X022521Y044404D01*
X022578Y044478D01*
X022614Y044564D01*
X022626Y044657D01*
X022614Y044749D01*
X022578Y044836D01*
X022521Y04491D01*
X022447Y044966D01*
X022361Y045002D01*
X022269Y045014D01*
D02*
G37*
G36*
X021268D02*
X021176Y045002D01*
X02109Y044966D01*
X021016Y04491D01*
X020959Y044836D01*
X020923Y044749D01*
X020911Y044657D01*
X020923Y044564D01*
X020959Y044478D01*
X021016Y044404D01*
X02109Y044347D01*
X021176Y044312D01*
X021268Y044299D01*
X021361Y044312D01*
X021447Y044347D01*
X021521Y044404D01*
X021578Y044478D01*
X021614Y044564D01*
X021626Y044657D01*
X021614Y044749D01*
X021578Y044836D01*
X021521Y04491D01*
X021447Y044966D01*
X021361Y045002D01*
X021268Y045014D01*
D02*
G37*
G36*
X02785Y044713D02*
X027756Y044701D01*
X027668Y044664D01*
X027593Y044607D01*
X027536Y044532D01*
X027499Y044444D01*
X027487Y04435D01*
X027499Y044256D01*
X027536Y044168D01*
X027593Y044093D01*
X027668Y044036D01*
X027756Y043999D01*
X02785Y043987D01*
X027944Y043999D01*
X028032Y044036D01*
X028107Y044093D01*
X028164Y044168D01*
X028201Y044256D01*
X028213Y04435D01*
X028201Y044444D01*
X028164Y044532D01*
X028107Y044607D01*
X028032Y044664D01*
X027944Y044701D01*
X02785Y044713D01*
D02*
G37*
G36*
X01937Y040567D02*
X019303Y040558D01*
X019241Y040532D01*
X019187Y040491D01*
X019146Y040438D01*
X01912Y040375D01*
X019111Y040308D01*
X01912Y040241D01*
X019146Y040178D01*
X019187Y040125D01*
X019241Y040084D01*
X019303Y040058D01*
X01937Y040049D01*
X019437Y040058D01*
X0195Y040084D01*
X019553Y040125D01*
X019594Y040178D01*
X01962Y040241D01*
X019629Y040308D01*
X01962Y040375D01*
X019594Y040438D01*
X019553Y040491D01*
X0195Y040532D01*
X019437Y040558D01*
X01937Y040567D01*
D02*
G37*
G36*
X027784Y037262D02*
X027714Y037248D01*
X027655Y037208D01*
X027616Y03715D01*
X027602Y03708D01*
X027616Y037011D01*
X027628Y036992D01*
X027589Y037018D01*
X02752Y037032D01*
X02745Y037018D01*
X027392Y036978D01*
X027352Y03692D01*
X027338Y03685D01*
X027352Y036781D01*
X027392Y036722D01*
X02745Y036682D01*
X02752Y036668D01*
X027589Y036682D01*
X027628Y036708D01*
X027616Y03669D01*
X027602Y03662D01*
X027616Y036551D01*
X027655Y036492D01*
X027714Y036452D01*
X027784Y036438D01*
X027853Y036452D01*
X027912Y036492D01*
X027951Y036551D01*
X027965Y03662D01*
X027951Y03669D01*
X027912Y036748D01*
X027853Y036788D01*
X027784Y036802D01*
X027714Y036788D01*
X027675Y036762D01*
X027688Y036781D01*
X027702Y03685D01*
X027688Y03692D01*
X027675Y036938D01*
X027714Y036912D01*
X027784Y036898D01*
X027853Y036912D01*
X027912Y036952D01*
X027951Y037011D01*
X027965Y03708D01*
X027951Y03715D01*
X027912Y037208D01*
X027853Y037248D01*
X027784Y037262D01*
D02*
G37*
G36*
X015668Y037166D02*
X015601Y037157D01*
X015539Y037131D01*
X015485Y03709D01*
X015444Y037036D01*
X015418Y036974D01*
X015409Y036907D01*
X015418Y03684D01*
X015444Y036777D01*
X015485Y036724D01*
X015539Y036682D01*
X015601Y036657D01*
X015668Y036648D01*
X015736Y036657D01*
X015798Y036682D01*
X015852Y036724D01*
X015893Y036777D01*
X015919Y03684D01*
X015928Y036907D01*
X015919Y036974D01*
X015893Y037036D01*
X015852Y03709D01*
X015798Y037131D01*
X015736Y037157D01*
X015668Y037166D01*
D02*
G37*
G36*
X027442Y036573D02*
X027372Y03656D01*
X027313Y03652D01*
X027274Y036461D01*
X02726Y036392D01*
X027274Y036322D01*
X027313Y036263D01*
X027372Y036224D01*
X027442Y03621D01*
X027511Y036224D01*
X02757Y036263D01*
X02761Y036322D01*
X027623Y036392D01*
X02761Y036461D01*
X02757Y03652D01*
X027511Y03656D01*
X027442Y036573D01*
D02*
G37*
G36*
X0428Y038863D02*
X042706Y038851D01*
X042618Y038814D01*
X042543Y038757D01*
X042486Y038682D01*
X042449Y038594D01*
X042437Y0385D01*
X042449Y038406D01*
X042486Y038318D01*
X042543Y038243D01*
X042618Y038186D01*
X042706Y038149D01*
X0428Y038137D01*
X042894Y038149D01*
X042982Y038186D01*
X043057Y038243D01*
X043114Y038318D01*
X043151Y038406D01*
X043163Y0385D01*
X043151Y038594D01*
X043114Y038682D01*
X043057Y038757D01*
X042982Y038814D01*
X042894Y038851D01*
X0428Y038863D01*
D02*
G37*
G36*
X038944Y038192D02*
X038874Y038178D01*
X038815Y038138D01*
X038776Y03808D01*
X038762Y03801D01*
X038776Y03794D01*
X038815Y037882D01*
X038874Y037842D01*
X038944Y037828D01*
X039013Y037842D01*
X039072Y037882D01*
X039111Y03794D01*
X039125Y03801D01*
X039111Y03808D01*
X039072Y038138D01*
X039013Y038178D01*
X038944Y038192D01*
D02*
G37*
G36*
X0428Y037863D02*
X042706Y037851D01*
X042618Y037814D01*
X042543Y037757D01*
X042486Y037682D01*
X042449Y037594D01*
X042437Y0375D01*
X042449Y037406D01*
X042486Y037318D01*
X042543Y037243D01*
X042618Y037186D01*
X042706Y037149D01*
X0428Y037137D01*
X042894Y037149D01*
X042982Y037186D01*
X043057Y037243D01*
X043114Y037318D01*
X043151Y037406D01*
X043163Y0375D01*
X043151Y037594D01*
X043114Y037682D01*
X043057Y037757D01*
X042982Y037814D01*
X042894Y037851D01*
X0428Y037863D01*
D02*
G37*
G36*
X027868Y035688D02*
X027799Y035675D01*
X02774Y035635D01*
X027701Y035576D01*
X027687Y035507D01*
X027701Y035437D01*
X02774Y035378D01*
X027799Y035339D01*
X027868Y035325D01*
X027938Y035339D01*
X027997Y035378D01*
X028036Y035437D01*
X02805Y035507D01*
X028036Y035576D01*
X027997Y035635D01*
X027938Y035675D01*
X027868Y035688D01*
D02*
G37*
G36*
X031044Y035542D02*
X030974Y035528D01*
X030915Y035488D01*
X030876Y035429D01*
X030862Y03536D01*
X030876Y035291D01*
X030915Y035232D01*
X030974Y035192D01*
X031044Y035178D01*
X031113Y035192D01*
X031172Y035232D01*
X031211Y035291D01*
X031225Y03536D01*
X031211Y035429D01*
X031172Y035488D01*
X031113Y035528D01*
X031044Y035542D01*
D02*
G37*
G36*
X028944Y035492D02*
X028874Y035478D01*
X028815Y035438D01*
X028776Y03538D01*
X028762Y03531D01*
X028776Y03524D01*
X028815Y035182D01*
X028874Y035142D01*
X028944Y035128D01*
X029013Y035142D01*
X029072Y035182D01*
X029111Y03524D01*
X029125Y03531D01*
X029111Y03538D01*
X029072Y035438D01*
X029013Y035478D01*
X028944Y035492D01*
D02*
G37*
G36*
X0428Y036863D02*
X042706Y036851D01*
X042618Y036814D01*
X042543Y036757D01*
X042486Y036682D01*
X042449Y036594D01*
X042437Y0365D01*
X042449Y036406D01*
X042486Y036318D01*
X042543Y036243D01*
X042618Y036186D01*
X042706Y036149D01*
X0428Y036137D01*
X042894Y036149D01*
X042982Y036186D01*
X043057Y036243D01*
X043114Y036318D01*
X043151Y036406D01*
X043163Y0365D01*
X043151Y036594D01*
X043114Y036682D01*
X043057Y036757D01*
X042982Y036814D01*
X042894Y036851D01*
X0428Y036863D01*
D02*
G37*
G36*
X027444Y036092D02*
X027374Y036078D01*
X027315Y036038D01*
X027276Y035979D01*
X027262Y03591D01*
X027276Y03584D01*
X027315Y035782D01*
X027374Y035742D01*
X027444Y035728D01*
X027513Y035742D01*
X027572Y035782D01*
X027611Y03584D01*
X027625Y03591D01*
X027611Y035979D01*
X027572Y036038D01*
X027513Y036078D01*
X027444Y036092D01*
D02*
G37*
G36*
X021268Y035988D02*
X021199Y035975D01*
X02114Y035935D01*
X021101Y035876D01*
X021087Y035807D01*
X021101Y035737D01*
X02114Y035678D01*
X021199Y035639D01*
X021268Y035625D01*
X021338Y035639D01*
X021397Y035678D01*
X021436Y035737D01*
X02145Y035807D01*
X021436Y035876D01*
X021397Y035935D01*
X021338Y035975D01*
X021268Y035988D01*
D02*
G37*
G36*
X038944Y038642D02*
X038874Y038628D01*
X038815Y038588D01*
X038776Y03853D01*
X038762Y03846D01*
X038776Y038391D01*
X038815Y038332D01*
X038874Y038292D01*
X038944Y038278D01*
X039013Y038292D01*
X039072Y038332D01*
X039111Y038391D01*
X039125Y03846D01*
X039111Y03853D01*
X039072Y038588D01*
X039013Y038628D01*
X038944Y038642D01*
D02*
G37*
G36*
X037874Y040092D02*
X037804Y040078D01*
X037745Y040038D01*
X037706Y03998D01*
X037692Y03991D01*
X037706Y039841D01*
X037745Y039782D01*
X037804Y039742D01*
X037874Y039728D01*
X037943Y039742D01*
X038002Y039782D01*
X038041Y039841D01*
X038055Y03991D01*
X038041Y03998D01*
X038002Y040038D01*
X037943Y040078D01*
X037874Y040092D01*
D02*
G37*
G36*
X035374D02*
X035304Y040078D01*
X035245Y040038D01*
X035206Y03998D01*
X035192Y03991D01*
X035206Y039841D01*
X035245Y039782D01*
X035304Y039742D01*
X035374Y039728D01*
X035443Y039742D01*
X035502Y039782D01*
X035541Y039841D01*
X035555Y03991D01*
X035541Y03998D01*
X035502Y040038D01*
X035443Y040078D01*
X035374Y040092D01*
D02*
G37*
G36*
X0337Y039892D02*
X03363Y039878D01*
X033572Y039838D01*
X033532Y03978D01*
X033518Y03971D01*
X033532Y039641D01*
X033572Y039582D01*
X03363Y039542D01*
X0337Y039528D01*
X03377Y039542D01*
X033828Y039582D01*
X033868Y039641D01*
X033882Y03971D01*
X033868Y03978D01*
X033828Y039838D01*
X03377Y039878D01*
X0337Y039892D01*
D02*
G37*
G36*
X015668Y040844D02*
X015555Y040829D01*
X01545Y040785D01*
X01536Y040716D01*
X01529Y040625D01*
X015247Y04052D01*
X015232Y040407D01*
X015247Y040294D01*
X01529Y040188D01*
X01536Y040098D01*
X01545Y040029D01*
X015555Y039985D01*
X015668Y03997D01*
X015782Y039985D01*
X015887Y040029D01*
X015977Y040098D01*
X016047Y040188D01*
X01609Y040294D01*
X016105Y040407D01*
X01609Y04052D01*
X016047Y040625D01*
X015977Y040716D01*
X015887Y040785D01*
X015782Y040829D01*
X015668Y040844D01*
D02*
G37*
G36*
X0337Y040292D02*
X03363Y040278D01*
X033572Y040238D01*
X033532Y04018D01*
X033518Y04011D01*
X033532Y04004D01*
X033572Y039982D01*
X03363Y039942D01*
X0337Y039928D01*
X03377Y039942D01*
X033828Y039982D01*
X033868Y04004D01*
X033882Y04011D01*
X033868Y04018D01*
X033828Y040238D01*
X03377Y040278D01*
X0337Y040292D01*
D02*
G37*
G36*
X022269Y040614D02*
X022176Y040602D01*
X02209Y040566D01*
X022016Y04051D01*
X021959Y040436D01*
X021923Y040349D01*
X021911Y040257D01*
X021923Y040164D01*
X021959Y040078D01*
X022016Y040004D01*
X02209Y039947D01*
X022176Y039912D01*
X022269Y039899D01*
X022361Y039912D01*
X022447Y039947D01*
X022521Y040004D01*
X022578Y040078D01*
X022614Y040164D01*
X022626Y040257D01*
X022614Y040349D01*
X022578Y040436D01*
X022521Y04051D01*
X022447Y040566D01*
X022361Y040602D01*
X022269Y040614D01*
D02*
G37*
G36*
X039394Y039242D02*
X039324Y039228D01*
X039265Y039188D01*
X039226Y03913D01*
X039212Y03906D01*
X039226Y03899D01*
X039265Y038932D01*
X039324Y038892D01*
X039394Y038878D01*
X039463Y038892D01*
X039522Y038932D01*
X039561Y03899D01*
X039575Y03906D01*
X039561Y03913D01*
X039522Y039188D01*
X039463Y039228D01*
X039394Y039242D01*
D02*
G37*
G36*
X0331Y039092D02*
X033031Y039078D01*
X032972Y039038D01*
X032932Y038979D01*
X032918Y03891D01*
X032932Y03884D01*
X032972Y038782D01*
X033031Y038742D01*
X0331Y038728D01*
X03317Y038742D01*
X033228Y038782D01*
X033268Y03884D01*
X033282Y03891D01*
X033268Y038979D01*
X033228Y039038D01*
X03317Y039078D01*
X0331Y039092D01*
D02*
G37*
G36*
X015668Y038966D02*
X015601Y038957D01*
X015539Y038931D01*
X015485Y03889D01*
X015444Y038836D01*
X015418Y038774D01*
X015409Y038707D01*
X015418Y03864D01*
X015444Y038577D01*
X015485Y038524D01*
X015539Y038482D01*
X015601Y038457D01*
X015668Y038448D01*
X015736Y038457D01*
X015798Y038482D01*
X015852Y038524D01*
X015893Y038577D01*
X015919Y03864D01*
X015928Y038707D01*
X015919Y038774D01*
X015893Y038836D01*
X015852Y03889D01*
X015798Y038931D01*
X015736Y038957D01*
X015668Y038966D01*
D02*
G37*
G36*
X04316Y03986D02*
X04244D01*
Y03914D01*
X04316D01*
Y03986D01*
D02*
G37*
G36*
X0337Y039492D02*
X03363Y039478D01*
X033572Y039438D01*
X033532Y039379D01*
X033518Y03931D01*
X033532Y039241D01*
X033572Y039182D01*
X03363Y039142D01*
X0337Y039128D01*
X03377Y039142D01*
X033828Y039182D01*
X033868Y039241D01*
X033882Y03931D01*
X033868Y039379D01*
X033828Y039438D01*
X03377Y039478D01*
X0337Y039492D01*
D02*
G37*
G36*
X022269Y039338D02*
X022199Y039325D01*
X02214Y039285D01*
X022101Y039226D01*
X022087Y039157D01*
X022101Y039087D01*
X02214Y039028D01*
X022199Y038989D01*
X022269Y038975D01*
X022338Y038989D01*
X022397Y039028D01*
X022436Y039087D01*
X02245Y039157D01*
X022436Y039226D01*
X022397Y039285D01*
X022338Y039325D01*
X022269Y039338D01*
D02*
G37*
%LPD*%
D42*
X02785Y04335D02*
D03*
D45*
X02755Y02835D02*
D03*
X028344D02*
D03*
X0315D02*
D03*
X0307D02*
D03*
X0299D02*
D03*
X0291D02*
D03*
X039494Y03711D02*
D03*
X029727Y03646D02*
D03*
X0315Y03645D02*
D03*
X027694Y03186D02*
D03*
X025616Y031419D02*
D03*
X022968Y028801D02*
D03*
X024317Y030159D02*
D03*
X025006Y030819D02*
D03*
X027112Y031587D02*
D03*
X029Y04006D02*
D03*
X0316Y03486D02*
D03*
X03705Y03826D02*
D03*
X03485Y04001D02*
D03*
X0359D02*
D03*
X0374D02*
D03*
X03835D02*
D03*
X03855Y03846D02*
D03*
X0346Y03826D02*
D03*
X03615D02*
D03*
X0304Y03831D02*
D03*
X02975D02*
D03*
X02915D02*
D03*
X02085Y02881D02*
D03*
X0213Y02846D02*
D03*
X02225Y02731D02*
D03*
X0213D02*
D03*
X0286Y04211D02*
D03*
X02805Y04166D02*
D03*
Y04211D02*
D03*
Y04256D02*
D03*
X0384Y04206D02*
D03*
X03735D02*
D03*
X03585D02*
D03*
X03485D02*
D03*
X0269Y03591D02*
D03*
X02645Y03631D02*
D03*
X0264Y03496D02*
D03*
Y03326D02*
D03*
Y03411D02*
D03*
X0386Y03711D02*
D03*
X03695Y03741D02*
D03*
X0362D02*
D03*
X036Y03646D02*
D03*
X0345D02*
D03*
X0335D02*
D03*
X0325D02*
D03*
X0316Y03406D02*
D03*
X0289Y03681D02*
D03*
X02682Y03828D02*
D03*
X02745Y03876D02*
D03*
Y03976D02*
D03*
X02632Y0401D02*
D03*
X02805Y04111D02*
D03*
Y04074D02*
D03*
Y04036D02*
D03*
X02745Y03926D02*
D03*
X032569Y039757D02*
D03*
X029Y03976D02*
D03*
X031034Y038291D02*
D03*
X032603D02*
D03*
X033134D02*
D03*
X034203D02*
D03*
X035374Y04141D02*
D03*
X037874Y0414D02*
D03*
X030594Y03646D02*
D03*
X027844Y03411D02*
D03*
X028844Y03406D02*
D03*
X027844Y03376D02*
D03*
X030294Y03241D02*
D03*
X037744Y03296D02*
D03*
X038294D02*
D03*
X038844D02*
D03*
X039394D02*
D03*
X039944D02*
D03*
X040494D02*
D03*
X029794Y03406D02*
D03*
X030494D02*
D03*
X021294Y02806D02*
D03*
X022244D02*
D03*
Y02766D02*
D03*
X021294D02*
D03*
X02175Y02731D02*
D03*
X02736Y042576D02*
D03*
X0286Y04256D02*
D03*
M02*
