G04*
G04 #@! TF.GenerationSoftware,Altium Limited,Altium Designer,19.1.7 (138)*
G04*
G04 Layer_Color=65535*
%FSLAX25Y25*%
%MOIN*%
G70*
G01*
G75*
%ADD10C,0.00300*%
%ADD11C,0.00100*%
%ADD12C,0.01000*%
%ADD13C,0.00787*%
%ADD14C,0.00591*%
G36*
X598898Y69055D02*
D01*
D02*
G37*
G36*
X599724Y229488D02*
D01*
D02*
G37*
G36*
X22412Y242727D02*
X22598Y242635D01*
X22644Y242588D01*
X22737Y242496D01*
X22968Y242218D01*
X37920Y215925D01*
X37966Y215879D01*
X38012Y215787D01*
X38059Y215601D01*
Y215370D01*
Y215324D01*
Y215185D01*
X37966Y215000D01*
X37873Y214768D01*
X37827Y214722D01*
X37781Y214629D01*
X37642Y214490D01*
X37457Y214352D01*
X37410D01*
X37271Y214305D01*
X37086Y214259D01*
X36762Y214213D01*
X6581Y214213D01*
X6396Y214259D01*
X6211Y214352D01*
X6165Y214398D01*
X6118Y214490D01*
X5841Y214768D01*
Y214814D01*
X5794Y214953D01*
X5748Y215138D01*
X5702Y215324D01*
Y215370D01*
Y215509D01*
Y215694D01*
X5748Y215833D01*
Y215879D01*
X5794Y215925D01*
X5933Y216018D01*
X20931Y242218D01*
X20977Y242264D01*
X21024Y242357D01*
X21302Y242635D01*
X21348Y242681D01*
X21487Y242727D01*
X21672Y242774D01*
X21996Y242820D01*
X22227D01*
X22412Y242727D01*
D02*
G37*
%LPC*%
G36*
X21949Y239950D02*
X8340Y216249D01*
X35327Y216249D01*
X21949Y239950D01*
D02*
G37*
%LPD*%
G36*
X22412Y234488D02*
X24542Y234256D01*
X20746Y227451D01*
X26069Y229535D01*
X23755Y220786D01*
X25884Y220647D01*
X21302Y216435D01*
X19589Y222313D01*
X21440Y221388D01*
X22459Y225137D01*
X16626Y222869D01*
X20931Y235830D01*
X22412Y234488D01*
D02*
G37*
D10*
X378004Y120620D02*
G03*
X378004Y119329I1794J-646D01*
G01*
X381579Y119331D02*
G03*
X381578Y120621I-1788J644D01*
G01*
X382197Y122912D02*
X382426Y122891D01*
X381822Y121808D02*
X382572Y121724D01*
X382218Y128390D02*
X382301Y128557D01*
X382197Y130140D02*
X382301Y130161D01*
X376281Y130640D02*
X379239D01*
X377239Y121829D02*
X379239Y130640D01*
X379947Y125078D02*
X379989Y125349D01*
X381343Y125057D02*
X381447Y125516D01*
X379864Y123078D02*
X379926Y122849D01*
X380218Y122287D02*
X380364Y122183D01*
X379926Y122849D02*
X380010Y122641D01*
X380094Y122474D01*
X380155Y122370D01*
X380198Y122308D01*
X380218Y122287D01*
X380364Y122183D02*
X380573Y122079D01*
X380843Y121995D01*
X381135Y121912D01*
X381468Y121849D01*
X381822Y121808D01*
X379885Y124620D02*
X379906Y124849D01*
X381280Y124599D02*
X381343Y125057D01*
X379864Y124432D02*
X379885Y124620D01*
X379843Y124266D02*
X379864Y124432D01*
X379822Y124120D02*
X379843Y124266D01*
X379822Y123995D02*
Y124120D01*
X379802Y123891D02*
X379822Y123995D01*
X379802Y123828D02*
Y123891D01*
Y123766D02*
Y123828D01*
Y123745D02*
Y123766D01*
Y123724D02*
Y123745D01*
Y123724D02*
X379822Y123391D01*
X379864Y123078D01*
X382010Y122953D02*
X382197Y122912D01*
X381843Y122995D02*
X382010Y122953D01*
X381718Y123016D02*
X381843Y122995D01*
X381614Y123058D02*
X381718Y123016D01*
X381530Y123078D02*
X381614Y123058D01*
X381468Y123099D02*
X381530Y123078D01*
X381427Y123120D02*
X381468Y123099D01*
X381405Y123141D02*
X381427Y123120D01*
X381343Y123224D02*
X381405Y123141D01*
X381280Y123328D02*
X381343Y123224D01*
X381218Y123578D02*
X381280Y123328D01*
X381218Y123578D02*
Y123683D01*
X381197Y123787D02*
X381218Y123683D01*
X381197Y123787D02*
Y123849D01*
Y123870D01*
Y124016D01*
X381218Y124182D01*
X381239Y124391D01*
X381280Y124599D01*
X379906Y124849D02*
X379947Y125078D01*
X380697Y128078D02*
X380947Y128640D01*
X382135Y128182D02*
X382218Y128390D01*
X380593Y127786D02*
X380697Y128078D01*
X382051Y127953D02*
X382135Y128182D01*
X380489Y127536D02*
X380593Y127786D01*
X380405Y127286D02*
X380489Y127536D01*
X380343Y127078D02*
X380405Y127286D01*
X381781Y127036D02*
X381864Y127369D01*
X381968Y127682D01*
X382051Y127953D01*
X380030Y125640D02*
X380094Y125953D01*
X381447Y125516D02*
X381530Y125953D01*
X379989Y125349D02*
X380030Y125640D01*
X380260Y126786D02*
X380301Y126911D01*
X380239Y126682D02*
X380260Y126786D01*
X380239Y126661D02*
Y126682D01*
X381656Y126578D02*
X381677Y126640D01*
Y126661D01*
X380094Y125953D02*
X380155Y126286D01*
X381530Y125953D02*
X381572Y126161D01*
X381593Y126328D01*
X381634Y126453D01*
X380155Y126286D02*
X380239Y126661D01*
X381634Y126453D02*
X381656Y126578D01*
X380301Y126911D02*
X380343Y127078D01*
X381677Y126661D02*
X381781Y127036D01*
X382135Y130098D02*
X382197Y130140D01*
X382114Y130077D02*
X382135Y130098D01*
X382093Y130077D02*
X382114D01*
X381864Y129911D02*
X382093Y130077D01*
X381656Y129702D02*
X381864Y129911D01*
X381447Y129473D02*
X381656Y129702D01*
X381259Y129202D02*
X381447Y129473D01*
X380947Y128640D02*
X381259Y129202D01*
X385988Y121662D02*
X386300Y121683D01*
X386592Y121704D01*
X386842D01*
X387071Y121724D01*
X387259Y121745D01*
X387425Y121766D01*
X387571D01*
X387675Y121787D01*
X387363Y122870D02*
X387613Y122891D01*
X387092Y122849D02*
X387363Y122870D01*
X386801Y122828D02*
X387092Y122849D01*
X386217Y122808D02*
X386801Y122828D01*
X385926Y122787D02*
X386217Y122808D01*
X384114Y121641D02*
X385280D01*
X384197Y122766D02*
X385384D01*
X385280Y121641D02*
X385655Y121662D01*
X385384Y122766D02*
X385634Y122787D01*
X383885Y121662D02*
X384114Y121641D01*
X383280Y121683D02*
X383593Y121662D01*
X383885D01*
X383759Y122787D02*
X384197Y122766D01*
X383364Y122808D02*
X383759Y122787D01*
X382572Y121724D02*
X382926Y121704D01*
X382697Y122849D02*
X383010Y122828D01*
X382426Y122891D02*
X382697Y122849D01*
X382926Y121704D02*
X383280Y121683D01*
X383010Y122828D02*
X383364Y122808D01*
X385655Y121662D02*
X385988D01*
X385634Y122787D02*
X385926D01*
X382301Y128557D02*
X382384Y128703D01*
X382447Y128827D01*
X382530Y128932D01*
X382572Y129015D01*
X387196Y130661D02*
X387446Y130640D01*
X385905Y130661D02*
X387196D01*
X385801Y129557D02*
X386822D01*
X387300Y129536D01*
X383967Y130536D02*
X384384Y130577D01*
X384092Y129452D02*
X384717Y129515D01*
X384384Y130577D02*
X384842Y130598D01*
X384717Y129515D02*
X385009D01*
X384842Y130598D02*
X385343Y130640D01*
X385009Y129515D02*
X385301Y129536D01*
X385572D01*
X383613Y130473D02*
X383967Y130536D01*
X383280Y130431D02*
X383613Y130473D01*
X383509Y129390D02*
X383801Y129432D01*
X384092Y129452D01*
X382781Y130306D02*
X383010Y130369D01*
X382593Y130265D02*
X382781Y130306D01*
X382426Y130223D02*
X382593Y130265D01*
X382301Y130161D02*
X382426Y130223D01*
X382634Y129077D02*
X382697Y129140D01*
X382718Y129161D01*
X382843Y129223D01*
X383030Y129286D01*
X383260Y129348D01*
X383010Y130369D02*
X383280Y130431D01*
X383260Y129348D02*
X383509Y129390D01*
X385343Y130640D02*
X385905Y130661D01*
X385572Y129536D02*
X385801Y129557D01*
X382572Y129015D02*
X382634Y129077D01*
X372032Y130640D02*
X375219D01*
X374282Y121829D02*
X377239D01*
X374282D02*
X376281Y130640D01*
X447755Y119329D02*
Y120620D01*
X412984Y125224D02*
X413171Y125182D01*
X414858Y125349D02*
X415004Y125182D01*
X413338Y125120D02*
X413483Y125036D01*
X413171Y125182D02*
X413338Y125120D01*
X413525Y121829D02*
X413796Y123099D01*
X414754Y121829D02*
X415130Y123433D01*
X413525Y121829D02*
X414754D01*
X415130Y124995D02*
X415212Y124766D01*
X415130Y123433D02*
X415212Y123828D01*
X415234Y124016D01*
Y124182D01*
X415254Y124307D01*
Y124432D01*
Y124495D01*
Y124516D01*
X415212Y124766D02*
X415254Y124516D01*
X415004Y125182D02*
X415130Y124995D01*
X413859Y124599D02*
X413921Y124432D01*
X413942Y124328D01*
Y124307D02*
Y124328D01*
Y124287D02*
Y124307D01*
Y124099D02*
Y124287D01*
X413921Y123891D02*
X413942Y124099D01*
X413901Y123703D02*
X413921Y123891D01*
X413879Y123516D02*
X413901Y123703D01*
X413838Y123349D02*
X413879Y123516D01*
X413817Y123224D02*
X413838Y123349D01*
X413796Y123141D02*
X413817Y123224D01*
X413796Y123099D02*
Y123141D01*
X413692Y124870D02*
X413755Y124786D01*
X413483Y125036D02*
X413588Y124953D01*
X413692Y124870D01*
X413755Y124786D02*
X413859Y124599D01*
X416317Y128682D02*
X416337Y128869D01*
Y128994D01*
Y129015D01*
Y129036D01*
X414671Y127328D02*
X414775Y127599D01*
X415941Y127015D02*
Y127057D01*
X414880Y127953D02*
X414900Y128015D01*
X414880Y127932D02*
Y127953D01*
X414775Y127599D02*
X414880Y127932D01*
X414921Y129015D02*
X414984Y128890D01*
X415004Y128807D01*
Y128765D02*
Y128807D01*
X414984Y128473D02*
X415004Y128765D01*
X414942Y128203D02*
X414984Y128473D01*
X414921Y128098D02*
X414942Y128203D01*
X415941Y127057D02*
X416275Y128453D01*
X414900Y128015D02*
X414921Y128098D01*
X414546Y127099D02*
X414671Y127328D01*
X416275Y128453D02*
X416317Y128682D01*
X413463Y126411D02*
X413755Y126474D01*
X412754Y125266D02*
X412984Y125224D01*
X413171Y126370D02*
X413463Y126411D01*
X412900Y126349D02*
X413171Y126370D01*
X412692Y126328D02*
X412900Y126349D01*
X414692Y125786D02*
X414900Y125890D01*
X414712Y125495D02*
X414858Y125349D01*
X414587Y125578D02*
X414712Y125495D01*
X414504Y125640D02*
X414587Y125578D01*
X414463Y125661D02*
X414504Y125640D01*
X414463Y125661D02*
X414692Y125786D01*
X415692Y126578D02*
X415816Y126765D01*
X415900Y126932D01*
X414359Y126807D02*
X414442Y126932D01*
X414276Y126724D02*
X414359Y126807D01*
X414233Y126682D02*
X414276Y126724D01*
X414213Y126661D02*
X414233Y126682D01*
X414005Y126557D02*
X414213Y126661D01*
X414900Y125890D02*
X415088Y126015D01*
X415254Y126140D01*
X415379Y126245D01*
X415505Y126370D01*
X415692Y126578D01*
X413755Y126474D02*
X414005Y126557D01*
X415900Y126932D02*
X415941Y127015D01*
X414442Y126932D02*
X414546Y127099D01*
X416296Y129411D02*
X416337Y129223D01*
X414546Y130598D02*
X414838Y130556D01*
X414712Y129244D02*
X414796Y129182D01*
X416025Y129952D02*
X416191Y129702D01*
X415859Y130140D02*
X416025Y129952D01*
X415671Y130286D02*
X415859Y130140D01*
X415505Y130390D02*
X415671Y130286D01*
X415400Y130431D02*
X415505Y130390D01*
X415379Y130452D02*
X415400Y130431D01*
X415358Y130452D02*
X415379D01*
X415130Y130515D02*
X415358Y130452D01*
X414838Y130556D02*
X415130Y130515D01*
X413963Y130640D02*
X414233Y130619D01*
X414546Y130598D01*
X413879Y129536D02*
X414109Y129494D01*
X414296Y129452D01*
X414463Y129390D01*
X414608Y129327D01*
X414712Y129244D01*
X413629Y129577D02*
X413879Y129536D01*
X416191Y129702D02*
X416296Y129411D01*
X416337Y129036D02*
Y129223D01*
X414796Y129182D02*
X414921Y129015D01*
X400278Y121808D02*
X400632Y121849D01*
X400256Y122828D02*
X400506Y122891D01*
X400299Y129515D02*
X400694Y129494D01*
X400069Y130640D02*
X400757Y130598D01*
X398320Y121662D02*
X398903Y121683D01*
X399424Y121724D01*
X399882Y121766D01*
X399798Y122787D02*
X400006Y122808D01*
X399611Y122766D02*
X399798Y122787D01*
X394175Y122912D02*
X394424Y122891D01*
X396257Y121662D02*
X396528Y121641D01*
X395945Y122787D02*
X396465Y122766D01*
X396528Y121641D02*
X397653D01*
X395570Y121683D02*
X395924Y121662D01*
X396257D01*
X395486Y122808D02*
X395945Y122787D01*
X393903Y121808D02*
X394737Y121724D01*
X395153Y121704D01*
X394737Y122849D02*
X395091Y122828D01*
X394424Y122891D02*
X394737Y122849D01*
X395153Y121704D02*
X395570Y121683D01*
X395091Y122828D02*
X395486Y122808D01*
X393945Y122953D02*
X394175Y122912D01*
X397653Y121641D02*
X398320Y121662D01*
X396465Y122766D02*
X399611D01*
X394007Y128182D02*
X394112Y128390D01*
X394195Y128557D01*
X394279Y128703D01*
X394341Y128827D01*
X394404Y128932D01*
X394466Y129015D01*
X393924Y127953D02*
X394007Y128182D01*
X393841Y127682D02*
X393924Y127953D01*
X399882Y121766D02*
X400278Y121808D01*
X400006Y122808D02*
X400256Y122828D01*
X399132Y130661D02*
X399424Y130640D01*
X400069D01*
X398778Y129557D02*
X399340Y129536D01*
X399861D01*
X396257Y130577D02*
X396715Y130598D01*
X395987Y129452D02*
X396590Y129515D01*
X397216Y130640D02*
X397778Y130661D01*
X396715Y130598D02*
X397216Y130640D01*
X396590Y129515D02*
X396903D01*
X397174Y129536D01*
X397445D01*
X397674Y129557D01*
X395841Y130536D02*
X396257Y130577D01*
X395486Y130473D02*
X395841Y130536D01*
X395674Y129432D02*
X395987Y129452D01*
X394903Y130369D02*
X395174Y130431D01*
X394674Y130306D02*
X394903Y130369D01*
X394466Y130265D02*
X394674Y130306D01*
X394320Y130223D02*
X394466Y130265D01*
X394195Y130161D02*
X394320Y130223D01*
X394091Y130140D02*
X394195Y130161D01*
X394028Y130098D02*
X394091Y130140D01*
X394007Y130077D02*
X394028Y130098D01*
X393987Y130077D02*
X394007D01*
X394508Y129077D02*
X394591Y129140D01*
X394612Y129161D01*
X394737Y129223D01*
X394924Y129286D01*
X395153Y129348D01*
X395404Y129390D01*
X395174Y130431D02*
X395486Y130473D01*
X395404Y129390D02*
X395674Y129432D01*
X397778Y130661D02*
X399132D01*
X397674Y129557D02*
X398778D01*
X399861Y129536D02*
X400299Y129515D01*
X394466Y129015D02*
X394508Y129077D01*
X405652Y121829D02*
X406443Y125266D01*
X403423Y124911D02*
X403527Y125328D01*
X402090Y125057D02*
X402132Y125245D01*
X401173Y121933D02*
X401361Y121974D01*
X401257Y123266D02*
X401403Y123433D01*
X400506Y122891D02*
X400736Y122933D01*
X400632Y121849D02*
X400923Y121891D01*
X401173Y121933D01*
X401111Y123141D02*
X401257Y123266D01*
X401027Y123078D02*
X401111Y123141D01*
X400944Y123037D02*
X401027Y123078D01*
X400923Y123016D02*
X400944Y123037D01*
X400736Y122933D02*
X400923Y123016D01*
X404319Y121829D02*
X405652D01*
X402340Y122599D02*
X402569Y122912D01*
X401652Y122058D02*
X401735Y122099D01*
X401798Y122120D01*
X401840Y122141D01*
X402090Y122329D01*
X402340Y122599D01*
X401361Y121974D02*
X401528Y122016D01*
X401652Y122058D01*
X402757Y123266D02*
X402944Y123662D01*
X402569Y122912D02*
X402757Y123266D01*
X403131Y124057D02*
X403423Y124911D01*
X402944Y123662D02*
X403131Y124057D01*
X402006Y124745D02*
X402048Y124891D01*
X401965Y124620D02*
X402006Y124745D01*
X401902Y124412D02*
X401965Y124620D01*
X401861Y124287D02*
X401902Y124412D01*
X401840Y124224D02*
X401861Y124287D01*
X401840Y124203D02*
Y124224D01*
X401694Y123891D02*
X401840Y124203D01*
X402048Y124891D02*
X402090Y125057D01*
X401403Y123433D02*
X401548Y123641D01*
X401694Y123891D01*
X404110Y128598D02*
Y128723D01*
Y128827D01*
Y128848D01*
X403923Y127015D02*
Y127036D01*
X403986Y127453D01*
X404027Y127828D01*
X402590Y129036D02*
X402652Y128869D01*
X402694Y128723D01*
X402714Y128578D01*
X402736Y128453D01*
Y128390D02*
Y128453D01*
Y128348D02*
Y128390D01*
X402714Y128036D02*
X402736Y128348D01*
X404069Y128140D02*
X404089Y128390D01*
X404027Y127828D02*
X404069Y128140D01*
X402694Y127703D02*
X402714Y128036D01*
X402632Y127369D02*
X402694Y127703D01*
X402569Y127036D02*
X402632Y127369D01*
X404089Y128390D02*
X404110Y128598D01*
X403631Y125703D02*
X403735Y126078D01*
X402256Y125703D02*
X402319Y125974D01*
X403527Y125328D02*
X403631Y125703D01*
X402194Y125453D02*
X402256Y125703D01*
X402132Y125245D02*
X402194Y125453D01*
X403902Y126869D02*
Y126932D01*
X403923Y126994D01*
X403861Y126661D02*
X403902Y126869D01*
X403735Y126078D02*
X403797Y126390D01*
X402444D02*
X402464Y126495D01*
X402423Y126328D02*
X402444Y126390D01*
X402402Y126286D02*
X402423Y126328D01*
X402402Y126265D02*
Y126286D01*
X402319Y125974D02*
X402402Y126265D01*
X403797Y126390D02*
X403861Y126661D01*
X402464Y126495D02*
X402506Y126724D01*
X402569Y127036D01*
X403923Y126994D02*
Y127015D01*
X400757Y130598D02*
X401423Y130556D01*
X401048Y129452D02*
X401340Y129432D01*
X400694Y129494D02*
X401048Y129452D01*
X402548Y130411D02*
X402590Y130390D01*
X402777Y130327D02*
X403027Y130223D01*
X402673Y130369D02*
X402777Y130327D01*
X402590Y130390D02*
X402673Y130369D01*
X404047Y129265D02*
X404089Y129057D01*
X403965Y129432D02*
X404047Y129265D01*
X403861Y129598D02*
X403965Y129432D01*
X403611Y129869D02*
X403861Y129598D01*
X403319Y130077D02*
X403611Y129869D01*
X403027Y130223D02*
X403319Y130077D01*
X402527Y130411D02*
X402548D01*
X402298Y130452D02*
X402527Y130411D01*
X402048Y130494D02*
X402298Y130452D01*
X401735Y130536D02*
X402048Y130494D01*
X401590Y129411D02*
X401798Y129369D01*
X401965Y129348D01*
X402110Y129327D01*
X402214Y129286D01*
X402298Y129265D01*
X402340D01*
X402382Y129244D01*
X402506Y129161D01*
X401423Y130556D02*
X401735Y130536D01*
X401340Y129432D02*
X401590Y129411D01*
X404319Y121829D02*
X406318Y130640D01*
X402506Y129161D02*
X402590Y129036D01*
X404089Y129057D02*
X404110Y128848D01*
X406651Y126328D02*
X407402Y129577D01*
X393216Y125057D02*
X393320Y125516D01*
X391842Y125078D02*
X391883Y125349D01*
X389030Y122162D02*
X389155Y122204D01*
X389071Y124266D02*
X389155Y124516D01*
X387613Y122891D02*
X387842Y122933D01*
X387675Y121787D02*
X387779D01*
X387842Y121808D01*
X387883D01*
X388175Y121870D01*
X388446Y121933D01*
X388675Y122016D01*
X388883Y122079D01*
X389030Y122162D01*
X388987Y124057D02*
X389071Y124266D01*
X388905Y123870D02*
X388987Y124057D01*
X388821Y123724D02*
X388905Y123870D01*
X388717Y123578D02*
X388821Y123724D01*
X388550Y123349D02*
X388717Y123578D01*
X388404Y123183D02*
X388550Y123349D01*
X388280Y123078D02*
X388404Y123183D01*
X388196Y123037D02*
X388280Y123078D01*
X388155Y123016D02*
X388196Y123037D01*
X388030Y122974D02*
X388155Y123016D01*
X387842Y122933D02*
X388030Y122974D01*
X389758Y122828D02*
X389946Y123245D01*
X389384Y122370D02*
X389509Y122495D01*
X389633Y122662D01*
X389758Y122828D01*
X389155Y122204D02*
X389237Y122245D01*
X389259Y122266D01*
X389384Y122370D01*
X390341Y124432D02*
X390383Y124578D01*
X389217Y124766D02*
X390425D01*
X390383Y124578D02*
X390404Y124682D01*
X390425Y124745D01*
Y124766D01*
X389946Y123245D02*
X390112Y123683D01*
X390259Y124078D01*
X390300Y124266D01*
X390341Y124432D01*
X389155Y124516D02*
X389217Y124766D01*
X391904Y122641D02*
X391987Y122474D01*
X392050Y122370D01*
X392091Y122308D01*
X392112Y122287D01*
X392175Y122224D01*
X392258Y122183D01*
X392487Y122079D01*
X392778Y121995D01*
X393112Y121912D01*
X393154Y124599D02*
X393216Y125057D01*
X393362Y123099D02*
X393425Y123078D01*
X393320Y123120D02*
X393362Y123099D01*
X393300Y123141D02*
X393320Y123120D01*
X393216Y123224D02*
X393300Y123141D01*
X393175Y123328D02*
X393216Y123224D01*
X393091Y123578D02*
X393175Y123328D01*
X393091Y123578D02*
Y123683D01*
X393071Y123787D02*
X393091Y123683D01*
X393071Y123787D02*
Y123849D01*
Y123870D01*
Y124016D01*
X393091Y124182D01*
X393112Y124391D01*
X393154Y124599D01*
X391758Y123078D02*
X391821Y122849D01*
X391779Y124620D02*
X391799Y124849D01*
X391758Y124432D02*
X391779Y124620D01*
X391737Y124266D02*
X391758Y124432D01*
X391717Y124120D02*
X391737Y124266D01*
X391717Y123995D02*
Y124120D01*
X391695Y123891D02*
X391717Y123995D01*
X391695Y123828D02*
Y123891D01*
Y123766D02*
Y123828D01*
Y123745D02*
Y123766D01*
Y123724D02*
Y123745D01*
Y123724D02*
X391717Y123391D01*
X391758Y123078D01*
X391799Y124849D02*
X391842Y125078D01*
X391821Y122849D02*
X391904Y122641D01*
X393633Y123016D02*
X393778Y122995D01*
X393508Y123058D02*
X393633Y123016D01*
X393112Y121912D02*
X393487Y121849D01*
X393425Y123078D02*
X393508Y123058D01*
X389758Y127682D02*
X391029D01*
X391091Y127828D01*
X391133Y127994D01*
X389800Y128994D02*
X389883Y128765D01*
Y128682D02*
Y128765D01*
Y128682D02*
X389904Y128598D01*
Y128536D02*
Y128598D01*
Y128515D02*
Y128536D01*
X389883Y128244D02*
X389904Y128515D01*
X389842Y127973D02*
X389883Y128244D01*
X389800Y127869D02*
X389842Y127973D01*
X389779Y127765D02*
X389800Y127869D01*
X389758Y127703D02*
X389779Y127765D01*
X389758Y127682D02*
Y127703D01*
X392570Y128078D02*
X392841Y128640D01*
X392466Y127786D02*
X392570Y128078D01*
X392383Y127536D02*
X392466Y127786D01*
X392300Y127286D02*
X392383Y127536D01*
X392237Y127078D02*
X392300Y127286D01*
X391196Y128390D02*
X391216Y128557D01*
Y128703D01*
Y128807D01*
Y128848D01*
X391133Y127994D02*
X391196Y128390D01*
X391925Y125640D02*
X391987Y125953D01*
X393320Y125516D02*
X393404Y125953D01*
X391883Y125349D02*
X391925Y125640D01*
X392154Y126786D02*
X392196Y126911D01*
X392133Y126682D02*
X392154Y126786D01*
X392133Y126661D02*
Y126682D01*
X391987Y125953D02*
X392050Y126286D01*
X393404Y125953D02*
X393445Y126161D01*
X393466Y126328D01*
X392050Y126286D02*
X392133Y126661D01*
X392196Y126911D02*
X392237Y127078D01*
X393653Y127036D02*
X393737Y127369D01*
X393529Y126578D02*
X393549Y126640D01*
Y126661D01*
X393508Y126453D02*
X393529Y126578D01*
X393549Y126661D02*
X393653Y127036D01*
X393466Y126328D02*
X393508Y126453D01*
X388925Y129411D02*
X389112Y129390D01*
X388633Y130598D02*
X389237Y130556D01*
X387300Y129536D02*
X387717Y129515D01*
X388092Y129494D01*
X388404Y129473D01*
X388675Y129452D01*
X388925Y129411D01*
X388030Y130640D02*
X388633Y130598D01*
X387446Y130640D02*
X388030D01*
X390300Y130348D02*
X390466Y130244D01*
X391050Y129619D02*
X391175Y129265D01*
X390883Y129890D02*
X391050Y129619D01*
X390675Y130098D02*
X390883Y129890D01*
X390466Y130244D02*
X390675Y130098D01*
X389384Y129307D02*
X389488Y129286D01*
X389550Y129265D01*
X389613Y129244D01*
X389633Y129223D01*
X389654Y129202D01*
X389738Y129098D01*
X390175Y130390D02*
X390300Y130348D01*
X390154Y130411D02*
X390175Y130390D01*
X390134Y130411D02*
X390154D01*
X389967Y130452D02*
X390134Y130411D01*
X389738Y130494D02*
X389967Y130452D01*
X389509Y130536D02*
X389738Y130494D01*
X389112Y129390D02*
X389259Y129348D01*
X389384Y129307D01*
X389237Y130556D02*
X389509Y130536D01*
X393154Y129202D02*
X393341Y129473D01*
X391175Y129265D02*
X391196Y129077D01*
X393529Y129702D02*
X393758Y129911D01*
X393341Y129473D02*
X393529Y129702D01*
X389738Y129098D02*
X389800Y128994D01*
X392841Y128640D02*
X393154Y129202D01*
X391196Y129077D02*
X391216Y128848D01*
X393487Y121849D02*
X393903Y121808D01*
X393778Y122995D02*
X393945Y122953D01*
X393737Y127369D02*
X393841Y127682D01*
X393758Y129911D02*
X393987Y130077D01*
X381578Y120620D02*
X447755D01*
X381578Y119329D02*
X447755D01*
X406443Y125266D02*
X412754D01*
X406651Y126328D02*
X412692D01*
X407402Y129577D02*
X413629D01*
X406318Y130640D02*
X413963D01*
X345828Y113892D02*
X345890Y113997D01*
X339246Y110872D02*
X339308Y111080D01*
X339329Y111247D01*
X339350Y111372D01*
Y111393D01*
Y111414D01*
X345349Y113851D02*
X345411Y113788D01*
X345682Y113747D02*
X345765Y113809D01*
X344286Y113226D02*
X344349Y113184D01*
X343182Y112518D02*
X343245Y112622D01*
X343286Y112726D01*
X343328Y112851D01*
Y112934D01*
X343349Y113018D01*
Y113038D01*
X344057Y113788D02*
X344078Y113580D01*
X344141Y113413D01*
X344203Y113309D01*
X344286Y113226D01*
X344349Y113184D02*
X344411Y113163D01*
X344453Y113143D01*
X344474D01*
X344599Y113163D01*
X344703Y113247D01*
X344765Y113351D01*
X344828Y113476D01*
X344849Y113580D01*
X344869Y113684D01*
X344890Y113767D01*
Y113788D01*
X345411D02*
X345474Y113747D01*
X345536Y113726D01*
X345578D01*
X345682Y113747D01*
X345203Y114247D02*
X345245Y114080D01*
X345286Y113955D01*
X345349Y113851D01*
X345765Y113809D02*
X345828Y113892D01*
X341537Y111893D02*
X341599Y112101D01*
X341662Y112309D01*
X341683Y112497D01*
X341704Y112643D01*
Y112663D01*
Y112684D01*
X342558Y113038D02*
X342599Y112830D01*
X342661Y112684D01*
X342724Y112559D01*
X342808Y112497D01*
X342870Y112455D01*
X342933Y112434D01*
X342974Y112413D01*
X342995D01*
X343099Y112434D01*
X340745Y112143D02*
X340787Y112018D01*
X340870Y111809D01*
X340953Y111664D01*
X341037Y111580D01*
X341121Y111539D01*
X341162Y111518D01*
X341183D01*
X341266Y111539D01*
X341329Y111559D01*
X341454Y111705D01*
X341537Y111893D01*
X340662Y112684D02*
X340683Y112476D01*
X340704Y112309D01*
X340745Y112143D01*
X343099Y112434D02*
X343182Y112518D01*
X344890Y113788D02*
X345057Y116225D01*
X345203Y114247D01*
X349223Y115517D02*
X349348Y115621D01*
X349431Y115746D01*
X349452Y115767D01*
Y115788D01*
X349598Y115767D01*
X349723D01*
X349806Y115788D01*
X349828D01*
X348744Y115600D02*
X348910Y115517D01*
X347953Y115226D02*
X347973Y115309D01*
Y115330D02*
X348015Y115246D01*
X348577D02*
X348660Y115371D01*
X347849Y114892D02*
X347890Y115017D01*
X347932Y115121D01*
X347953Y115226D01*
X348015Y115246D02*
X348078Y115184D01*
X348182Y115121D01*
X348286Y115080D01*
X348327D01*
X348411Y115101D01*
X348494Y115163D01*
X348556Y115226D01*
X348577Y115246D01*
X347973Y115309D02*
Y115330D01*
X348660Y115371D02*
X348723Y115496D01*
X348744Y115580D01*
Y115600D01*
X348910Y115517D02*
X349015Y115475D01*
X349057Y115455D01*
X349078D01*
X349161Y115475D01*
X347140Y114934D02*
X347161Y115017D01*
Y115059D01*
X347202Y114934D01*
X347265Y114851D01*
X349161Y115475D02*
X349223Y115517D01*
X347661Y114705D02*
X347765Y114788D01*
X346786Y114288D02*
X346890Y114372D01*
X346973Y114496D01*
X347057Y114663D01*
X347098Y114809D01*
X347327Y114767D02*
X347390Y114726D01*
X347495Y114684D01*
X347536D01*
X347661Y114705D01*
X345890Y113997D02*
X345911Y114080D01*
X345932Y114163D01*
X345953Y114226D01*
Y114247D01*
X346328Y114580D02*
X346349Y114476D01*
X346391Y114392D01*
X346432Y114330D01*
X346495Y114288D01*
X346599Y114247D01*
X346640D01*
X346786Y114288D01*
X347765Y114788D02*
X347849Y114892D01*
X347098Y114809D02*
X347140Y114934D01*
X347265Y114851D02*
X347327Y114767D01*
X345953Y114247D02*
X346182Y116267D01*
X346328Y114580D01*
X333184Y116621D02*
X333267Y115788D01*
X335559Y109435D02*
X335683Y109768D01*
X335725Y109914D01*
X335767Y110039D01*
X335788Y110164D01*
X335808Y110247D01*
X335829Y110310D01*
Y110330D01*
X333872Y110601D02*
Y110726D01*
Y110601D02*
X333892Y110518D01*
Y110435D02*
Y110518D01*
Y110435D02*
X333913Y110372D01*
Y110351D02*
Y110372D01*
Y110330D02*
Y110351D01*
Y110330D02*
X333955Y110018D01*
X334017Y109726D01*
X334080Y109497D01*
X338309Y110789D02*
X338391Y110601D01*
X338495Y110476D01*
X338600Y110393D01*
X333267Y115788D02*
X333350Y114996D01*
X333434Y114247D02*
X333518Y113559D01*
X333663Y112351D02*
X333726Y111830D01*
X333788Y111393D01*
X333830Y111018D01*
X333518Y113559D02*
X333600Y112934D01*
X333663Y112351D01*
X338162Y111414D02*
X338183Y111226D01*
X338225Y111059D01*
X338266Y110914D01*
X333350Y114996D02*
X333434Y114247D01*
X333830Y111018D02*
X333872Y110726D01*
X338266Y110914D02*
X338309Y110789D01*
X338683Y110351D02*
X338745Y110330D01*
X338767D01*
X338850Y110351D01*
X338933Y110372D02*
X339079Y110497D01*
X339183Y110664D01*
X338850Y110351D02*
X338933Y110372D01*
X338600Y110393D02*
X338683Y110351D01*
X339183Y110664D02*
X339246Y110872D01*
X361825Y130640D02*
X365013D01*
X361825D02*
X364658Y121829D01*
X368262D01*
X365013Y130640D02*
X367054Y124266D01*
X372032Y130640D01*
X368262Y121829D02*
X375219Y130640D01*
X345807Y125765D02*
X345869Y125849D01*
X344411Y122079D02*
X344724Y126161D01*
X345349D02*
X345557Y123224D01*
X342953Y120620D02*
X343328Y126661D01*
X344078D02*
X344411Y122079D01*
X345557Y123224D02*
X345744Y125495D01*
X340641Y128057D02*
X341100Y120620D01*
X342537Y127203D02*
X342912Y120620D01*
X341350D02*
X341745Y127203D01*
X340121Y121933D02*
X340204Y120620D01*
X340017D02*
X340121Y121933D01*
X340017Y120620D02*
X340204D01*
X342912D02*
X342953D01*
X341100D02*
X341350D01*
X339912Y119329D02*
X340266D01*
X341225Y118517D02*
X341287Y119329D01*
X341183D02*
X341225Y118517D01*
X341183Y119329D02*
X341287D01*
X340266Y128953D02*
X340370Y128869D01*
X339767Y128703D02*
X339849Y128848D01*
X339704Y128536D02*
X339767Y128703D01*
X339641Y128348D02*
X339704Y128536D01*
X339620Y128203D02*
X339641Y128348D01*
X339599Y128098D02*
X339620Y128203D01*
X339599Y128078D02*
Y128098D01*
Y128057D02*
Y128078D01*
X340204Y128973D02*
X340266Y128953D01*
X340142Y128994D02*
X340204Y128973D01*
X340037Y128994D02*
X340142D01*
X339974Y128953D02*
X340037Y128994D01*
X339849Y128848D02*
X339974Y128953D01*
X343870Y127140D02*
X343933Y127078D01*
X343808Y127182D02*
X343870Y127140D01*
X343745Y127203D02*
X343808Y127182D01*
X343703Y127203D02*
X343745D01*
X343579Y127182D02*
X343703Y127203D01*
X343495Y127119D02*
X343579Y127182D01*
X343432Y127036D02*
X343495Y127119D01*
X342516Y127474D02*
X342537Y127203D01*
X342454Y127661D02*
X342516Y127474D01*
X342391Y127807D02*
X342454Y127661D01*
X342329Y127890D02*
X342391Y127807D01*
X342266Y127953D02*
X342329Y127890D01*
X342203Y127973D02*
X342266Y127953D01*
X342162Y127994D02*
X342203Y127973D01*
X342141Y127994D02*
X342162D01*
X342037Y127953D02*
X342141Y127994D01*
X341933Y127869D02*
X342037Y127953D01*
X341870Y127744D02*
X341933Y127869D01*
X341828Y127599D02*
X341870Y127744D01*
X341787Y127453D02*
X341828Y127599D01*
X341766Y127328D02*
X341787Y127453D01*
X341745Y127244D02*
X341766Y127328D01*
X341745Y127203D02*
Y127244D01*
X340620Y128223D02*
X340641Y128057D01*
X340599Y128369D02*
X340620Y128223D01*
X340454Y128765D02*
X340537Y128598D01*
X340370Y128869D02*
X340454Y128765D01*
X340537Y128598D02*
X340599Y128369D01*
X345786Y125661D02*
X345807Y125765D01*
X345765Y125578D02*
X345786Y125661D01*
X345744Y125516D02*
X345765Y125578D01*
X345744Y125495D02*
Y125516D01*
X344037Y126849D02*
X344078Y126661D01*
X343995Y126974D02*
X344037Y126849D01*
X343349Y126828D02*
X343390Y126932D01*
X343328Y126745D02*
X343349Y126828D01*
X343328Y126682D02*
Y126745D01*
Y126661D02*
Y126682D01*
X345037Y126557D02*
X345078D01*
X345328Y126286D02*
X345349Y126161D01*
X345286Y126390D02*
X345328Y126286D01*
X345245Y126453D02*
X345286Y126390D01*
X345182Y126515D02*
X345245Y126453D01*
X344869Y126495D02*
X344932Y126536D01*
X344765Y126370D02*
X344869Y126495D01*
X344724Y126224D02*
X344765Y126370D01*
X344724Y126182D02*
Y126224D01*
Y126161D02*
Y126182D01*
X345078Y126557D02*
X345182Y126515D01*
X344932Y126536D02*
X345037Y126557D01*
X343933Y127078D02*
X343995Y126974D01*
X343390Y126932D02*
X343432Y127036D01*
X347411Y125266D02*
X347474Y125099D01*
X346703Y125203D02*
X346744Y125349D01*
X346495Y125495D02*
X346620Y124245D01*
X349932Y124099D02*
X349994D01*
X349869Y124057D02*
X349932Y124099D01*
X349806Y124037D02*
X349869Y124057D01*
X349785Y124016D02*
X349806Y124037D01*
X349744Y124141D02*
X349785Y124016D01*
X349681Y124224D02*
X349744Y124141D01*
X349619Y124287D02*
X349681Y124224D01*
X349556Y124328D02*
X349619Y124287D01*
X349452Y124370D02*
X349556Y124328D01*
X349411Y124370D02*
X349452D01*
X349307Y124349D02*
X349411Y124370D01*
X347599Y125016D02*
X347703Y125099D01*
X348786Y124724D02*
X348848Y124682D01*
X348223Y124891D02*
X348286Y124745D01*
X348723D02*
X348786Y124724D01*
X348660Y124745D02*
X348723D01*
X348536Y124703D02*
X348660Y124745D01*
X348431Y124641D02*
X348536Y124703D01*
X348348Y124578D02*
X348431Y124641D01*
X348327Y124536D02*
X348348Y124578D01*
X348286Y124745D02*
X348327Y124536D01*
X348140Y124995D02*
X348223Y124891D01*
X348078Y125057D02*
X348140Y124995D01*
X347994Y125120D02*
X348078Y125057D01*
X347932Y125141D02*
X347994Y125120D01*
X347786Y125141D02*
X347932D01*
X347703Y125099D02*
X347786Y125141D01*
X349119Y124287D02*
X349182Y124328D01*
X349078Y124266D02*
X349119Y124287D01*
X349036Y124432D02*
X349078Y124266D01*
X348994Y124536D02*
X349036Y124432D01*
X348910Y124620D02*
X348994Y124536D01*
X348848Y124682D02*
X348910Y124620D01*
X347536Y124932D02*
X347599Y125016D01*
X347515Y124911D02*
X347536Y124932D01*
X347515Y124891D02*
Y124911D01*
X347474Y125099D02*
X347515Y124891D01*
X346620Y124245D02*
X346682Y125141D01*
Y125161D01*
X346703Y125203D01*
X349182Y124328D02*
X349307Y124349D01*
X349994Y124099D02*
X356993Y120620D01*
X346349Y125890D02*
X346411Y125786D01*
X347348Y125370D02*
X347411Y125266D01*
X347265Y125453D02*
X347348Y125370D01*
X347182Y125495D02*
X347265Y125453D01*
X347119Y125536D02*
X347182Y125495D01*
X347057Y125536D02*
X347119D01*
X346953Y125516D02*
X347057Y125536D01*
X346849Y125474D02*
X346953Y125516D01*
X346786Y125411D02*
X346849Y125474D01*
X346744Y125349D02*
X346786Y125411D01*
X346474Y125661D02*
X346495Y125495D01*
X346411Y125786D02*
X346474Y125661D01*
X346286Y125953D02*
X346349Y125890D01*
X346223Y125995D02*
X346286Y125953D01*
X346182Y126015D02*
X346223Y125995D01*
X346119Y126015D02*
X346182D01*
X346016Y125995D02*
X346119Y126015D01*
X345932Y125932D02*
X346016Y125995D01*
X345869Y125849D02*
X345932Y125932D01*
X329268Y124995D02*
X329393Y125870D01*
X333705Y125245D02*
X333768Y124662D01*
X332371Y125432D02*
X332414Y124995D01*
X330643Y125016D02*
X330726Y125599D01*
X335621Y120620D02*
X336350Y128640D01*
X337871D02*
X338475Y120620D01*
X332601Y122912D02*
X332643Y122391D01*
X333892Y123433D02*
X333955Y122766D01*
X334163Y120620D02*
X335621D01*
X332684Y121933D02*
X332726Y121495D01*
X334038Y122079D02*
X334101Y121370D01*
X332726Y121495D02*
X332768Y121141D01*
Y120995D02*
Y121141D01*
Y120995D02*
X332788Y120870D01*
Y120766D02*
Y120870D01*
Y120766D02*
X332809Y120683D01*
Y120641D02*
Y120683D01*
Y120620D02*
Y120641D01*
X334101Y121370D02*
X334163Y120620D01*
X332643Y122391D02*
X332684Y121933D01*
X333955Y122766D02*
X334038Y122079D01*
X332414Y124995D02*
X332455Y124495D01*
X332518Y123974D01*
X332559Y123453D01*
X332601Y122912D01*
X333830Y124057D02*
X333892Y123433D01*
X333768Y124662D02*
X333830Y124057D01*
X330268Y122266D02*
X330372Y123037D01*
X328956Y122724D02*
X329039Y123412D01*
X330164Y121475D02*
X330268Y122266D01*
X330060Y120620D02*
X330164Y121475D01*
X328831Y121599D02*
X328852Y121849D01*
X328810Y121391D02*
X328831Y121599D01*
X328789Y121183D02*
X328810Y121391D01*
X328768Y121016D02*
X328789Y121183D01*
X328748Y120870D02*
X328768Y121016D01*
X328748Y120766D02*
Y120870D01*
X328727Y120683D02*
X328748Y120766D01*
X328727Y120641D02*
Y120683D01*
Y120620D02*
Y120641D01*
X328914Y122412D02*
X328956Y122724D01*
X328872Y122120D02*
X328914Y122412D01*
X328852Y121849D02*
X328872Y122120D01*
X330559Y124391D02*
X330643Y125016D01*
X330372Y123037D02*
X330455Y123745D01*
X330559Y124391D01*
X329143Y124182D02*
X329268Y124995D01*
X329039Y123412D02*
X329143Y124182D01*
X330060Y120620D02*
X332809D01*
X334267Y119329D02*
X335517D01*
X332913D02*
X332997Y118392D01*
X333101Y117475D01*
X337121Y124057D02*
X337413Y120620D01*
X336808D02*
X337121Y124057D01*
X336808Y120620D02*
X337413D01*
X336684Y119329D02*
X337516D01*
X336371Y128807D02*
X336392Y128932D01*
X336350Y128723D02*
X336371Y128807D01*
X336350Y128661D02*
Y128723D01*
Y128640D02*
Y128661D01*
X332121Y128036D02*
X332164Y127682D01*
X331080Y127890D02*
X331143Y128244D01*
X333371Y128119D02*
X333413Y127703D01*
X332164Y127682D02*
X332205Y127349D01*
X332226Y127057D01*
X330956Y127078D02*
X331018Y127515D01*
X331080Y127890D01*
X333413Y127703D02*
X333475Y127265D01*
X332080Y128390D02*
X332121Y128036D01*
X331143Y128244D02*
X331205Y128578D01*
X331267Y128869D01*
X333309Y128515D02*
X333371Y128119D01*
X333267Y128869D02*
X333309Y128515D01*
X329727Y127724D02*
X329914Y128703D01*
X337829Y128973D02*
X337871Y128640D01*
X332330Y125995D02*
X332351Y125828D01*
X333580Y126307D02*
X333643Y125786D01*
X330726Y125599D02*
X330809Y126120D01*
X332351Y125828D02*
X332371Y125432D01*
X333643Y125786D02*
X333705Y125245D01*
X332246Y126807D02*
X332267Y126619D01*
X332289Y126474D02*
Y126495D01*
Y126453D02*
Y126474D01*
Y126411D02*
Y126453D01*
Y126349D02*
Y126411D01*
Y126349D02*
X332309Y126245D01*
Y126140D02*
Y126245D01*
Y126140D02*
X332330Y125995D01*
X330809Y126120D02*
X330872Y126619D01*
X329393Y125870D02*
X329539Y126786D01*
X332267Y126619D02*
X332289Y126495D01*
X333518Y126807D02*
X333580Y126307D01*
X332226Y127057D02*
X332246Y126807D01*
X333475Y127265D02*
X333518Y126807D01*
X329539Y126786D02*
X329727Y127724D01*
X330872Y126619D02*
X330956Y127078D01*
X338475Y120620D02*
X339100D01*
X338558Y119329D02*
X339037D01*
X332684Y132181D02*
X332747Y131952D01*
X332809Y131702D01*
X331747Y133139D02*
X331830Y133118D01*
X331705Y133139D02*
X331747D01*
X331580Y133118D02*
X331705Y133139D01*
X331455Y133077D02*
X331580Y133118D01*
X331351Y133014D02*
X331455Y133077D01*
X331226Y132910D02*
X331351Y133014D01*
X331038Y132681D02*
X331226Y132910D01*
X332601Y132369D02*
X332684Y132181D01*
X332518Y132535D02*
X332601Y132369D01*
X332434Y132681D02*
X332518Y132535D01*
X332330Y132785D02*
X332434Y132681D01*
X332246Y132889D02*
X332330Y132785D01*
X332142Y132952D02*
X332246Y132889D01*
X331976Y133056D02*
X332142Y132952D01*
X331830Y133118D02*
X331976Y133056D01*
X330684Y131910D02*
X330768Y132139D01*
X330643Y131806D02*
X330684Y131910D01*
X330622Y131744D02*
X330643Y131806D01*
X330601Y131702D02*
X330622Y131744D01*
X330601Y131681D02*
Y131702D01*
X330768Y132139D02*
X330892Y132410D01*
X331038Y132681D01*
X336517Y129577D02*
X336600Y129911D01*
X336434Y129223D02*
X336517Y129577D01*
X336413Y129077D02*
X336434Y129223D01*
X332872Y131369D02*
X332913Y131119D01*
X331705Y130619D02*
X331747Y130515D01*
X331788Y130327D01*
X331830Y130098D01*
X331892Y129806D01*
X331934Y129494D01*
X331976Y129140D01*
X331310Y129119D02*
X331351Y129369D01*
X331414Y129577D01*
X331455Y129765D01*
X331497Y129932D01*
X331518Y130056D01*
X331559Y130181D01*
X331601Y130369D01*
X331643Y130494D01*
X331684Y130577D01*
X331705Y130619D01*
X333163Y129536D02*
X333205Y129223D01*
X333121Y129827D02*
X333163Y129536D01*
X333080Y130098D02*
X333121Y129827D01*
X333038Y130348D02*
X333080Y130098D01*
X333017Y130577D02*
X333038Y130348D01*
X332976Y130765D02*
X333017Y130577D01*
X332955Y130952D02*
X332976Y130765D01*
X332913Y131119D02*
X332955Y130952D01*
X332830Y131556D02*
X332872Y131369D01*
X332809Y131660D02*
X332830Y131556D01*
X330122Y129702D02*
X330351Y130681D01*
X337746Y129494D02*
X337788Y129244D01*
X337684Y129702D02*
X337746Y129494D01*
X337621Y129890D02*
X337684Y129702D01*
X337559Y130036D02*
X337621Y129890D01*
X337496Y130161D02*
X337559Y130036D01*
X337434Y130265D02*
X337496Y130161D01*
X337371Y130348D02*
X337434Y130265D01*
X337309Y130390D02*
X337371Y130348D01*
X337205Y130473D02*
X337309Y130390D01*
X337121Y130494D02*
X337205Y130473D01*
X337100Y130494D02*
X337121D01*
X336892Y130411D02*
X336996Y130473D01*
X336808Y130327D02*
X336892Y130411D01*
X336746Y130202D02*
X336808Y130327D01*
X336663Y130056D02*
X336746Y130202D01*
X336996Y130473D02*
X337100Y130494D01*
X336600Y129911D02*
X336663Y130056D01*
X332809Y131660D02*
Y131702D01*
X330351Y130681D02*
X330601Y131681D01*
X336392Y128932D02*
X336413Y129077D01*
X331976Y129140D02*
X332080Y128390D01*
X331267Y128869D02*
X331310Y129119D01*
X333205Y129223D02*
X333267Y128869D01*
X329914Y128703D02*
X330122Y129702D01*
X337788Y129244D02*
X337829Y128973D01*
X316957Y119329D02*
Y120620D01*
Y119329D02*
X332913D01*
X316957Y120620D02*
X328727D01*
X339100D02*
X339599Y128057D01*
X334913Y112455D02*
X335517Y119329D01*
X334267D02*
X334913Y112455D01*
X337516Y119329D02*
X338162Y111414D01*
X335829Y110330D02*
X336684Y119329D01*
X338808Y116017D02*
X339037Y119329D01*
X340266D02*
X340662Y112684D01*
X339350Y111414D02*
X339912Y119329D01*
X341704Y112684D02*
X342162Y119204D01*
X342558Y113038D01*
X343349D02*
X343724Y117996D01*
X344057Y113788D01*
X338558Y119329D02*
X338808Y116017D01*
X333101Y117475D02*
X333184Y116621D01*
X349828Y115788D02*
X356889Y119329D01*
X356993Y120620D02*
X378004D01*
X356889Y119329D02*
X378004D01*
D11*
X380691Y119975D02*
G03*
X380691Y119975I-900J0D01*
G01*
X378891D02*
X380691D01*
X379791Y119074D02*
Y120875D01*
D12*
X608268Y124016D02*
G03*
X608268Y124016I-49213J0D01*
G01*
X228346Y65945D02*
G03*
X228346Y65945I-49213J0D01*
G01*
X229331Y180118D02*
G03*
X229331Y180118I-49213J0D01*
G01*
X482087Y787D02*
Y244882D01*
X286417Y237008D02*
Y244882D01*
X482087D01*
X286417Y237008D02*
X286417Y787D01*
X482087D01*
X301181Y169860D02*
X470472Y169860D01*
Y77972D02*
Y169860D01*
X301181Y77972D02*
X470472Y77972D01*
X301181D02*
Y169860D01*
X515551Y14291D02*
Y36142D01*
X573032Y14291D02*
Y36142D01*
X530020Y14291D02*
X558465D01*
X515551Y36142D02*
X573032D01*
X558465Y14291D02*
X573032D01*
X515551D02*
X530020D01*
X581693Y11811D02*
Y27559D01*
X587598D01*
Y11811D02*
Y27559D01*
X581693Y11811D02*
X587598D01*
X236221Y131496D02*
X256693D01*
Y111417D02*
Y131496D01*
X236221Y111417D02*
X256693D01*
X236221D02*
Y131496D01*
X13504Y167717D02*
Y182794D01*
X34370D01*
X13504Y139195D02*
X34370D01*
Y182794D01*
X13504Y139195D02*
Y171653D01*
X10630Y17717D02*
X35433D01*
Y122441D01*
X10630D02*
X35433D01*
X10630Y17717D02*
Y122441D01*
X503451Y225904D02*
Y231902D01*
X505450Y229903D01*
X507450Y231902D01*
Y225904D01*
X513448Y230902D02*
X512448Y231902D01*
X510449D01*
X509449Y230902D01*
Y229903D01*
X510449Y228903D01*
X512448D01*
X513448Y227903D01*
Y226904D01*
X512448Y225904D01*
X510449D01*
X509449Y226904D01*
X515447Y231902D02*
X519446Y225904D01*
Y231902D02*
X515447Y225904D01*
X521445Y231902D02*
X523445D01*
X522445D01*
Y225904D01*
X521445D01*
X523445D01*
X526444Y231902D02*
Y227903D01*
X528443Y225904D01*
X530442Y227903D01*
Y231902D01*
X538440D02*
Y225904D01*
X541439D01*
X542439Y226904D01*
Y230902D01*
X541439Y231902D01*
X538440D01*
X548437Y230902D02*
X547437Y231902D01*
X545438D01*
X544438Y230902D01*
Y226904D01*
X545438Y225904D01*
X547437D01*
X548437Y226904D01*
X550436Y228903D02*
X554435D01*
X556434Y231902D02*
Y225904D01*
X559433D01*
X560433Y226904D01*
Y230902D01*
X559433Y231902D01*
X556434D01*
X566431Y230902D02*
X565431Y231902D01*
X563432D01*
X562432Y230902D01*
Y226904D01*
X563432Y225904D01*
X565431D01*
X566431Y226904D01*
X512948Y221305D02*
X511948Y222304D01*
X509949D01*
X508949Y221305D01*
Y217306D01*
X509949Y216306D01*
X511948D01*
X512948Y217306D01*
X517946Y222304D02*
X515947D01*
X514947Y221305D01*
Y217306D01*
X515947Y216306D01*
X517946D01*
X518946Y217306D01*
Y221305D01*
X517946Y222304D01*
X520946Y216306D02*
Y222304D01*
X524944Y216306D01*
Y222304D01*
X526943D02*
Y218306D01*
X528943Y216306D01*
X530942Y218306D01*
Y222304D01*
X536940D02*
X532942D01*
Y216306D01*
X536940D01*
X532942Y219305D02*
X534941D01*
X538940Y216306D02*
Y222304D01*
X541939D01*
X542938Y221305D01*
Y219305D01*
X541939Y218306D01*
X538940D01*
X540939D02*
X542938Y216306D01*
X544938Y222304D02*
X548936D01*
X546937D01*
Y216306D01*
X554935Y222304D02*
X550936D01*
Y216306D01*
X554935D01*
X550936Y219305D02*
X552935D01*
X556934Y216306D02*
Y222304D01*
X559933D01*
X560932Y221305D01*
Y219305D01*
X559933Y218306D01*
X556934D01*
X558933D02*
X560932Y216306D01*
X515947Y206709D02*
Y212707D01*
X518946D01*
X519946Y211707D01*
Y209708D01*
X518946Y208708D01*
X515947D01*
X517946D02*
X519946Y206709D01*
X525944Y212707D02*
X521945D01*
Y206709D01*
X525944D01*
X521945Y209708D02*
X523945D01*
X527943Y212707D02*
Y208708D01*
X529943Y206709D01*
X531942Y208708D01*
Y212707D01*
X539939Y206709D02*
X541939D01*
X540939D01*
Y212707D01*
X539939Y211707D01*
X544938Y206709D02*
Y207708D01*
X545937D01*
Y206709D01*
X544938D01*
X549936Y211707D02*
X550936Y212707D01*
X552935D01*
X553935Y211707D01*
Y207708D01*
X552935Y206709D01*
X550936D01*
X549936Y207708D01*
Y211707D01*
X558074Y58087D02*
Y71206D01*
X551514Y64646D02*
X564634D01*
X179721Y245260D02*
Y232141D01*
X186281Y238700D02*
X173162D01*
X180121Y1984D02*
Y15103D01*
X173562Y8544D02*
X186681D01*
X44747Y239906D02*
X43747Y240906D01*
X41748D01*
X40748Y239906D01*
Y235908D01*
X41748Y234908D01*
X43747D01*
X44747Y235908D01*
X46746Y234908D02*
Y238907D01*
X48745Y240906D01*
X50745Y238907D01*
Y234908D01*
Y237907D01*
X46746D01*
X52744Y240906D02*
Y235908D01*
X53744Y234908D01*
X55743D01*
X56743Y235908D01*
Y240906D01*
X58742D02*
X62741D01*
X60742D01*
Y234908D01*
X64740Y240906D02*
X66740D01*
X65740D01*
Y234908D01*
X64740D01*
X66740D01*
X72738Y240906D02*
X70738D01*
X69739Y239906D01*
Y235908D01*
X70738Y234908D01*
X72738D01*
X73737Y235908D01*
Y239906D01*
X72738Y240906D01*
X75737Y234908D02*
Y240906D01*
X79735Y234908D01*
Y240906D01*
X40748Y231308D02*
Y225310D01*
Y228309D01*
X44747D01*
Y231308D01*
Y225310D01*
X46746Y231308D02*
X48745D01*
X47746D01*
Y225310D01*
X46746D01*
X48745D01*
X55743Y230309D02*
X54743Y231308D01*
X52744D01*
X51745Y230309D01*
Y226310D01*
X52744Y225310D01*
X54743D01*
X55743Y226310D01*
Y228309D01*
X53744D01*
X57743Y231308D02*
Y225310D01*
Y228309D01*
X61741D01*
Y231308D01*
Y225310D01*
X69739Y231308D02*
Y227309D01*
X71738Y225310D01*
X73737Y227309D01*
Y231308D01*
X78736D02*
X76736D01*
X75737Y230309D01*
Y226310D01*
X76736Y225310D01*
X78736D01*
X79735Y226310D01*
Y230309D01*
X78736Y231308D01*
X81735D02*
Y225310D01*
X85733D01*
X87733Y231308D02*
X91732D01*
X89732D01*
Y225310D01*
X93731D02*
Y229309D01*
X95730Y231308D01*
X97730Y229309D01*
Y225310D01*
Y228309D01*
X93731D01*
X103728Y230309D02*
X102728Y231308D01*
X100729D01*
X99729Y230309D01*
Y226310D01*
X100729Y225310D01*
X102728D01*
X103728Y226310D01*
Y228309D01*
X101728D01*
X109726Y231308D02*
X105727D01*
Y225310D01*
X109726D01*
X105727Y228309D02*
X107726D01*
X40748Y215712D02*
X42747D01*
X41748D01*
Y221710D01*
X40748Y220711D01*
X45746Y215712D02*
X47746D01*
X46746D01*
Y221710D01*
X45746Y220711D01*
X54743Y221710D02*
X50745D01*
Y218711D01*
X52744Y219711D01*
X53744D01*
X54743Y218711D01*
Y216712D01*
X53744Y215712D01*
X51745D01*
X50745Y216712D01*
X62741Y221710D02*
Y217712D01*
X64740Y215712D01*
X66740Y217712D01*
Y221710D01*
X68739D02*
Y215712D01*
X71738D01*
X72738Y216712D01*
Y220711D01*
X71738Y221710D01*
X68739D01*
X78736Y220711D02*
X77736Y221710D01*
X75737D01*
X74737Y220711D01*
Y216712D01*
X75737Y215712D01*
X77736D01*
X78736Y216712D01*
X527500Y9998D02*
X528500Y10998D01*
X530499D01*
X531499Y9998D01*
Y8999D01*
X530499Y7999D01*
X529499D01*
X530499D01*
X531499Y6999D01*
Y6000D01*
X530499Y5000D01*
X528500D01*
X527500Y6000D01*
X533498Y10998D02*
Y6999D01*
X535497Y5000D01*
X537497Y6999D01*
Y10998D01*
X547244Y10919D02*
X551243D01*
X549243D01*
Y4921D01*
X557241Y10919D02*
X553242D01*
Y4921D01*
X557241D01*
X553242Y7920D02*
X555241D01*
X559240Y4921D02*
Y10919D01*
X561240Y8920D01*
X563239Y10919D01*
Y4921D01*
X565238D02*
Y10919D01*
X568237D01*
X569237Y9920D01*
Y7920D01*
X568237Y6921D01*
X565238D01*
X575787Y63038D02*
X579786D01*
X577787Y65038D02*
Y61039D01*
X584785Y66037D02*
X582785D01*
X581785Y65038D01*
Y61039D01*
X582785Y60039D01*
X584785D01*
X585784Y61039D01*
Y65038D01*
X584785Y66037D01*
X587783D02*
Y61039D01*
X588783Y60039D01*
X590782D01*
X591782Y61039D01*
Y66037D01*
X593782D02*
X597780D01*
X595781D01*
Y60039D01*
X577756Y222487D02*
X581755D01*
X586753Y225486D02*
X584754D01*
X583754Y224487D01*
Y220488D01*
X584754Y219488D01*
X586753D01*
X587753Y220488D01*
Y224487D01*
X586753Y225486D01*
X589752D02*
Y220488D01*
X590752Y219488D01*
X592751D01*
X593751Y220488D01*
Y225486D01*
X595750D02*
X599749D01*
X597749D01*
Y219488D01*
X13780Y188038D02*
X17778D01*
X19778Y191037D02*
X21777D01*
X20777D01*
Y185039D01*
X19778D01*
X21777D01*
X24776D02*
Y191037D01*
X28775Y185039D01*
Y191037D01*
X12795Y130952D02*
X16794D01*
X14795Y132951D02*
Y128952D01*
X18793Y133951D02*
X20793D01*
X19793D01*
Y127953D01*
X18793D01*
X20793D01*
X23792D02*
Y133951D01*
X27790Y127953D01*
Y133951D01*
X4921Y199896D02*
Y193898D01*
Y196897D01*
X8920D01*
Y199896D01*
Y193898D01*
X10919Y199896D02*
Y195897D01*
X12919Y193898D01*
X14918Y195897D01*
Y199896D01*
X22915D02*
X24915D01*
X23915D01*
Y193898D01*
X22915D01*
X24915D01*
X27914D02*
Y199896D01*
X31912Y193898D01*
Y199896D01*
X235550Y136200D02*
Y142198D01*
X238549D01*
X239549Y141198D01*
Y139199D01*
X238549Y138199D01*
X235550D01*
X241548Y136200D02*
X243547D01*
X242548D01*
Y142198D01*
X241548Y141198D01*
X29589Y13872D02*
X25591D01*
Y10873D01*
X27590D01*
X25591D01*
Y7874D01*
X31589D02*
X33588D01*
X32588D01*
Y13872D01*
X31589Y12872D01*
X611221Y93597D02*
Y87598D01*
X615219D01*
X617218D02*
X619218D01*
X618218D01*
Y93597D01*
X617218Y92597D01*
X273622Y241825D02*
Y236826D01*
X274622Y235827D01*
X276621D01*
X277621Y236826D01*
Y241825D01*
X283619Y235827D02*
X279620D01*
X283619Y239826D01*
Y240825D01*
X282619Y241825D01*
X280620D01*
X279620Y240825D01*
X258858Y32480D02*
X252860D01*
Y35479D01*
X253860Y36479D01*
X255859D01*
X256859Y35479D01*
Y32480D01*
Y34480D02*
X258858Y36479D01*
Y38478D02*
Y40478D01*
Y39478D01*
X252860D01*
X253860Y38478D01*
X258858Y43477D02*
Y45476D01*
Y44476D01*
X252860D01*
X253860Y43477D01*
X631398Y76181D02*
Y82179D01*
X634397D01*
X635396Y81179D01*
Y79180D01*
X634397Y78180D01*
X631398D01*
X633397D02*
X635396Y76181D01*
X637396Y82179D02*
X641394D01*
Y81179D01*
X637396Y77181D01*
Y76181D01*
X244094Y34449D02*
X238096D01*
Y37448D01*
X239096Y38447D01*
X241095D01*
X242095Y37448D01*
Y34449D01*
Y36448D02*
X244094Y38447D01*
X238096Y44446D02*
X239096Y42446D01*
X241095Y40447D01*
X243095D01*
X244094Y41447D01*
Y43446D01*
X243095Y44446D01*
X242095D01*
X241095Y43446D01*
Y40447D01*
X235459Y215100D02*
Y209102D01*
X239457D01*
X245455D02*
X241457D01*
X245455Y213100D01*
Y214100D01*
X244456Y215100D01*
X242456D01*
X241457Y214100D01*
X606361Y241234D02*
X604361D01*
X605361D01*
Y236236D01*
X604361Y235236D01*
X603362D01*
X602362Y236236D01*
X612359Y235236D02*
X608360D01*
X612359Y239235D01*
Y240235D01*
X611359Y241234D01*
X609360D01*
X608360Y240235D01*
X608329Y81786D02*
X606330D01*
X607330D01*
Y76787D01*
X606330Y75787D01*
X605330D01*
X604331Y76787D01*
X610329Y75787D02*
X612328D01*
X611328D01*
Y81786D01*
X610329Y80786D01*
X130828Y109314D02*
X129829Y108314D01*
Y106315D01*
X130828Y105315D01*
X134827D01*
X135827Y106315D01*
Y108314D01*
X134827Y109314D01*
X135827Y115312D02*
Y111313D01*
X131828Y115312D01*
X130828D01*
X129829Y114312D01*
Y112313D01*
X130828Y111313D01*
Y117311D02*
X129829Y118311D01*
Y120310D01*
X130828Y121310D01*
X134827D01*
X135827Y120310D01*
Y118311D01*
X134827Y117311D01*
X130828D01*
X265810Y53227D02*
X264810Y54226D01*
X262811D01*
X261811Y53227D01*
Y49228D01*
X262811Y48228D01*
X264810D01*
X265810Y49228D01*
X267809Y48228D02*
X269808D01*
X268809D01*
Y54226D01*
X267809Y53227D01*
X272808Y54226D02*
X276806D01*
Y53227D01*
X272808Y49228D01*
Y48228D01*
X37915Y165022D02*
X36915Y164023D01*
Y162023D01*
X37915Y161024D01*
X41914D01*
X42913Y162023D01*
Y164023D01*
X41914Y165022D01*
X42913Y167022D02*
Y169021D01*
Y168021D01*
X36915D01*
X37915Y167022D01*
X36915Y176019D02*
X37915Y174019D01*
X39914Y172020D01*
X41914D01*
X42913Y173020D01*
Y175019D01*
X41914Y176019D01*
X40914D01*
X39914Y175019D01*
Y172020D01*
X511599Y183198D02*
X510599Y184198D01*
X508600D01*
X507600Y183198D01*
Y179200D01*
X508600Y178200D01*
X510599D01*
X511599Y179200D01*
X513598Y178200D02*
X515597D01*
X514598D01*
Y184198D01*
X513598Y183198D01*
X522595Y184198D02*
X518596D01*
Y181199D01*
X520596Y182199D01*
X521595D01*
X522595Y181199D01*
Y179200D01*
X521595Y178200D01*
X519596D01*
X518596Y179200D01*
X248684Y102243D02*
X247684Y103242D01*
X245685D01*
X244685Y102243D01*
Y98244D01*
X245685Y97244D01*
X247684D01*
X248684Y98244D01*
X250683Y97244D02*
X252682D01*
X251683D01*
Y103242D01*
X250683Y102243D01*
X258681Y97244D02*
Y103242D01*
X255681Y100243D01*
X259680D01*
X133723Y239054D02*
X132723Y240053D01*
X130724D01*
X129724Y239054D01*
Y235055D01*
X130724Y234055D01*
X132723D01*
X133723Y235055D01*
X135722Y234055D02*
X137722D01*
X136722D01*
Y240053D01*
X135722Y239054D01*
X144720Y234055D02*
X140721D01*
X144720Y238054D01*
Y239054D01*
X143720Y240053D01*
X141720D01*
X140721Y239054D01*
X131558Y11888D02*
X130558Y12888D01*
X128559D01*
X127559Y11888D01*
Y7889D01*
X128559Y6890D01*
X130558D01*
X131558Y7889D01*
X133557Y6890D02*
X135556D01*
X134557D01*
Y12888D01*
X133557Y11888D01*
X138556Y6890D02*
X140555D01*
X139555D01*
Y12888D01*
X138556Y11888D01*
X587598Y31496D02*
X581600D01*
Y34495D01*
X582600Y35495D01*
X584599D01*
X585599Y34495D01*
Y31496D01*
Y33495D02*
X587598Y35495D01*
X581600Y37494D02*
Y41493D01*
Y39494D01*
X587598D01*
Y47491D02*
Y43492D01*
X583600Y47491D01*
X582600D01*
X581600Y46491D01*
Y44492D01*
X582600Y43492D01*
X284449Y33465D02*
X278451D01*
Y36464D01*
X279450Y37463D01*
X281450D01*
X282450Y36464D01*
Y33465D01*
Y35464D02*
X284449Y37463D01*
Y39463D02*
Y41462D01*
Y40462D01*
X278451D01*
X279450Y39463D01*
X284449Y48460D02*
Y44461D01*
X280450Y48460D01*
X279450D01*
X278451Y47460D01*
Y45461D01*
X279450Y44461D01*
X240158Y3937D02*
X234159D01*
Y6936D01*
X235159Y7936D01*
X237158D01*
X238158Y6936D01*
Y3937D01*
Y5936D02*
X240158Y7936D01*
Y9935D02*
Y11934D01*
Y10935D01*
X234159D01*
X235159Y9935D01*
Y14933D02*
X234159Y15933D01*
Y17932D01*
X235159Y18932D01*
X239158D01*
X240158Y17932D01*
Y15933D01*
X239158Y14933D01*
X235159D01*
X267717Y33465D02*
X261719D01*
Y36464D01*
X262718Y37463D01*
X264718D01*
X265717Y36464D01*
Y33465D01*
Y35464D02*
X267717Y37463D01*
X266717Y39463D02*
X267717Y40462D01*
Y42462D01*
X266717Y43461D01*
X262718D01*
X261719Y42462D01*
Y40462D01*
X262718Y39463D01*
X263718D01*
X264718Y40462D01*
Y43461D01*
X250000Y7874D02*
X244002D01*
Y10873D01*
X245002Y11873D01*
X247001D01*
X248001Y10873D01*
Y7874D01*
Y9873D02*
X250000Y11873D01*
X245002Y13872D02*
X244002Y14872D01*
Y16871D01*
X245002Y17871D01*
X246001D01*
X247001Y16871D01*
X248001Y17871D01*
X249000D01*
X250000Y16871D01*
Y14872D01*
X249000Y13872D01*
X248001D01*
X247001Y14872D01*
X246001Y13872D01*
X245002D01*
X247001Y14872D02*
Y16871D01*
X504921Y59055D02*
Y65053D01*
X507920D01*
X508920Y64053D01*
Y62054D01*
X507920Y61054D01*
X504921D01*
X514918Y65053D02*
X512919Y64053D01*
X510919Y62054D01*
Y60055D01*
X511919Y59055D01*
X513918D01*
X514918Y60055D01*
Y61054D01*
X513918Y62054D01*
X510919D01*
X37402Y183071D02*
Y189069D01*
X40401D01*
X41400Y188069D01*
Y186070D01*
X40401Y185070D01*
X37402D01*
X47398Y189069D02*
X43400D01*
Y186070D01*
X45399Y187070D01*
X46399D01*
X47398Y186070D01*
Y184071D01*
X46399Y183071D01*
X44399D01*
X43400Y184071D01*
X223333Y8858D02*
X229331D01*
Y12857D01*
X223333Y18855D02*
Y14856D01*
X229331D01*
Y18855D01*
X226332Y14856D02*
Y16856D01*
X223333Y20854D02*
X229331D01*
Y23853D01*
X228331Y24853D01*
X224332D01*
X223333Y23853D01*
Y20854D01*
X224332Y26852D02*
X223333Y27852D01*
Y29851D01*
X224332Y30851D01*
X225332D01*
X226332Y29851D01*
Y28852D01*
Y29851D01*
X227331Y30851D01*
X228331D01*
X229331Y29851D01*
Y27852D01*
X228331Y26852D01*
X52227Y166416D02*
X51227Y167415D01*
X49228D01*
X48228Y166416D01*
Y162417D01*
X49228Y161417D01*
X51227D01*
X52227Y162417D01*
X54226Y161417D02*
Y167415D01*
X56226Y165416D01*
X58225Y167415D01*
Y161417D01*
X64223Y166416D02*
X63223Y167415D01*
X61224D01*
X60224Y166416D01*
Y162417D01*
X61224Y161417D01*
X63223D01*
X64223Y162417D01*
X66223Y161417D02*
X68222D01*
X67222D01*
Y167415D01*
X66223Y166416D01*
X489096Y8920D02*
X488096Y7920D01*
Y5921D01*
X489096Y4921D01*
X493095D01*
X494095Y5921D01*
Y7920D01*
X493095Y8920D01*
X494095Y14918D02*
Y10919D01*
X490096Y14918D01*
X489096D01*
X488096Y13918D01*
Y11919D01*
X489096Y10919D01*
Y16917D02*
X488096Y17917D01*
Y19916D01*
X489096Y20916D01*
X490096D01*
X491095Y19916D01*
Y18917D01*
Y19916D01*
X492095Y20916D01*
X493095D01*
X494095Y19916D01*
Y17917D01*
X493095Y16917D01*
X648545Y157542D02*
X647545Y156542D01*
Y154543D01*
X648545Y153543D01*
X652544D01*
X653543Y154543D01*
Y156542D01*
X652544Y157542D01*
X653543Y163540D02*
Y159541D01*
X649545Y163540D01*
X648545D01*
X647545Y162540D01*
Y160541D01*
X648545Y159541D01*
X653543Y169538D02*
Y165539D01*
X649545Y169538D01*
X648545D01*
X647545Y168538D01*
Y166539D01*
X648545Y165539D01*
X270592Y15810D02*
X269592Y14810D01*
Y12811D01*
X270592Y11811D01*
X274591D01*
X275590Y12811D01*
Y14810D01*
X274591Y15810D01*
X275590Y21808D02*
Y17809D01*
X271592Y21808D01*
X270592D01*
X269592Y20808D01*
Y18809D01*
X270592Y17809D01*
X275590Y23807D02*
Y25806D01*
Y24807D01*
X269592D01*
X270592Y23807D01*
X492049Y182148D02*
X491049Y181149D01*
Y179149D01*
X492049Y178150D01*
X496048D01*
X497047Y179149D01*
Y181149D01*
X496048Y182148D01*
X497047Y184148D02*
Y186147D01*
Y185147D01*
X491049D01*
X492049Y184148D01*
X496048Y189146D02*
X497047Y190146D01*
Y192145D01*
X496048Y193145D01*
X492049D01*
X491049Y192145D01*
Y190146D01*
X492049Y189146D01*
X493048D01*
X494048Y190146D01*
Y193145D01*
X266794Y71927D02*
X265794Y72927D01*
X263795D01*
X262795Y71927D01*
Y67929D01*
X263795Y66929D01*
X265794D01*
X266794Y67929D01*
X268793Y66929D02*
X270793D01*
X269793D01*
Y72927D01*
X268793Y71927D01*
X273792D02*
X274791Y72927D01*
X276791D01*
X277790Y71927D01*
Y70928D01*
X276791Y69928D01*
X277790Y68928D01*
Y67929D01*
X276791Y66929D01*
X274791D01*
X273792Y67929D01*
Y68928D01*
X274791Y69928D01*
X273792Y70928D01*
Y71927D01*
X274791Y69928D02*
X276791D01*
X610298Y169369D02*
X609298Y170368D01*
X607299D01*
X606299Y169369D01*
Y165370D01*
X607299Y164370D01*
X609298D01*
X610298Y165370D01*
X612297Y164370D02*
X614297D01*
X613297D01*
Y170368D01*
X612297Y169369D01*
X617296D02*
X618295Y170368D01*
X620295D01*
X621294Y169369D01*
Y168369D01*
X620295Y167369D01*
X619295D01*
X620295D01*
X621294Y166369D01*
Y165370D01*
X620295Y164370D01*
X618295D01*
X617296Y165370D01*
X492049Y62070D02*
X491049Y61070D01*
Y59071D01*
X492049Y58071D01*
X496048D01*
X497047Y59071D01*
Y61070D01*
X496048Y62070D01*
X497047Y64069D02*
Y66068D01*
Y65069D01*
X491049D01*
X492049Y64069D01*
Y69067D02*
X491049Y70067D01*
Y72066D01*
X492049Y73066D01*
X496048D01*
X497047Y72066D01*
Y70067D01*
X496048Y69067D01*
X492049D01*
X266794Y180195D02*
X265794Y181195D01*
X263795D01*
X262795Y180195D01*
Y176197D01*
X263795Y175197D01*
X265794D01*
X266794Y176197D01*
X268793D02*
X269793Y175197D01*
X271792D01*
X272792Y176197D01*
Y180195D01*
X271792Y181195D01*
X269793D01*
X268793Y180195D01*
Y179196D01*
X269793Y178196D01*
X272792D01*
D13*
X642913Y139616D02*
Y160630D01*
X634154D02*
X642913D01*
X616929D02*
X625689D01*
X616929Y139616D02*
Y160630D01*
X634154Y134646D02*
X637943D01*
X642913Y139616D01*
X616929D02*
X621900Y134646D01*
X625689D01*
X625591Y120512D02*
X637402D01*
X625591Y94449D02*
X637402D01*
X135433Y131496D02*
Y133858D01*
X129134Y131496D02*
Y133858D01*
X126221Y88622D02*
Y158622D01*
X46220D02*
X126221D01*
X46220Y88622D02*
X126221D01*
X46220D02*
Y158622D01*
X43307Y148425D02*
Y150787D01*
X37008Y148425D02*
Y150787D01*
X240945Y48819D02*
X249606D01*
X240945Y69291D02*
X249606D01*
X241535Y73622D02*
X250197D01*
X241535Y94095D02*
X250197D01*
X259252Y184843D02*
Y205217D01*
X235433Y184843D02*
Y205217D01*
X242225D01*
X235433Y184843D02*
X242225D01*
X251279D02*
X259252D01*
X251181Y205217D02*
X259154D01*
D14*
X232413Y20931D02*
X235997D01*
M02*
