M48
;Layer_Color=9474304
;FILE_FORMAT=2:5
INCH,TZ
;TYPE=PLATED
T1F00S00C0.01772
T2F00S00C0.02559
T3F00S00C0.02800
T4F00S00C0.04016
T5F00S00C0.05000
T6F00S00C0.05906
T7F00S00C0.05984
T8F00S00C0.06299
T9F00S00C0.07992
T10F00S00C0.08268
T11F00S00C0.09055
T12F00S00C0.09055
T13F00S00C0.09055
T14F00S00C0.09449
T15F00S00C0.10630
T16F00S00C0.11614
T17F00S00C0.11811
T18F00S00C0.13780
;TYPE=NON_PLATED
T19F00S00C0.12205
%
T01
X584646Y14764
Y24606
T02
X494095Y78740
Y118110
Y129921
X274606
Y118110
Y78740
Y169291
X494095
T03
X248031Y15748
X277559Y8858
T04
X530512Y24606
X544291
X558071
X22835Y153937
Y167717
T05
X471250Y11000
X491250
X511250
X531250
Y51000
X551250
X571250
Y71000
X551250
X531250
X511250Y51000
X491250
X471250Y31000
X591250Y131000
Y151000
X611250
X431250
X411250
Y111000
X431250
Y91000
X411250
X370500Y93200
Y113200
X350500
Y93200
Y53200
Y33200
X370500
Y13200
X350500
X330500
Y33200
X310500
Y13200
X411250Y11000
X431250
X451250
Y31000
X431250
X411250
X370500Y153200
X350500
X330500
X290500Y113200
Y93200
X270500
Y53200
X230500Y13200
X210500
X190500
X170500
X150500
X210500Y73200
Y93200
Y113200
Y133200
Y153200
X190800Y131900
X190500Y113200
X170500
X170100Y132200
X150500Y133200
Y153200
X130500
Y13200
X110500
Y233200
X130500
X150500
X170500
X190500
X210500
X230500
X250500
X270500
X290500
Y213200
X310500
X330500
X350500
X370500
Y233200
X350500
X330500
X310500
X411250Y231000
X431250
X451250
Y211000
X431250
X411250
X471250
X491250
X511250
X531250
X551250
X571250
X591250
Y231000
X571250
X551250
X531250
X511250
X491250
X471250
X491250Y191000
X511250
X531250
X551250
X571250
X591250
Y171000
X571250
X551250
X531250
X511250
X471250
T06
X23228Y25591
X23228Y114567
T07
X311024Y108268
Y118583
Y129449
T08
X616142Y23307
Y33307
Y43307
Y53307
X626142
X636142
X646142
Y63307
X636142
X626142
X616142
X626142Y43307
X636142
X646142
Y33307
Y23307
X636142
Y33307
X626142
Y23307
X606142
Y33307
Y43307
Y53307
Y63307
X606968Y183740
Y193740
Y203740
Y213740
Y223740
X616968
X626968
X636969
X646969
Y213740
Y203740
X636969
Y193740
Y183740
X626968
X616968
Y193740
X626968
Y203740
X616968
Y213740
X626968
X636969
X646969Y193740
Y183740
T09
X458661Y91535
Y113189
Y134843
Y156496
X311024Y155512
Y92520
T10
X354488Y69016
X415197Y179016
T11
X567913Y27087
T12
X25315Y144095
Y177559
T13
X520669Y27087
T14
X559055Y104331
Y143701
X180118Y160433
X179134Y85630
Y46260
X180118Y199803
T15
X648622Y7874
X8858Y8858
Y239173
X648622Y240158
T16
X320000Y69016
X371063
X449685
Y179016
X398622
X320000
T17
X463583Y58661
X392717Y61024
X306102Y58661
Y189370
X376969Y187008
X463583Y189370
T18
X337598Y65827
X406496
X432087
Y182205
X363189
X337598
T19
X320000Y69016
M30
