G04*
G04 #@! TF.GenerationSoftware,Altium Limited,Altium Designer,18.1.7 (191)*
G04*
G04 Layer_Physical_Order=2*
G04 Layer_Color=16711680*
%FSLAX25Y25*%
%MOIN*%
G70*
G01*
G75*
%ADD10C,0.01000*%
G04:AMPARAMS|DCode=17|XSize=23.62mil|YSize=78.74mil|CornerRadius=5.91mil|HoleSize=0mil|Usage=FLASHONLY|Rotation=270.000|XOffset=0mil|YOffset=0mil|HoleType=Round|Shape=RoundedRectangle|*
%AMROUNDEDRECTD17*
21,1,0.02362,0.06693,0,0,270.0*
21,1,0.01181,0.07874,0,0,270.0*
1,1,0.01181,-0.03347,-0.00591*
1,1,0.01181,-0.03347,0.00591*
1,1,0.01181,0.03347,0.00591*
1,1,0.01181,0.03347,-0.00591*
%
%ADD17ROUNDEDRECTD17*%
%ADD18R,0.07874X0.02362*%
%ADD19R,0.03543X0.03937*%
%ADD44C,0.10630*%
%ADD45C,0.02362*%
G36*
X235099Y1122D02*
X728D01*
Y235493D01*
X235099D01*
Y1122D01*
D02*
G37*
%LPC*%
G36*
X226378Y232322D02*
X225218Y232207D01*
X224103Y231869D01*
X223076Y231320D01*
X222175Y230581D01*
X221436Y229680D01*
X220887Y228653D01*
X220549Y227537D01*
X220434Y226378D01*
X220549Y225218D01*
X220887Y224103D01*
X221436Y223076D01*
X222175Y222175D01*
X223076Y221436D01*
X224103Y220887D01*
X225218Y220549D01*
X226378Y220434D01*
X227537Y220549D01*
X228653Y220887D01*
X229680Y221436D01*
X230581Y222175D01*
X231320Y223076D01*
X231869Y224103D01*
X232207Y225218D01*
X232322Y226378D01*
X232207Y227537D01*
X231869Y228653D01*
X231320Y229680D01*
X230581Y230581D01*
X229680Y231320D01*
X228653Y231869D01*
X227537Y232207D01*
X226378Y232322D01*
D02*
G37*
G36*
X9843D02*
X8683Y232207D01*
X7568Y231869D01*
X6540Y231320D01*
X5640Y230581D01*
X4901Y229680D01*
X4351Y228653D01*
X4013Y227537D01*
X3899Y226378D01*
X4013Y225218D01*
X4351Y224103D01*
X4901Y223076D01*
X5640Y222175D01*
X6540Y221436D01*
X7568Y220887D01*
X8683Y220549D01*
X9843Y220434D01*
X11002Y220549D01*
X12117Y220887D01*
X13145Y221436D01*
X14045Y222175D01*
X14784Y223076D01*
X15334Y224103D01*
X15672Y225218D01*
X15786Y226378D01*
X15672Y227537D01*
X15334Y228653D01*
X14784Y229680D01*
X14045Y230581D01*
X13145Y231320D01*
X12117Y231869D01*
X11002Y232207D01*
X9843Y232322D01*
D02*
G37*
G36*
X83805Y210124D02*
Y208500D01*
X85429D01*
X85360Y208851D01*
X84878Y209573D01*
X84156Y210055D01*
X83805Y210124D01*
D02*
G37*
G36*
X82805D02*
X82454Y210055D01*
X81733Y209573D01*
X81251Y208851D01*
X81181Y208500D01*
X82805D01*
Y210124D01*
D02*
G37*
G36*
X85429Y207500D02*
X83805D01*
Y205876D01*
X84156Y205945D01*
X84878Y206428D01*
X85360Y207149D01*
X85429Y207500D01*
D02*
G37*
G36*
X82805D02*
X81181D01*
X81251Y207149D01*
X81733Y206428D01*
X82454Y205945D01*
X82805Y205876D01*
Y207500D01*
D02*
G37*
G36*
X107500Y148290D02*
Y146666D01*
X109124D01*
X109055Y147017D01*
X108572Y147739D01*
X107851Y148221D01*
X107500Y148290D01*
D02*
G37*
G36*
X106500D02*
X106149Y148221D01*
X105428Y147739D01*
X104946Y147017D01*
X104876Y146666D01*
X106500D01*
Y148290D01*
D02*
G37*
G36*
X171772Y146968D02*
X169500D01*
Y144500D01*
X171772D01*
Y146968D01*
D02*
G37*
G36*
X109124Y145666D02*
X107500D01*
Y144042D01*
X107851Y144111D01*
X108572Y144594D01*
X109055Y145315D01*
X109124Y145666D01*
D02*
G37*
G36*
X106500D02*
X104876D01*
X104946Y145315D01*
X105428Y144594D01*
X106149Y144111D01*
X106500Y144042D01*
Y145666D01*
D02*
G37*
G36*
X171772Y143500D02*
X169500D01*
Y141032D01*
X171772D01*
Y143500D01*
D02*
G37*
G36*
X127000Y147816D02*
X126305Y147678D01*
X125716Y147284D01*
X125322Y146695D01*
X125184Y146000D01*
X125322Y145305D01*
X125716Y144716D01*
X126305Y144322D01*
X127000Y144184D01*
X127695Y144322D01*
X128284Y144716D01*
X128393Y144878D01*
X145528D01*
X146871Y143535D01*
Y138804D01*
X144646D01*
X144181Y138712D01*
X143787Y138449D01*
X143524Y138055D01*
X143432Y137591D01*
Y136409D01*
X143524Y135945D01*
X143787Y135551D01*
X144181Y135288D01*
X144646Y135196D01*
X151339D01*
X151803Y135288D01*
X152197Y135551D01*
X152460Y135945D01*
X152552Y136409D01*
Y137591D01*
X152460Y138055D01*
X152197Y138449D01*
X151803Y138712D01*
X151339Y138804D01*
X149114D01*
Y142878D01*
X161313D01*
Y141431D01*
X165987Y141431D01*
X166228Y141032D01*
X166298Y141032D01*
X166298Y141032D01*
X168500D01*
Y144000D01*
Y146968D01*
X166298D01*
X166298Y146968D01*
X166228D01*
X165987Y146569D01*
X165728Y146569D01*
X161313D01*
Y145122D01*
X148457D01*
X146785Y146793D01*
X146421Y147036D01*
X145992Y147122D01*
X145992Y147122D01*
X128393D01*
X128284Y147284D01*
X127695Y147678D01*
X127000Y147816D01*
D02*
G37*
G36*
X67000Y136816D02*
X66305Y136678D01*
X65716Y136284D01*
X65607Y136122D01*
X62393D01*
X62284Y136284D01*
X61695Y136678D01*
X61000Y136816D01*
X60305Y136678D01*
X59716Y136284D01*
X59322Y135695D01*
X59184Y135000D01*
X59322Y134305D01*
X59716Y133716D01*
X60305Y133322D01*
X61000Y133184D01*
X61695Y133322D01*
X62284Y133716D01*
X62393Y133878D01*
X65607D01*
X65716Y133716D01*
X66305Y133322D01*
X67000Y133184D01*
X67695Y133322D01*
X68284Y133716D01*
X68678Y134305D01*
X68816Y135000D01*
X68678Y135695D01*
X68284Y136284D01*
X67695Y136678D01*
X67000Y136816D01*
D02*
G37*
G36*
X52476Y137124D02*
Y135500D01*
X54101D01*
X54031Y135851D01*
X53549Y136573D01*
X52827Y137055D01*
X52476Y137124D01*
D02*
G37*
G36*
X51476D02*
X51125Y137055D01*
X50404Y136573D01*
X49922Y135851D01*
X49852Y135500D01*
X51476D01*
Y137124D01*
D02*
G37*
G36*
X177000Y140816D02*
X176305Y140678D01*
X175716Y140284D01*
X175322Y139695D01*
X175184Y139000D01*
X175322Y138305D01*
X175716Y137716D01*
X176305Y137322D01*
X177000Y137184D01*
X177192Y137222D01*
X178207Y136207D01*
X178207Y136207D01*
X178571Y135964D01*
X179000Y135878D01*
X179000Y135878D01*
X180463D01*
Y135219D01*
X189537D01*
Y138781D01*
X180463D01*
Y138122D01*
X179465D01*
X178778Y138808D01*
X178816Y139000D01*
X178678Y139695D01*
X178284Y140284D01*
X177695Y140678D01*
X177000Y140816D01*
D02*
G37*
G36*
X54101Y134500D02*
X52476D01*
Y132876D01*
X52827Y132946D01*
X53549Y133428D01*
X54031Y134149D01*
X54101Y134500D01*
D02*
G37*
G36*
X51476D02*
X49852D01*
X49922Y134149D01*
X50404Y133428D01*
X51125Y132946D01*
X51476Y132876D01*
Y134500D01*
D02*
G37*
G36*
X89500Y132124D02*
Y130500D01*
X91124D01*
X91054Y130851D01*
X90573Y131572D01*
X89851Y132054D01*
X89500Y132124D01*
D02*
G37*
G36*
X88500D02*
X88149Y132054D01*
X87428Y131572D01*
X86945Y130851D01*
X86876Y130500D01*
X88500D01*
Y132124D01*
D02*
G37*
G36*
X177000Y133816D02*
X176305Y133678D01*
X175716Y133284D01*
X175322Y132695D01*
X175184Y132000D01*
X175322Y131305D01*
X175716Y130716D01*
X176305Y130322D01*
X177000Y130184D01*
X177695Y130322D01*
X178284Y130716D01*
X178393Y130878D01*
X180577D01*
X180795Y130551D01*
X181189Y130288D01*
X181653Y130196D01*
X188347D01*
X188811Y130288D01*
X189205Y130551D01*
X189468Y130945D01*
X189560Y131409D01*
Y132591D01*
X189468Y133055D01*
X189205Y133449D01*
X188811Y133712D01*
X188347Y133804D01*
X181653D01*
X181189Y133712D01*
X180795Y133449D01*
X180577Y133122D01*
X178393D01*
X178284Y133284D01*
X177695Y133678D01*
X177000Y133816D01*
D02*
G37*
G36*
X91124Y129500D02*
X89500D01*
Y127876D01*
X89851Y127945D01*
X90573Y128428D01*
X91054Y129149D01*
X91124Y129500D01*
D02*
G37*
G36*
X88500D02*
X86876D01*
X86945Y129149D01*
X87428Y128428D01*
X88149Y127945D01*
X88500Y127876D01*
Y129500D01*
D02*
G37*
G36*
X188347Y129212D02*
X185500D01*
Y127500D01*
X189968D01*
Y127591D01*
X189845Y128211D01*
X189493Y128737D01*
X188967Y129089D01*
X188347Y129212D01*
D02*
G37*
G36*
X184500D02*
X181653D01*
X181033Y129089D01*
X180507Y128737D01*
X180155Y128211D01*
X180032Y127591D01*
Y127500D01*
X184500D01*
Y129212D01*
D02*
G37*
G36*
X189968Y126500D02*
X185500D01*
Y124788D01*
X188347D01*
X188967Y124911D01*
X189493Y125263D01*
X189845Y125789D01*
X189968Y126409D01*
Y126500D01*
D02*
G37*
G36*
X184500D02*
X180032D01*
Y126409D01*
X180155Y125789D01*
X180507Y125263D01*
X181033Y124911D01*
X181653Y124788D01*
X184500D01*
Y126500D01*
D02*
G37*
G36*
X141000Y143816D02*
X140305Y143678D01*
X139716Y143284D01*
X139322Y142695D01*
X139184Y142000D01*
X139322Y141305D01*
X139716Y140716D01*
X139878Y140607D01*
Y135955D01*
X139878Y135955D01*
X139964Y135526D01*
X140207Y135162D01*
X143432Y131937D01*
Y131409D01*
X143524Y130945D01*
X143787Y130551D01*
X144181Y130288D01*
X144646Y130196D01*
X150958D01*
X151165Y129696D01*
X150273Y128804D01*
X144646D01*
X144181Y128712D01*
X143787Y128449D01*
X143524Y128055D01*
X143432Y127591D01*
Y126409D01*
X143524Y125945D01*
X143787Y125551D01*
X144181Y125288D01*
X144646Y125196D01*
X151339D01*
X151803Y125288D01*
X152197Y125551D01*
X152460Y125945D01*
X152552Y126409D01*
Y127464D01*
X152610Y127517D01*
X153105Y127299D01*
X153110Y127293D01*
Y125507D01*
X151396Y123793D01*
X151339Y123804D01*
X144646D01*
X144181Y123712D01*
X143787Y123449D01*
X143524Y123055D01*
X143432Y122591D01*
Y121409D01*
X143524Y120945D01*
X143787Y120551D01*
X144181Y120288D01*
X144646Y120196D01*
X151339D01*
X151803Y120288D01*
X152197Y120551D01*
X152460Y120945D01*
X152552Y121409D01*
Y121777D01*
X155024Y124249D01*
X155267Y124613D01*
X155353Y125042D01*
X155353Y125042D01*
Y127485D01*
X165064Y137197D01*
X165695Y137322D01*
X166284Y137716D01*
X166678Y138305D01*
X166816Y139000D01*
X166678Y139695D01*
X166284Y140284D01*
X165695Y140678D01*
X165000Y140816D01*
X164305Y140678D01*
X163716Y140284D01*
X163322Y139695D01*
X163184Y139000D01*
X163269Y138574D01*
X158609Y133914D01*
X158122Y134134D01*
Y136403D01*
X158284Y136511D01*
X158678Y137100D01*
X158816Y137795D01*
X158678Y138490D01*
X158284Y139079D01*
X157695Y139473D01*
X157000Y139611D01*
X156305Y139473D01*
X155716Y139079D01*
X155322Y138490D01*
X155184Y137795D01*
X155322Y137100D01*
X155716Y136511D01*
X155878Y136403D01*
Y134409D01*
X153052Y131583D01*
X152552Y131791D01*
Y132591D01*
X152460Y133055D01*
X152197Y133449D01*
X151803Y133712D01*
X151339Y133804D01*
X144737D01*
X142122Y136420D01*
Y140607D01*
X142284Y140716D01*
X142678Y141305D01*
X142816Y142000D01*
X142678Y142695D01*
X142284Y143284D01*
X141695Y143678D01*
X141000Y143816D01*
D02*
G37*
G36*
X200124Y123816D02*
X199429Y123678D01*
X198840Y123284D01*
X198732Y123122D01*
X198435D01*
X198429Y123126D01*
X198000Y123211D01*
X197571Y123126D01*
X197565Y123122D01*
X189424D01*
X189205Y123449D01*
X188811Y123712D01*
X188347Y123804D01*
X181653D01*
X181189Y123712D01*
X180795Y123449D01*
X180532Y123055D01*
X180440Y122591D01*
Y121409D01*
X180532Y120945D01*
X180795Y120551D01*
X181189Y120288D01*
X181653Y120196D01*
X188347D01*
X188811Y120288D01*
X189205Y120551D01*
X189424Y120878D01*
X197911D01*
X197911Y120878D01*
X198000Y120896D01*
X198089Y120878D01*
X198732D01*
X198840Y120716D01*
X199429Y120322D01*
X200124Y120184D01*
X200819Y120322D01*
X201409Y120716D01*
X201802Y121305D01*
X201940Y122000D01*
X201802Y122695D01*
X201409Y123284D01*
X200819Y123678D01*
X200124Y123816D01*
D02*
G37*
G36*
X161000Y124097D02*
X160305Y123959D01*
X159716Y123565D01*
X159322Y122976D01*
X159184Y122281D01*
X159222Y122089D01*
X155254Y118122D01*
X152416D01*
X152197Y118449D01*
X151803Y118712D01*
X151339Y118804D01*
X144646D01*
X144181Y118712D01*
X143787Y118449D01*
X143524Y118055D01*
X143432Y117591D01*
Y116409D01*
X143524Y115945D01*
X143787Y115551D01*
X144181Y115288D01*
X144646Y115196D01*
X151339D01*
X151803Y115288D01*
X152197Y115551D01*
X152416Y115878D01*
X155719D01*
X155719Y115878D01*
X156148Y115964D01*
X156512Y116207D01*
X160808Y120503D01*
X161000Y120465D01*
X161695Y120603D01*
X162284Y120997D01*
X162678Y121586D01*
X162816Y122281D01*
X162678Y122976D01*
X162284Y123565D01*
X161695Y123959D01*
X161000Y124097D01*
D02*
G37*
G36*
X188347Y119212D02*
X185500D01*
Y117500D01*
X189968D01*
Y117591D01*
X189845Y118211D01*
X189493Y118737D01*
X188967Y119089D01*
X188347Y119212D01*
D02*
G37*
G36*
X184500D02*
X181653D01*
X181033Y119089D01*
X180507Y118737D01*
X180155Y118211D01*
X180032Y117591D01*
Y117500D01*
X184500D01*
Y119212D01*
D02*
G37*
G36*
X189968Y116500D02*
X185500D01*
Y114788D01*
X188347D01*
X188967Y114911D01*
X189493Y115263D01*
X189845Y115789D01*
X189968Y116409D01*
Y116500D01*
D02*
G37*
G36*
X184500D02*
X180032D01*
Y116409D01*
X180155Y115789D01*
X180507Y115263D01*
X181033Y114911D01*
X181653Y114788D01*
X184500D01*
Y116500D01*
D02*
G37*
G36*
X200124Y113816D02*
X199429Y113678D01*
X198840Y113284D01*
X198732Y113122D01*
X189424D01*
X189205Y113449D01*
X188811Y113712D01*
X188347Y113804D01*
X181653D01*
X181189Y113712D01*
X180795Y113449D01*
X180532Y113055D01*
X180440Y112591D01*
Y111409D01*
X180532Y110945D01*
X180795Y110551D01*
X181189Y110288D01*
X181653Y110196D01*
X188347D01*
X188811Y110288D01*
X189205Y110551D01*
X189424Y110878D01*
X198732D01*
X198840Y110716D01*
X199429Y110322D01*
X200124Y110184D01*
X200819Y110322D01*
X201409Y110716D01*
X201802Y111305D01*
X201940Y112000D01*
X201802Y112695D01*
X201409Y113284D01*
X200819Y113678D01*
X200124Y113816D01*
D02*
G37*
G36*
X157000D02*
X156305Y113678D01*
X155716Y113284D01*
X155607Y113122D01*
X152416D01*
X152197Y113449D01*
X151803Y113712D01*
X151339Y113804D01*
X144646D01*
X144181Y113712D01*
X143787Y113449D01*
X143524Y113055D01*
X143432Y112591D01*
Y111409D01*
X143524Y110945D01*
X143787Y110551D01*
X144181Y110288D01*
X144646Y110196D01*
X151339D01*
X151803Y110288D01*
X152197Y110551D01*
X152416Y110878D01*
X155607D01*
X155716Y110716D01*
X156305Y110322D01*
X157000Y110184D01*
X157695Y110322D01*
X158284Y110716D01*
X158678Y111305D01*
X158816Y112000D01*
X158678Y112695D01*
X158284Y113284D01*
X157695Y113678D01*
X157000Y113816D01*
D02*
G37*
G36*
X154433Y108816D02*
X153738Y108678D01*
X153149Y108284D01*
X153040Y108122D01*
X152416D01*
X152197Y108449D01*
X151803Y108712D01*
X151339Y108804D01*
X144646D01*
X144181Y108712D01*
X143787Y108449D01*
X143524Y108055D01*
X143432Y107591D01*
Y106409D01*
X143524Y105945D01*
X143787Y105551D01*
X144181Y105288D01*
X144646Y105196D01*
X151339D01*
X151803Y105288D01*
X152197Y105551D01*
X152416Y105878D01*
X153040D01*
X153149Y105716D01*
X153738Y105322D01*
X154433Y105184D01*
X155128Y105322D01*
X155717Y105716D01*
X156111Y106305D01*
X156249Y107000D01*
X156111Y107695D01*
X155717Y108284D01*
X155128Y108678D01*
X154433Y108816D01*
D02*
G37*
G36*
X188347Y108804D02*
X181653D01*
X181189Y108712D01*
X180795Y108449D01*
X180532Y108055D01*
X180440Y107591D01*
Y106409D01*
X180532Y105945D01*
X180795Y105551D01*
X181189Y105288D01*
X181653Y105196D01*
X188347D01*
X188811Y105288D01*
X189205Y105551D01*
X189468Y105945D01*
X189560Y106409D01*
Y107591D01*
X189468Y108055D01*
X189205Y108449D01*
X188811Y108712D01*
X188347Y108804D01*
D02*
G37*
G36*
X89500Y102329D02*
Y100705D01*
X91124D01*
X91054Y101056D01*
X90573Y101777D01*
X89851Y102259D01*
X89500Y102329D01*
D02*
G37*
G36*
X88500D02*
X88149Y102259D01*
X87428Y101777D01*
X86945Y101056D01*
X86876Y100705D01*
X88500D01*
Y102329D01*
D02*
G37*
G36*
X188347Y103804D02*
X181653D01*
X181189Y103712D01*
X180795Y103449D01*
X180532Y103055D01*
X180440Y102591D01*
Y101409D01*
X180532Y100945D01*
X180795Y100551D01*
X181189Y100288D01*
X181653Y100196D01*
X188347D01*
X188811Y100288D01*
X189205Y100551D01*
X189468Y100945D01*
X189560Y101409D01*
Y102591D01*
X189468Y103055D01*
X189205Y103449D01*
X188811Y103712D01*
X188347Y103804D01*
D02*
G37*
G36*
X64000Y111816D02*
X63305Y111678D01*
X62716Y111284D01*
X62322Y110695D01*
X62184Y110000D01*
X62322Y109305D01*
X62716Y108716D01*
X62878Y108607D01*
Y103393D01*
X62716Y103284D01*
X62322Y102695D01*
X62184Y102000D01*
X62322Y101305D01*
X62716Y100716D01*
X63305Y100322D01*
X64000Y100184D01*
X64695Y100322D01*
X65284Y100716D01*
X65678Y101305D01*
X65745Y101644D01*
X66255D01*
X66322Y101305D01*
X66716Y100716D01*
X67305Y100322D01*
X68000Y100184D01*
X68695Y100322D01*
X69284Y100716D01*
X69678Y101305D01*
X69816Y102000D01*
X69678Y102695D01*
X69284Y103284D01*
X69122Y103393D01*
Y106326D01*
X69284Y106435D01*
X69678Y107024D01*
X69816Y107719D01*
X69678Y108414D01*
X69284Y109003D01*
X68695Y109397D01*
X68000Y109535D01*
X67305Y109397D01*
X66716Y109003D01*
X66322Y108414D01*
X66184Y107719D01*
X66322Y107024D01*
X66716Y106435D01*
X66878Y106326D01*
Y103393D01*
X66716Y103284D01*
X66322Y102695D01*
X66255Y102356D01*
X65745D01*
X65678Y102695D01*
X65284Y103284D01*
X65122Y103393D01*
Y108607D01*
X65284Y108716D01*
X65678Y109305D01*
X65816Y110000D01*
X65678Y110695D01*
X65284Y111284D01*
X64695Y111678D01*
X64000Y111816D01*
D02*
G37*
G36*
X91124Y99705D02*
X89500D01*
Y98080D01*
X89851Y98150D01*
X90573Y98632D01*
X91054Y99354D01*
X91124Y99705D01*
D02*
G37*
G36*
X88500D02*
X86876D01*
X86945Y99354D01*
X87428Y98632D01*
X88149Y98150D01*
X88500Y98080D01*
Y99705D01*
D02*
G37*
G36*
X188347Y99212D02*
X185500D01*
Y97500D01*
X189968D01*
Y97591D01*
X189845Y98211D01*
X189493Y98737D01*
X188967Y99089D01*
X188347Y99212D01*
D02*
G37*
G36*
X184500D02*
X181653D01*
X181033Y99089D01*
X180507Y98737D01*
X180155Y98211D01*
X180032Y97591D01*
Y97500D01*
X184500D01*
Y99212D01*
D02*
G37*
G36*
X189968Y96500D02*
X185500D01*
Y94788D01*
X188347D01*
X188967Y94911D01*
X189493Y95263D01*
X189845Y95789D01*
X189968Y96409D01*
Y96500D01*
D02*
G37*
G36*
X184500D02*
X180032D01*
Y96409D01*
X180155Y95789D01*
X180507Y95263D01*
X181033Y94911D01*
X181653Y94788D01*
X184500D01*
Y96500D01*
D02*
G37*
G36*
X151339Y103804D02*
X144646D01*
X144181Y103712D01*
X143787Y103449D01*
X143524Y103055D01*
X143432Y102591D01*
Y101409D01*
X143524Y100945D01*
X143787Y100551D01*
X144181Y100288D01*
X144646Y100196D01*
X150218D01*
X151110Y99304D01*
X150902Y98804D01*
X144646D01*
X144181Y98712D01*
X143787Y98449D01*
X143524Y98055D01*
X143432Y97591D01*
Y96409D01*
X143524Y95945D01*
X143787Y95551D01*
X144181Y95288D01*
X144646Y95196D01*
X146123D01*
Y94275D01*
X145960Y94166D01*
X145566Y93577D01*
X145428Y92882D01*
X145566Y92187D01*
X145960Y91598D01*
X146549Y91204D01*
X147244Y91066D01*
X147939Y91204D01*
X148528Y91598D01*
X148922Y92187D01*
X149060Y92882D01*
X148922Y93577D01*
X148528Y94166D01*
X148366Y94275D01*
Y95196D01*
X151339D01*
X151803Y95288D01*
X152197Y95551D01*
X152460Y95945D01*
X152552Y96409D01*
Y97154D01*
X153052Y97361D01*
X154222Y96192D01*
X154184Y96000D01*
X154322Y95305D01*
X154716Y94716D01*
X155305Y94322D01*
X156000Y94184D01*
X156695Y94322D01*
X157284Y94716D01*
X157678Y95305D01*
X157816Y96000D01*
X157678Y96695D01*
X157284Y97284D01*
X156695Y97678D01*
X156000Y97816D01*
X155808Y97778D01*
X152490Y101096D01*
X152552Y101409D01*
Y102591D01*
X152460Y103055D01*
X152197Y103449D01*
X151803Y103712D01*
X151339Y103804D01*
D02*
G37*
G36*
X59322Y94816D02*
X58627Y94678D01*
X58038Y94284D01*
X57644Y93695D01*
X57506Y93000D01*
X57644Y92305D01*
X58038Y91716D01*
X58627Y91322D01*
X59322Y91184D01*
X59514Y91222D01*
X66513Y84224D01*
X66468Y84000D01*
X66606Y83305D01*
X67000Y82716D01*
X67589Y82322D01*
X68284Y82184D01*
X68979Y82322D01*
X69568Y82716D01*
X69962Y83305D01*
X70100Y84000D01*
X69962Y84695D01*
X69568Y85284D01*
X68979Y85678D01*
X68284Y85816D01*
X68124Y85784D01*
X61100Y92808D01*
X61138Y93000D01*
X61000Y93695D01*
X60606Y94284D01*
X60017Y94678D01*
X59322Y94816D01*
D02*
G37*
G36*
X42000Y99816D02*
X41305Y99678D01*
X40716Y99284D01*
X40322Y98695D01*
X40184Y98000D01*
X40322Y97305D01*
X40716Y96716D01*
X40878Y96607D01*
Y79078D01*
X40716Y78969D01*
X40322Y78380D01*
X40184Y77685D01*
X40322Y76990D01*
X40716Y76401D01*
X41305Y76007D01*
X42000Y75869D01*
X42695Y76007D01*
X43284Y76401D01*
X43378Y76542D01*
X43878Y76390D01*
Y72393D01*
X43716Y72284D01*
X43322Y71695D01*
X43184Y71000D01*
X43322Y70305D01*
X43716Y69716D01*
X44305Y69322D01*
X45000Y69184D01*
X45695Y69322D01*
X46284Y69716D01*
X46678Y70305D01*
X46816Y71000D01*
X46678Y71695D01*
X46284Y72284D01*
X46122Y72393D01*
Y93607D01*
X46284Y93716D01*
X46678Y94305D01*
X46816Y95000D01*
X46678Y95695D01*
X46284Y96284D01*
X45695Y96678D01*
X45000Y96816D01*
X44305Y96678D01*
X43885Y96397D01*
X43392Y96523D01*
X43321Y96576D01*
X43307Y96631D01*
X43313Y96759D01*
X43678Y97305D01*
X43816Y98000D01*
X43678Y98695D01*
X43284Y99284D01*
X42695Y99678D01*
X42000Y99816D01*
D02*
G37*
G36*
X43876Y54585D02*
Y52961D01*
X45500D01*
X45431Y53312D01*
X44949Y54033D01*
X44227Y54515D01*
X43876Y54585D01*
D02*
G37*
G36*
X42876D02*
X42525Y54515D01*
X41804Y54033D01*
X41322Y53312D01*
X41252Y52961D01*
X42876D01*
Y54585D01*
D02*
G37*
G36*
X45500Y51961D02*
X43876D01*
Y50336D01*
X44227Y50406D01*
X44949Y50888D01*
X45431Y51610D01*
X45500Y51961D01*
D02*
G37*
G36*
X42876D02*
X41252D01*
X41322Y51610D01*
X41804Y50888D01*
X42525Y50406D01*
X42876Y50336D01*
Y51961D01*
D02*
G37*
G36*
X217500Y40124D02*
Y38500D01*
X219124D01*
X219055Y38851D01*
X218572Y39573D01*
X217851Y40055D01*
X217500Y40124D01*
D02*
G37*
G36*
X216500D02*
X216149Y40055D01*
X215427Y39573D01*
X214945Y38851D01*
X214876Y38500D01*
X216500D01*
Y40124D01*
D02*
G37*
G36*
X219124Y37500D02*
X217500D01*
Y35876D01*
X217851Y35945D01*
X218572Y36428D01*
X219055Y37149D01*
X219124Y37500D01*
D02*
G37*
G36*
X216500D02*
X214876D01*
X214945Y37149D01*
X215427Y36428D01*
X216149Y35945D01*
X216500Y35876D01*
Y37500D01*
D02*
G37*
G36*
X226378Y15786D02*
X225218Y15672D01*
X224103Y15334D01*
X223076Y14784D01*
X222175Y14045D01*
X221436Y13145D01*
X220887Y12117D01*
X220549Y11002D01*
X220434Y9843D01*
X220549Y8683D01*
X220887Y7568D01*
X221436Y6540D01*
X222175Y5640D01*
X223076Y4901D01*
X224103Y4351D01*
X225218Y4013D01*
X226378Y3899D01*
X227537Y4013D01*
X228653Y4351D01*
X229680Y4901D01*
X230581Y5640D01*
X231320Y6540D01*
X231869Y7568D01*
X232207Y8683D01*
X232322Y9843D01*
X232207Y11002D01*
X231869Y12117D01*
X231320Y13145D01*
X230581Y14045D01*
X229680Y14784D01*
X228653Y15334D01*
X227537Y15672D01*
X226378Y15786D01*
D02*
G37*
G36*
X9843D02*
X8683Y15672D01*
X7568Y15334D01*
X6540Y14784D01*
X5640Y14045D01*
X4901Y13145D01*
X4351Y12117D01*
X4013Y11002D01*
X3899Y9843D01*
X4013Y8683D01*
X4351Y7568D01*
X4901Y6540D01*
X5640Y5640D01*
X6540Y4901D01*
X7568Y4351D01*
X8683Y4013D01*
X9843Y3899D01*
X11002Y4013D01*
X12117Y4351D01*
X13145Y4901D01*
X14045Y5640D01*
X14784Y6540D01*
X15334Y7568D01*
X15672Y8683D01*
X15786Y9843D01*
X15672Y11002D01*
X15334Y12117D01*
X14784Y13145D01*
X14045Y14045D01*
X13145Y14784D01*
X12117Y15334D01*
X11002Y15672D01*
X9843Y15786D01*
D02*
G37*
%LPD*%
D10*
X67695Y84000D02*
Y84627D01*
Y84000D02*
X68284D01*
X59322Y93000D02*
X67695Y84627D01*
X198089Y122000D02*
X200124D01*
X198000Y122089D02*
X198089Y122000D01*
X197911D02*
X198000Y122089D01*
X185000Y112000D02*
X200124D01*
X185000Y122000D02*
X197911D01*
X68000Y102000D02*
Y107719D01*
X61000Y135000D02*
X67000D01*
X64000Y102000D02*
Y110000D01*
X177000Y132000D02*
X185000D01*
X177000Y139000D02*
X179000Y137000D01*
X185000D01*
X165000Y138719D02*
Y139000D01*
X154231Y127950D02*
X165000Y138719D01*
X157000Y133945D02*
Y137795D01*
X150055Y127000D02*
X157000Y133945D01*
X155719Y117000D02*
X161000Y122281D01*
X147992Y117000D02*
X155719D01*
X141000Y135955D02*
X144955Y132000D01*
X141000Y135955D02*
Y142000D01*
X144955Y132000D02*
X147992D01*
Y137000D02*
Y144000D01*
X145992Y146000D02*
X147992Y144000D01*
X127000Y146000D02*
X145992D01*
X147992Y144000D02*
X163685D01*
X45000Y71000D02*
Y95000D01*
X42000Y77685D02*
Y98000D01*
X147992Y127000D02*
X150055D01*
X154231Y125042D02*
Y127950D01*
X151189Y122000D02*
X154231Y125042D01*
X147992Y122000D02*
X151189D01*
X147992Y112000D02*
X157000D01*
X147992Y107000D02*
X154433D01*
X147992Y102000D02*
X150000D01*
X156000Y96000D01*
X147244Y96252D02*
X147992Y97000D01*
X147244Y92882D02*
Y96252D01*
D17*
X185000Y102000D02*
D03*
Y107000D02*
D03*
Y112000D02*
D03*
Y117000D02*
D03*
Y122000D02*
D03*
Y127000D02*
D03*
Y132000D02*
D03*
X147992Y137000D02*
D03*
Y132000D02*
D03*
Y127000D02*
D03*
Y122000D02*
D03*
Y117000D02*
D03*
Y112000D02*
D03*
Y107000D02*
D03*
Y102000D02*
D03*
X185000Y97000D02*
D03*
X147992D02*
D03*
D18*
X185000Y137000D02*
D03*
D19*
X169000Y144000D02*
D03*
X163685D02*
D03*
D44*
X9843Y9843D02*
D03*
X226378D02*
D03*
X9843Y226378D02*
D03*
X226378D02*
D03*
D45*
X68284Y84000D02*
D03*
X59322Y93000D02*
D03*
X83305Y208000D02*
D03*
X89000Y130000D02*
D03*
X217000Y38000D02*
D03*
X200124Y122000D02*
D03*
Y112000D02*
D03*
X107000Y146166D02*
D03*
X89000Y100205D02*
D03*
X43376Y52461D02*
D03*
X51976Y135000D02*
D03*
X68000Y107719D02*
D03*
X61000Y135000D02*
D03*
X67000D02*
D03*
X68000Y102000D02*
D03*
X64000Y110000D02*
D03*
Y102000D02*
D03*
X177000Y132000D02*
D03*
Y139000D02*
D03*
X165000D02*
D03*
X161000Y122281D02*
D03*
X127000Y146000D02*
D03*
X45000Y71000D02*
D03*
Y95000D02*
D03*
X42000Y77685D02*
D03*
Y98000D02*
D03*
X157000Y137795D02*
D03*
X141000Y142000D02*
D03*
X157000Y112000D02*
D03*
X154433Y107000D02*
D03*
X156000Y96000D02*
D03*
X147244Y92882D02*
D03*
M02*
