G04*
G04 #@! TF.GenerationSoftware,Altium Limited,Altium Designer,18.1.7 (191)*
G04*
G04 Layer_Color=65535*
%FSLAX25Y25*%
%MOIN*%
G70*
G01*
G75*
%ADD10C,0.01000*%
%ADD11C,0.01024*%
%ADD12C,0.01968*%
%ADD13C,0.00591*%
D10*
X107352Y137047D02*
G03*
X107352Y137047I-1321J0D01*
G01*
X106425D02*
G03*
X106425Y137047I-394J0D01*
G01*
X126898Y98268D02*
Y141575D01*
X101504Y98268D02*
X126898D01*
X101504D02*
Y141772D01*
X126701D01*
X223543Y71260D02*
Y160237D01*
X193780Y147244D02*
Y158661D01*
X195354Y160236D01*
X203228D01*
X195354Y71260D02*
X203228D01*
X193780Y72835D02*
X195354Y71260D01*
X193780Y72835D02*
Y84252D01*
X106693Y12678D02*
X195670D01*
X182677Y42441D02*
X194095D01*
X195669Y40866D01*
Y32992D02*
Y40866D01*
X106693Y32992D02*
Y40866D01*
X108268Y42441D01*
X119685D01*
X120866Y224095D02*
X197047D01*
X120866Y194567D02*
Y203425D01*
X197244Y194567D02*
Y203425D01*
X182677Y193583D02*
X196457D01*
X121653D02*
X135433D01*
X197244Y194370D02*
Y194567D01*
X196457Y193583D02*
X197244Y194370D01*
X121653Y193583D02*
Y193780D01*
X120866Y194567D02*
X121653Y193780D01*
X18564Y124999D02*
Y213976D01*
X48327Y126575D02*
Y137992D01*
X46752Y125000D02*
X48327Y126575D01*
X38878Y125000D02*
X46752D01*
X38878Y213976D02*
X46752D01*
X48327Y212402D01*
Y200984D02*
Y212402D01*
X18564Y27657D02*
Y116633D01*
X48327Y29232D02*
Y40650D01*
X46752Y27658D02*
X48327Y29232D01*
X38878Y27658D02*
X46752D01*
X38878Y116634D02*
X46752D01*
X48327Y115059D01*
Y103642D02*
Y115059D01*
D11*
X181693Y82677D02*
G03*
X181693Y82677I-512J0D01*
G01*
X118622Y55039D02*
G03*
X118622Y55039I-512J0D01*
G01*
X61437Y202559D02*
G03*
X61437Y202559I-512J0D01*
G01*
X61437Y105217D02*
G03*
X61437Y105217I-512J0D01*
G01*
D12*
X185244Y190630D02*
G03*
X185244Y190630I-599J0D01*
G01*
D13*
X85403Y206255D02*
Y209839D01*
X36806Y226259D02*
Y229407D01*
X37855Y228358D01*
X38905Y229407D01*
Y226259D01*
X42053Y228882D02*
X41529Y229407D01*
X40479D01*
X39954Y228882D01*
Y228358D01*
X40479Y227833D01*
X41529D01*
X42053Y227308D01*
Y226783D01*
X41529Y226259D01*
X40479D01*
X39954Y226783D01*
X43103Y229407D02*
X45202Y226259D01*
Y229407D02*
X43103Y226259D01*
X46251Y229407D02*
X47301D01*
X46776D01*
Y226259D01*
X46251D01*
X47301D01*
X48875Y229407D02*
X49925D01*
X49400D01*
Y226259D01*
X48875D01*
X49925D01*
X56747Y228882D02*
X56222Y229407D01*
X55172D01*
X54648Y228882D01*
Y226783D01*
X55172Y226259D01*
X56222D01*
X56747Y226783D01*
X59895Y229407D02*
X57796D01*
Y226259D01*
X59895D01*
X57796Y227833D02*
X58846D01*
X60945Y226259D02*
Y229407D01*
X63044Y226259D01*
Y229407D01*
X64094D02*
X66193D01*
X65143D01*
Y226259D01*
X69341Y229407D02*
X67242D01*
Y226259D01*
X69341D01*
X67242Y227833D02*
X68292D01*
X70391Y226259D02*
Y229407D01*
X71965D01*
X72490Y228882D01*
Y227833D01*
X71965Y227308D01*
X70391D01*
X71440D02*
X72490Y226259D01*
X78787Y228882D02*
X78262Y229407D01*
X77213D01*
X76688Y228882D01*
Y226783D01*
X77213Y226259D01*
X78262D01*
X78787Y226783D01*
X81411Y229407D02*
X80361D01*
X79836Y228882D01*
Y226783D01*
X80361Y226259D01*
X81411D01*
X81936Y226783D01*
Y228882D01*
X81411Y229407D01*
X82985Y226259D02*
Y229407D01*
X85084Y226259D01*
Y229407D01*
X88233Y228882D02*
X87708Y229407D01*
X86658D01*
X86134Y228882D01*
Y228358D01*
X86658Y227833D01*
X87708D01*
X88233Y227308D01*
Y226783D01*
X87708Y226259D01*
X86658D01*
X86134Y226783D01*
X90856Y229407D02*
X89807D01*
X89282Y228882D01*
Y226783D01*
X89807Y226259D01*
X90856D01*
X91381Y226783D01*
Y228882D01*
X90856Y229407D01*
X92431D02*
Y226259D01*
X94530D01*
X97678Y229407D02*
X95579D01*
Y226259D01*
X97678D01*
X95579Y227833D02*
X96629D01*
X57009Y221063D02*
Y224212D01*
X58583D01*
X59108Y223687D01*
Y222637D01*
X58583Y222112D01*
X57009D01*
X58059D02*
X59108Y221063D01*
X62257Y224212D02*
X60158D01*
Y221063D01*
X62257D01*
X60158Y222637D02*
X61207D01*
X63306Y224212D02*
Y222112D01*
X64356Y221063D01*
X65405Y222112D01*
Y224212D01*
X71702Y221063D02*
X69604D01*
X71702Y223162D01*
Y223687D01*
X71178Y224212D01*
X70128D01*
X69604Y223687D01*
X72752Y221063D02*
Y221588D01*
X73277D01*
Y221063D01*
X72752D01*
X77475D02*
X75376D01*
X77475Y223162D01*
Y223687D01*
X76950Y224212D01*
X75901D01*
X75376Y223687D01*
X86185Y212720D02*
Y215869D01*
X87759D01*
X88284Y215344D01*
Y214295D01*
X87759Y213770D01*
X86185D01*
X90908Y215869D02*
X89858D01*
X89334Y215344D01*
Y213245D01*
X89858Y212720D01*
X90908D01*
X91433Y213245D01*
Y215344D01*
X90908Y215869D01*
X92482D02*
Y212720D01*
X93532Y213770D01*
X94581Y212720D01*
Y215869D01*
X97730D02*
X95631D01*
Y212720D01*
X97730D01*
X95631Y214295D02*
X96680D01*
X98779Y212720D02*
Y215869D01*
X100354D01*
X100878Y215344D01*
Y214295D01*
X100354Y213770D01*
X98779D01*
X99829D02*
X100878Y212720D01*
X98000Y210149D02*
Y207000D01*
X100099D01*
X103248Y210149D02*
X101149D01*
Y207000D01*
X103248D01*
X101149Y208574D02*
X102198D01*
X104297Y210149D02*
Y207000D01*
X105871D01*
X106396Y207525D01*
Y209624D01*
X105871Y210149D01*
X104297D01*
X107446Y207000D02*
X108495D01*
X107970D01*
Y210149D01*
X107446Y209624D01*
X98000Y200000D02*
Y203149D01*
X99574D01*
X100099Y202624D01*
Y201574D01*
X99574Y201049D01*
X98000D01*
X99050D02*
X100099Y200000D01*
X103248D02*
X101149D01*
X103248Y202099D01*
Y202624D01*
X102723Y203149D01*
X101673D01*
X101149Y202624D01*
X140125Y182224D02*
X136976D01*
Y180650D01*
X137501Y180125D01*
X138026D01*
X138551Y180650D01*
Y182224D01*
Y180650D01*
X139075Y180125D01*
X139600D01*
X140125Y180650D01*
Y182224D01*
X136976Y179076D02*
X140125D01*
Y177501D01*
X139600Y176977D01*
X138551D01*
X138026Y177501D01*
Y179076D01*
X139600Y173828D02*
X140125Y174353D01*
Y175402D01*
X139600Y175927D01*
X139075D01*
X138551Y175402D01*
Y174353D01*
X138026Y173828D01*
X137501D01*
X136976Y174353D01*
Y175402D01*
X137501Y175927D01*
X140125Y169630D02*
X136976D01*
Y167531D01*
X140125Y164382D02*
Y166481D01*
X136976D01*
Y164382D01*
X138551Y166481D02*
Y165432D01*
X140125Y163333D02*
X136976D01*
Y161759D01*
X137501Y161234D01*
X139600D01*
X140125Y161759D01*
Y163333D01*
X147573Y180125D02*
X148097Y180650D01*
Y181700D01*
X147573Y182224D01*
X147048D01*
X146523Y181700D01*
Y180650D01*
X145998Y180125D01*
X145474D01*
X144949Y180650D01*
Y181700D01*
X145474Y182224D01*
X144949Y179076D02*
X148097D01*
Y177501D01*
X147573Y176977D01*
X146523D01*
X145998Y177501D01*
Y179076D01*
X144949Y175927D02*
X147048D01*
X148097Y174878D01*
X147048Y173828D01*
X144949D01*
X146523D01*
Y175927D01*
X144949Y172779D02*
X148097D01*
Y171204D01*
X147573Y170680D01*
X146523D01*
X145998Y171204D01*
Y172779D01*
Y171729D02*
X144949Y170680D01*
X148097Y167531D02*
Y169630D01*
X144949D01*
Y167531D01*
X146523Y169630D02*
Y168580D01*
X156759Y182224D02*
X153610D01*
Y180650D01*
X154135Y180125D01*
X156234D01*
X156759Y180650D01*
Y182224D01*
X153610Y179076D02*
X156759D01*
Y177501D01*
X156234Y176977D01*
X155184D01*
X154660Y177501D01*
Y179076D01*
Y178026D02*
X153610Y176977D01*
X156759Y175927D02*
X153610D01*
Y173828D01*
X156759Y169630D02*
X153610D01*
Y167531D01*
X156759Y164382D02*
Y166481D01*
X153610D01*
Y164382D01*
X155184Y166481D02*
Y165432D01*
X156759Y163333D02*
X153610D01*
Y161759D01*
X154135Y161234D01*
X156234D01*
X156759Y161759D01*
Y163333D01*
X164239Y182224D02*
X161091D01*
Y180650D01*
X161615Y180125D01*
X163714D01*
X164239Y180650D01*
Y182224D01*
X161091Y179076D02*
X164239D01*
Y177501D01*
X163714Y176977D01*
X162665D01*
X162140Y177501D01*
Y179076D01*
Y178026D02*
X161091Y176977D01*
X164239Y175927D02*
X161091D01*
Y173828D01*
X164239Y169630D02*
X161091D01*
Y168056D01*
X161615Y167531D01*
X162140D01*
X162665Y168056D01*
Y169630D01*
Y168056D01*
X163190Y167531D01*
X163714D01*
X164239Y168056D01*
Y169630D01*
Y166481D02*
Y164382D01*
Y165432D01*
X161091D01*
Y163333D02*
X164239D01*
X161091Y161234D01*
X164239D01*
X171588Y182224D02*
X172113Y181700D01*
Y180650D01*
X171588Y180125D01*
X171064D01*
X170539Y180650D01*
Y181175D01*
Y180650D01*
X170014Y180125D01*
X169489D01*
X168965Y180650D01*
Y181700D01*
X169489Y182224D01*
X172113Y179076D02*
X170014D01*
X168965Y178026D01*
X170014Y176977D01*
X172113D01*
X171588Y175927D02*
X172113Y175402D01*
Y174353D01*
X171588Y173828D01*
X171064D01*
X170539Y174353D01*
Y174878D01*
Y174353D01*
X170014Y173828D01*
X169489D01*
X168965Y174353D01*
Y175402D01*
X169489Y175927D01*
X179462Y182224D02*
X179987Y181700D01*
Y180650D01*
X179462Y180125D01*
X178938D01*
X178413Y180650D01*
Y181175D01*
Y180650D01*
X177888Y180125D01*
X177363D01*
X176839Y180650D01*
Y181700D01*
X177363Y182224D01*
X179987Y179076D02*
X177888D01*
X176839Y178026D01*
X177888Y176977D01*
X179987D01*
X179462Y175927D02*
X179987Y175402D01*
Y174353D01*
X179462Y173828D01*
X178938D01*
X178413Y174353D01*
Y174878D01*
Y174353D01*
X177888Y173828D01*
X177363D01*
X176839Y174353D01*
Y175402D01*
X177363Y175927D01*
X176839Y87224D02*
X179987D01*
X176839Y85125D01*
X179987D01*
Y81977D02*
Y84076D01*
X176839D01*
Y81977D01*
X178413Y84076D02*
Y83026D01*
X179987Y80927D02*
X177363D01*
X176839Y80402D01*
Y79353D01*
X177363Y78828D01*
X179987D01*
Y77779D02*
Y75680D01*
Y76729D01*
X176839D01*
Y74630D02*
X179987D01*
Y73056D01*
X179462Y72531D01*
X178413D01*
X177888Y73056D01*
Y74630D01*
Y73580D02*
X176839Y72531D01*
Y71482D02*
X178938D01*
X179987Y70432D01*
X178938Y69382D01*
X176839D01*
X178413D01*
Y71482D01*
X179987Y68333D02*
X176839D01*
Y66234D01*
X179987Y62036D02*
X176839D01*
Y59937D01*
X179987Y56788D02*
Y58887D01*
X176839D01*
Y56788D01*
X178413Y58887D02*
Y57838D01*
X179987Y55739D02*
X176839D01*
Y54164D01*
X177363Y53640D01*
X179462D01*
X179987Y54164D01*
Y55739D01*
X168965Y87224D02*
X172113D01*
X168965Y85125D01*
X172113D01*
Y81977D02*
Y84076D01*
X168965D01*
Y81977D01*
X170539Y84076D02*
Y83026D01*
X172113Y80927D02*
X169489D01*
X168965Y80402D01*
Y79353D01*
X169489Y78828D01*
X172113D01*
Y77779D02*
Y75680D01*
Y76729D01*
X168965D01*
Y74630D02*
X172113D01*
Y73056D01*
X171588Y72531D01*
X170539D01*
X170014Y73056D01*
Y74630D01*
Y73580D02*
X168965Y72531D01*
Y71482D02*
X171064D01*
X172113Y70432D01*
X171064Y69382D01*
X168965D01*
X170539D01*
Y71482D01*
X172113Y68333D02*
X168965D01*
Y66234D01*
X172113Y62036D02*
X168965D01*
Y60461D01*
X169489Y59937D01*
X170014D01*
X170539Y60461D01*
Y62036D01*
Y60461D01*
X171064Y59937D01*
X171588D01*
X172113Y60461D01*
Y62036D01*
Y58887D02*
Y56788D01*
Y57838D01*
X168965D01*
Y55739D02*
X172113D01*
X168965Y53640D01*
X172113D01*
X164239Y80402D02*
X161091D01*
Y78828D01*
X161615Y78303D01*
X163714D01*
X164239Y78828D01*
Y80402D01*
X161091Y77254D02*
X164239D01*
Y75680D01*
X163714Y75155D01*
X162665D01*
X162140Y75680D01*
Y77254D01*
Y76204D02*
X161091Y75155D01*
X164239Y74105D02*
Y73056D01*
Y73580D01*
X161091D01*
Y74105D01*
Y73056D01*
X164239Y71482D02*
X162140D01*
X161091Y70432D01*
X162140Y69382D01*
X164239D01*
Y66234D02*
Y68333D01*
X161091D01*
Y66234D01*
X162665Y68333D02*
Y67283D01*
X164239Y62036D02*
X161091D01*
Y59937D01*
X164239Y56788D02*
Y58887D01*
X161091D01*
Y56788D01*
X162665Y58887D02*
Y57838D01*
X164239Y55739D02*
X161091D01*
Y54164D01*
X161615Y53640D01*
X163714D01*
X164239Y54164D01*
Y55739D01*
X156759Y80402D02*
X153610D01*
Y78828D01*
X154135Y78303D01*
X156234D01*
X156759Y78828D01*
Y80402D01*
X153610Y77254D02*
X156759D01*
Y75680D01*
X156234Y75155D01*
X155184D01*
X154660Y75680D01*
Y77254D01*
Y76204D02*
X153610Y75155D01*
X156759Y74105D02*
Y73056D01*
Y73580D01*
X153610D01*
Y74105D01*
Y73056D01*
X156759Y71482D02*
X154660D01*
X153610Y70432D01*
X154660Y69382D01*
X156759D01*
Y66234D02*
Y68333D01*
X153610D01*
Y66234D01*
X155184Y68333D02*
Y67283D01*
X156759Y62036D02*
X153610D01*
Y60461D01*
X154135Y59937D01*
X154660D01*
X155184Y60461D01*
Y62036D01*
Y60461D01*
X155709Y59937D01*
X156234D01*
X156759Y60461D01*
Y62036D01*
Y58887D02*
Y56788D01*
Y57838D01*
X153610D01*
Y55739D02*
X156759D01*
X153610Y53640D01*
X156759D01*
X144949Y80927D02*
X148097D01*
Y79353D01*
X147573Y78828D01*
X146523D01*
X145998Y79353D01*
Y80927D01*
X148097Y76204D02*
Y77254D01*
X147573Y77779D01*
X145474D01*
X144949Y77254D01*
Y76204D01*
X145474Y75680D01*
X147573D01*
X148097Y76204D01*
Y74630D02*
X144949D01*
X145998Y73580D01*
X144949Y72531D01*
X148097D01*
Y69382D02*
Y71482D01*
X144949D01*
Y69382D01*
X146523Y71482D02*
Y70432D01*
X144949Y68333D02*
X148097D01*
Y66759D01*
X147573Y66234D01*
X146523D01*
X145998Y66759D01*
Y68333D01*
Y67283D02*
X144949Y66234D01*
X148097Y62036D02*
X144949D01*
Y59937D01*
X148097Y56788D02*
Y58887D01*
X144949D01*
Y56788D01*
X146523Y58887D02*
Y57838D01*
X148097Y55739D02*
X144949D01*
Y54164D01*
X145474Y53640D01*
X147573D01*
X148097Y54164D01*
Y55739D01*
X136976Y80927D02*
X140125D01*
Y79353D01*
X139600Y78828D01*
X138551D01*
X138026Y79353D01*
Y80927D01*
X140125Y76204D02*
Y77254D01*
X139600Y77779D01*
X137501D01*
X136976Y77254D01*
Y76204D01*
X137501Y75680D01*
X139600D01*
X140125Y76204D01*
Y74630D02*
X136976D01*
X138026Y73580D01*
X136976Y72531D01*
X140125D01*
Y69382D02*
Y71482D01*
X136976D01*
Y69382D01*
X138551Y71482D02*
Y70432D01*
X136976Y68333D02*
X140125D01*
Y66759D01*
X139600Y66234D01*
X138551D01*
X138026Y66759D01*
Y68333D01*
Y67283D02*
X136976Y66234D01*
X140125Y62036D02*
X136976D01*
Y60461D01*
X137501Y59937D01*
X138026D01*
X138551Y60461D01*
Y62036D01*
Y60461D01*
X139075Y59937D01*
X139600D01*
X140125Y60461D01*
Y62036D01*
Y58887D02*
Y56788D01*
Y57838D01*
X136976D01*
Y55739D02*
X140125D01*
X136976Y53640D01*
X140125D01*
X131825Y62036D02*
X132349Y61511D01*
Y60461D01*
X131825Y59937D01*
X131300D01*
X130775Y60461D01*
Y60986D01*
Y60461D01*
X130250Y59937D01*
X129726D01*
X129201Y60461D01*
Y61511D01*
X129726Y62036D01*
X132349Y58887D02*
X130250D01*
X129201Y57838D01*
X130250Y56788D01*
X132349D01*
X131825Y55739D02*
X132349Y55214D01*
Y54164D01*
X131825Y53640D01*
X131300D01*
X130775Y54164D01*
Y54689D01*
Y54164D01*
X130250Y53640D01*
X129726D01*
X129201Y54164D01*
Y55214D01*
X129726Y55739D01*
X124344Y62036D02*
X124869Y61511D01*
Y60461D01*
X124344Y59937D01*
X123819D01*
X123295Y60461D01*
Y60986D01*
Y60461D01*
X122770Y59937D01*
X122245D01*
X121720Y60461D01*
Y61511D01*
X122245Y62036D01*
X124869Y58887D02*
X122770D01*
X121720Y57838D01*
X122770Y56788D01*
X124869D01*
X124344Y55739D02*
X124869Y55214D01*
Y54164D01*
X124344Y53640D01*
X123819D01*
X123295Y54164D01*
Y54689D01*
Y54164D01*
X122770Y53640D01*
X122245D01*
X121720Y54164D01*
Y55214D01*
X122245Y55739D01*
X72099Y124905D02*
X71574Y125430D01*
X70525D01*
X70000Y124905D01*
Y124380D01*
X70525Y123855D01*
X71574D01*
X72099Y123331D01*
Y122806D01*
X71574Y122281D01*
X70525D01*
X70000Y122806D01*
X73149Y125430D02*
Y122281D01*
X74723D01*
X75248Y122806D01*
Y124905D01*
X74723Y125430D01*
X73149D01*
X76297Y122281D02*
Y124380D01*
X77347Y125430D01*
X78396Y124380D01*
Y122281D01*
Y123855D01*
X76297D01*
X87099Y176624D02*
X86574Y177149D01*
X85525D01*
X85000Y176624D01*
Y176099D01*
X85525Y175574D01*
X86574D01*
X87099Y175049D01*
Y174525D01*
X86574Y174000D01*
X85525D01*
X85000Y174525D01*
X90248Y176624D02*
X89723Y177149D01*
X88673D01*
X88149Y176624D01*
Y174525D01*
X88673Y174000D01*
X89723D01*
X90248Y174525D01*
X91297Y177149D02*
Y174000D01*
X93396D01*
X70000Y131149D02*
X72099D01*
X71049D01*
Y128000D01*
X73149D02*
Y131149D01*
X74723D01*
X75248Y130624D01*
Y129574D01*
X74723Y129050D01*
X73149D01*
X77872Y128000D02*
Y131149D01*
X76297Y129574D01*
X78396D01*
X84299Y182467D02*
X86398D01*
X85349D01*
Y179319D01*
X87448D02*
Y182467D01*
X89022D01*
X89547Y181943D01*
Y180893D01*
X89022Y180368D01*
X87448D01*
X90596Y181943D02*
X91121Y182467D01*
X92171D01*
X92695Y181943D01*
Y181418D01*
X92171Y180893D01*
X91646D01*
X92171D01*
X92695Y180368D01*
Y179844D01*
X92171Y179319D01*
X91121D01*
X90596Y179844D01*
X222353Y32624D02*
X221828Y33149D01*
X220778D01*
X220253Y32624D01*
Y30525D01*
X220778Y30000D01*
X221828D01*
X222353Y30525D01*
Y31574D01*
X221303D01*
X223402Y30000D02*
Y33149D01*
X225501Y30000D01*
Y33149D01*
X226551D02*
Y30000D01*
X228125D01*
X228650Y30525D01*
Y32624D01*
X228125Y33149D01*
X226551D01*
X220182Y178624D02*
X220707Y179149D01*
X221756D01*
X222281Y178624D01*
Y178099D01*
X221756Y177574D01*
X221231D01*
X221756D01*
X222281Y177050D01*
Y176525D01*
X221756Y176000D01*
X220707D01*
X220182Y176525D01*
X223330Y179149D02*
Y177050D01*
X224380Y176000D01*
X225429Y177050D01*
Y179149D01*
X226479Y178624D02*
X227004Y179149D01*
X228053D01*
X228578Y178624D01*
Y178099D01*
X228053Y177574D01*
X227529D01*
X228053D01*
X228578Y177050D01*
Y176525D01*
X228053Y176000D01*
X227004D01*
X226479Y176525D01*
X131000Y152000D02*
Y155149D01*
X132574D01*
X133099Y154624D01*
Y153574D01*
X132574Y153050D01*
X131000D01*
X132050D02*
X133099Y152000D01*
X134149D02*
X135198D01*
X134673D01*
Y155149D01*
X134149Y154624D01*
X123000Y96725D02*
Y94102D01*
X123525Y93577D01*
X124574D01*
X125099Y94102D01*
Y96725D01*
X126149Y93577D02*
X127198D01*
X126673D01*
Y96725D01*
X126149Y96201D01*
X111599Y154224D02*
X111074Y154749D01*
X110025D01*
X109500Y154224D01*
Y152125D01*
X110025Y151600D01*
X111074D01*
X111599Y152125D01*
X112649Y151600D02*
X113698D01*
X113173D01*
Y154749D01*
X112649Y154224D01*
X117371Y154749D02*
X116322Y154224D01*
X115272Y153174D01*
Y152125D01*
X115797Y151600D01*
X116847D01*
X117371Y152125D01*
Y152649D01*
X116847Y153174D01*
X115272D01*
X216630Y163811D02*
Y166960D01*
X218204D01*
X218729Y166435D01*
Y165385D01*
X218204Y164861D01*
X216630D01*
X219778Y166435D02*
X220303Y166960D01*
X221353D01*
X221878Y166435D01*
Y165910D01*
X221353Y165385D01*
X220828D01*
X221353D01*
X221878Y164861D01*
Y164336D01*
X221353Y163811D01*
X220303D01*
X219778Y164336D01*
X99496Y13590D02*
Y16739D01*
X101070D01*
X101595Y16214D01*
Y15165D01*
X101070Y14640D01*
X99496D01*
X102645Y13590D02*
X103694D01*
X103169D01*
Y16739D01*
X102645Y16214D01*
X121000Y227200D02*
Y230349D01*
X122574D01*
X123099Y229824D01*
Y228774D01*
X122574Y228250D01*
X121000D01*
X126248Y230349D02*
X124149D01*
Y228774D01*
X125198Y229299D01*
X125723D01*
X126248Y228774D01*
Y227725D01*
X125723Y227200D01*
X124673D01*
X124149Y227725D01*
X220200Y46149D02*
X222299D01*
X221250D01*
Y43000D01*
X223349D02*
Y46149D01*
X224923D01*
X225448Y45624D01*
Y44574D01*
X224923Y44050D01*
X223349D01*
X226497Y43000D02*
X227547D01*
X227022D01*
Y46149D01*
X226497Y45624D01*
X220200Y192149D02*
X222299D01*
X221250D01*
Y189000D01*
X223349D02*
Y192149D01*
X224923D01*
X225448Y191624D01*
Y190574D01*
X224923Y190050D01*
X223349D01*
X228596Y189000D02*
X226497D01*
X228596Y191099D01*
Y191624D01*
X228071Y192149D01*
X227022D01*
X226497Y191624D01*
X16534Y114173D02*
Y112074D01*
Y113124D01*
X13386D01*
X16534Y109450D02*
Y110500D01*
X16010Y111025D01*
X13911D01*
X13386Y110500D01*
Y109450D01*
X13911Y108926D01*
X16010D01*
X16534Y109450D01*
X16010Y102628D02*
X16534Y103153D01*
Y104203D01*
X16010Y104727D01*
X15485D01*
X14960Y104203D01*
Y103153D01*
X14435Y102628D01*
X13911D01*
X13386Y103153D01*
Y104203D01*
X13911Y104727D01*
X16534Y101579D02*
Y99480D01*
Y100529D01*
X13386D01*
X16534Y96331D02*
Y98430D01*
X13386D01*
Y96331D01*
X14960Y98430D02*
Y97381D01*
X16534Y93183D02*
Y95282D01*
X13386D01*
Y93183D01*
X14960Y95282D02*
Y94232D01*
X13386Y92133D02*
X16534D01*
Y90559D01*
X16010Y90034D01*
X14960D01*
X14435Y90559D01*
Y92133D01*
Y91084D02*
X13386Y90034D01*
X16534Y88985D02*
Y87935D01*
Y88460D01*
X13386D01*
Y88985D01*
Y87935D01*
Y86361D02*
X16534D01*
X13386Y84262D01*
X16534D01*
X16010Y81113D02*
X16534Y81638D01*
Y82687D01*
X16010Y83212D01*
X13911D01*
X13386Y82687D01*
Y81638D01*
X13911Y81113D01*
X14960D01*
Y82163D01*
X16534Y76915D02*
Y75865D01*
Y76390D01*
X13386D01*
Y76915D01*
Y75865D01*
Y74291D02*
X16534D01*
X13386Y72192D01*
X16534D01*
Y71143D02*
Y69043D01*
Y70093D01*
X13386D01*
X16534Y65895D02*
Y67994D01*
X13386D01*
Y65895D01*
X14960Y67994D02*
Y66944D01*
X13386Y64845D02*
X16534D01*
Y63271D01*
X16010Y62746D01*
X14960D01*
X14435Y63271D01*
Y64845D01*
Y63796D02*
X13386Y62746D01*
X16534Y59598D02*
Y61697D01*
X14960D01*
Y60647D01*
Y61697D01*
X13386D01*
Y58548D02*
X15485D01*
X16534Y57499D01*
X15485Y56449D01*
X13386D01*
X14960D01*
Y58548D01*
X16010Y53300D02*
X16534Y53825D01*
Y54875D01*
X16010Y55400D01*
X13911D01*
X13386Y54875D01*
Y53825D01*
X13911Y53300D01*
X16534Y50152D02*
Y52251D01*
X13386D01*
Y50152D01*
X14960Y52251D02*
Y51201D01*
X16534Y45954D02*
X13386D01*
Y44379D01*
X13911Y43855D01*
X14435D01*
X14960Y44379D01*
Y45954D01*
Y44379D01*
X15485Y43855D01*
X16010D01*
X16534Y44379D01*
Y45954D01*
Y41231D02*
Y42280D01*
X16010Y42805D01*
X13911D01*
X13386Y42280D01*
Y41231D01*
X13911Y40706D01*
X16010D01*
X16534Y41231D01*
X13386Y39657D02*
X15485D01*
X16534Y38607D01*
X15485Y37558D01*
X13386D01*
X14960D01*
Y39657D01*
X13386Y36508D02*
X16534D01*
Y34934D01*
X16010Y34409D01*
X14960D01*
X14435Y34934D01*
Y36508D01*
Y35458D02*
X13386Y34409D01*
X16534Y33359D02*
X13386D01*
Y31785D01*
X13911Y31260D01*
X16010D01*
X16534Y31785D01*
Y33359D01*
X16534Y195276D02*
Y193176D01*
Y194226D01*
X13386D01*
X16534Y190553D02*
Y191602D01*
X16010Y192127D01*
X13911D01*
X13386Y191602D01*
Y190553D01*
X13911Y190028D01*
X16010D01*
X16534Y190553D01*
X16010Y183731D02*
X16534Y184256D01*
Y185305D01*
X16010Y185830D01*
X13911D01*
X13386Y185305D01*
Y184256D01*
X13911Y183731D01*
X13386Y182681D02*
X15485D01*
X16534Y181632D01*
X15485Y180582D01*
X13386D01*
X14960D01*
Y182681D01*
X13386Y179533D02*
X16534D01*
Y177958D01*
X16010Y177434D01*
X14960D01*
X14435Y177958D01*
Y179533D01*
Y178483D02*
X13386Y177434D01*
Y176384D02*
X16534D01*
Y174810D01*
X16010Y174285D01*
X14960D01*
X14435Y174810D01*
Y176384D01*
Y175335D02*
X13386Y174285D01*
X16534Y173235D02*
Y172186D01*
Y172711D01*
X13386D01*
Y173235D01*
Y172186D01*
X16534Y168513D02*
Y170612D01*
X13386D01*
Y168513D01*
X14960Y170612D02*
Y169562D01*
X13386Y167463D02*
X16534D01*
Y165889D01*
X16010Y165364D01*
X14960D01*
X14435Y165889D01*
Y167463D01*
Y166413D02*
X13386Y165364D01*
X16534Y161166D02*
X13386D01*
Y159592D01*
X13911Y159067D01*
X14435D01*
X14960Y159592D01*
Y161166D01*
Y159592D01*
X15485Y159067D01*
X16010D01*
X16534Y159592D01*
Y161166D01*
Y156443D02*
Y157492D01*
X16010Y158017D01*
X13911D01*
X13386Y157492D01*
Y156443D01*
X13911Y155918D01*
X16010D01*
X16534Y156443D01*
X13386Y154869D02*
X15485D01*
X16534Y153819D01*
X15485Y152770D01*
X13386D01*
X14960D01*
Y154869D01*
X13386Y151720D02*
X16534D01*
Y150146D01*
X16010Y149621D01*
X14960D01*
X14435Y150146D01*
Y151720D01*
Y150671D02*
X13386Y149621D01*
X16534Y148572D02*
X13386D01*
Y146997D01*
X13911Y146472D01*
X16010D01*
X16534Y146997D01*
Y148572D01*
X60760Y45931D02*
X60236Y46456D01*
X59186D01*
X58661Y45931D01*
Y43832D01*
X59186Y43307D01*
X60236D01*
X60760Y43832D01*
Y44881D01*
X59711D01*
X61810Y43307D02*
Y46456D01*
X63909Y43307D01*
Y46456D01*
X64959D02*
Y43307D01*
X66533D01*
X67058Y43832D01*
Y45931D01*
X66533Y46456D01*
X64959D01*
X60760Y53411D02*
X60236Y53936D01*
X59186D01*
X58661Y53411D01*
Y51312D01*
X59186Y50787D01*
X60236D01*
X60760Y51312D01*
Y52362D01*
X59711D01*
X61810Y50787D02*
Y53936D01*
X63909Y50787D01*
Y53936D01*
X64959D02*
Y50787D01*
X66533D01*
X67058Y51312D01*
Y53411D01*
X66533Y53936D01*
X64959D01*
X60760Y61187D02*
X60236Y61712D01*
X59186D01*
X58661Y61187D01*
Y60662D01*
X59186Y60137D01*
X60236D01*
X60760Y59613D01*
Y59088D01*
X60236Y58563D01*
X59186D01*
X58661Y59088D01*
X61810Y61712D02*
X63909D01*
X62859D01*
Y58563D01*
X67058Y61712D02*
X64959D01*
Y58563D01*
X67058D01*
X64959Y60137D02*
X66008D01*
X70206Y61712D02*
X68107D01*
Y58563D01*
X70206D01*
X68107Y60137D02*
X69157D01*
X71256Y58563D02*
Y61712D01*
X72830D01*
X73355Y61187D01*
Y60137D01*
X72830Y59613D01*
X71256D01*
X72305D02*
X73355Y58563D01*
X74404Y61712D02*
X75454D01*
X74929D01*
Y58563D01*
X74404D01*
X75454D01*
X77028D02*
Y61712D01*
X79127Y58563D01*
Y61712D01*
X82276Y61187D02*
X81751Y61712D01*
X80702D01*
X80177Y61187D01*
Y59088D01*
X80702Y58563D01*
X81751D01*
X82276Y59088D01*
Y60137D01*
X81226D01*
X86474Y61712D02*
X87524D01*
X86999D01*
Y58563D01*
X86474D01*
X87524D01*
X90672Y61712D02*
X89623D01*
X89098Y61187D01*
Y59088D01*
X89623Y58563D01*
X90672D01*
X91197Y59088D01*
Y61187D01*
X90672Y61712D01*
X95395D02*
X96444D01*
X95920D01*
Y58563D01*
X95395D01*
X96444D01*
X98019D02*
Y61712D01*
X100118Y58563D01*
Y61712D01*
X101167D02*
X103267D01*
X102217D01*
Y58563D01*
X60760Y69159D02*
X60236Y69684D01*
X59186D01*
X58661Y69159D01*
Y68634D01*
X59186Y68110D01*
X60236D01*
X60760Y67585D01*
Y67060D01*
X60236Y66535D01*
X59186D01*
X58661Y67060D01*
X61810Y69684D02*
X63909D01*
X62859D01*
Y66535D01*
X67058Y69684D02*
X64959D01*
Y66535D01*
X67058D01*
X64959Y68110D02*
X66008D01*
X70206Y69684D02*
X68107D01*
Y66535D01*
X70206D01*
X68107Y68110D02*
X69157D01*
X71256Y66535D02*
Y69684D01*
X72830D01*
X73355Y69159D01*
Y68110D01*
X72830Y67585D01*
X71256D01*
X72305D02*
X73355Y66535D01*
X74404Y69684D02*
X75454D01*
X74929D01*
Y66535D01*
X74404D01*
X75454D01*
X77028D02*
Y69684D01*
X79127Y66535D01*
Y69684D01*
X82276Y69159D02*
X81751Y69684D01*
X80702D01*
X80177Y69159D01*
Y67060D01*
X80702Y66535D01*
X81751D01*
X82276Y67060D01*
Y68110D01*
X81226D01*
X86474Y66535D02*
Y68634D01*
X87524Y69684D01*
X88573Y68634D01*
Y66535D01*
Y68110D01*
X86474D01*
X89623Y69684D02*
Y66535D01*
X91197D01*
X91722Y67060D01*
Y69159D01*
X91197Y69684D01*
X89623D01*
X94870Y69159D02*
X94345Y69684D01*
X93296D01*
X92771Y69159D01*
Y67060D01*
X93296Y66535D01*
X94345D01*
X94870Y67060D01*
X99068Y66535D02*
Y69684D01*
X100643D01*
X101167Y69159D01*
Y68110D01*
X100643Y67585D01*
X99068D01*
X100118D02*
X101167Y66535D01*
X102217Y69684D02*
Y66535D01*
X103791D01*
X104316Y67060D01*
Y69159D01*
X103791Y69684D01*
X102217D01*
X105366D02*
Y69159D01*
X106415Y68110D01*
X107465Y69159D01*
Y69684D01*
X106415Y68110D02*
Y66535D01*
X60760Y77821D02*
X60236Y78345D01*
X59186D01*
X58661Y77821D01*
Y77296D01*
X59186Y76771D01*
X60236D01*
X60760Y76246D01*
Y75722D01*
X60236Y75197D01*
X59186D01*
X58661Y75722D01*
X61810Y78345D02*
Y75197D01*
X63384D01*
X63909Y75722D01*
Y77821D01*
X63384Y78345D01*
X61810D01*
X64959Y75197D02*
Y77296D01*
X66008Y78345D01*
X67058Y77296D01*
Y75197D01*
Y76771D01*
X64959D01*
X60760Y85301D02*
X60236Y85826D01*
X59186D01*
X58661Y85301D01*
Y84776D01*
X59186Y84251D01*
X60236D01*
X60760Y83727D01*
Y83202D01*
X60236Y82677D01*
X59186D01*
X58661Y83202D01*
X63909Y85301D02*
X63384Y85826D01*
X62335D01*
X61810Y85301D01*
Y83202D01*
X62335Y82677D01*
X63384D01*
X63909Y83202D01*
X64959Y85826D02*
Y82677D01*
X67058D01*
X58661Y90551D02*
Y93700D01*
X60236D01*
X60760Y93175D01*
Y92125D01*
X60236Y91601D01*
X58661D01*
X63909Y93700D02*
X61810D01*
Y90551D01*
X63909D01*
X61810Y92125D02*
X62859D01*
X64959Y93700D02*
Y90551D01*
X66533D01*
X67058Y91076D01*
Y93175D01*
X66533Y93700D01*
X64959D01*
X68107Y90551D02*
Y92650D01*
X69157Y93700D01*
X70206Y92650D01*
Y90551D01*
Y92125D01*
X68107D01*
X71256Y93700D02*
Y90551D01*
X73355D01*
X77553D02*
Y92650D01*
X78602Y93700D01*
X79652Y92650D01*
Y90551D01*
Y92125D01*
X77553D01*
X80702Y93700D02*
Y90551D01*
X82276D01*
X82801Y91076D01*
Y93175D01*
X82276Y93700D01*
X80702D01*
X85949Y93175D02*
X85424Y93700D01*
X84375D01*
X83850Y93175D01*
Y91076D01*
X84375Y90551D01*
X85424D01*
X85949Y91076D01*
X90147Y90551D02*
Y93700D01*
X91722D01*
X92246Y93175D01*
Y92125D01*
X91722Y91601D01*
X90147D01*
X91197D02*
X92246Y90551D01*
X93296Y93700D02*
Y90551D01*
X94870D01*
X95395Y91076D01*
Y93175D01*
X94870Y93700D01*
X93296D01*
X96444D02*
Y93175D01*
X97494Y92125D01*
X98544Y93175D01*
Y93700D01*
X97494Y92125D02*
Y90551D01*
X58661Y101049D02*
X59186Y101574D01*
X60236D01*
X60760Y101049D01*
Y100524D01*
X60236Y99999D01*
X59711D01*
X60236D01*
X60760Y99475D01*
Y98950D01*
X60236Y98425D01*
X59186D01*
X58661Y98950D01*
X61810Y101574D02*
Y99475D01*
X62859Y98425D01*
X63909Y99475D01*
Y101574D01*
X64959Y101049D02*
X65483Y101574D01*
X66533D01*
X67058Y101049D01*
Y100524D01*
X66533Y99999D01*
X66008D01*
X66533D01*
X67058Y99475D01*
Y98950D01*
X66533Y98425D01*
X65483D01*
X64959Y98950D01*
X58661Y198391D02*
X59186Y198916D01*
X60236D01*
X60760Y198391D01*
Y197867D01*
X60236Y197342D01*
X59711D01*
X60236D01*
X60760Y196817D01*
Y196292D01*
X60236Y195768D01*
X59186D01*
X58661Y196292D01*
X61810Y198916D02*
Y196817D01*
X62859Y195768D01*
X63909Y196817D01*
Y198916D01*
X64959Y198391D02*
X65483Y198916D01*
X66533D01*
X67058Y198391D01*
Y197867D01*
X66533Y197342D01*
X66008D01*
X66533D01*
X67058Y196817D01*
Y196292D01*
X66533Y195768D01*
X65483D01*
X64959Y196292D01*
X58661Y187894D02*
Y191042D01*
X60236D01*
X60760Y190517D01*
Y189468D01*
X60236Y188943D01*
X58661D01*
X63909Y191042D02*
X61810D01*
Y187894D01*
X63909D01*
X61810Y189468D02*
X62859D01*
X64959Y191042D02*
Y187894D01*
X66533D01*
X67058Y188418D01*
Y190517D01*
X66533Y191042D01*
X64959D01*
X68107Y187894D02*
Y189993D01*
X69157Y191042D01*
X70206Y189993D01*
Y187894D01*
Y189468D01*
X68107D01*
X71256Y191042D02*
Y187894D01*
X73355D01*
X77553D02*
Y189993D01*
X78602Y191042D01*
X79652Y189993D01*
Y187894D01*
Y189468D01*
X77553D01*
X80702Y191042D02*
Y187894D01*
X82276D01*
X82801Y188418D01*
Y190517D01*
X82276Y191042D01*
X80702D01*
X85949Y190517D02*
X85424Y191042D01*
X84375D01*
X83850Y190517D01*
Y188418D01*
X84375Y187894D01*
X85424D01*
X85949Y188418D01*
X90147Y187894D02*
Y191042D01*
X91722D01*
X92246Y190517D01*
Y189468D01*
X91722Y188943D01*
X90147D01*
X91197D02*
X92246Y187894D01*
X93296Y191042D02*
Y187894D01*
X94870D01*
X95395Y188418D01*
Y190517D01*
X94870Y191042D01*
X93296D01*
X96444D02*
Y190517D01*
X97494Y189468D01*
X98544Y190517D01*
Y191042D01*
X97494Y189468D02*
Y187894D01*
X60760Y182643D02*
X60236Y183168D01*
X59186D01*
X58661Y182643D01*
Y182119D01*
X59186Y181594D01*
X60236D01*
X60760Y181069D01*
Y180544D01*
X60236Y180020D01*
X59186D01*
X58661Y180544D01*
X63909Y182643D02*
X63384Y183168D01*
X62335D01*
X61810Y182643D01*
Y180544D01*
X62335Y180020D01*
X63384D01*
X63909Y180544D01*
X64959Y183168D02*
Y180020D01*
X67058D01*
X60760Y175163D02*
X60236Y175688D01*
X59186D01*
X58661Y175163D01*
Y174638D01*
X59186Y174114D01*
X60236D01*
X60760Y173589D01*
Y173064D01*
X60236Y172539D01*
X59186D01*
X58661Y173064D01*
X61810Y175688D02*
Y172539D01*
X63384D01*
X63909Y173064D01*
Y175163D01*
X63384Y175688D01*
X61810D01*
X64959Y172539D02*
Y174638D01*
X66008Y175688D01*
X67058Y174638D01*
Y172539D01*
Y174114D01*
X64959D01*
X60760Y166502D02*
X60236Y167026D01*
X59186D01*
X58661Y166502D01*
Y165977D01*
X59186Y165452D01*
X60236D01*
X60760Y164927D01*
Y164403D01*
X60236Y163878D01*
X59186D01*
X58661Y164403D01*
X61810Y167026D02*
X63909D01*
X62859D01*
Y163878D01*
X67058Y167026D02*
X64959D01*
Y163878D01*
X67058D01*
X64959Y165452D02*
X66008D01*
X70206Y167026D02*
X68107D01*
Y163878D01*
X70206D01*
X68107Y165452D02*
X69157D01*
X71256Y163878D02*
Y167026D01*
X72830D01*
X73355Y166502D01*
Y165452D01*
X72830Y164927D01*
X71256D01*
X72305D02*
X73355Y163878D01*
X74404Y167026D02*
X75454D01*
X74929D01*
Y163878D01*
X74404D01*
X75454D01*
X77028D02*
Y167026D01*
X79127Y163878D01*
Y167026D01*
X82276Y166502D02*
X81751Y167026D01*
X80702D01*
X80177Y166502D01*
Y164403D01*
X80702Y163878D01*
X81751D01*
X82276Y164403D01*
Y165452D01*
X81226D01*
X86474Y163878D02*
Y165977D01*
X87524Y167026D01*
X88573Y165977D01*
Y163878D01*
Y165452D01*
X86474D01*
X89623Y167026D02*
Y163878D01*
X91197D01*
X91722Y164403D01*
Y166502D01*
X91197Y167026D01*
X89623D01*
X94870Y166502D02*
X94345Y167026D01*
X93296D01*
X92771Y166502D01*
Y164403D01*
X93296Y163878D01*
X94345D01*
X94870Y164403D01*
X99068Y163878D02*
Y167026D01*
X100643D01*
X101167Y166502D01*
Y165452D01*
X100643Y164927D01*
X99068D01*
X100118D02*
X101167Y163878D01*
X102217Y167026D02*
Y163878D01*
X103791D01*
X104316Y164403D01*
Y166502D01*
X103791Y167026D01*
X102217D01*
X105366D02*
Y166502D01*
X106415Y165452D01*
X107465Y166502D01*
Y167026D01*
X106415Y165452D02*
Y163878D01*
X60760Y158529D02*
X60236Y159054D01*
X59186D01*
X58661Y158529D01*
Y158005D01*
X59186Y157480D01*
X60236D01*
X60760Y156955D01*
Y156430D01*
X60236Y155905D01*
X59186D01*
X58661Y156430D01*
X61810Y159054D02*
X63909D01*
X62859D01*
Y155905D01*
X67058Y159054D02*
X64959D01*
Y155905D01*
X67058D01*
X64959Y157480D02*
X66008D01*
X70206Y159054D02*
X68107D01*
Y155905D01*
X70206D01*
X68107Y157480D02*
X69157D01*
X71256Y155905D02*
Y159054D01*
X72830D01*
X73355Y158529D01*
Y157480D01*
X72830Y156955D01*
X71256D01*
X72305D02*
X73355Y155905D01*
X74404Y159054D02*
X75454D01*
X74929D01*
Y155905D01*
X74404D01*
X75454D01*
X77028D02*
Y159054D01*
X79127Y155905D01*
Y159054D01*
X82276Y158529D02*
X81751Y159054D01*
X80702D01*
X80177Y158529D01*
Y156430D01*
X80702Y155905D01*
X81751D01*
X82276Y156430D01*
Y157480D01*
X81226D01*
X86474Y159054D02*
X87524D01*
X86999D01*
Y155905D01*
X86474D01*
X87524D01*
X90672Y159054D02*
X89623D01*
X89098Y158529D01*
Y156430D01*
X89623Y155905D01*
X90672D01*
X91197Y156430D01*
Y158529D01*
X90672Y159054D01*
X95395D02*
X96444D01*
X95920D01*
Y155905D01*
X95395D01*
X96444D01*
X98019D02*
Y159054D01*
X100118Y155905D01*
Y159054D01*
X101167D02*
X103267D01*
X102217D01*
Y155905D01*
X60760Y150754D02*
X60236Y151278D01*
X59186D01*
X58661Y150754D01*
Y148655D01*
X59186Y148130D01*
X60236D01*
X60760Y148655D01*
X63384Y151278D02*
X62335D01*
X61810Y150754D01*
Y148655D01*
X62335Y148130D01*
X63384D01*
X63909Y148655D01*
Y150754D01*
X63384Y151278D01*
X64959Y148130D02*
Y151278D01*
X67058Y148130D01*
Y151278D01*
X70206Y150754D02*
X69682Y151278D01*
X68632D01*
X68107Y150754D01*
Y150229D01*
X68632Y149704D01*
X69682D01*
X70206Y149179D01*
Y148655D01*
X69682Y148130D01*
X68632D01*
X68107Y148655D01*
X72830Y151278D02*
X71781D01*
X71256Y150754D01*
Y148655D01*
X71781Y148130D01*
X72830D01*
X73355Y148655D01*
Y150754D01*
X72830Y151278D01*
X74404D02*
Y148130D01*
X76503D01*
X79652Y151278D02*
X77553D01*
Y148130D01*
X79652D01*
X77553Y149704D02*
X78602D01*
X83850Y151278D02*
X84900D01*
X84375D01*
Y148130D01*
X83850D01*
X84900D01*
X88048Y151278D02*
X86999D01*
X86474Y150754D01*
Y148655D01*
X86999Y148130D01*
X88048D01*
X88573Y148655D01*
Y150754D01*
X88048Y151278D01*
X92771D02*
X93821D01*
X93296D01*
Y148130D01*
X92771D01*
X93821D01*
X95395D02*
Y151278D01*
X97494Y148130D01*
Y151278D01*
X98544D02*
X100643D01*
X99593D01*
Y148130D01*
X60760Y143273D02*
X60236Y143798D01*
X59186D01*
X58661Y143273D01*
Y141174D01*
X59186Y140650D01*
X60236D01*
X60760Y141174D01*
Y142224D01*
X59711D01*
X61810Y140650D02*
Y143798D01*
X63909Y140650D01*
Y143798D01*
X64959D02*
Y140650D01*
X66533D01*
X67058Y141174D01*
Y143273D01*
X66533Y143798D01*
X64959D01*
X18110Y21260D02*
Y24408D01*
X19684D01*
X20209Y23884D01*
Y22834D01*
X19684Y22309D01*
X18110D01*
X22833Y21260D02*
Y24408D01*
X21259Y22834D01*
X23358D01*
X18700Y218100D02*
Y221249D01*
X20274D01*
X20799Y220724D01*
Y219674D01*
X20274Y219149D01*
X18700D01*
X23948Y218100D02*
X21849D01*
X23948Y220199D01*
Y220724D01*
X23423Y221249D01*
X22373D01*
X21849Y220724D01*
M02*
