M48
;Layer_Color=9474304
;FILE_FORMAT=2:5
INCH,TZ
;TYPE=PLATED
T1F00S00C0.01181
T2F00S00C0.10630
%
T01
X57874Y44587
X44013Y60236
X41732Y67716
X44094Y99508
X41535Y102854
X81890Y96358
X77756Y92126
X89764Y94390
X84193Y129075
X77953Y134252
X81890Y138976
X61024Y141929
X136122Y143209
X140846Y133268
X155905Y90650
Y75098
Y58957
Y41142
X166043Y43110
X166142Y58465
X175591Y53937
Y69685
X165453Y74311
Y89961
X175197Y85039
Y101181
X194980Y103150
X194685Y87402
X195177Y71653
X195571Y55905
X165945Y148819
X157480Y149016
Y165354
X166043Y164665
X175591Y160236
Y175984
X166043Y180413
X157480Y181299
X175591Y191732
X194783Y194095
X194882Y178347
X195079Y162598
T02
X11811Y11811
X224409
Y224410
X11811
M30
