G04 Layer_Color=16711935*
%FSLAX25Y25*%
%MOIN*%
G70*
G01*
G75*
%ADD53C,0.06800*%
%ADD54R,0.05524X0.05524*%
%ADD55C,0.05524*%
%ADD56R,0.06800X0.06800*%
%ADD57C,0.05300*%
%ADD58R,0.05300X0.05300*%
%ADD59R,0.05524X0.05524*%
%ADD60R,0.04343X0.04343*%
%ADD61C,0.04343*%
%ADD62R,0.07099X0.07099*%
%ADD63C,0.07099*%
%ADD64C,0.00800*%
%ADD65C,0.11430*%
%ADD66C,0.21800*%
%ADD67C,0.28359*%
%ADD68C,0.16548*%
%ADD69R,0.16548X0.16548*%
D53*
X-105000Y-130000D02*
D03*
Y-110000D02*
D03*
X-45000Y-100000D02*
D03*
Y-110000D02*
D03*
Y-130000D02*
D03*
D54*
Y-19685D02*
D03*
X251000Y10000D02*
D03*
X287500Y10000D02*
D03*
D55*
X-45000Y0D02*
D03*
X30000Y70000D02*
D03*
X199370D02*
D03*
X251000Y23779D02*
D03*
X287500Y23779D02*
D03*
X30000Y-210000D02*
D03*
X199370D02*
D03*
D56*
X-45000Y-140000D02*
D03*
D57*
X-82500Y0D02*
D03*
D58*
X-102500D02*
D03*
D59*
X-9370Y70000D02*
D03*
X160000D02*
D03*
X-9370Y-210000D02*
D03*
X160000D02*
D03*
D60*
X220000Y-75000D02*
D03*
D61*
Y-65158D02*
D03*
D62*
X-142500Y0D02*
D03*
X298110Y-50000D02*
D03*
D63*
X-142500Y13780D02*
D03*
X-140020Y-9843D02*
D03*
Y23622D02*
D03*
X280000Y-50000D02*
D03*
Y-63779D02*
D03*
Y-77559D02*
D03*
X298110D02*
D03*
Y-63779D02*
D03*
Y-91339D02*
D03*
X280000D02*
D03*
D64*
X285591Y-101181D02*
D03*
Y-40157D02*
D03*
D65*
X-145158Y-220158D02*
D03*
Y75118D02*
D03*
X307598D02*
D03*
Y-220158D02*
D03*
D66*
X95000Y-170000D02*
D03*
Y30000D02*
D03*
X30000Y-170000D02*
D03*
X160000D02*
D03*
Y30000D02*
D03*
X30000D02*
D03*
D67*
X190000Y0D02*
D03*
Y-140000D02*
D03*
D68*
Y-40000D02*
D03*
Y-70000D02*
D03*
Y-100000D02*
D03*
X0Y-140000D02*
D03*
Y-100000D02*
D03*
Y-40000D02*
D03*
D69*
Y0D02*
D03*
M02*
