G04 Layer_Physical_Order=4*
G04 Layer_Color=16711680*
%FSTAX24Y24*%
%MOIN*%
G70*
G01*
G75*
%ADD14R,0.0335X0.0335*%
%ADD24R,0.0394X0.0354*%
%ADD38C,0.0100*%
%ADD40C,0.0080*%
%ADD41C,0.1063*%
%ADD42R,0.0600X0.0600*%
%ADD43C,0.0600*%
%ADD44C,0.0236*%
%ADD45C,0.0394*%
%ADD46R,0.0965X0.1457*%
%ADD47R,0.0850X0.0700*%
G36*
X046313Y02713D02*
X020656Y02713D01*
Y028978D01*
X021051D01*
X021638Y028512D01*
X022184Y029049D01*
X022199Y029039D01*
X022269Y029025D01*
X022338Y029039D01*
X022397Y029078D01*
X022436Y029137D01*
X02245Y029207D01*
X022436Y029276D01*
X022428Y029289D01*
X026055Y03286D01*
X026055Y035425D01*
X025931D01*
Y046565D01*
X046313Y046565D01*
X046313Y02713D01*
D02*
G37*
%LPC*%
G36*
X034006Y032838D02*
X033937Y032824D01*
X033878Y032785D01*
X033839Y032726D01*
X033825Y032656D01*
X033839Y032587D01*
X033878Y032528D01*
X033937Y032489D01*
X034006Y032475D01*
X034037Y032481D01*
X03469Y031828D01*
X034724Y031806D01*
X034763Y031798D01*
X037858D01*
X038375Y031281D01*
X038368Y03125D01*
X038382Y031181D01*
X038422Y031122D01*
X038481Y031082D01*
X03855Y031068D01*
X038619Y031082D01*
X038678Y031122D01*
X038718Y031181D01*
X038732Y03125D01*
X038718Y031319D01*
X038678Y031378D01*
X038619Y031418D01*
X03855Y031432D01*
X038519Y031425D01*
X037972Y031972D01*
X037939Y031994D01*
X0379Y032002D01*
X034805D01*
X034182Y032625D01*
X034188Y032656D01*
X034174Y032726D01*
X034135Y032785D01*
X034076Y032824D01*
X034006Y032838D01*
D02*
G37*
G36*
X0335Y032832D02*
X033431Y032818D01*
X033372Y032778D01*
X033332Y03272D01*
X033318Y03265D01*
X033332Y03258D01*
X033372Y032522D01*
X033431Y032482D01*
X0335Y032468D01*
X033531Y032475D01*
X034428Y031578D01*
X034461Y031556D01*
X0345Y031548D01*
X037358D01*
X037625Y031281D01*
X037618Y03125D01*
X037632Y031181D01*
X037672Y031122D01*
X037731Y031082D01*
X0378Y031068D01*
X03787Y031082D01*
X037928Y031122D01*
X037968Y031181D01*
X037982Y03125D01*
X037968Y031319D01*
X037928Y031378D01*
X03787Y031418D01*
X0378Y031432D01*
X037769Y031425D01*
X037472Y031722D01*
X037439Y031744D01*
X0374Y031752D01*
X034542D01*
X033675Y032619D01*
X033682Y03265D01*
X033668Y03272D01*
X033628Y032778D01*
X03357Y032818D01*
X0335Y032832D01*
D02*
G37*
G36*
X034506Y032838D02*
X034437Y032824D01*
X034378Y032785D01*
X034339Y032726D01*
X034325Y032656D01*
X034339Y032587D01*
X034378Y032528D01*
X034437Y032489D01*
X034506Y032475D01*
X034537Y032481D01*
X034941Y032078D01*
X034974Y032056D01*
X035013Y032048D01*
X038408D01*
X039175Y031281D01*
X039168Y03125D01*
X039182Y031181D01*
X039222Y031122D01*
X039281Y031082D01*
X03935Y031068D01*
X03942Y031082D01*
X039478Y031122D01*
X039518Y031181D01*
X039532Y03125D01*
X039518Y031319D01*
X039478Y031378D01*
X03942Y031418D01*
X03935Y031432D01*
X039319Y031425D01*
X038522Y032222D01*
X038489Y032244D01*
X03845Y032252D01*
X035055D01*
X034682Y032625D01*
X034688Y032656D01*
X034674Y032726D01*
X034635Y032785D01*
X034576Y032824D01*
X034506Y032838D01*
D02*
G37*
G36*
X027444Y036092D02*
X027374Y036078D01*
X027315Y036038D01*
X027276Y035979D01*
X027262Y03591D01*
X027276Y03584D01*
X027315Y035782D01*
X027374Y035742D01*
X027444Y035728D01*
X027513Y035742D01*
X027572Y035782D01*
X02759Y035808D01*
X027901D01*
X028242Y035468D01*
Y033052D01*
X027251Y032062D01*
X02614D01*
X026122Y032088D01*
X026063Y032128D01*
X025994Y032142D01*
X025924Y032128D01*
X025865Y032088D01*
X025826Y03203D01*
X025812Y03196D01*
X025826Y03189D01*
X025865Y031832D01*
X025924Y031792D01*
X025994Y031778D01*
X026063Y031792D01*
X026122Y031832D01*
X02614Y031858D01*
X027294D01*
X027333Y031866D01*
X027366Y031888D01*
X028416Y032938D01*
X028438Y032971D01*
X028446Y03301D01*
Y03551D01*
X028438Y035549D01*
X028416Y035582D01*
X028016Y035982D01*
X027983Y036004D01*
X027944Y036012D01*
X02759D01*
X027572Y036038D01*
X027513Y036078D01*
X027444Y036092D01*
D02*
G37*
G36*
X035006Y032838D02*
X034937Y032824D01*
X034878Y032785D01*
X034839Y032726D01*
X034825Y032656D01*
X034839Y032587D01*
X034878Y032528D01*
X034937Y032489D01*
X035006Y032475D01*
X035038Y032481D01*
X03519Y032328D01*
X035224Y032306D01*
X035263Y032298D01*
X038958D01*
X039975Y031281D01*
X039968Y03125D01*
X039982Y031181D01*
X040022Y031122D01*
X04008Y031082D01*
X04015Y031068D01*
X040219Y031082D01*
X040278Y031122D01*
X040318Y031181D01*
X040332Y03125D01*
X040318Y031319D01*
X040278Y031378D01*
X040219Y031418D01*
X04015Y031432D01*
X040119Y031425D01*
X039072Y032472D01*
X039039Y032494D01*
X039Y032502D01*
X035599Y032502D01*
X035628Y032522D01*
X035646Y032548D01*
X039508D01*
X040775Y031281D01*
X040768Y03125D01*
X040782Y031181D01*
X040822Y031122D01*
X04088Y031082D01*
X04095Y031068D01*
X041019Y031082D01*
X041078Y031122D01*
X041118Y031181D01*
X041132Y03125D01*
X041118Y031319D01*
X041078Y031378D01*
X041019Y031418D01*
X04095Y031432D01*
X040919Y031425D01*
X039622Y032722D01*
X039589Y032744D01*
X03955Y032752D01*
X035646D01*
X035628Y032778D01*
X03557Y032818D01*
X0355Y032832D01*
X035431Y032818D01*
X035372Y032778D01*
X035332Y03272D01*
X035318Y03265D01*
X035332Y03258D01*
X035372Y032522D01*
X035401Y032502D01*
X035305D01*
X035182Y032625D01*
X035188Y032656D01*
X035174Y032726D01*
X035135Y032785D01*
X035076Y032824D01*
X035006Y032838D01*
D02*
G37*
G36*
X026748Y031387D02*
X026679Y031373D01*
X02662Y031334D01*
X02658Y031275D01*
X026566Y031206D01*
X02658Y031136D01*
X02662Y031077D01*
X026679Y031038D01*
X026748Y031024D01*
X026818Y031038D01*
X026876Y031077D01*
X026916Y031136D01*
X02693Y031206D01*
X026916Y031275D01*
X026876Y031334D01*
X026818Y031373D01*
X026748Y031387D01*
D02*
G37*
G36*
X0315Y030032D02*
X03143Y030018D01*
X031372Y029978D01*
X031332Y02992D01*
X031318Y02985D01*
X031332Y02978D01*
X031372Y029722D01*
X031398Y029704D01*
Y029642D01*
X031266D01*
Y029188D01*
X031721D01*
Y029642D01*
X031602D01*
Y029704D01*
X031628Y029722D01*
X031668Y02978D01*
X031682Y02985D01*
X031668Y02992D01*
X031628Y029978D01*
X031569Y030018D01*
X0315Y030032D01*
D02*
G37*
G36*
X0307D02*
X030631Y030018D01*
X030572Y029978D01*
X030532Y02992D01*
X030518Y02985D01*
X030532Y02978D01*
X030572Y029722D01*
X030598Y029704D01*
Y029642D01*
X030466D01*
Y029188D01*
X030921D01*
Y029642D01*
X030802D01*
Y029704D01*
X030828Y029722D01*
X030868Y02978D01*
X030882Y02985D01*
X030868Y02992D01*
X030828Y029978D01*
X03077Y030018D01*
X0307Y030032D01*
D02*
G37*
G36*
X033494Y035292D02*
X033424Y035278D01*
X033365Y035238D01*
X033326Y03518D01*
X033312Y03511D01*
X033318Y035079D01*
X033128Y034888D01*
X033106Y034855D01*
X033098Y034816D01*
Y029192D01*
X033095Y029189D01*
X033096Y029194D01*
Y034964D01*
X033122Y034982D01*
X033161Y035041D01*
X033175Y03511D01*
X033161Y03518D01*
X033122Y035238D01*
X033063Y035278D01*
X032994Y035292D01*
X032924Y035278D01*
X032865Y035238D01*
X032826Y03518D01*
X032812Y03511D01*
X032826Y035041D01*
X032865Y034982D01*
X032892Y034964D01*
Y029236D01*
X032595Y028939D01*
X032596Y028944D01*
Y034964D01*
X032622Y034982D01*
X032661Y035041D01*
X032675Y03511D01*
X032661Y03518D01*
X032622Y035238D01*
X032563Y035278D01*
X032494Y035292D01*
X032424Y035278D01*
X032365Y035238D01*
X032326Y03518D01*
X032312Y03511D01*
X032326Y035041D01*
X032365Y034982D01*
X032392Y034964D01*
Y028986D01*
X031608Y028202D01*
X028992D01*
X028802Y028392D01*
Y029658D01*
X028892Y029748D01*
X028954D01*
X028972Y029722D01*
X028998Y029704D01*
Y029642D01*
X028866D01*
Y029188D01*
X029321D01*
Y029642D01*
X029202D01*
Y029704D01*
X029228Y029722D01*
X029268Y02978D01*
X029282Y02985D01*
X029268Y02992D01*
X029228Y029978D01*
X029169Y030018D01*
X0291Y030032D01*
X02903Y030018D01*
X028972Y029978D01*
X028954Y029952D01*
X02885D01*
X028811Y029944D01*
X028778Y029922D01*
X028628Y029772D01*
X028606Y029739D01*
X028598Y0297D01*
Y02835D01*
X028606Y028311D01*
X028628Y028278D01*
X028878Y028028D01*
X028911Y028006D01*
X02893Y028002D01*
X028492D01*
X028052Y028442D01*
Y029658D01*
X028142Y029748D01*
X028204D01*
X028222Y029722D01*
X028248Y029704D01*
Y029642D01*
X028116D01*
Y029188D01*
X028571D01*
Y029642D01*
X028452D01*
Y029704D01*
X028478Y029722D01*
X028518Y02978D01*
X028532Y02985D01*
X028518Y02992D01*
X028478Y029978D01*
X028419Y030018D01*
X02835Y030032D01*
X02828Y030018D01*
X028222Y029978D01*
X028204Y029952D01*
X0281D01*
X028061Y029944D01*
X028028Y029922D01*
X027878Y029772D01*
X027856Y029739D01*
X027848Y0297D01*
Y0284D01*
X027856Y028361D01*
X027878Y028328D01*
X028354Y027852D01*
X028354Y027852D01*
X027842D01*
X027252Y028442D01*
Y029658D01*
X027342Y029748D01*
X027404D01*
X027422Y029722D01*
X027448Y029704D01*
Y029642D01*
X027316D01*
Y029188D01*
X027771D01*
Y029642D01*
X027652D01*
Y029704D01*
X027678Y029722D01*
X027718Y02978D01*
X027732Y02985D01*
X027718Y02992D01*
X027678Y029978D01*
X02762Y030018D01*
X02755Y030032D01*
X02748Y030018D01*
X027422Y029978D01*
X027404Y029952D01*
X0273D01*
X027261Y029944D01*
X027228Y029922D01*
X027078Y029772D01*
X027056Y029739D01*
X027048Y0297D01*
Y0284D01*
X027056Y028361D01*
X027078Y028328D01*
X027728Y027678D01*
X027761Y027656D01*
X0278Y027648D01*
X0318D01*
X031839Y027656D01*
X031872Y027678D01*
X033272Y029078D01*
X033294Y029111D01*
X033302Y02915D01*
Y034774D01*
X033463Y034935D01*
X033494Y034928D01*
X033563Y034942D01*
X033622Y034982D01*
X033661Y035041D01*
X033675Y03511D01*
X033661Y03518D01*
X033622Y035238D01*
X033563Y035278D01*
X033494Y035292D01*
D02*
G37*
G36*
X0357Y030735D02*
X035631Y030721D01*
X035572Y030682D01*
X035533Y030623D01*
X035519Y030553D01*
X035533Y030484D01*
X035572Y030425D01*
X035631Y030386D01*
X0357Y030372D01*
X03577Y030386D01*
X035829Y030425D01*
X035868Y030484D01*
X035882Y030553D01*
X035868Y030623D01*
X035829Y030682D01*
X03577Y030721D01*
X0357Y030735D01*
D02*
G37*
G36*
X031994Y035292D02*
X031924Y035278D01*
X031865Y035238D01*
X031826Y03518D01*
X031812Y03511D01*
X031826Y035041D01*
X031865Y034982D01*
X031892Y034964D01*
Y031986D01*
X029931Y030025D01*
X0299Y030032D01*
X029831Y030018D01*
X029772Y029978D01*
X029732Y02992D01*
X029718Y02985D01*
X029732Y02978D01*
X029772Y029722D01*
X029798Y029704D01*
Y029642D01*
X029666D01*
Y029188D01*
X030121D01*
Y029642D01*
X030002D01*
Y029704D01*
X030028Y029722D01*
X030068Y02978D01*
X030082Y02985D01*
X030075Y029881D01*
X032066Y031872D01*
X032088Y031905D01*
X032096Y031944D01*
Y034964D01*
X032122Y034982D01*
X032161Y035041D01*
X032175Y03511D01*
X032161Y03518D01*
X032122Y035238D01*
X032063Y035278D01*
X031994Y035292D01*
D02*
G37*
G36*
X029544Y033392D02*
X029474Y033378D01*
X029415Y033338D01*
X029376Y03328D01*
X029362Y03321D01*
X029376Y03314D01*
X029415Y033082D01*
X029474Y033042D01*
X029544Y033028D01*
X029613Y033042D01*
X029672Y033082D01*
X029711Y03314D01*
X029725Y03321D01*
X029711Y03328D01*
X029672Y033338D01*
X029613Y033378D01*
X029544Y033392D01*
D02*
G37*
G36*
X029244Y034431D02*
X029037D01*
Y034244D01*
X029244D01*
Y034431D01*
D02*
G37*
G36*
X027344D02*
X027137D01*
Y034244D01*
X027344D01*
Y034431D01*
D02*
G37*
G36*
X031301Y034244D02*
X031094D01*
Y034057D01*
X031301D01*
Y034244D01*
D02*
G37*
G36*
X030994Y034531D02*
X030787D01*
Y034344D01*
X030994D01*
Y034531D01*
D02*
G37*
G36*
X029551Y034431D02*
X029344D01*
Y034244D01*
X029551D01*
Y034431D01*
D02*
G37*
G36*
X027651D02*
X027444D01*
Y034244D01*
X027651D01*
Y034431D01*
D02*
G37*
G36*
Y034144D02*
X027444D01*
Y033957D01*
X027651D01*
Y034144D01*
D02*
G37*
G36*
X027344D02*
X027137D01*
Y033957D01*
X027344D01*
Y034144D01*
D02*
G37*
G36*
X038932Y034282D02*
X038862Y034268D01*
X038803Y034228D01*
X038764Y034169D01*
X03875Y0341D01*
X038764Y03403D01*
X038803Y033972D01*
X038862Y033932D01*
X038932Y033918D01*
X039001Y033932D01*
X03906Y033972D01*
X039099Y03403D01*
X039113Y0341D01*
X039099Y034169D01*
X03906Y034228D01*
X039001Y034268D01*
X038932Y034282D01*
D02*
G37*
G36*
X030994Y034244D02*
X030787D01*
Y034057D01*
X030994D01*
Y034244D01*
D02*
G37*
G36*
X029551Y034144D02*
X029344D01*
Y033957D01*
X029551D01*
Y034144D01*
D02*
G37*
G36*
X029244D02*
X029037D01*
Y033957D01*
X029244D01*
Y034144D01*
D02*
G37*
G36*
X030121Y028755D02*
X029944D01*
Y028578D01*
X030121D01*
Y028755D01*
D02*
G37*
G36*
X029844D02*
X029666D01*
Y028578D01*
X029844D01*
Y028755D01*
D02*
G37*
G36*
X029321D02*
X029144D01*
Y028578D01*
X029321D01*
Y028755D01*
D02*
G37*
G36*
X031444D02*
X031266D01*
Y028578D01*
X031444D01*
Y028755D01*
D02*
G37*
G36*
X030921D02*
X030744D01*
Y028578D01*
X030921D01*
Y028755D01*
D02*
G37*
G36*
X030644D02*
X030466D01*
Y028578D01*
X030644D01*
Y028755D01*
D02*
G37*
G36*
X027771D02*
X027594D01*
Y028578D01*
X027771D01*
Y028755D01*
D02*
G37*
G36*
X027494D02*
X027316D01*
Y028578D01*
X027494D01*
Y028755D01*
D02*
G37*
G36*
X045449Y028579D02*
X045333Y028567D01*
X045221Y028533D01*
X045119Y028478D01*
X045029Y028405D01*
X044955Y028314D01*
X0449Y028212D01*
X044866Y0281D01*
X044854Y027984D01*
X044866Y027868D01*
X0449Y027757D01*
X044955Y027654D01*
X045029Y027564D01*
X045119Y02749D01*
X045221Y027435D01*
X045333Y027401D01*
X045449Y02739D01*
X045565Y027401D01*
X045676Y027435D01*
X045779Y02749D01*
X045869Y027564D01*
X045943Y027654D01*
X045998Y027757D01*
X046032Y027868D01*
X046043Y027984D01*
X046032Y0281D01*
X045998Y028212D01*
X045943Y028314D01*
X045869Y028405D01*
X045779Y028478D01*
X045676Y028533D01*
X045565Y028567D01*
X045449Y028579D01*
D02*
G37*
G36*
X029044Y028755D02*
X028866D01*
Y028578D01*
X029044D01*
Y028755D01*
D02*
G37*
G36*
X028571D02*
X028394D01*
Y028578D01*
X028571D01*
Y028755D01*
D02*
G37*
G36*
X028294D02*
X028116D01*
Y028578D01*
X028294D01*
Y028755D01*
D02*
G37*
G36*
X031721D02*
X031544D01*
Y028578D01*
X031721D01*
Y028755D01*
D02*
G37*
G36*
X030644Y029032D02*
X030466D01*
Y028855D01*
X030644D01*
Y029032D01*
D02*
G37*
G36*
X030121D02*
X029944D01*
Y028855D01*
X030121D01*
Y029032D01*
D02*
G37*
G36*
X029844D02*
X029666D01*
Y028855D01*
X029844D01*
Y029032D01*
D02*
G37*
G36*
X031721D02*
X031544D01*
Y028855D01*
X031721D01*
Y029032D01*
D02*
G37*
G36*
X031444D02*
X031266D01*
Y028855D01*
X031444D01*
Y029032D01*
D02*
G37*
G36*
X030921D02*
X030744D01*
Y028855D01*
X030921D01*
Y029032D01*
D02*
G37*
G36*
X028294D02*
X028116D01*
Y028855D01*
X028294D01*
Y029032D01*
D02*
G37*
G36*
X027771D02*
X027594D01*
Y028855D01*
X027771D01*
Y029032D01*
D02*
G37*
G36*
X027494D02*
X027316D01*
Y028855D01*
X027494D01*
Y029032D01*
D02*
G37*
G36*
X029321D02*
X029144D01*
Y028855D01*
X029321D01*
Y029032D01*
D02*
G37*
G36*
X029044D02*
X028866D01*
Y028855D01*
X029044D01*
Y029032D01*
D02*
G37*
G36*
X028571D02*
X028394D01*
Y028855D01*
X028571D01*
Y029032D01*
D02*
G37*
G36*
X038131Y040876D02*
X037924D01*
Y040689D01*
X038131D01*
Y040876D01*
D02*
G37*
G36*
X037824D02*
X037617D01*
Y040689D01*
X037824D01*
Y040876D01*
D02*
G37*
G36*
X035631D02*
X035424D01*
Y040689D01*
X035631D01*
Y040876D01*
D02*
G37*
G36*
Y041163D02*
X035424D01*
Y040976D01*
X035631D01*
Y041163D01*
D02*
G37*
G36*
X035324D02*
X035117D01*
Y040976D01*
X035324D01*
Y041163D01*
D02*
G37*
G36*
X0337Y041092D02*
X03363Y041078D01*
X033572Y041038D01*
X033532Y040979D01*
X033518Y04091D01*
X033532Y040841D01*
X033572Y040782D01*
X03363Y040742D01*
X0337Y040728D01*
X03377Y040742D01*
X033828Y040782D01*
X033868Y040841D01*
X033882Y04091D01*
X033868Y040979D01*
X033828Y041038D01*
X03377Y041078D01*
X0337Y041092D01*
D02*
G37*
G36*
Y040692D02*
X03363Y040678D01*
X033572Y040638D01*
X033532Y04058D01*
X033518Y04051D01*
X033532Y040441D01*
X033572Y040382D01*
X03363Y040342D01*
X0337Y040328D01*
X03377Y040342D01*
X033828Y040382D01*
X033868Y040441D01*
X033882Y04051D01*
X033868Y04058D01*
X033828Y040638D01*
X03377Y040678D01*
X0337Y040692D01*
D02*
G37*
G36*
X026929Y040275D02*
X026751D01*
Y040098D01*
X026929D01*
Y040275D01*
D02*
G37*
G36*
X026651D02*
X026474D01*
Y040098D01*
X026651D01*
Y040275D01*
D02*
G37*
G36*
X035324Y040876D02*
X035117D01*
Y040689D01*
X035324D01*
Y040876D01*
D02*
G37*
G36*
X026929Y040552D02*
X026751D01*
Y040375D01*
X026929D01*
Y040552D01*
D02*
G37*
G36*
X026651D02*
X026474D01*
Y040375D01*
X026651D01*
Y040552D01*
D02*
G37*
G36*
X037824Y041163D02*
X037617D01*
Y040976D01*
X037824D01*
Y041163D01*
D02*
G37*
G36*
X02785Y044713D02*
X027756Y044701D01*
X027668Y044664D01*
X027593Y044607D01*
X027536Y044532D01*
X027499Y044444D01*
X027487Y04435D01*
X027499Y044256D01*
X027536Y044168D01*
X027593Y044093D01*
X027668Y044036D01*
X027756Y043999D01*
X02785Y043987D01*
X027944Y043999D01*
X028032Y044036D01*
X028107Y044093D01*
X028164Y044168D01*
X028201Y044256D01*
X028213Y04435D01*
X028201Y044444D01*
X028164Y044532D01*
X028107Y044607D01*
X028032Y044664D01*
X027944Y044701D01*
X02785Y044713D01*
D02*
G37*
G36*
X0279Y043707D02*
Y0434D01*
X028207D01*
X028201Y043444D01*
X028164Y043532D01*
X028107Y043607D01*
X028032Y043664D01*
X027944Y043701D01*
X0279Y043707D01*
D02*
G37*
G36*
X0278D02*
X027756Y043701D01*
X027668Y043664D01*
X027593Y043607D01*
X027536Y043532D01*
X027499Y043444D01*
X027493Y0434D01*
X0278D01*
Y043707D01*
D02*
G37*
G36*
X045449Y046295D02*
X045333Y046284D01*
X045221Y04625D01*
X045119Y046195D01*
X045029Y046121D01*
X044955Y046031D01*
X0449Y045928D01*
X044866Y045817D01*
X044854Y045701D01*
X044866Y045585D01*
X0449Y045473D01*
X044955Y045371D01*
X045029Y045281D01*
X045119Y045207D01*
X045221Y045152D01*
X045333Y045118D01*
X045449Y045106D01*
X045565Y045118D01*
X045676Y045152D01*
X045779Y045207D01*
X045869Y045281D01*
X045943Y045371D01*
X045998Y045473D01*
X046032Y045585D01*
X046043Y045701D01*
X046032Y045817D01*
X045998Y045928D01*
X045943Y046031D01*
X045869Y046121D01*
X045779Y046195D01*
X045676Y04625D01*
X045565Y046284D01*
X045449Y046295D01*
D02*
G37*
G36*
X028717D02*
X028601Y046284D01*
X028489Y04625D01*
X028386Y046195D01*
X028296Y046121D01*
X028222Y046031D01*
X028167Y045928D01*
X028134Y045817D01*
X028122Y045701D01*
X028134Y045585D01*
X028167Y045473D01*
X028222Y045371D01*
X028296Y045281D01*
X028386Y045207D01*
X028489Y045152D01*
X028601Y045118D01*
X028717Y045106D01*
X028832Y045118D01*
X028944Y045152D01*
X029047Y045207D01*
X029137Y045281D01*
X029211Y045371D01*
X029266Y045473D01*
X029299Y045585D01*
X029311Y045701D01*
X029299Y045817D01*
X029266Y045928D01*
X029211Y046031D01*
X029137Y046121D01*
X029047Y046195D01*
X028944Y04625D01*
X028832Y046284D01*
X028717Y046295D01*
D02*
G37*
G36*
X026681Y046141D02*
X026542Y046122D01*
X026411Y046068D01*
X026299Y045982D01*
X026213Y04587D01*
X026159Y04574D01*
X026141Y0456D01*
X026159Y04546D01*
X026213Y04533D01*
X026299Y045218D01*
X026411Y045132D01*
X026542Y045078D01*
X026681Y045059D01*
X026821Y045078D01*
X026952Y045132D01*
X027064Y045218D01*
X02715Y04533D01*
X027204Y04546D01*
X027222Y0456D01*
X027204Y04574D01*
X02715Y04587D01*
X027064Y045982D01*
X026952Y046068D01*
X026821Y046122D01*
X026681Y046141D01*
D02*
G37*
G36*
X032232Y042063D02*
X032138Y042051D01*
X03205Y042014D01*
X031975Y041957D01*
X031917Y041882D01*
X031881Y041794D01*
X031868Y0417D01*
X031881Y041606D01*
X031917Y041518D01*
X031975Y041443D01*
X03205Y041386D01*
X032138Y041349D01*
X032232Y041337D01*
X032325Y041349D01*
X032413Y041386D01*
X032488Y041443D01*
X032546Y041518D01*
X032582Y041606D01*
X032595Y0417D01*
X032582Y041794D01*
X032546Y041882D01*
X032488Y041957D01*
X032413Y042014D01*
X032325Y042051D01*
X032232Y042063D01*
D02*
G37*
G36*
X026929Y041162D02*
X026474D01*
Y041049D01*
X026408D01*
X026397Y041065D01*
X026338Y041105D01*
X026268Y041118D01*
X026199Y041105D01*
X02614Y041065D01*
X026101Y041006D01*
X026087Y040937D01*
X026091Y040914D01*
X025963Y04078D01*
X025952Y040762D01*
X02594Y040745D01*
X02594Y040744D01*
X025939Y040743D01*
X025936Y040722D01*
X025932Y040702D01*
Y03611D01*
X025932Y03611D01*
X02594Y036067D01*
X025964Y036031D01*
X026568Y035428D01*
X026568Y035428D01*
X026604Y035403D01*
X026647Y035395D01*
X026647Y035395D01*
X027729D01*
X02774Y035378D01*
X027799Y035339D01*
X027868Y035325D01*
X027938Y035339D01*
X027997Y035378D01*
X028036Y035437D01*
X02805Y035507D01*
X028036Y035576D01*
X027997Y035635D01*
X027938Y035675D01*
X027868Y035688D01*
X027799Y035675D01*
X02774Y035635D01*
X027729Y035619D01*
X026693D01*
X026156Y036156D01*
Y040657D01*
X026253Y040758D01*
X026268Y040755D01*
X026338Y040769D01*
X026397Y040808D01*
X026408Y040825D01*
X026474D01*
Y040708D01*
X026929D01*
Y041162D01*
D02*
G37*
G36*
X038131Y041163D02*
X037924D01*
Y040976D01*
X038131D01*
Y041163D01*
D02*
G37*
G36*
X028207Y0433D02*
X0279D01*
Y042993D01*
X027944Y042999D01*
X028032Y043036D01*
X028107Y043093D01*
X028164Y043168D01*
X028201Y043256D01*
X028207Y0433D01*
D02*
G37*
G36*
X0278D02*
X027493D01*
X027499Y043256D01*
X027536Y043168D01*
X027593Y043093D01*
X027668Y043036D01*
X027756Y042999D01*
X0278Y042993D01*
Y0433D01*
D02*
G37*
G36*
X033131Y042063D02*
X033038Y042051D01*
X03295Y042014D01*
X032875Y041957D01*
X032817Y041882D01*
X032781Y041794D01*
X032768Y0417D01*
X032781Y041606D01*
X032817Y041518D01*
X032875Y041443D01*
X03295Y041386D01*
X033038Y041349D01*
X033131Y041337D01*
X033225Y041349D01*
X033313Y041386D01*
X033388Y041443D01*
X033446Y041518D01*
X033482Y041606D01*
X033495Y0417D01*
X033482Y041794D01*
X033446Y041882D01*
X033388Y041957D01*
X033313Y042014D01*
X033225Y042051D01*
X033131Y042063D01*
D02*
G37*
G36*
X0428Y036863D02*
X042706Y036851D01*
X042618Y036814D01*
X042543Y036757D01*
X042486Y036682D01*
X042449Y036594D01*
X042437Y0365D01*
X042449Y036406D01*
X042486Y036318D01*
X042543Y036243D01*
X042618Y036186D01*
X042706Y036149D01*
X0428Y036137D01*
X042894Y036149D01*
X042982Y036186D01*
X043057Y036243D01*
X043114Y036318D01*
X043151Y036406D01*
X043163Y0365D01*
X043151Y036594D01*
X043114Y036682D01*
X043057Y036757D01*
X042982Y036814D01*
X042894Y036851D01*
X0428Y036863D01*
D02*
G37*
G36*
X038932Y035932D02*
X038862Y035918D01*
X038803Y035878D01*
X038764Y035819D01*
X03875Y03575D01*
X038764Y03568D01*
X038803Y035622D01*
X038862Y035582D01*
X038932Y035568D01*
X039001Y035582D01*
X03906Y035622D01*
X039099Y03568D01*
X039113Y03575D01*
X039099Y035819D01*
X03906Y035878D01*
X039001Y035918D01*
X038932Y035932D01*
D02*
G37*
G36*
X028944Y035492D02*
X028874Y035478D01*
X028815Y035438D01*
X028776Y03538D01*
X028762Y03531D01*
X028776Y03524D01*
X028815Y035182D01*
X028874Y035142D01*
X028944Y035128D01*
X029013Y035142D01*
X029072Y035182D01*
X029111Y03524D01*
X029125Y03531D01*
X029111Y03538D01*
X029072Y035438D01*
X029013Y035478D01*
X028944Y035492D01*
D02*
G37*
G36*
X026821Y037515D02*
X026644D01*
Y037338D01*
X026821D01*
Y037515D01*
D02*
G37*
G36*
X026544D02*
X026366D01*
Y037338D01*
X026544D01*
Y037515D01*
D02*
G37*
G36*
X0428Y037863D02*
X042706Y037851D01*
X042618Y037814D01*
X042543Y037757D01*
X042486Y037682D01*
X042449Y037594D01*
X042437Y0375D01*
X042449Y037406D01*
X042486Y037318D01*
X042543Y037243D01*
X042618Y037186D01*
X042706Y037149D01*
X0428Y037137D01*
X042894Y037149D01*
X042982Y037186D01*
X043057Y037243D01*
X043114Y037318D01*
X043151Y037406D01*
X043163Y0375D01*
X043151Y037594D01*
X043114Y037682D01*
X043057Y037757D01*
X042982Y037814D01*
X042894Y037851D01*
X0428Y037863D01*
D02*
G37*
G36*
X028844Y034992D02*
X028774Y034978D01*
X028715Y034938D01*
X028676Y03488D01*
X028662Y03481D01*
X028676Y034741D01*
X028715Y034682D01*
X028774Y034642D01*
X028844Y034628D01*
X028913Y034642D01*
X028972Y034682D01*
X02899Y034708D01*
X029037D01*
Y034489D01*
X029551D01*
Y034963D01*
X029037D01*
Y034912D01*
X02899D01*
X028972Y034938D01*
X028913Y034978D01*
X028844Y034992D01*
D02*
G37*
G36*
X038932Y034832D02*
X038862Y034818D01*
X038803Y034778D01*
X038764Y03472D01*
X03875Y03465D01*
X038764Y034581D01*
X038803Y034522D01*
X038862Y034482D01*
X038932Y034468D01*
X039001Y034482D01*
X03906Y034522D01*
X039099Y034581D01*
X039113Y03465D01*
X039099Y03472D01*
X03906Y034778D01*
X039001Y034818D01*
X038932Y034832D01*
D02*
G37*
G36*
X031301Y034531D02*
X031094D01*
Y034344D01*
X031301D01*
Y034531D01*
D02*
G37*
G36*
X038932Y035382D02*
X038862Y035368D01*
X038803Y035328D01*
X038764Y035269D01*
X03875Y0352D01*
X038764Y035131D01*
X038803Y035072D01*
X038862Y035032D01*
X038932Y035018D01*
X039001Y035032D01*
X03906Y035072D01*
X039099Y035131D01*
X039113Y0352D01*
X039099Y035269D01*
X03906Y035328D01*
X039001Y035368D01*
X038932Y035382D01*
D02*
G37*
G36*
X027839Y035096D02*
X027769Y035082D01*
X027711Y035043D01*
X027693Y035017D01*
X027583D01*
X027544Y035009D01*
X027511Y034987D01*
X027487Y034963D01*
X027137D01*
Y034489D01*
X027651D01*
Y034813D01*
X027693D01*
X027711Y034786D01*
X027769Y034747D01*
X027839Y034733D01*
X027908Y034747D01*
X027967Y034786D01*
X028007Y034845D01*
X028021Y034915D01*
X028007Y034984D01*
X027967Y035043D01*
X027908Y035082D01*
X027839Y035096D01*
D02*
G37*
G36*
X031044Y035542D02*
X030974Y035528D01*
X030915Y035488D01*
X030876Y035429D01*
X030862Y03536D01*
X030876Y035291D01*
X030915Y035232D01*
X030932Y035221D01*
Y035063D01*
X030787D01*
Y034589D01*
X031301D01*
Y035063D01*
X031156D01*
Y035221D01*
X031172Y035232D01*
X031211Y035291D01*
X031225Y03536D01*
X031211Y035429D01*
X031172Y035488D01*
X031113Y035528D01*
X031044Y035542D01*
D02*
G37*
G36*
X026544Y037792D02*
X026366D01*
Y037615D01*
X026544D01*
Y037792D01*
D02*
G37*
G36*
X0337Y039892D02*
X03363Y039878D01*
X033572Y039838D01*
X033532Y03978D01*
X033518Y03971D01*
X033532Y039641D01*
X033572Y039582D01*
X03363Y039542D01*
X0337Y039528D01*
X03377Y039542D01*
X033828Y039582D01*
X033868Y039641D01*
X033882Y03971D01*
X033868Y03978D01*
X033828Y039838D01*
X03377Y039878D01*
X0337Y039892D01*
D02*
G37*
G36*
X04316Y03986D02*
X04244D01*
Y03914D01*
X04316D01*
Y03986D01*
D02*
G37*
G36*
X0337Y039492D02*
X03363Y039478D01*
X033572Y039438D01*
X033532Y039379D01*
X033518Y03931D01*
X033532Y039241D01*
X033572Y039182D01*
X03363Y039142D01*
X0337Y039128D01*
X03377Y039142D01*
X033828Y039182D01*
X033868Y039241D01*
X033882Y03931D01*
X033868Y039379D01*
X033828Y039438D01*
X03377Y039478D01*
X0337Y039492D01*
D02*
G37*
G36*
Y040292D02*
X03363Y040278D01*
X033572Y040238D01*
X033532Y04018D01*
X033518Y04011D01*
X033532Y04004D01*
X033572Y039982D01*
X03363Y039942D01*
X0337Y039928D01*
X03377Y039942D01*
X033828Y039982D01*
X033868Y04004D01*
X033882Y04011D01*
X033868Y04018D01*
X033828Y040238D01*
X03377Y040278D01*
X0337Y040292D01*
D02*
G37*
G36*
X038131Y040631D02*
X037617D01*
Y040157D01*
X037762D01*
Y040049D01*
X037745Y040038D01*
X037706Y03998D01*
X037692Y03991D01*
X037706Y039841D01*
X037745Y039782D01*
X037804Y039742D01*
X037874Y039728D01*
X037943Y039742D01*
X038002Y039782D01*
X038041Y039841D01*
X038055Y03991D01*
X038041Y03998D01*
X038002Y040038D01*
X037986Y040049D01*
Y040157D01*
X038131D01*
Y040631D01*
D02*
G37*
G36*
X035631D02*
X035117D01*
Y040157D01*
X035262D01*
Y040049D01*
X035245Y040038D01*
X035206Y03998D01*
X035192Y03991D01*
X035206Y039841D01*
X035245Y039782D01*
X035304Y039742D01*
X035374Y039728D01*
X035443Y039742D01*
X035502Y039782D01*
X035541Y039841D01*
X035555Y03991D01*
X035541Y03998D01*
X035502Y040038D01*
X035486Y040049D01*
Y040157D01*
X035631D01*
Y040631D01*
D02*
G37*
G36*
X038944Y038642D02*
X038874Y038628D01*
X038815Y038588D01*
X038776Y03853D01*
X038762Y03846D01*
X038768Y038429D01*
X038301Y037962D01*
X028244D01*
X028205Y037954D01*
X028172Y037932D01*
X027972Y037732D01*
X02795Y037699D01*
X027942Y03766D01*
X027942Y037164D01*
X027912Y037208D01*
X027896Y037219D01*
Y037306D01*
X027896Y037306D01*
X027887Y037349D01*
X027863Y037386D01*
X027604Y037644D01*
X027568Y037669D01*
X027525Y037677D01*
X027525Y037677D01*
X027377D01*
Y037792D01*
X026923D01*
Y037338D01*
X027377D01*
Y037453D01*
X027478D01*
X027672Y03726D01*
Y037219D01*
X027655Y037208D01*
X027616Y03715D01*
X027602Y03708D01*
X027616Y037011D01*
X027628Y036992D01*
X027589Y037018D01*
X02752Y037032D01*
X02745Y037018D01*
X027392Y036978D01*
X027377Y036957D01*
X027377Y037182D01*
X026923D01*
Y037057D01*
X026821D01*
Y037182D01*
X026366D01*
Y036728D01*
X026821D01*
Y036853D01*
X026923D01*
Y036728D01*
X027377D01*
X027377Y036743D01*
X027392Y036722D01*
X02745Y036682D01*
X02752Y036668D01*
X027589Y036682D01*
X027628Y036708D01*
X027616Y03669D01*
X027602Y03662D01*
X027616Y036551D01*
X027654Y036494D01*
Y036494D01*
X027588D01*
X02757Y03652D01*
X027511Y03656D01*
X027442Y036573D01*
X027372Y03656D01*
X027313Y03652D01*
X027274Y036461D01*
X02726Y036392D01*
X027274Y036322D01*
X027313Y036263D01*
X027372Y036224D01*
X027442Y03621D01*
X027511Y036224D01*
X02757Y036263D01*
X027588Y03629D01*
X027926D01*
X027965Y036298D01*
X027998Y03632D01*
X028266Y036588D01*
X028288Y036621D01*
X028296Y03666D01*
Y03757D01*
X028344Y037618D01*
X038654D01*
X038693Y037626D01*
X038726Y037648D01*
X038912Y037835D01*
X038944Y037828D01*
X039013Y037842D01*
X039072Y037882D01*
X039111Y03794D01*
X039125Y03801D01*
X039111Y03808D01*
X039072Y038138D01*
X039013Y038178D01*
X038944Y038192D01*
X038874Y038178D01*
X038815Y038138D01*
X038776Y03808D01*
X038762Y03801D01*
X038768Y037979D01*
X038611Y037822D01*
X03845Y037822D01*
X038912Y038285D01*
X038944Y038278D01*
X039013Y038292D01*
X039072Y038332D01*
X039111Y038391D01*
X039125Y03846D01*
X039111Y03853D01*
X039072Y038588D01*
X039013Y038628D01*
X038944Y038642D01*
D02*
G37*
G36*
X0428Y038863D02*
X042706Y038851D01*
X042618Y038814D01*
X042543Y038757D01*
X042486Y038682D01*
X042449Y038594D01*
X042437Y0385D01*
X042449Y038406D01*
X042486Y038318D01*
X042543Y038243D01*
X042618Y038186D01*
X042706Y038149D01*
X0428Y038137D01*
X042894Y038149D01*
X042982Y038186D01*
X043057Y038243D01*
X043114Y038318D01*
X043151Y038406D01*
X043163Y0385D01*
X043151Y038594D01*
X043114Y038682D01*
X043057Y038757D01*
X042982Y038814D01*
X042894Y038851D01*
X0428Y038863D01*
D02*
G37*
G36*
X026821Y037792D02*
X026644D01*
Y037615D01*
X026821D01*
Y037792D01*
D02*
G37*
G36*
X039394Y039242D02*
X039324Y039228D01*
X039265Y039188D01*
X039226Y03913D01*
X039212Y03906D01*
X039226Y03899D01*
X039265Y038932D01*
X039324Y038892D01*
X039394Y038878D01*
X039463Y038892D01*
X039522Y038932D01*
X039561Y03899D01*
X039575Y03906D01*
X039561Y03913D01*
X039522Y039188D01*
X039463Y039228D01*
X039394Y039242D01*
D02*
G37*
G36*
X0331Y039092D02*
X033031Y039078D01*
X032972Y039038D01*
X032932Y038979D01*
X032918Y03891D01*
X032932Y03884D01*
X032972Y038782D01*
X033031Y038742D01*
X0331Y038728D01*
X03317Y038742D01*
X033228Y038782D01*
X033268Y03884D01*
X033282Y03891D01*
X033268Y038979D01*
X033228Y039038D01*
X03317Y039078D01*
X0331Y039092D01*
D02*
G37*
G36*
X029632Y039213D02*
X029538Y039201D01*
X02945Y039164D01*
X029375Y039107D01*
X029317Y039032D01*
X029281Y038944D01*
X029268Y03885D01*
X029281Y038756D01*
X029317Y038668D01*
X029375Y038593D01*
X02945Y038536D01*
X029538Y038499D01*
X029632Y038487D01*
X029725Y038499D01*
X029813Y038536D01*
X029888Y038593D01*
X029946Y038668D01*
X029982Y038756D01*
X029995Y03885D01*
X029982Y038944D01*
X029946Y039032D01*
X029888Y039107D01*
X029813Y039164D01*
X029725Y039201D01*
X029632Y039213D01*
D02*
G37*
%LPD*%
D14*
X026594Y037565D02*
D03*
Y036955D02*
D03*
X02715D02*
D03*
Y037565D02*
D03*
X031494Y029415D02*
D03*
Y028805D02*
D03*
X030694Y029415D02*
D03*
Y028805D02*
D03*
X029894Y029415D02*
D03*
Y028805D02*
D03*
X029094Y029415D02*
D03*
Y028805D02*
D03*
X027544Y029415D02*
D03*
Y028805D02*
D03*
X028344Y029415D02*
D03*
Y028805D02*
D03*
X026702Y040935D02*
D03*
Y040325D02*
D03*
D24*
X027394Y034726D02*
D03*
Y034194D02*
D03*
X029294Y034726D02*
D03*
Y034194D02*
D03*
X031044Y034826D02*
D03*
Y034294D02*
D03*
X037874Y040394D02*
D03*
Y040926D02*
D03*
X035374Y040394D02*
D03*
Y040926D02*
D03*
D38*
X030809Y03406D02*
X031044Y034294D01*
X030494Y03406D02*
X030809D01*
X029659Y034194D02*
X029794Y03406D01*
X029294Y034194D02*
X029659D01*
X027784Y03708D02*
Y037306D01*
X026647Y035507D02*
X027868D01*
X026044Y03611D02*
X026647Y035507D01*
X031044Y034826D02*
Y03536D01*
X027394Y034194D02*
X027759D01*
X028844Y03406D02*
X028978Y034194D01*
X029294D01*
X037874Y040926D02*
Y0414D01*
X035374Y040926D02*
Y04141D01*
X037874Y03991D02*
Y040394D01*
X035374Y03991D02*
Y040394D01*
X021268Y035607D02*
X022269Y034607D01*
X021268Y035607D02*
Y035807D01*
X014714Y028721D02*
X0156Y029607D01*
Y031207D01*
X01585Y031457D01*
X019368D01*
X014714Y030207D02*
Y030421D01*
X01535Y031057D01*
Y032107D01*
X01565Y032407D01*
X019368D01*
X017362Y0328D02*
X017968Y033407D01*
X019368D01*
X014714Y033821D02*
X0153Y034407D01*
X019368D01*
X014714Y035357D02*
X019368D01*
X014934Y042287D02*
Y042541D01*
X014914Y042307D02*
X014934Y042287D01*
X014754Y043947D02*
X014793Y043908D01*
X019548Y028941D02*
X019569Y028921D01*
X019548Y028941D02*
Y030327D01*
X019368Y030507D02*
X019548Y030327D01*
X021268Y045657D02*
X022269Y044657D01*
X021268Y043457D02*
X022269Y042457D01*
X021268Y044557D02*
X022269Y043557D01*
X021268Y044557D02*
Y044657D01*
Y045657D02*
Y045757D01*
Y043457D02*
Y043557D01*
Y042357D02*
Y042457D01*
Y042357D02*
X022269Y041357D01*
X021268Y041257D02*
Y041357D01*
Y041257D02*
X022269Y040257D01*
X021268Y040157D02*
Y040257D01*
Y040157D02*
X022269Y039157D01*
X021268Y034607D02*
Y034707D01*
Y034607D02*
X022269Y033607D01*
X021268Y033507D02*
Y033607D01*
Y033507D02*
X022269Y032507D01*
X021268Y032407D02*
Y032507D01*
Y032407D02*
X022269Y031407D01*
X021268Y031307D02*
Y031407D01*
Y031307D02*
X022269Y030307D01*
X021268Y030207D02*
Y030307D01*
Y030207D02*
X022269Y029207D01*
X026594Y037565D02*
Y038054D01*
X02682Y03828D01*
X027525Y037565D02*
X027784Y037306D01*
X02715Y037565D02*
X027525D01*
X029094Y028805D02*
X0291Y028799D01*
Y02835D02*
Y028799D01*
X029894Y028805D02*
X0299Y028799D01*
Y02835D02*
Y028799D01*
X030694Y028805D02*
X0307Y028799D01*
Y02835D02*
Y028799D01*
X031494Y028805D02*
X0315Y028799D01*
Y02835D02*
Y028799D01*
X028344Y02835D02*
Y028805D01*
X027544D02*
X02755Y028799D01*
Y02835D02*
Y028799D01*
X014732Y0322D02*
X014762D01*
X015361Y0328D01*
X017362D01*
X014714Y040407D02*
Y040621D01*
Y038707D02*
Y038932D01*
X011481Y04545D02*
X012629D01*
X012686Y045507D01*
X011481Y04385D02*
X012643D01*
X011481Y04205D02*
X012629D01*
X011481Y04045D02*
X012643D01*
X011481Y0386D02*
X012579D01*
X011481Y037D02*
X012679D01*
X011481Y03525D02*
X012629D01*
X011481Y03365D02*
X012643D01*
X010381Y0318D02*
X012579D01*
X010431Y03365D02*
X011481D01*
X010381Y03525D02*
X011481D01*
X010331Y037D02*
X011481D01*
X010381Y0386D02*
X011481D01*
X010431Y04045D02*
X011481D01*
X010331Y04205D02*
X011481D01*
X010431Y04385D02*
X011481D01*
Y02915D02*
Y0302D01*
Y0303D01*
Y0302D02*
X012679D01*
X011481Y02755D02*
X016381D01*
Y02915D02*
X018155D01*
Y028507D02*
Y02915D01*
Y029593D01*
X012686Y027555D02*
Y028507D01*
Y045507D02*
Y045755D01*
Y045245D02*
Y045507D01*
X013079Y0425D02*
X013681D01*
X012686Y040407D02*
Y040655D01*
Y038707D02*
X013438D01*
X013681Y03895D01*
Y04095D01*
X012681Y0433D02*
X013681D01*
X014714Y038932D02*
X017077Y041295D01*
X01937D01*
X014714Y040621D02*
X016376Y042283D01*
X01937D01*
X014934Y042541D02*
X015625Y043232D01*
X01937D01*
X014714Y037007D02*
X015488D01*
X01879Y040308D01*
X01937D01*
X014714Y043807D02*
X014921Y0436D01*
X018751D01*
X01937Y044219D01*
X012686Y045507D02*
X013325D01*
X013681Y04515D01*
Y0441D02*
Y04515D01*
X014682Y04495D02*
X014938Y045207D01*
X01937D01*
X012686Y037007D02*
X013325D01*
X013681Y03665D01*
Y0343D02*
Y03665D01*
X012686Y035045D02*
Y035307D01*
Y035045D02*
X013332Y0344D01*
Y03385D02*
Y0344D01*
Y03385D02*
X013681Y0335D01*
X012686Y033345D02*
Y033607D01*
Y033345D02*
X013332Y0327D01*
X013681D01*
X012729Y03195D02*
X013681D01*
X013382Y03115D02*
X013681D01*
X012679Y030448D02*
X013382Y03115D01*
X013681Y02875D02*
Y03035D01*
X013438Y028507D02*
X013681Y02875D01*
X012686Y028507D02*
X013438D01*
X013681Y04165D02*
Y04175D01*
X012686Y040655D02*
X013332Y0413D01*
Y04165D01*
X013432Y04175D01*
X013681D01*
X026044Y03611D02*
Y040702D01*
X026268Y040937D02*
X026702D01*
X026044Y040702D02*
X026268Y040937D01*
X02632Y0401D02*
X026477D01*
X026702Y040325D01*
X012686Y045755D02*
X013332Y0464D01*
X015832D01*
X016331Y0459D01*
D40*
X028344Y03301D02*
Y03551D01*
X027944Y03591D02*
X028344Y03551D01*
X027444Y03591D02*
X027944D01*
X032994Y029194D02*
Y03511D01*
X027394Y034726D02*
X027583Y034915D01*
X027839D01*
X028844Y03481D02*
X029209D01*
X038654Y03772D02*
X038944Y03801D01*
X028302Y03772D02*
X038654D01*
X028194Y037612D02*
X028302Y03772D01*
X028194Y03666D02*
Y037612D01*
X027926Y036392D02*
X028194Y03666D01*
X027442Y036392D02*
X027926D01*
X038344Y03786D02*
X038944Y03846D01*
X028244Y03786D02*
X038344D01*
X028044Y03766D02*
X028244Y03786D01*
X028044Y03688D02*
Y03766D01*
X027784Y03662D02*
X028044Y03688D01*
X027255Y03685D02*
X02752D01*
X026594Y036955D02*
X02715D01*
X025994Y03196D02*
X027294D01*
X028344Y03301D01*
X035006Y032656D02*
X035263Y0324D01*
X034506Y032656D02*
X035013Y03215D01*
X034006Y032656D02*
X034763Y0319D01*
X032494Y028944D02*
Y03511D01*
X030685Y029424D02*
X0307Y029439D01*
Y02985D01*
X029898Y029419D02*
X0299Y029421D01*
Y02985D01*
X031472Y029436D02*
X0315Y029464D01*
Y02985D01*
X0299D02*
X031994Y031944D01*
Y03511D01*
X03165Y0281D02*
X032494Y028944D01*
X02895Y0281D02*
X03165D01*
X0287Y02835D02*
X02895Y0281D01*
X0287Y02835D02*
Y0297D01*
X02885Y02985D01*
X0291D01*
X0355Y03265D02*
X03955D01*
X04095Y03125D01*
X035263Y0324D02*
X039D01*
X04015Y03125D01*
X035013Y03215D02*
X03845D01*
X03935Y03125D01*
X034763Y0319D02*
X0379D01*
X03855Y03125D01*
X0374Y03165D02*
X0378Y03125D01*
X0317Y0279D02*
X032994Y029194D01*
X02845Y0279D02*
X0317D01*
X0318Y02775D02*
X0332Y02915D01*
X0278Y02775D02*
X0318D01*
X02835Y029421D02*
Y02985D01*
X02755Y029421D02*
Y02985D01*
X02795Y0284D02*
X02845Y0279D01*
X02795Y0284D02*
Y0297D01*
X0281Y02985D01*
X02835D01*
X02715Y0284D02*
X0278Y02775D01*
X02715Y0284D02*
Y0297D01*
X0273Y02985D01*
X02755D01*
X0332Y02915D02*
Y034816D01*
X033494Y03511D01*
X0335Y03265D02*
X0345Y03165D01*
X0374D01*
X0291Y029421D02*
Y02985D01*
X015532Y0446D02*
X016331D01*
D41*
X010016Y027984D02*
D03*
Y045701D02*
D03*
X045449Y027984D02*
D03*
Y045701D02*
D03*
X028717D02*
D03*
D42*
X0428Y0395D02*
D03*
D43*
Y0385D02*
D03*
Y0375D02*
D03*
Y0365D02*
D03*
X026681Y0456D02*
D03*
X02785Y04335D02*
D03*
Y04435D02*
D03*
X029632Y03885D02*
D03*
X032232Y0417D02*
D03*
X033131D02*
D03*
D44*
X028981Y04009D02*
D03*
X0286Y04256D02*
D03*
X02736Y042576D02*
D03*
X025994Y03196D02*
D03*
X027444Y03591D02*
D03*
X039394Y03906D02*
D03*
X02175Y02731D02*
D03*
X021294Y02766D02*
D03*
X022244D02*
D03*
Y02806D02*
D03*
X021294D02*
D03*
X030494Y03406D02*
D03*
X029794D02*
D03*
X0357Y030553D02*
D03*
X031044Y03536D02*
D03*
X02835Y02985D02*
D03*
X040494Y03296D02*
D03*
X039944D02*
D03*
X039394D02*
D03*
X038844D02*
D03*
X038294D02*
D03*
X037744D02*
D03*
X026748Y031206D02*
D03*
X029544Y03321D02*
D03*
X0291Y02985D02*
D03*
X033494Y03511D02*
D03*
X032994D02*
D03*
X032494D02*
D03*
X031994D02*
D03*
X030294Y03241D02*
D03*
X028844Y03481D02*
D03*
X027844Y03376D02*
D03*
X028844Y03406D02*
D03*
X027844Y03411D02*
D03*
X027839Y034915D02*
D03*
X028944Y03531D02*
D03*
X030594Y03646D02*
D03*
X038944Y03801D02*
D03*
Y03846D02*
D03*
X027784Y03662D02*
D03*
Y03708D02*
D03*
X027442Y036392D02*
D03*
X037874Y0414D02*
D03*
X035374Y04141D02*
D03*
X037874Y03991D02*
D03*
X035374D02*
D03*
X034181Y0382D02*
D03*
X033131D02*
D03*
X032582D02*
D03*
X027868Y035507D02*
D03*
X032569Y039757D02*
D03*
X0337Y03931D02*
D03*
Y03971D02*
D03*
Y04011D02*
D03*
X027281Y03925D02*
D03*
X02805Y04036D02*
D03*
X022269Y034607D02*
D03*
X021268Y041357D02*
D03*
Y042457D02*
D03*
Y043557D02*
D03*
Y044657D02*
D03*
Y035807D02*
D03*
Y034707D02*
D03*
Y033607D02*
D03*
Y032507D02*
D03*
Y031407D02*
D03*
Y030307D02*
D03*
X022269Y043557D02*
D03*
Y042457D02*
D03*
Y041357D02*
D03*
Y040257D02*
D03*
Y044657D02*
D03*
X021268Y045757D02*
D03*
X022269Y039157D02*
D03*
X021268Y040257D02*
D03*
X022269Y030307D02*
D03*
Y031407D02*
D03*
Y032507D02*
D03*
Y033607D02*
D03*
Y029207D02*
D03*
X02805Y04074D02*
D03*
Y04111D02*
D03*
X02632Y0401D02*
D03*
X027281Y03975D02*
D03*
Y03875D02*
D03*
X02682Y03828D02*
D03*
X02752Y03685D02*
D03*
X0289Y03681D02*
D03*
X0316Y03406D02*
D03*
X0325Y03646D02*
D03*
X0335D02*
D03*
X0345D02*
D03*
X036D02*
D03*
X0362Y03741D02*
D03*
X03695D02*
D03*
X0386Y03711D02*
D03*
X0264Y03411D02*
D03*
Y03326D02*
D03*
Y03496D02*
D03*
X02645Y03631D02*
D03*
X0269Y03591D02*
D03*
X03485Y04206D02*
D03*
X03585D02*
D03*
X03735D02*
D03*
X0384D02*
D03*
X02805Y04256D02*
D03*
Y04211D02*
D03*
Y04166D02*
D03*
X0286Y04211D02*
D03*
X0213Y02731D02*
D03*
X02225D02*
D03*
X0213Y02846D02*
D03*
X02085Y02881D02*
D03*
X028981Y0382D02*
D03*
X029581D02*
D03*
X030082D02*
D03*
X0331Y03891D02*
D03*
X0337Y04051D02*
D03*
Y04091D02*
D03*
X03615Y03826D02*
D03*
X034581Y0382D02*
D03*
X03855Y03846D02*
D03*
X03835Y04001D02*
D03*
X0374D02*
D03*
X0359D02*
D03*
X03485D02*
D03*
X03705Y03826D02*
D03*
X0316Y03486D02*
D03*
X027112Y031587D02*
D03*
X025006Y030819D02*
D03*
X024317Y030159D02*
D03*
X022968Y028801D02*
D03*
X025616Y031419D02*
D03*
X027694Y03186D02*
D03*
X0315Y03645D02*
D03*
X029727Y03646D02*
D03*
X039494Y03711D02*
D03*
X0355Y03265D02*
D03*
X04095Y03125D02*
D03*
X04015D02*
D03*
X03935D02*
D03*
X03855D02*
D03*
X0378D02*
D03*
X035006Y032656D02*
D03*
X034506D02*
D03*
X034006D02*
D03*
X0307Y02985D02*
D03*
X0299D02*
D03*
X0315D02*
D03*
X0291Y02835D02*
D03*
X0299D02*
D03*
X0307D02*
D03*
X0315D02*
D03*
X028344D02*
D03*
X02755D02*
D03*
Y02985D02*
D03*
X0335Y03265D02*
D03*
X026268Y040937D02*
D03*
X028681Y04009D02*
D03*
X031881Y0382D02*
D03*
X027731Y03325D02*
D03*
X038932Y03575D02*
D03*
Y0352D02*
D03*
Y03465D02*
D03*
Y0341D02*
D03*
X028932Y03285D02*
D03*
D45*
X019368Y030507D02*
D03*
Y031457D02*
D03*
Y032407D02*
D03*
Y033407D02*
D03*
Y034407D02*
D03*
Y035357D02*
D03*
X013681Y03035D02*
D03*
Y03115D02*
D03*
Y03195D02*
D03*
Y0327D02*
D03*
Y0335D02*
D03*
Y04095D02*
D03*
Y04175D02*
D03*
Y0425D02*
D03*
Y0433D02*
D03*
X01937Y040308D02*
D03*
Y041295D02*
D03*
Y042283D02*
D03*
X01937Y043232D02*
D03*
Y044219D02*
D03*
Y045207D02*
D03*
X018168Y029607D02*
D03*
X013681Y0441D02*
D03*
X015532Y0446D02*
D03*
X013681Y0343D02*
D03*
D46*
X014714Y035307D02*
D03*
X012686D02*
D03*
X014714Y033607D02*
D03*
X012686D02*
D03*
X014714Y031907D02*
D03*
X012686D02*
D03*
X014714Y030207D02*
D03*
X012686D02*
D03*
X014714Y028507D02*
D03*
X012686D02*
D03*
X014714Y045507D02*
D03*
X012686D02*
D03*
X014714Y043807D02*
D03*
X012686D02*
D03*
X014714Y042107D02*
D03*
X012686D02*
D03*
X014714Y040407D02*
D03*
X012686D02*
D03*
X014714Y038707D02*
D03*
X012686D02*
D03*
X014714Y037007D02*
D03*
X012686D02*
D03*
X019982Y028507D02*
D03*
X017955D02*
D03*
D47*
X016381Y02945D02*
D03*
Y02785D02*
D03*
X010281Y0421D02*
D03*
Y0437D02*
D03*
X011481Y04385D02*
D03*
Y04545D02*
D03*
Y03365D02*
D03*
Y03525D02*
D03*
X010281Y03535D02*
D03*
Y03695D02*
D03*
X011481Y037D02*
D03*
Y0386D02*
D03*
X010281Y0387D02*
D03*
Y0403D02*
D03*
X011481Y04045D02*
D03*
Y04205D02*
D03*
X010281Y0319D02*
D03*
Y0335D02*
D03*
X011481Y0303D02*
D03*
Y0319D02*
D03*
Y02755D02*
D03*
Y02915D02*
D03*
X016331Y04598D02*
D03*
Y04438D02*
D03*
M02*
