G04 Layer_Color=8388736*
%FSTAX24Y24*%
%MOIN*%
G70*
G01*
G75*
G04:AMPARAMS|DCode=57|XSize=31.6mil|YSize=47.4mil|CornerRadius=9.9mil|HoleSize=0mil|Usage=FLASHONLY|Rotation=180.000|XOffset=0mil|YOffset=0mil|HoleType=Round|Shape=RoundedRectangle|*
%AMROUNDEDRECTD57*
21,1,0.0316,0.0276,0,0,180.0*
21,1,0.0118,0.0474,0,0,180.0*
1,1,0.0198,-0.0059,0.0138*
1,1,0.0198,0.0059,0.0138*
1,1,0.0198,0.0059,-0.0138*
1,1,0.0198,-0.0059,-0.0138*
%
%ADD57ROUNDEDRECTD57*%
%ADD58R,0.0316X0.0474*%
%ADD59R,0.0379X0.0749*%
%ADD60O,0.0379X0.0749*%
%ADD61R,0.0474X0.0474*%
%ADD62R,0.0415X0.0415*%
%ADD63R,0.0415X0.0415*%
%ADD64R,0.0297X0.0848*%
%ADD65O,0.0297X0.0848*%
%ADD66R,0.0414X0.0454*%
%ADD67R,0.0867X0.1734*%
%ADD68R,0.0552X0.0946*%
G04:AMPARAMS|DCode=69|XSize=55.2mil|YSize=94.6mil|CornerRadius=15.8mil|HoleSize=0mil|Usage=FLASHONLY|Rotation=0.000|XOffset=0mil|YOffset=0mil|HoleType=Round|Shape=RoundedRectangle|*
%AMROUNDEDRECTD69*
21,1,0.0552,0.0630,0,0,0.0*
21,1,0.0236,0.0946,0,0,0.0*
1,1,0.0316,0.0118,-0.0315*
1,1,0.0316,-0.0118,-0.0315*
1,1,0.0316,-0.0118,0.0315*
1,1,0.0316,0.0118,0.0315*
%
%ADD69ROUNDEDRECTD69*%
%ADD70R,0.2442X0.0907*%
%ADD71R,0.0631X0.0789*%
%ADD72R,0.0454X0.0414*%
%ADD73R,0.0612X0.0198*%
%ADD74O,0.0612X0.0198*%
%ADD75R,0.1734X0.0867*%
%ADD76R,0.0946X0.0552*%
G04:AMPARAMS|DCode=77|XSize=55.2mil|YSize=94.6mil|CornerRadius=15.8mil|HoleSize=0mil|Usage=FLASHONLY|Rotation=270.000|XOffset=0mil|YOffset=0mil|HoleType=Round|Shape=RoundedRectangle|*
%AMROUNDEDRECTD77*
21,1,0.0552,0.0630,0,0,270.0*
21,1,0.0236,0.0946,0,0,270.0*
1,1,0.0316,-0.0315,-0.0118*
1,1,0.0316,-0.0315,0.0118*
1,1,0.0316,0.0315,0.0118*
1,1,0.0316,0.0315,-0.0118*
%
%ADD77ROUNDEDRECTD77*%
G04:AMPARAMS|DCode=78|XSize=47.4mil|YSize=59.2mil|CornerRadius=7mil|HoleSize=0mil|Usage=FLASHONLY|Rotation=0.000|XOffset=0mil|YOffset=0mil|HoleType=Round|Shape=RoundedRectangle|*
%AMROUNDEDRECTD78*
21,1,0.0474,0.0453,0,0,0.0*
21,1,0.0335,0.0592,0,0,0.0*
1,1,0.0139,0.0167,-0.0226*
1,1,0.0139,-0.0167,-0.0226*
1,1,0.0139,-0.0167,0.0226*
1,1,0.0139,0.0167,0.0226*
%
%ADD78ROUNDEDRECTD78*%
%ADD79R,0.0257X0.0198*%
%ADD80R,0.0277X0.0202*%
%ADD81R,0.0533X0.0631*%
%ADD82R,0.0493X0.0316*%
%ADD83R,0.0631X0.0190*%
%ADD84R,0.0395X0.0395*%
G04:AMPARAMS|DCode=85|XSize=86.7mil|YSize=173.4mil|CornerRadius=23.7mil|HoleSize=0mil|Usage=FLASHONLY|Rotation=180.000|XOffset=0mil|YOffset=0mil|HoleType=Round|Shape=RoundedRectangle|*
%AMROUNDEDRECTD85*
21,1,0.0867,0.1260,0,0,180.0*
21,1,0.0394,0.1734,0,0,180.0*
1,1,0.0474,-0.0197,0.0630*
1,1,0.0474,0.0197,0.0630*
1,1,0.0474,0.0197,-0.0630*
1,1,0.0474,-0.0197,-0.0630*
%
%ADD85ROUNDEDRECTD85*%
%ADD86C,0.1143*%
%ADD87R,0.0680X0.0680*%
%ADD88C,0.0680*%
%ADD89C,0.0474*%
D57*
X02992Y032951D02*
D03*
X030668D02*
D03*
Y031869D02*
D03*
X030294D02*
D03*
D58*
X02992D02*
D03*
D59*
X034869Y039334D02*
D03*
D60*
X035368D02*
D03*
X035868D02*
D03*
X036369D02*
D03*
X036869D02*
D03*
X037369D02*
D03*
X037868D02*
D03*
X038368D02*
D03*
X034869Y042779D02*
D03*
X035368D02*
D03*
X035868D02*
D03*
X036369D02*
D03*
X036869D02*
D03*
X037369D02*
D03*
X037868D02*
D03*
X038368D02*
D03*
D61*
X026444Y03196D02*
D03*
D62*
X038174Y038607D02*
D03*
X037563D02*
D03*
X035667Y03745D02*
D03*
X035056D02*
D03*
X030599Y03596D02*
D03*
X029989D02*
D03*
X023439Y04621D02*
D03*
X024049D02*
D03*
X020213Y032507D02*
D03*
X020824D02*
D03*
Y033057D02*
D03*
X020213D02*
D03*
Y033607D02*
D03*
X020824D02*
D03*
Y034157D02*
D03*
X020213D02*
D03*
Y034707D02*
D03*
X020824D02*
D03*
X020213Y035807D02*
D03*
X020824D02*
D03*
Y035257D02*
D03*
X020213D02*
D03*
X020824Y036357D02*
D03*
X020213D02*
D03*
X020824Y045207D02*
D03*
X020213D02*
D03*
X020824Y044107D02*
D03*
X020213D02*
D03*
X020824Y043007D02*
D03*
X020213D02*
D03*
X020824Y041907D02*
D03*
X020213D02*
D03*
X020824Y040807D02*
D03*
X020213D02*
D03*
Y040257D02*
D03*
X020824D02*
D03*
X020213Y041357D02*
D03*
X020824D02*
D03*
X020213Y042457D02*
D03*
X020824D02*
D03*
X020213Y043557D02*
D03*
X020824D02*
D03*
X020213Y045757D02*
D03*
X020824D02*
D03*
X020213Y044657D02*
D03*
X020824D02*
D03*
Y031957D02*
D03*
X020213D02*
D03*
Y031407D02*
D03*
X020824D02*
D03*
Y030857D02*
D03*
X020213D02*
D03*
Y030307D02*
D03*
X020824D02*
D03*
Y029757D02*
D03*
X020213D02*
D03*
X016426Y0462D02*
D03*
X017037D02*
D03*
X016426Y043729D02*
D03*
X017037D02*
D03*
X016426Y042908D02*
D03*
X017037D02*
D03*
X016426Y042087D02*
D03*
X017037D02*
D03*
X016426Y041267D02*
D03*
X017037D02*
D03*
X016426Y040446D02*
D03*
X017037D02*
D03*
X016426Y0346D02*
D03*
X017037D02*
D03*
X025615Y04276D02*
D03*
X026225D02*
D03*
X027847Y04495D02*
D03*
X027236D02*
D03*
X020213Y0292D02*
D03*
X020824D02*
D03*
X016426Y033829D02*
D03*
X017037D02*
D03*
X016426Y033058D02*
D03*
X017037D02*
D03*
X016426Y032287D02*
D03*
X017037D02*
D03*
X016426Y031517D02*
D03*
X017037D02*
D03*
X016426Y030746D02*
D03*
X017037D02*
D03*
X016426Y029975D02*
D03*
X017037D02*
D03*
X037926Y03575D02*
D03*
X038537D02*
D03*
X037926Y0352D02*
D03*
X038537D02*
D03*
X037926Y03465D02*
D03*
X038537D02*
D03*
X037926Y0341D02*
D03*
X038537D02*
D03*
D63*
X038119Y038062D02*
D03*
Y037452D02*
D03*
X037569Y038062D02*
D03*
Y037452D02*
D03*
X035082Y038655D02*
D03*
Y038045D02*
D03*
X035631Y038655D02*
D03*
Y038045D02*
D03*
X039844Y038455D02*
D03*
Y039065D02*
D03*
X029394Y035355D02*
D03*
Y035965D02*
D03*
X030594Y034755D02*
D03*
Y035365D02*
D03*
X029294Y032465D02*
D03*
Y031855D02*
D03*
X0405Y031845D02*
D03*
Y032455D02*
D03*
X03995Y031845D02*
D03*
Y032455D02*
D03*
X0394D02*
D03*
Y031845D02*
D03*
X03885Y032455D02*
D03*
Y031845D02*
D03*
X0383Y032455D02*
D03*
Y031845D02*
D03*
X03775Y032455D02*
D03*
Y031845D02*
D03*
X026681Y044345D02*
D03*
Y044955D02*
D03*
X025619Y038802D02*
D03*
Y039412D02*
D03*
X030482Y038545D02*
D03*
Y039155D02*
D03*
X027731Y039145D02*
D03*
Y039755D02*
D03*
X0267Y040625D02*
D03*
Y040015D02*
D03*
X028282Y039755D02*
D03*
Y039145D02*
D03*
D64*
X031494Y03206D02*
D03*
D65*
X031994D02*
D03*
X032494D02*
D03*
X032994D02*
D03*
X033494D02*
D03*
X033994D02*
D03*
X034494D02*
D03*
X034994D02*
D03*
X035494D02*
D03*
X035994D02*
D03*
X036494D02*
D03*
X036994D02*
D03*
X031494Y03576D02*
D03*
X031994D02*
D03*
X032494D02*
D03*
X032994D02*
D03*
X033494D02*
D03*
X033994D02*
D03*
X034494D02*
D03*
X034994D02*
D03*
X035494D02*
D03*
X035994D02*
D03*
X036494D02*
D03*
X036994D02*
D03*
D66*
X028659Y03186D02*
D03*
X028128D02*
D03*
X032547Y03885D02*
D03*
X032016D02*
D03*
D67*
X03478Y028356D02*
D03*
X043126D02*
D03*
X025331D02*
D03*
X033677D02*
D03*
D68*
X036197Y030553D02*
D03*
X026748D02*
D03*
X03275Y0431D02*
D03*
X04125D02*
D03*
D69*
X036984Y030553D02*
D03*
X037772D02*
D03*
X038559D02*
D03*
X039346D02*
D03*
X040134D02*
D03*
X040921D02*
D03*
X041709D02*
D03*
X027535D02*
D03*
X028323D02*
D03*
X02911D02*
D03*
X029898D02*
D03*
X030685D02*
D03*
X031472D02*
D03*
X03226D02*
D03*
X031963Y0431D02*
D03*
X040463D02*
D03*
D70*
X030419Y03983D02*
D03*
Y041484D02*
D03*
D71*
X02736Y041927D02*
D03*
X026277D02*
D03*
D72*
X021769Y033873D02*
D03*
Y033341D02*
D03*
Y032773D02*
D03*
Y032241D02*
D03*
Y034973D02*
D03*
Y034441D02*
D03*
Y036073D02*
D03*
Y035541D02*
D03*
Y040523D02*
D03*
Y039991D02*
D03*
Y041623D02*
D03*
Y041091D02*
D03*
Y044923D02*
D03*
Y044391D02*
D03*
Y042723D02*
D03*
Y042191D02*
D03*
Y043823D02*
D03*
Y043291D02*
D03*
Y029473D02*
D03*
Y028941D02*
D03*
Y030573D02*
D03*
Y030041D02*
D03*
Y031673D02*
D03*
Y031141D02*
D03*
X033681Y038334D02*
D03*
Y038866D02*
D03*
X028832Y039716D02*
D03*
Y039184D02*
D03*
D73*
X025591Y037471D02*
D03*
D74*
Y037274D02*
D03*
Y037077D02*
D03*
Y03688D02*
D03*
Y036683D02*
D03*
Y036486D02*
D03*
Y03629D02*
D03*
Y036093D02*
D03*
Y035896D02*
D03*
Y035699D02*
D03*
Y035502D02*
D03*
Y035305D02*
D03*
Y035108D02*
D03*
Y034912D02*
D03*
Y034715D02*
D03*
Y034518D02*
D03*
Y034321D02*
D03*
Y034124D02*
D03*
Y033927D02*
D03*
Y03373D02*
D03*
Y033534D02*
D03*
Y033337D02*
D03*
Y03314D02*
D03*
Y032943D02*
D03*
X028346Y037471D02*
D03*
Y037274D02*
D03*
Y037077D02*
D03*
Y03688D02*
D03*
Y036683D02*
D03*
Y036486D02*
D03*
Y03629D02*
D03*
Y036093D02*
D03*
Y035896D02*
D03*
Y035699D02*
D03*
Y035502D02*
D03*
Y035305D02*
D03*
Y035108D02*
D03*
Y034912D02*
D03*
Y034715D02*
D03*
Y034518D02*
D03*
Y034321D02*
D03*
Y034124D02*
D03*
Y033927D02*
D03*
Y03373D02*
D03*
Y033534D02*
D03*
Y033337D02*
D03*
Y03314D02*
D03*
Y032943D02*
D03*
D75*
X012567Y045916D02*
D03*
Y037569D02*
D03*
Y036124D02*
D03*
Y027778D02*
D03*
D76*
X014764Y044498D02*
D03*
Y034707D02*
D03*
D77*
Y043711D02*
D03*
Y042923D02*
D03*
Y042136D02*
D03*
Y041349D02*
D03*
Y040561D02*
D03*
Y039774D02*
D03*
Y038986D02*
D03*
Y033919D02*
D03*
Y033132D02*
D03*
Y032345D02*
D03*
Y031557D02*
D03*
Y03077D02*
D03*
Y029982D02*
D03*
Y029195D02*
D03*
D78*
X018543Y040308D02*
D03*
Y041295D02*
D03*
Y042283D02*
D03*
X018543Y043232D02*
D03*
Y044219D02*
D03*
Y045207D02*
D03*
X018569Y03439D02*
D03*
Y035374D02*
D03*
Y033407D02*
D03*
Y032423D02*
D03*
Y03144D02*
D03*
Y030474D02*
D03*
D79*
X018189Y040111D02*
D03*
Y040505D02*
D03*
Y041099D02*
D03*
Y041492D02*
D03*
Y042086D02*
D03*
Y04248D02*
D03*
X018189Y043035D02*
D03*
Y043429D02*
D03*
Y044023D02*
D03*
Y044416D02*
D03*
Y04501D02*
D03*
Y045404D02*
D03*
X018214Y034587D02*
D03*
Y034193D02*
D03*
Y035571D02*
D03*
Y035177D02*
D03*
Y033604D02*
D03*
Y03321D02*
D03*
Y03262D02*
D03*
Y032227D02*
D03*
Y031637D02*
D03*
Y031243D02*
D03*
Y030671D02*
D03*
Y030277D02*
D03*
D80*
X018839Y040308D02*
D03*
Y041295D02*
D03*
Y042283D02*
D03*
X018839Y043232D02*
D03*
Y044219D02*
D03*
Y045207D02*
D03*
X018864Y03439D02*
D03*
Y035374D02*
D03*
Y033407D02*
D03*
Y032423D02*
D03*
Y03144D02*
D03*
Y030474D02*
D03*
D81*
X026817Y038762D02*
D03*
X026128D02*
D03*
X026817Y039412D02*
D03*
X026128D02*
D03*
D82*
X033021Y040131D02*
D03*
Y039383D02*
D03*
X032116D02*
D03*
Y039757D02*
D03*
Y040131D02*
D03*
D83*
X027207Y041134D02*
D03*
Y040937D02*
D03*
Y04074D02*
D03*
Y040543D02*
D03*
Y040346D02*
D03*
X028893Y041134D02*
D03*
Y040937D02*
D03*
Y04074D02*
D03*
Y040543D02*
D03*
Y040346D02*
D03*
D84*
X026185Y044049D02*
D03*
Y04464D02*
D03*
X027235Y043909D02*
D03*
Y0445D02*
D03*
X030935Y037959D02*
D03*
Y03855D02*
D03*
D85*
X034167Y045297D02*
D03*
X030545D02*
D03*
X042667D02*
D03*
X039045D02*
D03*
D86*
X010016Y027984D02*
D03*
Y045701D02*
D03*
X045449Y027984D02*
D03*
Y045701D02*
D03*
X028717D02*
D03*
D87*
X0428Y0395D02*
D03*
D88*
Y0385D02*
D03*
Y0375D02*
D03*
Y0365D02*
D03*
X026681Y0456D02*
D03*
X02785Y04335D02*
D03*
Y04435D02*
D03*
X029632Y03885D02*
D03*
X032232Y0417D02*
D03*
X033131D02*
D03*
D89*
X019368Y030507D02*
D03*
Y031457D02*
D03*
Y032407D02*
D03*
Y033407D02*
D03*
Y034407D02*
D03*
Y035357D02*
D03*
X013681Y03035D02*
D03*
Y03115D02*
D03*
Y03195D02*
D03*
Y0327D02*
D03*
Y0335D02*
D03*
Y04095D02*
D03*
Y04175D02*
D03*
Y0425D02*
D03*
Y0433D02*
D03*
X01937Y040308D02*
D03*
Y041295D02*
D03*
Y042283D02*
D03*
X01937Y043232D02*
D03*
Y044219D02*
D03*
Y045207D02*
D03*
X018168Y029607D02*
D03*
X013681Y0441D02*
D03*
X015532Y0446D02*
D03*
X013681Y0343D02*
D03*
M02*
