G04 Layer_Physical_Order=1*
G04 Layer_Color=255*
%FSTAX24Y24*%
%MOIN*%
G70*
G01*
G75*
G04:AMPARAMS|DCode=10|XSize=23.6mil|YSize=39.4mil|CornerRadius=5.9mil|HoleSize=0mil|Usage=FLASHONLY|Rotation=180.000|XOffset=0mil|YOffset=0mil|HoleType=Round|Shape=RoundedRectangle|*
%AMROUNDEDRECTD10*
21,1,0.0236,0.0276,0,0,180.0*
21,1,0.0118,0.0394,0,0,180.0*
1,1,0.0118,-0.0059,0.0138*
1,1,0.0118,0.0059,0.0138*
1,1,0.0118,0.0059,-0.0138*
1,1,0.0118,-0.0059,-0.0138*
%
%ADD10ROUNDEDRECTD10*%
%ADD11R,0.0236X0.0394*%
%ADD12R,0.0299X0.0669*%
%ADD13O,0.0299X0.0669*%
%ADD14R,0.0394X0.0394*%
%ADD15R,0.0335X0.0335*%
%ADD16R,0.0335X0.0335*%
%ADD17R,0.0217X0.0768*%
%ADD18O,0.0217X0.0768*%
%ADD19R,0.0354X0.0394*%
%ADD20R,0.0787X0.1654*%
%ADD21R,0.0472X0.0866*%
G04:AMPARAMS|DCode=22|XSize=47.2mil|YSize=86.6mil|CornerRadius=11.8mil|HoleSize=0mil|Usage=FLASHONLY|Rotation=0.000|XOffset=0mil|YOffset=0mil|HoleType=Round|Shape=RoundedRectangle|*
%AMROUNDEDRECTD22*
21,1,0.0472,0.0630,0,0,0.0*
21,1,0.0236,0.0866,0,0,0.0*
1,1,0.0236,0.0118,-0.0315*
1,1,0.0236,-0.0118,-0.0315*
1,1,0.0236,-0.0118,0.0315*
1,1,0.0236,0.0118,0.0315*
%
%ADD22ROUNDEDRECTD22*%
%ADD23R,0.2362X0.0827*%
%ADD24R,0.0551X0.0709*%
%ADD25R,0.0394X0.0354*%
%ADD26R,0.0532X0.0118*%
%ADD27O,0.0532X0.0118*%
%ADD28R,0.1654X0.0787*%
%ADD29R,0.0866X0.0472*%
G04:AMPARAMS|DCode=30|XSize=47.2mil|YSize=86.6mil|CornerRadius=11.8mil|HoleSize=0mil|Usage=FLASHONLY|Rotation=270.000|XOffset=0mil|YOffset=0mil|HoleType=Round|Shape=RoundedRectangle|*
%AMROUNDEDRECTD30*
21,1,0.0472,0.0630,0,0,270.0*
21,1,0.0236,0.0866,0,0,270.0*
1,1,0.0236,-0.0315,-0.0118*
1,1,0.0236,-0.0315,0.0118*
1,1,0.0236,0.0315,0.0118*
1,1,0.0236,0.0315,-0.0118*
%
%ADD30ROUNDEDRECTD30*%
G04:AMPARAMS|DCode=31|XSize=39.4mil|YSize=51.2mil|CornerRadius=3mil|HoleSize=0mil|Usage=FLASHONLY|Rotation=0.000|XOffset=0mil|YOffset=0mil|HoleType=Round|Shape=RoundedRectangle|*
%AMROUNDEDRECTD31*
21,1,0.0394,0.0453,0,0,0.0*
21,1,0.0335,0.0512,0,0,0.0*
1,1,0.0059,0.0167,-0.0226*
1,1,0.0059,-0.0167,-0.0226*
1,1,0.0059,-0.0167,0.0226*
1,1,0.0059,0.0167,0.0226*
%
%ADD31ROUNDEDRECTD31*%
%ADD32R,0.0177X0.0118*%
%ADD33R,0.0197X0.0122*%
%ADD34R,0.0453X0.0551*%
%ADD35R,0.0413X0.0236*%
%ADD36R,0.0551X0.0110*%
%ADD37R,0.0315X0.0315*%
G04:AMPARAMS|DCode=38|XSize=78.7mil|YSize=165.4mil|CornerRadius=19.7mil|HoleSize=0mil|Usage=FLASHONLY|Rotation=180.000|XOffset=0mil|YOffset=0mil|HoleType=Round|Shape=RoundedRectangle|*
%AMROUNDEDRECTD38*
21,1,0.0787,0.1260,0,0,180.0*
21,1,0.0394,0.1654,0,0,180.0*
1,1,0.0394,-0.0197,0.0630*
1,1,0.0394,0.0197,0.0630*
1,1,0.0394,0.0197,-0.0630*
1,1,0.0394,-0.0197,-0.0630*
%
%ADD38ROUNDEDRECTD38*%
%ADD39C,0.0100*%
%ADD40C,0.0200*%
%ADD41C,0.0080*%
%ADD42C,0.1063*%
%ADD43R,0.0600X0.0600*%
%ADD44C,0.0600*%
%ADD45C,0.0236*%
%ADD46C,0.0394*%
G36*
X046315Y046567D02*
X046315Y02713D01*
X020656Y02713D01*
Y028973D01*
X021051D01*
X021051Y028973D01*
Y028973D01*
X021097Y028942D01*
X021638Y028512D01*
X021833Y028704D01*
X022025D01*
Y028893D01*
X022184Y029049D01*
X022199Y029039D01*
X022269Y029025D01*
X022338Y029039D01*
X022397Y029078D01*
X022408Y029095D01*
X022518D01*
X022518Y029095D01*
X022561Y029103D01*
X022598Y029128D01*
X026301Y032831D01*
X028093D01*
X02814Y032822D01*
X028553D01*
X0286Y032831D01*
X028639Y032857D01*
X028665Y032897D01*
X028675Y032943D01*
X028665Y03299D01*
X028639Y033029D01*
Y033054D01*
X028663Y03309D01*
X028346D01*
X028008D01*
X027987Y033055D01*
X026255D01*
X026212Y033047D01*
X026175Y033022D01*
X026175Y033022D01*
X026111Y032958D01*
X026055Y032981D01*
X026055Y035353D01*
X026085Y035425D01*
X026095Y035502D01*
X026085Y035579D01*
X026076Y035601D01*
X026085Y035622D01*
X026095Y035699D01*
X026085Y035776D01*
X026076Y035797D01*
X026085Y035819D01*
X026095Y035896D01*
X026085Y035973D01*
X026076Y035994D01*
X026085Y036016D01*
X026095Y036093D01*
X026085Y03617D01*
X026076Y036191D01*
X026085Y036212D01*
X026095Y03629D01*
X026085Y036367D01*
X026076Y036388D01*
X026085Y036409D01*
X026095Y036486D01*
X026085Y036563D01*
X026076Y036585D01*
X026085Y036606D01*
X026095Y036683D01*
X026085Y03676D01*
X026076Y036782D01*
X026085Y036803D01*
X026095Y03688D01*
X026085Y036957D01*
X026076Y036978D01*
X026085Y037D01*
X026095Y037077D01*
X02609Y037115D01*
X026093Y037175D01*
X026093Y037175D01*
X026093Y037175D01*
Y037254D01*
X026095Y037274D01*
X026093Y037293D01*
Y037766D01*
X025931D01*
Y03825D01*
X026591D01*
Y038426D01*
X026767D01*
Y038762D01*
X026817D01*
Y038812D01*
X027103D01*
Y039076D01*
Y039362D01*
X026817D01*
Y039462D01*
X027103D01*
Y039747D01*
X026971D01*
X026927Y039788D01*
Y039965D01*
X026473D01*
Y039923D01*
X025953D01*
Y041336D01*
X026014D01*
X026027Y041304D01*
X026073Y041244D01*
X026164Y041153D01*
X026156Y041076D01*
X02614Y041065D01*
X026101Y041006D01*
X026087Y040937D01*
X026101Y040867D01*
X02614Y040808D01*
X026199Y040769D01*
X026268Y040755D01*
X026338Y040769D01*
X026397Y040808D01*
X026408Y040825D01*
X026473D01*
Y040398D01*
X026872D01*
Y040242D01*
X02675D01*
Y040065D01*
X026927D01*
Y040231D01*
X027425D01*
X027614Y040042D01*
X027607Y039982D01*
X027504D01*
Y039528D01*
X027911D01*
X027961Y039509D01*
X027967Y039471D01*
Y039429D01*
X027961Y039388D01*
X027911Y039372D01*
X027782D01*
Y039145D01*
Y038918D01*
X027911D01*
X027961Y038902D01*
X027967Y038861D01*
Y038757D01*
X027986Y038711D01*
X028031Y038692D01*
X029258Y038692D01*
X02928Y038684D01*
X029317Y038668D01*
X029375Y038593D01*
X02945Y038536D01*
X029538Y038499D01*
X029632Y038487D01*
X029725Y038499D01*
X029813Y038536D01*
X029888Y038593D01*
X029946Y038668D01*
X029983Y038684D01*
X030005Y038692D01*
X030254Y038692D01*
Y038318D01*
X030709D01*
Y038318D01*
X030718Y038332D01*
X031153D01*
Y038692D01*
X031779Y038692D01*
Y038593D01*
X032253D01*
Y038593D01*
X03231D01*
Y038593D01*
X032497D01*
Y03885D01*
Y039107D01*
X03231D01*
Y039107D01*
X032303D01*
X032263Y039145D01*
X032287Y039205D01*
X032382D01*
Y039561D01*
X032382D01*
Y039579D01*
X032382D01*
Y039707D01*
X032116D01*
Y039807D01*
X032382D01*
Y039935D01*
X032382D01*
Y039953D01*
X032382D01*
Y040309D01*
X031849D01*
Y040294D01*
X03166D01*
Y040303D01*
X029228D01*
Y040418D01*
X03243D01*
X03243Y040418D01*
X032473Y040426D01*
X032509Y040451D01*
X032698Y04064D01*
X032754Y040617D01*
Y040309D01*
X032755Y040307D01*
Y039955D01*
X032754Y039953D01*
Y039561D01*
X032755Y039559D01*
Y039207D01*
X032754Y039205D01*
Y039107D01*
X032597D01*
Y03885D01*
Y038593D01*
X032784D01*
Y038593D01*
X032796Y038601D01*
X032819Y038592D01*
X033373D01*
X033425Y038571D01*
X033425Y038532D01*
Y038384D01*
X033938D01*
Y038532D01*
X033938Y038571D01*
X03399Y038592D01*
X034033D01*
X034079Y038611D01*
X034098Y038657D01*
Y0411D01*
X034079Y041146D01*
X034033Y041165D01*
X033286D01*
X033242Y041225D01*
X033244Y041231D01*
X033244Y041231D01*
Y041357D01*
X033313Y041386D01*
X033388Y041443D01*
X033446Y041518D01*
X033482Y041606D01*
X033495Y0417D01*
X033482Y041794D01*
X033446Y041882D01*
X033388Y041957D01*
X033313Y042014D01*
X033225Y042051D01*
X033131Y042063D01*
X033038Y042051D01*
X03295Y042014D01*
X032875Y041957D01*
X032817Y041882D01*
X032781Y041794D01*
X032768Y0417D01*
X032781Y041606D01*
X032817Y041518D01*
X032875Y041443D01*
X03295Y041386D01*
X033019Y041357D01*
Y041278D01*
X032384Y040642D01*
X031986D01*
X031961Y040702D01*
X032311Y041052D01*
X032311Y041052D01*
X032335Y041089D01*
X032344Y041132D01*
X032344Y041132D01*
Y041357D01*
X032413Y041386D01*
X032488Y041443D01*
X032546Y041518D01*
X032582Y041606D01*
X032595Y0417D01*
X032582Y041794D01*
X032546Y041882D01*
X032488Y041957D01*
X032413Y042014D01*
X032325Y042051D01*
X032232Y042063D01*
X032138Y042051D01*
X03205Y042014D01*
X031975Y041957D01*
X031917Y041882D01*
X031881Y041794D01*
X031868Y0417D01*
X031881Y041606D01*
X031917Y041518D01*
X031975Y041443D01*
X03205Y041386D01*
X032119Y041357D01*
Y041178D01*
X03178Y040839D01*
X029228D01*
Y040887D01*
X028893D01*
X028557D01*
Y040625D01*
Y040396D01*
X028893D01*
Y040346D01*
X028943D01*
Y040231D01*
X029177D01*
Y039596D01*
X029153Y039572D01*
X029088D01*
Y039666D01*
X028832D01*
X028575D01*
Y039572D01*
X028509D01*
Y039982D01*
X028054D01*
Y039867D01*
X027959D01*
Y039982D01*
X027844D01*
Y040084D01*
X027835Y040127D01*
X027811Y040163D01*
X027811Y040163D01*
X027548Y040426D01*
X027543Y040429D01*
Y040842D01*
X027719D01*
Y041425D01*
X026789D01*
Y042517D01*
X026629D01*
Y043164D01*
X025953D01*
Y043778D01*
X025968Y043832D01*
X026013Y043832D01*
X026135D01*
Y044049D01*
X026185D01*
Y044099D01*
X026409D01*
X026454Y044118D01*
X026463Y044118D01*
X026909D01*
Y044552D01*
X027018D01*
Y044282D01*
X027447Y044282D01*
X027478Y044267D01*
X027501Y044253D01*
X027536Y044168D01*
X027593Y044093D01*
X027668Y044036D01*
X027756Y043999D01*
X02785Y043987D01*
X027944Y043999D01*
X028032Y044036D01*
X028107Y044093D01*
X028164Y044168D01*
X028201Y044256D01*
X028213Y04435D01*
X028201Y044444D01*
X028164Y044532D01*
X028107Y044607D01*
X028034Y044663D01*
X028033Y044669D01*
X028051Y044723D01*
X028074D01*
Y045177D01*
X027619D01*
Y044723D01*
X027649D01*
X027667Y044669D01*
X027666Y044663D01*
X027593Y044607D01*
X027536Y044532D01*
X027513Y044477D01*
X027453Y044489D01*
Y044717D01*
X027464Y044723D01*
Y045177D01*
X027085D01*
Y045245D01*
X02715Y04533D01*
X027204Y04546D01*
X027222Y0456D01*
X027204Y04574D01*
X02715Y04587D01*
X027064Y045982D01*
X026952Y046068D01*
X026821Y046122D01*
X026681Y046141D01*
X026542Y046122D01*
X026411Y046068D01*
X026299Y045982D01*
X026275Y045951D01*
X025931D01*
Y046567D01*
X046315Y046567D01*
D02*
G37*
G36*
X034033Y038657D02*
X033938D01*
Y038816D01*
X033425D01*
Y038657D01*
X032819D01*
Y039205D01*
X033288D01*
Y039561D01*
X032819D01*
Y039953D01*
X032971D01*
Y040131D01*
Y040309D01*
X032819D01*
Y04076D01*
X033159Y0411D01*
X034033D01*
Y038657D01*
D02*
G37*
G36*
X031849Y040207D02*
Y040181D01*
X032116D01*
Y040081D01*
X031849D01*
Y039953D01*
X031849D01*
Y039935D01*
X031849D01*
Y039579D01*
X031849D01*
Y039561D01*
X031849D01*
Y039433D01*
X032116D01*
Y039383D01*
X032166D01*
Y039205D01*
X032178D01*
Y039107D01*
X032066D01*
Y03885D01*
X032016D01*
Y0388D01*
X031779D01*
Y038757D01*
X031153Y038757D01*
Y038767D01*
X030718D01*
X030709Y038772D01*
Y038772D01*
X030254D01*
Y038757D01*
X030005Y038757D01*
X029985Y038779D01*
X029988Y0388D01*
X029632D01*
X029275D01*
X029278Y038779D01*
X029258Y038757D01*
X028031Y038757D01*
Y0389D01*
X028054Y038918D01*
X028061Y038918D01*
X028231D01*
Y039145D01*
Y039372D01*
X028061D01*
X028031Y03939D01*
Y039507D01*
X028575Y039507D01*
Y039479D01*
X029088D01*
Y039507D01*
X029176D01*
X029177Y039477D01*
Y039357D01*
X030254D01*
Y039205D01*
X030709D01*
Y039357D01*
X03166D01*
Y03978D01*
X030419D01*
Y03988D01*
X03166D01*
Y040207D01*
X031849D01*
D02*
G37*
%LPC*%
G36*
X0377Y032682D02*
X037523D01*
Y032505D01*
X0377D01*
Y032682D01*
D02*
G37*
G36*
X0399D02*
X039723D01*
Y032505D01*
X0399D01*
Y032682D01*
D02*
G37*
G36*
X03825D02*
X038073D01*
Y032505D01*
X03825D01*
Y032682D01*
D02*
G37*
G36*
X03935D02*
X039173D01*
Y032505D01*
X03935D01*
Y032682D01*
D02*
G37*
G36*
X040727D02*
X04055D01*
Y032505D01*
X040727D01*
Y032682D01*
D02*
G37*
G36*
X039077D02*
X0389D01*
Y032505D01*
X039077D01*
Y032682D01*
D02*
G37*
G36*
X040177D02*
X04D01*
Y032505D01*
X040177D01*
Y032682D01*
D02*
G37*
G36*
X04045D02*
X040273D01*
Y032505D01*
X04045D01*
Y032682D01*
D02*
G37*
G36*
X038764Y035977D02*
X038309D01*
Y035523D01*
X038764D01*
Y03558D01*
X038824Y035608D01*
X038862Y035582D01*
X038932Y035568D01*
X039001Y035582D01*
X03906Y035622D01*
X039099Y03568D01*
X039113Y03575D01*
X039099Y035819D01*
X03906Y035878D01*
X039001Y035918D01*
X038932Y035932D01*
X038862Y035918D01*
X038824Y035892D01*
X038764Y03592D01*
Y035977D01*
D02*
G37*
G36*
X0399Y032405D02*
X039723D01*
Y032228D01*
X0399D01*
Y032405D01*
D02*
G37*
G36*
X03935D02*
X039173D01*
Y032228D01*
X03935D01*
Y032405D01*
D02*
G37*
G36*
X039627D02*
X03945D01*
Y032228D01*
X039627D01*
Y032405D01*
D02*
G37*
G36*
X040727D02*
X04055D01*
Y032228D01*
X040727D01*
Y032405D01*
D02*
G37*
G36*
X0388Y032682D02*
X038623D01*
Y032505D01*
X0388D01*
Y032682D01*
D02*
G37*
G36*
X040177Y032405D02*
X04D01*
Y032228D01*
X040177D01*
Y032405D01*
D02*
G37*
G36*
X04045D02*
X040273D01*
Y032228D01*
X04045D01*
Y032405D01*
D02*
G37*
G36*
X038527Y032682D02*
X03835D01*
Y032505D01*
X038527D01*
Y032682D01*
D02*
G37*
G36*
X033494Y036208D02*
X033428Y036194D01*
X033372Y036157D01*
X033335Y036102D01*
X033322Y036036D01*
Y035485D01*
X033335Y035419D01*
X033372Y035363D01*
X033392Y035351D01*
Y035256D01*
X033365Y035238D01*
X033326Y03518D01*
X033312Y03511D01*
X033326Y035041D01*
X033365Y034982D01*
X033424Y034942D01*
X033494Y034928D01*
X033563Y034942D01*
X033622Y034982D01*
X033661Y035041D01*
X033675Y03511D01*
X033661Y03518D01*
X033622Y035238D01*
X033596Y035256D01*
Y035351D01*
X033615Y035363D01*
X033652Y035419D01*
X033665Y035485D01*
Y036036D01*
X033652Y036102D01*
X033615Y036157D01*
X033559Y036194D01*
X033494Y036208D01*
D02*
G37*
G36*
X038764Y035427D02*
X038309D01*
Y034973D01*
X038764D01*
Y03503D01*
X038824Y035058D01*
X038862Y035032D01*
X038932Y035018D01*
X039001Y035032D01*
X03906Y035072D01*
X039099Y035131D01*
X039113Y0352D01*
X039099Y035269D01*
X03906Y035328D01*
X039001Y035368D01*
X038932Y035382D01*
X038862Y035368D01*
X038824Y035342D01*
X038764Y03537D01*
Y035427D01*
D02*
G37*
G36*
X032494Y036208D02*
X032428Y036194D01*
X032372Y036157D01*
X032335Y036102D01*
X032322Y036036D01*
Y035485D01*
X032335Y035419D01*
X032372Y035363D01*
X032392Y035351D01*
Y035256D01*
X032365Y035238D01*
X032326Y03518D01*
X032312Y03511D01*
X032326Y035041D01*
X032365Y034982D01*
X032424Y034942D01*
X032494Y034928D01*
X032563Y034942D01*
X032622Y034982D01*
X032661Y035041D01*
X032675Y03511D01*
X032661Y03518D01*
X032622Y035238D01*
X032596Y035256D01*
Y035351D01*
X032615Y035363D01*
X032652Y035419D01*
X032665Y035485D01*
Y036036D01*
X032652Y036102D01*
X032615Y036157D01*
X032559Y036194D01*
X032494Y036208D01*
D02*
G37*
G36*
X032994D02*
X032928Y036194D01*
X032872Y036157D01*
X032835Y036102D01*
X032822Y036036D01*
Y035485D01*
X032835Y035419D01*
X032872Y035363D01*
X032892Y035351D01*
Y035256D01*
X032865Y035238D01*
X032826Y03518D01*
X032812Y03511D01*
X032826Y035041D01*
X032865Y034982D01*
X032924Y034942D01*
X032994Y034928D01*
X033063Y034942D01*
X033122Y034982D01*
X033161Y035041D01*
X033175Y03511D01*
X033161Y03518D01*
X033122Y035238D01*
X033096Y035256D01*
Y035351D01*
X033115Y035363D01*
X033152Y035419D01*
X033165Y035485D01*
Y036036D01*
X033152Y036102D01*
X033115Y036157D01*
X033059Y036194D01*
X032994Y036208D01*
D02*
G37*
G36*
X034494D02*
X034428Y036194D01*
X034372Y036157D01*
X034335Y036102D01*
X034322Y036036D01*
Y035485D01*
X034335Y035419D01*
X034372Y035363D01*
X034428Y035326D01*
X034494Y035313D01*
X034559Y035326D01*
X034615Y035363D01*
X034652Y035419D01*
X034665Y035485D01*
Y036036D01*
X034652Y036102D01*
X034615Y036157D01*
X034559Y036194D01*
X034494Y036208D01*
D02*
G37*
G36*
X034994D02*
X034928Y036194D01*
X034872Y036157D01*
X034835Y036102D01*
X034822Y036036D01*
Y035485D01*
X034835Y035419D01*
X034872Y035363D01*
X034928Y035326D01*
X034994Y035313D01*
X035059Y035326D01*
X035115Y035363D01*
X035152Y035419D01*
X035165Y035485D01*
Y036036D01*
X035152Y036102D01*
X035115Y036157D01*
X035059Y036194D01*
X034994Y036208D01*
D02*
G37*
G36*
X035494D02*
X035428Y036194D01*
X035372Y036157D01*
X035335Y036102D01*
X035322Y036036D01*
Y035485D01*
X035335Y035419D01*
X035372Y035363D01*
X035428Y035326D01*
X035494Y035313D01*
X035559Y035326D01*
X035615Y035363D01*
X035652Y035419D01*
X035665Y035485D01*
Y036036D01*
X035652Y036102D01*
X035615Y036157D01*
X035559Y036194D01*
X035494Y036208D01*
D02*
G37*
G36*
X033994D02*
X033928Y036194D01*
X033872Y036157D01*
X033835Y036102D01*
X033822Y036036D01*
Y035485D01*
X033835Y035419D01*
X033872Y035363D01*
X033928Y035326D01*
X033994Y035313D01*
X034059Y035326D01*
X034115Y035363D01*
X034152Y035419D01*
X034165Y035485D01*
Y036036D01*
X034152Y036102D01*
X034115Y036157D01*
X034059Y036194D01*
X033994Y036208D01*
D02*
G37*
G36*
X037977Y032682D02*
X0378D01*
Y032505D01*
X037977D01*
Y032682D01*
D02*
G37*
G36*
X038764Y034327D02*
X038309D01*
Y033873D01*
X038764D01*
Y03393D01*
X038824Y033958D01*
X038862Y033932D01*
X038932Y033918D01*
X039001Y033932D01*
X03906Y033972D01*
X039099Y03403D01*
X039113Y0341D01*
X039099Y034169D01*
X03906Y034228D01*
X039001Y034268D01*
X038932Y034282D01*
X038862Y034268D01*
X038824Y034242D01*
X038764Y03427D01*
Y034327D01*
D02*
G37*
G36*
X039627Y032682D02*
X03945D01*
Y032505D01*
X039627D01*
Y032682D01*
D02*
G37*
G36*
X035944Y03571D02*
X035822D01*
Y035485D01*
X035835Y035419D01*
X035872Y035363D01*
X035928Y035326D01*
X035944Y035323D01*
Y03571D01*
D02*
G37*
G36*
X038764Y034877D02*
X038309D01*
Y034423D01*
X038764D01*
Y03448D01*
X038824Y034508D01*
X038862Y034482D01*
X038932Y034468D01*
X039001Y034482D01*
X03906Y034522D01*
X039099Y034581D01*
X039113Y03465D01*
X039099Y03472D01*
X03906Y034778D01*
X039001Y034818D01*
X038932Y034832D01*
X038862Y034818D01*
X038824Y034792D01*
X038764Y03482D01*
Y034877D01*
D02*
G37*
G36*
X031994Y036208D02*
X031928Y036194D01*
X031872Y036157D01*
X031835Y036102D01*
X031822Y036036D01*
Y035485D01*
X031835Y035419D01*
X031872Y035363D01*
X031892Y035351D01*
Y035256D01*
X031865Y035238D01*
X031826Y03518D01*
X031812Y03511D01*
X031826Y035041D01*
X031865Y034982D01*
X031924Y034942D01*
X031994Y034928D01*
X032063Y034942D01*
X032122Y034982D01*
X032161Y035041D01*
X032175Y03511D01*
X032161Y03518D01*
X032122Y035238D01*
X032096Y035256D01*
Y035351D01*
X032115Y035363D01*
X032152Y035419D01*
X032165Y035485D01*
Y036036D01*
X032152Y036102D01*
X032115Y036157D01*
X032059Y036194D01*
X031994Y036208D01*
D02*
G37*
G36*
X028663Y034074D02*
X028346D01*
X02803D01*
X028054Y034038D01*
Y034013D01*
X02803Y033977D01*
X028346D01*
X028663D01*
X028639Y034013D01*
Y034038D01*
X028663Y034074D01*
D02*
G37*
G36*
X038154Y034877D02*
X037699D01*
Y034752D01*
X036832D01*
X036792Y034744D01*
X036759Y034722D01*
X036422Y034384D01*
X0364Y034351D01*
X036392Y034312D01*
Y033832D01*
X028705D01*
X028689Y033851D01*
X028676Y033877D01*
X028346D01*
X02803D01*
X028054Y033841D01*
Y033816D01*
X028028Y033777D01*
X028018Y03373D01*
X028028Y033684D01*
X028054Y033645D01*
Y033619D01*
X028028Y03358D01*
X028018Y033534D01*
X028028Y033487D01*
X028054Y033448D01*
Y033423D01*
X028028Y033383D01*
X028018Y033337D01*
X028028Y03329D01*
X028054Y033251D01*
Y033226D01*
X02803Y03319D01*
X028346D01*
X028676D01*
X028689Y033216D01*
X028705Y033235D01*
X028875D01*
X029192Y032918D01*
Y032692D01*
X029066D01*
Y032382D01*
X028801Y032117D01*
X028425D01*
X028422Y032117D01*
X028365D01*
X028362Y032117D01*
X028178D01*
Y03186D01*
Y031603D01*
X028362D01*
X028365Y031603D01*
X028422D01*
X028425Y031603D01*
X028897D01*
Y031924D01*
X029006Y032034D01*
X029066Y032009D01*
Y031628D01*
X029521D01*
Y031753D01*
X029742D01*
Y031612D01*
X030098D01*
Y031613D01*
X030123Y031629D01*
X030158Y031639D01*
X030188Y031619D01*
X030235Y031609D01*
X030244D01*
Y031869D01*
Y032128D01*
X030235D01*
X030188Y032119D01*
X030158Y032098D01*
X030123Y032108D01*
X030098Y032124D01*
Y032126D01*
X030008D01*
Y03233D01*
X030441Y032763D01*
X03051Y032747D01*
X030523Y032728D01*
X030562Y032701D01*
X030609Y032692D01*
X030727D01*
X030773Y032701D01*
X030813Y032728D01*
X030839Y032767D01*
X030848Y032814D01*
Y033089D01*
X030839Y033136D01*
X030813Y033175D01*
X030773Y033201D01*
X030727Y033211D01*
X030609D01*
X030562Y033201D01*
X030523Y033175D01*
X030497Y033136D01*
X030487Y033089D01*
Y033053D01*
X030485D01*
X030446Y033046D01*
X030413Y033023D01*
X030151Y032761D01*
X030096Y032791D01*
X0301Y032814D01*
Y033089D01*
X030091Y033136D01*
X030065Y033175D01*
X030025Y033201D01*
X029979Y033211D01*
X029902D01*
X029823Y033289D01*
X029787Y033314D01*
X029744Y033322D01*
X029744Y033322D01*
X029683D01*
X029672Y033338D01*
X029622Y033372D01*
X029625Y033411D01*
X029632Y033432D01*
X035656D01*
X035892Y033196D01*
Y032469D01*
X035872Y032457D01*
X035835Y032401D01*
X035822Y032335D01*
Y031784D01*
X035835Y031718D01*
X035872Y031663D01*
X035892Y03165D01*
Y031588D01*
X0359Y031549D01*
X035922Y031516D01*
X035975Y031462D01*
X03595Y031402D01*
X033246D01*
X033096Y031552D01*
Y03165D01*
X033115Y031663D01*
X033152Y031718D01*
X033165Y031784D01*
Y032335D01*
X033152Y032401D01*
X033115Y032457D01*
X033059Y032494D01*
X032994Y032507D01*
X032928Y032494D01*
X032872Y032457D01*
X032835Y032401D01*
X032822Y032335D01*
Y031784D01*
X032835Y031718D01*
X032872Y031663D01*
X032892Y03165D01*
Y03151D01*
X032899Y031471D01*
X032922Y031438D01*
X033132Y031228D01*
X033165Y031206D01*
X033204Y031198D01*
X036758D01*
X036848Y031107D01*
X036829Y031042D01*
X036797Y031036D01*
X036738Y030997D01*
X036698Y030938D01*
X036685Y030868D01*
Y030238D01*
X036698Y030169D01*
X036738Y03011D01*
X036797Y030071D01*
X036866Y030057D01*
X037102D01*
X037172Y030071D01*
X037231Y03011D01*
X03727Y030169D01*
X037284Y030238D01*
Y030868D01*
X03727Y030938D01*
X037231Y030997D01*
X037172Y031036D01*
X03717Y031036D01*
X037151Y031101D01*
X037667Y031618D01*
X037977D01*
Y032072D01*
X037523D01*
Y031775D01*
X03749Y031749D01*
X037433Y031778D01*
Y033808D01*
X037624Y033998D01*
X037699D01*
Y033873D01*
X038154D01*
Y034327D01*
X037699D01*
Y034202D01*
X037582D01*
X037542Y034194D01*
X037509Y034172D01*
X037259Y033922D01*
X037237Y033889D01*
X03723Y03385D01*
Y031851D01*
X037225Y031848D01*
X037165Y03188D01*
Y03201D01*
X036994D01*
Y03206D01*
D01*
Y03201D01*
X036822D01*
Y031784D01*
X036835Y031718D01*
X036872Y031663D01*
X036874Y031662D01*
X036855Y031602D01*
X036632D01*
X036614Y031662D01*
X036615Y031663D01*
X036652Y031718D01*
X036665Y031784D01*
Y032335D01*
X036652Y032401D01*
X036615Y032457D01*
X036596Y032469D01*
Y03427D01*
X036874Y034548D01*
X037699D01*
Y034423D01*
X038154D01*
Y034877D01*
D02*
G37*
G36*
X041827Y03105D02*
X041591D01*
X041521Y031036D01*
X041462Y030997D01*
X041423Y030938D01*
X041409Y030868D01*
Y030238D01*
X041423Y030169D01*
X041462Y03011D01*
X041521Y030071D01*
X041591Y030057D01*
X041827D01*
X041896Y030071D01*
X041955Y03011D01*
X041995Y030169D01*
X042008Y030238D01*
Y030868D01*
X041995Y030938D01*
X041955Y030997D01*
X041896Y031036D01*
X041827Y03105D01*
D02*
G37*
G36*
X026748Y031387D02*
X026679Y031373D01*
X02662Y031334D01*
X02658Y031275D01*
X026566Y031206D01*
X02658Y031136D01*
X0266Y031106D01*
X026568Y031046D01*
X026452D01*
Y03006D01*
X027044D01*
Y031046D01*
X026928D01*
X026896Y031106D01*
X026916Y031136D01*
X02693Y031206D01*
X026916Y031275D01*
X026876Y031334D01*
X026818Y031373D01*
X026748Y031387D01*
D02*
G37*
G36*
X032378Y03105D02*
X032142D01*
X032072Y031036D01*
X032013Y030997D01*
X031974Y030938D01*
X03196Y030868D01*
Y030238D01*
X031974Y030169D01*
X032013Y03011D01*
X032072Y030071D01*
X032142Y030057D01*
X032378D01*
X032447Y030071D01*
X032506Y03011D01*
X032546Y030169D01*
X03256Y030238D01*
Y030868D01*
X032546Y030938D01*
X032506Y030997D01*
X032447Y031036D01*
X032378Y03105D01*
D02*
G37*
G36*
X039627Y032072D02*
X039173D01*
Y031618D01*
X039248D01*
Y031396D01*
X039222Y031378D01*
X039182Y031319D01*
X039168Y03125D01*
X039182Y031181D01*
X039222Y031122D01*
X039239Y03111D01*
X039236Y03105D01*
X039228D01*
X039159Y031036D01*
X0391Y030997D01*
X039061Y030938D01*
X039047Y030868D01*
Y030238D01*
X039061Y030169D01*
X0391Y03011D01*
X039159Y030071D01*
X039228Y030057D01*
X039465D01*
X039534Y030071D01*
X039593Y03011D01*
X039632Y030169D01*
X039646Y030238D01*
Y030868D01*
X039632Y030938D01*
X039593Y030997D01*
X039534Y031036D01*
X039465Y03105D01*
X039464D01*
X039461Y03111D01*
X039478Y031122D01*
X039518Y031181D01*
X039532Y03125D01*
X039518Y031319D01*
X039478Y031378D01*
X039452Y031396D01*
Y031618D01*
X039627D01*
Y032072D01*
D02*
G37*
G36*
X039077D02*
X038623D01*
Y031618D01*
X038748D01*
Y031392D01*
X038744Y031388D01*
X038678Y031378D01*
X038619Y031418D01*
X03855Y031432D01*
X038481Y031418D01*
X038453Y031399D01*
X038399Y031436D01*
X038402Y03145D01*
Y031618D01*
X038527D01*
Y032072D01*
X038073D01*
Y031618D01*
X038198D01*
Y031492D01*
X038058Y031352D01*
X037946D01*
X037928Y031378D01*
X03787Y031418D01*
X0378Y031432D01*
X037731Y031418D01*
X037672Y031378D01*
X037632Y031319D01*
X037618Y03125D01*
X037632Y031181D01*
X037672Y031122D01*
X037689Y03111D01*
X037686Y03105D01*
X037654D01*
X037584Y031036D01*
X037525Y030997D01*
X037486Y030938D01*
X037472Y030868D01*
Y030238D01*
X037486Y030169D01*
X037525Y03011D01*
X037584Y030071D01*
X037654Y030057D01*
X03789D01*
X037959Y030071D01*
X038018Y03011D01*
X038058Y030169D01*
X038071Y030238D01*
Y030868D01*
X038058Y030938D01*
X038018Y030997D01*
X037959Y031036D01*
X037902Y031047D01*
X037902Y031104D01*
X037928Y031122D01*
X037946Y031148D01*
X0381D01*
X038139Y031156D01*
X038172Y031178D01*
X038323Y031329D01*
X038378Y031299D01*
X038368Y03125D01*
X038382Y031181D01*
X038422Y031122D01*
X03844Y031109D01*
X038441Y031067D01*
X038438Y031049D01*
X038371Y031036D01*
X038313Y030997D01*
X038273Y030938D01*
X038259Y030868D01*
Y030238D01*
X038273Y030169D01*
X038313Y03011D01*
X038371Y030071D01*
X038441Y030057D01*
X038677D01*
X038747Y030071D01*
X038806Y03011D01*
X038845Y030169D01*
X038859Y030238D01*
Y030868D01*
X038845Y030938D01*
X038806Y030997D01*
X038747Y031036D01*
X038679Y03105D01*
X038676Y03106D01*
X038668Y03111D01*
X038704Y031148D01*
X03875D01*
X038789Y031156D01*
X038822Y031178D01*
X038922Y031278D01*
X038944Y031311D01*
X038952Y03135D01*
Y031618D01*
X039077D01*
Y032072D01*
D02*
G37*
G36*
X028078Y03181D02*
X027891D01*
Y031603D01*
X028078D01*
Y03181D01*
D02*
G37*
G36*
X036493Y031046D02*
X035901D01*
Y030665D01*
X03584D01*
X035829Y030682D01*
X03577Y030721D01*
X0357Y030735D01*
X035631Y030721D01*
X035572Y030682D01*
X035533Y030623D01*
X035519Y030553D01*
X035533Y030484D01*
X035572Y030425D01*
X035631Y030386D01*
X0357Y030372D01*
X03577Y030386D01*
X035829Y030425D01*
X03584Y030441D01*
X035901D01*
Y03006D01*
X036493D01*
Y031046D01*
D02*
G37*
G36*
X032494Y032507D02*
X032428Y032494D01*
X032372Y032457D01*
X032335Y032401D01*
X032322Y032335D01*
Y031784D01*
X032333Y031728D01*
X031645Y031039D01*
X031591Y03105D01*
X031354D01*
X031285Y031036D01*
X031226Y030997D01*
X031187Y030938D01*
X031173Y030868D01*
Y030238D01*
X031187Y030169D01*
X031226Y03011D01*
X031285Y030071D01*
X031354Y030057D01*
X031398D01*
Y029996D01*
X031372Y029978D01*
X031332Y02992D01*
X031318Y02985D01*
X031332Y02978D01*
X031372Y029722D01*
X03143Y029682D01*
X0315Y029668D01*
X031569Y029682D01*
X031628Y029722D01*
X031668Y02978D01*
X031682Y02985D01*
X031668Y02992D01*
X031628Y029978D01*
X031602Y029996D01*
Y030059D01*
X03166Y030071D01*
X031719Y03011D01*
X031758Y030169D01*
X031772Y030238D01*
Y030868D01*
X031771Y030876D01*
X03251Y031616D01*
X032559Y031626D01*
X032615Y031663D01*
X032652Y031718D01*
X032665Y031784D01*
Y032335D01*
X032652Y032401D01*
X032615Y032457D01*
X032559Y032494D01*
X032494Y032507D01*
D02*
G37*
G36*
X030016Y03105D02*
X02978D01*
X02971Y031036D01*
X029651Y030997D01*
X029612Y030938D01*
X029598Y030868D01*
Y030238D01*
X029612Y030169D01*
X029651Y03011D01*
X02971Y030071D01*
X02978Y030057D01*
X029798D01*
Y029996D01*
X029772Y029978D01*
X029732Y02992D01*
X029718Y02985D01*
X029732Y02978D01*
X029772Y029722D01*
X029831Y029682D01*
X0299Y029668D01*
X029969Y029682D01*
X030028Y029722D01*
X030068Y02978D01*
X030082Y02985D01*
X030068Y02992D01*
X030028Y029978D01*
X030002Y029996D01*
Y030057D01*
X030016D01*
X030085Y030071D01*
X030144Y03011D01*
X030184Y030169D01*
X030197Y030238D01*
Y030868D01*
X030184Y030938D01*
X030144Y030997D01*
X030085Y031036D01*
X030016Y03105D01*
D02*
G37*
G36*
X034131Y029243D02*
X033223D01*
Y02747D01*
X034131D01*
Y029243D01*
D02*
G37*
G36*
X035233D02*
X034326D01*
Y02747D01*
X035233D01*
Y029243D01*
D02*
G37*
G36*
X045449Y028579D02*
X045333Y028567D01*
X045221Y028533D01*
X045119Y028478D01*
X045029Y028405D01*
X044955Y028314D01*
X0449Y028212D01*
X044866Y0281D01*
X044854Y027984D01*
X044866Y027868D01*
X0449Y027757D01*
X044955Y027654D01*
X045029Y027564D01*
X045119Y02749D01*
X045221Y027435D01*
X045333Y027401D01*
X045449Y02739D01*
X045565Y027401D01*
X045676Y027435D01*
X045779Y02749D01*
X045869Y027564D01*
X045943Y027654D01*
X045998Y027757D01*
X046032Y027868D01*
X046043Y027984D01*
X046032Y0281D01*
X045998Y028212D01*
X045943Y028314D01*
X045869Y028405D01*
X045779Y028478D01*
X045676Y028533D01*
X045565Y028567D01*
X045449Y028579D01*
D02*
G37*
G36*
X025784Y029243D02*
X024877D01*
Y02747D01*
X025784D01*
Y029243D01*
D02*
G37*
G36*
X028441Y03105D02*
X028205D01*
X028135Y031036D01*
X028076Y030997D01*
X028037Y030938D01*
X028023Y030868D01*
Y030238D01*
X028037Y030169D01*
X028076Y03011D01*
X028135Y030071D01*
X028205Y030057D01*
X028248D01*
Y029996D01*
X028222Y029978D01*
X028182Y02992D01*
X028168Y02985D01*
X028182Y02978D01*
X028222Y029722D01*
X02828Y029682D01*
X02835Y029668D01*
X028419Y029682D01*
X028478Y029722D01*
X028518Y02978D01*
X028532Y02985D01*
X028518Y02992D01*
X028478Y029978D01*
X028452Y029996D01*
Y030059D01*
X02851Y030071D01*
X028569Y03011D01*
X028609Y030169D01*
X028623Y030238D01*
Y030868D01*
X028609Y030938D01*
X028569Y030997D01*
X02851Y031036D01*
X028441Y03105D01*
D02*
G37*
G36*
X029228D02*
X028992D01*
X028923Y031036D01*
X028864Y030997D01*
X028824Y030938D01*
X028811Y030868D01*
Y030238D01*
X028824Y030169D01*
X028864Y03011D01*
X028923Y030071D01*
X028992Y030057D01*
X028998D01*
Y029996D01*
X028972Y029978D01*
X028932Y02992D01*
X028918Y02985D01*
X028932Y02978D01*
X028972Y029722D01*
X02903Y029682D01*
X0291Y029668D01*
X029169Y029682D01*
X029228Y029722D01*
X029268Y02978D01*
X029282Y02985D01*
X029268Y02992D01*
X029228Y029978D01*
X029202Y029996D01*
Y030057D01*
X029228D01*
X029298Y030071D01*
X029357Y03011D01*
X029396Y030169D01*
X02941Y030238D01*
Y030868D01*
X029396Y030938D01*
X029357Y030997D01*
X029298Y031036D01*
X029228Y03105D01*
D02*
G37*
G36*
X04358Y029243D02*
X042672D01*
Y02747D01*
X04358D01*
Y029243D01*
D02*
G37*
G36*
X027654Y03105D02*
X027417D01*
X027348Y031036D01*
X027289Y030997D01*
X02725Y030938D01*
X027236Y030868D01*
Y030238D01*
X02725Y030169D01*
X027289Y03011D01*
X027348Y030071D01*
X027417Y030057D01*
X027448D01*
Y029996D01*
X027422Y029978D01*
X027382Y02992D01*
X027368Y02985D01*
X027382Y02978D01*
X027422Y029722D01*
X02748Y029682D01*
X02755Y029668D01*
X02762Y029682D01*
X027678Y029722D01*
X027718Y02978D01*
X027732Y02985D01*
X027718Y02992D01*
X027678Y029978D01*
X027652Y029996D01*
Y030057D01*
X027654D01*
X027723Y030071D01*
X027782Y03011D01*
X027821Y030169D01*
X027835Y030238D01*
Y030868D01*
X027821Y030938D01*
X027782Y030997D01*
X027723Y031036D01*
X027654Y03105D01*
D02*
G37*
G36*
X0377Y032405D02*
X037523D01*
Y032228D01*
X0377D01*
Y032405D01*
D02*
G37*
G36*
X037977D02*
X0378D01*
Y032228D01*
X037977D01*
Y032405D01*
D02*
G37*
G36*
X036944Y032497D02*
X036928Y032494D01*
X036872Y032457D01*
X036835Y032401D01*
X036822Y032335D01*
Y03211D01*
X036944D01*
Y032497D01*
D02*
G37*
G36*
X037044D02*
Y03211D01*
X037165D01*
Y032335D01*
X037152Y032401D01*
X037115Y032457D01*
X037059Y032494D01*
X037044Y032497D01*
D02*
G37*
G36*
X0388Y032405D02*
X038623D01*
Y032228D01*
X0388D01*
Y032405D01*
D02*
G37*
G36*
X039077D02*
X0389D01*
Y032228D01*
X039077D01*
Y032405D01*
D02*
G37*
G36*
X03825D02*
X038073D01*
Y032228D01*
X03825D01*
Y032405D01*
D02*
G37*
G36*
X038527D02*
X03835D01*
Y032228D01*
X038527D01*
Y032405D01*
D02*
G37*
G36*
X026701Y032217D02*
X026187D01*
Y0321D01*
X026127Y032081D01*
X026122Y032088D01*
X026063Y032128D01*
X025994Y032142D01*
X025924Y032128D01*
X025865Y032088D01*
X025826Y03203D01*
X025812Y03196D01*
X025826Y03189D01*
X025865Y031832D01*
X025924Y031792D01*
X025994Y031778D01*
X026063Y031792D01*
X026122Y031832D01*
X026127Y031839D01*
X026187Y03182D01*
Y031703D01*
X026701D01*
Y032217D01*
D02*
G37*
G36*
X034506Y032838D02*
X034437Y032824D01*
X034378Y032785D01*
X034339Y032726D01*
X034325Y032656D01*
X034339Y032587D01*
X034378Y032528D01*
X034383Y032524D01*
Y032464D01*
X034372Y032457D01*
X034335Y032401D01*
X034322Y032335D01*
Y031784D01*
X034335Y031718D01*
X034372Y031663D01*
X034428Y031626D01*
X034494Y031612D01*
X034559Y031626D01*
X034615Y031663D01*
X034652Y031718D01*
X034665Y031784D01*
Y032335D01*
X034652Y032401D01*
X034615Y032457D01*
X034624Y03252D01*
X034635Y032528D01*
X034674Y032587D01*
X034688Y032656D01*
X034674Y032726D01*
X034635Y032785D01*
X034576Y032824D01*
X034506Y032838D01*
D02*
G37*
G36*
X035006D02*
X034937Y032824D01*
X034878Y032785D01*
X034839Y032726D01*
X034825Y032656D01*
X034839Y032587D01*
X034878Y032528D01*
X034883Y032524D01*
Y032464D01*
X034872Y032457D01*
X034835Y032401D01*
X034822Y032335D01*
Y031784D01*
X034835Y031718D01*
X034872Y031663D01*
X034928Y031626D01*
X034994Y031612D01*
X035059Y031626D01*
X035115Y031663D01*
X035152Y031718D01*
X035165Y031784D01*
Y032335D01*
X035152Y032401D01*
X035115Y032457D01*
X035124Y03252D01*
X035135Y032528D01*
X035174Y032587D01*
X035188Y032656D01*
X035174Y032726D01*
X035135Y032785D01*
X035076Y032824D01*
X035006Y032838D01*
D02*
G37*
G36*
X0335Y032832D02*
X033431Y032818D01*
X033372Y032778D01*
X033332Y03272D01*
X033318Y03265D01*
X033332Y03258D01*
X03337Y032525D01*
X033372Y032519D01*
X033372Y032457D01*
X033335Y032401D01*
X033322Y032335D01*
Y031784D01*
X033335Y031718D01*
X033372Y031663D01*
X033428Y031626D01*
X033494Y031612D01*
X033559Y031626D01*
X033615Y031663D01*
X033652Y031718D01*
X033665Y031784D01*
Y032335D01*
X033652Y032401D01*
X033615Y032457D01*
X033623Y032518D01*
X033628Y032522D01*
X033668Y03258D01*
X033682Y03265D01*
X033668Y03272D01*
X033628Y032778D01*
X03357Y032818D01*
X0335Y032832D01*
D02*
G37*
G36*
X034006Y032838D02*
X033937Y032824D01*
X033878Y032785D01*
X033839Y032726D01*
X033825Y032656D01*
X033839Y032587D01*
X033878Y032528D01*
X033883Y032524D01*
Y032464D01*
X033872Y032457D01*
X033835Y032401D01*
X033822Y032335D01*
Y031784D01*
X033835Y031718D01*
X033872Y031663D01*
X033928Y031626D01*
X033994Y031612D01*
X034059Y031626D01*
X034115Y031663D01*
X034152Y031718D01*
X034165Y031784D01*
Y032335D01*
X034152Y032401D01*
X034115Y032457D01*
X034124Y03252D01*
X034135Y032528D01*
X034174Y032587D01*
X034188Y032656D01*
X034174Y032726D01*
X034135Y032785D01*
X034076Y032824D01*
X034006Y032838D01*
D02*
G37*
G36*
X040727Y032072D02*
X040273D01*
Y031755D01*
X04022Y031732D01*
X040177Y031769D01*
Y032072D01*
X039723D01*
Y031618D01*
X040033D01*
X040048Y031603D01*
Y031396D01*
X040022Y031378D01*
X039982Y031319D01*
X039968Y03125D01*
X039982Y031181D01*
X040022Y031122D01*
X040039Y03111D01*
X040036Y03105D01*
X040016D01*
X039946Y031036D01*
X039887Y030997D01*
X039848Y030938D01*
X039834Y030868D01*
Y030238D01*
X039848Y030169D01*
X039887Y03011D01*
X039946Y030071D01*
X040016Y030057D01*
X040252D01*
X040321Y030071D01*
X04038Y03011D01*
X04042Y030169D01*
X040434Y030238D01*
Y030868D01*
X04042Y030938D01*
X04038Y030997D01*
X040321Y031036D01*
X040258Y031049D01*
X040257Y031105D01*
X040257Y031108D01*
X040278Y031122D01*
X040318Y031181D01*
X040332Y03125D01*
X040318Y031319D01*
X040278Y031378D01*
X040252Y031396D01*
Y031566D01*
X040273Y031618D01*
X040312Y031618D01*
X040583D01*
X040822Y031379D01*
X040822Y031378D01*
X040782Y031319D01*
X040768Y03125D01*
X040782Y031181D01*
X040822Y031122D01*
X040839Y03111D01*
X040836Y03105D01*
X040803D01*
X040734Y031036D01*
X040675Y030997D01*
X040635Y030938D01*
X040622Y030868D01*
Y030238D01*
X040635Y030169D01*
X040675Y03011D01*
X040734Y030071D01*
X040803Y030057D01*
X041039D01*
X041109Y030071D01*
X041168Y03011D01*
X041207Y030169D01*
X041221Y030238D01*
Y030868D01*
X041207Y030938D01*
X041168Y030997D01*
X041109Y031036D01*
X041052Y031047D01*
Y031104D01*
X041078Y031122D01*
X041118Y031181D01*
X041132Y03125D01*
X041118Y031319D01*
X041078Y031378D01*
X041052Y031396D01*
X041044Y031434D01*
X041022Y031467D01*
X040727Y031762D01*
Y032072D01*
D02*
G37*
G36*
X028078Y032117D02*
X027891D01*
Y03191D01*
X028078D01*
Y032117D01*
D02*
G37*
G36*
X0355Y032832D02*
X035431Y032818D01*
X035372Y032778D01*
X035332Y03272D01*
X035318Y03265D01*
X035332Y03258D01*
X035371Y032522D01*
X035372Y032521D01*
X035372Y032457D01*
X035335Y032401D01*
X035322Y032335D01*
Y031784D01*
X035335Y031718D01*
X035372Y031663D01*
X035428Y031626D01*
X035494Y031612D01*
X035559Y031626D01*
X035615Y031663D01*
X035652Y031718D01*
X035665Y031784D01*
Y032335D01*
X035652Y032401D01*
X035615Y032457D01*
X035626Y03252D01*
X035628Y032522D01*
X035668Y03258D01*
X035682Y03265D01*
X035668Y03272D01*
X035628Y032778D01*
X03557Y032818D01*
X0355Y032832D01*
D02*
G37*
G36*
X031994Y032507D02*
X031928Y032494D01*
X031872Y032457D01*
X031835Y032401D01*
X031822Y032335D01*
Y031784D01*
X031831Y031741D01*
X031722Y031632D01*
X031662Y031657D01*
Y031672D01*
Y032503D01*
X031325D01*
Y031971D01*
X030848D01*
Y032006D01*
X030839Y032053D01*
X030813Y032092D01*
X030773Y032119D01*
X030727Y032128D01*
X030609D01*
X030562Y032119D01*
X030523Y032092D01*
X030516Y032082D01*
X030446D01*
X030439Y032092D01*
X030399Y032119D01*
X030353Y032128D01*
X030344D01*
Y031869D01*
Y031609D01*
X030353D01*
X030399Y031619D01*
X030439Y031645D01*
X030446Y031656D01*
X030516D01*
X030523Y031645D01*
X030562Y031619D01*
X030609Y031609D01*
X030727D01*
X030773Y031619D01*
X030813Y031645D01*
X030839Y031684D01*
X030848Y031731D01*
Y031767D01*
X031325D01*
Y031616D01*
X031337D01*
X031362Y031556D01*
X030847Y031041D01*
X030803Y03105D01*
X030567D01*
X030497Y031036D01*
X030439Y030997D01*
X030399Y030938D01*
X030385Y030868D01*
Y030238D01*
X030399Y030169D01*
X030439Y03011D01*
X030497Y030071D01*
X030567Y030057D01*
X030598D01*
Y029996D01*
X030572Y029978D01*
X030532Y02992D01*
X030518Y02985D01*
X030532Y02978D01*
X030572Y029722D01*
X030631Y029682D01*
X0307Y029668D01*
X03077Y029682D01*
X030828Y029722D01*
X030868Y02978D01*
X030882Y02985D01*
X030868Y02992D01*
X030828Y029978D01*
X030802Y029996D01*
Y030057D01*
X030803D01*
X030873Y030071D01*
X030932Y03011D01*
X030971Y030169D01*
X030985Y030238D01*
Y030868D01*
X030981Y030887D01*
X031502Y031408D01*
X031744D01*
X031783Y031416D01*
X031816Y031438D01*
X031991Y031613D01*
X031994Y031612D01*
X032059Y031626D01*
X032115Y031663D01*
X032152Y031718D01*
X032165Y031784D01*
Y032335D01*
X032152Y032401D01*
X032115Y032457D01*
X032059Y032494D01*
X031994Y032507D01*
D02*
G37*
G36*
X02731Y041877D02*
X027024D01*
Y041513D01*
X02731D01*
Y041877D01*
D02*
G37*
G36*
X027695D02*
X02741D01*
Y041513D01*
X027695D01*
Y041877D01*
D02*
G37*
G36*
X028843Y040296D02*
X028557D01*
Y040231D01*
X028843D01*
Y040296D01*
D02*
G37*
G36*
X03166Y041957D02*
X029177D01*
Y041249D01*
X028557D01*
Y041019D01*
Y040987D01*
X028893D01*
X029228D01*
Y04101D01*
X03166D01*
Y041957D01*
D02*
G37*
G36*
X032081Y043597D02*
X031844D01*
X031775Y043583D01*
X031716Y043543D01*
X031677Y043484D01*
X031663Y043415D01*
Y042785D01*
X031677Y042716D01*
X031716Y042657D01*
X031775Y042617D01*
X031844Y042603D01*
X031873D01*
X031877Y04258D01*
X031902Y042543D01*
X032164Y042281D01*
X032164Y042281D01*
X032201Y042256D01*
X032244Y042248D01*
X032244Y042248D01*
X034869D01*
X034911Y042256D01*
X034948Y042281D01*
X034972Y042317D01*
X034981Y04236D01*
Y042417D01*
X03502Y042443D01*
X035066Y042512D01*
X035082Y042594D01*
Y042964D01*
X035066Y043046D01*
X03502Y043115D01*
X034986Y043138D01*
X035004Y043198D01*
X035233D01*
X035251Y043138D01*
X035217Y043115D01*
X035171Y043046D01*
X035155Y042964D01*
Y042594D01*
X035171Y042512D01*
X035217Y042443D01*
X035287Y042397D01*
X035368Y042381D01*
X03545Y042397D01*
X03552Y042443D01*
X035566Y042512D01*
X035582Y042594D01*
Y042964D01*
X035566Y043044D01*
X035569Y043048D01*
X035616Y043079D01*
X035667Y043028D01*
X035655Y042964D01*
Y042594D01*
X035671Y042512D01*
X035717Y042443D01*
X035787Y042397D01*
X035868Y042381D01*
X03595Y042397D01*
X03602Y042443D01*
X036066Y042512D01*
X036082Y042594D01*
Y042964D01*
X036066Y043046D01*
X03602Y043115D01*
X03595Y043162D01*
X035868Y043178D01*
X03584Y043172D01*
X035623Y043389D01*
X035587Y043414D01*
X035544Y043422D01*
X035544Y043422D01*
X034847D01*
X034804Y043414D01*
X034768Y043389D01*
X034768Y043389D01*
X034051Y042672D01*
X033046D01*
Y043593D01*
X032454D01*
Y042607D01*
X032656D01*
Y04256D01*
X032662Y042532D01*
X032636Y042487D01*
X032623Y042472D01*
X03229D01*
X03219Y042572D01*
X032198Y042649D01*
X032209Y042657D01*
X032248Y042716D01*
X032262Y042785D01*
Y043415D01*
X032248Y043484D01*
X032209Y043543D01*
X03215Y043583D01*
X032081Y043597D01*
D02*
G37*
G36*
X036369Y043178D02*
X036287Y043162D01*
X036217Y043115D01*
X036171Y043046D01*
X036155Y042964D01*
Y042594D01*
X036171Y042512D01*
X036217Y042443D01*
X036287Y042397D01*
X036369Y042381D01*
X03645Y042397D01*
X03652Y042443D01*
X036566Y042512D01*
X036582Y042594D01*
Y042964D01*
X036566Y043046D01*
X03652Y043115D01*
X03645Y043162D01*
X036369Y043178D01*
D02*
G37*
G36*
X02731Y042341D02*
X027024D01*
Y041977D01*
X02731D01*
Y042341D01*
D02*
G37*
G36*
X027695D02*
X02741D01*
Y041977D01*
X027695D01*
Y042341D01*
D02*
G37*
G36*
X02665Y040242D02*
X026473D01*
Y040065D01*
X02665D01*
Y040242D01*
D02*
G37*
G36*
X028781Y039953D02*
X028575D01*
Y039766D01*
X028781D01*
Y039953D01*
D02*
G37*
G36*
X029088D02*
X028881D01*
Y039766D01*
X029088D01*
Y039953D01*
D02*
G37*
G36*
X030742Y046186D02*
X030348D01*
X030281Y046177D01*
X030219Y046151D01*
X030165Y04611D01*
X030124Y046056D01*
X030098Y045994D01*
X030089Y045927D01*
Y044667D01*
X030098Y0446D01*
X030124Y044537D01*
X030165Y044484D01*
X030219Y044443D01*
X030281Y044417D01*
X030348Y044408D01*
X030742D01*
X030809Y044417D01*
X030872Y044443D01*
X030925Y044484D01*
X030966Y044537D01*
X030992Y0446D01*
X031001Y044667D01*
Y045927D01*
X030992Y045994D01*
X030966Y046056D01*
X030925Y04611D01*
X030872Y046151D01*
X030809Y046177D01*
X030742Y046186D01*
D02*
G37*
G36*
X034364D02*
X03397D01*
X033903Y046177D01*
X033841Y046151D01*
X033787Y04611D01*
X033746Y046056D01*
X03372Y045994D01*
X033711Y045927D01*
Y044667D01*
X03372Y0446D01*
X033746Y044537D01*
X033787Y044484D01*
X033841Y044443D01*
X033903Y044417D01*
X03397Y044408D01*
X034364D01*
X034431Y044417D01*
X034494Y044443D01*
X034547Y044484D01*
X034589Y044537D01*
X034614Y0446D01*
X034623Y044667D01*
Y045927D01*
X034614Y045994D01*
X034589Y046056D01*
X034547Y04611D01*
X034494Y046151D01*
X034431Y046177D01*
X034364Y046186D01*
D02*
G37*
G36*
X027185Y044127D02*
X027018D01*
Y043959D01*
X027185D01*
Y044127D01*
D02*
G37*
G36*
X027453D02*
X027285D01*
Y043959D01*
X027453D01*
Y044127D01*
D02*
G37*
G36*
X028717Y046295D02*
X028601Y046284D01*
X028489Y04625D01*
X028386Y046195D01*
X028296Y046121D01*
X028222Y046031D01*
X028167Y045928D01*
X028134Y045817D01*
X028122Y045701D01*
X028134Y045585D01*
X028167Y045473D01*
X028222Y045371D01*
X028296Y045281D01*
X028386Y045207D01*
X028489Y045152D01*
X028601Y045118D01*
X028717Y045106D01*
X028832Y045118D01*
X028944Y045152D01*
X029047Y045207D01*
X029137Y045281D01*
X029211Y045371D01*
X029266Y045473D01*
X029299Y045585D01*
X029311Y045701D01*
X029299Y045817D01*
X029266Y045928D01*
X029211Y046031D01*
X029137Y046121D01*
X029047Y046195D01*
X028944Y04625D01*
X028832Y046284D01*
X028717Y046295D01*
D02*
G37*
G36*
X045449D02*
X045333Y046284D01*
X045221Y04625D01*
X045119Y046195D01*
X045029Y046121D01*
X044955Y046031D01*
X0449Y045928D01*
X044866Y045817D01*
X044854Y045701D01*
X044866Y045585D01*
X0449Y045473D01*
X044955Y045371D01*
X045029Y045281D01*
X045119Y045207D01*
X045221Y045152D01*
X045333Y045118D01*
X045449Y045106D01*
X045565Y045118D01*
X045676Y045152D01*
X045779Y045207D01*
X045869Y045281D01*
X045943Y045371D01*
X045998Y045473D01*
X046032Y045585D01*
X046043Y045701D01*
X046032Y045817D01*
X045998Y045928D01*
X045943Y046031D01*
X045869Y046121D01*
X045779Y046195D01*
X045676Y04625D01*
X045565Y046284D01*
X045449Y046295D01*
D02*
G37*
G36*
X039242Y046186D02*
X038848D01*
X038781Y046177D01*
X038719Y046151D01*
X038665Y04611D01*
X038624Y046056D01*
X038598Y045994D01*
X038589Y045927D01*
Y044667D01*
X038598Y0446D01*
X038624Y044537D01*
X038665Y044484D01*
X038719Y044443D01*
X038781Y044417D01*
X038848Y044408D01*
X039242D01*
X039309Y044417D01*
X039372Y044443D01*
X039425Y044484D01*
X039466Y044537D01*
X039492Y0446D01*
X039501Y044667D01*
Y045927D01*
X039492Y045994D01*
X039466Y046056D01*
X039425Y04611D01*
X039372Y046151D01*
X039309Y046177D01*
X039242Y046186D01*
D02*
G37*
G36*
X042864D02*
X04247D01*
X042403Y046177D01*
X042341Y046151D01*
X042287Y04611D01*
X042246Y046056D01*
X04222Y045994D01*
X042211Y045927D01*
Y044667D01*
X04222Y0446D01*
X042246Y044537D01*
X042287Y044484D01*
X042341Y044443D01*
X042403Y044417D01*
X04247Y044408D01*
X042864D01*
X042931Y044417D01*
X042994Y044443D01*
X043047Y044484D01*
X043089Y044537D01*
X043114Y0446D01*
X043123Y044667D01*
Y045927D01*
X043114Y045994D01*
X043089Y046056D01*
X043047Y04611D01*
X042994Y046151D01*
X042931Y046177D01*
X042864Y046186D01*
D02*
G37*
G36*
X026403Y043999D02*
X026235D01*
Y043832D01*
X026403D01*
Y043999D01*
D02*
G37*
G36*
X0278Y0433D02*
X027493D01*
X027499Y043256D01*
X027536Y043168D01*
X027593Y043093D01*
X027668Y043036D01*
X027756Y042999D01*
X0278Y042993D01*
Y0433D01*
D02*
G37*
G36*
X028207D02*
X0279D01*
Y042993D01*
X027944Y042999D01*
X028032Y043036D01*
X028107Y043093D01*
X028164Y043168D01*
X028201Y043256D01*
X028207Y0433D01*
D02*
G37*
G36*
X036869Y043178D02*
X036787Y043162D01*
X036717Y043115D01*
X036671Y043046D01*
X036655Y042964D01*
Y042594D01*
X036671Y042512D01*
X036717Y042443D01*
X036787Y042397D01*
X036869Y042381D01*
X03695Y042397D01*
X03702Y042443D01*
X037066Y042512D01*
X037082Y042594D01*
Y042964D01*
X037066Y043046D01*
X03702Y043115D01*
X03695Y043162D01*
X036869Y043178D01*
D02*
G37*
G36*
X040581Y043597D02*
X040344D01*
X040275Y043583D01*
X040216Y043543D01*
X040177Y043484D01*
X040163Y043415D01*
Y042785D01*
X040173Y042732D01*
X040139Y042672D01*
X039186D01*
X038469Y043389D01*
X038433Y043414D01*
X03839Y043422D01*
X03839Y043422D01*
X037744D01*
X037744Y043422D01*
X037701Y043414D01*
X037664Y043389D01*
X037664Y043389D01*
X037439Y043164D01*
X037369Y043178D01*
X037287Y043162D01*
X037217Y043115D01*
X037171Y043046D01*
X037155Y042964D01*
Y042594D01*
X037171Y042512D01*
X037217Y042443D01*
X037287Y042397D01*
X037369Y042381D01*
X03745Y042397D01*
X03752Y042443D01*
X037566Y042512D01*
X037582Y042594D01*
Y042953D01*
X037595Y042966D01*
X037632Y042954D01*
X037655Y042933D01*
Y042594D01*
X037671Y042512D01*
X037717Y042443D01*
X037787Y042397D01*
X037868Y042381D01*
X03795Y042397D01*
X03802Y042443D01*
X038066Y042512D01*
X038082Y042594D01*
Y042964D01*
X038066Y043046D01*
X03802Y043115D01*
X037986Y043138D01*
X038004Y043198D01*
X038233D01*
X038251Y043138D01*
X038217Y043115D01*
X038171Y043046D01*
X038155Y042964D01*
Y042594D01*
X038171Y042512D01*
X038217Y042443D01*
X038256Y042417D01*
Y04236D01*
X038265Y042317D01*
X038289Y042281D01*
X038326Y042256D01*
X038368Y042248D01*
X040744D01*
X040744Y042248D01*
X040787Y042256D01*
X040823Y042281D01*
X041149Y042607D01*
X041546D01*
Y043593D01*
X040954D01*
Y042729D01*
X040697Y042472D01*
X040604D01*
X040599Y042477D01*
X040574Y042532D01*
X040585Y042548D01*
X040593Y042591D01*
X040643Y042616D01*
X04065Y042617D01*
X040709Y042657D01*
X040748Y042716D01*
X040762Y042785D01*
Y043415D01*
X040748Y043484D01*
X040709Y043543D01*
X04065Y043583D01*
X040581Y043597D01*
D02*
G37*
G36*
X027185Y043859D02*
X027018D01*
Y043692D01*
X027185D01*
Y043859D01*
D02*
G37*
G36*
X027453D02*
X027285D01*
Y043692D01*
X027453D01*
Y043859D01*
D02*
G37*
G36*
X0278Y043707D02*
X027756Y043701D01*
X027668Y043664D01*
X027593Y043607D01*
X027536Y043532D01*
X027499Y043444D01*
X027493Y0434D01*
X0278D01*
Y043707D01*
D02*
G37*
G36*
X0279D02*
Y0434D01*
X028207D01*
X028201Y043444D01*
X028164Y043532D01*
X028107Y043607D01*
X028032Y043664D01*
X027944Y043701D01*
X0279Y043707D01*
D02*
G37*
G36*
X033938Y038284D02*
X033732D01*
Y038097D01*
X033938D01*
Y038284D01*
D02*
G37*
G36*
X027103Y038712D02*
X026867D01*
Y038426D01*
X027103D01*
Y038712D01*
D02*
G37*
G36*
X031153Y038177D02*
X030985D01*
Y038009D01*
X031153D01*
Y038177D01*
D02*
G37*
G36*
X033631Y038284D02*
X033425D01*
Y038097D01*
X033631D01*
Y038284D01*
D02*
G37*
G36*
X04316Y03986D02*
X04244D01*
Y039284D01*
X041713Y038557D01*
X040071D01*
Y038682D01*
X039616D01*
Y038562D01*
X03909D01*
X039072Y038588D01*
X039013Y038628D01*
X038944Y038642D01*
X038874Y038628D01*
X038815Y038588D01*
X038776Y03853D01*
X038762Y03846D01*
X038776Y038391D01*
X038815Y038332D01*
X038874Y038292D01*
X038944Y038278D01*
X039013Y038292D01*
X039072Y038332D01*
X03909Y038358D01*
X039616D01*
Y038228D01*
X040071D01*
Y038353D01*
X041755D01*
X041794Y038361D01*
X041827Y038383D01*
X042584Y03914D01*
X04316D01*
Y03986D01*
D02*
G37*
G36*
X035078Y039729D02*
X034659D01*
Y03894D01*
X034767D01*
Y038868D01*
X034774Y038829D01*
X034796Y038796D01*
X034854Y038738D01*
Y038428D01*
X035309D01*
Y038882D01*
X035085D01*
X035078Y03894D01*
X035078D01*
Y039729D01*
D02*
G37*
G36*
X035868Y039733D02*
X035787Y039717D01*
X035717Y039671D01*
X035671Y039601D01*
X035655Y039519D01*
Y039149D01*
X035671Y039068D01*
X035717Y038998D01*
X035735Y038987D01*
X03574Y038927D01*
X035699Y038882D01*
X035404D01*
Y038428D01*
X035859D01*
Y038738D01*
X035941Y03882D01*
X035963Y038853D01*
X03597Y038892D01*
Y038965D01*
X03602Y038998D01*
X036066Y039068D01*
X036082Y039149D01*
Y039519D01*
X036066Y039601D01*
X03602Y039671D01*
X03595Y039717D01*
X035868Y039733D01*
D02*
G37*
G36*
X030885Y038177D02*
X030718D01*
Y038009D01*
X030885D01*
Y038177D01*
D02*
G37*
G36*
X035944Y036198D02*
X035928Y036194D01*
X035872Y036157D01*
X035835Y036102D01*
X035822Y036036D01*
Y03581D01*
X035944D01*
Y036198D01*
D02*
G37*
G36*
X030549Y036187D02*
X030371D01*
Y03601D01*
X030549D01*
Y036187D01*
D02*
G37*
G36*
Y03591D02*
X030371D01*
Y035733D01*
X030549D01*
Y03591D01*
D02*
G37*
G36*
X030826D02*
X030649D01*
Y035733D01*
X030826D01*
Y03591D01*
D02*
G37*
G36*
X031153Y037909D02*
X030985D01*
Y037742D01*
X031153D01*
Y037909D01*
D02*
G37*
G36*
X038368Y039733D02*
X038287Y039717D01*
X038217Y039671D01*
X038171Y039601D01*
X038155Y039519D01*
Y039149D01*
X038171Y039068D01*
X038217Y038998D01*
X038256Y038972D01*
Y038848D01*
X038242Y038834D01*
X037946D01*
Y03838D01*
X038006D01*
Y038289D01*
X037891D01*
Y037903D01*
X037849Y037881D01*
X037796Y037916D01*
Y038289D01*
X037681D01*
Y03838D01*
X037791D01*
Y038834D01*
X037495D01*
X037481Y038848D01*
Y038972D01*
X03752Y038998D01*
X037566Y039068D01*
X037582Y039149D01*
Y039519D01*
X037566Y039601D01*
X03752Y039671D01*
X03745Y039717D01*
X037369Y039733D01*
X037287Y039717D01*
X037217Y039671D01*
X037171Y039601D01*
X037155Y039519D01*
Y039149D01*
X037171Y039068D01*
X037217Y038998D01*
X037256Y038972D01*
Y038802D01*
X037256Y038802D01*
X037265Y038759D01*
X037289Y038722D01*
X037336Y038676D01*
Y03838D01*
X037456D01*
Y038289D01*
X037341D01*
Y037835D01*
X037722D01*
X037747Y037775D01*
X037652Y037679D01*
X037341D01*
Y037369D01*
X036935Y036962D01*
X029394D01*
X029355Y036954D01*
X029322Y036932D01*
X02877Y036381D01*
X028698D01*
X028665Y03644D01*
X028675Y036486D01*
X028665Y036533D01*
X028639Y036572D01*
Y036597D01*
X028665Y036637D01*
X028675Y036683D01*
X028665Y03673D01*
X028639Y036769D01*
Y036794D01*
X028665Y036834D01*
X028675Y03688D01*
X028665Y036927D01*
X028639Y036966D01*
Y036991D01*
X028665Y03703D01*
X028675Y037077D01*
X028669Y037107D01*
X028707Y037153D01*
X028757Y037152D01*
X028825Y037085D01*
X028858Y037063D01*
X028897Y037055D01*
X035373D01*
X035412Y037063D01*
X035446Y037085D01*
X035583Y037223D01*
X035894D01*
Y037677D01*
X035733D01*
Y037818D01*
X035859D01*
Y038272D01*
X035404D01*
Y037818D01*
X03553D01*
Y037677D01*
X035439D01*
Y037367D01*
X035344Y037271D01*
X035284Y037289D01*
Y037677D01*
X035183D01*
Y037818D01*
X035309D01*
Y038272D01*
X034854D01*
Y037818D01*
X03498D01*
Y037677D01*
X034829D01*
Y037442D01*
X02901D01*
X02891Y037543D01*
X028877Y037565D01*
X028838Y037573D01*
X028615D01*
X0286Y037583D01*
X028553Y037592D01*
X02814D01*
X028093Y037583D01*
X028054Y037556D01*
X028028Y037517D01*
X028018Y037471D01*
X028028Y037424D01*
X028054Y037385D01*
Y03736D01*
X028028Y03732D01*
X028018Y037274D01*
X028023Y037252D01*
X027984Y037192D01*
X027923D01*
X027912Y037208D01*
X027853Y037248D01*
X027784Y037262D01*
X027714Y037248D01*
X027655Y037208D01*
X027616Y03715D01*
X027602Y03708D01*
X027603Y037075D01*
X027552Y037025D01*
X02752Y037032D01*
X02745Y037018D01*
X027392Y036978D01*
X027352Y03692D01*
X027338Y03685D01*
X027352Y036781D01*
X027392Y036722D01*
X02745Y036682D01*
X02752Y036668D01*
X027552Y036675D01*
X027603Y036625D01*
X027602Y03662D01*
X027613Y036564D01*
X027609Y036557D01*
X027548Y036535D01*
X027511Y03656D01*
X027442Y036573D01*
X027372Y03656D01*
X027313Y03652D01*
X027274Y036461D01*
X02726Y036392D01*
X027274Y036322D01*
X027313Y036263D01*
X027372Y036224D01*
X027442Y03621D01*
X027511Y036224D01*
X02757Y036263D01*
X027581Y03628D01*
X027878D01*
X027878Y03628D01*
X027921Y036288D01*
X027957Y036313D01*
X027963Y036318D01*
X028018Y03629D01*
X028028Y036243D01*
X028054Y036204D01*
Y036179D01*
X028028Y036139D01*
X028018Y036093D01*
X028028Y036046D01*
X028054Y036007D01*
Y035982D01*
X028028Y035942D01*
X028018Y035896D01*
X02802Y035887D01*
X027976Y035827D01*
X027671D01*
X027619Y035879D01*
X027625Y03591D01*
X027611Y035979D01*
X027572Y036038D01*
X027513Y036078D01*
X027444Y036092D01*
X027374Y036078D01*
X027315Y036038D01*
X027276Y035979D01*
X027262Y03591D01*
X027276Y03584D01*
X027315Y035782D01*
X027374Y035742D01*
X027444Y035728D01*
X027475Y035735D01*
X027557Y035653D01*
X02759Y035631D01*
X027629Y035623D01*
X027665D01*
X027698Y035563D01*
X027687Y035507D01*
X027701Y035437D01*
X02774Y035378D01*
X027799Y035339D01*
X027868Y035325D01*
X027938Y035339D01*
X027968Y035359D01*
X028022Y035323D01*
X028018Y035305D01*
X028028Y035259D01*
X028054Y035219D01*
Y035194D01*
X028028Y035155D01*
X028018Y035108D01*
X027969Y035057D01*
X02795Y035055D01*
X027908Y035082D01*
X027839Y035096D01*
X027769Y035082D01*
X027711Y035043D01*
X027671Y034984D01*
X027657Y034915D01*
X027671Y034845D01*
X027711Y034786D01*
X027769Y034747D01*
X027839Y034733D01*
X027908Y034747D01*
X027949Y034774D01*
X027973Y03477D01*
X028018Y034715D01*
X028028Y034668D01*
X028054Y034629D01*
Y034604D01*
X028028Y034564D01*
X028018Y034518D01*
X028028Y034471D01*
X028054Y034432D01*
Y034407D01*
X028028Y034367D01*
X028018Y034321D01*
X028028Y034275D01*
X028054Y034235D01*
Y03421D01*
X02803Y034174D01*
X028346D01*
X028676D01*
X028689Y0342D01*
X028705Y034219D01*
X036103D01*
X036142Y034227D01*
X036175Y034249D01*
X036566Y03464D01*
X036588Y034673D01*
X036596Y034712D01*
Y035098D01*
X037699D01*
Y034973D01*
X038154D01*
Y035427D01*
X037699D01*
Y035302D01*
X037131D01*
X037113Y035362D01*
X037115Y035363D01*
X037152Y035419D01*
X037165Y035485D01*
Y036036D01*
X037152Y036102D01*
X037121Y036148D01*
X037132Y036184D01*
X037147Y036208D01*
X037779D01*
X037824Y036163D01*
Y035977D01*
X037699D01*
Y035523D01*
X038154D01*
Y035977D01*
X038028D01*
Y036205D01*
X038021Y036244D01*
X037998Y036277D01*
X037894Y036382D01*
X037861Y036404D01*
X037822Y036412D01*
X036342D01*
X036302Y036404D01*
X036269Y036382D01*
X036172Y036284D01*
X036149Y036251D01*
X036142Y036212D01*
Y036212D01*
X036082Y03618D01*
X036059Y036194D01*
X036044Y036198D01*
Y03576D01*
Y035323D01*
X036059Y035326D01*
X036082Y035341D01*
X036142Y035309D01*
Y034904D01*
X035827Y03459D01*
X030821D01*
Y034982D01*
X030511D01*
X030415Y035078D01*
X03044Y035138D01*
X030821D01*
Y035253D01*
X030901D01*
X030915Y035232D01*
X030974Y035192D01*
X031044Y035178D01*
X031113Y035192D01*
X031172Y035232D01*
X031211Y035291D01*
X031225Y03536D01*
X031211Y035429D01*
X031172Y035488D01*
X031151Y035503D01*
Y035608D01*
X031191Y035648D01*
X031322D01*
Y035485D01*
X031335Y035419D01*
X031372Y035363D01*
X031428Y035326D01*
X031494Y035313D01*
X031559Y035326D01*
X031615Y035363D01*
X031652Y035419D01*
X031665Y035485D01*
Y036036D01*
X031652Y036102D01*
X031615Y036157D01*
X031559Y036194D01*
X031494Y036208D01*
X031428Y036194D01*
X031372Y036157D01*
X031335Y036102D01*
X031322Y036036D01*
Y035873D01*
X031144D01*
X031144Y035873D01*
X031101Y035864D01*
X031065Y03584D01*
X031065Y03584D01*
X030959Y035734D01*
X030935Y035698D01*
X030926Y035655D01*
X030926Y035655D01*
Y035496D01*
X030915Y035488D01*
X030908Y035477D01*
X030821D01*
Y035592D01*
X030366D01*
Y035467D01*
X029621D01*
Y035582D01*
X029166D01*
Y035422D01*
X029083D01*
X029072Y035438D01*
X029013Y035478D01*
X028944Y035492D01*
X028874Y035478D01*
X028815Y035438D01*
X028801Y035417D01*
X028706D01*
X02867Y035477D01*
X028675Y035502D01*
X028665Y035549D01*
X028639Y035588D01*
Y035613D01*
X028665Y035653D01*
X028675Y035699D01*
X02867Y035724D01*
X028706Y035784D01*
X029166D01*
Y035738D01*
X029621D01*
Y035848D01*
X029761D01*
Y035733D01*
X030216D01*
Y036187D01*
X029761D01*
Y036072D01*
X029621D01*
Y036192D01*
X029166D01*
Y036008D01*
X028971D01*
X028946Y036068D01*
X029496Y036618D01*
X037387D01*
X037426Y036626D01*
X037459Y036648D01*
X038035Y037224D01*
X038346D01*
Y03735D01*
X041806D01*
X042482Y036674D01*
X042449Y036594D01*
X042437Y0365D01*
X042449Y036406D01*
X042486Y036318D01*
X042543Y036243D01*
X042618Y036186D01*
X042706Y036149D01*
X0428Y036137D01*
X042894Y036149D01*
X042982Y036186D01*
X043057Y036243D01*
X043114Y036318D01*
X043151Y036406D01*
X043163Y0365D01*
X043151Y036594D01*
X043114Y036682D01*
X043057Y036757D01*
X042982Y036814D01*
X042894Y036851D01*
X0428Y036863D01*
X042706Y036851D01*
X042626Y036818D01*
X04192Y037524D01*
X041887Y037546D01*
X041848Y037554D01*
X038346D01*
Y037658D01*
X042422D01*
X042455Y037608D01*
X042449Y037594D01*
X042437Y0375D01*
X042449Y037406D01*
X042486Y037318D01*
X042543Y037243D01*
X042618Y037186D01*
X042706Y037149D01*
X0428Y037137D01*
X042894Y037149D01*
X042982Y037186D01*
X043057Y037243D01*
X043114Y037318D01*
X043151Y037406D01*
X043163Y0375D01*
X043151Y037594D01*
X043114Y037682D01*
X043057Y037757D01*
X042982Y037814D01*
X042894Y037851D01*
X0428Y037863D01*
X042706Y037851D01*
X042626Y037818D01*
X042612Y037832D01*
X042579Y037854D01*
X04254Y037862D01*
X042368D01*
X042361Y037882D01*
X042358Y037922D01*
X042382Y037938D01*
X042626Y038182D01*
X042706Y038149D01*
X0428Y038137D01*
X042894Y038149D01*
X042982Y038186D01*
X043057Y038243D01*
X043114Y038318D01*
X043151Y038406D01*
X043163Y0385D01*
X043151Y038594D01*
X043114Y038682D01*
X043057Y038757D01*
X042982Y038814D01*
X042894Y038851D01*
X0428Y038863D01*
X042706Y038851D01*
X042618Y038814D01*
X042543Y038757D01*
X042486Y038682D01*
X042449Y038594D01*
X042437Y0385D01*
X042449Y038406D01*
X042482Y038326D01*
X042268Y038112D01*
X03909D01*
X039072Y038138D01*
X039013Y038178D01*
X038944Y038192D01*
X038874Y038178D01*
X038815Y038138D01*
X038776Y03808D01*
X038762Y03801D01*
X038776Y03794D01*
X038788Y037922D01*
X038756Y037862D01*
X038346D01*
Y038289D01*
X038231D01*
Y03838D01*
X038401D01*
Y038676D01*
X038448Y038722D01*
X038448Y038722D01*
X038472Y038759D01*
X038481Y038802D01*
X038481Y038802D01*
Y038972D01*
X03852Y038998D01*
X038566Y039068D01*
X038582Y039149D01*
Y039519D01*
X038566Y039601D01*
X03852Y039671D01*
X03845Y039717D01*
X038368Y039733D01*
D02*
G37*
G36*
X030826Y036187D02*
X030649D01*
Y03601D01*
X030826D01*
Y036187D01*
D02*
G37*
G36*
X030885Y037909D02*
X030718D01*
Y037742D01*
X030885D01*
Y037909D01*
D02*
G37*
G36*
X035374Y040092D02*
X035304Y040078D01*
X035245Y040038D01*
X035206Y03998D01*
X035192Y03991D01*
X035206Y039841D01*
X035245Y039782D01*
X035256Y039774D01*
Y039697D01*
X035217Y039671D01*
X035171Y039601D01*
X035155Y039519D01*
Y039149D01*
X035171Y039068D01*
X035217Y038998D01*
X035287Y038952D01*
X035368Y038936D01*
X03545Y038952D01*
X03552Y038998D01*
X035566Y039068D01*
X035582Y039149D01*
Y039519D01*
X035566Y039601D01*
X03552Y039671D01*
X035481Y039697D01*
Y039767D01*
X035502Y039782D01*
X035541Y039841D01*
X035555Y03991D01*
X035541Y03998D01*
X035502Y040038D01*
X035443Y040078D01*
X035374Y040092D01*
D02*
G37*
G36*
X037874D02*
X037804Y040078D01*
X037745Y040038D01*
X037706Y03998D01*
X037692Y03991D01*
X037706Y039841D01*
X037745Y039782D01*
X037756Y039774D01*
Y039697D01*
X037717Y039671D01*
X037671Y039601D01*
X037655Y039519D01*
Y039149D01*
X037671Y039068D01*
X037717Y038998D01*
X037787Y038952D01*
X037868Y038936D01*
X03795Y038952D01*
X03802Y038998D01*
X038066Y039068D01*
X038082Y039149D01*
Y039519D01*
X038066Y039601D01*
X03802Y039671D01*
X037981Y039697D01*
Y039767D01*
X038002Y039782D01*
X038041Y039841D01*
X038055Y03991D01*
X038041Y03998D01*
X038002Y040038D01*
X037943Y040078D01*
X037874Y040092D01*
D02*
G37*
G36*
X036369Y039733D02*
X036287Y039717D01*
X036217Y039671D01*
X036171Y039601D01*
X036155Y039519D01*
Y039149D01*
X036171Y039068D01*
X036217Y038998D01*
X036287Y038952D01*
X036369Y038936D01*
X03645Y038952D01*
X03652Y038998D01*
X036566Y039068D01*
X036582Y039149D01*
Y039519D01*
X036566Y039601D01*
X03652Y039671D01*
X03645Y039717D01*
X036369Y039733D01*
D02*
G37*
G36*
X036869D02*
X036787Y039717D01*
X036717Y039671D01*
X036671Y039601D01*
X036655Y039519D01*
Y039149D01*
X036671Y039068D01*
X036717Y038998D01*
X036787Y038952D01*
X036869Y038936D01*
X03695Y038952D01*
X03702Y038998D01*
X037066Y039068D01*
X037082Y039149D01*
Y039519D01*
X037066Y039601D01*
X03702Y039671D01*
X03695Y039717D01*
X036869Y039733D01*
D02*
G37*
G36*
X027682Y039372D02*
X027504D01*
Y039195D01*
X027682D01*
Y039372D01*
D02*
G37*
G36*
X040071Y039292D02*
X039616D01*
Y039177D01*
X03953D01*
X039522Y039188D01*
X039463Y039228D01*
X039394Y039242D01*
X039324Y039228D01*
X039265Y039188D01*
X039226Y03913D01*
X039212Y03906D01*
X039226Y03899D01*
X039265Y038932D01*
X039324Y038892D01*
X039394Y038878D01*
X039463Y038892D01*
X039522Y038932D01*
X039536Y038953D01*
X039616D01*
Y038838D01*
X040071D01*
Y039292D01*
D02*
G37*
G36*
X027682Y039095D02*
X027504D01*
Y038918D01*
X027682D01*
Y039095D01*
D02*
G37*
%LPD*%
G36*
X036392Y032469D02*
X036372Y032457D01*
X036335Y032401D01*
X036322Y032335D01*
Y031784D01*
X036335Y031718D01*
X036372Y031663D01*
X036374Y031662D01*
X036355Y031602D01*
X036132D01*
X036122Y031617D01*
X036115Y031663D01*
X036152Y031718D01*
X036165Y031784D01*
Y032335D01*
X036152Y032401D01*
X036115Y032457D01*
X036096Y032469D01*
Y033238D01*
X036088Y033277D01*
X036066Y03331D01*
X035807Y033569D01*
X035832Y033629D01*
X036392D01*
Y032469D01*
D02*
G37*
G36*
X029462Y033411D02*
X029465Y033372D01*
X029415Y033338D01*
X029376Y03328D01*
X029362Y03321D01*
X029376Y03314D01*
X029415Y033082D01*
X029474Y033042D01*
X029544Y033028D01*
X029613Y033042D01*
X029672Y033082D01*
X029732Y033063D01*
X029739Y033056D01*
Y032814D01*
X029748Y032767D01*
X029775Y032728D01*
X029814Y032701D01*
X029861Y032692D01*
X029979D01*
X030001Y032697D01*
X030031Y032641D01*
X029834Y032444D01*
X029812Y032411D01*
X029804Y032372D01*
Y032126D01*
X029742D01*
Y031957D01*
X029521D01*
Y032082D01*
X02914D01*
X029115Y032142D01*
X029211Y032238D01*
X029521D01*
Y032692D01*
X029396D01*
Y03296D01*
X029388Y032999D01*
X029366Y033032D01*
X029026Y033372D01*
X029051Y033432D01*
X029455D01*
X029462Y033411D01*
D02*
G37*
G36*
X030366Y034838D02*
Y03459D01*
X028934D01*
X028931Y034596D01*
X028924Y03465D01*
X028972Y034682D01*
X029011Y034741D01*
X029025Y03481D01*
X029011Y03488D01*
X028999Y034898D01*
X029031Y034958D01*
X030246D01*
X030366Y034838D01*
D02*
G37*
%LPC*%
G36*
X033288Y040309D02*
X033071D01*
Y040181D01*
X033288D01*
Y040309D01*
D02*
G37*
G36*
Y040081D02*
X033071D01*
Y039953D01*
X033288D01*
Y040081D01*
D02*
G37*
G36*
X033631Y039103D02*
X033425D01*
Y038916D01*
X033631D01*
Y039103D01*
D02*
G37*
G36*
X033938D02*
X033732D01*
Y038916D01*
X033938D01*
Y039103D01*
D02*
G37*
G36*
X028781Y039421D02*
X028575D01*
Y039234D01*
X028781D01*
Y039421D01*
D02*
G37*
G36*
X029088D02*
X028881D01*
Y039234D01*
X029088D01*
Y039421D01*
D02*
G37*
G36*
X028509Y039372D02*
X028331D01*
Y039195D01*
X028509D01*
Y039372D01*
D02*
G37*
G36*
X032066Y039333D02*
X031849D01*
Y039205D01*
X032066D01*
Y039333D01*
D02*
G37*
G36*
X029581Y039207D02*
X029538Y039201D01*
X02945Y039164D01*
X029375Y039107D01*
X029317Y039032D01*
X029281Y038944D01*
X029275Y0389D01*
X029581D01*
Y039207D01*
D02*
G37*
G36*
X030709Y039105D02*
X030531D01*
Y038928D01*
X030709D01*
Y039105D01*
D02*
G37*
G36*
X030431D02*
X030254D01*
Y038928D01*
X030431D01*
Y039105D01*
D02*
G37*
G36*
X029088Y039134D02*
X028881D01*
Y038947D01*
X029088D01*
Y039134D01*
D02*
G37*
G36*
X028781D02*
X028575D01*
Y038947D01*
X028781D01*
Y039134D01*
D02*
G37*
G36*
X031966Y039107D02*
X031779D01*
Y0389D01*
X031966D01*
Y039107D01*
D02*
G37*
G36*
X029681Y039207D02*
Y0389D01*
X029988D01*
X029982Y038944D01*
X029946Y039032D01*
X029888Y039107D01*
X029813Y039164D01*
X029725Y039201D01*
X029681Y039207D01*
D02*
G37*
G36*
X028509Y039095D02*
X028331D01*
Y038918D01*
X028509D01*
Y039095D01*
D02*
G37*
%LPD*%
D10*
X02992Y032951D02*
D03*
X030668D02*
D03*
Y031869D02*
D03*
X030294D02*
D03*
D11*
X02992D02*
D03*
D12*
X034869Y039334D02*
D03*
D13*
X035368D02*
D03*
X035868D02*
D03*
X036369D02*
D03*
X036869D02*
D03*
X037369D02*
D03*
X037868D02*
D03*
X038368D02*
D03*
X034869Y042779D02*
D03*
X035368D02*
D03*
X035868D02*
D03*
X036369D02*
D03*
X036869D02*
D03*
X037369D02*
D03*
X037868D02*
D03*
X038368D02*
D03*
D14*
X026444Y03196D02*
D03*
D15*
X038174Y038607D02*
D03*
X037563D02*
D03*
X035667Y03745D02*
D03*
X035056D02*
D03*
X030599Y03596D02*
D03*
X029989D02*
D03*
X023439Y04621D02*
D03*
X024049D02*
D03*
X020213Y032507D02*
D03*
X020824D02*
D03*
Y033057D02*
D03*
X020213D02*
D03*
Y033607D02*
D03*
X020824D02*
D03*
Y034157D02*
D03*
X020213D02*
D03*
Y034707D02*
D03*
X020824D02*
D03*
X020213Y035807D02*
D03*
X020824D02*
D03*
Y035257D02*
D03*
X020213D02*
D03*
X020824Y036357D02*
D03*
X020213D02*
D03*
X020824Y045207D02*
D03*
X020213D02*
D03*
X020824Y044107D02*
D03*
X020213D02*
D03*
X020824Y043007D02*
D03*
X020213D02*
D03*
X020824Y041907D02*
D03*
X020213D02*
D03*
X020824Y040807D02*
D03*
X020213D02*
D03*
Y040257D02*
D03*
X020824D02*
D03*
X020213Y041357D02*
D03*
X020824D02*
D03*
X020213Y042457D02*
D03*
X020824D02*
D03*
X020213Y043557D02*
D03*
X020824D02*
D03*
X020213Y045757D02*
D03*
X020824D02*
D03*
X020213Y044657D02*
D03*
X020824D02*
D03*
Y031957D02*
D03*
X020213D02*
D03*
Y031407D02*
D03*
X020824D02*
D03*
Y030857D02*
D03*
X020213D02*
D03*
Y030307D02*
D03*
X020824D02*
D03*
Y029757D02*
D03*
X020213D02*
D03*
X016426Y0462D02*
D03*
X017037D02*
D03*
X016426Y043729D02*
D03*
X017037D02*
D03*
X016426Y042908D02*
D03*
X017037D02*
D03*
X016426Y042087D02*
D03*
X017037D02*
D03*
X016426Y041267D02*
D03*
X017037D02*
D03*
X016426Y040446D02*
D03*
X017037D02*
D03*
X016426Y0346D02*
D03*
X017037D02*
D03*
X025615Y04276D02*
D03*
X026225D02*
D03*
X027847Y04495D02*
D03*
X027236D02*
D03*
X020213Y0292D02*
D03*
X020824D02*
D03*
X016426Y033829D02*
D03*
X017037D02*
D03*
X016426Y033058D02*
D03*
X017037D02*
D03*
X016426Y032287D02*
D03*
X017037D02*
D03*
X016426Y031517D02*
D03*
X017037D02*
D03*
X016426Y030746D02*
D03*
X017037D02*
D03*
X016426Y029975D02*
D03*
X017037D02*
D03*
X037926Y03575D02*
D03*
X038537D02*
D03*
X037926Y0352D02*
D03*
X038537D02*
D03*
X037926Y03465D02*
D03*
X038537D02*
D03*
X037926Y0341D02*
D03*
X038537D02*
D03*
D16*
X038119Y038062D02*
D03*
Y037452D02*
D03*
X037569Y038062D02*
D03*
Y037452D02*
D03*
X035082Y038655D02*
D03*
Y038045D02*
D03*
X035631Y038655D02*
D03*
Y038045D02*
D03*
X039844Y038455D02*
D03*
Y039065D02*
D03*
X029394Y035355D02*
D03*
Y035965D02*
D03*
X030594Y034755D02*
D03*
Y035365D02*
D03*
X029294Y032465D02*
D03*
Y031855D02*
D03*
X0405Y031845D02*
D03*
Y032455D02*
D03*
X03995Y031845D02*
D03*
Y032455D02*
D03*
X0394D02*
D03*
Y031845D02*
D03*
X03885Y032455D02*
D03*
Y031845D02*
D03*
X0383Y032455D02*
D03*
Y031845D02*
D03*
X03775Y032455D02*
D03*
Y031845D02*
D03*
X026681Y044345D02*
D03*
Y044955D02*
D03*
X025619Y038802D02*
D03*
Y039412D02*
D03*
X030482Y038545D02*
D03*
Y039155D02*
D03*
X027731Y039145D02*
D03*
Y039755D02*
D03*
X0267Y040625D02*
D03*
Y040015D02*
D03*
X028282Y039755D02*
D03*
Y039145D02*
D03*
D17*
X031494Y03206D02*
D03*
D18*
X031994D02*
D03*
X032494D02*
D03*
X032994D02*
D03*
X033494D02*
D03*
X033994D02*
D03*
X034494D02*
D03*
X034994D02*
D03*
X035494D02*
D03*
X035994D02*
D03*
X036494D02*
D03*
X036994D02*
D03*
X031494Y03576D02*
D03*
X031994D02*
D03*
X032494D02*
D03*
X032994D02*
D03*
X033494D02*
D03*
X033994D02*
D03*
X034494D02*
D03*
X034994D02*
D03*
X035494D02*
D03*
X035994D02*
D03*
X036494D02*
D03*
X036994D02*
D03*
D19*
X028659Y03186D02*
D03*
X028128D02*
D03*
X032547Y03885D02*
D03*
X032016D02*
D03*
D20*
X03478Y028356D02*
D03*
X043126D02*
D03*
X025331D02*
D03*
X033677D02*
D03*
D21*
X036197Y030553D02*
D03*
X026748D02*
D03*
X03275Y0431D02*
D03*
X04125D02*
D03*
D22*
X036984Y030553D02*
D03*
X037772D02*
D03*
X038559D02*
D03*
X039346D02*
D03*
X040134D02*
D03*
X040921D02*
D03*
X041709D02*
D03*
X027535D02*
D03*
X028323D02*
D03*
X02911D02*
D03*
X029898D02*
D03*
X030685D02*
D03*
X031472D02*
D03*
X03226D02*
D03*
X031963Y0431D02*
D03*
X040463D02*
D03*
D23*
X030419Y03983D02*
D03*
Y041484D02*
D03*
D24*
X02736Y041927D02*
D03*
X026277D02*
D03*
D25*
X021769Y033873D02*
D03*
Y033341D02*
D03*
Y032773D02*
D03*
Y032241D02*
D03*
Y034973D02*
D03*
Y034441D02*
D03*
Y036073D02*
D03*
Y035541D02*
D03*
Y040523D02*
D03*
Y039991D02*
D03*
Y041623D02*
D03*
Y041091D02*
D03*
Y044923D02*
D03*
Y044391D02*
D03*
Y042723D02*
D03*
Y042191D02*
D03*
Y043823D02*
D03*
Y043291D02*
D03*
Y029473D02*
D03*
Y028941D02*
D03*
Y030573D02*
D03*
Y030041D02*
D03*
Y031673D02*
D03*
Y031141D02*
D03*
X033681Y038334D02*
D03*
Y038866D02*
D03*
X028832Y039716D02*
D03*
Y039184D02*
D03*
D26*
X025591Y037471D02*
D03*
D27*
Y037274D02*
D03*
Y037077D02*
D03*
Y03688D02*
D03*
Y036683D02*
D03*
Y036486D02*
D03*
Y03629D02*
D03*
Y036093D02*
D03*
Y035896D02*
D03*
Y035699D02*
D03*
Y035502D02*
D03*
Y035305D02*
D03*
Y035108D02*
D03*
Y034912D02*
D03*
Y034715D02*
D03*
Y034518D02*
D03*
Y034321D02*
D03*
Y034124D02*
D03*
Y033927D02*
D03*
Y03373D02*
D03*
Y033534D02*
D03*
Y033337D02*
D03*
Y03314D02*
D03*
Y032943D02*
D03*
X028346Y037471D02*
D03*
Y037274D02*
D03*
Y037077D02*
D03*
Y03688D02*
D03*
Y036683D02*
D03*
Y036486D02*
D03*
Y03629D02*
D03*
Y036093D02*
D03*
Y035896D02*
D03*
Y035699D02*
D03*
Y035502D02*
D03*
Y035305D02*
D03*
Y035108D02*
D03*
Y034912D02*
D03*
Y034715D02*
D03*
Y034518D02*
D03*
Y034321D02*
D03*
Y034124D02*
D03*
Y033927D02*
D03*
Y03373D02*
D03*
Y033534D02*
D03*
Y033337D02*
D03*
Y03314D02*
D03*
Y032943D02*
D03*
D28*
X012567Y045916D02*
D03*
Y037569D02*
D03*
Y036124D02*
D03*
Y027778D02*
D03*
D29*
X014764Y044498D02*
D03*
Y034707D02*
D03*
D30*
Y043711D02*
D03*
Y042923D02*
D03*
Y042136D02*
D03*
Y041349D02*
D03*
Y040561D02*
D03*
Y039774D02*
D03*
Y038986D02*
D03*
Y033919D02*
D03*
Y033132D02*
D03*
Y032345D02*
D03*
Y031557D02*
D03*
Y03077D02*
D03*
Y029982D02*
D03*
Y029195D02*
D03*
D31*
X018543Y040308D02*
D03*
Y041295D02*
D03*
Y042283D02*
D03*
X018543Y043232D02*
D03*
Y044219D02*
D03*
Y045207D02*
D03*
X018569Y03439D02*
D03*
Y035374D02*
D03*
Y033407D02*
D03*
Y032423D02*
D03*
Y03144D02*
D03*
Y030474D02*
D03*
D32*
X018189Y040111D02*
D03*
Y040505D02*
D03*
Y041099D02*
D03*
Y041492D02*
D03*
Y042086D02*
D03*
Y04248D02*
D03*
X018189Y043035D02*
D03*
Y043429D02*
D03*
Y044023D02*
D03*
Y044416D02*
D03*
Y04501D02*
D03*
Y045404D02*
D03*
X018214Y034587D02*
D03*
Y034193D02*
D03*
Y035571D02*
D03*
Y035177D02*
D03*
Y033604D02*
D03*
Y03321D02*
D03*
Y03262D02*
D03*
Y032227D02*
D03*
Y031637D02*
D03*
Y031243D02*
D03*
Y030671D02*
D03*
Y030277D02*
D03*
D33*
X018839Y040308D02*
D03*
Y041295D02*
D03*
Y042283D02*
D03*
X018839Y043232D02*
D03*
Y044219D02*
D03*
Y045207D02*
D03*
X018864Y03439D02*
D03*
Y035374D02*
D03*
Y033407D02*
D03*
Y032423D02*
D03*
Y03144D02*
D03*
Y030474D02*
D03*
D34*
X026817Y038762D02*
D03*
X026128D02*
D03*
X026817Y039412D02*
D03*
X026128D02*
D03*
D35*
X033021Y040131D02*
D03*
Y039383D02*
D03*
X032116D02*
D03*
Y039757D02*
D03*
Y040131D02*
D03*
D36*
X027207Y041134D02*
D03*
Y040937D02*
D03*
Y04074D02*
D03*
Y040543D02*
D03*
Y040346D02*
D03*
X028893Y041134D02*
D03*
Y040937D02*
D03*
Y04074D02*
D03*
Y040543D02*
D03*
Y040346D02*
D03*
D37*
X026185Y044049D02*
D03*
Y04464D02*
D03*
X027235Y043909D02*
D03*
Y0445D02*
D03*
X030935Y037959D02*
D03*
Y03855D02*
D03*
D38*
X034167Y045297D02*
D03*
X030545D02*
D03*
X042667D02*
D03*
X039045D02*
D03*
D39*
X028906Y040727D02*
X031827D01*
X028808Y04053D02*
X03243D01*
X02736Y041927D02*
X027584Y041703D01*
X02736Y041927D02*
Y042576D01*
X039399Y039065D02*
X039844D01*
X040494Y032465D02*
Y03296D01*
X039944Y032465D02*
Y03296D01*
X039394Y032465D02*
Y03296D01*
X038844Y032465D02*
Y03296D01*
X038294Y032465D02*
Y03296D01*
X037744Y032465D02*
Y03296D01*
X0357Y030553D02*
X036197D01*
X031144Y03576D02*
X031494D01*
X029394Y035355D02*
X030594D01*
X031039Y035655D02*
X031144Y03576D01*
X031039Y035365D02*
Y035655D01*
X030594Y035365D02*
X031039D01*
X029744Y03321D02*
X02992Y033034D01*
X029544Y03321D02*
X029744D01*
X026748Y030553D02*
Y031206D01*
X030294Y031869D02*
Y03241D01*
X037744Y04331D02*
X03839D01*
X037445Y043012D02*
X037744Y04331D01*
X037445Y042862D02*
Y043012D01*
X037369Y042785D02*
X037445Y042862D01*
X035868Y042785D02*
X035968Y042885D01*
X035544Y04331D02*
X035968Y042885D01*
X034847Y04331D02*
X035544D01*
X028944Y03531D02*
X029349D01*
X029399Y03596D02*
X029989D01*
X028346Y035896D02*
X029324D01*
X030599Y03596D02*
Y036455D01*
X037369Y042579D02*
Y042785D01*
X035868Y042579D02*
Y042785D01*
X031981Y042623D02*
Y043307D01*
X028346Y035305D02*
X028839D01*
X027873Y035502D02*
X028346D01*
X027784Y03708D02*
X028343D01*
X028346Y037077D01*
X027973Y036486D02*
X028346D01*
X027878Y036392D02*
X027973Y036486D01*
X027442Y036392D02*
X027878D01*
X037868Y039334D02*
Y039905D01*
X035368Y039334D02*
Y039905D01*
X026718Y039423D02*
Y040002D01*
X032116Y039757D02*
X032569D01*
X025619Y037499D02*
Y038802D01*
X026124D01*
X025619Y039412D02*
X026124D01*
X026277Y041448D02*
X026592Y041134D01*
X026277Y041448D02*
Y041927D01*
X038174Y038607D02*
X038368Y038802D01*
Y039334D01*
X037369Y038802D02*
X037563Y038607D01*
X037369Y038802D02*
Y039334D01*
X038119Y038062D02*
Y038552D01*
X037569Y038062D02*
Y038602D01*
X028346Y03629D02*
X028357Y036279D01*
X026418Y032757D02*
X028668D01*
X022024Y028362D02*
X026418Y032757D01*
X021769Y028362D02*
X022024D01*
X022269Y029207D02*
X022518D01*
X026255Y032943D01*
X028346D01*
Y03314D02*
X028685D01*
X028768Y033057D01*
Y032857D02*
Y033057D01*
X028668Y032757D02*
X028768Y032857D01*
X028346Y03688D02*
X028348Y036879D01*
X022968Y035907D02*
Y039057D01*
X022868Y039157D02*
X022968Y039057D01*
X022269Y039157D02*
X022868D01*
X022968Y035907D02*
X023767Y035108D01*
X025591D01*
X021769Y034973D02*
X02183Y034912D01*
X022269Y034607D02*
X022376Y034715D01*
X02288Y034518D02*
X025591D01*
X022234Y033873D02*
X02288Y034518D01*
X021769Y033873D02*
X022234D01*
X02387Y035305D02*
X025591D01*
X023168Y036007D02*
X02387Y035305D01*
X023973Y035502D02*
X025591D01*
X023368Y036107D02*
X023973Y035502D01*
X024076Y035699D02*
X025591D01*
X023568Y036207D02*
X024076Y035699D01*
X02423Y035896D02*
X025591D01*
X023768Y036357D02*
X02423Y035896D01*
X024383Y036093D02*
X025591D01*
X023969Y036507D02*
X024383Y036093D01*
X024536Y03629D02*
X025591D01*
X024169Y036657D02*
X024536Y03629D01*
X024689Y036486D02*
X025591D01*
X024369Y036807D02*
X024689Y036486D01*
X024842Y036683D02*
X025591D01*
X024569Y036957D02*
X024842Y036683D01*
X024995Y03688D02*
X025591D01*
X024769Y037107D02*
X024995Y03688D01*
X025098Y037077D02*
X025591D01*
X024969Y037207D02*
X025098Y037077D01*
X025252Y037274D02*
X025591D01*
X025168Y037357D02*
X025252Y037274D01*
X025168Y037357D02*
Y044207D01*
X02183Y034912D02*
X025591D01*
X022376Y034715D02*
X025591D01*
X022983Y034321D02*
X025591D01*
X023186Y034124D02*
X025591D01*
X023689Y033927D02*
X025591D01*
X023892Y03373D02*
X025591D01*
X024395Y033534D02*
X025591D01*
X024598Y033337D02*
X025591D01*
X025102Y03314D02*
X025591D01*
X025305Y032943D02*
X025591D01*
X018543Y045207D02*
X018839D01*
X018543Y044219D02*
X018839D01*
X018543Y043232D02*
X018839D01*
X018543Y042283D02*
X018839D01*
X018543Y041295D02*
X018839D01*
X018543Y040308D02*
X018839D01*
X018569Y030474D02*
X018864D01*
X018569Y03144D02*
X018864D01*
X018569Y032423D02*
X018864D01*
X018569Y033407D02*
X018864D01*
X018569Y03439D02*
X018864D01*
X018569Y035374D02*
X018864D01*
X017097Y032227D02*
X018214D01*
X017932Y031243D02*
X018214D01*
X017955Y034193D02*
X018214D01*
X018864Y035374D02*
X019352D01*
X018864Y03439D02*
X019352D01*
X018864Y033407D02*
X019368D01*
X018864Y032423D02*
X019352D01*
X018864Y03144D02*
X019352D01*
X018864Y030474D02*
X019335D01*
X014764Y03077D02*
X016426D01*
X01748Y030746D02*
X017948Y030277D01*
X018214D01*
X014764Y031557D02*
X016386D01*
X017659Y031517D02*
X017932Y031243D01*
X017188Y03321D02*
X018214D01*
X014764Y033919D02*
X016336D01*
X017591Y033829D02*
X017955Y034193D01*
X017939Y035177D02*
X018214D01*
X017362Y0346D02*
X017939Y035177D01*
X014764Y034707D02*
X01632D01*
X021769Y040523D02*
Y041091D01*
Y041623D02*
Y042191D01*
Y042723D02*
Y043291D01*
X021403Y044923D02*
X021769D01*
X021119Y045207D02*
X021403Y044923D01*
X020824Y045207D02*
X021119D01*
X021403Y040523D02*
X021769D01*
X021119Y040807D02*
X021403Y040523D01*
X020824Y040807D02*
X021119D01*
X021403Y041623D02*
X021769D01*
X021119Y041907D02*
X021403Y041623D01*
X020824Y041907D02*
X021119D01*
X021403Y042723D02*
X021769D01*
X021119Y043007D02*
X021403Y042723D01*
X020824Y043007D02*
X021119D01*
X021769Y043823D02*
Y044391D01*
X021403Y043823D02*
X021769D01*
X021119Y044107D02*
X021403Y043823D01*
X020824Y044107D02*
X021119D01*
X020824Y044657D02*
X021268D01*
X020824Y043557D02*
X021268D01*
X020824Y042457D02*
X021268D01*
X020824Y041357D02*
X021268D01*
X020824Y040257D02*
X021268D01*
X014546Y043711D02*
X014764D01*
X014554Y040561D02*
X014764D01*
X018839Y040308D02*
X01937D01*
X017562Y0437D02*
X017884Y044023D01*
X018189D01*
X014764Y040561D02*
X016311D01*
X01758Y040446D02*
X017914Y040111D01*
X018189D01*
X014764Y041349D02*
X016344D01*
X017709Y041267D02*
X017877Y041099D01*
X018189D01*
X014764Y043711D02*
X016426D01*
X018839Y045207D02*
X01937D01*
X018839Y044219D02*
X01937D01*
X018839Y043232D02*
X01937D01*
X018839Y042283D02*
X01937D01*
X018839Y041295D02*
X01937D01*
X020824Y035807D02*
X021268D01*
X020824Y034707D02*
X021268D01*
X020824Y033607D02*
X021268D01*
X020824Y032507D02*
X021268D01*
X020824Y031407D02*
X021268D01*
X020824Y030307D02*
X021268D01*
X020824Y036357D02*
X021119D01*
X021403Y036073D01*
X021769D01*
Y034973D02*
Y035541D01*
Y033873D02*
Y034441D01*
Y032773D02*
Y033341D01*
X020824Y035257D02*
X021119D01*
X021403Y034973D01*
X021769D01*
X020824Y034157D02*
X021119D01*
X021403Y033873D01*
X021769D01*
X020824Y033057D02*
X021119D01*
X021403Y032773D01*
X021769D01*
Y031673D02*
Y032241D01*
Y030573D02*
Y031141D01*
Y029473D02*
Y030041D01*
X020824Y031957D02*
X021119D01*
X021403Y031673D01*
X021769D01*
X020824Y030857D02*
X021168D01*
X021453Y030573D01*
X021769D01*
X020824Y029757D02*
X021119D01*
X021403Y029473D01*
X021769D01*
X017405Y029607D02*
X018168D01*
X018569Y029207D01*
X020213D01*
X020824D02*
X021119D01*
X021384Y028941D01*
X021769D01*
Y028362D02*
Y028941D01*
X020824Y045757D02*
X021268D01*
X022298Y044627D02*
X024448D01*
X021769Y043823D02*
X024453D01*
X022298Y043527D02*
X024348D01*
X021769Y042723D02*
X024053D01*
X021769Y044923D02*
X024453D01*
X025168Y044207D01*
X024448Y044627D02*
X024969Y044107D01*
Y037207D02*
Y044107D01*
X024453Y043823D02*
X024769Y043507D01*
Y037107D02*
Y043507D01*
X024348Y043527D02*
X024569Y043307D01*
Y036957D02*
Y043307D01*
X024053Y042723D02*
X024369Y042407D01*
Y036807D02*
Y042407D01*
X022269Y042457D02*
X024018D01*
X024169Y042307D01*
Y036657D02*
Y042307D01*
X021769Y041623D02*
X023753D01*
X023969Y041407D01*
Y036507D02*
Y041407D01*
X022269Y041357D02*
X023619D01*
X023768Y041207D01*
Y036357D02*
Y041207D01*
X021769Y040523D02*
X023353D01*
X023568Y040307D01*
Y036207D02*
Y040307D01*
X022269Y040257D02*
X023219D01*
X023368Y040107D01*
Y036107D02*
Y040107D01*
X021769Y036073D02*
Y039991D01*
X023084D01*
X023168Y039907D01*
Y036007D02*
Y039907D01*
X022269Y033607D02*
X022983Y034321D01*
X021834Y032773D02*
X023186Y034124D01*
X021769Y032773D02*
X021834D01*
X022269Y032507D02*
X023689Y033927D01*
X021834Y031673D02*
X023892Y03373D01*
X022269Y031407D02*
X024395Y033534D01*
X021769Y030573D02*
X021834D01*
X024598Y033337D01*
X022269Y030307D02*
X025102Y03314D01*
X021769Y029473D02*
X021834D01*
X025305Y032943D01*
X026815Y04074D02*
X027207D01*
X026269Y040937D02*
X027207D01*
X026592Y041134D02*
X027207D01*
X026615Y0401D02*
X0267Y040015D01*
X028893Y041134D02*
X030069D01*
X027207Y040346D02*
X027464D01*
X02682Y03828D02*
Y039321D01*
X026734Y039407D02*
X02682Y039321D01*
X028893Y040353D02*
X029593D01*
X031981Y042623D02*
X032244Y04236D01*
X034869D01*
Y042579D01*
X038368Y04236D02*
Y042579D01*
Y04236D02*
X040744D01*
X041269Y042885D01*
X034097Y04256D02*
X034847Y04331D01*
X032768Y04256D02*
Y042935D01*
Y04256D02*
X034097D01*
X03839Y04331D02*
X03914Y04256D01*
X04045D01*
X040481Y042591D01*
Y042897D01*
X027694Y03186D02*
X028128D01*
X014764Y042923D02*
X0164D01*
X014764Y042136D02*
X016362D01*
X016344Y041349D02*
X016426Y041267D01*
X017037D02*
X017709D01*
X016311Y040561D02*
X016426Y040446D01*
X017037D02*
X01758D01*
X01632Y034707D02*
X016426Y0346D01*
X017037D02*
X017362D01*
X017037Y033829D02*
X017591D01*
X016336Y033919D02*
X016426Y033829D01*
X014764Y033132D02*
X016353D01*
X017037Y033058D02*
X017188Y03321D01*
X014764Y032345D02*
X016369D01*
X017037Y032287D02*
X017097Y032227D01*
X016386Y031557D02*
X016426Y031517D01*
X017037D02*
X017659D01*
X017037Y030746D02*
X01748D01*
X017037Y029975D02*
X017405Y029607D01*
X014764Y029982D02*
X016419D01*
X014217Y039774D02*
X014764D01*
X01405Y039607D02*
X014217Y039774D01*
X013681Y04095D02*
X016532D01*
X017037Y040446D01*
X013681Y04175D02*
X016553D01*
X017037Y041267D01*
X013681Y0425D02*
X016624D01*
X017037Y042087D01*
Y042086D02*
X018189D01*
X013681Y0433D02*
X016645D01*
X017037Y042908D01*
Y043035D02*
X018189D01*
X013681Y0441D02*
X016666D01*
X017037Y043729D01*
Y0437D02*
X017562D01*
X01405Y037782D02*
Y039607D01*
Y037782D02*
X014764Y037068D01*
Y034707D02*
Y037068D01*
X013681Y0343D02*
X016737D01*
X017037Y0346D01*
X013681Y0335D02*
X016707D01*
X017037Y033829D01*
X013681Y0327D02*
X016678D01*
X017037Y033058D01*
X013681Y03195D02*
X016699D01*
X017037Y032287D01*
X013681Y03115D02*
X01667D01*
X017037Y031517D01*
X013681Y03035D02*
X016641D01*
X017037Y030746D01*
X031827Y040727D02*
X032232Y041132D01*
Y0417D01*
X03243Y04053D02*
X033131Y041231D01*
X033031Y0417D02*
X033144Y041588D01*
X033131Y041231D02*
Y0417D01*
X02632Y0401D02*
X026615D01*
X027469Y040346D02*
X027731Y040084D01*
Y039755D02*
Y040084D01*
Y039755D02*
X028282D01*
Y039145D02*
X028792D01*
X030482Y038545D02*
X030931D01*
X02623Y04462D02*
X02648Y04437D01*
X026657D01*
X026185Y04462D02*
X02623D01*
X02785Y04435D02*
Y044947D01*
X027235Y0445D02*
Y044949D01*
X032116Y03895D02*
Y039383D01*
X038537Y0341D02*
X038932D01*
X038537Y03465D02*
X038932D01*
X038537Y0352D02*
X038932D01*
X038537Y03575D02*
X038932D01*
D40*
X028996Y039184D02*
X029642Y03983D01*
X025613Y045612D02*
X026532D01*
X024074Y04621D02*
X025015D01*
X030719Y040131D02*
X032116D01*
X026224Y04198D02*
Y042757D01*
X014764Y044498D02*
Y045371D01*
X025015Y04621D02*
X025613Y045612D01*
Y039417D02*
Y045612D01*
X014764Y045371D02*
X015603Y04621D01*
X016416D01*
X017931Y0462D02*
X023429D01*
X017037D02*
X017931D01*
X028832Y039184D02*
X028996D01*
X026681Y044955D02*
Y0456D01*
D41*
X025994Y03196D02*
X026444D01*
X027444Y03591D02*
X027629Y035725D01*
X02832D01*
X028346Y035699D01*
X033494Y03511D02*
Y03576D01*
X032994Y03511D02*
Y03576D01*
X032494Y03511D02*
Y03576D01*
X031994Y03511D02*
Y03576D01*
X032994Y03151D02*
Y03206D01*
X035494Y03181D02*
Y03206D01*
X031744Y03151D02*
X031994Y03176D01*
Y03206D01*
X028346Y034488D02*
Y034518D01*
X031452Y031869D02*
X031494Y03191D01*
X030668Y031869D02*
X031452D01*
X030485Y032951D02*
X030668D01*
X029906Y032372D02*
X030485Y032951D01*
X029906Y031855D02*
Y032372D01*
X029294Y031855D02*
X029906D01*
X028659Y03186D02*
X028689D01*
X029294Y032465D01*
Y03296D01*
X028917Y033337D02*
X029294Y03296D01*
X028346Y033337D02*
X028917D01*
X028748Y034715D02*
X028844Y03481D01*
X028346Y034715D02*
X028748D01*
X027842Y034912D02*
X028346D01*
X030289Y03506D02*
X030594Y034755D01*
X028844Y03506D02*
X030289D01*
X028795Y035108D02*
X028844Y03506D01*
X028346Y035108D02*
X028795D01*
X039844Y038455D02*
X041755D01*
X038944Y03801D02*
X04231D01*
X027876Y03685D02*
X027906Y03688D01*
X038944Y03846D02*
X039839D01*
X038119Y037452D02*
X041848D01*
X037877Y03776D02*
X04254D01*
X037569Y037452D02*
X037877Y03776D01*
X028346Y037471D02*
X028838D01*
X02878Y037274D02*
X028897Y037157D01*
X028346Y037274D02*
X02878D01*
X028897Y037157D02*
X035373D01*
X037387Y03672D02*
X038119Y037452D01*
X029454Y03672D02*
X037387D01*
X028826Y036093D02*
X029454Y03672D01*
X028346Y036093D02*
X028826D01*
X029394Y03686D02*
X036977D01*
X028812Y036279D02*
X029394Y03686D01*
X028357Y036279D02*
X028812D01*
X036977Y03686D02*
X037569Y037452D01*
X027784Y03662D02*
X027847Y036683D01*
X028346D01*
X027906Y03688D02*
X028346D01*
X019888Y032833D02*
X020213Y032507D01*
X020013Y033813D02*
X020216Y033609D01*
X020003Y033991D02*
X020191Y034179D01*
X020118Y034803D02*
X020213Y034707D01*
X020168Y035257D02*
X020213D01*
X019893Y034981D02*
X020168Y035257D01*
X020213Y036357D02*
Y039412D01*
X019739Y039886D02*
X020213Y039412D01*
X018214Y030011D02*
Y030277D01*
Y035803D02*
X020213D01*
X018214Y035571D02*
Y035803D01*
Y031051D02*
Y031243D01*
Y031051D02*
X020019D01*
X018214Y032031D02*
Y032227D01*
Y032031D02*
X020213D01*
X018214Y030671D02*
Y030873D01*
X019648D01*
X018214Y031637D02*
Y031853D01*
X019723D01*
X018214Y03262D02*
Y032833D01*
X019888D01*
X018214Y033011D02*
Y033207D01*
Y033011D02*
X020213D01*
X018214Y033991D02*
Y034193D01*
Y033991D02*
X020003D01*
X018214Y033604D02*
Y033813D01*
X020013D01*
X018214Y034981D02*
X019893D01*
X018214D02*
Y035177D01*
Y034803D02*
X020118D01*
X018214Y034587D02*
Y034803D01*
X019813Y044807D02*
X020213Y045207D01*
X019934Y043828D02*
X020213Y044107D01*
X020144Y043626D02*
X020213Y043557D01*
X020043Y042837D02*
X020213Y043007D01*
X019994Y042677D02*
X020213Y042457D01*
X019881Y041689D02*
X020213Y041357D01*
X020134Y040886D02*
X020213Y040807D01*
X019769Y040702D02*
X020213Y040257D01*
X018189Y044807D02*
X019813D01*
X018189Y043828D02*
X019934D01*
X018189Y045757D02*
X020213D01*
X018189Y045404D02*
Y045757D01*
Y044807D02*
Y04501D01*
X018189Y039886D02*
X019739D01*
X018189D02*
Y040111D01*
Y040886D02*
X020134D01*
X018189D02*
Y041099D01*
Y040702D02*
X019769D01*
X018189Y041877D02*
X020213D01*
X018189D02*
Y042086D01*
X018189Y043828D02*
Y044023D01*
Y042837D02*
X020043D01*
X018189D02*
Y043035D01*
Y044613D02*
X020213D01*
X018189Y044416D02*
Y044613D01*
Y043626D02*
X020144D01*
X018189Y043429D02*
Y043626D01*
X018189Y042677D02*
X019994D01*
X018189Y04248D02*
Y042677D01*
Y041689D02*
X019881D01*
X018189Y041492D02*
Y041689D01*
Y040505D02*
Y040702D01*
X019723Y031853D02*
X020191Y031384D01*
X020019Y031051D02*
X020213Y030857D01*
X019648Y030873D02*
X020213Y030307D01*
X019959Y030011D02*
X020213Y029757D01*
X018214Y030011D02*
X019959D01*
X02752Y03685D02*
X027876D01*
X04231Y03801D02*
X0428Y0385D01*
X04254Y03776D02*
X0428Y0375D01*
X041848Y037452D02*
X0428Y0365D01*
X041755Y038455D02*
X0428Y0395D01*
X035494Y03206D02*
Y032644D01*
X0405Y031845D02*
X04095Y031395D01*
X03995Y031845D02*
X04015Y031645D01*
X033994Y03206D02*
Y032644D01*
X034494Y03206D02*
Y032644D01*
X034994Y03206D02*
Y032644D01*
X03065Y0307D02*
X03146Y03151D01*
X031744D01*
X031472Y030553D02*
Y030722D01*
X032494Y031744D01*
Y03206D01*
X030685Y030553D02*
X0307Y030538D01*
Y02985D02*
Y030538D01*
X029898Y030553D02*
X0299Y030551D01*
Y02985D02*
Y030551D01*
X031472Y030553D02*
X0315Y030526D01*
Y02985D02*
Y030526D01*
X0383Y03145D02*
Y031845D01*
X0381Y03125D02*
X0383Y03145D01*
X0378Y03125D02*
X0381D01*
X03855D02*
X03875D01*
X03885Y03135D01*
Y031845D01*
X036984Y031079D02*
X03775Y031845D01*
X04095Y03125D02*
Y031395D01*
X04015Y03125D02*
Y031645D01*
X03935Y03125D02*
Y031795D01*
X0378Y030582D02*
Y03125D01*
X03855Y030562D02*
Y03125D01*
X03935Y030557D02*
Y03125D01*
X04015Y030569D02*
Y03125D01*
X04095Y030582D02*
Y03125D01*
X02755Y02985D02*
Y030539D01*
X02835Y02985D02*
Y030526D01*
X032994Y03151D02*
X033204Y0313D01*
X0368D01*
X036984Y031116D01*
Y030577D02*
Y031116D01*
X0335Y032066D02*
Y03265D01*
X0291Y02985D02*
Y030543D01*
X017931Y04501D02*
X018189D01*
X017931D02*
Y0462D01*
X017037Y045905D02*
Y0462D01*
X015532Y0446D02*
Y0449D01*
X016431Y0458D01*
X016932D01*
X017037Y045905D01*
X036504Y0352D02*
X037926D01*
X035994Y031588D02*
Y03206D01*
Y031588D02*
X036082Y0315D01*
X037081D01*
X037332Y03175D01*
X036994Y03576D02*
Y03631D01*
X036244Y036212D02*
X036342Y03631D01*
X036994D01*
X037822D01*
X037926Y036205D01*
Y03575D02*
Y036205D01*
X028346Y03373D02*
X036494D01*
X028346Y034488D02*
X035869D01*
X036244Y034862D01*
Y036212D01*
X028346Y034321D02*
X036103D01*
X036494Y034712D01*
Y03576D01*
X028346Y033534D02*
X035698D01*
X035994Y033238D01*
Y03206D02*
Y033238D01*
X036494Y03206D02*
Y034312D01*
X036832Y03465D01*
X037926D01*
X037332Y03175D02*
Y03385D01*
X037582Y0341D01*
X037926D01*
X028838Y037471D02*
X028968Y03734D01*
X034946D01*
X035056Y03745D01*
X035373Y037157D02*
X035667Y03745D01*
X035082Y037475D02*
Y038045D01*
X035631Y037485D02*
Y038045D01*
X034869Y038868D02*
X035082Y038655D01*
X034869Y038868D02*
Y039334D01*
X035631Y038655D02*
X035868Y038892D01*
Y039334D01*
D42*
X010016Y027984D02*
D03*
Y045701D02*
D03*
X045449Y027984D02*
D03*
Y045701D02*
D03*
X028717D02*
D03*
D43*
X0428Y0395D02*
D03*
D44*
Y0385D02*
D03*
Y0375D02*
D03*
Y0365D02*
D03*
X026681Y0456D02*
D03*
X02785Y04335D02*
D03*
Y04435D02*
D03*
X029632Y03885D02*
D03*
X032232Y0417D02*
D03*
X033131D02*
D03*
D45*
X028981Y04009D02*
D03*
X0286Y04256D02*
D03*
X02736Y042576D02*
D03*
X025994Y03196D02*
D03*
X027444Y03591D02*
D03*
X039394Y03906D02*
D03*
X02175Y02731D02*
D03*
X021294Y02766D02*
D03*
X022244D02*
D03*
Y02806D02*
D03*
X021294D02*
D03*
X030494Y03406D02*
D03*
X029794D02*
D03*
X0357Y030553D02*
D03*
X031044Y03536D02*
D03*
X02835Y02985D02*
D03*
X040494Y03296D02*
D03*
X039944D02*
D03*
X039394D02*
D03*
X038844D02*
D03*
X038294D02*
D03*
X037744D02*
D03*
X026748Y031206D02*
D03*
X029544Y03321D02*
D03*
X0291Y02985D02*
D03*
X033494Y03511D02*
D03*
X032994D02*
D03*
X032494D02*
D03*
X031994D02*
D03*
X030294Y03241D02*
D03*
X028844Y03481D02*
D03*
X027844Y03376D02*
D03*
X028844Y03406D02*
D03*
X027844Y03411D02*
D03*
X027839Y034915D02*
D03*
X028944Y03531D02*
D03*
X030594Y03646D02*
D03*
X038944Y03801D02*
D03*
Y03846D02*
D03*
X027784Y03662D02*
D03*
Y03708D02*
D03*
X027442Y036392D02*
D03*
X037874Y0414D02*
D03*
X035374Y04141D02*
D03*
X037874Y03991D02*
D03*
X035374D02*
D03*
X034181Y0382D02*
D03*
X033131D02*
D03*
X032582D02*
D03*
X027868Y035507D02*
D03*
X032569Y039757D02*
D03*
X0337Y03931D02*
D03*
Y03971D02*
D03*
Y04011D02*
D03*
X027281Y03925D02*
D03*
X02805Y04036D02*
D03*
X022269Y034607D02*
D03*
X021268Y041357D02*
D03*
Y042457D02*
D03*
Y043557D02*
D03*
Y044657D02*
D03*
Y035807D02*
D03*
Y034707D02*
D03*
Y033607D02*
D03*
Y032507D02*
D03*
Y031407D02*
D03*
Y030307D02*
D03*
X022269Y043557D02*
D03*
Y042457D02*
D03*
Y041357D02*
D03*
Y040257D02*
D03*
Y044657D02*
D03*
X021268Y045757D02*
D03*
X022269Y039157D02*
D03*
X021268Y040257D02*
D03*
X022269Y030307D02*
D03*
Y031407D02*
D03*
Y032507D02*
D03*
Y033607D02*
D03*
Y029207D02*
D03*
X02805Y04074D02*
D03*
Y04111D02*
D03*
X02632Y0401D02*
D03*
X027281Y03975D02*
D03*
Y03875D02*
D03*
X02682Y03828D02*
D03*
X02752Y03685D02*
D03*
X0289Y03681D02*
D03*
X0316Y03406D02*
D03*
X0325Y03646D02*
D03*
X0335D02*
D03*
X0345D02*
D03*
X036D02*
D03*
X0362Y03741D02*
D03*
X03695D02*
D03*
X0386Y03711D02*
D03*
X0264Y03411D02*
D03*
Y03326D02*
D03*
Y03496D02*
D03*
X02645Y03631D02*
D03*
X0269Y03591D02*
D03*
X03485Y04206D02*
D03*
X03585D02*
D03*
X03735D02*
D03*
X0384D02*
D03*
X02805Y04256D02*
D03*
Y04211D02*
D03*
Y04166D02*
D03*
X0286Y04211D02*
D03*
X0213Y02731D02*
D03*
X02225D02*
D03*
X0213Y02846D02*
D03*
X02085Y02881D02*
D03*
X028981Y0382D02*
D03*
X029581D02*
D03*
X030082D02*
D03*
X0331Y03891D02*
D03*
X0337Y04051D02*
D03*
Y04091D02*
D03*
X03615Y03826D02*
D03*
X034581Y0382D02*
D03*
X03855Y03846D02*
D03*
X03835Y04001D02*
D03*
X0374D02*
D03*
X0359D02*
D03*
X03485D02*
D03*
X03705Y03826D02*
D03*
X0316Y03486D02*
D03*
X027112Y031587D02*
D03*
X025006Y030819D02*
D03*
X024317Y030159D02*
D03*
X022968Y028801D02*
D03*
X025616Y031419D02*
D03*
X027694Y03186D02*
D03*
X0315Y03645D02*
D03*
X029727Y03646D02*
D03*
X039494Y03711D02*
D03*
X0355Y03265D02*
D03*
X04095Y03125D02*
D03*
X04015D02*
D03*
X03935D02*
D03*
X03855D02*
D03*
X0378D02*
D03*
X035006Y032656D02*
D03*
X034506D02*
D03*
X034006D02*
D03*
X0307Y02985D02*
D03*
X0299D02*
D03*
X0315D02*
D03*
X0291Y02835D02*
D03*
X0299D02*
D03*
X0307D02*
D03*
X0315D02*
D03*
X028344D02*
D03*
X02755D02*
D03*
Y02985D02*
D03*
X0335Y03265D02*
D03*
X026268Y040937D02*
D03*
X028681Y04009D02*
D03*
X031881Y0382D02*
D03*
X027731Y03325D02*
D03*
X038932Y03575D02*
D03*
Y0352D02*
D03*
Y03465D02*
D03*
Y0341D02*
D03*
X028932Y03285D02*
D03*
D46*
X019368Y030507D02*
D03*
Y031457D02*
D03*
Y032407D02*
D03*
Y033407D02*
D03*
Y034407D02*
D03*
Y035357D02*
D03*
X013681Y03035D02*
D03*
Y03115D02*
D03*
Y03195D02*
D03*
Y0327D02*
D03*
Y0335D02*
D03*
Y04095D02*
D03*
Y04175D02*
D03*
Y0425D02*
D03*
Y0433D02*
D03*
X01937Y040308D02*
D03*
Y041295D02*
D03*
Y042283D02*
D03*
X01937Y043232D02*
D03*
Y044219D02*
D03*
Y045207D02*
D03*
X018168Y029607D02*
D03*
X013681Y0441D02*
D03*
X015532Y0446D02*
D03*
X013681Y0343D02*
D03*
M02*
