G04 Layer_Color=16711935*
%FSLAX25Y25*%
%MOIN*%
G70*
G01*
G75*
%ADD61C,0.00394*%
D61*
X362690Y157913D02*
G03*
X362690Y157913I-1575J0D01*
G01*
X208151Y98483D02*
G03*
X208151Y98483I-1969J0D01*
G01*
X192541Y173931D02*
G03*
X192541Y173931I-1969J0D01*
G01*
X317981Y227354D02*
G03*
X317981Y227354I-1575J0D01*
G01*
Y254885D02*
G03*
X317981Y254885I-1575J0D01*
G01*
X246251Y242513D02*
G03*
X246251Y242513I-1575J0D01*
G01*
X318000Y163547D02*
G03*
X318000Y163547I-1575J0D01*
G01*
X318139Y191105D02*
G03*
X318139Y191105I-1575J0D01*
G01*
X246251Y177326D02*
G03*
X246251Y177326I-1575J0D01*
G01*
X234751D02*
G03*
X234751Y177326I-1575J0D01*
G01*
X40278Y239405D02*
G03*
X40278Y239405I-1575J0D01*
G01*
X85701D02*
G03*
X85701Y239405I-1575J0D01*
G01*
X362242Y243665D02*
G03*
X362242Y243665I-1575J0D01*
G01*
Y201765D02*
G03*
X362242Y201765I-1575J0D01*
G01*
X131061Y239405D02*
G03*
X131061Y239405I-1575J0D01*
G01*
X220238Y62941D02*
G03*
X220238Y62941I-1969J0D01*
G01*
X104520Y141122D02*
Y146043D01*
X98024Y141122D02*
Y146043D01*
X104520D01*
X98024Y141122D02*
X104520D01*
X328276Y31558D02*
X334575D01*
X328276Y34708D02*
X334575D01*
Y31558D02*
Y34708D01*
X328276Y31558D02*
Y34708D01*
Y24291D02*
X334575D01*
X328276Y27441D02*
X334575D01*
Y24291D02*
Y27441D01*
X328276Y24291D02*
Y27441D01*
X357966Y154763D02*
X366234D01*
X357966Y163031D02*
X366234D01*
X357966Y154763D02*
Y163031D01*
X366234Y154763D02*
Y163031D01*
X109862Y159866D02*
Y174039D01*
X120886Y159866D02*
Y174039D01*
X109862Y159866D02*
X120886D01*
X109862Y174039D02*
X120886D01*
X163701Y219724D02*
Y224055D01*
X172362Y219724D02*
Y224055D01*
X163701Y219724D02*
X172362D01*
X163701Y224055D02*
X172362D01*
X156632Y133573D02*
Y137903D01*
X165294Y133573D02*
Y137903D01*
X156632Y133573D02*
X165294D01*
X156632Y137903D02*
X165294D01*
X192967Y222886D02*
Y234894D01*
X186077Y222886D02*
Y234894D01*
Y222886D02*
X192967D01*
X186077Y234894D02*
X192967D01*
X61228Y156889D02*
X73235D01*
X61228Y149999D02*
X73235D01*
Y156889D01*
X61228Y149999D02*
Y156889D01*
X328276Y82425D02*
X334575D01*
X328276Y85575D02*
X334575D01*
Y82425D02*
Y85575D01*
X328276Y82425D02*
Y85575D01*
X258425Y47850D02*
Y54150D01*
X261575Y47850D02*
Y54150D01*
X258425Y47850D02*
X261575D01*
X258425Y54150D02*
X261575D01*
X348475Y199894D02*
Y206194D01*
X345325Y199894D02*
Y206194D01*
X348475D01*
X345325Y199894D02*
X348475D01*
X348475Y241762D02*
Y248061D01*
X345325Y241762D02*
Y248061D01*
X348475D01*
X345325Y241762D02*
X348475D01*
X328276Y17025D02*
X334575D01*
X328276Y20174D02*
X334575D01*
Y17025D02*
Y20174D01*
X328276Y17025D02*
Y20174D01*
X348375Y156043D02*
Y162342D01*
X345225Y156043D02*
Y162342D01*
X348375D01*
X345225Y156043D02*
X348375D01*
X328276Y67892D02*
X334575D01*
X328276Y71041D02*
X334575D01*
Y67892D02*
Y71041D01*
X328276Y67892D02*
Y71041D01*
Y89692D02*
X334575D01*
X328276Y92842D02*
X334575D01*
Y89692D02*
Y92842D01*
X328276Y89692D02*
Y92842D01*
X165373Y234465D02*
X171672D01*
X165373Y231315D02*
X171672D01*
X165373D02*
Y234465D01*
X171672Y231315D02*
Y234465D01*
X218097Y226689D02*
Y232988D01*
X214947Y226689D02*
Y232988D01*
X218097D01*
X214947Y226689D02*
X218097D01*
X57271Y175319D02*
X63570D01*
X57271Y172169D02*
X63570D01*
X57271D02*
Y175319D01*
X63570Y172169D02*
Y175319D01*
X124402Y70964D02*
X130701D01*
X124402Y67814D02*
X130701D01*
X124402D02*
Y70964D01*
X130701Y67814D02*
Y70964D01*
X183925Y31510D02*
Y37809D01*
X187075Y31510D02*
Y37809D01*
X183925Y31510D02*
X187075D01*
X183925Y37809D02*
X187075D01*
X183925Y43510D02*
Y49809D01*
X187075Y43510D02*
Y49809D01*
X183925Y43510D02*
X187075D01*
X183925Y49809D02*
X187075D01*
X199725Y49408D02*
Y55707D01*
X202875Y49408D02*
Y55707D01*
X199725Y49408D02*
X202875D01*
X199725Y55707D02*
X202875D01*
X160231Y184069D02*
Y191352D01*
X173813Y184069D02*
Y191352D01*
X160231D02*
X173813D01*
X160231Y184069D02*
X173813D01*
X124959Y227824D02*
X131258D01*
X124959Y230974D02*
X131258D01*
Y227824D02*
Y230974D01*
X124959Y227824D02*
Y230974D01*
X163577Y196500D02*
Y200279D01*
X170467Y196500D02*
Y200279D01*
X163577D02*
X170467D01*
X163577Y196500D02*
X170467D01*
X156044Y110149D02*
Y113928D01*
X162934Y110149D02*
Y113928D01*
X156044D02*
X162934D01*
X156044Y110149D02*
X162934D01*
X78445Y108600D02*
Y112380D01*
X71555Y108600D02*
Y112380D01*
Y108600D02*
X78445D01*
X71555Y112380D02*
X78445D01*
X79264Y36441D02*
Y40220D01*
X72374Y36441D02*
Y40220D01*
Y36441D02*
X79264D01*
X72374Y40220D02*
X79264D01*
X59310Y123444D02*
X63090D01*
X59310Y130334D02*
X63090D01*
X59310Y123444D02*
Y130334D01*
X63090Y123444D02*
Y130334D01*
X60485Y53383D02*
X64264D01*
X60485Y60272D02*
X64264D01*
X60485Y53383D02*
Y60272D01*
X64264Y53383D02*
Y60272D01*
X156642Y226811D02*
X160421D01*
X156642Y219921D02*
X160421D01*
Y226811D01*
X156642Y219921D02*
Y226811D01*
X200132Y233417D02*
X203912D01*
X200132Y226528D02*
X203912D01*
Y233417D01*
X200132Y226528D02*
Y233417D01*
X148299Y140683D02*
X152078D01*
X148299Y133793D02*
X152078D01*
Y140683D01*
X148299Y133793D02*
Y140683D01*
X164683Y238000D02*
Y241779D01*
X171573Y238000D02*
Y241779D01*
X164683D02*
X171573D01*
X164683Y238000D02*
X171573D01*
X186055Y212000D02*
Y215779D01*
X192945Y212000D02*
Y215779D01*
X186055D02*
X192945D01*
X186055Y212000D02*
X192945D01*
X78727Y151554D02*
Y155334D01*
X85617Y151554D02*
Y155334D01*
X78727D02*
X85617D01*
X78727Y151554D02*
X85617D01*
X64259Y164754D02*
Y168534D01*
X57369Y164754D02*
Y168534D01*
Y164754D02*
X64259D01*
X57369Y168534D02*
X64259D01*
X145710Y50334D02*
X149490D01*
X145710Y43444D02*
X149490D01*
Y50334D01*
X145710Y43444D02*
Y50334D01*
X131390Y58500D02*
Y62279D01*
X124500Y58500D02*
Y62279D01*
Y58500D02*
X131390D01*
X124500Y62279D02*
X131390D01*
X71759Y137954D02*
Y141734D01*
X64869Y137954D02*
Y141734D01*
Y137954D02*
X71759D01*
X64869Y141734D02*
X71759D01*
X89282Y143189D02*
X93061D01*
X89282Y136299D02*
X93061D01*
Y143189D01*
X89282Y136299D02*
Y143189D01*
X120886Y109803D02*
Y123976D01*
X109862Y109803D02*
Y123976D01*
X120886D01*
X109862Y109803D02*
X120886D01*
X232555Y67110D02*
Y70890D01*
X239445Y67110D02*
Y70890D01*
X232555D02*
X239445D01*
X232555Y67110D02*
X239445D01*
X109282Y143189D02*
X113061D01*
X109282Y136299D02*
X113061D01*
Y143189D01*
X109282Y136299D02*
Y143189D01*
X138908Y31100D02*
Y34879D01*
X132018Y31100D02*
Y34879D01*
Y31100D02*
X138908D01*
X132018Y34879D02*
X138908D01*
X87110Y53383D02*
X90890D01*
X87110Y60272D02*
X90890D01*
X87110Y53383D02*
Y60272D01*
X90890Y53383D02*
Y60272D01*
X86610Y123444D02*
X90390D01*
X86610Y130334D02*
X90390D01*
X86610Y123444D02*
Y130334D01*
X90390Y123444D02*
Y130334D01*
X200025Y251940D02*
Y258239D01*
X203175Y251940D02*
Y258239D01*
X200025Y251940D02*
X203175D01*
X200025Y258239D02*
X203175D01*
X205665Y251940D02*
Y258239D01*
X208814Y251940D02*
Y258239D01*
X205665Y251940D02*
X208814D01*
X205665Y258239D02*
X208814D01*
X324825Y225582D02*
Y231881D01*
X327975Y225582D02*
Y231881D01*
X324825Y225582D02*
X327975D01*
X324825Y231881D02*
X327975D01*
X324984Y161644D02*
Y167943D01*
X328133Y161644D02*
Y167943D01*
X324984Y161644D02*
X328133D01*
X324984Y167943D02*
X328133D01*
X324984Y189334D02*
Y195633D01*
X328133Y189334D02*
Y195633D01*
X324984Y189334D02*
X328133D01*
X324984Y195633D02*
X328133D01*
X324825Y253093D02*
Y259392D01*
X327975Y253093D02*
Y259392D01*
X324825Y253093D02*
X327975D01*
X324825Y259392D02*
X327975D01*
X223725Y175554D02*
Y181853D01*
X226875Y175554D02*
Y181853D01*
X223725Y175554D02*
X226875D01*
X223725Y181853D02*
X226875D01*
X234586Y240620D02*
Y246919D01*
X237735Y240620D02*
Y246919D01*
X234586Y240620D02*
X237735D01*
X234586Y246919D02*
X237735D01*
X34183Y227824D02*
X40483D01*
X34183Y230974D02*
X40483D01*
Y227824D02*
Y230974D01*
X34183Y227824D02*
Y230974D01*
X79598Y227824D02*
X85898D01*
X79598Y230974D02*
X85898D01*
Y227824D02*
Y230974D01*
X79598Y227824D02*
Y230974D01*
X351706Y156141D02*
Y162440D01*
X354856Y156141D02*
Y162440D01*
X351706Y156141D02*
X354856D01*
X351706Y162440D02*
X354856D01*
X351706Y241893D02*
Y248192D01*
X354856Y241893D02*
Y248192D01*
X351706Y241893D02*
X354856D01*
X351706Y248192D02*
X354856D01*
X351706Y199993D02*
Y206292D01*
X354856Y199993D02*
Y206292D01*
X351706Y199993D02*
X354856D01*
X351706Y206292D02*
X354856D01*
X202639Y94939D02*
X222324D01*
X202639Y110687D02*
X222324D01*
X202639Y94939D02*
Y110687D01*
X222324Y94939D02*
Y110687D01*
X187030Y170387D02*
X206715D01*
X187030Y186135D02*
X206715D01*
X187030Y170387D02*
Y186135D01*
X206715Y170387D02*
Y186135D01*
X321524Y224204D02*
Y232472D01*
X313257Y224204D02*
Y232472D01*
X321524D01*
X313257Y224204D02*
X321524D01*
X313257Y251735D02*
X321524D01*
X313257Y260003D02*
X321524D01*
X313257Y251735D02*
Y260003D01*
X321524Y251735D02*
Y260003D01*
X249795Y239364D02*
Y247632D01*
X241527Y239364D02*
Y247632D01*
X249795D01*
X241527Y239364D02*
X249795D01*
X313276Y160397D02*
X321543D01*
X313276Y168665D02*
X321543D01*
X313276Y160397D02*
Y168665D01*
X321543Y160397D02*
Y168665D01*
X321683Y187956D02*
Y196224D01*
X313415Y187956D02*
Y196224D01*
X321683D01*
X313415Y187956D02*
X321683D01*
X241527Y174176D02*
X249795D01*
X241527Y182444D02*
X249795D01*
X241527Y174176D02*
Y182444D01*
X249795Y174176D02*
Y182444D01*
X238295Y174176D02*
Y182444D01*
X230027Y174176D02*
Y182444D01*
X238295D01*
X230027Y174176D02*
X238295D01*
X41853Y236256D02*
Y244524D01*
X33585Y236256D02*
Y244524D01*
Y236256D02*
X41853D01*
X33585Y244524D02*
X41853D01*
X79008D02*
X87276D01*
X79008Y236256D02*
X87276D01*
X79008D02*
Y244524D01*
X87276Y236256D02*
Y244524D01*
X365785Y240515D02*
Y248783D01*
X357517Y240515D02*
Y248783D01*
X365785D01*
X357517Y240515D02*
X365785D01*
X357517Y198615D02*
X365785D01*
X357517Y206883D02*
X365785D01*
X357517Y198615D02*
Y206883D01*
X365785Y198615D02*
Y206883D01*
X124368Y244524D02*
X132636D01*
X124368Y236256D02*
X132636D01*
X124368D02*
Y244524D01*
X132636Y236256D02*
Y244524D01*
X196575Y251740D02*
Y258039D01*
X193425Y251740D02*
Y258039D01*
X196575D01*
X193425Y251740D02*
X196575D01*
X215075D02*
Y258039D01*
X211925Y251740D02*
Y258039D01*
X215075D01*
X211925Y251740D02*
X215075D01*
X183925Y54459D02*
Y60758D01*
X187075Y54459D02*
Y60758D01*
X183925Y54459D02*
X187075D01*
X183925Y60758D02*
X187075D01*
X199725Y37407D02*
Y43707D01*
X202875Y37407D02*
Y43707D01*
X199725Y37407D02*
X202875D01*
X199725Y43707D02*
X202875D01*
X199725Y60408D02*
Y66707D01*
X202875Y60408D02*
Y66707D01*
X199725Y60408D02*
X202875D01*
X199725Y66707D02*
X202875D01*
X184850Y70465D02*
X191150D01*
X184850Y67315D02*
X191150D01*
X184850D02*
Y70465D01*
X191150Y67315D02*
Y70465D01*
X219450Y20465D02*
X225750D01*
X219450Y17315D02*
X225750D01*
X219450D02*
Y20465D01*
X225750Y17315D02*
Y20465D01*
X219450Y26965D02*
X225750D01*
X219450Y23815D02*
X225750D01*
X219450D02*
Y26965D01*
X225750Y23815D02*
Y26965D01*
X138022Y70964D02*
X144321D01*
X138022Y67814D02*
X144321D01*
X138022D02*
Y70964D01*
X144321Y67814D02*
Y70964D01*
X70854Y175319D02*
X77153D01*
X70854Y172169D02*
X77153D01*
X70854D02*
Y175319D01*
X77153Y172169D02*
Y175319D01*
X138022Y58815D02*
X144321D01*
X138022Y61964D02*
X144321D01*
Y58815D02*
Y61964D01*
X138022Y58815D02*
Y61964D01*
X70854Y165169D02*
X77153D01*
X70854Y168319D02*
X77153D01*
Y165169D02*
Y168319D01*
X70854Y165169D02*
Y168319D01*
X60799Y40489D02*
Y46788D01*
X63949Y40489D02*
Y46788D01*
X60799Y40489D02*
X63949D01*
X60799Y46788D02*
X63949D01*
X59625Y111940D02*
Y118239D01*
X62775Y111940D02*
Y118239D01*
X59625Y111940D02*
X62775D01*
X59625Y118239D02*
X62775D01*
X87425Y40489D02*
Y46788D01*
X90575Y40489D02*
Y46788D01*
X87425Y40489D02*
X90575D01*
X87425Y46788D02*
X90575D01*
X86925Y111940D02*
Y118239D01*
X90075Y111940D02*
Y118239D01*
X86925Y111940D02*
X90075D01*
X86925Y118239D02*
X90075D01*
X207952Y226689D02*
Y232988D01*
X211102Y226689D02*
Y232988D01*
X207952Y226689D02*
X211102D01*
X207952Y232988D02*
X211102D01*
X157563Y118689D02*
Y124988D01*
X154414Y118689D02*
Y124988D01*
X157563D01*
X154414Y118689D02*
X157563D01*
X164564D02*
Y124988D01*
X161414Y118689D02*
Y124988D01*
X164564D01*
X161414Y118689D02*
X164564D01*
X165097Y204740D02*
Y211039D01*
X161947Y204740D02*
Y211039D01*
X165097D01*
X161947Y204740D02*
X165097D01*
X172097D02*
Y211039D01*
X168947Y204740D02*
Y211039D01*
X172097D01*
X168947Y204740D02*
X172097D01*
X335575Y225483D02*
Y231783D01*
X332425Y225483D02*
Y231783D01*
X335575D01*
X332425Y225483D02*
X335575D01*
Y161546D02*
Y167845D01*
X332425Y161546D02*
Y167845D01*
X335575D01*
X332425Y161546D02*
X335575D01*
X328276Y75159D02*
X334575D01*
X328276Y78308D02*
X334575D01*
Y75159D02*
Y78308D01*
X328276Y75159D02*
Y78308D01*
X335575Y189235D02*
Y195535D01*
X332425Y189235D02*
Y195535D01*
X335575D01*
X332425Y189235D02*
X335575D01*
X334875Y252994D02*
Y259294D01*
X331725Y252994D02*
Y259294D01*
X334875D01*
X331725Y252994D02*
X334875D01*
X328276Y60625D02*
X334575D01*
X328276Y63775D02*
X334575D01*
Y60625D02*
Y63775D01*
X328276Y60625D02*
Y63775D01*
Y53358D02*
X334575D01*
X328276Y56508D02*
X334575D01*
Y53358D02*
Y56508D01*
X328276Y53358D02*
Y56508D01*
Y46092D02*
X334575D01*
X328276Y49241D02*
X334575D01*
Y46092D02*
Y49241D01*
X328276Y46092D02*
Y49241D01*
X125057Y223465D02*
X131356D01*
X125057Y220315D02*
X131356D01*
X125057D02*
Y223465D01*
X131356Y220315D02*
Y223465D01*
X328276Y38825D02*
X334575D01*
X328276Y41974D02*
X334575D01*
Y38825D02*
Y41974D01*
X328276Y38825D02*
Y41974D01*
X34282Y223465D02*
X40581D01*
X34282Y220315D02*
X40581D01*
X34282D02*
Y223465D01*
X40581Y220315D02*
Y223465D01*
X79697D02*
X85996D01*
X79697Y220315D02*
X85996D01*
X79697D02*
Y223465D01*
X85996Y220315D02*
Y223465D01*
X214726Y32232D02*
Y66484D01*
X230474Y32232D02*
Y66484D01*
X214726D02*
X230474D01*
X214726Y32232D02*
X230474D01*
X128339Y50334D02*
X140347D01*
X128339Y43444D02*
X140347D01*
Y50334D01*
X128339Y43444D02*
Y50334D01*
X72374Y44426D02*
Y56434D01*
X79264Y44426D02*
Y56434D01*
X72374D02*
X79264D01*
X72374Y44426D02*
X79264D01*
X71555Y116086D02*
Y128094D01*
X78445Y116086D02*
Y128094D01*
X71555D02*
X78445D01*
X71555Y116086D02*
X78445D01*
X148997Y92546D02*
X169981D01*
X148997Y103531D02*
X169981D01*
Y92546D02*
Y103531D01*
X148997Y92546D02*
Y103531D01*
X306598Y94207D02*
X309748D01*
X306598Y100506D02*
X309748D01*
X306598Y94207D02*
Y100506D01*
X309748Y94207D02*
Y100506D01*
X244110Y58342D02*
X247890D01*
X244110Y65232D02*
X247890D01*
Y58342D02*
Y65232D01*
X244110Y58342D02*
Y65232D01*
X216986Y175456D02*
Y181755D01*
X220135Y175456D02*
Y181755D01*
X216986D02*
X220135D01*
X216986Y175456D02*
X220135D01*
X231902Y235362D02*
X238201D01*
X231902Y232213D02*
X238201D01*
Y235362D01*
X231902Y232213D02*
Y235362D01*
X259425Y86350D02*
X262575D01*
X259425Y92650D02*
X262575D01*
Y86350D02*
Y92650D01*
X259425Y86350D02*
Y92650D01*
M02*
