M48
;Layer_Color=9474304
;FILE_FORMAT=2:5
INCH,TZ
;TYPE=PLATED
T1F00S00C0.01181
T2F00S00C0.02756
T3F00S00C0.03150
T4F00S00C0.03346
T5F00S00C0.03937
T6F00S00C0.04016
T7F00S00C0.04331
T8F00S00C0.09055
T9F00S00C0.10630
%
T01
X19685Y19685
X29528Y12697
X41813Y8268
X54331Y11713
X49213Y19685
X47243Y27853
X38189
X8273Y35039
X6299Y52362
X4205Y54457
X58760Y54151
X63976Y49213
X72866Y40551
X93504Y49213
X123031
X150394Y44882
Y32283
X182087Y49213
X59842Y24016
X69685Y64173
X72835Y76575
X79264Y75197
X70866Y82825
X88583Y98032
X108268Y78740
X137795
X167323
Y137795
X137795
X130315Y173276
Y184133
X140581Y184261
X92913Y187795
X93504Y167323
X182087
X52362Y181496
X38189Y168110
X49213Y137795
X48819Y101102
X23622Y100787
X19291Y93307
X14173Y95079
X10630Y94882
X2387Y97319
X19291Y85433
X34252Y82677
X42913Y58323
X9843Y62992
X8268Y70866
T02
X15748Y31299
Y86811
T03
X152756Y145669
Y155669
T04
X64008Y125669
Y135669
Y145669
Y155669
Y165669
T05
X12937Y135669
Y145669
Y155669
T06
X38583Y186987
X52362
T07
X157874Y39764
X177559
Y59449
X157874
X157874Y90945
X177559
Y110630
X157874
T08
X62205Y184507
X28740
T09
X9843Y9843
X127953
X187402Y9449
X127953Y108268
X187008Y187008
X9843Y186614
Y108268
M30
