M48
;Layer_Color=9474304
;FILE_FORMAT=2:4
INCH,LZ
;TYPE=PLATED
T1F00S00C0.0118
T2F00S00C0.0197
T3F00S00C0.0300
T4F00S00C0.1063
%
T01
X0315Y02835
Y02985
X0357Y030553
X0307Y02985
X0299
X0291
X02835
X02755
Y02835
X028344
X0291
X0299
X0307
X026748Y031206
X025006Y030819
X024317Y030159
X022269Y030307
X021268
X0213Y02846
X021294Y02806
Y02766
X0213Y02731
X02175
X02225
X022244Y02766
Y02806
X022269Y029207
X022968Y028801
X02085Y02881
X021268Y031407
X022269
Y032507
X021268
Y033607
X022269
Y034607
X021268Y034707
Y035807
X022269Y039157
Y040257
X021268
Y041357
X022269
Y042457
X021268
Y043557
X022269
Y044657
X021268
Y045757
X02736Y042576
X02805Y04256
Y04211
Y04166
Y04111
Y04074
Y04036
X02745Y03976
Y03926
Y03876
X02682Y03828
X02752Y03685
X027784Y03708
Y03662
X027442Y036392
X027444Y03591
X0269
X02645Y03631
X0264Y03496
Y03411
Y03326
X025994Y03196
X025616Y031419
X027112Y031587
X027694Y03186
X027844Y03376
Y03411
X027839Y034915
X027868Y035507
X028944Y03531
X028844Y03481
Y03406
X029794
X030494
X029544Y03321
X030294Y03241
X031044Y03536
X030594Y03646
X029727
X0289Y03681
X02915Y03831
X02975
X0304
X031034Y038291
X029Y03976
Y04006
X0286Y04211
Y04256
X026268Y040937
X02632Y0401
X032569Y039757
X0337Y03971
Y04011
Y04051
Y04091
Y03931
X0331Y03891
X033134Y038291
X032603
X034203
X0346Y03826
X03615
X03705
X03695Y03741
X0362
X036Y03646
X0345
X0335
X0325
X0315Y03645
X0316Y03486
X031994Y03511
X032494
X032994
X033494
X0335Y03265
X034006Y032656
X034506
X035006
X0355Y03265
X037744Y03296
X038294
X038844
X039394
X039944
X040494
X04015Y03125
X03935
X03855
X0378
X04095
X039494Y03711
X0386
X038944Y03801
Y03846
X03855
X039394Y03906
X03835Y04001
X037874Y03991
X0374Y04001
X0359
X035374Y03991
X03485Y04001
X035374Y04141
X03585Y04206
X03485
X03735
X0384
X037874Y0414
X0316Y03406
T02
X015668Y028507
Y030207
X018168Y029607
X019368Y030507
Y031457
Y032407
Y033407
Y034407
Y035357
X015668Y035307
Y036907
Y038707
Y040407
Y042107
Y043807
Y045507
X01937Y045207
Y044219
Y043232
X01937Y042283
Y041295
Y040308
X015668Y033607
Y031907
T03
X02785Y04335
Y04435
X0428Y0395
Y0385
Y0375
Y0365
T04
X045449Y027984
X011984
Y045701
X028717
X045449
M30
