G04*
G04 #@! TF.GenerationSoftware,Altium Limited,Altium Designer,19.0.10 (269)*
G04*
G04 Layer_Physical_Order=4*
G04 Layer_Color=16711680*
%FSLAX25Y25*%
%MOIN*%
G70*
G01*
G75*
%ADD11C,0.00787*%
%ADD13C,0.01000*%
%ADD18R,0.03347X0.03347*%
%ADD19R,0.03543X0.03937*%
%ADD60C,0.01378*%
%ADD61C,0.01968*%
%ADD62C,0.01181*%
%ADD64C,0.00800*%
%ADD68C,0.10630*%
%ADD69C,0.02756*%
%ADD70C,0.02381*%
%ADD71C,0.02362*%
%ADD72R,0.03150X0.03543*%
%ADD73R,0.03150X0.03150*%
%ADD74R,0.09843X0.02953*%
G04:AMPARAMS|DCode=75|XSize=29.53mil|YSize=98.43mil|CornerRadius=7.38mil|HoleSize=0mil|Usage=FLASHONLY|Rotation=90.000|XOffset=0mil|YOffset=0mil|HoleType=Round|Shape=RoundedRectangle|*
%AMROUNDEDRECTD75*
21,1,0.02953,0.08366,0,0,90.0*
21,1,0.01476,0.09843,0,0,90.0*
1,1,0.01476,0.04183,0.00738*
1,1,0.01476,0.04183,-0.00738*
1,1,0.01476,-0.04183,-0.00738*
1,1,0.01476,-0.04183,0.00738*
%
%ADD75ROUNDEDRECTD75*%
G04:AMPARAMS|DCode=76|XSize=78.74mil|YSize=165.35mil|CornerRadius=19.68mil|HoleSize=0mil|Usage=FLASHONLY|Rotation=0.000|XOffset=0mil|YOffset=0mil|HoleType=Round|Shape=RoundedRectangle|*
%AMROUNDEDRECTD76*
21,1,0.07874,0.12598,0,0,0.0*
21,1,0.03937,0.16535,0,0,0.0*
1,1,0.03937,0.01968,-0.06299*
1,1,0.03937,-0.01968,-0.06299*
1,1,0.03937,-0.01968,0.06299*
1,1,0.03937,0.01968,0.06299*
%
%ADD76ROUNDEDRECTD76*%
G04:AMPARAMS|DCode=77|XSize=47.24mil|YSize=86.61mil|CornerRadius=11.81mil|HoleSize=0mil|Usage=FLASHONLY|Rotation=0.000|XOffset=0mil|YOffset=0mil|HoleType=Round|Shape=RoundedRectangle|*
%AMROUNDEDRECTD77*
21,1,0.04724,0.06299,0,0,0.0*
21,1,0.02362,0.08661,0,0,0.0*
1,1,0.02362,0.01181,-0.03150*
1,1,0.02362,-0.01181,-0.03150*
1,1,0.02362,-0.01181,0.03150*
1,1,0.02362,0.01181,0.03150*
%
%ADD77ROUNDEDRECTD77*%
%ADD78R,0.04724X0.08661*%
G36*
X135993Y50052D02*
X135531Y49861D01*
X133359Y52033D01*
X132968Y52294D01*
X132508Y52385D01*
X132508Y52385D01*
X130420D01*
X128347Y54459D01*
Y56762D01*
X128733Y57079D01*
X128937Y57038D01*
X129709Y57192D01*
X130363Y57629D01*
X130800Y58283D01*
X130954Y59055D01*
X130800Y59827D01*
X130363Y60481D01*
X129709Y60918D01*
X128937Y61072D01*
X128733Y61031D01*
X128347Y61348D01*
Y64636D01*
X128733Y64953D01*
X128937Y64912D01*
X129709Y65066D01*
X130363Y65503D01*
X130800Y66157D01*
X130954Y66929D01*
X130800Y67701D01*
X130363Y68355D01*
X129709Y68792D01*
X128937Y68946D01*
X128733Y68905D01*
X128347Y69222D01*
Y73228D01*
X123622D01*
Y68504D01*
X124780D01*
Y67913D01*
X124780Y67913D01*
X124872Y67453D01*
X125133Y67062D01*
X126117Y66078D01*
X126157Y65450D01*
X126081Y65354D01*
X123622D01*
Y61106D01*
X123122Y60899D01*
X118928Y65093D01*
X118980Y65354D01*
X118826Y66126D01*
X118677Y66350D01*
X118868Y66812D01*
X119087Y66855D01*
X119741Y67292D01*
X120178Y67947D01*
X120332Y68718D01*
X120178Y69490D01*
X119955Y69825D01*
X119815Y70333D01*
X120253Y70987D01*
X120406Y71759D01*
X120253Y72531D01*
X119815Y73185D01*
X119161Y73622D01*
X118389Y73776D01*
X117617Y73622D01*
X117419Y73489D01*
X117058Y73850D01*
X117401Y74362D01*
X117554Y75134D01*
X117401Y75906D01*
X116964Y76559D01*
X117401Y77213D01*
X117554Y77984D01*
X117401Y78756D01*
X116963Y79410D01*
X116309Y79848D01*
X115537Y80001D01*
X114766Y79848D01*
X114111Y79410D01*
X113674Y78756D01*
X113521Y77984D01*
X113674Y77213D01*
X114111Y76559D01*
X113674Y75906D01*
X113521Y75134D01*
X113674Y74362D01*
X114033Y73825D01*
X114080Y73492D01*
X114033Y73159D01*
X113674Y72622D01*
X113521Y71850D01*
X113674Y71079D01*
X114111Y70424D01*
Y70144D01*
X113674Y69490D01*
X113521Y68718D01*
X113674Y67947D01*
X114111Y67292D01*
X114461Y67059D01*
X114310Y66559D01*
X110236D01*
X110236Y66559D01*
X109775Y66467D01*
X109385Y66206D01*
X109385Y66206D01*
X98695Y55516D01*
X62329D01*
X60261Y57584D01*
X59870Y57845D01*
X59410Y57936D01*
X59409Y57936D01*
X47326D01*
X47118Y58436D01*
X50482Y61800D01*
X50808Y62288D01*
X50923Y62864D01*
Y64349D01*
X51031Y64370D01*
X54134D01*
Y69488D01*
X53277D01*
Y78159D01*
X53162Y78735D01*
X52836Y79223D01*
X52574Y79486D01*
X52598Y79606D01*
Y80663D01*
X53039Y80898D01*
X53165Y80814D01*
X53937Y80660D01*
X54709Y80814D01*
X55363Y81251D01*
X55800Y81905D01*
X55954Y82677D01*
X55800Y83449D01*
X55363Y84103D01*
X54709Y84540D01*
X53937Y84694D01*
X53165Y84540D01*
X53039Y84456D01*
X52598Y84691D01*
Y85905D01*
X52445Y86674D01*
X52010Y87325D01*
X51359Y87760D01*
X50912Y87849D01*
X50961Y88349D01*
X58719D01*
X69392Y77676D01*
X69880Y77350D01*
X70456Y77235D01*
X78297D01*
X78937Y76595D01*
Y71850D01*
X81533D01*
X83099Y70284D01*
X83587Y69958D01*
X84163Y69844D01*
X92215D01*
X92791Y69958D01*
X93279Y70284D01*
X96568Y73573D01*
X96895Y74062D01*
X97009Y74638D01*
Y77599D01*
X97441D01*
X98209Y77752D01*
X98860Y78187D01*
X99295Y78838D01*
X99448Y79606D01*
Y85905D01*
X99295Y86674D01*
X98860Y87325D01*
X98209Y87760D01*
X97441Y87913D01*
X95079D01*
X94311Y87760D01*
X93660Y87325D01*
X93225Y86674D01*
X93072Y85905D01*
Y79606D01*
X93225Y78838D01*
X93660Y78187D01*
X93999Y77960D01*
Y75261D01*
X91591Y72854D01*
X90748D01*
Y76968D01*
X89891D01*
Y77638D01*
X91535D01*
Y87874D01*
X85236D01*
Y78570D01*
X84774Y78378D01*
X80970Y82183D01*
X80482Y82509D01*
X79905Y82623D01*
X73049D01*
X61694Y93978D01*
X61206Y94304D01*
X60630Y94419D01*
X47866D01*
X47289Y94304D01*
X46801Y93978D01*
X43219Y90396D01*
X42893Y89907D01*
X42778Y89331D01*
Y87874D01*
X38480D01*
X38237Y88237D01*
X37583Y88674D01*
X36811Y88828D01*
X36039Y88674D01*
X35385Y88237D01*
X34948Y87583D01*
X34794Y86811D01*
X34948Y86039D01*
X35385Y85385D01*
X35584Y85252D01*
Y84752D01*
X35497Y84694D01*
X35060Y84039D01*
X34907Y83268D01*
X35060Y82496D01*
X35497Y81842D01*
X35640Y81746D01*
Y81246D01*
X35497Y81150D01*
X35060Y80496D01*
X34907Y79724D01*
X35060Y78953D01*
X35497Y78298D01*
X35252Y78067D01*
X35188Y78025D01*
X35051Y77819D01*
X34551D01*
X34413Y78025D01*
X33759Y78462D01*
X32987Y78615D01*
X32215Y78462D01*
X31611Y78058D01*
X31436Y78003D01*
X31157D01*
X30982Y78058D01*
X30378Y78462D01*
X29607Y78615D01*
X28835Y78462D01*
X28181Y78025D01*
X27743Y77370D01*
X27590Y76598D01*
X27743Y75827D01*
X28181Y75172D01*
X28835Y74735D01*
X28869Y74729D01*
X29247Y74143D01*
X29184Y73827D01*
X29338Y73055D01*
X29775Y72401D01*
X30429Y71964D01*
X31201Y71810D01*
X31973Y71964D01*
X32627Y72401D01*
X32819Y72689D01*
X33421D01*
X33613Y72401D01*
X34268Y71964D01*
X35039Y71810D01*
X35811Y71964D01*
X36465Y72401D01*
X36531Y72499D01*
X37031D01*
X37097Y72401D01*
X37751Y71964D01*
X38196Y71875D01*
X38294Y71638D01*
X38141Y70866D01*
X38294Y70094D01*
X38732Y69440D01*
X39386Y69003D01*
X40157Y68849D01*
X40929Y69003D01*
X41583Y69440D01*
X42021Y70094D01*
X42174Y70866D01*
X42021Y71638D01*
X41583Y72292D01*
X40929Y72729D01*
X40485Y72818D01*
X40387Y73055D01*
X40540Y73827D01*
X40387Y74598D01*
X40396Y74622D01*
X40963Y74735D01*
X41618Y75172D01*
X42055Y75827D01*
X42208Y76598D01*
X42165Y76817D01*
X42534Y77322D01*
X42819Y77350D01*
X43180Y77009D01*
Y69488D01*
X42323D01*
Y64370D01*
X44725D01*
X44932Y63870D01*
X43984Y62923D01*
X26636D01*
X25127Y64432D01*
Y67678D01*
X25485Y68213D01*
X25639Y68985D01*
X25485Y69757D01*
X25048Y70411D01*
X24394Y70848D01*
X23622Y71002D01*
X22850Y70848D01*
X22196Y70411D01*
X21759Y69757D01*
X21605Y68985D01*
X21759Y68213D01*
X22117Y67678D01*
Y63808D01*
X22121Y63786D01*
X21660Y63539D01*
X17737Y67463D01*
X17611Y68095D01*
X17174Y68749D01*
X16520Y69186D01*
X15748Y69340D01*
X14976Y69186D01*
X14322Y68749D01*
X13885Y68095D01*
X13731Y67323D01*
X13885Y66551D01*
X14322Y65897D01*
X14976Y65460D01*
X15608Y65334D01*
X21796Y59146D01*
X21604Y58685D01*
X13984D01*
X13523Y58593D01*
X13132Y58332D01*
X13132Y58332D01*
X12637Y57836D01*
X12205Y57922D01*
X11433Y57769D01*
X10779Y57332D01*
X10341Y56677D01*
X10188Y55905D01*
X10341Y55134D01*
X10748Y54526D01*
X10694Y54306D01*
X10558Y54026D01*
X6053D01*
X5458Y53908D01*
X4953Y53570D01*
X4616Y53066D01*
X4498Y52470D01*
Y50994D01*
X4616Y50399D01*
X4953Y49894D01*
X5458Y49557D01*
X5809Y49487D01*
Y48977D01*
X5458Y48908D01*
X4953Y48570D01*
X4616Y48066D01*
X4498Y47471D01*
Y45994D01*
X4616Y45399D01*
X4953Y44894D01*
X5458Y44557D01*
X6053Y44439D01*
X14419D01*
X15014Y44557D01*
X15519Y44894D01*
X15856Y45399D01*
X15975Y45994D01*
Y47471D01*
X15856Y48066D01*
X15519Y48570D01*
X15014Y48908D01*
X14663Y48977D01*
Y49487D01*
X15014Y49557D01*
X15519Y49894D01*
X15856Y50399D01*
X15975Y50994D01*
Y52470D01*
X15856Y53066D01*
X15519Y53570D01*
X15014Y53908D01*
X14419Y54026D01*
X13852D01*
X13715Y54306D01*
X13662Y54526D01*
X14068Y55134D01*
X14221Y55905D01*
X14572Y56276D01*
X23517D01*
X24386Y55407D01*
Y54026D01*
X21407D01*
X20812Y53908D01*
X20308Y53570D01*
X19970Y53066D01*
X19852Y52470D01*
Y50994D01*
X19970Y50399D01*
X20308Y49894D01*
X20812Y49557D01*
X21163Y49487D01*
Y48977D01*
X20812Y48908D01*
X20308Y48570D01*
X19970Y48066D01*
X19852Y47471D01*
Y45994D01*
X19970Y45399D01*
X20308Y44894D01*
X20812Y44557D01*
X21163Y44487D01*
Y43977D01*
X20812Y43907D01*
X20308Y43570D01*
X19970Y43066D01*
X19852Y42470D01*
Y40994D01*
X19970Y40399D01*
X20308Y39894D01*
X20812Y39557D01*
X21163Y39487D01*
Y38977D01*
X20812Y38908D01*
X20308Y38570D01*
X20128Y38301D01*
X19202D01*
X19054Y38523D01*
X18399Y38960D01*
X17628Y39113D01*
X16856Y38960D01*
X16202Y38523D01*
X15765Y37868D01*
X15611Y37097D01*
X15765Y36325D01*
X16202Y35671D01*
X16856Y35233D01*
X17628Y35080D01*
X18399Y35233D01*
X19054Y35671D01*
X19202Y35892D01*
X19872D01*
X19970Y35399D01*
X20308Y34894D01*
X20812Y34557D01*
X21163Y34487D01*
Y33977D01*
X20812Y33907D01*
X20308Y33570D01*
X19970Y33066D01*
X19852Y32471D01*
Y30994D01*
X19970Y30399D01*
X20308Y29894D01*
X20812Y29557D01*
X21407Y29439D01*
X29774D01*
X30369Y29557D01*
X30874Y29894D01*
X31211Y30399D01*
X31329Y30994D01*
Y32136D01*
X31704Y32512D01*
X33056D01*
X33292Y32071D01*
X33176Y31898D01*
X33023Y31126D01*
X33176Y30354D01*
X33613Y29700D01*
X34268Y29263D01*
X35039Y29109D01*
X35811Y29263D01*
X36465Y29700D01*
X36903Y30354D01*
X37056Y31126D01*
X36903Y31898D01*
X36787Y32071D01*
X37023Y32512D01*
X39129D01*
X39129Y32512D01*
X39590Y32603D01*
X39981Y32864D01*
X47466Y40350D01*
X63648D01*
X64964Y39033D01*
X64912Y38772D01*
X65066Y38000D01*
X65503Y37346D01*
X66157Y36909D01*
X66929Y36755D01*
X67701Y36909D01*
X68355Y37346D01*
X68792Y38000D01*
X68946Y38772D01*
X68792Y39544D01*
X68355Y40198D01*
X67701Y40635D01*
X66929Y40789D01*
X66667Y40736D01*
X66130Y41274D01*
X66322Y41736D01*
X113003D01*
X113097Y41263D01*
X113535Y40609D01*
X114189Y40172D01*
X114961Y40018D01*
X115052Y40036D01*
X115298Y39575D01*
X112308Y36585D01*
X112045Y36192D01*
X111953Y35729D01*
X111953Y35729D01*
Y26373D01*
X111738Y26229D01*
X111301Y25575D01*
X111147Y24803D01*
X111301Y24031D01*
X111738Y23377D01*
X112145Y23105D01*
X112245Y22498D01*
X106705Y16959D01*
X99208D01*
X99064Y17174D01*
X98409Y17611D01*
X97638Y17765D01*
X96866Y17611D01*
X96212Y17174D01*
X95774Y16520D01*
X95621Y15748D01*
X95716Y15268D01*
X95358Y14768D01*
X92250D01*
X91532Y15486D01*
X91584Y15748D01*
X91430Y16520D01*
X90993Y17174D01*
X90339Y17611D01*
X89567Y17765D01*
X88795Y17611D01*
X88141Y17174D01*
X87704Y16520D01*
X87550Y15748D01*
X87704Y14976D01*
X88141Y14322D01*
X88795Y13885D01*
X89567Y13731D01*
X89828Y13783D01*
X90900Y12712D01*
X90900Y12712D01*
X91290Y12451D01*
X91751Y12359D01*
X91751Y12359D01*
X106991D01*
X106991Y12359D01*
X107452Y12451D01*
X107548Y12515D01*
X108048Y12248D01*
Y7480D01*
X107826Y7332D01*
X107389Y6677D01*
X107235Y5906D01*
X107331Y5426D01*
X106972Y4925D01*
X103864D01*
X103146Y5644D01*
X103198Y5906D01*
X103044Y6677D01*
X102607Y7332D01*
X101953Y7769D01*
X101181Y7922D01*
X100409Y7769D01*
X99755Y7332D01*
X99318Y6677D01*
X99164Y5906D01*
X99318Y5134D01*
X99755Y4479D01*
X100409Y4042D01*
X101035Y3918D01*
X101066Y3878D01*
X100819Y3378D01*
X89861D01*
X87595Y5644D01*
X87647Y5906D01*
X87493Y6677D01*
X87056Y7332D01*
X86402Y7769D01*
X85630Y7922D01*
X84858Y7769D01*
X84204Y7332D01*
X83767Y6677D01*
X83613Y5906D01*
X83767Y5134D01*
X84204Y4479D01*
X84858Y4042D01*
X85630Y3889D01*
X85891Y3941D01*
X87363Y2469D01*
X87172Y2007D01*
X60756D01*
X60608Y2124D01*
X60377Y2507D01*
X60404Y2643D01*
Y2675D01*
X60400Y2692D01*
X60404Y2708D01*
Y2741D01*
X60401Y2757D01*
X60437Y2938D01*
Y2971D01*
X60433Y2987D01*
X60437Y3004D01*
Y3036D01*
X60433Y3053D01*
X60437Y3069D01*
Y3102D01*
X60427Y3151D01*
X60437Y3201D01*
Y3233D01*
X60401Y3414D01*
X60404Y3430D01*
Y3463D01*
X60368Y3644D01*
X60371Y3660D01*
Y3693D01*
X60310Y4000D01*
X60291Y4028D01*
X60277Y4099D01*
X60258Y4127D01*
X60244Y4197D01*
X60225Y4225D01*
X60211Y4296D01*
X60146Y4394D01*
X60146Y4394D01*
X60118Y4436D01*
X60113Y4460D01*
X60019Y4600D01*
X60014Y4624D01*
X59840Y4884D01*
X59821Y4897D01*
X59676Y5114D01*
X59637Y5141D01*
X59611Y5180D01*
X59571Y5206D01*
X59545Y5246D01*
X59525Y5259D01*
X59512Y5278D01*
X59492Y5292D01*
X59479Y5311D01*
X59460Y5324D01*
X59446Y5344D01*
X59427Y5357D01*
X59414Y5377D01*
X59374Y5403D01*
X59348Y5443D01*
X59309Y5469D01*
X59282Y5508D01*
X59065Y5653D01*
X59052Y5672D01*
X59033Y5686D01*
X59020Y5705D01*
X58759Y5879D01*
X58712Y5889D01*
X58628Y5945D01*
X58627Y5945D01*
X58431Y6076D01*
X58384Y6086D01*
X58300Y6142D01*
X58253Y6151D01*
X58168Y6208D01*
X58121Y6217D01*
X58037Y6273D01*
X57990Y6283D01*
X57906Y6339D01*
X57835Y6353D01*
X57807Y6372D01*
X57737Y6386D01*
X57709Y6404D01*
X57662Y6414D01*
X57577Y6470D01*
X57437Y6498D01*
X57380Y6536D01*
X57310Y6550D01*
X57282Y6569D01*
X57212Y6583D01*
X57183Y6601D01*
X57043Y6629D01*
X56986Y6667D01*
X56752Y6714D01*
X56724Y6733D01*
X56417Y6794D01*
X56402D01*
X56396Y6798D01*
X56232Y6831D01*
X56231Y6831D01*
X56161Y6845D01*
X56133Y6864D01*
X55826Y6925D01*
X55812D01*
X55805Y6930D01*
X55497Y6991D01*
X55483D01*
X55476Y6995D01*
X55169Y7057D01*
X55155D01*
X55148Y7061D01*
X54841Y7122D01*
X54827D01*
X54820Y7127D01*
X54513Y7188D01*
X54480D01*
X54464Y7185D01*
X54426Y7192D01*
X54426Y7192D01*
X54119Y7253D01*
X54086D01*
X54069Y7250D01*
X54053Y7253D01*
X54039D01*
X54032Y7258D01*
X53725Y7319D01*
X53692D01*
X53676Y7316D01*
X53659Y7319D01*
X53626D01*
X53610Y7316D01*
X53593Y7319D01*
X53528D01*
X53364Y7352D01*
X53331D01*
X53315Y7349D01*
X53134Y7385D01*
X53101D01*
X53084Y7382D01*
X53068Y7385D01*
X53035D01*
X53019Y7382D01*
X53003Y7385D01*
X52938D01*
X52773Y7418D01*
X52740D01*
X52724Y7414D01*
X52543Y7450D01*
X52510D01*
X52494Y7447D01*
X52477Y7450D01*
X52444D01*
X52428Y7447D01*
X52412Y7450D01*
X52379D01*
X52362Y7447D01*
X52346Y7450D01*
X52215D01*
X52051Y7483D01*
X52018D01*
X52001Y7480D01*
X51985Y7483D01*
X51952D01*
X51936Y7480D01*
X51755Y7516D01*
X51722D01*
X51706Y7513D01*
X51689Y7516D01*
X51657D01*
X51640Y7513D01*
X51624Y7516D01*
X51591D01*
X51574Y7513D01*
X51558Y7516D01*
X51362D01*
X51197Y7549D01*
X51164D01*
X51148Y7546D01*
X50967Y7582D01*
X50934D01*
X50918Y7579D01*
X50902Y7582D01*
X50869D01*
X50852Y7578D01*
X50836Y7582D01*
X50803D01*
X50787Y7578D01*
X50770Y7582D01*
X50737D01*
X50721Y7579D01*
X50704Y7582D01*
X50672D01*
X50655Y7578D01*
X50639Y7582D01*
X50296D01*
X50289Y7586D01*
X50219Y7600D01*
X50191Y7619D01*
X50167Y7624D01*
X50027Y7718D01*
X49980Y7727D01*
X49896Y7783D01*
X49848Y7793D01*
X49764Y7849D01*
X49717Y7858D01*
X49633Y7914D01*
X49632Y7915D01*
X49436Y8046D01*
X49366Y8060D01*
X49338Y8079D01*
X49314Y8083D01*
X49173Y8177D01*
X49103Y8191D01*
X49075Y8210D01*
X49051Y8215D01*
X48911Y8309D01*
X48840Y8322D01*
X48812Y8341D01*
X48765Y8351D01*
X48681Y8407D01*
X48611Y8421D01*
X48582Y8440D01*
X48535Y8449D01*
X48451Y8506D01*
X48404Y8515D01*
X48320Y8571D01*
X48273Y8580D01*
X48188Y8637D01*
X48118Y8651D01*
X48090Y8670D01*
X48020Y8684D01*
X47991Y8702D01*
X47944Y8712D01*
X47860Y8768D01*
X47813Y8777D01*
X47729Y8834D01*
X47588Y8862D01*
X47532Y8899D01*
X47485Y8909D01*
X47401Y8965D01*
X47260Y8993D01*
X47204Y9031D01*
X47157Y9040D01*
X47072Y9096D01*
X47002Y9110D01*
X46974Y9129D01*
X46903Y9143D01*
X46875Y9162D01*
X46828Y9171D01*
X46744Y9228D01*
X46604Y9256D01*
X46547Y9293D01*
X46500Y9303D01*
X46416Y9359D01*
X46345Y9373D01*
X46317Y9392D01*
X46247Y9406D01*
X46219Y9425D01*
X46148Y9439D01*
X46120Y9458D01*
X46050Y9471D01*
X46022Y9490D01*
X45975Y9500D01*
X45891Y9556D01*
X45843Y9565D01*
X45759Y9622D01*
X45619Y9650D01*
X45562Y9687D01*
X45492Y9701D01*
X45464Y9720D01*
X45393Y9734D01*
X45365Y9753D01*
X45295Y9767D01*
X45267Y9786D01*
X45197Y9800D01*
X45168Y9819D01*
X45121Y9828D01*
X45037Y9884D01*
X44896Y9912D01*
X44840Y9950D01*
X44770Y9964D01*
X44741Y9983D01*
X44671Y9997D01*
X44643Y10016D01*
X44596Y10025D01*
X44512Y10081D01*
X44371Y10109D01*
X44315Y10147D01*
X44151Y10179D01*
X44151Y10180D01*
X44080Y10194D01*
X44052Y10212D01*
X43888Y10245D01*
X43888Y10245D01*
X43818Y10259D01*
X43789Y10278D01*
X43719Y10292D01*
X43691Y10311D01*
X43621Y10325D01*
X43593Y10344D01*
X43429Y10376D01*
X43428Y10377D01*
X43358Y10391D01*
X43330Y10409D01*
X43166Y10442D01*
X43166Y10442D01*
X43095Y10456D01*
X43067Y10475D01*
X42760Y10536D01*
X42746D01*
X42739Y10541D01*
X42575Y10573D01*
X42575Y10574D01*
X42411Y10606D01*
X42411Y10606D01*
X42247Y10639D01*
X42247Y10639D01*
X42083Y10672D01*
X42082Y10672D01*
X41775Y10733D01*
X41761D01*
X41754Y10738D01*
X41447Y10799D01*
X41414D01*
X41398Y10796D01*
X41361Y10803D01*
X41360Y10803D01*
X41053Y10864D01*
X41020D01*
X41004Y10861D01*
X40987Y10864D01*
X40922D01*
X40901Y10869D01*
X40901Y10869D01*
X40593Y10930D01*
X40560D01*
X40544Y10927D01*
X40528Y10930D01*
X40463D01*
X40298Y10963D01*
X40265D01*
X40249Y10960D01*
X40068Y10996D01*
X40035D01*
X40019Y10993D01*
X40002Y10996D01*
X39970D01*
X39953Y10993D01*
X39937Y10996D01*
X39872D01*
X39707Y11029D01*
X39674D01*
X39658Y11026D01*
X39477Y11062D01*
X39444D01*
X39395Y11052D01*
X39346Y11062D01*
X39313D01*
X39297Y11058D01*
X39280Y11062D01*
X39247D01*
X39231Y11058D01*
X39215Y11062D01*
X39018D01*
X38853Y11094D01*
X38821D01*
X38804Y11091D01*
X38788Y11094D01*
X38755D01*
X38739Y11091D01*
X38722Y11094D01*
X38689D01*
X38673Y11091D01*
X38492Y11127D01*
X38460D01*
X38443Y11124D01*
X38427Y11127D01*
X38394D01*
X38377Y11124D01*
X38361Y11127D01*
X38328D01*
X38312Y11124D01*
X38295Y11127D01*
X38263D01*
X38246Y11124D01*
X38230Y11127D01*
X38197D01*
X38181Y11124D01*
X38164Y11127D01*
X38131D01*
X38115Y11124D01*
X38098Y11127D01*
X38000D01*
X37984Y11124D01*
X37967Y11127D01*
X36949D01*
X36933Y11124D01*
X36917Y11127D01*
X36818D01*
X36802Y11124D01*
X36785Y11127D01*
X36687D01*
X36670Y11124D01*
X36654Y11127D01*
X36621D01*
X36605Y11124D01*
X36588Y11127D01*
X36555D01*
X36539Y11124D01*
X36523Y11127D01*
X36490D01*
X36473Y11124D01*
X36457Y11127D01*
X36424D01*
X36408Y11124D01*
X36391Y11127D01*
X36358D01*
X36178Y11091D01*
X36162Y11094D01*
X36129D01*
X36112Y11091D01*
X36096Y11094D01*
X36063D01*
X36047Y11091D01*
X36030Y11094D01*
X35997D01*
X35981Y11091D01*
X35965Y11094D01*
X35932D01*
X35767Y11062D01*
X35571D01*
X35554Y11058D01*
X35538Y11062D01*
X35505D01*
X35489Y11058D01*
X35472Y11062D01*
X35439D01*
X35258Y11026D01*
X35242Y11029D01*
X35210D01*
X35045Y10996D01*
X34914D01*
X34898Y10993D01*
X34881Y10996D01*
X34848D01*
X34832Y10993D01*
X34816Y10996D01*
X34783D01*
X34475Y10935D01*
X34475Y10934D01*
X34454Y10930D01*
X34389D01*
X34372Y10927D01*
X34356Y10930D01*
X34323D01*
X34240Y10914D01*
X34070Y11069D01*
X33892Y11323D01*
X33889Y11333D01*
X33889Y11365D01*
X34020Y12027D01*
X33867Y12799D01*
X33430Y13453D01*
X32775Y13891D01*
X32004Y14044D01*
X31232Y13891D01*
X30578Y13453D01*
X30140Y12799D01*
X29987Y12027D01*
X30140Y11256D01*
X30509Y10704D01*
X30514Y10678D01*
X30429Y10328D01*
X30338Y10160D01*
X30274Y10147D01*
X30217Y10109D01*
X30077Y10081D01*
X30076Y10081D01*
X29912Y10048D01*
X29912Y10048D01*
X29748Y10016D01*
X29720Y9997D01*
X29650Y9983D01*
X29649Y9983D01*
X29486Y9950D01*
X29457Y9931D01*
X29387Y9917D01*
X29387Y9917D01*
X29223Y9884D01*
X29195Y9865D01*
X29125Y9851D01*
X29124Y9851D01*
X28960Y9819D01*
X28932Y9800D01*
X28862Y9786D01*
X28861Y9786D01*
X28698Y9753D01*
X28641Y9715D01*
X28501Y9687D01*
X28473Y9668D01*
X28402Y9654D01*
X28402Y9654D01*
X28238Y9622D01*
X28210Y9603D01*
X28140Y9589D01*
X28139Y9589D01*
X27975Y9556D01*
X27919Y9518D01*
X27779Y9490D01*
X27750Y9471D01*
X27680Y9458D01*
X27680Y9457D01*
X27516Y9425D01*
X27488Y9406D01*
X27417Y9392D01*
X27417Y9392D01*
X27253Y9359D01*
X27197Y9321D01*
X27056Y9293D01*
X27028Y9274D01*
X26958Y9261D01*
X26930Y9242D01*
X26859Y9228D01*
X26831Y9209D01*
X26761Y9195D01*
X26760Y9195D01*
X26597Y9162D01*
X26568Y9143D01*
X26498Y9129D01*
X26498Y9129D01*
X26334Y9096D01*
X26278Y9059D01*
X26137Y9031D01*
X26081Y8993D01*
X25940Y8965D01*
X25912Y8946D01*
X25842Y8932D01*
X25813Y8913D01*
X25743Y8899D01*
X25715Y8880D01*
X25645Y8867D01*
X25644Y8866D01*
X25480Y8834D01*
X25452Y8815D01*
X25382Y8801D01*
X25382Y8801D01*
X25218Y8768D01*
X25161Y8730D01*
X25021Y8702D01*
X24964Y8665D01*
X24824Y8637D01*
X24796Y8618D01*
X24725Y8604D01*
X24697Y8585D01*
X24627Y8571D01*
X24599Y8552D01*
X24529Y8538D01*
X24528Y8538D01*
X24364Y8506D01*
X24336Y8487D01*
X24266Y8473D01*
X24238Y8454D01*
X24167Y8440D01*
X24139Y8421D01*
X24069Y8407D01*
X24041Y8388D01*
X23970Y8374D01*
X23942Y8355D01*
X23872Y8341D01*
X23872Y8341D01*
X23708Y8309D01*
X23651Y8271D01*
X23511Y8243D01*
X23454Y8205D01*
X23314Y8177D01*
X23257Y8140D01*
X23117Y8111D01*
X23061Y8074D01*
X22920Y8046D01*
X22659Y7872D01*
X22646Y7852D01*
X22627Y7839D01*
X22453Y7579D01*
X22391Y7271D01*
Y7238D01*
X22413Y7128D01*
X22397Y7117D01*
X22223Y6856D01*
X22162Y6549D01*
Y6418D01*
X22165Y6401D01*
X22162Y6385D01*
Y6352D01*
X22165Y6336D01*
X22162Y6319D01*
Y6286D01*
X22165Y6270D01*
X22162Y6254D01*
Y6221D01*
X22198Y6040D01*
X22195Y6024D01*
Y5991D01*
X22230Y5810D01*
X22227Y5794D01*
Y5761D01*
X22231Y5745D01*
X22227Y5728D01*
Y5696D01*
X22288Y5388D01*
X22289Y5388D01*
X22296Y5350D01*
X22293Y5334D01*
Y5302D01*
X22296Y5285D01*
X22293Y5269D01*
Y5236D01*
X22296Y5220D01*
X22293Y5203D01*
Y5170D01*
X22354Y4863D01*
X22354Y4863D01*
X22362Y4825D01*
X22359Y4809D01*
Y4776D01*
X22362Y4760D01*
X22359Y4744D01*
Y4711D01*
X22391Y4546D01*
Y4481D01*
X22427Y4300D01*
X22424Y4284D01*
Y4251D01*
X22428Y4235D01*
X22424Y4218D01*
Y4185D01*
X22428Y4169D01*
X22424Y4153D01*
Y4120D01*
X22485Y3813D01*
X22490Y3806D01*
Y3791D01*
X22493Y3775D01*
X22490Y3759D01*
Y3726D01*
X22493Y3709D01*
X22490Y3693D01*
Y3660D01*
X22526Y3479D01*
X22523Y3463D01*
Y3430D01*
X22559Y3249D01*
X22556Y3233D01*
Y3201D01*
X22565Y3151D01*
X22556Y3102D01*
Y3069D01*
X22617Y2762D01*
X22621Y2755D01*
Y2741D01*
X22668Y2507D01*
X22580Y2295D01*
X22366Y2007D01*
X2007D01*
Y115993D01*
X135993D01*
Y50052D01*
D02*
G37*
G36*
X45808Y85929D02*
X46221Y85516D01*
Y79606D01*
X46374Y78838D01*
X46809Y78187D01*
X47460Y77752D01*
X48228Y77599D01*
X50203D01*
X50266Y77535D01*
Y69488D01*
X49409D01*
Y67077D01*
X49160Y66911D01*
X48564Y66315D01*
X48228Y66161D01*
X47893Y66315D01*
X47297Y66911D01*
X47047Y67077D01*
Y69488D01*
X46190D01*
Y77638D01*
X46076Y78214D01*
X45750Y78702D01*
X44685Y79767D01*
Y85478D01*
X45137Y85929D01*
X45472Y86083D01*
X45808Y85929D01*
D02*
G37*
G36*
X36885Y41119D02*
X36916Y40960D01*
X37354Y40306D01*
X38008Y39869D01*
X38780Y39716D01*
X39551Y39869D01*
X39645Y39931D01*
X40200Y39701D01*
X40263Y39386D01*
X40700Y38732D01*
X41320Y38317D01*
X41396Y38225D01*
X41522Y37811D01*
X38630Y34920D01*
X31492D01*
X31211Y35399D01*
X31329Y35994D01*
Y37470D01*
X31211Y38066D01*
X30874Y38570D01*
X30369Y38908D01*
X30018Y38977D01*
Y39487D01*
X30369Y39557D01*
X30874Y39894D01*
X31211Y40399D01*
X31236Y40528D01*
X35172D01*
X35172Y40528D01*
X35633Y40620D01*
X36023Y40881D01*
X36406Y41264D01*
X36885Y41119D01*
D02*
G37*
G36*
X129070Y50330D02*
X129070Y50330D01*
X129460Y50068D01*
X129921Y49977D01*
X132009D01*
X134445Y47541D01*
Y44378D01*
X134380Y44282D01*
X134289Y43821D01*
X134289Y43821D01*
Y38645D01*
X126863Y31219D01*
X126401Y31410D01*
Y44882D01*
X128347D01*
Y49606D01*
X124488D01*
Y52756D01*
X126643D01*
X129070Y50330D01*
D02*
G37*
G36*
X38492Y10291D02*
X38525D01*
Y10259D01*
X38558D01*
Y10291D01*
X38656D01*
Y10259D01*
X38689D01*
Y10291D01*
X38722D01*
Y10259D01*
X38755D01*
Y10291D01*
X38788D01*
Y10259D01*
X38821D01*
Y10291D01*
X38853D01*
Y10259D01*
X39215D01*
Y10226D01*
X39247D01*
Y10259D01*
X39280D01*
Y10226D01*
X39313D01*
Y10259D01*
X39346D01*
Y10226D01*
X39444D01*
Y10259D01*
X39477D01*
Y10226D01*
X39510D01*
Y10193D01*
X39543D01*
Y10226D01*
X39576D01*
Y10193D01*
X39608D01*
Y10226D01*
X39641D01*
Y10193D01*
X39674D01*
Y10226D01*
X39707D01*
Y10193D01*
X39937D01*
Y10160D01*
X39970D01*
Y10193D01*
X40002D01*
Y10160D01*
X40035D01*
Y10193D01*
X40068D01*
Y10160D01*
X40167D01*
Y10127D01*
X40199D01*
Y10160D01*
X40232D01*
Y10127D01*
X40265D01*
Y10160D01*
X40298D01*
Y10127D01*
X40528D01*
Y10095D01*
X40560D01*
Y10127D01*
X40593D01*
Y10095D01*
X40692D01*
Y10062D01*
X40725D01*
Y10095D01*
X40758D01*
Y10062D01*
X40987D01*
Y10029D01*
X41020D01*
Y10062D01*
X41053D01*
Y10029D01*
X41151D01*
Y9996D01*
X41184D01*
Y10029D01*
X41217D01*
Y9996D01*
X41381D01*
Y9963D01*
X41414D01*
Y9996D01*
X41447D01*
Y9963D01*
X41480D01*
Y9930D01*
X41513D01*
Y9963D01*
X41545D01*
Y9930D01*
X41775D01*
Y9898D01*
X41874D01*
Y9865D01*
X41906D01*
Y9898D01*
X41939D01*
Y9865D01*
X42103D01*
Y9832D01*
X42136D01*
Y9799D01*
X42169D01*
Y9832D01*
X42202D01*
Y9799D01*
X42235D01*
Y9832D01*
X42268D01*
Y9799D01*
X42432D01*
Y9766D01*
X42465D01*
Y9734D01*
X42497D01*
Y9766D01*
X42530D01*
Y9734D01*
X42694D01*
Y9701D01*
X42727D01*
Y9734D01*
X42760D01*
Y9701D01*
X42793D01*
Y9668D01*
X42826D01*
Y9701D01*
X42858D01*
Y9668D01*
X42957D01*
Y9635D01*
X42990D01*
Y9668D01*
X43023D01*
Y9635D01*
X43121D01*
Y9602D01*
X43220D01*
Y9569D01*
X43252D01*
Y9602D01*
X43285D01*
Y9569D01*
X43318D01*
Y9537D01*
X43351D01*
Y9569D01*
X43384D01*
Y9537D01*
X43482D01*
Y9504D01*
X43581D01*
Y9471D01*
X43679D01*
Y9438D01*
X43712D01*
Y9471D01*
X43745D01*
Y9438D01*
X43778D01*
Y9405D01*
X43810D01*
Y9438D01*
X43843D01*
Y9405D01*
X43942D01*
Y9372D01*
X43975D01*
Y9405D01*
X44008D01*
Y9372D01*
X44040D01*
Y9340D01*
X44139D01*
Y9307D01*
X44172D01*
Y9340D01*
X44205D01*
Y9307D01*
X44237D01*
Y9274D01*
X44336D01*
Y9241D01*
X44434D01*
Y9208D01*
X44533D01*
Y9175D01*
X44566D01*
Y9143D01*
X44664D01*
Y9110D01*
X44697D01*
Y9143D01*
X44730D01*
Y9110D01*
X44763D01*
Y9077D01*
X44861D01*
Y9044D01*
X44894D01*
Y9011D01*
X44927D01*
Y9044D01*
X44960D01*
Y9011D01*
X45058D01*
Y8978D01*
X45091D01*
Y8946D01*
X45124D01*
Y8978D01*
X45156D01*
Y8946D01*
X45189D01*
Y8913D01*
X45222D01*
Y8946D01*
X45255D01*
Y8913D01*
X45288D01*
Y8880D01*
X45386D01*
Y8847D01*
X45419D01*
Y8880D01*
X45452D01*
Y8847D01*
X45485D01*
Y8814D01*
X45583D01*
Y8781D01*
X45616D01*
Y8749D01*
X45715D01*
Y8716D01*
X45813D01*
Y8683D01*
X45911D01*
Y8650D01*
X45944D01*
Y8617D01*
X45977D01*
Y8650D01*
X46010D01*
Y8617D01*
X46108D01*
Y8584D01*
X46141D01*
Y8552D01*
X46240D01*
Y8519D01*
X46273D01*
Y8486D01*
X46371D01*
Y8453D01*
X46404D01*
Y8486D01*
X46437D01*
Y8453D01*
X46470D01*
Y8420D01*
X46568D01*
Y8388D01*
X46601D01*
Y8355D01*
X46634D01*
Y8388D01*
X46667D01*
Y8355D01*
X46765D01*
Y8322D01*
X46798D01*
Y8289D01*
X46896D01*
Y8256D01*
X46929D01*
Y8223D01*
X47028D01*
Y8190D01*
X47060D01*
Y8223D01*
X47093D01*
Y8190D01*
X47126D01*
Y8158D01*
X47225D01*
Y8125D01*
X47258D01*
Y8092D01*
X47356D01*
Y8059D01*
X47389D01*
Y8092D01*
X47422D01*
Y8059D01*
X47455D01*
Y8026D01*
X47553D01*
Y7993D01*
X47586D01*
Y7961D01*
X47684D01*
Y7928D01*
X47717D01*
Y7895D01*
X47750D01*
Y7928D01*
X47783D01*
Y7895D01*
X47816D01*
Y7862D01*
X47848D01*
Y7895D01*
X47881D01*
Y7862D01*
X47914D01*
Y7829D01*
X48013D01*
Y7797D01*
X48045D01*
Y7764D01*
X48144D01*
Y7731D01*
X48177D01*
Y7698D01*
X48275D01*
Y7665D01*
X48308D01*
Y7632D01*
X48341D01*
Y7665D01*
X48374D01*
Y7632D01*
X48406D01*
Y7600D01*
X48439D01*
Y7567D01*
X48472D01*
Y7600D01*
X48505D01*
Y7567D01*
X48603D01*
Y7534D01*
X48636D01*
Y7501D01*
X48669D01*
Y7468D01*
X48768D01*
Y7435D01*
X48866D01*
Y7403D01*
X48899D01*
Y7370D01*
X48932D01*
Y7337D01*
X48965D01*
Y7304D01*
X48997D01*
Y7337D01*
X49030D01*
Y7304D01*
X49063D01*
Y7271D01*
X49096D01*
Y7304D01*
X49129D01*
Y7271D01*
Y7238D01*
X49194D01*
Y7206D01*
X49227D01*
Y7173D01*
X49326D01*
Y7140D01*
X49358D01*
Y7107D01*
X49457D01*
Y7074D01*
X49490D01*
Y7041D01*
X49588D01*
Y7009D01*
X49621D01*
Y6976D01*
X49720D01*
Y6943D01*
X49753D01*
Y6910D01*
X49785D01*
Y6877D01*
X49884D01*
Y6844D01*
X49917D01*
Y6812D01*
X49949D01*
Y6844D01*
X49982D01*
Y6812D01*
Y6779D01*
X50639D01*
Y6746D01*
X50672D01*
Y6779D01*
X50704D01*
Y6746D01*
X50737D01*
Y6779D01*
X50770D01*
Y6746D01*
X50803D01*
Y6779D01*
X50836D01*
Y6746D01*
X50869D01*
Y6779D01*
X50902D01*
Y6746D01*
X50934D01*
Y6779D01*
X50967D01*
Y6746D01*
X51000D01*
Y6713D01*
X51033D01*
Y6746D01*
X51066D01*
Y6713D01*
X51098D01*
Y6746D01*
X51131D01*
Y6713D01*
X51164D01*
Y6746D01*
X51197D01*
Y6713D01*
X51558D01*
Y6680D01*
X51591D01*
Y6713D01*
X51624D01*
Y6680D01*
X51657D01*
Y6713D01*
X51689D01*
Y6680D01*
X51722D01*
Y6713D01*
X51755D01*
Y6680D01*
X51854D01*
Y6648D01*
X51886D01*
Y6680D01*
X51919D01*
Y6648D01*
X51952D01*
Y6680D01*
X51985D01*
Y6648D01*
X52018D01*
Y6680D01*
X52051D01*
Y6648D01*
X52346D01*
Y6615D01*
X52379D01*
Y6648D01*
X52412D01*
Y6615D01*
X52444D01*
Y6648D01*
X52477D01*
Y6615D01*
X52510D01*
Y6648D01*
X52543D01*
Y6615D01*
X52576D01*
Y6582D01*
X52609D01*
Y6615D01*
X52641D01*
Y6582D01*
X52674D01*
Y6615D01*
X52707D01*
Y6582D01*
X52740D01*
Y6615D01*
X52773D01*
Y6582D01*
X53003D01*
Y6549D01*
X53035D01*
Y6582D01*
X53068D01*
Y6549D01*
X53101D01*
Y6582D01*
X53134D01*
Y6549D01*
X53232D01*
Y6516D01*
X53265D01*
Y6549D01*
X53298D01*
Y6516D01*
X53331D01*
Y6549D01*
X53364D01*
Y6516D01*
X53593D01*
Y6483D01*
X53626D01*
Y6516D01*
X53659D01*
Y6483D01*
X53692D01*
Y6516D01*
X53725D01*
Y6483D01*
X53758D01*
Y6451D01*
X53790D01*
Y6483D01*
X53823D01*
Y6451D01*
X54053D01*
Y6418D01*
X54086D01*
Y6451D01*
X54119D01*
Y6418D01*
X54151D01*
Y6385D01*
X54184D01*
Y6418D01*
X54217D01*
Y6385D01*
X54250D01*
Y6418D01*
X54283D01*
Y6385D01*
X54381D01*
Y6352D01*
X54414D01*
Y6385D01*
X54447D01*
Y6352D01*
X54480D01*
Y6385D01*
X54513D01*
Y6352D01*
X54545D01*
Y6319D01*
X54578D01*
Y6352D01*
X54611D01*
Y6319D01*
X54775D01*
Y6286D01*
X54808D01*
Y6319D01*
X54841D01*
Y6286D01*
X54874D01*
Y6254D01*
X54906D01*
Y6286D01*
X54939D01*
Y6254D01*
X55103D01*
Y6221D01*
X55136D01*
Y6254D01*
X55169D01*
Y6221D01*
X55202D01*
Y6188D01*
X55235D01*
Y6221D01*
X55268D01*
Y6188D01*
X55432D01*
Y6155D01*
X55465D01*
Y6188D01*
X55497D01*
Y6155D01*
X55530D01*
Y6122D01*
X55563D01*
Y6155D01*
X55596D01*
Y6122D01*
X55694D01*
Y6089D01*
X55727D01*
Y6122D01*
X55760D01*
Y6089D01*
X55793D01*
Y6122D01*
X55826D01*
Y6089D01*
X55858D01*
Y6057D01*
X55891D01*
Y6089D01*
X55924D01*
Y6057D01*
X56023D01*
Y6024D01*
X56055D01*
Y6057D01*
X56088D01*
Y6024D01*
X56187D01*
Y5991D01*
X56351D01*
Y5958D01*
X56384D01*
Y5991D01*
X56417D01*
Y5958D01*
X56450D01*
Y5925D01*
X56614D01*
Y5892D01*
X56646D01*
Y5925D01*
X56679D01*
Y5892D01*
X56712D01*
Y5860D01*
X56811D01*
Y5827D01*
X56843D01*
Y5860D01*
X56876D01*
Y5827D01*
X56909D01*
Y5794D01*
X56942D01*
Y5827D01*
X56975D01*
Y5794D01*
X57073D01*
Y5761D01*
X57106D01*
Y5728D01*
X57270D01*
Y5696D01*
X57303D01*
Y5663D01*
X57402D01*
Y5630D01*
X57500D01*
Y5597D01*
X57533D01*
Y5564D01*
X57566D01*
Y5597D01*
X57598D01*
Y5564D01*
X57631D01*
Y5531D01*
X57730D01*
Y5499D01*
X57763D01*
Y5466D01*
X57861D01*
Y5433D01*
X57894D01*
Y5400D01*
X57992D01*
Y5367D01*
X58025D01*
Y5334D01*
X58124D01*
Y5302D01*
X58157D01*
Y5269D01*
X58189D01*
Y5236D01*
X58255D01*
Y5203D01*
X58321D01*
Y5170D01*
X58354D01*
Y5138D01*
X58452D01*
Y5105D01*
X58485D01*
Y5072D01*
X58518D01*
Y5039D01*
X58551D01*
Y5006D01*
X58583D01*
Y4973D01*
X58616D01*
Y4941D01*
X58715D01*
Y4908D01*
Y4875D01*
X58780D01*
Y4842D01*
Y4809D01*
X58846D01*
Y4776D01*
X58879D01*
Y4744D01*
X58912D01*
Y4711D01*
X58944D01*
Y4678D01*
X58977D01*
Y4645D01*
Y4612D01*
X59043D01*
Y4579D01*
Y4547D01*
X59109D01*
Y4514D01*
Y4481D01*
X59141D01*
Y4448D01*
Y4415D01*
X59174D01*
Y4382D01*
X59207D01*
Y4350D01*
X59240D01*
Y4317D01*
X59273D01*
Y4284D01*
Y4251D01*
Y4218D01*
X59306D01*
Y4185D01*
X59338D01*
Y4153D01*
X59371D01*
Y4120D01*
Y4087D01*
X59404D01*
Y4054D01*
Y4021D01*
X59437D01*
Y3988D01*
X59470D01*
Y3956D01*
Y3923D01*
Y3890D01*
X59503D01*
Y3857D01*
Y3824D01*
Y3791D01*
X59535D01*
Y3759D01*
Y3726D01*
Y3693D01*
X59568D01*
Y3660D01*
X59535D01*
Y3627D01*
X59568D01*
Y3594D01*
Y3562D01*
Y3529D01*
Y3496D01*
Y3463D01*
X59601D01*
Y3430D01*
X59568D01*
Y3398D01*
X59601D01*
Y3365D01*
Y3332D01*
Y3299D01*
Y3266D01*
Y3233D01*
X59634D01*
Y3201D01*
X59601D01*
Y3168D01*
Y3135D01*
Y3102D01*
X59634D01*
Y3069D01*
X59601D01*
Y3036D01*
X59634D01*
Y3004D01*
X59601D01*
Y2971D01*
X59634D01*
Y2938D01*
X59601D01*
Y2905D01*
Y2872D01*
Y2840D01*
Y2807D01*
Y2774D01*
X59568D01*
Y2741D01*
X59601D01*
Y2708D01*
X59568D01*
Y2675D01*
X59601D01*
Y2643D01*
X59568D01*
Y2610D01*
Y2577D01*
Y2544D01*
Y2511D01*
Y2478D01*
X59535D01*
Y2446D01*
X59503D01*
Y2478D01*
Y2511D01*
Y2544D01*
X59470D01*
Y2577D01*
X59503D01*
Y2610D01*
X59470D01*
Y2643D01*
X59503D01*
Y2675D01*
X59470D01*
Y2708D01*
X59503D01*
Y2741D01*
X59470D01*
Y2774D01*
Y2807D01*
Y2840D01*
X59437D01*
Y2872D01*
Y2905D01*
Y2938D01*
X59404D01*
Y2971D01*
X59437D01*
Y3004D01*
X59404D01*
Y3036D01*
X59437D01*
Y3069D01*
X59404D01*
Y3102D01*
X59371D01*
Y3135D01*
Y3168D01*
Y3201D01*
X59338D01*
Y3233D01*
X59371D01*
Y3266D01*
X59338D01*
Y3299D01*
X59306D01*
Y3332D01*
Y3365D01*
Y3398D01*
X59273D01*
Y3430D01*
X59306D01*
Y3463D01*
X59273D01*
Y3496D01*
X59240D01*
Y3529D01*
Y3562D01*
Y3594D01*
X59207D01*
Y3627D01*
Y3660D01*
X59174D01*
Y3693D01*
Y3726D01*
X59141D01*
Y3759D01*
X59109D01*
Y3791D01*
Y3824D01*
Y3857D01*
X59076D01*
Y3890D01*
X59043D01*
Y3923D01*
X59010D01*
Y3956D01*
X59043D01*
Y3988D01*
X58977D01*
Y4021D01*
Y4054D01*
X58944D01*
Y4087D01*
X58912D01*
Y4120D01*
X58879D01*
Y4153D01*
X58846D01*
Y4185D01*
X58813D01*
Y4218D01*
Y4251D01*
X58780D01*
Y4284D01*
Y4317D01*
X58715D01*
Y4350D01*
Y4382D01*
X58649D01*
Y4415D01*
Y4448D01*
X58583D01*
Y4481D01*
X58551D01*
Y4514D01*
X58485D01*
Y4547D01*
X58452D01*
Y4579D01*
X58419D01*
Y4612D01*
X58386D01*
Y4645D01*
X58354D01*
Y4678D01*
X58321D01*
Y4711D01*
X58288D01*
Y4744D01*
X58255D01*
Y4776D01*
X58091D01*
Y4744D01*
X58058D01*
Y4776D01*
X58025D01*
Y4744D01*
X57992D01*
Y4776D01*
X57960D01*
Y4744D01*
X57861D01*
Y4711D01*
X57828D01*
Y4744D01*
X57795D01*
Y4711D01*
X57763D01*
Y4744D01*
X57730D01*
Y4711D01*
X57697D01*
Y4744D01*
X57664D01*
Y4711D01*
X57631D01*
Y4744D01*
X57598D01*
Y4711D01*
X57237D01*
Y4744D01*
X57205D01*
Y4711D01*
X57172D01*
Y4744D01*
X57139D01*
Y4711D01*
X57106D01*
Y4744D01*
X57073D01*
Y4711D01*
X57040D01*
Y4744D01*
X57007D01*
Y4711D01*
X56975D01*
Y4744D01*
X56942D01*
Y4711D01*
X56909D01*
Y4744D01*
X56811D01*
Y4776D01*
X56778D01*
Y4744D01*
X56745D01*
Y4776D01*
X56712D01*
Y4744D01*
X56679D01*
Y4776D01*
X56450D01*
Y4809D01*
X56417D01*
Y4776D01*
X56384D01*
Y4809D01*
X56351D01*
Y4842D01*
X56318D01*
Y4809D01*
X56285D01*
Y4842D01*
X56121D01*
Y4875D01*
X56088D01*
Y4842D01*
X56055D01*
Y4875D01*
X56023D01*
Y4908D01*
X55990D01*
Y4875D01*
X55957D01*
Y4908D01*
X55858D01*
Y4941D01*
X55826D01*
Y4908D01*
X55793D01*
Y4941D01*
X55760D01*
Y4973D01*
X55727D01*
Y4941D01*
X55694D01*
Y4973D01*
X55596D01*
Y5006D01*
X55497D01*
Y5039D01*
X55399D01*
Y5072D01*
X55300D01*
Y5105D01*
X55202D01*
Y5138D01*
X55103D01*
Y5170D01*
X55005D01*
Y5203D01*
X54972D01*
Y5236D01*
X54874D01*
Y5269D01*
X54841D01*
Y5302D01*
X54742D01*
Y5334D01*
X54644D01*
Y5367D01*
X54611D01*
Y5400D01*
X54578D01*
Y5367D01*
X54545D01*
Y5400D01*
X54513D01*
Y5433D01*
X54414D01*
Y5466D01*
X54513D01*
Y5499D01*
X54545D01*
Y5466D01*
X54578D01*
Y5499D01*
X54611D01*
Y5466D01*
X54644D01*
Y5499D01*
X54677D01*
Y5466D01*
X54710D01*
Y5499D01*
X54742D01*
Y5466D01*
X54775D01*
Y5499D01*
X54874D01*
Y5466D01*
X54906D01*
Y5499D01*
X54939D01*
Y5531D01*
X54972D01*
Y5499D01*
X55071D01*
Y5531D01*
X55103D01*
Y5499D01*
X55136D01*
Y5531D01*
X55169D01*
Y5499D01*
X55202D01*
Y5531D01*
X55235D01*
Y5499D01*
X55268D01*
Y5531D01*
X55300D01*
Y5499D01*
X55333D01*
Y5531D01*
X55366D01*
Y5499D01*
X55399D01*
Y5531D01*
X55497D01*
Y5499D01*
X55530D01*
Y5531D01*
X56285D01*
Y5564D01*
X56252D01*
Y5597D01*
X56220D01*
Y5564D01*
X56187D01*
Y5597D01*
X56088D01*
Y5630D01*
X55990D01*
Y5663D01*
X55957D01*
Y5630D01*
X55924D01*
Y5663D01*
X55891D01*
Y5696D01*
X55858D01*
Y5663D01*
X55826D01*
Y5696D01*
X55727D01*
Y5728D01*
X55694D01*
Y5696D01*
X55662D01*
Y5728D01*
X55629D01*
Y5761D01*
X55596D01*
Y5728D01*
X55563D01*
Y5761D01*
X55399D01*
Y5794D01*
X55366D01*
Y5827D01*
X55333D01*
Y5794D01*
X55300D01*
Y5827D01*
X55268D01*
Y5794D01*
X55235D01*
Y5827D01*
X55136D01*
Y5860D01*
X55103D01*
Y5827D01*
X55071D01*
Y5860D01*
X55038D01*
Y5892D01*
X55005D01*
Y5860D01*
X54972D01*
Y5892D01*
X54808D01*
Y5925D01*
X54710D01*
Y5958D01*
X54677D01*
Y5925D01*
X54644D01*
Y5958D01*
X54480D01*
Y5991D01*
X54447D01*
Y5958D01*
X54414D01*
Y5991D01*
X54381D01*
Y6024D01*
X54348D01*
Y5991D01*
X54316D01*
Y6024D01*
X54151D01*
Y6057D01*
X54119D01*
Y6024D01*
X54086D01*
Y6057D01*
X54053D01*
Y6024D01*
X54020D01*
Y6057D01*
X53922D01*
Y6089D01*
X53692D01*
Y6122D01*
X53659D01*
Y6089D01*
X53626D01*
Y6122D01*
X53593D01*
Y6155D01*
X53561D01*
Y6122D01*
X53593D01*
Y6089D01*
X53561D01*
Y6122D01*
X53528D01*
Y6155D01*
X53495D01*
Y6122D01*
X53462D01*
Y6155D01*
X53232D01*
Y6188D01*
X53199D01*
Y6155D01*
X53167D01*
Y6188D01*
X53134D01*
Y6155D01*
X53101D01*
Y6188D01*
X53003D01*
Y6221D01*
X52970D01*
Y6188D01*
X52937D01*
Y6221D01*
X52707D01*
Y6254D01*
X52674D01*
Y6221D01*
X52641D01*
Y6254D01*
X52609D01*
Y6221D01*
X52576D01*
Y6254D01*
X52543D01*
Y6286D01*
X52510D01*
Y6254D01*
X52543D01*
Y6221D01*
X52510D01*
Y6254D01*
X52477D01*
Y6286D01*
X52444D01*
Y6254D01*
X52412D01*
Y6286D01*
X52116D01*
Y6319D01*
X52083D01*
Y6286D01*
X52051D01*
Y6319D01*
X52018D01*
Y6286D01*
X51985D01*
Y6319D01*
X51952D01*
Y6286D01*
X51919D01*
Y6319D01*
X51821D01*
Y6352D01*
X51788D01*
Y6319D01*
X51755D01*
Y6352D01*
X51722D01*
Y6319D01*
X51689D01*
Y6352D01*
X51263D01*
Y6385D01*
X51230D01*
Y6352D01*
X51197D01*
Y6385D01*
X51098D01*
Y6418D01*
X51066D01*
Y6385D01*
X51098D01*
Y6352D01*
X51066D01*
Y6385D01*
X51033D01*
Y6418D01*
X51000D01*
Y6385D01*
X50967D01*
Y6418D01*
X50934D01*
Y6385D01*
X50902D01*
Y6418D01*
X50869D01*
Y6385D01*
X50836D01*
Y6418D01*
X50278D01*
Y6451D01*
X50245D01*
Y6418D01*
X50212D01*
Y6451D01*
X50179D01*
Y6418D01*
X50146D01*
Y6451D01*
X50114D01*
Y6418D01*
X50081D01*
Y6451D01*
X50048D01*
Y6418D01*
X50015D01*
Y6451D01*
X49982D01*
Y6418D01*
X49949D01*
Y6451D01*
X49917D01*
Y6418D01*
X49884D01*
Y6451D01*
X49851D01*
Y6418D01*
X49818D01*
Y6451D01*
X49588D01*
Y6483D01*
X49556D01*
Y6451D01*
X49457D01*
Y6483D01*
X49424D01*
Y6451D01*
X49326D01*
Y6483D01*
X49293D01*
Y6451D01*
X49260D01*
Y6483D01*
X49227D01*
Y6451D01*
X49194D01*
Y6483D01*
X49161D01*
Y6451D01*
X49129D01*
Y6483D01*
X49096D01*
Y6451D01*
X49063D01*
Y6483D01*
X49030D01*
Y6451D01*
X48997D01*
Y6483D01*
X48965D01*
Y6451D01*
X48932D01*
Y6483D01*
X48899D01*
Y6451D01*
X48866D01*
Y6483D01*
X48833D01*
Y6451D01*
X48800D01*
Y6483D01*
X48768D01*
Y6451D01*
X48735D01*
Y6483D01*
X48702D01*
Y6451D01*
X48669D01*
Y6483D01*
X48636D01*
Y6451D01*
X48603D01*
Y6483D01*
X48571D01*
Y6451D01*
X48538D01*
Y6483D01*
X48505D01*
Y6451D01*
X48472D01*
Y6483D01*
X48439D01*
Y6451D01*
X48406D01*
Y6483D01*
X48308D01*
Y6451D01*
X48275D01*
Y6483D01*
X48177D01*
Y6451D01*
X48144D01*
Y6483D01*
X48045D01*
Y6451D01*
X48013D01*
Y6483D01*
X47914D01*
Y6451D01*
X47881D01*
Y6483D01*
X47783D01*
Y6451D01*
X47750D01*
Y6483D01*
X47651D01*
Y6451D01*
X47619D01*
Y6483D01*
X47586D01*
Y6451D01*
X47553D01*
Y6483D01*
X47520D01*
Y6451D01*
X47487D01*
Y6483D01*
X47455D01*
Y6451D01*
X47422D01*
Y6483D01*
X47389D01*
Y6451D01*
X47356D01*
Y6483D01*
X47323D01*
Y6451D01*
X47290D01*
Y6483D01*
X47258D01*
Y6451D01*
X47225D01*
Y6483D01*
X47192D01*
Y6451D01*
X47159D01*
Y6483D01*
X47126D01*
Y6451D01*
X47093D01*
Y6483D01*
X47060D01*
Y6451D01*
X47028D01*
Y6483D01*
X46995D01*
Y6451D01*
X46962D01*
Y6483D01*
X46929D01*
Y6451D01*
X46896D01*
Y6483D01*
X46864D01*
Y6451D01*
X46831D01*
Y6483D01*
X46798D01*
Y6451D01*
X46765D01*
Y6483D01*
X46732D01*
Y6451D01*
X46699D01*
Y6483D01*
X46667D01*
Y6451D01*
X46634D01*
Y6483D01*
X46601D01*
Y6451D01*
X46568D01*
Y6483D01*
X46535D01*
Y6451D01*
X46437D01*
Y6483D01*
X46404D01*
Y6451D01*
X46306D01*
Y6483D01*
X46273D01*
Y6451D01*
X46174D01*
Y6483D01*
X46141D01*
Y6451D01*
X46043D01*
Y6483D01*
X46010D01*
Y6451D01*
X45911D01*
Y6418D01*
X45879D01*
Y6451D01*
X45649D01*
Y6418D01*
X45616D01*
Y6451D01*
X45518D01*
Y6418D01*
X45485D01*
Y6451D01*
X45452D01*
Y6418D01*
X45419D01*
Y6451D01*
X45386D01*
Y6418D01*
X45353D01*
Y6451D01*
X45255D01*
Y6418D01*
X45222D01*
Y6451D01*
X45189D01*
Y6418D01*
X45156D01*
Y6451D01*
X45124D01*
Y6418D01*
X45091D01*
Y6451D01*
X45058D01*
Y6418D01*
X45025D01*
Y6451D01*
X44992D01*
Y6418D01*
X44960D01*
Y6451D01*
X44927D01*
Y6418D01*
X44894D01*
Y6451D01*
X44861D01*
Y6418D01*
X44828D01*
Y6451D01*
X44795D01*
Y6418D01*
X44763D01*
Y6451D01*
X44730D01*
Y6418D01*
X44697D01*
Y6451D01*
X44664D01*
Y6418D01*
X44631D01*
Y6451D01*
X44598D01*
Y6418D01*
X44566D01*
Y6451D01*
X44533D01*
Y6418D01*
X44500D01*
Y6451D01*
X44467D01*
Y6418D01*
X44434D01*
Y6451D01*
X44401D01*
Y6418D01*
X44369D01*
Y6451D01*
X44336D01*
Y6418D01*
X44303D01*
Y6451D01*
X44270D01*
Y6418D01*
X44237D01*
Y6451D01*
X44205D01*
Y6418D01*
X44172D01*
Y6451D01*
X44139D01*
Y6418D01*
X44106D01*
Y6451D01*
X44073D01*
Y6418D01*
X44040D01*
Y6451D01*
X44008D01*
Y6418D01*
X43975D01*
Y6451D01*
X43942D01*
Y6418D01*
X43909D01*
Y6451D01*
X43876D01*
Y6418D01*
X43843D01*
Y6451D01*
X43810D01*
Y6418D01*
X43712D01*
Y6451D01*
X43679D01*
Y6418D01*
X43449D01*
Y6451D01*
X43417D01*
Y6418D01*
X43187D01*
Y6451D01*
X43154D01*
Y6418D01*
X38460D01*
Y6451D01*
X38427D01*
Y6418D01*
X38197D01*
Y6451D01*
X38164D01*
Y6418D01*
X38000D01*
Y6451D01*
X37967D01*
Y6418D01*
X37934D01*
Y6451D01*
X37901D01*
Y6418D01*
X37869D01*
Y6451D01*
X37836D01*
Y6418D01*
X37803D01*
Y6451D01*
X37770D01*
Y6418D01*
X37737D01*
Y6451D01*
X37704D01*
Y6418D01*
X37672D01*
Y6451D01*
X37639D01*
Y6418D01*
X37606D01*
Y6451D01*
X37573D01*
Y6418D01*
X37540D01*
Y6451D01*
X37508D01*
Y6418D01*
X37475D01*
Y6451D01*
X37442D01*
Y6418D01*
X37409D01*
Y6451D01*
X37376D01*
Y6418D01*
X37343D01*
Y6451D01*
X37310D01*
Y6418D01*
X37278D01*
Y6451D01*
X37245D01*
Y6418D01*
X37212D01*
Y6451D01*
X37179D01*
Y6418D01*
X37146D01*
Y6451D01*
X37113D01*
Y6418D01*
X37081D01*
Y6451D01*
X37048D01*
Y6418D01*
X37015D01*
Y6451D01*
X36982D01*
Y6418D01*
X36949D01*
Y6451D01*
X36917D01*
Y6418D01*
X36884D01*
Y6451D01*
X36851D01*
Y6418D01*
X36818D01*
Y6451D01*
X36785D01*
Y6418D01*
X36752D01*
Y6451D01*
X36720D01*
Y6418D01*
X36687D01*
Y6451D01*
X36654D01*
Y6418D01*
X36621D01*
Y6451D01*
X36588D01*
Y6418D01*
X36555D01*
Y6451D01*
X36523D01*
Y6418D01*
X36490D01*
Y6451D01*
X36457D01*
Y6418D01*
X36424D01*
Y6451D01*
X36391D01*
Y6418D01*
X36358D01*
Y6451D01*
X36194D01*
Y6418D01*
X36162D01*
Y6451D01*
X36063D01*
Y6483D01*
X36030D01*
Y6451D01*
X35932D01*
Y6483D01*
X35899D01*
Y6451D01*
X35866D01*
Y6483D01*
X35833D01*
Y6451D01*
X35800D01*
Y6483D01*
X35768D01*
Y6451D01*
X35735D01*
Y6483D01*
X35702D01*
Y6451D01*
X35669D01*
Y6483D01*
X35636D01*
Y6451D01*
X35603D01*
Y6483D01*
X35571D01*
Y6451D01*
X35538D01*
Y6483D01*
X35505D01*
Y6451D01*
X35472D01*
Y6483D01*
X35439D01*
Y6451D01*
X35407D01*
Y6483D01*
X35308D01*
Y6451D01*
X35275D01*
Y6483D01*
X34586D01*
Y6516D01*
X34553D01*
Y6483D01*
X34520D01*
Y6516D01*
X34487D01*
Y6483D01*
X34454D01*
Y6516D01*
X34422D01*
Y6483D01*
X34389D01*
Y6516D01*
X34356D01*
Y6483D01*
X34323D01*
Y6516D01*
X34290D01*
Y6483D01*
X34258D01*
Y6516D01*
X34159D01*
Y6549D01*
X34126D01*
Y6516D01*
X34159D01*
Y6483D01*
X34126D01*
Y6516D01*
X34093D01*
Y6549D01*
X34060D01*
Y6516D01*
X34028D01*
Y6549D01*
X33995D01*
Y6516D01*
X33962D01*
Y6549D01*
X33929D01*
Y6516D01*
X33896D01*
Y6549D01*
X33404D01*
Y6582D01*
X33371D01*
Y6549D01*
X33338D01*
Y6582D01*
X33305D01*
Y6549D01*
X33273D01*
Y6582D01*
X33240D01*
Y6549D01*
X33207D01*
Y6582D01*
X33174D01*
Y6549D01*
X33141D01*
Y6582D01*
X33043D01*
Y6615D01*
X33010D01*
Y6582D01*
X32912D01*
Y6615D01*
X32879D01*
Y6582D01*
X32846D01*
Y6615D01*
X32813D01*
Y6582D01*
X32780D01*
Y6615D01*
X32353D01*
Y6648D01*
X32321D01*
Y6615D01*
X32288D01*
Y6648D01*
X32255D01*
Y6615D01*
X32222D01*
Y6648D01*
X32189D01*
Y6615D01*
X32157D01*
Y6648D01*
X32058D01*
Y6680D01*
X32025D01*
Y6648D01*
X31992D01*
Y6680D01*
X31960D01*
Y6648D01*
X31927D01*
Y6680D01*
X31894D01*
Y6648D01*
X31861D01*
Y6680D01*
X31828D01*
Y6648D01*
X31795D01*
Y6680D01*
X31434D01*
Y6713D01*
X31401D01*
Y6680D01*
X31369D01*
Y6713D01*
X31336D01*
Y6680D01*
X31303D01*
Y6713D01*
X31270D01*
Y6680D01*
X31237D01*
Y6713D01*
X31204D01*
Y6680D01*
X31172D01*
Y6713D01*
X31073D01*
Y6746D01*
X31040D01*
Y6713D01*
X31008D01*
Y6746D01*
X30975D01*
Y6713D01*
X30942D01*
Y6746D01*
X30909D01*
Y6713D01*
X30876D01*
Y6746D01*
X30515D01*
Y6779D01*
X31270D01*
Y6746D01*
X31303D01*
Y6779D01*
X31336D01*
Y6746D01*
X31369D01*
Y6779D01*
X31401D01*
Y6746D01*
X31434D01*
Y6779D01*
X31467D01*
Y6746D01*
X31500D01*
Y6779D01*
X31533D01*
Y6746D01*
X31566D01*
Y6779D01*
X31598D01*
Y6746D01*
X31631D01*
Y6779D01*
X31664D01*
Y6746D01*
X31697D01*
Y6779D01*
X31730D01*
Y6746D01*
X31762D01*
Y6779D01*
X31795D01*
Y6746D01*
X31894D01*
Y6779D01*
X31927D01*
Y6746D01*
X32025D01*
Y6779D01*
X32058D01*
Y6746D01*
X32157D01*
Y6779D01*
X32189D01*
Y6746D01*
X32288D01*
Y6779D01*
X32321D01*
Y6746D01*
X32419D01*
Y6779D01*
X32452D01*
Y6746D01*
X32550D01*
Y6779D01*
X32583D01*
Y6746D01*
X32616D01*
Y6713D01*
X32649D01*
Y6746D01*
X32747D01*
Y6713D01*
X32780D01*
Y6746D01*
X32879D01*
Y6713D01*
X32912D01*
Y6746D01*
X32944D01*
Y6713D01*
X32977D01*
Y6746D01*
X33010D01*
Y6713D01*
X33043D01*
Y6746D01*
X33141D01*
Y6713D01*
X33174D01*
Y6746D01*
X33273D01*
Y6713D01*
X33305D01*
Y6746D01*
X33404D01*
Y6713D01*
X33437D01*
Y6746D01*
X33535D01*
Y6713D01*
X33568D01*
Y6746D01*
X33601D01*
Y6713D01*
X33634D01*
Y6746D01*
X33667D01*
Y6713D01*
X33699D01*
Y6746D01*
X33732D01*
Y6713D01*
X33765D01*
Y6746D01*
X33798D01*
Y6713D01*
X33831D01*
Y6746D01*
X33863D01*
Y6713D01*
X33896D01*
Y6746D01*
X33929D01*
Y6713D01*
X33962D01*
Y6746D01*
X33995D01*
Y6713D01*
X34028D01*
Y6746D01*
X34060D01*
Y6713D01*
X34093D01*
Y6746D01*
X34126D01*
Y6713D01*
X34159D01*
Y6746D01*
X34192D01*
Y6713D01*
X34225D01*
Y6746D01*
X34258D01*
Y6713D01*
X34290D01*
Y6746D01*
X34323D01*
Y6713D01*
X34356D01*
Y6746D01*
X34454D01*
Y6713D01*
X34487D01*
Y6746D01*
X34520D01*
Y6779D01*
X34553D01*
Y6746D01*
X34651D01*
Y6779D01*
X34684D01*
Y6746D01*
X34783D01*
Y6779D01*
X34816D01*
Y6746D01*
X34848D01*
Y6779D01*
X34881D01*
Y6746D01*
X34914D01*
Y6779D01*
X34947D01*
Y6746D01*
X34980D01*
Y6779D01*
X35013D01*
Y6746D01*
X35045D01*
Y6779D01*
X35078D01*
Y6746D01*
X35111D01*
Y6779D01*
X35144D01*
Y6746D01*
X35177D01*
Y6779D01*
X35210D01*
Y6746D01*
X35242D01*
Y6779D01*
X35275D01*
Y6746D01*
X35308D01*
Y6779D01*
X35341D01*
Y6746D01*
X35374D01*
Y6779D01*
X35407D01*
Y6746D01*
X35439D01*
Y6779D01*
X35472D01*
Y6746D01*
X35505D01*
Y6779D01*
X35538D01*
Y6746D01*
X35571D01*
Y6779D01*
X35603D01*
Y6746D01*
X35636D01*
Y6779D01*
X35669D01*
Y6746D01*
X35702D01*
Y6779D01*
X35735D01*
Y6746D01*
X35768D01*
Y6779D01*
X35800D01*
Y6746D01*
X35833D01*
Y6779D01*
X35866D01*
Y6746D01*
X35899D01*
Y6779D01*
X35932D01*
Y6746D01*
X35965D01*
Y6779D01*
X35997D01*
Y6746D01*
X36030D01*
Y6779D01*
X36063D01*
Y6746D01*
X36096D01*
Y6779D01*
X36129D01*
Y6746D01*
X36162D01*
Y6779D01*
X36194D01*
Y6746D01*
X36227D01*
Y6779D01*
X36260D01*
Y6746D01*
X36293D01*
Y6779D01*
X36326D01*
Y6746D01*
X36358D01*
Y6779D01*
X36391D01*
Y6746D01*
X36424D01*
Y6779D01*
X36457D01*
Y6746D01*
X36490D01*
Y6779D01*
X36523D01*
Y6746D01*
X36555D01*
Y6779D01*
X36588D01*
Y6746D01*
X36621D01*
Y6779D01*
X36654D01*
Y6746D01*
X36687D01*
Y6779D01*
X36720D01*
Y6746D01*
X36752D01*
Y6779D01*
X36785D01*
Y6746D01*
X36818D01*
Y6779D01*
X36851D01*
Y6746D01*
X36884D01*
Y6779D01*
X36917D01*
Y6746D01*
X36949D01*
Y6779D01*
X36982D01*
Y6746D01*
X37015D01*
Y6779D01*
X37048D01*
Y6746D01*
X37081D01*
Y6779D01*
X37113D01*
Y6746D01*
X37146D01*
Y6779D01*
X37179D01*
Y6746D01*
X37212D01*
Y6779D01*
X37245D01*
Y6746D01*
X37278D01*
Y6779D01*
X37310D01*
Y6746D01*
X37343D01*
Y6779D01*
X37376D01*
Y6746D01*
X37409D01*
Y6779D01*
X37442D01*
Y6746D01*
X37475D01*
Y6779D01*
X37508D01*
Y6746D01*
X37540D01*
Y6779D01*
X37573D01*
Y6746D01*
X37606D01*
Y6779D01*
X37639D01*
Y6746D01*
X37672D01*
Y6779D01*
X37704D01*
Y6746D01*
X37737D01*
Y6779D01*
X37770D01*
Y6746D01*
X37803D01*
Y6779D01*
X37836D01*
Y6746D01*
X37869D01*
Y6779D01*
X37901D01*
Y6746D01*
X37934D01*
Y6779D01*
X37967D01*
Y6746D01*
X38000D01*
Y6779D01*
X38033D01*
Y6746D01*
X38066D01*
Y6779D01*
X38098D01*
Y6746D01*
X38131D01*
Y6779D01*
X38164D01*
Y6746D01*
X38197D01*
Y6779D01*
X38230D01*
Y6746D01*
X38263D01*
Y6779D01*
X38295D01*
Y6746D01*
X38328D01*
Y6779D01*
X38361D01*
Y6746D01*
X38394D01*
Y6779D01*
X38427D01*
Y6746D01*
X38460D01*
Y6779D01*
X38492D01*
Y6746D01*
X38525D01*
Y6779D01*
X38558D01*
Y6746D01*
X38591D01*
Y6779D01*
X38624D01*
Y6746D01*
X38656D01*
Y6779D01*
X38689D01*
Y6746D01*
X38722D01*
Y6779D01*
X38755D01*
Y6746D01*
X38788D01*
Y6779D01*
X38821D01*
Y6746D01*
X38853D01*
Y6779D01*
X38886D01*
Y6746D01*
X38919D01*
Y6779D01*
X38952D01*
Y6746D01*
X38985D01*
Y6779D01*
X39018D01*
Y6746D01*
X39050D01*
Y6779D01*
X39083D01*
Y6746D01*
X39116D01*
Y6779D01*
X39149D01*
Y6746D01*
X39182D01*
Y6779D01*
X39215D01*
Y6746D01*
X39247D01*
Y6779D01*
X39280D01*
Y6746D01*
X39313D01*
Y6779D01*
X39346D01*
Y6746D01*
X39379D01*
Y6779D01*
X39412D01*
Y6746D01*
X39444D01*
Y6779D01*
X39477D01*
Y6746D01*
X39510D01*
Y6779D01*
X39543D01*
Y6746D01*
X39576D01*
Y6779D01*
X39608D01*
Y6746D01*
X39641D01*
Y6779D01*
X39674D01*
Y6746D01*
X39707D01*
Y6779D01*
X39740D01*
Y6746D01*
X39773D01*
Y6779D01*
X39805D01*
Y6746D01*
X39838D01*
Y6779D01*
X39871D01*
Y6746D01*
X39904D01*
Y6779D01*
X39937D01*
Y6746D01*
X39970D01*
Y6779D01*
X40002D01*
Y6746D01*
X40035D01*
Y6779D01*
X40068D01*
Y6746D01*
X40101D01*
Y6779D01*
X40134D01*
Y6746D01*
X40167D01*
Y6779D01*
X40199D01*
Y6746D01*
X40232D01*
Y6779D01*
X40265D01*
Y6746D01*
X40298D01*
Y6779D01*
X40331D01*
Y6746D01*
X40429D01*
Y6779D01*
X40462D01*
Y6746D01*
X40560D01*
Y6779D01*
X40593D01*
Y6746D01*
X40692D01*
Y6779D01*
X40725D01*
Y6746D01*
X40823D01*
Y6779D01*
X40856D01*
Y6746D01*
X40955D01*
Y6779D01*
X40987D01*
Y6746D01*
X41086D01*
Y6779D01*
X41119D01*
Y6746D01*
X41217D01*
Y6779D01*
X41250D01*
Y6746D01*
X41348D01*
Y6779D01*
X41381D01*
Y6746D01*
X41480D01*
Y6779D01*
X41513D01*
Y6746D01*
X41611D01*
Y6779D01*
X41644D01*
Y6746D01*
X41742D01*
Y6779D01*
X41775D01*
Y6746D01*
X41874D01*
Y6779D01*
X41906D01*
Y6746D01*
X41939D01*
Y6779D01*
X41972D01*
Y6746D01*
X42005D01*
Y6779D01*
X42038D01*
Y6746D01*
X42071D01*
Y6779D01*
X42103D01*
Y6746D01*
X42136D01*
Y6779D01*
X42169D01*
Y6746D01*
X42202D01*
Y6779D01*
X42235D01*
Y6746D01*
X42268D01*
Y6779D01*
X42300D01*
Y6746D01*
X42333D01*
Y6779D01*
X42366D01*
Y6746D01*
X42399D01*
Y6779D01*
X42432D01*
Y6746D01*
X42465D01*
Y6779D01*
X42497D01*
Y6746D01*
X42530D01*
Y6779D01*
X42563D01*
Y6746D01*
X42596D01*
Y6779D01*
X42629D01*
Y6746D01*
X42661D01*
Y6779D01*
X42694D01*
Y6746D01*
X42727D01*
Y6779D01*
X42760D01*
Y6746D01*
X42793D01*
Y6779D01*
X42826D01*
Y6746D01*
X42858D01*
Y6779D01*
X42891D01*
Y6746D01*
X42924D01*
Y6779D01*
X42957D01*
Y6746D01*
X42990D01*
Y6779D01*
X43023D01*
Y6746D01*
X43055D01*
Y6779D01*
X43088D01*
Y6746D01*
X43121D01*
Y6779D01*
X43154D01*
Y6746D01*
X43187D01*
Y6779D01*
X43220D01*
Y6746D01*
X43252D01*
Y6779D01*
X43351D01*
Y6746D01*
X43384D01*
Y6779D01*
X43417D01*
Y6746D01*
X43449D01*
Y6779D01*
X43482D01*
Y6746D01*
X43515D01*
Y6779D01*
X43548D01*
Y6746D01*
X43581D01*
Y6779D01*
X43613D01*
Y6746D01*
X43646D01*
Y6779D01*
X43679D01*
Y6746D01*
X43712D01*
Y6779D01*
X45977D01*
Y6812D01*
X46010D01*
Y6779D01*
X46108D01*
Y6812D01*
X46141D01*
Y6779D01*
X46240D01*
Y6812D01*
X46273D01*
Y6779D01*
X46371D01*
Y6812D01*
X46404D01*
Y6779D01*
X46437D01*
Y6812D01*
X46470D01*
Y6779D01*
X46502D01*
Y6812D01*
X46535D01*
Y6779D01*
X46568D01*
Y6812D01*
X46601D01*
Y6779D01*
X46634D01*
Y6812D01*
X46667D01*
Y6779D01*
X46699D01*
Y6812D01*
X46732D01*
Y6779D01*
X46765D01*
Y6812D01*
X46798D01*
Y6779D01*
X46831D01*
Y6812D01*
X46864D01*
Y6779D01*
X46896D01*
Y6812D01*
X46929D01*
Y6779D01*
X46962D01*
Y6812D01*
X46995D01*
Y6779D01*
X47028D01*
Y6812D01*
X47060D01*
Y6779D01*
X47093D01*
Y6812D01*
X47126D01*
Y6779D01*
X47159D01*
Y6812D01*
X47192D01*
Y6779D01*
X47225D01*
Y6812D01*
X47258D01*
Y6779D01*
X47290D01*
Y6812D01*
X47323D01*
Y6779D01*
X47356D01*
Y6812D01*
X47389D01*
Y6779D01*
X47422D01*
Y6812D01*
X47455D01*
Y6779D01*
X47487D01*
Y6812D01*
X47520D01*
Y6779D01*
X47553D01*
Y6812D01*
X47651D01*
Y6779D01*
X47684D01*
Y6812D01*
X47717D01*
Y6779D01*
X47750D01*
Y6812D01*
X47783D01*
Y6779D01*
X47816D01*
Y6812D01*
X47914D01*
Y6779D01*
X47947D01*
Y6812D01*
X48045D01*
Y6779D01*
X48078D01*
Y6812D01*
X48111D01*
Y6844D01*
X48144D01*
Y6812D01*
X48242D01*
Y6844D01*
X48275D01*
Y6812D01*
X48308D01*
Y6779D01*
X48341D01*
Y6812D01*
X48374D01*
Y6844D01*
X48406D01*
Y6812D01*
X48571D01*
Y6779D01*
X48603D01*
Y6812D01*
X48636D01*
Y6844D01*
X48669D01*
Y6812D01*
X48702D01*
Y6779D01*
X48735D01*
Y6812D01*
X48768D01*
Y6844D01*
X48669D01*
Y6877D01*
X48636D01*
Y6910D01*
X48603D01*
Y6943D01*
X48505D01*
Y6976D01*
X48472D01*
Y7009D01*
X48374D01*
Y7041D01*
X48341D01*
Y7074D01*
X48242D01*
Y7107D01*
X48210D01*
Y7140D01*
X48111D01*
Y7173D01*
X48078D01*
Y7206D01*
X47980D01*
Y7238D01*
X47947D01*
Y7271D01*
X47848D01*
Y7304D01*
X47816D01*
Y7337D01*
X47717D01*
Y7370D01*
X47684D01*
Y7403D01*
X47586D01*
Y7435D01*
X47553D01*
Y7468D01*
X47455D01*
Y7501D01*
X47422D01*
Y7534D01*
X47323D01*
Y7567D01*
X47290D01*
Y7600D01*
X47192D01*
Y7632D01*
X47159D01*
Y7665D01*
X47060D01*
Y7698D01*
X47028D01*
Y7731D01*
X46929D01*
Y7764D01*
X46896D01*
Y7797D01*
X46864D01*
Y7764D01*
X46831D01*
Y7797D01*
X46798D01*
Y7829D01*
X46765D01*
Y7862D01*
X46667D01*
Y7895D01*
X46568D01*
Y7928D01*
X46535D01*
Y7961D01*
X46502D01*
Y7993D01*
X46470D01*
Y7961D01*
X46502D01*
Y7928D01*
X46470D01*
Y7961D01*
X46437D01*
Y7993D01*
X46338D01*
Y8026D01*
X46306D01*
Y8059D01*
X46207D01*
Y8092D01*
X46174D01*
Y8125D01*
X46076D01*
Y8158D01*
X46043D01*
Y8190D01*
X46010D01*
Y8158D01*
X45977D01*
Y8190D01*
X45879D01*
Y8223D01*
X45846D01*
Y8256D01*
X45747D01*
Y8289D01*
X45649D01*
Y8322D01*
X45616D01*
Y8355D01*
X45583D01*
Y8322D01*
X45551D01*
Y8355D01*
X45518D01*
Y8388D01*
X45419D01*
Y8420D01*
X45386D01*
Y8453D01*
X45353D01*
Y8420D01*
X45321D01*
Y8453D01*
X45222D01*
Y8486D01*
X45189D01*
Y8519D01*
X45091D01*
Y8552D01*
X44992D01*
Y8584D01*
X44894D01*
Y8617D01*
X44861D01*
Y8650D01*
X44763D01*
Y8683D01*
X44730D01*
Y8650D01*
X44697D01*
Y8683D01*
X44664D01*
Y8716D01*
X44566D01*
Y8749D01*
X44533D01*
Y8781D01*
X44500D01*
Y8749D01*
X44533D01*
Y8716D01*
X44500D01*
Y8749D01*
X44467D01*
Y8781D01*
X44369D01*
Y8814D01*
X44336D01*
Y8847D01*
X44303D01*
Y8814D01*
X44270D01*
Y8847D01*
X44172D01*
Y8880D01*
X44139D01*
Y8913D01*
X43975D01*
Y8946D01*
X43942D01*
Y8978D01*
X43778D01*
Y9011D01*
X43745D01*
Y9044D01*
X43581D01*
Y9077D01*
X43548D01*
Y9110D01*
X43515D01*
Y9077D01*
X43482D01*
Y9110D01*
X43384D01*
Y9143D01*
X43351D01*
Y9175D01*
X43187D01*
Y9208D01*
X43154D01*
Y9241D01*
X43121D01*
Y9208D01*
X43088D01*
Y9241D01*
X42990D01*
Y9274D01*
X42957D01*
Y9307D01*
X42924D01*
Y9274D01*
X42957D01*
Y9241D01*
X42924D01*
Y9274D01*
X42891D01*
Y9307D01*
X42793D01*
Y9340D01*
X42760D01*
Y9307D01*
X42727D01*
Y9340D01*
X42629D01*
Y9372D01*
X42530D01*
Y9405D01*
X42497D01*
Y9372D01*
X42465D01*
Y9405D01*
X42432D01*
Y9438D01*
X42268D01*
Y9471D01*
X42235D01*
Y9438D01*
X42202D01*
Y9471D01*
X42169D01*
Y9504D01*
X42136D01*
Y9471D01*
X42103D01*
Y9504D01*
X42005D01*
Y9537D01*
X41972D01*
Y9504D01*
X41939D01*
Y9537D01*
X41906D01*
Y9569D01*
X41874D01*
Y9537D01*
X41906D01*
Y9504D01*
X41874D01*
Y9537D01*
X41841D01*
Y9569D01*
X41677D01*
Y9602D01*
X41644D01*
Y9569D01*
X41611D01*
Y9602D01*
X41578D01*
Y9635D01*
X41545D01*
Y9602D01*
X41513D01*
Y9635D01*
X41480D01*
Y9602D01*
X41447D01*
Y9635D01*
X41283D01*
Y9668D01*
X41250D01*
Y9635D01*
X41217D01*
Y9668D01*
X41184D01*
Y9701D01*
X41151D01*
Y9668D01*
X41119D01*
Y9701D01*
X40955D01*
Y9734D01*
X40922D01*
Y9701D01*
X40889D01*
Y9734D01*
X40856D01*
Y9701D01*
X40823D01*
Y9734D01*
X40790D01*
Y9766D01*
X40758D01*
Y9734D01*
X40725D01*
Y9766D01*
X40692D01*
Y9734D01*
X40659D01*
Y9766D01*
X40429D01*
Y9799D01*
X40396D01*
Y9766D01*
X40363D01*
Y9799D01*
X40331D01*
Y9832D01*
X40298D01*
Y9799D01*
X40331D01*
Y9766D01*
X40298D01*
Y9799D01*
X40265D01*
Y9832D01*
X40232D01*
Y9799D01*
X40199D01*
Y9832D01*
X40167D01*
Y9799D01*
X40134D01*
Y9832D01*
X39904D01*
Y9865D01*
X39871D01*
Y9832D01*
X39838D01*
Y9865D01*
X39805D01*
Y9832D01*
X39773D01*
Y9865D01*
X39740D01*
Y9832D01*
X39707D01*
Y9865D01*
X39608D01*
Y9898D01*
X39576D01*
Y9865D01*
X39543D01*
Y9898D01*
X39510D01*
Y9865D01*
X39477D01*
Y9898D01*
X39182D01*
Y9930D01*
X39149D01*
Y9898D01*
X39116D01*
Y9930D01*
X39083D01*
Y9898D01*
X39050D01*
Y9930D01*
X39018D01*
Y9963D01*
X38985D01*
Y9930D01*
X39018D01*
Y9898D01*
X38985D01*
Y9930D01*
X38952D01*
Y9963D01*
X38919D01*
Y9930D01*
X38886D01*
Y9963D01*
X38853D01*
Y9930D01*
X38821D01*
Y9963D01*
X38788D01*
Y9930D01*
X38755D01*
Y9963D01*
X38328D01*
Y9996D01*
X38295D01*
Y9963D01*
X38263D01*
Y9996D01*
X38230D01*
Y9963D01*
X38197D01*
Y9996D01*
X38164D01*
Y9963D01*
X38131D01*
Y9996D01*
X38098D01*
Y9963D01*
X38066D01*
Y9996D01*
X38033D01*
Y9963D01*
X38000D01*
Y9996D01*
X37901D01*
Y9963D01*
X37869D01*
Y9996D01*
X37770D01*
Y10029D01*
X37737D01*
Y9996D01*
X37704D01*
Y10029D01*
X37672D01*
Y9996D01*
X37639D01*
Y10029D01*
X37606D01*
Y9996D01*
X37573D01*
Y10029D01*
X37540D01*
Y9996D01*
X37508D01*
Y10029D01*
X37475D01*
Y9996D01*
X37442D01*
Y10029D01*
X37409D01*
Y9996D01*
X37376D01*
Y10029D01*
X37343D01*
Y9996D01*
X37310D01*
Y10029D01*
X37278D01*
Y9996D01*
X37245D01*
Y10029D01*
X37146D01*
Y9996D01*
X37113D01*
Y10029D01*
X35965D01*
Y9996D01*
X35932D01*
Y10029D01*
X35833D01*
Y9996D01*
X35800D01*
Y10029D01*
X35768D01*
Y9996D01*
X35735D01*
Y10029D01*
X35702D01*
Y9996D01*
X35669D01*
Y10029D01*
X35636D01*
Y9996D01*
X35603D01*
Y10029D01*
X35571D01*
Y9996D01*
X35538D01*
Y10029D01*
X35505D01*
Y9996D01*
X35407D01*
Y10029D01*
X35374D01*
Y9996D01*
X35275D01*
Y9963D01*
X35242D01*
Y9996D01*
X35210D01*
Y9963D01*
X35177D01*
Y9996D01*
X35144D01*
Y9963D01*
X34783D01*
Y9930D01*
X34750D01*
Y9963D01*
X34717D01*
Y9930D01*
X34684D01*
Y9963D01*
X34651D01*
Y9930D01*
X34619D01*
Y9898D01*
X34586D01*
Y9930D01*
X34553D01*
Y9898D01*
X34520D01*
Y9930D01*
X34487D01*
Y9898D01*
X34258D01*
Y9865D01*
X34225D01*
Y9898D01*
X34192D01*
Y9865D01*
X34093D01*
Y9832D01*
X34060D01*
Y9865D01*
X34028D01*
Y9832D01*
X33995D01*
Y9865D01*
X33962D01*
Y9832D01*
X33798D01*
Y9799D01*
X33765D01*
Y9832D01*
X33732D01*
Y9799D01*
X33699D01*
Y9832D01*
X33667D01*
Y9799D01*
X33634D01*
Y9766D01*
X33601D01*
Y9799D01*
X33568D01*
Y9766D01*
X33535D01*
Y9799D01*
X33502D01*
Y9766D01*
X33338D01*
Y9734D01*
X33305D01*
Y9766D01*
X33273D01*
Y9734D01*
X33174D01*
Y9701D01*
X33141D01*
Y9734D01*
X33108D01*
Y9701D01*
X32944D01*
Y9668D01*
X32912D01*
Y9701D01*
X32879D01*
Y9668D01*
X32846D01*
Y9701D01*
X32813D01*
Y9668D01*
X32846D01*
Y9635D01*
X32813D01*
Y9668D01*
X32780D01*
Y9635D01*
X32747D01*
Y9668D01*
X32715D01*
Y9635D01*
X32550D01*
Y9602D01*
X32518D01*
Y9635D01*
X32485D01*
Y9602D01*
X32452D01*
Y9569D01*
X32419D01*
Y9602D01*
X32386D01*
Y9569D01*
X32222D01*
Y9537D01*
X32189D01*
Y9569D01*
X32157D01*
Y9537D01*
X32058D01*
Y9504D01*
X31894D01*
Y9471D01*
X31861D01*
Y9504D01*
X31828D01*
Y9471D01*
X31730D01*
Y9438D01*
X31566D01*
Y9405D01*
X31533D01*
Y9438D01*
X31500D01*
Y9405D01*
X31467D01*
Y9372D01*
X31434D01*
Y9405D01*
X31401D01*
Y9372D01*
X31237D01*
Y9340D01*
X31204D01*
Y9372D01*
X31172D01*
Y9340D01*
X31139D01*
Y9307D01*
X31106D01*
Y9340D01*
X31073D01*
Y9307D01*
X30909D01*
Y9274D01*
X30876D01*
Y9307D01*
X30843D01*
Y9274D01*
X30876D01*
Y9241D01*
X30843D01*
Y9274D01*
X30810D01*
Y9241D01*
X30778D01*
Y9274D01*
X30745D01*
Y9241D01*
X30646D01*
Y9208D01*
X30613D01*
Y9241D01*
X30581D01*
Y9208D01*
X30548D01*
Y9175D01*
X30515D01*
Y9208D01*
X30482D01*
Y9175D01*
X30318D01*
Y9143D01*
X30220D01*
Y9110D01*
X30055D01*
Y9077D01*
X30023D01*
Y9110D01*
X29990D01*
Y9077D01*
X29957D01*
Y9044D01*
X29924D01*
Y9077D01*
X29891D01*
Y9044D01*
X29727D01*
Y9011D01*
X29694D01*
Y8978D01*
X29662D01*
Y9011D01*
X29629D01*
Y8978D01*
X29530D01*
Y8946D01*
X29497D01*
Y8978D01*
X29465D01*
Y8946D01*
X29366D01*
Y8913D01*
X29202D01*
Y8880D01*
X29169D01*
Y8913D01*
X29136D01*
Y8880D01*
X29169D01*
Y8847D01*
X29136D01*
Y8880D01*
X29103D01*
Y8847D01*
X28939D01*
Y8814D01*
X28841D01*
Y8781D01*
X28677D01*
Y8749D01*
X28644D01*
Y8781D01*
X28611D01*
Y8749D01*
X28578D01*
Y8716D01*
X28545D01*
Y8749D01*
X28512D01*
Y8716D01*
X28414D01*
Y8683D01*
X28316D01*
Y8650D01*
X28151D01*
Y8617D01*
X28119D01*
Y8650D01*
X28086D01*
Y8617D01*
X28119D01*
Y8584D01*
X28086D01*
Y8617D01*
X28053D01*
Y8584D01*
X27889D01*
Y8552D01*
X27790D01*
Y8519D01*
X27626D01*
Y8486D01*
X27593D01*
Y8519D01*
X27560D01*
Y8486D01*
X27593D01*
Y8453D01*
X27560D01*
Y8486D01*
X27528D01*
Y8453D01*
X27429D01*
Y8420D01*
X27396D01*
Y8453D01*
X27363D01*
Y8420D01*
X27265D01*
Y8388D01*
X27167D01*
Y8355D01*
X27134D01*
Y8388D01*
X27101D01*
Y8355D01*
X27068D01*
Y8322D01*
X26904D01*
Y8289D01*
X26871D01*
Y8322D01*
X26838D01*
Y8289D01*
X26805D01*
Y8256D01*
X26773D01*
Y8289D01*
X26740D01*
Y8256D01*
X26641D01*
Y8223D01*
X26543D01*
Y8190D01*
X26379D01*
Y8158D01*
X26346D01*
Y8125D01*
X26313D01*
Y8158D01*
X26280D01*
Y8125D01*
X26182D01*
Y8092D01*
X26149D01*
Y8125D01*
X26116D01*
Y8092D01*
X26083D01*
Y8059D01*
X26050D01*
Y8092D01*
X26018D01*
Y8059D01*
X25919D01*
Y8026D01*
X25821D01*
Y7993D01*
X25722D01*
Y7961D01*
X25689D01*
Y7993D01*
X25656D01*
Y7961D01*
X25624D01*
Y7928D01*
X25460D01*
Y7895D01*
X25361D01*
Y7862D01*
X25262D01*
Y7829D01*
X25230D01*
Y7862D01*
X25197D01*
Y7829D01*
X25164D01*
Y7797D01*
X25131D01*
Y7829D01*
X25098D01*
Y7862D01*
X25131D01*
Y7895D01*
X25295D01*
Y7928D01*
X25328D01*
Y7961D01*
X25361D01*
Y7928D01*
X25394D01*
Y7961D01*
X25492D01*
Y7993D01*
X25525D01*
Y8026D01*
X25558D01*
Y7993D01*
X25591D01*
Y8026D01*
X25689D01*
Y8059D01*
X25788D01*
Y8092D01*
X25952D01*
Y8125D01*
X26050D01*
Y8158D01*
X26149D01*
Y8190D01*
X26182D01*
Y8158D01*
X26215D01*
Y8190D01*
X26247D01*
Y8223D01*
X26412D01*
Y8256D01*
X26444D01*
Y8289D01*
X26477D01*
Y8256D01*
X26510D01*
Y8289D01*
X26608D01*
Y8322D01*
X26641D01*
Y8355D01*
X26674D01*
Y8322D01*
X26707D01*
Y8355D01*
X26805D01*
Y8388D01*
X26838D01*
Y8355D01*
X26871D01*
Y8388D01*
X26904D01*
Y8420D01*
X26937D01*
Y8388D01*
X26970D01*
Y8420D01*
X27068D01*
Y8453D01*
X27167D01*
Y8486D01*
X27265D01*
Y8519D01*
X27298D01*
Y8486D01*
X27331D01*
Y8519D01*
X27363D01*
Y8552D01*
X27396D01*
Y8519D01*
X27429D01*
Y8552D01*
X27528D01*
Y8584D01*
X27560D01*
Y8617D01*
X27593D01*
Y8584D01*
X27626D01*
Y8617D01*
X27725D01*
Y8650D01*
X27757D01*
Y8617D01*
X27790D01*
Y8650D01*
X27823D01*
Y8683D01*
X27987D01*
Y8716D01*
X28086D01*
Y8749D01*
X28250D01*
Y8781D01*
X28283D01*
Y8814D01*
X28316D01*
Y8781D01*
X28348D01*
Y8814D01*
X28447D01*
Y8847D01*
X28545D01*
Y8880D01*
X28710D01*
Y8913D01*
X28742D01*
Y8880D01*
X28775D01*
Y8913D01*
X28808D01*
Y8946D01*
X28972D01*
Y8978D01*
X29005D01*
Y9011D01*
X29038D01*
Y8978D01*
X29071D01*
Y9011D01*
X29169D01*
Y9044D01*
X29202D01*
Y9011D01*
X29235D01*
Y9044D01*
X29268D01*
Y9077D01*
X29300D01*
Y9044D01*
X29333D01*
Y9077D01*
X29432D01*
Y9110D01*
X29465D01*
Y9077D01*
X29497D01*
Y9110D01*
X29530D01*
Y9143D01*
X29563D01*
Y9110D01*
X29596D01*
Y9143D01*
X29694D01*
Y9175D01*
X29727D01*
Y9143D01*
X29760D01*
Y9175D01*
X29793D01*
Y9208D01*
X29826D01*
Y9175D01*
X29858D01*
Y9208D01*
X29957D01*
Y9241D01*
X29990D01*
Y9208D01*
X30023D01*
Y9241D01*
X30055D01*
Y9274D01*
X30088D01*
Y9241D01*
X30121D01*
Y9274D01*
X30220D01*
Y9307D01*
X30252D01*
Y9274D01*
X30285D01*
Y9307D01*
X30384D01*
Y9340D01*
X30548D01*
Y9372D01*
X30581D01*
Y9405D01*
X30613D01*
Y9372D01*
X30646D01*
Y9405D01*
X30810D01*
Y9438D01*
X30843D01*
Y9405D01*
X30876D01*
Y9438D01*
X30909D01*
Y9471D01*
X30942D01*
Y9438D01*
X30975D01*
Y9471D01*
X31073D01*
Y9504D01*
X31106D01*
Y9471D01*
X31139D01*
Y9504D01*
X31172D01*
Y9537D01*
X31204D01*
Y9504D01*
X31237D01*
Y9537D01*
X31401D01*
Y9569D01*
X31434D01*
Y9602D01*
X31467D01*
Y9569D01*
X31500D01*
Y9602D01*
X31664D01*
Y9635D01*
X31697D01*
Y9602D01*
X31730D01*
Y9635D01*
X31762D01*
Y9668D01*
X31795D01*
Y9635D01*
X31828D01*
Y9668D01*
X31992D01*
Y9701D01*
X32025D01*
Y9668D01*
X32058D01*
Y9701D01*
X32091D01*
Y9734D01*
X32124D01*
Y9701D01*
X32157D01*
Y9734D01*
X32255D01*
Y9766D01*
X32288D01*
Y9734D01*
X32321D01*
Y9766D01*
X32353D01*
Y9734D01*
X32386D01*
Y9766D01*
X32419D01*
Y9799D01*
X32452D01*
Y9766D01*
X32485D01*
Y9799D01*
X32649D01*
Y9832D01*
X32682D01*
Y9799D01*
X32715D01*
Y9832D01*
X32747D01*
Y9865D01*
X32780D01*
Y9832D01*
X32813D01*
Y9865D01*
X32977D01*
Y9898D01*
X33010D01*
Y9865D01*
X33043D01*
Y9898D01*
X33076D01*
Y9930D01*
X33108D01*
Y9898D01*
X33141D01*
Y9930D01*
X33371D01*
Y9963D01*
X33470D01*
Y9996D01*
X33502D01*
Y9963D01*
X33535D01*
Y9996D01*
X33699D01*
Y10029D01*
X33732D01*
Y9996D01*
X33765D01*
Y10029D01*
X33798D01*
Y9996D01*
X33831D01*
Y10029D01*
X33863D01*
Y10062D01*
X33896D01*
Y10029D01*
X33929D01*
Y10062D01*
X34159D01*
Y10095D01*
X34192D01*
Y10062D01*
X34225D01*
Y10095D01*
X34258D01*
Y10062D01*
X34290D01*
Y10095D01*
X34323D01*
Y10127D01*
X34356D01*
Y10095D01*
X34389D01*
Y10127D01*
X34619D01*
Y10160D01*
X34651D01*
Y10127D01*
X34684D01*
Y10160D01*
X34717D01*
Y10127D01*
X34750D01*
Y10160D01*
X34783D01*
Y10193D01*
X34816D01*
Y10160D01*
X34848D01*
Y10193D01*
X34881D01*
Y10160D01*
X34914D01*
Y10193D01*
X35210D01*
Y10226D01*
X35242D01*
Y10193D01*
X35275D01*
Y10226D01*
X35308D01*
Y10193D01*
X35341D01*
Y10226D01*
X35439D01*
Y10259D01*
X35472D01*
Y10226D01*
X35505D01*
Y10259D01*
X35538D01*
Y10226D01*
X35571D01*
Y10259D01*
X35932D01*
Y10291D01*
X35965D01*
Y10259D01*
X35997D01*
Y10291D01*
X36030D01*
Y10259D01*
X36063D01*
Y10291D01*
X36096D01*
Y10259D01*
X36129D01*
Y10291D01*
X36162D01*
Y10259D01*
X36194D01*
Y10291D01*
X36358D01*
Y10324D01*
X36391D01*
Y10291D01*
X36424D01*
Y10324D01*
X36457D01*
Y10291D01*
X36490D01*
Y10324D01*
X36523D01*
Y10291D01*
X36555D01*
Y10324D01*
X36588D01*
Y10291D01*
X36621D01*
Y10324D01*
X36654D01*
Y10291D01*
X36687D01*
Y10324D01*
X36785D01*
Y10291D01*
X36818D01*
Y10324D01*
X36917D01*
Y10291D01*
X36949D01*
Y10324D01*
X37967D01*
Y10291D01*
X38000D01*
Y10324D01*
X38098D01*
Y10291D01*
X38131D01*
Y10324D01*
X38164D01*
Y10291D01*
X38197D01*
Y10324D01*
X38230D01*
Y10291D01*
X38263D01*
Y10324D01*
X38295D01*
Y10291D01*
X38328D01*
Y10324D01*
X38361D01*
Y10291D01*
X38394D01*
Y10324D01*
X38427D01*
Y10291D01*
X38460D01*
Y10324D01*
X38492D01*
Y10291D01*
D02*
G37*
G36*
X25065Y7829D02*
X25098D01*
Y7797D01*
X25000D01*
Y7764D01*
X24901D01*
Y7731D01*
X24737D01*
Y7764D01*
X24836D01*
Y7797D01*
X24934D01*
Y7829D01*
X25033D01*
Y7862D01*
X25065D01*
Y7829D01*
D02*
G37*
G36*
X24704Y7731D02*
X24737D01*
Y7698D01*
X24704D01*
Y7665D01*
X24672D01*
Y7698D01*
X24639D01*
Y7731D01*
X24672D01*
Y7764D01*
X24704D01*
Y7731D01*
D02*
G37*
G36*
X24606Y7698D02*
X24639D01*
Y7665D01*
X24540D01*
Y7632D01*
X24442D01*
Y7600D01*
X24343D01*
Y7567D01*
X24310D01*
Y7600D01*
X24278D01*
Y7632D01*
X24376D01*
Y7665D01*
X24475D01*
Y7698D01*
X24573D01*
Y7731D01*
X24606D01*
Y7698D01*
D02*
G37*
G36*
X24278Y7567D02*
X24245D01*
Y7534D01*
X24212D01*
Y7567D01*
X24179D01*
Y7600D01*
X24278D01*
Y7567D01*
D02*
G37*
G36*
X24179Y7534D02*
X24146D01*
Y7501D01*
X24114D01*
Y7534D01*
X24081D01*
Y7567D01*
X24179D01*
Y7534D01*
D02*
G37*
G36*
X24048D02*
X24081D01*
Y7501D01*
X23982D01*
Y7534D01*
X24015D01*
Y7567D01*
X24048D01*
Y7534D01*
D02*
G37*
G36*
X23982Y7468D02*
X23884D01*
Y7501D01*
X23982D01*
Y7468D01*
D02*
G37*
G36*
X23851D02*
X23884D01*
Y7435D01*
X23851D01*
Y7468D01*
X23818D01*
Y7501D01*
X23851D01*
Y7468D01*
D02*
G37*
G36*
X23818Y7435D02*
X23785D01*
Y7468D01*
X23818D01*
Y7435D01*
D02*
G37*
G36*
X23785Y7403D02*
X23687D01*
Y7435D01*
X23785D01*
Y7403D01*
D02*
G37*
G36*
X23654D02*
X23687D01*
Y7370D01*
X23654D01*
Y7403D01*
X23621D01*
Y7435D01*
X23654D01*
Y7403D01*
D02*
G37*
G36*
X23621Y7370D02*
X23588D01*
Y7403D01*
X23621D01*
Y7370D01*
D02*
G37*
G36*
X23588Y7337D02*
X23555D01*
Y7370D01*
X23588D01*
Y7337D01*
D02*
G37*
G36*
X23457D02*
X23424D01*
Y7370D01*
X23457D01*
Y7337D01*
D02*
G37*
G36*
X23424Y7304D02*
X23391D01*
Y7337D01*
X23424D01*
Y7304D01*
D02*
G37*
G36*
X23391Y7271D02*
X23359D01*
Y7304D01*
X23391D01*
Y7271D01*
D02*
G37*
G36*
X23260D02*
X23227D01*
Y7304D01*
X23260D01*
Y7271D01*
D02*
G37*
G36*
X23227Y7238D02*
X23194D01*
Y7271D01*
X23227D01*
Y7238D01*
D02*
G37*
G36*
X28316Y6549D02*
X28348D01*
Y6516D01*
X28381D01*
Y6483D01*
X28348D01*
Y6451D01*
Y6418D01*
Y6385D01*
X28316D01*
Y6352D01*
X28283D01*
Y6319D01*
X28316D01*
Y6286D01*
X28283D01*
Y6254D01*
X28250D01*
Y6221D01*
X28217D01*
Y6188D01*
Y6155D01*
Y6122D01*
X28184D01*
Y6089D01*
X28151D01*
Y6057D01*
X28184D01*
Y6024D01*
X28151D01*
Y5991D01*
X28119D01*
Y5958D01*
X28086D01*
Y5925D01*
Y5892D01*
Y5860D01*
X28053D01*
Y5827D01*
X28020D01*
Y5794D01*
X28053D01*
Y5761D01*
X28020D01*
Y5728D01*
X27987D01*
Y5696D01*
X27954D01*
Y5663D01*
Y5630D01*
Y5597D01*
X27922D01*
Y5564D01*
X27889D01*
Y5531D01*
X27922D01*
Y5499D01*
X27889D01*
Y5466D01*
X27856D01*
Y5433D01*
X27823D01*
Y5400D01*
X27856D01*
Y5367D01*
X27823D01*
Y5334D01*
X27790D01*
Y5302D01*
X27757D01*
Y5269D01*
X27790D01*
Y5236D01*
X27757D01*
Y5203D01*
X27725D01*
Y5170D01*
X27692D01*
Y5138D01*
X27725D01*
Y5105D01*
X27692D01*
Y5072D01*
X27659D01*
Y5039D01*
X27626D01*
Y5006D01*
X27659D01*
Y4973D01*
X27626D01*
Y4941D01*
X27593D01*
Y4908D01*
X27560D01*
Y4875D01*
X27593D01*
Y4842D01*
X27560D01*
Y4809D01*
X27528D01*
Y4776D01*
X27495D01*
Y4744D01*
X27528D01*
Y4711D01*
X27495D01*
Y4678D01*
X27528D01*
Y4645D01*
Y4612D01*
X27560D01*
Y4579D01*
Y4547D01*
X27593D01*
Y4514D01*
X27626D01*
Y4481D01*
X27659D01*
Y4448D01*
X27692D01*
Y4415D01*
X27725D01*
Y4382D01*
Y4350D01*
X27757D01*
Y4317D01*
Y4284D01*
X27790D01*
Y4251D01*
X27823D01*
Y4218D01*
X27856D01*
Y4185D01*
Y4153D01*
X27889D01*
Y4120D01*
Y4087D01*
X27922D01*
Y4054D01*
X27954D01*
Y4021D01*
X27987D01*
Y3988D01*
X28020D01*
Y3956D01*
X28053D01*
Y3923D01*
Y3890D01*
X28119D01*
Y3857D01*
X28086D01*
Y3824D01*
X28119D01*
Y3791D01*
X28151D01*
Y3759D01*
X28184D01*
Y3726D01*
X28217D01*
Y3693D01*
X28250D01*
Y3660D01*
X28217D01*
Y3627D01*
X28283D01*
Y3594D01*
Y3562D01*
X28316D01*
Y3529D01*
X28348D01*
Y3496D01*
X28381D01*
Y3463D01*
Y3430D01*
X28447D01*
Y3398D01*
X28414D01*
Y3365D01*
X28447D01*
Y3332D01*
X28480D01*
Y3299D01*
X28512D01*
Y3266D01*
X28545D01*
Y3233D01*
X28578D01*
Y3201D01*
Y3168D01*
X28611D01*
Y3135D01*
Y3102D01*
X28644D01*
Y3069D01*
X28677D01*
Y3036D01*
X28710D01*
Y3004D01*
X28742D01*
Y2971D01*
X28775D01*
Y2938D01*
Y2905D01*
X28808D01*
Y2872D01*
Y2840D01*
X28841D01*
Y2807D01*
X28874D01*
Y2774D01*
X28841D01*
Y2741D01*
X28742D01*
Y2774D01*
X28710D01*
Y2741D01*
X28611D01*
Y2774D01*
X28578D01*
Y2741D01*
X28480D01*
Y2774D01*
X28447D01*
Y2741D01*
X28348D01*
Y2774D01*
X28316D01*
Y2741D01*
X28217D01*
Y2774D01*
X28184D01*
Y2807D01*
X28151D01*
Y2840D01*
X28119D01*
Y2872D01*
X28086D01*
Y2905D01*
X28053D01*
Y2938D01*
Y2971D01*
Y3004D01*
X28020D01*
Y3036D01*
X27987D01*
Y3069D01*
X27954D01*
Y3102D01*
X27922D01*
Y3135D01*
X27889D01*
Y3168D01*
X27922D01*
Y3201D01*
X27889D01*
Y3233D01*
X27856D01*
Y3266D01*
X27823D01*
Y3299D01*
X27790D01*
Y3332D01*
X27757D01*
Y3365D01*
X27790D01*
Y3398D01*
X27757D01*
Y3430D01*
X27725D01*
Y3463D01*
X27692D01*
Y3496D01*
X27659D01*
Y3529D01*
X27626D01*
Y3562D01*
X27659D01*
Y3594D01*
X27626D01*
Y3627D01*
X27593D01*
Y3660D01*
X27560D01*
Y3693D01*
X27528D01*
Y3726D01*
X27495D01*
Y3759D01*
Y3791D01*
X27462D01*
Y3824D01*
Y3857D01*
X27429D01*
Y3890D01*
X27396D01*
Y3923D01*
X27363D01*
Y3956D01*
X27396D01*
Y3988D01*
X27363D01*
Y4021D01*
X27331D01*
Y4054D01*
X27298D01*
Y4087D01*
X27265D01*
Y4120D01*
X27232D01*
Y4153D01*
Y4185D01*
X27199D01*
Y4218D01*
Y4251D01*
X27167D01*
Y4218D01*
X27134D01*
Y4185D01*
X27101D01*
Y4153D01*
X27134D01*
Y4120D01*
X27101D01*
Y4087D01*
X27068D01*
Y4054D01*
Y4021D01*
Y3988D01*
X27035D01*
Y3956D01*
Y3923D01*
X27002D01*
Y3890D01*
Y3857D01*
X26970D01*
Y3824D01*
X27002D01*
Y3791D01*
X26970D01*
Y3759D01*
X26937D01*
Y3726D01*
Y3693D01*
Y3660D01*
X26904D01*
Y3627D01*
Y3594D01*
X26871D01*
Y3562D01*
Y3529D01*
X26838D01*
Y3496D01*
Y3463D01*
Y3430D01*
X26805D01*
Y3398D01*
X26773D01*
Y3365D01*
X26805D01*
Y3332D01*
X26773D01*
Y3299D01*
X26740D01*
Y3266D01*
Y3233D01*
Y3201D01*
X26707D01*
Y3168D01*
Y3135D01*
Y3102D01*
X26674D01*
Y3069D01*
X26641D01*
Y3036D01*
Y3004D01*
Y2971D01*
X26608D01*
Y2938D01*
X26576D01*
Y2905D01*
X26608D01*
Y2872D01*
X26576D01*
Y2840D01*
X26543D01*
Y2807D01*
Y2774D01*
Y2741D01*
X26510D01*
Y2774D01*
X26477D01*
Y2741D01*
X26379D01*
Y2774D01*
X26346D01*
Y2741D01*
X26247D01*
Y2774D01*
X26215D01*
Y2741D01*
X26116D01*
Y2774D01*
X26083D01*
Y2741D01*
X25985D01*
Y2774D01*
X25952D01*
Y2741D01*
X25853D01*
Y2774D01*
X25821D01*
Y2807D01*
X25853D01*
Y2840D01*
X25886D01*
Y2872D01*
Y2905D01*
Y2938D01*
X25919D01*
Y2971D01*
X25952D01*
Y3004D01*
X25919D01*
Y3036D01*
X25952D01*
Y3069D01*
X25985D01*
Y3102D01*
X26018D01*
Y3135D01*
Y3168D01*
Y3201D01*
X26050D01*
Y3233D01*
X26083D01*
Y3266D01*
X26050D01*
Y3299D01*
X26083D01*
Y3332D01*
X26116D01*
Y3365D01*
X26149D01*
Y3398D01*
X26116D01*
Y3430D01*
X26149D01*
Y3463D01*
X26182D01*
Y3496D01*
Y3529D01*
Y3562D01*
X26215D01*
Y3594D01*
Y3627D01*
X26247D01*
Y3660D01*
Y3693D01*
X26280D01*
Y3726D01*
Y3759D01*
X26313D01*
Y3791D01*
Y3824D01*
X26346D01*
Y3857D01*
Y3890D01*
Y3923D01*
X26379D01*
Y3956D01*
X26412D01*
Y3988D01*
X26379D01*
Y4021D01*
X26412D01*
Y4054D01*
X26444D01*
Y4087D01*
X26477D01*
Y4120D01*
X26444D01*
Y4153D01*
X26477D01*
Y4185D01*
X26510D01*
Y4218D01*
X26543D01*
Y4251D01*
X26510D01*
Y4284D01*
X26543D01*
Y4317D01*
X26576D01*
Y4350D01*
X26608D01*
Y4382D01*
X26576D01*
Y4415D01*
X26608D01*
Y4448D01*
X26641D01*
Y4481D01*
Y4514D01*
Y4547D01*
X26674D01*
Y4579D01*
Y4612D01*
X26707D01*
Y4645D01*
Y4678D01*
X26740D01*
Y4711D01*
X26707D01*
Y4744D01*
X26674D01*
Y4776D01*
X26641D01*
Y4809D01*
X26608D01*
Y4842D01*
X26576D01*
Y4875D01*
X26608D01*
Y4908D01*
X26543D01*
Y4941D01*
Y4973D01*
X26510D01*
Y5006D01*
X26477D01*
Y5039D01*
X26444D01*
Y5072D01*
X26412D01*
Y5105D01*
X26379D01*
Y5138D01*
Y5170D01*
X26346D01*
Y5203D01*
Y5236D01*
X26313D01*
Y5269D01*
X26280D01*
Y5302D01*
X26247D01*
Y5334D01*
X26215D01*
Y5367D01*
X26182D01*
Y5400D01*
Y5433D01*
X26149D01*
Y5466D01*
Y5499D01*
X26116D01*
Y5531D01*
X26083D01*
Y5564D01*
X26050D01*
Y5597D01*
X26018D01*
Y5630D01*
X25985D01*
Y5663D01*
Y5696D01*
X25952D01*
Y5728D01*
Y5761D01*
X25919D01*
Y5794D01*
X25886D01*
Y5827D01*
X25853D01*
Y5860D01*
X25821D01*
Y5892D01*
X25788D01*
Y5925D01*
X25821D01*
Y5958D01*
X25755D01*
Y5991D01*
Y6024D01*
X25722D01*
Y6057D01*
X25689D01*
Y6089D01*
X25656D01*
Y6122D01*
X25624D01*
Y6155D01*
X25591D01*
Y6188D01*
Y6221D01*
X25558D01*
Y6254D01*
Y6286D01*
X25525D01*
Y6319D01*
X25492D01*
Y6352D01*
X25460D01*
Y6385D01*
X25427D01*
Y6418D01*
X25394D01*
Y6451D01*
Y6483D01*
X25361D01*
Y6516D01*
Y6549D01*
X25394D01*
Y6582D01*
X25427D01*
Y6549D01*
X25460D01*
Y6516D01*
X25492D01*
Y6549D01*
X25525D01*
Y6582D01*
X25558D01*
Y6549D01*
X25656D01*
Y6582D01*
X25689D01*
Y6549D01*
X25722D01*
Y6516D01*
X25755D01*
Y6549D01*
X25788D01*
Y6582D01*
X25821D01*
Y6549D01*
X25919D01*
Y6582D01*
X25952D01*
Y6549D01*
X25985D01*
Y6516D01*
X26018D01*
Y6549D01*
X26050D01*
Y6516D01*
X26083D01*
Y6483D01*
X26116D01*
Y6451D01*
X26149D01*
Y6418D01*
X26116D01*
Y6385D01*
X26149D01*
Y6352D01*
X26182D01*
Y6319D01*
X26215D01*
Y6286D01*
X26247D01*
Y6254D01*
X26280D01*
Y6221D01*
Y6188D01*
X26313D01*
Y6155D01*
Y6122D01*
X26346D01*
Y6089D01*
X26379D01*
Y6057D01*
X26412D01*
Y6024D01*
Y5991D01*
X26444D01*
Y5958D01*
Y5925D01*
X26477D01*
Y5892D01*
X26510D01*
Y5860D01*
X26543D01*
Y5827D01*
X26576D01*
Y5794D01*
X26608D01*
Y5761D01*
Y5728D01*
X26641D01*
Y5696D01*
Y5663D01*
X26674D01*
Y5630D01*
X26707D01*
Y5597D01*
X26740D01*
Y5564D01*
Y5531D01*
X26773D01*
Y5499D01*
Y5466D01*
X26805D01*
Y5433D01*
X26838D01*
Y5400D01*
X26871D01*
Y5367D01*
Y5334D01*
X26937D01*
Y5302D01*
X26904D01*
Y5269D01*
X26937D01*
Y5236D01*
X26970D01*
Y5203D01*
X27002D01*
Y5170D01*
X27035D01*
Y5138D01*
X27068D01*
Y5170D01*
X27101D01*
Y5203D01*
X27134D01*
Y5236D01*
X27101D01*
Y5269D01*
X27134D01*
Y5302D01*
X27167D01*
Y5334D01*
X27199D01*
Y5367D01*
X27167D01*
Y5400D01*
X27199D01*
Y5433D01*
Y5466D01*
X27232D01*
Y5499D01*
Y5531D01*
X27265D01*
Y5564D01*
Y5597D01*
Y5630D01*
X27298D01*
Y5663D01*
X27331D01*
Y5696D01*
X27298D01*
Y5728D01*
X27331D01*
Y5761D01*
X27363D01*
Y5794D01*
X27396D01*
Y5827D01*
X27363D01*
Y5860D01*
X27396D01*
Y5892D01*
X27429D01*
Y5925D01*
Y5958D01*
Y5991D01*
X27462D01*
Y6024D01*
Y6057D01*
X27495D01*
Y6089D01*
Y6122D01*
X27528D01*
Y6155D01*
X27495D01*
Y6188D01*
X27528D01*
Y6221D01*
X27560D01*
Y6254D01*
X27593D01*
Y6286D01*
X27560D01*
Y6319D01*
X27593D01*
Y6352D01*
X27626D01*
Y6385D01*
Y6418D01*
Y6451D01*
X27659D01*
Y6483D01*
Y6516D01*
X27692D01*
Y6549D01*
X27757D01*
Y6582D01*
X27790D01*
Y6549D01*
X27823D01*
Y6516D01*
X27856D01*
Y6549D01*
X27889D01*
Y6582D01*
X27922D01*
Y6549D01*
X28020D01*
Y6582D01*
X28053D01*
Y6549D01*
X28086D01*
Y6516D01*
X28119D01*
Y6549D01*
X28151D01*
Y6582D01*
X28184D01*
Y6549D01*
X28283D01*
Y6582D01*
X28316D01*
Y6549D01*
D02*
G37*
G36*
X24901D02*
X24934D01*
Y6516D01*
X24967D01*
Y6549D01*
X25000D01*
Y6516D01*
Y6483D01*
Y6451D01*
X25033D01*
Y6418D01*
X25000D01*
Y6385D01*
X25033D01*
Y6352D01*
X25000D01*
Y6319D01*
X25033D01*
Y6286D01*
X25000D01*
Y6254D01*
X25033D01*
Y6221D01*
Y6188D01*
Y6155D01*
Y6122D01*
Y6089D01*
X25065D01*
Y6057D01*
Y6024D01*
Y5991D01*
X25098D01*
Y5958D01*
X25065D01*
Y5925D01*
X25098D01*
Y5892D01*
X25065D01*
Y5860D01*
X25098D01*
Y5827D01*
X25065D01*
Y5794D01*
X25098D01*
Y5761D01*
X25065D01*
Y5728D01*
X25098D01*
Y5696D01*
Y5663D01*
Y5630D01*
X25131D01*
Y5597D01*
X25098D01*
Y5564D01*
X25131D01*
Y5531D01*
Y5499D01*
Y5466D01*
X25164D01*
Y5433D01*
X25131D01*
Y5400D01*
X25164D01*
Y5367D01*
X25131D01*
Y5334D01*
X25164D01*
Y5302D01*
X25131D01*
Y5269D01*
X25164D01*
Y5236D01*
Y5203D01*
Y5170D01*
X25197D01*
Y5138D01*
X25164D01*
Y5105D01*
X25197D01*
Y5072D01*
Y5039D01*
Y5006D01*
Y4973D01*
Y4941D01*
X25230D01*
Y4908D01*
X25197D01*
Y4875D01*
X25230D01*
Y4842D01*
X25197D01*
Y4809D01*
X25230D01*
Y4776D01*
X25197D01*
Y4744D01*
X25230D01*
Y4711D01*
X25197D01*
Y4678D01*
X25230D01*
Y4645D01*
Y4612D01*
Y4579D01*
X25262D01*
Y4547D01*
Y4514D01*
Y4481D01*
Y4448D01*
Y4415D01*
X25295D01*
Y4382D01*
X25262D01*
Y4350D01*
X25295D01*
Y4317D01*
X25262D01*
Y4284D01*
X25295D01*
Y4251D01*
X25262D01*
Y4218D01*
X25295D01*
Y4185D01*
Y4153D01*
Y4120D01*
X25328D01*
Y4087D01*
X25295D01*
Y4054D01*
X25328D01*
Y4021D01*
Y3988D01*
Y3956D01*
Y3923D01*
Y3890D01*
X25361D01*
Y3857D01*
X25328D01*
Y3824D01*
X25361D01*
Y3791D01*
X25328D01*
Y3759D01*
X25361D01*
Y3726D01*
Y3693D01*
Y3660D01*
Y3627D01*
Y3594D01*
X25394D01*
Y3562D01*
Y3529D01*
Y3496D01*
Y3463D01*
Y3430D01*
X25427D01*
Y3398D01*
X25394D01*
Y3365D01*
X25427D01*
Y3332D01*
X25394D01*
Y3299D01*
X25427D01*
Y3266D01*
X25394D01*
Y3233D01*
X25427D01*
Y3201D01*
X25394D01*
Y3168D01*
X25427D01*
Y3135D01*
Y3102D01*
Y3069D01*
X25460D01*
Y3036D01*
X25427D01*
Y3004D01*
X25460D01*
Y2971D01*
Y2938D01*
Y2905D01*
Y2872D01*
Y2840D01*
X25492D01*
Y2807D01*
X25460D01*
Y2774D01*
X25427D01*
Y2741D01*
X25328D01*
Y2774D01*
X25295D01*
Y2741D01*
X25197D01*
Y2774D01*
X25164D01*
Y2741D01*
X25065D01*
Y2774D01*
X25033D01*
Y2741D01*
X24934D01*
Y2774D01*
X24901D01*
Y2741D01*
X24869D01*
Y2774D01*
X24836D01*
Y2807D01*
X24869D01*
Y2840D01*
X24836D01*
Y2872D01*
Y2905D01*
Y2938D01*
X24803D01*
Y2971D01*
X24836D01*
Y3004D01*
X24803D01*
Y3036D01*
X24836D01*
Y3069D01*
X24803D01*
Y3102D01*
X24836D01*
Y3135D01*
X24803D01*
Y3168D01*
Y3201D01*
Y3233D01*
Y3266D01*
Y3299D01*
X24770D01*
Y3332D01*
Y3365D01*
Y3398D01*
Y3430D01*
Y3463D01*
X24737D01*
Y3496D01*
X24770D01*
Y3529D01*
X24737D01*
Y3562D01*
X24770D01*
Y3594D01*
X24737D01*
Y3627D01*
X24770D01*
Y3660D01*
X24737D01*
Y3693D01*
Y3726D01*
Y3759D01*
X24704D01*
Y3791D01*
X24737D01*
Y3824D01*
X24704D01*
Y3857D01*
X24672D01*
Y3890D01*
X24704D01*
Y3923D01*
Y3956D01*
Y3988D01*
X24672D01*
Y4021D01*
X24704D01*
Y4054D01*
X24672D01*
Y4087D01*
X24704D01*
Y4120D01*
X24672D01*
Y4153D01*
X24704D01*
Y4185D01*
X24672D01*
Y4218D01*
Y4251D01*
Y4284D01*
X24639D01*
Y4317D01*
X24672D01*
Y4350D01*
X24639D01*
Y4382D01*
Y4415D01*
Y4448D01*
X24606D01*
Y4481D01*
X24639D01*
Y4514D01*
X24606D01*
Y4547D01*
X24639D01*
Y4579D01*
X24606D01*
Y4612D01*
X24639D01*
Y4645D01*
X24606D01*
Y4678D01*
Y4711D01*
Y4744D01*
Y4776D01*
Y4809D01*
X24573D01*
Y4842D01*
Y4875D01*
Y4908D01*
X24540D01*
Y4941D01*
X24573D01*
Y4973D01*
Y5006D01*
Y5039D01*
X24540D01*
Y5072D01*
X24573D01*
Y5105D01*
X24540D01*
Y5138D01*
Y5170D01*
Y5203D01*
Y5236D01*
Y5269D01*
X24508D01*
Y5302D01*
X24540D01*
Y5334D01*
X24508D01*
Y5367D01*
Y5400D01*
Y5433D01*
Y5466D01*
Y5499D01*
X24475D01*
Y5531D01*
X24508D01*
Y5564D01*
X24475D01*
Y5597D01*
X24508D01*
Y5630D01*
X24475D01*
Y5663D01*
X24508D01*
Y5696D01*
X24475D01*
Y5728D01*
Y5761D01*
Y5794D01*
X24442D01*
Y5827D01*
X24475D01*
Y5860D01*
X24442D01*
Y5892D01*
Y5925D01*
Y5958D01*
X24409D01*
Y5991D01*
X24442D01*
Y6024D01*
X24409D01*
Y6057D01*
X24442D01*
Y6089D01*
X24409D01*
Y6122D01*
X24442D01*
Y6155D01*
X24409D01*
Y6188D01*
Y6221D01*
Y6254D01*
Y6286D01*
Y6319D01*
X24376D01*
Y6352D01*
Y6385D01*
Y6418D01*
Y6451D01*
Y6483D01*
X24343D01*
Y6516D01*
X24376D01*
Y6549D01*
X24409D01*
Y6516D01*
X24442D01*
Y6549D01*
X24475D01*
Y6582D01*
X24508D01*
Y6549D01*
X24606D01*
Y6582D01*
X24639D01*
Y6549D01*
X24672D01*
Y6516D01*
X24704D01*
Y6549D01*
X24737D01*
Y6582D01*
X24770D01*
Y6549D01*
X24869D01*
Y6582D01*
X24901D01*
Y6549D01*
D02*
G37*
G36*
X28414Y6516D02*
X28381D01*
Y6549D01*
X28414D01*
Y6516D01*
D02*
G37*
G36*
X23457Y6549D02*
X23555D01*
Y6516D01*
X23588D01*
Y6483D01*
X23555D01*
Y6451D01*
X23588D01*
Y6418D01*
Y6385D01*
Y6352D01*
X23621D01*
Y6319D01*
X23588D01*
Y6286D01*
X23621D01*
Y6254D01*
Y6221D01*
Y6188D01*
Y6155D01*
Y6122D01*
X23654D01*
Y6089D01*
X23621D01*
Y6057D01*
X23654D01*
Y6024D01*
X23621D01*
Y5991D01*
X23654D01*
Y5958D01*
Y5925D01*
Y5892D01*
Y5860D01*
Y5827D01*
X23687D01*
Y5794D01*
X23654D01*
Y5761D01*
X23687D01*
Y5728D01*
Y5696D01*
Y5663D01*
X23720D01*
Y5630D01*
X23687D01*
Y5597D01*
X23720D01*
Y5564D01*
X23687D01*
Y5531D01*
X23720D01*
Y5499D01*
X23687D01*
Y5466D01*
X23720D01*
Y5433D01*
X23687D01*
Y5400D01*
X23720D01*
Y5367D01*
Y5334D01*
Y5302D01*
X23752D01*
Y5269D01*
X23720D01*
Y5236D01*
X23752D01*
Y5203D01*
Y5170D01*
Y5138D01*
Y5105D01*
Y5072D01*
X23785D01*
Y5039D01*
X23752D01*
Y5006D01*
X23785D01*
Y4973D01*
X23752D01*
Y4941D01*
X23785D01*
Y4908D01*
Y4875D01*
Y4842D01*
X23818D01*
Y4809D01*
X23785D01*
Y4776D01*
X23818D01*
Y4744D01*
Y4711D01*
Y4678D01*
Y4645D01*
Y4612D01*
X23851D01*
Y4579D01*
X23818D01*
Y4547D01*
X23851D01*
Y4514D01*
X23818D01*
Y4481D01*
X23851D01*
Y4448D01*
X23818D01*
Y4415D01*
X23851D01*
Y4382D01*
Y4350D01*
Y4317D01*
Y4284D01*
Y4251D01*
X23884D01*
Y4218D01*
Y4185D01*
Y4153D01*
X23917D01*
Y4120D01*
X23884D01*
Y4087D01*
X23917D01*
Y4054D01*
X23884D01*
Y4021D01*
X23917D01*
Y3988D01*
X23884D01*
Y3956D01*
X23917D01*
Y3923D01*
X23884D01*
Y3890D01*
X23917D01*
Y3857D01*
Y3824D01*
Y3791D01*
X23949D01*
Y3759D01*
X23917D01*
Y3726D01*
X23949D01*
Y3693D01*
Y3660D01*
Y3627D01*
X23982D01*
Y3594D01*
X23949D01*
Y3562D01*
X23982D01*
Y3529D01*
X23949D01*
Y3496D01*
X23982D01*
Y3463D01*
X23949D01*
Y3430D01*
X23982D01*
Y3398D01*
Y3365D01*
Y3332D01*
X24015D01*
Y3299D01*
X23982D01*
Y3266D01*
X24015D01*
Y3233D01*
Y3201D01*
Y3168D01*
Y3135D01*
Y3102D01*
X24048D01*
Y3069D01*
X24015D01*
Y3036D01*
X24048D01*
Y3004D01*
X24015D01*
Y2971D01*
X24048D01*
Y2938D01*
Y2905D01*
Y2872D01*
Y2840D01*
Y2807D01*
X24081D01*
Y2774D01*
X24048D01*
Y2741D01*
X24015D01*
Y2774D01*
X23982D01*
Y2741D01*
X23884D01*
Y2774D01*
X23851D01*
Y2741D01*
X23752D01*
Y2774D01*
X23720D01*
Y2741D01*
X23621D01*
Y2774D01*
X23588D01*
Y2741D01*
X23490D01*
Y2774D01*
X23457D01*
Y2807D01*
X23424D01*
Y2840D01*
Y2872D01*
Y2905D01*
Y2938D01*
Y2971D01*
X23391D01*
Y3004D01*
Y3036D01*
Y3069D01*
X23359D01*
Y3102D01*
X23391D01*
Y3135D01*
Y3168D01*
Y3201D01*
X23359D01*
Y3233D01*
X23391D01*
Y3266D01*
X23359D01*
Y3299D01*
X23391D01*
Y3332D01*
X23359D01*
Y3365D01*
X23391D01*
Y3398D01*
X23359D01*
Y3430D01*
X23326D01*
Y3463D01*
X23359D01*
Y3496D01*
X23326D01*
Y3529D01*
X23359D01*
Y3562D01*
X23326D01*
Y3594D01*
Y3627D01*
Y3660D01*
X23293D01*
Y3693D01*
X23326D01*
Y3726D01*
X23293D01*
Y3759D01*
X23326D01*
Y3791D01*
X23293D01*
Y3824D01*
X23326D01*
Y3857D01*
X23293D01*
Y3890D01*
Y3923D01*
Y3956D01*
Y3988D01*
Y4021D01*
X23260D01*
Y4054D01*
Y4087D01*
Y4120D01*
X23227D01*
Y4153D01*
X23260D01*
Y4185D01*
X23227D01*
Y4218D01*
X23260D01*
Y4251D01*
X23227D01*
Y4284D01*
X23260D01*
Y4317D01*
X23227D01*
Y4350D01*
Y4382D01*
Y4415D01*
Y4448D01*
Y4481D01*
X23194D01*
Y4514D01*
Y4547D01*
Y4579D01*
Y4612D01*
Y4645D01*
Y4678D01*
Y4711D01*
X23162D01*
Y4744D01*
X23194D01*
Y4776D01*
X23162D01*
Y4809D01*
X23194D01*
Y4842D01*
X23162D01*
Y4875D01*
X23194D01*
Y4908D01*
X23162D01*
Y4941D01*
Y4973D01*
Y5006D01*
X23129D01*
Y5039D01*
Y5072D01*
Y5105D01*
Y5138D01*
Y5170D01*
X23096D01*
Y5203D01*
X23129D01*
Y5236D01*
X23096D01*
Y5269D01*
X23129D01*
Y5302D01*
X23096D01*
Y5334D01*
X23129D01*
Y5367D01*
X23096D01*
Y5400D01*
Y5433D01*
Y5466D01*
Y5499D01*
Y5531D01*
X23063D01*
Y5564D01*
Y5597D01*
Y5630D01*
Y5663D01*
Y5696D01*
X23030D01*
Y5728D01*
X23063D01*
Y5761D01*
X23030D01*
Y5794D01*
X23063D01*
Y5827D01*
X23030D01*
Y5860D01*
Y5892D01*
Y5925D01*
Y5958D01*
Y5991D01*
X22997D01*
Y6024D01*
X23030D01*
Y6057D01*
X22997D01*
Y6089D01*
Y6122D01*
Y6155D01*
Y6188D01*
Y6221D01*
X22964D01*
Y6254D01*
X22997D01*
Y6286D01*
X22964D01*
Y6319D01*
X22997D01*
Y6352D01*
X22964D01*
Y6385D01*
X22997D01*
Y6418D01*
X22964D01*
Y6451D01*
Y6483D01*
Y6516D01*
Y6549D01*
X23030D01*
Y6582D01*
X23063D01*
Y6549D01*
X23096D01*
Y6516D01*
X23129D01*
Y6549D01*
X23162D01*
Y6582D01*
X23194D01*
Y6549D01*
X23293D01*
Y6582D01*
X23326D01*
Y6549D01*
X23359D01*
Y6516D01*
X23391D01*
Y6549D01*
X23424D01*
Y6582D01*
X23457D01*
Y6549D01*
D02*
G37*
G36*
X43088Y5367D02*
X43187D01*
Y5334D01*
X43285D01*
Y5302D01*
X43318D01*
Y5269D01*
X43417D01*
Y5236D01*
X43449D01*
Y5203D01*
X43482D01*
Y5170D01*
X43515D01*
Y5138D01*
X43548D01*
Y5105D01*
X43581D01*
Y5072D01*
X43613D01*
Y5039D01*
X43646D01*
Y5006D01*
X43679D01*
Y4973D01*
X43712D01*
Y4941D01*
X43745D01*
Y4908D01*
X43712D01*
Y4875D01*
X43745D01*
Y4842D01*
X43778D01*
Y4809D01*
Y4776D01*
Y4744D01*
X43810D01*
Y4711D01*
Y4678D01*
X43843D01*
Y4645D01*
Y4612D01*
Y4579D01*
Y4547D01*
X43876D01*
Y4514D01*
X43843D01*
Y4481D01*
X43876D01*
Y4448D01*
Y4415D01*
Y4382D01*
X43909D01*
Y4350D01*
X43876D01*
Y4317D01*
X43909D01*
Y4284D01*
Y4251D01*
Y4218D01*
Y4185D01*
Y4153D01*
Y4120D01*
Y4087D01*
Y4054D01*
Y4021D01*
Y3988D01*
Y3956D01*
Y3923D01*
Y3890D01*
Y3857D01*
Y3824D01*
Y3791D01*
Y3759D01*
X43876D01*
Y3726D01*
Y3693D01*
Y3660D01*
X43843D01*
Y3627D01*
X43876D01*
Y3594D01*
X43843D01*
Y3562D01*
X43876D01*
Y3529D01*
X43843D01*
Y3496D01*
Y3463D01*
Y3430D01*
X43810D01*
Y3398D01*
X43778D01*
Y3365D01*
X43810D01*
Y3332D01*
X43778D01*
Y3299D01*
X43745D01*
Y3266D01*
X43712D01*
Y3233D01*
X43745D01*
Y3201D01*
X43712D01*
Y3168D01*
X43679D01*
Y3135D01*
X43646D01*
Y3102D01*
Y3069D01*
X43613D01*
Y3036D01*
Y3004D01*
X43548D01*
Y2971D01*
Y2938D01*
X43482D01*
Y2905D01*
X43417D01*
Y2872D01*
X43384D01*
Y2840D01*
X43351D01*
Y2807D01*
X43252D01*
Y2774D01*
X43220D01*
Y2741D01*
X43187D01*
Y2774D01*
X43154D01*
Y2741D01*
X43055D01*
Y2708D01*
X43023D01*
Y2741D01*
X42990D01*
Y2708D01*
X42957D01*
Y2741D01*
X42924D01*
Y2708D01*
X42826D01*
Y2741D01*
X42793D01*
Y2708D01*
X42826D01*
Y2675D01*
X42793D01*
Y2708D01*
X42760D01*
Y2741D01*
X42727D01*
Y2708D01*
X42694D01*
Y2741D01*
X42530D01*
Y2774D01*
X42497D01*
Y2807D01*
X42399D01*
Y2840D01*
X42366D01*
Y2872D01*
X42268D01*
Y2905D01*
X42235D01*
Y2938D01*
X42202D01*
Y2971D01*
X42169D01*
Y2938D01*
X42202D01*
Y2905D01*
X42169D01*
Y2872D01*
X42202D01*
Y2840D01*
X42169D01*
Y2807D01*
Y2774D01*
Y2741D01*
X42136D01*
Y2774D01*
X42103D01*
Y2741D01*
X42005D01*
Y2774D01*
X41972D01*
Y2741D01*
X41874D01*
Y2774D01*
X41841D01*
Y2741D01*
X41808D01*
Y2774D01*
X41775D01*
Y2807D01*
Y2840D01*
Y2872D01*
Y2905D01*
Y2938D01*
Y2971D01*
Y3004D01*
Y3036D01*
Y3069D01*
Y3102D01*
Y3135D01*
Y3168D01*
Y3201D01*
Y3233D01*
Y3266D01*
Y3299D01*
Y3332D01*
Y3365D01*
Y3398D01*
Y3430D01*
Y3463D01*
Y3496D01*
Y3529D01*
Y3562D01*
Y3594D01*
Y3627D01*
Y3660D01*
Y3693D01*
Y3726D01*
Y3759D01*
Y3791D01*
Y3824D01*
Y3857D01*
Y3890D01*
Y3923D01*
Y3956D01*
Y3988D01*
Y4021D01*
Y4054D01*
Y4087D01*
Y4120D01*
Y4153D01*
Y4185D01*
X41874D01*
Y4153D01*
X41906D01*
Y4185D01*
X42005D01*
Y4153D01*
X42038D01*
Y4185D01*
X42136D01*
Y4153D01*
X42169D01*
Y4185D01*
X42268D01*
Y4153D01*
X42300D01*
Y4185D01*
X42399D01*
Y4153D01*
X42432D01*
Y4185D01*
X42530D01*
Y4153D01*
X42563D01*
Y4185D01*
X42661D01*
Y4153D01*
X42694D01*
Y4185D01*
X42793D01*
Y4153D01*
X42826D01*
Y4120D01*
X42793D01*
Y4087D01*
Y4054D01*
Y4021D01*
X42826D01*
Y3988D01*
X42793D01*
Y3956D01*
Y3923D01*
Y3890D01*
X42826D01*
Y3857D01*
X42793D01*
Y3824D01*
X42760D01*
Y3791D01*
X42727D01*
Y3824D01*
X42694D01*
Y3791D01*
X42661D01*
Y3824D01*
X42629D01*
Y3791D01*
X42596D01*
Y3824D01*
X42563D01*
Y3791D01*
X42530D01*
Y3824D01*
X42497D01*
Y3791D01*
X42465D01*
Y3824D01*
X42432D01*
Y3791D01*
X42399D01*
Y3824D01*
X42366D01*
Y3791D01*
X42333D01*
Y3824D01*
X42300D01*
Y3791D01*
X42268D01*
Y3824D01*
X42235D01*
Y3791D01*
Y3759D01*
Y3726D01*
Y3693D01*
Y3660D01*
Y3627D01*
X42268D01*
Y3594D01*
Y3562D01*
Y3529D01*
Y3496D01*
X42300D01*
Y3463D01*
Y3430D01*
Y3398D01*
X42333D01*
Y3365D01*
X42366D01*
Y3332D01*
X42399D01*
Y3299D01*
X42432D01*
Y3266D01*
X42465D01*
Y3233D01*
X42563D01*
Y3201D01*
X42596D01*
Y3168D01*
X42629D01*
Y3201D01*
X42661D01*
Y3168D01*
X42891D01*
Y3201D01*
X42924D01*
Y3168D01*
X42957D01*
Y3201D01*
X42990D01*
Y3233D01*
X43088D01*
Y3266D01*
X43121D01*
Y3299D01*
X43154D01*
Y3332D01*
X43187D01*
Y3365D01*
X43220D01*
Y3398D01*
Y3430D01*
X43252D01*
Y3463D01*
Y3496D01*
X43285D01*
Y3529D01*
X43318D01*
Y3562D01*
Y3594D01*
Y3627D01*
X43351D01*
Y3660D01*
X43318D01*
Y3693D01*
X43351D01*
Y3726D01*
Y3759D01*
Y3791D01*
Y3824D01*
Y3857D01*
X43384D01*
Y3890D01*
X43351D01*
Y3923D01*
X43384D01*
Y3956D01*
Y3988D01*
Y4021D01*
Y4054D01*
Y4087D01*
Y4120D01*
Y4153D01*
Y4185D01*
Y4218D01*
Y4251D01*
Y4284D01*
X43351D01*
Y4317D01*
Y4350D01*
Y4382D01*
X43318D01*
Y4415D01*
X43351D01*
Y4448D01*
X43318D01*
Y4481D01*
X43351D01*
Y4514D01*
X43318D01*
Y4547D01*
Y4579D01*
X43285D01*
Y4612D01*
Y4645D01*
X43252D01*
Y4678D01*
Y4711D01*
X43220D01*
Y4744D01*
Y4776D01*
X43187D01*
Y4809D01*
X43154D01*
Y4842D01*
X43121D01*
Y4875D01*
X43023D01*
Y4908D01*
X42990D01*
Y4941D01*
X42957D01*
Y4908D01*
X42924D01*
Y4941D01*
X42891D01*
Y4973D01*
X42858D01*
Y4941D01*
X42826D01*
Y4973D01*
X42793D01*
Y4941D01*
X42760D01*
Y4973D01*
X42727D01*
Y4941D01*
X42694D01*
Y4973D01*
X42661D01*
Y4941D01*
X42694D01*
Y4908D01*
X42661D01*
Y4941D01*
X42629D01*
Y4908D01*
X42530D01*
Y4875D01*
X42497D01*
Y4842D01*
X42465D01*
Y4809D01*
Y4776D01*
X42432D01*
Y4744D01*
Y4711D01*
X42399D01*
Y4678D01*
Y4645D01*
Y4612D01*
X42366D01*
Y4579D01*
Y4547D01*
X42300D01*
Y4579D01*
X42136D01*
Y4612D01*
X42103D01*
Y4579D01*
X42071D01*
Y4612D01*
X41972D01*
Y4645D01*
X41939D01*
Y4612D01*
X41906D01*
Y4645D01*
X41841D01*
Y4678D01*
Y4711D01*
Y4744D01*
Y4776D01*
X41874D01*
Y4809D01*
X41906D01*
Y4842D01*
X41874D01*
Y4875D01*
X41906D01*
Y4908D01*
Y4941D01*
X41939D01*
Y4973D01*
Y5006D01*
X41972D01*
Y5039D01*
X42005D01*
Y5072D01*
X42038D01*
Y5105D01*
Y5138D01*
X42103D01*
Y5170D01*
Y5203D01*
X42169D01*
Y5236D01*
X42202D01*
Y5269D01*
X42235D01*
Y5302D01*
X42268D01*
Y5334D01*
X42300D01*
Y5302D01*
X42333D01*
Y5334D01*
X42432D01*
Y5367D01*
X42465D01*
Y5400D01*
X42497D01*
Y5367D01*
X42530D01*
Y5400D01*
X43023D01*
Y5367D01*
X43055D01*
Y5400D01*
X43088D01*
Y5367D01*
D02*
G37*
G36*
X35932D02*
X35965D01*
Y5334D01*
X35997D01*
Y5367D01*
X36030D01*
Y5334D01*
X36129D01*
Y5302D01*
X36162D01*
Y5269D01*
X36194D01*
Y5236D01*
X36227D01*
Y5203D01*
X36260D01*
Y5170D01*
X36293D01*
Y5138D01*
X36326D01*
Y5105D01*
X36358D01*
Y5072D01*
X36391D01*
Y5039D01*
Y5006D01*
Y4973D01*
X36424D01*
Y4941D01*
X36457D01*
Y4908D01*
X36424D01*
Y4875D01*
X36457D01*
Y4842D01*
Y4809D01*
Y4776D01*
X36490D01*
Y4744D01*
X36457D01*
Y4711D01*
X36490D01*
Y4678D01*
Y4645D01*
Y4612D01*
X36457D01*
Y4579D01*
X36490D01*
Y4547D01*
X36457D01*
Y4514D01*
X36490D01*
Y4481D01*
X36457D01*
Y4448D01*
Y4415D01*
Y4382D01*
X36424D01*
Y4350D01*
X36457D01*
Y4317D01*
X36424D01*
Y4284D01*
X36391D01*
Y4251D01*
Y4218D01*
Y4185D01*
X36358D01*
Y4153D01*
X36326D01*
Y4120D01*
X36293D01*
Y4087D01*
X36260D01*
Y4054D01*
X36194D01*
Y4021D01*
X36129D01*
Y3988D01*
X36096D01*
Y3956D01*
X36063D01*
Y3988D01*
X36030D01*
Y3956D01*
X35997D01*
Y3923D01*
X35899D01*
Y3890D01*
X35866D01*
Y3923D01*
X35833D01*
Y3890D01*
X35866D01*
Y3857D01*
X35833D01*
Y3890D01*
X35800D01*
Y3857D01*
X35702D01*
Y3824D01*
X35669D01*
Y3857D01*
X35636D01*
Y3824D01*
X35603D01*
Y3791D01*
X35571D01*
Y3824D01*
X35538D01*
Y3791D01*
X35439D01*
Y3759D01*
X35407D01*
Y3726D01*
X35374D01*
Y3693D01*
X35341D01*
Y3660D01*
X35308D01*
Y3627D01*
X35275D01*
Y3594D01*
X35242D01*
Y3562D01*
X35275D01*
Y3529D01*
X35242D01*
Y3496D01*
Y3463D01*
Y3430D01*
X35275D01*
Y3398D01*
X35242D01*
Y3365D01*
X35275D01*
Y3332D01*
X35242D01*
Y3299D01*
X35275D01*
Y3266D01*
X35308D01*
Y3233D01*
X35407D01*
Y3201D01*
X35439D01*
Y3168D01*
X35669D01*
Y3135D01*
X35702D01*
Y3168D01*
X35932D01*
Y3201D01*
X35965D01*
Y3233D01*
X35997D01*
Y3201D01*
X36030D01*
Y3233D01*
X36129D01*
Y3266D01*
X36162D01*
Y3299D01*
X36260D01*
Y3332D01*
X36293D01*
Y3365D01*
X36391D01*
Y3332D01*
X36358D01*
Y3299D01*
X36391D01*
Y3266D01*
X36358D01*
Y3233D01*
X36391D01*
Y3201D01*
Y3168D01*
Y3135D01*
X36424D01*
Y3102D01*
X36391D01*
Y3069D01*
X36424D01*
Y3036D01*
Y3004D01*
Y2971D01*
Y2938D01*
Y2905D01*
X36391D01*
Y2872D01*
X36293D01*
Y2840D01*
X36260D01*
Y2807D01*
X36162D01*
Y2774D01*
X36063D01*
Y2741D01*
X35899D01*
Y2708D01*
X35866D01*
Y2741D01*
X35833D01*
Y2708D01*
X35800D01*
Y2741D01*
X35768D01*
Y2708D01*
X35735D01*
Y2741D01*
X35702D01*
Y2708D01*
X35735D01*
Y2675D01*
X35702D01*
Y2708D01*
X35603D01*
Y2741D01*
X35571D01*
Y2708D01*
X35603D01*
Y2675D01*
X35571D01*
Y2708D01*
X35538D01*
Y2741D01*
X35505D01*
Y2708D01*
X35472D01*
Y2741D01*
X35439D01*
Y2708D01*
X35407D01*
Y2741D01*
X35242D01*
Y2774D01*
X35144D01*
Y2807D01*
X35045D01*
Y2840D01*
X35013D01*
Y2872D01*
X34980D01*
Y2905D01*
X34947D01*
Y2938D01*
X34914D01*
Y2971D01*
X34881D01*
Y3004D01*
X34848D01*
Y3036D01*
Y3069D01*
X34816D01*
Y3102D01*
Y3135D01*
X34783D01*
Y3168D01*
Y3201D01*
Y3233D01*
X34750D01*
Y3266D01*
Y3299D01*
Y3332D01*
Y3365D01*
Y3398D01*
X34717D01*
Y3430D01*
X34750D01*
Y3463D01*
X34717D01*
Y3496D01*
X34750D01*
Y3529D01*
X34717D01*
Y3562D01*
X34750D01*
Y3594D01*
Y3627D01*
Y3660D01*
Y3693D01*
Y3726D01*
X34783D01*
Y3759D01*
X34816D01*
Y3791D01*
X34783D01*
Y3824D01*
X34816D01*
Y3857D01*
Y3890D01*
X34848D01*
Y3923D01*
Y3956D01*
X34881D01*
Y3988D01*
X34914D01*
Y4021D01*
X34947D01*
Y4054D01*
X34980D01*
Y4087D01*
X35078D01*
Y4120D01*
X35111D01*
Y4153D01*
X35210D01*
Y4185D01*
X35242D01*
Y4218D01*
X35275D01*
Y4185D01*
X35308D01*
Y4218D01*
X35407D01*
Y4251D01*
X35439D01*
Y4284D01*
X35472D01*
Y4251D01*
X35505D01*
Y4284D01*
X35603D01*
Y4317D01*
X35636D01*
Y4284D01*
X35669D01*
Y4317D01*
X35702D01*
Y4350D01*
X35800D01*
Y4382D01*
X35833D01*
Y4415D01*
X35866D01*
Y4448D01*
X35899D01*
Y4481D01*
X35932D01*
Y4514D01*
X35965D01*
Y4547D01*
X35997D01*
Y4579D01*
X35965D01*
Y4612D01*
X35997D01*
Y4645D01*
X35965D01*
Y4678D01*
X35997D01*
Y4711D01*
X35965D01*
Y4744D01*
Y4776D01*
Y4809D01*
X35932D01*
Y4842D01*
X35899D01*
Y4875D01*
Y4908D01*
X35833D01*
Y4941D01*
X35800D01*
Y4973D01*
X35636D01*
Y5006D01*
X35603D01*
Y4973D01*
X35439D01*
Y4941D01*
X35407D01*
Y4908D01*
X35374D01*
Y4875D01*
X35341D01*
Y4842D01*
X35308D01*
Y4809D01*
X35341D01*
Y4776D01*
X35308D01*
Y4744D01*
Y4711D01*
Y4678D01*
X35275D01*
Y4645D01*
X35242D01*
Y4678D01*
X35210D01*
Y4711D01*
X35177D01*
Y4678D01*
X35210D01*
Y4645D01*
X35177D01*
Y4678D01*
X35144D01*
Y4711D01*
X35111D01*
Y4678D01*
X35078D01*
Y4711D01*
X34914D01*
Y4744D01*
X34881D01*
Y4711D01*
X34848D01*
Y4744D01*
X34816D01*
Y4776D01*
X34783D01*
Y4809D01*
X34816D01*
Y4842D01*
Y4875D01*
Y4908D01*
Y4941D01*
Y4973D01*
X34848D01*
Y5006D01*
X34881D01*
Y5039D01*
Y5072D01*
Y5105D01*
X34914D01*
Y5138D01*
X34947D01*
Y5170D01*
X34980D01*
Y5203D01*
X35013D01*
Y5236D01*
X35045D01*
Y5269D01*
X35078D01*
Y5302D01*
X35111D01*
Y5334D01*
X35210D01*
Y5367D01*
X35242D01*
Y5334D01*
X35275D01*
Y5367D01*
X35308D01*
Y5400D01*
X35341D01*
Y5367D01*
X35374D01*
Y5400D01*
X35866D01*
Y5367D01*
X35899D01*
Y5400D01*
X35932D01*
Y5367D01*
D02*
G37*
G36*
X53003D02*
X53035D01*
Y5334D01*
X53068D01*
Y5367D01*
X53167D01*
Y5334D01*
X53199D01*
Y5367D01*
X53298D01*
Y5334D01*
X53331D01*
Y5367D01*
X53429D01*
Y5334D01*
X53462D01*
Y5367D01*
X53495D01*
Y5334D01*
Y5302D01*
Y5269D01*
X53528D01*
Y5236D01*
X53495D01*
Y5203D01*
X53528D01*
Y5170D01*
X53495D01*
Y5138D01*
X53528D01*
Y5105D01*
X53495D01*
Y5072D01*
X53528D01*
Y5039D01*
X53495D01*
Y5006D01*
X53528D01*
Y4973D01*
X53495D01*
Y4941D01*
X53528D01*
Y4908D01*
X53495D01*
Y4875D01*
X53528D01*
Y4842D01*
X53495D01*
Y4809D01*
X53528D01*
Y4776D01*
X53495D01*
Y4744D01*
X53528D01*
Y4711D01*
X53495D01*
Y4678D01*
X53528D01*
Y4645D01*
X53495D01*
Y4612D01*
X53528D01*
Y4579D01*
X53495D01*
Y4547D01*
X53528D01*
Y4514D01*
X53495D01*
Y4481D01*
X53528D01*
Y4448D01*
X53495D01*
Y4415D01*
X53528D01*
Y4382D01*
X53495D01*
Y4350D01*
X53528D01*
Y4317D01*
Y4284D01*
Y4251D01*
Y4218D01*
Y4185D01*
Y4153D01*
Y4120D01*
Y4087D01*
Y4054D01*
Y4021D01*
Y3988D01*
Y3956D01*
Y3923D01*
Y3890D01*
Y3857D01*
X53561D01*
Y3824D01*
X53528D01*
Y3791D01*
Y3759D01*
Y3726D01*
X53561D01*
Y3693D01*
X53528D01*
Y3660D01*
X53561D01*
Y3627D01*
Y3594D01*
Y3562D01*
X53528D01*
Y3529D01*
X53561D01*
Y3496D01*
Y3463D01*
Y3430D01*
X53528D01*
Y3398D01*
X53561D01*
Y3365D01*
Y3332D01*
Y3299D01*
Y3266D01*
Y3233D01*
Y3201D01*
Y3168D01*
Y3135D01*
Y3102D01*
X53593D01*
Y3069D01*
X53561D01*
Y3036D01*
Y3004D01*
Y2971D01*
X53593D01*
Y2938D01*
X53561D01*
Y2905D01*
Y2872D01*
Y2840D01*
X53593D01*
Y2807D01*
X53561D01*
Y2774D01*
X53528D01*
Y2741D01*
X53429D01*
Y2774D01*
X53396D01*
Y2741D01*
X53298D01*
Y2774D01*
X53265D01*
Y2741D01*
X53167D01*
Y2774D01*
X53134D01*
Y2741D01*
X53035D01*
Y2774D01*
X53068D01*
Y2807D01*
X53035D01*
Y2840D01*
X53068D01*
Y2872D01*
X53035D01*
Y2905D01*
X53068D01*
Y2938D01*
X53035D01*
Y2971D01*
X53068D01*
Y3004D01*
X53035D01*
Y3036D01*
X53068D01*
Y3069D01*
X53035D01*
Y3102D01*
X53068D01*
Y3135D01*
X53035D01*
Y3168D01*
Y3201D01*
Y3233D01*
X53068D01*
Y3266D01*
X53035D01*
Y3299D01*
Y3332D01*
Y3365D01*
X53068D01*
Y3398D01*
X53035D01*
Y3430D01*
Y3463D01*
Y3496D01*
X53068D01*
Y3529D01*
X53035D01*
Y3562D01*
Y3594D01*
Y3627D01*
Y3660D01*
Y3693D01*
Y3726D01*
Y3759D01*
Y3791D01*
Y3824D01*
Y3857D01*
Y3890D01*
Y3923D01*
Y3956D01*
X53003D01*
Y3988D01*
X53035D01*
Y4021D01*
Y4054D01*
Y4087D01*
X53003D01*
Y4120D01*
X53035D01*
Y4153D01*
Y4185D01*
Y4218D01*
X53003D01*
Y4251D01*
X53035D01*
Y4284D01*
X53003D01*
Y4317D01*
X53035D01*
Y4350D01*
X53003D01*
Y4382D01*
Y4415D01*
X53035D01*
Y4448D01*
Y4481D01*
X53003D01*
Y4514D01*
X52970D01*
Y4481D01*
X53003D01*
Y4448D01*
X52970D01*
Y4415D01*
Y4382D01*
Y4350D01*
X52937D01*
Y4317D01*
X52904D01*
Y4284D01*
X52937D01*
Y4251D01*
X52904D01*
Y4218D01*
Y4185D01*
X52871D01*
Y4153D01*
Y4120D01*
X52838D01*
Y4087D01*
X52871D01*
Y4054D01*
X52838D01*
Y4021D01*
X52806D01*
Y3988D01*
Y3956D01*
Y3923D01*
X52773D01*
Y3890D01*
X52806D01*
Y3857D01*
X52773D01*
Y3824D01*
X52740D01*
Y3791D01*
Y3759D01*
Y3726D01*
X52707D01*
Y3693D01*
Y3660D01*
Y3627D01*
X52674D01*
Y3594D01*
Y3562D01*
Y3529D01*
X52641D01*
Y3496D01*
Y3463D01*
Y3430D01*
X52609D01*
Y3398D01*
X52576D01*
Y3365D01*
X52609D01*
Y3332D01*
X52576D01*
Y3299D01*
Y3266D01*
X52543D01*
Y3233D01*
Y3201D01*
X52510D01*
Y3168D01*
Y3135D01*
Y3102D01*
X52412D01*
Y3135D01*
X52379D01*
Y3102D01*
X52412D01*
Y3069D01*
X52379D01*
Y3102D01*
X52280D01*
Y3135D01*
X52247D01*
Y3102D01*
X52280D01*
Y3069D01*
X52247D01*
Y3102D01*
X52149D01*
Y3135D01*
X52116D01*
Y3102D01*
X52149D01*
Y3069D01*
X52116D01*
Y3102D01*
X52083D01*
Y3135D01*
X52051D01*
Y3168D01*
X52083D01*
Y3201D01*
X52051D01*
Y3233D01*
Y3266D01*
Y3299D01*
X52018D01*
Y3332D01*
X51985D01*
Y3365D01*
X52018D01*
Y3398D01*
X51985D01*
Y3430D01*
Y3463D01*
X51952D01*
Y3496D01*
Y3529D01*
X51919D01*
Y3562D01*
X51952D01*
Y3594D01*
X51919D01*
Y3627D01*
X51886D01*
Y3660D01*
Y3693D01*
Y3726D01*
X51854D01*
Y3759D01*
X51886D01*
Y3791D01*
X51854D01*
Y3824D01*
X51821D01*
Y3857D01*
Y3890D01*
Y3923D01*
X51788D01*
Y3956D01*
Y3988D01*
Y4021D01*
X51755D01*
Y4054D01*
X51722D01*
Y4087D01*
X51755D01*
Y4120D01*
X51722D01*
Y4153D01*
Y4185D01*
Y4218D01*
X51689D01*
Y4251D01*
X51657D01*
Y4284D01*
X51689D01*
Y4317D01*
X51657D01*
Y4350D01*
X51624D01*
Y4382D01*
Y4415D01*
Y4448D01*
X51591D01*
Y4481D01*
X51558D01*
Y4448D01*
X51591D01*
Y4415D01*
Y4382D01*
Y4350D01*
Y4317D01*
Y4284D01*
Y4251D01*
Y4218D01*
X51558D01*
Y4185D01*
X51591D01*
Y4153D01*
Y4120D01*
Y4087D01*
X51558D01*
Y4054D01*
X51591D01*
Y4021D01*
Y3988D01*
Y3956D01*
X51558D01*
Y3923D01*
Y3890D01*
Y3857D01*
X51591D01*
Y3824D01*
X51558D01*
Y3791D01*
Y3759D01*
Y3726D01*
X51591D01*
Y3693D01*
X51558D01*
Y3660D01*
Y3627D01*
Y3594D01*
Y3562D01*
Y3529D01*
Y3496D01*
Y3463D01*
X51591D01*
Y3430D01*
X51558D01*
Y3398D01*
Y3365D01*
Y3332D01*
Y3299D01*
Y3266D01*
Y3233D01*
Y3201D01*
Y3168D01*
Y3135D01*
Y3102D01*
Y3069D01*
Y3036D01*
Y3004D01*
Y2971D01*
Y2938D01*
X51525D01*
Y2905D01*
X51558D01*
Y2872D01*
Y2840D01*
Y2807D01*
X51525D01*
Y2774D01*
X51558D01*
Y2741D01*
X51459D01*
Y2774D01*
X51427D01*
Y2741D01*
X51328D01*
Y2774D01*
X51295D01*
Y2741D01*
X51197D01*
Y2774D01*
X51164D01*
Y2741D01*
X51066D01*
Y2774D01*
X51033D01*
Y2807D01*
Y2840D01*
Y2872D01*
Y2905D01*
Y2938D01*
Y2971D01*
Y3004D01*
Y3036D01*
Y3069D01*
Y3102D01*
Y3135D01*
X51066D01*
Y3168D01*
X51033D01*
Y3201D01*
Y3233D01*
Y3266D01*
X51066D01*
Y3299D01*
X51033D01*
Y3332D01*
X51066D01*
Y3365D01*
X51033D01*
Y3398D01*
X51066D01*
Y3430D01*
X51033D01*
Y3463D01*
X51066D01*
Y3496D01*
Y3529D01*
Y3562D01*
X51033D01*
Y3594D01*
X51066D01*
Y3627D01*
Y3660D01*
Y3693D01*
Y3726D01*
Y3759D01*
Y3791D01*
Y3824D01*
Y3857D01*
Y3890D01*
X51098D01*
Y3923D01*
X51066D01*
Y3956D01*
Y3988D01*
Y4021D01*
X51098D01*
Y4054D01*
X51066D01*
Y4087D01*
Y4120D01*
Y4153D01*
X51098D01*
Y4185D01*
X51066D01*
Y4218D01*
X51098D01*
Y4251D01*
X51066D01*
Y4284D01*
X51098D01*
Y4317D01*
X51066D01*
Y4350D01*
X51098D01*
Y4382D01*
X51066D01*
Y4415D01*
X51098D01*
Y4448D01*
X51066D01*
Y4481D01*
X51098D01*
Y4514D01*
X51066D01*
Y4547D01*
X51098D01*
Y4579D01*
X51066D01*
Y4612D01*
X51098D01*
Y4645D01*
X51066D01*
Y4678D01*
X51098D01*
Y4711D01*
X51066D01*
Y4744D01*
X51098D01*
Y4776D01*
X51066D01*
Y4809D01*
X51098D01*
Y4842D01*
Y4875D01*
Y4908D01*
X51066D01*
Y4941D01*
X51098D01*
Y4973D01*
Y5006D01*
Y5039D01*
X51066D01*
Y5072D01*
X51098D01*
Y5105D01*
Y5138D01*
Y5170D01*
X51066D01*
Y5203D01*
X51098D01*
Y5236D01*
Y5269D01*
Y5302D01*
Y5334D01*
Y5367D01*
X51197D01*
Y5334D01*
X51230D01*
Y5367D01*
X51328D01*
Y5334D01*
X51361D01*
Y5367D01*
X51394D01*
Y5400D01*
X51427D01*
Y5367D01*
X51459D01*
Y5334D01*
X51492D01*
Y5367D01*
X51591D01*
Y5334D01*
X51624D01*
Y5367D01*
X51722D01*
Y5334D01*
X51755D01*
Y5302D01*
Y5269D01*
Y5236D01*
X51788D01*
Y5203D01*
Y5170D01*
Y5138D01*
X51821D01*
Y5105D01*
Y5072D01*
X51854D01*
Y5039D01*
Y5006D01*
X51886D01*
Y4973D01*
X51854D01*
Y4941D01*
X51886D01*
Y4908D01*
X51919D01*
Y4875D01*
Y4842D01*
Y4809D01*
X51952D01*
Y4776D01*
X51919D01*
Y4744D01*
X51952D01*
Y4711D01*
X51985D01*
Y4678D01*
X52018D01*
Y4645D01*
X51985D01*
Y4612D01*
X52018D01*
Y4579D01*
Y4547D01*
Y4514D01*
X52051D01*
Y4481D01*
X52083D01*
Y4448D01*
X52051D01*
Y4415D01*
X52083D01*
Y4382D01*
X52116D01*
Y4350D01*
Y4317D01*
Y4284D01*
X52149D01*
Y4251D01*
Y4218D01*
Y4185D01*
X52182D01*
Y4153D01*
Y4120D01*
Y4087D01*
X52215D01*
Y4054D01*
Y4021D01*
Y3988D01*
X52247D01*
Y3956D01*
X52280D01*
Y3923D01*
X52247D01*
Y3890D01*
X52280D01*
Y3857D01*
X52313D01*
Y3890D01*
Y3923D01*
Y3956D01*
X52346D01*
Y3988D01*
Y4021D01*
X52379D01*
Y4054D01*
Y4087D01*
X52412D01*
Y4120D01*
X52379D01*
Y4153D01*
X52412D01*
Y4185D01*
Y4218D01*
X52444D01*
Y4251D01*
Y4284D01*
X52477D01*
Y4317D01*
X52444D01*
Y4350D01*
X52477D01*
Y4382D01*
X52510D01*
Y4415D01*
X52543D01*
Y4448D01*
X52510D01*
Y4481D01*
X52543D01*
Y4514D01*
X52510D01*
Y4547D01*
X52543D01*
Y4579D01*
X52576D01*
Y4612D01*
X52609D01*
Y4645D01*
X52576D01*
Y4678D01*
X52609D01*
Y4711D01*
Y4744D01*
Y4776D01*
X52641D01*
Y4809D01*
X52674D01*
Y4842D01*
X52641D01*
Y4875D01*
X52674D01*
Y4908D01*
X52707D01*
Y4941D01*
Y4973D01*
Y5006D01*
X52740D01*
Y5039D01*
Y5072D01*
Y5105D01*
X52773D01*
Y5138D01*
Y5170D01*
Y5203D01*
X52806D01*
Y5236D01*
Y5269D01*
Y5302D01*
X52838D01*
Y5334D01*
X52871D01*
Y5367D01*
X52904D01*
Y5334D01*
X52937D01*
Y5367D01*
X52970D01*
Y5400D01*
X53003D01*
Y5367D01*
D02*
G37*
G36*
X50376D02*
X50409D01*
Y5334D01*
X50442D01*
Y5367D01*
X50540D01*
Y5334D01*
X50573D01*
Y5302D01*
Y5269D01*
Y5236D01*
X50540D01*
Y5203D01*
X50573D01*
Y5170D01*
Y5138D01*
Y5105D01*
X50540D01*
Y5072D01*
X50573D01*
Y5039D01*
Y5006D01*
Y4973D01*
X50540D01*
Y4941D01*
X50573D01*
Y4908D01*
Y4875D01*
Y4842D01*
X50540D01*
Y4809D01*
X50573D01*
Y4776D01*
Y4744D01*
Y4711D01*
X50540D01*
Y4678D01*
X50573D01*
Y4645D01*
Y4612D01*
Y4579D01*
X50540D01*
Y4547D01*
X50573D01*
Y4514D01*
Y4481D01*
Y4448D01*
X50540D01*
Y4415D01*
X50573D01*
Y4382D01*
Y4350D01*
Y4317D01*
X50540D01*
Y4284D01*
X50573D01*
Y4251D01*
Y4218D01*
Y4185D01*
X50540D01*
Y4153D01*
X50573D01*
Y4120D01*
Y4087D01*
Y4054D01*
X50540D01*
Y4021D01*
X50573D01*
Y3988D01*
Y3956D01*
Y3923D01*
X50540D01*
Y3890D01*
X50573D01*
Y3857D01*
Y3824D01*
Y3791D01*
X50540D01*
Y3759D01*
X50573D01*
Y3726D01*
Y3693D01*
Y3660D01*
X50540D01*
Y3627D01*
X50573D01*
Y3594D01*
Y3562D01*
Y3529D01*
X50540D01*
Y3496D01*
X50573D01*
Y3463D01*
Y3430D01*
Y3398D01*
X50540D01*
Y3365D01*
X50573D01*
Y3332D01*
Y3299D01*
Y3266D01*
X50540D01*
Y3233D01*
X50573D01*
Y3201D01*
Y3168D01*
Y3135D01*
X50540D01*
Y3102D01*
X50573D01*
Y3069D01*
Y3036D01*
Y3004D01*
X50540D01*
Y2971D01*
X50573D01*
Y2938D01*
Y2905D01*
Y2872D01*
X50540D01*
Y2840D01*
X50573D01*
Y2807D01*
Y2774D01*
Y2741D01*
X50540D01*
Y2774D01*
X50507D01*
Y2741D01*
X50409D01*
Y2774D01*
X50376D01*
Y2741D01*
X50278D01*
Y2774D01*
X50245D01*
Y2741D01*
X50146D01*
Y2774D01*
X50114D01*
Y2741D01*
X50081D01*
Y2774D01*
X50048D01*
Y2807D01*
Y2840D01*
Y2872D01*
Y2905D01*
Y2938D01*
Y2971D01*
Y3004D01*
Y3036D01*
Y3069D01*
Y3102D01*
Y3135D01*
Y3168D01*
Y3201D01*
X50081D01*
Y3233D01*
X50048D01*
Y3266D01*
Y3299D01*
Y3332D01*
Y3365D01*
Y3398D01*
Y3430D01*
Y3463D01*
Y3496D01*
Y3529D01*
Y3562D01*
Y3594D01*
Y3627D01*
Y3660D01*
Y3693D01*
Y3726D01*
X50081D01*
Y3759D01*
X50048D01*
Y3791D01*
Y3824D01*
Y3857D01*
Y3890D01*
Y3923D01*
Y3956D01*
Y3988D01*
Y4021D01*
Y4054D01*
Y4087D01*
Y4120D01*
Y4153D01*
Y4185D01*
Y4218D01*
Y4251D01*
X50081D01*
Y4284D01*
X50048D01*
Y4317D01*
Y4350D01*
Y4382D01*
Y4415D01*
Y4448D01*
Y4481D01*
Y4514D01*
Y4547D01*
Y4579D01*
Y4612D01*
Y4645D01*
Y4678D01*
Y4711D01*
Y4744D01*
Y4776D01*
X50081D01*
Y4809D01*
X50048D01*
Y4842D01*
Y4875D01*
Y4908D01*
Y4941D01*
Y4973D01*
Y5006D01*
Y5039D01*
Y5072D01*
Y5105D01*
Y5138D01*
Y5170D01*
Y5203D01*
Y5236D01*
Y5269D01*
Y5302D01*
Y5334D01*
Y5367D01*
X50146D01*
Y5334D01*
X50179D01*
Y5367D01*
X50278D01*
Y5334D01*
X50310D01*
Y5367D01*
X50343D01*
Y5400D01*
X50376D01*
Y5367D01*
D02*
G37*
G36*
X49326D02*
X49358D01*
Y5334D01*
X49391D01*
Y5367D01*
X49490D01*
Y5334D01*
X49523D01*
Y5367D01*
X49556D01*
Y5334D01*
X49588D01*
Y5302D01*
X49556D01*
Y5269D01*
X49588D01*
Y5236D01*
X49556D01*
Y5203D01*
X49588D01*
Y5170D01*
X49556D01*
Y5138D01*
X49588D01*
Y5105D01*
X49556D01*
Y5072D01*
X49588D01*
Y5039D01*
X49556D01*
Y5006D01*
X49588D01*
Y4973D01*
X49556D01*
Y4941D01*
X49588D01*
Y4908D01*
X49556D01*
Y4875D01*
X49588D01*
Y4842D01*
X49556D01*
Y4809D01*
X49588D01*
Y4776D01*
X49556D01*
Y4744D01*
X49588D01*
Y4711D01*
X49556D01*
Y4678D01*
X49588D01*
Y4645D01*
X49556D01*
Y4612D01*
X49588D01*
Y4579D01*
X49556D01*
Y4547D01*
X49588D01*
Y4514D01*
X49556D01*
Y4481D01*
X49588D01*
Y4448D01*
X49556D01*
Y4415D01*
X49588D01*
Y4382D01*
X49556D01*
Y4350D01*
X49588D01*
Y4317D01*
X49556D01*
Y4284D01*
X49588D01*
Y4251D01*
X49556D01*
Y4218D01*
X49588D01*
Y4185D01*
X49556D01*
Y4153D01*
X49588D01*
Y4120D01*
X49556D01*
Y4087D01*
X49588D01*
Y4054D01*
X49556D01*
Y4021D01*
X49588D01*
Y3988D01*
X49556D01*
Y3956D01*
X49588D01*
Y3923D01*
X49556D01*
Y3890D01*
X49588D01*
Y3857D01*
X49556D01*
Y3824D01*
X49588D01*
Y3791D01*
X49556D01*
Y3759D01*
X49588D01*
Y3726D01*
X49556D01*
Y3693D01*
X49588D01*
Y3660D01*
X49556D01*
Y3627D01*
X49588D01*
Y3594D01*
X49556D01*
Y3562D01*
X49588D01*
Y3529D01*
X49556D01*
Y3496D01*
X49588D01*
Y3463D01*
X49556D01*
Y3430D01*
X49588D01*
Y3398D01*
X49556D01*
Y3365D01*
X49588D01*
Y3332D01*
X49556D01*
Y3299D01*
X49588D01*
Y3266D01*
X49556D01*
Y3233D01*
X49588D01*
Y3201D01*
X49556D01*
Y3168D01*
X49588D01*
Y3135D01*
X49556D01*
Y3102D01*
X49588D01*
Y3069D01*
X49556D01*
Y3036D01*
X49588D01*
Y3004D01*
X49556D01*
Y2971D01*
X49588D01*
Y2938D01*
X49556D01*
Y2905D01*
X49588D01*
Y2872D01*
X49556D01*
Y2840D01*
X49588D01*
Y2807D01*
X49556D01*
Y2774D01*
X49588D01*
Y2741D01*
X49490D01*
Y2774D01*
X49457D01*
Y2741D01*
X49358D01*
Y2774D01*
X49326D01*
Y2741D01*
X49227D01*
Y2774D01*
X49194D01*
Y2741D01*
X49096D01*
Y2774D01*
X49063D01*
Y2741D01*
X48965D01*
Y2774D01*
X48932D01*
Y2741D01*
X48833D01*
Y2774D01*
X48800D01*
Y2741D01*
X48768D01*
Y2774D01*
X48735D01*
Y2741D01*
X48702D01*
Y2774D01*
X48669D01*
Y2741D01*
X48636D01*
Y2774D01*
X48538D01*
Y2807D01*
X48374D01*
Y2840D01*
X48341D01*
Y2872D01*
X48242D01*
Y2905D01*
X48210D01*
Y2938D01*
X48111D01*
Y2971D01*
X48078D01*
Y3004D01*
X48045D01*
Y3036D01*
X48013D01*
Y3069D01*
X47980D01*
Y3102D01*
X47947D01*
Y3135D01*
X47914D01*
Y3168D01*
X47881D01*
Y3201D01*
X47848D01*
Y3233D01*
X47881D01*
Y3266D01*
X47848D01*
Y3299D01*
X47816D01*
Y3332D01*
X47783D01*
Y3365D01*
X47816D01*
Y3398D01*
X47783D01*
Y3430D01*
X47750D01*
Y3463D01*
X47717D01*
Y3496D01*
X47750D01*
Y3529D01*
X47717D01*
Y3562D01*
Y3594D01*
Y3627D01*
X47684D01*
Y3660D01*
Y3693D01*
Y3726D01*
X47651D01*
Y3759D01*
X47684D01*
Y3791D01*
X47651D01*
Y3824D01*
Y3857D01*
Y3890D01*
X47684D01*
Y3923D01*
X47651D01*
Y3956D01*
Y3988D01*
Y4021D01*
Y4054D01*
Y4087D01*
Y4120D01*
Y4153D01*
Y4185D01*
Y4218D01*
Y4251D01*
Y4284D01*
X47684D01*
Y4317D01*
X47651D01*
Y4350D01*
X47684D01*
Y4382D01*
X47651D01*
Y4415D01*
X47684D01*
Y4448D01*
Y4481D01*
Y4514D01*
X47717D01*
Y4547D01*
Y4579D01*
Y4612D01*
X47750D01*
Y4645D01*
X47717D01*
Y4678D01*
X47750D01*
Y4711D01*
X47783D01*
Y4744D01*
Y4776D01*
Y4809D01*
X47816D01*
Y4842D01*
X47848D01*
Y4875D01*
X47881D01*
Y4908D01*
Y4941D01*
X47914D01*
Y4973D01*
Y5006D01*
X47947D01*
Y5039D01*
X47980D01*
Y5072D01*
X48013D01*
Y5105D01*
X48045D01*
Y5138D01*
X48144D01*
Y5170D01*
Y5203D01*
X48210D01*
Y5236D01*
X48242D01*
Y5269D01*
X48275D01*
Y5236D01*
X48308D01*
Y5269D01*
X48341D01*
Y5302D01*
X48374D01*
Y5269D01*
X48406D01*
Y5302D01*
X48439D01*
Y5334D01*
X48603D01*
Y5367D01*
X48636D01*
Y5334D01*
X48669D01*
Y5367D01*
X48702D01*
Y5334D01*
X48735D01*
Y5367D01*
X48768D01*
Y5400D01*
X48800D01*
Y5367D01*
X48833D01*
Y5334D01*
X48866D01*
Y5367D01*
X48965D01*
Y5334D01*
X48997D01*
Y5367D01*
X49096D01*
Y5334D01*
X49129D01*
Y5367D01*
X49227D01*
Y5334D01*
X49260D01*
Y5367D01*
X49293D01*
Y5400D01*
X49326D01*
Y5367D01*
D02*
G37*
G36*
X47225D02*
X47258D01*
Y5334D01*
X47290D01*
Y5302D01*
X47258D01*
Y5269D01*
X47290D01*
Y5236D01*
X47258D01*
Y5203D01*
X47290D01*
Y5170D01*
X47258D01*
Y5138D01*
X47290D01*
Y5105D01*
X47258D01*
Y5072D01*
X47290D01*
Y5039D01*
X47258D01*
Y5006D01*
X47290D01*
Y4973D01*
X47258D01*
Y4941D01*
X47290D01*
Y4908D01*
X47258D01*
Y4875D01*
X47290D01*
Y4842D01*
X47258D01*
Y4809D01*
X47290D01*
Y4776D01*
X47258D01*
Y4744D01*
X47290D01*
Y4711D01*
X47258D01*
Y4678D01*
X47290D01*
Y4645D01*
X47258D01*
Y4612D01*
X47290D01*
Y4579D01*
X47258D01*
Y4547D01*
X47290D01*
Y4514D01*
X47258D01*
Y4481D01*
X47290D01*
Y4448D01*
X47258D01*
Y4415D01*
X47290D01*
Y4382D01*
X47258D01*
Y4350D01*
X47290D01*
Y4317D01*
X47258D01*
Y4284D01*
X47290D01*
Y4251D01*
X47258D01*
Y4218D01*
X47290D01*
Y4185D01*
X47258D01*
Y4153D01*
X47290D01*
Y4120D01*
X47258D01*
Y4087D01*
X47290D01*
Y4054D01*
X47258D01*
Y4021D01*
X47290D01*
Y3988D01*
X47258D01*
Y3956D01*
X47290D01*
Y3923D01*
X47258D01*
Y3890D01*
X47290D01*
Y3857D01*
X47258D01*
Y3824D01*
X47290D01*
Y3791D01*
X47258D01*
Y3759D01*
X47290D01*
Y3726D01*
X47258D01*
Y3693D01*
X47290D01*
Y3660D01*
X47258D01*
Y3627D01*
X47290D01*
Y3594D01*
X47258D01*
Y3562D01*
X47290D01*
Y3529D01*
X47258D01*
Y3496D01*
X47290D01*
Y3463D01*
X47258D01*
Y3430D01*
X47290D01*
Y3398D01*
X47258D01*
Y3365D01*
X47290D01*
Y3332D01*
X47258D01*
Y3299D01*
X47290D01*
Y3266D01*
X47258D01*
Y3233D01*
X47290D01*
Y3201D01*
X47258D01*
Y3168D01*
X47290D01*
Y3135D01*
X47258D01*
Y3102D01*
X47290D01*
Y3069D01*
X47258D01*
Y3036D01*
X47290D01*
Y3004D01*
X47258D01*
Y2971D01*
X47290D01*
Y2938D01*
X47258D01*
Y2905D01*
X47290D01*
Y2872D01*
X47258D01*
Y2840D01*
X47290D01*
Y2807D01*
X47258D01*
Y2774D01*
X47225D01*
Y2741D01*
X47126D01*
Y2774D01*
X47093D01*
Y2741D01*
X46995D01*
Y2774D01*
X46962D01*
Y2741D01*
X46864D01*
Y2774D01*
X46831D01*
Y2741D01*
X46798D01*
Y2774D01*
X46765D01*
Y2807D01*
Y2840D01*
Y2872D01*
Y2905D01*
Y2938D01*
Y2971D01*
Y3004D01*
Y3036D01*
Y3069D01*
Y3102D01*
Y3135D01*
Y3168D01*
Y3201D01*
Y3233D01*
Y3266D01*
Y3299D01*
Y3332D01*
Y3365D01*
Y3398D01*
Y3430D01*
Y3463D01*
Y3496D01*
Y3529D01*
Y3562D01*
Y3594D01*
Y3627D01*
Y3660D01*
Y3693D01*
Y3726D01*
Y3759D01*
Y3791D01*
Y3824D01*
Y3857D01*
Y3890D01*
Y3923D01*
Y3956D01*
Y3988D01*
Y4021D01*
Y4054D01*
Y4087D01*
Y4120D01*
Y4153D01*
Y4185D01*
Y4218D01*
Y4251D01*
Y4284D01*
Y4317D01*
Y4350D01*
Y4382D01*
X46732D01*
Y4350D01*
X46699D01*
Y4317D01*
X46667D01*
Y4284D01*
Y4251D01*
X46634D01*
Y4218D01*
Y4185D01*
X46601D01*
Y4153D01*
X46568D01*
Y4120D01*
X46535D01*
Y4087D01*
X46568D01*
Y4054D01*
X46535D01*
Y4021D01*
X46502D01*
Y3988D01*
X46470D01*
Y3956D01*
X46437D01*
Y3923D01*
Y3890D01*
Y3857D01*
X46404D01*
Y3824D01*
X46371D01*
Y3791D01*
X46338D01*
Y3759D01*
X46371D01*
Y3726D01*
X46338D01*
Y3693D01*
X46306D01*
Y3660D01*
X46273D01*
Y3627D01*
Y3594D01*
X46240D01*
Y3562D01*
Y3529D01*
X46207D01*
Y3496D01*
X46174D01*
Y3463D01*
X46141D01*
Y3430D01*
X46174D01*
Y3398D01*
X46141D01*
Y3365D01*
X46108D01*
Y3332D01*
X46076D01*
Y3299D01*
Y3266D01*
X46043D01*
Y3233D01*
Y3201D01*
X46010D01*
Y3168D01*
X45977D01*
Y3135D01*
X45944D01*
Y3102D01*
X45977D01*
Y3069D01*
X45944D01*
Y3036D01*
X45911D01*
Y3004D01*
X45879D01*
Y2971D01*
Y2938D01*
X45846D01*
Y2905D01*
Y2872D01*
X45813D01*
Y2840D01*
X45780D01*
Y2807D01*
X45747D01*
Y2774D01*
X45780D01*
Y2741D01*
X45682D01*
Y2774D01*
X45649D01*
Y2741D01*
X45551D01*
Y2774D01*
X45518D01*
Y2741D01*
X45419D01*
Y2774D01*
X45386D01*
Y2741D01*
X45288D01*
Y2774D01*
X45255D01*
Y2807D01*
Y2840D01*
Y2872D01*
X45288D01*
Y2905D01*
X45255D01*
Y2938D01*
Y2971D01*
Y3004D01*
X45288D01*
Y3036D01*
X45255D01*
Y3069D01*
Y3102D01*
Y3135D01*
X45288D01*
Y3168D01*
X45255D01*
Y3201D01*
Y3233D01*
Y3266D01*
X45288D01*
Y3299D01*
X45255D01*
Y3332D01*
Y3365D01*
Y3398D01*
X45288D01*
Y3430D01*
X45255D01*
Y3463D01*
Y3496D01*
Y3529D01*
X45288D01*
Y3562D01*
X45255D01*
Y3594D01*
Y3627D01*
Y3660D01*
X45288D01*
Y3693D01*
X45255D01*
Y3726D01*
Y3759D01*
Y3791D01*
X45288D01*
Y3824D01*
X45255D01*
Y3857D01*
Y3890D01*
Y3923D01*
X45288D01*
Y3956D01*
X45255D01*
Y3988D01*
Y4021D01*
Y4054D01*
X45288D01*
Y4087D01*
X45255D01*
Y4120D01*
Y4153D01*
Y4185D01*
X45288D01*
Y4218D01*
X45255D01*
Y4251D01*
Y4284D01*
Y4317D01*
X45288D01*
Y4350D01*
X45255D01*
Y4382D01*
Y4415D01*
Y4448D01*
X45288D01*
Y4481D01*
X45255D01*
Y4514D01*
Y4547D01*
Y4579D01*
X45288D01*
Y4612D01*
X45255D01*
Y4645D01*
Y4678D01*
Y4711D01*
X45288D01*
Y4744D01*
X45255D01*
Y4776D01*
Y4809D01*
Y4842D01*
X45288D01*
Y4875D01*
X45255D01*
Y4908D01*
Y4941D01*
Y4973D01*
X45288D01*
Y5006D01*
X45255D01*
Y5039D01*
Y5072D01*
Y5105D01*
X45288D01*
Y5138D01*
X45255D01*
Y5170D01*
Y5203D01*
Y5236D01*
X45288D01*
Y5269D01*
X45255D01*
Y5302D01*
Y5334D01*
Y5367D01*
X45288D01*
Y5334D01*
X45321D01*
Y5367D01*
X45419D01*
Y5334D01*
X45452D01*
Y5367D01*
X45551D01*
Y5334D01*
X45583D01*
Y5367D01*
X45616D01*
Y5400D01*
X45649D01*
Y5367D01*
X45682D01*
Y5334D01*
X45715D01*
Y5367D01*
X45747D01*
Y5334D01*
X45780D01*
Y5302D01*
X45747D01*
Y5269D01*
X45780D01*
Y5236D01*
X45747D01*
Y5203D01*
X45780D01*
Y5170D01*
X45747D01*
Y5138D01*
X45780D01*
Y5105D01*
X45747D01*
Y5072D01*
X45780D01*
Y5039D01*
X45747D01*
Y5006D01*
X45780D01*
Y4973D01*
X45747D01*
Y4941D01*
X45780D01*
Y4908D01*
X45747D01*
Y4875D01*
X45780D01*
Y4842D01*
X45747D01*
Y4809D01*
X45780D01*
Y4776D01*
X45747D01*
Y4744D01*
X45780D01*
Y4711D01*
X45747D01*
Y4678D01*
X45780D01*
Y4645D01*
X45747D01*
Y4612D01*
X45780D01*
Y4579D01*
X45747D01*
Y4547D01*
X45780D01*
Y4514D01*
X45747D01*
Y4481D01*
X45780D01*
Y4448D01*
X45747D01*
Y4415D01*
X45780D01*
Y4382D01*
X45747D01*
Y4350D01*
X45780D01*
Y4317D01*
X45747D01*
Y4284D01*
X45780D01*
Y4251D01*
X45747D01*
Y4218D01*
X45780D01*
Y4185D01*
X45747D01*
Y4153D01*
X45780D01*
Y4120D01*
X45747D01*
Y4087D01*
X45780D01*
Y4054D01*
X45747D01*
Y4021D01*
X45780D01*
Y3988D01*
X45747D01*
Y3956D01*
X45780D01*
Y3923D01*
X45747D01*
Y3890D01*
X45780D01*
Y3857D01*
X45747D01*
Y3824D01*
X45780D01*
Y3791D01*
X45747D01*
Y3759D01*
X45780D01*
Y3726D01*
X45813D01*
Y3759D01*
X45846D01*
Y3791D01*
Y3824D01*
X45879D01*
Y3857D01*
Y3890D01*
X45911D01*
Y3923D01*
X45944D01*
Y3956D01*
Y3988D01*
Y4021D01*
X45977D01*
Y4054D01*
X46010D01*
Y4087D01*
X46043D01*
Y4120D01*
Y4153D01*
Y4185D01*
X46076D01*
Y4218D01*
X46108D01*
Y4251D01*
Y4284D01*
X46141D01*
Y4317D01*
Y4350D01*
X46174D01*
Y4382D01*
X46207D01*
Y4415D01*
X46240D01*
Y4448D01*
Y4481D01*
Y4514D01*
X46273D01*
Y4547D01*
X46306D01*
Y4579D01*
Y4612D01*
Y4645D01*
X46338D01*
Y4678D01*
X46371D01*
Y4711D01*
X46404D01*
Y4744D01*
X46437D01*
Y4776D01*
X46404D01*
Y4809D01*
X46437D01*
Y4842D01*
X46470D01*
Y4875D01*
X46502D01*
Y4908D01*
X46470D01*
Y4941D01*
X46502D01*
Y4973D01*
X46535D01*
Y5006D01*
X46568D01*
Y5039D01*
Y5072D01*
X46601D01*
Y5105D01*
Y5138D01*
X46634D01*
Y5170D01*
X46667D01*
Y5203D01*
X46699D01*
Y5236D01*
X46667D01*
Y5269D01*
X46699D01*
Y5302D01*
X46732D01*
Y5334D01*
X46765D01*
Y5367D01*
X46864D01*
Y5334D01*
X46896D01*
Y5367D01*
X46995D01*
Y5334D01*
X47028D01*
Y5367D01*
X47126D01*
Y5334D01*
X47159D01*
Y5367D01*
X47192D01*
Y5400D01*
X47225D01*
Y5367D01*
D02*
G37*
G36*
X44598D02*
X44631D01*
Y5334D01*
X44664D01*
Y5367D01*
X44763D01*
Y5334D01*
X44795D01*
Y5302D01*
Y5269D01*
Y5236D01*
X44763D01*
Y5203D01*
X44795D01*
Y5170D01*
Y5138D01*
Y5105D01*
X44763D01*
Y5072D01*
X44795D01*
Y5039D01*
Y5006D01*
Y4973D01*
X44763D01*
Y4941D01*
X44795D01*
Y4908D01*
X44763D01*
Y4875D01*
X44795D01*
Y4842D01*
X44763D01*
Y4809D01*
X44795D01*
Y4776D01*
Y4744D01*
Y4711D01*
X44763D01*
Y4678D01*
X44795D01*
Y4645D01*
Y4612D01*
Y4579D01*
X44763D01*
Y4547D01*
X44795D01*
Y4514D01*
Y4481D01*
Y4448D01*
X44763D01*
Y4415D01*
X44795D01*
Y4382D01*
X44763D01*
Y4350D01*
X44795D01*
Y4317D01*
X44763D01*
Y4284D01*
X44795D01*
Y4251D01*
Y4218D01*
Y4185D01*
X44763D01*
Y4153D01*
X44795D01*
Y4120D01*
Y4087D01*
Y4054D01*
X44763D01*
Y4021D01*
X44795D01*
Y3988D01*
Y3956D01*
Y3923D01*
X44763D01*
Y3890D01*
X44795D01*
Y3857D01*
X44763D01*
Y3824D01*
X44795D01*
Y3791D01*
X44763D01*
Y3759D01*
X44795D01*
Y3726D01*
Y3693D01*
Y3660D01*
X44763D01*
Y3627D01*
X44795D01*
Y3594D01*
Y3562D01*
Y3529D01*
X44763D01*
Y3496D01*
X44795D01*
Y3463D01*
Y3430D01*
Y3398D01*
X44763D01*
Y3365D01*
X44795D01*
Y3332D01*
X44763D01*
Y3299D01*
X44795D01*
Y3266D01*
X44763D01*
Y3233D01*
X44795D01*
Y3201D01*
Y3168D01*
Y3135D01*
X44763D01*
Y3102D01*
X44795D01*
Y3069D01*
Y3036D01*
Y3004D01*
X44763D01*
Y2971D01*
X44795D01*
Y2938D01*
Y2905D01*
Y2872D01*
X44763D01*
Y2840D01*
X44795D01*
Y2807D01*
Y2774D01*
Y2741D01*
X44763D01*
Y2774D01*
X44730D01*
Y2741D01*
X44631D01*
Y2774D01*
X44598D01*
Y2741D01*
X44500D01*
Y2774D01*
X44467D01*
Y2741D01*
X44369D01*
Y2774D01*
X44336D01*
Y2741D01*
X44303D01*
Y2774D01*
X44270D01*
Y2807D01*
Y2840D01*
Y2872D01*
Y2905D01*
Y2938D01*
Y2971D01*
Y3004D01*
Y3036D01*
Y3069D01*
Y3102D01*
Y3135D01*
Y3168D01*
Y3201D01*
Y3233D01*
Y3266D01*
Y3299D01*
Y3332D01*
Y3365D01*
Y3398D01*
Y3430D01*
Y3463D01*
Y3496D01*
Y3529D01*
Y3562D01*
Y3594D01*
Y3627D01*
Y3660D01*
Y3693D01*
Y3726D01*
Y3759D01*
Y3791D01*
Y3824D01*
Y3857D01*
Y3890D01*
Y3923D01*
Y3956D01*
Y3988D01*
Y4021D01*
Y4054D01*
Y4087D01*
Y4120D01*
Y4153D01*
Y4185D01*
Y4218D01*
Y4251D01*
Y4284D01*
Y4317D01*
Y4350D01*
Y4382D01*
Y4415D01*
Y4448D01*
Y4481D01*
Y4514D01*
Y4547D01*
Y4579D01*
Y4612D01*
Y4645D01*
Y4678D01*
Y4711D01*
Y4744D01*
Y4776D01*
Y4809D01*
Y4842D01*
Y4875D01*
Y4908D01*
Y4941D01*
Y4973D01*
Y5006D01*
Y5039D01*
Y5072D01*
Y5105D01*
Y5138D01*
Y5170D01*
Y5203D01*
Y5236D01*
Y5269D01*
Y5302D01*
Y5334D01*
Y5367D01*
X44369D01*
Y5334D01*
X44401D01*
Y5367D01*
X44500D01*
Y5334D01*
X44533D01*
Y5367D01*
X44566D01*
Y5400D01*
X44598D01*
Y5367D01*
D02*
G37*
G36*
X41414Y5334D02*
X41381D01*
Y5367D01*
X41414D01*
Y5334D01*
D02*
G37*
G36*
X38821Y5367D02*
X38853D01*
Y5334D01*
X38886D01*
Y5367D01*
X38985D01*
Y5334D01*
X39018D01*
Y5367D01*
X39116D01*
Y5334D01*
X39149D01*
Y5367D01*
X39215D01*
Y5334D01*
Y5302D01*
X39247D01*
Y5269D01*
X39215D01*
Y5236D01*
X39247D01*
Y5203D01*
X39215D01*
Y5170D01*
X39247D01*
Y5138D01*
X39215D01*
Y5105D01*
Y5072D01*
Y5039D01*
X39247D01*
Y5006D01*
X39215D01*
Y4973D01*
X39247D01*
Y4941D01*
X39215D01*
Y4908D01*
X38591D01*
Y4875D01*
X38624D01*
Y4842D01*
X38591D01*
Y4809D01*
X38624D01*
Y4776D01*
X38591D01*
Y4744D01*
X38624D01*
Y4711D01*
X38591D01*
Y4678D01*
X38624D01*
Y4645D01*
X38591D01*
Y4612D01*
X38624D01*
Y4579D01*
X38591D01*
Y4547D01*
X38624D01*
Y4514D01*
X38591D01*
Y4481D01*
X38624D01*
Y4448D01*
X38591D01*
Y4415D01*
X38624D01*
Y4382D01*
X38591D01*
Y4350D01*
X38624D01*
Y4317D01*
X38591D01*
Y4284D01*
X38624D01*
Y4251D01*
X38591D01*
Y4218D01*
X38624D01*
Y4185D01*
X38591D01*
Y4153D01*
X38624D01*
Y4120D01*
X38591D01*
Y4087D01*
X38624D01*
Y4054D01*
X38591D01*
Y4021D01*
X38624D01*
Y3988D01*
X38591D01*
Y3956D01*
X38624D01*
Y3923D01*
X38591D01*
Y3890D01*
X38624D01*
Y3857D01*
X38591D01*
Y3824D01*
X38624D01*
Y3791D01*
X38591D01*
Y3759D01*
X38624D01*
Y3726D01*
X38591D01*
Y3693D01*
X38624D01*
Y3660D01*
X38591D01*
Y3627D01*
X38624D01*
Y3594D01*
X38591D01*
Y3562D01*
X38624D01*
Y3529D01*
X38591D01*
Y3496D01*
X38624D01*
Y3463D01*
X38591D01*
Y3430D01*
X38624D01*
Y3398D01*
X38591D01*
Y3365D01*
X38624D01*
Y3332D01*
X38591D01*
Y3299D01*
X38624D01*
Y3266D01*
X38591D01*
Y3233D01*
X38624D01*
Y3201D01*
X38591D01*
Y3168D01*
X38624D01*
Y3135D01*
X38591D01*
Y3102D01*
X38624D01*
Y3069D01*
X38591D01*
Y3036D01*
X38624D01*
Y3004D01*
X38591D01*
Y2971D01*
X38624D01*
Y2938D01*
X38591D01*
Y2905D01*
X38624D01*
Y2872D01*
X38591D01*
Y2840D01*
X38624D01*
Y2807D01*
X38591D01*
Y2774D01*
X38558D01*
Y2741D01*
X38460D01*
Y2774D01*
X38427D01*
Y2741D01*
X38328D01*
Y2774D01*
X38295D01*
Y2741D01*
X38197D01*
Y2774D01*
X38164D01*
Y2741D01*
X38131D01*
Y2774D01*
X38098D01*
Y2807D01*
X38066D01*
Y2840D01*
X38098D01*
Y2872D01*
Y2905D01*
Y2938D01*
X38066D01*
Y2971D01*
X38098D01*
Y3004D01*
Y3036D01*
Y3069D01*
X38066D01*
Y3102D01*
X38098D01*
Y3135D01*
Y3168D01*
Y3201D01*
X38066D01*
Y3233D01*
X38098D01*
Y3266D01*
Y3299D01*
Y3332D01*
X38066D01*
Y3365D01*
X38098D01*
Y3398D01*
Y3430D01*
Y3463D01*
X38066D01*
Y3496D01*
X38098D01*
Y3529D01*
Y3562D01*
Y3594D01*
X38066D01*
Y3627D01*
X38098D01*
Y3660D01*
Y3693D01*
Y3726D01*
X38066D01*
Y3759D01*
X38098D01*
Y3791D01*
Y3824D01*
Y3857D01*
X38066D01*
Y3890D01*
X38098D01*
Y3923D01*
Y3956D01*
Y3988D01*
X38066D01*
Y4021D01*
X38098D01*
Y4054D01*
Y4087D01*
Y4120D01*
X38066D01*
Y4153D01*
X38098D01*
Y4185D01*
Y4218D01*
Y4251D01*
X38066D01*
Y4284D01*
X38098D01*
Y4317D01*
Y4350D01*
Y4382D01*
X38066D01*
Y4415D01*
X38098D01*
Y4448D01*
Y4481D01*
Y4514D01*
X38066D01*
Y4547D01*
X38098D01*
Y4579D01*
Y4612D01*
Y4645D01*
X38066D01*
Y4678D01*
X38098D01*
Y4711D01*
Y4744D01*
Y4776D01*
X38066D01*
Y4809D01*
X38098D01*
Y4842D01*
Y4875D01*
Y4908D01*
X37475D01*
Y4941D01*
Y4973D01*
Y5006D01*
Y5039D01*
Y5072D01*
Y5105D01*
Y5138D01*
Y5170D01*
Y5203D01*
Y5236D01*
Y5269D01*
Y5302D01*
Y5334D01*
Y5367D01*
X37540D01*
Y5334D01*
X37573D01*
Y5367D01*
X37672D01*
Y5334D01*
X37704D01*
Y5367D01*
X37737D01*
Y5400D01*
X37770D01*
Y5367D01*
X37803D01*
Y5334D01*
X37836D01*
Y5367D01*
X37934D01*
Y5334D01*
X37967D01*
Y5367D01*
X38066D01*
Y5334D01*
X38098D01*
Y5367D01*
X38197D01*
Y5334D01*
X38230D01*
Y5367D01*
X38263D01*
Y5400D01*
X38295D01*
Y5367D01*
X38328D01*
Y5334D01*
X38361D01*
Y5367D01*
X38460D01*
Y5334D01*
X38492D01*
Y5367D01*
X38591D01*
Y5334D01*
X38624D01*
Y5367D01*
X38722D01*
Y5334D01*
X38755D01*
Y5367D01*
X38788D01*
Y5400D01*
X38821D01*
Y5367D01*
D02*
G37*
G36*
X34093D02*
X34126D01*
Y5334D01*
X34159D01*
Y5367D01*
X34258D01*
Y5334D01*
X34290D01*
Y5367D01*
X34389D01*
Y5334D01*
X34422D01*
Y5302D01*
Y5269D01*
Y5236D01*
X34389D01*
Y5203D01*
X34422D01*
Y5170D01*
Y5138D01*
Y5105D01*
X34389D01*
Y5072D01*
X34422D01*
Y5039D01*
Y5006D01*
Y4973D01*
X34389D01*
Y4941D01*
X34422D01*
Y4908D01*
Y4875D01*
Y4842D01*
X34389D01*
Y4809D01*
X34422D01*
Y4776D01*
Y4744D01*
Y4711D01*
X34389D01*
Y4678D01*
X34422D01*
Y4645D01*
Y4612D01*
Y4579D01*
X34389D01*
Y4547D01*
X34422D01*
Y4514D01*
Y4481D01*
Y4448D01*
X34389D01*
Y4415D01*
X34422D01*
Y4382D01*
Y4350D01*
Y4317D01*
X34389D01*
Y4284D01*
X34422D01*
Y4251D01*
Y4218D01*
Y4185D01*
X34389D01*
Y4153D01*
X34422D01*
Y4120D01*
Y4087D01*
Y4054D01*
X34389D01*
Y4021D01*
X34422D01*
Y3988D01*
Y3956D01*
Y3923D01*
X34389D01*
Y3890D01*
X34422D01*
Y3857D01*
Y3824D01*
Y3791D01*
X34389D01*
Y3759D01*
X34422D01*
Y3726D01*
Y3693D01*
Y3660D01*
X34389D01*
Y3627D01*
X34422D01*
Y3594D01*
X34389D01*
Y3562D01*
X34422D01*
Y3529D01*
X34389D01*
Y3496D01*
X34422D01*
Y3463D01*
X34389D01*
Y3430D01*
Y3398D01*
Y3365D01*
X34356D01*
Y3332D01*
Y3299D01*
Y3266D01*
X34323D01*
Y3233D01*
X34356D01*
Y3201D01*
X34323D01*
Y3168D01*
X34290D01*
Y3135D01*
X34258D01*
Y3102D01*
X34290D01*
Y3069D01*
X34258D01*
Y3036D01*
X34225D01*
Y3004D01*
X34192D01*
Y2971D01*
X34159D01*
Y2938D01*
X34126D01*
Y2905D01*
X34093D01*
Y2872D01*
X34060D01*
Y2840D01*
X34028D01*
Y2807D01*
X33929D01*
Y2774D01*
X33831D01*
Y2741D01*
X33667D01*
Y2708D01*
X33634D01*
Y2741D01*
X33601D01*
Y2708D01*
X33502D01*
Y2741D01*
X33470D01*
Y2708D01*
X33502D01*
Y2675D01*
X33470D01*
Y2708D01*
X33371D01*
Y2741D01*
X33338D01*
Y2708D01*
X33305D01*
Y2741D01*
X33273D01*
Y2708D01*
X33240D01*
Y2741D01*
X33141D01*
Y2774D01*
X33043D01*
Y2807D01*
X33010D01*
Y2840D01*
X32977D01*
Y2872D01*
X32879D01*
Y2905D01*
X32846D01*
Y2938D01*
X32813D01*
Y2971D01*
X32780D01*
Y3004D01*
X32747D01*
Y3036D01*
X32715D01*
Y3069D01*
X32682D01*
Y3102D01*
X32715D01*
Y3135D01*
X32682D01*
Y3168D01*
X32649D01*
Y3201D01*
X32616D01*
Y3233D01*
X32649D01*
Y3266D01*
X32616D01*
Y3299D01*
X32583D01*
Y3332D01*
Y3365D01*
Y3398D01*
X32550D01*
Y3430D01*
X32583D01*
Y3463D01*
X32550D01*
Y3496D01*
X32583D01*
Y3529D01*
X32550D01*
Y3562D01*
Y3594D01*
Y3627D01*
Y3660D01*
Y3693D01*
X32518D01*
Y3726D01*
X32550D01*
Y3759D01*
Y3791D01*
Y3824D01*
X32518D01*
Y3857D01*
X32550D01*
Y3890D01*
Y3923D01*
Y3956D01*
X32518D01*
Y3988D01*
X32550D01*
Y4021D01*
Y4054D01*
Y4087D01*
X32518D01*
Y4120D01*
X32550D01*
Y4153D01*
Y4185D01*
Y4218D01*
X32518D01*
Y4251D01*
X32550D01*
Y4284D01*
Y4317D01*
Y4350D01*
X32518D01*
Y4382D01*
X32550D01*
Y4415D01*
Y4448D01*
Y4481D01*
X32518D01*
Y4514D01*
X32550D01*
Y4547D01*
Y4579D01*
Y4612D01*
X32518D01*
Y4645D01*
X32550D01*
Y4678D01*
Y4711D01*
Y4744D01*
X32518D01*
Y4776D01*
X32550D01*
Y4809D01*
Y4842D01*
Y4875D01*
X32518D01*
Y4908D01*
X32550D01*
Y4941D01*
Y4973D01*
Y5006D01*
X32518D01*
Y5039D01*
X32550D01*
Y5072D01*
Y5105D01*
Y5138D01*
X32518D01*
Y5170D01*
X32550D01*
Y5203D01*
Y5236D01*
Y5269D01*
X32518D01*
Y5302D01*
X32550D01*
Y5334D01*
X32583D01*
Y5367D01*
X32682D01*
Y5334D01*
X32715D01*
Y5367D01*
X32813D01*
Y5334D01*
X32846D01*
Y5367D01*
X32944D01*
Y5334D01*
X32977D01*
Y5367D01*
X33010D01*
Y5334D01*
X33043D01*
Y5302D01*
X33010D01*
Y5269D01*
X33043D01*
Y5236D01*
X33010D01*
Y5203D01*
X33043D01*
Y5170D01*
X33010D01*
Y5138D01*
X33043D01*
Y5105D01*
Y5072D01*
Y5039D01*
X33010D01*
Y5006D01*
X33043D01*
Y4973D01*
X33010D01*
Y4941D01*
X33043D01*
Y4908D01*
X33010D01*
Y4875D01*
X33043D01*
Y4842D01*
Y4809D01*
Y4776D01*
X33010D01*
Y4744D01*
X33043D01*
Y4711D01*
X33010D01*
Y4678D01*
X33043D01*
Y4645D01*
X33010D01*
Y4612D01*
X33043D01*
Y4579D01*
Y4547D01*
Y4514D01*
X33010D01*
Y4481D01*
X33043D01*
Y4448D01*
X33010D01*
Y4415D01*
X33043D01*
Y4382D01*
X33010D01*
Y4350D01*
X33043D01*
Y4317D01*
Y4284D01*
Y4251D01*
X33010D01*
Y4218D01*
X33043D01*
Y4185D01*
X33010D01*
Y4153D01*
X33043D01*
Y4120D01*
X33010D01*
Y4087D01*
X33043D01*
Y4054D01*
Y4021D01*
Y3988D01*
X33010D01*
Y3956D01*
X33043D01*
Y3923D01*
X33010D01*
Y3890D01*
X33043D01*
Y3857D01*
X33010D01*
Y3824D01*
X33043D01*
Y3791D01*
Y3759D01*
Y3726D01*
Y3693D01*
Y3660D01*
Y3627D01*
Y3594D01*
X33076D01*
Y3562D01*
X33043D01*
Y3529D01*
X33076D01*
Y3496D01*
X33108D01*
Y3463D01*
X33076D01*
Y3430D01*
X33108D01*
Y3398D01*
X33076D01*
Y3365D01*
X33141D01*
Y3332D01*
Y3299D01*
X33174D01*
Y3266D01*
X33207D01*
Y3233D01*
X33240D01*
Y3201D01*
X33273D01*
Y3168D01*
X33305D01*
Y3201D01*
X33338D01*
Y3168D01*
X33437D01*
Y3135D01*
X33470D01*
Y3168D01*
X33634D01*
Y3201D01*
X33667D01*
Y3168D01*
X33699D01*
Y3201D01*
Y3233D01*
X33765D01*
Y3266D01*
X33798D01*
Y3299D01*
X33831D01*
Y3332D01*
X33798D01*
Y3365D01*
X33831D01*
Y3398D01*
X33863D01*
Y3430D01*
Y3463D01*
Y3496D01*
X33896D01*
Y3529D01*
X33863D01*
Y3562D01*
X33896D01*
Y3594D01*
X33863D01*
Y3627D01*
X33896D01*
Y3660D01*
Y3693D01*
Y3726D01*
X33929D01*
Y3759D01*
X33896D01*
Y3791D01*
X33929D01*
Y3824D01*
X33896D01*
Y3857D01*
X33929D01*
Y3890D01*
X33896D01*
Y3923D01*
Y3956D01*
Y3988D01*
X33929D01*
Y4021D01*
X33896D01*
Y4054D01*
X33929D01*
Y4087D01*
X33896D01*
Y4120D01*
X33929D01*
Y4153D01*
X33896D01*
Y4185D01*
Y4218D01*
Y4251D01*
X33929D01*
Y4284D01*
X33896D01*
Y4317D01*
X33929D01*
Y4350D01*
X33896D01*
Y4382D01*
X33929D01*
Y4415D01*
X33896D01*
Y4448D01*
Y4481D01*
Y4514D01*
X33929D01*
Y4547D01*
X33896D01*
Y4579D01*
X33929D01*
Y4612D01*
X33896D01*
Y4645D01*
X33929D01*
Y4678D01*
X33896D01*
Y4711D01*
Y4744D01*
Y4776D01*
X33929D01*
Y4809D01*
X33896D01*
Y4842D01*
X33929D01*
Y4875D01*
X33896D01*
Y4908D01*
X33929D01*
Y4941D01*
X33896D01*
Y4973D01*
Y5006D01*
Y5039D01*
X33929D01*
Y5072D01*
X33896D01*
Y5105D01*
X33929D01*
Y5138D01*
X33896D01*
Y5170D01*
X33929D01*
Y5203D01*
X33896D01*
Y5236D01*
Y5269D01*
Y5302D01*
X33929D01*
Y5334D01*
X33896D01*
Y5367D01*
X33995D01*
Y5334D01*
X34028D01*
Y5367D01*
X34060D01*
Y5400D01*
X34093D01*
Y5367D01*
D02*
G37*
G36*
X32091Y5334D02*
X32058D01*
Y5367D01*
X32091D01*
Y5334D01*
D02*
G37*
G36*
X31992Y5367D02*
X32025D01*
Y5334D01*
X32058D01*
Y5302D01*
X32091D01*
Y5269D01*
X32058D01*
Y5236D01*
X32091D01*
Y5203D01*
X32058D01*
Y5170D01*
X32091D01*
Y5138D01*
X32058D01*
Y5105D01*
X32091D01*
Y5072D01*
X32058D01*
Y5039D01*
X32091D01*
Y5006D01*
X32058D01*
Y4973D01*
X32091D01*
Y4941D01*
X32058D01*
Y4908D01*
Y4875D01*
Y4842D01*
X32091D01*
Y4809D01*
X32058D01*
Y4776D01*
X32091D01*
Y4744D01*
X32058D01*
Y4711D01*
X32091D01*
Y4678D01*
X32058D01*
Y4645D01*
X32091D01*
Y4612D01*
X32058D01*
Y4579D01*
X32091D01*
Y4547D01*
X32058D01*
Y4514D01*
X32091D01*
Y4481D01*
X32058D01*
Y4448D01*
X32091D01*
Y4415D01*
X32058D01*
Y4382D01*
Y4350D01*
Y4317D01*
X32091D01*
Y4284D01*
X32058D01*
Y4251D01*
X32091D01*
Y4218D01*
X32058D01*
Y4185D01*
X32091D01*
Y4153D01*
X32058D01*
Y4120D01*
X32091D01*
Y4087D01*
X32058D01*
Y4054D01*
X32091D01*
Y4021D01*
X32058D01*
Y3988D01*
X32091D01*
Y3956D01*
X32058D01*
Y3923D01*
X32091D01*
Y3890D01*
X32058D01*
Y3857D01*
Y3824D01*
Y3791D01*
X32091D01*
Y3759D01*
X32058D01*
Y3726D01*
X32091D01*
Y3693D01*
X32058D01*
Y3660D01*
X32091D01*
Y3627D01*
X32058D01*
Y3594D01*
X32091D01*
Y3562D01*
X32058D01*
Y3529D01*
X32091D01*
Y3496D01*
X32058D01*
Y3463D01*
X32091D01*
Y3430D01*
X32058D01*
Y3398D01*
X32091D01*
Y3365D01*
X32058D01*
Y3332D01*
Y3299D01*
Y3266D01*
X32091D01*
Y3233D01*
X32058D01*
Y3201D01*
X32091D01*
Y3168D01*
X32058D01*
Y3135D01*
X32091D01*
Y3102D01*
X32058D01*
Y3069D01*
X32091D01*
Y3036D01*
X32058D01*
Y3004D01*
X32091D01*
Y2971D01*
X32058D01*
Y2938D01*
X32091D01*
Y2905D01*
X32058D01*
Y2872D01*
X32091D01*
Y2840D01*
X32058D01*
Y2807D01*
X32091D01*
Y2774D01*
X32058D01*
Y2741D01*
X32025D01*
Y2774D01*
X31992D01*
Y2741D01*
X31894D01*
Y2774D01*
X31861D01*
Y2741D01*
X31762D01*
Y2774D01*
X31730D01*
Y2741D01*
X31631D01*
Y2774D01*
X31598D01*
Y2741D01*
X31566D01*
Y2774D01*
Y2807D01*
Y2840D01*
Y2872D01*
Y2905D01*
Y2938D01*
Y2971D01*
Y3004D01*
Y3036D01*
Y3069D01*
Y3102D01*
Y3135D01*
Y3168D01*
Y3201D01*
Y3233D01*
Y3266D01*
Y3299D01*
Y3332D01*
Y3365D01*
Y3398D01*
Y3430D01*
Y3463D01*
Y3496D01*
Y3529D01*
Y3562D01*
Y3594D01*
Y3627D01*
Y3660D01*
Y3693D01*
Y3726D01*
Y3759D01*
Y3791D01*
Y3824D01*
Y3857D01*
Y3890D01*
Y3923D01*
Y3956D01*
Y3988D01*
Y4021D01*
Y4054D01*
Y4087D01*
Y4120D01*
Y4153D01*
Y4185D01*
Y4218D01*
Y4251D01*
Y4284D01*
Y4317D01*
Y4350D01*
Y4382D01*
Y4415D01*
X31533D01*
Y4382D01*
X31500D01*
Y4350D01*
Y4317D01*
X31467D01*
Y4284D01*
Y4251D01*
X31434D01*
Y4218D01*
X31401D01*
Y4185D01*
X31369D01*
Y4153D01*
X31401D01*
Y4120D01*
X31369D01*
Y4087D01*
X31336D01*
Y4054D01*
X31303D01*
Y4021D01*
Y3988D01*
X31270D01*
Y3956D01*
Y3923D01*
X31237D01*
Y3890D01*
X31204D01*
Y3857D01*
X31172D01*
Y3824D01*
X31204D01*
Y3791D01*
X31172D01*
Y3759D01*
X31139D01*
Y3726D01*
X31106D01*
Y3693D01*
Y3660D01*
X31073D01*
Y3627D01*
Y3594D01*
X31040D01*
Y3562D01*
X31008D01*
Y3529D01*
X30975D01*
Y3496D01*
X31008D01*
Y3463D01*
X30975D01*
Y3430D01*
X30942D01*
Y3398D01*
X30909D01*
Y3365D01*
Y3332D01*
X30876D01*
Y3299D01*
Y3266D01*
X30843D01*
Y3233D01*
X30810D01*
Y3201D01*
X30778D01*
Y3168D01*
X30810D01*
Y3135D01*
X30778D01*
Y3102D01*
X30745D01*
Y3069D01*
X30712D01*
Y3036D01*
Y3004D01*
X30679D01*
Y2971D01*
Y2938D01*
X30646D01*
Y2905D01*
X30613D01*
Y2872D01*
X30581D01*
Y2840D01*
X30613D01*
Y2807D01*
X30581D01*
Y2774D01*
X30548D01*
Y2741D01*
X30449D01*
Y2774D01*
X30417D01*
Y2741D01*
X30318D01*
Y2774D01*
X30285D01*
Y2741D01*
X30187D01*
Y2774D01*
X30154D01*
Y2741D01*
X30055D01*
Y2774D01*
Y2807D01*
Y2840D01*
X30088D01*
Y2872D01*
X30055D01*
Y2905D01*
X30088D01*
Y2938D01*
X30055D01*
Y2971D01*
X30088D01*
Y3004D01*
X30055D01*
Y3036D01*
X30088D01*
Y3069D01*
X30055D01*
Y3102D01*
X30088D01*
Y3135D01*
X30055D01*
Y3168D01*
X30088D01*
Y3201D01*
X30055D01*
Y3233D01*
X30088D01*
Y3266D01*
X30055D01*
Y3299D01*
X30088D01*
Y3332D01*
X30055D01*
Y3365D01*
X30088D01*
Y3398D01*
X30055D01*
Y3430D01*
X30088D01*
Y3463D01*
X30055D01*
Y3496D01*
X30088D01*
Y3529D01*
X30055D01*
Y3562D01*
X30088D01*
Y3594D01*
X30055D01*
Y3627D01*
X30088D01*
Y3660D01*
X30055D01*
Y3693D01*
X30088D01*
Y3726D01*
X30055D01*
Y3759D01*
X30088D01*
Y3791D01*
X30055D01*
Y3824D01*
X30088D01*
Y3857D01*
X30055D01*
Y3890D01*
X30088D01*
Y3923D01*
X30055D01*
Y3956D01*
X30088D01*
Y3988D01*
X30055D01*
Y4021D01*
X30088D01*
Y4054D01*
X30055D01*
Y4087D01*
X30088D01*
Y4120D01*
X30055D01*
Y4153D01*
X30088D01*
Y4185D01*
X30055D01*
Y4218D01*
X30088D01*
Y4251D01*
X30055D01*
Y4284D01*
X30088D01*
Y4317D01*
X30055D01*
Y4350D01*
X30088D01*
Y4382D01*
X30055D01*
Y4415D01*
X30088D01*
Y4448D01*
X30055D01*
Y4481D01*
X30088D01*
Y4514D01*
X30055D01*
Y4547D01*
X30088D01*
Y4579D01*
X30055D01*
Y4612D01*
X30088D01*
Y4645D01*
X30055D01*
Y4678D01*
X30088D01*
Y4711D01*
X30055D01*
Y4744D01*
X30088D01*
Y4776D01*
X30055D01*
Y4809D01*
X30088D01*
Y4842D01*
X30055D01*
Y4875D01*
X30088D01*
Y4908D01*
X30055D01*
Y4941D01*
X30088D01*
Y4973D01*
X30055D01*
Y5006D01*
X30088D01*
Y5039D01*
X30055D01*
Y5072D01*
X30088D01*
Y5105D01*
X30055D01*
Y5138D01*
X30088D01*
Y5170D01*
X30055D01*
Y5203D01*
X30088D01*
Y5236D01*
X30055D01*
Y5269D01*
X30088D01*
Y5302D01*
X30055D01*
Y5334D01*
X30088D01*
Y5367D01*
X30187D01*
Y5334D01*
X30220D01*
Y5367D01*
X30318D01*
Y5334D01*
X30351D01*
Y5367D01*
X30384D01*
Y5400D01*
X30417D01*
Y5367D01*
X30449D01*
Y5334D01*
X30482D01*
Y5367D01*
X30581D01*
Y5334D01*
Y5302D01*
Y5269D01*
X30548D01*
Y5236D01*
X30581D01*
Y5203D01*
Y5170D01*
Y5138D01*
X30548D01*
Y5105D01*
X30581D01*
Y5072D01*
Y5039D01*
Y5006D01*
X30548D01*
Y4973D01*
X30581D01*
Y4941D01*
Y4908D01*
Y4875D01*
X30548D01*
Y4842D01*
X30581D01*
Y4809D01*
Y4776D01*
Y4744D01*
X30548D01*
Y4711D01*
X30581D01*
Y4678D01*
Y4645D01*
Y4612D01*
X30548D01*
Y4579D01*
X30581D01*
Y4547D01*
Y4514D01*
Y4481D01*
X30548D01*
Y4448D01*
X30581D01*
Y4415D01*
Y4382D01*
Y4350D01*
X30548D01*
Y4317D01*
X30581D01*
Y4284D01*
Y4251D01*
Y4218D01*
X30548D01*
Y4185D01*
X30581D01*
Y4153D01*
Y4120D01*
Y4087D01*
X30548D01*
Y4054D01*
X30581D01*
Y4021D01*
Y3988D01*
Y3956D01*
X30548D01*
Y3923D01*
X30581D01*
Y3890D01*
Y3857D01*
Y3824D01*
X30548D01*
Y3791D01*
X30581D01*
Y3759D01*
X30613D01*
Y3791D01*
X30646D01*
Y3824D01*
X30679D01*
Y3857D01*
Y3890D01*
X30712D01*
Y3923D01*
Y3956D01*
X30745D01*
Y3988D01*
X30778D01*
Y4021D01*
Y4054D01*
Y4087D01*
X30810D01*
Y4120D01*
X30843D01*
Y4153D01*
X30876D01*
Y4185D01*
Y4218D01*
Y4251D01*
X30909D01*
Y4284D01*
X30942D01*
Y4317D01*
Y4350D01*
X30975D01*
Y4382D01*
Y4415D01*
X31008D01*
Y4448D01*
X31040D01*
Y4481D01*
X31073D01*
Y4514D01*
X31040D01*
Y4547D01*
X31073D01*
Y4579D01*
X31106D01*
Y4612D01*
X31139D01*
Y4645D01*
Y4678D01*
X31172D01*
Y4711D01*
Y4744D01*
X31204D01*
Y4776D01*
X31237D01*
Y4809D01*
X31270D01*
Y4842D01*
X31237D01*
Y4875D01*
X31270D01*
Y4908D01*
X31303D01*
Y4941D01*
X31336D01*
Y4973D01*
X31303D01*
Y5006D01*
X31336D01*
Y5039D01*
X31369D01*
Y5072D01*
X31401D01*
Y5105D01*
Y5138D01*
X31434D01*
Y5170D01*
Y5203D01*
X31467D01*
Y5236D01*
X31500D01*
Y5269D01*
X31533D01*
Y5302D01*
X31500D01*
Y5334D01*
X31533D01*
Y5367D01*
X31631D01*
Y5334D01*
X31664D01*
Y5367D01*
X31762D01*
Y5334D01*
X31795D01*
Y5367D01*
X31894D01*
Y5334D01*
X31927D01*
Y5367D01*
X31960D01*
Y5400D01*
X31992D01*
Y5367D01*
D02*
G37*
G36*
X40922D02*
X40955D01*
Y5334D01*
X40987D01*
Y5367D01*
X41086D01*
Y5334D01*
X41119D01*
Y5367D01*
X41217D01*
Y5334D01*
X41250D01*
Y5367D01*
X41348D01*
Y5334D01*
X41381D01*
Y5302D01*
Y5269D01*
Y5236D01*
Y5203D01*
Y5170D01*
Y5138D01*
Y5105D01*
X41414D01*
Y5072D01*
X41381D01*
Y5039D01*
Y5006D01*
Y4973D01*
Y4941D01*
Y4908D01*
Y4875D01*
Y4842D01*
X41414D01*
Y4809D01*
X41381D01*
Y4776D01*
Y4744D01*
Y4711D01*
Y4678D01*
Y4645D01*
Y4612D01*
Y4579D01*
X41414D01*
Y4547D01*
X41381D01*
Y4514D01*
Y4481D01*
Y4448D01*
Y4415D01*
Y4382D01*
Y4350D01*
Y4317D01*
X41414D01*
Y4284D01*
X41381D01*
Y4251D01*
Y4218D01*
Y4185D01*
Y4153D01*
Y4120D01*
Y4087D01*
Y4054D01*
X41414D01*
Y4021D01*
X41381D01*
Y3988D01*
Y3956D01*
Y3923D01*
Y3890D01*
Y3857D01*
Y3824D01*
Y3791D01*
X41414D01*
Y3759D01*
X41381D01*
Y3726D01*
Y3693D01*
Y3660D01*
Y3627D01*
Y3594D01*
Y3562D01*
Y3529D01*
X41414D01*
Y3496D01*
X41381D01*
Y3463D01*
Y3430D01*
Y3398D01*
Y3365D01*
Y3332D01*
Y3299D01*
Y3266D01*
X41414D01*
Y3233D01*
X41381D01*
Y3201D01*
Y3168D01*
Y3135D01*
Y3102D01*
Y3069D01*
Y3036D01*
Y3004D01*
X41414D01*
Y2971D01*
X41381D01*
Y2938D01*
Y2905D01*
Y2872D01*
Y2840D01*
Y2807D01*
Y2774D01*
Y2741D01*
X41348D01*
Y2774D01*
X41316D01*
Y2741D01*
X41217D01*
Y2774D01*
X41184D01*
Y2741D01*
X41086D01*
Y2774D01*
X41053D01*
Y2741D01*
X40955D01*
Y2774D01*
X40922D01*
Y2741D01*
X40889D01*
Y2774D01*
Y2807D01*
Y2840D01*
Y2872D01*
Y2905D01*
Y2938D01*
Y2971D01*
Y3004D01*
Y3036D01*
Y3069D01*
Y3102D01*
Y3135D01*
Y3168D01*
Y3201D01*
Y3233D01*
Y3266D01*
Y3299D01*
Y3332D01*
Y3365D01*
Y3398D01*
Y3430D01*
Y3463D01*
Y3496D01*
Y3529D01*
Y3562D01*
Y3594D01*
Y3627D01*
Y3660D01*
Y3693D01*
Y3726D01*
Y3759D01*
X40856D01*
Y3791D01*
X39904D01*
Y3759D01*
X39937D01*
Y3726D01*
X39904D01*
Y3693D01*
X39937D01*
Y3660D01*
X39904D01*
Y3627D01*
X39937D01*
Y3594D01*
Y3562D01*
Y3529D01*
X39904D01*
Y3496D01*
X39937D01*
Y3463D01*
X39904D01*
Y3430D01*
X39937D01*
Y3398D01*
X39904D01*
Y3365D01*
X39937D01*
Y3332D01*
Y3299D01*
Y3266D01*
X39904D01*
Y3233D01*
X39937D01*
Y3201D01*
X39904D01*
Y3168D01*
X39937D01*
Y3135D01*
X39904D01*
Y3102D01*
X39937D01*
Y3069D01*
Y3036D01*
Y3004D01*
X39904D01*
Y2971D01*
X39937D01*
Y2938D01*
X39904D01*
Y2905D01*
X39937D01*
Y2872D01*
X39904D01*
Y2840D01*
X39937D01*
Y2807D01*
Y2774D01*
Y2741D01*
X39904D01*
Y2774D01*
X39871D01*
Y2741D01*
X39773D01*
Y2774D01*
X39740D01*
Y2741D01*
X39641D01*
Y2774D01*
X39608D01*
Y2741D01*
X39510D01*
Y2774D01*
X39477D01*
Y2741D01*
X39444D01*
Y2774D01*
X39412D01*
Y2807D01*
X39444D01*
Y2840D01*
X39412D01*
Y2872D01*
Y2905D01*
Y2938D01*
X39444D01*
Y2971D01*
X39412D01*
Y3004D01*
Y3036D01*
Y3069D01*
X39444D01*
Y3102D01*
X39412D01*
Y3135D01*
Y3168D01*
Y3201D01*
X39444D01*
Y3233D01*
X39412D01*
Y3266D01*
Y3299D01*
Y3332D01*
X39444D01*
Y3365D01*
X39412D01*
Y3398D01*
Y3430D01*
Y3463D01*
X39444D01*
Y3496D01*
X39412D01*
Y3529D01*
Y3562D01*
Y3594D01*
X39444D01*
Y3627D01*
X39412D01*
Y3660D01*
Y3693D01*
Y3726D01*
X39444D01*
Y3759D01*
X39412D01*
Y3791D01*
Y3824D01*
Y3857D01*
X39444D01*
Y3890D01*
X39412D01*
Y3923D01*
Y3956D01*
Y3988D01*
X39444D01*
Y4021D01*
X39412D01*
Y4054D01*
Y4087D01*
Y4120D01*
X39444D01*
Y4153D01*
X39412D01*
Y4185D01*
Y4218D01*
Y4251D01*
X39444D01*
Y4284D01*
X39412D01*
Y4317D01*
Y4350D01*
Y4382D01*
X39444D01*
Y4415D01*
X39412D01*
Y4448D01*
Y4481D01*
Y4514D01*
X39444D01*
Y4547D01*
X39412D01*
Y4579D01*
Y4612D01*
Y4645D01*
X39444D01*
Y4678D01*
X39412D01*
Y4711D01*
Y4744D01*
Y4776D01*
X39444D01*
Y4809D01*
X39412D01*
Y4842D01*
Y4875D01*
Y4908D01*
X39444D01*
Y4941D01*
X39412D01*
Y4973D01*
Y5006D01*
Y5039D01*
X39444D01*
Y5072D01*
X39412D01*
Y5105D01*
Y5138D01*
Y5170D01*
X39444D01*
Y5203D01*
X39412D01*
Y5236D01*
Y5269D01*
Y5302D01*
X39444D01*
Y5334D01*
X39412D01*
Y5367D01*
X39510D01*
Y5334D01*
X39543D01*
Y5367D01*
X39641D01*
Y5334D01*
X39674D01*
Y5367D01*
X39773D01*
Y5334D01*
X39805D01*
Y5367D01*
X39838D01*
Y5400D01*
X39871D01*
Y5367D01*
X39904D01*
Y5334D01*
X39937D01*
Y5302D01*
X39904D01*
Y5269D01*
X39937D01*
Y5236D01*
X39904D01*
Y5203D01*
X39937D01*
Y5170D01*
Y5138D01*
Y5105D01*
X39904D01*
Y5072D01*
X39937D01*
Y5039D01*
X39904D01*
Y5006D01*
X39937D01*
Y4973D01*
X39904D01*
Y4941D01*
X39937D01*
Y4908D01*
Y4875D01*
Y4842D01*
X39904D01*
Y4809D01*
X39937D01*
Y4776D01*
X39904D01*
Y4744D01*
X39937D01*
Y4711D01*
X39904D01*
Y4678D01*
X39937D01*
Y4645D01*
Y4612D01*
Y4579D01*
X39904D01*
Y4547D01*
X39937D01*
Y4514D01*
X39904D01*
Y4481D01*
X39937D01*
Y4448D01*
X39904D01*
Y4415D01*
X39937D01*
Y4382D01*
Y4350D01*
Y4317D01*
X39904D01*
Y4284D01*
X39937D01*
Y4251D01*
X39970D01*
Y4284D01*
X40002D01*
Y4251D01*
X40035D01*
Y4284D01*
X40068D01*
Y4251D01*
X40101D01*
Y4284D01*
X40134D01*
Y4251D01*
X40167D01*
Y4284D01*
X40199D01*
Y4251D01*
X40232D01*
Y4284D01*
X40265D01*
Y4251D01*
X40298D01*
Y4284D01*
X40331D01*
Y4251D01*
X40363D01*
Y4284D01*
X40396D01*
Y4251D01*
X40429D01*
Y4284D01*
X40462D01*
Y4251D01*
X40495D01*
Y4284D01*
X40528D01*
Y4251D01*
X40560D01*
Y4284D01*
X40593D01*
Y4251D01*
X40626D01*
Y4284D01*
X40659D01*
Y4251D01*
X40692D01*
Y4284D01*
X40725D01*
Y4251D01*
X40758D01*
Y4284D01*
X40790D01*
Y4251D01*
X40823D01*
Y4284D01*
X40856D01*
Y4251D01*
X40889D01*
Y4284D01*
Y4317D01*
Y4350D01*
Y4382D01*
Y4415D01*
Y4448D01*
Y4481D01*
Y4514D01*
Y4547D01*
Y4579D01*
Y4612D01*
Y4645D01*
Y4678D01*
Y4711D01*
Y4744D01*
Y4776D01*
Y4809D01*
Y4842D01*
Y4875D01*
Y4908D01*
Y4941D01*
Y4973D01*
Y5006D01*
Y5039D01*
Y5072D01*
Y5105D01*
Y5138D01*
Y5170D01*
Y5203D01*
Y5236D01*
Y5269D01*
Y5302D01*
Y5334D01*
Y5367D01*
Y5400D01*
X40922D01*
Y5367D01*
D02*
G37*
G36*
X32977Y2807D02*
X32944D01*
Y2840D01*
X32977D01*
Y2807D01*
D02*
G37*
G36*
X28184Y2741D02*
X28151D01*
Y2774D01*
X28184D01*
Y2741D01*
D02*
G37*
G36*
X23457D02*
X23424D01*
Y2774D01*
X23457D01*
Y2741D01*
D02*
G37*
%LPC*%
G36*
X127953Y114400D02*
X126756Y114282D01*
X125606Y113933D01*
X124546Y113366D01*
X123617Y112604D01*
X122854Y111674D01*
X122287Y110614D01*
X121939Y109464D01*
X121821Y108268D01*
X121939Y107072D01*
X122287Y105921D01*
X122854Y104861D01*
X123617Y103932D01*
X124546Y103169D01*
X125606Y102603D01*
X126756Y102254D01*
X127953Y102136D01*
X129149Y102254D01*
X130299Y102603D01*
X131359Y103169D01*
X132289Y103932D01*
X133051Y104861D01*
X133618Y105921D01*
X133967Y107072D01*
X134085Y108268D01*
X133967Y109464D01*
X133618Y110614D01*
X133051Y111674D01*
X132289Y112604D01*
X131359Y113366D01*
X130299Y113933D01*
X129149Y114282D01*
X127953Y114400D01*
D02*
G37*
G36*
X9843D02*
X8646Y114282D01*
X7496Y113933D01*
X6436Y113366D01*
X5507Y112604D01*
X4744Y111674D01*
X4177Y110614D01*
X3828Y109464D01*
X3711Y108268D01*
X3828Y107072D01*
X4177Y105921D01*
X4744Y104861D01*
X5507Y103932D01*
X6436Y103169D01*
X7496Y102603D01*
X8646Y102254D01*
X9843Y102136D01*
X11039Y102254D01*
X12189Y102603D01*
X13249Y103169D01*
X14178Y103932D01*
X14941Y104861D01*
X15508Y105921D01*
X15856Y107072D01*
X15974Y108268D01*
X15856Y109464D01*
X15508Y110614D01*
X14941Y111674D01*
X14178Y112604D01*
X13249Y113366D01*
X12189Y113933D01*
X11039Y114282D01*
X9843Y114400D01*
D02*
G37*
G36*
X112402Y113803D02*
X108465D01*
X107745Y113709D01*
X107075Y113431D01*
X106499Y112989D01*
X106057Y112414D01*
X105780Y111743D01*
X105685Y111024D01*
Y98425D01*
X105780Y97706D01*
X106057Y97035D01*
X106499Y96460D01*
X107075Y96018D01*
X107745Y95740D01*
X108465Y95645D01*
X112402D01*
X113121Y95740D01*
X113791Y96018D01*
X114367Y96460D01*
X114809Y97035D01*
X115086Y97706D01*
X115181Y98425D01*
Y111024D01*
X115086Y111743D01*
X114809Y112414D01*
X114367Y112989D01*
X113791Y113431D01*
X113121Y113709D01*
X112402Y113803D01*
D02*
G37*
G36*
X76181D02*
X72244D01*
X71525Y113709D01*
X70854Y113431D01*
X70279Y112989D01*
X69837Y112414D01*
X69559Y111743D01*
X69464Y111024D01*
Y98425D01*
X69559Y97706D01*
X69837Y97035D01*
X70279Y96460D01*
X70854Y96018D01*
X71525Y95740D01*
X72244Y95645D01*
X76181D01*
X76901Y95740D01*
X77571Y96018D01*
X78147Y96460D01*
X78588Y97035D01*
X78866Y97706D01*
X78961Y98425D01*
Y111024D01*
X78866Y111743D01*
X78588Y112414D01*
X78147Y112989D01*
X77571Y113431D01*
X76901Y113709D01*
X76181Y113803D01*
D02*
G37*
G36*
X65551D02*
X61614D01*
X60895Y113709D01*
X60224Y113431D01*
X59649Y112989D01*
X59207Y112414D01*
X58929Y111743D01*
X58834Y111024D01*
Y98425D01*
X58929Y97706D01*
X59207Y97035D01*
X59649Y96460D01*
X60224Y96018D01*
X60895Y95740D01*
X61614Y95645D01*
X65551D01*
X66271Y95740D01*
X66941Y96018D01*
X67517Y96460D01*
X67958Y97035D01*
X68236Y97706D01*
X68331Y98425D01*
Y111024D01*
X68236Y111743D01*
X67958Y112414D01*
X67517Y112989D01*
X66941Y113431D01*
X66271Y113709D01*
X65551Y113803D01*
D02*
G37*
G36*
X29331D02*
X25394D01*
X24674Y113709D01*
X24004Y113431D01*
X23428Y112989D01*
X22986Y112414D01*
X22709Y111743D01*
X22614Y111024D01*
Y98425D01*
X22709Y97706D01*
X22986Y97035D01*
X23428Y96460D01*
X24004Y96018D01*
X24674Y95740D01*
X25394Y95645D01*
X29331D01*
X30050Y95740D01*
X30721Y96018D01*
X31296Y96460D01*
X31738Y97035D01*
X32016Y97706D01*
X32110Y98425D01*
Y111024D01*
X32016Y111743D01*
X31738Y112414D01*
X31296Y112989D01*
X30721Y113431D01*
X30050Y113709D01*
X29331Y113803D01*
D02*
G37*
G36*
X122047Y89019D02*
X121202Y88851D01*
X120486Y88372D01*
X120008Y87656D01*
X119840Y86811D01*
X120008Y85966D01*
X120486Y85250D01*
X121202Y84771D01*
X122047Y84603D01*
X122892Y84771D01*
X123608Y85250D01*
X124087Y85966D01*
X124255Y86811D01*
X124087Y87656D01*
X123608Y88372D01*
X122892Y88851D01*
X122047Y89019D01*
D02*
G37*
G36*
X98819Y65304D02*
X98047Y65151D01*
X97393Y64713D01*
X96956Y64059D01*
X96802Y63287D01*
X96956Y62516D01*
X97393Y61861D01*
X98047Y61424D01*
X98819Y61271D01*
X99591Y61424D01*
X100245Y61861D01*
X100682Y62516D01*
X100836Y63287D01*
X100682Y64059D01*
X100245Y64713D01*
X99591Y65151D01*
X98819Y65304D01*
D02*
G37*
G36*
X13780Y65009D02*
X13008Y64855D01*
X12353Y64418D01*
X11916Y63764D01*
X11763Y62992D01*
X11916Y62220D01*
X12353Y61566D01*
X13008Y61129D01*
X13780Y60975D01*
X14551Y61129D01*
X15205Y61566D01*
X15643Y62220D01*
X15796Y62992D01*
X15643Y63764D01*
X15205Y64418D01*
X14551Y64855D01*
X13780Y65009D01*
D02*
G37*
G36*
X62598Y72489D02*
X61826Y72335D01*
X61172Y71898D01*
X60735Y71244D01*
X60582Y70472D01*
X60735Y69700D01*
X61172Y69046D01*
X61826Y68609D01*
X62598Y68456D01*
X62772Y68313D01*
Y60614D01*
X62550Y60465D01*
X62113Y59811D01*
X61960Y59039D01*
X62113Y58268D01*
X62550Y57613D01*
X63204Y57176D01*
X63976Y57023D01*
X64748Y57176D01*
X65402Y57613D01*
X65839Y58268D01*
X65993Y59039D01*
X65839Y59811D01*
X65402Y60465D01*
X65180Y60614D01*
Y69094D01*
X65180Y69094D01*
X65089Y69555D01*
X64828Y69946D01*
X64828Y69946D01*
X64563Y70211D01*
X64615Y70472D01*
X64461Y71244D01*
X64024Y71898D01*
X63370Y72335D01*
X62598Y72489D01*
D02*
G37*
G36*
X62651Y38615D02*
X62488Y38583D01*
X58366D01*
Y33071D01*
X58465D01*
Y28548D01*
X57284D01*
Y33169D01*
X52362D01*
Y31913D01*
X51320D01*
X51320Y31913D01*
X50860Y31821D01*
X50469Y31560D01*
X50469Y31560D01*
X50401Y31492D01*
X50139Y31544D01*
X49368Y31391D01*
X48713Y30954D01*
X48276Y30299D01*
X48123Y29528D01*
X48218Y29048D01*
X47860Y28548D01*
X20484D01*
X20324Y28788D01*
X19669Y29225D01*
X18898Y29379D01*
X18126Y29225D01*
X17472Y28788D01*
X17034Y28134D01*
X16881Y27362D01*
X17034Y26590D01*
X17472Y25936D01*
X18126Y25499D01*
X18898Y25346D01*
X19669Y25499D01*
X20324Y25936D01*
X20459Y26139D01*
X53142D01*
X53425Y25639D01*
X53298Y25000D01*
X53452Y24228D01*
X53889Y23574D01*
X54543Y23137D01*
X55315Y22983D01*
X56087Y23137D01*
X56741Y23574D01*
X56885Y23789D01*
X70384D01*
X77561Y16612D01*
X77511Y16358D01*
X77664Y15586D01*
X78101Y14932D01*
X78756Y14495D01*
X79528Y14341D01*
X80299Y14495D01*
X80954Y14932D01*
X81391Y15586D01*
X81544Y16358D01*
X81391Y17130D01*
X80954Y17784D01*
X80299Y18221D01*
X79528Y18375D01*
X79273Y18324D01*
X71742Y25856D01*
X71349Y26118D01*
X70886Y26210D01*
X70886Y26210D01*
X61691D01*
X61484Y26711D01*
X61875Y27101D01*
X61875Y27101D01*
X62136Y27492D01*
X62228Y27953D01*
Y28248D01*
X63386D01*
Y33071D01*
X63484D01*
Y34776D01*
X64077Y35173D01*
X64514Y35827D01*
X64668Y36599D01*
X64514Y37370D01*
X64077Y38025D01*
X63484Y38421D01*
Y38583D01*
X62815D01*
X62651Y38615D01*
D02*
G37*
G36*
X15945Y33996D02*
X4528D01*
Y29469D01*
X8430D01*
Y28445D01*
X7677D01*
Y22933D01*
X12795D01*
Y23833D01*
X13472D01*
X13630Y23727D01*
X14402Y23574D01*
X15174Y23727D01*
X15828Y24164D01*
X16265Y24819D01*
X16419Y25591D01*
X16265Y26362D01*
X15828Y27017D01*
X15174Y27454D01*
X14402Y27607D01*
X13630Y27454D01*
X13619Y27446D01*
X12795D01*
Y28445D01*
X12043D01*
Y29469D01*
X15945D01*
Y33996D01*
D02*
G37*
G36*
X100787Y26426D02*
X100016Y26273D01*
X99361Y25835D01*
X98924Y25181D01*
X98771Y24409D01*
X98924Y23638D01*
X99361Y22983D01*
X100016Y22546D01*
X100787Y22393D01*
X101559Y22546D01*
X102213Y22983D01*
X102651Y23638D01*
X102804Y24409D01*
X102651Y25181D01*
X102213Y25835D01*
X101559Y26273D01*
X100787Y26426D01*
D02*
G37*
G36*
X38523Y18375D02*
X37751Y18221D01*
X37097Y17784D01*
X36660Y17130D01*
X36507Y16358D01*
X36660Y15586D01*
X37097Y14932D01*
X37751Y14495D01*
X38523Y14341D01*
X39295Y14495D01*
X39949Y14932D01*
X40387Y15586D01*
X40540Y16358D01*
X40387Y17130D01*
X39949Y17784D01*
X39295Y18221D01*
X38523Y18375D01*
D02*
G37*
G36*
X9843Y15974D02*
X8646Y15857D01*
X7496Y15508D01*
X6436Y14941D01*
X5507Y14178D01*
X4744Y13249D01*
X4177Y12189D01*
X3828Y11039D01*
X3711Y9843D01*
X3828Y8646D01*
X4177Y7496D01*
X4744Y6436D01*
X5507Y5507D01*
X6436Y4744D01*
X7496Y4177D01*
X8646Y3828D01*
X9843Y3711D01*
X11039Y3828D01*
X12189Y4177D01*
X13249Y4744D01*
X14178Y5507D01*
X14941Y6436D01*
X15508Y7496D01*
X15856Y8646D01*
X15974Y9843D01*
X15856Y11039D01*
X15508Y12189D01*
X14941Y13249D01*
X14178Y14178D01*
X13249Y14941D01*
X12189Y15508D01*
X11039Y15857D01*
X9843Y15974D01*
D02*
G37*
G36*
X57007Y5367D02*
X56975D01*
Y5334D01*
X56942D01*
Y5367D01*
X56909D01*
Y5334D01*
X56876D01*
Y5367D01*
X56843D01*
Y5334D01*
X56811D01*
Y5367D01*
X56778D01*
Y5334D01*
X56745D01*
Y5367D01*
X56712D01*
Y5334D01*
X56679D01*
Y5367D01*
X56646D01*
Y5334D01*
X56614D01*
Y5367D01*
X56581D01*
Y5334D01*
X56548D01*
Y5367D01*
X56515D01*
Y5334D01*
X56482D01*
Y5367D01*
X56450D01*
Y5334D01*
X56417D01*
Y5367D01*
X56384D01*
Y5334D01*
X56351D01*
Y5367D01*
X56121D01*
Y5334D01*
X56088D01*
Y5367D01*
X55071D01*
Y5334D01*
X55169D01*
Y5302D01*
X55202D01*
Y5269D01*
X55235D01*
Y5302D01*
X55268D01*
Y5269D01*
X55366D01*
Y5236D01*
X55399D01*
Y5269D01*
X55432D01*
Y5236D01*
X55465D01*
Y5203D01*
X55497D01*
Y5236D01*
X55530D01*
Y5203D01*
X55694D01*
Y5170D01*
X55793D01*
Y5138D01*
X55826D01*
Y5170D01*
X55858D01*
Y5138D01*
X56023D01*
Y5105D01*
X56055D01*
Y5072D01*
X56088D01*
Y5105D01*
X56121D01*
Y5072D01*
X56154D01*
Y5105D01*
X56187D01*
Y5072D01*
X56351D01*
Y5039D01*
X56384D01*
Y5072D01*
X56417D01*
Y5039D01*
X56450D01*
Y5072D01*
X56482D01*
Y5039D01*
X56515D01*
Y5006D01*
X56548D01*
Y5039D01*
X56581D01*
Y5006D01*
X56614D01*
Y5039D01*
X56646D01*
Y5006D01*
X56679D01*
Y5039D01*
X56712D01*
Y5006D01*
X56942D01*
Y4973D01*
X56975D01*
Y5006D01*
X57007D01*
Y4973D01*
X57040D01*
Y5006D01*
X57073D01*
Y4973D01*
X57106D01*
Y5006D01*
X57139D01*
Y4973D01*
X57172D01*
Y5006D01*
X57205D01*
Y4973D01*
X57303D01*
Y5006D01*
X57336D01*
Y4973D01*
X57369D01*
Y4941D01*
X57402D01*
Y4973D01*
X57500D01*
Y4941D01*
X57533D01*
Y4973D01*
X57566D01*
Y5006D01*
X57598D01*
Y4973D01*
X57631D01*
Y4941D01*
X57664D01*
Y4973D01*
X57697D01*
Y5006D01*
X57730D01*
Y4973D01*
X57828D01*
Y5006D01*
X57861D01*
Y4973D01*
X57894D01*
Y5006D01*
X57927D01*
Y5039D01*
X57828D01*
Y5072D01*
X57795D01*
Y5105D01*
X57697D01*
Y5138D01*
X57664D01*
Y5170D01*
X57631D01*
Y5138D01*
X57598D01*
Y5170D01*
X57566D01*
Y5203D01*
X57533D01*
Y5170D01*
X57500D01*
Y5203D01*
X57467D01*
Y5236D01*
X57369D01*
Y5269D01*
X57336D01*
Y5236D01*
X57303D01*
Y5269D01*
X57270D01*
Y5302D01*
X57237D01*
Y5269D01*
X57205D01*
Y5302D01*
X57106D01*
Y5334D01*
X57073D01*
Y5302D01*
X57040D01*
Y5334D01*
X57007D01*
Y5367D01*
D02*
G37*
G36*
X55038D02*
X55005D01*
Y5334D01*
X55038D01*
Y5367D01*
D02*
G37*
G36*
X49063Y4908D02*
X48702D01*
Y4875D01*
X48669D01*
Y4908D01*
X48636D01*
Y4875D01*
X48603D01*
Y4842D01*
X48505D01*
Y4809D01*
X48472D01*
Y4776D01*
X48439D01*
Y4744D01*
X48406D01*
Y4711D01*
X48308D01*
Y4678D01*
X48341D01*
Y4645D01*
X48308D01*
Y4612D01*
X48275D01*
Y4579D01*
X48242D01*
Y4547D01*
Y4514D01*
Y4481D01*
X48210D01*
Y4448D01*
X48177D01*
Y4415D01*
X48210D01*
Y4382D01*
X48177D01*
Y4350D01*
Y4317D01*
Y4284D01*
Y4251D01*
Y4218D01*
X48144D01*
Y4185D01*
X48177D01*
Y4153D01*
X48144D01*
Y4120D01*
X48177D01*
Y4087D01*
X48144D01*
Y4054D01*
Y4021D01*
Y3988D01*
X48177D01*
Y3956D01*
X48144D01*
Y3923D01*
X48177D01*
Y3890D01*
Y3857D01*
Y3824D01*
Y3791D01*
Y3759D01*
X48210D01*
Y3726D01*
Y3693D01*
Y3660D01*
X48242D01*
Y3627D01*
Y3594D01*
Y3562D01*
X48275D01*
Y3529D01*
Y3496D01*
X48341D01*
Y3463D01*
X48308D01*
Y3430D01*
X48341D01*
Y3398D01*
X48374D01*
Y3365D01*
X48472D01*
Y3332D01*
Y3299D01*
X48538D01*
Y3266D01*
X48571D01*
Y3233D01*
X48603D01*
Y3266D01*
X48636D01*
Y3233D01*
X48735D01*
Y3201D01*
X48768D01*
Y3233D01*
X48800D01*
Y3201D01*
X48833D01*
Y3233D01*
X48866D01*
Y3201D01*
X48899D01*
Y3233D01*
X48932D01*
Y3201D01*
X48965D01*
Y3233D01*
X48997D01*
Y3201D01*
X49030D01*
Y3233D01*
X49063D01*
Y3266D01*
X49096D01*
Y3299D01*
X49063D01*
Y3332D01*
Y3365D01*
Y3398D01*
X49096D01*
Y3430D01*
X49063D01*
Y3463D01*
Y3496D01*
Y3529D01*
X49096D01*
Y3562D01*
X49063D01*
Y3594D01*
Y3627D01*
Y3660D01*
X49096D01*
Y3693D01*
X49063D01*
Y3726D01*
Y3759D01*
Y3791D01*
X49096D01*
Y3824D01*
X49063D01*
Y3857D01*
Y3890D01*
Y3923D01*
X49096D01*
Y3956D01*
X49063D01*
Y3988D01*
Y4021D01*
Y4054D01*
X49096D01*
Y4087D01*
X49063D01*
Y4120D01*
Y4153D01*
Y4185D01*
X49096D01*
Y4218D01*
X49063D01*
Y4251D01*
Y4284D01*
Y4317D01*
X49096D01*
Y4350D01*
X49063D01*
Y4382D01*
Y4415D01*
Y4448D01*
X49096D01*
Y4481D01*
X49063D01*
Y4514D01*
Y4547D01*
Y4579D01*
X49096D01*
Y4612D01*
X49063D01*
Y4645D01*
Y4678D01*
Y4711D01*
X49096D01*
Y4744D01*
X49063D01*
Y4776D01*
Y4809D01*
Y4842D01*
X49096D01*
Y4875D01*
X49063D01*
Y4908D01*
D02*
G37*
G36*
X46765Y4448D02*
X46732D01*
Y4415D01*
X46765D01*
Y4448D01*
D02*
G37*
G36*
X45780Y3726D02*
X45747D01*
Y3693D01*
X45780D01*
Y3726D01*
D02*
G37*
G36*
X30613D02*
X30581D01*
Y3693D01*
X30613D01*
Y3726D01*
D02*
G37*
%LPD*%
D11*
X129921Y51181D02*
X132508D01*
X125984Y55118D02*
X129921Y51181D01*
X123284Y37063D02*
Y59034D01*
X135649Y43977D02*
Y48040D01*
X132508Y51181D02*
X135649Y48040D01*
X135493Y38146D02*
Y43821D01*
X135649Y43977D01*
X111811Y14464D02*
X135493Y38146D01*
X85039Y63779D02*
Y66339D01*
X84842Y66535D02*
X85039Y66339D01*
X39129Y33716D02*
X46968Y41554D01*
X31205Y33716D02*
X39129D01*
X29301Y31811D02*
X31205Y33716D01*
X25512Y31811D02*
X29301D01*
X62598Y70472D02*
X63976Y69094D01*
Y59039D02*
Y69094D01*
X109252Y13865D02*
X125197Y29810D01*
X109252Y5906D02*
Y13865D01*
X91751Y13564D02*
X106991D01*
X89567Y15748D02*
X91751Y13564D01*
X106991D02*
X116772Y23344D01*
X61830Y54312D02*
X99194D01*
X59410Y56732D02*
X61830Y54312D01*
X39634Y56732D02*
X59410D01*
X125881Y26575D02*
X132874D01*
X113197Y13890D02*
X125881Y26575D01*
X113197Y4161D02*
Y13890D01*
X111811Y4735D02*
Y14464D01*
X125197Y29810D02*
Y46457D01*
X116772Y23344D02*
Y30551D01*
X111209Y2173D02*
X113197Y4161D01*
X110797Y3721D02*
X111811Y4735D01*
X89362Y2173D02*
X111209D01*
X85630Y5906D02*
X89362Y2173D01*
X103365Y3721D02*
X110797D01*
X101181Y5906D02*
X103365Y3721D01*
X125197Y46457D02*
X125984Y47244D01*
X116772Y30551D02*
X123284Y37063D01*
X116904Y53518D02*
X117145Y53277D01*
X18916Y27343D02*
X60414D01*
X18898Y27362D02*
X18916Y27343D01*
X60875Y30659D02*
X61024Y30511D01*
X25591Y51732D02*
Y55905D01*
X24016Y57480D02*
X25591Y55905D01*
X13984Y57480D02*
X24016D01*
X61024Y27953D02*
Y30511D01*
X60414Y27343D02*
X61024Y27953D01*
X51320Y30709D02*
X54823D01*
X50139Y29528D02*
X51320Y30709D01*
X64147Y41554D02*
X66929Y38772D01*
X46968Y41554D02*
X64147D01*
X25591Y41732D02*
X35172D01*
X39975Y46535D02*
X54078D01*
X35172Y41732D02*
X39975Y46535D01*
X38918Y48997D02*
X56061D01*
X36614Y46693D02*
X38918Y48997D01*
X25630Y46693D02*
X36614D01*
X54078Y46535D02*
X56061D01*
X56828Y45768D01*
X56061Y48997D02*
X57904Y47154D01*
X56988Y39272D02*
X57086Y39370D01*
X56988Y37205D02*
Y39272D01*
X55610Y35827D02*
X56988Y37205D01*
X56828Y45768D02*
X112758D01*
X57904Y47154D02*
X108560D01*
X112587Y51181D01*
X117145Y50155D02*
Y53277D01*
X112758Y45768D02*
X117145Y50155D01*
X38019Y55118D02*
X39634Y56732D01*
X37894Y55118D02*
X38019D01*
X60875Y30659D02*
X60925Y30709D01*
X112587Y51181D02*
X114961D01*
X99194Y54312D02*
X110236Y65354D01*
X116963D02*
X123284Y59034D01*
X110236Y65354D02*
X116963D01*
X12409Y55905D02*
X13984Y57480D01*
X12205Y55905D02*
X12409D01*
X126969Y66929D02*
X128937D01*
X133118Y45768D02*
X133366D01*
X132874Y46012D02*
X133118Y45768D01*
X132874Y46012D02*
Y46260D01*
X131890Y47244D02*
X132874Y46260D01*
X131890Y55118D02*
Y62992D01*
Y70866D01*
Y74410D01*
X128937Y59055D02*
X128937Y59055D01*
X126969Y59055D02*
X128937D01*
X125984Y67913D02*
X126969Y66929D01*
X125984Y67913D02*
Y70866D01*
Y60039D02*
X126969Y59055D01*
X125984Y60039D02*
Y62992D01*
X25591Y46732D02*
X25630Y46693D01*
X17628Y37097D02*
X25226D01*
X25591Y36732D01*
X60925Y30709D02*
Y35827D01*
D13*
X61697Y36599D02*
X62651D01*
X60925Y35827D02*
X61697Y36599D01*
D18*
X54823Y30709D02*
D03*
X60925D02*
D03*
D19*
X10236Y25689D02*
D03*
X4921D02*
D03*
X55610Y35827D02*
D03*
X60925D02*
D03*
D60*
X47039Y63849D02*
Y65039D01*
X44608Y61417D02*
X47039Y63849D01*
X46232Y65847D02*
X47039Y65039D01*
X45571Y65847D02*
X46232D01*
X26013Y61417D02*
X44608D01*
X44685Y66732D02*
X45571Y65847D01*
X44685Y66732D02*
Y66929D01*
X23622Y63808D02*
X26013Y61417D01*
X23622Y63808D02*
Y68985D01*
X86614Y74410D02*
X88386D01*
X79905Y81118D02*
X86614Y74410D01*
X72425Y81118D02*
X79905D01*
X60630Y92913D02*
X72425Y81118D01*
X47866Y92913D02*
X60630D01*
X44284Y89331D02*
X47866Y92913D01*
X44284Y87205D02*
Y89331D01*
X43209Y86398D02*
X43476D01*
X44284Y87205D01*
X41535Y80787D02*
X44685Y77638D01*
Y66929D02*
Y77638D01*
X41535Y82756D02*
Y84724D01*
Y80787D02*
Y82756D01*
Y84724D02*
X43209Y86398D01*
X88386Y74606D02*
Y82756D01*
X49417Y62864D02*
Y65039D01*
X45715Y59161D02*
X49417Y62864D01*
Y65039D02*
X50225Y65847D01*
X50886D02*
X51772Y66732D01*
X50225Y65847D02*
X50886D01*
X51772Y66732D02*
Y66929D01*
X23909Y59161D02*
X45715D01*
X15748Y67323D02*
X23909Y59161D01*
X48169Y89854D02*
X59342D01*
X46661Y88346D02*
X48169Y89854D01*
X46661Y87205D02*
Y88346D01*
X81299Y74410D02*
Y76362D01*
X78921Y78740D02*
X81299Y76362D01*
X70456Y78740D02*
X78921D01*
X95504Y74638D02*
Y82000D01*
X92215Y71349D02*
X95504Y74638D01*
X84163Y71349D02*
X92215D01*
X95504Y82000D02*
X96260Y82756D01*
X59342Y89854D02*
X70456Y78740D01*
X81299Y74213D02*
Y74410D01*
Y74213D02*
X84163Y71349D01*
X51772Y66929D02*
Y78159D01*
X49409Y80521D02*
Y82756D01*
X47470Y86398D02*
X49409Y84458D01*
X46661Y87205D02*
X47469Y86398D01*
X49409Y82756D02*
Y84458D01*
X47469Y86398D02*
X47470D01*
X49409Y80521D02*
X51772Y78159D01*
D61*
X14353Y25640D02*
X14402Y25591D01*
X10285Y25640D02*
X14353D01*
X10236Y25689D02*
X10285Y25640D01*
X10236Y25689D02*
Y31732D01*
X80709Y63849D02*
X80788Y63928D01*
X82432D01*
X84842Y66339D01*
Y66535D01*
X3937Y36732D02*
X10236D01*
Y41732D01*
D62*
X48228Y70866D02*
Y74803D01*
X5118Y25295D02*
Y25492D01*
Y21949D02*
Y25295D01*
X5413Y25591D01*
X4921Y25689D02*
X5118Y25492D01*
D64*
X121891Y37639D02*
Y56869D01*
X116556Y62205D02*
X121891Y56869D01*
X114961Y62205D02*
X116556D01*
X70886Y25000D02*
X79528Y16358D01*
X55315Y25000D02*
X70886D01*
X97638Y15748D02*
X107206D01*
X115380Y23921D01*
Y31128D01*
X113164Y24803D02*
Y35729D01*
X115380Y31128D02*
X121891Y37639D01*
X120493Y39435D02*
Y55447D01*
X116885Y35827D02*
X120493Y39435D01*
X115076Y55905D02*
X118057D01*
X119095Y54868D01*
Y41660D02*
Y54868D01*
X113164Y35729D02*
X119095Y41660D01*
X116885Y59055D02*
X120493Y55447D01*
X114601Y59055D02*
X116885D01*
X41329Y53634D02*
X43035Y55340D01*
X42126Y40157D02*
X44915Y42946D01*
X114049D01*
X41820Y44345D02*
X114424D01*
X39207Y41732D02*
X41820Y44345D01*
X38780Y41732D02*
X39207D01*
X57553Y50664D02*
X57981D01*
X58165Y53149D02*
X60600Y50714D01*
X55118Y53149D02*
X58165D01*
X43035Y55340D02*
X58697D01*
X114049Y42946D02*
X114961Y42035D01*
X60600Y50714D02*
X103221D01*
X58697Y55340D02*
X61320Y52716D01*
X57981Y50664D02*
X59328Y49316D01*
X61320Y52716D02*
X101607D01*
X114424Y44345D02*
X116535Y46457D01*
X112441Y55905D02*
X115075D01*
X115076Y55905D01*
X105851Y49316D02*
X112441Y55905D01*
X103221Y50714D02*
X111561Y59055D01*
X114601D01*
X111095Y62205D02*
X114961D01*
X101607Y52716D02*
X111095Y62205D01*
X59328Y49316D02*
X105851D01*
D68*
X9843Y108268D02*
D03*
X127953D02*
D03*
Y9843D02*
D03*
X9843D02*
D03*
D69*
X122047Y31299D02*
D03*
Y86811D02*
D03*
D70*
X133465Y44882D02*
D03*
X66296Y35791D02*
D03*
X14402Y25591D02*
D03*
X62651Y36599D02*
D03*
X98819Y63287D02*
D03*
Y58661D02*
D03*
X35039Y36220D02*
D03*
Y31126D02*
D03*
X88976Y24409D02*
D03*
X40157Y65354D02*
D03*
X59055Y82284D02*
D03*
X48228Y70866D02*
D03*
X62598Y70472D02*
D03*
X23622Y68985D02*
D03*
X13780Y62992D02*
D03*
X15748Y67323D02*
D03*
X80709Y63849D02*
D03*
X41329Y91535D02*
D03*
X83858Y89069D02*
D03*
X81102Y88976D02*
D03*
X87008Y89069D02*
D03*
X89567Y15748D02*
D03*
X97638D02*
D03*
X113164Y24803D02*
D03*
X132874Y26575D02*
D03*
X101181Y5906D02*
D03*
X116885Y35827D02*
D03*
X116904Y53518D02*
D03*
X18898Y27362D02*
D03*
X33858Y110236D02*
D03*
X100787Y24409D02*
D03*
X94882D02*
D03*
X79528Y16358D02*
D03*
X41329Y53634D02*
D03*
X17628Y37097D02*
D03*
X36614Y46693D02*
D03*
X54078Y46535D02*
D03*
X53937Y82677D02*
D03*
X29528Y94488D02*
D03*
X57086Y39370D02*
D03*
X57553Y50664D02*
D03*
X55118Y53149D02*
D03*
X32004Y12027D02*
D03*
X24449Y81693D02*
D03*
X36811Y86811D02*
D03*
X38523Y73827D02*
D03*
X35039D02*
D03*
X31201D02*
D03*
X36923Y83268D02*
D03*
Y79724D02*
D03*
X29607Y76598D02*
D03*
X40192D02*
D03*
X36614D02*
D03*
X32987D02*
D03*
X38523Y16358D02*
D03*
X114601Y59055D02*
D03*
X116963Y65354D02*
D03*
X118315Y68718D02*
D03*
X118389Y71759D02*
D03*
X115537Y68718D02*
D03*
X114961Y51181D02*
D03*
X115076Y55905D02*
D03*
X116535Y46457D02*
D03*
X114961Y62205D02*
D03*
X63976Y59039D02*
D03*
X52165Y24606D02*
D03*
X55315Y25000D02*
D03*
X50139Y29528D02*
D03*
X37894Y55118D02*
D03*
X68504Y113779D02*
D03*
X46850Y104331D02*
D03*
X56299D02*
D03*
Y112992D02*
D03*
X47047Y112598D02*
D03*
X94095Y94685D02*
D03*
X100787Y108465D02*
D03*
X94095Y103150D02*
D03*
X66929Y38772D02*
D03*
X115537Y71850D02*
D03*
Y75134D02*
D03*
Y77984D02*
D03*
X128937Y66929D02*
D03*
X104331Y79724D02*
D03*
X105315Y82677D02*
D03*
X102036D02*
D03*
X105315Y85630D02*
D03*
X102036D02*
D03*
X130137Y91535D02*
D03*
X102362Y98879D02*
D03*
X107283Y94488D02*
D03*
X127953Y41339D02*
D03*
Y35433D02*
D03*
Y38386D02*
D03*
X131890Y74410D02*
D03*
X128937Y59055D02*
D03*
X109252Y5906D02*
D03*
X85630D02*
D03*
X29528Y24016D02*
D03*
X114961Y42035D02*
D03*
X42126Y40157D02*
D03*
X38780Y41732D02*
D03*
X12205Y55905D02*
D03*
X9843Y81496D02*
D03*
X40157Y70866D02*
D03*
D71*
X85039Y63779D02*
D03*
D72*
X84842Y66535D02*
D03*
X81299Y74410D02*
D03*
X88386D02*
D03*
X48228Y74803D02*
D03*
X44685Y66929D02*
D03*
X51772D02*
D03*
D73*
X125984Y47244D02*
D03*
X131890D02*
D03*
X125984Y55118D02*
D03*
X131890D02*
D03*
X125984Y62992D02*
D03*
X131890D02*
D03*
X125984Y70866D02*
D03*
X131890D02*
D03*
D74*
X10236Y31732D02*
D03*
D75*
X25591D02*
D03*
Y36732D02*
D03*
X10236D02*
D03*
X25591Y41732D02*
D03*
X10236D02*
D03*
X25591Y46732D02*
D03*
X10236D02*
D03*
X25591Y51732D02*
D03*
X10236D02*
D03*
D76*
X27362Y104724D02*
D03*
X63583D02*
D03*
X74213D02*
D03*
X110433D02*
D03*
D77*
X49409Y82756D02*
D03*
X96260D02*
D03*
D78*
X41535D02*
D03*
X88386D02*
D03*
M02*
