G04*
G04 #@! TF.GenerationSoftware,Altium Limited,Altium Designer,19.0.10 (269)*
G04*
G04 Layer_Color=16711935*
%FSLAX25Y25*%
%MOIN*%
G70*
G01*
G75*
%ADD39R,0.04147X0.04147*%
%ADD40R,0.04143X0.04537*%
%ADD58C,0.11430*%
%ADD59C,0.03556*%
%ADD79R,0.03950X0.04343*%
%ADD80R,0.03950X0.03950*%
%ADD81R,0.10642X0.03753*%
G04:AMPARAMS|DCode=82|XSize=37.53mil|YSize=106.42mil|CornerRadius=11.38mil|HoleSize=0mil|Usage=FLASHONLY|Rotation=90.000|XOffset=0mil|YOffset=0mil|HoleType=Round|Shape=RoundedRectangle|*
%AMROUNDEDRECTD82*
21,1,0.03753,0.08366,0,0,90.0*
21,1,0.01476,0.10642,0,0,90.0*
1,1,0.02276,0.04183,0.00738*
1,1,0.02276,0.04183,-0.00738*
1,1,0.02276,-0.04183,-0.00738*
1,1,0.02276,-0.04183,0.00738*
%
%ADD82ROUNDEDRECTD82*%
G04:AMPARAMS|DCode=83|XSize=86.74mil|YSize=173.35mil|CornerRadius=23.68mil|HoleSize=0mil|Usage=FLASHONLY|Rotation=0.000|XOffset=0mil|YOffset=0mil|HoleType=Round|Shape=RoundedRectangle|*
%AMROUNDEDRECTD83*
21,1,0.08674,0.12598,0,0,0.0*
21,1,0.03937,0.17335,0,0,0.0*
1,1,0.04737,0.01968,-0.06299*
1,1,0.04737,-0.01968,-0.06299*
1,1,0.04737,-0.01968,0.06299*
1,1,0.04737,0.01968,0.06299*
%
%ADD83ROUNDEDRECTD83*%
G04:AMPARAMS|DCode=84|XSize=55.24mil|YSize=94.61mil|CornerRadius=15.81mil|HoleSize=0mil|Usage=FLASHONLY|Rotation=0.000|XOffset=0mil|YOffset=0mil|HoleType=Round|Shape=RoundedRectangle|*
%AMROUNDEDRECTD84*
21,1,0.05524,0.06299,0,0,0.0*
21,1,0.02362,0.09461,0,0,0.0*
1,1,0.03162,0.01181,-0.03150*
1,1,0.03162,-0.01181,-0.03150*
1,1,0.03162,-0.01181,0.03150*
1,1,0.03162,0.01181,0.03150*
%
%ADD84ROUNDEDRECTD84*%
%ADD85R,0.05524X0.09461*%
G36*
X38492Y10291D02*
X38525D01*
Y10259D01*
X38558D01*
Y10291D01*
X38656D01*
Y10259D01*
X38689D01*
Y10291D01*
X38722D01*
Y10259D01*
X38755D01*
Y10291D01*
X38788D01*
Y10259D01*
X38821D01*
Y10291D01*
X38853D01*
Y10259D01*
X39215D01*
Y10226D01*
X39247D01*
Y10259D01*
X39280D01*
Y10226D01*
X39313D01*
Y10259D01*
X39346D01*
Y10226D01*
X39444D01*
Y10259D01*
X39477D01*
Y10226D01*
X39510D01*
Y10193D01*
X39543D01*
Y10226D01*
X39576D01*
Y10193D01*
X39608D01*
Y10226D01*
X39641D01*
Y10193D01*
X39674D01*
Y10226D01*
X39707D01*
Y10193D01*
X39937D01*
Y10160D01*
X39970D01*
Y10193D01*
X40002D01*
Y10160D01*
X40035D01*
Y10193D01*
X40068D01*
Y10160D01*
X40167D01*
Y10127D01*
X40199D01*
Y10160D01*
X40232D01*
Y10127D01*
X40265D01*
Y10160D01*
X40298D01*
Y10127D01*
X40528D01*
Y10095D01*
X40560D01*
Y10127D01*
X40593D01*
Y10095D01*
X40692D01*
Y10062D01*
X40725D01*
Y10095D01*
X40758D01*
Y10062D01*
X40987D01*
Y10029D01*
X41020D01*
Y10062D01*
X41053D01*
Y10029D01*
X41151D01*
Y9996D01*
X41184D01*
Y10029D01*
X41217D01*
Y9996D01*
X41381D01*
Y9963D01*
X41414D01*
Y9996D01*
X41447D01*
Y9963D01*
X41480D01*
Y9930D01*
X41513D01*
Y9963D01*
X41545D01*
Y9930D01*
X41775D01*
Y9898D01*
X41874D01*
Y9865D01*
X41906D01*
Y9898D01*
X41939D01*
Y9865D01*
X42103D01*
Y9832D01*
X42136D01*
Y9799D01*
X42169D01*
Y9832D01*
X42202D01*
Y9799D01*
X42235D01*
Y9832D01*
X42268D01*
Y9799D01*
X42432D01*
Y9766D01*
X42465D01*
Y9734D01*
X42497D01*
Y9766D01*
X42530D01*
Y9734D01*
X42694D01*
Y9701D01*
X42727D01*
Y9734D01*
X42760D01*
Y9701D01*
X42793D01*
Y9668D01*
X42826D01*
Y9701D01*
X42858D01*
Y9668D01*
X42957D01*
Y9635D01*
X42990D01*
Y9668D01*
X43023D01*
Y9635D01*
X43121D01*
Y9602D01*
X43220D01*
Y9569D01*
X43252D01*
Y9602D01*
X43285D01*
Y9569D01*
X43318D01*
Y9537D01*
X43351D01*
Y9569D01*
X43384D01*
Y9537D01*
X43482D01*
Y9504D01*
X43581D01*
Y9471D01*
X43679D01*
Y9438D01*
X43712D01*
Y9471D01*
X43745D01*
Y9438D01*
X43778D01*
Y9405D01*
X43810D01*
Y9438D01*
X43843D01*
Y9405D01*
X43942D01*
Y9372D01*
X43975D01*
Y9405D01*
X44008D01*
Y9372D01*
X44040D01*
Y9340D01*
X44139D01*
Y9307D01*
X44172D01*
Y9340D01*
X44205D01*
Y9307D01*
X44237D01*
Y9274D01*
X44336D01*
Y9241D01*
X44434D01*
Y9208D01*
X44533D01*
Y9175D01*
X44566D01*
Y9143D01*
X44664D01*
Y9110D01*
X44697D01*
Y9143D01*
X44730D01*
Y9110D01*
X44763D01*
Y9077D01*
X44861D01*
Y9044D01*
X44894D01*
Y9011D01*
X44927D01*
Y9044D01*
X44960D01*
Y9011D01*
X45058D01*
Y8978D01*
X45091D01*
Y8946D01*
X45124D01*
Y8978D01*
X45156D01*
Y8946D01*
X45189D01*
Y8913D01*
X45222D01*
Y8946D01*
X45255D01*
Y8913D01*
X45288D01*
Y8880D01*
X45386D01*
Y8847D01*
X45419D01*
Y8880D01*
X45452D01*
Y8847D01*
X45485D01*
Y8814D01*
X45583D01*
Y8781D01*
X45616D01*
Y8749D01*
X45715D01*
Y8716D01*
X45813D01*
Y8683D01*
X45911D01*
Y8650D01*
X45944D01*
Y8617D01*
X45977D01*
Y8650D01*
X46010D01*
Y8617D01*
X46108D01*
Y8584D01*
X46141D01*
Y8552D01*
X46240D01*
Y8519D01*
X46273D01*
Y8486D01*
X46371D01*
Y8453D01*
X46404D01*
Y8486D01*
X46437D01*
Y8453D01*
X46470D01*
Y8420D01*
X46568D01*
Y8388D01*
X46601D01*
Y8355D01*
X46634D01*
Y8388D01*
X46667D01*
Y8355D01*
X46765D01*
Y8322D01*
X46798D01*
Y8289D01*
X46896D01*
Y8256D01*
X46929D01*
Y8223D01*
X47028D01*
Y8190D01*
X47060D01*
Y8223D01*
X47093D01*
Y8190D01*
X47126D01*
Y8158D01*
X47225D01*
Y8125D01*
X47258D01*
Y8092D01*
X47356D01*
Y8059D01*
X47389D01*
Y8092D01*
X47422D01*
Y8059D01*
X47455D01*
Y8026D01*
X47553D01*
Y7993D01*
X47586D01*
Y7961D01*
X47684D01*
Y7928D01*
X47717D01*
Y7895D01*
X47750D01*
Y7928D01*
X47783D01*
Y7895D01*
X47816D01*
Y7862D01*
X47848D01*
Y7895D01*
X47881D01*
Y7862D01*
X47914D01*
Y7829D01*
X48013D01*
Y7797D01*
X48045D01*
Y7764D01*
X48144D01*
Y7731D01*
X48177D01*
Y7698D01*
X48275D01*
Y7665D01*
X48308D01*
Y7632D01*
X48341D01*
Y7665D01*
X48374D01*
Y7632D01*
X48406D01*
Y7600D01*
X48439D01*
Y7567D01*
X48472D01*
Y7600D01*
X48505D01*
Y7567D01*
X48603D01*
Y7534D01*
X48636D01*
Y7501D01*
X48669D01*
Y7468D01*
X48768D01*
Y7435D01*
X48866D01*
Y7403D01*
X48899D01*
Y7370D01*
X48932D01*
Y7337D01*
X48965D01*
Y7304D01*
X48997D01*
Y7337D01*
X49030D01*
Y7304D01*
X49063D01*
Y7271D01*
X49096D01*
Y7304D01*
X49129D01*
Y7271D01*
Y7238D01*
X49194D01*
Y7206D01*
X49227D01*
Y7173D01*
X49326D01*
Y7140D01*
X49358D01*
Y7107D01*
X49457D01*
Y7074D01*
X49490D01*
Y7041D01*
X49588D01*
Y7009D01*
X49621D01*
Y6976D01*
X49720D01*
Y6943D01*
X49753D01*
Y6910D01*
X49785D01*
Y6877D01*
X49884D01*
Y6844D01*
X49917D01*
Y6812D01*
X49949D01*
Y6844D01*
X49982D01*
Y6812D01*
Y6779D01*
X50639D01*
Y6746D01*
X50672D01*
Y6779D01*
X50704D01*
Y6746D01*
X50737D01*
Y6779D01*
X50770D01*
Y6746D01*
X50803D01*
Y6779D01*
X50836D01*
Y6746D01*
X50869D01*
Y6779D01*
X50902D01*
Y6746D01*
X50934D01*
Y6779D01*
X50967D01*
Y6746D01*
X51000D01*
Y6713D01*
X51033D01*
Y6746D01*
X51066D01*
Y6713D01*
X51098D01*
Y6746D01*
X51131D01*
Y6713D01*
X51164D01*
Y6746D01*
X51197D01*
Y6713D01*
X51558D01*
Y6680D01*
X51591D01*
Y6713D01*
X51624D01*
Y6680D01*
X51657D01*
Y6713D01*
X51689D01*
Y6680D01*
X51722D01*
Y6713D01*
X51755D01*
Y6680D01*
X51854D01*
Y6648D01*
X51886D01*
Y6680D01*
X51919D01*
Y6648D01*
X51952D01*
Y6680D01*
X51985D01*
Y6648D01*
X52018D01*
Y6680D01*
X52051D01*
Y6648D01*
X52346D01*
Y6615D01*
X52379D01*
Y6648D01*
X52412D01*
Y6615D01*
X52444D01*
Y6648D01*
X52477D01*
Y6615D01*
X52510D01*
Y6648D01*
X52543D01*
Y6615D01*
X52576D01*
Y6582D01*
X52609D01*
Y6615D01*
X52641D01*
Y6582D01*
X52674D01*
Y6615D01*
X52707D01*
Y6582D01*
X52740D01*
Y6615D01*
X52773D01*
Y6582D01*
X53003D01*
Y6549D01*
X53035D01*
Y6582D01*
X53068D01*
Y6549D01*
X53101D01*
Y6582D01*
X53134D01*
Y6549D01*
X53232D01*
Y6516D01*
X53265D01*
Y6549D01*
X53298D01*
Y6516D01*
X53331D01*
Y6549D01*
X53364D01*
Y6516D01*
X53593D01*
Y6483D01*
X53626D01*
Y6516D01*
X53659D01*
Y6483D01*
X53692D01*
Y6516D01*
X53725D01*
Y6483D01*
X53758D01*
Y6451D01*
X53790D01*
Y6483D01*
X53823D01*
Y6451D01*
X54053D01*
Y6418D01*
X54086D01*
Y6451D01*
X54119D01*
Y6418D01*
X54151D01*
Y6385D01*
X54184D01*
Y6418D01*
X54217D01*
Y6385D01*
X54250D01*
Y6418D01*
X54283D01*
Y6385D01*
X54381D01*
Y6352D01*
X54414D01*
Y6385D01*
X54447D01*
Y6352D01*
X54480D01*
Y6385D01*
X54513D01*
Y6352D01*
X54545D01*
Y6319D01*
X54578D01*
Y6352D01*
X54611D01*
Y6319D01*
X54775D01*
Y6286D01*
X54808D01*
Y6319D01*
X54841D01*
Y6286D01*
X54874D01*
Y6254D01*
X54906D01*
Y6286D01*
X54939D01*
Y6254D01*
X55103D01*
Y6221D01*
X55136D01*
Y6254D01*
X55169D01*
Y6221D01*
X55202D01*
Y6188D01*
X55235D01*
Y6221D01*
X55268D01*
Y6188D01*
X55432D01*
Y6155D01*
X55465D01*
Y6188D01*
X55497D01*
Y6155D01*
X55530D01*
Y6122D01*
X55563D01*
Y6155D01*
X55596D01*
Y6122D01*
X55694D01*
Y6089D01*
X55727D01*
Y6122D01*
X55760D01*
Y6089D01*
X55793D01*
Y6122D01*
X55826D01*
Y6089D01*
X55858D01*
Y6057D01*
X55891D01*
Y6089D01*
X55924D01*
Y6057D01*
X56023D01*
Y6024D01*
X56055D01*
Y6057D01*
X56088D01*
Y6024D01*
X56187D01*
Y5991D01*
X56351D01*
Y5958D01*
X56384D01*
Y5991D01*
X56417D01*
Y5958D01*
X56450D01*
Y5925D01*
X56614D01*
Y5892D01*
X56646D01*
Y5925D01*
X56679D01*
Y5892D01*
X56712D01*
Y5860D01*
X56811D01*
Y5827D01*
X56843D01*
Y5860D01*
X56876D01*
Y5827D01*
X56909D01*
Y5794D01*
X56942D01*
Y5827D01*
X56975D01*
Y5794D01*
X57073D01*
Y5761D01*
X57106D01*
Y5728D01*
X57270D01*
Y5696D01*
X57303D01*
Y5663D01*
X57402D01*
Y5630D01*
X57500D01*
Y5597D01*
X57533D01*
Y5564D01*
X57566D01*
Y5597D01*
X57598D01*
Y5564D01*
X57631D01*
Y5531D01*
X57730D01*
Y5499D01*
X57763D01*
Y5466D01*
X57861D01*
Y5433D01*
X57894D01*
Y5400D01*
X57992D01*
Y5367D01*
X58025D01*
Y5334D01*
X58124D01*
Y5302D01*
X58157D01*
Y5269D01*
X58189D01*
Y5236D01*
X58255D01*
Y5203D01*
X58321D01*
Y5170D01*
X58354D01*
Y5138D01*
X58452D01*
Y5105D01*
X58485D01*
Y5072D01*
X58518D01*
Y5039D01*
X58551D01*
Y5006D01*
X58583D01*
Y4973D01*
X58616D01*
Y4941D01*
X58715D01*
Y4908D01*
Y4875D01*
X58780D01*
Y4842D01*
Y4809D01*
X58846D01*
Y4776D01*
X58879D01*
Y4744D01*
X58912D01*
Y4711D01*
X58944D01*
Y4678D01*
X58977D01*
Y4645D01*
Y4612D01*
X59043D01*
Y4579D01*
Y4547D01*
X59109D01*
Y4514D01*
Y4481D01*
X59141D01*
Y4448D01*
Y4415D01*
X59174D01*
Y4382D01*
X59207D01*
Y4350D01*
X59240D01*
Y4317D01*
X59273D01*
Y4284D01*
Y4251D01*
Y4218D01*
X59306D01*
Y4185D01*
X59338D01*
Y4153D01*
X59371D01*
Y4120D01*
Y4087D01*
X59404D01*
Y4054D01*
Y4021D01*
X59437D01*
Y3988D01*
X59470D01*
Y3956D01*
Y3923D01*
Y3890D01*
X59503D01*
Y3857D01*
Y3824D01*
Y3791D01*
X59535D01*
Y3759D01*
Y3726D01*
Y3693D01*
X59568D01*
Y3660D01*
X59535D01*
Y3627D01*
X59568D01*
Y3594D01*
Y3562D01*
Y3529D01*
Y3496D01*
Y3463D01*
X59601D01*
Y3430D01*
X59568D01*
Y3398D01*
X59601D01*
Y3365D01*
Y3332D01*
Y3299D01*
Y3266D01*
Y3233D01*
X59634D01*
Y3201D01*
X59601D01*
Y3168D01*
Y3135D01*
Y3102D01*
X59634D01*
Y3069D01*
X59601D01*
Y3036D01*
X59634D01*
Y3004D01*
X59601D01*
Y2971D01*
X59634D01*
Y2938D01*
X59601D01*
Y2905D01*
Y2872D01*
Y2840D01*
Y2807D01*
Y2774D01*
X59568D01*
Y2741D01*
X59601D01*
Y2708D01*
X59568D01*
Y2675D01*
X59601D01*
Y2643D01*
X59568D01*
Y2610D01*
Y2577D01*
Y2544D01*
Y2511D01*
Y2478D01*
X59535D01*
Y2446D01*
X59503D01*
Y2478D01*
Y2511D01*
Y2544D01*
X59470D01*
Y2577D01*
X59503D01*
Y2610D01*
X59470D01*
Y2643D01*
X59503D01*
Y2675D01*
X59470D01*
Y2708D01*
X59503D01*
Y2741D01*
X59470D01*
Y2774D01*
Y2807D01*
Y2840D01*
X59437D01*
Y2872D01*
Y2905D01*
Y2938D01*
X59404D01*
Y2971D01*
X59437D01*
Y3004D01*
X59404D01*
Y3036D01*
X59437D01*
Y3069D01*
X59404D01*
Y3102D01*
X59371D01*
Y3135D01*
Y3168D01*
Y3201D01*
X59338D01*
Y3233D01*
X59371D01*
Y3266D01*
X59338D01*
Y3299D01*
X59306D01*
Y3332D01*
Y3365D01*
Y3398D01*
X59273D01*
Y3430D01*
X59306D01*
Y3463D01*
X59273D01*
Y3496D01*
X59240D01*
Y3529D01*
Y3562D01*
Y3594D01*
X59207D01*
Y3627D01*
Y3660D01*
X59174D01*
Y3693D01*
Y3726D01*
X59141D01*
Y3759D01*
X59109D01*
Y3791D01*
Y3824D01*
Y3857D01*
X59076D01*
Y3890D01*
X59043D01*
Y3923D01*
X59010D01*
Y3956D01*
X59043D01*
Y3988D01*
X58977D01*
Y4021D01*
Y4054D01*
X58944D01*
Y4087D01*
X58912D01*
Y4120D01*
X58879D01*
Y4153D01*
X58846D01*
Y4185D01*
X58813D01*
Y4218D01*
Y4251D01*
X58780D01*
Y4284D01*
Y4317D01*
X58715D01*
Y4350D01*
Y4382D01*
X58649D01*
Y4415D01*
Y4448D01*
X58583D01*
Y4481D01*
X58551D01*
Y4514D01*
X58485D01*
Y4547D01*
X58452D01*
Y4579D01*
X58419D01*
Y4612D01*
X58386D01*
Y4645D01*
X58354D01*
Y4678D01*
X58321D01*
Y4711D01*
X58288D01*
Y4744D01*
X58255D01*
Y4776D01*
X58091D01*
Y4744D01*
X58058D01*
Y4776D01*
X58025D01*
Y4744D01*
X57992D01*
Y4776D01*
X57960D01*
Y4744D01*
X57861D01*
Y4711D01*
X57828D01*
Y4744D01*
X57795D01*
Y4711D01*
X57763D01*
Y4744D01*
X57730D01*
Y4711D01*
X57697D01*
Y4744D01*
X57664D01*
Y4711D01*
X57631D01*
Y4744D01*
X57598D01*
Y4711D01*
X57237D01*
Y4744D01*
X57205D01*
Y4711D01*
X57172D01*
Y4744D01*
X57139D01*
Y4711D01*
X57106D01*
Y4744D01*
X57073D01*
Y4711D01*
X57040D01*
Y4744D01*
X57007D01*
Y4711D01*
X56975D01*
Y4744D01*
X56942D01*
Y4711D01*
X56909D01*
Y4744D01*
X56811D01*
Y4776D01*
X56778D01*
Y4744D01*
X56745D01*
Y4776D01*
X56712D01*
Y4744D01*
X56679D01*
Y4776D01*
X56450D01*
Y4809D01*
X56417D01*
Y4776D01*
X56384D01*
Y4809D01*
X56351D01*
Y4842D01*
X56318D01*
Y4809D01*
X56285D01*
Y4842D01*
X56121D01*
Y4875D01*
X56088D01*
Y4842D01*
X56055D01*
Y4875D01*
X56023D01*
Y4908D01*
X55990D01*
Y4875D01*
X55957D01*
Y4908D01*
X55858D01*
Y4941D01*
X55826D01*
Y4908D01*
X55793D01*
Y4941D01*
X55760D01*
Y4973D01*
X55727D01*
Y4941D01*
X55694D01*
Y4973D01*
X55596D01*
Y5006D01*
X55497D01*
Y5039D01*
X55399D01*
Y5072D01*
X55300D01*
Y5105D01*
X55202D01*
Y5138D01*
X55103D01*
Y5170D01*
X55005D01*
Y5203D01*
X54972D01*
Y5236D01*
X54874D01*
Y5269D01*
X54841D01*
Y5302D01*
X54742D01*
Y5334D01*
X54644D01*
Y5367D01*
X54611D01*
Y5400D01*
X54578D01*
Y5367D01*
X54545D01*
Y5400D01*
X54513D01*
Y5433D01*
X54414D01*
Y5466D01*
X54513D01*
Y5499D01*
X54545D01*
Y5466D01*
X54578D01*
Y5499D01*
X54611D01*
Y5466D01*
X54644D01*
Y5499D01*
X54677D01*
Y5466D01*
X54710D01*
Y5499D01*
X54742D01*
Y5466D01*
X54775D01*
Y5499D01*
X54874D01*
Y5466D01*
X54906D01*
Y5499D01*
X54939D01*
Y5531D01*
X54972D01*
Y5499D01*
X55071D01*
Y5531D01*
X55103D01*
Y5499D01*
X55136D01*
Y5531D01*
X55169D01*
Y5499D01*
X55202D01*
Y5531D01*
X55235D01*
Y5499D01*
X55268D01*
Y5531D01*
X55300D01*
Y5499D01*
X55333D01*
Y5531D01*
X55366D01*
Y5499D01*
X55399D01*
Y5531D01*
X55497D01*
Y5499D01*
X55530D01*
Y5531D01*
X56285D01*
Y5564D01*
X56252D01*
Y5597D01*
X56220D01*
Y5564D01*
X56187D01*
Y5597D01*
X56088D01*
Y5630D01*
X55990D01*
Y5663D01*
X55957D01*
Y5630D01*
X55924D01*
Y5663D01*
X55891D01*
Y5696D01*
X55858D01*
Y5663D01*
X55826D01*
Y5696D01*
X55727D01*
Y5728D01*
X55694D01*
Y5696D01*
X55662D01*
Y5728D01*
X55629D01*
Y5761D01*
X55596D01*
Y5728D01*
X55563D01*
Y5761D01*
X55399D01*
Y5794D01*
X55366D01*
Y5827D01*
X55333D01*
Y5794D01*
X55300D01*
Y5827D01*
X55268D01*
Y5794D01*
X55235D01*
Y5827D01*
X55136D01*
Y5860D01*
X55103D01*
Y5827D01*
X55071D01*
Y5860D01*
X55038D01*
Y5892D01*
X55005D01*
Y5860D01*
X54972D01*
Y5892D01*
X54808D01*
Y5925D01*
X54710D01*
Y5958D01*
X54677D01*
Y5925D01*
X54644D01*
Y5958D01*
X54480D01*
Y5991D01*
X54447D01*
Y5958D01*
X54414D01*
Y5991D01*
X54381D01*
Y6024D01*
X54348D01*
Y5991D01*
X54316D01*
Y6024D01*
X54151D01*
Y6057D01*
X54119D01*
Y6024D01*
X54086D01*
Y6057D01*
X54053D01*
Y6024D01*
X54020D01*
Y6057D01*
X53922D01*
Y6089D01*
X53692D01*
Y6122D01*
X53659D01*
Y6089D01*
X53626D01*
Y6122D01*
X53593D01*
Y6155D01*
X53561D01*
Y6122D01*
X53593D01*
Y6089D01*
X53561D01*
Y6122D01*
X53528D01*
Y6155D01*
X53495D01*
Y6122D01*
X53462D01*
Y6155D01*
X53232D01*
Y6188D01*
X53199D01*
Y6155D01*
X53167D01*
Y6188D01*
X53134D01*
Y6155D01*
X53101D01*
Y6188D01*
X53003D01*
Y6221D01*
X52970D01*
Y6188D01*
X52937D01*
Y6221D01*
X52707D01*
Y6254D01*
X52674D01*
Y6221D01*
X52641D01*
Y6254D01*
X52609D01*
Y6221D01*
X52576D01*
Y6254D01*
X52543D01*
Y6286D01*
X52510D01*
Y6254D01*
X52543D01*
Y6221D01*
X52510D01*
Y6254D01*
X52477D01*
Y6286D01*
X52444D01*
Y6254D01*
X52412D01*
Y6286D01*
X52116D01*
Y6319D01*
X52083D01*
Y6286D01*
X52051D01*
Y6319D01*
X52018D01*
Y6286D01*
X51985D01*
Y6319D01*
X51952D01*
Y6286D01*
X51919D01*
Y6319D01*
X51821D01*
Y6352D01*
X51788D01*
Y6319D01*
X51755D01*
Y6352D01*
X51722D01*
Y6319D01*
X51689D01*
Y6352D01*
X51263D01*
Y6385D01*
X51230D01*
Y6352D01*
X51197D01*
Y6385D01*
X51098D01*
Y6418D01*
X51066D01*
Y6385D01*
X51098D01*
Y6352D01*
X51066D01*
Y6385D01*
X51033D01*
Y6418D01*
X51000D01*
Y6385D01*
X50967D01*
Y6418D01*
X50934D01*
Y6385D01*
X50902D01*
Y6418D01*
X50869D01*
Y6385D01*
X50836D01*
Y6418D01*
X50278D01*
Y6451D01*
X50245D01*
Y6418D01*
X50212D01*
Y6451D01*
X50179D01*
Y6418D01*
X50146D01*
Y6451D01*
X50114D01*
Y6418D01*
X50081D01*
Y6451D01*
X50048D01*
Y6418D01*
X50015D01*
Y6451D01*
X49982D01*
Y6418D01*
X49949D01*
Y6451D01*
X49917D01*
Y6418D01*
X49884D01*
Y6451D01*
X49851D01*
Y6418D01*
X49818D01*
Y6451D01*
X49588D01*
Y6483D01*
X49556D01*
Y6451D01*
X49457D01*
Y6483D01*
X49424D01*
Y6451D01*
X49326D01*
Y6483D01*
X49293D01*
Y6451D01*
X49260D01*
Y6483D01*
X49227D01*
Y6451D01*
X49194D01*
Y6483D01*
X49161D01*
Y6451D01*
X49129D01*
Y6483D01*
X49096D01*
Y6451D01*
X49063D01*
Y6483D01*
X49030D01*
Y6451D01*
X48997D01*
Y6483D01*
X48965D01*
Y6451D01*
X48932D01*
Y6483D01*
X48899D01*
Y6451D01*
X48866D01*
Y6483D01*
X48833D01*
Y6451D01*
X48800D01*
Y6483D01*
X48768D01*
Y6451D01*
X48735D01*
Y6483D01*
X48702D01*
Y6451D01*
X48669D01*
Y6483D01*
X48636D01*
Y6451D01*
X48603D01*
Y6483D01*
X48571D01*
Y6451D01*
X48538D01*
Y6483D01*
X48505D01*
Y6451D01*
X48472D01*
Y6483D01*
X48439D01*
Y6451D01*
X48406D01*
Y6483D01*
X48308D01*
Y6451D01*
X48275D01*
Y6483D01*
X48177D01*
Y6451D01*
X48144D01*
Y6483D01*
X48045D01*
Y6451D01*
X48013D01*
Y6483D01*
X47914D01*
Y6451D01*
X47881D01*
Y6483D01*
X47783D01*
Y6451D01*
X47750D01*
Y6483D01*
X47651D01*
Y6451D01*
X47619D01*
Y6483D01*
X47586D01*
Y6451D01*
X47553D01*
Y6483D01*
X47520D01*
Y6451D01*
X47487D01*
Y6483D01*
X47455D01*
Y6451D01*
X47422D01*
Y6483D01*
X47389D01*
Y6451D01*
X47356D01*
Y6483D01*
X47323D01*
Y6451D01*
X47290D01*
Y6483D01*
X47258D01*
Y6451D01*
X47225D01*
Y6483D01*
X47192D01*
Y6451D01*
X47159D01*
Y6483D01*
X47126D01*
Y6451D01*
X47093D01*
Y6483D01*
X47060D01*
Y6451D01*
X47028D01*
Y6483D01*
X46995D01*
Y6451D01*
X46962D01*
Y6483D01*
X46929D01*
Y6451D01*
X46896D01*
Y6483D01*
X46864D01*
Y6451D01*
X46831D01*
Y6483D01*
X46798D01*
Y6451D01*
X46765D01*
Y6483D01*
X46732D01*
Y6451D01*
X46699D01*
Y6483D01*
X46667D01*
Y6451D01*
X46634D01*
Y6483D01*
X46601D01*
Y6451D01*
X46568D01*
Y6483D01*
X46535D01*
Y6451D01*
X46437D01*
Y6483D01*
X46404D01*
Y6451D01*
X46306D01*
Y6483D01*
X46273D01*
Y6451D01*
X46174D01*
Y6483D01*
X46141D01*
Y6451D01*
X46043D01*
Y6483D01*
X46010D01*
Y6451D01*
X45911D01*
Y6418D01*
X45879D01*
Y6451D01*
X45649D01*
Y6418D01*
X45616D01*
Y6451D01*
X45518D01*
Y6418D01*
X45485D01*
Y6451D01*
X45452D01*
Y6418D01*
X45419D01*
Y6451D01*
X45386D01*
Y6418D01*
X45353D01*
Y6451D01*
X45255D01*
Y6418D01*
X45222D01*
Y6451D01*
X45189D01*
Y6418D01*
X45156D01*
Y6451D01*
X45124D01*
Y6418D01*
X45091D01*
Y6451D01*
X45058D01*
Y6418D01*
X45025D01*
Y6451D01*
X44992D01*
Y6418D01*
X44960D01*
Y6451D01*
X44927D01*
Y6418D01*
X44894D01*
Y6451D01*
X44861D01*
Y6418D01*
X44828D01*
Y6451D01*
X44795D01*
Y6418D01*
X44763D01*
Y6451D01*
X44730D01*
Y6418D01*
X44697D01*
Y6451D01*
X44664D01*
Y6418D01*
X44631D01*
Y6451D01*
X44598D01*
Y6418D01*
X44566D01*
Y6451D01*
X44533D01*
Y6418D01*
X44500D01*
Y6451D01*
X44467D01*
Y6418D01*
X44434D01*
Y6451D01*
X44401D01*
Y6418D01*
X44369D01*
Y6451D01*
X44336D01*
Y6418D01*
X44303D01*
Y6451D01*
X44270D01*
Y6418D01*
X44237D01*
Y6451D01*
X44205D01*
Y6418D01*
X44172D01*
Y6451D01*
X44139D01*
Y6418D01*
X44106D01*
Y6451D01*
X44073D01*
Y6418D01*
X44040D01*
Y6451D01*
X44008D01*
Y6418D01*
X43975D01*
Y6451D01*
X43942D01*
Y6418D01*
X43909D01*
Y6451D01*
X43876D01*
Y6418D01*
X43843D01*
Y6451D01*
X43810D01*
Y6418D01*
X43712D01*
Y6451D01*
X43679D01*
Y6418D01*
X43449D01*
Y6451D01*
X43417D01*
Y6418D01*
X43187D01*
Y6451D01*
X43154D01*
Y6418D01*
X38460D01*
Y6451D01*
X38427D01*
Y6418D01*
X38197D01*
Y6451D01*
X38164D01*
Y6418D01*
X38000D01*
Y6451D01*
X37967D01*
Y6418D01*
X37934D01*
Y6451D01*
X37901D01*
Y6418D01*
X37869D01*
Y6451D01*
X37836D01*
Y6418D01*
X37803D01*
Y6451D01*
X37770D01*
Y6418D01*
X37737D01*
Y6451D01*
X37704D01*
Y6418D01*
X37672D01*
Y6451D01*
X37639D01*
Y6418D01*
X37606D01*
Y6451D01*
X37573D01*
Y6418D01*
X37540D01*
Y6451D01*
X37508D01*
Y6418D01*
X37475D01*
Y6451D01*
X37442D01*
Y6418D01*
X37409D01*
Y6451D01*
X37376D01*
Y6418D01*
X37343D01*
Y6451D01*
X37310D01*
Y6418D01*
X37278D01*
Y6451D01*
X37245D01*
Y6418D01*
X37212D01*
Y6451D01*
X37179D01*
Y6418D01*
X37146D01*
Y6451D01*
X37113D01*
Y6418D01*
X37081D01*
Y6451D01*
X37048D01*
Y6418D01*
X37015D01*
Y6451D01*
X36982D01*
Y6418D01*
X36949D01*
Y6451D01*
X36917D01*
Y6418D01*
X36884D01*
Y6451D01*
X36851D01*
Y6418D01*
X36818D01*
Y6451D01*
X36785D01*
Y6418D01*
X36752D01*
Y6451D01*
X36720D01*
Y6418D01*
X36687D01*
Y6451D01*
X36654D01*
Y6418D01*
X36621D01*
Y6451D01*
X36588D01*
Y6418D01*
X36555D01*
Y6451D01*
X36523D01*
Y6418D01*
X36490D01*
Y6451D01*
X36457D01*
Y6418D01*
X36424D01*
Y6451D01*
X36391D01*
Y6418D01*
X36358D01*
Y6451D01*
X36194D01*
Y6418D01*
X36162D01*
Y6451D01*
X36063D01*
Y6483D01*
X36030D01*
Y6451D01*
X35932D01*
Y6483D01*
X35899D01*
Y6451D01*
X35866D01*
Y6483D01*
X35833D01*
Y6451D01*
X35800D01*
Y6483D01*
X35768D01*
Y6451D01*
X35735D01*
Y6483D01*
X35702D01*
Y6451D01*
X35669D01*
Y6483D01*
X35636D01*
Y6451D01*
X35603D01*
Y6483D01*
X35571D01*
Y6451D01*
X35538D01*
Y6483D01*
X35505D01*
Y6451D01*
X35472D01*
Y6483D01*
X35439D01*
Y6451D01*
X35407D01*
Y6483D01*
X35308D01*
Y6451D01*
X35275D01*
Y6483D01*
X34586D01*
Y6516D01*
X34553D01*
Y6483D01*
X34520D01*
Y6516D01*
X34487D01*
Y6483D01*
X34454D01*
Y6516D01*
X34422D01*
Y6483D01*
X34389D01*
Y6516D01*
X34356D01*
Y6483D01*
X34323D01*
Y6516D01*
X34290D01*
Y6483D01*
X34258D01*
Y6516D01*
X34159D01*
Y6549D01*
X34126D01*
Y6516D01*
X34159D01*
Y6483D01*
X34126D01*
Y6516D01*
X34093D01*
Y6549D01*
X34060D01*
Y6516D01*
X34028D01*
Y6549D01*
X33995D01*
Y6516D01*
X33962D01*
Y6549D01*
X33929D01*
Y6516D01*
X33896D01*
Y6549D01*
X33404D01*
Y6582D01*
X33371D01*
Y6549D01*
X33338D01*
Y6582D01*
X33305D01*
Y6549D01*
X33273D01*
Y6582D01*
X33240D01*
Y6549D01*
X33207D01*
Y6582D01*
X33174D01*
Y6549D01*
X33141D01*
Y6582D01*
X33043D01*
Y6615D01*
X33010D01*
Y6582D01*
X32912D01*
Y6615D01*
X32879D01*
Y6582D01*
X32846D01*
Y6615D01*
X32813D01*
Y6582D01*
X32780D01*
Y6615D01*
X32353D01*
Y6648D01*
X32321D01*
Y6615D01*
X32288D01*
Y6648D01*
X32255D01*
Y6615D01*
X32222D01*
Y6648D01*
X32189D01*
Y6615D01*
X32157D01*
Y6648D01*
X32058D01*
Y6680D01*
X32025D01*
Y6648D01*
X31992D01*
Y6680D01*
X31960D01*
Y6648D01*
X31927D01*
Y6680D01*
X31894D01*
Y6648D01*
X31861D01*
Y6680D01*
X31828D01*
Y6648D01*
X31795D01*
Y6680D01*
X31434D01*
Y6713D01*
X31401D01*
Y6680D01*
X31369D01*
Y6713D01*
X31336D01*
Y6680D01*
X31303D01*
Y6713D01*
X31270D01*
Y6680D01*
X31237D01*
Y6713D01*
X31204D01*
Y6680D01*
X31172D01*
Y6713D01*
X31073D01*
Y6746D01*
X31040D01*
Y6713D01*
X31008D01*
Y6746D01*
X30975D01*
Y6713D01*
X30942D01*
Y6746D01*
X30909D01*
Y6713D01*
X30876D01*
Y6746D01*
X30515D01*
Y6779D01*
X31270D01*
Y6746D01*
X31303D01*
Y6779D01*
X31336D01*
Y6746D01*
X31369D01*
Y6779D01*
X31401D01*
Y6746D01*
X31434D01*
Y6779D01*
X31467D01*
Y6746D01*
X31500D01*
Y6779D01*
X31533D01*
Y6746D01*
X31566D01*
Y6779D01*
X31598D01*
Y6746D01*
X31631D01*
Y6779D01*
X31664D01*
Y6746D01*
X31697D01*
Y6779D01*
X31730D01*
Y6746D01*
X31762D01*
Y6779D01*
X31795D01*
Y6746D01*
X31894D01*
Y6779D01*
X31927D01*
Y6746D01*
X32025D01*
Y6779D01*
X32058D01*
Y6746D01*
X32157D01*
Y6779D01*
X32189D01*
Y6746D01*
X32288D01*
Y6779D01*
X32321D01*
Y6746D01*
X32419D01*
Y6779D01*
X32452D01*
Y6746D01*
X32550D01*
Y6779D01*
X32583D01*
Y6746D01*
X32616D01*
Y6713D01*
X32649D01*
Y6746D01*
X32747D01*
Y6713D01*
X32780D01*
Y6746D01*
X32879D01*
Y6713D01*
X32912D01*
Y6746D01*
X32944D01*
Y6713D01*
X32977D01*
Y6746D01*
X33010D01*
Y6713D01*
X33043D01*
Y6746D01*
X33141D01*
Y6713D01*
X33174D01*
Y6746D01*
X33273D01*
Y6713D01*
X33305D01*
Y6746D01*
X33404D01*
Y6713D01*
X33437D01*
Y6746D01*
X33535D01*
Y6713D01*
X33568D01*
Y6746D01*
X33601D01*
Y6713D01*
X33634D01*
Y6746D01*
X33667D01*
Y6713D01*
X33699D01*
Y6746D01*
X33732D01*
Y6713D01*
X33765D01*
Y6746D01*
X33798D01*
Y6713D01*
X33831D01*
Y6746D01*
X33863D01*
Y6713D01*
X33896D01*
Y6746D01*
X33929D01*
Y6713D01*
X33962D01*
Y6746D01*
X33995D01*
Y6713D01*
X34028D01*
Y6746D01*
X34060D01*
Y6713D01*
X34093D01*
Y6746D01*
X34126D01*
Y6713D01*
X34159D01*
Y6746D01*
X34192D01*
Y6713D01*
X34225D01*
Y6746D01*
X34258D01*
Y6713D01*
X34290D01*
Y6746D01*
X34323D01*
Y6713D01*
X34356D01*
Y6746D01*
X34454D01*
Y6713D01*
X34487D01*
Y6746D01*
X34520D01*
Y6779D01*
X34553D01*
Y6746D01*
X34651D01*
Y6779D01*
X34684D01*
Y6746D01*
X34783D01*
Y6779D01*
X34816D01*
Y6746D01*
X34848D01*
Y6779D01*
X34881D01*
Y6746D01*
X34914D01*
Y6779D01*
X34947D01*
Y6746D01*
X34980D01*
Y6779D01*
X35013D01*
Y6746D01*
X35045D01*
Y6779D01*
X35078D01*
Y6746D01*
X35111D01*
Y6779D01*
X35144D01*
Y6746D01*
X35177D01*
Y6779D01*
X35210D01*
Y6746D01*
X35242D01*
Y6779D01*
X35275D01*
Y6746D01*
X35308D01*
Y6779D01*
X35341D01*
Y6746D01*
X35374D01*
Y6779D01*
X35407D01*
Y6746D01*
X35439D01*
Y6779D01*
X35472D01*
Y6746D01*
X35505D01*
Y6779D01*
X35538D01*
Y6746D01*
X35571D01*
Y6779D01*
X35603D01*
Y6746D01*
X35636D01*
Y6779D01*
X35669D01*
Y6746D01*
X35702D01*
Y6779D01*
X35735D01*
Y6746D01*
X35768D01*
Y6779D01*
X35800D01*
Y6746D01*
X35833D01*
Y6779D01*
X35866D01*
Y6746D01*
X35899D01*
Y6779D01*
X35932D01*
Y6746D01*
X35965D01*
Y6779D01*
X35997D01*
Y6746D01*
X36030D01*
Y6779D01*
X36063D01*
Y6746D01*
X36096D01*
Y6779D01*
X36129D01*
Y6746D01*
X36162D01*
Y6779D01*
X36194D01*
Y6746D01*
X36227D01*
Y6779D01*
X36260D01*
Y6746D01*
X36293D01*
Y6779D01*
X36326D01*
Y6746D01*
X36358D01*
Y6779D01*
X36391D01*
Y6746D01*
X36424D01*
Y6779D01*
X36457D01*
Y6746D01*
X36490D01*
Y6779D01*
X36523D01*
Y6746D01*
X36555D01*
Y6779D01*
X36588D01*
Y6746D01*
X36621D01*
Y6779D01*
X36654D01*
Y6746D01*
X36687D01*
Y6779D01*
X36720D01*
Y6746D01*
X36752D01*
Y6779D01*
X36785D01*
Y6746D01*
X36818D01*
Y6779D01*
X36851D01*
Y6746D01*
X36884D01*
Y6779D01*
X36917D01*
Y6746D01*
X36949D01*
Y6779D01*
X36982D01*
Y6746D01*
X37015D01*
Y6779D01*
X37048D01*
Y6746D01*
X37081D01*
Y6779D01*
X37113D01*
Y6746D01*
X37146D01*
Y6779D01*
X37179D01*
Y6746D01*
X37212D01*
Y6779D01*
X37245D01*
Y6746D01*
X37278D01*
Y6779D01*
X37310D01*
Y6746D01*
X37343D01*
Y6779D01*
X37376D01*
Y6746D01*
X37409D01*
Y6779D01*
X37442D01*
Y6746D01*
X37475D01*
Y6779D01*
X37508D01*
Y6746D01*
X37540D01*
Y6779D01*
X37573D01*
Y6746D01*
X37606D01*
Y6779D01*
X37639D01*
Y6746D01*
X37672D01*
Y6779D01*
X37704D01*
Y6746D01*
X37737D01*
Y6779D01*
X37770D01*
Y6746D01*
X37803D01*
Y6779D01*
X37836D01*
Y6746D01*
X37869D01*
Y6779D01*
X37901D01*
Y6746D01*
X37934D01*
Y6779D01*
X37967D01*
Y6746D01*
X38000D01*
Y6779D01*
X38033D01*
Y6746D01*
X38066D01*
Y6779D01*
X38098D01*
Y6746D01*
X38131D01*
Y6779D01*
X38164D01*
Y6746D01*
X38197D01*
Y6779D01*
X38230D01*
Y6746D01*
X38263D01*
Y6779D01*
X38295D01*
Y6746D01*
X38328D01*
Y6779D01*
X38361D01*
Y6746D01*
X38394D01*
Y6779D01*
X38427D01*
Y6746D01*
X38460D01*
Y6779D01*
X38492D01*
Y6746D01*
X38525D01*
Y6779D01*
X38558D01*
Y6746D01*
X38591D01*
Y6779D01*
X38624D01*
Y6746D01*
X38656D01*
Y6779D01*
X38689D01*
Y6746D01*
X38722D01*
Y6779D01*
X38755D01*
Y6746D01*
X38788D01*
Y6779D01*
X38821D01*
Y6746D01*
X38853D01*
Y6779D01*
X38886D01*
Y6746D01*
X38919D01*
Y6779D01*
X38952D01*
Y6746D01*
X38985D01*
Y6779D01*
X39018D01*
Y6746D01*
X39050D01*
Y6779D01*
X39083D01*
Y6746D01*
X39116D01*
Y6779D01*
X39149D01*
Y6746D01*
X39182D01*
Y6779D01*
X39215D01*
Y6746D01*
X39247D01*
Y6779D01*
X39280D01*
Y6746D01*
X39313D01*
Y6779D01*
X39346D01*
Y6746D01*
X39379D01*
Y6779D01*
X39412D01*
Y6746D01*
X39444D01*
Y6779D01*
X39477D01*
Y6746D01*
X39510D01*
Y6779D01*
X39543D01*
Y6746D01*
X39576D01*
Y6779D01*
X39608D01*
Y6746D01*
X39641D01*
Y6779D01*
X39674D01*
Y6746D01*
X39707D01*
Y6779D01*
X39740D01*
Y6746D01*
X39773D01*
Y6779D01*
X39805D01*
Y6746D01*
X39838D01*
Y6779D01*
X39871D01*
Y6746D01*
X39904D01*
Y6779D01*
X39937D01*
Y6746D01*
X39970D01*
Y6779D01*
X40002D01*
Y6746D01*
X40035D01*
Y6779D01*
X40068D01*
Y6746D01*
X40101D01*
Y6779D01*
X40134D01*
Y6746D01*
X40167D01*
Y6779D01*
X40199D01*
Y6746D01*
X40232D01*
Y6779D01*
X40265D01*
Y6746D01*
X40298D01*
Y6779D01*
X40331D01*
Y6746D01*
X40429D01*
Y6779D01*
X40462D01*
Y6746D01*
X40560D01*
Y6779D01*
X40593D01*
Y6746D01*
X40692D01*
Y6779D01*
X40725D01*
Y6746D01*
X40823D01*
Y6779D01*
X40856D01*
Y6746D01*
X40955D01*
Y6779D01*
X40987D01*
Y6746D01*
X41086D01*
Y6779D01*
X41119D01*
Y6746D01*
X41217D01*
Y6779D01*
X41250D01*
Y6746D01*
X41348D01*
Y6779D01*
X41381D01*
Y6746D01*
X41480D01*
Y6779D01*
X41513D01*
Y6746D01*
X41611D01*
Y6779D01*
X41644D01*
Y6746D01*
X41742D01*
Y6779D01*
X41775D01*
Y6746D01*
X41874D01*
Y6779D01*
X41906D01*
Y6746D01*
X41939D01*
Y6779D01*
X41972D01*
Y6746D01*
X42005D01*
Y6779D01*
X42038D01*
Y6746D01*
X42071D01*
Y6779D01*
X42103D01*
Y6746D01*
X42136D01*
Y6779D01*
X42169D01*
Y6746D01*
X42202D01*
Y6779D01*
X42235D01*
Y6746D01*
X42268D01*
Y6779D01*
X42300D01*
Y6746D01*
X42333D01*
Y6779D01*
X42366D01*
Y6746D01*
X42399D01*
Y6779D01*
X42432D01*
Y6746D01*
X42465D01*
Y6779D01*
X42497D01*
Y6746D01*
X42530D01*
Y6779D01*
X42563D01*
Y6746D01*
X42596D01*
Y6779D01*
X42629D01*
Y6746D01*
X42661D01*
Y6779D01*
X42694D01*
Y6746D01*
X42727D01*
Y6779D01*
X42760D01*
Y6746D01*
X42793D01*
Y6779D01*
X42826D01*
Y6746D01*
X42858D01*
Y6779D01*
X42891D01*
Y6746D01*
X42924D01*
Y6779D01*
X42957D01*
Y6746D01*
X42990D01*
Y6779D01*
X43023D01*
Y6746D01*
X43055D01*
Y6779D01*
X43088D01*
Y6746D01*
X43121D01*
Y6779D01*
X43154D01*
Y6746D01*
X43187D01*
Y6779D01*
X43220D01*
Y6746D01*
X43252D01*
Y6779D01*
X43351D01*
Y6746D01*
X43384D01*
Y6779D01*
X43417D01*
Y6746D01*
X43449D01*
Y6779D01*
X43482D01*
Y6746D01*
X43515D01*
Y6779D01*
X43548D01*
Y6746D01*
X43581D01*
Y6779D01*
X43613D01*
Y6746D01*
X43646D01*
Y6779D01*
X43679D01*
Y6746D01*
X43712D01*
Y6779D01*
X45977D01*
Y6812D01*
X46010D01*
Y6779D01*
X46108D01*
Y6812D01*
X46141D01*
Y6779D01*
X46240D01*
Y6812D01*
X46273D01*
Y6779D01*
X46371D01*
Y6812D01*
X46404D01*
Y6779D01*
X46437D01*
Y6812D01*
X46470D01*
Y6779D01*
X46502D01*
Y6812D01*
X46535D01*
Y6779D01*
X46568D01*
Y6812D01*
X46601D01*
Y6779D01*
X46634D01*
Y6812D01*
X46667D01*
Y6779D01*
X46699D01*
Y6812D01*
X46732D01*
Y6779D01*
X46765D01*
Y6812D01*
X46798D01*
Y6779D01*
X46831D01*
Y6812D01*
X46864D01*
Y6779D01*
X46896D01*
Y6812D01*
X46929D01*
Y6779D01*
X46962D01*
Y6812D01*
X46995D01*
Y6779D01*
X47028D01*
Y6812D01*
X47060D01*
Y6779D01*
X47093D01*
Y6812D01*
X47126D01*
Y6779D01*
X47159D01*
Y6812D01*
X47192D01*
Y6779D01*
X47225D01*
Y6812D01*
X47258D01*
Y6779D01*
X47290D01*
Y6812D01*
X47323D01*
Y6779D01*
X47356D01*
Y6812D01*
X47389D01*
Y6779D01*
X47422D01*
Y6812D01*
X47455D01*
Y6779D01*
X47487D01*
Y6812D01*
X47520D01*
Y6779D01*
X47553D01*
Y6812D01*
X47651D01*
Y6779D01*
X47684D01*
Y6812D01*
X47717D01*
Y6779D01*
X47750D01*
Y6812D01*
X47783D01*
Y6779D01*
X47816D01*
Y6812D01*
X47914D01*
Y6779D01*
X47947D01*
Y6812D01*
X48045D01*
Y6779D01*
X48078D01*
Y6812D01*
X48111D01*
Y6844D01*
X48144D01*
Y6812D01*
X48242D01*
Y6844D01*
X48275D01*
Y6812D01*
X48308D01*
Y6779D01*
X48341D01*
Y6812D01*
X48374D01*
Y6844D01*
X48406D01*
Y6812D01*
X48571D01*
Y6779D01*
X48603D01*
Y6812D01*
X48636D01*
Y6844D01*
X48669D01*
Y6812D01*
X48702D01*
Y6779D01*
X48735D01*
Y6812D01*
X48768D01*
Y6844D01*
X48669D01*
Y6877D01*
X48636D01*
Y6910D01*
X48603D01*
Y6943D01*
X48505D01*
Y6976D01*
X48472D01*
Y7009D01*
X48374D01*
Y7041D01*
X48341D01*
Y7074D01*
X48242D01*
Y7107D01*
X48210D01*
Y7140D01*
X48111D01*
Y7173D01*
X48078D01*
Y7206D01*
X47980D01*
Y7238D01*
X47947D01*
Y7271D01*
X47848D01*
Y7304D01*
X47816D01*
Y7337D01*
X47717D01*
Y7370D01*
X47684D01*
Y7403D01*
X47586D01*
Y7435D01*
X47553D01*
Y7468D01*
X47455D01*
Y7501D01*
X47422D01*
Y7534D01*
X47323D01*
Y7567D01*
X47290D01*
Y7600D01*
X47192D01*
Y7632D01*
X47159D01*
Y7665D01*
X47060D01*
Y7698D01*
X47028D01*
Y7731D01*
X46929D01*
Y7764D01*
X46896D01*
Y7797D01*
X46864D01*
Y7764D01*
X46831D01*
Y7797D01*
X46798D01*
Y7829D01*
X46765D01*
Y7862D01*
X46667D01*
Y7895D01*
X46568D01*
Y7928D01*
X46535D01*
Y7961D01*
X46502D01*
Y7993D01*
X46470D01*
Y7961D01*
X46502D01*
Y7928D01*
X46470D01*
Y7961D01*
X46437D01*
Y7993D01*
X46338D01*
Y8026D01*
X46306D01*
Y8059D01*
X46207D01*
Y8092D01*
X46174D01*
Y8125D01*
X46076D01*
Y8158D01*
X46043D01*
Y8190D01*
X46010D01*
Y8158D01*
X45977D01*
Y8190D01*
X45879D01*
Y8223D01*
X45846D01*
Y8256D01*
X45747D01*
Y8289D01*
X45649D01*
Y8322D01*
X45616D01*
Y8355D01*
X45583D01*
Y8322D01*
X45551D01*
Y8355D01*
X45518D01*
Y8388D01*
X45419D01*
Y8420D01*
X45386D01*
Y8453D01*
X45353D01*
Y8420D01*
X45321D01*
Y8453D01*
X45222D01*
Y8486D01*
X45189D01*
Y8519D01*
X45091D01*
Y8552D01*
X44992D01*
Y8584D01*
X44894D01*
Y8617D01*
X44861D01*
Y8650D01*
X44763D01*
Y8683D01*
X44730D01*
Y8650D01*
X44697D01*
Y8683D01*
X44664D01*
Y8716D01*
X44566D01*
Y8749D01*
X44533D01*
Y8781D01*
X44500D01*
Y8749D01*
X44533D01*
Y8716D01*
X44500D01*
Y8749D01*
X44467D01*
Y8781D01*
X44369D01*
Y8814D01*
X44336D01*
Y8847D01*
X44303D01*
Y8814D01*
X44270D01*
Y8847D01*
X44172D01*
Y8880D01*
X44139D01*
Y8913D01*
X43975D01*
Y8946D01*
X43942D01*
Y8978D01*
X43778D01*
Y9011D01*
X43745D01*
Y9044D01*
X43581D01*
Y9077D01*
X43548D01*
Y9110D01*
X43515D01*
Y9077D01*
X43482D01*
Y9110D01*
X43384D01*
Y9143D01*
X43351D01*
Y9175D01*
X43187D01*
Y9208D01*
X43154D01*
Y9241D01*
X43121D01*
Y9208D01*
X43088D01*
Y9241D01*
X42990D01*
Y9274D01*
X42957D01*
Y9307D01*
X42924D01*
Y9274D01*
X42957D01*
Y9241D01*
X42924D01*
Y9274D01*
X42891D01*
Y9307D01*
X42793D01*
Y9340D01*
X42760D01*
Y9307D01*
X42727D01*
Y9340D01*
X42629D01*
Y9372D01*
X42530D01*
Y9405D01*
X42497D01*
Y9372D01*
X42465D01*
Y9405D01*
X42432D01*
Y9438D01*
X42268D01*
Y9471D01*
X42235D01*
Y9438D01*
X42202D01*
Y9471D01*
X42169D01*
Y9504D01*
X42136D01*
Y9471D01*
X42103D01*
Y9504D01*
X42005D01*
Y9537D01*
X41972D01*
Y9504D01*
X41939D01*
Y9537D01*
X41906D01*
Y9569D01*
X41874D01*
Y9537D01*
X41906D01*
Y9504D01*
X41874D01*
Y9537D01*
X41841D01*
Y9569D01*
X41677D01*
Y9602D01*
X41644D01*
Y9569D01*
X41611D01*
Y9602D01*
X41578D01*
Y9635D01*
X41545D01*
Y9602D01*
X41513D01*
Y9635D01*
X41480D01*
Y9602D01*
X41447D01*
Y9635D01*
X41283D01*
Y9668D01*
X41250D01*
Y9635D01*
X41217D01*
Y9668D01*
X41184D01*
Y9701D01*
X41151D01*
Y9668D01*
X41119D01*
Y9701D01*
X40955D01*
Y9734D01*
X40922D01*
Y9701D01*
X40889D01*
Y9734D01*
X40856D01*
Y9701D01*
X40823D01*
Y9734D01*
X40790D01*
Y9766D01*
X40758D01*
Y9734D01*
X40725D01*
Y9766D01*
X40692D01*
Y9734D01*
X40659D01*
Y9766D01*
X40429D01*
Y9799D01*
X40396D01*
Y9766D01*
X40363D01*
Y9799D01*
X40331D01*
Y9832D01*
X40298D01*
Y9799D01*
X40331D01*
Y9766D01*
X40298D01*
Y9799D01*
X40265D01*
Y9832D01*
X40232D01*
Y9799D01*
X40199D01*
Y9832D01*
X40167D01*
Y9799D01*
X40134D01*
Y9832D01*
X39904D01*
Y9865D01*
X39871D01*
Y9832D01*
X39838D01*
Y9865D01*
X39805D01*
Y9832D01*
X39773D01*
Y9865D01*
X39740D01*
Y9832D01*
X39707D01*
Y9865D01*
X39608D01*
Y9898D01*
X39576D01*
Y9865D01*
X39543D01*
Y9898D01*
X39510D01*
Y9865D01*
X39477D01*
Y9898D01*
X39182D01*
Y9930D01*
X39149D01*
Y9898D01*
X39116D01*
Y9930D01*
X39083D01*
Y9898D01*
X39050D01*
Y9930D01*
X39018D01*
Y9963D01*
X38985D01*
Y9930D01*
X39018D01*
Y9898D01*
X38985D01*
Y9930D01*
X38952D01*
Y9963D01*
X38919D01*
Y9930D01*
X38886D01*
Y9963D01*
X38853D01*
Y9930D01*
X38821D01*
Y9963D01*
X38788D01*
Y9930D01*
X38755D01*
Y9963D01*
X38328D01*
Y9996D01*
X38295D01*
Y9963D01*
X38263D01*
Y9996D01*
X38230D01*
Y9963D01*
X38197D01*
Y9996D01*
X38164D01*
Y9963D01*
X38131D01*
Y9996D01*
X38098D01*
Y9963D01*
X38066D01*
Y9996D01*
X38033D01*
Y9963D01*
X38000D01*
Y9996D01*
X37901D01*
Y9963D01*
X37869D01*
Y9996D01*
X37770D01*
Y10029D01*
X37737D01*
Y9996D01*
X37704D01*
Y10029D01*
X37672D01*
Y9996D01*
X37639D01*
Y10029D01*
X37606D01*
Y9996D01*
X37573D01*
Y10029D01*
X37540D01*
Y9996D01*
X37508D01*
Y10029D01*
X37475D01*
Y9996D01*
X37442D01*
Y10029D01*
X37409D01*
Y9996D01*
X37376D01*
Y10029D01*
X37343D01*
Y9996D01*
X37310D01*
Y10029D01*
X37278D01*
Y9996D01*
X37245D01*
Y10029D01*
X37146D01*
Y9996D01*
X37113D01*
Y10029D01*
X35965D01*
Y9996D01*
X35932D01*
Y10029D01*
X35833D01*
Y9996D01*
X35800D01*
Y10029D01*
X35768D01*
Y9996D01*
X35735D01*
Y10029D01*
X35702D01*
Y9996D01*
X35669D01*
Y10029D01*
X35636D01*
Y9996D01*
X35603D01*
Y10029D01*
X35571D01*
Y9996D01*
X35538D01*
Y10029D01*
X35505D01*
Y9996D01*
X35407D01*
Y10029D01*
X35374D01*
Y9996D01*
X35275D01*
Y9963D01*
X35242D01*
Y9996D01*
X35210D01*
Y9963D01*
X35177D01*
Y9996D01*
X35144D01*
Y9963D01*
X34783D01*
Y9930D01*
X34750D01*
Y9963D01*
X34717D01*
Y9930D01*
X34684D01*
Y9963D01*
X34651D01*
Y9930D01*
X34619D01*
Y9898D01*
X34586D01*
Y9930D01*
X34553D01*
Y9898D01*
X34520D01*
Y9930D01*
X34487D01*
Y9898D01*
X34258D01*
Y9865D01*
X34225D01*
Y9898D01*
X34192D01*
Y9865D01*
X34093D01*
Y9832D01*
X34060D01*
Y9865D01*
X34028D01*
Y9832D01*
X33995D01*
Y9865D01*
X33962D01*
Y9832D01*
X33798D01*
Y9799D01*
X33765D01*
Y9832D01*
X33732D01*
Y9799D01*
X33699D01*
Y9832D01*
X33667D01*
Y9799D01*
X33634D01*
Y9766D01*
X33601D01*
Y9799D01*
X33568D01*
Y9766D01*
X33535D01*
Y9799D01*
X33502D01*
Y9766D01*
X33338D01*
Y9734D01*
X33305D01*
Y9766D01*
X33273D01*
Y9734D01*
X33174D01*
Y9701D01*
X33141D01*
Y9734D01*
X33108D01*
Y9701D01*
X32944D01*
Y9668D01*
X32912D01*
Y9701D01*
X32879D01*
Y9668D01*
X32846D01*
Y9701D01*
X32813D01*
Y9668D01*
X32846D01*
Y9635D01*
X32813D01*
Y9668D01*
X32780D01*
Y9635D01*
X32747D01*
Y9668D01*
X32715D01*
Y9635D01*
X32550D01*
Y9602D01*
X32518D01*
Y9635D01*
X32485D01*
Y9602D01*
X32452D01*
Y9569D01*
X32419D01*
Y9602D01*
X32386D01*
Y9569D01*
X32222D01*
Y9537D01*
X32189D01*
Y9569D01*
X32157D01*
Y9537D01*
X32058D01*
Y9504D01*
X31894D01*
Y9471D01*
X31861D01*
Y9504D01*
X31828D01*
Y9471D01*
X31730D01*
Y9438D01*
X31566D01*
Y9405D01*
X31533D01*
Y9438D01*
X31500D01*
Y9405D01*
X31467D01*
Y9372D01*
X31434D01*
Y9405D01*
X31401D01*
Y9372D01*
X31237D01*
Y9340D01*
X31204D01*
Y9372D01*
X31172D01*
Y9340D01*
X31139D01*
Y9307D01*
X31106D01*
Y9340D01*
X31073D01*
Y9307D01*
X30909D01*
Y9274D01*
X30876D01*
Y9307D01*
X30843D01*
Y9274D01*
X30876D01*
Y9241D01*
X30843D01*
Y9274D01*
X30810D01*
Y9241D01*
X30778D01*
Y9274D01*
X30745D01*
Y9241D01*
X30646D01*
Y9208D01*
X30613D01*
Y9241D01*
X30581D01*
Y9208D01*
X30548D01*
Y9175D01*
X30515D01*
Y9208D01*
X30482D01*
Y9175D01*
X30318D01*
Y9143D01*
X30220D01*
Y9110D01*
X30055D01*
Y9077D01*
X30023D01*
Y9110D01*
X29990D01*
Y9077D01*
X29957D01*
Y9044D01*
X29924D01*
Y9077D01*
X29891D01*
Y9044D01*
X29727D01*
Y9011D01*
X29694D01*
Y8978D01*
X29662D01*
Y9011D01*
X29629D01*
Y8978D01*
X29530D01*
Y8946D01*
X29497D01*
Y8978D01*
X29465D01*
Y8946D01*
X29366D01*
Y8913D01*
X29202D01*
Y8880D01*
X29169D01*
Y8913D01*
X29136D01*
Y8880D01*
X29169D01*
Y8847D01*
X29136D01*
Y8880D01*
X29103D01*
Y8847D01*
X28939D01*
Y8814D01*
X28841D01*
Y8781D01*
X28677D01*
Y8749D01*
X28644D01*
Y8781D01*
X28611D01*
Y8749D01*
X28578D01*
Y8716D01*
X28545D01*
Y8749D01*
X28512D01*
Y8716D01*
X28414D01*
Y8683D01*
X28316D01*
Y8650D01*
X28151D01*
Y8617D01*
X28119D01*
Y8650D01*
X28086D01*
Y8617D01*
X28119D01*
Y8584D01*
X28086D01*
Y8617D01*
X28053D01*
Y8584D01*
X27889D01*
Y8552D01*
X27790D01*
Y8519D01*
X27626D01*
Y8486D01*
X27593D01*
Y8519D01*
X27560D01*
Y8486D01*
X27593D01*
Y8453D01*
X27560D01*
Y8486D01*
X27528D01*
Y8453D01*
X27429D01*
Y8420D01*
X27396D01*
Y8453D01*
X27363D01*
Y8420D01*
X27265D01*
Y8388D01*
X27167D01*
Y8355D01*
X27134D01*
Y8388D01*
X27101D01*
Y8355D01*
X27068D01*
Y8322D01*
X26904D01*
Y8289D01*
X26871D01*
Y8322D01*
X26838D01*
Y8289D01*
X26805D01*
Y8256D01*
X26773D01*
Y8289D01*
X26740D01*
Y8256D01*
X26641D01*
Y8223D01*
X26543D01*
Y8190D01*
X26379D01*
Y8158D01*
X26346D01*
Y8125D01*
X26313D01*
Y8158D01*
X26280D01*
Y8125D01*
X26182D01*
Y8092D01*
X26149D01*
Y8125D01*
X26116D01*
Y8092D01*
X26083D01*
Y8059D01*
X26050D01*
Y8092D01*
X26018D01*
Y8059D01*
X25919D01*
Y8026D01*
X25821D01*
Y7993D01*
X25722D01*
Y7961D01*
X25689D01*
Y7993D01*
X25656D01*
Y7961D01*
X25624D01*
Y7928D01*
X25460D01*
Y7895D01*
X25361D01*
Y7862D01*
X25262D01*
Y7829D01*
X25230D01*
Y7862D01*
X25197D01*
Y7829D01*
X25164D01*
Y7797D01*
X25131D01*
Y7829D01*
X25098D01*
Y7862D01*
X25131D01*
Y7895D01*
X25295D01*
Y7928D01*
X25328D01*
Y7961D01*
X25361D01*
Y7928D01*
X25394D01*
Y7961D01*
X25492D01*
Y7993D01*
X25525D01*
Y8026D01*
X25558D01*
Y7993D01*
X25591D01*
Y8026D01*
X25689D01*
Y8059D01*
X25788D01*
Y8092D01*
X25952D01*
Y8125D01*
X26050D01*
Y8158D01*
X26149D01*
Y8190D01*
X26182D01*
Y8158D01*
X26215D01*
Y8190D01*
X26247D01*
Y8223D01*
X26412D01*
Y8256D01*
X26444D01*
Y8289D01*
X26477D01*
Y8256D01*
X26510D01*
Y8289D01*
X26608D01*
Y8322D01*
X26641D01*
Y8355D01*
X26674D01*
Y8322D01*
X26707D01*
Y8355D01*
X26805D01*
Y8388D01*
X26838D01*
Y8355D01*
X26871D01*
Y8388D01*
X26904D01*
Y8420D01*
X26937D01*
Y8388D01*
X26970D01*
Y8420D01*
X27068D01*
Y8453D01*
X27167D01*
Y8486D01*
X27265D01*
Y8519D01*
X27298D01*
Y8486D01*
X27331D01*
Y8519D01*
X27363D01*
Y8552D01*
X27396D01*
Y8519D01*
X27429D01*
Y8552D01*
X27528D01*
Y8584D01*
X27560D01*
Y8617D01*
X27593D01*
Y8584D01*
X27626D01*
Y8617D01*
X27725D01*
Y8650D01*
X27757D01*
Y8617D01*
X27790D01*
Y8650D01*
X27823D01*
Y8683D01*
X27987D01*
Y8716D01*
X28086D01*
Y8749D01*
X28250D01*
Y8781D01*
X28283D01*
Y8814D01*
X28316D01*
Y8781D01*
X28348D01*
Y8814D01*
X28447D01*
Y8847D01*
X28545D01*
Y8880D01*
X28710D01*
Y8913D01*
X28742D01*
Y8880D01*
X28775D01*
Y8913D01*
X28808D01*
Y8946D01*
X28972D01*
Y8978D01*
X29005D01*
Y9011D01*
X29038D01*
Y8978D01*
X29071D01*
Y9011D01*
X29169D01*
Y9044D01*
X29202D01*
Y9011D01*
X29235D01*
Y9044D01*
X29268D01*
Y9077D01*
X29300D01*
Y9044D01*
X29333D01*
Y9077D01*
X29432D01*
Y9110D01*
X29465D01*
Y9077D01*
X29497D01*
Y9110D01*
X29530D01*
Y9143D01*
X29563D01*
Y9110D01*
X29596D01*
Y9143D01*
X29694D01*
Y9175D01*
X29727D01*
Y9143D01*
X29760D01*
Y9175D01*
X29793D01*
Y9208D01*
X29826D01*
Y9175D01*
X29858D01*
Y9208D01*
X29957D01*
Y9241D01*
X29990D01*
Y9208D01*
X30023D01*
Y9241D01*
X30055D01*
Y9274D01*
X30088D01*
Y9241D01*
X30121D01*
Y9274D01*
X30220D01*
Y9307D01*
X30252D01*
Y9274D01*
X30285D01*
Y9307D01*
X30384D01*
Y9340D01*
X30548D01*
Y9372D01*
X30581D01*
Y9405D01*
X30613D01*
Y9372D01*
X30646D01*
Y9405D01*
X30810D01*
Y9438D01*
X30843D01*
Y9405D01*
X30876D01*
Y9438D01*
X30909D01*
Y9471D01*
X30942D01*
Y9438D01*
X30975D01*
Y9471D01*
X31073D01*
Y9504D01*
X31106D01*
Y9471D01*
X31139D01*
Y9504D01*
X31172D01*
Y9537D01*
X31204D01*
Y9504D01*
X31237D01*
Y9537D01*
X31401D01*
Y9569D01*
X31434D01*
Y9602D01*
X31467D01*
Y9569D01*
X31500D01*
Y9602D01*
X31664D01*
Y9635D01*
X31697D01*
Y9602D01*
X31730D01*
Y9635D01*
X31762D01*
Y9668D01*
X31795D01*
Y9635D01*
X31828D01*
Y9668D01*
X31992D01*
Y9701D01*
X32025D01*
Y9668D01*
X32058D01*
Y9701D01*
X32091D01*
Y9734D01*
X32124D01*
Y9701D01*
X32157D01*
Y9734D01*
X32255D01*
Y9766D01*
X32288D01*
Y9734D01*
X32321D01*
Y9766D01*
X32353D01*
Y9734D01*
X32386D01*
Y9766D01*
X32419D01*
Y9799D01*
X32452D01*
Y9766D01*
X32485D01*
Y9799D01*
X32649D01*
Y9832D01*
X32682D01*
Y9799D01*
X32715D01*
Y9832D01*
X32747D01*
Y9865D01*
X32780D01*
Y9832D01*
X32813D01*
Y9865D01*
X32977D01*
Y9898D01*
X33010D01*
Y9865D01*
X33043D01*
Y9898D01*
X33076D01*
Y9930D01*
X33108D01*
Y9898D01*
X33141D01*
Y9930D01*
X33371D01*
Y9963D01*
X33470D01*
Y9996D01*
X33502D01*
Y9963D01*
X33535D01*
Y9996D01*
X33699D01*
Y10029D01*
X33732D01*
Y9996D01*
X33765D01*
Y10029D01*
X33798D01*
Y9996D01*
X33831D01*
Y10029D01*
X33863D01*
Y10062D01*
X33896D01*
Y10029D01*
X33929D01*
Y10062D01*
X34159D01*
Y10095D01*
X34192D01*
Y10062D01*
X34225D01*
Y10095D01*
X34258D01*
Y10062D01*
X34290D01*
Y10095D01*
X34323D01*
Y10127D01*
X34356D01*
Y10095D01*
X34389D01*
Y10127D01*
X34619D01*
Y10160D01*
X34651D01*
Y10127D01*
X34684D01*
Y10160D01*
X34717D01*
Y10127D01*
X34750D01*
Y10160D01*
X34783D01*
Y10193D01*
X34816D01*
Y10160D01*
X34848D01*
Y10193D01*
X34881D01*
Y10160D01*
X34914D01*
Y10193D01*
X35210D01*
Y10226D01*
X35242D01*
Y10193D01*
X35275D01*
Y10226D01*
X35308D01*
Y10193D01*
X35341D01*
Y10226D01*
X35439D01*
Y10259D01*
X35472D01*
Y10226D01*
X35505D01*
Y10259D01*
X35538D01*
Y10226D01*
X35571D01*
Y10259D01*
X35932D01*
Y10291D01*
X35965D01*
Y10259D01*
X35997D01*
Y10291D01*
X36030D01*
Y10259D01*
X36063D01*
Y10291D01*
X36096D01*
Y10259D01*
X36129D01*
Y10291D01*
X36162D01*
Y10259D01*
X36194D01*
Y10291D01*
X36358D01*
Y10324D01*
X36391D01*
Y10291D01*
X36424D01*
Y10324D01*
X36457D01*
Y10291D01*
X36490D01*
Y10324D01*
X36523D01*
Y10291D01*
X36555D01*
Y10324D01*
X36588D01*
Y10291D01*
X36621D01*
Y10324D01*
X36654D01*
Y10291D01*
X36687D01*
Y10324D01*
X36785D01*
Y10291D01*
X36818D01*
Y10324D01*
X36917D01*
Y10291D01*
X36949D01*
Y10324D01*
X37967D01*
Y10291D01*
X38000D01*
Y10324D01*
X38098D01*
Y10291D01*
X38131D01*
Y10324D01*
X38164D01*
Y10291D01*
X38197D01*
Y10324D01*
X38230D01*
Y10291D01*
X38263D01*
Y10324D01*
X38295D01*
Y10291D01*
X38328D01*
Y10324D01*
X38361D01*
Y10291D01*
X38394D01*
Y10324D01*
X38427D01*
Y10291D01*
X38460D01*
Y10324D01*
X38492D01*
Y10291D01*
D02*
G37*
G36*
X25065Y7829D02*
X25098D01*
Y7797D01*
X25000D01*
Y7764D01*
X24901D01*
Y7731D01*
X24737D01*
Y7764D01*
X24836D01*
Y7797D01*
X24934D01*
Y7829D01*
X25033D01*
Y7862D01*
X25065D01*
Y7829D01*
D02*
G37*
G36*
X24704Y7731D02*
X24737D01*
Y7698D01*
X24704D01*
Y7665D01*
X24672D01*
Y7698D01*
X24639D01*
Y7731D01*
X24672D01*
Y7764D01*
X24704D01*
Y7731D01*
D02*
G37*
G36*
X24606Y7698D02*
X24639D01*
Y7665D01*
X24540D01*
Y7632D01*
X24442D01*
Y7600D01*
X24343D01*
Y7567D01*
X24310D01*
Y7600D01*
X24278D01*
Y7632D01*
X24376D01*
Y7665D01*
X24475D01*
Y7698D01*
X24573D01*
Y7731D01*
X24606D01*
Y7698D01*
D02*
G37*
G36*
X24278Y7567D02*
X24245D01*
Y7534D01*
X24212D01*
Y7567D01*
X24179D01*
Y7600D01*
X24278D01*
Y7567D01*
D02*
G37*
G36*
X24179Y7534D02*
X24146D01*
Y7501D01*
X24114D01*
Y7534D01*
X24081D01*
Y7567D01*
X24179D01*
Y7534D01*
D02*
G37*
G36*
X24048D02*
X24081D01*
Y7501D01*
X23982D01*
Y7534D01*
X24015D01*
Y7567D01*
X24048D01*
Y7534D01*
D02*
G37*
G36*
X23982Y7468D02*
X23884D01*
Y7501D01*
X23982D01*
Y7468D01*
D02*
G37*
G36*
X23851D02*
X23884D01*
Y7435D01*
X23851D01*
Y7468D01*
X23818D01*
Y7501D01*
X23851D01*
Y7468D01*
D02*
G37*
G36*
X23818Y7435D02*
X23785D01*
Y7468D01*
X23818D01*
Y7435D01*
D02*
G37*
G36*
X23785Y7403D02*
X23687D01*
Y7435D01*
X23785D01*
Y7403D01*
D02*
G37*
G36*
X23654D02*
X23687D01*
Y7370D01*
X23654D01*
Y7403D01*
X23621D01*
Y7435D01*
X23654D01*
Y7403D01*
D02*
G37*
G36*
X23621Y7370D02*
X23588D01*
Y7403D01*
X23621D01*
Y7370D01*
D02*
G37*
G36*
X23588Y7337D02*
X23555D01*
Y7370D01*
X23588D01*
Y7337D01*
D02*
G37*
G36*
X23457D02*
X23424D01*
Y7370D01*
X23457D01*
Y7337D01*
D02*
G37*
G36*
X23424Y7304D02*
X23391D01*
Y7337D01*
X23424D01*
Y7304D01*
D02*
G37*
G36*
X23391Y7271D02*
X23359D01*
Y7304D01*
X23391D01*
Y7271D01*
D02*
G37*
G36*
X23260D02*
X23227D01*
Y7304D01*
X23260D01*
Y7271D01*
D02*
G37*
G36*
X23227Y7238D02*
X23194D01*
Y7271D01*
X23227D01*
Y7238D01*
D02*
G37*
G36*
X28316Y6549D02*
X28348D01*
Y6516D01*
X28381D01*
Y6483D01*
X28348D01*
Y6451D01*
Y6418D01*
Y6385D01*
X28316D01*
Y6352D01*
X28283D01*
Y6319D01*
X28316D01*
Y6286D01*
X28283D01*
Y6254D01*
X28250D01*
Y6221D01*
X28217D01*
Y6188D01*
Y6155D01*
Y6122D01*
X28184D01*
Y6089D01*
X28151D01*
Y6057D01*
X28184D01*
Y6024D01*
X28151D01*
Y5991D01*
X28119D01*
Y5958D01*
X28086D01*
Y5925D01*
Y5892D01*
Y5860D01*
X28053D01*
Y5827D01*
X28020D01*
Y5794D01*
X28053D01*
Y5761D01*
X28020D01*
Y5728D01*
X27987D01*
Y5696D01*
X27954D01*
Y5663D01*
Y5630D01*
Y5597D01*
X27922D01*
Y5564D01*
X27889D01*
Y5531D01*
X27922D01*
Y5499D01*
X27889D01*
Y5466D01*
X27856D01*
Y5433D01*
X27823D01*
Y5400D01*
X27856D01*
Y5367D01*
X27823D01*
Y5334D01*
X27790D01*
Y5302D01*
X27757D01*
Y5269D01*
X27790D01*
Y5236D01*
X27757D01*
Y5203D01*
X27725D01*
Y5170D01*
X27692D01*
Y5138D01*
X27725D01*
Y5105D01*
X27692D01*
Y5072D01*
X27659D01*
Y5039D01*
X27626D01*
Y5006D01*
X27659D01*
Y4973D01*
X27626D01*
Y4941D01*
X27593D01*
Y4908D01*
X27560D01*
Y4875D01*
X27593D01*
Y4842D01*
X27560D01*
Y4809D01*
X27528D01*
Y4776D01*
X27495D01*
Y4744D01*
X27528D01*
Y4711D01*
X27495D01*
Y4678D01*
X27528D01*
Y4645D01*
Y4612D01*
X27560D01*
Y4579D01*
Y4547D01*
X27593D01*
Y4514D01*
X27626D01*
Y4481D01*
X27659D01*
Y4448D01*
X27692D01*
Y4415D01*
X27725D01*
Y4382D01*
Y4350D01*
X27757D01*
Y4317D01*
Y4284D01*
X27790D01*
Y4251D01*
X27823D01*
Y4218D01*
X27856D01*
Y4185D01*
Y4153D01*
X27889D01*
Y4120D01*
Y4087D01*
X27922D01*
Y4054D01*
X27954D01*
Y4021D01*
X27987D01*
Y3988D01*
X28020D01*
Y3956D01*
X28053D01*
Y3923D01*
Y3890D01*
X28119D01*
Y3857D01*
X28086D01*
Y3824D01*
X28119D01*
Y3791D01*
X28151D01*
Y3759D01*
X28184D01*
Y3726D01*
X28217D01*
Y3693D01*
X28250D01*
Y3660D01*
X28217D01*
Y3627D01*
X28283D01*
Y3594D01*
Y3562D01*
X28316D01*
Y3529D01*
X28348D01*
Y3496D01*
X28381D01*
Y3463D01*
Y3430D01*
X28447D01*
Y3398D01*
X28414D01*
Y3365D01*
X28447D01*
Y3332D01*
X28480D01*
Y3299D01*
X28512D01*
Y3266D01*
X28545D01*
Y3233D01*
X28578D01*
Y3201D01*
Y3168D01*
X28611D01*
Y3135D01*
Y3102D01*
X28644D01*
Y3069D01*
X28677D01*
Y3036D01*
X28710D01*
Y3004D01*
X28742D01*
Y2971D01*
X28775D01*
Y2938D01*
Y2905D01*
X28808D01*
Y2872D01*
Y2840D01*
X28841D01*
Y2807D01*
X28874D01*
Y2774D01*
X28841D01*
Y2741D01*
X28742D01*
Y2774D01*
X28710D01*
Y2741D01*
X28611D01*
Y2774D01*
X28578D01*
Y2741D01*
X28480D01*
Y2774D01*
X28447D01*
Y2741D01*
X28348D01*
Y2774D01*
X28316D01*
Y2741D01*
X28217D01*
Y2774D01*
X28184D01*
Y2807D01*
X28151D01*
Y2840D01*
X28119D01*
Y2872D01*
X28086D01*
Y2905D01*
X28053D01*
Y2938D01*
Y2971D01*
Y3004D01*
X28020D01*
Y3036D01*
X27987D01*
Y3069D01*
X27954D01*
Y3102D01*
X27922D01*
Y3135D01*
X27889D01*
Y3168D01*
X27922D01*
Y3201D01*
X27889D01*
Y3233D01*
X27856D01*
Y3266D01*
X27823D01*
Y3299D01*
X27790D01*
Y3332D01*
X27757D01*
Y3365D01*
X27790D01*
Y3398D01*
X27757D01*
Y3430D01*
X27725D01*
Y3463D01*
X27692D01*
Y3496D01*
X27659D01*
Y3529D01*
X27626D01*
Y3562D01*
X27659D01*
Y3594D01*
X27626D01*
Y3627D01*
X27593D01*
Y3660D01*
X27560D01*
Y3693D01*
X27528D01*
Y3726D01*
X27495D01*
Y3759D01*
Y3791D01*
X27462D01*
Y3824D01*
Y3857D01*
X27429D01*
Y3890D01*
X27396D01*
Y3923D01*
X27363D01*
Y3956D01*
X27396D01*
Y3988D01*
X27363D01*
Y4021D01*
X27331D01*
Y4054D01*
X27298D01*
Y4087D01*
X27265D01*
Y4120D01*
X27232D01*
Y4153D01*
Y4185D01*
X27199D01*
Y4218D01*
Y4251D01*
X27167D01*
Y4218D01*
X27134D01*
Y4185D01*
X27101D01*
Y4153D01*
X27134D01*
Y4120D01*
X27101D01*
Y4087D01*
X27068D01*
Y4054D01*
Y4021D01*
Y3988D01*
X27035D01*
Y3956D01*
Y3923D01*
X27002D01*
Y3890D01*
Y3857D01*
X26970D01*
Y3824D01*
X27002D01*
Y3791D01*
X26970D01*
Y3759D01*
X26937D01*
Y3726D01*
Y3693D01*
Y3660D01*
X26904D01*
Y3627D01*
Y3594D01*
X26871D01*
Y3562D01*
Y3529D01*
X26838D01*
Y3496D01*
Y3463D01*
Y3430D01*
X26805D01*
Y3398D01*
X26773D01*
Y3365D01*
X26805D01*
Y3332D01*
X26773D01*
Y3299D01*
X26740D01*
Y3266D01*
Y3233D01*
Y3201D01*
X26707D01*
Y3168D01*
Y3135D01*
Y3102D01*
X26674D01*
Y3069D01*
X26641D01*
Y3036D01*
Y3004D01*
Y2971D01*
X26608D01*
Y2938D01*
X26576D01*
Y2905D01*
X26608D01*
Y2872D01*
X26576D01*
Y2840D01*
X26543D01*
Y2807D01*
Y2774D01*
Y2741D01*
X26510D01*
Y2774D01*
X26477D01*
Y2741D01*
X26379D01*
Y2774D01*
X26346D01*
Y2741D01*
X26247D01*
Y2774D01*
X26215D01*
Y2741D01*
X26116D01*
Y2774D01*
X26083D01*
Y2741D01*
X25985D01*
Y2774D01*
X25952D01*
Y2741D01*
X25853D01*
Y2774D01*
X25821D01*
Y2807D01*
X25853D01*
Y2840D01*
X25886D01*
Y2872D01*
Y2905D01*
Y2938D01*
X25919D01*
Y2971D01*
X25952D01*
Y3004D01*
X25919D01*
Y3036D01*
X25952D01*
Y3069D01*
X25985D01*
Y3102D01*
X26018D01*
Y3135D01*
Y3168D01*
Y3201D01*
X26050D01*
Y3233D01*
X26083D01*
Y3266D01*
X26050D01*
Y3299D01*
X26083D01*
Y3332D01*
X26116D01*
Y3365D01*
X26149D01*
Y3398D01*
X26116D01*
Y3430D01*
X26149D01*
Y3463D01*
X26182D01*
Y3496D01*
Y3529D01*
Y3562D01*
X26215D01*
Y3594D01*
Y3627D01*
X26247D01*
Y3660D01*
Y3693D01*
X26280D01*
Y3726D01*
Y3759D01*
X26313D01*
Y3791D01*
Y3824D01*
X26346D01*
Y3857D01*
Y3890D01*
Y3923D01*
X26379D01*
Y3956D01*
X26412D01*
Y3988D01*
X26379D01*
Y4021D01*
X26412D01*
Y4054D01*
X26444D01*
Y4087D01*
X26477D01*
Y4120D01*
X26444D01*
Y4153D01*
X26477D01*
Y4185D01*
X26510D01*
Y4218D01*
X26543D01*
Y4251D01*
X26510D01*
Y4284D01*
X26543D01*
Y4317D01*
X26576D01*
Y4350D01*
X26608D01*
Y4382D01*
X26576D01*
Y4415D01*
X26608D01*
Y4448D01*
X26641D01*
Y4481D01*
Y4514D01*
Y4547D01*
X26674D01*
Y4579D01*
Y4612D01*
X26707D01*
Y4645D01*
Y4678D01*
X26740D01*
Y4711D01*
X26707D01*
Y4744D01*
X26674D01*
Y4776D01*
X26641D01*
Y4809D01*
X26608D01*
Y4842D01*
X26576D01*
Y4875D01*
X26608D01*
Y4908D01*
X26543D01*
Y4941D01*
Y4973D01*
X26510D01*
Y5006D01*
X26477D01*
Y5039D01*
X26444D01*
Y5072D01*
X26412D01*
Y5105D01*
X26379D01*
Y5138D01*
Y5170D01*
X26346D01*
Y5203D01*
Y5236D01*
X26313D01*
Y5269D01*
X26280D01*
Y5302D01*
X26247D01*
Y5334D01*
X26215D01*
Y5367D01*
X26182D01*
Y5400D01*
Y5433D01*
X26149D01*
Y5466D01*
Y5499D01*
X26116D01*
Y5531D01*
X26083D01*
Y5564D01*
X26050D01*
Y5597D01*
X26018D01*
Y5630D01*
X25985D01*
Y5663D01*
Y5696D01*
X25952D01*
Y5728D01*
Y5761D01*
X25919D01*
Y5794D01*
X25886D01*
Y5827D01*
X25853D01*
Y5860D01*
X25821D01*
Y5892D01*
X25788D01*
Y5925D01*
X25821D01*
Y5958D01*
X25755D01*
Y5991D01*
Y6024D01*
X25722D01*
Y6057D01*
X25689D01*
Y6089D01*
X25656D01*
Y6122D01*
X25624D01*
Y6155D01*
X25591D01*
Y6188D01*
Y6221D01*
X25558D01*
Y6254D01*
Y6286D01*
X25525D01*
Y6319D01*
X25492D01*
Y6352D01*
X25460D01*
Y6385D01*
X25427D01*
Y6418D01*
X25394D01*
Y6451D01*
Y6483D01*
X25361D01*
Y6516D01*
Y6549D01*
X25394D01*
Y6582D01*
X25427D01*
Y6549D01*
X25460D01*
Y6516D01*
X25492D01*
Y6549D01*
X25525D01*
Y6582D01*
X25558D01*
Y6549D01*
X25656D01*
Y6582D01*
X25689D01*
Y6549D01*
X25722D01*
Y6516D01*
X25755D01*
Y6549D01*
X25788D01*
Y6582D01*
X25821D01*
Y6549D01*
X25919D01*
Y6582D01*
X25952D01*
Y6549D01*
X25985D01*
Y6516D01*
X26018D01*
Y6549D01*
X26050D01*
Y6516D01*
X26083D01*
Y6483D01*
X26116D01*
Y6451D01*
X26149D01*
Y6418D01*
X26116D01*
Y6385D01*
X26149D01*
Y6352D01*
X26182D01*
Y6319D01*
X26215D01*
Y6286D01*
X26247D01*
Y6254D01*
X26280D01*
Y6221D01*
Y6188D01*
X26313D01*
Y6155D01*
Y6122D01*
X26346D01*
Y6089D01*
X26379D01*
Y6057D01*
X26412D01*
Y6024D01*
Y5991D01*
X26444D01*
Y5958D01*
Y5925D01*
X26477D01*
Y5892D01*
X26510D01*
Y5860D01*
X26543D01*
Y5827D01*
X26576D01*
Y5794D01*
X26608D01*
Y5761D01*
Y5728D01*
X26641D01*
Y5696D01*
Y5663D01*
X26674D01*
Y5630D01*
X26707D01*
Y5597D01*
X26740D01*
Y5564D01*
Y5531D01*
X26773D01*
Y5499D01*
Y5466D01*
X26805D01*
Y5433D01*
X26838D01*
Y5400D01*
X26871D01*
Y5367D01*
Y5334D01*
X26937D01*
Y5302D01*
X26904D01*
Y5269D01*
X26937D01*
Y5236D01*
X26970D01*
Y5203D01*
X27002D01*
Y5170D01*
X27035D01*
Y5138D01*
X27068D01*
Y5170D01*
X27101D01*
Y5203D01*
X27134D01*
Y5236D01*
X27101D01*
Y5269D01*
X27134D01*
Y5302D01*
X27167D01*
Y5334D01*
X27199D01*
Y5367D01*
X27167D01*
Y5400D01*
X27199D01*
Y5433D01*
Y5466D01*
X27232D01*
Y5499D01*
Y5531D01*
X27265D01*
Y5564D01*
Y5597D01*
Y5630D01*
X27298D01*
Y5663D01*
X27331D01*
Y5696D01*
X27298D01*
Y5728D01*
X27331D01*
Y5761D01*
X27363D01*
Y5794D01*
X27396D01*
Y5827D01*
X27363D01*
Y5860D01*
X27396D01*
Y5892D01*
X27429D01*
Y5925D01*
Y5958D01*
Y5991D01*
X27462D01*
Y6024D01*
Y6057D01*
X27495D01*
Y6089D01*
Y6122D01*
X27528D01*
Y6155D01*
X27495D01*
Y6188D01*
X27528D01*
Y6221D01*
X27560D01*
Y6254D01*
X27593D01*
Y6286D01*
X27560D01*
Y6319D01*
X27593D01*
Y6352D01*
X27626D01*
Y6385D01*
Y6418D01*
Y6451D01*
X27659D01*
Y6483D01*
Y6516D01*
X27692D01*
Y6549D01*
X27757D01*
Y6582D01*
X27790D01*
Y6549D01*
X27823D01*
Y6516D01*
X27856D01*
Y6549D01*
X27889D01*
Y6582D01*
X27922D01*
Y6549D01*
X28020D01*
Y6582D01*
X28053D01*
Y6549D01*
X28086D01*
Y6516D01*
X28119D01*
Y6549D01*
X28151D01*
Y6582D01*
X28184D01*
Y6549D01*
X28283D01*
Y6582D01*
X28316D01*
Y6549D01*
D02*
G37*
G36*
X24901D02*
X24934D01*
Y6516D01*
X24967D01*
Y6549D01*
X25000D01*
Y6516D01*
Y6483D01*
Y6451D01*
X25033D01*
Y6418D01*
X25000D01*
Y6385D01*
X25033D01*
Y6352D01*
X25000D01*
Y6319D01*
X25033D01*
Y6286D01*
X25000D01*
Y6254D01*
X25033D01*
Y6221D01*
Y6188D01*
Y6155D01*
Y6122D01*
Y6089D01*
X25065D01*
Y6057D01*
Y6024D01*
Y5991D01*
X25098D01*
Y5958D01*
X25065D01*
Y5925D01*
X25098D01*
Y5892D01*
X25065D01*
Y5860D01*
X25098D01*
Y5827D01*
X25065D01*
Y5794D01*
X25098D01*
Y5761D01*
X25065D01*
Y5728D01*
X25098D01*
Y5696D01*
Y5663D01*
Y5630D01*
X25131D01*
Y5597D01*
X25098D01*
Y5564D01*
X25131D01*
Y5531D01*
Y5499D01*
Y5466D01*
X25164D01*
Y5433D01*
X25131D01*
Y5400D01*
X25164D01*
Y5367D01*
X25131D01*
Y5334D01*
X25164D01*
Y5302D01*
X25131D01*
Y5269D01*
X25164D01*
Y5236D01*
Y5203D01*
Y5170D01*
X25197D01*
Y5138D01*
X25164D01*
Y5105D01*
X25197D01*
Y5072D01*
Y5039D01*
Y5006D01*
Y4973D01*
Y4941D01*
X25230D01*
Y4908D01*
X25197D01*
Y4875D01*
X25230D01*
Y4842D01*
X25197D01*
Y4809D01*
X25230D01*
Y4776D01*
X25197D01*
Y4744D01*
X25230D01*
Y4711D01*
X25197D01*
Y4678D01*
X25230D01*
Y4645D01*
Y4612D01*
Y4579D01*
X25262D01*
Y4547D01*
Y4514D01*
Y4481D01*
Y4448D01*
Y4415D01*
X25295D01*
Y4382D01*
X25262D01*
Y4350D01*
X25295D01*
Y4317D01*
X25262D01*
Y4284D01*
X25295D01*
Y4251D01*
X25262D01*
Y4218D01*
X25295D01*
Y4185D01*
Y4153D01*
Y4120D01*
X25328D01*
Y4087D01*
X25295D01*
Y4054D01*
X25328D01*
Y4021D01*
Y3988D01*
Y3956D01*
Y3923D01*
Y3890D01*
X25361D01*
Y3857D01*
X25328D01*
Y3824D01*
X25361D01*
Y3791D01*
X25328D01*
Y3759D01*
X25361D01*
Y3726D01*
Y3693D01*
Y3660D01*
Y3627D01*
Y3594D01*
X25394D01*
Y3562D01*
Y3529D01*
Y3496D01*
Y3463D01*
Y3430D01*
X25427D01*
Y3398D01*
X25394D01*
Y3365D01*
X25427D01*
Y3332D01*
X25394D01*
Y3299D01*
X25427D01*
Y3266D01*
X25394D01*
Y3233D01*
X25427D01*
Y3201D01*
X25394D01*
Y3168D01*
X25427D01*
Y3135D01*
Y3102D01*
Y3069D01*
X25460D01*
Y3036D01*
X25427D01*
Y3004D01*
X25460D01*
Y2971D01*
Y2938D01*
Y2905D01*
Y2872D01*
Y2840D01*
X25492D01*
Y2807D01*
X25460D01*
Y2774D01*
X25427D01*
Y2741D01*
X25328D01*
Y2774D01*
X25295D01*
Y2741D01*
X25197D01*
Y2774D01*
X25164D01*
Y2741D01*
X25065D01*
Y2774D01*
X25033D01*
Y2741D01*
X24934D01*
Y2774D01*
X24901D01*
Y2741D01*
X24869D01*
Y2774D01*
X24836D01*
Y2807D01*
X24869D01*
Y2840D01*
X24836D01*
Y2872D01*
Y2905D01*
Y2938D01*
X24803D01*
Y2971D01*
X24836D01*
Y3004D01*
X24803D01*
Y3036D01*
X24836D01*
Y3069D01*
X24803D01*
Y3102D01*
X24836D01*
Y3135D01*
X24803D01*
Y3168D01*
Y3201D01*
Y3233D01*
Y3266D01*
Y3299D01*
X24770D01*
Y3332D01*
Y3365D01*
Y3398D01*
Y3430D01*
Y3463D01*
X24737D01*
Y3496D01*
X24770D01*
Y3529D01*
X24737D01*
Y3562D01*
X24770D01*
Y3594D01*
X24737D01*
Y3627D01*
X24770D01*
Y3660D01*
X24737D01*
Y3693D01*
Y3726D01*
Y3759D01*
X24704D01*
Y3791D01*
X24737D01*
Y3824D01*
X24704D01*
Y3857D01*
X24672D01*
Y3890D01*
X24704D01*
Y3923D01*
Y3956D01*
Y3988D01*
X24672D01*
Y4021D01*
X24704D01*
Y4054D01*
X24672D01*
Y4087D01*
X24704D01*
Y4120D01*
X24672D01*
Y4153D01*
X24704D01*
Y4185D01*
X24672D01*
Y4218D01*
Y4251D01*
Y4284D01*
X24639D01*
Y4317D01*
X24672D01*
Y4350D01*
X24639D01*
Y4382D01*
Y4415D01*
Y4448D01*
X24606D01*
Y4481D01*
X24639D01*
Y4514D01*
X24606D01*
Y4547D01*
X24639D01*
Y4579D01*
X24606D01*
Y4612D01*
X24639D01*
Y4645D01*
X24606D01*
Y4678D01*
Y4711D01*
Y4744D01*
Y4776D01*
Y4809D01*
X24573D01*
Y4842D01*
Y4875D01*
Y4908D01*
X24540D01*
Y4941D01*
X24573D01*
Y4973D01*
Y5006D01*
Y5039D01*
X24540D01*
Y5072D01*
X24573D01*
Y5105D01*
X24540D01*
Y5138D01*
Y5170D01*
Y5203D01*
Y5236D01*
Y5269D01*
X24508D01*
Y5302D01*
X24540D01*
Y5334D01*
X24508D01*
Y5367D01*
Y5400D01*
Y5433D01*
Y5466D01*
Y5499D01*
X24475D01*
Y5531D01*
X24508D01*
Y5564D01*
X24475D01*
Y5597D01*
X24508D01*
Y5630D01*
X24475D01*
Y5663D01*
X24508D01*
Y5696D01*
X24475D01*
Y5728D01*
Y5761D01*
Y5794D01*
X24442D01*
Y5827D01*
X24475D01*
Y5860D01*
X24442D01*
Y5892D01*
Y5925D01*
Y5958D01*
X24409D01*
Y5991D01*
X24442D01*
Y6024D01*
X24409D01*
Y6057D01*
X24442D01*
Y6089D01*
X24409D01*
Y6122D01*
X24442D01*
Y6155D01*
X24409D01*
Y6188D01*
Y6221D01*
Y6254D01*
Y6286D01*
Y6319D01*
X24376D01*
Y6352D01*
Y6385D01*
Y6418D01*
Y6451D01*
Y6483D01*
X24343D01*
Y6516D01*
X24376D01*
Y6549D01*
X24409D01*
Y6516D01*
X24442D01*
Y6549D01*
X24475D01*
Y6582D01*
X24508D01*
Y6549D01*
X24606D01*
Y6582D01*
X24639D01*
Y6549D01*
X24672D01*
Y6516D01*
X24704D01*
Y6549D01*
X24737D01*
Y6582D01*
X24770D01*
Y6549D01*
X24869D01*
Y6582D01*
X24901D01*
Y6549D01*
D02*
G37*
G36*
X28414Y6516D02*
X28381D01*
Y6549D01*
X28414D01*
Y6516D01*
D02*
G37*
G36*
X23457Y6549D02*
X23555D01*
Y6516D01*
X23588D01*
Y6483D01*
X23555D01*
Y6451D01*
X23588D01*
Y6418D01*
Y6385D01*
Y6352D01*
X23621D01*
Y6319D01*
X23588D01*
Y6286D01*
X23621D01*
Y6254D01*
Y6221D01*
Y6188D01*
Y6155D01*
Y6122D01*
X23654D01*
Y6089D01*
X23621D01*
Y6057D01*
X23654D01*
Y6024D01*
X23621D01*
Y5991D01*
X23654D01*
Y5958D01*
Y5925D01*
Y5892D01*
Y5860D01*
Y5827D01*
X23687D01*
Y5794D01*
X23654D01*
Y5761D01*
X23687D01*
Y5728D01*
Y5696D01*
Y5663D01*
X23720D01*
Y5630D01*
X23687D01*
Y5597D01*
X23720D01*
Y5564D01*
X23687D01*
Y5531D01*
X23720D01*
Y5499D01*
X23687D01*
Y5466D01*
X23720D01*
Y5433D01*
X23687D01*
Y5400D01*
X23720D01*
Y5367D01*
Y5334D01*
Y5302D01*
X23752D01*
Y5269D01*
X23720D01*
Y5236D01*
X23752D01*
Y5203D01*
Y5170D01*
Y5138D01*
Y5105D01*
Y5072D01*
X23785D01*
Y5039D01*
X23752D01*
Y5006D01*
X23785D01*
Y4973D01*
X23752D01*
Y4941D01*
X23785D01*
Y4908D01*
Y4875D01*
Y4842D01*
X23818D01*
Y4809D01*
X23785D01*
Y4776D01*
X23818D01*
Y4744D01*
Y4711D01*
Y4678D01*
Y4645D01*
Y4612D01*
X23851D01*
Y4579D01*
X23818D01*
Y4547D01*
X23851D01*
Y4514D01*
X23818D01*
Y4481D01*
X23851D01*
Y4448D01*
X23818D01*
Y4415D01*
X23851D01*
Y4382D01*
Y4350D01*
Y4317D01*
Y4284D01*
Y4251D01*
X23884D01*
Y4218D01*
Y4185D01*
Y4153D01*
X23917D01*
Y4120D01*
X23884D01*
Y4087D01*
X23917D01*
Y4054D01*
X23884D01*
Y4021D01*
X23917D01*
Y3988D01*
X23884D01*
Y3956D01*
X23917D01*
Y3923D01*
X23884D01*
Y3890D01*
X23917D01*
Y3857D01*
Y3824D01*
Y3791D01*
X23949D01*
Y3759D01*
X23917D01*
Y3726D01*
X23949D01*
Y3693D01*
Y3660D01*
Y3627D01*
X23982D01*
Y3594D01*
X23949D01*
Y3562D01*
X23982D01*
Y3529D01*
X23949D01*
Y3496D01*
X23982D01*
Y3463D01*
X23949D01*
Y3430D01*
X23982D01*
Y3398D01*
Y3365D01*
Y3332D01*
X24015D01*
Y3299D01*
X23982D01*
Y3266D01*
X24015D01*
Y3233D01*
Y3201D01*
Y3168D01*
Y3135D01*
Y3102D01*
X24048D01*
Y3069D01*
X24015D01*
Y3036D01*
X24048D01*
Y3004D01*
X24015D01*
Y2971D01*
X24048D01*
Y2938D01*
Y2905D01*
Y2872D01*
Y2840D01*
Y2807D01*
X24081D01*
Y2774D01*
X24048D01*
Y2741D01*
X24015D01*
Y2774D01*
X23982D01*
Y2741D01*
X23884D01*
Y2774D01*
X23851D01*
Y2741D01*
X23752D01*
Y2774D01*
X23720D01*
Y2741D01*
X23621D01*
Y2774D01*
X23588D01*
Y2741D01*
X23490D01*
Y2774D01*
X23457D01*
Y2807D01*
X23424D01*
Y2840D01*
Y2872D01*
Y2905D01*
Y2938D01*
Y2971D01*
X23391D01*
Y3004D01*
Y3036D01*
Y3069D01*
X23359D01*
Y3102D01*
X23391D01*
Y3135D01*
Y3168D01*
Y3201D01*
X23359D01*
Y3233D01*
X23391D01*
Y3266D01*
X23359D01*
Y3299D01*
X23391D01*
Y3332D01*
X23359D01*
Y3365D01*
X23391D01*
Y3398D01*
X23359D01*
Y3430D01*
X23326D01*
Y3463D01*
X23359D01*
Y3496D01*
X23326D01*
Y3529D01*
X23359D01*
Y3562D01*
X23326D01*
Y3594D01*
Y3627D01*
Y3660D01*
X23293D01*
Y3693D01*
X23326D01*
Y3726D01*
X23293D01*
Y3759D01*
X23326D01*
Y3791D01*
X23293D01*
Y3824D01*
X23326D01*
Y3857D01*
X23293D01*
Y3890D01*
Y3923D01*
Y3956D01*
Y3988D01*
Y4021D01*
X23260D01*
Y4054D01*
Y4087D01*
Y4120D01*
X23227D01*
Y4153D01*
X23260D01*
Y4185D01*
X23227D01*
Y4218D01*
X23260D01*
Y4251D01*
X23227D01*
Y4284D01*
X23260D01*
Y4317D01*
X23227D01*
Y4350D01*
Y4382D01*
Y4415D01*
Y4448D01*
Y4481D01*
X23194D01*
Y4514D01*
Y4547D01*
Y4579D01*
Y4612D01*
Y4645D01*
Y4678D01*
Y4711D01*
X23162D01*
Y4744D01*
X23194D01*
Y4776D01*
X23162D01*
Y4809D01*
X23194D01*
Y4842D01*
X23162D01*
Y4875D01*
X23194D01*
Y4908D01*
X23162D01*
Y4941D01*
Y4973D01*
Y5006D01*
X23129D01*
Y5039D01*
Y5072D01*
Y5105D01*
Y5138D01*
Y5170D01*
X23096D01*
Y5203D01*
X23129D01*
Y5236D01*
X23096D01*
Y5269D01*
X23129D01*
Y5302D01*
X23096D01*
Y5334D01*
X23129D01*
Y5367D01*
X23096D01*
Y5400D01*
Y5433D01*
Y5466D01*
Y5499D01*
Y5531D01*
X23063D01*
Y5564D01*
Y5597D01*
Y5630D01*
Y5663D01*
Y5696D01*
X23030D01*
Y5728D01*
X23063D01*
Y5761D01*
X23030D01*
Y5794D01*
X23063D01*
Y5827D01*
X23030D01*
Y5860D01*
Y5892D01*
Y5925D01*
Y5958D01*
Y5991D01*
X22997D01*
Y6024D01*
X23030D01*
Y6057D01*
X22997D01*
Y6089D01*
Y6122D01*
Y6155D01*
Y6188D01*
Y6221D01*
X22964D01*
Y6254D01*
X22997D01*
Y6286D01*
X22964D01*
Y6319D01*
X22997D01*
Y6352D01*
X22964D01*
Y6385D01*
X22997D01*
Y6418D01*
X22964D01*
Y6451D01*
Y6483D01*
Y6516D01*
Y6549D01*
X23030D01*
Y6582D01*
X23063D01*
Y6549D01*
X23096D01*
Y6516D01*
X23129D01*
Y6549D01*
X23162D01*
Y6582D01*
X23194D01*
Y6549D01*
X23293D01*
Y6582D01*
X23326D01*
Y6549D01*
X23359D01*
Y6516D01*
X23391D01*
Y6549D01*
X23424D01*
Y6582D01*
X23457D01*
Y6549D01*
D02*
G37*
G36*
X43088Y5367D02*
X43187D01*
Y5334D01*
X43285D01*
Y5302D01*
X43318D01*
Y5269D01*
X43417D01*
Y5236D01*
X43449D01*
Y5203D01*
X43482D01*
Y5170D01*
X43515D01*
Y5138D01*
X43548D01*
Y5105D01*
X43581D01*
Y5072D01*
X43613D01*
Y5039D01*
X43646D01*
Y5006D01*
X43679D01*
Y4973D01*
X43712D01*
Y4941D01*
X43745D01*
Y4908D01*
X43712D01*
Y4875D01*
X43745D01*
Y4842D01*
X43778D01*
Y4809D01*
Y4776D01*
Y4744D01*
X43810D01*
Y4711D01*
Y4678D01*
X43843D01*
Y4645D01*
Y4612D01*
Y4579D01*
Y4547D01*
X43876D01*
Y4514D01*
X43843D01*
Y4481D01*
X43876D01*
Y4448D01*
Y4415D01*
Y4382D01*
X43909D01*
Y4350D01*
X43876D01*
Y4317D01*
X43909D01*
Y4284D01*
Y4251D01*
Y4218D01*
Y4185D01*
Y4153D01*
Y4120D01*
Y4087D01*
Y4054D01*
Y4021D01*
Y3988D01*
Y3956D01*
Y3923D01*
Y3890D01*
Y3857D01*
Y3824D01*
Y3791D01*
Y3759D01*
X43876D01*
Y3726D01*
Y3693D01*
Y3660D01*
X43843D01*
Y3627D01*
X43876D01*
Y3594D01*
X43843D01*
Y3562D01*
X43876D01*
Y3529D01*
X43843D01*
Y3496D01*
Y3463D01*
Y3430D01*
X43810D01*
Y3398D01*
X43778D01*
Y3365D01*
X43810D01*
Y3332D01*
X43778D01*
Y3299D01*
X43745D01*
Y3266D01*
X43712D01*
Y3233D01*
X43745D01*
Y3201D01*
X43712D01*
Y3168D01*
X43679D01*
Y3135D01*
X43646D01*
Y3102D01*
Y3069D01*
X43613D01*
Y3036D01*
Y3004D01*
X43548D01*
Y2971D01*
Y2938D01*
X43482D01*
Y2905D01*
X43417D01*
Y2872D01*
X43384D01*
Y2840D01*
X43351D01*
Y2807D01*
X43252D01*
Y2774D01*
X43220D01*
Y2741D01*
X43187D01*
Y2774D01*
X43154D01*
Y2741D01*
X43055D01*
Y2708D01*
X43023D01*
Y2741D01*
X42990D01*
Y2708D01*
X42957D01*
Y2741D01*
X42924D01*
Y2708D01*
X42826D01*
Y2741D01*
X42793D01*
Y2708D01*
X42826D01*
Y2675D01*
X42793D01*
Y2708D01*
X42760D01*
Y2741D01*
X42727D01*
Y2708D01*
X42694D01*
Y2741D01*
X42530D01*
Y2774D01*
X42497D01*
Y2807D01*
X42399D01*
Y2840D01*
X42366D01*
Y2872D01*
X42268D01*
Y2905D01*
X42235D01*
Y2938D01*
X42202D01*
Y2971D01*
X42169D01*
Y2938D01*
X42202D01*
Y2905D01*
X42169D01*
Y2872D01*
X42202D01*
Y2840D01*
X42169D01*
Y2807D01*
Y2774D01*
Y2741D01*
X42136D01*
Y2774D01*
X42103D01*
Y2741D01*
X42005D01*
Y2774D01*
X41972D01*
Y2741D01*
X41874D01*
Y2774D01*
X41841D01*
Y2741D01*
X41808D01*
Y2774D01*
X41775D01*
Y2807D01*
Y2840D01*
Y2872D01*
Y2905D01*
Y2938D01*
Y2971D01*
Y3004D01*
Y3036D01*
Y3069D01*
Y3102D01*
Y3135D01*
Y3168D01*
Y3201D01*
Y3233D01*
Y3266D01*
Y3299D01*
Y3332D01*
Y3365D01*
Y3398D01*
Y3430D01*
Y3463D01*
Y3496D01*
Y3529D01*
Y3562D01*
Y3594D01*
Y3627D01*
Y3660D01*
Y3693D01*
Y3726D01*
Y3759D01*
Y3791D01*
Y3824D01*
Y3857D01*
Y3890D01*
Y3923D01*
Y3956D01*
Y3988D01*
Y4021D01*
Y4054D01*
Y4087D01*
Y4120D01*
Y4153D01*
Y4185D01*
X41874D01*
Y4153D01*
X41906D01*
Y4185D01*
X42005D01*
Y4153D01*
X42038D01*
Y4185D01*
X42136D01*
Y4153D01*
X42169D01*
Y4185D01*
X42268D01*
Y4153D01*
X42300D01*
Y4185D01*
X42399D01*
Y4153D01*
X42432D01*
Y4185D01*
X42530D01*
Y4153D01*
X42563D01*
Y4185D01*
X42661D01*
Y4153D01*
X42694D01*
Y4185D01*
X42793D01*
Y4153D01*
X42826D01*
Y4120D01*
X42793D01*
Y4087D01*
Y4054D01*
Y4021D01*
X42826D01*
Y3988D01*
X42793D01*
Y3956D01*
Y3923D01*
Y3890D01*
X42826D01*
Y3857D01*
X42793D01*
Y3824D01*
X42760D01*
Y3791D01*
X42727D01*
Y3824D01*
X42694D01*
Y3791D01*
X42661D01*
Y3824D01*
X42629D01*
Y3791D01*
X42596D01*
Y3824D01*
X42563D01*
Y3791D01*
X42530D01*
Y3824D01*
X42497D01*
Y3791D01*
X42465D01*
Y3824D01*
X42432D01*
Y3791D01*
X42399D01*
Y3824D01*
X42366D01*
Y3791D01*
X42333D01*
Y3824D01*
X42300D01*
Y3791D01*
X42268D01*
Y3824D01*
X42235D01*
Y3791D01*
Y3759D01*
Y3726D01*
Y3693D01*
Y3660D01*
Y3627D01*
X42268D01*
Y3594D01*
Y3562D01*
Y3529D01*
Y3496D01*
X42300D01*
Y3463D01*
Y3430D01*
Y3398D01*
X42333D01*
Y3365D01*
X42366D01*
Y3332D01*
X42399D01*
Y3299D01*
X42432D01*
Y3266D01*
X42465D01*
Y3233D01*
X42563D01*
Y3201D01*
X42596D01*
Y3168D01*
X42629D01*
Y3201D01*
X42661D01*
Y3168D01*
X42891D01*
Y3201D01*
X42924D01*
Y3168D01*
X42957D01*
Y3201D01*
X42990D01*
Y3233D01*
X43088D01*
Y3266D01*
X43121D01*
Y3299D01*
X43154D01*
Y3332D01*
X43187D01*
Y3365D01*
X43220D01*
Y3398D01*
Y3430D01*
X43252D01*
Y3463D01*
Y3496D01*
X43285D01*
Y3529D01*
X43318D01*
Y3562D01*
Y3594D01*
Y3627D01*
X43351D01*
Y3660D01*
X43318D01*
Y3693D01*
X43351D01*
Y3726D01*
Y3759D01*
Y3791D01*
Y3824D01*
Y3857D01*
X43384D01*
Y3890D01*
X43351D01*
Y3923D01*
X43384D01*
Y3956D01*
Y3988D01*
Y4021D01*
Y4054D01*
Y4087D01*
Y4120D01*
Y4153D01*
Y4185D01*
Y4218D01*
Y4251D01*
Y4284D01*
X43351D01*
Y4317D01*
Y4350D01*
Y4382D01*
X43318D01*
Y4415D01*
X43351D01*
Y4448D01*
X43318D01*
Y4481D01*
X43351D01*
Y4514D01*
X43318D01*
Y4547D01*
Y4579D01*
X43285D01*
Y4612D01*
Y4645D01*
X43252D01*
Y4678D01*
Y4711D01*
X43220D01*
Y4744D01*
Y4776D01*
X43187D01*
Y4809D01*
X43154D01*
Y4842D01*
X43121D01*
Y4875D01*
X43023D01*
Y4908D01*
X42990D01*
Y4941D01*
X42957D01*
Y4908D01*
X42924D01*
Y4941D01*
X42891D01*
Y4973D01*
X42858D01*
Y4941D01*
X42826D01*
Y4973D01*
X42793D01*
Y4941D01*
X42760D01*
Y4973D01*
X42727D01*
Y4941D01*
X42694D01*
Y4973D01*
X42661D01*
Y4941D01*
X42694D01*
Y4908D01*
X42661D01*
Y4941D01*
X42629D01*
Y4908D01*
X42530D01*
Y4875D01*
X42497D01*
Y4842D01*
X42465D01*
Y4809D01*
Y4776D01*
X42432D01*
Y4744D01*
Y4711D01*
X42399D01*
Y4678D01*
Y4645D01*
Y4612D01*
X42366D01*
Y4579D01*
Y4547D01*
X42300D01*
Y4579D01*
X42136D01*
Y4612D01*
X42103D01*
Y4579D01*
X42071D01*
Y4612D01*
X41972D01*
Y4645D01*
X41939D01*
Y4612D01*
X41906D01*
Y4645D01*
X41841D01*
Y4678D01*
Y4711D01*
Y4744D01*
Y4776D01*
X41874D01*
Y4809D01*
X41906D01*
Y4842D01*
X41874D01*
Y4875D01*
X41906D01*
Y4908D01*
Y4941D01*
X41939D01*
Y4973D01*
Y5006D01*
X41972D01*
Y5039D01*
X42005D01*
Y5072D01*
X42038D01*
Y5105D01*
Y5138D01*
X42103D01*
Y5170D01*
Y5203D01*
X42169D01*
Y5236D01*
X42202D01*
Y5269D01*
X42235D01*
Y5302D01*
X42268D01*
Y5334D01*
X42300D01*
Y5302D01*
X42333D01*
Y5334D01*
X42432D01*
Y5367D01*
X42465D01*
Y5400D01*
X42497D01*
Y5367D01*
X42530D01*
Y5400D01*
X43023D01*
Y5367D01*
X43055D01*
Y5400D01*
X43088D01*
Y5367D01*
D02*
G37*
G36*
X35932D02*
X35965D01*
Y5334D01*
X35997D01*
Y5367D01*
X36030D01*
Y5334D01*
X36129D01*
Y5302D01*
X36162D01*
Y5269D01*
X36194D01*
Y5236D01*
X36227D01*
Y5203D01*
X36260D01*
Y5170D01*
X36293D01*
Y5138D01*
X36326D01*
Y5105D01*
X36358D01*
Y5072D01*
X36391D01*
Y5039D01*
Y5006D01*
Y4973D01*
X36424D01*
Y4941D01*
X36457D01*
Y4908D01*
X36424D01*
Y4875D01*
X36457D01*
Y4842D01*
Y4809D01*
Y4776D01*
X36490D01*
Y4744D01*
X36457D01*
Y4711D01*
X36490D01*
Y4678D01*
Y4645D01*
Y4612D01*
X36457D01*
Y4579D01*
X36490D01*
Y4547D01*
X36457D01*
Y4514D01*
X36490D01*
Y4481D01*
X36457D01*
Y4448D01*
Y4415D01*
Y4382D01*
X36424D01*
Y4350D01*
X36457D01*
Y4317D01*
X36424D01*
Y4284D01*
X36391D01*
Y4251D01*
Y4218D01*
Y4185D01*
X36358D01*
Y4153D01*
X36326D01*
Y4120D01*
X36293D01*
Y4087D01*
X36260D01*
Y4054D01*
X36194D01*
Y4021D01*
X36129D01*
Y3988D01*
X36096D01*
Y3956D01*
X36063D01*
Y3988D01*
X36030D01*
Y3956D01*
X35997D01*
Y3923D01*
X35899D01*
Y3890D01*
X35866D01*
Y3923D01*
X35833D01*
Y3890D01*
X35866D01*
Y3857D01*
X35833D01*
Y3890D01*
X35800D01*
Y3857D01*
X35702D01*
Y3824D01*
X35669D01*
Y3857D01*
X35636D01*
Y3824D01*
X35603D01*
Y3791D01*
X35571D01*
Y3824D01*
X35538D01*
Y3791D01*
X35439D01*
Y3759D01*
X35407D01*
Y3726D01*
X35374D01*
Y3693D01*
X35341D01*
Y3660D01*
X35308D01*
Y3627D01*
X35275D01*
Y3594D01*
X35242D01*
Y3562D01*
X35275D01*
Y3529D01*
X35242D01*
Y3496D01*
Y3463D01*
Y3430D01*
X35275D01*
Y3398D01*
X35242D01*
Y3365D01*
X35275D01*
Y3332D01*
X35242D01*
Y3299D01*
X35275D01*
Y3266D01*
X35308D01*
Y3233D01*
X35407D01*
Y3201D01*
X35439D01*
Y3168D01*
X35669D01*
Y3135D01*
X35702D01*
Y3168D01*
X35932D01*
Y3201D01*
X35965D01*
Y3233D01*
X35997D01*
Y3201D01*
X36030D01*
Y3233D01*
X36129D01*
Y3266D01*
X36162D01*
Y3299D01*
X36260D01*
Y3332D01*
X36293D01*
Y3365D01*
X36391D01*
Y3332D01*
X36358D01*
Y3299D01*
X36391D01*
Y3266D01*
X36358D01*
Y3233D01*
X36391D01*
Y3201D01*
Y3168D01*
Y3135D01*
X36424D01*
Y3102D01*
X36391D01*
Y3069D01*
X36424D01*
Y3036D01*
Y3004D01*
Y2971D01*
Y2938D01*
Y2905D01*
X36391D01*
Y2872D01*
X36293D01*
Y2840D01*
X36260D01*
Y2807D01*
X36162D01*
Y2774D01*
X36063D01*
Y2741D01*
X35899D01*
Y2708D01*
X35866D01*
Y2741D01*
X35833D01*
Y2708D01*
X35800D01*
Y2741D01*
X35768D01*
Y2708D01*
X35735D01*
Y2741D01*
X35702D01*
Y2708D01*
X35735D01*
Y2675D01*
X35702D01*
Y2708D01*
X35603D01*
Y2741D01*
X35571D01*
Y2708D01*
X35603D01*
Y2675D01*
X35571D01*
Y2708D01*
X35538D01*
Y2741D01*
X35505D01*
Y2708D01*
X35472D01*
Y2741D01*
X35439D01*
Y2708D01*
X35407D01*
Y2741D01*
X35242D01*
Y2774D01*
X35144D01*
Y2807D01*
X35045D01*
Y2840D01*
X35013D01*
Y2872D01*
X34980D01*
Y2905D01*
X34947D01*
Y2938D01*
X34914D01*
Y2971D01*
X34881D01*
Y3004D01*
X34848D01*
Y3036D01*
Y3069D01*
X34816D01*
Y3102D01*
Y3135D01*
X34783D01*
Y3168D01*
Y3201D01*
Y3233D01*
X34750D01*
Y3266D01*
Y3299D01*
Y3332D01*
Y3365D01*
Y3398D01*
X34717D01*
Y3430D01*
X34750D01*
Y3463D01*
X34717D01*
Y3496D01*
X34750D01*
Y3529D01*
X34717D01*
Y3562D01*
X34750D01*
Y3594D01*
Y3627D01*
Y3660D01*
Y3693D01*
Y3726D01*
X34783D01*
Y3759D01*
X34816D01*
Y3791D01*
X34783D01*
Y3824D01*
X34816D01*
Y3857D01*
Y3890D01*
X34848D01*
Y3923D01*
Y3956D01*
X34881D01*
Y3988D01*
X34914D01*
Y4021D01*
X34947D01*
Y4054D01*
X34980D01*
Y4087D01*
X35078D01*
Y4120D01*
X35111D01*
Y4153D01*
X35210D01*
Y4185D01*
X35242D01*
Y4218D01*
X35275D01*
Y4185D01*
X35308D01*
Y4218D01*
X35407D01*
Y4251D01*
X35439D01*
Y4284D01*
X35472D01*
Y4251D01*
X35505D01*
Y4284D01*
X35603D01*
Y4317D01*
X35636D01*
Y4284D01*
X35669D01*
Y4317D01*
X35702D01*
Y4350D01*
X35800D01*
Y4382D01*
X35833D01*
Y4415D01*
X35866D01*
Y4448D01*
X35899D01*
Y4481D01*
X35932D01*
Y4514D01*
X35965D01*
Y4547D01*
X35997D01*
Y4579D01*
X35965D01*
Y4612D01*
X35997D01*
Y4645D01*
X35965D01*
Y4678D01*
X35997D01*
Y4711D01*
X35965D01*
Y4744D01*
Y4776D01*
Y4809D01*
X35932D01*
Y4842D01*
X35899D01*
Y4875D01*
Y4908D01*
X35833D01*
Y4941D01*
X35800D01*
Y4973D01*
X35636D01*
Y5006D01*
X35603D01*
Y4973D01*
X35439D01*
Y4941D01*
X35407D01*
Y4908D01*
X35374D01*
Y4875D01*
X35341D01*
Y4842D01*
X35308D01*
Y4809D01*
X35341D01*
Y4776D01*
X35308D01*
Y4744D01*
Y4711D01*
Y4678D01*
X35275D01*
Y4645D01*
X35242D01*
Y4678D01*
X35210D01*
Y4711D01*
X35177D01*
Y4678D01*
X35210D01*
Y4645D01*
X35177D01*
Y4678D01*
X35144D01*
Y4711D01*
X35111D01*
Y4678D01*
X35078D01*
Y4711D01*
X34914D01*
Y4744D01*
X34881D01*
Y4711D01*
X34848D01*
Y4744D01*
X34816D01*
Y4776D01*
X34783D01*
Y4809D01*
X34816D01*
Y4842D01*
Y4875D01*
Y4908D01*
Y4941D01*
Y4973D01*
X34848D01*
Y5006D01*
X34881D01*
Y5039D01*
Y5072D01*
Y5105D01*
X34914D01*
Y5138D01*
X34947D01*
Y5170D01*
X34980D01*
Y5203D01*
X35013D01*
Y5236D01*
X35045D01*
Y5269D01*
X35078D01*
Y5302D01*
X35111D01*
Y5334D01*
X35210D01*
Y5367D01*
X35242D01*
Y5334D01*
X35275D01*
Y5367D01*
X35308D01*
Y5400D01*
X35341D01*
Y5367D01*
X35374D01*
Y5400D01*
X35866D01*
Y5367D01*
X35899D01*
Y5400D01*
X35932D01*
Y5367D01*
D02*
G37*
G36*
X53003D02*
X53035D01*
Y5334D01*
X53068D01*
Y5367D01*
X53167D01*
Y5334D01*
X53199D01*
Y5367D01*
X53298D01*
Y5334D01*
X53331D01*
Y5367D01*
X53429D01*
Y5334D01*
X53462D01*
Y5367D01*
X53495D01*
Y5334D01*
Y5302D01*
Y5269D01*
X53528D01*
Y5236D01*
X53495D01*
Y5203D01*
X53528D01*
Y5170D01*
X53495D01*
Y5138D01*
X53528D01*
Y5105D01*
X53495D01*
Y5072D01*
X53528D01*
Y5039D01*
X53495D01*
Y5006D01*
X53528D01*
Y4973D01*
X53495D01*
Y4941D01*
X53528D01*
Y4908D01*
X53495D01*
Y4875D01*
X53528D01*
Y4842D01*
X53495D01*
Y4809D01*
X53528D01*
Y4776D01*
X53495D01*
Y4744D01*
X53528D01*
Y4711D01*
X53495D01*
Y4678D01*
X53528D01*
Y4645D01*
X53495D01*
Y4612D01*
X53528D01*
Y4579D01*
X53495D01*
Y4547D01*
X53528D01*
Y4514D01*
X53495D01*
Y4481D01*
X53528D01*
Y4448D01*
X53495D01*
Y4415D01*
X53528D01*
Y4382D01*
X53495D01*
Y4350D01*
X53528D01*
Y4317D01*
Y4284D01*
Y4251D01*
Y4218D01*
Y4185D01*
Y4153D01*
Y4120D01*
Y4087D01*
Y4054D01*
Y4021D01*
Y3988D01*
Y3956D01*
Y3923D01*
Y3890D01*
Y3857D01*
X53561D01*
Y3824D01*
X53528D01*
Y3791D01*
Y3759D01*
Y3726D01*
X53561D01*
Y3693D01*
X53528D01*
Y3660D01*
X53561D01*
Y3627D01*
Y3594D01*
Y3562D01*
X53528D01*
Y3529D01*
X53561D01*
Y3496D01*
Y3463D01*
Y3430D01*
X53528D01*
Y3398D01*
X53561D01*
Y3365D01*
Y3332D01*
Y3299D01*
Y3266D01*
Y3233D01*
Y3201D01*
Y3168D01*
Y3135D01*
Y3102D01*
X53593D01*
Y3069D01*
X53561D01*
Y3036D01*
Y3004D01*
Y2971D01*
X53593D01*
Y2938D01*
X53561D01*
Y2905D01*
Y2872D01*
Y2840D01*
X53593D01*
Y2807D01*
X53561D01*
Y2774D01*
X53528D01*
Y2741D01*
X53429D01*
Y2774D01*
X53396D01*
Y2741D01*
X53298D01*
Y2774D01*
X53265D01*
Y2741D01*
X53167D01*
Y2774D01*
X53134D01*
Y2741D01*
X53035D01*
Y2774D01*
X53068D01*
Y2807D01*
X53035D01*
Y2840D01*
X53068D01*
Y2872D01*
X53035D01*
Y2905D01*
X53068D01*
Y2938D01*
X53035D01*
Y2971D01*
X53068D01*
Y3004D01*
X53035D01*
Y3036D01*
X53068D01*
Y3069D01*
X53035D01*
Y3102D01*
X53068D01*
Y3135D01*
X53035D01*
Y3168D01*
Y3201D01*
Y3233D01*
X53068D01*
Y3266D01*
X53035D01*
Y3299D01*
Y3332D01*
Y3365D01*
X53068D01*
Y3398D01*
X53035D01*
Y3430D01*
Y3463D01*
Y3496D01*
X53068D01*
Y3529D01*
X53035D01*
Y3562D01*
Y3594D01*
Y3627D01*
Y3660D01*
Y3693D01*
Y3726D01*
Y3759D01*
Y3791D01*
Y3824D01*
Y3857D01*
Y3890D01*
Y3923D01*
Y3956D01*
X53003D01*
Y3988D01*
X53035D01*
Y4021D01*
Y4054D01*
Y4087D01*
X53003D01*
Y4120D01*
X53035D01*
Y4153D01*
Y4185D01*
Y4218D01*
X53003D01*
Y4251D01*
X53035D01*
Y4284D01*
X53003D01*
Y4317D01*
X53035D01*
Y4350D01*
X53003D01*
Y4382D01*
Y4415D01*
X53035D01*
Y4448D01*
Y4481D01*
X53003D01*
Y4514D01*
X52970D01*
Y4481D01*
X53003D01*
Y4448D01*
X52970D01*
Y4415D01*
Y4382D01*
Y4350D01*
X52937D01*
Y4317D01*
X52904D01*
Y4284D01*
X52937D01*
Y4251D01*
X52904D01*
Y4218D01*
Y4185D01*
X52871D01*
Y4153D01*
Y4120D01*
X52838D01*
Y4087D01*
X52871D01*
Y4054D01*
X52838D01*
Y4021D01*
X52806D01*
Y3988D01*
Y3956D01*
Y3923D01*
X52773D01*
Y3890D01*
X52806D01*
Y3857D01*
X52773D01*
Y3824D01*
X52740D01*
Y3791D01*
Y3759D01*
Y3726D01*
X52707D01*
Y3693D01*
Y3660D01*
Y3627D01*
X52674D01*
Y3594D01*
Y3562D01*
Y3529D01*
X52641D01*
Y3496D01*
Y3463D01*
Y3430D01*
X52609D01*
Y3398D01*
X52576D01*
Y3365D01*
X52609D01*
Y3332D01*
X52576D01*
Y3299D01*
Y3266D01*
X52543D01*
Y3233D01*
Y3201D01*
X52510D01*
Y3168D01*
Y3135D01*
Y3102D01*
X52412D01*
Y3135D01*
X52379D01*
Y3102D01*
X52412D01*
Y3069D01*
X52379D01*
Y3102D01*
X52280D01*
Y3135D01*
X52247D01*
Y3102D01*
X52280D01*
Y3069D01*
X52247D01*
Y3102D01*
X52149D01*
Y3135D01*
X52116D01*
Y3102D01*
X52149D01*
Y3069D01*
X52116D01*
Y3102D01*
X52083D01*
Y3135D01*
X52051D01*
Y3168D01*
X52083D01*
Y3201D01*
X52051D01*
Y3233D01*
Y3266D01*
Y3299D01*
X52018D01*
Y3332D01*
X51985D01*
Y3365D01*
X52018D01*
Y3398D01*
X51985D01*
Y3430D01*
Y3463D01*
X51952D01*
Y3496D01*
Y3529D01*
X51919D01*
Y3562D01*
X51952D01*
Y3594D01*
X51919D01*
Y3627D01*
X51886D01*
Y3660D01*
Y3693D01*
Y3726D01*
X51854D01*
Y3759D01*
X51886D01*
Y3791D01*
X51854D01*
Y3824D01*
X51821D01*
Y3857D01*
Y3890D01*
Y3923D01*
X51788D01*
Y3956D01*
Y3988D01*
Y4021D01*
X51755D01*
Y4054D01*
X51722D01*
Y4087D01*
X51755D01*
Y4120D01*
X51722D01*
Y4153D01*
Y4185D01*
Y4218D01*
X51689D01*
Y4251D01*
X51657D01*
Y4284D01*
X51689D01*
Y4317D01*
X51657D01*
Y4350D01*
X51624D01*
Y4382D01*
Y4415D01*
Y4448D01*
X51591D01*
Y4481D01*
X51558D01*
Y4448D01*
X51591D01*
Y4415D01*
Y4382D01*
Y4350D01*
Y4317D01*
Y4284D01*
Y4251D01*
Y4218D01*
X51558D01*
Y4185D01*
X51591D01*
Y4153D01*
Y4120D01*
Y4087D01*
X51558D01*
Y4054D01*
X51591D01*
Y4021D01*
Y3988D01*
Y3956D01*
X51558D01*
Y3923D01*
Y3890D01*
Y3857D01*
X51591D01*
Y3824D01*
X51558D01*
Y3791D01*
Y3759D01*
Y3726D01*
X51591D01*
Y3693D01*
X51558D01*
Y3660D01*
Y3627D01*
Y3594D01*
Y3562D01*
Y3529D01*
Y3496D01*
Y3463D01*
X51591D01*
Y3430D01*
X51558D01*
Y3398D01*
Y3365D01*
Y3332D01*
Y3299D01*
Y3266D01*
Y3233D01*
Y3201D01*
Y3168D01*
Y3135D01*
Y3102D01*
Y3069D01*
Y3036D01*
Y3004D01*
Y2971D01*
Y2938D01*
X51525D01*
Y2905D01*
X51558D01*
Y2872D01*
Y2840D01*
Y2807D01*
X51525D01*
Y2774D01*
X51558D01*
Y2741D01*
X51459D01*
Y2774D01*
X51427D01*
Y2741D01*
X51328D01*
Y2774D01*
X51295D01*
Y2741D01*
X51197D01*
Y2774D01*
X51164D01*
Y2741D01*
X51066D01*
Y2774D01*
X51033D01*
Y2807D01*
Y2840D01*
Y2872D01*
Y2905D01*
Y2938D01*
Y2971D01*
Y3004D01*
Y3036D01*
Y3069D01*
Y3102D01*
Y3135D01*
X51066D01*
Y3168D01*
X51033D01*
Y3201D01*
Y3233D01*
Y3266D01*
X51066D01*
Y3299D01*
X51033D01*
Y3332D01*
X51066D01*
Y3365D01*
X51033D01*
Y3398D01*
X51066D01*
Y3430D01*
X51033D01*
Y3463D01*
X51066D01*
Y3496D01*
Y3529D01*
Y3562D01*
X51033D01*
Y3594D01*
X51066D01*
Y3627D01*
Y3660D01*
Y3693D01*
Y3726D01*
Y3759D01*
Y3791D01*
Y3824D01*
Y3857D01*
Y3890D01*
X51098D01*
Y3923D01*
X51066D01*
Y3956D01*
Y3988D01*
Y4021D01*
X51098D01*
Y4054D01*
X51066D01*
Y4087D01*
Y4120D01*
Y4153D01*
X51098D01*
Y4185D01*
X51066D01*
Y4218D01*
X51098D01*
Y4251D01*
X51066D01*
Y4284D01*
X51098D01*
Y4317D01*
X51066D01*
Y4350D01*
X51098D01*
Y4382D01*
X51066D01*
Y4415D01*
X51098D01*
Y4448D01*
X51066D01*
Y4481D01*
X51098D01*
Y4514D01*
X51066D01*
Y4547D01*
X51098D01*
Y4579D01*
X51066D01*
Y4612D01*
X51098D01*
Y4645D01*
X51066D01*
Y4678D01*
X51098D01*
Y4711D01*
X51066D01*
Y4744D01*
X51098D01*
Y4776D01*
X51066D01*
Y4809D01*
X51098D01*
Y4842D01*
Y4875D01*
Y4908D01*
X51066D01*
Y4941D01*
X51098D01*
Y4973D01*
Y5006D01*
Y5039D01*
X51066D01*
Y5072D01*
X51098D01*
Y5105D01*
Y5138D01*
Y5170D01*
X51066D01*
Y5203D01*
X51098D01*
Y5236D01*
Y5269D01*
Y5302D01*
Y5334D01*
Y5367D01*
X51197D01*
Y5334D01*
X51230D01*
Y5367D01*
X51328D01*
Y5334D01*
X51361D01*
Y5367D01*
X51394D01*
Y5400D01*
X51427D01*
Y5367D01*
X51459D01*
Y5334D01*
X51492D01*
Y5367D01*
X51591D01*
Y5334D01*
X51624D01*
Y5367D01*
X51722D01*
Y5334D01*
X51755D01*
Y5302D01*
Y5269D01*
Y5236D01*
X51788D01*
Y5203D01*
Y5170D01*
Y5138D01*
X51821D01*
Y5105D01*
Y5072D01*
X51854D01*
Y5039D01*
Y5006D01*
X51886D01*
Y4973D01*
X51854D01*
Y4941D01*
X51886D01*
Y4908D01*
X51919D01*
Y4875D01*
Y4842D01*
Y4809D01*
X51952D01*
Y4776D01*
X51919D01*
Y4744D01*
X51952D01*
Y4711D01*
X51985D01*
Y4678D01*
X52018D01*
Y4645D01*
X51985D01*
Y4612D01*
X52018D01*
Y4579D01*
Y4547D01*
Y4514D01*
X52051D01*
Y4481D01*
X52083D01*
Y4448D01*
X52051D01*
Y4415D01*
X52083D01*
Y4382D01*
X52116D01*
Y4350D01*
Y4317D01*
Y4284D01*
X52149D01*
Y4251D01*
Y4218D01*
Y4185D01*
X52182D01*
Y4153D01*
Y4120D01*
Y4087D01*
X52215D01*
Y4054D01*
Y4021D01*
Y3988D01*
X52247D01*
Y3956D01*
X52280D01*
Y3923D01*
X52247D01*
Y3890D01*
X52280D01*
Y3857D01*
X52313D01*
Y3890D01*
Y3923D01*
Y3956D01*
X52346D01*
Y3988D01*
Y4021D01*
X52379D01*
Y4054D01*
Y4087D01*
X52412D01*
Y4120D01*
X52379D01*
Y4153D01*
X52412D01*
Y4185D01*
Y4218D01*
X52444D01*
Y4251D01*
Y4284D01*
X52477D01*
Y4317D01*
X52444D01*
Y4350D01*
X52477D01*
Y4382D01*
X52510D01*
Y4415D01*
X52543D01*
Y4448D01*
X52510D01*
Y4481D01*
X52543D01*
Y4514D01*
X52510D01*
Y4547D01*
X52543D01*
Y4579D01*
X52576D01*
Y4612D01*
X52609D01*
Y4645D01*
X52576D01*
Y4678D01*
X52609D01*
Y4711D01*
Y4744D01*
Y4776D01*
X52641D01*
Y4809D01*
X52674D01*
Y4842D01*
X52641D01*
Y4875D01*
X52674D01*
Y4908D01*
X52707D01*
Y4941D01*
Y4973D01*
Y5006D01*
X52740D01*
Y5039D01*
Y5072D01*
Y5105D01*
X52773D01*
Y5138D01*
Y5170D01*
Y5203D01*
X52806D01*
Y5236D01*
Y5269D01*
Y5302D01*
X52838D01*
Y5334D01*
X52871D01*
Y5367D01*
X52904D01*
Y5334D01*
X52937D01*
Y5367D01*
X52970D01*
Y5400D01*
X53003D01*
Y5367D01*
D02*
G37*
G36*
X50376D02*
X50409D01*
Y5334D01*
X50442D01*
Y5367D01*
X50540D01*
Y5334D01*
X50573D01*
Y5302D01*
Y5269D01*
Y5236D01*
X50540D01*
Y5203D01*
X50573D01*
Y5170D01*
Y5138D01*
Y5105D01*
X50540D01*
Y5072D01*
X50573D01*
Y5039D01*
Y5006D01*
Y4973D01*
X50540D01*
Y4941D01*
X50573D01*
Y4908D01*
Y4875D01*
Y4842D01*
X50540D01*
Y4809D01*
X50573D01*
Y4776D01*
Y4744D01*
Y4711D01*
X50540D01*
Y4678D01*
X50573D01*
Y4645D01*
Y4612D01*
Y4579D01*
X50540D01*
Y4547D01*
X50573D01*
Y4514D01*
Y4481D01*
Y4448D01*
X50540D01*
Y4415D01*
X50573D01*
Y4382D01*
Y4350D01*
Y4317D01*
X50540D01*
Y4284D01*
X50573D01*
Y4251D01*
Y4218D01*
Y4185D01*
X50540D01*
Y4153D01*
X50573D01*
Y4120D01*
Y4087D01*
Y4054D01*
X50540D01*
Y4021D01*
X50573D01*
Y3988D01*
Y3956D01*
Y3923D01*
X50540D01*
Y3890D01*
X50573D01*
Y3857D01*
Y3824D01*
Y3791D01*
X50540D01*
Y3759D01*
X50573D01*
Y3726D01*
Y3693D01*
Y3660D01*
X50540D01*
Y3627D01*
X50573D01*
Y3594D01*
Y3562D01*
Y3529D01*
X50540D01*
Y3496D01*
X50573D01*
Y3463D01*
Y3430D01*
Y3398D01*
X50540D01*
Y3365D01*
X50573D01*
Y3332D01*
Y3299D01*
Y3266D01*
X50540D01*
Y3233D01*
X50573D01*
Y3201D01*
Y3168D01*
Y3135D01*
X50540D01*
Y3102D01*
X50573D01*
Y3069D01*
Y3036D01*
Y3004D01*
X50540D01*
Y2971D01*
X50573D01*
Y2938D01*
Y2905D01*
Y2872D01*
X50540D01*
Y2840D01*
X50573D01*
Y2807D01*
Y2774D01*
Y2741D01*
X50540D01*
Y2774D01*
X50507D01*
Y2741D01*
X50409D01*
Y2774D01*
X50376D01*
Y2741D01*
X50278D01*
Y2774D01*
X50245D01*
Y2741D01*
X50146D01*
Y2774D01*
X50114D01*
Y2741D01*
X50081D01*
Y2774D01*
X50048D01*
Y2807D01*
Y2840D01*
Y2872D01*
Y2905D01*
Y2938D01*
Y2971D01*
Y3004D01*
Y3036D01*
Y3069D01*
Y3102D01*
Y3135D01*
Y3168D01*
Y3201D01*
X50081D01*
Y3233D01*
X50048D01*
Y3266D01*
Y3299D01*
Y3332D01*
Y3365D01*
Y3398D01*
Y3430D01*
Y3463D01*
Y3496D01*
Y3529D01*
Y3562D01*
Y3594D01*
Y3627D01*
Y3660D01*
Y3693D01*
Y3726D01*
X50081D01*
Y3759D01*
X50048D01*
Y3791D01*
Y3824D01*
Y3857D01*
Y3890D01*
Y3923D01*
Y3956D01*
Y3988D01*
Y4021D01*
Y4054D01*
Y4087D01*
Y4120D01*
Y4153D01*
Y4185D01*
Y4218D01*
Y4251D01*
X50081D01*
Y4284D01*
X50048D01*
Y4317D01*
Y4350D01*
Y4382D01*
Y4415D01*
Y4448D01*
Y4481D01*
Y4514D01*
Y4547D01*
Y4579D01*
Y4612D01*
Y4645D01*
Y4678D01*
Y4711D01*
Y4744D01*
Y4776D01*
X50081D01*
Y4809D01*
X50048D01*
Y4842D01*
Y4875D01*
Y4908D01*
Y4941D01*
Y4973D01*
Y5006D01*
Y5039D01*
Y5072D01*
Y5105D01*
Y5138D01*
Y5170D01*
Y5203D01*
Y5236D01*
Y5269D01*
Y5302D01*
Y5334D01*
Y5367D01*
X50146D01*
Y5334D01*
X50179D01*
Y5367D01*
X50278D01*
Y5334D01*
X50310D01*
Y5367D01*
X50343D01*
Y5400D01*
X50376D01*
Y5367D01*
D02*
G37*
G36*
X49326D02*
X49358D01*
Y5334D01*
X49391D01*
Y5367D01*
X49490D01*
Y5334D01*
X49523D01*
Y5367D01*
X49556D01*
Y5334D01*
X49588D01*
Y5302D01*
X49556D01*
Y5269D01*
X49588D01*
Y5236D01*
X49556D01*
Y5203D01*
X49588D01*
Y5170D01*
X49556D01*
Y5138D01*
X49588D01*
Y5105D01*
X49556D01*
Y5072D01*
X49588D01*
Y5039D01*
X49556D01*
Y5006D01*
X49588D01*
Y4973D01*
X49556D01*
Y4941D01*
X49588D01*
Y4908D01*
X49556D01*
Y4875D01*
X49588D01*
Y4842D01*
X49556D01*
Y4809D01*
X49588D01*
Y4776D01*
X49556D01*
Y4744D01*
X49588D01*
Y4711D01*
X49556D01*
Y4678D01*
X49588D01*
Y4645D01*
X49556D01*
Y4612D01*
X49588D01*
Y4579D01*
X49556D01*
Y4547D01*
X49588D01*
Y4514D01*
X49556D01*
Y4481D01*
X49588D01*
Y4448D01*
X49556D01*
Y4415D01*
X49588D01*
Y4382D01*
X49556D01*
Y4350D01*
X49588D01*
Y4317D01*
X49556D01*
Y4284D01*
X49588D01*
Y4251D01*
X49556D01*
Y4218D01*
X49588D01*
Y4185D01*
X49556D01*
Y4153D01*
X49588D01*
Y4120D01*
X49556D01*
Y4087D01*
X49588D01*
Y4054D01*
X49556D01*
Y4021D01*
X49588D01*
Y3988D01*
X49556D01*
Y3956D01*
X49588D01*
Y3923D01*
X49556D01*
Y3890D01*
X49588D01*
Y3857D01*
X49556D01*
Y3824D01*
X49588D01*
Y3791D01*
X49556D01*
Y3759D01*
X49588D01*
Y3726D01*
X49556D01*
Y3693D01*
X49588D01*
Y3660D01*
X49556D01*
Y3627D01*
X49588D01*
Y3594D01*
X49556D01*
Y3562D01*
X49588D01*
Y3529D01*
X49556D01*
Y3496D01*
X49588D01*
Y3463D01*
X49556D01*
Y3430D01*
X49588D01*
Y3398D01*
X49556D01*
Y3365D01*
X49588D01*
Y3332D01*
X49556D01*
Y3299D01*
X49588D01*
Y3266D01*
X49556D01*
Y3233D01*
X49588D01*
Y3201D01*
X49556D01*
Y3168D01*
X49588D01*
Y3135D01*
X49556D01*
Y3102D01*
X49588D01*
Y3069D01*
X49556D01*
Y3036D01*
X49588D01*
Y3004D01*
X49556D01*
Y2971D01*
X49588D01*
Y2938D01*
X49556D01*
Y2905D01*
X49588D01*
Y2872D01*
X49556D01*
Y2840D01*
X49588D01*
Y2807D01*
X49556D01*
Y2774D01*
X49588D01*
Y2741D01*
X49490D01*
Y2774D01*
X49457D01*
Y2741D01*
X49358D01*
Y2774D01*
X49326D01*
Y2741D01*
X49227D01*
Y2774D01*
X49194D01*
Y2741D01*
X49096D01*
Y2774D01*
X49063D01*
Y2741D01*
X48965D01*
Y2774D01*
X48932D01*
Y2741D01*
X48833D01*
Y2774D01*
X48800D01*
Y2741D01*
X48768D01*
Y2774D01*
X48735D01*
Y2741D01*
X48702D01*
Y2774D01*
X48669D01*
Y2741D01*
X48636D01*
Y2774D01*
X48538D01*
Y2807D01*
X48374D01*
Y2840D01*
X48341D01*
Y2872D01*
X48242D01*
Y2905D01*
X48210D01*
Y2938D01*
X48111D01*
Y2971D01*
X48078D01*
Y3004D01*
X48045D01*
Y3036D01*
X48013D01*
Y3069D01*
X47980D01*
Y3102D01*
X47947D01*
Y3135D01*
X47914D01*
Y3168D01*
X47881D01*
Y3201D01*
X47848D01*
Y3233D01*
X47881D01*
Y3266D01*
X47848D01*
Y3299D01*
X47816D01*
Y3332D01*
X47783D01*
Y3365D01*
X47816D01*
Y3398D01*
X47783D01*
Y3430D01*
X47750D01*
Y3463D01*
X47717D01*
Y3496D01*
X47750D01*
Y3529D01*
X47717D01*
Y3562D01*
Y3594D01*
Y3627D01*
X47684D01*
Y3660D01*
Y3693D01*
Y3726D01*
X47651D01*
Y3759D01*
X47684D01*
Y3791D01*
X47651D01*
Y3824D01*
Y3857D01*
Y3890D01*
X47684D01*
Y3923D01*
X47651D01*
Y3956D01*
Y3988D01*
Y4021D01*
Y4054D01*
Y4087D01*
Y4120D01*
Y4153D01*
Y4185D01*
Y4218D01*
Y4251D01*
Y4284D01*
X47684D01*
Y4317D01*
X47651D01*
Y4350D01*
X47684D01*
Y4382D01*
X47651D01*
Y4415D01*
X47684D01*
Y4448D01*
Y4481D01*
Y4514D01*
X47717D01*
Y4547D01*
Y4579D01*
Y4612D01*
X47750D01*
Y4645D01*
X47717D01*
Y4678D01*
X47750D01*
Y4711D01*
X47783D01*
Y4744D01*
Y4776D01*
Y4809D01*
X47816D01*
Y4842D01*
X47848D01*
Y4875D01*
X47881D01*
Y4908D01*
Y4941D01*
X47914D01*
Y4973D01*
Y5006D01*
X47947D01*
Y5039D01*
X47980D01*
Y5072D01*
X48013D01*
Y5105D01*
X48045D01*
Y5138D01*
X48144D01*
Y5170D01*
Y5203D01*
X48210D01*
Y5236D01*
X48242D01*
Y5269D01*
X48275D01*
Y5236D01*
X48308D01*
Y5269D01*
X48341D01*
Y5302D01*
X48374D01*
Y5269D01*
X48406D01*
Y5302D01*
X48439D01*
Y5334D01*
X48603D01*
Y5367D01*
X48636D01*
Y5334D01*
X48669D01*
Y5367D01*
X48702D01*
Y5334D01*
X48735D01*
Y5367D01*
X48768D01*
Y5400D01*
X48800D01*
Y5367D01*
X48833D01*
Y5334D01*
X48866D01*
Y5367D01*
X48965D01*
Y5334D01*
X48997D01*
Y5367D01*
X49096D01*
Y5334D01*
X49129D01*
Y5367D01*
X49227D01*
Y5334D01*
X49260D01*
Y5367D01*
X49293D01*
Y5400D01*
X49326D01*
Y5367D01*
D02*
G37*
G36*
X47225D02*
X47258D01*
Y5334D01*
X47290D01*
Y5302D01*
X47258D01*
Y5269D01*
X47290D01*
Y5236D01*
X47258D01*
Y5203D01*
X47290D01*
Y5170D01*
X47258D01*
Y5138D01*
X47290D01*
Y5105D01*
X47258D01*
Y5072D01*
X47290D01*
Y5039D01*
X47258D01*
Y5006D01*
X47290D01*
Y4973D01*
X47258D01*
Y4941D01*
X47290D01*
Y4908D01*
X47258D01*
Y4875D01*
X47290D01*
Y4842D01*
X47258D01*
Y4809D01*
X47290D01*
Y4776D01*
X47258D01*
Y4744D01*
X47290D01*
Y4711D01*
X47258D01*
Y4678D01*
X47290D01*
Y4645D01*
X47258D01*
Y4612D01*
X47290D01*
Y4579D01*
X47258D01*
Y4547D01*
X47290D01*
Y4514D01*
X47258D01*
Y4481D01*
X47290D01*
Y4448D01*
X47258D01*
Y4415D01*
X47290D01*
Y4382D01*
X47258D01*
Y4350D01*
X47290D01*
Y4317D01*
X47258D01*
Y4284D01*
X47290D01*
Y4251D01*
X47258D01*
Y4218D01*
X47290D01*
Y4185D01*
X47258D01*
Y4153D01*
X47290D01*
Y4120D01*
X47258D01*
Y4087D01*
X47290D01*
Y4054D01*
X47258D01*
Y4021D01*
X47290D01*
Y3988D01*
X47258D01*
Y3956D01*
X47290D01*
Y3923D01*
X47258D01*
Y3890D01*
X47290D01*
Y3857D01*
X47258D01*
Y3824D01*
X47290D01*
Y3791D01*
X47258D01*
Y3759D01*
X47290D01*
Y3726D01*
X47258D01*
Y3693D01*
X47290D01*
Y3660D01*
X47258D01*
Y3627D01*
X47290D01*
Y3594D01*
X47258D01*
Y3562D01*
X47290D01*
Y3529D01*
X47258D01*
Y3496D01*
X47290D01*
Y3463D01*
X47258D01*
Y3430D01*
X47290D01*
Y3398D01*
X47258D01*
Y3365D01*
X47290D01*
Y3332D01*
X47258D01*
Y3299D01*
X47290D01*
Y3266D01*
X47258D01*
Y3233D01*
X47290D01*
Y3201D01*
X47258D01*
Y3168D01*
X47290D01*
Y3135D01*
X47258D01*
Y3102D01*
X47290D01*
Y3069D01*
X47258D01*
Y3036D01*
X47290D01*
Y3004D01*
X47258D01*
Y2971D01*
X47290D01*
Y2938D01*
X47258D01*
Y2905D01*
X47290D01*
Y2872D01*
X47258D01*
Y2840D01*
X47290D01*
Y2807D01*
X47258D01*
Y2774D01*
X47225D01*
Y2741D01*
X47126D01*
Y2774D01*
X47093D01*
Y2741D01*
X46995D01*
Y2774D01*
X46962D01*
Y2741D01*
X46864D01*
Y2774D01*
X46831D01*
Y2741D01*
X46798D01*
Y2774D01*
X46765D01*
Y2807D01*
Y2840D01*
Y2872D01*
Y2905D01*
Y2938D01*
Y2971D01*
Y3004D01*
Y3036D01*
Y3069D01*
Y3102D01*
Y3135D01*
Y3168D01*
Y3201D01*
Y3233D01*
Y3266D01*
Y3299D01*
Y3332D01*
Y3365D01*
Y3398D01*
Y3430D01*
Y3463D01*
Y3496D01*
Y3529D01*
Y3562D01*
Y3594D01*
Y3627D01*
Y3660D01*
Y3693D01*
Y3726D01*
Y3759D01*
Y3791D01*
Y3824D01*
Y3857D01*
Y3890D01*
Y3923D01*
Y3956D01*
Y3988D01*
Y4021D01*
Y4054D01*
Y4087D01*
Y4120D01*
Y4153D01*
Y4185D01*
Y4218D01*
Y4251D01*
Y4284D01*
Y4317D01*
Y4350D01*
Y4382D01*
X46732D01*
Y4350D01*
X46699D01*
Y4317D01*
X46667D01*
Y4284D01*
Y4251D01*
X46634D01*
Y4218D01*
Y4185D01*
X46601D01*
Y4153D01*
X46568D01*
Y4120D01*
X46535D01*
Y4087D01*
X46568D01*
Y4054D01*
X46535D01*
Y4021D01*
X46502D01*
Y3988D01*
X46470D01*
Y3956D01*
X46437D01*
Y3923D01*
Y3890D01*
Y3857D01*
X46404D01*
Y3824D01*
X46371D01*
Y3791D01*
X46338D01*
Y3759D01*
X46371D01*
Y3726D01*
X46338D01*
Y3693D01*
X46306D01*
Y3660D01*
X46273D01*
Y3627D01*
Y3594D01*
X46240D01*
Y3562D01*
Y3529D01*
X46207D01*
Y3496D01*
X46174D01*
Y3463D01*
X46141D01*
Y3430D01*
X46174D01*
Y3398D01*
X46141D01*
Y3365D01*
X46108D01*
Y3332D01*
X46076D01*
Y3299D01*
Y3266D01*
X46043D01*
Y3233D01*
Y3201D01*
X46010D01*
Y3168D01*
X45977D01*
Y3135D01*
X45944D01*
Y3102D01*
X45977D01*
Y3069D01*
X45944D01*
Y3036D01*
X45911D01*
Y3004D01*
X45879D01*
Y2971D01*
Y2938D01*
X45846D01*
Y2905D01*
Y2872D01*
X45813D01*
Y2840D01*
X45780D01*
Y2807D01*
X45747D01*
Y2774D01*
X45780D01*
Y2741D01*
X45682D01*
Y2774D01*
X45649D01*
Y2741D01*
X45551D01*
Y2774D01*
X45518D01*
Y2741D01*
X45419D01*
Y2774D01*
X45386D01*
Y2741D01*
X45288D01*
Y2774D01*
X45255D01*
Y2807D01*
Y2840D01*
Y2872D01*
X45288D01*
Y2905D01*
X45255D01*
Y2938D01*
Y2971D01*
Y3004D01*
X45288D01*
Y3036D01*
X45255D01*
Y3069D01*
Y3102D01*
Y3135D01*
X45288D01*
Y3168D01*
X45255D01*
Y3201D01*
Y3233D01*
Y3266D01*
X45288D01*
Y3299D01*
X45255D01*
Y3332D01*
Y3365D01*
Y3398D01*
X45288D01*
Y3430D01*
X45255D01*
Y3463D01*
Y3496D01*
Y3529D01*
X45288D01*
Y3562D01*
X45255D01*
Y3594D01*
Y3627D01*
Y3660D01*
X45288D01*
Y3693D01*
X45255D01*
Y3726D01*
Y3759D01*
Y3791D01*
X45288D01*
Y3824D01*
X45255D01*
Y3857D01*
Y3890D01*
Y3923D01*
X45288D01*
Y3956D01*
X45255D01*
Y3988D01*
Y4021D01*
Y4054D01*
X45288D01*
Y4087D01*
X45255D01*
Y4120D01*
Y4153D01*
Y4185D01*
X45288D01*
Y4218D01*
X45255D01*
Y4251D01*
Y4284D01*
Y4317D01*
X45288D01*
Y4350D01*
X45255D01*
Y4382D01*
Y4415D01*
Y4448D01*
X45288D01*
Y4481D01*
X45255D01*
Y4514D01*
Y4547D01*
Y4579D01*
X45288D01*
Y4612D01*
X45255D01*
Y4645D01*
Y4678D01*
Y4711D01*
X45288D01*
Y4744D01*
X45255D01*
Y4776D01*
Y4809D01*
Y4842D01*
X45288D01*
Y4875D01*
X45255D01*
Y4908D01*
Y4941D01*
Y4973D01*
X45288D01*
Y5006D01*
X45255D01*
Y5039D01*
Y5072D01*
Y5105D01*
X45288D01*
Y5138D01*
X45255D01*
Y5170D01*
Y5203D01*
Y5236D01*
X45288D01*
Y5269D01*
X45255D01*
Y5302D01*
Y5334D01*
Y5367D01*
X45288D01*
Y5334D01*
X45321D01*
Y5367D01*
X45419D01*
Y5334D01*
X45452D01*
Y5367D01*
X45551D01*
Y5334D01*
X45583D01*
Y5367D01*
X45616D01*
Y5400D01*
X45649D01*
Y5367D01*
X45682D01*
Y5334D01*
X45715D01*
Y5367D01*
X45747D01*
Y5334D01*
X45780D01*
Y5302D01*
X45747D01*
Y5269D01*
X45780D01*
Y5236D01*
X45747D01*
Y5203D01*
X45780D01*
Y5170D01*
X45747D01*
Y5138D01*
X45780D01*
Y5105D01*
X45747D01*
Y5072D01*
X45780D01*
Y5039D01*
X45747D01*
Y5006D01*
X45780D01*
Y4973D01*
X45747D01*
Y4941D01*
X45780D01*
Y4908D01*
X45747D01*
Y4875D01*
X45780D01*
Y4842D01*
X45747D01*
Y4809D01*
X45780D01*
Y4776D01*
X45747D01*
Y4744D01*
X45780D01*
Y4711D01*
X45747D01*
Y4678D01*
X45780D01*
Y4645D01*
X45747D01*
Y4612D01*
X45780D01*
Y4579D01*
X45747D01*
Y4547D01*
X45780D01*
Y4514D01*
X45747D01*
Y4481D01*
X45780D01*
Y4448D01*
X45747D01*
Y4415D01*
X45780D01*
Y4382D01*
X45747D01*
Y4350D01*
X45780D01*
Y4317D01*
X45747D01*
Y4284D01*
X45780D01*
Y4251D01*
X45747D01*
Y4218D01*
X45780D01*
Y4185D01*
X45747D01*
Y4153D01*
X45780D01*
Y4120D01*
X45747D01*
Y4087D01*
X45780D01*
Y4054D01*
X45747D01*
Y4021D01*
X45780D01*
Y3988D01*
X45747D01*
Y3956D01*
X45780D01*
Y3923D01*
X45747D01*
Y3890D01*
X45780D01*
Y3857D01*
X45747D01*
Y3824D01*
X45780D01*
Y3791D01*
X45747D01*
Y3759D01*
X45780D01*
Y3726D01*
X45813D01*
Y3759D01*
X45846D01*
Y3791D01*
Y3824D01*
X45879D01*
Y3857D01*
Y3890D01*
X45911D01*
Y3923D01*
X45944D01*
Y3956D01*
Y3988D01*
Y4021D01*
X45977D01*
Y4054D01*
X46010D01*
Y4087D01*
X46043D01*
Y4120D01*
Y4153D01*
Y4185D01*
X46076D01*
Y4218D01*
X46108D01*
Y4251D01*
Y4284D01*
X46141D01*
Y4317D01*
Y4350D01*
X46174D01*
Y4382D01*
X46207D01*
Y4415D01*
X46240D01*
Y4448D01*
Y4481D01*
Y4514D01*
X46273D01*
Y4547D01*
X46306D01*
Y4579D01*
Y4612D01*
Y4645D01*
X46338D01*
Y4678D01*
X46371D01*
Y4711D01*
X46404D01*
Y4744D01*
X46437D01*
Y4776D01*
X46404D01*
Y4809D01*
X46437D01*
Y4842D01*
X46470D01*
Y4875D01*
X46502D01*
Y4908D01*
X46470D01*
Y4941D01*
X46502D01*
Y4973D01*
X46535D01*
Y5006D01*
X46568D01*
Y5039D01*
Y5072D01*
X46601D01*
Y5105D01*
Y5138D01*
X46634D01*
Y5170D01*
X46667D01*
Y5203D01*
X46699D01*
Y5236D01*
X46667D01*
Y5269D01*
X46699D01*
Y5302D01*
X46732D01*
Y5334D01*
X46765D01*
Y5367D01*
X46864D01*
Y5334D01*
X46896D01*
Y5367D01*
X46995D01*
Y5334D01*
X47028D01*
Y5367D01*
X47126D01*
Y5334D01*
X47159D01*
Y5367D01*
X47192D01*
Y5400D01*
X47225D01*
Y5367D01*
D02*
G37*
G36*
X44598D02*
X44631D01*
Y5334D01*
X44664D01*
Y5367D01*
X44763D01*
Y5334D01*
X44795D01*
Y5302D01*
Y5269D01*
Y5236D01*
X44763D01*
Y5203D01*
X44795D01*
Y5170D01*
Y5138D01*
Y5105D01*
X44763D01*
Y5072D01*
X44795D01*
Y5039D01*
Y5006D01*
Y4973D01*
X44763D01*
Y4941D01*
X44795D01*
Y4908D01*
X44763D01*
Y4875D01*
X44795D01*
Y4842D01*
X44763D01*
Y4809D01*
X44795D01*
Y4776D01*
Y4744D01*
Y4711D01*
X44763D01*
Y4678D01*
X44795D01*
Y4645D01*
Y4612D01*
Y4579D01*
X44763D01*
Y4547D01*
X44795D01*
Y4514D01*
Y4481D01*
Y4448D01*
X44763D01*
Y4415D01*
X44795D01*
Y4382D01*
X44763D01*
Y4350D01*
X44795D01*
Y4317D01*
X44763D01*
Y4284D01*
X44795D01*
Y4251D01*
Y4218D01*
Y4185D01*
X44763D01*
Y4153D01*
X44795D01*
Y4120D01*
Y4087D01*
Y4054D01*
X44763D01*
Y4021D01*
X44795D01*
Y3988D01*
Y3956D01*
Y3923D01*
X44763D01*
Y3890D01*
X44795D01*
Y3857D01*
X44763D01*
Y3824D01*
X44795D01*
Y3791D01*
X44763D01*
Y3759D01*
X44795D01*
Y3726D01*
Y3693D01*
Y3660D01*
X44763D01*
Y3627D01*
X44795D01*
Y3594D01*
Y3562D01*
Y3529D01*
X44763D01*
Y3496D01*
X44795D01*
Y3463D01*
Y3430D01*
Y3398D01*
X44763D01*
Y3365D01*
X44795D01*
Y3332D01*
X44763D01*
Y3299D01*
X44795D01*
Y3266D01*
X44763D01*
Y3233D01*
X44795D01*
Y3201D01*
Y3168D01*
Y3135D01*
X44763D01*
Y3102D01*
X44795D01*
Y3069D01*
Y3036D01*
Y3004D01*
X44763D01*
Y2971D01*
X44795D01*
Y2938D01*
Y2905D01*
Y2872D01*
X44763D01*
Y2840D01*
X44795D01*
Y2807D01*
Y2774D01*
Y2741D01*
X44763D01*
Y2774D01*
X44730D01*
Y2741D01*
X44631D01*
Y2774D01*
X44598D01*
Y2741D01*
X44500D01*
Y2774D01*
X44467D01*
Y2741D01*
X44369D01*
Y2774D01*
X44336D01*
Y2741D01*
X44303D01*
Y2774D01*
X44270D01*
Y2807D01*
Y2840D01*
Y2872D01*
Y2905D01*
Y2938D01*
Y2971D01*
Y3004D01*
Y3036D01*
Y3069D01*
Y3102D01*
Y3135D01*
Y3168D01*
Y3201D01*
Y3233D01*
Y3266D01*
Y3299D01*
Y3332D01*
Y3365D01*
Y3398D01*
Y3430D01*
Y3463D01*
Y3496D01*
Y3529D01*
Y3562D01*
Y3594D01*
Y3627D01*
Y3660D01*
Y3693D01*
Y3726D01*
Y3759D01*
Y3791D01*
Y3824D01*
Y3857D01*
Y3890D01*
Y3923D01*
Y3956D01*
Y3988D01*
Y4021D01*
Y4054D01*
Y4087D01*
Y4120D01*
Y4153D01*
Y4185D01*
Y4218D01*
Y4251D01*
Y4284D01*
Y4317D01*
Y4350D01*
Y4382D01*
Y4415D01*
Y4448D01*
Y4481D01*
Y4514D01*
Y4547D01*
Y4579D01*
Y4612D01*
Y4645D01*
Y4678D01*
Y4711D01*
Y4744D01*
Y4776D01*
Y4809D01*
Y4842D01*
Y4875D01*
Y4908D01*
Y4941D01*
Y4973D01*
Y5006D01*
Y5039D01*
Y5072D01*
Y5105D01*
Y5138D01*
Y5170D01*
Y5203D01*
Y5236D01*
Y5269D01*
Y5302D01*
Y5334D01*
Y5367D01*
X44369D01*
Y5334D01*
X44401D01*
Y5367D01*
X44500D01*
Y5334D01*
X44533D01*
Y5367D01*
X44566D01*
Y5400D01*
X44598D01*
Y5367D01*
D02*
G37*
G36*
X41414Y5334D02*
X41381D01*
Y5367D01*
X41414D01*
Y5334D01*
D02*
G37*
G36*
X38821Y5367D02*
X38853D01*
Y5334D01*
X38886D01*
Y5367D01*
X38985D01*
Y5334D01*
X39018D01*
Y5367D01*
X39116D01*
Y5334D01*
X39149D01*
Y5367D01*
X39215D01*
Y5334D01*
Y5302D01*
X39247D01*
Y5269D01*
X39215D01*
Y5236D01*
X39247D01*
Y5203D01*
X39215D01*
Y5170D01*
X39247D01*
Y5138D01*
X39215D01*
Y5105D01*
Y5072D01*
Y5039D01*
X39247D01*
Y5006D01*
X39215D01*
Y4973D01*
X39247D01*
Y4941D01*
X39215D01*
Y4908D01*
X38591D01*
Y4875D01*
X38624D01*
Y4842D01*
X38591D01*
Y4809D01*
X38624D01*
Y4776D01*
X38591D01*
Y4744D01*
X38624D01*
Y4711D01*
X38591D01*
Y4678D01*
X38624D01*
Y4645D01*
X38591D01*
Y4612D01*
X38624D01*
Y4579D01*
X38591D01*
Y4547D01*
X38624D01*
Y4514D01*
X38591D01*
Y4481D01*
X38624D01*
Y4448D01*
X38591D01*
Y4415D01*
X38624D01*
Y4382D01*
X38591D01*
Y4350D01*
X38624D01*
Y4317D01*
X38591D01*
Y4284D01*
X38624D01*
Y4251D01*
X38591D01*
Y4218D01*
X38624D01*
Y4185D01*
X38591D01*
Y4153D01*
X38624D01*
Y4120D01*
X38591D01*
Y4087D01*
X38624D01*
Y4054D01*
X38591D01*
Y4021D01*
X38624D01*
Y3988D01*
X38591D01*
Y3956D01*
X38624D01*
Y3923D01*
X38591D01*
Y3890D01*
X38624D01*
Y3857D01*
X38591D01*
Y3824D01*
X38624D01*
Y3791D01*
X38591D01*
Y3759D01*
X38624D01*
Y3726D01*
X38591D01*
Y3693D01*
X38624D01*
Y3660D01*
X38591D01*
Y3627D01*
X38624D01*
Y3594D01*
X38591D01*
Y3562D01*
X38624D01*
Y3529D01*
X38591D01*
Y3496D01*
X38624D01*
Y3463D01*
X38591D01*
Y3430D01*
X38624D01*
Y3398D01*
X38591D01*
Y3365D01*
X38624D01*
Y3332D01*
X38591D01*
Y3299D01*
X38624D01*
Y3266D01*
X38591D01*
Y3233D01*
X38624D01*
Y3201D01*
X38591D01*
Y3168D01*
X38624D01*
Y3135D01*
X38591D01*
Y3102D01*
X38624D01*
Y3069D01*
X38591D01*
Y3036D01*
X38624D01*
Y3004D01*
X38591D01*
Y2971D01*
X38624D01*
Y2938D01*
X38591D01*
Y2905D01*
X38624D01*
Y2872D01*
X38591D01*
Y2840D01*
X38624D01*
Y2807D01*
X38591D01*
Y2774D01*
X38558D01*
Y2741D01*
X38460D01*
Y2774D01*
X38427D01*
Y2741D01*
X38328D01*
Y2774D01*
X38295D01*
Y2741D01*
X38197D01*
Y2774D01*
X38164D01*
Y2741D01*
X38131D01*
Y2774D01*
X38098D01*
Y2807D01*
X38066D01*
Y2840D01*
X38098D01*
Y2872D01*
Y2905D01*
Y2938D01*
X38066D01*
Y2971D01*
X38098D01*
Y3004D01*
Y3036D01*
Y3069D01*
X38066D01*
Y3102D01*
X38098D01*
Y3135D01*
Y3168D01*
Y3201D01*
X38066D01*
Y3233D01*
X38098D01*
Y3266D01*
Y3299D01*
Y3332D01*
X38066D01*
Y3365D01*
X38098D01*
Y3398D01*
Y3430D01*
Y3463D01*
X38066D01*
Y3496D01*
X38098D01*
Y3529D01*
Y3562D01*
Y3594D01*
X38066D01*
Y3627D01*
X38098D01*
Y3660D01*
Y3693D01*
Y3726D01*
X38066D01*
Y3759D01*
X38098D01*
Y3791D01*
Y3824D01*
Y3857D01*
X38066D01*
Y3890D01*
X38098D01*
Y3923D01*
Y3956D01*
Y3988D01*
X38066D01*
Y4021D01*
X38098D01*
Y4054D01*
Y4087D01*
Y4120D01*
X38066D01*
Y4153D01*
X38098D01*
Y4185D01*
Y4218D01*
Y4251D01*
X38066D01*
Y4284D01*
X38098D01*
Y4317D01*
Y4350D01*
Y4382D01*
X38066D01*
Y4415D01*
X38098D01*
Y4448D01*
Y4481D01*
Y4514D01*
X38066D01*
Y4547D01*
X38098D01*
Y4579D01*
Y4612D01*
Y4645D01*
X38066D01*
Y4678D01*
X38098D01*
Y4711D01*
Y4744D01*
Y4776D01*
X38066D01*
Y4809D01*
X38098D01*
Y4842D01*
Y4875D01*
Y4908D01*
X37475D01*
Y4941D01*
Y4973D01*
Y5006D01*
Y5039D01*
Y5072D01*
Y5105D01*
Y5138D01*
Y5170D01*
Y5203D01*
Y5236D01*
Y5269D01*
Y5302D01*
Y5334D01*
Y5367D01*
X37540D01*
Y5334D01*
X37573D01*
Y5367D01*
X37672D01*
Y5334D01*
X37704D01*
Y5367D01*
X37737D01*
Y5400D01*
X37770D01*
Y5367D01*
X37803D01*
Y5334D01*
X37836D01*
Y5367D01*
X37934D01*
Y5334D01*
X37967D01*
Y5367D01*
X38066D01*
Y5334D01*
X38098D01*
Y5367D01*
X38197D01*
Y5334D01*
X38230D01*
Y5367D01*
X38263D01*
Y5400D01*
X38295D01*
Y5367D01*
X38328D01*
Y5334D01*
X38361D01*
Y5367D01*
X38460D01*
Y5334D01*
X38492D01*
Y5367D01*
X38591D01*
Y5334D01*
X38624D01*
Y5367D01*
X38722D01*
Y5334D01*
X38755D01*
Y5367D01*
X38788D01*
Y5400D01*
X38821D01*
Y5367D01*
D02*
G37*
G36*
X34093D02*
X34126D01*
Y5334D01*
X34159D01*
Y5367D01*
X34258D01*
Y5334D01*
X34290D01*
Y5367D01*
X34389D01*
Y5334D01*
X34422D01*
Y5302D01*
Y5269D01*
Y5236D01*
X34389D01*
Y5203D01*
X34422D01*
Y5170D01*
Y5138D01*
Y5105D01*
X34389D01*
Y5072D01*
X34422D01*
Y5039D01*
Y5006D01*
Y4973D01*
X34389D01*
Y4941D01*
X34422D01*
Y4908D01*
Y4875D01*
Y4842D01*
X34389D01*
Y4809D01*
X34422D01*
Y4776D01*
Y4744D01*
Y4711D01*
X34389D01*
Y4678D01*
X34422D01*
Y4645D01*
Y4612D01*
Y4579D01*
X34389D01*
Y4547D01*
X34422D01*
Y4514D01*
Y4481D01*
Y4448D01*
X34389D01*
Y4415D01*
X34422D01*
Y4382D01*
Y4350D01*
Y4317D01*
X34389D01*
Y4284D01*
X34422D01*
Y4251D01*
Y4218D01*
Y4185D01*
X34389D01*
Y4153D01*
X34422D01*
Y4120D01*
Y4087D01*
Y4054D01*
X34389D01*
Y4021D01*
X34422D01*
Y3988D01*
Y3956D01*
Y3923D01*
X34389D01*
Y3890D01*
X34422D01*
Y3857D01*
Y3824D01*
Y3791D01*
X34389D01*
Y3759D01*
X34422D01*
Y3726D01*
Y3693D01*
Y3660D01*
X34389D01*
Y3627D01*
X34422D01*
Y3594D01*
X34389D01*
Y3562D01*
X34422D01*
Y3529D01*
X34389D01*
Y3496D01*
X34422D01*
Y3463D01*
X34389D01*
Y3430D01*
Y3398D01*
Y3365D01*
X34356D01*
Y3332D01*
Y3299D01*
Y3266D01*
X34323D01*
Y3233D01*
X34356D01*
Y3201D01*
X34323D01*
Y3168D01*
X34290D01*
Y3135D01*
X34258D01*
Y3102D01*
X34290D01*
Y3069D01*
X34258D01*
Y3036D01*
X34225D01*
Y3004D01*
X34192D01*
Y2971D01*
X34159D01*
Y2938D01*
X34126D01*
Y2905D01*
X34093D01*
Y2872D01*
X34060D01*
Y2840D01*
X34028D01*
Y2807D01*
X33929D01*
Y2774D01*
X33831D01*
Y2741D01*
X33667D01*
Y2708D01*
X33634D01*
Y2741D01*
X33601D01*
Y2708D01*
X33502D01*
Y2741D01*
X33470D01*
Y2708D01*
X33502D01*
Y2675D01*
X33470D01*
Y2708D01*
X33371D01*
Y2741D01*
X33338D01*
Y2708D01*
X33305D01*
Y2741D01*
X33273D01*
Y2708D01*
X33240D01*
Y2741D01*
X33141D01*
Y2774D01*
X33043D01*
Y2807D01*
X33010D01*
Y2840D01*
X32977D01*
Y2872D01*
X32879D01*
Y2905D01*
X32846D01*
Y2938D01*
X32813D01*
Y2971D01*
X32780D01*
Y3004D01*
X32747D01*
Y3036D01*
X32715D01*
Y3069D01*
X32682D01*
Y3102D01*
X32715D01*
Y3135D01*
X32682D01*
Y3168D01*
X32649D01*
Y3201D01*
X32616D01*
Y3233D01*
X32649D01*
Y3266D01*
X32616D01*
Y3299D01*
X32583D01*
Y3332D01*
Y3365D01*
Y3398D01*
X32550D01*
Y3430D01*
X32583D01*
Y3463D01*
X32550D01*
Y3496D01*
X32583D01*
Y3529D01*
X32550D01*
Y3562D01*
Y3594D01*
Y3627D01*
Y3660D01*
Y3693D01*
X32518D01*
Y3726D01*
X32550D01*
Y3759D01*
Y3791D01*
Y3824D01*
X32518D01*
Y3857D01*
X32550D01*
Y3890D01*
Y3923D01*
Y3956D01*
X32518D01*
Y3988D01*
X32550D01*
Y4021D01*
Y4054D01*
Y4087D01*
X32518D01*
Y4120D01*
X32550D01*
Y4153D01*
Y4185D01*
Y4218D01*
X32518D01*
Y4251D01*
X32550D01*
Y4284D01*
Y4317D01*
Y4350D01*
X32518D01*
Y4382D01*
X32550D01*
Y4415D01*
Y4448D01*
Y4481D01*
X32518D01*
Y4514D01*
X32550D01*
Y4547D01*
Y4579D01*
Y4612D01*
X32518D01*
Y4645D01*
X32550D01*
Y4678D01*
Y4711D01*
Y4744D01*
X32518D01*
Y4776D01*
X32550D01*
Y4809D01*
Y4842D01*
Y4875D01*
X32518D01*
Y4908D01*
X32550D01*
Y4941D01*
Y4973D01*
Y5006D01*
X32518D01*
Y5039D01*
X32550D01*
Y5072D01*
Y5105D01*
Y5138D01*
X32518D01*
Y5170D01*
X32550D01*
Y5203D01*
Y5236D01*
Y5269D01*
X32518D01*
Y5302D01*
X32550D01*
Y5334D01*
X32583D01*
Y5367D01*
X32682D01*
Y5334D01*
X32715D01*
Y5367D01*
X32813D01*
Y5334D01*
X32846D01*
Y5367D01*
X32944D01*
Y5334D01*
X32977D01*
Y5367D01*
X33010D01*
Y5334D01*
X33043D01*
Y5302D01*
X33010D01*
Y5269D01*
X33043D01*
Y5236D01*
X33010D01*
Y5203D01*
X33043D01*
Y5170D01*
X33010D01*
Y5138D01*
X33043D01*
Y5105D01*
Y5072D01*
Y5039D01*
X33010D01*
Y5006D01*
X33043D01*
Y4973D01*
X33010D01*
Y4941D01*
X33043D01*
Y4908D01*
X33010D01*
Y4875D01*
X33043D01*
Y4842D01*
Y4809D01*
Y4776D01*
X33010D01*
Y4744D01*
X33043D01*
Y4711D01*
X33010D01*
Y4678D01*
X33043D01*
Y4645D01*
X33010D01*
Y4612D01*
X33043D01*
Y4579D01*
Y4547D01*
Y4514D01*
X33010D01*
Y4481D01*
X33043D01*
Y4448D01*
X33010D01*
Y4415D01*
X33043D01*
Y4382D01*
X33010D01*
Y4350D01*
X33043D01*
Y4317D01*
Y4284D01*
Y4251D01*
X33010D01*
Y4218D01*
X33043D01*
Y4185D01*
X33010D01*
Y4153D01*
X33043D01*
Y4120D01*
X33010D01*
Y4087D01*
X33043D01*
Y4054D01*
Y4021D01*
Y3988D01*
X33010D01*
Y3956D01*
X33043D01*
Y3923D01*
X33010D01*
Y3890D01*
X33043D01*
Y3857D01*
X33010D01*
Y3824D01*
X33043D01*
Y3791D01*
Y3759D01*
Y3726D01*
Y3693D01*
Y3660D01*
Y3627D01*
Y3594D01*
X33076D01*
Y3562D01*
X33043D01*
Y3529D01*
X33076D01*
Y3496D01*
X33108D01*
Y3463D01*
X33076D01*
Y3430D01*
X33108D01*
Y3398D01*
X33076D01*
Y3365D01*
X33141D01*
Y3332D01*
Y3299D01*
X33174D01*
Y3266D01*
X33207D01*
Y3233D01*
X33240D01*
Y3201D01*
X33273D01*
Y3168D01*
X33305D01*
Y3201D01*
X33338D01*
Y3168D01*
X33437D01*
Y3135D01*
X33470D01*
Y3168D01*
X33634D01*
Y3201D01*
X33667D01*
Y3168D01*
X33699D01*
Y3201D01*
Y3233D01*
X33765D01*
Y3266D01*
X33798D01*
Y3299D01*
X33831D01*
Y3332D01*
X33798D01*
Y3365D01*
X33831D01*
Y3398D01*
X33863D01*
Y3430D01*
Y3463D01*
Y3496D01*
X33896D01*
Y3529D01*
X33863D01*
Y3562D01*
X33896D01*
Y3594D01*
X33863D01*
Y3627D01*
X33896D01*
Y3660D01*
Y3693D01*
Y3726D01*
X33929D01*
Y3759D01*
X33896D01*
Y3791D01*
X33929D01*
Y3824D01*
X33896D01*
Y3857D01*
X33929D01*
Y3890D01*
X33896D01*
Y3923D01*
Y3956D01*
Y3988D01*
X33929D01*
Y4021D01*
X33896D01*
Y4054D01*
X33929D01*
Y4087D01*
X33896D01*
Y4120D01*
X33929D01*
Y4153D01*
X33896D01*
Y4185D01*
Y4218D01*
Y4251D01*
X33929D01*
Y4284D01*
X33896D01*
Y4317D01*
X33929D01*
Y4350D01*
X33896D01*
Y4382D01*
X33929D01*
Y4415D01*
X33896D01*
Y4448D01*
Y4481D01*
Y4514D01*
X33929D01*
Y4547D01*
X33896D01*
Y4579D01*
X33929D01*
Y4612D01*
X33896D01*
Y4645D01*
X33929D01*
Y4678D01*
X33896D01*
Y4711D01*
Y4744D01*
Y4776D01*
X33929D01*
Y4809D01*
X33896D01*
Y4842D01*
X33929D01*
Y4875D01*
X33896D01*
Y4908D01*
X33929D01*
Y4941D01*
X33896D01*
Y4973D01*
Y5006D01*
Y5039D01*
X33929D01*
Y5072D01*
X33896D01*
Y5105D01*
X33929D01*
Y5138D01*
X33896D01*
Y5170D01*
X33929D01*
Y5203D01*
X33896D01*
Y5236D01*
Y5269D01*
Y5302D01*
X33929D01*
Y5334D01*
X33896D01*
Y5367D01*
X33995D01*
Y5334D01*
X34028D01*
Y5367D01*
X34060D01*
Y5400D01*
X34093D01*
Y5367D01*
D02*
G37*
G36*
X32091Y5334D02*
X32058D01*
Y5367D01*
X32091D01*
Y5334D01*
D02*
G37*
G36*
X31992Y5367D02*
X32025D01*
Y5334D01*
X32058D01*
Y5302D01*
X32091D01*
Y5269D01*
X32058D01*
Y5236D01*
X32091D01*
Y5203D01*
X32058D01*
Y5170D01*
X32091D01*
Y5138D01*
X32058D01*
Y5105D01*
X32091D01*
Y5072D01*
X32058D01*
Y5039D01*
X32091D01*
Y5006D01*
X32058D01*
Y4973D01*
X32091D01*
Y4941D01*
X32058D01*
Y4908D01*
Y4875D01*
Y4842D01*
X32091D01*
Y4809D01*
X32058D01*
Y4776D01*
X32091D01*
Y4744D01*
X32058D01*
Y4711D01*
X32091D01*
Y4678D01*
X32058D01*
Y4645D01*
X32091D01*
Y4612D01*
X32058D01*
Y4579D01*
X32091D01*
Y4547D01*
X32058D01*
Y4514D01*
X32091D01*
Y4481D01*
X32058D01*
Y4448D01*
X32091D01*
Y4415D01*
X32058D01*
Y4382D01*
Y4350D01*
Y4317D01*
X32091D01*
Y4284D01*
X32058D01*
Y4251D01*
X32091D01*
Y4218D01*
X32058D01*
Y4185D01*
X32091D01*
Y4153D01*
X32058D01*
Y4120D01*
X32091D01*
Y4087D01*
X32058D01*
Y4054D01*
X32091D01*
Y4021D01*
X32058D01*
Y3988D01*
X32091D01*
Y3956D01*
X32058D01*
Y3923D01*
X32091D01*
Y3890D01*
X32058D01*
Y3857D01*
Y3824D01*
Y3791D01*
X32091D01*
Y3759D01*
X32058D01*
Y3726D01*
X32091D01*
Y3693D01*
X32058D01*
Y3660D01*
X32091D01*
Y3627D01*
X32058D01*
Y3594D01*
X32091D01*
Y3562D01*
X32058D01*
Y3529D01*
X32091D01*
Y3496D01*
X32058D01*
Y3463D01*
X32091D01*
Y3430D01*
X32058D01*
Y3398D01*
X32091D01*
Y3365D01*
X32058D01*
Y3332D01*
Y3299D01*
Y3266D01*
X32091D01*
Y3233D01*
X32058D01*
Y3201D01*
X32091D01*
Y3168D01*
X32058D01*
Y3135D01*
X32091D01*
Y3102D01*
X32058D01*
Y3069D01*
X32091D01*
Y3036D01*
X32058D01*
Y3004D01*
X32091D01*
Y2971D01*
X32058D01*
Y2938D01*
X32091D01*
Y2905D01*
X32058D01*
Y2872D01*
X32091D01*
Y2840D01*
X32058D01*
Y2807D01*
X32091D01*
Y2774D01*
X32058D01*
Y2741D01*
X32025D01*
Y2774D01*
X31992D01*
Y2741D01*
X31894D01*
Y2774D01*
X31861D01*
Y2741D01*
X31762D01*
Y2774D01*
X31730D01*
Y2741D01*
X31631D01*
Y2774D01*
X31598D01*
Y2741D01*
X31566D01*
Y2774D01*
Y2807D01*
Y2840D01*
Y2872D01*
Y2905D01*
Y2938D01*
Y2971D01*
Y3004D01*
Y3036D01*
Y3069D01*
Y3102D01*
Y3135D01*
Y3168D01*
Y3201D01*
Y3233D01*
Y3266D01*
Y3299D01*
Y3332D01*
Y3365D01*
Y3398D01*
Y3430D01*
Y3463D01*
Y3496D01*
Y3529D01*
Y3562D01*
Y3594D01*
Y3627D01*
Y3660D01*
Y3693D01*
Y3726D01*
Y3759D01*
Y3791D01*
Y3824D01*
Y3857D01*
Y3890D01*
Y3923D01*
Y3956D01*
Y3988D01*
Y4021D01*
Y4054D01*
Y4087D01*
Y4120D01*
Y4153D01*
Y4185D01*
Y4218D01*
Y4251D01*
Y4284D01*
Y4317D01*
Y4350D01*
Y4382D01*
Y4415D01*
X31533D01*
Y4382D01*
X31500D01*
Y4350D01*
Y4317D01*
X31467D01*
Y4284D01*
Y4251D01*
X31434D01*
Y4218D01*
X31401D01*
Y4185D01*
X31369D01*
Y4153D01*
X31401D01*
Y4120D01*
X31369D01*
Y4087D01*
X31336D01*
Y4054D01*
X31303D01*
Y4021D01*
Y3988D01*
X31270D01*
Y3956D01*
Y3923D01*
X31237D01*
Y3890D01*
X31204D01*
Y3857D01*
X31172D01*
Y3824D01*
X31204D01*
Y3791D01*
X31172D01*
Y3759D01*
X31139D01*
Y3726D01*
X31106D01*
Y3693D01*
Y3660D01*
X31073D01*
Y3627D01*
Y3594D01*
X31040D01*
Y3562D01*
X31008D01*
Y3529D01*
X30975D01*
Y3496D01*
X31008D01*
Y3463D01*
X30975D01*
Y3430D01*
X30942D01*
Y3398D01*
X30909D01*
Y3365D01*
Y3332D01*
X30876D01*
Y3299D01*
Y3266D01*
X30843D01*
Y3233D01*
X30810D01*
Y3201D01*
X30778D01*
Y3168D01*
X30810D01*
Y3135D01*
X30778D01*
Y3102D01*
X30745D01*
Y3069D01*
X30712D01*
Y3036D01*
Y3004D01*
X30679D01*
Y2971D01*
Y2938D01*
X30646D01*
Y2905D01*
X30613D01*
Y2872D01*
X30581D01*
Y2840D01*
X30613D01*
Y2807D01*
X30581D01*
Y2774D01*
X30548D01*
Y2741D01*
X30449D01*
Y2774D01*
X30417D01*
Y2741D01*
X30318D01*
Y2774D01*
X30285D01*
Y2741D01*
X30187D01*
Y2774D01*
X30154D01*
Y2741D01*
X30055D01*
Y2774D01*
Y2807D01*
Y2840D01*
X30088D01*
Y2872D01*
X30055D01*
Y2905D01*
X30088D01*
Y2938D01*
X30055D01*
Y2971D01*
X30088D01*
Y3004D01*
X30055D01*
Y3036D01*
X30088D01*
Y3069D01*
X30055D01*
Y3102D01*
X30088D01*
Y3135D01*
X30055D01*
Y3168D01*
X30088D01*
Y3201D01*
X30055D01*
Y3233D01*
X30088D01*
Y3266D01*
X30055D01*
Y3299D01*
X30088D01*
Y3332D01*
X30055D01*
Y3365D01*
X30088D01*
Y3398D01*
X30055D01*
Y3430D01*
X30088D01*
Y3463D01*
X30055D01*
Y3496D01*
X30088D01*
Y3529D01*
X30055D01*
Y3562D01*
X30088D01*
Y3594D01*
X30055D01*
Y3627D01*
X30088D01*
Y3660D01*
X30055D01*
Y3693D01*
X30088D01*
Y3726D01*
X30055D01*
Y3759D01*
X30088D01*
Y3791D01*
X30055D01*
Y3824D01*
X30088D01*
Y3857D01*
X30055D01*
Y3890D01*
X30088D01*
Y3923D01*
X30055D01*
Y3956D01*
X30088D01*
Y3988D01*
X30055D01*
Y4021D01*
X30088D01*
Y4054D01*
X30055D01*
Y4087D01*
X30088D01*
Y4120D01*
X30055D01*
Y4153D01*
X30088D01*
Y4185D01*
X30055D01*
Y4218D01*
X30088D01*
Y4251D01*
X30055D01*
Y4284D01*
X30088D01*
Y4317D01*
X30055D01*
Y4350D01*
X30088D01*
Y4382D01*
X30055D01*
Y4415D01*
X30088D01*
Y4448D01*
X30055D01*
Y4481D01*
X30088D01*
Y4514D01*
X30055D01*
Y4547D01*
X30088D01*
Y4579D01*
X30055D01*
Y4612D01*
X30088D01*
Y4645D01*
X30055D01*
Y4678D01*
X30088D01*
Y4711D01*
X30055D01*
Y4744D01*
X30088D01*
Y4776D01*
X30055D01*
Y4809D01*
X30088D01*
Y4842D01*
X30055D01*
Y4875D01*
X30088D01*
Y4908D01*
X30055D01*
Y4941D01*
X30088D01*
Y4973D01*
X30055D01*
Y5006D01*
X30088D01*
Y5039D01*
X30055D01*
Y5072D01*
X30088D01*
Y5105D01*
X30055D01*
Y5138D01*
X30088D01*
Y5170D01*
X30055D01*
Y5203D01*
X30088D01*
Y5236D01*
X30055D01*
Y5269D01*
X30088D01*
Y5302D01*
X30055D01*
Y5334D01*
X30088D01*
Y5367D01*
X30187D01*
Y5334D01*
X30220D01*
Y5367D01*
X30318D01*
Y5334D01*
X30351D01*
Y5367D01*
X30384D01*
Y5400D01*
X30417D01*
Y5367D01*
X30449D01*
Y5334D01*
X30482D01*
Y5367D01*
X30581D01*
Y5334D01*
Y5302D01*
Y5269D01*
X30548D01*
Y5236D01*
X30581D01*
Y5203D01*
Y5170D01*
Y5138D01*
X30548D01*
Y5105D01*
X30581D01*
Y5072D01*
Y5039D01*
Y5006D01*
X30548D01*
Y4973D01*
X30581D01*
Y4941D01*
Y4908D01*
Y4875D01*
X30548D01*
Y4842D01*
X30581D01*
Y4809D01*
Y4776D01*
Y4744D01*
X30548D01*
Y4711D01*
X30581D01*
Y4678D01*
Y4645D01*
Y4612D01*
X30548D01*
Y4579D01*
X30581D01*
Y4547D01*
Y4514D01*
Y4481D01*
X30548D01*
Y4448D01*
X30581D01*
Y4415D01*
Y4382D01*
Y4350D01*
X30548D01*
Y4317D01*
X30581D01*
Y4284D01*
Y4251D01*
Y4218D01*
X30548D01*
Y4185D01*
X30581D01*
Y4153D01*
Y4120D01*
Y4087D01*
X30548D01*
Y4054D01*
X30581D01*
Y4021D01*
Y3988D01*
Y3956D01*
X30548D01*
Y3923D01*
X30581D01*
Y3890D01*
Y3857D01*
Y3824D01*
X30548D01*
Y3791D01*
X30581D01*
Y3759D01*
X30613D01*
Y3791D01*
X30646D01*
Y3824D01*
X30679D01*
Y3857D01*
Y3890D01*
X30712D01*
Y3923D01*
Y3956D01*
X30745D01*
Y3988D01*
X30778D01*
Y4021D01*
Y4054D01*
Y4087D01*
X30810D01*
Y4120D01*
X30843D01*
Y4153D01*
X30876D01*
Y4185D01*
Y4218D01*
Y4251D01*
X30909D01*
Y4284D01*
X30942D01*
Y4317D01*
Y4350D01*
X30975D01*
Y4382D01*
Y4415D01*
X31008D01*
Y4448D01*
X31040D01*
Y4481D01*
X31073D01*
Y4514D01*
X31040D01*
Y4547D01*
X31073D01*
Y4579D01*
X31106D01*
Y4612D01*
X31139D01*
Y4645D01*
Y4678D01*
X31172D01*
Y4711D01*
Y4744D01*
X31204D01*
Y4776D01*
X31237D01*
Y4809D01*
X31270D01*
Y4842D01*
X31237D01*
Y4875D01*
X31270D01*
Y4908D01*
X31303D01*
Y4941D01*
X31336D01*
Y4973D01*
X31303D01*
Y5006D01*
X31336D01*
Y5039D01*
X31369D01*
Y5072D01*
X31401D01*
Y5105D01*
Y5138D01*
X31434D01*
Y5170D01*
Y5203D01*
X31467D01*
Y5236D01*
X31500D01*
Y5269D01*
X31533D01*
Y5302D01*
X31500D01*
Y5334D01*
X31533D01*
Y5367D01*
X31631D01*
Y5334D01*
X31664D01*
Y5367D01*
X31762D01*
Y5334D01*
X31795D01*
Y5367D01*
X31894D01*
Y5334D01*
X31927D01*
Y5367D01*
X31960D01*
Y5400D01*
X31992D01*
Y5367D01*
D02*
G37*
G36*
X40922D02*
X40955D01*
Y5334D01*
X40987D01*
Y5367D01*
X41086D01*
Y5334D01*
X41119D01*
Y5367D01*
X41217D01*
Y5334D01*
X41250D01*
Y5367D01*
X41348D01*
Y5334D01*
X41381D01*
Y5302D01*
Y5269D01*
Y5236D01*
Y5203D01*
Y5170D01*
Y5138D01*
Y5105D01*
X41414D01*
Y5072D01*
X41381D01*
Y5039D01*
Y5006D01*
Y4973D01*
Y4941D01*
Y4908D01*
Y4875D01*
Y4842D01*
X41414D01*
Y4809D01*
X41381D01*
Y4776D01*
Y4744D01*
Y4711D01*
Y4678D01*
Y4645D01*
Y4612D01*
Y4579D01*
X41414D01*
Y4547D01*
X41381D01*
Y4514D01*
Y4481D01*
Y4448D01*
Y4415D01*
Y4382D01*
Y4350D01*
Y4317D01*
X41414D01*
Y4284D01*
X41381D01*
Y4251D01*
Y4218D01*
Y4185D01*
Y4153D01*
Y4120D01*
Y4087D01*
Y4054D01*
X41414D01*
Y4021D01*
X41381D01*
Y3988D01*
Y3956D01*
Y3923D01*
Y3890D01*
Y3857D01*
Y3824D01*
Y3791D01*
X41414D01*
Y3759D01*
X41381D01*
Y3726D01*
Y3693D01*
Y3660D01*
Y3627D01*
Y3594D01*
Y3562D01*
Y3529D01*
X41414D01*
Y3496D01*
X41381D01*
Y3463D01*
Y3430D01*
Y3398D01*
Y3365D01*
Y3332D01*
Y3299D01*
Y3266D01*
X41414D01*
Y3233D01*
X41381D01*
Y3201D01*
Y3168D01*
Y3135D01*
Y3102D01*
Y3069D01*
Y3036D01*
Y3004D01*
X41414D01*
Y2971D01*
X41381D01*
Y2938D01*
Y2905D01*
Y2872D01*
Y2840D01*
Y2807D01*
Y2774D01*
Y2741D01*
X41348D01*
Y2774D01*
X41316D01*
Y2741D01*
X41217D01*
Y2774D01*
X41184D01*
Y2741D01*
X41086D01*
Y2774D01*
X41053D01*
Y2741D01*
X40955D01*
Y2774D01*
X40922D01*
Y2741D01*
X40889D01*
Y2774D01*
Y2807D01*
Y2840D01*
Y2872D01*
Y2905D01*
Y2938D01*
Y2971D01*
Y3004D01*
Y3036D01*
Y3069D01*
Y3102D01*
Y3135D01*
Y3168D01*
Y3201D01*
Y3233D01*
Y3266D01*
Y3299D01*
Y3332D01*
Y3365D01*
Y3398D01*
Y3430D01*
Y3463D01*
Y3496D01*
Y3529D01*
Y3562D01*
Y3594D01*
Y3627D01*
Y3660D01*
Y3693D01*
Y3726D01*
Y3759D01*
X40856D01*
Y3791D01*
X39904D01*
Y3759D01*
X39937D01*
Y3726D01*
X39904D01*
Y3693D01*
X39937D01*
Y3660D01*
X39904D01*
Y3627D01*
X39937D01*
Y3594D01*
Y3562D01*
Y3529D01*
X39904D01*
Y3496D01*
X39937D01*
Y3463D01*
X39904D01*
Y3430D01*
X39937D01*
Y3398D01*
X39904D01*
Y3365D01*
X39937D01*
Y3332D01*
Y3299D01*
Y3266D01*
X39904D01*
Y3233D01*
X39937D01*
Y3201D01*
X39904D01*
Y3168D01*
X39937D01*
Y3135D01*
X39904D01*
Y3102D01*
X39937D01*
Y3069D01*
Y3036D01*
Y3004D01*
X39904D01*
Y2971D01*
X39937D01*
Y2938D01*
X39904D01*
Y2905D01*
X39937D01*
Y2872D01*
X39904D01*
Y2840D01*
X39937D01*
Y2807D01*
Y2774D01*
Y2741D01*
X39904D01*
Y2774D01*
X39871D01*
Y2741D01*
X39773D01*
Y2774D01*
X39740D01*
Y2741D01*
X39641D01*
Y2774D01*
X39608D01*
Y2741D01*
X39510D01*
Y2774D01*
X39477D01*
Y2741D01*
X39444D01*
Y2774D01*
X39412D01*
Y2807D01*
X39444D01*
Y2840D01*
X39412D01*
Y2872D01*
Y2905D01*
Y2938D01*
X39444D01*
Y2971D01*
X39412D01*
Y3004D01*
Y3036D01*
Y3069D01*
X39444D01*
Y3102D01*
X39412D01*
Y3135D01*
Y3168D01*
Y3201D01*
X39444D01*
Y3233D01*
X39412D01*
Y3266D01*
Y3299D01*
Y3332D01*
X39444D01*
Y3365D01*
X39412D01*
Y3398D01*
Y3430D01*
Y3463D01*
X39444D01*
Y3496D01*
X39412D01*
Y3529D01*
Y3562D01*
Y3594D01*
X39444D01*
Y3627D01*
X39412D01*
Y3660D01*
Y3693D01*
Y3726D01*
X39444D01*
Y3759D01*
X39412D01*
Y3791D01*
Y3824D01*
Y3857D01*
X39444D01*
Y3890D01*
X39412D01*
Y3923D01*
Y3956D01*
Y3988D01*
X39444D01*
Y4021D01*
X39412D01*
Y4054D01*
Y4087D01*
Y4120D01*
X39444D01*
Y4153D01*
X39412D01*
Y4185D01*
Y4218D01*
Y4251D01*
X39444D01*
Y4284D01*
X39412D01*
Y4317D01*
Y4350D01*
Y4382D01*
X39444D01*
Y4415D01*
X39412D01*
Y4448D01*
Y4481D01*
Y4514D01*
X39444D01*
Y4547D01*
X39412D01*
Y4579D01*
Y4612D01*
Y4645D01*
X39444D01*
Y4678D01*
X39412D01*
Y4711D01*
Y4744D01*
Y4776D01*
X39444D01*
Y4809D01*
X39412D01*
Y4842D01*
Y4875D01*
Y4908D01*
X39444D01*
Y4941D01*
X39412D01*
Y4973D01*
Y5006D01*
Y5039D01*
X39444D01*
Y5072D01*
X39412D01*
Y5105D01*
Y5138D01*
Y5170D01*
X39444D01*
Y5203D01*
X39412D01*
Y5236D01*
Y5269D01*
Y5302D01*
X39444D01*
Y5334D01*
X39412D01*
Y5367D01*
X39510D01*
Y5334D01*
X39543D01*
Y5367D01*
X39641D01*
Y5334D01*
X39674D01*
Y5367D01*
X39773D01*
Y5334D01*
X39805D01*
Y5367D01*
X39838D01*
Y5400D01*
X39871D01*
Y5367D01*
X39904D01*
Y5334D01*
X39937D01*
Y5302D01*
X39904D01*
Y5269D01*
X39937D01*
Y5236D01*
X39904D01*
Y5203D01*
X39937D01*
Y5170D01*
Y5138D01*
Y5105D01*
X39904D01*
Y5072D01*
X39937D01*
Y5039D01*
X39904D01*
Y5006D01*
X39937D01*
Y4973D01*
X39904D01*
Y4941D01*
X39937D01*
Y4908D01*
Y4875D01*
Y4842D01*
X39904D01*
Y4809D01*
X39937D01*
Y4776D01*
X39904D01*
Y4744D01*
X39937D01*
Y4711D01*
X39904D01*
Y4678D01*
X39937D01*
Y4645D01*
Y4612D01*
Y4579D01*
X39904D01*
Y4547D01*
X39937D01*
Y4514D01*
X39904D01*
Y4481D01*
X39937D01*
Y4448D01*
X39904D01*
Y4415D01*
X39937D01*
Y4382D01*
Y4350D01*
Y4317D01*
X39904D01*
Y4284D01*
X39937D01*
Y4251D01*
X39970D01*
Y4284D01*
X40002D01*
Y4251D01*
X40035D01*
Y4284D01*
X40068D01*
Y4251D01*
X40101D01*
Y4284D01*
X40134D01*
Y4251D01*
X40167D01*
Y4284D01*
X40199D01*
Y4251D01*
X40232D01*
Y4284D01*
X40265D01*
Y4251D01*
X40298D01*
Y4284D01*
X40331D01*
Y4251D01*
X40363D01*
Y4284D01*
X40396D01*
Y4251D01*
X40429D01*
Y4284D01*
X40462D01*
Y4251D01*
X40495D01*
Y4284D01*
X40528D01*
Y4251D01*
X40560D01*
Y4284D01*
X40593D01*
Y4251D01*
X40626D01*
Y4284D01*
X40659D01*
Y4251D01*
X40692D01*
Y4284D01*
X40725D01*
Y4251D01*
X40758D01*
Y4284D01*
X40790D01*
Y4251D01*
X40823D01*
Y4284D01*
X40856D01*
Y4251D01*
X40889D01*
Y4284D01*
Y4317D01*
Y4350D01*
Y4382D01*
Y4415D01*
Y4448D01*
Y4481D01*
Y4514D01*
Y4547D01*
Y4579D01*
Y4612D01*
Y4645D01*
Y4678D01*
Y4711D01*
Y4744D01*
Y4776D01*
Y4809D01*
Y4842D01*
Y4875D01*
Y4908D01*
Y4941D01*
Y4973D01*
Y5006D01*
Y5039D01*
Y5072D01*
Y5105D01*
Y5138D01*
Y5170D01*
Y5203D01*
Y5236D01*
Y5269D01*
Y5302D01*
Y5334D01*
Y5367D01*
Y5400D01*
X40922D01*
Y5367D01*
D02*
G37*
G36*
X32977Y2807D02*
X32944D01*
Y2840D01*
X32977D01*
Y2807D01*
D02*
G37*
G36*
X28184Y2741D02*
X28151D01*
Y2774D01*
X28184D01*
Y2741D01*
D02*
G37*
G36*
X23457D02*
X23424D01*
Y2774D01*
X23457D01*
Y2741D01*
D02*
G37*
%LPC*%
G36*
X57007Y5367D02*
X56975D01*
Y5334D01*
X56942D01*
Y5367D01*
X56909D01*
Y5334D01*
X56876D01*
Y5367D01*
X56843D01*
Y5334D01*
X56811D01*
Y5367D01*
X56778D01*
Y5334D01*
X56745D01*
Y5367D01*
X56712D01*
Y5334D01*
X56679D01*
Y5367D01*
X56646D01*
Y5334D01*
X56614D01*
Y5367D01*
X56581D01*
Y5334D01*
X56548D01*
Y5367D01*
X56515D01*
Y5334D01*
X56482D01*
Y5367D01*
X56450D01*
Y5334D01*
X56417D01*
Y5367D01*
X56384D01*
Y5334D01*
X56351D01*
Y5367D01*
X56121D01*
Y5334D01*
X56088D01*
Y5367D01*
X55071D01*
Y5334D01*
X55169D01*
Y5302D01*
X55202D01*
Y5269D01*
X55235D01*
Y5302D01*
X55268D01*
Y5269D01*
X55366D01*
Y5236D01*
X55399D01*
Y5269D01*
X55432D01*
Y5236D01*
X55465D01*
Y5203D01*
X55497D01*
Y5236D01*
X55530D01*
Y5203D01*
X55694D01*
Y5170D01*
X55793D01*
Y5138D01*
X55826D01*
Y5170D01*
X55858D01*
Y5138D01*
X56023D01*
Y5105D01*
X56055D01*
Y5072D01*
X56088D01*
Y5105D01*
X56121D01*
Y5072D01*
X56154D01*
Y5105D01*
X56187D01*
Y5072D01*
X56351D01*
Y5039D01*
X56384D01*
Y5072D01*
X56417D01*
Y5039D01*
X56450D01*
Y5072D01*
X56482D01*
Y5039D01*
X56515D01*
Y5006D01*
X56548D01*
Y5039D01*
X56581D01*
Y5006D01*
X56614D01*
Y5039D01*
X56646D01*
Y5006D01*
X56679D01*
Y5039D01*
X56712D01*
Y5006D01*
X56942D01*
Y4973D01*
X56975D01*
Y5006D01*
X57007D01*
Y4973D01*
X57040D01*
Y5006D01*
X57073D01*
Y4973D01*
X57106D01*
Y5006D01*
X57139D01*
Y4973D01*
X57172D01*
Y5006D01*
X57205D01*
Y4973D01*
X57303D01*
Y5006D01*
X57336D01*
Y4973D01*
X57369D01*
Y4941D01*
X57402D01*
Y4973D01*
X57500D01*
Y4941D01*
X57533D01*
Y4973D01*
X57566D01*
Y5006D01*
X57598D01*
Y4973D01*
X57631D01*
Y4941D01*
X57664D01*
Y4973D01*
X57697D01*
Y5006D01*
X57730D01*
Y4973D01*
X57828D01*
Y5006D01*
X57861D01*
Y4973D01*
X57894D01*
Y5006D01*
X57927D01*
Y5039D01*
X57828D01*
Y5072D01*
X57795D01*
Y5105D01*
X57697D01*
Y5138D01*
X57664D01*
Y5170D01*
X57631D01*
Y5138D01*
X57598D01*
Y5170D01*
X57566D01*
Y5203D01*
X57533D01*
Y5170D01*
X57500D01*
Y5203D01*
X57467D01*
Y5236D01*
X57369D01*
Y5269D01*
X57336D01*
Y5236D01*
X57303D01*
Y5269D01*
X57270D01*
Y5302D01*
X57237D01*
Y5269D01*
X57205D01*
Y5302D01*
X57106D01*
Y5334D01*
X57073D01*
Y5302D01*
X57040D01*
Y5334D01*
X57007D01*
Y5367D01*
D02*
G37*
G36*
X55038D02*
X55005D01*
Y5334D01*
X55038D01*
Y5367D01*
D02*
G37*
G36*
X49063Y4908D02*
X48702D01*
Y4875D01*
X48669D01*
Y4908D01*
X48636D01*
Y4875D01*
X48603D01*
Y4842D01*
X48505D01*
Y4809D01*
X48472D01*
Y4776D01*
X48439D01*
Y4744D01*
X48406D01*
Y4711D01*
X48308D01*
Y4678D01*
X48341D01*
Y4645D01*
X48308D01*
Y4612D01*
X48275D01*
Y4579D01*
X48242D01*
Y4547D01*
Y4514D01*
Y4481D01*
X48210D01*
Y4448D01*
X48177D01*
Y4415D01*
X48210D01*
Y4382D01*
X48177D01*
Y4350D01*
Y4317D01*
Y4284D01*
Y4251D01*
Y4218D01*
X48144D01*
Y4185D01*
X48177D01*
Y4153D01*
X48144D01*
Y4120D01*
X48177D01*
Y4087D01*
X48144D01*
Y4054D01*
Y4021D01*
Y3988D01*
X48177D01*
Y3956D01*
X48144D01*
Y3923D01*
X48177D01*
Y3890D01*
Y3857D01*
Y3824D01*
Y3791D01*
Y3759D01*
X48210D01*
Y3726D01*
Y3693D01*
Y3660D01*
X48242D01*
Y3627D01*
Y3594D01*
Y3562D01*
X48275D01*
Y3529D01*
Y3496D01*
X48341D01*
Y3463D01*
X48308D01*
Y3430D01*
X48341D01*
Y3398D01*
X48374D01*
Y3365D01*
X48472D01*
Y3332D01*
Y3299D01*
X48538D01*
Y3266D01*
X48571D01*
Y3233D01*
X48603D01*
Y3266D01*
X48636D01*
Y3233D01*
X48735D01*
Y3201D01*
X48768D01*
Y3233D01*
X48800D01*
Y3201D01*
X48833D01*
Y3233D01*
X48866D01*
Y3201D01*
X48899D01*
Y3233D01*
X48932D01*
Y3201D01*
X48965D01*
Y3233D01*
X48997D01*
Y3201D01*
X49030D01*
Y3233D01*
X49063D01*
Y3266D01*
X49096D01*
Y3299D01*
X49063D01*
Y3332D01*
Y3365D01*
Y3398D01*
X49096D01*
Y3430D01*
X49063D01*
Y3463D01*
Y3496D01*
Y3529D01*
X49096D01*
Y3562D01*
X49063D01*
Y3594D01*
Y3627D01*
Y3660D01*
X49096D01*
Y3693D01*
X49063D01*
Y3726D01*
Y3759D01*
Y3791D01*
X49096D01*
Y3824D01*
X49063D01*
Y3857D01*
Y3890D01*
Y3923D01*
X49096D01*
Y3956D01*
X49063D01*
Y3988D01*
Y4021D01*
Y4054D01*
X49096D01*
Y4087D01*
X49063D01*
Y4120D01*
Y4153D01*
Y4185D01*
X49096D01*
Y4218D01*
X49063D01*
Y4251D01*
Y4284D01*
Y4317D01*
X49096D01*
Y4350D01*
X49063D01*
Y4382D01*
Y4415D01*
Y4448D01*
X49096D01*
Y4481D01*
X49063D01*
Y4514D01*
Y4547D01*
Y4579D01*
X49096D01*
Y4612D01*
X49063D01*
Y4645D01*
Y4678D01*
Y4711D01*
X49096D01*
Y4744D01*
X49063D01*
Y4776D01*
Y4809D01*
Y4842D01*
X49096D01*
Y4875D01*
X49063D01*
Y4908D01*
D02*
G37*
G36*
X46765Y4448D02*
X46732D01*
Y4415D01*
X46765D01*
Y4448D01*
D02*
G37*
G36*
X45780Y3726D02*
X45747D01*
Y3693D01*
X45780D01*
Y3726D01*
D02*
G37*
G36*
X30613D02*
X30581D01*
Y3693D01*
X30613D01*
Y3726D01*
D02*
G37*
%LPD*%
D39*
X54823Y30709D02*
D03*
X60925D02*
D03*
D40*
X10236Y25689D02*
D03*
X4921D02*
D03*
X55610Y35827D02*
D03*
X60925D02*
D03*
D58*
X9843Y108268D02*
D03*
X127953D02*
D03*
Y9843D02*
D03*
X9843D02*
D03*
D59*
X122047Y31299D02*
D03*
Y86811D02*
D03*
D79*
X84842Y66535D02*
D03*
X81299Y74410D02*
D03*
X88386D02*
D03*
X48228Y74803D02*
D03*
X44685Y66929D02*
D03*
X51772D02*
D03*
D80*
X125984Y47244D02*
D03*
X131890D02*
D03*
X125984Y55118D02*
D03*
X131890D02*
D03*
X125984Y62992D02*
D03*
X131890D02*
D03*
X125984Y70866D02*
D03*
X131890D02*
D03*
D81*
X10236Y31732D02*
D03*
D82*
X25591D02*
D03*
Y36732D02*
D03*
X10236D02*
D03*
X25591Y41732D02*
D03*
X10236D02*
D03*
X25591Y46732D02*
D03*
X10236D02*
D03*
X25591Y51732D02*
D03*
X10236D02*
D03*
D83*
X27362Y104724D02*
D03*
X63583D02*
D03*
X74213D02*
D03*
X110433D02*
D03*
D84*
X49409Y82756D02*
D03*
X96260D02*
D03*
D85*
X41535D02*
D03*
X88386D02*
D03*
M02*
