G04*
G04 #@! TF.GenerationSoftware,Altium Limited,Altium Designer,19.1.7 (138)*
G04*
G04 Layer_Color=16711935*
%FSLAX25Y25*%
%MOIN*%
G70*
G01*
G75*
%ADD70C,0.00000*%
%ADD71C,0.00394*%
%ADD72C,0.00100*%
D70*
X5236Y64154D02*
G03*
X5236Y66554I0J1200D01*
G01*
D71*
X60744Y130154D02*
G03*
X60744Y130154I-1969J0D01*
G01*
X51870Y70866D02*
G03*
X51870Y70866I-1969J0D01*
G01*
X25295Y91024D02*
Y94803D01*
X32185Y91024D02*
Y94803D01*
X25295D02*
X32185D01*
X25295Y91024D02*
X32185D01*
X19685Y86221D02*
Y89370D01*
X25984Y86221D02*
Y89370D01*
X19685D02*
X25984D01*
X19685Y86221D02*
X25984D01*
X76063Y59350D02*
X79843D01*
X76063Y52461D02*
X79843D01*
X76063D02*
Y59350D01*
X79843Y52461D02*
Y59350D01*
X71260Y52756D02*
X74410D01*
X71260Y59055D02*
X74410D01*
Y52756D02*
Y59055D01*
X71260Y52756D02*
Y59055D01*
X82756Y66339D02*
Y73228D01*
X86535Y66339D02*
Y73228D01*
X82756Y66339D02*
X86535D01*
X82756Y73228D02*
X86535D01*
X37087Y61516D02*
X40866D01*
X37087Y68405D02*
X40866D01*
Y61516D02*
Y68405D01*
X37087Y61516D02*
Y68405D01*
X55984Y52461D02*
X59764D01*
X55984Y59350D02*
X59764D01*
Y52461D02*
Y59350D01*
X55984Y52461D02*
Y59350D01*
X66220Y52461D02*
Y59350D01*
X70000Y52461D02*
Y59350D01*
X66220D02*
X70000D01*
X66220Y52461D02*
X70000D01*
X61102D02*
Y59350D01*
X64882Y52461D02*
Y59350D01*
X61102D02*
X64882D01*
X61102Y52461D02*
X64882D01*
X25512Y61516D02*
Y68405D01*
X21732Y61516D02*
Y68405D01*
Y61516D02*
X25512D01*
X21732Y68405D02*
X25512D01*
X26850Y61516D02*
X30630D01*
X26850Y68405D02*
X30630D01*
Y61516D02*
Y68405D01*
X26850Y61516D02*
Y68405D01*
X31969Y61516D02*
X35748D01*
X31969Y68405D02*
X35748D01*
Y61516D02*
Y68405D01*
X31969Y61516D02*
Y68405D01*
X43799Y60315D02*
Y64095D01*
X50689Y60315D02*
Y64095D01*
X43799Y60315D02*
X50689D01*
X43799Y64095D02*
X50689D01*
X68110Y77165D02*
Y80315D01*
X61811Y77165D02*
Y80315D01*
Y77165D02*
X68110D01*
X61811Y80315D02*
X68110D01*
X62500Y71732D02*
Y75512D01*
X55610Y71732D02*
Y75512D01*
Y71732D02*
X62500D01*
X55610Y75512D02*
X62500D01*
X54724Y62598D02*
X57874D01*
X54724Y68898D02*
X57874D01*
X54724Y62598D02*
Y68898D01*
X57874Y62598D02*
Y68898D01*
X40945Y81890D02*
Y85039D01*
X34646Y81890D02*
Y85039D01*
Y81890D02*
X40945D01*
X34646Y85039D02*
X40945D01*
X42126Y46142D02*
Y49921D01*
X49016Y46142D02*
Y49921D01*
X42126D02*
X49016D01*
X42126Y46142D02*
X49016D01*
X55232Y82122D02*
X83579D01*
X55232Y133697D02*
X83579D01*
Y82122D02*
Y133697D01*
X55232Y82122D02*
Y133697D01*
X34941Y45748D02*
Y49528D01*
X28051Y45748D02*
Y49528D01*
Y45748D02*
X34941D01*
X28051Y49528D02*
X34941D01*
X15354Y91339D02*
X21654D01*
X15354Y94488D02*
X21654D01*
Y91339D02*
Y94488D01*
X15354Y91339D02*
Y94488D01*
X27461Y56693D02*
Y74409D01*
X53445Y56693D02*
Y74409D01*
X27461Y56693D02*
X53445D01*
X27461Y74409D02*
X53445D01*
X70571Y62894D02*
Y74902D01*
X77461Y62894D02*
Y74902D01*
X70571D02*
X77461D01*
X70571Y62894D02*
X77461D01*
X81575Y48524D02*
X85354D01*
X81575Y55413D02*
X85354D01*
X81575Y48524D02*
Y55413D01*
X85354Y48524D02*
Y55413D01*
X13386Y49606D02*
Y52756D01*
X7087Y49606D02*
Y52756D01*
Y49606D02*
X13386D01*
X7087Y52756D02*
X13386D01*
X131122Y33602D02*
Y45217D01*
X124823Y33602D02*
Y45217D01*
Y33602D02*
X131122D01*
X124823Y45217D02*
X131122D01*
X10236Y83071D02*
Y86221D01*
X3937Y83071D02*
Y86221D01*
Y83071D02*
X10236D01*
X3937Y86221D02*
X10236D01*
X3937Y77953D02*
Y81102D01*
X10236Y77953D02*
Y81102D01*
X3937D02*
X10236D01*
X3937Y77953D02*
X10236D01*
X107480Y50787D02*
Y53937D01*
X113779Y50787D02*
Y53937D01*
X107480D02*
X113779D01*
X107480Y50787D02*
X113779D01*
X101673Y106693D02*
Y109843D01*
X95374Y106693D02*
Y109843D01*
Y106693D02*
X101673D01*
X95374Y109843D02*
X101673D01*
X96063Y50827D02*
X102362D01*
X96063Y53976D02*
X102362D01*
Y50827D02*
Y53976D01*
X96063Y50827D02*
Y53976D01*
X106299Y109803D02*
X112598D01*
X106299Y106653D02*
X112598D01*
X106299D02*
Y109803D01*
X112598Y106653D02*
Y109803D01*
X46850Y118583D02*
Y122362D01*
X39961Y118583D02*
Y122362D01*
Y118583D02*
X46850D01*
X39961Y122362D02*
X46850D01*
X128347Y113287D02*
X136221D01*
X128347Y118209D02*
X136221D01*
Y113287D02*
Y118209D01*
X128347Y113287D02*
Y118209D01*
X76410Y48524D02*
X80190D01*
X76410Y55413D02*
X80190D01*
X76410Y48524D02*
Y55413D01*
X80190Y48524D02*
Y55413D01*
X114210Y36514D02*
X117990D01*
X114210Y29624D02*
X117990D01*
Y36514D01*
X114210Y29624D02*
Y36514D01*
X136610D02*
X140390D01*
X136610Y29624D02*
X140390D01*
Y36514D01*
X136610Y29624D02*
Y36514D01*
X139055Y47559D02*
X145945D01*
X139055Y43780D02*
X145945D01*
X139055D02*
Y47559D01*
X145945Y43780D02*
Y47559D01*
X98425Y97539D02*
Y102461D01*
X106299Y97539D02*
Y102461D01*
X98425D02*
X106299D01*
X98425Y97539D02*
X106299D01*
X122555Y28280D02*
X129445D01*
X122555Y32059D02*
X129445D01*
Y28280D02*
Y32059D01*
X122555Y28280D02*
Y32059D01*
X142846Y26141D02*
Y39527D01*
X153476Y26141D02*
Y39527D01*
X142846Y26141D02*
X153476D01*
X142846Y39527D02*
X153476D01*
D72*
X5941Y59254D02*
X7041D01*
X5941Y55404D02*
Y59254D01*
Y55404D02*
X7041D01*
Y59254D01*
X7911D02*
X9011D01*
X7911Y55404D02*
Y59254D01*
Y55404D02*
X9011D01*
Y59254D01*
X9881D02*
X10981D01*
X9881Y55404D02*
Y59254D01*
Y55404D02*
X10981D01*
Y59254D01*
X11851D02*
X12951D01*
X11851Y55404D02*
Y59254D01*
Y55404D02*
X12951D01*
Y59254D01*
X13821D02*
X14921D01*
X13821Y55404D02*
Y59254D01*
Y55404D02*
X14921D01*
Y59254D01*
X15791D02*
X16891D01*
X15791Y55404D02*
Y59254D01*
Y55404D02*
X16891D01*
Y59254D01*
X17761D02*
X18861D01*
X17761Y55404D02*
Y59254D01*
Y55404D02*
X18861D01*
Y59254D01*
X19731D02*
X20831D01*
X19731Y55404D02*
Y59254D01*
Y55404D02*
X20831D01*
Y59254D01*
X19731Y71454D02*
X20831D01*
Y75304D01*
X19731D02*
X20831D01*
X19731Y71454D02*
Y75304D01*
X17761Y71454D02*
X18861D01*
Y75304D01*
X17761D02*
X18861D01*
X17761Y71454D02*
Y75304D01*
X15791Y71454D02*
X16891D01*
Y75304D01*
X15791D02*
X16891D01*
X15791Y71454D02*
Y75304D01*
X13821Y71454D02*
X14921D01*
Y75304D01*
X13821D02*
X14921D01*
X13821Y71454D02*
Y75304D01*
X11851Y71454D02*
X12951D01*
Y75304D01*
X11851D02*
X12951D01*
X11851Y71454D02*
Y75304D01*
X9881Y71454D02*
X10981D01*
Y75304D01*
X9881D02*
X10981D01*
X9881Y71454D02*
Y75304D01*
X7911Y71454D02*
X9011D01*
Y75304D01*
X7911D02*
X9011D01*
X7911Y71454D02*
Y75304D01*
X5941Y71454D02*
X7041D01*
Y75304D01*
X5941D02*
X7041D01*
X5941Y71454D02*
Y75304D01*
X21536Y59254D02*
Y71454D01*
X5236D02*
X21536D01*
X5236Y59254D02*
Y71454D01*
Y59254D02*
X21536D01*
M02*
