G04*
G04 #@! TF.GenerationSoftware,Altium Limited,Altium Designer,20.0.13 (296)*
G04*
G04 Layer_Physical_Order=2*
G04 Layer_Color=16711680*
%FSLAX25Y25*%
%MOIN*%
G70*
G01*
G75*
%ADD10C,0.00787*%
%ADD13C,0.01000*%
%ADD17R,0.03543X0.03937*%
%ADD22R,0.03347X0.03347*%
%ADD29R,0.03937X0.03543*%
%ADD60C,0.02000*%
%ADD67C,0.07087*%
%ADD68C,0.11811*%
%ADD69C,0.02362*%
G04:AMPARAMS|DCode=70|XSize=23.62mil|YSize=39.37mil|CornerRadius=5.91mil|HoleSize=0mil|Usage=FLASHONLY|Rotation=90.000|XOffset=0mil|YOffset=0mil|HoleType=Round|Shape=RoundedRectangle|*
%AMROUNDEDRECTD70*
21,1,0.02362,0.02756,0,0,90.0*
21,1,0.01181,0.03937,0,0,90.0*
1,1,0.01181,0.01378,0.00591*
1,1,0.01181,0.01378,-0.00591*
1,1,0.01181,-0.01378,-0.00591*
1,1,0.01181,-0.01378,0.00591*
%
%ADD70ROUNDEDRECTD70*%
%ADD71R,0.03937X0.02362*%
G36*
X113257Y111024D02*
X113593Y110653D01*
X113545Y110169D01*
X113679Y108816D01*
X114074Y107514D01*
X114715Y106314D01*
X115578Y105263D01*
X116629Y104400D01*
X117829Y103759D01*
X119131Y103364D01*
X120484Y103230D01*
X121838Y103364D01*
X123140Y103759D01*
X124339Y104400D01*
X125391Y105263D01*
X126254Y106314D01*
X126895Y107514D01*
X127290Y108816D01*
X127423Y110169D01*
X127375Y110653D01*
X127711Y111024D01*
X137273D01*
X137594Y110669D01*
X144500D01*
Y110169D01*
D01*
Y110669D01*
X151406D01*
X151727Y111024D01*
X154414D01*
Y73524D01*
X154060Y73171D01*
X95279Y73225D01*
X85803Y82701D01*
X85803Y111024D01*
X113257D01*
D02*
G37*
G36*
X111047Y26772D02*
X111600Y26772D01*
Y26772D01*
X154414D01*
Y1122D01*
X85600D01*
X85600Y43969D01*
X99839Y43969D01*
X99964Y43469D01*
X98913Y42907D01*
X97861Y42044D01*
X96998Y40993D01*
X96357Y39793D01*
X95962Y38491D01*
X95878Y37638D01*
X102768D01*
X109657D01*
X109573Y38491D01*
X109178Y39793D01*
X108537Y40993D01*
X107674Y42044D01*
X106623Y42907D01*
X105571Y43469D01*
X105697Y43969D01*
X111047D01*
X111047Y26772D01*
D02*
G37*
G36*
X81496Y82284D02*
X94599Y69180D01*
X154414Y69169D01*
Y27362D01*
X111600D01*
X111600Y44112D01*
X111600Y44587D01*
X111539Y44587D01*
X111047Y44587D01*
X111039Y44587D01*
X85000Y44587D01*
Y44569D01*
X85000D01*
X85000Y43973D01*
X85000Y43469D01*
X85000Y1122D01*
X71516D01*
Y43969D01*
X71500Y44007D01*
Y44569D01*
X71500D01*
Y44587D01*
X70944D01*
X70866Y44619D01*
X56090Y44619D01*
X56013Y44587D01*
X50310D01*
X50232Y44619D01*
X45453D01*
X45375Y44587D01*
X44961Y44587D01*
X44900Y44587D01*
X44900Y44203D01*
X44803Y43969D01*
X44803Y27421D01*
X1122D01*
Y134048D01*
X81496D01*
X81496Y82284D01*
D02*
G37*
G36*
X50232Y43969D02*
X50358Y43469D01*
X49306Y42907D01*
X48255Y42044D01*
X47392Y40993D01*
X46751Y39793D01*
X46356Y38491D01*
X46272Y37638D01*
X53162D01*
X60051D01*
X59967Y38491D01*
X59572Y39793D01*
X58931Y40993D01*
X58068Y42044D01*
X57016Y42907D01*
X55965Y43469D01*
X56090Y43969D01*
X70866Y43969D01*
Y1122D01*
X1122D01*
Y26772D01*
X44900D01*
Y26772D01*
X45453Y26772D01*
X45453Y43969D01*
X50232D01*
D02*
G37*
%LPC*%
G36*
X151390Y109669D02*
X145000D01*
Y103280D01*
X145854Y103364D01*
X147155Y103759D01*
X148355Y104400D01*
X149407Y105263D01*
X150269Y106314D01*
X150911Y107514D01*
X151306Y108816D01*
X151390Y109669D01*
D02*
G37*
G36*
X144000D02*
X137610D01*
X137694Y108816D01*
X138089Y107514D01*
X138731Y106314D01*
X139593Y105263D01*
X140645Y104400D01*
X141845Y103759D01*
X143146Y103364D01*
X144000Y103280D01*
Y109669D01*
D02*
G37*
G36*
X109657Y36638D02*
X103268D01*
Y30248D01*
X104121Y30332D01*
X105423Y30727D01*
X106623Y31368D01*
X107674Y32231D01*
X108537Y33283D01*
X109178Y34482D01*
X109573Y35784D01*
X109657Y36638D01*
D02*
G37*
G36*
X102268D02*
X95878D01*
X95962Y35784D01*
X96357Y34482D01*
X96998Y33283D01*
X97861Y32231D01*
X98913Y31368D01*
X100112Y30727D01*
X101414Y30332D01*
X102268Y30248D01*
Y36638D01*
D02*
G37*
G36*
X103000Y25186D02*
Y21169D01*
X107017D01*
X106926Y21855D01*
X106469Y22961D01*
X105740Y23910D01*
X104791Y24638D01*
X103686Y25096D01*
X103000Y25186D01*
D02*
G37*
G36*
X102000D02*
X101314Y25096D01*
X100209Y24638D01*
X99260Y23910D01*
X98531Y22961D01*
X98074Y21855D01*
X97983Y21169D01*
X102000D01*
Y25186D01*
D02*
G37*
G36*
X107017Y20169D02*
X103000D01*
Y16153D01*
X103686Y16243D01*
X104791Y16701D01*
X105740Y17429D01*
X106469Y18378D01*
X106926Y19483D01*
X107017Y20169D01*
D02*
G37*
G36*
X102000D02*
X97983D01*
X98074Y19483D01*
X98531Y18378D01*
X99260Y17429D01*
X100209Y16701D01*
X101314Y16243D01*
X102000Y16153D01*
Y20169D01*
D02*
G37*
G36*
X143122Y18581D02*
X141903Y18461D01*
X140732Y18106D01*
X139652Y17528D01*
X138705Y16752D01*
X137928Y15805D01*
X137351Y14725D01*
X136995Y13553D01*
X136875Y12335D01*
X136995Y11116D01*
X137351Y9944D01*
X137928Y8864D01*
X138705Y7918D01*
X139652Y7141D01*
X140732Y6564D01*
X141903Y6208D01*
X143122Y6088D01*
X144341Y6208D01*
X145512Y6564D01*
X146592Y7141D01*
X147539Y7918D01*
X148316Y8864D01*
X148893Y9944D01*
X149249Y11116D01*
X149369Y12335D01*
X149249Y13553D01*
X148893Y14725D01*
X148316Y15805D01*
X147539Y16752D01*
X146592Y17528D01*
X145512Y18106D01*
X144341Y18461D01*
X143122Y18581D01*
D02*
G37*
G36*
X29146Y112282D02*
X27927Y112162D01*
X26755Y111807D01*
X25675Y111229D01*
X24729Y110452D01*
X23952Y109506D01*
X23374Y108426D01*
X23019Y107254D01*
X22899Y106035D01*
X23019Y104817D01*
X23374Y103645D01*
X23952Y102565D01*
X24729Y101618D01*
X25675Y100842D01*
X26755Y100264D01*
X27927Y99909D01*
X29146Y99789D01*
X30364Y99909D01*
X31536Y100264D01*
X32616Y100842D01*
X33563Y101618D01*
X34339Y102565D01*
X34917Y103645D01*
X35272Y104817D01*
X35392Y106035D01*
X35272Y107254D01*
X34917Y108426D01*
X34339Y109506D01*
X33563Y110452D01*
X32616Y111229D01*
X31536Y111807D01*
X30364Y112162D01*
X29146Y112282D01*
D02*
G37*
G36*
X12197Y76984D02*
X9925D01*
Y74516D01*
X12197D01*
Y76984D01*
D02*
G37*
G36*
X47630D02*
X45358D01*
Y74516D01*
X47630D01*
Y76984D01*
D02*
G37*
G36*
X34055Y73666D02*
X33360Y73528D01*
X32836Y73178D01*
X32770Y73154D01*
X32726Y73113D01*
X32703Y73095D01*
X32675Y73078D01*
X32642Y73061D01*
X32603Y73045D01*
X32555Y73031D01*
X32500Y73019D01*
X32434Y73009D01*
X32360Y73002D01*
X32259Y73000D01*
X32197Y72972D01*
X30795D01*
X30733Y73000D01*
X30632Y73002D01*
X30558Y73009D01*
X30493Y73019D01*
X30437Y73031D01*
X30389Y73045D01*
X30350Y73061D01*
X30317Y73078D01*
X30290Y73095D01*
X30266Y73113D01*
X30222Y73154D01*
X30156Y73178D01*
X29632Y73528D01*
X28937Y73666D01*
X28242Y73528D01*
X27653Y73134D01*
X27259Y72545D01*
X27121Y71850D01*
X27259Y71155D01*
X27653Y70566D01*
X28242Y70173D01*
X28937Y70034D01*
X29632Y70173D01*
X30156Y70523D01*
X30222Y70547D01*
X30266Y70588D01*
X30290Y70606D01*
X30317Y70623D01*
X30350Y70640D01*
X30389Y70655D01*
X30437Y70670D01*
X30493Y70682D01*
X30558Y70692D01*
X30632Y70698D01*
X30733Y70701D01*
X30795Y70729D01*
X32197D01*
X32259Y70701D01*
X32360Y70698D01*
X32434Y70692D01*
X32500Y70682D01*
X32555Y70670D01*
X32603Y70655D01*
X32642Y70639D01*
X32675Y70623D01*
X32703Y70606D01*
X32726Y70588D01*
X32770Y70547D01*
X32836Y70523D01*
X33360Y70173D01*
X34055Y70034D01*
X34750Y70173D01*
X35339Y70566D01*
X35733Y71155D01*
X35871Y71850D01*
X35733Y72545D01*
X35339Y73134D01*
X34750Y73528D01*
X34055Y73666D01*
D02*
G37*
G36*
X15469Y76984D02*
X15399Y76984D01*
X15399Y76984D01*
X13197D01*
Y74016D01*
Y71047D01*
X15399D01*
X15399Y71047D01*
X15469D01*
X15710Y71447D01*
X15969Y71447D01*
X18100D01*
X18103Y71437D01*
X18119Y71341D01*
X18130Y71214D01*
X18134Y71042D01*
X18162Y70980D01*
Y67657D01*
X8349D01*
X8287Y67685D01*
X8186Y67687D01*
X8112Y67694D01*
X8046Y67704D01*
X7990Y67716D01*
X7943Y67730D01*
X7903Y67746D01*
X7871Y67763D01*
X7843Y67780D01*
X7820Y67798D01*
X7776Y67839D01*
X7710Y67863D01*
X7186Y68213D01*
X6491Y68351D01*
X5796Y68213D01*
X5207Y67819D01*
X4813Y67230D01*
X4675Y66535D01*
X4813Y65841D01*
X5207Y65251D01*
X5796Y64858D01*
X6491Y64719D01*
X7186Y64858D01*
X7710Y65208D01*
X7776Y65232D01*
X7820Y65273D01*
X7843Y65291D01*
X7871Y65308D01*
X7904Y65325D01*
X7943Y65340D01*
X7991Y65355D01*
X8046Y65367D01*
X8112Y65377D01*
X8186Y65383D01*
X8287Y65386D01*
X8349Y65414D01*
X11542D01*
X11778Y64973D01*
X11708Y64868D01*
X11570Y64173D01*
X11708Y63478D01*
X12058Y62954D01*
X12083Y62888D01*
X12124Y62844D01*
X12141Y62821D01*
X12158Y62793D01*
X12175Y62760D01*
X12191Y62721D01*
X12205Y62673D01*
X12218Y62617D01*
X12228Y62552D01*
X12234Y62478D01*
X12237Y62377D01*
X12264Y62315D01*
Y49496D01*
X12237Y49434D01*
X12234Y49333D01*
X12228Y49259D01*
X12218Y49193D01*
X12205Y49137D01*
X12191Y49090D01*
X12175Y49050D01*
X12158Y49018D01*
X12141Y48990D01*
X12123Y48967D01*
X12083Y48923D01*
X12058Y48857D01*
X11708Y48333D01*
X11570Y47638D01*
X11708Y46943D01*
X12102Y46354D01*
X12691Y45960D01*
X13386Y45822D01*
X14081Y45960D01*
X14670Y46354D01*
X14792Y46536D01*
X15251Y46747D01*
X15841Y46354D01*
X16535Y46215D01*
X17230Y46354D01*
X17819Y46747D01*
X18213Y47337D01*
X18351Y48031D01*
X18213Y48726D01*
X17863Y49251D01*
X17839Y49316D01*
X17798Y49360D01*
X17780Y49384D01*
X17763Y49411D01*
X17746Y49444D01*
X17731Y49484D01*
X17716Y49531D01*
X17704Y49587D01*
X17694Y49652D01*
X17687Y49727D01*
X17685Y49828D01*
X17657Y49890D01*
Y59826D01*
X18157Y60033D01*
X18596Y59740D01*
X19291Y59601D01*
X19986Y59740D01*
X20575Y60133D01*
X20969Y60722D01*
X21107Y61417D01*
X20969Y62112D01*
X20608Y62653D01*
X20586Y62711D01*
X20545Y62754D01*
X20527Y62777D01*
X20511Y62804D01*
X20494Y62836D01*
X20479Y62875D01*
X20464Y62922D01*
X20452Y62978D01*
X20442Y63042D01*
X20435Y63116D01*
X20433Y63218D01*
X20405Y63279D01*
Y70992D01*
X20433Y71059D01*
X20431Y71063D01*
X20433Y71067D01*
X20421Y72027D01*
X20428Y72091D01*
X20432Y72101D01*
X20440Y72113D01*
X20475Y72143D01*
X20555Y72190D01*
X20692Y72244D01*
X20884Y72293D01*
X21130Y72332D01*
X21427Y72357D01*
X21788Y72366D01*
X21828Y72384D01*
X22858D01*
X22927Y72338D01*
X23622Y72200D01*
X24317Y72338D01*
X24906Y72732D01*
X25300Y73321D01*
X25438Y74016D01*
X25300Y74711D01*
X24906Y75300D01*
X24317Y75694D01*
X23622Y75832D01*
X22927Y75694D01*
X22858Y75647D01*
X21828D01*
X21788Y75665D01*
X21427Y75674D01*
X21130Y75699D01*
X20884Y75738D01*
X20692Y75788D01*
X20555Y75841D01*
X20475Y75888D01*
X20440Y75919D01*
X20432Y75931D01*
X20428Y75941D01*
X20417Y76043D01*
X20383Y76104D01*
Y76584D01*
X19862D01*
X19771Y76622D01*
X19737Y76607D01*
X19700Y76618D01*
X19639Y76584D01*
X15710Y76584D01*
X15687Y76622D01*
X15469Y76984D01*
D02*
G37*
G36*
X12197Y73516D02*
X9925D01*
Y71047D01*
X12197D01*
Y73516D01*
D02*
G37*
G36*
X33850Y67142D02*
X31579D01*
Y64673D01*
X33850D01*
Y67142D01*
D02*
G37*
G36*
X66059Y65961D02*
X63787D01*
Y63492D01*
X66059D01*
Y65961D01*
D02*
G37*
G36*
X47630Y62492D02*
X45358D01*
Y60024D01*
X47630D01*
Y62492D01*
D02*
G37*
G36*
X50902Y76984D02*
X48630D01*
Y74016D01*
X48130D01*
Y73516D01*
X45358D01*
Y71047D01*
X45358D01*
Y69398D01*
X48130D01*
Y68398D01*
X45358D01*
Y65961D01*
X45358D01*
Y63492D01*
X48130D01*
Y62992D01*
X48630D01*
Y60024D01*
X48726D01*
X49044Y59637D01*
X49000Y59420D01*
X49139Y58725D01*
X49532Y58136D01*
X50122Y57742D01*
X50817Y57604D01*
X51512Y57742D01*
X51731Y57889D01*
X52231Y57621D01*
Y57087D01*
X52261Y56934D01*
X52253Y56919D01*
X52284Y56819D01*
X52323Y56622D01*
X52330Y56612D01*
X52343Y56527D01*
X52423Y56393D01*
X52484Y56267D01*
X52541Y56120D01*
X52558Y56068D01*
X52375Y55689D01*
X52277Y55568D01*
X43482D01*
X43441Y55586D01*
X43081Y55595D01*
X42783Y55620D01*
X42537Y55660D01*
X42345Y55709D01*
X42209Y55762D01*
X42128Y55810D01*
X42094Y55840D01*
X42085Y55852D01*
X42082Y55862D01*
X42070Y55964D01*
X42037Y56026D01*
Y57008D01*
X42074Y57099D01*
X42056Y57142D01*
X42068Y57188D01*
X42037Y57241D01*
Y60869D01*
X42068Y60922D01*
X42056Y60968D01*
X42074Y61012D01*
X42037Y61102D01*
Y62126D01*
X42074Y62217D01*
X42056Y62260D01*
X42068Y62306D01*
X42037Y62359D01*
Y66742D01*
X37363Y66742D01*
X37122Y67142D01*
X37052Y67142D01*
X37052Y67142D01*
X34850D01*
Y64173D01*
X34350D01*
Y63673D01*
X31579D01*
Y61205D01*
Y59555D01*
X34350D01*
Y58555D01*
X31579D01*
Y56087D01*
Y54437D01*
X34350D01*
Y53937D01*
X34850D01*
Y50968D01*
X37052D01*
X37052Y50968D01*
X37122D01*
X37363Y51368D01*
X37622Y51368D01*
X41293D01*
X41354Y51335D01*
X41390Y51345D01*
X41425Y51331D01*
X41515Y51368D01*
X42037D01*
Y51848D01*
X42070Y51910D01*
X42082Y52012D01*
X42085Y52022D01*
X42094Y52034D01*
X42128Y52064D01*
X42209Y52112D01*
X42345Y52165D01*
X42538Y52214D01*
X42783Y52254D01*
X43081Y52279D01*
X43441Y52288D01*
X43482Y52306D01*
X52674D01*
X52826Y51806D01*
X52587Y51646D01*
X52323Y51252D01*
X52231Y50787D01*
Y49606D01*
X52323Y49142D01*
X52587Y48748D01*
X52980Y48485D01*
X53445Y48392D01*
X56201D01*
X56665Y48485D01*
X57059Y48748D01*
X57322Y49142D01*
X57326Y49162D01*
X57485Y49176D01*
X57629Y49179D01*
X57756Y49235D01*
X58045Y49292D01*
X58409Y49536D01*
X64176Y55302D01*
X64237Y55325D01*
X64610Y55671D01*
X64750Y55783D01*
X64871Y55867D01*
X64920Y55896D01*
X65185D01*
X65257Y55872D01*
X65304Y55896D01*
X65356Y55887D01*
X65368Y55896D01*
X68218D01*
Y59458D01*
X66295D01*
X66057Y59903D01*
X66059Y60024D01*
X66059Y60059D01*
Y62492D01*
X63787D01*
Y60024D01*
X63996D01*
X64218Y59590D01*
X64133Y59458D01*
X63081D01*
Y57923D01*
X63058Y57880D01*
X63075Y57826D01*
X63057Y57772D01*
X63081Y57725D01*
Y57512D01*
X63078Y57507D01*
X62996Y57390D01*
X62709Y57053D01*
X62519Y56857D01*
X62503Y56817D01*
X62466Y56794D01*
X62455Y56754D01*
X57535Y51834D01*
X57426Y51783D01*
X57303Y51733D01*
X56987Y51697D01*
X56980Y51698D01*
X56665Y51909D01*
X56201Y52001D01*
X55540D01*
X55388Y52501D01*
X55615Y52653D01*
X56008Y53242D01*
X56147Y53937D01*
X56042Y54464D01*
X56049Y54481D01*
X56059Y54868D01*
X56085Y55186D01*
X56126Y55449D01*
X56179Y55652D01*
X56234Y55792D01*
X56280Y55869D01*
X56303Y55893D01*
X56321Y55897D01*
X56413Y55899D01*
X56479Y55928D01*
X56665Y55965D01*
X56773Y56037D01*
X56814Y56050D01*
X56826Y56072D01*
X56866Y56099D01*
X56867Y56100D01*
X56868Y56100D01*
X57059Y56228D01*
X57322Y56622D01*
X57415Y57087D01*
Y57174D01*
X58370Y58130D01*
X58724Y58659D01*
X58828Y59183D01*
X58866Y59269D01*
X58873Y59587D01*
X58893Y59847D01*
X58923Y60063D01*
X58962Y60231D01*
X59002Y60347D01*
X59030Y60401D01*
X59051Y60403D01*
X59086Y60424D01*
X60274Y60424D01*
X60516Y60024D01*
X60586Y60024D01*
X60586Y60024D01*
X62787D01*
Y62992D01*
Y65961D01*
X60585D01*
X60585Y65961D01*
X60516D01*
X60274Y65561D01*
X60016Y65561D01*
X54950D01*
X54728Y65945D01*
X54950Y66329D01*
X55817D01*
Y71447D01*
Y76584D01*
X51073D01*
X50902Y76984D01*
D02*
G37*
G36*
X78651Y58474D02*
X74105D01*
Y58179D01*
X69085D01*
Y55242D01*
X69065Y55207D01*
X69080Y55154D01*
X69060Y55101D01*
X69085Y55046D01*
Y54937D01*
X69035Y54866D01*
X68818Y54611D01*
X68673Y54461D01*
X68667Y54445D01*
X68651Y54437D01*
X68631Y54376D01*
X67895Y53641D01*
X67676Y53312D01*
X67599Y52925D01*
Y52890D01*
X67143Y52435D01*
X67077Y52410D01*
X66788Y52142D01*
X66686Y52060D01*
X66602Y52001D01*
X66382D01*
X66348Y52012D01*
X66327Y52001D01*
X64272D01*
X63807Y51909D01*
X63413Y51646D01*
X63150Y51252D01*
X63058Y50787D01*
Y49606D01*
X63150Y49142D01*
X63413Y48748D01*
X63807Y48485D01*
X64272Y48392D01*
X67028D01*
X67492Y48485D01*
X67886Y48748D01*
X68149Y49142D01*
X68185Y49323D01*
X68685Y49274D01*
Y47721D01*
X71153D01*
Y50492D01*
X72154D01*
Y47721D01*
X72346D01*
X72663Y47334D01*
X72603Y47030D01*
X72741Y46335D01*
X73135Y45746D01*
X73724Y45352D01*
X74419Y45214D01*
X75114Y45352D01*
X75703Y45746D01*
X76097Y46335D01*
X76235Y47030D01*
X76176Y47325D01*
X76585Y47825D01*
X78651D01*
Y52372D01*
X74622D01*
Y53264D01*
X74222Y53435D01*
Y53928D01*
X78651D01*
Y58474D01*
D02*
G37*
G36*
X33850Y53437D02*
X31579D01*
Y50968D01*
X33850D01*
Y53437D01*
D02*
G37*
%LPD*%
G36*
X33212Y71024D02*
X33145Y71086D01*
X33072Y71141D01*
X32993Y71190D01*
X32908Y71233D01*
X32818Y71269D01*
X32721Y71298D01*
X32619Y71321D01*
X32511Y71337D01*
X32396Y71347D01*
X32276Y71350D01*
Y72350D01*
X32396Y72354D01*
X32511Y72364D01*
X32619Y72380D01*
X32721Y72403D01*
X32818Y72432D01*
X32908Y72468D01*
X32993Y72510D01*
X33072Y72559D01*
X33145Y72615D01*
X33212Y72677D01*
Y71024D01*
D02*
G37*
G36*
X29847Y72615D02*
X29920Y72559D01*
X29999Y72510D01*
X30084Y72468D01*
X30174Y72432D01*
X30271Y72403D01*
X30373Y72380D01*
X30481Y72364D01*
X30596Y72354D01*
X30716Y72350D01*
Y71350D01*
X30596Y71347D01*
X30481Y71337D01*
X30373Y71321D01*
X30271Y71298D01*
X30174Y71269D01*
X30084Y71233D01*
X29999Y71190D01*
X29920Y71141D01*
X29847Y71086D01*
X29781Y71024D01*
Y72677D01*
X29847Y72615D01*
D02*
G37*
G36*
X19021Y74056D02*
X19050Y73955D01*
X19088Y73853D01*
X19137Y73750D01*
X19195Y73645D01*
X19264Y73538D01*
X19342Y73430D01*
X19529Y73210D01*
X19637Y73098D01*
X18930Y72391D01*
X18817Y72499D01*
X18597Y72685D01*
X18489Y72764D01*
X18383Y72832D01*
X18278Y72891D01*
X18174Y72939D01*
X18072Y72978D01*
X17972Y73007D01*
X17873Y73026D01*
X19002Y74155D01*
X19021Y74056D01*
D02*
G37*
G36*
X19792Y75791D02*
X19851Y75628D01*
X19951Y75484D01*
X20091Y75360D01*
X20271Y75255D01*
X20492Y75169D01*
X20752Y75102D01*
X21052Y75054D01*
X21392Y75025D01*
X21771Y75016D01*
Y73016D01*
X21392Y73006D01*
X21052Y72978D01*
X20752Y72930D01*
X20492Y72863D01*
X20271Y72777D01*
X20091Y72671D01*
X19951Y72547D01*
X19851Y72404D01*
X19792Y72241D01*
X19771Y72059D01*
Y75972D01*
X19792Y75791D01*
D02*
G37*
G36*
X19771Y72059D02*
X19783Y71059D01*
X18783D01*
X18778Y71251D01*
X18764Y71422D01*
X18738Y71574D01*
X18703Y71705D01*
X18658Y71816D01*
X18604Y71907D01*
X18539Y71978D01*
X18463Y72030D01*
X18379Y72060D01*
X18283Y72071D01*
X19771Y72059D01*
D02*
G37*
G36*
X7401Y67300D02*
X7474Y67245D01*
X7553Y67196D01*
X7638Y67153D01*
X7728Y67117D01*
X7825Y67088D01*
X7927Y67065D01*
X8035Y67049D01*
X8150Y67039D01*
X8269Y67035D01*
Y66035D01*
X8150Y66032D01*
X8035Y66022D01*
X7927Y66006D01*
X7825Y65983D01*
X7728Y65954D01*
X7638Y65918D01*
X7553Y65875D01*
X7474Y65826D01*
X7401Y65771D01*
X7334Y65709D01*
Y67362D01*
X7401Y67300D01*
D02*
G37*
G36*
X14151Y63263D02*
X14095Y63190D01*
X14046Y63111D01*
X14004Y63026D01*
X13968Y62936D01*
X13938Y62839D01*
X13915Y62737D01*
X13899Y62629D01*
X13889Y62514D01*
X13886Y62394D01*
X12886Y62394D01*
X12883Y62514D01*
X12873Y62629D01*
X12856Y62737D01*
X12833Y62839D01*
X12804Y62936D01*
X12768Y63026D01*
X12726Y63111D01*
X12677Y63190D01*
X12621Y63263D01*
X12559Y63330D01*
X14213Y63330D01*
X14151Y63263D01*
D02*
G37*
G36*
X19787Y63080D02*
X19797Y62966D01*
X19813Y62857D01*
X19836Y62755D01*
X19866Y62659D01*
X19902Y62568D01*
X19945Y62484D01*
X19994Y62405D01*
X20050Y62333D01*
X20112Y62266D01*
X18459Y62255D01*
X18521Y62323D01*
X18576Y62396D01*
X18624Y62475D01*
X18667Y62560D01*
X18702Y62651D01*
X18732Y62747D01*
X18754Y62850D01*
X18770Y62958D01*
X18780Y63072D01*
X18783Y63192D01*
X19783Y63200D01*
X19787Y63080D01*
D02*
G37*
G36*
X17300Y62478D02*
X17245Y62405D01*
X17196Y62326D01*
X17153Y62242D01*
X17117Y62151D01*
X17088Y62055D01*
X17065Y61952D01*
X17049Y61844D01*
X17039Y61730D01*
X17035Y61610D01*
X16035D01*
X16032Y61730D01*
X16022Y61844D01*
X16006Y61952D01*
X15983Y62055D01*
X15954Y62151D01*
X15918Y62242D01*
X15875Y62326D01*
X15826Y62405D01*
X15771Y62478D01*
X15709Y62545D01*
X17362D01*
X17300Y62478D01*
D02*
G37*
G36*
X17035Y49810D02*
X17039Y49690D01*
X17049Y49576D01*
X17065Y49468D01*
X17088Y49365D01*
X17117Y49269D01*
X17153Y49178D01*
X17196Y49093D01*
X17245Y49015D01*
X17300Y48942D01*
X17362Y48875D01*
X15709Y48875D01*
X15771Y48942D01*
X15826Y49015D01*
X15875Y49094D01*
X15918Y49178D01*
X15954Y49269D01*
X15983Y49365D01*
X16006Y49468D01*
X16022Y49576D01*
X16032Y49690D01*
X16035Y49810D01*
X17035Y49810D01*
D02*
G37*
G36*
X13886Y49416D02*
X13889Y49296D01*
X13899Y49182D01*
X13915Y49074D01*
X13938Y48972D01*
X13968Y48875D01*
X14004Y48785D01*
X14046Y48700D01*
X14095Y48621D01*
X14151Y48548D01*
X14213Y48481D01*
X12559Y48481D01*
X12621Y48548D01*
X12677Y48621D01*
X12726Y48700D01*
X12768Y48785D01*
X12804Y48875D01*
X12833Y48972D01*
X12856Y49074D01*
X12873Y49182D01*
X12883Y49296D01*
X12886Y49416D01*
X13886Y49416D01*
D02*
G37*
G36*
X54350Y72061D02*
X54265Y72031D01*
X54190Y71980D01*
X54125Y71909D01*
X54070Y71818D01*
X54025Y71707D01*
X53990Y71575D01*
X53970Y71457D01*
X53990Y71338D01*
X54025Y71206D01*
X54070Y71095D01*
X54125Y71004D01*
X54190Y70933D01*
X54265Y70883D01*
X54350Y70852D01*
X54445Y70842D01*
X52445D01*
X52540Y70852D01*
X52625Y70883D01*
X52700Y70933D01*
X52765Y71004D01*
X52820Y71095D01*
X52865Y71206D01*
X52900Y71338D01*
X52919Y71457D01*
X52900Y71575D01*
X52865Y71707D01*
X52820Y71818D01*
X52765Y71909D01*
X52700Y71980D01*
X52625Y72031D01*
X52540Y72061D01*
X52445Y72071D01*
X54445D01*
X54350Y72061D01*
D02*
G37*
G36*
Y66943D02*
X54265Y66913D01*
X54190Y66862D01*
X54125Y66791D01*
X54070Y66700D01*
X54025Y66589D01*
X53990Y66457D01*
X53965Y66306D01*
X53950Y66133D01*
X53945Y65945D01*
X53950Y65756D01*
X53965Y65584D01*
X53990Y65433D01*
X54025Y65301D01*
X54070Y65190D01*
X54125Y65099D01*
X54190Y65028D01*
X54265Y64977D01*
X54350Y64947D01*
X54445Y64937D01*
X52445D01*
X52540Y64947D01*
X52625Y64977D01*
X52700Y65028D01*
X52765Y65099D01*
X52820Y65190D01*
X52865Y65301D01*
X52900Y65433D01*
X52925Y65584D01*
X52940Y65756D01*
X52945Y65945D01*
X52940Y66133D01*
X52925Y66306D01*
X52900Y66457D01*
X52865Y66589D01*
X52820Y66700D01*
X52765Y66791D01*
X52700Y66862D01*
X52625Y66913D01*
X52540Y66943D01*
X52445Y66953D01*
X54445D01*
X54350Y66943D01*
D02*
G37*
G36*
X52901Y61048D02*
X52845Y61085D01*
X52773Y61098D01*
X52688Y61087D01*
X52587Y61052D01*
X52473Y60992D01*
X52344Y60908D01*
X52201Y60800D01*
X51990Y60614D01*
X51977Y60598D01*
X51919Y60512D01*
X51873Y60428D01*
X51840Y60345D01*
X51820Y60264D01*
X51813Y60185D01*
X51818Y60108D01*
X51837Y60032D01*
X51868Y59959D01*
X50323Y60493D01*
X50371Y60519D01*
X50430Y60559D01*
X50502Y60614D01*
X50788Y60863D01*
X51163Y61226D01*
X51558Y61695D01*
X51642Y61823D01*
X51701Y61938D01*
X51737Y62038D01*
X51748Y62124D01*
X51735Y62195D01*
X51697Y62252D01*
X52901Y61048D01*
D02*
G37*
G36*
X40673Y62632D02*
X40712Y62217D01*
X41425D01*
X41281Y62197D01*
X41151Y62137D01*
X41038Y62037D01*
X40939Y61897D01*
X40855Y61717D01*
X40823Y61614D01*
X40855Y61512D01*
X40939Y61332D01*
X41038Y61192D01*
X41151Y61092D01*
X41281Y61032D01*
X41425Y61012D01*
X40705D01*
X40696Y60937D01*
X40673Y60597D01*
X40665Y60217D01*
X38665D01*
X38658Y60597D01*
X38618Y61012D01*
X37906D01*
X38050Y61032D01*
X38179Y61092D01*
X38293Y61192D01*
X38392Y61332D01*
X38475Y61512D01*
X38507Y61614D01*
X38475Y61717D01*
X38392Y61897D01*
X38293Y62037D01*
X38179Y62137D01*
X38050Y62197D01*
X37906Y62217D01*
X38625D01*
X38635Y62292D01*
X38658Y62632D01*
X38665Y63012D01*
X40665D01*
X40673Y62632D01*
D02*
G37*
G36*
X58826Y61029D02*
X58698Y60976D01*
X58585Y60887D01*
X58487Y60764D01*
X58405Y60605D01*
X58337Y60411D01*
X58284Y60182D01*
X58247Y59917D01*
X58224Y59618D01*
X58217Y59284D01*
X56217D01*
X56213Y61036D01*
X58969Y61048D01*
X58826Y61029D01*
D02*
G37*
G36*
X65206Y56702D02*
X65116Y56709D01*
X65026Y56705D01*
X65000Y56701D01*
X65210Y56520D01*
X65128Y56571D01*
X65034Y56594D01*
X64926Y56591D01*
X64805Y56560D01*
X64670Y56501D01*
X64522Y56416D01*
X64360Y56303D01*
X64185Y56163D01*
X63796Y55801D01*
X62986Y56406D01*
X63190Y56616D01*
X63509Y56991D01*
X63625Y57156D01*
X63712Y57305D01*
X63769Y57439D01*
X63797Y57557D01*
X63796Y57660D01*
X63765Y57748D01*
X63705Y57820D01*
X64028Y57541D01*
X64036Y57555D01*
X64080Y57643D01*
X64117Y57732D01*
X64145Y57820D01*
X64166Y57909D01*
X64180Y57999D01*
X65206Y56702D01*
D02*
G37*
G36*
X40673Y57513D02*
X40712Y57099D01*
X41425D01*
X41281Y57079D01*
X41151Y57019D01*
X41038Y56919D01*
X40939Y56779D01*
X40855Y56599D01*
X40823Y56496D01*
X40855Y56393D01*
X40939Y56213D01*
X41038Y56073D01*
X41151Y55974D01*
X41281Y55914D01*
X41425Y55893D01*
X40705D01*
X40696Y55819D01*
X40673Y55479D01*
X40665Y55099D01*
X38665D01*
X38658Y55479D01*
X38618Y55893D01*
X37906D01*
X38050Y55914D01*
X38179Y55974D01*
X38293Y56073D01*
X38392Y56213D01*
X38475Y56393D01*
X38507Y56496D01*
X38475Y56599D01*
X38392Y56779D01*
X38293Y56919D01*
X38179Y57019D01*
X38050Y57079D01*
X37906Y57099D01*
X38625D01*
X38635Y57174D01*
X38658Y57513D01*
X38665Y57894D01*
X40665D01*
X40673Y57513D01*
D02*
G37*
G36*
X56398Y56548D02*
X56208Y56544D01*
X56038Y56495D01*
X55889Y56401D01*
X55759Y56263D01*
X55649Y56080D01*
X55560Y55852D01*
X55490Y55580D01*
X55440Y55264D01*
X55410Y54902D01*
X55400Y54497D01*
X53400Y54506D01*
X53395Y54818D01*
X53355Y55392D01*
X53320Y55654D01*
X53220Y56125D01*
X53155Y56335D01*
X53080Y56527D01*
X52995Y56703D01*
X52900Y56861D01*
X56398Y56548D01*
D02*
G37*
G36*
X41445Y55712D02*
X41505Y55549D01*
X41605Y55406D01*
X41745Y55281D01*
X41925Y55176D01*
X42145Y55090D01*
X42405Y55023D01*
X42705Y54975D01*
X43045Y54947D01*
X43425Y54937D01*
Y52937D01*
X43045Y52927D01*
X42705Y52899D01*
X42405Y52851D01*
X42145Y52784D01*
X41925Y52698D01*
X41745Y52593D01*
X41605Y52468D01*
X41505Y52325D01*
X41445Y52162D01*
X41425Y51981D01*
Y55893D01*
X41445Y55712D01*
D02*
G37*
G36*
X56656Y51087D02*
X56688Y51033D01*
X56739Y50985D01*
X56809Y50943D01*
X56897Y50908D01*
X57003Y50880D01*
X57129Y50857D01*
X57273Y50841D01*
X57616Y50829D01*
Y49829D01*
X57449Y49825D01*
X57169Y49799D01*
X57056Y49777D01*
X56961Y49748D01*
X56885Y49712D01*
X56826Y49670D01*
X56785Y49622D01*
X56763Y49567D01*
X56758Y49505D01*
X56642Y51147D01*
X56656Y51087D01*
D02*
G37*
G36*
X74729Y55020D02*
X74721Y55094D01*
X74697Y55161D01*
X74657Y55221D01*
X74601Y55272D01*
X74529Y55315D01*
X74441Y55350D01*
X74337Y55378D01*
X74217Y55398D01*
X74163Y55402D01*
X74110Y55398D01*
X73990Y55378D01*
X73886Y55350D01*
X73798Y55315D01*
X73726Y55272D01*
X73670Y55221D01*
X73630Y55161D01*
X73606Y55094D01*
X73598Y55020D01*
Y56595D01*
X73606Y56520D01*
X73630Y56453D01*
X73670Y56394D01*
X73726Y56343D01*
X73798Y56299D01*
X73886Y56264D01*
X73990Y56236D01*
X74110Y56217D01*
X74163Y56212D01*
X74217Y56217D01*
X74337Y56236D01*
X74441Y56264D01*
X74529Y56299D01*
X74601Y56343D01*
X74657Y56394D01*
X74697Y56453D01*
X74721Y56520D01*
X74729Y56595D01*
Y55020D01*
D02*
G37*
G36*
X72583Y56552D02*
X72672Y56478D01*
X72763Y56413D01*
X72857Y56357D01*
X72954Y56309D01*
X73053Y56270D01*
X73155Y56240D01*
X73259Y56218D01*
X73366Y56205D01*
X73476Y56201D01*
Y55413D01*
X73366Y55409D01*
X73259Y55396D01*
X73155Y55374D01*
X73053Y55344D01*
X72954Y55305D01*
X72857Y55257D01*
X72763Y55201D01*
X72672Y55136D01*
X72583Y55063D01*
X72497Y54980D01*
Y56634D01*
X72583Y56552D01*
D02*
G37*
G36*
X71529Y54633D02*
X71413Y54640D01*
X71301Y54639D01*
X71192Y54628D01*
X71088Y54609D01*
X70987Y54580D01*
X70890Y54541D01*
X70797Y54494D01*
X70707Y54437D01*
X70622Y54371D01*
X70568Y54321D01*
X70848Y54059D01*
X70786Y54101D01*
X70714Y54121D01*
X70630Y54119D01*
X70535Y54095D01*
X70429Y54049D01*
X70312Y53981D01*
X70184Y53891D01*
X70045Y53780D01*
X69735Y53491D01*
X69140Y54010D01*
X69299Y54174D01*
X69549Y54467D01*
X69639Y54596D01*
X69708Y54713D01*
X69753Y54819D01*
X69776Y54913D01*
X69776Y54995D01*
X69754Y55065D01*
X69709Y55123D01*
X70365Y54511D01*
X70040Y54909D01*
X70113Y54989D01*
X70180Y55072D01*
X70241Y55161D01*
X70294Y55254D01*
X70341Y55351D01*
X70382Y55453D01*
X70415Y55560D01*
X70442Y55672D01*
X70463Y55787D01*
X70477Y55908D01*
X71529Y54633D01*
D02*
G37*
G36*
X68152Y51454D02*
X67995Y51291D01*
X67749Y51001D01*
X67660Y50874D01*
X67594Y50759D01*
X67550Y50656D01*
X67530Y50565D01*
X67532Y50485D01*
X67558Y50418D01*
X67605Y50362D01*
X66405Y51365D01*
X66470Y51326D01*
X66545Y51309D01*
X66630Y51312D01*
X66726Y51337D01*
X66832Y51384D01*
X66949Y51451D01*
X67076Y51540D01*
X67213Y51650D01*
X67519Y51934D01*
X68152Y51454D01*
D02*
G37*
%LPC*%
G36*
X60051Y36638D02*
X53662D01*
Y30248D01*
X54515Y30332D01*
X55817Y30727D01*
X57016Y31368D01*
X58068Y32231D01*
X58931Y33283D01*
X59572Y34482D01*
X59967Y35784D01*
X60051Y36638D01*
D02*
G37*
G36*
X52662D02*
X46272D01*
X46356Y35784D01*
X46751Y34482D01*
X47392Y33283D01*
X48255Y32231D01*
X49306Y31368D01*
X50506Y30727D01*
X51808Y30332D01*
X52662Y30248D01*
Y36638D01*
D02*
G37*
G36*
X53500Y25186D02*
Y21169D01*
X57517D01*
X57426Y21855D01*
X56969Y22961D01*
X56240Y23910D01*
X55291Y24638D01*
X54186Y25096D01*
X53500Y25186D01*
D02*
G37*
G36*
X52500D02*
X51814Y25096D01*
X50709Y24638D01*
X49760Y23910D01*
X49031Y22961D01*
X48574Y21855D01*
X48483Y21169D01*
X52500D01*
Y25186D01*
D02*
G37*
G36*
X57517Y20169D02*
X53500D01*
Y16153D01*
X54186Y16243D01*
X55291Y16701D01*
X56240Y17429D01*
X56969Y18378D01*
X57426Y19483D01*
X57517Y20169D01*
D02*
G37*
G36*
X52500D02*
X48483D01*
X48574Y19483D01*
X49031Y18378D01*
X49760Y17429D01*
X50709Y16701D01*
X51814Y16243D01*
X52500Y16153D01*
Y20169D01*
D02*
G37*
%LPD*%
D10*
X71653Y55807D02*
X75984D01*
X76378Y56201D01*
X68612Y52470D02*
Y52925D01*
X65650Y50197D02*
X66339D01*
X68612Y52470D01*
X71494Y55807D02*
X71653D01*
X68612Y52925D02*
X71494Y55807D01*
D13*
X19284Y61425D02*
Y72744D01*
X18012Y74016D02*
X19284Y72744D01*
Y61425D02*
X19291Y61417D01*
X6491Y66535D02*
X18890D01*
X13386Y64173D02*
X13386Y64173D01*
X13386Y64173D02*
X13386Y64173D01*
X13386Y47638D02*
Y64173D01*
X13386Y47638D02*
X13386Y47638D01*
X53445Y68898D02*
Y74016D01*
Y62992D02*
Y68898D01*
Y62795D02*
Y62992D01*
X51077Y60427D02*
X53445Y62795D01*
X51077Y59680D02*
Y60427D01*
X50817Y59420D02*
X51077Y59680D01*
X74679Y48400D02*
X76378Y50098D01*
X74679Y47291D02*
Y48400D01*
X74419Y47030D02*
X74679Y47291D01*
X65161Y57874D02*
X65354D01*
X57616Y50329D02*
X65161Y57874D01*
X54823Y50197D02*
X54955Y50329D01*
X57616D01*
X16535Y48031D02*
Y63388D01*
X48130Y74016D02*
X48130Y74016D01*
X28937Y71850D02*
X34055D01*
D17*
X57972Y62992D02*
D03*
X63287Y62992D02*
D03*
X39665Y59055D02*
D03*
X34350D02*
D03*
X53445Y62992D02*
D03*
X48130D02*
D03*
Y74016D02*
D03*
X53445D02*
D03*
X48130Y68898D02*
D03*
X53445D02*
D03*
X12697Y74016D02*
D03*
X18012D02*
D03*
X39665Y64173D02*
D03*
X34350D02*
D03*
X39665Y53937D02*
D03*
X34350D02*
D03*
D22*
X76378Y50098D02*
D03*
Y56201D02*
D03*
D29*
X71653Y55807D02*
D03*
Y50492D02*
D03*
D60*
X39665Y59055D02*
Y64173D01*
Y53937D02*
Y59055D01*
Y53937D02*
X39665Y53937D01*
X54331D01*
X54823Y57677D02*
X55610D01*
X57217Y62236D02*
X57972Y62992D01*
X55610Y57677D02*
X57217Y59284D01*
X54400Y54006D02*
Y57496D01*
X54581Y57677D01*
X54331Y53937D02*
X54400Y54006D01*
X57217Y59284D02*
Y62236D01*
X54581Y57677D02*
X54823D01*
X18012Y74016D02*
X23622D01*
D67*
X102500Y20669D02*
D03*
X53000D02*
D03*
D68*
X120484Y124146D02*
D03*
X144500D02*
D03*
Y110169D02*
D03*
X120484D02*
D03*
X53161Y37138D02*
D03*
X102768D02*
D03*
D69*
X144000Y65669D02*
D03*
X139000Y55669D02*
D03*
X134000Y65669D02*
D03*
X129000Y55669D02*
D03*
X124000Y65669D02*
D03*
X119000Y55669D02*
D03*
X114000Y65669D02*
D03*
X109000Y55669D02*
D03*
X104000Y65669D02*
D03*
X94000D02*
D03*
X74000Y85669D02*
D03*
Y65669D02*
D03*
X64000Y85669D02*
D03*
X54000D02*
D03*
X39000Y95669D02*
D03*
Y35669D02*
D03*
X34000Y125669D02*
D03*
X29000Y115669D02*
D03*
Y35669D02*
D03*
X24000Y125669D02*
D03*
X14000D02*
D03*
Y105669D02*
D03*
X9000Y95669D02*
D03*
X14000Y85669D02*
D03*
X39665Y59055D02*
D03*
X34350D02*
D03*
X6491Y66535D02*
D03*
X13386Y64173D02*
D03*
X50817Y59420D02*
D03*
X71653Y55807D02*
D03*
X65354Y57874D02*
D03*
X47638Y59055D02*
D03*
X74419Y47030D02*
D03*
X61713Y57874D02*
D03*
X112992Y43307D02*
D03*
X23622Y58661D02*
D03*
X16535Y48031D02*
D03*
X13386Y47638D02*
D03*
X19291Y61417D02*
D03*
X16535Y63388D02*
D03*
X9843Y69685D02*
D03*
X5118Y116142D02*
D03*
X8661Y112598D02*
D03*
Y119685D02*
D03*
X93307Y100394D02*
D03*
X149000Y95669D02*
D03*
Y75669D02*
D03*
X139000Y95669D02*
D03*
X144000Y85669D02*
D03*
X139000Y75669D02*
D03*
X134000Y105669D02*
D03*
X129000Y95669D02*
D03*
X134000Y85669D02*
D03*
X129000Y75669D02*
D03*
X119000Y95669D02*
D03*
X124000Y85669D02*
D03*
X119000Y75669D02*
D03*
X114000Y85669D02*
D03*
X109000Y75669D02*
D03*
X104000Y85669D02*
D03*
X94000D02*
D03*
X46457Y95276D02*
D03*
X12205Y116142D02*
D03*
X3937Y88976D02*
D03*
X24803Y47638D02*
D03*
X58268Y95276D02*
D03*
X87795Y54331D02*
D03*
X82284Y16142D02*
D03*
X74410D02*
D03*
X54331Y53937D02*
D03*
X28937Y71850D02*
D03*
X34055D02*
D03*
X23622Y74016D02*
D03*
X37008Y120472D02*
D03*
X118000Y89669D02*
D03*
Y60169D02*
D03*
X103500D02*
D03*
X4000Y5669D02*
D03*
X14000D02*
D03*
X24000D02*
D03*
X34000D02*
D03*
X44000D02*
D03*
X54000D02*
D03*
X64000D02*
D03*
Y15669D02*
D03*
Y25669D02*
D03*
X4000Y20669D02*
D03*
X14000D02*
D03*
X24000D02*
D03*
X34000D02*
D03*
X44000D02*
D03*
X89000Y15669D02*
D03*
X119000Y20669D02*
D03*
X129000D02*
D03*
X139000D02*
D03*
X89000Y25669D02*
D03*
Y5669D02*
D03*
X99000D02*
D03*
X109000D02*
D03*
X119000D02*
D03*
X129000D02*
D03*
X139000D02*
D03*
X149000D02*
D03*
X133500Y30169D02*
D03*
X138606Y40551D02*
D03*
X135000Y46669D02*
D03*
D70*
X54823Y57677D02*
D03*
Y50197D02*
D03*
X65650D02*
D03*
Y53937D02*
D03*
D71*
Y57677D02*
D03*
M02*
