G04*
G04 #@! TF.GenerationSoftware,Altium Limited,Altium Designer,20.0.13 (296)*
G04*
G04 Layer_Color=32896*
%FSLAX25Y25*%
%MOIN*%
G70*
G01*
G75*
%ADD10C,0.00787*%
%ADD12C,0.00984*%
%ADD16C,0.00591*%
D10*
X58268Y47835D02*
Y60039D01*
X62205Y47835D02*
Y60039D01*
X58268Y47835D02*
X62205D01*
X58268Y60039D02*
X62205D01*
D12*
X66142Y61024D02*
G03*
X66142Y61024I-492J0D01*
G01*
D16*
X29397Y60104D02*
X29922Y60629D01*
X30971D01*
X31496Y60104D01*
Y58005D01*
X30971Y57480D01*
X29922D01*
X29397Y58005D01*
X28348Y57480D02*
X27298D01*
X27823D01*
Y60629D01*
X28348Y60104D01*
X25724Y58005D02*
X25199Y57480D01*
X24149D01*
X23625Y58005D01*
Y60104D01*
X24149Y60629D01*
X25199D01*
X25724Y60104D01*
Y59579D01*
X25199Y59055D01*
X23625D01*
X29397Y65222D02*
X29922Y65747D01*
X30971D01*
X31496Y65222D01*
Y63123D01*
X30971Y62598D01*
X29922D01*
X29397Y63123D01*
X28348Y62598D02*
X27298D01*
X27823D01*
Y65747D01*
X28348Y65222D01*
X23625Y65747D02*
X24674Y65222D01*
X25724Y64173D01*
Y63123D01*
X25199Y62598D01*
X24149D01*
X23625Y63123D01*
Y63648D01*
X24149Y64173D01*
X25724D01*
X29397Y54986D02*
X29922Y55511D01*
X30971D01*
X31496Y54986D01*
Y52887D01*
X30971Y52362D01*
X29922D01*
X29397Y52887D01*
X28348Y52362D02*
X27298D01*
X27823D01*
Y55511D01*
X28348Y54986D01*
X25724D02*
X25199Y55511D01*
X24149D01*
X23625Y54986D01*
Y54461D01*
X24149Y53936D01*
X23625Y53412D01*
Y52887D01*
X24149Y52362D01*
X25199D01*
X25724Y52887D01*
Y53412D01*
X25199Y53936D01*
X25724Y54461D01*
Y54986D01*
X25199Y53936D02*
X24149D01*
X49476Y58923D02*
X50001Y59448D01*
X51050D01*
X51575Y58923D01*
Y56824D01*
X51050Y56299D01*
X50001D01*
X49476Y56824D01*
X48426Y56299D02*
X47377D01*
X47901D01*
Y59448D01*
X48426Y58923D01*
X45802Y59448D02*
X43703D01*
Y58923D01*
X45802Y56824D01*
Y56299D01*
X43176Y69947D02*
X43701Y70471D01*
X44751D01*
X45276Y69947D01*
Y67848D01*
X44751Y67323D01*
X43701D01*
X43176Y67848D01*
X42127Y67323D02*
X41078D01*
X41602D01*
Y70471D01*
X42127Y69947D01*
X37404Y70471D02*
X39503D01*
Y68897D01*
X38454Y69422D01*
X37929D01*
X37404Y68897D01*
Y67848D01*
X37929Y67323D01*
X38978D01*
X39503Y67848D01*
X43176Y75065D02*
X43701Y75590D01*
X44751D01*
X45276Y75065D01*
Y72966D01*
X44751Y72441D01*
X43701D01*
X43176Y72966D01*
X42127Y72441D02*
X41078D01*
X41602D01*
Y75590D01*
X42127Y75065D01*
X37929Y72441D02*
Y75590D01*
X39503Y74015D01*
X37404D01*
X68634Y61943D02*
X68110Y61418D01*
X67060D01*
X66535Y61943D01*
Y64042D01*
X67060Y64567D01*
X68110D01*
X68634Y64042D01*
X69684Y61943D02*
X70209Y61418D01*
X71258D01*
X71783Y61943D01*
Y62468D01*
X71258Y62993D01*
X71783Y63517D01*
Y64042D01*
X71258Y64567D01*
X70209D01*
X69684Y64042D01*
Y63517D01*
X70209Y62993D01*
X69684Y62468D01*
Y61943D01*
X70209Y62993D02*
X71258D01*
X62598Y46849D02*
Y44226D01*
X62074Y43701D01*
X61024D01*
X60499Y44226D01*
Y46849D01*
X57876Y43701D02*
Y46849D01*
X59450Y45275D01*
X57351D01*
X16799Y79396D02*
X17323Y79920D01*
X18373D01*
X18898Y79396D01*
Y77296D01*
X18373Y76772D01*
X17323D01*
X16799Y77296D01*
X15749Y76772D02*
X14699D01*
X15224D01*
Y79920D01*
X15749Y79396D01*
X13125Y76772D02*
X12076D01*
X12600D01*
Y79920D01*
X13125Y79396D01*
X74803Y40157D02*
X77952D01*
Y41732D01*
X77427Y42257D01*
X76377D01*
X75853Y41732D01*
Y40157D01*
Y41207D02*
X74803Y42257D01*
Y45405D02*
Y43306D01*
X76902Y45405D01*
X77427D01*
X77952Y44880D01*
Y43831D01*
X77427Y43306D01*
X72703Y42257D02*
X73227Y41732D01*
Y40682D01*
X72703Y40157D01*
X70604D01*
X70079Y40682D01*
Y41732D01*
X70604Y42257D01*
X70079Y43306D02*
Y44356D01*
Y43831D01*
X73227D01*
X72703Y43306D01*
Y45930D02*
X73227Y46455D01*
Y47504D01*
X72703Y48029D01*
X70604D01*
X70079Y47504D01*
Y46455D01*
X70604Y45930D01*
X72703D01*
M02*
