G04*
G04 #@! TF.GenerationSoftware,Altium Limited,Altium Designer,18.0.9 (584)*
G04*
G04 Layer_Color=32768*
%FSLAX25Y25*%
%MOIN*%
G70*
G01*
G75*
%ADD15C,0.00394*%
%ADD62C,0.00197*%
D15*
X290631Y60646D02*
X294411D01*
X292521Y58756D02*
Y62535D01*
X167953Y104429D02*
X171102D01*
X169528Y102854D02*
Y106004D01*
X172953Y104429D02*
X176102D01*
X174528Y102854D02*
Y106004D01*
X177953Y104429D02*
X181102D01*
X179528Y102854D02*
Y106004D01*
X182953Y104429D02*
X186102D01*
X184528Y102854D02*
Y106004D01*
X187953Y104429D02*
X191102D01*
X189528Y102854D02*
Y106004D01*
X192953Y104429D02*
X196102D01*
X194528Y102854D02*
Y106004D01*
X316339Y62402D02*
Y65551D01*
X314764Y63976D02*
X317913D01*
X316339Y56496D02*
Y59646D01*
X314764Y58071D02*
X317913D01*
X314055Y52165D02*
X317835D01*
X315945Y50276D02*
Y54055D01*
X309862Y84055D02*
Y87205D01*
X308287Y85630D02*
X311437D01*
X308247Y91535D02*
X312026D01*
X310137Y89646D02*
Y93425D01*
X298130Y78150D02*
Y81299D01*
X296555Y79724D02*
X299705D01*
X298327Y84055D02*
Y87205D01*
X296752Y85630D02*
X299902D01*
X296358Y91535D02*
X300138D01*
X298248Y89646D02*
Y93425D01*
X145276Y84626D02*
Y88406D01*
X143386Y86516D02*
X147165D01*
X176476Y43110D02*
Y46260D01*
X174902Y44685D02*
X178051D01*
X137795Y43091D02*
Y46870D01*
X135906Y44980D02*
X139685D01*
X218866Y94248D02*
Y97398D01*
X217291Y95823D02*
X220441D01*
X218822Y94248D02*
Y97398D01*
X217247Y95823D02*
X220396D01*
X218837Y89461D02*
Y92610D01*
X217263Y91035D02*
X220412D01*
X309862Y78150D02*
Y81299D01*
X308287Y79724D02*
X311437D01*
X302244Y42028D02*
X306024D01*
X304134Y40138D02*
Y43917D01*
X310394Y40846D02*
Y43996D01*
X308819Y42421D02*
X311968D01*
X315354D02*
X318504D01*
X316929Y40846D02*
Y43996D01*
X270394Y52147D02*
Y55926D01*
X268504Y54037D02*
X272284D01*
X261667Y50197D02*
Y54134D01*
X259699Y52165D02*
X263636D01*
X252953Y52147D02*
Y55926D01*
X251063Y54037D02*
X254842D01*
X291634Y45276D02*
X294783D01*
X293209Y43701D02*
Y46850D01*
D62*
X295474Y55330D02*
Y65960D01*
X289568Y55330D02*
Y65960D01*
X295474D01*
X289568Y55330D02*
X295474D01*
X166772Y98721D02*
Y110138D01*
X172283Y98721D02*
Y110138D01*
X166772Y98721D02*
X172283D01*
X166772Y110138D02*
X172283D01*
X171772Y98721D02*
Y110138D01*
X177284Y98721D02*
Y110138D01*
X171772Y98721D02*
X177284D01*
X171772Y110138D02*
X177284D01*
X176772Y98721D02*
Y110138D01*
X182283Y98721D02*
Y110138D01*
X176772Y98721D02*
X182283D01*
X176772Y110138D02*
X182283D01*
X181772Y98721D02*
Y110138D01*
X187284Y98721D02*
Y110138D01*
X181772Y98721D02*
X187284D01*
X181772Y110138D02*
X187284D01*
X186772Y98721D02*
Y110138D01*
X192283Y98721D02*
Y110138D01*
X186772Y98721D02*
X192283D01*
X186772Y110138D02*
X192283D01*
X191772Y98721D02*
Y110138D01*
X197283Y98721D02*
Y110138D01*
X191772Y98721D02*
X197283D01*
X191772Y110138D02*
X197283D01*
X310630Y66732D02*
X322047D01*
X310630Y61221D02*
X322047D01*
X310630D02*
Y66732D01*
X322047Y61221D02*
Y66732D01*
X310630Y55315D02*
X322047D01*
X310630Y60827D02*
X322047D01*
Y55315D02*
Y60827D01*
X310630Y55315D02*
Y60827D01*
Y49213D02*
Y55118D01*
X321260Y49213D02*
Y55118D01*
X310630D02*
X321260D01*
X310630Y49213D02*
X321260D01*
X304153Y82874D02*
X315571D01*
X304153Y88386D02*
X315571D01*
Y82874D02*
Y88386D01*
X304153Y82874D02*
Y88386D01*
X304822Y88583D02*
Y94488D01*
X315452Y88583D02*
Y94488D01*
X304822D02*
X315452D01*
X304822Y88583D02*
X315452D01*
X292421Y76968D02*
X303839D01*
X292421Y82480D02*
X303839D01*
Y76968D02*
Y82480D01*
X292421Y76968D02*
Y82480D01*
X292618Y82874D02*
X304035D01*
X292618Y88386D02*
X304035D01*
Y82874D02*
Y88386D01*
X292618Y82874D02*
Y88386D01*
X303563Y88583D02*
Y94488D01*
X292933Y88583D02*
Y94488D01*
Y88583D02*
X303563D01*
X292933Y94488D02*
X303563D01*
X142323Y91831D02*
X148228D01*
X142323Y81201D02*
X148228D01*
Y91831D01*
X142323Y81201D02*
Y91831D01*
X170768Y41929D02*
X182185D01*
X170768Y47441D02*
X182185D01*
Y41929D02*
Y47441D01*
X170768Y41929D02*
Y47441D01*
X134843Y39665D02*
X140748D01*
X134843Y50295D02*
X140748D01*
X134843Y39665D02*
Y50295D01*
X140748Y39665D02*
Y50295D01*
X213129Y88279D02*
X224546D01*
X213129Y93791D02*
X224546D01*
Y88279D02*
Y93791D01*
X213129Y88279D02*
Y93791D01*
X304153Y82480D02*
X315571D01*
X304153Y76968D02*
X315571D01*
X304153D02*
Y82480D01*
X315571Y76968D02*
Y82480D01*
X307087Y36713D02*
Y47343D01*
X301181Y36713D02*
Y47343D01*
X307087D01*
X301181Y36713D02*
X307087D01*
X307638Y48130D02*
X313150D01*
X307638Y36713D02*
X313150D01*
Y48130D01*
X307638Y36713D02*
Y48130D01*
X314173Y36713D02*
Y48130D01*
X319685Y36713D02*
Y48130D01*
X314173Y36713D02*
X319685D01*
X314173Y48130D02*
X319685D01*
X267441Y48722D02*
X273346D01*
X267441Y59351D02*
X273346D01*
X267441Y48722D02*
Y59351D01*
X273346Y48722D02*
Y59351D01*
X256254Y47539D02*
X267080D01*
X256254Y56890D02*
X267080D01*
X256254Y47539D02*
Y56890D01*
X267080Y47539D02*
Y56890D01*
X250000Y48722D02*
X255906D01*
X250000Y59351D02*
X255906D01*
X250000Y48722D02*
Y59351D01*
X255906Y48722D02*
Y59351D01*
X287500Y42520D02*
Y48031D01*
X298917Y42520D02*
Y48031D01*
X287500D02*
X298917D01*
X287500Y42520D02*
X298917D01*
M02*
