G04*
G04 #@! TF.GenerationSoftware,Altium Limited,Altium Designer,19.0.10 (269)*
G04*
G04 Layer_Color=32768*
%FSLAX25Y25*%
%MOIN*%
G70*
G01*
G75*
%ADD65C,0.00394*%
%ADD66C,0.00197*%
D65*
X326279Y41796D02*
Y45733D01*
X324311Y43765D02*
X328248D01*
X263376Y41526D02*
Y45463D01*
X261408Y43494D02*
X265345D01*
X320394Y27992D02*
Y31772D01*
X318504Y29882D02*
X322284D01*
X66043Y42190D02*
Y45339D01*
X64468Y43765D02*
X67618D01*
X45256Y38189D02*
X49035D01*
X47146Y36299D02*
Y40079D01*
X45354Y31890D02*
X49134D01*
X47244Y30000D02*
Y33779D01*
X61417Y27953D02*
Y31102D01*
X59842Y29528D02*
X62992D01*
X53543Y20571D02*
X56693D01*
X55118Y18996D02*
Y22146D01*
X48228Y19075D02*
Y22854D01*
X46339Y20965D02*
X50118D01*
X30709Y20157D02*
Y23937D01*
X28819Y22047D02*
X32598D01*
X35433Y20079D02*
X38583D01*
X37008Y18504D02*
Y21654D01*
X4921Y80492D02*
Y84272D01*
X3032Y82382D02*
X6811D01*
X337008Y30610D02*
X340158D01*
X338583Y29035D02*
Y32185D01*
X330709Y28327D02*
Y32106D01*
X328819Y30217D02*
X332598D01*
X295669Y35896D02*
X298819D01*
X297244Y34321D02*
Y37471D01*
X347835Y36875D02*
X350984D01*
X349410Y35300D02*
Y38450D01*
X342520Y40595D02*
Y44375D01*
X340630Y42485D02*
X344409D01*
X327835Y54391D02*
X331614D01*
X329724Y52501D02*
Y56280D01*
X310394Y37480D02*
Y41260D01*
X308504Y39370D02*
X312283D01*
X302559D02*
X305709D01*
X304134Y37795D02*
Y40945D01*
X262874Y54181D02*
X266653D01*
X264764Y52291D02*
Y56071D01*
X285063Y35311D02*
X288213D01*
X286638Y33736D02*
Y36886D01*
X267535Y32874D02*
X271315D01*
X269425Y30984D02*
Y34764D01*
X276054Y25377D02*
X279833D01*
X277943Y23487D02*
Y27266D01*
X278211Y35433D02*
X281361D01*
X279786Y33858D02*
Y37008D01*
X240158Y28327D02*
Y32106D01*
X238268Y30217D02*
X242047D01*
X248031Y37480D02*
Y41260D01*
X246142Y39370D02*
X249921D01*
X238819Y42028D02*
X241968D01*
X240394Y40453D02*
Y43602D01*
X198527Y58500D02*
X201676D01*
X200102Y56925D02*
Y60075D01*
X193280Y57004D02*
Y60783D01*
X191390Y58894D02*
X195169D01*
X185799Y58579D02*
X188949D01*
X187374Y57004D02*
Y60154D01*
X181468Y57083D02*
Y60863D01*
X179579Y58973D02*
X183358D01*
X196134Y45213D02*
Y48362D01*
X194559Y46787D02*
X197709D01*
X184323Y45213D02*
Y48362D01*
X182748Y46787D02*
X185898D01*
X160236Y94095D02*
Y97244D01*
X158661Y95669D02*
X161811D01*
X163386Y85217D02*
Y88996D01*
X161496Y87107D02*
X165276D01*
X174409Y58661D02*
X177559D01*
X175984Y57087D02*
Y60236D01*
X169783Y57109D02*
Y60889D01*
X167894Y58999D02*
X171673D01*
X161811Y58500D02*
X164961D01*
X163386Y56925D02*
Y60075D01*
X210255Y80986D02*
X214034D01*
X212144Y79096D02*
Y82875D01*
X212538Y85316D02*
Y88466D01*
X210963Y86891D02*
X214113D01*
X208035Y96457D02*
X211185D01*
X209610Y94882D02*
Y98032D01*
X200837Y97785D02*
Y100935D01*
X199262Y99360D02*
X202411D01*
X190403Y102313D02*
X193553D01*
X191978Y100738D02*
Y103888D01*
X186073Y100128D02*
Y103908D01*
X184183Y102018D02*
X187963D01*
X259203Y105315D02*
X262352D01*
X260778Y103740D02*
Y106890D01*
X259202Y105359D02*
X262352D01*
X260777Y103785D02*
Y106934D01*
X264163Y105493D02*
X267313D01*
X265738Y103918D02*
Y107068D01*
X175689Y99901D02*
Y103680D01*
X173799Y101791D02*
X177579D01*
X168209Y102184D02*
X171358D01*
X169783Y100610D02*
Y103759D01*
X233268Y28937D02*
Y32087D01*
X231693Y30512D02*
X234842D01*
D66*
X313878Y36678D02*
X338681D01*
X313878Y50851D02*
X338681D01*
Y36678D02*
Y50851D01*
X313878Y36678D02*
Y50851D01*
X250975Y36408D02*
X275778D01*
X250975Y50581D02*
X275778D01*
Y36408D02*
Y50581D01*
X250975Y36408D02*
Y50581D01*
X317441Y24567D02*
X323346D01*
X317441Y35197D02*
X323346D01*
X317441Y24567D02*
Y35197D01*
X323346Y24567D02*
Y35197D01*
X60335Y41009D02*
X71752D01*
X60335Y46521D02*
X71752D01*
Y41009D02*
Y46521D01*
X60335Y41009D02*
Y46521D01*
X41831Y35236D02*
Y41142D01*
X52461Y35236D02*
Y41142D01*
X41831D02*
X52461D01*
X41831Y35236D02*
X52461D01*
X41929Y28937D02*
Y34843D01*
X52559Y28937D02*
Y34843D01*
X41929D02*
X52559D01*
X41929Y28937D02*
X52559D01*
X55709Y26772D02*
X67126D01*
X55709Y32283D02*
X67126D01*
Y26772D02*
Y32283D01*
X55709Y26772D02*
Y32283D01*
X52362Y14862D02*
Y26280D01*
X57874Y14862D02*
Y26280D01*
X52362Y14862D02*
X57874D01*
X52362Y26280D02*
X57874D01*
X45276D02*
X51181D01*
X45276Y15650D02*
X51181D01*
Y26280D01*
X45276Y15650D02*
Y26280D01*
X27756Y27362D02*
X33661D01*
X27756Y16732D02*
X33661D01*
Y27362D01*
X27756Y16732D02*
Y27362D01*
X34252Y14370D02*
Y25787D01*
X39764Y14370D02*
Y25787D01*
X34252Y14370D02*
X39764D01*
X34252Y25787D02*
X39764D01*
X1969Y77067D02*
X7874D01*
X1969Y87697D02*
X7874D01*
X1969Y77067D02*
Y87697D01*
X7874Y77067D02*
Y87697D01*
X335827Y24902D02*
Y36319D01*
X341339Y24902D02*
Y36319D01*
X335827Y24902D02*
X341339D01*
X335827Y36319D02*
X341339D01*
X327756Y24902D02*
X333661D01*
X327756Y35531D02*
X333661D01*
X327756Y24902D02*
Y35531D01*
X333661Y24902D02*
Y35531D01*
X294488Y30187D02*
Y41605D01*
X300000Y30187D02*
Y41605D01*
X294488Y30187D02*
X300000D01*
X294488Y41605D02*
X300000D01*
X346654Y31166D02*
Y42584D01*
X352165Y31166D02*
Y42584D01*
X346654Y31166D02*
X352165D01*
X346654Y42584D02*
X352165D01*
X339567Y37170D02*
X345472D01*
X339567Y47800D02*
X345472D01*
X339567Y37170D02*
Y47800D01*
X345472Y37170D02*
Y47800D01*
X335039Y51438D02*
Y57343D01*
X324410Y51438D02*
Y57343D01*
Y51438D02*
X335039D01*
X324410Y57343D02*
X335039D01*
X307441Y44685D02*
X313347D01*
X307441Y34055D02*
X313347D01*
Y44685D01*
X307441Y34055D02*
Y44685D01*
X301378Y33661D02*
Y45079D01*
X306890Y33661D02*
Y45079D01*
X301378Y33661D02*
X306890D01*
X301378Y45079D02*
X306890D01*
X270079Y51228D02*
Y57134D01*
X259449Y51228D02*
Y57134D01*
Y51228D02*
X270079D01*
X259449Y57134D02*
X270079D01*
X283882Y29602D02*
Y41020D01*
X289394Y29602D02*
Y41020D01*
X283882Y29602D02*
X289394D01*
X283882Y41020D02*
X289394D01*
X274740Y29921D02*
Y35827D01*
X264110Y29921D02*
Y35827D01*
Y29921D02*
X274740D01*
X264110Y35827D02*
X274740D01*
X283258Y22424D02*
Y28330D01*
X272628Y22424D02*
Y28330D01*
Y22424D02*
X283258D01*
X272628Y28330D02*
X283258D01*
X277030Y29724D02*
Y41142D01*
X282542Y29724D02*
Y41142D01*
X277030Y29724D02*
X282542D01*
X277030Y41142D02*
X282542D01*
X237205Y24902D02*
X243110D01*
X237205Y35531D02*
X243110D01*
X237205Y24902D02*
Y35531D01*
X243110Y24902D02*
Y35531D01*
X245079Y44685D02*
X250984D01*
X245079Y34055D02*
X250984D01*
Y44685D01*
X245079Y34055D02*
Y44685D01*
X237638Y36319D02*
Y47736D01*
X243150Y36319D02*
Y47736D01*
X237638Y36319D02*
X243150D01*
X237638Y47736D02*
X243150D01*
X197346Y52791D02*
Y64209D01*
X202857Y52791D02*
Y64209D01*
X197346Y52791D02*
X202857D01*
X197346Y64209D02*
X202857D01*
X190327D02*
X196232D01*
X190327Y53579D02*
X196232D01*
Y64209D01*
X190327Y53579D02*
Y64209D01*
X184618Y52871D02*
Y64288D01*
X190130Y52871D02*
Y64288D01*
X184618Y52871D02*
X190130D01*
X184618Y64288D02*
X190130D01*
X178516D02*
X184421D01*
X178516Y53658D02*
X184421D01*
Y64288D01*
X178516Y53658D02*
Y64288D01*
X190425Y44032D02*
X201842D01*
X190425Y49543D02*
X201842D01*
Y44032D02*
Y49543D01*
X190425Y44032D02*
Y49543D01*
X178614Y49543D02*
X190032D01*
X178614Y44032D02*
X190032D01*
X178614D02*
Y49543D01*
X190032Y44032D02*
Y49543D01*
X154528Y98425D02*
X165945D01*
X154528Y92913D02*
X165945D01*
X154528D02*
Y98425D01*
X165945Y92913D02*
Y98425D01*
X160433Y92422D02*
X166339D01*
X160433Y81792D02*
X166339D01*
Y92422D01*
X160433Y81792D02*
Y92422D01*
X178740Y52953D02*
Y64370D01*
X173228Y52953D02*
Y64370D01*
X178740D01*
X173228Y52953D02*
X178740D01*
X166831Y64314D02*
X172736D01*
X166831Y53684D02*
X172736D01*
Y64314D01*
X166831Y53684D02*
Y64314D01*
X160630Y52791D02*
Y64209D01*
X166142Y52791D02*
Y64209D01*
X160630Y52791D02*
X166142D01*
X160630Y64209D02*
X166142D01*
X206830Y78033D02*
Y83938D01*
X217459Y78033D02*
Y83938D01*
X206830D02*
X217459D01*
X206830Y78033D02*
X217459D01*
X206830Y84135D02*
X218247D01*
X206830Y89647D02*
X218247D01*
Y84135D02*
Y89647D01*
X206830Y84135D02*
Y89647D01*
X206854Y90748D02*
Y102165D01*
X212366Y90748D02*
Y102165D01*
X206854Y90748D02*
X212366D01*
X206854Y102165D02*
X212366D01*
X195128Y102116D02*
X206545D01*
X195128Y96604D02*
X206545D01*
X195128D02*
Y102116D01*
X206545Y96604D02*
Y102116D01*
X194734Y96604D02*
Y108022D01*
X189222Y96604D02*
Y108022D01*
X194734D01*
X189222Y96604D02*
X194734D01*
X183120Y96703D02*
X189026D01*
X183120Y107333D02*
X189026D01*
X183120Y96703D02*
Y107333D01*
X189026Y96703D02*
Y107333D01*
X262982Y99784D02*
Y111202D01*
X268494Y99784D02*
Y111202D01*
X262982Y99784D02*
X268494D01*
X262982Y111202D02*
X268494D01*
X172736Y96476D02*
X178642D01*
X172736Y107106D02*
X178642D01*
X172736Y96476D02*
Y107106D01*
X178642Y96476D02*
Y107106D01*
X172539Y96476D02*
Y107893D01*
X167028Y96476D02*
Y107893D01*
X172539D01*
X167028Y96476D02*
X172539D01*
X230512Y36220D02*
X236024D01*
X230512Y24803D02*
X236024D01*
Y36220D01*
X230512Y24803D02*
Y36220D01*
M02*
