G04*
G04 #@! TF.GenerationSoftware,Altium Limited,Altium Designer,18.0.9 (584)*
G04*
G04 Layer_Color=32896*
%FSLAX25Y25*%
%MOIN*%
G70*
G01*
G75*
%ADD17C,0.00669*%
D17*
X339299Y50730D02*
X338774Y51255D01*
Y52305D01*
X339299Y52829D01*
X341398D01*
X341923Y52305D01*
Y51255D01*
X341398Y50730D01*
X339299Y47582D02*
X338774Y48107D01*
Y49156D01*
X339299Y49681D01*
X341398D01*
X341923Y49156D01*
Y48107D01*
X341398Y47582D01*
X339299Y41284D02*
X338774Y41809D01*
Y42859D01*
X339299Y43384D01*
X339824D01*
X340349Y42859D01*
Y41809D01*
X340874Y41284D01*
X341398D01*
X341923Y41809D01*
Y42859D01*
X341398Y43384D01*
X338774Y38136D02*
Y40235D01*
X341923D01*
Y38136D01*
X340349Y40235D02*
Y39186D01*
X338774Y37086D02*
Y34987D01*
Y36037D01*
X341923D01*
X329332Y50730D02*
X328807Y51255D01*
Y52305D01*
X329332Y52829D01*
X331431D01*
X331956Y52305D01*
Y51255D01*
X331431Y50730D01*
X329332Y47582D02*
X328807Y48107D01*
Y49156D01*
X329332Y49681D01*
X331431D01*
X331956Y49156D01*
Y48107D01*
X331431Y47582D01*
X328807Y43384D02*
X331956D01*
Y41809D01*
X331431Y41284D01*
X329332D01*
X328807Y41809D01*
Y43384D01*
Y40235D02*
Y39186D01*
Y39710D01*
X331956D01*
Y40235D01*
Y39186D01*
X329332Y35512D02*
X328807Y36037D01*
Y37086D01*
X329332Y37611D01*
X329857D01*
X330381Y37086D01*
Y36037D01*
X330906Y35512D01*
X331431D01*
X331956Y36037D01*
Y37086D01*
X331431Y37611D01*
X328807Y34463D02*
Y32364D01*
Y33413D01*
X331956D01*
Y31314D02*
X329857D01*
X328807Y30264D01*
X329857Y29215D01*
X331956D01*
X330381D01*
Y31314D01*
X331956Y28165D02*
X328807D01*
X331956Y26066D01*
X328807D01*
X329332Y22918D02*
X328807Y23442D01*
Y24492D01*
X329332Y25017D01*
X331431D01*
X331956Y24492D01*
Y23442D01*
X331431Y22918D01*
X328807Y19769D02*
Y21868D01*
X331956D01*
Y19769D01*
X330381Y21868D02*
Y20819D01*
X319365Y50730D02*
X318840Y51255D01*
Y52305D01*
X319365Y52829D01*
X321464D01*
X321989Y52305D01*
Y51255D01*
X321464Y50730D01*
X319365Y47582D02*
X318840Y48107D01*
Y49156D01*
X319365Y49681D01*
X321464D01*
X321989Y49156D01*
Y48107D01*
X321464Y47582D01*
X319365Y41284D02*
X318840Y41809D01*
Y42859D01*
X319365Y43384D01*
X319889D01*
X320414Y42859D01*
Y41809D01*
X320939Y41284D01*
X321464D01*
X321989Y41809D01*
Y42859D01*
X321464Y43384D01*
X321989Y40235D02*
X318840D01*
Y38661D01*
X319365Y38136D01*
X320414D01*
X320939Y38661D01*
Y40235D01*
X318840Y34987D02*
Y37086D01*
X321989D01*
Y34987D01*
X320414Y37086D02*
Y36037D01*
X318840Y31839D02*
Y33938D01*
X321989D01*
Y31839D01*
X320414Y33938D02*
Y32888D01*
X318840Y30789D02*
X321989D01*
Y29215D01*
X321464Y28690D01*
X319365D01*
X318840Y29215D01*
Y30789D01*
X309398Y50730D02*
X308873Y51255D01*
Y52305D01*
X309398Y52829D01*
X311496D01*
X312021Y52305D01*
Y51255D01*
X311496Y50730D01*
X309398Y47582D02*
X308873Y48107D01*
Y49156D01*
X309398Y49681D01*
X311496D01*
X312021Y49156D01*
Y48107D01*
X311496Y47582D01*
X308873Y41809D02*
Y42859D01*
X309398Y43384D01*
X311496D01*
X312021Y42859D01*
Y41809D01*
X311496Y41285D01*
X309398D01*
X308873Y41809D01*
X312021Y40235D02*
X308873D01*
X312021Y38136D01*
X308873D01*
X312021Y37086D02*
X309922Y34987D01*
X308873Y32364D02*
Y33413D01*
X309398Y33938D01*
X311496D01*
X312021Y33413D01*
Y32364D01*
X311496Y31839D01*
X309398D01*
X308873Y32364D01*
Y28690D02*
Y30789D01*
X310447D01*
Y29740D01*
Y30789D01*
X312021D01*
X308873Y25542D02*
Y27641D01*
X310447D01*
Y26591D01*
Y27641D01*
X312021D01*
X299430Y50730D02*
X298905Y51255D01*
Y52305D01*
X299430Y52829D01*
X301529D01*
X302054Y52305D01*
Y51255D01*
X301529Y50730D01*
X300480D01*
Y51780D01*
X302054Y49681D02*
X298905D01*
X302054Y47582D01*
X298905D01*
Y46532D02*
X302054D01*
Y44958D01*
X301529Y44433D01*
X299430D01*
X298905Y44958D01*
Y46532D01*
X289463Y50730D02*
X288938Y51255D01*
Y52305D01*
X289463Y52829D01*
X291562D01*
X292087Y52305D01*
Y51255D01*
X291562Y50730D01*
X290512D01*
Y51780D01*
X292087Y49681D02*
X288938D01*
X292087Y47582D01*
X288938D01*
Y46532D02*
X292087D01*
Y44958D01*
X291562Y44433D01*
X289463D01*
X288938Y44958D01*
Y46532D01*
X279496Y50730D02*
X278971Y51255D01*
Y52305D01*
X279496Y52829D01*
X281595D01*
X282120Y52305D01*
Y51255D01*
X281595Y50730D01*
X279496Y47582D02*
X278971Y48107D01*
Y49156D01*
X279496Y49681D01*
X281595D01*
X282120Y49156D01*
Y48107D01*
X281595Y47582D01*
X279496Y41284D02*
X278971Y41809D01*
Y42859D01*
X279496Y43384D01*
X281595D01*
X282120Y42859D01*
Y41809D01*
X281595Y41284D01*
X282120Y40235D02*
X280021D01*
X278971Y39186D01*
X280021Y38136D01*
X282120D01*
X280545D01*
Y40235D01*
X282120Y37086D02*
X278971D01*
X282120Y34987D01*
X278971D01*
X279496Y31839D02*
X278971Y32364D01*
Y33413D01*
X279496Y33938D01*
X281595D01*
X282120Y33413D01*
Y32364D01*
X281595Y31839D01*
X278971Y28690D02*
Y30789D01*
X282120D01*
Y28690D01*
X280545Y30789D02*
Y29740D01*
X278971Y27641D02*
X282120D01*
Y25542D01*
Y24492D02*
X280021Y22393D01*
X282120Y21343D02*
X278971D01*
Y19769D01*
X279496Y19244D01*
X280545D01*
X281070Y19769D01*
Y21343D01*
Y20294D02*
X282120Y19244D01*
X278971Y16096D02*
Y18195D01*
X282120D01*
Y16096D01*
X280545Y18195D02*
Y17145D01*
X279496Y12947D02*
X278971Y13472D01*
Y14522D01*
X279496Y15046D01*
X280021D01*
X280545Y14522D01*
Y13472D01*
X281070Y12947D01*
X281595D01*
X282120Y13472D01*
Y14522D01*
X281595Y15046D01*
X278971Y11898D02*
X281595D01*
X282120Y11373D01*
Y10323D01*
X281595Y9799D01*
X278971D01*
X282120Y8749D02*
X278971D01*
X280021Y7700D01*
X278971Y6650D01*
X282120D01*
X278971Y3501D02*
Y5601D01*
X282120D01*
Y3501D01*
X280545Y5601D02*
Y4551D01*
X269004Y52829D02*
X272152D01*
Y50730D01*
Y49681D02*
X270053D01*
X269004Y48631D01*
X270053Y47582D01*
X272152D01*
X270578D01*
Y49681D01*
X272152Y46532D02*
X269004D01*
X272152Y44433D01*
X269004D01*
Y41285D02*
Y43384D01*
X272152D01*
Y41285D01*
X270578Y43384D02*
Y42334D01*
X272152Y37086D02*
X270053D01*
X269004Y36037D01*
X270053Y34987D01*
X272152D01*
X270578D01*
Y37086D01*
X269529Y31839D02*
X269004Y32364D01*
Y33413D01*
X269529Y33938D01*
X270053D01*
X270578Y33413D01*
Y32364D01*
X271103Y31839D01*
X271628D01*
X272152Y32364D01*
Y33413D01*
X271628Y33938D01*
X269529Y28690D02*
X269004Y29215D01*
Y30264D01*
X269529Y30789D01*
X270053D01*
X270578Y30264D01*
Y29215D01*
X271103Y28690D01*
X271628D01*
X272152Y29215D01*
Y30264D01*
X271628Y30789D01*
X269004Y27641D02*
Y26591D01*
Y27116D01*
X272152D01*
Y27641D01*
Y26591D01*
X269529Y22918D02*
X269004Y23442D01*
Y24492D01*
X269529Y25017D01*
X270053D01*
X270578Y24492D01*
Y23442D01*
X271103Y22918D01*
X271628D01*
X272152Y23442D01*
Y24492D01*
X271628Y25017D01*
X269004Y21868D02*
Y19769D01*
Y20819D01*
X272152D01*
X259037Y52829D02*
X262185D01*
X260611D01*
Y50730D01*
X259037D01*
X262185D01*
X259037Y49681D02*
Y48631D01*
Y49156D01*
X262185D01*
Y49681D01*
Y48631D01*
X259561Y44958D02*
X259037Y45483D01*
Y46532D01*
X259561Y47057D01*
X261660D01*
X262185Y46532D01*
Y45483D01*
X261660Y44958D01*
X260611D01*
Y46007D01*
X259037Y43908D02*
X262185D01*
X260611D01*
Y41809D01*
X259037D01*
X262185D01*
X259037Y37611D02*
X262185D01*
Y36037D01*
X261660Y35512D01*
X261136D01*
X260611Y36037D01*
Y37611D01*
Y36037D01*
X260086Y35512D01*
X259561D01*
X259037Y36037D01*
Y37611D01*
Y32364D02*
Y34463D01*
X262185D01*
Y32364D01*
X260611Y34463D02*
Y33413D01*
X262185Y31314D02*
X260086D01*
X259037Y30264D01*
X260086Y29215D01*
X262185D01*
X260611D01*
Y31314D01*
X262185Y28165D02*
X259037D01*
X260086Y27116D01*
X259037Y26066D01*
X262185D01*
X259037Y19769D02*
Y21868D01*
X260611D01*
Y20819D01*
Y21868D01*
X262185D01*
X259037Y18720D02*
X262185D01*
X261136Y17670D01*
X262185Y16621D01*
X259037D01*
Y15571D02*
X262185D01*
Y13997D01*
X261660Y13472D01*
X259561D01*
X259037Y13997D01*
Y15571D01*
X249069Y52829D02*
X252218D01*
X250644D01*
Y50730D01*
X249069D01*
X252218D01*
X249069Y49681D02*
Y48631D01*
Y49156D01*
X252218D01*
Y49681D01*
Y48631D01*
X249594Y44958D02*
X249069Y45483D01*
Y46532D01*
X249594Y47057D01*
X251693D01*
X252218Y46532D01*
Y45483D01*
X251693Y44958D01*
X250644D01*
Y46007D01*
X249069Y43908D02*
X252218D01*
X250644D01*
Y41809D01*
X249069D01*
X252218D01*
X249069Y37611D02*
X252218D01*
Y36037D01*
X251693Y35512D01*
X251168D01*
X250644Y36037D01*
Y37611D01*
Y36037D01*
X250119Y35512D01*
X249594D01*
X249069Y36037D01*
Y37611D01*
Y32364D02*
Y34463D01*
X252218D01*
Y32364D01*
X250644Y34463D02*
Y33413D01*
X252218Y31314D02*
X250119D01*
X249069Y30264D01*
X250119Y29215D01*
X252218D01*
X250644D01*
Y31314D01*
X252218Y28165D02*
X249069D01*
X250119Y27116D01*
X249069Y26066D01*
X252218D01*
X249069Y21868D02*
X252218D01*
Y20294D01*
X251693Y19769D01*
X251168D01*
X250644Y20294D01*
Y21868D01*
Y20294D01*
X250119Y19769D01*
X249594D01*
X249069Y20294D01*
Y21868D01*
X252218Y18720D02*
X250119D01*
X249069Y17670D01*
X250119Y16621D01*
X252218D01*
X250644D01*
Y18720D01*
X249594Y13472D02*
X249069Y13997D01*
Y15046D01*
X249594Y15571D01*
X251693D01*
X252218Y15046D01*
Y13997D01*
X251693Y13472D01*
X249069Y12422D02*
X252218D01*
X251168D01*
X249069Y10323D01*
X250644Y11898D01*
X252218Y10323D01*
X239102Y52829D02*
Y50730D01*
Y51780D01*
X242251D01*
X239102Y49681D02*
X241726D01*
X242251Y49156D01*
Y48107D01*
X241726Y47582D01*
X239102D01*
X242251Y46532D02*
X239102D01*
Y44958D01*
X239627Y44433D01*
X240676D01*
X241201Y44958D01*
Y46532D01*
Y45483D02*
X242251Y44433D01*
Y43384D02*
X239102D01*
X242251Y41284D01*
X239102D01*
X239627Y34987D02*
X239102Y35512D01*
Y36562D01*
X239627Y37086D01*
X240152D01*
X240676Y36562D01*
Y35512D01*
X241201Y34987D01*
X241726D01*
X242251Y35512D01*
Y36562D01*
X241726Y37086D01*
X239102Y33938D02*
Y32888D01*
Y33413D01*
X242251D01*
Y33938D01*
Y32888D01*
X239627Y29215D02*
X239102Y29740D01*
Y30789D01*
X239627Y31314D01*
X241726D01*
X242251Y30789D01*
Y29740D01*
X241726Y29215D01*
X240676D01*
Y30264D01*
X239627Y22918D02*
X239102Y23442D01*
Y24492D01*
X239627Y25017D01*
X240152D01*
X240676Y24492D01*
Y23442D01*
X241201Y22918D01*
X241726D01*
X242251Y23442D01*
Y24492D01*
X241726Y25017D01*
X239102Y21868D02*
Y19769D01*
Y20819D01*
X242251D01*
Y18720D02*
X240152D01*
X239102Y17670D01*
X240152Y16621D01*
X242251D01*
X240676D01*
Y18720D01*
X239102Y15571D02*
X242251D01*
Y13472D01*
X239102Y12422D02*
X242251D01*
X241201D01*
X239102Y10323D01*
X240676Y11898D01*
X242251Y10323D01*
X232283Y52829D02*
X229135D01*
X232283Y50730D01*
X229135D01*
X229660Y47582D02*
X229135Y48107D01*
Y49156D01*
X229660Y49681D01*
X231759D01*
X232283Y49156D01*
Y48107D01*
X231759Y47582D01*
X167933Y50730D02*
X167408Y51255D01*
Y52305D01*
X167933Y52829D01*
X168457D01*
X168982Y52305D01*
Y51255D01*
X169507Y50730D01*
X170032D01*
X170557Y51255D01*
Y52305D01*
X170032Y52829D01*
X167408Y49681D02*
Y47582D01*
Y48631D01*
X170557D01*
X167408Y44433D02*
Y46532D01*
X170557D01*
Y44433D01*
X168982Y46532D02*
Y45483D01*
X167408Y41284D02*
Y43384D01*
X170557D01*
Y41284D01*
X168982Y43384D02*
Y42334D01*
X170557Y40235D02*
X167408D01*
Y38661D01*
X167933Y38136D01*
X168982D01*
X169507Y38661D01*
Y40235D01*
Y39186D02*
X170557Y38136D01*
X167408Y37086D02*
Y36037D01*
Y36562D01*
X170557D01*
Y37086D01*
Y36037D01*
Y34463D02*
X167408D01*
X170557Y32364D01*
X167408D01*
X167933Y29215D02*
X167408Y29740D01*
Y30789D01*
X167933Y31314D01*
X170032D01*
X170557Y30789D01*
Y29740D01*
X170032Y29215D01*
X168982D01*
Y30264D01*
X170557Y25017D02*
X167408D01*
Y23442D01*
X167933Y22918D01*
X168982D01*
X169507Y23442D01*
Y25017D01*
Y23967D02*
X170557Y22918D01*
X167408Y21868D02*
X170557D01*
Y20294D01*
X170032Y19769D01*
X167933D01*
X167408Y20294D01*
Y21868D01*
Y18720D02*
X167933D01*
X168982Y17670D01*
X167933Y16621D01*
X167408D01*
X168982Y17670D02*
X170557D01*
X175807Y50730D02*
X175282Y51255D01*
Y52305D01*
X175807Y52829D01*
X176332D01*
X176856Y52305D01*
Y51255D01*
X177381Y50730D01*
X177906D01*
X178431Y51255D01*
Y52305D01*
X177906Y52829D01*
X175282Y49681D02*
Y47582D01*
Y48631D01*
X178431D01*
X175282Y44433D02*
Y46532D01*
X178431D01*
Y44433D01*
X176856Y46532D02*
Y45483D01*
X175282Y41284D02*
Y43384D01*
X178431D01*
Y41284D01*
X176856Y43384D02*
Y42334D01*
X178431Y40235D02*
X175282D01*
Y38661D01*
X175807Y38136D01*
X176856D01*
X177381Y38661D01*
Y40235D01*
Y39186D02*
X178431Y38136D01*
X175282Y37086D02*
Y36037D01*
Y36562D01*
X178431D01*
Y37086D01*
Y36037D01*
Y34463D02*
X175282D01*
X178431Y32364D01*
X175282D01*
X175807Y29215D02*
X175282Y29740D01*
Y30789D01*
X175807Y31314D01*
X177906D01*
X178431Y30789D01*
Y29740D01*
X177906Y29215D01*
X176856D01*
Y30264D01*
X175282Y25017D02*
Y23967D01*
Y24492D01*
X178431D01*
Y25017D01*
Y23967D01*
Y22393D02*
X175282D01*
X178431Y20294D01*
X175282D01*
Y19244D02*
Y17145D01*
Y18195D01*
X178431D01*
X135594Y52829D02*
X135069Y52305D01*
Y51255D01*
X135594Y50730D01*
X136119D01*
X136644Y51255D01*
Y51780D01*
Y51255D01*
X137168Y50730D01*
X137693D01*
X138218Y51255D01*
Y52305D01*
X137693Y52829D01*
X135069Y49681D02*
X137168D01*
X138218Y48631D01*
X137168Y47582D01*
X135069D01*
X135594Y46532D02*
X135069Y46007D01*
Y44958D01*
X135594Y44433D01*
X136119D01*
X136644Y44958D01*
Y45483D01*
Y44958D01*
X137168Y44433D01*
X137693D01*
X138218Y44958D01*
Y46007D01*
X137693Y46532D01*
X146292Y52829D02*
X143143D01*
Y51255D01*
X143668Y50730D01*
X144718D01*
X145242Y51255D01*
Y52829D01*
X143143Y47582D02*
Y49681D01*
X146292D01*
Y47582D01*
X144718Y49681D02*
Y48631D01*
X143143Y46532D02*
X146292D01*
Y44958D01*
X145767Y44433D01*
X143668D01*
X143143Y44958D01*
Y46532D01*
X146292Y43384D02*
X144193D01*
X143143Y42334D01*
X144193Y41285D01*
X146292D01*
X144718D01*
Y43384D01*
X143143Y40235D02*
X146292D01*
Y38136D01*
Y33938D02*
X143143D01*
Y32364D01*
X143668Y31839D01*
X144718D01*
X145242Y32364D01*
Y33938D01*
Y32888D02*
X146292Y31839D01*
X143143Y30789D02*
X146292D01*
Y29215D01*
X145767Y28690D01*
X143668D01*
X143143Y29215D01*
Y30789D01*
Y27641D02*
X143668D01*
X144718Y26591D01*
X143668Y25542D01*
X143143D01*
X144718Y26591D02*
X146292D01*
X151267Y50730D02*
X150742Y51255D01*
Y52305D01*
X151267Y52829D01*
X151792D01*
X152317Y52305D01*
Y51255D01*
X152841Y50730D01*
X153366D01*
X153891Y51255D01*
Y52305D01*
X153366Y52829D01*
X151267Y47582D02*
X150742Y48107D01*
Y49156D01*
X151267Y49681D01*
X153366D01*
X153891Y49156D01*
Y48107D01*
X153366Y47582D01*
X150742Y46532D02*
X153891D01*
Y44433D01*
X159049Y50730D02*
X158524Y51255D01*
Y52305D01*
X159049Y52829D01*
X159574D01*
X160099Y52305D01*
Y51255D01*
X160623Y50730D01*
X161148D01*
X161673Y51255D01*
Y52305D01*
X161148Y52829D01*
X158524Y49681D02*
X161673D01*
Y48107D01*
X161148Y47582D01*
X159049D01*
X158524Y48107D01*
Y49681D01*
X161673Y46532D02*
X159574D01*
X158524Y45483D01*
X159574Y44433D01*
X161673D01*
X160099D01*
Y46532D01*
X183681Y50730D02*
X183156Y51255D01*
Y52305D01*
X183681Y52829D01*
X185780D01*
X186305Y52305D01*
Y51255D01*
X185780Y50730D01*
X184730D01*
Y51780D01*
X186305Y49681D02*
X183156D01*
X186305Y47582D01*
X183156D01*
Y46532D02*
X186305D01*
Y44958D01*
X185780Y44433D01*
X183681D01*
X183156Y44958D01*
Y46532D01*
X191536Y50730D02*
X191011Y51255D01*
Y52305D01*
X191536Y52829D01*
X193635D01*
X194159Y52305D01*
Y51255D01*
X193635Y50730D01*
X192585D01*
Y51780D01*
X194159Y49681D02*
X191011D01*
X194159Y47582D01*
X191011D01*
Y46532D02*
X194159D01*
Y44958D01*
X193635Y44433D01*
X191536D01*
X191011Y44958D01*
Y46532D01*
M02*
