G04*
G04 #@! TF.GenerationSoftware,Altium Limited,Altium Designer,19.0.10 (269)*
G04*
G04 Layer_Color=255*
%FSLAX25Y25*%
%MOIN*%
G70*
G01*
G75*
%ADD19R,0.07087X0.03150*%
%ADD20O,0.06299X0.01181*%
%ADD21R,0.06299X0.01181*%
%ADD22R,0.03347X0.03347*%
%ADD23R,0.03543X0.03937*%
G04:AMPARAMS|DCode=24|XSize=78.74mil|YSize=165.35mil|CornerRadius=19.68mil|HoleSize=0mil|Usage=FLASHONLY|Rotation=90.000|XOffset=0mil|YOffset=0mil|HoleType=Round|Shape=RoundedRectangle|*
%AMROUNDEDRECTD24*
21,1,0.07874,0.12598,0,0,90.0*
21,1,0.03937,0.16535,0,0,90.0*
1,1,0.03937,0.06299,0.01968*
1,1,0.03937,0.06299,-0.01968*
1,1,0.03937,-0.06299,-0.01968*
1,1,0.03937,-0.06299,0.01968*
%
%ADD24ROUNDEDRECTD24*%
G04:AMPARAMS|DCode=25|XSize=47.24mil|YSize=86.61mil|CornerRadius=11.81mil|HoleSize=0mil|Usage=FLASHONLY|Rotation=90.000|XOffset=0mil|YOffset=0mil|HoleType=Round|Shape=RoundedRectangle|*
%AMROUNDEDRECTD25*
21,1,0.04724,0.06299,0,0,90.0*
21,1,0.02362,0.08661,0,0,90.0*
1,1,0.02362,0.03150,0.01181*
1,1,0.02362,0.03150,-0.01181*
1,1,0.02362,-0.03150,-0.01181*
1,1,0.02362,-0.03150,0.01181*
%
%ADD25ROUNDEDRECTD25*%
%ADD26R,0.08661X0.04724*%
%ADD27R,0.03543X0.03150*%
%ADD28R,0.03347X0.03347*%
%ADD29O,0.01772X0.04331*%
%ADD30R,0.01772X0.04331*%
%ADD31R,0.05512X0.08661*%
%ADD32R,0.05512X0.03543*%
%ADD33R,0.03937X0.03543*%
%ADD34R,0.07000X0.08500*%
%ADD35R,0.08500X0.07000*%
%ADD36R,0.04528X0.05512*%
%ADD37R,0.08661X0.05512*%
%ADD38R,0.03543X0.05512*%
%ADD39R,0.01772X0.05709*%
%ADD40O,0.05709X0.01772*%
%ADD41R,0.05709X0.01772*%
%ADD42O,0.01772X0.05709*%
%ADD43R,0.03150X0.03150*%
%ADD44R,0.12992X0.09449*%
%ADD45R,0.03937X0.09449*%
%ADD46R,0.07480X0.09449*%
%ADD47R,0.02756X0.03150*%
%ADD48R,0.03150X0.03150*%
%ADD49R,0.03150X0.03543*%
%ADD89R,0.03937X0.03937*%
%ADD97C,0.02756*%
%ADD98R,0.06299X0.06299*%
%ADD99C,0.06299*%
%ADD100R,0.06299X0.06299*%
%ADD101C,0.10630*%
D19*
X80709Y89764D02*
D03*
Y28346D02*
D03*
D20*
X73622Y82677D02*
D03*
Y80709D02*
D03*
Y78740D02*
D03*
Y76772D02*
D03*
Y74803D02*
D03*
Y72835D02*
D03*
Y70866D02*
D03*
Y68898D02*
D03*
Y66929D02*
D03*
Y64961D02*
D03*
Y62992D02*
D03*
Y61024D02*
D03*
Y59055D02*
D03*
Y57087D02*
D03*
Y55118D02*
D03*
Y53150D02*
D03*
Y51181D02*
D03*
Y49213D02*
D03*
Y47244D02*
D03*
Y45276D02*
D03*
Y43307D02*
D03*
Y41339D02*
D03*
Y39370D02*
D03*
Y37402D02*
D03*
Y35433D02*
D03*
X87795D02*
D03*
Y37402D02*
D03*
Y39370D02*
D03*
Y41339D02*
D03*
Y43307D02*
D03*
Y45276D02*
D03*
Y47244D02*
D03*
Y49213D02*
D03*
Y51181D02*
D03*
Y53150D02*
D03*
Y55118D02*
D03*
Y57087D02*
D03*
Y59055D02*
D03*
Y61024D02*
D03*
Y62992D02*
D03*
Y64961D02*
D03*
Y66929D02*
D03*
Y68898D02*
D03*
Y70866D02*
D03*
Y72835D02*
D03*
Y74803D02*
D03*
Y76772D02*
D03*
Y78740D02*
D03*
Y80709D02*
D03*
D21*
Y82677D02*
D03*
D22*
X91339Y10236D02*
D03*
X97441D02*
D03*
X151772Y210630D02*
D03*
X145669D02*
D03*
X30020Y197638D02*
D03*
X36122D02*
D03*
X116142Y124803D02*
D03*
X122244D02*
D03*
X54331Y188189D02*
D03*
X60433D02*
D03*
X145276Y204331D02*
D03*
X151378D02*
D03*
X36122Y208661D02*
D03*
X30020D02*
D03*
X43898Y173622D02*
D03*
X50000D02*
D03*
X43898Y179921D02*
D03*
X50000D02*
D03*
X30020Y203543D02*
D03*
X36122D02*
D03*
D23*
X91339Y16535D02*
D03*
X96653D02*
D03*
X134796Y148425D02*
D03*
X129481D02*
D03*
X134796Y142126D02*
D03*
X129481D02*
D03*
X109449Y163779D02*
D03*
X104134D02*
D03*
X89961D02*
D03*
X95276D02*
D03*
X78347Y197244D02*
D03*
X83661D02*
D03*
X62402Y140157D02*
D03*
X67716D02*
D03*
X78937Y140007D02*
D03*
X73622D02*
D03*
X78347Y203543D02*
D03*
X83661D02*
D03*
D24*
X184602Y184684D02*
D03*
Y132715D02*
D03*
D25*
X162634Y170510D02*
D03*
Y162636D02*
D03*
Y154762D02*
D03*
D26*
Y146888D02*
D03*
D27*
X161417Y177953D02*
D03*
Y185039D02*
D03*
X153543Y181496D02*
D03*
D28*
X144882Y180118D02*
D03*
Y174016D02*
D03*
X137795Y180118D02*
D03*
Y186221D02*
D03*
X104331Y54921D02*
D03*
Y48819D02*
D03*
Y41535D02*
D03*
Y35433D02*
D03*
X108071Y73244D02*
D03*
Y67142D02*
D03*
X114567Y67164D02*
D03*
Y73266D02*
D03*
X19882Y97835D02*
D03*
Y91732D02*
D03*
X45276Y200787D02*
D03*
Y206890D02*
D03*
X47638Y30906D02*
D03*
Y37008D02*
D03*
X25685Y91732D02*
D03*
Y97835D02*
D03*
X47638Y116535D02*
D03*
Y122638D02*
D03*
X41535Y122638D02*
D03*
Y116535D02*
D03*
D29*
X137303Y165059D02*
D03*
X134744D02*
D03*
X132185D02*
D03*
X129626D02*
D03*
X137303Y154626D02*
D03*
X134744D02*
D03*
X132185D02*
D03*
D30*
X129626D02*
D03*
D31*
X122047Y79331D02*
D03*
D32*
Y69291D02*
D03*
D33*
X114173Y52953D02*
D03*
Y58268D02*
D03*
X98130Y54232D02*
D03*
Y48917D02*
D03*
X98032Y30118D02*
D03*
Y35433D02*
D03*
X53937Y91732D02*
D03*
Y97047D02*
D03*
X124409Y131496D02*
D03*
Y136811D02*
D03*
X130709Y131496D02*
D03*
Y136811D02*
D03*
X47638Y91732D02*
D03*
Y97047D02*
D03*
D34*
X53795Y135827D02*
D03*
X37795D02*
D03*
D35*
X38583Y149606D02*
D03*
Y165606D02*
D03*
D36*
X66634Y188189D02*
D03*
X73524D02*
D03*
D37*
X41929Y83884D02*
D03*
X45866Y74016D02*
D03*
D38*
X31890Y83884D02*
D03*
X35827Y74016D02*
D03*
D39*
X118602Y154724D02*
D03*
X116043D02*
D03*
X113484D02*
D03*
X110925D02*
D03*
X108366D02*
D03*
X105807D02*
D03*
X103248D02*
D03*
X100689D02*
D03*
X98130D02*
D03*
X95571D02*
D03*
X118602Y131496D02*
D03*
X116043D02*
D03*
X113484D02*
D03*
X110925D02*
D03*
X108366D02*
D03*
X105807D02*
D03*
X103248D02*
D03*
X100689D02*
D03*
X98130D02*
D03*
X95571D02*
D03*
X40748Y109055D02*
D03*
D40*
X70079Y195768D02*
D03*
Y198327D02*
D03*
Y200886D02*
D03*
Y203445D02*
D03*
X52756Y195768D02*
D03*
Y198327D02*
D03*
Y200886D02*
D03*
D41*
Y203445D02*
D03*
D42*
X38189Y109055D02*
D03*
X35630D02*
D03*
X33071D02*
D03*
X40748Y91732D02*
D03*
X38189D02*
D03*
X35630D02*
D03*
X33071D02*
D03*
D43*
X145276Y198425D02*
D03*
X151181D02*
D03*
D44*
X69095Y172710D02*
D03*
D45*
X78150Y149876D02*
D03*
X69095D02*
D03*
X60039D02*
D03*
D46*
X92126Y174606D02*
D03*
X108268D02*
D03*
D47*
X50000Y149606D02*
D03*
Y160630D02*
D03*
D48*
X41969Y36811D02*
D03*
Y30906D02*
D03*
D49*
X32677Y183071D02*
D03*
X29134Y190945D02*
D03*
X36220D02*
D03*
D89*
X106872Y102362D02*
D03*
X92140Y124016D02*
D03*
X104134Y122638D02*
D03*
X84378Y124016D02*
D03*
X114173Y110236D02*
D03*
D97*
X74803Y86811D02*
D03*
Y31299D02*
D03*
D98*
X111811Y205118D02*
D03*
D99*
X125591D02*
D03*
X101969Y202638D02*
D03*
X135433D02*
D03*
X11811Y163386D02*
D03*
Y149606D02*
D03*
Y62992D02*
D03*
X14291Y39370D02*
D03*
Y72835D02*
D03*
D100*
X11811Y135827D02*
D03*
Y49213D02*
D03*
D101*
X9843Y9843D02*
D03*
X187008D02*
D03*
X68898D02*
D03*
Y108268D02*
D03*
X187008D02*
D03*
Y206693D02*
D03*
X9843Y206693D02*
D03*
M02*
