G04*
G04 #@! TF.GenerationSoftware,Altium Limited,Altium Designer,18.1.9 (240)*
G04*
G04 Layer_Color=32768*
%FSLAX25Y25*%
%MOIN*%
G70*
G01*
G75*
%ADD12C,0.00394*%
%ADD119C,0.00197*%
D12*
X156575Y75197D02*
X159724D01*
X158150Y73622D02*
Y76772D01*
X161614Y49606D02*
X164764D01*
X163189Y48031D02*
Y51181D01*
X156693Y48209D02*
Y51988D01*
X154803Y50098D02*
X158583D01*
X147093Y77165D02*
X150873D01*
X148983Y75275D02*
Y79055D01*
X201969Y261181D02*
Y264961D01*
X200079Y263071D02*
X203858D01*
X245374Y261181D02*
Y264961D01*
X243484Y263071D02*
X247264D01*
X34820Y27559D02*
X38600D01*
X36710Y25669D02*
Y29449D01*
X47638Y23779D02*
X50787D01*
X49213Y22205D02*
Y25354D01*
X40236Y37402D02*
X44016D01*
X42126Y35512D02*
Y39291D01*
X51575Y31890D02*
Y35039D01*
X50000Y33465D02*
X53149D01*
X264567Y151408D02*
X267717D01*
X266142Y149833D02*
Y152983D01*
X271830Y149582D02*
Y152732D01*
X270255Y151157D02*
X273405D01*
X271831Y149538D02*
Y152688D01*
X270256Y151113D02*
X273406D01*
X241730Y203015D02*
Y206164D01*
X240155Y204589D02*
X243305D01*
X231004Y207739D02*
X234154D01*
X232579Y206164D02*
Y209314D01*
X184720Y121949D02*
X187870D01*
X186295Y120374D02*
Y123524D01*
X38681Y107795D02*
X41831D01*
X40256Y106220D02*
Y109370D01*
X29427Y126556D02*
X32576D01*
X31001Y124981D02*
Y128131D01*
X31100Y119076D02*
Y122225D01*
X29525Y120650D02*
X32675D01*
X31056Y119075D02*
Y122225D01*
X29481Y120650D02*
X32630D01*
X236221Y223363D02*
Y227301D01*
X234252Y225332D02*
X238189D01*
X141391Y220756D02*
Y223905D01*
X139817Y222330D02*
X142966D01*
X154528Y267384D02*
X158465D01*
X156496Y265416D02*
Y269353D01*
X151414Y194980D02*
Y198130D01*
X149839Y196555D02*
X152989D01*
X147100Y190354D02*
Y204134D01*
X131746Y190354D02*
Y204134D01*
Y190354D02*
X147100D01*
X131746Y204134D02*
X147100D01*
X137454Y197244D02*
X141391D01*
X139423Y195275D02*
Y199213D01*
X84212Y209842D02*
X88149D01*
X86181Y207874D02*
Y211811D01*
X134994Y220866D02*
Y224016D01*
X133419Y222441D02*
X136568D01*
X172638Y209252D02*
X175787D01*
X174213Y207677D02*
Y210827D01*
X134994Y209227D02*
Y212377D01*
X133419Y210802D02*
X136568D01*
X166001Y209719D02*
X169781D01*
X167891Y207830D02*
Y211609D01*
X252599Y225234D02*
X256378D01*
X254488Y223344D02*
Y227123D01*
X277362Y211614D02*
X280512D01*
X278937Y210039D02*
Y213189D01*
X210765Y225037D02*
X214545D01*
X212655Y223147D02*
Y226926D01*
X218386Y223462D02*
Y226612D01*
X216811Y225037D02*
X219961D01*
X98425Y201772D02*
X101575D01*
X100000Y200197D02*
Y203346D01*
X104429Y201772D02*
X107579D01*
X106004Y200197D02*
Y203346D01*
X103051Y191366D02*
Y194516D01*
X101476Y192941D02*
X104626D01*
X103445Y181975D02*
Y185754D01*
X101555Y183865D02*
X105335D01*
X95866Y184252D02*
X99016D01*
X97441Y182677D02*
Y185827D01*
X89961Y184350D02*
X93110D01*
X91535Y182775D02*
Y185925D01*
X84055Y184350D02*
X87205D01*
X85630Y182775D02*
Y185925D01*
X78150Y184350D02*
X81299D01*
X79724Y182775D02*
Y185925D01*
X69842Y202325D02*
Y205475D01*
X68268Y203900D02*
X71417D01*
X28147Y256772D02*
Y260709D01*
X26179Y258740D02*
X30116D01*
X72244Y184350D02*
X75394D01*
X73819Y182775D02*
Y185925D01*
X89862Y22638D02*
X93012D01*
X91437Y21063D02*
Y24213D01*
X123425Y86614D02*
X126575D01*
X125000Y85039D02*
Y88189D01*
Y79134D02*
Y82283D01*
X123425Y80709D02*
X126575D01*
X141732Y52657D02*
Y55807D01*
X140157Y54232D02*
X143307D01*
X133858Y54901D02*
Y58681D01*
X131968Y56791D02*
X135748D01*
X123327Y51181D02*
X126476D01*
X124901Y49606D02*
Y52756D01*
X123031Y40354D02*
X126969D01*
X125000Y38386D02*
Y42323D01*
X110236Y49508D02*
Y52657D01*
X108661Y51083D02*
X111811D01*
X103346Y49508D02*
Y52657D01*
X101772Y51083D02*
X104921D01*
X96457Y49508D02*
Y52657D01*
X94882Y51083D02*
X98031D01*
X89567Y49508D02*
Y52657D01*
X87992Y51083D02*
X91142D01*
X162992Y59390D02*
Y62539D01*
X161417Y60965D02*
X164567D01*
Y79429D02*
Y82579D01*
X162992Y81004D02*
X166142D01*
X178524Y101378D02*
X182303D01*
X180413Y99488D02*
Y103268D01*
X192323Y121949D02*
X195472D01*
X193898Y120374D02*
Y123524D01*
X177118Y121949D02*
X180267D01*
X178692Y120374D02*
Y123524D01*
X168701Y122047D02*
X171850D01*
X170275Y120472D02*
Y123622D01*
X168700Y122092D02*
X171850D01*
X170275Y120517D02*
Y123666D01*
X204525Y224705D02*
X207675D01*
X206100Y223130D02*
Y226279D01*
X204525Y224749D02*
X207674D01*
X206100Y223174D02*
Y226324D01*
X77756Y146653D02*
X81693D01*
X79724Y144685D02*
Y148622D01*
X8242Y146653D02*
X12179D01*
X10211Y144685D02*
Y148622D01*
X123031Y68898D02*
X126969D01*
X125000Y66929D02*
Y70866D01*
X190453Y69547D02*
Y73484D01*
X188484Y71516D02*
X192421D01*
X178524Y41339D02*
X182303D01*
X180413Y39449D02*
Y43228D01*
X188976Y205906D02*
Y209055D01*
X187402Y207480D02*
X190551D01*
X196161Y204331D02*
X199311D01*
X197736Y202756D02*
Y205906D01*
X246457Y224938D02*
X249606D01*
X248031Y223363D02*
Y226513D01*
X246456Y224983D02*
X249606D01*
X248031Y223408D02*
Y226557D01*
X261811Y223678D02*
Y226828D01*
X260236Y225253D02*
X263386D01*
X123406Y27559D02*
X127185D01*
X125295Y25669D02*
Y29449D01*
X278835Y241339D02*
Y245276D01*
X276867Y243307D02*
X280803D01*
X162402Y236360D02*
Y240297D01*
X160433Y238329D02*
X164370D01*
X280512Y267796D02*
X284449D01*
X282480Y265827D02*
Y269764D01*
X190748Y225000D02*
X194685D01*
X192717Y223031D02*
Y226968D01*
X40256Y112126D02*
Y115276D01*
X38681Y113701D02*
X41831D01*
X89818Y121555D02*
X92967D01*
X91393Y119980D02*
Y123130D01*
X89862Y121555D02*
X93012D01*
X91437Y119980D02*
Y123130D01*
X109350Y106220D02*
Y109370D01*
X107775Y107795D02*
X110925D01*
X109153Y112126D02*
Y115276D01*
X107579Y113701D02*
X110728D01*
X108760Y122520D02*
Y126457D01*
X106791Y124489D02*
X110728D01*
X91535Y125886D02*
Y129035D01*
X89961Y127461D02*
X93110D01*
X43504Y121850D02*
Y125787D01*
X41535Y123819D02*
X45472D01*
X97539Y83071D02*
Y86220D01*
X95964Y84646D02*
X99114D01*
X182087Y220320D02*
Y224257D01*
X180118Y222288D02*
X184055D01*
D119*
X160905Y69488D02*
Y80905D01*
X155394Y69488D02*
Y80905D01*
X160905D01*
X155394Y69488D02*
X160905D01*
X160433Y43898D02*
Y55315D01*
X165945Y43898D02*
Y55315D01*
X160433Y43898D02*
X165945D01*
X160433Y55315D02*
X165945D01*
X153740Y55413D02*
X159646D01*
X153740Y44783D02*
X159646D01*
Y55413D01*
X153740Y44783D02*
Y55413D01*
X154298Y74213D02*
Y80118D01*
X143668Y74213D02*
Y80118D01*
Y74213D02*
X154298D01*
X143668Y80118D02*
X154298D01*
X196653Y260118D02*
X207283D01*
X196653Y266024D02*
X207283D01*
X196653Y260118D02*
Y266024D01*
X207283Y260118D02*
Y266024D01*
X240059Y260118D02*
X250689D01*
X240059Y266024D02*
X250689D01*
X240059Y260118D02*
Y266024D01*
X250689Y260118D02*
Y266024D01*
X33757Y22244D02*
Y32874D01*
X39663Y22244D02*
Y32874D01*
X33757Y22244D02*
X39663D01*
X33757Y32874D02*
X39663D01*
X43504Y21024D02*
Y26535D01*
X54921Y21024D02*
Y26535D01*
X43504D02*
X54921D01*
X43504Y21024D02*
X54921D01*
X45079Y32087D02*
Y42717D01*
X39173Y32087D02*
Y42717D01*
X45079D01*
X39173Y32087D02*
X45079D01*
X48819Y39173D02*
X54331D01*
X48819Y27756D02*
X54331D01*
Y39173D01*
X48819Y27756D02*
Y39173D01*
X263386Y145699D02*
Y157117D01*
X268898Y145699D02*
Y157117D01*
X263386Y145699D02*
X268898D01*
X263386Y157117D02*
X268898D01*
X236021Y201834D02*
X247439D01*
X236021Y207345D02*
X247439D01*
Y201834D02*
Y207345D01*
X236021Y201834D02*
Y207345D01*
X235335Y202030D02*
Y213448D01*
X229823Y202030D02*
Y213448D01*
X235335D01*
X229823Y202030D02*
X235335D01*
X183539Y116240D02*
Y127657D01*
X189051Y116240D02*
Y127657D01*
X183539Y116240D02*
X189051D01*
X183539Y127657D02*
X189051D01*
X34547Y105039D02*
Y110551D01*
X45965Y105039D02*
Y110551D01*
X34547D02*
X45965D01*
X34547Y105039D02*
X45965D01*
X25293Y123800D02*
Y129312D01*
X36710Y123800D02*
Y129312D01*
X25293D02*
X36710D01*
X25293Y123800D02*
X36710D01*
X231102Y230450D02*
X241339D01*
X231102Y220214D02*
X241339D01*
Y230450D01*
X231102Y220214D02*
Y230450D01*
X138636Y228039D02*
X144147D01*
X138636Y216622D02*
X144147D01*
Y228039D01*
X138636Y216622D02*
Y228039D01*
X164764Y260494D02*
Y274274D01*
X148228Y260494D02*
Y274274D01*
Y260494D02*
X164764D01*
X148228Y274274D02*
X164764D01*
X148658Y190846D02*
X154170D01*
X148658Y202264D02*
X154170D01*
X148658Y190846D02*
Y202264D01*
X154170Y190846D02*
Y202264D01*
X96811Y194488D02*
Y225197D01*
X75551Y194488D02*
Y225197D01*
X96811D01*
X75551Y194488D02*
X96811D01*
X132238Y228150D02*
X137750D01*
X132238Y216732D02*
X137750D01*
Y228150D01*
X132238Y216732D02*
Y228150D01*
X171457Y203543D02*
Y214961D01*
X176969Y203543D02*
Y214961D01*
X171457Y203543D02*
X176969D01*
X171457Y214961D02*
X176969D01*
X132238Y216511D02*
X137750D01*
X132238Y205093D02*
X137750D01*
Y216511D01*
X132238Y205093D02*
Y216511D01*
X164939Y204404D02*
Y215034D01*
X170844Y204404D02*
Y215034D01*
X164939Y204404D02*
X170844D01*
X164939Y215034D02*
X170844D01*
X251536Y219919D02*
Y230549D01*
X257441Y219919D02*
Y230549D01*
X251536Y219919D02*
X257441D01*
X251536Y230549D02*
X257441D01*
X273228Y208858D02*
Y214370D01*
X284646Y208858D02*
Y214370D01*
X273228D02*
X284646D01*
X273228Y208858D02*
X284646D01*
X209702Y219722D02*
Y230352D01*
X215608Y219722D02*
Y230352D01*
X209702Y219722D02*
X215608D01*
X209702Y230352D02*
X215608D01*
X215630Y230745D02*
X221142D01*
X215630Y219328D02*
X221142D01*
Y230745D01*
X215630Y219328D02*
Y230745D01*
X97244Y196063D02*
Y207480D01*
X102756Y196063D02*
Y207480D01*
X97244Y196063D02*
X102756D01*
X97244Y207480D02*
X102756D01*
X108760Y196063D02*
Y207480D01*
X103248Y196063D02*
Y207480D01*
X108760D01*
X103248Y196063D02*
X108760D01*
X97342Y190185D02*
X108760D01*
X97342Y195697D02*
X108760D01*
Y190185D02*
Y195697D01*
X97342Y190185D02*
Y195697D01*
X100492Y178550D02*
X106398D01*
X100492Y189180D02*
X106398D01*
X100492Y178550D02*
Y189180D01*
X106398Y178550D02*
Y189180D01*
X100197Y178543D02*
Y189961D01*
X94685Y178543D02*
Y189961D01*
X100197D01*
X94685Y178543D02*
X100197D01*
X94291Y178642D02*
Y190059D01*
X88779Y178642D02*
Y190059D01*
X94291D01*
X88779Y178642D02*
X94291D01*
X88386Y178642D02*
Y190059D01*
X82874Y178642D02*
Y190059D01*
X88386D01*
X82874Y178642D02*
X88386D01*
X82480D02*
Y190059D01*
X76968Y178642D02*
Y190059D01*
X82480D01*
X76968Y178642D02*
X82480D01*
X64134Y206656D02*
X75551D01*
X64134Y201144D02*
X75551D01*
X64134D02*
Y206656D01*
X75551Y201144D02*
Y206656D01*
X24210Y266417D02*
X32084D01*
X24210Y251063D02*
X32084D01*
Y266417D01*
X24210Y251063D02*
Y266417D01*
X76575Y178642D02*
Y190059D01*
X71063Y178642D02*
Y190059D01*
X76575D01*
X71063Y178642D02*
X76575D01*
X85728Y19882D02*
Y25394D01*
X97146Y19882D02*
Y25394D01*
X85728D02*
X97146D01*
X85728Y19882D02*
X97146D01*
X130709Y83858D02*
Y89370D01*
X119291Y83858D02*
Y89370D01*
Y83858D02*
X130709D01*
X119291Y89370D02*
X130709D01*
X119291Y77953D02*
X130709D01*
X119291Y83464D02*
X130709D01*
Y77953D02*
Y83464D01*
X119291Y77953D02*
Y83464D01*
X138976Y48524D02*
X144488D01*
X138976Y59941D02*
X144488D01*
X138976Y48524D02*
Y59941D01*
X144488Y48524D02*
Y59941D01*
X130905Y62106D02*
X136811D01*
X130905Y51476D02*
X136811D01*
Y62106D01*
X130905Y51476D02*
Y62106D01*
X119193Y48425D02*
Y53937D01*
X130610Y48425D02*
Y53937D01*
X119193D02*
X130610D01*
X119193Y48425D02*
X130610D01*
X116732Y32087D02*
Y48622D01*
X133268Y32087D02*
Y48622D01*
X116732D02*
X133268D01*
X116732Y32087D02*
X133268D01*
X107480Y56791D02*
X112992D01*
X107480Y45374D02*
X112992D01*
Y56791D01*
X107480Y45374D02*
Y56791D01*
X100591Y45374D02*
X106102D01*
X100591Y56791D02*
X106102D01*
X100591Y45374D02*
Y56791D01*
X106102Y45374D02*
Y56791D01*
X93701Y45374D02*
X99212D01*
X93701Y56791D02*
X99212D01*
X93701Y45374D02*
Y56791D01*
X99212Y45374D02*
Y56791D01*
X86811D02*
X92323D01*
X86811Y45374D02*
X92323D01*
Y56791D01*
X86811Y45374D02*
Y56791D01*
X160236Y66673D02*
X165748D01*
X160236Y55256D02*
X165748D01*
Y66673D01*
X160236Y55256D02*
Y66673D01*
X161811Y86712D02*
X167323D01*
X161811Y75295D02*
X167323D01*
Y86712D01*
X161811Y75295D02*
Y86712D01*
X185728Y98425D02*
Y104331D01*
X175098Y98425D02*
Y104331D01*
Y98425D02*
X185728D01*
X175098Y104331D02*
X185728D01*
X196653Y116240D02*
Y127657D01*
X191142Y116240D02*
Y127657D01*
X196653D01*
X191142Y116240D02*
X196653D01*
X181448D02*
Y127657D01*
X175936Y116240D02*
Y127657D01*
X181448D01*
X175936Y116240D02*
X181448D01*
X75197Y137598D02*
Y155709D01*
X84252Y137598D02*
Y155709D01*
X75197Y137598D02*
X84252D01*
X75197Y155709D02*
X84252D01*
X5683Y137598D02*
Y155709D01*
X14739Y137598D02*
Y155709D01*
X5683Y137598D02*
X14739D01*
X5683Y155709D02*
X14739D01*
X116732Y60630D02*
Y77165D01*
X133268Y60630D02*
Y77165D01*
X116732D02*
X133268D01*
X116732Y60630D02*
X133268D01*
X169291Y44744D02*
X211614D01*
X169291Y98287D02*
X211614D01*
Y44744D02*
Y98287D01*
X169291Y44744D02*
Y98287D01*
X185728Y38386D02*
Y44291D01*
X175098Y38386D02*
Y44291D01*
Y38386D02*
X185728D01*
X175098Y44291D02*
X185728D01*
X186221Y201772D02*
X191732D01*
X186221Y213189D02*
X191732D01*
X186221Y201772D02*
Y213189D01*
X191732Y201772D02*
Y213189D01*
X192027Y201575D02*
Y207087D01*
X203445Y201575D02*
Y207087D01*
X192027D02*
X203445D01*
X192027Y201575D02*
X203445D01*
X259055Y230962D02*
X264567D01*
X259055Y219545D02*
X264567D01*
Y230962D01*
X259055Y219545D02*
Y230962D01*
X130610Y24606D02*
Y30512D01*
X119980Y24606D02*
Y30512D01*
Y24606D02*
X130610D01*
X119980Y30512D02*
X130610D01*
X261906Y265748D02*
X295764D01*
X261906Y220866D02*
X295764D01*
Y265748D01*
X261906Y220866D02*
Y265748D01*
X145472Y260769D02*
X179331D01*
X145472Y215887D02*
X179331D01*
Y260769D01*
X145472Y215887D02*
Y260769D01*
X273425Y263268D02*
Y272323D01*
X291535Y263268D02*
Y272323D01*
X273425D02*
X291535D01*
X273425Y263268D02*
X291535D01*
X187598Y219882D02*
Y230118D01*
X197835Y219882D02*
Y230118D01*
X187598Y219882D02*
X197835D01*
X187598Y230118D02*
X197835D01*
X34547Y116457D02*
X45965D01*
X34547Y110945D02*
X45965D01*
X34547D02*
Y116457D01*
X45965Y110945D02*
Y116457D01*
X103642Y105039D02*
X115059D01*
X103642Y110551D02*
X115059D01*
Y105039D02*
Y110551D01*
X103642Y105039D02*
Y110551D01*
X103445Y116457D02*
X114862D01*
X103445Y110945D02*
X114862D01*
X103445D02*
Y116457D01*
X114862Y110945D02*
Y116457D01*
X103642Y119371D02*
X113878D01*
X103642Y129607D02*
X113878D01*
Y119371D02*
Y129607D01*
X103642Y119371D02*
Y129607D01*
X85827Y124705D02*
X97244D01*
X85827Y130217D02*
X97244D01*
Y124705D02*
Y130217D01*
X85827Y124705D02*
Y130217D01*
X38386Y118701D02*
X48622D01*
X38386Y128937D02*
X48622D01*
Y118701D02*
Y128937D01*
X38386Y118701D02*
Y128937D01*
X91831Y87401D02*
X103248D01*
X91831Y81890D02*
X103248D01*
X91831D02*
Y87401D01*
X103248Y81890D02*
Y87401D01*
X177559Y231344D02*
X186614D01*
X177559Y213233D02*
X186614D01*
Y231344D01*
X177559Y213233D02*
Y231344D01*
M02*
