G04*
G04 #@! TF.GenerationSoftware,Altium Limited,Altium Designer,18.1.9 (240)*
G04*
G04 Layer_Color=32768*
%FSLAX25Y25*%
%MOIN*%
G70*
G01*
G75*
%ADD57C,0.00394*%
%ADD59C,0.00197*%
D57*
X-23662Y66060D02*
Y69210D01*
X-25237Y67635D02*
X-22087D01*
X-23662Y66015D02*
Y69165D01*
X-25237Y67590D02*
X-22087D01*
X-17717Y66158D02*
Y69308D01*
X-19291Y67733D02*
X-16142D01*
X131575Y37795D02*
X135354D01*
X133465Y35906D02*
Y39685D01*
X107087Y92520D02*
X110236D01*
X108661Y90945D02*
Y94095D01*
X127559Y35906D02*
Y39685D01*
X125669Y37795D02*
X129449D01*
X133858Y198012D02*
Y201791D01*
X131968Y199902D02*
X135748D01*
X133858Y186319D02*
Y189469D01*
X132283Y187894D02*
X135433D01*
X133858Y173799D02*
Y177579D01*
X131968Y175689D02*
X135748D01*
D59*
X-20472Y73442D02*
X-14961D01*
X-20472Y62024D02*
X-14961D01*
Y73442D01*
X-20472Y62024D02*
Y73442D01*
X130512Y32480D02*
Y43110D01*
X136417Y32480D02*
Y43110D01*
X130512D02*
X136417D01*
X130512Y32480D02*
X136417D01*
X102953Y89764D02*
Y95276D01*
X114370Y89764D02*
Y95276D01*
X102953Y89764D02*
X114370D01*
X102953Y95276D02*
X114370D01*
X124606Y43110D02*
X130512D01*
X124606Y32480D02*
X130512D01*
X124606D02*
Y43110D01*
X130512Y32480D02*
Y43110D01*
X130905Y194587D02*
X136811D01*
X130905Y205217D02*
X136811D01*
X130905Y194587D02*
Y205217D01*
X136811Y194587D02*
Y205217D01*
X131102Y182185D02*
X136614D01*
X131102Y193602D02*
X136614D01*
X131102Y182185D02*
Y193602D01*
X136614Y182185D02*
Y193602D01*
X130905Y170374D02*
X136811D01*
X130905Y181004D02*
X136811D01*
X130905Y170374D02*
Y181004D01*
X136811Y170374D02*
Y181004D01*
M02*
