G04*
G04 #@! TF.GenerationSoftware,Altium Limited,Altium Designer,18.1.9 (240)*
G04*
G04 Layer_Color=32896*
%FSLAX25Y25*%
%MOIN*%
G70*
G01*
G75*
%ADD10C,0.00591*%
%ADD55C,0.00787*%
%ADD56C,0.00500*%
D10*
X130905Y80709D02*
Y83857D01*
X129331D01*
X128806Y83333D01*
Y82283D01*
X129331Y81758D01*
X130905D01*
X125658Y80709D02*
X127757D01*
X125658Y82808D01*
Y83333D01*
X126183Y83857D01*
X127232D01*
X127757Y83333D01*
X132219Y29397D02*
X131694Y29922D01*
Y30971D01*
X132219Y31496D01*
X134318D01*
X134843Y30971D01*
Y29922D01*
X134318Y29397D01*
X134843Y26773D02*
X131694D01*
X133268Y28348D01*
Y26248D01*
X111221Y96457D02*
Y99605D01*
X109646D01*
X109121Y99080D01*
Y98031D01*
X109646Y97506D01*
X111221D01*
X110171D02*
X109121Y96457D01*
X105973D02*
X108072D01*
X105973Y98556D01*
Y99080D01*
X106498Y99605D01*
X107547D01*
X108072Y99080D01*
X126313Y29397D02*
X125788Y29922D01*
Y30971D01*
X126313Y31496D01*
X128412D01*
X128937Y30971D01*
Y29922D01*
X128412Y29397D01*
X126313Y28348D02*
X125788Y27823D01*
Y26773D01*
X126313Y26248D01*
X126838D01*
X127363Y26773D01*
Y27298D01*
Y26773D01*
X127887Y26248D01*
X128412D01*
X128937Y26773D01*
Y27823D01*
X128412Y28348D01*
D55*
X126376Y40905D02*
G03*
X126376Y40905I-394J0D01*
G01*
D56*
X64505Y48819D02*
Y71260D01*
X119643Y83740D02*
X123364D01*
Y28071D02*
Y83740D01*
X119643Y28071D02*
X123364D01*
M02*
