G04*
G04 #@! TF.GenerationSoftware,Altium Limited,Altium Designer,19.0.10 (269)*
G04*
G04 Layer_Color=16711935*
%FSLAX25Y25*%
%MOIN*%
G70*
G01*
G75*
%ADD20R,0.04537X0.04143*%
%ADD24C,0.07300*%
%ADD25R,0.07300X0.07300*%
%ADD26R,0.07099X0.07099*%
%ADD27C,0.07099*%
%ADD28C,0.11430*%
%ADD29C,0.03556*%
%ADD30C,0.03162*%
%ADD48R,0.05328X0.06706*%
%ADD49R,0.09461X0.05328*%
%ADD50R,0.05524X0.05367*%
%ADD51R,0.05721X0.05367*%
%ADD52R,0.10642X0.04540*%
%ADD53R,0.05682X0.03950*%
%ADD54R,0.04147X0.04147*%
D20*
X133465Y40453D02*
D03*
Y35138D02*
D03*
X127559Y40453D02*
D03*
Y35138D02*
D03*
D24*
X119653Y137244D02*
D03*
Y147244D02*
D03*
Y157244D02*
D03*
Y167244D02*
D03*
Y177244D02*
D03*
Y187244D02*
D03*
Y197244D02*
D03*
Y207244D02*
D03*
Y217244D02*
D03*
Y227244D02*
D03*
X19654Y137244D02*
D03*
Y147244D02*
D03*
Y157244D02*
D03*
Y167244D02*
D03*
Y177244D02*
D03*
Y187244D02*
D03*
Y197244D02*
D03*
Y207244D02*
D03*
Y217244D02*
D03*
D25*
Y227244D02*
D03*
D26*
X-46850Y76772D02*
D03*
D27*
Y90551D02*
D03*
X-44370Y66929D02*
D03*
Y100394D02*
D03*
D28*
X127953Y9843D02*
D03*
X-49213Y226378D02*
D03*
Y9843D02*
D03*
X9843Y108268D02*
D03*
X127953D02*
D03*
X9843Y9843D02*
D03*
D29*
X15748Y31299D02*
D03*
Y86811D02*
D03*
D30*
X-27559Y70472D02*
D03*
X123364Y34449D02*
D03*
X7874Y37402D02*
D03*
X120866Y48819D02*
D03*
Y53150D02*
D03*
X121063Y62008D02*
D03*
Y69882D02*
D03*
X101378Y92520D02*
D03*
X118402D02*
D03*
X28740Y85315D02*
D03*
X22638Y80709D02*
D03*
X39065Y187008D02*
D03*
X41339Y147244D02*
D03*
X7874Y76772D02*
D03*
X-1969D02*
D03*
X21654Y43701D02*
D03*
X35433Y34646D02*
D03*
X123228Y40551D02*
D03*
X133858Y169291D02*
D03*
X129575Y202362D02*
D03*
X125689Y19783D02*
D03*
X119575Y124803D02*
D03*
X-29921Y62992D02*
D03*
X113563Y33248D02*
D03*
X133444Y227165D02*
D03*
X59606Y75354D02*
D03*
X70256Y88760D02*
D03*
X61572Y27776D02*
D03*
X65827Y37795D02*
D03*
X114173Y79921D02*
D03*
X43701Y82677D02*
D03*
X7874Y41339D02*
D03*
D48*
X65785Y75354D02*
D03*
Y44724D02*
D03*
D49*
X68915Y27776D02*
D03*
X114112Y84035D02*
D03*
D50*
X70214Y82441D02*
D03*
D51*
X105647D02*
D03*
D52*
X113521Y27382D02*
D03*
D53*
X116002Y74803D02*
D03*
Y70472D02*
D03*
Y66142D02*
D03*
Y61811D02*
D03*
Y57480D02*
D03*
Y53150D02*
D03*
Y48819D02*
D03*
Y44488D02*
D03*
D54*
X105610Y92520D02*
D03*
X111713D02*
D03*
M02*
