M48
;Layer_Color=9474304
;FILE_FORMAT=2:5
INCH,TZ
;TYPE=PLATED
T1F00S00C0.01181
T2F00S00C0.02756
T3F00S00C0.04000
T4F00S00C0.04016
T5F00S00C0.09055
T6F00S00C0.10630
%
T01
X-39370Y19685
X-19685
X0
X19685
X39370
X35433Y34646
X49213Y39370
X21654Y43701
X7874Y41339
Y37402
X-9843Y39370
X-29528
X65827Y37795
X61572Y27776
X98425Y19685
X125689Y19783
X123364Y34449
X123228Y40551
X120866Y48819
Y53150
X113563Y33248
X121063Y62008
Y69882
X114173Y79921
X118402Y92520
X101378
X98425Y98425
X78740
X70256Y88760
X59055Y98425
X59606Y75354
X59055Y59055
X78740
X98425
X88583Y78740
Y118110
X108268
X119575Y124803
X127953Y118110
X98425Y137795
X78740
X59055
X68898Y118110
X88583Y157480
X108268
X98425Y177165
X78740
X59055
X68898Y196850
X88583
X129575Y202362
X133858Y169291
X49213Y157480
X41339Y147244
X29528Y157480
X9843
X-9843
X-29528
X-19685Y177165
X0
X9843Y196850
X-9843
X-29528
X-39370Y177165
Y137795
X-19685
X0
X9843Y118110
X29528
X49213
X43701Y82677
X28740Y85315
X22638Y80709
X7874Y76772
X-1969
X0Y59055
X-19685
X-29921Y62992
X-27559Y70472
X-39370Y59055
X-19685Y98425
X0
X19685
X-9843Y118110
X-29528
X39065Y187008
X49213Y196850
X39370Y216535
X0
X-19685
X-39370
X59055
X78740
X98425
X133444Y227165
T02
X15748Y31299
Y86811
T03
X119653Y137244
Y147244
Y157244
Y167244
Y177244
Y187244
Y197244
Y207244
X19654
Y197244
Y187244
Y177244
Y167244
Y157244
Y147244
Y137244
Y217244
Y227244
X119653
Y217244
T04
X-46850Y76772
Y90551
T05
X-44370Y66929
Y100394
T06
X-49213Y9843
X9843
X127953Y9843
X127953Y108268
X9843
X-49213Y226378
M30
