G04*
G04 #@! TF.GenerationSoftware,Altium Limited,Altium Designer,19.1.8 (144)*
G04*
G04 Layer_Color=32896*
%FSLAX25Y25*%
%MOIN*%
G70*
G01*
G75*
%ADD16C,0.00591*%
D16*
X40025Y51312D02*
X40550Y50787D01*
Y49737D01*
X40025Y49213D01*
X37926D01*
X37402Y49737D01*
Y50787D01*
X37926Y51312D01*
X37402Y52361D02*
Y53411D01*
Y52886D01*
X40550D01*
X40025Y52361D01*
X37926Y54985D02*
X37402Y55510D01*
Y56559D01*
X37926Y57084D01*
X40025D01*
X40550Y56559D01*
Y55510D01*
X40025Y54985D01*
X39501D01*
X38976Y55510D01*
Y57084D01*
X58923Y45013D02*
X59448Y44488D01*
Y43438D01*
X58923Y42913D01*
X56824D01*
X56299Y43438D01*
Y44488D01*
X56824Y45013D01*
X56299Y46062D02*
Y47111D01*
Y46587D01*
X59448D01*
X58923Y46062D01*
X59448Y50785D02*
X58923Y49735D01*
X57873Y48686D01*
X56824D01*
X56299Y49211D01*
Y50260D01*
X56824Y50785D01*
X57349D01*
X57873Y50260D01*
Y48686D01*
X49476Y68372D02*
X50001Y68897D01*
X51050D01*
X51575Y68372D01*
Y66273D01*
X51050Y65748D01*
X50001D01*
X49476Y66273D01*
X46327Y65748D02*
X48426D01*
X46327Y67847D01*
Y68372D01*
X46852Y68897D01*
X47901D01*
X48426Y68372D01*
X43179Y65748D02*
X45278D01*
X43179Y67847D01*
Y68372D01*
X43703Y68897D01*
X44753D01*
X45278Y68372D01*
X34907Y51312D02*
X35432Y50787D01*
Y49737D01*
X34907Y49213D01*
X32808D01*
X32283Y49737D01*
Y50787D01*
X32808Y51312D01*
X32283Y52361D02*
Y53411D01*
Y52886D01*
X35432D01*
X34907Y52361D01*
Y54985D02*
X35432Y55510D01*
Y56559D01*
X34907Y57084D01*
X34383D01*
X33858Y56559D01*
X33333Y57084D01*
X32808D01*
X32283Y56559D01*
Y55510D01*
X32808Y54985D01*
X33333D01*
X33858Y55510D01*
X34383Y54985D01*
X34907D01*
X33858Y55510D02*
Y56559D01*
X29789Y51312D02*
X30314Y50787D01*
Y49737D01*
X29789Y49213D01*
X27690D01*
X27165Y49737D01*
Y50787D01*
X27690Y51312D01*
X27165Y52361D02*
Y53411D01*
Y52886D01*
X30314D01*
X29789Y52361D01*
X30314Y54985D02*
Y57084D01*
X29789D01*
X27690Y54985D01*
X27165D01*
X64041Y45013D02*
X64566Y44488D01*
Y43438D01*
X64041Y42913D01*
X61942D01*
X61417Y43438D01*
Y44488D01*
X61942Y45013D01*
X61417Y46062D02*
Y47111D01*
Y46587D01*
X64566D01*
X64041Y46062D01*
X64566Y50785D02*
Y48686D01*
X62992D01*
X63516Y49735D01*
Y50260D01*
X62992Y50785D01*
X61942D01*
X61417Y50260D01*
Y49211D01*
X61942Y48686D01*
X69159Y45013D02*
X69684Y44488D01*
Y43438D01*
X69159Y42913D01*
X67060D01*
X66535Y43438D01*
Y44488D01*
X67060Y45013D01*
X66535Y46062D02*
Y47111D01*
Y46587D01*
X69684D01*
X69159Y46062D01*
X66535Y50260D02*
X69684D01*
X68110Y48686D01*
Y50785D01*
X24671Y51312D02*
X25196Y50787D01*
Y49737D01*
X24671Y49213D01*
X22572D01*
X22047Y49737D01*
Y50787D01*
X22572Y51312D01*
X22047Y52361D02*
Y53411D01*
Y52886D01*
X25196D01*
X24671Y52361D01*
X22047Y54985D02*
Y56035D01*
Y55510D01*
X25196D01*
X24671Y54985D01*
X71260Y42913D02*
X74408D01*
Y44488D01*
X73884Y45013D01*
X72834D01*
X72309Y44488D01*
Y42913D01*
Y43963D02*
X71260Y45013D01*
Y48161D02*
Y46062D01*
X73359Y48161D01*
X73884D01*
X74408Y47636D01*
Y46587D01*
X73884Y46062D01*
X79002Y45013D02*
X79527Y44488D01*
Y43438D01*
X79002Y42913D01*
X76903D01*
X76378Y43438D01*
Y44488D01*
X76903Y45013D01*
X76378Y46062D02*
Y47111D01*
Y46587D01*
X79527D01*
X79002Y46062D01*
Y48686D02*
X79527Y49211D01*
Y50260D01*
X79002Y50785D01*
X76903D01*
X76378Y50260D01*
Y49211D01*
X76903Y48686D01*
X79002D01*
M02*
