G04*
G04 #@! TF.GenerationSoftware,Altium Limited,Altium Designer,19.1.7 (138)*
G04*
G04 Layer_Physical_Order=2*
G04 Layer_Color=16711680*
%FSLAX25Y25*%
%MOIN*%
G70*
G01*
G75*
%ADD20C,0.03000*%
%ADD23C,0.04500*%
%ADD24R,0.04500X0.04500*%
%ADD25C,0.07087*%
%ADD26R,0.07874X0.07874*%
%ADD27C,0.07874*%
%ADD28C,0.03543*%
%ADD29R,0.03543X0.03543*%
%ADD30C,0.10630*%
G36*
X169636Y-10187D02*
X-10187D01*
X-10187Y169636D01*
X169636D01*
Y-10187D01*
D02*
G37*
%LPC*%
G36*
X159055Y167776D02*
X153167Y165337D01*
X150728Y159449D01*
X153167Y153561D01*
X159055Y151122D01*
X164943Y153561D01*
X167382Y159449D01*
X164943Y165337D01*
X159055Y167776D01*
D02*
G37*
G36*
X0D02*
X-5888Y165337D01*
X-8327Y159449D01*
X-5888Y153561D01*
X0Y151122D01*
X5888Y153561D01*
X8327Y159449D01*
X5888Y165337D01*
X0Y167776D01*
D02*
G37*
G36*
X91732Y160837D02*
X86296Y158586D01*
X84045Y153150D01*
X86296Y147714D01*
X91732Y145462D01*
X97168Y147714D01*
X99420Y153150D01*
X97168Y158586D01*
X91732Y160837D01*
D02*
G37*
G36*
X73622D02*
X68186Y158586D01*
X65934Y153150D01*
X68186Y147714D01*
X73622Y145462D01*
X79058Y147714D01*
X81310Y153150D01*
X79058Y158586D01*
X73622Y160837D01*
D02*
G37*
G36*
X77272Y140963D02*
Y136327D01*
X81908D01*
X80550Y139605D01*
X77272Y140963D01*
D02*
G37*
G36*
X76272D02*
X72993Y139605D01*
X71635Y136327D01*
X76272D01*
Y140963D01*
D02*
G37*
G36*
X81908Y135327D02*
X77272D01*
Y130690D01*
X80550Y132048D01*
X81908Y135327D01*
D02*
G37*
G36*
X76272D02*
X71635D01*
X72993Y132048D01*
X76272Y130690D01*
Y135327D01*
D02*
G37*
G36*
X100394Y141171D02*
X96615Y139605D01*
X95050Y135827D01*
X96615Y132048D01*
X100394Y130483D01*
X104172Y132048D01*
X105737Y135827D01*
X104172Y139605D01*
X100394Y141171D01*
D02*
G37*
G36*
X88583D02*
X84804Y139605D01*
X83239Y135827D01*
X84804Y132048D01*
X88583Y130483D01*
X92361Y132048D01*
X93927Y135827D01*
X92361Y139605D01*
X88583Y141171D01*
D02*
G37*
G36*
X64961D02*
X61182Y139605D01*
X59617Y135827D01*
X61182Y132048D01*
X64961Y130483D01*
X68739Y132048D01*
X70304Y135827D01*
X68739Y139605D01*
X64961Y141171D01*
D02*
G37*
G36*
X105331Y128953D02*
X95457D01*
Y119079D01*
X105331D01*
Y128953D01*
D02*
G37*
G36*
X88583Y129359D02*
X84804Y127794D01*
X83239Y124016D01*
X84804Y120237D01*
X88583Y118672D01*
X92361Y120237D01*
X93927Y124016D01*
X92361Y127794D01*
X88583Y129359D01*
D02*
G37*
G36*
X76772D02*
X72993Y127794D01*
X71428Y124016D01*
X72993Y120237D01*
X76772Y118672D01*
X80550Y120237D01*
X82115Y124016D01*
X80550Y127794D01*
X76772Y129359D01*
D02*
G37*
G36*
X64961D02*
X61182Y127794D01*
X59617Y124016D01*
X61182Y120237D01*
X64961Y118672D01*
X68739Y120237D01*
X70304Y124016D01*
X68739Y127794D01*
X64961Y129359D01*
D02*
G37*
G36*
X93801Y91833D02*
X87301D01*
Y85333D01*
X93801D01*
Y91833D01*
D02*
G37*
G36*
X80022D02*
X73522D01*
Y85333D01*
X80022D01*
Y91833D01*
D02*
G37*
G36*
X66242D02*
X59742D01*
Y85333D01*
X66242D01*
Y91833D01*
D02*
G37*
G36*
X111039Y87417D02*
X105496D01*
Y81874D01*
X111039D01*
Y87417D01*
D02*
G37*
G36*
X108768Y77596D02*
Y75303D01*
X111061D01*
X110389Y76925D01*
X108768Y77596D01*
D02*
G37*
G36*
X107768Y77596D02*
X106146Y76925D01*
X105475Y75303D01*
X107768D01*
Y77596D01*
D02*
G37*
G36*
Y74303D02*
X105475D01*
X106146Y72682D01*
X107768Y72010D01*
Y74303D01*
D02*
G37*
G36*
X111061D02*
X108768D01*
Y72010D01*
X110389Y72682D01*
X111061Y74303D01*
D02*
G37*
G36*
X90551Y72100D02*
X88064Y71070D01*
X87033Y68583D01*
X88064Y66095D01*
X90551Y65065D01*
X93039Y66095D01*
X94069Y68583D01*
X93039Y71070D01*
X90551Y72100D01*
D02*
G37*
G36*
X76772D02*
X74284Y71070D01*
X73254Y68583D01*
X74284Y66095D01*
X76772Y65065D01*
X79259Y66095D01*
X80289Y68583D01*
X79259Y71070D01*
X76772Y72100D01*
D02*
G37*
G36*
X62992D02*
X60505Y71070D01*
X59474Y68583D01*
X60505Y66095D01*
X62992Y65065D01*
X65480Y66095D01*
X66510Y68583D01*
X65480Y71070D01*
X62992Y72100D01*
D02*
G37*
G36*
X69898Y40370D02*
X60024D01*
Y30496D01*
X69898D01*
Y40370D01*
D02*
G37*
G36*
X100394Y40777D02*
X96615Y39212D01*
X95050Y35433D01*
X96615Y31655D01*
X100394Y30089D01*
X104172Y31655D01*
X105737Y35433D01*
X104172Y39212D01*
X100394Y40777D01*
D02*
G37*
G36*
X88583D02*
X84804Y39212D01*
X83239Y35433D01*
X84804Y31655D01*
X88583Y30089D01*
X92361Y31655D01*
X93927Y35433D01*
X92361Y39212D01*
X88583Y40777D01*
D02*
G37*
G36*
X76772D02*
X72993Y39212D01*
X71428Y35433D01*
X72993Y31655D01*
X76772Y30089D01*
X80550Y31655D01*
X82115Y35433D01*
X80550Y39212D01*
X76772Y40777D01*
D02*
G37*
G36*
X89083Y28759D02*
Y24122D01*
X93719D01*
X92361Y27401D01*
X89083Y28759D01*
D02*
G37*
G36*
X77272Y28759D02*
Y24122D01*
X81908D01*
X80550Y27401D01*
X77272Y28759D01*
D02*
G37*
G36*
X76272Y28759D02*
X72993Y27401D01*
X71635Y24122D01*
X76272D01*
Y28759D01*
D02*
G37*
G36*
X88083Y28759D02*
X84804Y27401D01*
X83446Y24122D01*
X88083D01*
Y28759D01*
D02*
G37*
G36*
X76272Y23122D02*
X71635D01*
X72993Y19843D01*
X76272Y18485D01*
Y23122D01*
D02*
G37*
G36*
X93719D02*
X89083D01*
Y18485D01*
X92361Y19843D01*
X93719Y23122D01*
D02*
G37*
G36*
X88083D02*
X83446D01*
X84804Y19843D01*
X88083Y18485D01*
Y23122D01*
D02*
G37*
G36*
X81908D02*
X77272D01*
Y18485D01*
X80550Y19843D01*
X81908Y23122D01*
D02*
G37*
G36*
X100394Y28966D02*
X96615Y27401D01*
X95050Y23622D01*
X96615Y19843D01*
X100394Y18278D01*
X104172Y19843D01*
X105737Y23622D01*
X104172Y27401D01*
X100394Y28966D01*
D02*
G37*
G36*
X64961D02*
X61182Y27401D01*
X59617Y23622D01*
X61182Y19843D01*
X64961Y18278D01*
X68739Y19843D01*
X70304Y23622D01*
X68739Y27401D01*
X64961Y28966D01*
D02*
G37*
G36*
X91732Y13987D02*
X86296Y11735D01*
X84045Y6299D01*
X86296Y863D01*
X91732Y-1388D01*
X97168Y863D01*
X99420Y6299D01*
X97168Y11735D01*
X91732Y13987D01*
D02*
G37*
G36*
X73622D02*
X68186Y11735D01*
X65934Y6299D01*
X68186Y863D01*
X73622Y-1388D01*
X79058Y863D01*
X81310Y6299D01*
X79058Y11735D01*
X73622Y13987D01*
D02*
G37*
G36*
X159055Y8720D02*
X153167Y6282D01*
X150728Y394D01*
X153167Y-5494D01*
X159055Y-7933D01*
X164943Y-5494D01*
X167382Y394D01*
X164943Y6282D01*
X159055Y8720D01*
D02*
G37*
G36*
X0Y8327D02*
X-5888Y5888D01*
X-8327Y0D01*
X-5888Y-5888D01*
X0Y-8327D01*
X5888Y-5888D01*
X8327Y0D01*
X5888Y5888D01*
X0Y8327D01*
D02*
G37*
%LPD*%
D20*
X108268Y69882D02*
Y73819D01*
X109252Y74803D02*
X113189D01*
X105475D02*
X107283D01*
X108268Y75787D02*
Y79724D01*
X89567Y23622D02*
X93504D01*
X87598D02*
X88583D01*
X89567D01*
X83661D02*
X87598D01*
X88583D02*
Y28543D01*
Y22638D02*
Y23622D01*
Y17717D02*
Y22638D01*
X77756Y135827D02*
X81693D01*
X76772D02*
X77756D01*
X75787D02*
X76772D01*
Y136811D02*
Y140748D01*
Y134843D02*
Y135827D01*
X71850D02*
X75787D01*
X77756Y23622D02*
X81693D01*
X76772D02*
X77756D01*
X75787D02*
X76772D01*
X71850D02*
X75787D01*
X76772Y24606D02*
Y28543D01*
Y23622D02*
Y24606D01*
Y22638D02*
Y23622D01*
Y135827D02*
Y136811D01*
Y130905D02*
Y134843D01*
Y18701D02*
Y22638D01*
D23*
X90551Y68583D02*
D03*
X76772D02*
D03*
X62992D02*
D03*
D24*
X90551Y88583D02*
D03*
X76772D02*
D03*
X62992D02*
D03*
D25*
X73622Y6299D02*
D03*
X91732D02*
D03*
Y153150D02*
D03*
X73622D02*
D03*
D26*
X64961Y35433D02*
D03*
X100394Y124016D02*
D03*
D27*
X76772Y35433D02*
D03*
X88583D02*
D03*
X100394D02*
D03*
X64961Y23622D02*
D03*
X76772D02*
D03*
X88583D02*
D03*
X100394D02*
D03*
X88583Y124016D02*
D03*
X76772D02*
D03*
X64961D02*
D03*
X100394Y135827D02*
D03*
X88583D02*
D03*
X76772D02*
D03*
X64961D02*
D03*
D28*
X108268Y74803D02*
D03*
D29*
Y84646D02*
D03*
D30*
X0Y0D02*
D03*
X159055Y394D02*
D03*
Y159449D02*
D03*
X0D02*
D03*
M02*
