G04*
G04 #@! TF.GenerationSoftware,Altium Limited,Altium Designer,20.0.9 (164)*
G04*
G04 Layer_Color=16711935*
%FSLAX25Y25*%
%MOIN*%
G70*
G01*
G75*
%ADD18C,0.11430*%
%ADD19R,0.07099X0.07099*%
%ADD20C,0.07099*%
%ADD21C,0.03162*%
%ADD22C,0.02769*%
G36*
X232283D02*
X22441D01*
Y97000D01*
X232283D01*
Y0D01*
D02*
G37*
D18*
X240500Y12500D02*
D03*
X12000Y12000D02*
D03*
X240500Y85000D02*
D03*
X12500D02*
D03*
D19*
X14000Y56406D02*
D03*
D20*
Y42626D02*
D03*
X11520Y66248D02*
D03*
Y32783D02*
D03*
D21*
X223228Y88189D02*
D03*
X220472Y82677D02*
D03*
X223228Y77165D02*
D03*
X220472Y71653D02*
D03*
X223228Y66142D02*
D03*
X220472Y27559D02*
D03*
X223228Y22047D02*
D03*
X220472Y16535D02*
D03*
X223228Y11024D02*
D03*
X220472Y5512D02*
D03*
X217717Y88189D02*
D03*
X214961Y82677D02*
D03*
X217717Y77165D02*
D03*
X214961Y71653D02*
D03*
X217717Y66142D02*
D03*
X214961Y38583D02*
D03*
Y27559D02*
D03*
X217717Y22047D02*
D03*
X214961Y16535D02*
D03*
X217717Y11024D02*
D03*
X214961Y5512D02*
D03*
X212205Y88189D02*
D03*
X209449Y82677D02*
D03*
X212205Y77165D02*
D03*
X209449Y71653D02*
D03*
X212205Y66142D02*
D03*
X209449Y38583D02*
D03*
Y27559D02*
D03*
X212205Y22047D02*
D03*
X209449Y16535D02*
D03*
X212205Y11024D02*
D03*
X209449Y5512D02*
D03*
X206693Y88189D02*
D03*
X203937Y82677D02*
D03*
X206693Y77165D02*
D03*
X203937Y71653D02*
D03*
X206693Y66142D02*
D03*
X203937Y38583D02*
D03*
Y27559D02*
D03*
X206693Y22047D02*
D03*
X203937Y16535D02*
D03*
X206693Y11024D02*
D03*
X203937Y5512D02*
D03*
X201181Y88189D02*
D03*
X198425Y82677D02*
D03*
X201181Y77165D02*
D03*
X198425Y71653D02*
D03*
X201181Y66142D02*
D03*
X198425Y49606D02*
D03*
Y38583D02*
D03*
Y27559D02*
D03*
X201181Y22047D02*
D03*
X198425Y16535D02*
D03*
X201181Y11024D02*
D03*
X198425Y5512D02*
D03*
X195669Y88189D02*
D03*
X192913Y82677D02*
D03*
X195669Y77165D02*
D03*
X192913Y71653D02*
D03*
X195669Y66142D02*
D03*
X192913Y49606D02*
D03*
Y38583D02*
D03*
Y27559D02*
D03*
X195669Y22047D02*
D03*
X192913Y16535D02*
D03*
X195669Y11024D02*
D03*
X192913Y5512D02*
D03*
X190157Y88189D02*
D03*
X187401Y82677D02*
D03*
X190157Y77165D02*
D03*
X187401Y71653D02*
D03*
X190157Y66142D02*
D03*
X187401Y49606D02*
D03*
Y38583D02*
D03*
Y27559D02*
D03*
X190157Y22047D02*
D03*
X187401Y16535D02*
D03*
X190157Y11024D02*
D03*
X187401Y5512D02*
D03*
X184646Y88189D02*
D03*
X181890Y82677D02*
D03*
X184646Y77165D02*
D03*
X181890Y71653D02*
D03*
X184646Y66142D02*
D03*
X181890Y38583D02*
D03*
Y27559D02*
D03*
X184646Y22047D02*
D03*
X181890Y16535D02*
D03*
X184646Y11024D02*
D03*
X181890Y5512D02*
D03*
X179134Y88189D02*
D03*
X176378Y82677D02*
D03*
X179134Y77165D02*
D03*
X176378Y71653D02*
D03*
X179134Y66142D02*
D03*
X176378Y38583D02*
D03*
Y27559D02*
D03*
X179134Y22047D02*
D03*
X176378Y16535D02*
D03*
X179134Y11024D02*
D03*
X176378Y5512D02*
D03*
X173622Y88189D02*
D03*
X170866Y82677D02*
D03*
X173622Y77165D02*
D03*
X170866Y71653D02*
D03*
X173622Y66142D02*
D03*
X170866Y49606D02*
D03*
Y38583D02*
D03*
Y27559D02*
D03*
X173622Y22047D02*
D03*
X170866Y16535D02*
D03*
X173622Y11024D02*
D03*
X170866Y5512D02*
D03*
X168110Y88189D02*
D03*
X165354Y82677D02*
D03*
X168110Y77165D02*
D03*
X165354Y71653D02*
D03*
X168110Y66142D02*
D03*
X165354Y49606D02*
D03*
Y38583D02*
D03*
Y27559D02*
D03*
X168110Y22047D02*
D03*
X165354Y16535D02*
D03*
X168110Y11024D02*
D03*
X165354Y5512D02*
D03*
X162598Y88189D02*
D03*
X159843Y82677D02*
D03*
X162598Y77165D02*
D03*
X159843Y71653D02*
D03*
X162598Y66142D02*
D03*
X159843Y49606D02*
D03*
Y38583D02*
D03*
Y27559D02*
D03*
X162598Y22047D02*
D03*
X159843Y16535D02*
D03*
X162598Y11024D02*
D03*
X159843Y5512D02*
D03*
X157087Y88189D02*
D03*
X154331Y82677D02*
D03*
X157087Y77165D02*
D03*
X154331Y71653D02*
D03*
X157087Y66142D02*
D03*
X154331Y38583D02*
D03*
Y27559D02*
D03*
X157087Y22047D02*
D03*
X154331Y16535D02*
D03*
X157087Y11024D02*
D03*
X154331Y5512D02*
D03*
X151575Y88189D02*
D03*
X148819Y82677D02*
D03*
X151575Y77165D02*
D03*
X148819Y71653D02*
D03*
X151575Y66142D02*
D03*
X148819Y38583D02*
D03*
Y27559D02*
D03*
X151575Y22047D02*
D03*
X148819Y16535D02*
D03*
X151575Y11024D02*
D03*
X148819Y5512D02*
D03*
X146063Y88189D02*
D03*
X143307Y82677D02*
D03*
X146063Y77165D02*
D03*
X143307Y71653D02*
D03*
X146063Y66142D02*
D03*
X143307Y38583D02*
D03*
Y27559D02*
D03*
X146063Y22047D02*
D03*
X143307Y16535D02*
D03*
X146063Y11024D02*
D03*
X143307Y5512D02*
D03*
X140551Y88189D02*
D03*
X137795Y82677D02*
D03*
X140551Y77165D02*
D03*
X137795Y71653D02*
D03*
X140551Y66142D02*
D03*
X137795Y49606D02*
D03*
Y38583D02*
D03*
Y27559D02*
D03*
X140551Y22047D02*
D03*
X137795Y16535D02*
D03*
X140551Y11024D02*
D03*
X137795Y5512D02*
D03*
X135039Y88189D02*
D03*
X132283Y82677D02*
D03*
X135039Y77165D02*
D03*
X132283Y71653D02*
D03*
X135039Y66142D02*
D03*
X132283Y49606D02*
D03*
Y38583D02*
D03*
Y27559D02*
D03*
X135039Y22047D02*
D03*
X132283Y16535D02*
D03*
X135039Y11024D02*
D03*
X132283Y5512D02*
D03*
X129527Y88189D02*
D03*
X126772Y82677D02*
D03*
X129527Y77165D02*
D03*
X126772Y71653D02*
D03*
X129527Y66142D02*
D03*
X126772Y49606D02*
D03*
Y38583D02*
D03*
Y27559D02*
D03*
X129527Y22047D02*
D03*
X126772Y16535D02*
D03*
X129527Y11024D02*
D03*
X126772Y5512D02*
D03*
X124016Y88189D02*
D03*
X121260Y82677D02*
D03*
X124016Y77165D02*
D03*
X121260Y71653D02*
D03*
X124016Y66142D02*
D03*
X121260Y38583D02*
D03*
Y27559D02*
D03*
X124016Y22047D02*
D03*
X121260Y16535D02*
D03*
X124016Y11024D02*
D03*
X121260Y5512D02*
D03*
X118504Y88189D02*
D03*
X115748Y82677D02*
D03*
X118504Y77165D02*
D03*
X115748Y71653D02*
D03*
X118504Y66142D02*
D03*
X115748Y38583D02*
D03*
Y27559D02*
D03*
X118504Y22047D02*
D03*
X115748Y16535D02*
D03*
X118504Y11024D02*
D03*
X115748Y5512D02*
D03*
X112992Y88189D02*
D03*
X110236Y82677D02*
D03*
X112992Y77165D02*
D03*
X110236Y71653D02*
D03*
X112992Y66142D02*
D03*
X110236Y38583D02*
D03*
Y27559D02*
D03*
X112992Y22047D02*
D03*
X110236Y16535D02*
D03*
X112992Y11024D02*
D03*
X110236Y5512D02*
D03*
X107480Y88189D02*
D03*
X104724Y82677D02*
D03*
X107480Y77165D02*
D03*
X104724Y71653D02*
D03*
X107480Y66142D02*
D03*
X104724Y49606D02*
D03*
Y38583D02*
D03*
Y27559D02*
D03*
X107480Y22047D02*
D03*
X104724Y16535D02*
D03*
X107480Y11024D02*
D03*
X104724Y5512D02*
D03*
X101969Y88189D02*
D03*
X99213Y82677D02*
D03*
X101969Y77165D02*
D03*
X99213Y71653D02*
D03*
X101969Y66142D02*
D03*
X99213Y49606D02*
D03*
Y38583D02*
D03*
Y27559D02*
D03*
X101969Y22047D02*
D03*
X99213Y16535D02*
D03*
X101969Y11024D02*
D03*
X99213Y5512D02*
D03*
X96457Y88189D02*
D03*
X93701Y82677D02*
D03*
X96457Y77165D02*
D03*
X93701Y71653D02*
D03*
X96457Y66142D02*
D03*
X93701Y49606D02*
D03*
Y38583D02*
D03*
Y27559D02*
D03*
X96457Y22047D02*
D03*
X93701Y16535D02*
D03*
X96457Y11024D02*
D03*
X93701Y5512D02*
D03*
X90945Y88189D02*
D03*
X88189Y82677D02*
D03*
X90945Y77165D02*
D03*
X88189Y71653D02*
D03*
X90945Y66142D02*
D03*
X88189Y38583D02*
D03*
Y27559D02*
D03*
X90945Y22047D02*
D03*
X88189Y16535D02*
D03*
X90945Y11024D02*
D03*
X88189Y5512D02*
D03*
X85433Y88189D02*
D03*
X82677Y82677D02*
D03*
X85433Y77165D02*
D03*
X82677Y71653D02*
D03*
X85433Y66142D02*
D03*
X82677Y38583D02*
D03*
Y27559D02*
D03*
X85433Y22047D02*
D03*
X82677Y16535D02*
D03*
X85433Y11024D02*
D03*
X82677Y5512D02*
D03*
X79921Y88189D02*
D03*
X77165Y82677D02*
D03*
X79921Y77165D02*
D03*
X77165Y71653D02*
D03*
X79921Y66142D02*
D03*
X77165Y38583D02*
D03*
Y27559D02*
D03*
X79921Y22047D02*
D03*
X77165Y16535D02*
D03*
X79921Y11024D02*
D03*
X77165Y5512D02*
D03*
X74409Y88189D02*
D03*
X71653Y82677D02*
D03*
X74409Y77165D02*
D03*
X71653Y71653D02*
D03*
X74409Y66142D02*
D03*
X71653Y49606D02*
D03*
Y38583D02*
D03*
Y27559D02*
D03*
X74409Y22047D02*
D03*
X71653Y16535D02*
D03*
X74409Y11024D02*
D03*
X71653Y5512D02*
D03*
X68898Y88189D02*
D03*
X66142Y82677D02*
D03*
X68898Y77165D02*
D03*
X66142Y71653D02*
D03*
X68898Y66142D02*
D03*
X66142Y49606D02*
D03*
Y38583D02*
D03*
Y27559D02*
D03*
X68898Y22047D02*
D03*
X66142Y16535D02*
D03*
X68898Y11024D02*
D03*
X66142Y5512D02*
D03*
X63386Y88189D02*
D03*
X60630Y82677D02*
D03*
X63386Y77165D02*
D03*
X60630Y71653D02*
D03*
X63386Y66142D02*
D03*
X60630Y38583D02*
D03*
Y27559D02*
D03*
X63386Y22047D02*
D03*
X60630Y16535D02*
D03*
X63386Y11024D02*
D03*
X60630Y5512D02*
D03*
X57874Y88189D02*
D03*
X55118Y82677D02*
D03*
X57874Y77165D02*
D03*
X55118Y71653D02*
D03*
X57874Y66142D02*
D03*
X55118Y38583D02*
D03*
Y27559D02*
D03*
X57874Y22047D02*
D03*
X55118Y16535D02*
D03*
X57874Y11024D02*
D03*
X55118Y5512D02*
D03*
X52362Y88189D02*
D03*
X49606Y82677D02*
D03*
X52362Y77165D02*
D03*
X49606Y71653D02*
D03*
X52362Y66142D02*
D03*
X49606Y38583D02*
D03*
Y27559D02*
D03*
X52362Y22047D02*
D03*
X49606Y16535D02*
D03*
X52362Y11024D02*
D03*
X49606Y5512D02*
D03*
X46850Y88189D02*
D03*
X44094Y82677D02*
D03*
X46850Y77165D02*
D03*
X44094Y71653D02*
D03*
X46850Y66142D02*
D03*
X44094Y38583D02*
D03*
Y27559D02*
D03*
X46850Y22047D02*
D03*
X44094Y16535D02*
D03*
X46850Y11024D02*
D03*
X44094Y5512D02*
D03*
X41339Y88189D02*
D03*
X38583Y82677D02*
D03*
X41339Y77165D02*
D03*
X38583Y71653D02*
D03*
X41339Y66142D02*
D03*
X38583Y49606D02*
D03*
Y38583D02*
D03*
Y27559D02*
D03*
X41339Y22047D02*
D03*
X38583Y16535D02*
D03*
X41339Y11024D02*
D03*
X38583Y5512D02*
D03*
X35827Y88189D02*
D03*
X33071Y82677D02*
D03*
X35827Y77165D02*
D03*
X33071Y71653D02*
D03*
X35827Y66142D02*
D03*
X33071Y49606D02*
D03*
X35827Y44094D02*
D03*
X33071Y38583D02*
D03*
Y27559D02*
D03*
X35827Y22047D02*
D03*
X33071Y16535D02*
D03*
X35827Y11024D02*
D03*
X33071Y5512D02*
D03*
X30315Y88189D02*
D03*
X27559Y82677D02*
D03*
X30315Y77165D02*
D03*
X27559Y71653D02*
D03*
X30315Y66142D02*
D03*
X27559Y49606D02*
D03*
X30315Y44094D02*
D03*
X27559Y38583D02*
D03*
Y27559D02*
D03*
X30315Y22047D02*
D03*
X27559Y16535D02*
D03*
X30315Y11024D02*
D03*
X27559Y5512D02*
D03*
X24803Y44094D02*
D03*
X48425Y50394D02*
D03*
X214961D02*
D03*
X205906D02*
D03*
X183465D02*
D03*
X174409D02*
D03*
X151969D02*
D03*
X142913D02*
D03*
X57480D02*
D03*
X120472D02*
D03*
X111417D02*
D03*
X79921D02*
D03*
D22*
X88976D02*
D03*
M02*
