G04*
G04 #@! TF.GenerationSoftware,Altium Limited,Altium Designer,20.0.9 (164)*
G04*
G04 Layer_Color=32768*
%FSLAX25Y25*%
%MOIN*%
G70*
G01*
G75*
%ADD30C,0.00394*%
%ADD31C,0.00197*%
D30*
X62992Y50157D02*
X66929D01*
X64961Y48189D02*
Y52126D01*
X222441Y47874D02*
Y51811D01*
X220472Y49843D02*
X224409D01*
X190945Y48189D02*
Y52126D01*
X188976Y50157D02*
X192913D01*
X159449Y47874D02*
Y51811D01*
X157480Y49843D02*
X161417D01*
X127953Y48189D02*
Y52126D01*
X125984Y50157D02*
X129921D01*
X96457Y47874D02*
Y51811D01*
X94488Y49843D02*
X98425D01*
D31*
X69095Y41102D02*
Y59213D01*
X60827Y41102D02*
Y59213D01*
X69095D01*
X60827Y41102D02*
X69095D01*
X218307Y58898D02*
X226575D01*
X218307Y40787D02*
X226575D01*
Y58898D01*
X218307Y40787D02*
Y58898D01*
X186811Y41102D02*
X195079D01*
X186811Y59213D02*
X195079D01*
X186811Y41102D02*
Y59213D01*
X195079Y41102D02*
Y59213D01*
X155315Y58898D02*
X163583D01*
X155315Y40787D02*
X163583D01*
Y58898D01*
X155315Y40787D02*
Y58898D01*
X123819Y41102D02*
X132087D01*
X123819Y59213D02*
X132087D01*
X123819Y41102D02*
Y59213D01*
X132087Y41102D02*
Y59213D01*
X92323Y58898D02*
X100591D01*
X92323Y40787D02*
X100591D01*
Y58898D01*
X92323Y40787D02*
Y58898D01*
M02*
