G04*
G04 #@! TF.GenerationSoftware,Altium Limited,Altium Designer,19.1.8 (144)*
G04*
G04 Layer_Color=255*
%FSLAX25Y25*%
%MOIN*%
G70*
G01*
G75*
%ADD17C,0.03937*%
%ADD18R,0.03347X0.03347*%
%ADD22R,0.03150X0.03543*%
%ADD23R,0.03347X0.03347*%
%ADD26R,0.03937X0.03543*%
%ADD30R,0.03543X0.03937*%
%ADD100C,0.07087*%
%ADD101R,0.07087X0.07087*%
%ADD102C,0.10630*%
%ADD103C,0.10827*%
%ADD104C,0.09843*%
%ADD105R,0.06299X0.06299*%
%ADD106C,0.06299*%
%ADD107C,0.06000*%
%ADD108R,0.06000X0.06000*%
%ADD109C,0.02756*%
%ADD112R,0.03740X0.03543*%
%ADD113R,0.05512X0.07087*%
%ADD114R,0.07087X0.05512*%
%ADD115R,0.09843X0.06693*%
%ADD116R,0.09646X0.14567*%
%ADD117R,0.02362X0.03937*%
%ADD118R,0.01968X0.00984*%
%ADD119R,0.01968X0.01378*%
D17*
X180709Y199606D02*
D03*
D18*
X77253Y43012D02*
D03*
X71150D02*
D03*
X71063Y88189D02*
D03*
X77165D02*
D03*
D22*
X205118Y251871D02*
D03*
X198031D02*
D03*
X201575Y259745D02*
D03*
D23*
X9625Y58858D02*
D03*
Y64961D02*
D03*
X14567Y65157D02*
D03*
Y59055D02*
D03*
X209802Y240611D02*
D03*
Y246713D02*
D03*
X205118Y246713D02*
D03*
Y240611D02*
D03*
X200394D02*
D03*
Y246713D02*
D03*
D26*
X190554Y138779D02*
D03*
Y133465D02*
D03*
X145672Y138779D02*
D03*
Y133465D02*
D03*
X101088Y138841D02*
D03*
Y133526D02*
D03*
X56153Y138908D02*
D03*
Y133593D02*
D03*
X214764Y241398D02*
D03*
Y246713D02*
D03*
D30*
X76772Y82677D02*
D03*
X71457D02*
D03*
X76772Y37795D02*
D03*
X71457D02*
D03*
X152168Y182041D02*
D03*
X146853D02*
D03*
X164086Y182035D02*
D03*
X158772D02*
D03*
X197247D02*
D03*
X191932D02*
D03*
X203737D02*
D03*
X209052D02*
D03*
D100*
X152365Y133465D02*
D03*
X175987Y148976D02*
D03*
X164176Y145276D02*
D03*
X152365D02*
D03*
X140554Y148976D02*
D03*
X197247Y133465D02*
D03*
X220869Y148976D02*
D03*
X209058Y145276D02*
D03*
X197247D02*
D03*
X185436Y148976D02*
D03*
X29605Y277323D02*
D03*
X39605Y267323D02*
D03*
Y277323D02*
D03*
X49605Y267323D02*
D03*
Y277323D02*
D03*
X59605Y267323D02*
D03*
Y277323D02*
D03*
X69605Y267323D02*
D03*
Y277323D02*
D03*
X79605Y267323D02*
D03*
Y277323D02*
D03*
X89605Y267323D02*
D03*
Y277323D02*
D03*
X99605Y267323D02*
D03*
Y277323D02*
D03*
X109605Y267323D02*
D03*
Y277323D02*
D03*
X119605Y267323D02*
D03*
Y277323D02*
D03*
X129605Y267323D02*
D03*
Y277323D02*
D03*
X139605Y267323D02*
D03*
Y277323D02*
D03*
X149605Y267323D02*
D03*
Y277323D02*
D03*
X159605Y267323D02*
D03*
Y277323D02*
D03*
X169605Y267323D02*
D03*
Y277323D02*
D03*
X179605Y267323D02*
D03*
Y277323D02*
D03*
X189605Y267323D02*
D03*
Y277323D02*
D03*
X199605Y267323D02*
D03*
Y277323D02*
D03*
X209605Y267323D02*
D03*
Y277323D02*
D03*
X219605Y267323D02*
D03*
Y277323D02*
D03*
X107483Y133465D02*
D03*
X131105Y148976D02*
D03*
X119294Y145276D02*
D03*
X107483D02*
D03*
X95672Y148976D02*
D03*
X62601Y133465D02*
D03*
X86223Y148976D02*
D03*
X74412Y145276D02*
D03*
X62601D02*
D03*
X50790Y148976D02*
D03*
X120867Y233857D02*
D03*
X132284Y230156D02*
D03*
X108662D02*
D03*
X164086Y199908D02*
D03*
X140464Y184396D02*
D03*
X152276Y188097D02*
D03*
X164086D02*
D03*
X175898Y184396D02*
D03*
X209052Y200001D02*
D03*
X185430Y184490D02*
D03*
X197241Y188190D02*
D03*
X209052D02*
D03*
X220863Y184490D02*
D03*
D101*
X164176Y133465D02*
D03*
X209058D02*
D03*
X29605Y267323D02*
D03*
X119294Y133465D02*
D03*
X74412D02*
D03*
X120867Y245668D02*
D03*
X152276Y199908D02*
D03*
X197241Y200001D02*
D03*
D102*
X9841Y272047D02*
D03*
X9843Y181495D02*
D03*
X9843Y108268D02*
D03*
X127953D02*
D03*
Y9843D02*
D03*
D103*
X238187Y272047D02*
D03*
X9843Y9843D02*
D03*
D104*
X144403Y220904D02*
D03*
Y250904D02*
D03*
X239284D02*
D03*
X219206Y220904D02*
D03*
D105*
X60731Y173228D02*
D03*
D106*
X74511D02*
D03*
X50889Y170748D02*
D03*
X84353D02*
D03*
D107*
X93150Y101969D02*
D03*
X83150D02*
D03*
X73150D02*
D03*
X63150D02*
D03*
X93119Y57579D02*
D03*
X83119D02*
D03*
X73119D02*
D03*
X63119D02*
D03*
D108*
X53150Y101969D02*
D03*
X53119Y57579D02*
D03*
D109*
X15748Y31299D02*
D03*
Y86811D02*
D03*
D112*
X144403Y242873D02*
D03*
Y230432D02*
D03*
D113*
X74412Y153543D02*
D03*
X63586D02*
D03*
X108467D02*
D03*
X119294D02*
D03*
X153349D02*
D03*
X164176D02*
D03*
X198231D02*
D03*
X209058D02*
D03*
D114*
X139764Y199908D02*
D03*
Y210735D02*
D03*
X221654Y200001D02*
D03*
Y210828D02*
D03*
D115*
X168110Y210630D02*
D03*
X152362D02*
D03*
X209055D02*
D03*
X193307D02*
D03*
D116*
X208169Y225590D02*
D03*
X187894D02*
D03*
D117*
X187795Y235965D02*
D03*
X191535D02*
D03*
X195276D02*
D03*
Y246713D02*
D03*
X191535D02*
D03*
X187795D02*
D03*
D118*
X63681Y115506D02*
D03*
Y113537D02*
D03*
X59744Y115506D02*
D03*
Y113537D02*
D03*
D119*
X63681Y117671D02*
D03*
X59744D02*
D03*
X63681Y111372D02*
D03*
X59744D02*
D03*
M02*
