G04*
G04 #@! TF.GenerationSoftware,Altium Limited,Altium Designer,20.0.9 (164)*
G04*
G04 Layer_Color=16711935*
%FSLAX25Y25*%
%MOIN*%
G70*
G01*
G75*
%ADD130C,0.00000*%
%ADD131C,0.00394*%
%ADD132C,0.00100*%
%ADD133R,0.03150X0.00847*%
%ADD134R,0.00847X0.03150*%
D130*
X86822Y219559D02*
G03*
X87423Y219559I300J0D01*
G01*
X84822D02*
G03*
X85422Y219559I300J0D01*
G01*
X82823D02*
G03*
X83422Y219559I300J0D01*
G01*
X80822D02*
G03*
X81423Y219559I300J0D01*
G01*
X78822D02*
G03*
X79422Y219559I300J0D01*
G01*
X76823D02*
G03*
X77422Y219559I300J0D01*
G01*
X74822D02*
G03*
X75423Y219559I300J0D01*
G01*
X87423Y215659D02*
G03*
X86822Y215659I-300J0D01*
G01*
X85422D02*
G03*
X84822Y215659I-300J0D01*
G01*
X83422D02*
G03*
X82823Y215659I-300J0D01*
G01*
X81423D02*
G03*
X80822Y215659I-300J0D01*
G01*
X79422D02*
G03*
X78822Y215659I-300J0D01*
G01*
X77422D02*
G03*
X76823Y215659I-300J0D01*
G01*
X75423D02*
G03*
X74822Y215659I-300J0D01*
G01*
X72934Y92008D02*
G03*
X75334Y92008I1200J0D01*
G01*
X72903Y47225D02*
G03*
X75303Y47225I1200J0D01*
G01*
D131*
X78150Y233267D02*
G03*
X78150Y233267I-1969J0D01*
G01*
X175591Y79724D02*
G03*
X175591Y79724I-1969J0D01*
G01*
X141056Y231042D02*
Y242263D01*
X147749Y231042D02*
Y242263D01*
X141056D02*
X147749D01*
X141056Y231042D02*
X147749D01*
X77559Y80787D02*
Y84567D01*
X70669Y80787D02*
Y84567D01*
X77559D01*
X70669Y80787D02*
X77559D01*
X77351Y41437D02*
Y44587D01*
X71052Y41437D02*
Y44587D01*
X77351D01*
X71052Y41437D02*
X77351D01*
X77559Y35906D02*
Y39685D01*
X70669Y35906D02*
Y39685D01*
X77559D01*
X70669Y35906D02*
X77559D01*
X188664Y132677D02*
Y139567D01*
X192444Y132677D02*
Y139567D01*
X188664D02*
X192444D01*
X188664Y132677D02*
X192444D01*
X143782D02*
Y139567D01*
X147562Y132677D02*
Y139567D01*
X143782D02*
X147562D01*
X143782Y132677D02*
X147562D01*
X99198Y132738D02*
Y139628D01*
X102978Y132738D02*
Y139628D01*
X99198D02*
X102978D01*
X99198Y132738D02*
X102978D01*
X54263Y132806D02*
Y139696D01*
X58043Y132806D02*
Y139696D01*
X54263D02*
X58043D01*
X54263Y132806D02*
X58043D01*
X75594Y150098D02*
Y156988D01*
X62405Y150098D02*
Y156988D01*
X75594D01*
X62405Y150098D02*
X75594D01*
X107286D02*
X120475D01*
X107286Y156988D02*
X120475D01*
X107286Y150098D02*
Y156988D01*
X120475Y150098D02*
Y156988D01*
X152168Y150098D02*
X165357D01*
X152168Y156988D02*
X165357D01*
X152168Y150098D02*
Y156988D01*
X165357Y150098D02*
Y156988D01*
X197050Y150098D02*
X210239D01*
X197050Y156988D02*
X210239D01*
X197050Y150098D02*
Y156988D01*
X210239Y150098D02*
Y156988D01*
X136319Y198727D02*
X143209D01*
X136319Y211916D02*
X143209D01*
Y198727D02*
Y211916D01*
X136319Y198727D02*
Y211916D01*
X152956Y180151D02*
Y183931D01*
X146066Y180151D02*
Y183931D01*
X152956D01*
X146066Y180151D02*
X152956D01*
X164874Y180146D02*
Y183925D01*
X157984Y180146D02*
Y183925D01*
X164874D01*
X157984Y180146D02*
X164874D01*
X198034D02*
Y183925D01*
X191145Y180146D02*
Y183925D01*
X198034D01*
X191145Y180146D02*
X198034D01*
X202950D02*
X209840D01*
X202950Y183925D02*
X209840D01*
X202950Y180146D02*
Y183925D01*
X209840Y180146D02*
Y183925D01*
X218209Y198820D02*
X225098D01*
X218209Y212009D02*
X225098D01*
Y198820D02*
Y212009D01*
X218209Y198820D02*
Y212009D01*
X38976Y50394D02*
Y53543D01*
X45276Y50394D02*
Y53543D01*
X38976D02*
X45276D01*
X38976Y50394D02*
X45276D01*
X39370Y66535D02*
X44882D01*
X39370Y54724D02*
X44882D01*
X39370D02*
Y66535D01*
X44882Y54724D02*
Y66535D01*
X24055Y174764D02*
Y181063D01*
X27205Y174764D02*
Y181063D01*
X24055Y174764D02*
X27205D01*
X24055Y181063D02*
X27205D01*
X5610Y245669D02*
Y248819D01*
X-689Y245669D02*
Y248819D01*
Y245669D02*
X5610D01*
X-689Y248819D02*
X5610D01*
X11200Y58760D02*
Y65059D01*
X8050Y58760D02*
Y65059D01*
Y58760D02*
X11200D01*
X8050Y65059D02*
X11200D01*
X12992Y58957D02*
Y65256D01*
X16142Y58957D02*
Y65256D01*
X12992D02*
X16142D01*
X12992Y58957D02*
X16142D01*
X152362Y168504D02*
X164173D01*
X152362Y174016D02*
X164173D01*
X152362Y168504D02*
Y174016D01*
X164173Y168504D02*
Y174016D01*
X216653Y240611D02*
Y247500D01*
X212874Y240611D02*
Y247500D01*
Y240611D02*
X216653D01*
X212874Y247500D02*
X216653D01*
X211376Y240512D02*
Y246811D01*
X208227Y240512D02*
Y246811D01*
Y240512D02*
X211376D01*
X208227Y246811D02*
X211376D01*
X195669Y253052D02*
X207480D01*
X195669Y258564D02*
X207480D01*
Y253052D02*
Y258564D01*
X195669Y253052D02*
Y258564D01*
X210531Y218996D02*
Y232185D01*
X185531Y218996D02*
Y232185D01*
X210531D01*
X185531Y218996D02*
X210531D01*
X203543Y240512D02*
Y246811D01*
X206693Y240512D02*
Y246811D01*
X203543D02*
X206693D01*
X203543Y240512D02*
X206693D01*
X201969D02*
Y246811D01*
X198819Y240512D02*
Y246811D01*
Y240512D02*
X201969D01*
X198819Y246811D02*
X201969D01*
X197500Y237933D02*
Y244744D01*
X185571Y237933D02*
Y244744D01*
Y237933D02*
X197500D01*
X185571Y244744D02*
X197500D01*
X40551Y119980D02*
X43701D01*
X40551Y113681D02*
X43701D01*
Y119980D01*
X40551Y113681D02*
Y119980D01*
X146850Y169139D02*
X150000D01*
X146850Y175438D02*
X150000D01*
X146850Y169139D02*
Y175438D01*
X150000Y169139D02*
Y175438D01*
X142530Y169193D02*
Y175492D01*
X145679Y169193D02*
Y175492D01*
X142530Y169193D02*
X145679D01*
X142530Y175492D02*
X145679D01*
X114813Y201378D02*
X130856D01*
X109843Y196407D02*
X114813Y201378D01*
X109843Y175394D02*
Y196407D01*
Y175394D02*
X135827D01*
Y196407D01*
X130856Y201378D02*
X135827Y196407D01*
X137008Y164567D02*
X143307D01*
X137008Y161417D02*
X143307D01*
X137008D02*
Y164567D01*
X143307Y161417D02*
Y164567D01*
X148524Y161417D02*
X154823D01*
X148524Y164567D02*
X154823D01*
Y161417D02*
Y164567D01*
X148524Y161417D02*
Y164567D01*
X90256Y213970D02*
Y220860D01*
X94036Y213970D02*
Y220860D01*
X90256Y213970D02*
X94036D01*
X90256Y220860D02*
X94036D01*
X72638Y229723D02*
X91930D01*
X72638Y247440D02*
X91930D01*
X72638Y229723D02*
Y247440D01*
X91930Y229723D02*
Y247440D01*
X96079Y232676D02*
Y238975D01*
X92929Y232676D02*
Y238975D01*
X96079D01*
X92929Y232676D02*
X96079D01*
X97400D02*
Y238975D01*
X100550Y232676D02*
Y238975D01*
X97400Y232676D02*
X100550D01*
X97400Y238975D02*
X100550D01*
X170079Y31693D02*
Y83268D01*
X198425Y31693D02*
Y83268D01*
X170079D02*
X198425D01*
X170079Y31693D02*
X198425D01*
X230561Y201378D02*
X246604D01*
X225590Y196407D02*
X230561Y201378D01*
X225590Y175394D02*
Y196407D01*
Y175394D02*
X251575D01*
Y196407D01*
X246604Y201378D02*
X251575Y196407D01*
X154035Y71870D02*
X160925D01*
X154035Y68091D02*
X160925D01*
X154035D02*
Y71870D01*
X160925Y68091D02*
Y71870D01*
X154035Y46870D02*
X160925D01*
X154035Y43091D02*
X160925D01*
X154035D02*
Y46870D01*
X160925Y43091D02*
Y46870D01*
X70965Y86614D02*
X77264D01*
X70965Y89764D02*
X77264D01*
X70965Y86614D02*
Y89764D01*
X77264Y86614D02*
Y89764D01*
X62224Y68110D02*
X68524D01*
X62224Y64961D02*
X68524D01*
X62224D02*
Y68110D01*
X68524Y64961D02*
Y68110D01*
X51121D02*
X57420D01*
X51121Y64961D02*
X57420D01*
X51121D02*
Y68110D01*
X57420Y64961D02*
Y68110D01*
X62224Y72638D02*
X68524D01*
X62224Y69488D02*
X68524D01*
X62224D02*
Y72638D01*
X68524Y69488D02*
Y72638D01*
X51121D02*
X57420D01*
X51121Y69488D02*
X57420D01*
X51121D02*
Y72638D01*
X57420Y69488D02*
Y72638D01*
X93920Y86449D02*
Y92749D01*
X90771Y86449D02*
Y92749D01*
X93920D01*
X90771Y86449D02*
X93920D01*
X86474D02*
Y92749D01*
X89624Y86449D02*
Y92749D01*
X86474Y86449D02*
X89624D01*
X86474Y92749D02*
X89624D01*
X90771Y72736D02*
Y79035D01*
X93920Y72736D02*
Y79035D01*
X90771Y72736D02*
X93920D01*
X90771Y79035D02*
X93920D01*
X86474Y75610D02*
Y81909D01*
X89624Y75610D02*
Y81909D01*
X86474Y75610D02*
X89624D01*
X86474Y81909D02*
X89624D01*
X81946Y72953D02*
X88836D01*
X81946Y69173D02*
X88836D01*
X81946D02*
Y72953D01*
X88836Y69173D02*
Y72953D01*
X93890Y42126D02*
Y48425D01*
X90740Y42126D02*
Y48425D01*
X93890D01*
X90740Y42126D02*
X93890D01*
X86443D02*
Y48425D01*
X89593Y42126D02*
Y48425D01*
X86443Y42126D02*
X89593D01*
X86443Y48425D02*
X89593D01*
X90740Y27949D02*
Y34248D01*
X93890Y27949D02*
Y34248D01*
X90740Y27949D02*
X93890D01*
X90740Y34248D02*
X93890D01*
X86443Y30826D02*
Y37126D01*
X89593Y30826D02*
Y37126D01*
X86443Y30826D02*
X89593D01*
X86443Y37126D02*
X89593D01*
X81916Y28366D02*
X88806D01*
X81916Y24587D02*
X88806D01*
X81916D02*
Y28366D01*
X88806Y24587D02*
Y28366D01*
X52658Y22306D02*
Y28605D01*
X55807Y22306D02*
Y28605D01*
X52658Y22306D02*
X55807D01*
X52658Y28605D02*
X55807D01*
X42913Y20515D02*
X49803D01*
X42913Y24294D02*
X49803D01*
Y20515D02*
Y24294D01*
X42913Y20515D02*
Y24294D01*
X43602Y26932D02*
X49902D01*
X43602Y30081D02*
X49902D01*
Y26932D02*
Y30081D01*
X43602Y26932D02*
Y30081D01*
X42913Y37480D02*
X49803D01*
X42913Y41260D02*
X49803D01*
Y37480D02*
Y41260D01*
X42913Y37480D02*
Y41260D01*
X43602Y31890D02*
X49902D01*
X43602Y35039D02*
X49902D01*
Y31890D02*
Y35039D01*
X43602Y31890D02*
Y35039D01*
X55807Y33366D02*
Y39665D01*
X52658Y33366D02*
Y39665D01*
X55807D01*
X52658Y33366D02*
X55807D01*
X32283Y94488D02*
X35433D01*
X32283Y88189D02*
X35433D01*
Y94488D01*
X32283Y88189D02*
Y94488D01*
X39370Y88189D02*
X42520D01*
X39370Y94488D02*
X42520D01*
X39370Y88189D02*
Y94488D01*
X42520Y88189D02*
Y94488D01*
X43307Y101969D02*
Y107480D01*
X31496Y101969D02*
Y107480D01*
X43307D01*
X31496Y101969D02*
X43307D01*
X35866Y113603D02*
Y119902D01*
X39016Y113603D02*
Y119902D01*
X35866Y113603D02*
X39016D01*
X35866Y119902D02*
X39016D01*
X31097Y113603D02*
X34247D01*
X31097Y119902D02*
X34247D01*
X31097Y113603D02*
Y119902D01*
X34247Y113603D02*
Y119902D01*
X215053Y175492D02*
X218202D01*
X215053Y169193D02*
X218202D01*
Y175492D01*
X215053Y169193D02*
Y175492D01*
X209055Y168504D02*
Y174016D01*
X197244Y168504D02*
Y174016D01*
X209055D01*
X197244Y168504D02*
X209055D01*
X213779Y169139D02*
Y175438D01*
X210630Y169139D02*
Y175438D01*
X213779D01*
X210630Y169139D02*
X213779D01*
X193405Y161417D02*
Y164567D01*
X199705Y161417D02*
Y164567D01*
X193405D02*
X199705D01*
X193405Y161417D02*
X199705D01*
X188878D02*
Y164567D01*
X182579Y161417D02*
Y164567D01*
Y161417D02*
X188878D01*
X182579Y164567D02*
X188878D01*
X24016Y192217D02*
X27165D01*
X24016Y185918D02*
X27165D01*
Y192217D01*
X24016Y185918D02*
Y192217D01*
X-689Y241378D02*
X5610D01*
X-689Y244528D02*
X5610D01*
Y241378D02*
Y244528D01*
X-689Y241378D02*
Y244528D01*
X57087Y209251D02*
Y217125D01*
X52165Y209251D02*
Y217125D01*
X57087D01*
X52165Y209251D02*
X57087D01*
X59744Y193995D02*
Y197145D01*
X53445Y193995D02*
Y197145D01*
Y193995D02*
X59744D01*
X53445Y197145D02*
X59744D01*
X53445Y198207D02*
Y201357D01*
X59744Y198207D02*
Y201357D01*
X53445D02*
X59744D01*
X53445Y198207D02*
X59744D01*
X53445Y202754D02*
Y205904D01*
X59744Y202754D02*
Y205904D01*
X53445D02*
X59744D01*
X53445Y202754D02*
X59744D01*
X27362Y255264D02*
X32333Y260235D01*
X53347D01*
Y234250D02*
Y260235D01*
X32333Y234250D02*
X53347D01*
X27362Y239221D02*
X32333Y234250D01*
X27362Y239221D02*
Y255264D01*
X39272Y222243D02*
X52658D01*
X39272Y232873D02*
X52658D01*
Y222243D02*
Y232873D01*
X39272Y222243D02*
Y232873D01*
X40551Y215648D02*
X48425D01*
X40551Y220569D02*
X48425D01*
Y215648D02*
Y220569D01*
X40551Y215648D02*
Y220569D01*
X37795Y185130D02*
Y193004D01*
X42717Y185130D02*
Y193004D01*
X37795Y185130D02*
X42717D01*
X37795Y193004D02*
X42717D01*
X30211Y185130D02*
Y193004D01*
X35132Y185130D02*
Y193004D01*
X30211Y185130D02*
X35132D01*
X30211Y193004D02*
X35132D01*
D132*
X68034Y90203D02*
Y91303D01*
X64184D02*
X68034D01*
X64184Y90203D02*
Y91303D01*
Y90203D02*
X68034D01*
Y88233D02*
Y89333D01*
X64184D02*
X68034D01*
X64184Y88233D02*
Y89333D01*
Y88233D02*
X68034D01*
Y86263D02*
Y87363D01*
X64184D02*
X68034D01*
X64184Y86263D02*
Y87363D01*
Y86263D02*
X68034D01*
Y84293D02*
Y85393D01*
X64184D02*
X68034D01*
X64184Y84293D02*
Y85393D01*
Y84293D02*
X68034D01*
Y82323D02*
Y83423D01*
X64184D02*
X68034D01*
X64184Y82323D02*
Y83423D01*
Y82323D02*
X68034D01*
Y80353D02*
Y81453D01*
X64184D02*
X68034D01*
X64184Y80353D02*
Y81453D01*
Y80353D02*
X68034D01*
Y78383D02*
Y79483D01*
X64184D02*
X68034D01*
X64184Y78383D02*
Y79483D01*
Y78383D02*
X68034D01*
Y76413D02*
Y77513D01*
X64184D02*
X68034D01*
X64184Y76413D02*
Y77513D01*
Y76413D02*
X68034D01*
X80234D02*
Y77513D01*
Y76413D02*
X84084D01*
Y77513D01*
X80234D02*
X84084D01*
X80234Y78383D02*
Y79483D01*
Y78383D02*
X84084D01*
Y79483D01*
X80234D02*
X84084D01*
X80234Y80353D02*
Y81453D01*
Y80353D02*
X84084D01*
Y81453D01*
X80234D02*
X84084D01*
X80234Y82323D02*
Y83423D01*
Y82323D02*
X84084D01*
Y83423D01*
X80234D02*
X84084D01*
X80234Y84293D02*
Y85393D01*
Y84293D02*
X84084D01*
Y85393D01*
X80234D02*
X84084D01*
X80234Y86263D02*
Y87363D01*
Y86263D02*
X84084D01*
Y87363D01*
X80234D02*
X84084D01*
X80234Y88233D02*
Y89333D01*
Y88233D02*
X84084D01*
Y89333D01*
X80234D02*
X84084D01*
X80234Y90203D02*
Y91303D01*
Y90203D02*
X84084D01*
Y91303D01*
X80234D02*
X84084D01*
X68034Y75708D02*
X80234D01*
Y92008D01*
X68034D02*
X80234D01*
X68034Y75708D02*
Y92008D01*
X68003Y45420D02*
Y46520D01*
X64153D02*
X68003D01*
X64153Y45420D02*
Y46520D01*
Y45420D02*
X68003D01*
Y43450D02*
Y44550D01*
X64153D02*
X68003D01*
X64153Y43450D02*
Y44550D01*
Y43450D02*
X68003D01*
Y41480D02*
Y42580D01*
X64153D02*
X68003D01*
X64153Y41480D02*
Y42580D01*
Y41480D02*
X68003D01*
Y39510D02*
Y40610D01*
X64153D02*
X68003D01*
X64153Y39510D02*
Y40610D01*
Y39510D02*
X68003D01*
Y37540D02*
Y38640D01*
X64153D02*
X68003D01*
X64153Y37540D02*
Y38640D01*
Y37540D02*
X68003D01*
Y35570D02*
Y36670D01*
X64153D02*
X68003D01*
X64153Y35570D02*
Y36670D01*
Y35570D02*
X68003D01*
Y33600D02*
Y34700D01*
X64153D02*
X68003D01*
X64153Y33600D02*
Y34700D01*
Y33600D02*
X68003D01*
Y31630D02*
Y32730D01*
X64153D02*
X68003D01*
X64153Y31630D02*
Y32730D01*
Y31630D02*
X68003D01*
X80203D02*
Y32730D01*
Y31630D02*
X84053D01*
Y32730D01*
X80203D02*
X84053D01*
X80203Y33600D02*
Y34700D01*
Y33600D02*
X84053D01*
Y34700D01*
X80203D02*
X84053D01*
X80203Y35570D02*
Y36670D01*
Y35570D02*
X84053D01*
Y36670D01*
X80203D02*
X84053D01*
X80203Y37540D02*
Y38640D01*
Y37540D02*
X84053D01*
Y38640D01*
X80203D02*
X84053D01*
X80203Y39510D02*
Y40610D01*
Y39510D02*
X84053D01*
Y40610D01*
X80203D02*
X84053D01*
X80203Y41480D02*
Y42580D01*
Y41480D02*
X84053D01*
Y42580D01*
X80203D02*
X84053D01*
X80203Y43450D02*
Y44550D01*
Y43450D02*
X84053D01*
Y44550D01*
X80203D02*
X84053D01*
X80203Y45420D02*
Y46520D01*
Y45420D02*
X84053D01*
Y46520D01*
X80203D02*
X84053D01*
X68003Y30925D02*
X80203D01*
Y47225D01*
X68003D02*
X80203D01*
X68003Y30925D02*
Y47225D01*
D133*
X25630Y175187D02*
D03*
X148425Y175015D02*
D03*
X37441Y114027D02*
D03*
X212204Y175015D02*
D03*
D134*
X5187Y242953D02*
D03*
M02*
