M48
;Layer_Color=9474304
;FILE_FORMAT=2:5
INCH,LZ
;TYPE=PLATED
T1F00S00C0.01772
T2F00S00C0.03000
T3F00S00C0.04016
T4F00S00C0.13386
;TYPE=NON_PLATED
T5F00S00C0.12205
%
T01
X0108268Y007441
Y0084252
T02
X0031496Y0023622
X0127953Y0025591
X0102362Y0055118
T03
X005315Y0023622
Y0035433
X0064961
Y0023622
X0076772
X0088583
X0100394
Y0035433
X0088583
X0076772
X0076772Y0123622
X0064961
Y0135433
X0076772
X0088583
Y0123622
X0100394
Y0135433
T04
X0Y0
X0159055
Y0159055
X0
T05
X0061654Y0006299
X009189
X0091732Y0152756
X0073622
M30
