M48
;Layer_Color=9474304
;FILE_FORMAT=2:5
INCH,LZ
;TYPE=PLATED
T1F00S00C0.01772
T2F00S00C0.02500
T3F00S00C0.04016
T4F00S00C0.13386
;TYPE=NON_PLATED
T5F00S00C0.12205
%
T01
X0108268Y0074803
Y0084646
T02
X0062992Y0068583
X0076772
X0090551
Y0088583
X0076772
X0062992
T03
X0064961Y0023622
Y0035433
X0076772
Y0023622
X0088583
Y0035433
X0100394
Y0023622
Y0124016
X0088583
Y0135827
X0100394
X0076772
Y0124016
X0064961
Y0135827
T04
X0Y0
X0159055Y0000394
Y0159449
X0
T05
X0073622Y0006299
X0091732
Y015315
X0073622
M30
