G04*
G04 #@! TF.GenerationSoftware,Altium Limited,Altium Designer,20.0.9 (164)*
G04*
G04 Layer_Physical_Order=1*
G04 Layer_Color=255*
%FSLAX25Y25*%
%MOIN*%
G70*
G01*
G75*
%ADD13R,0.12402X0.07717*%
%ADD14R,0.07284X0.05906*%
%ADD23C,0.03000*%
%ADD24C,0.07087*%
%ADD25R,0.07087X0.07087*%
%ADD26C,0.11811*%
%ADD27C,0.03543*%
%ADD28R,0.03543X0.03543*%
%ADD29C,0.10630*%
G36*
X10360Y180754D02*
X172874D01*
X172933Y180766D01*
X174415Y180620D01*
X175896Y180170D01*
X177262Y179441D01*
X178413Y178496D01*
X178446Y178446D01*
X178514Y178401D01*
X179613Y177062D01*
X180468Y175463D01*
X180994Y173728D01*
X181164Y172004D01*
X181148Y171924D01*
Y12598D01*
Y9803D01*
X181159Y9744D01*
X181014Y8262D01*
X180564Y6781D01*
X179834Y5415D01*
X178889Y4264D01*
X178840Y4231D01*
X178196Y3587D01*
X178170Y3549D01*
X177139Y2702D01*
X175922Y2052D01*
X174601Y1651D01*
X173273Y1520D01*
X173228Y1529D01*
X9803D01*
X9744Y1518D01*
X8262Y1664D01*
X6781Y2113D01*
X5415Y2843D01*
X4264Y3788D01*
X4231Y3837D01*
X4163Y3883D01*
X3064Y5222D01*
X2209Y6821D01*
X1683Y8556D01*
X1513Y10279D01*
X1529Y10360D01*
Y172480D01*
X1518Y172539D01*
X1664Y174021D01*
X2113Y175503D01*
X2843Y176868D01*
X3788Y178019D01*
X3837Y178052D01*
X3883Y178121D01*
X5222Y179219D01*
X6821Y180074D01*
X8556Y180600D01*
X10279Y180770D01*
X10360Y180754D01*
D02*
G37*
%LPC*%
G36*
X109843Y179380D02*
X108489Y179246D01*
X107187Y178852D01*
X105988Y178210D01*
X104936Y177348D01*
X104073Y176296D01*
X103432Y175096D01*
X103037Y173795D01*
X102904Y172441D01*
X103037Y171087D01*
X103432Y169785D01*
X104073Y168586D01*
X104936Y167534D01*
X105988Y166671D01*
X107187Y166030D01*
X108489Y165635D01*
X109843Y165502D01*
X111196Y165635D01*
X112498Y166030D01*
X113698Y166671D01*
X114749Y167534D01*
X115612Y168586D01*
X116253Y169785D01*
X116648Y171087D01*
X116781Y172441D01*
X116648Y173795D01*
X116253Y175096D01*
X115612Y176296D01*
X114749Y177348D01*
X113698Y178210D01*
X112498Y178852D01*
X111196Y179246D01*
X109843Y179380D01*
D02*
G37*
G36*
X79606D02*
X78252Y179246D01*
X76950Y178852D01*
X75751Y178210D01*
X74699Y177348D01*
X73836Y176296D01*
X73195Y175096D01*
X72800Y173795D01*
X72667Y172441D01*
X72800Y171087D01*
X73195Y169785D01*
X73836Y168586D01*
X74699Y167534D01*
X75751Y166671D01*
X76950Y166030D01*
X78252Y165635D01*
X79606Y165502D01*
X80959Y165635D01*
X82261Y166030D01*
X83461Y166671D01*
X84512Y167534D01*
X85375Y168586D01*
X86016Y169785D01*
X86411Y171087D01*
X86545Y172441D01*
X86411Y173795D01*
X86016Y175096D01*
X85375Y176296D01*
X84512Y177348D01*
X83461Y178210D01*
X82261Y178852D01*
X80959Y179246D01*
X79606Y179380D01*
D02*
G37*
G36*
X170866Y177805D02*
X169512Y177672D01*
X168211Y177277D01*
X167011Y176636D01*
X165960Y175773D01*
X165097Y174721D01*
X164455Y173522D01*
X164060Y172220D01*
X163927Y170866D01*
X164060Y169512D01*
X164455Y168211D01*
X165097Y167011D01*
X165960Y165960D01*
X167011Y165097D01*
X168211Y164455D01*
X169512Y164060D01*
X170866Y163927D01*
X172220Y164060D01*
X173522Y164455D01*
X174721Y165097D01*
X175773Y165960D01*
X176636Y167011D01*
X177277Y168211D01*
X177672Y169512D01*
X177805Y170866D01*
X177672Y172220D01*
X177277Y173522D01*
X176636Y174721D01*
X175773Y175773D01*
X174721Y176636D01*
X173522Y177277D01*
X172220Y177672D01*
X170866Y177805D01*
D02*
G37*
G36*
X11811D02*
X10457Y177672D01*
X9156Y177277D01*
X7956Y176636D01*
X6904Y175773D01*
X6041Y174721D01*
X5400Y173522D01*
X5005Y172220D01*
X4872Y170866D01*
X5005Y169512D01*
X5400Y168211D01*
X6041Y167011D01*
X6904Y165960D01*
X7956Y165097D01*
X9156Y164455D01*
X10457Y164060D01*
X11811Y163927D01*
X13165Y164060D01*
X14466Y164455D01*
X15666Y165097D01*
X16718Y165960D01*
X17581Y167011D01*
X18222Y168211D01*
X18617Y169512D01*
X18750Y170866D01*
X18617Y172220D01*
X18222Y173522D01*
X17581Y174721D01*
X16718Y175773D01*
X15666Y176636D01*
X14466Y177277D01*
X13165Y177672D01*
X11811Y177805D01*
D02*
G37*
G36*
X95224Y159950D02*
Y155933D01*
X99241D01*
X99151Y156619D01*
X98693Y157724D01*
X97965Y158673D01*
X97016Y159402D01*
X95911Y159859D01*
X95224Y159950D01*
D02*
G37*
G36*
X94224D02*
X93538Y159859D01*
X92433Y159402D01*
X91484Y158673D01*
X90756Y157724D01*
X90298Y156619D01*
X90208Y155933D01*
X94224D01*
Y159950D01*
D02*
G37*
G36*
X99241Y154933D02*
X95224D01*
Y150916D01*
X95911Y151007D01*
X97016Y151464D01*
X97965Y152193D01*
X98693Y153142D01*
X99151Y154247D01*
X99241Y154933D01*
D02*
G37*
G36*
X94224D02*
X90208D01*
X90298Y154247D01*
X90756Y153142D01*
X91484Y152193D01*
X92433Y151464D01*
X93538Y151007D01*
X94224Y150916D01*
Y154933D01*
D02*
G37*
G36*
X106535Y160016D02*
X105349Y159859D01*
X104244Y159402D01*
X103295Y158673D01*
X102567Y157724D01*
X102109Y156619D01*
X101953Y155433D01*
X102109Y154247D01*
X102567Y153142D01*
X103295Y152193D01*
X104244Y151464D01*
X105349Y151007D01*
X106535Y150851D01*
X107721Y151007D01*
X108827Y151464D01*
X109776Y152193D01*
X110504Y153142D01*
X110962Y154247D01*
X111118Y155433D01*
X110962Y156619D01*
X110504Y157724D01*
X109776Y158673D01*
X108827Y159402D01*
X107721Y159859D01*
X106535Y160016D01*
D02*
G37*
G36*
X82913D02*
X81727Y159859D01*
X80622Y159402D01*
X79673Y158673D01*
X78945Y157724D01*
X78487Y156619D01*
X78331Y155433D01*
X78487Y154247D01*
X78945Y153142D01*
X79673Y152193D01*
X80622Y151464D01*
X81727Y151007D01*
X82913Y150851D01*
X84099Y151007D01*
X85205Y151464D01*
X86154Y152193D01*
X86882Y153142D01*
X87340Y154247D01*
X87496Y155433D01*
X87340Y156619D01*
X86882Y157724D01*
X86154Y158673D01*
X85205Y159402D01*
X84099Y159859D01*
X82913Y160016D01*
D02*
G37*
G36*
X71102D02*
X69916Y159859D01*
X68810Y159402D01*
X67861Y158673D01*
X67133Y157724D01*
X66675Y156619D01*
X66568Y155803D01*
X40801Y130035D01*
X35122D01*
Y122130D01*
X44405D01*
Y126431D01*
X69255Y151280D01*
X69916Y151007D01*
X71102Y150851D01*
X72288Y151007D01*
X73393Y151464D01*
X74342Y152193D01*
X75070Y153142D01*
X75528Y154247D01*
X75684Y155433D01*
X75528Y156619D01*
X75070Y157724D01*
X74342Y158673D01*
X73393Y159402D01*
X72288Y159859D01*
X71102Y160016D01*
D02*
G37*
G36*
X177272Y148399D02*
Y146169D01*
X179501D01*
X179472Y146393D01*
X179193Y147067D01*
X178748Y147646D01*
X178169Y148090D01*
X177495Y148370D01*
X177272Y148399D01*
D02*
G37*
G36*
X176272D02*
X176048Y148370D01*
X175374Y148090D01*
X174795Y147646D01*
X174351Y147067D01*
X174071Y146393D01*
X174042Y146169D01*
X176272D01*
Y148399D01*
D02*
G37*
G36*
Y145169D02*
X174042D01*
X174071Y144946D01*
X174351Y144272D01*
X174795Y143693D01*
X175374Y143248D01*
X176048Y142969D01*
X176272Y142940D01*
Y145169D01*
D02*
G37*
G36*
X179501D02*
X177272D01*
Y142940D01*
X177495Y142969D01*
X178169Y143248D01*
X178748Y143693D01*
X179193Y144272D01*
X179472Y144946D01*
X179501Y145169D01*
D02*
G37*
G36*
X70709Y148205D02*
X69523Y148049D01*
X68417Y147591D01*
X67468Y146863D01*
X66740Y145914D01*
X66282Y144809D01*
X66126Y143623D01*
X66240Y142759D01*
X62454Y138972D01*
X61901Y138146D01*
X61707Y137170D01*
Y129248D01*
X59614D01*
Y121343D01*
X68898D01*
Y129248D01*
X66805D01*
Y136114D01*
X69845Y139154D01*
X70709Y139040D01*
X71895Y139197D01*
X73000Y139654D01*
X73949Y140383D01*
X74677Y141332D01*
X75135Y142437D01*
X75291Y143623D01*
X75135Y144809D01*
X74677Y145914D01*
X73949Y146863D01*
X73000Y147591D01*
X71895Y148049D01*
X70709Y148205D01*
D02*
G37*
G36*
X118347Y160016D02*
X117160Y159859D01*
X116055Y159402D01*
X115106Y158673D01*
X114378Y157724D01*
X113920Y156619D01*
X113764Y155433D01*
X113920Y154247D01*
X114378Y153142D01*
X115106Y152193D01*
X116055Y151464D01*
X117160Y151007D01*
X118347Y150851D01*
X119533Y151007D01*
X120638Y151464D01*
X121564Y152175D01*
X156818D01*
X174000Y134994D01*
Y133055D01*
X179543D01*
Y138598D01*
X177605D01*
X159676Y156527D01*
X158850Y157079D01*
X157874Y157273D01*
X122502D01*
X122315Y157724D01*
X121587Y158673D01*
X120638Y159402D01*
X119533Y159859D01*
X118347Y160016D01*
D02*
G37*
G36*
X82914Y148205D02*
X81728Y148049D01*
X80623Y147591D01*
X79674Y146863D01*
X78945Y145914D01*
X78488Y144809D01*
X78332Y143623D01*
X78488Y142437D01*
X78945Y141332D01*
X79674Y140383D01*
X80623Y139654D01*
X81728Y139197D01*
X82914Y139040D01*
X83778Y139154D01*
X86589Y136343D01*
Y129248D01*
X84496D01*
Y121343D01*
X93779D01*
Y129248D01*
X91687D01*
Y137399D01*
X91493Y138375D01*
X90940Y139202D01*
X87383Y142759D01*
X87497Y143623D01*
X87340Y144809D01*
X86883Y145914D01*
X86154Y146863D01*
X85205Y147591D01*
X84100Y148049D01*
X82914Y148205D01*
D02*
G37*
G36*
X122890Y148166D02*
X113804D01*
Y139080D01*
X122890D01*
Y141074D01*
X143711D01*
X159142Y125643D01*
Y121343D01*
X168425D01*
Y129248D01*
X162747D01*
X146569Y145425D01*
X145742Y145978D01*
X144767Y146172D01*
X122890D01*
Y148166D01*
D02*
G37*
G36*
X94725Y148205D02*
X93539Y148049D01*
X92434Y147591D01*
X91485Y146863D01*
X90756Y145914D01*
X90299Y144809D01*
X90143Y143623D01*
X90299Y142437D01*
X90756Y141332D01*
X91485Y140383D01*
X92434Y139654D01*
X93539Y139197D01*
X94725Y139040D01*
X94927Y139067D01*
X108744Y125250D01*
Y120949D01*
X118028D01*
Y128854D01*
X112349D01*
X99039Y142165D01*
X99151Y142437D01*
X99308Y143623D01*
X99151Y144809D01*
X98694Y145914D01*
X97965Y146863D01*
X97016Y147591D01*
X95911Y148049D01*
X94725Y148205D01*
D02*
G37*
G36*
X106536D02*
X105350Y148049D01*
X104245Y147591D01*
X103296Y146863D01*
X102568Y145914D01*
X102110Y144809D01*
X101954Y143623D01*
X102110Y142437D01*
X102568Y141332D01*
X103296Y140383D01*
X104245Y139654D01*
X105145Y139281D01*
X112765Y131662D01*
X113592Y131110D01*
X114567Y130916D01*
X128570D01*
X133547Y125938D01*
Y120949D01*
X142831D01*
Y128854D01*
X137841D01*
X131428Y135267D01*
X130601Y135819D01*
X129626Y136014D01*
X115623D01*
X110418Y141218D01*
X110505Y141332D01*
X110962Y142437D01*
X111119Y143623D01*
X110962Y144809D01*
X110505Y145914D01*
X109776Y146863D01*
X108827Y147591D01*
X107722Y148049D01*
X106536Y148205D01*
D02*
G37*
G36*
X142831Y118421D02*
X133547D01*
Y110516D01*
X135640D01*
Y104661D01*
X131382D01*
Y94945D01*
X145783D01*
Y100725D01*
X146091Y101186D01*
X146285Y102161D01*
X146091Y103137D01*
X145783Y103597D01*
Y104661D01*
X143983D01*
X143736Y104710D01*
X140941D01*
X140738Y104877D01*
Y110516D01*
X142831D01*
Y118421D01*
D02*
G37*
G36*
X118028Y118421D02*
X108744D01*
Y110516D01*
X110837D01*
Y104661D01*
X106185D01*
Y94945D01*
X120587D01*
Y104661D01*
X115935D01*
Y110516D01*
X118028D01*
Y118421D01*
D02*
G37*
G36*
X93779Y118815D02*
X84496D01*
Y110909D01*
X86589D01*
Y104661D01*
X81933D01*
Y94945D01*
X96335D01*
Y104661D01*
X91687D01*
Y110909D01*
X93779D01*
Y118815D01*
D02*
G37*
G36*
X68898Y118815D02*
X59614D01*
Y110909D01*
X61707D01*
Y104661D01*
X57051D01*
Y94945D01*
X71453D01*
Y104661D01*
X66805D01*
Y110909D01*
X68898D01*
Y118815D01*
D02*
G37*
G36*
X44405Y119602D02*
X35122D01*
Y111697D01*
X37215D01*
Y104661D01*
X32169D01*
Y94945D01*
X46571D01*
Y104661D01*
X42313D01*
Y111697D01*
X44405D01*
Y119602D01*
D02*
G37*
G36*
X168425Y118815D02*
X159142D01*
Y110909D01*
X161234D01*
Y104661D01*
X156579D01*
Y94945D01*
X170980D01*
Y104661D01*
X166332D01*
Y110909D01*
X168425D01*
Y118815D01*
D02*
G37*
G36*
X170980Y85370D02*
X156579D01*
Y75653D01*
X156579Y75653D01*
X156579D01*
X156315Y75274D01*
X124486Y43445D01*
X123622Y43559D01*
X122436Y43403D01*
X121331Y42945D01*
X120382Y42217D01*
X119653Y41268D01*
X119196Y40162D01*
X119040Y38976D01*
X119196Y37790D01*
X119653Y36685D01*
X120382Y35736D01*
X121331Y35008D01*
X122436Y34550D01*
X123622Y34394D01*
X124808Y34550D01*
X125913Y35008D01*
X126862Y35736D01*
X127591Y36685D01*
X128048Y37790D01*
X128205Y38976D01*
X128091Y39840D01*
X161059Y72809D01*
X161612Y73636D01*
X161806Y74611D01*
Y75653D01*
X170980D01*
Y85370D01*
D02*
G37*
G36*
X71453Y85370D02*
X57051D01*
Y75653D01*
X61703D01*
Y51102D01*
X61897Y50127D01*
X62450Y49300D01*
X67768Y43982D01*
X67577Y43520D01*
X63235D01*
X41919Y64835D01*
Y75653D01*
X46571D01*
Y85370D01*
X32169D01*
Y75653D01*
X36821D01*
Y63779D01*
X37015Y62804D01*
X37568Y61977D01*
X60024Y39521D01*
Y34433D01*
X69110D01*
Y41986D01*
X69572Y42177D01*
X71909Y39840D01*
X71795Y38976D01*
X71952Y37790D01*
X72409Y36685D01*
X73138Y35736D01*
X74087Y35008D01*
X75192Y34550D01*
X76378Y34394D01*
X77564Y34550D01*
X78669Y35008D01*
X79618Y35736D01*
X80347Y36685D01*
X80804Y37790D01*
X80961Y38976D01*
X80804Y40162D01*
X80347Y41268D01*
X79618Y42217D01*
X78669Y42945D01*
X77564Y43403D01*
X76378Y43559D01*
X75514Y43445D01*
X66801Y52158D01*
Y75653D01*
X71453D01*
Y85370D01*
D02*
G37*
G36*
X145783D02*
X131382D01*
Y78400D01*
X131333Y78154D01*
Y62103D01*
X112675Y43445D01*
X111811Y43559D01*
X110625Y43403D01*
X109520Y42945D01*
X108571Y42217D01*
X107843Y41268D01*
X107385Y40162D01*
X107229Y38976D01*
X107385Y37790D01*
X107843Y36685D01*
X108571Y35736D01*
X109520Y35008D01*
X110625Y34550D01*
X111811Y34394D01*
X112997Y34550D01*
X114102Y35008D01*
X115051Y35736D01*
X115780Y36685D01*
X116237Y37790D01*
X116393Y38976D01*
X116280Y39840D01*
X135684Y59245D01*
X136237Y60072D01*
X136431Y61047D01*
Y75653D01*
X145783D01*
Y85370D01*
D02*
G37*
G36*
X120587D02*
X106185D01*
Y78400D01*
X106136Y78154D01*
Y77898D01*
X106185Y77651D01*
Y75653D01*
X107544D01*
X107710Y75543D01*
X108685Y75349D01*
X109660Y75543D01*
X109826Y75653D01*
X110837D01*
Y53418D01*
X100864Y43445D01*
X100000Y43559D01*
X98814Y43403D01*
X97709Y42945D01*
X96760Y42217D01*
X96031Y41268D01*
X95574Y40162D01*
X95417Y38976D01*
X95574Y37790D01*
X96031Y36685D01*
X96760Y35736D01*
X97709Y35008D01*
X98814Y34550D01*
X100000Y34394D01*
X101186Y34550D01*
X102291Y35008D01*
X103240Y35736D01*
X103969Y36685D01*
X104426Y37790D01*
X104583Y38976D01*
X104469Y39840D01*
X115188Y50560D01*
X115741Y51387D01*
X115935Y52362D01*
Y75653D01*
X120587D01*
Y85370D01*
D02*
G37*
G36*
X96335D02*
X81933D01*
Y75653D01*
X85640D01*
Y42747D01*
X84949Y42217D01*
X84220Y41268D01*
X83763Y40162D01*
X83606Y38976D01*
X83763Y37790D01*
X84220Y36685D01*
X84949Y35736D01*
X85898Y35008D01*
X87003Y34550D01*
X88189Y34394D01*
X89375Y34550D01*
X90480Y35008D01*
X91429Y35736D01*
X92158Y36685D01*
X92615Y37790D01*
X92772Y38976D01*
X92615Y40162D01*
X92158Y41268D01*
X91429Y42217D01*
X90738Y42747D01*
Y75653D01*
X96335D01*
Y85370D01*
D02*
G37*
G36*
X89083Y31682D02*
Y27665D01*
X93099D01*
X93009Y28351D01*
X92551Y29457D01*
X91823Y30406D01*
X90874Y31134D01*
X89769Y31592D01*
X89083Y31682D01*
D02*
G37*
G36*
X112311D02*
Y27665D01*
X116328D01*
X116237Y28351D01*
X115780Y29457D01*
X115051Y30406D01*
X114102Y31134D01*
X112997Y31592D01*
X112311Y31682D01*
D02*
G37*
G36*
X88083D02*
X87397Y31592D01*
X86291Y31134D01*
X85342Y30406D01*
X84614Y29457D01*
X84156Y28351D01*
X84066Y27665D01*
X88083D01*
Y31682D01*
D02*
G37*
G36*
X111311D02*
X110625Y31592D01*
X109520Y31134D01*
X108571Y30406D01*
X107843Y29457D01*
X107385Y28351D01*
X107294Y27665D01*
X111311D01*
Y31682D01*
D02*
G37*
G36*
X116328Y26665D02*
X112311D01*
Y22649D01*
X112997Y22739D01*
X114102Y23197D01*
X115051Y23925D01*
X115780Y24874D01*
X116237Y25979D01*
X116328Y26665D01*
D02*
G37*
G36*
X93099D02*
X89083D01*
Y22649D01*
X89769Y22739D01*
X90874Y23197D01*
X91823Y23925D01*
X92551Y24874D01*
X93009Y25979D01*
X93099Y26665D01*
D02*
G37*
G36*
X111311D02*
X107294D01*
X107385Y25979D01*
X107843Y24874D01*
X108571Y23925D01*
X109520Y23197D01*
X110625Y22739D01*
X111311Y22649D01*
Y26665D01*
D02*
G37*
G36*
X88083D02*
X84066D01*
X84156Y25979D01*
X84614Y24874D01*
X85342Y23925D01*
X86291Y23197D01*
X87397Y22739D01*
X88083Y22649D01*
Y26665D01*
D02*
G37*
G36*
X123622Y31748D02*
X122436Y31592D01*
X121331Y31134D01*
X120382Y30406D01*
X119653Y29457D01*
X119196Y28351D01*
X119040Y27165D01*
X119196Y25979D01*
X119653Y24874D01*
X120382Y23925D01*
X121331Y23197D01*
X122436Y22739D01*
X123622Y22583D01*
X124808Y22739D01*
X125913Y23197D01*
X126862Y23925D01*
X127591Y24874D01*
X128048Y25979D01*
X128205Y27165D01*
X128048Y28351D01*
X127591Y29457D01*
X126862Y30406D01*
X125913Y31134D01*
X124808Y31592D01*
X123622Y31748D01*
D02*
G37*
G36*
X100000D02*
X98814Y31592D01*
X97709Y31134D01*
X96760Y30406D01*
X96031Y29457D01*
X95574Y28351D01*
X95417Y27165D01*
X95574Y25979D01*
X96031Y24874D01*
X96760Y23925D01*
X97709Y23197D01*
X98814Y22739D01*
X100000Y22583D01*
X101186Y22739D01*
X102291Y23197D01*
X103240Y23925D01*
X103969Y24874D01*
X104426Y25979D01*
X104583Y27165D01*
X104426Y28351D01*
X103969Y29457D01*
X103240Y30406D01*
X102291Y31134D01*
X101186Y31592D01*
X100000Y31748D01*
D02*
G37*
G36*
X76772D02*
X75586Y31592D01*
X74480Y31134D01*
X73531Y30406D01*
X72803Y29457D01*
X72345Y28351D01*
X72189Y27165D01*
X72345Y25979D01*
X72803Y24874D01*
X73531Y23925D01*
X74480Y23197D01*
X75586Y22739D01*
X76772Y22583D01*
X77958Y22739D01*
X79063Y23197D01*
X80012Y23925D01*
X80740Y24874D01*
X81198Y25979D01*
X81354Y27165D01*
X81198Y28351D01*
X80740Y29457D01*
X80012Y30406D01*
X79063Y31134D01*
X77958Y31592D01*
X76772Y31748D01*
D02*
G37*
G36*
X64961D02*
X63775Y31592D01*
X62669Y31134D01*
X61720Y30406D01*
X60992Y29457D01*
X60534Y28351D01*
X60378Y27165D01*
X60534Y25979D01*
X60992Y24874D01*
X61720Y23925D01*
X62669Y23197D01*
X63775Y22739D01*
X64961Y22583D01*
X66147Y22739D01*
X67252Y23197D01*
X68201Y23925D01*
X68929Y24874D01*
X69387Y25979D01*
X69543Y27165D01*
X69387Y28351D01*
X68929Y29457D01*
X68201Y30406D01*
X67252Y31134D01*
X66147Y31592D01*
X64961Y31748D01*
D02*
G37*
G36*
X170866Y18750D02*
X169512Y18617D01*
X168211Y18222D01*
X167011Y17581D01*
X165960Y16718D01*
X165097Y15666D01*
X164455Y14466D01*
X164060Y13165D01*
X163927Y11811D01*
X164060Y10457D01*
X164455Y9156D01*
X165097Y7956D01*
X165960Y6904D01*
X167011Y6041D01*
X168211Y5400D01*
X169512Y5005D01*
X170866Y4872D01*
X172220Y5005D01*
X173522Y5400D01*
X174721Y6041D01*
X175773Y6904D01*
X176636Y7956D01*
X177277Y9156D01*
X177672Y10457D01*
X177805Y11811D01*
X177672Y13165D01*
X177277Y14466D01*
X176636Y15666D01*
X175773Y16718D01*
X174721Y17581D01*
X173522Y18222D01*
X172220Y18617D01*
X170866Y18750D01*
D02*
G37*
G36*
X11811D02*
X10457Y18617D01*
X9156Y18222D01*
X7956Y17581D01*
X6904Y16718D01*
X6041Y15666D01*
X5400Y14466D01*
X5005Y13165D01*
X4872Y11811D01*
X5005Y10457D01*
X5400Y9156D01*
X6041Y7956D01*
X6904Y6904D01*
X7956Y6041D01*
X9156Y5400D01*
X10457Y5005D01*
X11811Y4872D01*
X13165Y5005D01*
X14466Y5400D01*
X15666Y6041D01*
X16718Y6904D01*
X17581Y7956D01*
X18222Y9156D01*
X18617Y10457D01*
X18750Y11811D01*
X18617Y13165D01*
X18222Y14466D01*
X17581Y15666D01*
X16718Y16718D01*
X15666Y17581D01*
X14466Y18222D01*
X13165Y18617D01*
X11811Y18750D01*
D02*
G37*
G36*
X115118Y16822D02*
X113764Y16688D01*
X112463Y16294D01*
X111263Y15652D01*
X110212Y14789D01*
X109349Y13738D01*
X108707Y12538D01*
X108312Y11236D01*
X108179Y9883D01*
X108312Y8529D01*
X108707Y7227D01*
X109349Y6028D01*
X110212Y4976D01*
X111263Y4113D01*
X112463Y3472D01*
X113764Y3077D01*
X115118Y2944D01*
X116472Y3077D01*
X117773Y3472D01*
X118973Y4113D01*
X120025Y4976D01*
X120888Y6028D01*
X121529Y7227D01*
X121924Y8529D01*
X122057Y9883D01*
X121924Y11236D01*
X121529Y12538D01*
X120888Y13738D01*
X120025Y14789D01*
X118973Y15652D01*
X117773Y16294D01*
X116472Y16688D01*
X115118Y16822D01*
D02*
G37*
G36*
X73465D02*
X72111Y16688D01*
X70809Y16294D01*
X69609Y15652D01*
X68558Y14789D01*
X67695Y13738D01*
X67054Y12538D01*
X66659Y11236D01*
X66526Y9883D01*
X66659Y8529D01*
X67054Y7227D01*
X67695Y6028D01*
X68558Y4976D01*
X69609Y4113D01*
X70809Y3472D01*
X72111Y3077D01*
X73465Y2944D01*
X74818Y3077D01*
X76120Y3472D01*
X77320Y4113D01*
X78371Y4976D01*
X79234Y6028D01*
X79875Y7227D01*
X80270Y8529D01*
X80404Y9883D01*
X80270Y11236D01*
X79875Y12538D01*
X79234Y13738D01*
X78371Y14789D01*
X77320Y15652D01*
X76120Y16294D01*
X74818Y16688D01*
X73465Y16822D01*
D02*
G37*
%LPD*%
D13*
X39370Y99803D02*
D03*
Y80512D02*
D03*
X64252D02*
D03*
Y99803D02*
D03*
X89134D02*
D03*
Y80512D02*
D03*
X138583D02*
D03*
Y99803D02*
D03*
X113386D02*
D03*
Y80512D02*
D03*
X163779Y80512D02*
D03*
Y99803D02*
D03*
D14*
X39764Y126083D02*
D03*
Y115650D02*
D03*
X163784Y114862D02*
D03*
Y125295D02*
D03*
X113386Y124902D02*
D03*
Y114469D02*
D03*
X138189Y114469D02*
D03*
Y124902D02*
D03*
X89138Y125295D02*
D03*
Y114862D02*
D03*
X64256Y114862D02*
D03*
Y125295D02*
D03*
D23*
X157874Y154724D02*
X176772Y135827D01*
X119564Y154724D02*
X157874D01*
X144767Y143623D02*
X163094Y125295D01*
X118347Y143623D02*
X144767D01*
X114567Y133465D02*
X129626D01*
X105749Y142283D02*
X114567Y133465D01*
X106536Y142517D02*
Y143623D01*
X129626Y133465D02*
X138189Y124902D01*
X39370Y63779D02*
Y80512D01*
X62524Y41020D02*
X64567Y38976D01*
X163094Y125295D02*
X163784D01*
X94725Y142873D02*
Y143623D01*
Y142873D02*
X112697Y124902D01*
X113386D01*
X89138Y125295D02*
Y137399D01*
X82914Y143623D02*
X89138Y137399D01*
X64256Y125295D02*
Y137170D01*
X70709Y143623D01*
X39764Y126083D02*
X40453D01*
X69021Y154651D01*
X70320D01*
X71102Y155433D01*
X159450Y78347D02*
X163937D01*
X123622Y38976D02*
X159257Y74611D01*
Y78154D02*
X159450Y78347D01*
X159257Y74611D02*
Y78154D01*
X111811Y38976D02*
X133882Y61047D01*
Y78154D01*
X100000Y38976D02*
X113386Y52362D01*
Y80512D01*
X88189Y38976D02*
Y79567D01*
X89134Y80512D01*
X64252Y51102D02*
Y80512D01*
Y51102D02*
X76378Y38976D01*
X62130Y41020D02*
X62524D01*
X39370Y63779D02*
X62130Y41020D01*
X163779Y99803D02*
X163784Y99807D01*
Y114862D01*
X138189Y100197D02*
X138583Y99803D01*
X138189Y100197D02*
Y114469D01*
X113386Y99803D02*
Y114469D01*
X89134Y99803D02*
X89138Y99807D01*
Y114862D01*
X64252Y99803D02*
X64256Y99807D01*
Y114862D01*
X39370Y99803D02*
X39764Y100197D01*
Y115650D01*
X111043Y80512D02*
X113386D01*
X133882Y78154D02*
X136240Y80512D01*
X138583D01*
Y99803D02*
X140941Y102161D01*
X163779Y99803D02*
X166122D01*
X108685Y78154D02*
X111043Y80512D01*
X108685Y77898D02*
Y78154D01*
X140941Y102161D02*
X143736D01*
X89134Y80512D02*
X91476D01*
D24*
X123622Y27165D02*
D03*
X111811D02*
D03*
X76378Y38976D02*
D03*
X88189D02*
D03*
X100000D02*
D03*
X123622D02*
D03*
X64961Y27165D02*
D03*
X76772D02*
D03*
X88583D02*
D03*
X111811Y38976D02*
D03*
X100000Y27165D02*
D03*
X94724Y155433D02*
D03*
X71102D02*
D03*
X70709Y143623D02*
D03*
X82913Y155433D02*
D03*
X106535D02*
D03*
X118347D02*
D03*
X82914Y143623D02*
D03*
X94725D02*
D03*
X106536D02*
D03*
D25*
X64567Y38976D02*
D03*
X118347Y143623D02*
D03*
D26*
X115118Y9883D02*
D03*
X73465D02*
D03*
X109843Y172441D02*
D03*
X79606D02*
D03*
D27*
X176772Y145669D02*
D03*
D28*
Y135827D02*
D03*
D29*
X11811Y170866D02*
D03*
Y11811D02*
D03*
X170866D02*
D03*
Y170866D02*
D03*
M02*
