G04*
G04 #@! TF.GenerationSoftware,Altium Limited,Altium Designer,19.1.5 (86)*
G04*
G04 Layer_Color=8388736*
%FSLAX25Y25*%
%MOIN*%
G70*
G01*
G75*
%ADD16R,0.00787X0.03150*%
%ADD50R,0.02769X0.01981*%
%ADD51R,0.04737X0.07493*%
%ADD52R,0.04147X0.04147*%
%ADD53R,0.14776X0.10485*%
%ADD54O,0.02572X0.06312*%
%ADD55R,0.07887X0.03950*%
%ADD56R,0.07099X0.01981*%
%ADD57O,0.07099X0.01981*%
%ADD58R,0.04537X0.04143*%
%ADD59R,0.04143X0.04537*%
%ADD60R,0.04147X0.04147*%
G04:AMPARAMS|DCode=61|XSize=86.74mil|YSize=173.35mil|CornerRadius=23.68mil|HoleSize=0mil|Usage=FLASHONLY|Rotation=180.000|XOffset=0mil|YOffset=0mil|HoleType=Round|Shape=RoundedRectangle|*
%AMROUNDEDRECTD61*
21,1,0.08674,0.12598,0,0,180.0*
21,1,0.03937,0.17335,0,0,180.0*
1,1,0.04737,-0.01968,0.06299*
1,1,0.04737,0.01968,0.06299*
1,1,0.04737,0.01968,-0.06299*
1,1,0.04737,-0.01968,-0.06299*
%
%ADD61ROUNDEDRECTD61*%
G04:AMPARAMS|DCode=62|XSize=55.24mil|YSize=94.61mil|CornerRadius=15.81mil|HoleSize=0mil|Usage=FLASHONLY|Rotation=180.000|XOffset=0mil|YOffset=0mil|HoleType=Round|Shape=RoundedRectangle|*
%AMROUNDEDRECTD62*
21,1,0.05524,0.06299,0,0,180.0*
21,1,0.02362,0.09461,0,0,180.0*
1,1,0.03162,-0.01181,0.03150*
1,1,0.03162,0.01181,0.03150*
1,1,0.03162,0.01181,-0.03150*
1,1,0.03162,-0.01181,-0.03150*
%
%ADD62ROUNDEDRECTD62*%
%ADD63R,0.05524X0.09461*%
%ADD64R,0.03950X0.03950*%
%ADD65R,0.03950X0.03950*%
%ADD66R,0.03910X0.01981*%
%ADD67R,0.01784X0.02375*%
%ADD68R,0.05524X0.04737*%
%ADD69R,0.03753X0.01784*%
%ADD70R,0.01784X0.03753*%
%ADD71R,0.07296X0.07296*%
G04:AMPARAMS|DCode=72|XSize=86.74mil|YSize=173.35mil|CornerRadius=23.68mil|HoleSize=0mil|Usage=FLASHONLY|Rotation=90.000|XOffset=0mil|YOffset=0mil|HoleType=Round|Shape=RoundedRectangle|*
%AMROUNDEDRECTD72*
21,1,0.08674,0.12598,0,0,90.0*
21,1,0.03937,0.17335,0,0,90.0*
1,1,0.04737,0.06299,0.01968*
1,1,0.04737,0.06299,-0.01968*
1,1,0.04737,-0.06299,-0.01968*
1,1,0.04737,-0.06299,0.01968*
%
%ADD72ROUNDEDRECTD72*%
%ADD73R,0.09461X0.05524*%
G04:AMPARAMS|DCode=74|XSize=55.24mil|YSize=94.61mil|CornerRadius=15.81mil|HoleSize=0mil|Usage=FLASHONLY|Rotation=90.000|XOffset=0mil|YOffset=0mil|HoleType=Round|Shape=RoundedRectangle|*
%AMROUNDEDRECTD74*
21,1,0.05524,0.06299,0,0,90.0*
21,1,0.02362,0.09461,0,0,90.0*
1,1,0.03162,0.03150,0.01181*
1,1,0.03162,0.03150,-0.01181*
1,1,0.03162,-0.03150,-0.01181*
1,1,0.03162,-0.03150,0.01181*
%
%ADD74ROUNDEDRECTD74*%
%ADD75R,0.07887X0.06312*%
%ADD76O,0.07493X0.03792*%
%ADD77R,0.07493X0.03792*%
%ADD78R,0.06902X0.14383*%
%ADD79R,0.06312X0.07887*%
%ADD80R,0.04737X0.05524*%
%ADD81R,0.02375X0.01784*%
%ADD82R,0.01981X0.03910*%
%ADD83C,0.07887*%
%ADD84R,0.07887X0.07887*%
%ADD85C,0.03556*%
%ADD86C,0.10642*%
%ADD87R,0.07887X0.07887*%
%ADD88R,0.06800X0.06800*%
%ADD89C,0.06800*%
%ADD90C,0.07099*%
%ADD91R,0.07099X0.07099*%
%ADD92C,0.11430*%
%ADD93C,0.02769*%
D16*
X157677Y211024D02*
D03*
D50*
X151181Y206102D02*
D03*
Y208071D02*
D03*
Y210039D02*
D03*
Y212008D02*
D03*
X158267D02*
D03*
Y210039D02*
D03*
Y208071D02*
D03*
Y206102D02*
D03*
D51*
X154724Y209055D02*
D03*
D52*
X129128Y216240D02*
D03*
Y210138D02*
D03*
X5476Y52953D02*
D03*
Y59056D02*
D03*
X158150Y78248D02*
D03*
Y72146D02*
D03*
X163189Y52657D02*
D03*
Y46555D02*
D03*
X51575Y36516D02*
D03*
Y30413D02*
D03*
X266142Y148357D02*
D03*
Y154459D02*
D03*
X232579Y210790D02*
D03*
Y204688D02*
D03*
X186295Y118898D02*
D03*
Y125000D02*
D03*
X5476Y72067D02*
D03*
Y65965D02*
D03*
X134994Y216240D02*
D03*
Y210138D02*
D03*
X174213Y205020D02*
D03*
Y211122D02*
D03*
X162934D02*
D03*
Y205020D02*
D03*
X218386Y228088D02*
D03*
Y221986D02*
D03*
X100000Y198720D02*
D03*
Y204823D02*
D03*
X106004D02*
D03*
Y198720D02*
D03*
X97441Y187303D02*
D03*
Y181201D02*
D03*
X91535Y187401D02*
D03*
Y181299D02*
D03*
X85630Y187401D02*
D03*
Y181299D02*
D03*
X79724Y187401D02*
D03*
Y181299D02*
D03*
X73819Y187401D02*
D03*
Y181299D02*
D03*
X141732Y51181D02*
D03*
Y57283D02*
D03*
X110236Y54134D02*
D03*
Y48031D02*
D03*
X103346D02*
D03*
Y54134D02*
D03*
X96457Y48031D02*
D03*
Y54134D02*
D03*
X89567D02*
D03*
Y48031D02*
D03*
X162992Y64016D02*
D03*
Y57913D02*
D03*
X164567Y84055D02*
D03*
Y77953D02*
D03*
X193898Y125000D02*
D03*
Y118898D02*
D03*
X178692Y125000D02*
D03*
Y118898D02*
D03*
X188976Y204429D02*
D03*
Y210531D02*
D03*
X261811Y228305D02*
D03*
Y222202D02*
D03*
D53*
X86181Y209842D02*
D03*
D54*
X95138Y221457D02*
D03*
X92579D02*
D03*
X90020D02*
D03*
X87461D02*
D03*
X84901D02*
D03*
X82342D02*
D03*
X79783D02*
D03*
X77224D02*
D03*
X95138Y198228D02*
D03*
X92579D02*
D03*
X90020D02*
D03*
X87461D02*
D03*
X84901D02*
D03*
X82342D02*
D03*
X79783D02*
D03*
X77224D02*
D03*
D55*
X21654Y28346D02*
D03*
Y89764D02*
D03*
D56*
X28740Y82677D02*
D03*
D57*
Y80708D02*
D03*
Y78740D02*
D03*
Y76771D02*
D03*
Y74803D02*
D03*
Y72834D02*
D03*
Y70866D02*
D03*
Y68897D02*
D03*
Y66929D02*
D03*
Y64960D02*
D03*
Y62992D02*
D03*
Y61023D02*
D03*
Y59055D02*
D03*
Y57086D02*
D03*
Y55118D02*
D03*
Y53149D02*
D03*
Y51181D02*
D03*
Y49213D02*
D03*
Y47244D02*
D03*
Y45276D02*
D03*
Y43307D02*
D03*
Y41339D02*
D03*
Y39370D02*
D03*
Y37402D02*
D03*
Y35433D02*
D03*
X14567D02*
D03*
Y37402D02*
D03*
Y39370D02*
D03*
Y41339D02*
D03*
Y43307D02*
D03*
Y45276D02*
D03*
Y47244D02*
D03*
Y49213D02*
D03*
Y51181D02*
D03*
Y53149D02*
D03*
Y55118D02*
D03*
Y57086D02*
D03*
Y59055D02*
D03*
Y61023D02*
D03*
Y62992D02*
D03*
Y64960D02*
D03*
Y66929D02*
D03*
Y68897D02*
D03*
Y70866D02*
D03*
Y72834D02*
D03*
Y74803D02*
D03*
Y76771D02*
D03*
Y78740D02*
D03*
Y80708D02*
D03*
Y82677D02*
D03*
D58*
X156693Y52756D02*
D03*
Y47441D02*
D03*
X36710Y24902D02*
D03*
Y30217D02*
D03*
X42126Y40059D02*
D03*
Y34744D02*
D03*
X168476Y202817D02*
D03*
Y208132D02*
D03*
X254488Y222576D02*
D03*
Y227891D02*
D03*
X212655Y222379D02*
D03*
Y227694D02*
D03*
X103445Y181207D02*
D03*
Y186522D02*
D03*
X133858Y59449D02*
D03*
Y54134D02*
D03*
D59*
X151640Y77165D02*
D03*
X146326D02*
D03*
X183071Y101378D02*
D03*
X177756D02*
D03*
X183071Y41339D02*
D03*
X177756D02*
D03*
X127953Y27559D02*
D03*
X122638D02*
D03*
D60*
X46161Y23779D02*
D03*
X52264D02*
D03*
X244781Y204589D02*
D03*
X238679D02*
D03*
X37205Y107795D02*
D03*
X43307D02*
D03*
X28004Y125587D02*
D03*
X34107D02*
D03*
X275886Y211614D02*
D03*
X281988D02*
D03*
X106102Y192941D02*
D03*
X100000D02*
D03*
X66791Y203900D02*
D03*
X72894D02*
D03*
X88386Y22638D02*
D03*
X94488D02*
D03*
X128051Y86614D02*
D03*
X121949D02*
D03*
X128051Y80709D02*
D03*
X121949D02*
D03*
X121850Y51181D02*
D03*
X127953D02*
D03*
X194685Y204331D02*
D03*
X200787D02*
D03*
X37205Y113701D02*
D03*
X43307D02*
D03*
X112401Y107795D02*
D03*
X106299D02*
D03*
X106102Y113701D02*
D03*
X112205D02*
D03*
X94587Y125787D02*
D03*
X88484D02*
D03*
X94488Y84646D02*
D03*
X100591D02*
D03*
D61*
X214567Y127953D02*
D03*
X266535D02*
D03*
D62*
X228740Y105984D02*
D03*
X236614D02*
D03*
X244488D02*
D03*
D63*
X252362D02*
D03*
D64*
X271831Y148160D02*
D03*
Y154066D02*
D03*
X170315Y118983D02*
D03*
Y124889D02*
D03*
X206100Y227657D02*
D03*
Y221752D02*
D03*
X248031Y227891D02*
D03*
Y221986D02*
D03*
D65*
X28147Y120650D02*
D03*
X34053D02*
D03*
X94587Y120728D02*
D03*
X88681D02*
D03*
D66*
X236221Y222419D02*
D03*
X192717Y222087D02*
D03*
D67*
X232579Y227891D02*
D03*
Y225332D02*
D03*
Y222773D02*
D03*
X239862D02*
D03*
Y225332D02*
D03*
Y227891D02*
D03*
X196358Y227559D02*
D03*
Y225000D02*
D03*
Y222441D02*
D03*
X189075D02*
D03*
Y225000D02*
D03*
Y227559D02*
D03*
D68*
X236221Y226513D02*
D03*
X192717Y226181D02*
D03*
D69*
X119390Y43307D02*
D03*
Y41339D02*
D03*
Y39370D02*
D03*
Y37402D02*
D03*
X130610D02*
D03*
Y39370D02*
D03*
Y41339D02*
D03*
Y43307D02*
D03*
X119390Y71850D02*
D03*
Y69882D02*
D03*
Y67913D02*
D03*
Y65945D02*
D03*
X130610D02*
D03*
Y67913D02*
D03*
Y69882D02*
D03*
Y71850D02*
D03*
D70*
X122047Y34744D02*
D03*
X124016D02*
D03*
X125984D02*
D03*
X127953D02*
D03*
Y45965D02*
D03*
X125984D02*
D03*
X124016D02*
D03*
X122047D02*
D03*
Y63287D02*
D03*
X124016D02*
D03*
X125984D02*
D03*
X127953D02*
D03*
Y74508D02*
D03*
X125984D02*
D03*
X124016D02*
D03*
X122047D02*
D03*
D71*
X125000Y40354D02*
D03*
Y68898D02*
D03*
D72*
X259842Y77559D02*
D03*
Y41339D02*
D03*
D73*
X237874Y55512D02*
D03*
D74*
Y63386D02*
D03*
D75*
X79724Y141240D02*
D03*
Y152067D02*
D03*
X10211Y141240D02*
D03*
Y152067D02*
D03*
X182087Y227702D02*
D03*
Y216875D02*
D03*
D76*
X207677Y54016D02*
D03*
Y59016D02*
D03*
Y64016D02*
D03*
Y69016D02*
D03*
Y74016D02*
D03*
Y79016D02*
D03*
Y84016D02*
D03*
Y89016D02*
D03*
X173228Y54016D02*
D03*
Y59016D02*
D03*
Y64016D02*
D03*
Y69016D02*
D03*
Y74016D02*
D03*
Y79016D02*
D03*
Y84016D02*
D03*
D77*
Y89016D02*
D03*
D78*
X278969Y254764D02*
D03*
Y231536D02*
D03*
X161851Y254764D02*
D03*
Y231536D02*
D03*
D79*
X277067Y267796D02*
D03*
X287894D02*
D03*
D80*
X105817Y123336D02*
D03*
X42323Y123819D02*
D03*
D81*
X104439Y126978D02*
D03*
X106998D02*
D03*
X109557D02*
D03*
Y119694D02*
D03*
X106998D02*
D03*
X104439D02*
D03*
X40945Y127461D02*
D03*
X43504D02*
D03*
X46063D02*
D03*
Y120177D02*
D03*
X43504D02*
D03*
X40945D02*
D03*
D82*
X109912Y123336D02*
D03*
X46417Y123819D02*
D03*
D83*
X224410Y258662D02*
D03*
X236221Y254961D02*
D03*
X248031D02*
D03*
X259842Y258662D02*
D03*
X236221Y243150D02*
D03*
X181004Y258662D02*
D03*
X192815Y254961D02*
D03*
X204626D02*
D03*
X216437Y258662D02*
D03*
X192815Y243150D02*
D03*
X20819Y155866D02*
D03*
X32630Y152165D02*
D03*
X44441D02*
D03*
X56252Y155866D02*
D03*
X32630Y140354D02*
D03*
X88628Y155866D02*
D03*
X100439Y152165D02*
D03*
X112250D02*
D03*
X124061Y155866D02*
D03*
X100439Y140354D02*
D03*
X9843Y229606D02*
D03*
X6142Y218189D02*
D03*
Y241811D02*
D03*
D84*
X248031Y243150D02*
D03*
X204626D02*
D03*
X44441Y140354D02*
D03*
X112250D02*
D03*
D85*
X15748Y31299D02*
D03*
Y86811D02*
D03*
D86*
X40112Y234252D02*
D03*
Y264252D02*
D03*
X134994D02*
D03*
X114915Y234252D02*
D03*
D87*
X21654Y229606D02*
D03*
D88*
X104488Y30512D02*
D03*
Y76772D02*
D03*
D89*
X94488Y30512D02*
D03*
X84488D02*
D03*
X74488D02*
D03*
X64488D02*
D03*
X94488Y76772D02*
D03*
X84488D02*
D03*
X74488D02*
D03*
X64488D02*
D03*
D90*
X13273Y206656D02*
D03*
Y173191D02*
D03*
X10792Y196813D02*
D03*
D91*
Y183034D02*
D03*
D92*
X9843Y265748D02*
D03*
X305118D02*
D03*
Y9843D02*
D03*
X9843Y108268D02*
D03*
X127953D02*
D03*
Y9843D02*
D03*
X9843D02*
D03*
D93*
X90512Y212008D02*
D03*
Y207677D02*
D03*
X86181Y212008D02*
D03*
Y207677D02*
D03*
X81850Y212008D02*
D03*
Y207677D02*
D03*
M02*
