G04*
G04 #@! TF.GenerationSoftware,Altium Limited,Altium Designer,18.1.6 (161)*
G04*
G04 Layer_Physical_Order=2*
G04 Layer_Color=16711680*
%FSLAX25Y25*%
%MOIN*%
G70*
G01*
G75*
%ADD13C,0.01000*%
%ADD17R,0.03347X0.03347*%
%ADD95C,0.01500*%
%ADD99C,0.06000*%
%ADD100R,0.06000X0.06000*%
%ADD101C,0.06000*%
%ADD102C,0.06299*%
%ADD103R,0.06299X0.06299*%
%ADD104C,0.02756*%
%ADD105R,0.06299X0.06299*%
%ADD106C,0.10630*%
%ADD107C,0.05000*%
%ADD108C,0.02362*%
%ADD109C,0.01968*%
%ADD110R,0.03583X0.04803*%
G36*
X-6749Y208093D02*
X-6805Y208020D01*
X-6854Y207941D01*
X-6896Y207857D01*
X-6932Y207766D01*
X-6962Y207670D01*
X-6985Y207567D01*
X-7001Y207459D01*
X-7011Y207345D01*
X-7014Y207225D01*
X-8014D01*
X-8017Y207345D01*
X-8027Y207459D01*
X-8043Y207567D01*
X-8066Y207670D01*
X-8096Y207766D01*
X-8132Y207857D01*
X-8174Y207941D01*
X-8223Y208020D01*
X-8279Y208093D01*
X-8341Y208160D01*
X-6687D01*
X-6749Y208093D01*
D02*
G37*
G36*
X264627Y-8721D02*
X-8721Y-8721D01*
Y91737D01*
X-8556Y91848D01*
X-8221Y91930D01*
X-7027Y90736D01*
Y60913D01*
X-7055Y60851D01*
X-7057Y60750D01*
X-7064Y60676D01*
X-7074Y60611D01*
X-7086Y60555D01*
X-7101Y60507D01*
X-7116Y60468D01*
X-7133Y60435D01*
X-7150Y60408D01*
X-7168Y60384D01*
X-7209Y60340D01*
X-7233Y60274D01*
X-7583Y59750D01*
X-7722Y59055D01*
X-7583Y58360D01*
X-7190Y57771D01*
X-6600Y57377D01*
X-5906Y57239D01*
X-5211Y57377D01*
X-4622Y57771D01*
X-4228Y58360D01*
X-4090Y59055D01*
X-4228Y59750D01*
X-4578Y60274D01*
X-4602Y60340D01*
X-4643Y60384D01*
X-4661Y60408D01*
X-4678Y60435D01*
X-4695Y60468D01*
X-4710Y60507D01*
X-4725Y60555D01*
X-4737Y60611D01*
X-4747Y60676D01*
X-4754Y60750D01*
X-4756Y60851D01*
X-4784Y60913D01*
Y83326D01*
X-4284Y83478D01*
X-4140Y83262D01*
X-3090Y82212D01*
Y42704D01*
X-3590Y42553D01*
X-3637Y42623D01*
X-4226Y43016D01*
X-4921Y43155D01*
X-5616Y43016D01*
X-6205Y42623D01*
X-6599Y42033D01*
X-6737Y41339D01*
X-6599Y40644D01*
X-6249Y40119D01*
X-6224Y40054D01*
X-6184Y40010D01*
X-6166Y39986D01*
X-6148Y39959D01*
X-6132Y39926D01*
X-6116Y39886D01*
X-6102Y39839D01*
X-6089Y39783D01*
X-6080Y39718D01*
X-6073Y39643D01*
X-6070Y39542D01*
X-6043Y39480D01*
Y32480D01*
X-6043Y32480D01*
X-5957Y32051D01*
X-5714Y31687D01*
X-4730Y30703D01*
X-4730Y30703D01*
X-4366Y30460D01*
X-3937Y30375D01*
X-2986D01*
X-2986Y30375D01*
X-2557Y30460D01*
X-2217Y30687D01*
X-1240D01*
X-900Y30460D01*
X-471Y30375D01*
X-0D01*
X0Y30375D01*
X429Y30460D01*
X793Y30703D01*
X2762Y32671D01*
X2762Y32671D01*
X3005Y33035D01*
X3090Y33465D01*
X3090Y33465D01*
Y82213D01*
X3746Y82868D01*
X3746Y82868D01*
X3989Y83232D01*
X4074Y83661D01*
X4074Y83662D01*
Y84862D01*
X4281Y85042D01*
X4574Y85130D01*
X4689Y85040D01*
X4751Y84948D01*
X4754Y84919D01*
X4756Y84818D01*
X4784Y84756D01*
Y82677D01*
X4784Y82677D01*
X4869Y82248D01*
X5112Y81884D01*
X7737Y79260D01*
Y78620D01*
X7237Y78458D01*
X6677Y78832D01*
X5906Y78985D01*
X5134Y78832D01*
X4479Y78395D01*
X4042Y77740D01*
X3889Y76968D01*
X4042Y76197D01*
X4479Y75542D01*
X5134Y75105D01*
X5906Y74952D01*
X6677Y75105D01*
X7237Y75479D01*
X7737Y75317D01*
Y39370D01*
X7737Y39370D01*
X7822Y38941D01*
X8065Y38577D01*
X8720Y37922D01*
X8744Y37859D01*
X8813Y37786D01*
X8862Y37729D01*
X8901Y37675D01*
X8931Y37627D01*
X8955Y37583D01*
X8972Y37544D01*
X8983Y37510D01*
X8991Y37478D01*
X8995Y37449D01*
X8997Y37389D01*
X9026Y37325D01*
X9149Y36707D01*
X9543Y36118D01*
X10132Y35724D01*
X10827Y35586D01*
X11522Y35724D01*
X12111Y36118D01*
X12295Y36393D01*
X12795Y36242D01*
Y28161D01*
X12332Y27698D01*
X12269Y27673D01*
X12195Y27604D01*
X12138Y27556D01*
X12085Y27517D01*
X12037Y27486D01*
X11993Y27463D01*
X11954Y27446D01*
X11919Y27434D01*
X11887Y27427D01*
X11858Y27423D01*
X11798Y27421D01*
X11734Y27391D01*
X11116Y27268D01*
X10527Y26875D01*
X10133Y26285D01*
X9995Y25591D01*
X10133Y24896D01*
X10527Y24306D01*
X11116Y23913D01*
X11811Y23775D01*
X12506Y23913D01*
X13095Y24306D01*
X13489Y24896D01*
X13612Y25514D01*
X13641Y25578D01*
X13643Y25638D01*
X13647Y25667D01*
X13655Y25699D01*
X13666Y25733D01*
X13683Y25772D01*
X13706Y25816D01*
X13737Y25865D01*
X13776Y25918D01*
X13824Y25975D01*
X13894Y26048D01*
X13918Y26112D01*
X14710Y26903D01*
X14710Y26903D01*
X14953Y27267D01*
X15038Y27696D01*
X15038Y27696D01*
Y37538D01*
X14953Y37967D01*
X14710Y38331D01*
X14710Y38331D01*
X11580Y41461D01*
Y73927D01*
X12021Y74162D01*
X12100Y74110D01*
X12795Y73971D01*
X13490Y74110D01*
X14079Y74503D01*
X14473Y75092D01*
X14611Y75787D01*
X14473Y76482D01*
X14341Y76679D01*
X14343Y76682D01*
X14384Y76731D01*
X14454Y76805D01*
X14475Y76862D01*
X14525Y76896D01*
X14530Y76920D01*
X15228Y77619D01*
X23732D01*
X23794Y77591D01*
X23895Y77588D01*
X23970Y77582D01*
X24035Y77572D01*
X24091Y77560D01*
X24138Y77545D01*
X24178Y77529D01*
X24211Y77513D01*
X24238Y77496D01*
X24262Y77478D01*
X24306Y77437D01*
X24371Y77413D01*
X24896Y77062D01*
X25591Y76924D01*
X26285Y77062D01*
X26875Y77456D01*
X27268Y78045D01*
X27406Y78740D01*
X27268Y79435D01*
X26875Y80024D01*
X26285Y80418D01*
X25591Y80556D01*
X24896Y80418D01*
X24371Y80068D01*
X24306Y80043D01*
X24262Y80002D01*
X24238Y79984D01*
X24211Y79967D01*
X24178Y79951D01*
X24138Y79935D01*
X24091Y79921D01*
X24035Y79908D01*
X23970Y79899D01*
X23895Y79892D01*
X23794Y79889D01*
X23732Y79862D01*
X14764D01*
X14764Y79862D01*
X14335Y79776D01*
X13971Y79533D01*
X12721Y78283D01*
X12649Y78250D01*
X12153Y77715D01*
X12080Y77642D01*
X11773Y77710D01*
X11581Y77832D01*
X11580Y77833D01*
Y80387D01*
X11580Y80387D01*
X11494Y80816D01*
X11251Y81180D01*
X11251Y81180D01*
X10964Y81467D01*
Y81606D01*
X10992Y81668D01*
X10994Y81769D01*
X11001Y81844D01*
X11011Y81909D01*
X11023Y81965D01*
X11038Y82012D01*
X11053Y82052D01*
X11070Y82085D01*
X11087Y82112D01*
X11105Y82136D01*
X11146Y82180D01*
X11170Y82245D01*
X11520Y82770D01*
X11659Y83465D01*
X11520Y84159D01*
X11127Y84749D01*
X10537Y85142D01*
X9843Y85281D01*
X9148Y85142D01*
X8558Y84749D01*
X8165Y84159D01*
X8027Y83465D01*
X8165Y82770D01*
X8282Y82593D01*
X7894Y82275D01*
X7027Y83142D01*
Y84756D01*
X7055Y84818D01*
X7057Y84919D01*
X7064Y84993D01*
X7074Y85059D01*
X7086Y85115D01*
X7101Y85162D01*
X7116Y85202D01*
X7133Y85234D01*
X7150Y85262D01*
X7168Y85285D01*
X7209Y85329D01*
X7233Y85395D01*
X7583Y85919D01*
X7722Y86614D01*
X7583Y87309D01*
X7190Y87898D01*
X6600Y88292D01*
X5906Y88430D01*
X5211Y88292D01*
X4621Y87898D01*
X4574Y87828D01*
X4350Y87832D01*
X4053Y87947D01*
X3989Y88266D01*
X3798Y88551D01*
X3759Y88656D01*
X3691Y88729D01*
X3652Y88777D01*
X3627Y88813D01*
X3619Y88827D01*
X3619Y88832D01*
X3646Y88872D01*
X3785Y89567D01*
X3646Y90262D01*
X3253Y90851D01*
X2663Y91245D01*
X1969Y91383D01*
X1274Y91245D01*
X684Y90851D01*
X291Y90262D01*
X152Y89567D01*
X291Y88872D01*
X684Y88283D01*
X1106Y88001D01*
X1178Y87916D01*
X1201Y87904D01*
X1216Y87896D01*
X1225Y87889D01*
X1621Y87542D01*
X1699Y87465D01*
X1765Y87438D01*
X1788Y87415D01*
X1822Y87370D01*
X1831Y87369D01*
Y86011D01*
X1331Y85859D01*
X1284Y85930D01*
X695Y86323D01*
X0Y86462D01*
X-695Y86323D01*
X-1284Y85930D01*
X-1678Y85341D01*
X-1725Y85104D01*
X-2225Y85153D01*
Y88594D01*
X-2197Y88656D01*
X-2194Y88757D01*
X-2188Y88832D01*
X-2178Y88897D01*
X-2166Y88953D01*
X-2151Y89000D01*
X-2136Y89040D01*
X-2119Y89073D01*
X-2102Y89100D01*
X-2084Y89124D01*
X-2043Y89168D01*
X-2019Y89234D01*
X-1669Y89758D01*
X-1531Y90453D01*
X-1669Y91148D01*
X-2062Y91737D01*
X-2651Y92131D01*
X-3347Y92269D01*
X-4041Y92131D01*
X-4444Y91861D01*
X-5003Y91914D01*
X-5086Y91955D01*
X-5113Y91994D01*
X-5113Y91994D01*
X-6392Y93274D01*
Y97881D01*
X-5892Y97906D01*
X-5829Y97266D01*
X-5491Y96151D01*
X-4942Y95123D01*
X-4203Y94222D01*
X-3302Y93483D01*
X-2275Y92934D01*
X-1159Y92596D01*
X0Y92482D01*
X1159Y92596D01*
X2275Y92934D01*
X3302Y93483D01*
X4203Y94222D01*
X4942Y95123D01*
X5491Y96151D01*
X5829Y97266D01*
X5944Y98425D01*
X5829Y99585D01*
X5491Y100700D01*
X4942Y101727D01*
X4203Y102628D01*
X3302Y103367D01*
X2275Y103916D01*
X1159Y104255D01*
X0Y104369D01*
X-1159Y104255D01*
X-2275Y103916D01*
X-3302Y103367D01*
X-4203Y102628D01*
X-4942Y101727D01*
X-5491Y100700D01*
X-5829Y99585D01*
X-5892Y98945D01*
X-6392Y98969D01*
Y207145D01*
X-6365Y207207D01*
X-6362Y207308D01*
X-6356Y207383D01*
X-6346Y207448D01*
X-6333Y207504D01*
X-6319Y207551D01*
X-6303Y207591D01*
X-6287Y207624D01*
X-6270Y207651D01*
X-6252Y207675D01*
X-6211Y207719D01*
X-6186Y207784D01*
X-5836Y208309D01*
X-5698Y209003D01*
X-5836Y209699D01*
X-6230Y210288D01*
X-6819Y210681D01*
X-7514Y210820D01*
X-8209Y210681D01*
X-8280Y210634D01*
X-8721Y210870D01*
Y225256D01*
X264627Y225256D01*
Y-8721D01*
D02*
G37*
G36*
X-2582Y89542D02*
X-2637Y89469D01*
X-2686Y89391D01*
X-2729Y89306D01*
X-2765Y89215D01*
X-2794Y89119D01*
X-2817Y89016D01*
X-2833Y88908D01*
X-2843Y88794D01*
X-2847Y88674D01*
X-3847D01*
X-3850Y88794D01*
X-3859Y88908D01*
X-3876Y89016D01*
X-3899Y89119D01*
X-3928Y89215D01*
X-3964Y89306D01*
X-4007Y89391D01*
X-4056Y89469D01*
X-4111Y89542D01*
X-4173Y89609D01*
X-2520D01*
X-2582Y89542D01*
D02*
G37*
G36*
X2989Y88955D02*
X2971Y88880D01*
X2965Y88802D01*
X2973Y88723D01*
X2993Y88642D01*
X3026Y88559D01*
X3071Y88475D01*
X3130Y88389D01*
X3201Y88301D01*
X3285Y88212D01*
X2155Y87927D01*
X2064Y88018D01*
X1625Y88402D01*
X1570Y88440D01*
X1520Y88471D01*
X1476Y88494D01*
X3020Y89029D01*
X2989Y88955D01*
D02*
G37*
G36*
X6670Y85704D02*
X6615Y85631D01*
X6566Y85552D01*
X6523Y85467D01*
X6487Y85377D01*
X6458Y85280D01*
X6435Y85178D01*
X6419Y85070D01*
X6409Y84956D01*
X6406Y84835D01*
X5406D01*
X5402Y84956D01*
X5392Y85070D01*
X5376Y85178D01*
X5353Y85280D01*
X5324Y85377D01*
X5288Y85467D01*
X5245Y85552D01*
X5196Y85631D01*
X5141Y85704D01*
X5079Y85771D01*
X6732D01*
X6670Y85704D01*
D02*
G37*
G36*
X1014Y84030D02*
X984Y83952D01*
X957Y83869D01*
X933Y83781D01*
X897Y83588D01*
X885Y83483D01*
X870Y83258D01*
X869Y83137D01*
X-132Y82763D01*
X-135Y82885D01*
X-147Y82998D01*
X-167Y83102D01*
X-194Y83197D01*
X-229Y83284D01*
X-272Y83362D01*
X-323Y83431D01*
X-382Y83492D01*
X-448Y83543D01*
X-522Y83586D01*
X1049Y84102D01*
X1014Y84030D01*
D02*
G37*
G36*
X10607Y82554D02*
X10552Y82481D01*
X10503Y82402D01*
X10460Y82318D01*
X10424Y82227D01*
X10395Y82131D01*
X10372Y82028D01*
X10356Y81920D01*
X10346Y81806D01*
X10343Y81686D01*
X9342D01*
X9339Y81806D01*
X9329Y81920D01*
X9313Y82028D01*
X9290Y82131D01*
X9261Y82227D01*
X9225Y82318D01*
X9182Y82402D01*
X9133Y82481D01*
X9078Y82554D01*
X9016Y82621D01*
X10669D01*
X10607Y82554D01*
D02*
G37*
G36*
X24747Y77913D02*
X24680Y77975D01*
X24607Y78031D01*
X24528Y78080D01*
X24444Y78123D01*
X24353Y78158D01*
X24257Y78188D01*
X24154Y78211D01*
X24046Y78227D01*
X23932Y78237D01*
X23812Y78240D01*
Y79240D01*
X23932Y79243D01*
X24046Y79253D01*
X24154Y79270D01*
X24257Y79292D01*
X24353Y79322D01*
X24444Y79358D01*
X24528Y79400D01*
X24607Y79449D01*
X24680Y79505D01*
X24747Y79567D01*
Y77913D01*
D02*
G37*
G36*
X13981Y77250D02*
X13896Y77160D01*
X13824Y77073D01*
X13766Y76989D01*
X13722Y76908D01*
X13691Y76831D01*
X13674Y76757D01*
X13671Y76686D01*
X13681Y76618D01*
X13705Y76554D01*
X13742Y76493D01*
X12192Y76803D01*
X13125Y77809D01*
X13981Y77250D01*
D02*
G37*
G36*
X-5402Y60714D02*
X-5393Y60600D01*
X-5376Y60491D01*
X-5353Y60389D01*
X-5324Y60293D01*
X-5288Y60202D01*
X-5246Y60117D01*
X-5196Y60038D01*
X-5141Y59965D01*
X-5079Y59899D01*
X-6732D01*
X-6670Y59965D01*
X-6615Y60038D01*
X-6566Y60117D01*
X-6523Y60202D01*
X-6487Y60293D01*
X-6458Y60389D01*
X-6435Y60491D01*
X-6419Y60600D01*
X-6409Y60714D01*
X-6406Y60834D01*
X-5406D01*
X-5402Y60714D01*
D02*
G37*
G36*
X-4157Y40428D02*
X-4212Y40355D01*
X-4261Y40276D01*
X-4304Y40192D01*
X-4340Y40101D01*
X-4369Y40005D01*
X-4392Y39902D01*
X-4408Y39794D01*
X-4418Y39680D01*
X-4421Y39560D01*
X-5421D01*
X-5425Y39680D01*
X-5434Y39794D01*
X-5451Y39902D01*
X-5474Y40005D01*
X-5503Y40101D01*
X-5539Y40192D01*
X-5581Y40276D01*
X-5630Y40355D01*
X-5686Y40428D01*
X-5748Y40495D01*
X-4095D01*
X-4157Y40428D01*
D02*
G37*
G36*
X-1465Y40044D02*
X-1456Y39930D01*
X-1439Y39822D01*
X-1417Y39720D01*
X-1387Y39623D01*
X-1351Y39533D01*
X-1309Y39448D01*
X-1260Y39369D01*
X-1204Y39296D01*
X-1142Y39229D01*
X-2795D01*
X-2733Y39296D01*
X-2678Y39369D01*
X-2629Y39448D01*
X-2586Y39533D01*
X-2551Y39623D01*
X-2521Y39720D01*
X-2498Y39822D01*
X-2482Y39930D01*
X-2472Y40044D01*
X-2469Y40164D01*
X-1469D01*
X-1465Y40044D01*
D02*
G37*
G36*
X10010Y38930D02*
X10097Y38857D01*
X10186Y38791D01*
X10274Y38735D01*
X10363Y38688D01*
X10452Y38649D01*
X10543Y38619D01*
X10633Y38598D01*
X10724Y38586D01*
X10815Y38583D01*
X9646Y37413D01*
X9642Y37505D01*
X9630Y37595D01*
X9609Y37686D01*
X9579Y37776D01*
X9540Y37865D01*
X9493Y37954D01*
X9437Y38043D01*
X9372Y38131D01*
X9298Y38219D01*
X9216Y38306D01*
X9923Y39013D01*
X10010Y38930D01*
D02*
G37*
G36*
X627Y35353D02*
X539Y35261D01*
X393Y35086D01*
X335Y35002D01*
X287Y34920D01*
X248Y34841D01*
X219Y34764D01*
X201Y34690D01*
X192Y34618D01*
X193Y34549D01*
X-884Y35626D01*
X-815Y35625D01*
X-743Y35634D01*
X-669Y35653D01*
X-592Y35681D01*
X-513Y35720D01*
X-431Y35768D01*
X-347Y35826D01*
X-261Y35894D01*
X-172Y35972D01*
X-80Y36060D01*
X627Y35353D01*
D02*
G37*
G36*
X13422Y26495D02*
X13340Y26408D01*
X13266Y26320D01*
X13201Y26232D01*
X13145Y26143D01*
X13097Y26054D01*
X13059Y25965D01*
X13029Y25875D01*
X13008Y25785D01*
X12996Y25694D01*
X12992Y25602D01*
X11823Y26772D01*
X11914Y26775D01*
X12005Y26787D01*
X12095Y26808D01*
X12185Y26838D01*
X12275Y26877D01*
X12364Y26924D01*
X12452Y26981D01*
X12540Y27046D01*
X12628Y27119D01*
X12715Y27202D01*
X13422Y26495D01*
D02*
G37*
%LPC*%
G36*
X255906Y222479D02*
X254746Y222365D01*
X253631Y222027D01*
X252603Y221477D01*
X251703Y220738D01*
X250964Y219837D01*
X250414Y218810D01*
X250076Y217695D01*
X249962Y216535D01*
X250076Y215376D01*
X250414Y214261D01*
X250964Y213233D01*
X251703Y212333D01*
X252603Y211594D01*
X253631Y211044D01*
X254746Y210706D01*
X255906Y210592D01*
X257065Y210706D01*
X258180Y211044D01*
X259208Y211594D01*
X260108Y212333D01*
X260847Y213233D01*
X261397Y214261D01*
X261735Y215376D01*
X261849Y216535D01*
X261735Y217695D01*
X261397Y218810D01*
X260847Y219837D01*
X260108Y220738D01*
X259208Y221477D01*
X258180Y222027D01*
X257065Y222365D01*
X255906Y222479D01*
D02*
G37*
G36*
X0D02*
X-1159Y222365D01*
X-2275Y222027D01*
X-3302Y221477D01*
X-4203Y220738D01*
X-4942Y219837D01*
X-5491Y218810D01*
X-5829Y217695D01*
X-5944Y216535D01*
X-5829Y215376D01*
X-5491Y214261D01*
X-4942Y213233D01*
X-4203Y212333D01*
X-3302Y211594D01*
X-2275Y211044D01*
X-1159Y210706D01*
X0Y210592D01*
X1159Y210706D01*
X2275Y211044D01*
X3302Y211594D01*
X4203Y212333D01*
X4942Y213233D01*
X5491Y214261D01*
X5829Y215376D01*
X5944Y216535D01*
X5829Y217695D01*
X5491Y218810D01*
X4942Y219837D01*
X4203Y220738D01*
X3302Y221477D01*
X2275Y222027D01*
X1159Y222365D01*
X0Y222479D01*
D02*
G37*
G36*
X208474Y212927D02*
X200975D01*
Y205428D01*
X208474D01*
Y212927D01*
D02*
G37*
G36*
X153356D02*
X145857D01*
Y205428D01*
X153356D01*
Y212927D01*
D02*
G37*
G36*
X218504Y212959D02*
X217525Y212830D01*
X216613Y212452D01*
X215830Y211851D01*
X215229Y211068D01*
X214851Y210156D01*
X214722Y209177D01*
X214851Y208198D01*
X215229Y207286D01*
X215830Y206503D01*
X216613Y205902D01*
X217525Y205524D01*
X218504Y205395D01*
X219483Y205524D01*
X220395Y205902D01*
X221178Y206503D01*
X221779Y207286D01*
X222157Y208198D01*
X222286Y209177D01*
X222157Y210156D01*
X221779Y211068D01*
X221178Y211851D01*
X220395Y212452D01*
X219483Y212830D01*
X218504Y212959D01*
D02*
G37*
G36*
X163386D02*
X162407Y212830D01*
X161495Y212452D01*
X160712Y211851D01*
X160110Y211068D01*
X159733Y210156D01*
X159604Y209177D01*
X159733Y208198D01*
X160110Y207286D01*
X160712Y206503D01*
X161495Y205902D01*
X162407Y205524D01*
X163386Y205395D01*
X164365Y205524D01*
X165277Y205902D01*
X166060Y206503D01*
X166661Y207286D01*
X167039Y208198D01*
X167168Y209177D01*
X167039Y210156D01*
X166661Y211068D01*
X166060Y211851D01*
X165277Y212452D01*
X164365Y212830D01*
X163386Y212959D01*
D02*
G37*
G36*
X228346Y211869D02*
X227008Y211692D01*
X225761Y211176D01*
X224689Y210354D01*
X223868Y209283D01*
X223351Y208035D01*
X223175Y206697D01*
X223351Y205358D01*
X223868Y204111D01*
X224689Y203040D01*
X225761Y202218D01*
X227008Y201701D01*
X228346Y201525D01*
X229685Y201701D01*
X230932Y202218D01*
X232003Y203040D01*
X232825Y204111D01*
X233342Y205358D01*
X233518Y206697D01*
X233342Y208035D01*
X232825Y209283D01*
X232003Y210354D01*
X230932Y211176D01*
X229685Y211692D01*
X228346Y211869D01*
D02*
G37*
G36*
X194882D02*
X193543Y211692D01*
X192296Y211176D01*
X191225Y210354D01*
X190403Y209283D01*
X189886Y208035D01*
X189710Y206697D01*
X189886Y205358D01*
X190403Y204111D01*
X191225Y203040D01*
X192296Y202218D01*
X193543Y201701D01*
X194882Y201525D01*
X196221Y201701D01*
X197468Y202218D01*
X198539Y203040D01*
X199361Y204111D01*
X199878Y205358D01*
X200054Y206697D01*
X199878Y208035D01*
X199361Y209283D01*
X198539Y210354D01*
X197468Y211176D01*
X196221Y211692D01*
X194882Y211869D01*
D02*
G37*
G36*
X173228D02*
X171890Y211692D01*
X170642Y211176D01*
X169571Y210354D01*
X168749Y209283D01*
X168233Y208035D01*
X168056Y206697D01*
X168233Y205358D01*
X168749Y204111D01*
X169571Y203040D01*
X170642Y202218D01*
X171890Y201701D01*
X173228Y201525D01*
X174567Y201701D01*
X175814Y202218D01*
X176885Y203040D01*
X177707Y204111D01*
X178224Y205358D01*
X178400Y206697D01*
X178224Y208035D01*
X177707Y209283D01*
X176885Y210354D01*
X175814Y211176D01*
X174567Y211692D01*
X173228Y211869D01*
D02*
G37*
G36*
X139764D02*
X138425Y211692D01*
X137178Y211176D01*
X136107Y210354D01*
X135285Y209283D01*
X134768Y208035D01*
X134592Y206697D01*
X134768Y205358D01*
X135285Y204111D01*
X136107Y203040D01*
X137178Y202218D01*
X138425Y201701D01*
X139764Y201525D01*
X141102Y201701D01*
X142350Y202218D01*
X143421Y203040D01*
X144243Y204111D01*
X144759Y205358D01*
X144936Y206697D01*
X144759Y208035D01*
X144243Y209283D01*
X143421Y210354D01*
X142350Y211176D01*
X141102Y211692D01*
X139764Y211869D01*
D02*
G37*
G36*
X3268Y202219D02*
X1929Y202043D01*
X682Y201526D01*
X-389Y200704D01*
X-1211Y199633D01*
X-1728Y198386D01*
X-1904Y197047D01*
X-1728Y195709D01*
X-1211Y194461D01*
X-389Y193390D01*
X682Y192568D01*
X1929Y192052D01*
X3268Y191875D01*
X4606Y192052D01*
X5854Y192568D01*
X6925Y193390D01*
X7747Y194461D01*
X8263Y195709D01*
X8439Y197047D01*
X8263Y198386D01*
X7747Y199633D01*
X6925Y200704D01*
X5854Y201526D01*
X4606Y202043D01*
X3268Y202219D01*
D02*
G37*
G36*
X63976Y211279D02*
X63517Y211089D01*
X63327Y210630D01*
X63327Y182736D01*
X13780D01*
X13320Y182546D01*
X13130Y182087D01*
Y175661D01*
X12765Y175185D01*
X12453Y174431D01*
X12346Y173622D01*
X12453Y172813D01*
X12765Y172059D01*
X13130Y171583D01*
Y134539D01*
X12657Y134378D01*
X12515Y134563D01*
X11444Y135384D01*
X10197Y135901D01*
X8858Y136077D01*
X7520Y135901D01*
X6272Y135384D01*
X5201Y134563D01*
X4379Y133491D01*
X3863Y132244D01*
X3686Y130905D01*
X3863Y129567D01*
X4379Y128320D01*
X5201Y127249D01*
X6272Y126427D01*
X7520Y125910D01*
X8858Y125734D01*
X10197Y125910D01*
X11444Y126427D01*
X12515Y127249D01*
X12753Y127558D01*
X13320Y127494D01*
X13780Y127303D01*
X51337D01*
X51445Y127348D01*
X51561Y127343D01*
X51665Y127439D01*
X51796Y127494D01*
X52262Y127439D01*
X52315Y127419D01*
X52445Y127249D01*
X53516Y126427D01*
X54764Y125910D01*
X56102Y125734D01*
X57441Y125910D01*
X58688Y126427D01*
X59759Y127249D01*
X59890Y127419D01*
X59943Y127439D01*
X60409Y127494D01*
X60540Y127439D01*
X60644Y127343D01*
X60760Y127348D01*
X60868Y127303D01*
X75943D01*
X76051Y127348D01*
X76167Y127343D01*
X76271Y127439D01*
X76402Y127494D01*
X76868Y127439D01*
X76921Y127419D01*
X77052Y127249D01*
X78123Y126427D01*
X79370Y125910D01*
X80709Y125734D01*
X82047Y125910D01*
X83295Y126427D01*
X84366Y127249D01*
X84496Y127419D01*
X84549Y127439D01*
X85015Y127494D01*
X85146Y127439D01*
X85250Y127343D01*
X85366Y127348D01*
X85474Y127303D01*
X95472D01*
X95932Y127494D01*
X96122Y127953D01*
Y167147D01*
X96061Y167295D01*
X96045Y167453D01*
X95969Y167516D01*
X95932Y167606D01*
X95784Y167667D01*
X95661Y167769D01*
X95161Y167920D01*
X95002Y167905D01*
X94846Y167936D01*
X94764Y167881D01*
X94666Y167872D01*
X94565Y167748D01*
X94432Y167660D01*
X94320Y167491D01*
X93945Y167241D01*
X93504Y167153D01*
X93062Y167241D01*
X92688Y167491D01*
X92438Y167866D01*
X92350Y168307D01*
X92438Y168749D01*
X92688Y169123D01*
X93062Y169373D01*
X93504Y169461D01*
X93945Y169373D01*
X94320Y169123D01*
X94432Y168954D01*
X94565Y168866D01*
X94666Y168743D01*
X94764Y168733D01*
X94846Y168678D01*
X95002Y168709D01*
X95161Y168694D01*
X95661Y168845D01*
X95784Y168947D01*
X95932Y169008D01*
X95969Y169098D01*
X96045Y169161D01*
X96061Y169320D01*
X96122Y169467D01*
Y178101D01*
X95932Y178560D01*
X95472Y178750D01*
X91880D01*
Y183455D01*
X92501D01*
X92960Y183645D01*
X93150Y184104D01*
Y187855D01*
X92960Y188314D01*
X92501Y188504D01*
X89084D01*
X88625Y188314D01*
X88435Y187855D01*
Y187353D01*
X85187D01*
Y190600D01*
X88435D01*
Y190098D01*
X88625Y189639D01*
X89084Y189448D01*
X93558D01*
X93798Y189401D01*
X93947Y189301D01*
X94046Y189152D01*
X94094Y188912D01*
Y184104D01*
X94284Y183645D01*
X94744Y183455D01*
X95472D01*
X95932Y183645D01*
X96122Y184104D01*
Y210630D01*
X95932Y211089D01*
X95472Y211279D01*
X63976Y211279D01*
D02*
G37*
G36*
X4537Y177175D02*
X-2962D01*
Y169676D01*
X4537D01*
Y177175D01*
D02*
G37*
G36*
X3268Y168754D02*
X1929Y168578D01*
X682Y168062D01*
X-389Y167240D01*
X-1211Y166169D01*
X-1728Y164921D01*
X-1904Y163583D01*
X-1728Y162244D01*
X-1211Y160997D01*
X-389Y159926D01*
X682Y159104D01*
X1929Y158587D01*
X3268Y158411D01*
X4606Y158587D01*
X5854Y159104D01*
X6925Y159926D01*
X7747Y160997D01*
X8263Y162244D01*
X8439Y163583D01*
X8263Y164921D01*
X7747Y166169D01*
X6925Y167240D01*
X5854Y168062D01*
X4606Y168578D01*
X3268Y168754D01*
D02*
G37*
G36*
X104331Y137168D02*
X103352Y137039D01*
X102440Y136661D01*
X101656Y136060D01*
X101055Y135277D01*
X100678Y134365D01*
X100549Y133386D01*
X100678Y132407D01*
X101055Y131495D01*
X101656Y130712D01*
X102440Y130111D01*
X103352Y129733D01*
X104331Y129604D01*
X105309Y129733D01*
X106222Y130111D01*
X107005Y130712D01*
X107606Y131495D01*
X107984Y132407D01*
X108113Y133386D01*
X107984Y134365D01*
X107606Y135277D01*
X107005Y136060D01*
X106222Y136661D01*
X105309Y137039D01*
X104331Y137168D01*
D02*
G37*
G36*
X127953Y136077D02*
X126614Y135901D01*
X125367Y135384D01*
X124296Y134563D01*
X123474Y133491D01*
X122957Y132244D01*
X122781Y130905D01*
X122957Y129567D01*
X123474Y128320D01*
X124296Y127249D01*
X125367Y126427D01*
X126614Y125910D01*
X127953Y125734D01*
X129291Y125910D01*
X130539Y126427D01*
X131610Y127249D01*
X132432Y128320D01*
X132948Y129567D01*
X133125Y130905D01*
X132948Y132244D01*
X132432Y133491D01*
X131610Y134563D01*
X130539Y135384D01*
X129291Y135901D01*
X127953Y136077D01*
D02*
G37*
G36*
X176453Y120639D02*
X175758Y120501D01*
X175168Y120107D01*
X174775Y119518D01*
X174636Y118823D01*
X174775Y118128D01*
X175125Y117604D01*
X175149Y117538D01*
X175190Y117494D01*
X175208Y117471D01*
X175225Y117443D01*
X175242Y117410D01*
X175257Y117371D01*
X175272Y117324D01*
X175284Y117268D01*
X175294Y117202D01*
X175301Y117128D01*
X175303Y117027D01*
X175331Y116965D01*
Y106460D01*
X175303Y106398D01*
X175301Y106297D01*
X175294Y106223D01*
X175284Y106158D01*
X175272Y106102D01*
X175257Y106054D01*
X175242Y106015D01*
X175225Y105982D01*
X175208Y105955D01*
X175190Y105931D01*
X175149Y105887D01*
X175125Y105821D01*
X174775Y105297D01*
X174636Y104602D01*
X174775Y103907D01*
X175168Y103318D01*
X175758Y102924D01*
X176453Y102786D01*
X177147Y102924D01*
X177737Y103318D01*
X178130Y103907D01*
X178269Y104602D01*
X178130Y105297D01*
X177780Y105821D01*
X177756Y105887D01*
X177715Y105931D01*
X177697Y105955D01*
X177680Y105982D01*
X177663Y106015D01*
X177648Y106054D01*
X177633Y106102D01*
X177621Y106158D01*
X177611Y106223D01*
X177604Y106297D01*
X177602Y106398D01*
X177574Y106460D01*
Y116965D01*
X177602Y117027D01*
X177604Y117128D01*
X177611Y117202D01*
X177621Y117268D01*
X177633Y117324D01*
X177648Y117371D01*
X177663Y117410D01*
X177680Y117443D01*
X177697Y117471D01*
X177715Y117494D01*
X177756Y117538D01*
X177780Y117604D01*
X178130Y118128D01*
X178269Y118823D01*
X178130Y119518D01*
X177737Y120107D01*
X177147Y120501D01*
X176453Y120639D01*
D02*
G37*
G36*
X38187Y99077D02*
X37492Y98939D01*
X36967Y98589D01*
X36902Y98564D01*
X36858Y98524D01*
X36834Y98506D01*
X36807Y98489D01*
X36774Y98472D01*
X36734Y98457D01*
X36687Y98442D01*
X36631Y98430D01*
X36566Y98420D01*
X36491Y98413D01*
X36390Y98411D01*
X36328Y98383D01*
X34269D01*
X34269Y98383D01*
X33840Y98298D01*
X33476Y98054D01*
X33476Y98054D01*
X32671Y97250D01*
X32428Y96886D01*
X32343Y96457D01*
X32343Y96457D01*
Y79614D01*
X32315Y79552D01*
X32313Y79451D01*
X32306Y79377D01*
X32296Y79312D01*
X32284Y79255D01*
X32269Y79208D01*
X32254Y79169D01*
X32237Y79136D01*
X32220Y79108D01*
X32202Y79085D01*
X32161Y79041D01*
X32137Y78975D01*
X31787Y78451D01*
X31649Y77756D01*
X31787Y77061D01*
X32181Y76472D01*
X32770Y76078D01*
X33465Y75940D01*
X34159Y76078D01*
X34749Y76472D01*
X35142Y77061D01*
X35280Y77756D01*
X35142Y78451D01*
X34792Y78975D01*
X34768Y79041D01*
X34727Y79085D01*
X34709Y79108D01*
X34692Y79136D01*
X34675Y79169D01*
X34660Y79208D01*
X34645Y79255D01*
X34633Y79312D01*
X34623Y79377D01*
X34617Y79451D01*
X34614Y79552D01*
X34586Y79614D01*
Y95992D01*
X34734Y96140D01*
X36328D01*
X36390Y96112D01*
X36491Y96109D01*
X36566Y96103D01*
X36631Y96093D01*
X36687Y96081D01*
X36734Y96066D01*
X36774Y96051D01*
X36807Y96034D01*
X36834Y96017D01*
X36858Y95999D01*
X36902Y95958D01*
X36967Y95934D01*
X37492Y95584D01*
X38187Y95445D01*
X38882Y95584D01*
X39471Y95977D01*
X39864Y96566D01*
X40003Y97261D01*
X39864Y97956D01*
X39471Y98545D01*
X38882Y98939D01*
X38187Y99077D01*
D02*
G37*
G36*
X118110Y104369D02*
X116951Y104255D01*
X115836Y103916D01*
X114808Y103367D01*
X113908Y102628D01*
X113168Y101727D01*
X112619Y100700D01*
X112281Y99585D01*
X112167Y98425D01*
X112281Y97266D01*
X112619Y96151D01*
X113168Y95123D01*
X113908Y94222D01*
X114808Y93483D01*
X115836Y92934D01*
X116951Y92596D01*
X118110Y92482D01*
X119270Y92596D01*
X120385Y92934D01*
X121412Y93483D01*
X122313Y94222D01*
X123052Y95123D01*
X123601Y96151D01*
X123940Y97266D01*
X124054Y98425D01*
X123940Y99585D01*
X123601Y100700D01*
X123052Y101727D01*
X122313Y102628D01*
X121412Y103367D01*
X120385Y103916D01*
X119270Y104255D01*
X118110Y104369D01*
D02*
G37*
G36*
X109350Y97956D02*
X108655Y97818D01*
X108066Y97424D01*
X107673Y96835D01*
X107534Y96140D01*
X107673Y95445D01*
X108023Y94921D01*
X108047Y94855D01*
X108088Y94811D01*
X108106Y94787D01*
X108123Y94760D01*
X108140Y94727D01*
X108155Y94687D01*
X108170Y94640D01*
X108182Y94584D01*
X108192Y94519D01*
X108198Y94445D01*
X108201Y94343D01*
X108229Y94282D01*
Y92585D01*
X108229Y92585D01*
X108314Y92156D01*
X108557Y91792D01*
X110886Y89464D01*
X110886Y89464D01*
X111250Y89221D01*
X111679Y89135D01*
X111679Y89135D01*
X122471D01*
X122471Y89135D01*
X122900Y89221D01*
X123264Y89464D01*
X125119Y91318D01*
X125182Y91342D01*
X125255Y91412D01*
X125312Y91460D01*
X125366Y91499D01*
X125414Y91530D01*
X125458Y91553D01*
X125497Y91570D01*
X125532Y91582D01*
X125563Y91589D01*
X125592Y91593D01*
X125653Y91595D01*
X125716Y91624D01*
X126335Y91747D01*
X126924Y92141D01*
X127317Y92730D01*
X127456Y93425D01*
X127317Y94120D01*
X126924Y94709D01*
X126335Y95103D01*
X125640Y95241D01*
X124945Y95103D01*
X124355Y94709D01*
X123962Y94120D01*
X123839Y93502D01*
X123810Y93438D01*
X123807Y93378D01*
X123803Y93349D01*
X123796Y93317D01*
X123784Y93282D01*
X123768Y93243D01*
X123744Y93200D01*
X123714Y93151D01*
X123674Y93098D01*
X123626Y93041D01*
X123557Y92968D01*
X123532Y92904D01*
X122007Y91378D01*
X112144D01*
X110472Y93050D01*
Y94282D01*
X110500Y94343D01*
X110502Y94445D01*
X110509Y94519D01*
X110519Y94584D01*
X110531Y94640D01*
X110546Y94687D01*
X110561Y94727D01*
X110578Y94760D01*
X110595Y94787D01*
X110613Y94811D01*
X110653Y94855D01*
X110678Y94921D01*
X111028Y95445D01*
X111166Y96140D01*
X111028Y96835D01*
X110635Y97424D01*
X110045Y97818D01*
X109350Y97956D01*
D02*
G37*
G36*
X27559Y95320D02*
X26864Y95182D01*
X26275Y94788D01*
X25881Y94199D01*
X25743Y93504D01*
X25881Y92809D01*
X26275Y92220D01*
X26864Y91826D01*
X27483Y91703D01*
X27546Y91674D01*
X27606Y91672D01*
X27635Y91668D01*
X27667Y91660D01*
X27702Y91649D01*
X27741Y91632D01*
X27785Y91609D01*
X27833Y91578D01*
X27886Y91539D01*
X27943Y91491D01*
X28017Y91421D01*
X28080Y91397D01*
X28406Y91071D01*
Y77646D01*
X28378Y77584D01*
X28376Y77483D01*
X28369Y77408D01*
X28359Y77343D01*
X28347Y77287D01*
X28332Y77240D01*
X28317Y77200D01*
X28300Y77167D01*
X28283Y77140D01*
X28265Y77116D01*
X28224Y77072D01*
X28200Y77007D01*
X27850Y76482D01*
X27712Y75787D01*
X27850Y75092D01*
X28243Y74503D01*
X28833Y74110D01*
X29528Y73971D01*
X29853Y74036D01*
X30034Y73774D01*
X30079Y73571D01*
X29476Y72969D01*
X29233Y72605D01*
X29148Y72176D01*
X29148Y72176D01*
Y46669D01*
X29120Y46607D01*
X29117Y46506D01*
X29111Y46432D01*
X29101Y46367D01*
X29089Y46311D01*
X29074Y46263D01*
X29059Y46224D01*
X29042Y46191D01*
X29025Y46163D01*
X29007Y46140D01*
X28966Y46096D01*
X28942Y46030D01*
X28592Y45506D01*
X28453Y44811D01*
X28592Y44116D01*
X28985Y43527D01*
X29574Y43133D01*
X30269Y42995D01*
X30964Y43133D01*
X31554Y43527D01*
X31947Y44116D01*
X32085Y44811D01*
X31947Y45506D01*
X31597Y46030D01*
X31572Y46096D01*
X31532Y46140D01*
X31514Y46163D01*
X31497Y46191D01*
X31480Y46224D01*
X31464Y46263D01*
X31450Y46311D01*
X31438Y46367D01*
X31428Y46432D01*
X31421Y46506D01*
X31419Y46607D01*
X31391Y46669D01*
Y71711D01*
X31393Y71713D01*
X40748D01*
X40748Y71713D01*
X41177Y71798D01*
X41541Y72041D01*
X42525Y73026D01*
X42525Y73026D01*
X42768Y73390D01*
X42854Y73819D01*
X42854Y73819D01*
Y87792D01*
X43055Y87993D01*
X46353D01*
X46353Y87993D01*
X46782Y88078D01*
X47146Y88321D01*
X48032Y89207D01*
X48032Y89207D01*
X48275Y89571D01*
X48360Y90000D01*
X48360Y90000D01*
Y91192D01*
X48388Y91254D01*
X48391Y91355D01*
X48397Y91429D01*
X48407Y91494D01*
X48419Y91550D01*
X48434Y91598D01*
X48450Y91637D01*
X48466Y91670D01*
X48483Y91698D01*
X48501Y91721D01*
X48542Y91765D01*
X48566Y91831D01*
X48916Y92355D01*
X49055Y93050D01*
X48916Y93745D01*
X48523Y94334D01*
X47934Y94728D01*
X47239Y94866D01*
X46544Y94728D01*
X45955Y94334D01*
X45561Y93745D01*
X45423Y93050D01*
X45561Y92355D01*
X45911Y91831D01*
X45935Y91765D01*
X45976Y91721D01*
X45994Y91698D01*
X46011Y91670D01*
X46028Y91637D01*
X46044Y91598D01*
X46058Y91550D01*
X46071Y91494D01*
X46080Y91429D01*
X46087Y91355D01*
X46090Y91254D01*
X46117Y91192D01*
Y90465D01*
X45888Y90236D01*
X42590D01*
X42590Y90236D01*
X42161Y90150D01*
X41797Y89907D01*
X41797Y89907D01*
X40939Y89049D01*
X40696Y88685D01*
X40611Y88256D01*
X40611Y88256D01*
Y74283D01*
X40283Y73956D01*
X30928D01*
X30928Y73956D01*
X30878Y73946D01*
X30683Y74417D01*
X30812Y74503D01*
X31205Y75092D01*
X31343Y75787D01*
X31205Y76482D01*
X30855Y77007D01*
X30831Y77072D01*
X30790Y77116D01*
X30772Y77140D01*
X30755Y77167D01*
X30738Y77200D01*
X30723Y77240D01*
X30708Y77287D01*
X30696Y77343D01*
X30686Y77408D01*
X30680Y77483D01*
X30677Y77584D01*
X30649Y77646D01*
Y91535D01*
X30649Y91535D01*
X30564Y91965D01*
X30321Y92329D01*
X29666Y92983D01*
X29642Y93046D01*
X29572Y93120D01*
X29524Y93177D01*
X29485Y93230D01*
X29454Y93278D01*
X29431Y93322D01*
X29414Y93361D01*
X29403Y93396D01*
X29395Y93427D01*
X29391Y93457D01*
X29389Y93517D01*
X29360Y93581D01*
X29237Y94199D01*
X28843Y94788D01*
X28254Y95182D01*
X27559Y95320D01*
D02*
G37*
G36*
X125000Y69729D02*
X124305Y69591D01*
X123781Y69241D01*
X123715Y69217D01*
X123671Y69176D01*
X123647Y69158D01*
X123620Y69141D01*
X123587Y69124D01*
X123548Y69108D01*
X123500Y69094D01*
X123444Y69082D01*
X123379Y69072D01*
X123305Y69065D01*
X123204Y69063D01*
X123142Y69035D01*
X107874D01*
X107445Y68950D01*
X107081Y68706D01*
X107081Y68706D01*
X105506Y67132D01*
X105263Y66768D01*
X105178Y66339D01*
X105178Y66338D01*
Y52055D01*
X105150Y51993D01*
X105147Y51892D01*
X105141Y51818D01*
X105131Y51752D01*
X105119Y51696D01*
X105104Y51649D01*
X105088Y51609D01*
X105072Y51577D01*
X105055Y51549D01*
X105037Y51526D01*
X104996Y51482D01*
X104972Y51416D01*
X104622Y50892D01*
X104483Y50197D01*
X104622Y49502D01*
X105015Y48913D01*
X105604Y48519D01*
X106299Y48381D01*
X106994Y48519D01*
X107583Y48913D01*
X107977Y49502D01*
X108115Y50197D01*
X108074Y50406D01*
X108524Y50707D01*
X108557Y50684D01*
X109252Y50546D01*
X109947Y50684D01*
X110536Y51078D01*
X110930Y51667D01*
X111068Y52362D01*
X110930Y53057D01*
X110682Y53427D01*
X110652Y53873D01*
X110651Y53987D01*
X110628Y54042D01*
Y62909D01*
X110639Y62925D01*
X110911Y63387D01*
X110935Y63388D01*
X111049Y63389D01*
X111104Y63412D01*
X122634D01*
X122639Y63406D01*
Y54832D01*
X122616Y54778D01*
X122613Y54533D01*
X122605Y54356D01*
X122594Y54240D01*
X122592Y54227D01*
X122591Y54223D01*
X122338Y53845D01*
X122200Y53150D01*
X122338Y52455D01*
X122585Y52084D01*
X122616Y51639D01*
X122616Y51525D01*
X122639Y51470D01*
Y34565D01*
X122622Y34536D01*
X122631Y34503D01*
X122617Y34472D01*
X122608Y34220D01*
X122585Y34031D01*
X122552Y33884D01*
X122514Y33781D01*
X122478Y33716D01*
X122450Y33683D01*
X122428Y33665D01*
X122399Y33651D01*
X122348Y33638D01*
X122216Y33628D01*
X122165Y33602D01*
X119559D01*
X116246Y36915D01*
X115882Y37158D01*
X115453Y37244D01*
X115453Y37244D01*
X111406D01*
X111344Y37271D01*
X111243Y37274D01*
X111168Y37280D01*
X111103Y37290D01*
X111047Y37303D01*
X111000Y37317D01*
X110960Y37333D01*
X110927Y37349D01*
X110900Y37366D01*
X110876Y37384D01*
X110832Y37425D01*
X110766Y37449D01*
X110242Y37800D01*
X109547Y37938D01*
X108852Y37800D01*
X108263Y37406D01*
X107870Y36817D01*
X107731Y36122D01*
X107870Y35427D01*
X108263Y34838D01*
X108852Y34444D01*
X109547Y34306D01*
X110242Y34444D01*
X110766Y34795D01*
X110832Y34819D01*
X110876Y34860D01*
X110900Y34878D01*
X110927Y34895D01*
X110960Y34911D01*
X111000Y34927D01*
X111047Y34941D01*
X111103Y34954D01*
X111168Y34964D01*
X111243Y34970D01*
X111344Y34973D01*
X111406Y35001D01*
X114988D01*
X118301Y31687D01*
X118301Y31687D01*
X118665Y31444D01*
X119095Y31359D01*
X119095Y31359D01*
X122164D01*
X122215Y31333D01*
X122346Y31323D01*
X122395Y31310D01*
X122422Y31296D01*
X122445Y31278D01*
X122474Y31242D01*
X122511Y31174D01*
X122551Y31065D01*
X122585Y30912D01*
X122608Y30716D01*
X122617Y30457D01*
X122632Y30424D01*
X122623Y30389D01*
X122639Y30361D01*
Y19399D01*
X122616Y19345D01*
X122613Y19100D01*
X122605Y18923D01*
X122594Y18807D01*
X122592Y18794D01*
X122591Y18790D01*
X122338Y18411D01*
X122200Y17717D01*
X122338Y17022D01*
X122732Y16432D01*
X123321Y16039D01*
X124016Y15901D01*
X124711Y16039D01*
X125300Y16432D01*
X125694Y17022D01*
X125832Y17717D01*
X125694Y18411D01*
X125446Y18782D01*
X125416Y19227D01*
X125415Y19341D01*
X125392Y19396D01*
Y32364D01*
X125409Y32393D01*
X125403Y32417D01*
X125414Y32438D01*
X125426Y32621D01*
X125448Y32725D01*
X125477Y32796D01*
X125486Y32810D01*
X125990Y32960D01*
X126274Y32771D01*
X126969Y32633D01*
X127663Y32771D01*
X128253Y33165D01*
X128646Y33754D01*
X128785Y34449D01*
X128646Y35144D01*
X128253Y35733D01*
X127663Y36127D01*
X126969Y36265D01*
X126274Y36127D01*
X126026Y35961D01*
X125527Y36140D01*
X125499Y36192D01*
X125457Y36319D01*
X125427Y36488D01*
X125414Y36733D01*
X125393Y36778D01*
X125403Y36826D01*
X125392Y36842D01*
Y51467D01*
X125415Y51521D01*
X125418Y51766D01*
X125426Y51943D01*
X125437Y52059D01*
X125440Y52072D01*
X125441Y52076D01*
X125694Y52455D01*
X125832Y53150D01*
X125694Y53845D01*
X125446Y54215D01*
X125416Y54660D01*
X125415Y54774D01*
X125392Y54829D01*
Y63667D01*
X126185D01*
X126243Y63640D01*
X126453Y63630D01*
X126520Y63622D01*
X126586Y63610D01*
X126646Y63595D01*
X126698Y63579D01*
X126743Y63561D01*
X126782Y63542D01*
X126816Y63523D01*
X126868Y63486D01*
X126994Y63459D01*
X127258Y63283D01*
X127953Y63145D01*
X128648Y63283D01*
X129237Y63677D01*
X129630Y64266D01*
X129769Y64961D01*
X129630Y65656D01*
X129237Y66245D01*
X128648Y66638D01*
X127953Y66777D01*
X127258Y66638D01*
X126669Y66245D01*
X126636Y66196D01*
X126451Y66217D01*
X126282Y66349D01*
X126259Y66612D01*
X126284Y66629D01*
X126678Y67218D01*
X126816Y67913D01*
X126678Y68608D01*
X126284Y69197D01*
X125695Y69591D01*
X125000Y69729D01*
D02*
G37*
G36*
X84646Y70560D02*
X83706Y70437D01*
X82830Y70074D01*
X82078Y69497D01*
X81501Y68745D01*
X81138Y67869D01*
X81130Y67803D01*
X81089Y67747D01*
X81089Y67746D01*
X81089Y67746D01*
X80979Y67283D01*
X80760Y66476D01*
X80545Y65829D01*
X80445Y65577D01*
X80347Y65365D01*
X80256Y65200D01*
X80179Y65084D01*
X80089Y64980D01*
X80071Y64925D01*
X76267Y61121D01*
X75767Y61328D01*
Y62071D01*
X75793Y62123D01*
X75806Y62293D01*
X75837Y62438D01*
X75894Y62607D01*
X75981Y62798D01*
X76100Y63010D01*
X76253Y63241D01*
X76435Y63483D01*
X76918Y64036D01*
X77208Y64331D01*
X77229Y64382D01*
X77790Y65114D01*
X78153Y65989D01*
X78277Y66929D01*
X78153Y67869D01*
X77790Y68745D01*
X77213Y69497D01*
X76461Y70074D01*
X75586Y70437D01*
X74646Y70560D01*
X73706Y70437D01*
X72830Y70074D01*
X72078Y69497D01*
X71501Y68745D01*
X71138Y67869D01*
X71015Y66929D01*
X71138Y65989D01*
X71501Y65114D01*
X72062Y64382D01*
X72083Y64331D01*
X72373Y64036D01*
X72857Y63483D01*
X73039Y63241D01*
X73191Y63010D01*
X73310Y62798D01*
X73397Y62607D01*
X73454Y62438D01*
X73485Y62293D01*
X73498Y62123D01*
X73524Y62071D01*
Y54944D01*
X73496Y54880D01*
X73494Y54773D01*
X73490Y54692D01*
X73469Y54522D01*
X73457Y54463D01*
X73442Y54404D01*
X73425Y54353D01*
X73408Y54308D01*
X73390Y54270D01*
X73359Y54216D01*
X73346Y54112D01*
X73251Y53971D01*
X73147Y53445D01*
X72949Y53161D01*
X72666Y52964D01*
X72140Y52859D01*
X71615Y52509D01*
X71550Y52484D01*
X71506Y52443D01*
X71482Y52425D01*
X71455Y52408D01*
X71422Y52392D01*
X71382Y52376D01*
X71335Y52362D01*
X71279Y52349D01*
X71214Y52339D01*
X71139Y52333D01*
X71038Y52330D01*
X70976Y52303D01*
X66409D01*
X65767Y52945D01*
Y62071D01*
X65793Y62123D01*
X65806Y62293D01*
X65837Y62438D01*
X65894Y62607D01*
X65981Y62798D01*
X66101Y63010D01*
X66253Y63241D01*
X66435Y63483D01*
X66918Y64036D01*
X67208Y64331D01*
X67229Y64382D01*
X67790Y65114D01*
X68153Y65989D01*
X68277Y66929D01*
X68153Y67869D01*
X67790Y68745D01*
X67213Y69497D01*
X66461Y70074D01*
X65586Y70437D01*
X64646Y70560D01*
X63706Y70437D01*
X62830Y70074D01*
X62078Y69497D01*
X61501Y68745D01*
X61138Y67869D01*
X61015Y66929D01*
X61138Y65989D01*
X61501Y65114D01*
X62062Y64382D01*
X62083Y64331D01*
X62374Y64036D01*
X62857Y63483D01*
X63038Y63241D01*
X63191Y63010D01*
X63310Y62798D01*
X63397Y62607D01*
X63455Y62438D01*
X63485Y62293D01*
X63498Y62123D01*
X63524Y62071D01*
Y52480D01*
X63524Y52480D01*
X63609Y52051D01*
X63853Y51687D01*
X65152Y50388D01*
X65152Y50388D01*
X65516Y50145D01*
X65945Y50060D01*
X65945Y50060D01*
X70976D01*
X71038Y50032D01*
X71139Y50029D01*
X71214Y50023D01*
X71279Y50013D01*
X71335Y50000D01*
X71382Y49986D01*
X71422Y49970D01*
X71455Y49954D01*
X71482Y49937D01*
X71506Y49919D01*
X71550Y49878D01*
X71615Y49854D01*
X72140Y49503D01*
X72835Y49365D01*
X73530Y49503D01*
X74119Y49897D01*
X74512Y50486D01*
X74617Y51012D01*
X74815Y51296D01*
X75098Y51493D01*
X75624Y51598D01*
X76213Y51992D01*
X76607Y52581D01*
X76712Y53107D01*
X76909Y53390D01*
X77193Y53588D01*
X77719Y53693D01*
X78308Y54086D01*
X78702Y54675D01*
X78806Y55201D01*
X79004Y55485D01*
X79287Y55682D01*
X79813Y55787D01*
X80402Y56181D01*
X80796Y56770D01*
X80934Y57465D01*
X80796Y58160D01*
X80402Y58749D01*
X80395Y58829D01*
X82373Y60808D01*
X93504D01*
X93504Y60808D01*
X93933Y60893D01*
X94297Y61136D01*
X95439Y62278D01*
X95439Y62278D01*
X95682Y62642D01*
X95739Y62930D01*
X95795Y63056D01*
X95798Y63205D01*
X95806Y63314D01*
X95809Y63329D01*
X98246D01*
Y70529D01*
X91046D01*
Y63329D01*
X90661Y63051D01*
X85996D01*
X85897Y63551D01*
X86461Y63784D01*
X87213Y64362D01*
X87790Y65114D01*
X88153Y65989D01*
X88277Y66929D01*
X88153Y67869D01*
X87790Y68745D01*
X87213Y69497D01*
X86461Y70074D01*
X85585Y70437D01*
X84646Y70560D01*
D02*
G37*
G36*
X116142Y51029D02*
X115447Y50890D01*
X114858Y50497D01*
X114464Y49907D01*
X114326Y49213D01*
X114360Y49040D01*
X113883Y48923D01*
X113489Y49512D01*
X112900Y49906D01*
X112205Y50044D01*
X111510Y49906D01*
X110921Y49512D01*
X110527Y48923D01*
X110389Y48228D01*
X110527Y47533D01*
X110921Y46944D01*
X111510Y46551D01*
X112205Y46412D01*
X112900Y46551D01*
X113489Y46944D01*
X113883Y47533D01*
X114021Y48228D01*
X113986Y48401D01*
X114464Y48518D01*
X114858Y47929D01*
X115447Y47535D01*
X116142Y47397D01*
X116837Y47535D01*
X117426Y47929D01*
X117819Y48518D01*
X117958Y49213D01*
X117819Y49907D01*
X117426Y50497D01*
X116837Y50890D01*
X116142Y51029D01*
D02*
G37*
G36*
X5906Y23473D02*
X5134Y23320D01*
X4479Y22883D01*
X4042Y22229D01*
X3889Y21457D01*
X4042Y20685D01*
X4479Y20031D01*
X5134Y19593D01*
X5906Y19440D01*
X6677Y19593D01*
X7332Y20031D01*
X7769Y20685D01*
X7922Y21457D01*
X7769Y22229D01*
X7332Y22883D01*
X6677Y23320D01*
X5906Y23473D01*
D02*
G37*
G36*
X72229Y39596D02*
X71534Y39458D01*
X70945Y39064D01*
X70551Y38475D01*
X70446Y37949D01*
X70134Y37501D01*
X69439Y37363D01*
X68850Y36969D01*
X68456Y36380D01*
X68352Y35854D01*
X68154Y35571D01*
X67870Y35373D01*
X67344Y35268D01*
X66755Y34875D01*
X66362Y34286D01*
X66257Y33760D01*
X66059Y33476D01*
X65776Y33278D01*
X65250Y33174D01*
X64661Y32780D01*
X64267Y32191D01*
X64129Y31496D01*
X64138Y31450D01*
X64118Y31402D01*
X64119Y31398D01*
X64118Y31395D01*
X64118Y31373D01*
X64113Y31359D01*
X64100Y31331D01*
X64077Y31292D01*
X64048Y31251D01*
X63936Y31116D01*
X63865Y31041D01*
X63834Y30962D01*
X63609Y30626D01*
X63524Y30197D01*
X63524Y30197D01*
Y25527D01*
X63498Y25476D01*
X63485Y25305D01*
X63455Y25160D01*
X63397Y24992D01*
X63310Y24800D01*
X63191Y24588D01*
X63038Y24357D01*
X62857Y24115D01*
X62374Y23562D01*
X62083Y23268D01*
X62062Y23216D01*
X61501Y22485D01*
X61138Y21609D01*
X61015Y20669D01*
X61138Y19729D01*
X61501Y18854D01*
X62078Y18102D01*
X62830Y17525D01*
X63706Y17162D01*
X64646Y17038D01*
X65586Y17162D01*
X66461Y17525D01*
X67213Y18102D01*
X67790Y18854D01*
X68153Y19729D01*
X68277Y20669D01*
X68153Y21609D01*
X67790Y22485D01*
X67229Y23216D01*
X67208Y23268D01*
X66918Y23562D01*
X66435Y24115D01*
X66253Y24357D01*
X66101Y24588D01*
X65981Y24800D01*
X65894Y24992D01*
X65837Y25160D01*
X65806Y25305D01*
X65793Y25476D01*
X65767Y25527D01*
Y29191D01*
X65776Y29243D01*
X65945Y29680D01*
X66640Y29818D01*
X67229Y30212D01*
X67623Y30801D01*
X67727Y31327D01*
X67925Y31611D01*
X68209Y31808D01*
X68734Y31913D01*
X68981Y32078D01*
X69106Y32104D01*
X69159Y32139D01*
X69193Y32159D01*
X69233Y32177D01*
X69279Y32195D01*
X69332Y32212D01*
X69393Y32226D01*
X69452Y32236D01*
X69627Y32253D01*
X69723Y32255D01*
X69787Y32283D01*
X70462D01*
X73524Y29221D01*
Y25527D01*
X73498Y25476D01*
X73485Y25305D01*
X73454Y25160D01*
X73397Y24992D01*
X73310Y24800D01*
X73191Y24588D01*
X73039Y24357D01*
X72857Y24115D01*
X72373Y23562D01*
X72083Y23268D01*
X72062Y23216D01*
X71501Y22485D01*
X71138Y21609D01*
X71015Y20669D01*
X71138Y19729D01*
X71501Y18854D01*
X72078Y18102D01*
X72830Y17525D01*
X73706Y17162D01*
X74646Y17038D01*
X75586Y17162D01*
X76461Y17525D01*
X77213Y18102D01*
X77790Y18854D01*
X78153Y19729D01*
X78277Y20669D01*
X78153Y21609D01*
X77790Y22485D01*
X77229Y23216D01*
X77208Y23268D01*
X76918Y23562D01*
X76434Y24115D01*
X76253Y24357D01*
X76100Y24588D01*
X75981Y24800D01*
X75894Y24992D01*
X75837Y25160D01*
X75806Y25305D01*
X75793Y25476D01*
X75767Y25527D01*
Y29132D01*
X76082Y29390D01*
X76082Y29390D01*
X83197D01*
X83524Y29063D01*
Y25527D01*
X83498Y25476D01*
X83485Y25305D01*
X83455Y25160D01*
X83397Y24992D01*
X83310Y24800D01*
X83191Y24588D01*
X83039Y24357D01*
X82857Y24115D01*
X82373Y23562D01*
X82083Y23268D01*
X82062Y23216D01*
X81501Y22485D01*
X81138Y21609D01*
X81015Y20669D01*
X81138Y19729D01*
X81501Y18854D01*
X82078Y18102D01*
X82830Y17525D01*
X83706Y17162D01*
X84646Y17038D01*
X85585Y17162D01*
X86461Y17525D01*
X87213Y18102D01*
X87790Y18854D01*
X88153Y19729D01*
X88277Y20669D01*
X88153Y21609D01*
X87790Y22485D01*
X87229Y23216D01*
X87208Y23268D01*
X86918Y23562D01*
X86435Y24115D01*
X86253Y24357D01*
X86101Y24588D01*
X85981Y24800D01*
X85894Y24992D01*
X85837Y25160D01*
X85806Y25305D01*
X85793Y25476D01*
X85767Y25527D01*
Y29528D01*
X85767Y29528D01*
X85682Y29957D01*
X85439Y30321D01*
X84455Y31305D01*
X84091Y31548D01*
X83661Y31633D01*
X83661Y31633D01*
X76722D01*
X76568Y31843D01*
X76820Y32343D01*
X92055D01*
X93524Y30874D01*
Y24736D01*
X93497Y24674D01*
X93492Y24502D01*
X93481Y24374D01*
X93465Y24278D01*
X93463Y24269D01*
X91046D01*
Y17069D01*
X98246D01*
Y24269D01*
X95829D01*
X95826Y24278D01*
X95811Y24374D01*
X95799Y24502D01*
X95795Y24674D01*
X95767Y24736D01*
Y31339D01*
X95682Y31768D01*
X95439Y32132D01*
X95439Y32132D01*
X93313Y34258D01*
X92949Y34501D01*
X92520Y34586D01*
X92520Y34586D01*
X77008D01*
X74336Y37259D01*
X74312Y37322D01*
X74242Y37396D01*
X74194Y37453D01*
X74155Y37506D01*
X74124Y37554D01*
X74101Y37598D01*
X74084Y37637D01*
X74072Y37672D01*
X74065Y37703D01*
X74061Y37733D01*
X74059Y37793D01*
X74029Y37856D01*
X73906Y38475D01*
X73513Y39064D01*
X72924Y39458D01*
X72229Y39596D01*
D02*
G37*
G36*
X255906Y5944D02*
X254746Y5829D01*
X253631Y5491D01*
X252603Y4942D01*
X251703Y4203D01*
X250964Y3302D01*
X250414Y2275D01*
X250076Y1159D01*
X249962Y0D01*
X250076Y-1159D01*
X250414Y-2275D01*
X250964Y-3302D01*
X251703Y-4203D01*
X252603Y-4942D01*
X253631Y-5491D01*
X254746Y-5829D01*
X255906Y-5944D01*
X257065Y-5829D01*
X258180Y-5491D01*
X259208Y-4942D01*
X260108Y-4203D01*
X260847Y-3302D01*
X261397Y-2275D01*
X261735Y-1159D01*
X261849Y0D01*
X261735Y1159D01*
X261397Y2275D01*
X260847Y3302D01*
X260108Y4203D01*
X259208Y4942D01*
X258180Y5491D01*
X257065Y5829D01*
X255906Y5944D01*
D02*
G37*
G36*
X118110D02*
X116951Y5829D01*
X115836Y5491D01*
X114808Y4942D01*
X113908Y4203D01*
X113168Y3302D01*
X112619Y2275D01*
X112281Y1159D01*
X112167Y0D01*
X112281Y-1159D01*
X112619Y-2275D01*
X113168Y-3302D01*
X113908Y-4203D01*
X114808Y-4942D01*
X115836Y-5491D01*
X116951Y-5829D01*
X118110Y-5944D01*
X119270Y-5829D01*
X120385Y-5491D01*
X121412Y-4942D01*
X122313Y-4203D01*
X123052Y-3302D01*
X123601Y-2275D01*
X123940Y-1159D01*
X124054Y0D01*
X123940Y1159D01*
X123601Y2275D01*
X123052Y3302D01*
X122313Y4203D01*
X121412Y4942D01*
X120385Y5491D01*
X119270Y5829D01*
X118110Y5944D01*
D02*
G37*
G36*
X0D02*
X-1159Y5829D01*
X-2275Y5491D01*
X-3302Y4942D01*
X-4203Y4203D01*
X-4942Y3302D01*
X-5491Y2275D01*
X-5829Y1159D01*
X-5944Y0D01*
X-5829Y-1159D01*
X-5491Y-2275D01*
X-4942Y-3302D01*
X-4203Y-4203D01*
X-3302Y-4942D01*
X-2275Y-5491D01*
X-1159Y-5829D01*
X0Y-5944D01*
X1159Y-5829D01*
X2275Y-5491D01*
X3302Y-4942D01*
X4203Y-4203D01*
X4942Y-3302D01*
X5491Y-2275D01*
X5829Y-1159D01*
X5944Y0D01*
X5829Y1159D01*
X5491Y2275D01*
X4942Y3302D01*
X4203Y4203D01*
X3302Y4942D01*
X2275Y5491D01*
X1159Y5829D01*
X0Y5944D01*
D02*
G37*
%LPD*%
G36*
X95472Y210630D02*
Y184104D01*
X94744D01*
Y188976D01*
X94658Y189406D01*
X94415Y189769D01*
X94051Y190013D01*
X93622Y190098D01*
X93622Y190098D01*
X89084D01*
Y191250D01*
X84538D01*
Y186703D01*
X89084D01*
Y187855D01*
X92501D01*
Y184104D01*
X91231D01*
Y178101D01*
X95472D01*
Y169467D01*
X94972Y169315D01*
X94788Y169591D01*
X94199Y169985D01*
X93504Y170123D01*
X92809Y169985D01*
X92220Y169591D01*
X91826Y169002D01*
X91688Y168307D01*
X91826Y167612D01*
X92220Y167023D01*
X92809Y166629D01*
X93504Y166491D01*
X94199Y166629D01*
X94788Y167023D01*
X94972Y167299D01*
X95472Y167147D01*
Y127953D01*
X85474D01*
X85243Y128453D01*
X85704Y129567D01*
X85881Y130905D01*
X85704Y132244D01*
X85188Y133491D01*
X84366Y134563D01*
X83295Y135384D01*
X82047Y135901D01*
X80709Y136077D01*
X79370Y135901D01*
X78123Y135384D01*
X77052Y134563D01*
X76230Y133491D01*
X75713Y132244D01*
X75537Y130905D01*
X75713Y129567D01*
X76175Y128453D01*
X75943Y127953D01*
X60868D01*
X60636Y128453D01*
X61098Y129567D01*
X61274Y130905D01*
X61098Y132244D01*
X60581Y133491D01*
X59759Y134563D01*
X58688Y135384D01*
X57441Y135901D01*
X56102Y136077D01*
X54764Y135901D01*
X53516Y135384D01*
X52445Y134563D01*
X51623Y133491D01*
X51107Y132244D01*
X50931Y130905D01*
X51107Y129567D01*
X51568Y128453D01*
X51337Y127953D01*
X13780D01*
Y129387D01*
X13854Y129567D01*
X14030Y130905D01*
X13854Y132244D01*
X13780Y132423D01*
Y182087D01*
X63976D01*
X63976Y210630D01*
X95472Y210630D01*
D02*
G37*
%LPC*%
G36*
X82982Y191250D02*
X78435D01*
Y186703D01*
X78835D01*
X78995Y186613D01*
X79169Y186138D01*
X79031Y185931D01*
X78893Y185236D01*
X79018Y184604D01*
X78973Y184460D01*
X78722Y184104D01*
X78317D01*
Y178101D01*
X83100D01*
Y184104D01*
X82696D01*
X82444Y184460D01*
X82399Y184604D01*
X82525Y185236D01*
X82386Y185931D01*
X82205Y186203D01*
X82310Y186524D01*
X82478Y186703D01*
X82982D01*
Y191250D01*
D02*
G37*
G36*
X54331Y180162D02*
X53636Y180024D01*
X53047Y179631D01*
X52653Y179041D01*
X52515Y178347D01*
X52653Y177652D01*
X53047Y177062D01*
X53636Y176669D01*
X54331Y176531D01*
X55026Y176669D01*
X55615Y177062D01*
X56008Y177652D01*
X56147Y178347D01*
X56008Y179041D01*
X55615Y179631D01*
X55026Y180024D01*
X54331Y180162D01*
D02*
G37*
G36*
X46260Y137168D02*
X45281Y137039D01*
X44369Y136661D01*
X43586Y136060D01*
X42985Y135277D01*
X42607Y134365D01*
X42478Y133386D01*
X42607Y132407D01*
X42985Y131495D01*
X43586Y130712D01*
X44369Y130111D01*
X45281Y129733D01*
X46260Y129604D01*
X47239Y129733D01*
X48151Y130111D01*
X48934Y130712D01*
X49535Y131495D01*
X49913Y132407D01*
X50042Y133386D01*
X49913Y134365D01*
X49535Y135277D01*
X48934Y136060D01*
X48151Y136661D01*
X47239Y137039D01*
X46260Y137168D01*
D02*
G37*
G36*
X32480D02*
X31501Y137039D01*
X30589Y136661D01*
X29806Y136060D01*
X29205Y135277D01*
X28827Y134365D01*
X28698Y133386D01*
X28827Y132407D01*
X29205Y131495D01*
X29806Y130712D01*
X30589Y130111D01*
X31501Y129733D01*
X32480Y129604D01*
X33459Y129733D01*
X34371Y130111D01*
X35155Y130712D01*
X35756Y131495D01*
X36133Y132407D01*
X36262Y133386D01*
X36133Y134365D01*
X35756Y135277D01*
X35155Y136060D01*
X34371Y136661D01*
X33459Y137039D01*
X32480Y137168D01*
D02*
G37*
%LPD*%
G36*
X81459Y186723D02*
X81496Y186181D01*
X81508Y186135D01*
X81521Y186101D01*
X81535Y186080D01*
X79882D01*
X79896Y186101D01*
X79909Y186135D01*
X79921Y186181D01*
X79931Y186240D01*
X79946Y186396D01*
X79956Y186601D01*
X79959Y186857D01*
X81459D01*
X81459Y186723D01*
D02*
G37*
G36*
X81521Y184371D02*
X81508Y184338D01*
X81496Y184291D01*
X81486Y184232D01*
X81471Y184077D01*
X81462Y183871D01*
X81459Y183615D01*
X79959D01*
X79958Y183749D01*
X79921Y184291D01*
X79909Y184338D01*
X79896Y184371D01*
X79882Y184393D01*
X81535D01*
X81521Y184371D01*
D02*
G37*
G36*
X47069Y136406D02*
X47823Y136094D01*
X48471Y135597D01*
X48968Y134949D01*
X49280Y134195D01*
X49387Y133386D01*
X49280Y132577D01*
X48968Y131822D01*
X48471Y131175D01*
X47823Y130678D01*
X47069Y130366D01*
X46260Y130259D01*
X45451Y130366D01*
X44696Y130678D01*
X44049Y131175D01*
X43552Y131822D01*
X43240Y132577D01*
X43133Y133386D01*
X43240Y134195D01*
X43552Y134949D01*
X44049Y135597D01*
X44696Y136094D01*
X45450Y136406D01*
X46260Y136513D01*
X47069Y136406D01*
D02*
G37*
G36*
X177217Y117913D02*
X177162Y117840D01*
X177113Y117761D01*
X177070Y117676D01*
X177034Y117586D01*
X177005Y117489D01*
X176982Y117387D01*
X176966Y117279D01*
X176956Y117164D01*
X176953Y117044D01*
X175952D01*
X175949Y117164D01*
X175939Y117279D01*
X175923Y117387D01*
X175900Y117489D01*
X175871Y117586D01*
X175835Y117676D01*
X175792Y117761D01*
X175743Y117840D01*
X175688Y117913D01*
X175626Y117980D01*
X177279D01*
X177217Y117913D01*
D02*
G37*
G36*
X176956Y106261D02*
X176966Y106147D01*
X176982Y106038D01*
X177005Y105936D01*
X177034Y105840D01*
X177070Y105749D01*
X177113Y105664D01*
X177162Y105586D01*
X177217Y105513D01*
X177279Y105446D01*
X175626D01*
X175688Y105513D01*
X175743Y105586D01*
X175792Y105664D01*
X175835Y105749D01*
X175871Y105840D01*
X175900Y105936D01*
X175923Y106038D01*
X175939Y106147D01*
X175949Y106261D01*
X175952Y106381D01*
X176953D01*
X176956Y106261D01*
D02*
G37*
G36*
X37343Y96435D02*
X37276Y96497D01*
X37203Y96552D01*
X37124Y96601D01*
X37040Y96644D01*
X36949Y96680D01*
X36853Y96709D01*
X36750Y96732D01*
X36642Y96748D01*
X36528Y96758D01*
X36408Y96761D01*
Y97761D01*
X36528Y97765D01*
X36642Y97774D01*
X36750Y97791D01*
X36853Y97814D01*
X36949Y97843D01*
X37040Y97879D01*
X37124Y97922D01*
X37203Y97970D01*
X37276Y98026D01*
X37343Y98088D01*
Y96435D01*
D02*
G37*
G36*
X33968Y79415D02*
X33978Y79300D01*
X33994Y79192D01*
X34017Y79090D01*
X34046Y78993D01*
X34082Y78903D01*
X34125Y78818D01*
X34174Y78739D01*
X34229Y78666D01*
X34291Y78599D01*
X32638D01*
X32700Y78666D01*
X32755Y78739D01*
X32804Y78818D01*
X32847Y78903D01*
X32883Y78993D01*
X32912Y79090D01*
X32935Y79192D01*
X32952Y79300D01*
X32961Y79415D01*
X32965Y79535D01*
X33965D01*
X33968Y79415D01*
D02*
G37*
G36*
X110115Y95229D02*
X110059Y95157D01*
X110011Y95078D01*
X109968Y94993D01*
X109932Y94902D01*
X109903Y94806D01*
X109880Y94704D01*
X109863Y94595D01*
X109854Y94481D01*
X109850Y94361D01*
X108850D01*
X108847Y94481D01*
X108837Y94595D01*
X108821Y94704D01*
X108798Y94806D01*
X108769Y94902D01*
X108733Y94993D01*
X108690Y95078D01*
X108641Y95157D01*
X108586Y95229D01*
X108524Y95296D01*
X110177D01*
X110115Y95229D01*
D02*
G37*
G36*
X125628Y92244D02*
X125537Y92241D01*
X125446Y92228D01*
X125355Y92207D01*
X125265Y92177D01*
X125176Y92139D01*
X125087Y92092D01*
X124998Y92035D01*
X124910Y91970D01*
X124823Y91896D01*
X124735Y91814D01*
X124028Y92521D01*
X124111Y92608D01*
X124185Y92696D01*
X124250Y92784D01*
X124306Y92873D01*
X124353Y92962D01*
X124392Y93051D01*
X124422Y93141D01*
X124443Y93231D01*
X124455Y93322D01*
X124459Y93413D01*
X125628Y92244D01*
D02*
G37*
G36*
X28744Y93401D02*
X28756Y93310D01*
X28777Y93220D01*
X28807Y93130D01*
X28845Y93040D01*
X28893Y92951D01*
X28949Y92863D01*
X29014Y92775D01*
X29088Y92687D01*
X29170Y92600D01*
X28463Y91893D01*
X28376Y91975D01*
X28288Y92049D01*
X28200Y92114D01*
X28112Y92170D01*
X28023Y92218D01*
X27933Y92256D01*
X27843Y92286D01*
X27753Y92307D01*
X27662Y92319D01*
X27571Y92323D01*
X28740Y93492D01*
X28744Y93401D01*
D02*
G37*
G36*
X48003Y92140D02*
X47948Y92067D01*
X47899Y91988D01*
X47856Y91903D01*
X47820Y91813D01*
X47791Y91716D01*
X47768Y91614D01*
X47752Y91505D01*
X47742Y91391D01*
X47739Y91271D01*
X46739D01*
X46735Y91391D01*
X46726Y91505D01*
X46709Y91614D01*
X46686Y91716D01*
X46657Y91813D01*
X46621Y91903D01*
X46579Y91988D01*
X46530Y92067D01*
X46474Y92140D01*
X46412Y92207D01*
X48066D01*
X48003Y92140D01*
D02*
G37*
G36*
X30031Y77446D02*
X30041Y77332D01*
X30057Y77224D01*
X30080Y77121D01*
X30109Y77025D01*
X30145Y76934D01*
X30188Y76850D01*
X30237Y76771D01*
X30292Y76698D01*
X30354Y76631D01*
X28701D01*
X28763Y76698D01*
X28818Y76771D01*
X28867Y76850D01*
X28910Y76934D01*
X28946Y77025D01*
X28975Y77121D01*
X28998Y77224D01*
X29015Y77332D01*
X29024Y77446D01*
X29028Y77566D01*
X30028D01*
X30031Y77446D01*
D02*
G37*
G36*
X30773Y46470D02*
X30782Y46356D01*
X30799Y46247D01*
X30822Y46145D01*
X30851Y46049D01*
X30887Y45958D01*
X30929Y45873D01*
X30979Y45794D01*
X31034Y45722D01*
X31096Y45654D01*
X29443D01*
X29505Y45722D01*
X29560Y45794D01*
X29609Y45873D01*
X29652Y45958D01*
X29688Y46049D01*
X29717Y46145D01*
X29740Y46247D01*
X29756Y46356D01*
X29766Y46470D01*
X29769Y46590D01*
X30769D01*
X30773Y46470D01*
D02*
G37*
G36*
X124156Y67087D02*
X124090Y67149D01*
X124017Y67204D01*
X123938Y67253D01*
X123853Y67296D01*
X123763Y67332D01*
X123666Y67361D01*
X123564Y67384D01*
X123456Y67400D01*
X123341Y67410D01*
X123221Y67413D01*
Y68413D01*
X123341Y68417D01*
X123456Y68427D01*
X123564Y68443D01*
X123666Y68466D01*
X123763Y68495D01*
X123853Y68531D01*
X123938Y68573D01*
X124017Y68622D01*
X124090Y68678D01*
X124156Y68740D01*
Y67087D01*
D02*
G37*
G36*
X127239Y64020D02*
X127165Y64071D01*
X127087Y64116D01*
X127003Y64157D01*
X126914Y64192D01*
X126820Y64221D01*
X126721Y64245D01*
X126617Y64264D01*
X126507Y64278D01*
X126273Y64288D01*
X126109Y65288D01*
X126230Y65292D01*
X126344Y65303D01*
X126450Y65321D01*
X126550Y65347D01*
X126642Y65380D01*
X126727Y65421D01*
X126806Y65468D01*
X126877Y65523D01*
X126941Y65586D01*
X126998Y65656D01*
X127239Y64020D01*
D02*
G37*
G36*
X110289Y65601D02*
X110323Y65588D01*
X110369Y65576D01*
X110428Y65566D01*
X110584Y65551D01*
X110789Y65541D01*
X111045Y65538D01*
Y64038D01*
X110911Y64038D01*
X110369Y64001D01*
X110323Y63989D01*
X110289Y63976D01*
X110268Y63962D01*
Y65615D01*
X110289Y65601D01*
D02*
G37*
G36*
X110119Y63833D02*
X110097Y63810D01*
X110077Y63775D01*
X110059Y63727D01*
X110044Y63667D01*
X110031Y63595D01*
X110021Y63510D01*
X110007Y63305D01*
X110002Y63050D01*
X108502Y63342D01*
X108483Y64074D01*
X110119Y63833D01*
D02*
G37*
G36*
X124767Y54637D02*
X124803Y54095D01*
X124815Y54048D01*
X124828Y54014D01*
X124843Y53993D01*
X123189D01*
X123204Y54014D01*
X123217Y54048D01*
X123228Y54095D01*
X123238Y54154D01*
X123254Y54309D01*
X123263Y54515D01*
X123266Y54771D01*
X124766D01*
X124767Y54637D01*
D02*
G37*
G36*
X110003Y53849D02*
X110040Y53307D01*
X110051Y53261D01*
X110064Y53227D01*
X110079Y53206D01*
X108425D01*
X108440Y53227D01*
X108453Y53261D01*
X108464Y53307D01*
X108474Y53366D01*
X108490Y53522D01*
X108499Y53727D01*
X108502Y53983D01*
X110002D01*
X110003Y53849D01*
D02*
G37*
G36*
X124828Y52285D02*
X124815Y52251D01*
X124803Y52205D01*
X124793Y52146D01*
X124778Y51990D01*
X124769Y51784D01*
X124766Y51529D01*
X123266D01*
X123265Y51663D01*
X123228Y52205D01*
X123217Y52251D01*
X123204Y52285D01*
X123189Y52306D01*
X124843D01*
X124828Y52285D01*
D02*
G37*
G36*
X106802Y51855D02*
X106812Y51741D01*
X106829Y51633D01*
X106851Y51531D01*
X106881Y51434D01*
X106917Y51344D01*
X106959Y51259D01*
X107008Y51180D01*
X107064Y51107D01*
X107126Y51040D01*
X105472D01*
X105535Y51107D01*
X105590Y51180D01*
X105639Y51259D01*
X105682Y51344D01*
X105718Y51434D01*
X105747Y51531D01*
X105770Y51633D01*
X105786Y51741D01*
X105796Y51855D01*
X105799Y51976D01*
X106799D01*
X106802Y51855D01*
D02*
G37*
G36*
X110458Y36887D02*
X110531Y36831D01*
X110609Y36782D01*
X110694Y36740D01*
X110785Y36704D01*
X110881Y36674D01*
X110984Y36652D01*
X111092Y36635D01*
X111206Y36625D01*
X111326Y36622D01*
Y35622D01*
X111206Y35619D01*
X111092Y35609D01*
X110984Y35593D01*
X110881Y35570D01*
X110785Y35540D01*
X110694Y35504D01*
X110609Y35462D01*
X110531Y35413D01*
X110458Y35357D01*
X110391Y35295D01*
Y36949D01*
X110458Y36887D01*
D02*
G37*
G36*
X124781Y36414D02*
X124826Y36159D01*
X124901Y35934D01*
X125006Y35739D01*
X125141Y35574D01*
X125306Y35439D01*
X125501Y35334D01*
X125726Y35259D01*
X125900Y35228D01*
X126023Y35236D01*
X126070Y35248D01*
X126104Y35261D01*
X126125Y35276D01*
Y35206D01*
X126266Y35199D01*
Y33699D01*
X126125Y33693D01*
Y33622D01*
X126104Y33637D01*
X126070Y33650D01*
X126023Y33661D01*
X125964Y33671D01*
X125910Y33676D01*
X125726Y33650D01*
X125501Y33589D01*
X125306Y33504D01*
X125141Y33394D01*
X125006Y33260D01*
X124901Y33102D01*
X124826Y32919D01*
X124781Y32712D01*
X124766Y32480D01*
X123266Y30480D01*
X123256Y30765D01*
X123226Y31020D01*
X123176Y31245D01*
X123106Y31440D01*
X123016Y31605D01*
X122906Y31740D01*
X122776Y31845D01*
X122626Y31920D01*
X122456Y31965D01*
X122266Y31980D01*
Y32980D01*
X122456Y32995D01*
X122626Y33039D01*
X122776Y33112D01*
X122906Y33215D01*
X123016Y33347D01*
X123106Y33509D01*
X123176Y33700D01*
X123226Y33920D01*
X123256Y34170D01*
X123266Y34449D01*
X124766Y36699D01*
X124781Y36414D01*
D02*
G37*
G36*
X124767Y19203D02*
X124803Y18662D01*
X124815Y18615D01*
X124828Y18581D01*
X124843Y18560D01*
X123189D01*
X123204Y18581D01*
X123217Y18615D01*
X123228Y18662D01*
X123238Y18721D01*
X123254Y18876D01*
X123263Y19082D01*
X123266Y19338D01*
X124766D01*
X124767Y19203D01*
D02*
G37*
G36*
X83921Y64018D02*
X83538Y64103D01*
X83177Y64162D01*
X82840Y64194D01*
X82525Y64200D01*
X82234Y64179D01*
X81965Y64131D01*
X81719Y64058D01*
X81496Y63958D01*
X81295Y63831D01*
X81117Y63678D01*
X80582Y64557D01*
X80697Y64691D01*
X80812Y64863D01*
X80927Y65073D01*
X81041Y65320D01*
X81155Y65605D01*
X81383Y66289D01*
X81608Y67122D01*
X81721Y67596D01*
X83921Y64018D01*
D02*
G37*
G36*
X95446Y63932D02*
X95383Y63906D01*
X95327Y63863D01*
X95279Y63802D01*
X95238Y63724D01*
X95205Y63628D01*
X95179Y63515D01*
X95161Y63384D01*
X95149Y63236D01*
X95146Y63071D01*
X94146D01*
X94142Y63236D01*
X94131Y63384D01*
X94112Y63515D01*
X94086Y63628D01*
X94053Y63724D01*
X94012Y63802D01*
X93964Y63863D01*
X93909Y63906D01*
X93846Y63932D01*
X93775Y63941D01*
X95516D01*
X95446Y63932D01*
D02*
G37*
G36*
X76442Y64478D02*
X75930Y63893D01*
X75722Y63615D01*
X75546Y63349D01*
X75402Y63092D01*
X75290Y62846D01*
X75210Y62611D01*
X75162Y62386D01*
X75146Y62171D01*
X74146D01*
X74130Y62386D01*
X74082Y62611D01*
X74002Y62846D01*
X73890Y63092D01*
X73746Y63349D01*
X73570Y63615D01*
X73362Y63893D01*
X72850Y64478D01*
X72546Y64787D01*
X76746D01*
X76442Y64478D01*
D02*
G37*
G36*
X66442D02*
X65930Y63893D01*
X65722Y63615D01*
X65546Y63349D01*
X65402Y63092D01*
X65290Y62846D01*
X65210Y62611D01*
X65162Y62386D01*
X65146Y62171D01*
X64146D01*
X64130Y62386D01*
X64082Y62611D01*
X64002Y62846D01*
X63890Y63092D01*
X63746Y63349D01*
X63570Y63615D01*
X63362Y63893D01*
X62850Y64478D01*
X62546Y64787D01*
X66746D01*
X66442Y64478D01*
D02*
G37*
G36*
X79619Y59025D02*
X79646Y58619D01*
X79655Y58572D01*
X79667Y58535D01*
X79680Y58510D01*
X79694Y58496D01*
X78543D01*
X78557Y58510D01*
X78570Y58535D01*
X78582Y58572D01*
X78591Y58619D01*
X78600Y58678D01*
X78612Y58829D01*
X78618Y59139D01*
X79618D01*
X79619Y59025D01*
D02*
G37*
G36*
X77341Y57097D02*
X77352Y56983D01*
X77371Y56877D01*
X77397Y56778D01*
X77430Y56686D01*
X77470Y56601D01*
X77518Y56523D01*
X77574Y56453D01*
X77637Y56390D01*
X77707Y56334D01*
X76074Y56073D01*
X76124Y56146D01*
X76169Y56225D01*
X76208Y56309D01*
X76243Y56398D01*
X76272Y56492D01*
X76295Y56592D01*
X76314Y56696D01*
X76327Y56806D01*
X76337Y57040D01*
X77337Y57218D01*
X77341Y57097D01*
D02*
G37*
G36*
X75150Y55024D02*
X75161Y54911D01*
X75180Y54806D01*
X75207Y54708D01*
X75242Y54619D01*
X75284Y54538D01*
X75334Y54465D01*
X75391Y54400D01*
X75456Y54342D01*
X75529Y54293D01*
X73924Y53896D01*
X73966Y53970D01*
X74004Y54050D01*
X74037Y54134D01*
X74066Y54224D01*
X74090Y54318D01*
X74110Y54418D01*
X74137Y54633D01*
X74143Y54748D01*
X74146Y54868D01*
X75146Y55146D01*
X75150Y55024D01*
D02*
G37*
G36*
X71991Y50354D02*
X71924Y50416D01*
X71851Y50472D01*
X71772Y50521D01*
X71688Y50564D01*
X71597Y50599D01*
X71501Y50629D01*
X71398Y50652D01*
X71290Y50668D01*
X71176Y50678D01*
X71056Y50681D01*
Y51681D01*
X71176Y51684D01*
X71290Y51694D01*
X71398Y51710D01*
X71501Y51733D01*
X71597Y51763D01*
X71688Y51799D01*
X71772Y51841D01*
X71851Y51890D01*
X71924Y51946D01*
X71991Y52008D01*
Y50354D01*
D02*
G37*
G36*
X73413Y37677D02*
X73426Y37586D01*
X73447Y37495D01*
X73476Y37406D01*
X73515Y37316D01*
X73562Y37227D01*
X73619Y37139D01*
X73684Y37051D01*
X73757Y36963D01*
X73840Y36876D01*
X73133Y36169D01*
X73046Y36251D01*
X72958Y36325D01*
X72870Y36390D01*
X72781Y36446D01*
X72692Y36494D01*
X72603Y36532D01*
X72513Y36562D01*
X72423Y36583D01*
X72332Y36595D01*
X72241Y36599D01*
X73410Y37768D01*
X73413Y37677D01*
D02*
G37*
G36*
X71226Y36149D02*
X71264Y36095D01*
X71319Y36027D01*
X71570Y35745D01*
X72116Y35185D01*
X71503Y34383D01*
X71413Y34467D01*
X71326Y34539D01*
X71240Y34597D01*
X71156Y34642D01*
X71074Y34675D01*
X70994Y34695D01*
X70915Y34701D01*
X70839Y34695D01*
X70764Y34676D01*
X70692Y34644D01*
X71201Y36191D01*
X71226Y36149D01*
D02*
G37*
G36*
X69059Y34204D02*
X69122Y34141D01*
X69193Y34085D01*
X69270Y34037D01*
X69355Y33997D01*
X69447Y33963D01*
X69546Y33937D01*
X69652Y33919D01*
X69766Y33908D01*
X69887Y33904D01*
X69709Y32904D01*
X69589Y32901D01*
X69365Y32880D01*
X69261Y32862D01*
X69161Y32838D01*
X69067Y32809D01*
X68978Y32775D01*
X68894Y32736D01*
X68815Y32691D01*
X68742Y32641D01*
X69003Y34274D01*
X69059Y34204D01*
D02*
G37*
G36*
X65850Y30319D02*
X65780Y30319D01*
X65707Y30310D01*
X65631Y30291D01*
X65554Y30263D01*
X65474Y30224D01*
X65392Y30176D01*
X65308Y30118D01*
X65221Y30050D01*
X65132Y29972D01*
X65041Y29885D01*
X64334Y30592D01*
X64421Y30683D01*
X64567Y30859D01*
X64625Y30943D01*
X64673Y31025D01*
X64711Y31105D01*
X64740Y31183D01*
X64759Y31258D01*
X64768Y31331D01*
X64768Y31402D01*
X65850Y30319D01*
D02*
G37*
G36*
X95151Y24465D02*
X95166Y24293D01*
X95191Y24141D01*
X95226Y24010D01*
X95271Y23898D01*
X95326Y23807D01*
X95391Y23736D01*
X95466Y23686D01*
X95551Y23655D01*
X95646Y23645D01*
X93646D01*
X93741Y23655D01*
X93826Y23686D01*
X93901Y23736D01*
X93966Y23807D01*
X94021Y23898D01*
X94066Y24010D01*
X94101Y24141D01*
X94126Y24293D01*
X94141Y24465D01*
X94146Y24657D01*
X95146D01*
X95151Y24465D01*
D02*
G37*
G36*
X85162Y25213D02*
X85210Y24988D01*
X85290Y24752D01*
X85402Y24506D01*
X85546Y24250D01*
X85722Y23983D01*
X85930Y23706D01*
X86442Y23120D01*
X86746Y22812D01*
X82546D01*
X82850Y23120D01*
X83362Y23706D01*
X83570Y23983D01*
X83746Y24250D01*
X83890Y24506D01*
X84002Y24752D01*
X84082Y24988D01*
X84130Y25213D01*
X84146Y25427D01*
X85146D01*
X85162Y25213D01*
D02*
G37*
G36*
X75162D02*
X75210Y24988D01*
X75290Y24752D01*
X75402Y24506D01*
X75546Y24250D01*
X75722Y23983D01*
X75930Y23706D01*
X76442Y23120D01*
X76746Y22812D01*
X72546D01*
X72850Y23120D01*
X73362Y23706D01*
X73570Y23983D01*
X73746Y24250D01*
X73890Y24506D01*
X74002Y24752D01*
X74082Y24988D01*
X74130Y25213D01*
X74146Y25427D01*
X75146D01*
X75162Y25213D01*
D02*
G37*
G36*
X65162D02*
X65210Y24988D01*
X65290Y24752D01*
X65402Y24506D01*
X65546Y24250D01*
X65722Y23983D01*
X65930Y23706D01*
X66442Y23120D01*
X66746Y22812D01*
X62546D01*
X62850Y23120D01*
X63362Y23706D01*
X63570Y23983D01*
X63746Y24250D01*
X63890Y24506D01*
X64002Y24752D01*
X64082Y24988D01*
X64130Y25213D01*
X64146Y25427D01*
X65146D01*
X65162Y25213D01*
D02*
G37*
D13*
X-7514Y92809D02*
X-5906Y91201D01*
X-7514Y92809D02*
Y209003D01*
X-5906Y59055D02*
Y91201D01*
X41732Y73819D02*
Y88256D01*
X42590Y89114D01*
X46353D01*
X47239Y90000D02*
Y93050D01*
X46353Y89114D02*
X47239Y90000D01*
X109350Y92585D02*
Y96140D01*
Y92585D02*
X111679Y90257D01*
X122471D01*
X125640Y93425D01*
X30928Y72835D02*
X40748D01*
X30269Y72176D02*
X30928Y72835D01*
X40748D02*
X41732Y73819D01*
X30269Y44811D02*
Y72176D01*
X33465Y77756D02*
Y96457D01*
X34269Y97261D02*
X38187D01*
X-3347Y84055D02*
Y90453D01*
Y84055D02*
X-1969Y82677D01*
X10458Y40996D02*
X13917Y37538D01*
X11811Y25591D02*
X13917Y27696D01*
Y37538D01*
X-471Y31496D02*
X0D01*
X-784Y31809D02*
X-471Y31496D01*
X-2674Y31809D02*
X-784D01*
X-2986Y31496D02*
X-2674Y31809D01*
X-3937Y31496D02*
X-2986D01*
X83661Y66929D02*
X84646D01*
X76837Y60105D02*
X83661Y66929D01*
X76837Y55557D02*
Y60105D01*
X79118Y57465D02*
Y59139D01*
X81908Y61929D01*
X93504D01*
X94646Y63071D01*
Y66929D01*
X76837Y55557D02*
X77024Y55370D01*
X74646Y53559D02*
X74929Y53276D01*
X74646Y53559D02*
Y66929D01*
X65945Y51181D02*
X72835D01*
X64646Y52480D02*
X65945Y51181D01*
X64646Y52480D02*
Y66929D01*
X8858Y39370D02*
X10827Y37402D01*
X94646Y20669D02*
Y31339D01*
X92520Y33465D02*
X94646Y31339D01*
X76544Y33465D02*
X92520D01*
X72229Y37780D02*
X76544Y33465D01*
X84646Y20669D02*
Y29528D01*
X83661Y30512D02*
X84646Y29528D01*
X76082Y30512D02*
X83661D01*
X70908Y35685D02*
X76082Y30512D01*
X70134Y35685D02*
X70908D01*
X74646Y20669D02*
Y29685D01*
X70926Y33404D02*
X74646Y29685D01*
X68226Y33404D02*
X70926D01*
X68040Y33591D02*
X68226Y33404D01*
X64646Y20669D02*
Y30197D01*
X65945Y31496D01*
X93622Y188976D02*
Y188976D01*
Y181102D02*
Y188976D01*
X86811D02*
X93622D01*
X123204Y64788D02*
X127780D01*
X127953Y64961D01*
X176453Y104602D02*
Y118823D01*
X107874Y67913D02*
X125000D01*
X106299Y66339D02*
X107874Y67913D01*
X106299Y50197D02*
Y66339D01*
X119095Y32480D02*
X124016D01*
X115453Y36122D02*
X119095Y32480D01*
X109547Y36122D02*
X115453D01*
X-4921Y32480D02*
X-3937Y31496D01*
X-4921Y32480D02*
Y41339D01*
X-1969Y38386D02*
Y82677D01*
X27559Y93504D02*
X29528Y91535D01*
Y75787D02*
Y91535D01*
X33465Y96457D02*
X34269Y97261D01*
X0Y31496D02*
X1969Y33465D01*
X368Y41082D02*
Y84277D01*
X0Y84646D02*
X368Y84277D01*
X312Y41026D02*
X368Y41082D01*
X1969Y33465D02*
Y82677D01*
X-984Y34449D02*
X312Y35745D01*
Y41026D01*
X12795Y75787D02*
Y76771D01*
X14764Y78740D01*
X25591D01*
X1969Y82677D02*
X2953Y83661D01*
X8858Y39370D02*
Y79724D01*
X5906Y82677D02*
X8858Y79724D01*
X9843Y81003D02*
Y83465D01*
Y81003D02*
X10458Y80387D01*
Y40996D02*
Y80387D01*
X2953Y83661D02*
Y87837D01*
X1969Y88821D02*
X2953Y87837D01*
X1969Y88821D02*
Y89567D01*
X5906Y82677D02*
Y86614D01*
D17*
X86811Y188976D02*
D03*
X80709D02*
D03*
D95*
X124016Y17717D02*
Y32480D01*
X80709Y185236D02*
Y188976D01*
Y181102D02*
Y185236D01*
X124016Y32480D02*
Y34449D01*
Y53150D01*
Y34449D02*
X126969D01*
X109252Y64616D02*
X109424Y64788D01*
X109252Y52362D02*
Y64616D01*
X124016Y53150D02*
Y63976D01*
X123204Y64788D02*
X124016Y63976D01*
X109424Y64788D02*
X123204D01*
D99*
X20079Y173622D02*
X22501D01*
D100*
X94646Y20669D02*
D03*
Y66929D02*
D03*
D101*
X84646Y20669D02*
D03*
X74646D02*
D03*
X64646D02*
D03*
X54646D02*
D03*
X84646Y66929D02*
D03*
X74646D02*
D03*
X64646D02*
D03*
X54646D02*
D03*
D102*
X173228Y206697D02*
D03*
X139764D02*
D03*
X163386Y209177D02*
D03*
X228346Y206697D02*
D03*
X194882D02*
D03*
X218504Y209177D02*
D03*
X3268Y197047D02*
D03*
Y163583D02*
D03*
X787Y187205D02*
D03*
X104331Y133386D02*
D03*
X118110D02*
D03*
X46260D02*
D03*
X32480D02*
D03*
D103*
X149606Y209177D02*
D03*
X204724D02*
D03*
X90551Y133386D02*
D03*
X18701D02*
D03*
D104*
X5906Y21457D02*
D03*
Y76968D02*
D03*
D105*
X787Y173425D02*
D03*
D106*
X0Y216535D02*
D03*
X255906D02*
D03*
Y0D02*
D03*
X0Y98425D02*
D03*
X118110D02*
D03*
Y0D02*
D03*
X0D02*
D03*
D107*
X22501Y173622D02*
D03*
X15473D02*
D03*
X112619Y117732D02*
D03*
Y112291D02*
D03*
X182579Y148059D02*
D03*
X198819Y148425D02*
D03*
X68760Y207440D02*
D03*
X41732Y112266D02*
D03*
Y117707D02*
D03*
X170904Y151744D02*
D03*
X164365Y151575D02*
D03*
X179134Y196653D02*
D03*
X108632Y176181D02*
D03*
X123940Y176073D02*
D03*
X116142Y170669D02*
D03*
X133071D02*
D03*
X139140Y170510D02*
D03*
D108*
X-7514Y209003D02*
D03*
X-5906Y59055D02*
D03*
X47239Y93050D02*
D03*
X109350Y96140D02*
D03*
X125640Y93425D02*
D03*
X33465Y77756D02*
D03*
X30269Y44811D02*
D03*
X37342Y93312D02*
D03*
X38187Y97261D02*
D03*
X119232Y45374D02*
D03*
X-3347Y90453D02*
D03*
X11636Y29528D02*
D03*
X-1777Y25591D02*
D03*
X-1729Y29528D02*
D03*
X25591Y68706D02*
D03*
Y72835D02*
D03*
X107583Y17717D02*
D03*
X115157Y59055D02*
D03*
X124016Y17717D02*
D03*
X243352Y143263D02*
D03*
X104331Y38189D02*
D03*
X76378D02*
D03*
X80709Y185236D02*
D03*
X187992Y115157D02*
D03*
X156496D02*
D03*
X127953Y64961D02*
D03*
X176453Y104602D02*
D03*
Y118823D02*
D03*
X125000Y67913D02*
D03*
X106299Y50197D02*
D03*
X109547Y36122D02*
D03*
X-4921Y41339D02*
D03*
X27559Y93504D02*
D03*
X29528Y75787D02*
D03*
X-1969Y38386D02*
D03*
X-984Y34449D02*
D03*
X12795Y75787D02*
D03*
X25591Y78740D02*
D03*
X1969Y89567D02*
D03*
X5906Y86614D02*
D03*
X9843Y83465D02*
D03*
X0Y84646D02*
D03*
X164370Y31496D02*
D03*
X72229Y37780D02*
D03*
X65945Y31496D02*
D03*
X68040Y33591D02*
D03*
X70134Y35685D02*
D03*
X120768Y36122D02*
D03*
X79118Y57465D02*
D03*
X77024Y55370D02*
D03*
X74929Y53276D02*
D03*
X72835Y51181D02*
D03*
X116142Y49213D02*
D03*
X11811Y25591D02*
D03*
X10827Y37402D02*
D03*
X109424Y64788D02*
D03*
X109252Y52362D02*
D03*
X112205Y48228D02*
D03*
X124016Y53150D02*
D03*
X135630Y47441D02*
D03*
X93504Y168307D02*
D03*
X54331Y178347D02*
D03*
X163386Y91535D02*
D03*
X115157Y30512D02*
D03*
X126969Y34449D02*
D03*
D109*
X76378Y202559D02*
D03*
Y206890D02*
D03*
X80709Y202559D02*
D03*
Y206890D02*
D03*
X85039Y202559D02*
D03*
Y206890D02*
D03*
D110*
X80709Y181102D02*
D03*
X93622D02*
D03*
M02*
