G04*
G04 #@! TF.GenerationSoftware,Altium Limited,Altium Designer,19.1.5 (86)*
G04*
G04 Layer_Color=32896*
%FSLAX25Y25*%
%MOIN*%
G70*
G01*
G75*
%ADD10C,0.01000*%
%ADD14C,0.00591*%
D10*
X29015Y239449D02*
X33740D01*
X219133Y257165D02*
X230133D01*
X218342Y232543D02*
Y250543D01*
X220342D01*
X231342Y232543D02*
Y250543D01*
X229342D02*
X231342D01*
X218342Y232543D02*
X220342D01*
X229342D02*
X231342D01*
X175295Y257165D02*
X186295D01*
X174504Y232543D02*
Y250543D01*
X176504D01*
X187504Y232543D02*
Y250543D01*
X185504D02*
X187504D01*
X174504Y232543D02*
X176504D01*
X185504D02*
X187504D01*
X59488Y25512D02*
X109488D01*
X59488D02*
Y35311D01*
X109488D01*
Y25512D02*
Y35311D01*
X59488Y71772D02*
X109488D01*
X59488D02*
Y81571D01*
X109488D01*
Y71772D02*
Y81571D01*
D14*
X98778Y181366D02*
Y183465D01*
X100352D01*
Y182415D01*
Y183465D01*
X101927D01*
Y180316D02*
X99828D01*
X98778Y179267D01*
X99828Y178217D01*
X101927D01*
X100352D01*
Y180316D01*
X101927Y177167D02*
X98778D01*
X101927Y175068D01*
X98778D01*
X101927Y169296D02*
X98778D01*
X100352Y170870D01*
Y168771D01*
X101927Y164573D02*
Y163523D01*
Y164048D01*
X98778D01*
X99303Y164573D01*
X101927Y159850D02*
Y161949D01*
X99828Y159850D01*
X99303D01*
X98778Y160375D01*
Y161424D01*
X99303Y161949D01*
X98778Y158801D02*
X100877D01*
X101927Y157751D01*
X100877Y156702D01*
X98778D01*
X110786Y181366D02*
Y183465D01*
X112360D01*
Y182415D01*
Y183465D01*
X113934D01*
Y180316D02*
X111835D01*
X110786Y179267D01*
X111835Y178217D01*
X113934D01*
X112360D01*
Y180316D01*
X113934Y177167D02*
X110786D01*
X113934Y175068D01*
X110786D01*
X111311Y170870D02*
X110786Y170345D01*
Y169296D01*
X111311Y168771D01*
X111835D01*
X112360Y169296D01*
Y169821D01*
Y169296D01*
X112885Y168771D01*
X113409D01*
X113934Y169296D01*
Y170345D01*
X113409Y170870D01*
X113934Y164573D02*
Y163523D01*
Y164048D01*
X110786D01*
X111311Y164573D01*
X113934Y159850D02*
Y161949D01*
X111835Y159850D01*
X111311D01*
X110786Y160375D01*
Y161424D01*
X111311Y161949D01*
X110786Y158801D02*
X112885D01*
X113934Y157751D01*
X112885Y156702D01*
X110786D01*
X39704Y238583D02*
X36555D01*
Y240157D01*
X37080Y240682D01*
X39179D01*
X39704Y240157D01*
Y238583D01*
X36555Y243306D02*
X39704D01*
X38130Y241731D01*
Y243830D01*
X27300Y183070D02*
X25201D01*
X26251Y184120D02*
Y182021D01*
X24152Y181496D02*
X23102D01*
X23627D01*
Y184645D01*
X24152Y184120D01*
X19429Y181496D02*
X21528D01*
X19429Y183595D01*
Y184120D01*
X19954Y184645D01*
X21003D01*
X21528Y184120D01*
X18379Y184645D02*
Y182546D01*
X17330Y181496D01*
X16280Y182546D01*
Y184645D01*
X29097Y183637D02*
Y185736D01*
X30672D01*
Y184686D01*
Y185736D01*
X32246D01*
Y182587D02*
X30147D01*
X29097Y181538D01*
X30147Y180488D01*
X32246D01*
X30672D01*
Y182587D01*
X32246Y179439D02*
X29097D01*
X32246Y177339D01*
X29097D01*
X32246Y173141D02*
Y172092D01*
Y172617D01*
X29097D01*
X29622Y173141D01*
X32246Y167369D02*
Y166320D01*
Y166844D01*
X29097D01*
X29622Y167369D01*
X32246Y162646D02*
Y164745D01*
X30147Y162646D01*
X29622D01*
X29097Y163171D01*
Y164220D01*
X29622Y164745D01*
X29097Y161597D02*
X31196D01*
X32246Y160547D01*
X31196Y159497D01*
X29097D01*
X28589Y133559D02*
Y135658D01*
X30163D01*
Y134609D01*
Y135658D01*
X31738D01*
Y132510D02*
X29639D01*
X28589Y131460D01*
X29639Y130411D01*
X31738D01*
X30163D01*
Y132510D01*
X31738Y129361D02*
X28589D01*
X31738Y127262D01*
X28589D01*
X31738Y123064D02*
Y122014D01*
Y122539D01*
X28589D01*
X29114Y123064D01*
Y115193D02*
X28589Y115717D01*
Y116767D01*
X29114Y117292D01*
X31213D01*
X31738Y116767D01*
Y115717D01*
X31213Y115193D01*
X30163D01*
Y116242D01*
X31738Y114143D02*
X28589D01*
X31738Y112044D01*
X28589D01*
Y110994D02*
X31738D01*
Y109420D01*
X31213Y108895D01*
X29114D01*
X28589Y109420D01*
Y110994D01*
X98731Y133653D02*
Y135752D01*
X100305D01*
Y134703D01*
Y135752D01*
X101879D01*
Y132604D02*
X99780D01*
X98731Y131554D01*
X99780Y130505D01*
X101879D01*
X100305D01*
Y132604D01*
X101879Y129455D02*
X98731D01*
X101879Y127356D01*
X98731D01*
X101879Y121584D02*
X98731D01*
X100305Y123158D01*
Y121059D01*
X99256Y114762D02*
X98731Y115287D01*
Y116336D01*
X99256Y116861D01*
X101355D01*
X101879Y116336D01*
Y115287D01*
X101355Y114762D01*
X100305D01*
Y115811D01*
X101879Y113712D02*
X98731D01*
X101879Y111613D01*
X98731D01*
Y110564D02*
X101879D01*
Y108989D01*
X101355Y108465D01*
X99256D01*
X98731Y108989D01*
Y110564D01*
X112529Y133653D02*
Y135752D01*
X114103D01*
Y134703D01*
Y135752D01*
X115678D01*
Y132604D02*
X113579D01*
X112529Y131554D01*
X113579Y130505D01*
X115678D01*
X114103D01*
Y132604D01*
X115678Y129455D02*
X112529D01*
X115678Y127356D01*
X112529D01*
X113054Y123158D02*
X112529Y122633D01*
Y121584D01*
X113054Y121059D01*
X113579D01*
X114103Y121584D01*
Y122108D01*
Y121584D01*
X114628Y121059D01*
X115153D01*
X115678Y121584D01*
Y122633D01*
X115153Y123158D01*
X113054Y114762D02*
X112529Y115287D01*
Y116336D01*
X113054Y116861D01*
X115153D01*
X115678Y116336D01*
Y115287D01*
X115153Y114762D01*
X114103D01*
Y115811D01*
X115678Y113712D02*
X112529D01*
X115678Y111613D01*
X112529D01*
Y110564D02*
X115678D01*
Y108989D01*
X115153Y108465D01*
X113054D01*
X112529Y108989D01*
Y110564D01*
X126504Y133653D02*
X125979Y134178D01*
Y135228D01*
X126504Y135752D01*
X128603D01*
X129128Y135228D01*
Y134178D01*
X128603Y133653D01*
X127554D01*
Y134703D01*
X129128Y132604D02*
X125979D01*
X129128Y130505D01*
X125979D01*
Y129455D02*
X129128D01*
Y127881D01*
X128603Y127356D01*
X126504D01*
X125979Y127881D01*
Y129455D01*
X54654Y133653D02*
X54129Y134178D01*
Y135228D01*
X54654Y135752D01*
X56753D01*
X57278Y135228D01*
Y134178D01*
X56753Y133653D01*
X55703D01*
Y134703D01*
X57278Y132604D02*
X54129D01*
X57278Y130505D01*
X54129D01*
Y129455D02*
X57278D01*
Y127881D01*
X56753Y127356D01*
X54654D01*
X54129Y127881D01*
Y129455D01*
X41093Y183792D02*
Y185891D01*
X42667D01*
Y184842D01*
Y185891D01*
X44242D01*
Y182742D02*
X42143D01*
X41093Y181693D01*
X42143Y180643D01*
X44242D01*
X42667D01*
Y182742D01*
X44242Y179594D02*
X41093D01*
X44242Y177495D01*
X41093D01*
X44242Y171198D02*
Y173297D01*
X42143Y171198D01*
X41618D01*
X41093Y171722D01*
Y172772D01*
X41618Y173297D01*
X44242Y166999D02*
Y165950D01*
Y166475D01*
X41093D01*
X41618Y166999D01*
X44242Y162277D02*
Y164376D01*
X42143Y162277D01*
X41618D01*
X41093Y162801D01*
Y163851D01*
X41618Y164376D01*
X41093Y161227D02*
X43192D01*
X44242Y160178D01*
X43192Y159128D01*
X41093D01*
X40679Y133653D02*
Y135752D01*
X42253D01*
Y134703D01*
Y135752D01*
X43827D01*
Y132604D02*
X41728D01*
X40679Y131554D01*
X41728Y130505D01*
X43827D01*
X42253D01*
Y132604D01*
X43827Y129455D02*
X40679D01*
X43827Y127356D01*
X40679D01*
X43827Y121059D02*
Y123158D01*
X41728Y121059D01*
X41204D01*
X40679Y121584D01*
Y122633D01*
X41204Y123158D01*
Y114762D02*
X40679Y115287D01*
Y116336D01*
X41204Y116861D01*
X43303D01*
X43827Y116336D01*
Y115287D01*
X43303Y114762D01*
X42253D01*
Y115811D01*
X43827Y113712D02*
X40679D01*
X43827Y111613D01*
X40679D01*
Y110564D02*
X43827D01*
Y108989D01*
X43303Y108465D01*
X41204D01*
X40679Y108989D01*
Y110564D01*
X22704Y197906D02*
X23229Y198431D01*
X24278D01*
X24803Y197906D01*
Y195808D01*
X24278Y195283D01*
X23229D01*
X22704Y195808D01*
Y196857D01*
X23754D01*
X21655Y195283D02*
Y198431D01*
X19556Y195283D01*
Y198431D01*
X18506D02*
Y195283D01*
X16932D01*
X16407Y195808D01*
Y197906D01*
X16932Y198431D01*
X18506D01*
X89567Y86490D02*
Y83342D01*
X87993D01*
X87468Y83867D01*
Y84391D01*
X87993Y84916D01*
X89567D01*
X87993D01*
X87468Y85441D01*
Y85966D01*
X87993Y86490D01*
X89567D01*
X86418Y83342D02*
Y86490D01*
X85369Y85441D01*
X84319Y86490D01*
Y83342D01*
X81171Y85966D02*
X81695Y86490D01*
X82745D01*
X83270Y85966D01*
Y85441D01*
X82745Y84916D01*
X81695D01*
X81171Y84391D01*
Y83867D01*
X81695Y83342D01*
X82745D01*
X83270Y83867D01*
X76973Y86490D02*
X75923D01*
X76448D01*
Y83342D01*
X76973D01*
X75923D01*
X72250Y85966D02*
X72774Y86490D01*
X73824D01*
X74349Y85966D01*
Y85441D01*
X73824Y84916D01*
X72774D01*
X72250Y84391D01*
Y83867D01*
X72774Y83342D01*
X73824D01*
X74349Y83867D01*
X69101Y86490D02*
X71200D01*
Y83342D01*
X69101D01*
X71200Y84916D02*
X70151D01*
X68051Y83342D02*
Y86490D01*
X65952Y83342D01*
Y86490D01*
X62804Y85966D02*
X63329Y86490D01*
X64378D01*
X64903Y85966D01*
Y85441D01*
X64378Y84916D01*
X63329D01*
X62804Y84391D01*
Y83867D01*
X63329Y83342D01*
X64378D01*
X64903Y83867D01*
X59655Y86490D02*
X61754D01*
Y83342D01*
X59655D01*
X61754Y84916D02*
X60705D01*
X68240Y36937D02*
Y39036D01*
X67190Y40086D01*
X66141Y39036D01*
Y36937D01*
Y38511D01*
X68240D01*
X62992Y40086D02*
X65091D01*
Y38511D01*
X64042D01*
X65091D01*
Y36937D01*
X59843Y40086D02*
X61942D01*
Y36937D01*
X59843D01*
X61942Y38511D02*
X60893D01*
X106299Y23388D02*
X103151D01*
X104200Y22338D01*
X103151Y21289D01*
X106299D01*
X103151Y18665D02*
Y19714D01*
X103675Y20239D01*
X105774D01*
X106299Y19714D01*
Y18665D01*
X105774Y18140D01*
X103675D01*
X103151Y18665D01*
X103675Y14991D02*
X103151Y15516D01*
Y16566D01*
X103675Y17090D01*
X104200D01*
X104725Y16566D01*
Y15516D01*
X105250Y14991D01*
X105774D01*
X106299Y15516D01*
Y16566D01*
X105774Y17090D01*
X103151Y13942D02*
Y12892D01*
Y13417D01*
X106299D01*
Y13942D01*
Y12892D01*
X96152Y23388D02*
X93003D01*
X94053Y22338D01*
X93003Y21289D01*
X96152D01*
X93003Y20239D02*
Y19190D01*
Y19714D01*
X96152D01*
Y20239D01*
Y19190D01*
X93528Y15516D02*
X93003Y16041D01*
Y17090D01*
X93528Y17615D01*
X94053D01*
X94578Y17090D01*
Y16041D01*
X95102Y15516D01*
X95627D01*
X96152Y16041D01*
Y17090D01*
X95627Y17615D01*
X93003Y12892D02*
Y13942D01*
X93528Y14467D01*
X95627D01*
X96152Y13942D01*
Y12892D01*
X95627Y12368D01*
X93528D01*
X93003Y12892D01*
X83833Y21289D02*
X83308Y21813D01*
Y22863D01*
X83833Y23388D01*
X84358D01*
X84882Y22863D01*
Y21813D01*
X85407Y21289D01*
X85932D01*
X86457Y21813D01*
Y22863D01*
X85932Y23388D01*
X83833Y18140D02*
X83308Y18665D01*
Y19714D01*
X83833Y20239D01*
X85932D01*
X86457Y19714D01*
Y18665D01*
X85932Y18140D01*
X83308Y17090D02*
X86457D01*
X85407D01*
X83308Y14991D01*
X84882Y16566D01*
X86457Y14991D01*
X76304Y23388D02*
X73155D01*
X76304Y21289D01*
X73155D01*
X73680Y18140D02*
X73155Y18665D01*
Y19714D01*
X73680Y20239D01*
X74205D01*
X74729Y19714D01*
Y18665D01*
X75254Y18140D01*
X75779D01*
X76304Y18665D01*
Y19714D01*
X75779Y20239D01*
X73680Y14991D02*
X73155Y15516D01*
Y16566D01*
X73680Y17090D01*
X74205D01*
X74729Y16566D01*
Y15516D01*
X75254Y14991D01*
X75779D01*
X76304Y15516D01*
Y16566D01*
X75779Y17090D01*
X63518Y21289D02*
X62993Y21813D01*
Y22863D01*
X63518Y23388D01*
X65617D01*
X66142Y22863D01*
Y21813D01*
X65617Y21289D01*
X64567D01*
Y22338D01*
X66142Y20239D02*
X62993D01*
X66142Y18140D01*
X62993D01*
Y17090D02*
X66142D01*
Y15516D01*
X65617Y14991D01*
X63518D01*
X62993Y15516D01*
Y17090D01*
X63518Y67549D02*
X62993Y68073D01*
Y69123D01*
X63518Y69648D01*
X65617D01*
X66142Y69123D01*
Y68073D01*
X65617Y67549D01*
X64567D01*
Y68598D01*
X66142Y66499D02*
X62993D01*
X66142Y64400D01*
X62993D01*
Y63350D02*
X66142D01*
Y61776D01*
X65617Y61251D01*
X63518D01*
X62993Y61776D01*
Y63350D01*
X76304Y69648D02*
X73155D01*
X76304Y67549D01*
X73155D01*
X73680Y64400D02*
X73155Y64925D01*
Y65974D01*
X73680Y66499D01*
X74205D01*
X74729Y65974D01*
Y64925D01*
X75254Y64400D01*
X75779D01*
X76304Y64925D01*
Y65974D01*
X75779Y66499D01*
X73680Y61251D02*
X73155Y61776D01*
Y62826D01*
X73680Y63350D01*
X74205D01*
X74729Y62826D01*
Y61776D01*
X75254Y61251D01*
X75779D01*
X76304Y61776D01*
Y62826D01*
X75779Y63350D01*
X83833Y67549D02*
X83308Y68073D01*
Y69123D01*
X83833Y69648D01*
X84358D01*
X84882Y69123D01*
Y68073D01*
X85407Y67549D01*
X85932D01*
X86457Y68073D01*
Y69123D01*
X85932Y69648D01*
X83833Y64400D02*
X83308Y64925D01*
Y65974D01*
X83833Y66499D01*
X85932D01*
X86457Y65974D01*
Y64925D01*
X85932Y64400D01*
X83308Y63350D02*
X86457D01*
X85407D01*
X83308Y61251D01*
X84882Y62826D01*
X86457Y61251D01*
X96152Y69648D02*
X93003D01*
X94053Y68598D01*
X93003Y67549D01*
X96152D01*
X93003Y66499D02*
Y65449D01*
Y65974D01*
X96152D01*
Y66499D01*
Y65449D01*
X93528Y61776D02*
X93003Y62301D01*
Y63350D01*
X93528Y63875D01*
X94053D01*
X94578Y63350D01*
Y62301D01*
X95102Y61776D01*
X95627D01*
X96152Y62301D01*
Y63350D01*
X95627Y63875D01*
X93003Y59152D02*
Y60202D01*
X93528Y60726D01*
X95627D01*
X96152Y60202D01*
Y59152D01*
X95627Y58627D01*
X93528D01*
X93003Y59152D01*
X106299Y69648D02*
X103151D01*
X104200Y68598D01*
X103151Y67549D01*
X106299D01*
X103151Y64925D02*
Y65974D01*
X103675Y66499D01*
X105774D01*
X106299Y65974D01*
Y64925D01*
X105774Y64400D01*
X103675D01*
X103151Y64925D01*
X103675Y61251D02*
X103151Y61776D01*
Y62826D01*
X103675Y63350D01*
X104200D01*
X104725Y62826D01*
Y61776D01*
X105250Y61251D01*
X105774D01*
X106299Y61776D01*
Y62826D01*
X105774Y63350D01*
X103151Y60202D02*
Y59152D01*
Y59677D01*
X106299D01*
Y60202D01*
Y59152D01*
X214043Y264435D02*
X214567Y264960D01*
X215617D01*
X216142Y264435D01*
Y262336D01*
X215617Y261811D01*
X214567D01*
X214043Y262336D01*
X212993Y261811D02*
X211944D01*
X212468D01*
Y264960D01*
X212993Y264435D01*
X208270Y264960D02*
X209320Y264435D01*
X210369Y263385D01*
Y262336D01*
X209844Y261811D01*
X208795D01*
X208270Y262336D01*
Y262861D01*
X208795Y263385D01*
X210369D01*
X257744Y264435D02*
X258268Y264960D01*
X259318D01*
X259842Y264435D01*
Y262336D01*
X259318Y261811D01*
X258268D01*
X257744Y262336D01*
X256694Y261811D02*
X255644D01*
X256169D01*
Y264960D01*
X256694Y264435D01*
X251971Y264960D02*
X254070D01*
Y263385D01*
X253021Y263910D01*
X252496D01*
X251971Y263385D01*
Y262336D01*
X252496Y261811D01*
X253545D01*
X254070Y262336D01*
X109631Y83342D02*
Y86490D01*
X108056D01*
X107532Y85966D01*
Y84916D01*
X108056Y84391D01*
X109631D01*
X106482Y83342D02*
X105433D01*
X105957D01*
Y86490D01*
X106482Y85966D01*
X103858Y83342D02*
X102809D01*
X103333D01*
Y86490D01*
X103858Y85966D01*
X109631Y36937D02*
Y40086D01*
X108056D01*
X107532Y39561D01*
Y38511D01*
X108056Y37986D01*
X109631D01*
X106482Y36937D02*
X105433D01*
X105957D01*
Y40086D01*
X106482Y39561D01*
X103858D02*
X103333Y40086D01*
X102284D01*
X101759Y39561D01*
Y37462D01*
X102284Y36937D01*
X103333D01*
X103858Y37462D01*
Y39561D01*
X222837Y226260D02*
X225986D01*
Y224686D01*
X225461Y224161D01*
X223362D01*
X222837Y224686D01*
Y226260D01*
X223362Y223111D02*
X222837Y222586D01*
Y221537D01*
X223362Y221012D01*
X223887D01*
X224411Y221537D01*
Y222062D01*
Y221537D01*
X224936Y221012D01*
X225461D01*
X225986Y221537D01*
Y222586D01*
X225461Y223111D01*
X182603Y225731D02*
X179454D01*
Y224156D01*
X179979Y223632D01*
X182078D01*
X182603Y224156D01*
Y225731D01*
X179454Y222582D02*
Y221533D01*
Y222057D01*
X182603D01*
X182078Y222582D01*
M02*
