M48
;Layer_Color=9474304
;FILE_FORMAT=2:5
INCH,TZ
;TYPE=PLATED
T1F00S00C0.01181
T2F00S00C0.01300
T3F00S00C0.01772
T4F00S00C0.02362
T5F00S00C0.02362
T6F00S00C0.02500
T7F00S00C0.02559
T8F00S00C0.03000
T9F00S00C0.04016
T10F00S00C0.09055
T11F00S00C0.09055
T12F00S00C0.09409
T13F00S00C0.10630
T14F00S00C0.13000
T15F00S00C0.16378
%
T01
X235453Y-93681
T02
X230000Y-102500
Y-97500
X231000Y-24000
X312500Y-50000
X-52500Y-77500
T03
X220000Y-75000
Y-65158
T04
X-45000Y-19685
Y0
T05
X251000Y10000
Y23779
X287500Y23779
Y10000
T06
X-102500Y0
X-82500
T07
X-9370Y-210000
X30000
X160000
X199370
X30000Y70000
X-9370
X160000
X199370
T08
X-45000Y-140000
Y-130000
Y-110000
Y-100000
X-105000Y-110000
Y-130000
T09
X280000Y-91339
Y-77559
Y-63779
Y-50000
X298110
Y-63779
Y-77559
Y-91339
X-142500Y0
Y13780
T10
X285591Y-101181
Y-40157
T11
X-140020Y-9843
Y23622
T12
X190000Y-100000
Y-70000
Y-40000
X0
Y-100000
Y-140000
Y0
T13
X-145158Y-220158
X307598
X-145158Y75118
X307598
T14
X95000Y-170000
X160000
X30000
Y30000
X95000
X160000
T15
X190000Y-140000
Y0
M30
