G04 Layer_Color=16711935*
%FSLAX25Y25*%
%MOIN*%
G70*
G01*
G75*
%ADD42C,0.00300*%
D42*
X166450Y-170000D02*
G03*
X153550Y-170000I-6450J0D01*
G01*
X101450D02*
G03*
X88550Y-170000I-6450J0D01*
G01*
X36450D02*
G03*
X23550Y-170000I-6450J0D01*
G01*
Y30000D02*
G03*
X36450Y30000I6450J0D01*
G01*
X88550D02*
G03*
X101450Y30000I6450J0D01*
G01*
X153550D02*
G03*
X166450Y30000I6450J0D01*
G01*
X4000Y0D02*
G03*
X4000Y0I-4000J0D01*
G01*
X-19000Y-174000D02*
G03*
X-13000Y-180000I6000J0D01*
G01*
X203000D02*
G03*
X209000Y-174000I0J6000D01*
G01*
Y34000D02*
G03*
X203000Y40000I-6000J0D01*
G01*
X4700Y0D02*
G03*
X4700Y0I-4700J0D01*
G01*
X7500D02*
G03*
X7500Y0I-7500J0D01*
G01*
X-4000Y40000D02*
X23550D01*
X209000Y-174000D02*
Y34000D01*
X-13000Y-180000D02*
X23550D01*
X166450Y30000D02*
Y40000D01*
X153550Y30000D02*
Y40000D01*
X101450Y30000D02*
Y40000D01*
X88550Y30000D02*
Y40000D01*
X36450Y30000D02*
Y40000D01*
X23550Y30000D02*
Y40000D01*
Y-180000D02*
Y-170000D01*
X36450Y-180000D02*
Y-170000D01*
X88550Y-180000D02*
Y-170000D01*
X101450Y-180000D02*
Y-170000D01*
X153550Y-180000D02*
Y-170000D01*
X166450Y-180000D02*
Y-170000D01*
Y40000D02*
X203000D01*
X101450D02*
X153550D01*
X36450D02*
X88550D01*
X36450Y-180000D02*
X88550D01*
X101450D02*
X153550D01*
X166450D02*
X203000D01*
X-19000Y25000D02*
X-4000Y40000D01*
X-19000Y-174000D02*
Y25000D01*
M02*
