G04*
G04 #@! TF.GenerationSoftware,Altium Limited,Altium Designer,20.0.13 (296)*
G04*
G04 Layer_Color=8421504*
%FSLAX25Y25*%
%MOIN*%
G70*
G01*
G75*
%ADD14R,0.07874X0.06693*%
%ADD15R,0.01772X0.05315*%
%ADD16R,0.05709X0.01772*%
%ADD17R,0.04134X0.02362*%
%ADD18R,0.05906X0.07284*%
G04:AMPARAMS|DCode=19|XSize=51.18mil|YSize=78.74mil|CornerRadius=12.8mil|HoleSize=0mil|Usage=FLASHONLY|Rotation=270.000|XOffset=0mil|YOffset=0mil|HoleType=Round|Shape=RoundedRectangle|*
%AMROUNDEDRECTD19*
21,1,0.05118,0.05315,0,0,270.0*
21,1,0.02559,0.07874,0,0,270.0*
1,1,0.02559,-0.02657,-0.01280*
1,1,0.02559,-0.02657,0.01280*
1,1,0.02559,0.02657,0.01280*
1,1,0.02559,0.02657,-0.01280*
%
%ADD19ROUNDEDRECTD19*%
G04:AMPARAMS|DCode=20|XSize=51.18mil|YSize=51.18mil|CornerRadius=12.8mil|HoleSize=0mil|Usage=FLASHONLY|Rotation=270.000|XOffset=0mil|YOffset=0mil|HoleType=Round|Shape=RoundedRectangle|*
%AMROUNDEDRECTD20*
21,1,0.05118,0.02559,0,0,270.0*
21,1,0.02559,0.05118,0,0,270.0*
1,1,0.02559,-0.01280,-0.01280*
1,1,0.02559,-0.01280,0.01280*
1,1,0.02559,0.01280,0.01280*
1,1,0.02559,0.01280,-0.01280*
%
%ADD20ROUNDEDRECTD20*%
%ADD21R,0.05118X0.05118*%
%ADD22R,0.03347X0.03347*%
%ADD23R,0.03347X0.03347*%
%ADD24R,0.03150X0.02165*%
%ADD25R,0.15748X0.07874*%
%ADD26R,0.02756X0.03150*%
%ADD27R,0.03150X0.02756*%
%ADD28R,0.04803X0.03583*%
%ADD29R,0.05512X0.04528*%
%ADD30R,0.03937X0.03543*%
D14*
X160433Y62008D02*
D03*
D15*
X164272Y69784D02*
D03*
X161713D02*
D03*
X159153D02*
D03*
X156595D02*
D03*
X164272Y54232D02*
D03*
X161713D02*
D03*
X159153D02*
D03*
X156595D02*
D03*
D16*
X93701Y82973D02*
D03*
Y80413D02*
D03*
Y77854D02*
D03*
Y75295D02*
D03*
X111024Y82973D02*
D03*
Y80413D02*
D03*
Y77854D02*
D03*
Y75295D02*
D03*
D17*
X66732Y86024D02*
D03*
Y78543D02*
D03*
X57677D02*
D03*
Y82284D02*
D03*
Y86024D02*
D03*
D18*
X195177Y32480D02*
D03*
X184744D02*
D03*
X195177Y20669D02*
D03*
X184744D02*
D03*
X189665Y99410D02*
D03*
X200098D02*
D03*
D19*
X138779Y39370D02*
D03*
X99410D02*
D03*
D20*
X134252Y17717D02*
D03*
X94882D02*
D03*
D21*
X143307D02*
D03*
X103937D02*
D03*
D22*
X138583Y85532D02*
D03*
Y91634D02*
D03*
X79724Y27657D02*
D03*
Y21555D02*
D03*
D23*
X80807Y87402D02*
D03*
X86910D02*
D03*
D24*
X209842Y28346D02*
D03*
Y24606D02*
D03*
Y20866D02*
D03*
X219291Y28346D02*
D03*
Y24606D02*
D03*
Y20866D02*
D03*
D25*
X193898Y47441D02*
D03*
Y84449D02*
D03*
D26*
X83071Y80315D02*
D03*
Y69291D02*
D03*
D27*
X128347Y67323D02*
D03*
X117323D02*
D03*
X119685Y77953D02*
D03*
X130709D02*
D03*
D28*
X165354Y85512D02*
D03*
Y98425D02*
D03*
D29*
X147638Y68405D02*
D03*
Y61516D02*
D03*
X138779Y68405D02*
D03*
Y61516D02*
D03*
D30*
X131102Y91634D02*
D03*
Y86319D02*
D03*
X74410Y80413D02*
D03*
Y85728D02*
D03*
X50000Y80413D02*
D03*
Y85728D02*
D03*
M02*
