G04 Layer_Color=32768*
%FSLAX25Y25*%
%MOIN*%
G70*
G01*
G75*
%ADD70C,0.00394*%
%ADD71C,0.00197*%
D70*
X232795Y-91732D02*
Y-87953D01*
X230906Y-89842D02*
X234685D01*
X-45000Y-71575D02*
Y-68425D01*
X-46575Y-70000D02*
X-43425D01*
X-54075Y-69580D02*
X-50925D01*
X-52500Y-71155D02*
Y-68005D01*
X220000Y-98524D02*
Y-95374D01*
X218425Y-96949D02*
X221575D01*
X220000Y-44626D02*
Y-41476D01*
X218425Y-43051D02*
X221575D01*
X225925Y-27369D02*
X229075D01*
X227500Y-28944D02*
Y-25794D01*
X220000Y-28524D02*
Y-25374D01*
X218425Y-26949D02*
X221575D01*
X-31575Y-100000D02*
X-28425D01*
X-30000Y-101575D02*
Y-98425D01*
D71*
X227480Y-92795D02*
X238110D01*
X227480Y-86890D02*
X238110D01*
Y-92795D02*
Y-86890D01*
X227480Y-92795D02*
Y-86890D01*
X-47756Y-75709D02*
X-42244D01*
X-47756Y-64291D02*
X-42244D01*
X-47756Y-75709D02*
Y-64291D01*
X-42244Y-75709D02*
Y-64291D01*
X217244Y-91240D02*
X222756D01*
X217244Y-102657D02*
X222756D01*
Y-91240D01*
X217244Y-102657D02*
Y-91240D01*
Y-37343D02*
X222756D01*
X217244Y-48760D02*
X222756D01*
Y-37343D01*
X217244Y-48760D02*
Y-37343D01*
Y-21240D02*
X222756D01*
X217244Y-32658D02*
X222756D01*
Y-21240D01*
X217244Y-32658D02*
Y-21240D01*
X-35709Y-102756D02*
Y-97244D01*
X-24291Y-102756D02*
Y-97244D01*
X-35709D02*
X-24291D01*
X-35709Y-102756D02*
X-24291D01*
M02*
