M48
;Layer_Color=9474304
;FILE_FORMAT=2:5
INCH,LZ
;TYPE=PLATED
T1F00S00C0.01181
T2F00S00C0.02756
T3F00S00C0.10630
T4F00S00C0.11811
%
T01
X004767Y-0344783
X0052165Y-0343012
X0050896Y-0333277
X0068307Y-0334154
Y-0339248
X0066354Y-0351062
X0065271Y-0358347
X0071791Y-0354016
X0085433Y-0345768
X0088583Y-0345374
X0083407Y-0340846
X0090354Y-0331004
X0095919Y-0333775
X0099564Y-0334583
X0100197Y-0331602
X0087346Y-0323838
X0090821Y-031971
X0088386Y-0317225
X0074597Y-031674
X0071162Y-0315256
X0069882Y-0323681
X0072047Y-0328642
X0075394Y-0330217
X0073425Y-030502
Y-0299508
X0071791Y-0296547
X0068307
X0064469
X0062874Y-0293776
X0066255
X0069882
X0070191Y-029065
Y-0287106
X0070079Y-0283563
X0074597Y-0278838
X0062795Y-0275886
X0057716Y-0288681
X005689Y-0301389
X0049016Y-0303051
X0047047Y-0307382
X0045472Y-0314469
X004311Y-0288878
X0073459Y-0293776
X0081496Y-0299508
X0095866Y-0299902
X0097244Y-0311335
X0113976Y-0306525
X0118307Y-0306595
X0117126Y-0281306
X011437Y-0281398
X0120276Y-0281306
X0092323Y-028809
X0087205Y-0287697
X0089567Y-0266043
Y-0257382
X0080315Y-0257776
X0080118Y-0266043
X0067126Y-0260138
X0101772Y-0256595
X0112795Y-0354016
X0122835Y-0354626
X0122244Y-0345965
X0118898Y-0364469
X0134449Y-0364469
X014252Y-0364469
X0130905Y-0354626
X012815Y-0345965
X0134055
X0146432Y-0345571
X0150153Y-0334547
X0148228Y-0328339
X0149803Y-0323917
X0148228Y-0319193
X0150172Y-0316856
X0148343Y-0314468
X0147869Y-0311319
X0148228Y-0308169
X0150231Y-030502
X0151583Y-0301656
X0148805
Y-0298524
X0151657Y-0298615
X0148805Y-029524
Y-029239
X0142323Y-0287697
X0142843Y-0284701
X0138583Y-0287697
X0135304
X0137599Y-029065
X0140551Y-0275886
X0136747Y-026998
X012815Y-0271525
X0127362Y-0267224
X0134055Y-0261909
X0163405Y-0278838
X0165157Y-0295965
X0162205Y-0303445
Y-0311319
X0166732Y-0325492
X0161221Y-0329035
Y-0331988
Y-0334941
X0166141Y-0343799
X0193339Y-0344783
X0197835Y-0343012
X0196565Y-0333277
X0213977Y-0334154
Y-0339248
X0212024Y-0351062
X0210941Y-0358347
X021746Y-0354016
X0231102Y-0345768
X0234252Y-0345374
X0229077Y-0340846
X0236024Y-0331004
X0241588Y-0333775
X0245233Y-0334583
X0245866Y-0331602
X0233015Y-0323838
X023649Y-031971
X0234055Y-0317225
X0220266Y-031674
X0216831Y-0315256
X0215551Y-0323681
X0217717Y-0328642
X0221063Y-0330217
X0219095Y-030502
Y-0299508
X021746Y-0296547
X0213977
X0210138
X0208544Y-0293776
X0211924
X0215551
X0215861Y-029065
Y-0287106
X0215748Y-0283563
X0220266Y-0278838
X0208465Y-0275886
X0203386Y-0288681
X0202559Y-0301389
X0194685Y-0303051
X0192717Y-0307382
X0191142Y-0314469
X018878Y-0288878
X0219129Y-0293776
X0227166Y-0299508
X0241535Y-0299902
X0242913Y-0311335
X0259646Y-0306525
X0263976Y-0306595
X0277756Y-0307087
Y-0311713
X0279725Y-0345965
X0273819
X0267913Y-0345965
X0268504Y-0354626
X0276575
X0280118Y-0364469
X0264567Y-0364469
X0258465Y-0354016
X0260039Y-0281398
X0262795Y-0281306
X0265945
X0273819Y-0271525
X0273032Y-0267224
X0279725Y-0261909
X0247441Y-0256595
X0235236Y-0257382
Y-0266043
X0225787
X0225984Y-0257776
X0212795Y-0260138
X0232874Y-0287697
X0237992Y-028809
X0132087Y-0307087
Y-0311713
X0293538Y-0311319
X0293898Y-0308169
X02959Y-030502
X0297252Y-0301656
X0294474
Y-0298524
X0297326Y-0298615
X0294474Y-029524
Y-029239
X0287992Y-0287697
X0288512Y-0284701
X0284252Y-0287697
X0280973
X0283268Y-029065
X0286221Y-0275886
X0282416Y-026998
X0309074Y-0278838
X0310827Y-0295965
X0307874Y-0303445
Y-0311319
X0294013Y-0314468
X0295841Y-0316856
X0293898Y-0319193
X0295473Y-0323917
X0293898Y-0328339
X0295822Y-0334547
X030689Y-0334941
Y-0331988
Y-0329035
X0312402Y-0325492
X0311811Y-0343799
X0292101Y-0345571
X0288189Y-0364469
Y-0238484
X0292101Y-0219586
X0295822Y-0208563
X0293898Y-0202355
X0295473Y-0197933
X0293898Y-0193209
X0295841Y-0190872
X0294013Y-0188484
X0293538Y-0185335
X0293898Y-0182185
X02959Y-0179035
X0297252Y-0175671
X0294474
Y-0172539
X0297326Y-017263
X0294474Y-0169255
Y-0166405
X0287992Y-0161713
X0288512Y-0158717
X0284252Y-0161713
X0280973
X0283268Y-0164665
X0286221Y-0149901
X0282416Y-0143996
X0309074Y-0152854
X0310827Y-016998
X0307874Y-0177461
Y-0185335
X0312402Y-0199508
X030689Y-0203051
Y-0206004
Y-0208957
X0311811Y-0217815
X0288189Y-01125
X0280118Y-01125
X0276575Y-0102657
X0268504
X0258465Y-0102047
X0264567Y-01125
X0247441Y-013061
X0235236Y-0131397
Y-0140059
X0225787
X0225984Y-0131791
X0212795Y-0134153
X0208465Y-0149901
X0220266Y-0152854
X0215748Y-0157579
X0215861Y-0161122
Y-0164665
X0215551Y-0167791
X0219129
X021746Y-0170563
X0213977
X0210138
X0208544Y-0167791
X0211924
X0219095Y-0173523
Y-0179035
X0216831Y-0189272
X0220266Y-0190755
X0215551Y-0197697
X0217717Y-0202657
X0221063Y-0204232
X0213977Y-0208169
Y-0213264
X0212024Y-0225078
X0210941Y-0232362
X021746Y-0228032
X0231102Y-0219783
X0234252Y-021939
X0229077Y-0214862
X0236024Y-020502
X0241588Y-0207791
X0245233Y-0208599
X0245866Y-0205618
X0233015Y-0197854
X023649Y-0193726
X0234055Y-019124
X0242913Y-018535
X0241535Y-0173917
X0227166Y-0173523
X0232874Y-0161713
X0237992Y-0162106
X0260039Y-0155413
X0262795Y-0155321
X0265945
X0273819Y-0145541
X0273032Y-014124
X0279725Y-0135925
X0277756Y-0181102
Y-0185728
X0263976Y-018061
X0259646Y-0180541
X0267913Y-021998
X0273819Y-021998
X0279725
X0276575Y-0228642
X0268504
X0258465Y-0228032
X0264567Y-0238484
X0280118Y-0238484
X0197835Y-0217027
X0193339Y-0218799
X0196565Y-0207293
X0191142Y-0188484
X0192717Y-0181397
X0194685Y-0177067
X0202559Y-0175405
X0203386Y-0162697
X018878Y-0162894
X0165157Y-016998
X0162205Y-0177461
Y-0185335
X0147869
X0148228Y-0182185
X0150231Y-0179035
X0151583Y-0175671
X0148805
Y-0172539
X0151657Y-017263
X0148805Y-0169255
Y-0166405
X0142323Y-0161713
X0142843Y-0158717
X0138583Y-0161713
X0135304
X0137599Y-0164665
X0140551Y-0149901
X0136747Y-0143996
X012815Y-0145541
X0127362Y-014124
X0134055Y-0135925
X0134449Y-01125
X014252Y-01125
X0130905Y-0102657
X0132087Y-0181102
Y-0185728
X0148343Y-0188484
X0150172Y-0190872
X0148228Y-0193209
X0149803Y-0197933
X0148228Y-0202355
X0150153Y-0208563
X0161221Y-0208957
Y-0206004
Y-0203051
X0166732Y-0199508
X0166141Y-0217815
X0146432Y-0219586
X0134055Y-021998
X012815
X0130905Y-0228642
X0134449Y-0238484
X014252Y-0238484
X0163405Y-0152854
X0210941Y-0106378
X0212024Y-0099094
X021746Y-0102047
X0122835Y-0102657
X0112795Y-0102047
X0118898Y-01125
X0101772Y-013061
X0089567Y-0131397
Y-0140059
X0080118
X0080315Y-0131791
X0067126Y-0134153
X0062795Y-0149901
X0074597Y-0152854
X0070079Y-0157579
X0070191Y-0161122
Y-0164665
X0069882Y-0167791
X0073459
X0071791Y-0170563
X0068307
X0064469
X0062874Y-0167791
X0066255
X0073425Y-0173523
Y-0179035
X0071162Y-0189272
X0074597Y-0190755
X0069882Y-0197697
X0072047Y-0202657
X0075394Y-0204232
X0068307Y-0208169
Y-0213264
X0066354Y-0225078
X0065271Y-0232362
X0071791Y-0228032
X0085433Y-0219783
X0088583Y-021939
X0083407Y-0214862
X0090354Y-020502
X0095919Y-0207791
X0099564Y-0208599
X0100197Y-0205618
X0087346Y-0197854
X0090821Y-0193726
X0088386Y-019124
X0097244Y-018535
X0095866Y-0173917
X0081496Y-0173523
X0087205Y-0161713
X0092323Y-0162106
X011437Y-0155413
X0117126Y-0155321
X0120276
X0118307Y-018061
X0113976Y-0180541
X0122244Y-021998
X0122835Y-0228642
X0112795Y-0228032
X0118898Y-0238484
X0052165Y-0217027
X004767Y-0218799
X0050896Y-0207293
X0045472Y-0188484
X0047047Y-0181397
X0049016Y-0177067
X005689Y-0175405
X0057716Y-0162697
X004311Y-0162894
X0065271Y-0106378
X0066354Y-0099094
X0071791Y-0102047
X0068307Y-008728
Y-0082185
X0072047Y-0076673
X0075394Y-0078248
X0069882Y-0071712
X0071162Y-0063287
X0074597Y-0064771
X0073425Y-0053051
Y-0047539
X0071791Y-0044579
X0068307
X0064469
X0062874Y-0041807
X0066255
X0069882
X0070191Y-0038681
Y-0035138
X0070079Y-0031594
X0074597Y-002687
X0062795Y-0023917
X0057716Y-0036712
X005689Y-004942
X0049016Y-0051082
X0047047Y-0055413
X0045472Y-00625
X0050896Y-0081309
X0052165Y-0091043
X004767Y-0092815
X0085433Y-0093799
X0088583Y-0093405
X0083407Y-0088878
X0090354Y-0079035
X0095919Y-0081807
X0099564Y-0082615
X0100197Y-0079633
X0087346Y-007187
X0090821Y-0067742
X0088386Y-0065256
X0097244Y-0059366
X0095866Y-0047933
X0081496Y-0047539
X0073459Y-0041807
X0087205Y-0035728
X0092323Y-0036122
X0089567Y-0014075
Y-0005413
X0080315Y-0005807
X0080118Y-0014075
X0067126Y-0008169
X0101772Y-0004626
X011437Y-0029429
X0117126Y-0029337
X0120276
X0118307Y-0054626
X0113976Y-0054556
X0122244Y-0093996
X004311Y-0036909
X0135304Y-0035728
X0138583
X0142323Y-0035728
X0142843Y-0032733
X0140551Y-0023917
X0136747Y-0018012
X012815Y-0019557
X0127362Y-0015256
X0134055Y-0009941
X0137599Y-0038681
X0148805Y-0040421
Y-0043271
Y-0046555
X0151657Y-0046646
X0151583Y-0049687
X0148805
X0150231Y-0053051
X0148228Y-0056201
X0147869Y-005935
X0148343Y-00625
X0150172Y-0064887
X0148228Y-0067224
X0149803Y-0071949
X0148228Y-0076371
X0150153Y-0082579
X0161221Y-0082972
Y-0080019
Y-0077067
X0166732Y-0073523
X0162205Y-005935
Y-0051476
X0165157Y-0043996
X0163405Y-002687
X018878Y-0036909
X0203386Y-0036712
X0208544Y-0041807
X0211924
X0215551
X0215861Y-0038681
Y-0035138
X0215748Y-0031594
X0220266Y-002687
X0208465Y-0023917
X0212795Y-0008169
X0225984Y-0005807
X0225787Y-0014075
X0235236
Y-0005413
X0247441Y-0004626
X0273032Y-0015256
X0273819Y-0019557
X0279725Y-0009941
X0265945Y-0029337
X0262795
X0260039Y-0029429
X0259646Y-0054556
X0263976Y-0054626
X0277756Y-0055118
Y-0059744
X0242913Y-0059366
X0241535Y-0047933
X0227166Y-0047539
X0219095
X021746Y-0044579
X0213977
X0210138
X0219129Y-0041807
X0219095Y-0053051
X0216831Y-0063287
X0220266Y-0064771
X0215551Y-0071712
X0217717Y-0076673
X0221063Y-0078248
X0213977Y-0082185
Y-008728
X0229077Y-0088878
X0231102Y-0093799
X0234252Y-0093405
X0236024Y-0079035
X0241588Y-0081807
X0245233Y-0082615
X0245866Y-0079633
X0233015Y-007187
X023649Y-0067742
X0234055Y-0065256
X0232874Y-0035728
X0237992Y-0036122
X0202559Y-004942
X0194685Y-0051082
X0192717Y-0055413
X0191142Y-00625
X0196565Y-0081309
X0197835Y-0091043
X0193339Y-0092815
X0166141Y-0091831
X0146432Y-0093602
X0134055Y-0093996
X012815
X0132087Y-0059744
Y-0055118
X0267913Y-0093996
X0273819Y-0093996
X0279725
X0292101Y-0093602
X0295822Y-0082579
X0293898Y-0076371
X0295473Y-0071949
X0293898Y-0067224
X0295841Y-0064887
X0294013Y-00625
X0293538Y-005935
X0293898Y-0056201
X02959Y-0053051
X0297252Y-0049687
X0294474
Y-0046555
X0297326Y-0046646
X0294474Y-0043271
Y-0040421
X0287992Y-0035728
X0288512Y-0032733
X0284252Y-0035728
X0280973
X0283268Y-0038681
X0286221Y-0023917
X0282416Y-0018012
X0309074Y-002687
X0310827Y-0043996
X0307874Y-0051476
Y-005935
X0312402Y-0073523
X030689Y-0077067
Y-0080019
Y-0082972
X0311811Y-0091831
T02
X0155315Y-0339075
Y-0283563
X0300984
Y-0339075
Y-021309
Y-0157579
X0155315
Y-021309
Y-0087106
Y-0031594
X0300984
Y-0087106
T03
X004311Y-0360531
Y-0262106
X016122
X018878
Y-0360531
X016122
X030689
Y-0262106
Y-0234547
Y-0136122
Y-0108563
X018878
Y-0136122
X016122
Y-0108563
Y-0234547
X018878
X004311
Y-0136122
Y-0108563
Y-0010137
X016122
X018878
X030689
T04
X0012795Y-0357874
X03375
X0012795Y-0012795
X03375Y-0012795
M30
