G04*
G04 #@! TF.GenerationSoftware,Altium Limited,Altium Designer,20.0.10 (225)*
G04*
G04 Layer_Color=8421504*
%FSLAX25Y25*%
%MOIN*%
G70*
G01*
G75*
%ADD10C,0.03937*%
%ADD11R,0.03543X0.05512*%
%ADD12R,0.08661X0.05512*%
%ADD13R,0.03347X0.03347*%
%ADD14R,0.03543X0.03937*%
%ADD15R,0.03347X0.03347*%
%ADD16R,0.03937X0.03543*%
%ADD17R,0.07087X0.05512*%
%ADD18R,0.02362X0.04134*%
%ADD19R,0.03150X0.02362*%
%ADD20R,0.05512X0.07087*%
%ADD21R,0.11417X0.02756*%
%ADD22R,0.01181X0.02559*%
%ADD23O,0.06102X0.01181*%
%ADD24O,0.01181X0.06102*%
%ADD25R,0.01181X0.06102*%
%ADD26R,0.07480X0.10236*%
%ADD27R,0.07087X0.03150*%
%ADD28O,0.06299X0.01181*%
%ADD29R,0.06299X0.01181*%
%ADD30R,0.04331X0.01772*%
%ADD31O,0.04331X0.01772*%
G36*
X270669Y-31102D02*
X267390D01*
Y-28346D01*
X270669D01*
Y-31102D01*
D02*
G37*
G36*
X266600D02*
X263321D01*
Y-28346D01*
X266600D01*
Y-31102D01*
D02*
G37*
G36*
X262532D02*
X259252D01*
Y-28346D01*
X262532D01*
Y-31102D01*
D02*
G37*
G36*
X125000D02*
X121721D01*
Y-28346D01*
X125000D01*
Y-31102D01*
D02*
G37*
G36*
X120931D02*
X117652D01*
Y-28346D01*
X120931D01*
Y-31102D01*
D02*
G37*
G36*
X116862D02*
X113583D01*
Y-28346D01*
X116862D01*
Y-31102D01*
D02*
G37*
G36*
X270669Y-157087D02*
X267390D01*
Y-154331D01*
X270669D01*
Y-157087D01*
D02*
G37*
G36*
X266600D02*
X263321D01*
Y-154331D01*
X266600D01*
Y-157087D01*
D02*
G37*
G36*
X262532D02*
X259252D01*
Y-154331D01*
X262532D01*
Y-157087D01*
D02*
G37*
G36*
X125000D02*
X121721D01*
Y-154331D01*
X125000D01*
Y-157087D01*
D02*
G37*
G36*
X120931D02*
X117652D01*
Y-154331D01*
X120931D01*
Y-157087D01*
D02*
G37*
G36*
X116862D02*
X113583D01*
Y-154331D01*
X116862D01*
Y-157087D01*
D02*
G37*
G36*
X270669Y-283071D02*
X267390D01*
Y-280315D01*
X270669D01*
Y-283071D01*
D02*
G37*
G36*
X266600D02*
X263321D01*
Y-280315D01*
X266600D01*
Y-283071D01*
D02*
G37*
G36*
X262532D02*
X259252D01*
Y-280315D01*
X262532D01*
Y-283071D01*
D02*
G37*
G36*
X125000D02*
X121721D01*
Y-280315D01*
X125000D01*
Y-283071D01*
D02*
G37*
G36*
X120931D02*
X117652D01*
Y-280315D01*
X120931D01*
Y-283071D01*
D02*
G37*
G36*
X116862D02*
X113583D01*
Y-280315D01*
X116862D01*
Y-283071D01*
D02*
G37*
D10*
X132087Y-277854D02*
D03*
X58071Y-348327D02*
D03*
X277756Y-277854D02*
D03*
X203740Y-348327D02*
D03*
X132087Y-151870D02*
D03*
X58071Y-222342D02*
D03*
X277756Y-151870D02*
D03*
X203740Y-222342D02*
D03*
X132087Y-25886D02*
D03*
X58071Y-96358D02*
D03*
X277756Y-25886D02*
D03*
X203740Y-96358D02*
D03*
D11*
X61634Y-358347D02*
D03*
X207303D02*
D03*
X61634Y-232362D02*
D03*
X207303D02*
D03*
X61634Y-106378D02*
D03*
X207303D02*
D03*
D12*
X71673Y-358347D02*
D03*
X217342D02*
D03*
X71673Y-232362D02*
D03*
X217342D02*
D03*
X71673Y-106378D02*
D03*
X217342D02*
D03*
D13*
X72126Y-345965D02*
D03*
X66024D02*
D03*
X217795D02*
D03*
X211693D02*
D03*
X72126Y-219980D02*
D03*
X66024D02*
D03*
X217795D02*
D03*
X211693D02*
D03*
X72126Y-93996D02*
D03*
X66024D02*
D03*
X217795D02*
D03*
X211693D02*
D03*
D14*
X85433Y-349902D02*
D03*
X90748D02*
D03*
X104429D02*
D03*
X99114D02*
D03*
X86910Y-297505D02*
D03*
X92225D02*
D03*
X66437Y-265551D02*
D03*
X61122D02*
D03*
X66437Y-288484D02*
D03*
X61122D02*
D03*
X92225Y-291240D02*
D03*
X86910D02*
D03*
X124606Y-269980D02*
D03*
X119291D02*
D03*
X231102Y-349902D02*
D03*
X236417D02*
D03*
X250098D02*
D03*
X244784D02*
D03*
X232579Y-297505D02*
D03*
X237894D02*
D03*
X212106Y-265551D02*
D03*
X206791D02*
D03*
X212106Y-288484D02*
D03*
X206791D02*
D03*
X237894Y-291240D02*
D03*
X232579D02*
D03*
X270276Y-269980D02*
D03*
X264961D02*
D03*
X85433Y-223917D02*
D03*
X90748D02*
D03*
X104429D02*
D03*
X99114D02*
D03*
X86910Y-171520D02*
D03*
X92225D02*
D03*
X66437Y-139567D02*
D03*
X61122D02*
D03*
X66437Y-162500D02*
D03*
X61122D02*
D03*
X92225Y-165256D02*
D03*
X86910D02*
D03*
X124606Y-143996D02*
D03*
X119291D02*
D03*
X231102Y-223917D02*
D03*
X236417D02*
D03*
X250098D02*
D03*
X244784D02*
D03*
X232579Y-171520D02*
D03*
X237894D02*
D03*
X212106Y-139567D02*
D03*
X206791D02*
D03*
X212106Y-162500D02*
D03*
X206791D02*
D03*
X237894Y-165256D02*
D03*
X232579D02*
D03*
X270276Y-143996D02*
D03*
X264961D02*
D03*
X85433Y-97933D02*
D03*
X90748D02*
D03*
X104429D02*
D03*
X99114D02*
D03*
X86910Y-45536D02*
D03*
X92225D02*
D03*
X66437Y-13582D02*
D03*
X61122D02*
D03*
X66437Y-36516D02*
D03*
X61122D02*
D03*
X92225Y-39272D02*
D03*
X86910D02*
D03*
X124606Y-18012D02*
D03*
X119291D02*
D03*
X231102Y-97933D02*
D03*
X236417D02*
D03*
X250098D02*
D03*
X244784D02*
D03*
X232579Y-45536D02*
D03*
X237894D02*
D03*
X212106Y-13582D02*
D03*
X206791D02*
D03*
X212106Y-36516D02*
D03*
X206791D02*
D03*
X237894Y-39272D02*
D03*
X232579D02*
D03*
X270276Y-18012D02*
D03*
X264961D02*
D03*
D15*
X146457Y-364665D02*
D03*
Y-358563D02*
D03*
X138583Y-364665D02*
D03*
Y-358563D02*
D03*
X130709Y-364665D02*
D03*
Y-358563D02*
D03*
X122835Y-364665D02*
D03*
Y-358563D02*
D03*
X45276Y-296949D02*
D03*
Y-303051D02*
D03*
X39567Y-299508D02*
D03*
Y-305610D02*
D03*
X292126Y-364665D02*
D03*
Y-358563D02*
D03*
X284252Y-364665D02*
D03*
Y-358563D02*
D03*
X276378Y-364665D02*
D03*
Y-358563D02*
D03*
X268504Y-364665D02*
D03*
Y-358563D02*
D03*
X190945Y-296949D02*
D03*
Y-303051D02*
D03*
X185236Y-299508D02*
D03*
Y-305610D02*
D03*
X146457Y-238681D02*
D03*
Y-232579D02*
D03*
X138583Y-238681D02*
D03*
Y-232579D02*
D03*
X130709Y-238681D02*
D03*
Y-232579D02*
D03*
X122835Y-238681D02*
D03*
Y-232579D02*
D03*
X45276Y-170965D02*
D03*
Y-177067D02*
D03*
X39567Y-173523D02*
D03*
Y-179626D02*
D03*
X292126Y-238681D02*
D03*
Y-232579D02*
D03*
X284252Y-238681D02*
D03*
Y-232579D02*
D03*
X276378Y-238681D02*
D03*
Y-232579D02*
D03*
X268504Y-238681D02*
D03*
Y-232579D02*
D03*
X190945Y-170965D02*
D03*
Y-177067D02*
D03*
X185236Y-173523D02*
D03*
Y-179626D02*
D03*
X146457Y-112697D02*
D03*
Y-106594D02*
D03*
X138583Y-112697D02*
D03*
Y-106594D02*
D03*
X130709Y-112697D02*
D03*
Y-106594D02*
D03*
X122835Y-112697D02*
D03*
Y-106594D02*
D03*
X45276Y-44980D02*
D03*
Y-51082D02*
D03*
X39567Y-47539D02*
D03*
Y-53642D02*
D03*
X292126Y-112697D02*
D03*
Y-106594D02*
D03*
X284252Y-112697D02*
D03*
Y-106594D02*
D03*
X276378Y-112697D02*
D03*
Y-106594D02*
D03*
X268504Y-112697D02*
D03*
Y-106594D02*
D03*
X190945Y-44980D02*
D03*
Y-51082D02*
D03*
X185236Y-47539D02*
D03*
Y-53642D02*
D03*
D16*
X163405Y-287457D02*
D03*
Y-282142D02*
D03*
X128150Y-337697D02*
D03*
Y-343012D02*
D03*
X122244D02*
D03*
Y-337697D02*
D03*
X107283Y-278740D02*
D03*
Y-284055D02*
D03*
X128543Y-307087D02*
D03*
Y-312402D02*
D03*
X122441Y-307087D02*
D03*
Y-312402D02*
D03*
X72047Y-339248D02*
D03*
Y-333933D02*
D03*
X69882Y-299508D02*
D03*
Y-304823D02*
D03*
X39567Y-288681D02*
D03*
Y-293996D02*
D03*
X309074Y-287457D02*
D03*
Y-282142D02*
D03*
X273819Y-337697D02*
D03*
Y-343012D02*
D03*
X267914D02*
D03*
Y-337697D02*
D03*
X252953Y-278740D02*
D03*
Y-284055D02*
D03*
X274213Y-307087D02*
D03*
Y-312402D02*
D03*
X268110Y-307087D02*
D03*
Y-312402D02*
D03*
X217717Y-339248D02*
D03*
Y-333933D02*
D03*
X215551Y-299508D02*
D03*
Y-304823D02*
D03*
X185236Y-288681D02*
D03*
Y-293996D02*
D03*
X163405Y-161473D02*
D03*
Y-156158D02*
D03*
X128150Y-211713D02*
D03*
Y-217027D02*
D03*
X122244D02*
D03*
Y-211713D02*
D03*
X107283Y-152756D02*
D03*
Y-158071D02*
D03*
X128543Y-181102D02*
D03*
Y-186417D02*
D03*
X122441Y-181102D02*
D03*
Y-186417D02*
D03*
X72047Y-213264D02*
D03*
Y-207949D02*
D03*
X69882Y-173523D02*
D03*
Y-178839D02*
D03*
X39567Y-162697D02*
D03*
Y-168012D02*
D03*
X309074Y-161473D02*
D03*
Y-156158D02*
D03*
X273819Y-211713D02*
D03*
Y-217027D02*
D03*
X267914D02*
D03*
Y-211713D02*
D03*
X252953Y-152756D02*
D03*
Y-158071D02*
D03*
X274213Y-181102D02*
D03*
Y-186417D02*
D03*
X268110Y-181102D02*
D03*
Y-186417D02*
D03*
X217717Y-213264D02*
D03*
Y-207949D02*
D03*
X215551Y-173523D02*
D03*
Y-178839D02*
D03*
X185236Y-162697D02*
D03*
Y-168012D02*
D03*
X163405Y-35489D02*
D03*
Y-30174D02*
D03*
X128150Y-85728D02*
D03*
Y-91043D02*
D03*
X122244D02*
D03*
Y-85728D02*
D03*
X107283Y-26772D02*
D03*
Y-32087D02*
D03*
X128543Y-55118D02*
D03*
Y-60433D02*
D03*
X122441Y-55118D02*
D03*
Y-60433D02*
D03*
X72047Y-87280D02*
D03*
Y-81965D02*
D03*
X69882Y-47539D02*
D03*
Y-52854D02*
D03*
X39567Y-36712D02*
D03*
Y-42027D02*
D03*
X309074Y-35489D02*
D03*
Y-30174D02*
D03*
X273819Y-85728D02*
D03*
Y-91043D02*
D03*
X267914D02*
D03*
Y-85728D02*
D03*
X252953Y-26772D02*
D03*
Y-32087D02*
D03*
X274213Y-55118D02*
D03*
Y-60433D02*
D03*
X268110Y-55118D02*
D03*
Y-60433D02*
D03*
X217717Y-87280D02*
D03*
Y-81965D02*
D03*
X215551Y-47539D02*
D03*
Y-52854D02*
D03*
X185236Y-36712D02*
D03*
Y-42027D02*
D03*
D17*
X140551Y-271457D02*
D03*
Y-260630D02*
D03*
X80512Y-261909D02*
D03*
Y-272736D02*
D03*
X99016Y-261909D02*
D03*
Y-272736D02*
D03*
X89567Y-261909D02*
D03*
Y-272736D02*
D03*
X286221Y-271457D02*
D03*
Y-260630D02*
D03*
X226181Y-261909D02*
D03*
Y-272736D02*
D03*
X244685Y-261909D02*
D03*
Y-272736D02*
D03*
X235236Y-261909D02*
D03*
Y-272736D02*
D03*
X140551Y-145472D02*
D03*
Y-134646D02*
D03*
X80512Y-135925D02*
D03*
Y-146752D02*
D03*
X99016Y-135925D02*
D03*
Y-146752D02*
D03*
X89567Y-135925D02*
D03*
Y-146752D02*
D03*
X286221Y-145472D02*
D03*
Y-134646D02*
D03*
X226181Y-135925D02*
D03*
Y-146752D02*
D03*
X244685Y-135925D02*
D03*
Y-146752D02*
D03*
X235236Y-135925D02*
D03*
Y-146752D02*
D03*
X140551Y-19488D02*
D03*
Y-8661D02*
D03*
X80512Y-9941D02*
D03*
Y-20768D02*
D03*
X99016Y-9941D02*
D03*
Y-20768D02*
D03*
X89567Y-9941D02*
D03*
Y-20768D02*
D03*
X286221Y-19488D02*
D03*
Y-8661D02*
D03*
X226181Y-9941D02*
D03*
Y-20768D02*
D03*
X244685Y-9941D02*
D03*
Y-20768D02*
D03*
X235236Y-9941D02*
D03*
Y-20768D02*
D03*
D18*
X66437Y-281299D02*
D03*
X58957D02*
D03*
Y-272244D02*
D03*
X62697D02*
D03*
X66437D02*
D03*
X212106Y-281299D02*
D03*
X204626D02*
D03*
Y-272244D02*
D03*
X208366D02*
D03*
X212106D02*
D03*
X66437Y-155315D02*
D03*
X58957D02*
D03*
Y-146260D02*
D03*
X62697D02*
D03*
X66437D02*
D03*
X212106Y-155315D02*
D03*
X204626D02*
D03*
Y-146260D02*
D03*
X208366D02*
D03*
X212106D02*
D03*
X66437Y-29331D02*
D03*
X58957D02*
D03*
Y-20275D02*
D03*
X62697D02*
D03*
X66437D02*
D03*
X212106Y-29331D02*
D03*
X204626D02*
D03*
Y-20275D02*
D03*
X208366D02*
D03*
X212106D02*
D03*
D19*
X134055Y-337697D02*
D03*
Y-343209D02*
D03*
X279725Y-337697D02*
D03*
Y-343209D02*
D03*
X134055Y-211713D02*
D03*
Y-217224D02*
D03*
X279725Y-211713D02*
D03*
Y-217224D02*
D03*
X134055Y-85728D02*
D03*
Y-91240D02*
D03*
X279725Y-85728D02*
D03*
Y-91240D02*
D03*
D20*
X130118Y-262106D02*
D03*
X119291D02*
D03*
X275787D02*
D03*
X264961D02*
D03*
X130118Y-136122D02*
D03*
X119291D02*
D03*
X275787D02*
D03*
X264961D02*
D03*
X130118Y-10138D02*
D03*
X119291D02*
D03*
X275787D02*
D03*
X264961D02*
D03*
D21*
X119291Y-281693D02*
D03*
X264961D02*
D03*
X119291Y-155709D02*
D03*
X264961D02*
D03*
X119291Y-29724D02*
D03*
X264961D02*
D03*
D22*
X124016Y-287697D02*
D03*
X121654D02*
D03*
X119291D02*
D03*
X116929D02*
D03*
X114567D02*
D03*
Y-275689D02*
D03*
X116929D02*
D03*
X119291D02*
D03*
X121654D02*
D03*
X124016D02*
D03*
X269685Y-287697D02*
D03*
X267323D02*
D03*
X264961D02*
D03*
X262598D02*
D03*
X260236D02*
D03*
Y-275689D02*
D03*
X262598D02*
D03*
X264961D02*
D03*
X267323D02*
D03*
X269685D02*
D03*
X124016Y-161713D02*
D03*
X121654D02*
D03*
X119291D02*
D03*
X116929D02*
D03*
X114567D02*
D03*
Y-149705D02*
D03*
X116929D02*
D03*
X119291D02*
D03*
X121654D02*
D03*
X124016D02*
D03*
X269685Y-161713D02*
D03*
X267323D02*
D03*
X264961D02*
D03*
X262598D02*
D03*
X260236D02*
D03*
Y-149705D02*
D03*
X262598D02*
D03*
X264961D02*
D03*
X267323D02*
D03*
X269685D02*
D03*
X124016Y-35728D02*
D03*
X121654D02*
D03*
X119291D02*
D03*
X116929D02*
D03*
X114567D02*
D03*
Y-23720D02*
D03*
X116929D02*
D03*
X119291D02*
D03*
X121654D02*
D03*
X124016D02*
D03*
X269685Y-35728D02*
D03*
X267323D02*
D03*
X264961D02*
D03*
X262598D02*
D03*
X260236D02*
D03*
Y-23720D02*
D03*
X262598D02*
D03*
X264961D02*
D03*
X267323D02*
D03*
X269685D02*
D03*
D23*
X80610Y-333563D02*
D03*
Y-331594D02*
D03*
Y-329626D02*
D03*
Y-327657D02*
D03*
Y-325689D02*
D03*
Y-323720D02*
D03*
Y-321752D02*
D03*
Y-319783D02*
D03*
Y-317815D02*
D03*
Y-315846D02*
D03*
Y-313878D02*
D03*
Y-311909D02*
D03*
X114272D02*
D03*
Y-313878D02*
D03*
Y-315846D02*
D03*
Y-317815D02*
D03*
Y-319783D02*
D03*
Y-321752D02*
D03*
Y-323720D02*
D03*
Y-325689D02*
D03*
Y-327657D02*
D03*
Y-329626D02*
D03*
Y-331594D02*
D03*
Y-333563D02*
D03*
X226280D02*
D03*
Y-331594D02*
D03*
Y-329626D02*
D03*
Y-327657D02*
D03*
Y-325689D02*
D03*
Y-323720D02*
D03*
Y-321752D02*
D03*
Y-319783D02*
D03*
Y-317815D02*
D03*
Y-315846D02*
D03*
Y-313878D02*
D03*
Y-311909D02*
D03*
X259941D02*
D03*
Y-313878D02*
D03*
Y-315846D02*
D03*
Y-317815D02*
D03*
Y-319783D02*
D03*
Y-321752D02*
D03*
Y-323720D02*
D03*
Y-325689D02*
D03*
Y-327657D02*
D03*
Y-329626D02*
D03*
Y-331594D02*
D03*
Y-333563D02*
D03*
X80610Y-207579D02*
D03*
Y-205610D02*
D03*
Y-203642D02*
D03*
Y-201673D02*
D03*
Y-199705D02*
D03*
Y-197736D02*
D03*
Y-195768D02*
D03*
Y-193799D02*
D03*
Y-191831D02*
D03*
Y-189862D02*
D03*
Y-187894D02*
D03*
Y-185925D02*
D03*
X114272D02*
D03*
Y-187894D02*
D03*
Y-189862D02*
D03*
Y-191831D02*
D03*
Y-193799D02*
D03*
Y-195768D02*
D03*
Y-197736D02*
D03*
Y-199705D02*
D03*
Y-201673D02*
D03*
Y-203642D02*
D03*
Y-205610D02*
D03*
Y-207579D02*
D03*
X226280D02*
D03*
Y-205610D02*
D03*
Y-203642D02*
D03*
Y-201673D02*
D03*
Y-199705D02*
D03*
Y-197736D02*
D03*
Y-195768D02*
D03*
Y-193799D02*
D03*
Y-191831D02*
D03*
Y-189862D02*
D03*
Y-187894D02*
D03*
Y-185925D02*
D03*
X259941D02*
D03*
Y-187894D02*
D03*
Y-189862D02*
D03*
Y-191831D02*
D03*
Y-193799D02*
D03*
Y-195768D02*
D03*
Y-197736D02*
D03*
Y-199705D02*
D03*
Y-201673D02*
D03*
Y-203642D02*
D03*
Y-205610D02*
D03*
Y-207579D02*
D03*
X80610Y-81594D02*
D03*
Y-79626D02*
D03*
Y-77657D02*
D03*
Y-75689D02*
D03*
Y-73720D02*
D03*
Y-71752D02*
D03*
Y-69783D02*
D03*
Y-67815D02*
D03*
Y-65846D02*
D03*
Y-63878D02*
D03*
Y-61909D02*
D03*
Y-59941D02*
D03*
X114272D02*
D03*
Y-61909D02*
D03*
Y-63878D02*
D03*
Y-65846D02*
D03*
Y-67815D02*
D03*
Y-69783D02*
D03*
Y-71752D02*
D03*
Y-73720D02*
D03*
Y-75689D02*
D03*
Y-77657D02*
D03*
Y-79626D02*
D03*
Y-81594D02*
D03*
X226280D02*
D03*
Y-79626D02*
D03*
Y-77657D02*
D03*
Y-75689D02*
D03*
Y-73720D02*
D03*
Y-71752D02*
D03*
Y-69783D02*
D03*
Y-67815D02*
D03*
Y-65846D02*
D03*
Y-63878D02*
D03*
Y-61909D02*
D03*
Y-59941D02*
D03*
X259941D02*
D03*
Y-61909D02*
D03*
Y-63878D02*
D03*
Y-65846D02*
D03*
Y-67815D02*
D03*
Y-69783D02*
D03*
Y-71752D02*
D03*
Y-73720D02*
D03*
Y-75689D02*
D03*
Y-77657D02*
D03*
Y-79626D02*
D03*
Y-81594D02*
D03*
D24*
X86614Y-305906D02*
D03*
X88583D02*
D03*
X90551D02*
D03*
X92520D02*
D03*
X94488D02*
D03*
X96457D02*
D03*
X98425D02*
D03*
X100394D02*
D03*
X102362D02*
D03*
X104331D02*
D03*
X106299D02*
D03*
X108268D02*
D03*
Y-339567D02*
D03*
X106299D02*
D03*
X104331D02*
D03*
X102362D02*
D03*
X100394D02*
D03*
X98425D02*
D03*
X96457D02*
D03*
X94488D02*
D03*
X92520D02*
D03*
X90551D02*
D03*
X88583D02*
D03*
X232284Y-305906D02*
D03*
X234252D02*
D03*
X236221D02*
D03*
X238189D02*
D03*
X240158D02*
D03*
X242126D02*
D03*
X244095D02*
D03*
X246063D02*
D03*
X248032D02*
D03*
X250000D02*
D03*
X251969D02*
D03*
X253937D02*
D03*
Y-339567D02*
D03*
X251969D02*
D03*
X250000D02*
D03*
X248032D02*
D03*
X246063D02*
D03*
X244095D02*
D03*
X242126D02*
D03*
X240158D02*
D03*
X238189D02*
D03*
X236221D02*
D03*
X234252D02*
D03*
X86614Y-179921D02*
D03*
X88583D02*
D03*
X90551D02*
D03*
X92520D02*
D03*
X94488D02*
D03*
X96457D02*
D03*
X98425D02*
D03*
X100394D02*
D03*
X102362D02*
D03*
X104331D02*
D03*
X106299D02*
D03*
X108268D02*
D03*
Y-213583D02*
D03*
X106299D02*
D03*
X104331D02*
D03*
X102362D02*
D03*
X100394D02*
D03*
X98425D02*
D03*
X96457D02*
D03*
X94488D02*
D03*
X92520D02*
D03*
X90551D02*
D03*
X88583D02*
D03*
X232284Y-179921D02*
D03*
X234252D02*
D03*
X236221D02*
D03*
X238189D02*
D03*
X240158D02*
D03*
X242126D02*
D03*
X244095D02*
D03*
X246063D02*
D03*
X248032D02*
D03*
X250000D02*
D03*
X251969D02*
D03*
X253937D02*
D03*
Y-213583D02*
D03*
X251969D02*
D03*
X250000D02*
D03*
X248032D02*
D03*
X246063D02*
D03*
X244095D02*
D03*
X242126D02*
D03*
X240158D02*
D03*
X238189D02*
D03*
X236221D02*
D03*
X234252D02*
D03*
X86614Y-53937D02*
D03*
X88583D02*
D03*
X90551D02*
D03*
X92520D02*
D03*
X94488D02*
D03*
X96457D02*
D03*
X98425D02*
D03*
X100394D02*
D03*
X102362D02*
D03*
X104331D02*
D03*
X106299D02*
D03*
X108268D02*
D03*
Y-87598D02*
D03*
X106299D02*
D03*
X104331D02*
D03*
X102362D02*
D03*
X100394D02*
D03*
X98425D02*
D03*
X96457D02*
D03*
X94488D02*
D03*
X92520D02*
D03*
X90551D02*
D03*
X88583D02*
D03*
X232284Y-53937D02*
D03*
X234252D02*
D03*
X236221D02*
D03*
X238189D02*
D03*
X240158D02*
D03*
X242126D02*
D03*
X244095D02*
D03*
X246063D02*
D03*
X248032D02*
D03*
X250000D02*
D03*
X251969D02*
D03*
X253937D02*
D03*
Y-87598D02*
D03*
X251969D02*
D03*
X250000D02*
D03*
X248032D02*
D03*
X246063D02*
D03*
X244095D02*
D03*
X242126D02*
D03*
X240158D02*
D03*
X238189D02*
D03*
X236221D02*
D03*
X234252D02*
D03*
D25*
X86614Y-339567D02*
D03*
X232284D02*
D03*
X86614Y-213583D02*
D03*
X232284D02*
D03*
X86614Y-87598D02*
D03*
X232284D02*
D03*
D26*
X102953Y-360925D02*
D03*
X86024D02*
D03*
X248622D02*
D03*
X231693D02*
D03*
X102953Y-234941D02*
D03*
X86024D02*
D03*
X248622D02*
D03*
X231693D02*
D03*
X102953Y-108957D02*
D03*
X86024D02*
D03*
X248622D02*
D03*
X231693D02*
D03*
D27*
X149409Y-280610D02*
D03*
Y-342028D02*
D03*
X295079Y-280610D02*
D03*
Y-342028D02*
D03*
X149409Y-154626D02*
D03*
Y-216043D02*
D03*
X295079Y-154626D02*
D03*
Y-216043D02*
D03*
X149409Y-28642D02*
D03*
Y-90059D02*
D03*
X295079Y-28642D02*
D03*
Y-90059D02*
D03*
D28*
X156496Y-334941D02*
D03*
Y-332972D02*
D03*
Y-331004D02*
D03*
Y-329035D02*
D03*
Y-327067D02*
D03*
Y-325098D02*
D03*
Y-323130D02*
D03*
Y-321161D02*
D03*
Y-319193D02*
D03*
Y-317224D02*
D03*
Y-315256D02*
D03*
Y-313287D02*
D03*
Y-311319D02*
D03*
Y-309350D02*
D03*
Y-307382D02*
D03*
Y-305413D02*
D03*
Y-303445D02*
D03*
Y-301476D02*
D03*
Y-299508D02*
D03*
Y-297539D02*
D03*
Y-295571D02*
D03*
Y-293602D02*
D03*
Y-291634D02*
D03*
Y-289665D02*
D03*
Y-287697D02*
D03*
X142323Y-334941D02*
D03*
Y-332972D02*
D03*
Y-331004D02*
D03*
Y-329035D02*
D03*
Y-327067D02*
D03*
Y-325098D02*
D03*
Y-323130D02*
D03*
Y-321161D02*
D03*
Y-319193D02*
D03*
Y-317224D02*
D03*
Y-315256D02*
D03*
Y-313287D02*
D03*
Y-311319D02*
D03*
Y-309350D02*
D03*
Y-307382D02*
D03*
Y-305413D02*
D03*
Y-303445D02*
D03*
Y-301476D02*
D03*
Y-299508D02*
D03*
Y-297539D02*
D03*
Y-295571D02*
D03*
Y-293602D02*
D03*
Y-291634D02*
D03*
Y-289665D02*
D03*
X302166Y-334941D02*
D03*
Y-332972D02*
D03*
Y-331004D02*
D03*
Y-329035D02*
D03*
Y-327067D02*
D03*
Y-325098D02*
D03*
Y-323130D02*
D03*
Y-321161D02*
D03*
Y-319193D02*
D03*
Y-317224D02*
D03*
Y-315256D02*
D03*
Y-313287D02*
D03*
Y-311319D02*
D03*
Y-309350D02*
D03*
Y-307382D02*
D03*
Y-305413D02*
D03*
Y-303445D02*
D03*
Y-301476D02*
D03*
Y-299508D02*
D03*
Y-297539D02*
D03*
Y-295571D02*
D03*
Y-293602D02*
D03*
Y-291634D02*
D03*
Y-289665D02*
D03*
Y-287697D02*
D03*
X287992Y-334941D02*
D03*
Y-332972D02*
D03*
Y-331004D02*
D03*
Y-329035D02*
D03*
Y-327067D02*
D03*
Y-325098D02*
D03*
Y-323130D02*
D03*
Y-321161D02*
D03*
Y-319193D02*
D03*
Y-317224D02*
D03*
Y-315256D02*
D03*
Y-313287D02*
D03*
Y-311319D02*
D03*
Y-309350D02*
D03*
Y-307382D02*
D03*
Y-305413D02*
D03*
Y-303445D02*
D03*
Y-301476D02*
D03*
Y-299508D02*
D03*
Y-297539D02*
D03*
Y-295571D02*
D03*
Y-293602D02*
D03*
Y-291634D02*
D03*
Y-289665D02*
D03*
X156496Y-208957D02*
D03*
Y-206988D02*
D03*
Y-205019D02*
D03*
Y-203051D02*
D03*
Y-201082D02*
D03*
Y-199114D02*
D03*
Y-197145D02*
D03*
Y-195177D02*
D03*
Y-193209D02*
D03*
Y-191240D02*
D03*
Y-189271D02*
D03*
Y-187303D02*
D03*
Y-185335D02*
D03*
Y-183366D02*
D03*
Y-181397D02*
D03*
Y-179429D02*
D03*
Y-177461D02*
D03*
Y-175492D02*
D03*
Y-173523D02*
D03*
Y-171555D02*
D03*
Y-169587D02*
D03*
Y-167618D02*
D03*
Y-165649D02*
D03*
Y-163681D02*
D03*
Y-161713D02*
D03*
X142323Y-208957D02*
D03*
Y-206988D02*
D03*
Y-205019D02*
D03*
Y-203051D02*
D03*
Y-201082D02*
D03*
Y-199114D02*
D03*
Y-197145D02*
D03*
Y-195177D02*
D03*
Y-193209D02*
D03*
Y-191240D02*
D03*
Y-189271D02*
D03*
Y-187303D02*
D03*
Y-185335D02*
D03*
Y-183366D02*
D03*
Y-181397D02*
D03*
Y-179429D02*
D03*
Y-177461D02*
D03*
Y-175492D02*
D03*
Y-173523D02*
D03*
Y-171555D02*
D03*
Y-169587D02*
D03*
Y-167618D02*
D03*
Y-165649D02*
D03*
Y-163681D02*
D03*
X302166Y-208957D02*
D03*
Y-206988D02*
D03*
Y-205019D02*
D03*
Y-203051D02*
D03*
Y-201082D02*
D03*
Y-199114D02*
D03*
Y-197145D02*
D03*
Y-195177D02*
D03*
Y-193209D02*
D03*
Y-191240D02*
D03*
Y-189271D02*
D03*
Y-187303D02*
D03*
Y-185335D02*
D03*
Y-183366D02*
D03*
Y-181397D02*
D03*
Y-179429D02*
D03*
Y-177461D02*
D03*
Y-175492D02*
D03*
Y-173523D02*
D03*
Y-171555D02*
D03*
Y-169587D02*
D03*
Y-167618D02*
D03*
Y-165649D02*
D03*
Y-163681D02*
D03*
Y-161713D02*
D03*
X287992Y-208957D02*
D03*
Y-206988D02*
D03*
Y-205019D02*
D03*
Y-203051D02*
D03*
Y-201082D02*
D03*
Y-199114D02*
D03*
Y-197145D02*
D03*
Y-195177D02*
D03*
Y-193209D02*
D03*
Y-191240D02*
D03*
Y-189271D02*
D03*
Y-187303D02*
D03*
Y-185335D02*
D03*
Y-183366D02*
D03*
Y-181397D02*
D03*
Y-179429D02*
D03*
Y-177461D02*
D03*
Y-175492D02*
D03*
Y-173523D02*
D03*
Y-171555D02*
D03*
Y-169587D02*
D03*
Y-167618D02*
D03*
Y-165649D02*
D03*
Y-163681D02*
D03*
X156496Y-82972D02*
D03*
Y-81004D02*
D03*
Y-79035D02*
D03*
Y-77067D02*
D03*
Y-75098D02*
D03*
Y-73130D02*
D03*
Y-71161D02*
D03*
Y-69193D02*
D03*
Y-67224D02*
D03*
Y-65256D02*
D03*
Y-63287D02*
D03*
Y-61319D02*
D03*
Y-59350D02*
D03*
Y-57382D02*
D03*
Y-55413D02*
D03*
Y-53445D02*
D03*
Y-51476D02*
D03*
Y-49508D02*
D03*
Y-47539D02*
D03*
Y-45571D02*
D03*
Y-43602D02*
D03*
Y-41634D02*
D03*
Y-39665D02*
D03*
Y-37697D02*
D03*
Y-35728D02*
D03*
X142323Y-82972D02*
D03*
Y-81004D02*
D03*
Y-79035D02*
D03*
Y-77067D02*
D03*
Y-75098D02*
D03*
Y-73130D02*
D03*
Y-71161D02*
D03*
Y-69193D02*
D03*
Y-67224D02*
D03*
Y-65256D02*
D03*
Y-63287D02*
D03*
Y-61319D02*
D03*
Y-59350D02*
D03*
Y-57382D02*
D03*
Y-55413D02*
D03*
Y-53445D02*
D03*
Y-51476D02*
D03*
Y-49508D02*
D03*
Y-47539D02*
D03*
Y-45571D02*
D03*
Y-43602D02*
D03*
Y-41634D02*
D03*
Y-39665D02*
D03*
Y-37697D02*
D03*
X302166Y-82972D02*
D03*
Y-81004D02*
D03*
Y-79035D02*
D03*
Y-77067D02*
D03*
Y-75098D02*
D03*
Y-73130D02*
D03*
Y-71161D02*
D03*
Y-69193D02*
D03*
Y-67224D02*
D03*
Y-65256D02*
D03*
Y-63287D02*
D03*
Y-61319D02*
D03*
Y-59350D02*
D03*
Y-57382D02*
D03*
Y-55413D02*
D03*
Y-53445D02*
D03*
Y-51476D02*
D03*
Y-49508D02*
D03*
Y-47539D02*
D03*
Y-45571D02*
D03*
Y-43602D02*
D03*
Y-41634D02*
D03*
Y-39665D02*
D03*
Y-37697D02*
D03*
Y-35728D02*
D03*
X287992Y-82972D02*
D03*
Y-81004D02*
D03*
Y-79035D02*
D03*
Y-77067D02*
D03*
Y-75098D02*
D03*
Y-73130D02*
D03*
Y-71161D02*
D03*
Y-69193D02*
D03*
Y-67224D02*
D03*
Y-65256D02*
D03*
Y-63287D02*
D03*
Y-61319D02*
D03*
Y-59350D02*
D03*
Y-57382D02*
D03*
Y-55413D02*
D03*
Y-53445D02*
D03*
Y-51476D02*
D03*
Y-49508D02*
D03*
Y-47539D02*
D03*
Y-45571D02*
D03*
Y-43602D02*
D03*
Y-41634D02*
D03*
Y-39665D02*
D03*
Y-37697D02*
D03*
D29*
X142323Y-287697D02*
D03*
X287992D02*
D03*
X142323Y-161713D02*
D03*
X287992D02*
D03*
X142323Y-35728D02*
D03*
X287992D02*
D03*
D30*
X63189Y-308169D02*
D03*
X208858D02*
D03*
X63189Y-182185D02*
D03*
X208858D02*
D03*
X63189Y-56201D02*
D03*
X208858D02*
D03*
D31*
X63189Y-305610D02*
D03*
Y-303051D02*
D03*
Y-300492D02*
D03*
X52756Y-308169D02*
D03*
Y-300492D02*
D03*
Y-303051D02*
D03*
Y-305610D02*
D03*
X208858D02*
D03*
Y-303051D02*
D03*
Y-300492D02*
D03*
X198425Y-308169D02*
D03*
Y-300492D02*
D03*
Y-303051D02*
D03*
Y-305610D02*
D03*
X63189Y-179626D02*
D03*
Y-177067D02*
D03*
Y-174508D02*
D03*
X52756Y-182185D02*
D03*
Y-174508D02*
D03*
Y-177067D02*
D03*
Y-179626D02*
D03*
X208858D02*
D03*
Y-177067D02*
D03*
Y-174508D02*
D03*
X198425Y-182185D02*
D03*
Y-174508D02*
D03*
Y-177067D02*
D03*
Y-179626D02*
D03*
X63189Y-53642D02*
D03*
Y-51082D02*
D03*
Y-48524D02*
D03*
X52756Y-56201D02*
D03*
Y-48524D02*
D03*
Y-51082D02*
D03*
Y-53642D02*
D03*
X208858D02*
D03*
Y-51082D02*
D03*
Y-48524D02*
D03*
X198425Y-56201D02*
D03*
Y-48524D02*
D03*
Y-51082D02*
D03*
Y-53642D02*
D03*
M02*
