G04*
G04 #@! TF.GenerationSoftware,Altium Limited,Altium Designer,18.1.6 (161)*
G04*
G04 Layer_Color=16711935*
%FSLAX25Y25*%
%MOIN*%
G70*
G01*
G75*
%ADD75C,0.00394*%
%ADD76R,0.00847X0.03150*%
D75*
X305315Y207929D02*
G03*
X305315Y207929I-1969J0D01*
G01*
X207874Y138976D02*
G03*
X207874Y138976I-1969J0D01*
G01*
X159386Y137858D02*
G03*
X159386Y137858I-1181J0D01*
G01*
X158272Y200591D02*
G03*
X158272Y200591I-1969J0D01*
G01*
X175984Y68110D02*
Y71260D01*
X169685Y68110D02*
Y71260D01*
X175984D01*
X169685Y68110D02*
X175984D01*
X188529Y68031D02*
Y71181D01*
X182229Y68031D02*
Y71181D01*
X188529D01*
X182229Y68031D02*
X188529D01*
X284252Y228642D02*
Y233563D01*
X292126Y228642D02*
Y233563D01*
X284252Y228642D02*
X292126D01*
X284252Y233563D02*
X292126D01*
X112677Y143521D02*
X116457D01*
X112677Y136631D02*
X116457D01*
X112677D02*
Y143521D01*
X116457Y136631D02*
Y143521D01*
X196772Y147477D02*
Y154367D01*
X192992D02*
X196772D01*
X192992Y147477D02*
X196772D01*
X192992D02*
Y154367D01*
X286221Y213165D02*
X293110D01*
X286221Y209386D02*
Y213165D01*
X293110Y209386D02*
Y213165D01*
X286221Y209386D02*
X293110D01*
X286319Y221039D02*
X293209D01*
X286319Y217260D02*
Y221039D01*
X293209Y217260D02*
Y221039D01*
X286319Y217260D02*
X293209D01*
X286268Y196119D02*
X293158D01*
X286268Y192339D02*
Y196119D01*
X293158Y192339D02*
Y196119D01*
X286268Y192339D02*
X293158D01*
X286417Y203323D02*
X293307D01*
X286417Y199543D02*
Y203323D01*
X293307Y199543D02*
Y203323D01*
X286417Y199543D02*
X293307D01*
X227244Y146752D02*
X231024D01*
X227244Y139862D02*
X231024D01*
X227244D02*
Y146752D01*
X231024Y139862D02*
Y146752D01*
X241338Y143799D02*
Y150099D01*
Y143799D02*
X244488D01*
X241338Y150099D02*
X244488D01*
Y143799D02*
Y150099D01*
X251575Y143701D02*
Y150000D01*
Y143701D02*
X254724D01*
X251575Y150000D02*
X254724D01*
Y143701D02*
Y150000D01*
X312008Y204386D02*
Y216591D01*
X299803D02*
X312008D01*
X299803Y204386D02*
Y216591D01*
Y204386D02*
X312008D01*
X218110Y122835D02*
Y142520D01*
X202362D02*
X218110D01*
X202362Y122835D02*
X218110D01*
X202362D02*
Y142520D01*
X156299Y127953D02*
Y139764D01*
X168110Y127953D02*
Y139764D01*
X156299D02*
X168110D01*
X156299Y127953D02*
X168110D01*
X130787Y121358D02*
X134567D01*
X130787Y128248D02*
X134567D01*
Y121358D02*
Y128248D01*
X130787Y121358D02*
Y128248D01*
X121854Y127504D02*
X125004D01*
X121854Y121205D02*
Y127504D01*
X125004Y121205D02*
Y127504D01*
X121854Y121205D02*
X125004D01*
X90945Y128347D02*
X94094D01*
X90945Y122047D02*
Y128347D01*
X94094Y122047D02*
Y128347D01*
X90945Y122047D02*
X94094D01*
X101969Y136614D02*
Y139764D01*
X95669D02*
X101969D01*
X95669Y136614D02*
X101969D01*
X95669D02*
Y139764D01*
X105610Y119587D02*
Y131595D01*
X112500Y119587D02*
Y131595D01*
X105610D02*
X112500D01*
X105610Y119587D02*
X112500D01*
X128839Y152441D02*
Y156220D01*
X135728Y152441D02*
Y156220D01*
X128839Y152441D02*
X135728D01*
X128839Y156220D02*
X135728D01*
X128740Y161119D02*
X135039D01*
Y164269D01*
X128740Y161119D02*
Y164269D01*
X135039D01*
X90157Y164567D02*
X96457D01*
X90157Y161417D02*
Y164567D01*
X96457Y161417D02*
Y164567D01*
X90157Y161417D02*
X96457D01*
X172362Y178839D02*
Y185728D01*
X168583Y178839D02*
Y185728D01*
X172362D01*
X168583Y178839D02*
X172362D01*
X152047Y159547D02*
Y166437D01*
X155827Y159547D02*
Y166437D01*
X152047Y159547D02*
X155827D01*
X152047Y166437D02*
X155827D01*
X179626Y154410D02*
X186516D01*
X179626Y158189D02*
X186516D01*
Y154410D02*
Y158189D01*
X179626Y154410D02*
Y158189D01*
X143417Y207398D02*
Y220587D01*
X136528Y207398D02*
Y220587D01*
X143417D01*
X136528Y207398D02*
X143417D01*
X131024Y170965D02*
Y177854D01*
X127244Y170965D02*
Y177854D01*
X131024D01*
X127244Y170965D02*
X131024D01*
X180512Y184055D02*
Y208858D01*
X205315Y184055D02*
Y208858D01*
X180512Y184055D02*
X205315D01*
X180512Y208858D02*
X205315D01*
X104862Y189784D02*
X125846D01*
X104862Y200768D02*
X125846D01*
Y189784D02*
Y200768D01*
X104862Y189784D02*
Y200768D01*
X159449Y178740D02*
Y185039D01*
X162598Y178740D02*
Y185039D01*
X159449Y178740D02*
X162598D01*
X159449Y185039D02*
X162598D01*
X150394Y178740D02*
Y185039D01*
X153543Y178740D02*
Y185039D01*
X150394Y178740D02*
X153543D01*
X150394Y185039D02*
X153543D01*
X157874Y211024D02*
Y217323D01*
X154724Y211024D02*
Y217323D01*
X157874D01*
X154724Y211024D02*
X157874D01*
X94488Y174016D02*
Y180315D01*
X97638Y174016D02*
Y180315D01*
X94488Y174016D02*
X97638D01*
X94488Y180315D02*
X97638D01*
X152760Y191929D02*
X164965D01*
X152760Y204134D02*
X164965D01*
Y191929D02*
Y204134D01*
X152760Y191929D02*
Y204134D01*
X161532Y157776D02*
Y164075D01*
X173147Y157776D02*
Y164075D01*
X161532Y157776D02*
X173147D01*
X161532Y164075D02*
X173147D01*
X110929Y160531D02*
X117819D01*
X110929Y172539D02*
X117819D01*
Y160531D02*
Y172539D01*
X110929Y160531D02*
Y172539D01*
X11811Y173228D02*
X14961D01*
X11811Y166929D02*
Y173228D01*
X14961Y166929D02*
Y173228D01*
X11811Y166929D02*
X14961D01*
Y151280D02*
Y157579D01*
X11811Y151280D02*
X14961D01*
X11811Y157579D02*
X14961D01*
X11811Y151280D02*
Y157579D01*
X14961Y120965D02*
Y127264D01*
X11811Y120965D02*
X14961D01*
X11811Y127264D02*
X14961D01*
X11811Y120965D02*
Y127264D01*
Y137795D02*
Y144095D01*
X14961D01*
X11811Y137795D02*
X14961D01*
Y144095D01*
X164272Y120551D02*
X171161D01*
X164272Y124331D02*
X171161D01*
X164272Y120551D02*
Y124331D01*
X171161Y120551D02*
Y124331D01*
X31147Y183425D02*
X37446D01*
X31147D02*
Y186574D01*
X37446Y183425D02*
Y186574D01*
X31147D02*
X37446D01*
X18504Y183465D02*
Y186614D01*
X24803D01*
X18504Y183465D02*
X24803D01*
Y186614D01*
X178740Y121358D02*
Y127657D01*
Y121358D02*
X181890D01*
X178740Y127657D02*
X181890D01*
Y121358D02*
Y127657D01*
X188976Y138189D02*
Y144488D01*
X185827D02*
X188976D01*
X185827Y138189D02*
X188976D01*
X185827D02*
Y144488D01*
D76*
X170109Y69685D02*
D03*
X37023Y185000D02*
D03*
M02*
