M48
;Layer_Color=9474304
;FILE_FORMAT=2:5
INCH,TZ
;TYPE=PLATED
T1F00S00C0.01181
T2F00S00C0.03937
T3F00S00C0.05118
T4F00S00C0.05984
T5F00S00C0.15748
T6F00S00C0.18819
%
T01
X188976Y17717
Y23622
X194882
X200787
X194882Y17717
X212598Y15748
Y9843
X218504
Y15748
Y21654
X165084Y69685
X59055Y108268
X84646Y122047
X71260Y142913
Y157480
X84646Y162992
X114567Y156299
X19291Y150787
X13386Y115748
X125197Y147244
X131496
X140157
X146063
X148130Y160335
X167340Y160630
X170866Y142913
X176772Y142520
X181102Y148031
X187795Y162205
X194882Y159449
X164173Y138189
X175591Y126378
Y119291
X170472Y190157
X174409Y197638
X158862Y196063
X160236Y201969
X156693Y222441
X140157Y226378
X133858Y182283
X147244Y179134
X122835Y157874
X253150Y138583
Y130177
X354331Y222441
Y228346
X360236
X372047Y204724
X377953
Y210630
X397638Y267717
X411417Y269685
Y263780
Y275591
X407480Y279528
X403543Y283465
X391732Y277559
X387795Y281496
X395669Y273622
X374016Y279528
X370079
X366142
X350394Y287402
X346457
X350394Y291339
T02
X114567Y179007
X183858Y175371
X162992Y148031
T03
X29528Y208268
X53150
Y236221
X29528
X448819Y196850
Y173228
Y141732
Y118110
T04
X366181Y31496
X389173
X174685Y43012
X151693
X128701
Y19980
X151693
X174685
X337126Y271949
X360118
X383110
Y294980
X360118
X337126
X155630
X132638
Y271949
X155630
T05
X419291Y94488
X92520
Y220473
X419291
T06
X448819Y31496
X306535
X240394
X62992
X448819Y283465
X271417
X225276
X62992
M30
