G04*
G04 #@! TF.GenerationSoftware,Altium Limited,Altium Designer,19.0.10 (269)*
G04*
G04 Layer_Physical_Order=1*
G04 Layer_Color=255*
%FSLAX25Y25*%
%MOIN*%
G70*
G01*
G75*
%ADD10C,0.01968*%
%ADD11C,0.00984*%
%ADD14C,0.01575*%
%ADD15C,0.01000*%
%ADD19R,0.07087X0.03150*%
%ADD20O,0.06299X0.01181*%
%ADD21R,0.06299X0.01181*%
%ADD22R,0.03347X0.03347*%
%ADD23R,0.03543X0.03937*%
G04:AMPARAMS|DCode=24|XSize=78.74mil|YSize=165.35mil|CornerRadius=19.68mil|HoleSize=0mil|Usage=FLASHONLY|Rotation=90.000|XOffset=0mil|YOffset=0mil|HoleType=Round|Shape=RoundedRectangle|*
%AMROUNDEDRECTD24*
21,1,0.07874,0.12598,0,0,90.0*
21,1,0.03937,0.16535,0,0,90.0*
1,1,0.03937,0.06299,0.01968*
1,1,0.03937,0.06299,-0.01968*
1,1,0.03937,-0.06299,-0.01968*
1,1,0.03937,-0.06299,0.01968*
%
%ADD24ROUNDEDRECTD24*%
G04:AMPARAMS|DCode=25|XSize=47.24mil|YSize=86.61mil|CornerRadius=11.81mil|HoleSize=0mil|Usage=FLASHONLY|Rotation=90.000|XOffset=0mil|YOffset=0mil|HoleType=Round|Shape=RoundedRectangle|*
%AMROUNDEDRECTD25*
21,1,0.04724,0.06299,0,0,90.0*
21,1,0.02362,0.08661,0,0,90.0*
1,1,0.02362,0.03150,0.01181*
1,1,0.02362,0.03150,-0.01181*
1,1,0.02362,-0.03150,-0.01181*
1,1,0.02362,-0.03150,0.01181*
%
%ADD25ROUNDEDRECTD25*%
%ADD26R,0.08661X0.04724*%
%ADD27R,0.03543X0.03150*%
%ADD28R,0.03347X0.03347*%
%ADD29O,0.01772X0.04331*%
%ADD30R,0.01772X0.04331*%
%ADD31R,0.05512X0.08661*%
%ADD32R,0.05512X0.03543*%
%ADD33R,0.03937X0.03543*%
%ADD34R,0.07000X0.08500*%
%ADD35R,0.08500X0.07000*%
%ADD36R,0.04528X0.05512*%
%ADD37R,0.08661X0.05512*%
%ADD38R,0.03543X0.05512*%
%ADD39R,0.01772X0.05709*%
%ADD40O,0.05709X0.01772*%
%ADD41R,0.05709X0.01772*%
%ADD42O,0.01772X0.05709*%
%ADD43R,0.03150X0.03150*%
%ADD44R,0.12992X0.09449*%
%ADD45R,0.03937X0.09449*%
%ADD46R,0.07480X0.09449*%
%ADD47R,0.02756X0.03150*%
%ADD48R,0.03150X0.03150*%
%ADD49R,0.03150X0.03543*%
%ADD89R,0.03937X0.03937*%
%ADD90C,0.01772*%
%ADD91C,0.02953*%
%ADD92C,0.03937*%
%ADD93C,0.01378*%
%ADD94C,0.01500*%
%ADD95C,0.00866*%
%ADD96C,0.03150*%
%ADD97C,0.02756*%
%ADD98R,0.06299X0.06299*%
%ADD99C,0.06299*%
%ADD100R,0.06299X0.06299*%
%ADD101C,0.10630*%
%ADD102C,0.02362*%
G36*
X146163Y212857D02*
X146180Y212629D01*
X146195Y212536D01*
X146214Y212457D01*
X146237Y212393D01*
X146264Y212343D01*
X146295Y212308D01*
X146331Y212286D01*
X146370Y212279D01*
X144968D01*
X145008Y212286D01*
X145044Y212308D01*
X145075Y212343D01*
X145102Y212393D01*
X145125Y212457D01*
X145144Y212536D01*
X145158Y212629D01*
X145169Y212736D01*
X145177Y212992D01*
X146161D01*
X146163Y212857D01*
D02*
G37*
G36*
X64936Y212474D02*
X64880Y212400D01*
X64829Y212320D01*
X64786Y212235D01*
X64749Y212144D01*
X64719Y212047D01*
X64696Y211945D01*
X64679Y211837D01*
X64669Y211723D01*
X64665Y211603D01*
X63681D01*
X63678Y211723D01*
X63668Y211837D01*
X63651Y211945D01*
X63628Y212047D01*
X63597Y212144D01*
X63561Y212235D01*
X63517Y212320D01*
X63467Y212400D01*
X63410Y212474D01*
X63346Y212542D01*
X65000D01*
X64936Y212474D01*
D02*
G37*
G36*
X144020Y209646D02*
X144010Y209739D01*
X143980Y209823D01*
X143930Y209897D01*
X143861Y209961D01*
X143771Y210015D01*
X143661Y210059D01*
X143532Y210093D01*
X143383Y210118D01*
X143213Y210133D01*
X143024Y210138D01*
Y211122D01*
X143213Y211127D01*
X143383Y211142D01*
X143532Y211166D01*
X143661Y211201D01*
X143771Y211245D01*
X143861Y211299D01*
X143930Y211363D01*
X143980Y211437D01*
X144010Y211521D01*
X144020Y211614D01*
Y209646D01*
D02*
G37*
G36*
X112505Y209051D02*
X112520Y208881D01*
X112544Y208732D01*
X112579Y208602D01*
X112623Y208493D01*
X112677Y208403D01*
X112741Y208333D01*
X112815Y208284D01*
X112899Y208254D01*
X112992Y208244D01*
X111024D01*
X111117Y208254D01*
X111201Y208284D01*
X111275Y208333D01*
X111339Y208403D01*
X111393Y208493D01*
X111437Y208602D01*
X111471Y208732D01*
X111496Y208881D01*
X111511Y209051D01*
X111516Y209240D01*
X112500D01*
X112505Y209051D01*
D02*
G37*
G36*
X72491Y204205D02*
X72601Y204149D01*
X72719Y204099D01*
X72844Y204056D01*
X72977Y204020D01*
X73118Y203990D01*
X73265Y203967D01*
X73583Y203940D01*
X73754Y203937D01*
Y202953D01*
X73583Y202950D01*
X73265Y202923D01*
X73118Y202900D01*
X72977Y202870D01*
X72844Y202834D01*
X72719Y202791D01*
X72601Y202741D01*
X72491Y202685D01*
X72388Y202622D01*
Y204268D01*
X72491Y204205D01*
D02*
G37*
G36*
X76599Y202461D02*
X76589Y202554D01*
X76559Y202638D01*
X76509Y202712D01*
X76439Y202776D01*
X76350Y202830D01*
X76240Y202874D01*
X76111Y202908D01*
X75961Y202933D01*
X75792Y202948D01*
X75603Y202953D01*
Y203937D01*
X75792Y203942D01*
X75961Y203957D01*
X76111Y203981D01*
X76240Y204016D01*
X76350Y204060D01*
X76439Y204114D01*
X76509Y204178D01*
X76559Y204252D01*
X76589Y204336D01*
X76599Y204429D01*
Y202461D01*
D02*
G37*
G36*
X152964Y203798D02*
X152930Y203715D01*
X152927Y203616D01*
X152953Y203501D01*
X153009Y203370D01*
X153094Y203223D01*
X153210Y203059D01*
X153355Y202880D01*
X153735Y202473D01*
X152842Y201974D01*
X152648Y202161D01*
X152297Y202458D01*
X152139Y202567D01*
X151994Y202651D01*
X151861Y202709D01*
X151740Y202741D01*
X151631Y202747D01*
X151535Y202727D01*
X151450Y202681D01*
X153027Y203865D01*
X152964Y203798D01*
D02*
G37*
G36*
X35853Y201882D02*
X35776Y201938D01*
X35686Y201966D01*
X35581D01*
X35463Y201938D01*
X35331Y201882D01*
X35185Y201799D01*
X35025Y201687D01*
X34851Y201548D01*
X34461Y201186D01*
X33765Y201882D01*
X33960Y202084D01*
X34266Y202446D01*
X34377Y202606D01*
X34461Y202752D01*
X34517Y202884D01*
X34544Y203003D01*
Y203107D01*
X34517Y203198D01*
X34461Y203274D01*
X35853Y201882D01*
D02*
G37*
G36*
X62444Y214904D02*
X62712Y214404D01*
X62495Y214081D01*
X62357Y213386D01*
X62495Y212691D01*
X62846Y212166D01*
X62871Y212100D01*
X62914Y212054D01*
X62933Y212028D01*
X62952Y211999D01*
X62969Y211965D01*
X62985Y211925D01*
X63000Y211878D01*
X63013Y211822D01*
X63023Y211758D01*
X63029Y211685D01*
X63032Y211585D01*
X63060Y211523D01*
Y202362D01*
X63144Y201936D01*
X63386Y201575D01*
X64862Y200098D01*
X65223Y199857D01*
X65650Y199772D01*
X65650Y199772D01*
X66327D01*
X66391Y199744D01*
X66541Y199741D01*
X66702Y199728D01*
X66883Y199414D01*
X66907Y199306D01*
X66903Y199195D01*
X66711Y198907D01*
X66595Y198327D01*
X66711Y197747D01*
X67039Y197256D01*
Y196839D01*
X66711Y196347D01*
X66595Y195768D01*
X66711Y195188D01*
X67039Y194696D01*
X67531Y194368D01*
X68110Y194253D01*
X68515D01*
X68528Y194170D01*
X68539Y194045D01*
X68544Y193876D01*
X68572Y193813D01*
Y192193D01*
X68506Y192128D01*
X68444Y192105D01*
X68072Y191759D01*
X67933Y191648D01*
X67815Y191566D01*
X67778Y191545D01*
X67584D01*
X67494Y191582D01*
X67444Y191562D01*
X67392Y191574D01*
X67344Y191545D01*
X63770D01*
Y189361D01*
X63769Y189361D01*
X63675Y189346D01*
X63550Y189335D01*
X63381Y189330D01*
X63318Y189303D01*
X63158D01*
X63096Y189330D01*
X62929Y189335D01*
X62806Y189346D01*
X62715Y189361D01*
X62706Y189363D01*
Y190462D01*
X58160D01*
Y185916D01*
X62706D01*
Y187015D01*
X62715Y187017D01*
X62806Y187032D01*
X62929Y187043D01*
X63096Y187048D01*
X63158Y187075D01*
X63318D01*
X63381Y187048D01*
X63550Y187043D01*
X63675Y187032D01*
X63769Y187017D01*
X63770Y187017D01*
Y184833D01*
X69498D01*
Y189392D01*
X69527Y189440D01*
X69515Y189492D01*
X69535Y189541D01*
X69498Y189631D01*
Y189825D01*
X69519Y189862D01*
X69596Y189973D01*
X69869Y190295D01*
X70049Y190482D01*
X70074Y190547D01*
X70472Y190945D01*
X70714Y191306D01*
X70799Y191732D01*
Y193813D01*
X70826Y193876D01*
X70831Y194045D01*
X70842Y194170D01*
X70855Y194253D01*
X72047D01*
X72627Y194368D01*
X73119Y194696D01*
X73447Y195188D01*
X73562Y195768D01*
X73447Y196347D01*
X73119Y196839D01*
Y197256D01*
X73447Y197747D01*
X73562Y198327D01*
X73447Y198907D01*
X73204Y199270D01*
X73151Y199606D01*
X73204Y199942D01*
X73447Y200306D01*
X73562Y200886D01*
X73447Y201466D01*
X73254Y201754D01*
X73250Y201865D01*
X73274Y201973D01*
X73456Y202287D01*
X73617Y202301D01*
X73766Y202303D01*
X73830Y202331D01*
X75523D01*
X75586Y202304D01*
X75755Y202299D01*
X75880Y202288D01*
X75974Y202273D01*
X75975Y202273D01*
Y201728D01*
X75943Y201673D01*
X75955Y201629D01*
X75937Y201587D01*
X75975Y201496D01*
Y200975D01*
X76446D01*
X76501Y200943D01*
X76521Y200940D01*
X76524Y200936D01*
X76564Y200853D01*
X76610Y200711D01*
X76650Y200523D01*
X76665Y200372D01*
X76652Y200275D01*
X76610Y200077D01*
X76564Y199934D01*
X76524Y199851D01*
X76521Y199847D01*
X76501Y199844D01*
X76446Y199813D01*
X75975D01*
Y199291D01*
X75937Y199201D01*
X75955Y199159D01*
X75943Y199115D01*
X75975Y199060D01*
Y195477D01*
X75960Y195458D01*
X75972Y195369D01*
X75937Y195285D01*
X75975Y195196D01*
Y194676D01*
X76234D01*
X76236Y194669D01*
X76261Y194507D01*
X76315Y193669D01*
X76319Y193313D01*
X76337Y193269D01*
Y184134D01*
X74125Y181921D01*
X63229D01*
X62611Y181798D01*
X62087Y181448D01*
X58897Y178258D01*
X58547Y177734D01*
X58424Y177116D01*
Y156614D01*
X58406Y156573D01*
X58397Y156219D01*
X58371Y155929D01*
X58332Y155689D01*
X58282Y155503D01*
X58229Y155371D01*
X58183Y155294D01*
X58152Y155261D01*
X58137Y155251D01*
X58122Y155245D01*
X58014Y155234D01*
X57952Y155200D01*
X57471D01*
Y154678D01*
X57433Y154588D01*
X57447Y154554D01*
X57437Y154519D01*
X57471Y154457D01*
Y144551D01*
X58431D01*
X58471Y144529D01*
X58507Y144526D01*
X58520Y144505D01*
X58552Y144424D01*
X58586Y144297D01*
X58615Y144126D01*
X58633Y143914D01*
X58640Y143646D01*
X58663Y143595D01*
Y141535D01*
X58768Y141009D01*
X59002Y140658D01*
X59045Y140550D01*
X59662Y139921D01*
X59901Y139658D01*
X59925Y139539D01*
X60011Y139411D01*
Y138245D01*
X59992Y138201D01*
Y136232D01*
X60011Y136188D01*
Y111430D01*
X59983Y111291D01*
Y94570D01*
X59973Y94553D01*
X59982Y94514D01*
X59965Y94477D01*
X59952Y94133D01*
X59916Y93866D01*
X59861Y93651D01*
X59794Y93488D01*
X59721Y93371D01*
X59645Y93289D01*
X59558Y93228D01*
X59449Y93180D01*
X59303Y93146D01*
X59069Y93130D01*
X59026Y93109D01*
X57462D01*
X57411Y93132D01*
X57143Y93138D01*
X56931Y93157D01*
X56760Y93185D01*
X56633Y93219D01*
X56552Y93252D01*
X56531Y93265D01*
X56527Y93301D01*
X56506Y93341D01*
Y94104D01*
X51368D01*
Y93341D01*
X51347Y93301D01*
X51343Y93265D01*
X51322Y93252D01*
X51241Y93219D01*
X51115Y93185D01*
X50943Y93157D01*
X50787Y93143D01*
X50631Y93157D01*
X50460Y93185D01*
X50333Y93219D01*
X50253Y93252D01*
X50232Y93265D01*
X50228Y93301D01*
X50206Y93341D01*
Y94104D01*
X45069D01*
Y93341D01*
X45048Y93301D01*
X45044Y93265D01*
X45023Y93252D01*
X44942Y93219D01*
X44815Y93185D01*
X44644Y93157D01*
X44432Y93138D01*
X44164Y93132D01*
X44113Y93109D01*
X43207D01*
X43156Y93132D01*
X42889Y93138D01*
X42676Y93157D01*
X42505Y93185D01*
X42378Y93219D01*
X42297Y93252D01*
X42277Y93265D01*
X42273Y93301D01*
X42263Y93319D01*
Y93701D01*
X42148Y94281D01*
X41819Y94772D01*
X41328Y95100D01*
X40748Y95216D01*
X40168Y95100D01*
X39677Y94772D01*
X39260D01*
X38769Y95100D01*
X38189Y95216D01*
X37609Y95100D01*
X37118Y94772D01*
X36701D01*
X36210Y95100D01*
X35630Y95216D01*
X35050Y95100D01*
X34559Y94772D01*
X34142D01*
X33651Y95100D01*
X33071Y95216D01*
X32491Y95100D01*
X32000Y94772D01*
X31671Y94281D01*
X31556Y93701D01*
Y92912D01*
X31463Y92897D01*
X31335Y92886D01*
X31163Y92882D01*
X31101Y92854D01*
X28425D01*
X28363Y92882D01*
X28191Y92886D01*
X28063Y92897D01*
X27967Y92913D01*
X27958Y92915D01*
Y94006D01*
X23412D01*
Y92915D01*
X23403Y92913D01*
X23307Y92897D01*
X23179Y92886D01*
X23007Y92882D01*
X22945Y92854D01*
X22622D01*
X22560Y92882D01*
X22388Y92886D01*
X22260Y92897D01*
X22164Y92913D01*
X22155Y92915D01*
Y94006D01*
X17609D01*
Y89459D01*
X22155D01*
Y90549D01*
X22164Y90552D01*
X22260Y90567D01*
X22388Y90579D01*
X22560Y90583D01*
X22622Y90611D01*
X22945D01*
X23007Y90583D01*
X23179Y90579D01*
X23307Y90567D01*
X23403Y90552D01*
X23412Y90549D01*
Y89459D01*
X27958D01*
Y90549D01*
X27967Y90552D01*
X28063Y90567D01*
X28191Y90579D01*
X28363Y90583D01*
X28425Y90611D01*
X31101D01*
X31163Y90583D01*
X31335Y90579D01*
X31463Y90567D01*
X31556Y90552D01*
Y89764D01*
X31671Y89184D01*
X32000Y88693D01*
X32491Y88364D01*
X33071Y88249D01*
X33651Y88364D01*
X33939Y88557D01*
X34050Y88561D01*
X34158Y88537D01*
X34472Y88355D01*
X34486Y88195D01*
X34488Y88045D01*
X34516Y87981D01*
Y87634D01*
X34261Y87240D01*
X34016Y87240D01*
X29518D01*
Y85031D01*
X29517Y85030D01*
X29423Y85015D01*
X29298Y85004D01*
X29129Y85000D01*
X29066Y84972D01*
X16036D01*
X15974Y85000D01*
X15874Y85002D01*
X15801Y85009D01*
X15737Y85019D01*
X15681Y85031D01*
X15634Y85046D01*
X15594Y85062D01*
X15560Y85080D01*
X15531Y85098D01*
X15505Y85118D01*
X15459Y85161D01*
X15393Y85185D01*
X14868Y85536D01*
X14173Y85674D01*
X13478Y85536D01*
X12889Y85142D01*
X12495Y84553D01*
X12357Y83858D01*
X12495Y83163D01*
X12889Y82574D01*
X13478Y82181D01*
X14173Y82042D01*
X14868Y82181D01*
X15393Y82531D01*
X15459Y82556D01*
X15505Y82599D01*
X15531Y82618D01*
X15560Y82637D01*
X15594Y82654D01*
X15634Y82670D01*
X15681Y82685D01*
X15737Y82698D01*
X15801Y82708D01*
X15874Y82714D01*
X15974Y82717D01*
X16036Y82745D01*
X29043D01*
X29096Y82732D01*
X29129Y82717D01*
X29159Y82716D01*
X29518Y82628D01*
X29518Y80528D01*
X29050Y80452D01*
X8996D01*
X8566Y80367D01*
X8202Y80124D01*
X8202Y80124D01*
X5513Y77434D01*
X5051Y77625D01*
Y81890D01*
X5051Y187334D01*
X14241Y196524D01*
X27295D01*
X27357Y196496D01*
X27527Y196492D01*
X27652Y196481D01*
X27746Y196466D01*
X27746Y196466D01*
Y195365D01*
X32293D01*
Y197496D01*
X32295Y197499D01*
X32293Y197532D01*
Y197567D01*
X32324Y197619D01*
X32293Y197740D01*
Y197899D01*
X32297Y197910D01*
X32351Y198011D01*
X32435Y198138D01*
X32954Y198755D01*
X33190Y198997D01*
X33349Y199035D01*
X33849Y198721D01*
Y195365D01*
X35048D01*
X35048Y195364D01*
X35064Y195270D01*
X35075Y195145D01*
X35079Y194975D01*
X35107Y194913D01*
Y193768D01*
X35079Y193706D01*
X35075Y193536D01*
X35064Y193411D01*
X35048Y193317D01*
X35048Y193316D01*
X34046D01*
Y188573D01*
X38395D01*
Y193316D01*
X37393D01*
X37393Y193317D01*
X37377Y193411D01*
X37366Y193536D01*
X37362Y193706D01*
X37334Y193768D01*
Y194913D01*
X37362Y194975D01*
X37366Y195145D01*
X37377Y195270D01*
X37393Y195364D01*
X37393Y195365D01*
X38395D01*
Y199911D01*
X34751D01*
X34565Y200348D01*
X34859Y200694D01*
X34903Y200710D01*
X35275Y201056D01*
X35413Y201167D01*
X35532Y201249D01*
X35569Y201270D01*
X35762D01*
X35853Y201233D01*
X35902Y201253D01*
X35954Y201241D01*
X36002Y201270D01*
X38395D01*
Y205817D01*
X33849D01*
Y203424D01*
X33819Y203375D01*
X33832Y203323D01*
X33811Y203274D01*
X33849Y203184D01*
Y202990D01*
X33828Y202953D01*
X33750Y202842D01*
X33478Y202520D01*
X33298Y202333D01*
X33272Y202268D01*
X31497Y200494D01*
X31435Y200470D01*
X31047Y200109D01*
X30903Y199993D01*
X30786Y199911D01*
X30629D01*
X30577Y199942D01*
X30523Y199928D01*
X30470Y199948D01*
X30386Y199911D01*
X27746D01*
Y198810D01*
X27746Y198810D01*
X27652Y198794D01*
X27527Y198784D01*
X27357Y198779D01*
X27295Y198751D01*
X13780D01*
X13780Y198751D01*
X13353Y198667D01*
X12992Y198425D01*
X12992Y198425D01*
X3150Y188583D01*
X2908Y188221D01*
X2823Y187795D01*
X2823Y81890D01*
Y27293D01*
X2908Y26867D01*
X3150Y26506D01*
X8396Y21260D01*
X8396Y21260D01*
X8757Y21018D01*
X9183Y20934D01*
X9183Y20934D01*
X85957D01*
X86193Y20493D01*
X86117Y20380D01*
X85979Y19685D01*
X86117Y18990D01*
X86468Y18465D01*
X86493Y18399D01*
X86536Y18353D01*
X86555Y18327D01*
X86574Y18298D01*
X86591Y18264D01*
X86607Y18224D01*
X86622Y18177D01*
X86635Y18122D01*
X86645Y18057D01*
X86651Y17985D01*
X86654Y17885D01*
X86682Y17822D01*
Y17717D01*
X86766Y17290D01*
X87008Y16929D01*
X88189Y15748D01*
X88550Y15507D01*
X88836Y15450D01*
X88963Y15394D01*
X88967Y15394D01*
Y13967D01*
X90166D01*
X90166Y13966D01*
X90182Y13872D01*
X90193Y13747D01*
X90197Y13578D01*
X90225Y13515D01*
Y12961D01*
X90197Y12899D01*
X90193Y12729D01*
X90182Y12604D01*
X90166Y12510D01*
X90166Y12509D01*
X89065D01*
Y7963D01*
X93612D01*
Y12509D01*
X92511D01*
X92511Y12510D01*
X92495Y12604D01*
X92484Y12729D01*
X92480Y12899D01*
X92452Y12961D01*
Y13515D01*
X92480Y13578D01*
X92484Y13747D01*
X92495Y13872D01*
X92511Y13966D01*
X92511Y13967D01*
X93710D01*
Y19104D01*
X89890D01*
X89573Y19490D01*
X89611Y19685D01*
X89473Y20380D01*
X89398Y20493D01*
X89633Y20934D01*
X89869D01*
X89931Y20906D01*
X90031Y20903D01*
X90104Y20897D01*
X90168Y20887D01*
X90224Y20874D01*
X90271Y20859D01*
X90311Y20843D01*
X90345Y20826D01*
X90375Y20807D01*
X90400Y20787D01*
X90447Y20745D01*
X90512Y20720D01*
X91037Y20369D01*
X91732Y20231D01*
X92427Y20369D01*
X93016Y20763D01*
X93410Y21352D01*
X93548Y22047D01*
X93410Y22742D01*
X93325Y22869D01*
X93592Y23369D01*
X108819D01*
X108819Y23369D01*
X109248Y23454D01*
X109612Y23697D01*
X111440Y25526D01*
X111683Y25890D01*
X111769Y26319D01*
X111769Y26319D01*
Y52153D01*
X111769Y52153D01*
X111683Y52582D01*
X111440Y52946D01*
X111440Y52946D01*
X108672Y55714D01*
X108308Y55957D01*
X107879Y56043D01*
X107879Y56043D01*
X107079D01*
X107067Y56045D01*
X107009Y56071D01*
X106896Y56073D01*
X106604Y56122D01*
Y57195D01*
X107096Y57214D01*
X111269D01*
X111334Y57185D01*
X111481Y57182D01*
X111586Y57173D01*
X111605Y57169D01*
Y55896D01*
X116742D01*
Y60639D01*
X115272D01*
X115269Y60658D01*
X115259Y60763D01*
X115255Y60910D01*
X115226Y60975D01*
Y64554D01*
X115255Y64619D01*
X115259Y64764D01*
X115268Y64866D01*
X115272Y64891D01*
X116840D01*
Y65969D01*
X116841Y65970D01*
X116935Y65985D01*
X117060Y65996D01*
X117229Y66000D01*
X117292Y66028D01*
X118913D01*
X119340Y66113D01*
X119680Y66341D01*
X119758Y66372D01*
X120130Y66736D01*
X120331Y66920D01*
X125403D01*
Y71663D01*
X125403D01*
X125519Y72115D01*
X135145D01*
X135207Y72087D01*
X135307Y72084D01*
X135380Y72078D01*
X135444Y72068D01*
X135500Y72055D01*
X135547Y72040D01*
X135587Y72024D01*
X135621Y72007D01*
X135650Y71988D01*
X135676Y71969D01*
X135722Y71926D01*
X135788Y71901D01*
X136313Y71551D01*
X137008Y71412D01*
X137703Y71551D01*
X137834Y71638D01*
X138334Y71371D01*
Y59090D01*
X138503Y58241D01*
X138983Y57522D01*
X139703Y57041D01*
X140551Y56872D01*
X141400Y57041D01*
X142119Y57522D01*
X142600Y58241D01*
X142769Y59090D01*
Y72354D01*
X142774Y72356D01*
X143269Y72437D01*
X143598Y71944D01*
X144187Y71551D01*
X144882Y71412D01*
X145577Y71551D01*
X146166Y71944D01*
X146560Y72533D01*
X146683Y73153D01*
X146712Y73216D01*
X146714Y73279D01*
X146719Y73312D01*
X146726Y73345D01*
X146738Y73382D01*
X146755Y73421D01*
X146778Y73465D01*
X146808Y73513D01*
X146846Y73566D01*
X146893Y73622D01*
X146962Y73694D01*
X146986Y73758D01*
X163421Y90193D01*
X163663Y90554D01*
X163747Y90980D01*
Y143474D01*
X163775Y143537D01*
X163779Y143706D01*
X163790Y143831D01*
X163806Y143925D01*
X163806Y143926D01*
X167564D01*
Y145714D01*
X167573Y145716D01*
X167664Y145732D01*
X167787Y145742D01*
X167954Y145747D01*
X168016Y145775D01*
X174447D01*
X174873Y145859D01*
X175235Y146101D01*
X177953Y148819D01*
X177953Y148819D01*
X178194Y149180D01*
X178279Y149606D01*
Y178347D01*
X178194Y178773D01*
X177953Y179134D01*
X177261Y179825D01*
X177545Y180249D01*
X177632Y180213D01*
X178303Y180124D01*
X190901D01*
X191572Y180213D01*
X192197Y180471D01*
X192733Y180883D01*
X193145Y181420D01*
X193268Y181718D01*
X193768Y181618D01*
Y135780D01*
X193268Y135681D01*
X193145Y135979D01*
X192733Y136515D01*
X192197Y136927D01*
X191572Y137186D01*
X190901Y137274D01*
X178303D01*
X177632Y137186D01*
X177008Y136927D01*
X176471Y136515D01*
X176059Y135979D01*
X175801Y135354D01*
X175712Y134684D01*
Y130746D01*
X175801Y130076D01*
X176059Y129451D01*
X176471Y128915D01*
X177008Y128503D01*
X177632Y128244D01*
X178303Y128156D01*
X190901D01*
X191572Y128244D01*
X192197Y128503D01*
X192733Y128915D01*
X193145Y129451D01*
X193268Y129749D01*
X193768Y129649D01*
Y48493D01*
X156625Y11350D01*
X100166D01*
X100103Y11378D01*
X99934Y11382D01*
X99809Y11393D01*
X99715Y11408D01*
X99714Y11408D01*
Y12509D01*
X95168D01*
Y7963D01*
X99714D01*
Y9064D01*
X99715Y9064D01*
X99809Y9080D01*
X99934Y9091D01*
X100103Y9095D01*
X100166Y9123D01*
X157087D01*
X157513Y9207D01*
X157874Y9449D01*
X194757Y46332D01*
X195219Y46141D01*
Y1631D01*
X1631Y1631D01*
Y214904D01*
X62444Y214904D01*
D02*
G37*
G36*
X67769Y200063D02*
X67666Y200126D01*
X67556Y200182D01*
X67438Y200232D01*
X67313Y200274D01*
X67180Y200311D01*
X67040Y200341D01*
X66892Y200364D01*
X66574Y200390D01*
X66404Y200394D01*
Y201378D01*
X66574Y201381D01*
X66892Y201408D01*
X67040Y201431D01*
X67180Y201461D01*
X67313Y201497D01*
X67438Y201540D01*
X67556Y201590D01*
X67666Y201646D01*
X67769Y201709D01*
Y200063D01*
D02*
G37*
G36*
X79959Y201567D02*
X79827Y201508D01*
X79711Y201410D01*
X79610Y201272D01*
X79525Y201095D01*
X79455Y200878D01*
X79400Y200622D01*
X79375Y200426D01*
X79400Y200165D01*
X79455Y199909D01*
X79525Y199693D01*
X79610Y199516D01*
X79711Y199378D01*
X79827Y199279D01*
X79959Y199220D01*
X80106Y199201D01*
X76587D01*
X76734Y199220D01*
X76866Y199279D01*
X76982Y199378D01*
X77083Y199516D01*
X77168Y199693D01*
X77238Y199909D01*
X77292Y200165D01*
X77318Y200361D01*
X77292Y200622D01*
X77238Y200878D01*
X77168Y201095D01*
X77083Y201272D01*
X76982Y201410D01*
X76866Y201508D01*
X76734Y201567D01*
X76587Y201587D01*
X80106D01*
X79959Y201567D01*
D02*
G37*
G36*
X32725Y199450D02*
X32473Y199191D01*
X31913Y198527D01*
X31793Y198344D01*
X31705Y198179D01*
X31649Y198034D01*
X31627Y197907D01*
X31638Y197799D01*
X31681Y197710D01*
X30486Y199299D01*
X30553Y199234D01*
X30637Y199200D01*
X30737Y199195D01*
X30852Y199220D01*
X30983Y199274D01*
X31130Y199359D01*
X31293Y199473D01*
X31472Y199617D01*
X31878Y199995D01*
X32725Y199450D01*
D02*
G37*
G36*
X70576Y200013D02*
X70576Y200007D01*
X71063D01*
X70969Y199997D01*
X70886Y199967D01*
X70812Y199917D01*
X70748Y199847D01*
X70694Y199758D01*
X70650Y199648D01*
X70639Y199606D01*
X70650Y199564D01*
X70694Y199455D01*
X70748Y199365D01*
X70812Y199295D01*
X70886Y199246D01*
X70969Y199216D01*
X71063Y199206D01*
X70576D01*
X70576Y199200D01*
X70571Y199011D01*
X69587D01*
X69582Y199200D01*
X69581Y199206D01*
X69095D01*
X69188Y199216D01*
X69272Y199246D01*
X69345Y199295D01*
X69409Y199365D01*
X69464Y199455D01*
X69508Y199564D01*
X69519Y199606D01*
X69508Y199648D01*
X69464Y199758D01*
X69409Y199847D01*
X69345Y199917D01*
X69272Y199967D01*
X69188Y199997D01*
X69095Y200007D01*
X69581D01*
X69582Y200013D01*
X69587Y200202D01*
X70571D01*
X70576Y200013D01*
D02*
G37*
G36*
X28370Y196653D02*
X28361Y196747D01*
X28331Y196831D01*
X28281Y196905D01*
X28211Y196968D01*
X28121Y197023D01*
X28012Y197067D01*
X27882Y197101D01*
X27733Y197126D01*
X27564Y197141D01*
X27374Y197146D01*
Y198130D01*
X27564Y198135D01*
X27733Y198150D01*
X27882Y198174D01*
X28012Y198209D01*
X28121Y198253D01*
X28211Y198307D01*
X28281Y198371D01*
X28331Y198445D01*
X28361Y198529D01*
X28370Y198622D01*
Y196653D01*
D02*
G37*
G36*
X37111Y195979D02*
X37028Y195949D01*
X36954Y195899D01*
X36890Y195829D01*
X36836Y195739D01*
X36791Y195630D01*
X36757Y195500D01*
X36732Y195351D01*
X36718Y195182D01*
X36713Y194992D01*
X35728D01*
X35723Y195182D01*
X35709Y195351D01*
X35684Y195500D01*
X35650Y195630D01*
X35605Y195739D01*
X35551Y195829D01*
X35487Y195899D01*
X35413Y195949D01*
X35330Y195979D01*
X35236Y195989D01*
X37205D01*
X37111Y195979D01*
D02*
G37*
G36*
X70576Y194879D02*
X70492Y194849D01*
X70418Y194799D01*
X70354Y194729D01*
X70300Y194640D01*
X70256Y194530D01*
X70222Y194401D01*
X70197Y194251D01*
X70182Y194082D01*
X70177Y193893D01*
X69193D01*
X69188Y194082D01*
X69173Y194251D01*
X69149Y194401D01*
X69114Y194530D01*
X69070Y194640D01*
X69016Y194729D01*
X68952Y194799D01*
X68878Y194849D01*
X68794Y194879D01*
X68701Y194889D01*
X70669D01*
X70576Y194879D01*
D02*
G37*
G36*
X79734Y195279D02*
X79567Y195219D01*
X79419Y195120D01*
X79291Y194981D01*
X79183Y194803D01*
X79094Y194585D01*
X79026Y194328D01*
X78976Y194031D01*
X78947Y193695D01*
X78937Y193319D01*
X76968D01*
X76965Y193693D01*
X76907Y194579D01*
X76873Y194796D01*
X76831Y194973D01*
X76781Y195110D01*
X76724Y195209D01*
X76659Y195268D01*
X76587Y195288D01*
X79921Y195300D01*
X79734Y195279D01*
D02*
G37*
G36*
X36718Y193500D02*
X36732Y193330D01*
X36757Y193181D01*
X36791Y193051D01*
X36836Y192942D01*
X36890Y192852D01*
X36954Y192782D01*
X37028Y192732D01*
X37111Y192702D01*
X37205Y192692D01*
X35236D01*
X35330Y192702D01*
X35413Y192732D01*
X35487Y192782D01*
X35551Y192852D01*
X35605Y192942D01*
X35650Y193051D01*
X35684Y193181D01*
X35709Y193330D01*
X35723Y193500D01*
X35728Y193689D01*
X36713D01*
X36718Y193500D01*
D02*
G37*
G36*
X195219Y214904D02*
Y192836D01*
X194757Y192644D01*
X193701Y193701D01*
X193340Y193942D01*
X192913Y194027D01*
X172115D01*
X171586Y194556D01*
Y212598D01*
X171501Y213025D01*
X171260Y213386D01*
X170203Y214442D01*
X170395Y214904D01*
X195219D01*
D02*
G37*
G36*
X69582Y190933D02*
X69387Y190731D01*
X69081Y190369D01*
X68969Y190209D01*
X68886Y190063D01*
X68830Y189931D01*
X68802Y189812D01*
Y189708D01*
X68830Y189618D01*
X68886Y189541D01*
X67494Y190933D01*
X67570Y190877D01*
X67661Y190849D01*
X67765D01*
X67883Y190877D01*
X68016Y190933D01*
X68162Y191016D01*
X68322Y191128D01*
X68496Y191267D01*
X68886Y191629D01*
X69582Y190933D01*
D02*
G37*
G36*
X145353Y214904D02*
X145545Y214442D01*
X144882Y213779D01*
X144641Y213418D01*
X144585Y213139D01*
X144528Y213013D01*
X144525Y212903D01*
X143396D01*
Y211802D01*
X143395Y211802D01*
X143301Y211787D01*
X143176Y211776D01*
X143007Y211771D01*
X142944Y211743D01*
X112795D01*
X112369Y211659D01*
X112008Y211417D01*
X111221Y210630D01*
X110979Y210269D01*
X110894Y209842D01*
Y209319D01*
X110866Y209257D01*
X110862Y209087D01*
X110851Y208962D01*
X110836Y208868D01*
X110836Y208868D01*
X108061D01*
Y201368D01*
X115561D01*
Y208868D01*
X113628D01*
X113558Y209026D01*
X113887Y209516D01*
X142944D01*
X143007Y209489D01*
X143176Y209484D01*
X143301Y209473D01*
X143395Y209458D01*
X143396Y209458D01*
Y208357D01*
X147942D01*
Y212903D01*
X148378Y213060D01*
X168436D01*
X169359Y212137D01*
Y194095D01*
X169444Y193668D01*
X169685Y193307D01*
X170866Y192126D01*
X171227Y191885D01*
X171653Y191800D01*
X171654Y191800D01*
X192452D01*
X193768Y190484D01*
Y187749D01*
X193268Y187650D01*
X193145Y187947D01*
X192733Y188484D01*
X192197Y188896D01*
X191572Y189154D01*
X190901Y189243D01*
X178303D01*
X177632Y189154D01*
X177008Y188896D01*
X176471Y188484D01*
X176059Y187947D01*
X175801Y187322D01*
X175712Y186652D01*
Y182715D01*
X175801Y182044D01*
X175837Y181957D01*
X175413Y181674D01*
X154303Y202784D01*
X154302Y202789D01*
X154278Y202808D01*
X154233Y202853D01*
X154210Y202916D01*
X153846Y203306D01*
X153728Y203452D01*
X153651Y203560D01*
Y203741D01*
X153670Y203773D01*
X153656Y203828D01*
X153676Y203882D01*
X153651Y203938D01*
Y206604D01*
X149105D01*
Y202058D01*
X151327D01*
X151359Y202039D01*
X151433Y202058D01*
X151723D01*
X151791Y202018D01*
X151901Y201942D01*
X152213Y201678D01*
X152391Y201506D01*
X152456Y201481D01*
X176052Y177885D01*
Y150067D01*
X173986Y148002D01*
X168016D01*
X167954Y148029D01*
X167787Y148034D01*
X167664Y148045D01*
X167573Y148060D01*
X167564Y148062D01*
Y149850D01*
X157703D01*
Y143926D01*
X161461D01*
X161462Y143925D01*
X161477Y143831D01*
X161488Y143706D01*
X161492Y143537D01*
X161520Y143474D01*
Y91441D01*
X145412Y75333D01*
X145348Y75309D01*
X145275Y75240D01*
X145219Y75193D01*
X145167Y75155D01*
X145119Y75124D01*
X145075Y75101D01*
X145035Y75084D01*
X144999Y75073D01*
X144965Y75065D01*
X144933Y75061D01*
X144870Y75058D01*
X144806Y75029D01*
X144187Y74906D01*
X143598Y74512D01*
X143269Y74020D01*
X142774Y74101D01*
X142769Y74103D01*
Y79045D01*
X142770Y79047D01*
X142769Y79051D01*
Y79217D01*
X142770Y79221D01*
X142769Y79223D01*
Y131496D01*
Y139887D01*
X142600Y140736D01*
X142119Y141455D01*
X142119Y141455D01*
X140274Y143300D01*
X139555Y143781D01*
X138767Y143938D01*
X138725Y143956D01*
X137971Y143979D01*
X137685Y144004D01*
X137446Y144039D01*
X137264Y144078D01*
X137168Y144110D01*
Y144694D01*
X136479D01*
X136439Y144716D01*
X136385Y144722D01*
X136363Y144760D01*
X136326Y144849D01*
X136314Y144894D01*
X136278Y145440D01*
X136601Y145857D01*
X137168D01*
Y150994D01*
X136453D01*
X136413Y151015D01*
X136359Y151021D01*
X136337Y151059D01*
X136300Y151148D01*
X136264Y151284D01*
X136234Y151467D01*
X136215Y151686D01*
X136226Y151699D01*
X136620Y151945D01*
X136709Y151956D01*
X136723Y151947D01*
X137303Y151831D01*
X137883Y151947D01*
X138374Y152275D01*
X138703Y152767D01*
X138818Y153347D01*
Y155905D01*
X138703Y156485D01*
X138374Y156977D01*
X137890Y157300D01*
X137697Y157590D01*
X137697Y157590D01*
X136177Y159110D01*
X135816Y159351D01*
X135389Y159436D01*
X125111D01*
X123917Y160630D01*
X123556Y160871D01*
X123130Y160956D01*
X117323D01*
X117319Y160955D01*
X116932Y161272D01*
X116929Y180536D01*
X111639Y185827D01*
X88395D01*
X83071Y180502D01*
X83071Y157480D01*
X93657Y146894D01*
X116935Y146932D01*
X116934Y150917D01*
X117288Y151270D01*
X120088D01*
Y153454D01*
X120089Y153454D01*
X120183Y153469D01*
X120308Y153480D01*
X120477Y153485D01*
X120540Y153513D01*
X127689D01*
X127751Y153485D01*
X127920Y153480D01*
X128045Y153469D01*
X128139Y153454D01*
X128140Y153454D01*
Y151861D01*
X131112D01*
Y157209D01*
X133227D01*
X133494Y156709D01*
X133344Y156485D01*
X133229Y155905D01*
Y153347D01*
X133289Y153047D01*
X133272Y153006D01*
X133276Y152994D01*
X133272Y152981D01*
X133322Y151640D01*
X133306Y151467D01*
X133276Y151284D01*
X133240Y151148D01*
X133204Y151059D01*
X133181Y151021D01*
X133127Y151015D01*
X133087Y150994D01*
X132424D01*
Y145857D01*
X133113D01*
X133153Y145835D01*
X133207Y145829D01*
X133230Y145792D01*
X133266Y145703D01*
X133302Y145566D01*
X133332Y145384D01*
X133333Y145381D01*
X133323Y145113D01*
X133302Y144985D01*
X133266Y144849D01*
X133230Y144760D01*
X133207Y144722D01*
X133153Y144716D01*
X133113Y144694D01*
X132424D01*
Y139558D01*
X134779D01*
X134993Y139515D01*
X134993Y139515D01*
X137480D01*
X137789Y139513D01*
X138334Y138969D01*
Y136267D01*
X138328Y136255D01*
X138298Y135696D01*
X138219Y135247D01*
X138094Y134873D01*
X137930Y134568D01*
X137727Y134320D01*
X137480Y134117D01*
X137174Y133953D01*
X136801Y133828D01*
X136351Y133749D01*
X135811Y133720D01*
X134227Y133737D01*
X133277Y133782D01*
Y133868D01*
X132776D01*
X132700Y133904D01*
X132683Y133898D01*
X132665Y133905D01*
X132575Y133868D01*
X128140D01*
Y133179D01*
X128118Y133139D01*
X128113Y133085D01*
X128075Y133063D01*
X127986Y133026D01*
X127941Y133014D01*
X127395Y132978D01*
X126978Y133301D01*
Y133868D01*
X121841D01*
Y133179D01*
X121819Y133139D01*
X121813Y133085D01*
X121776Y133063D01*
X121687Y133026D01*
X121550Y132990D01*
X121368Y132960D01*
X121143Y132940D01*
X120965Y132935D01*
X120786Y132940D01*
X120561Y132960D01*
X120379Y132990D01*
X120242Y133026D01*
X120153Y133063D01*
X120116Y133085D01*
X120110Y133139D01*
X120088Y133179D01*
Y134950D01*
X112024D01*
X112020Y134969D01*
X112011Y135074D01*
X112007Y135221D01*
X111978Y135286D01*
Y138091D01*
X111898Y138494D01*
X111670Y138835D01*
X108997Y141509D01*
X108655Y141737D01*
X108252Y141817D01*
X90598D01*
X90195Y141737D01*
X89853Y141509D01*
X86838Y138493D01*
X86610Y138151D01*
X86529Y137748D01*
Y126584D01*
X81809D01*
Y121447D01*
X86529D01*
Y89200D01*
X85352Y88023D01*
X84852Y88230D01*
Y91939D01*
X76565D01*
Y88565D01*
X76065Y88346D01*
X75575Y88674D01*
X74803Y88828D01*
X74031Y88674D01*
X73377Y88237D01*
X72940Y87583D01*
X72786Y86811D01*
X72940Y86039D01*
X73103Y85795D01*
X72836Y85295D01*
X65276Y85295D01*
X63214Y87358D01*
Y91613D01*
X63224Y91630D01*
X63214Y91673D01*
Y91792D01*
X63224Y91835D01*
X63214Y91852D01*
Y105293D01*
X63714Y105418D01*
X63956Y104966D01*
X64695Y104065D01*
X65596Y103326D01*
X66623Y102777D01*
X67738Y102438D01*
X68898Y102324D01*
X70057Y102438D01*
X71172Y102777D01*
X72200Y103326D01*
X73100Y104065D01*
X73839Y104966D01*
X74389Y105993D01*
X74727Y107108D01*
X74841Y108268D01*
X74727Y109427D01*
X74389Y110542D01*
X73839Y111570D01*
X73100Y112470D01*
X72200Y113210D01*
X71172Y113759D01*
X70057Y114097D01*
X68898Y114211D01*
X67738Y114097D01*
X66623Y113759D01*
X65596Y113210D01*
X64695Y112470D01*
X63956Y111570D01*
X63714Y111117D01*
X63683Y111121D01*
X63236Y111291D01*
X63241Y111319D01*
Y118940D01*
X63472Y119071D01*
X63741Y119145D01*
X64266Y118795D01*
X64961Y118656D01*
X65656Y118795D01*
X66095Y119088D01*
X66110Y119088D01*
X66136Y119097D01*
X66143Y119100D01*
X66144Y119100D01*
X66144Y119100D01*
X66149Y119101D01*
X66167Y119105D01*
X66525Y119133D01*
X66635Y119134D01*
X66692Y119158D01*
X77165D01*
X77668Y119258D01*
X78095Y119543D01*
X79866Y121315D01*
X80151Y121741D01*
X80251Y122244D01*
Y136602D01*
X80275Y136655D01*
X80282Y136900D01*
X80298Y137091D01*
X80324Y137244D01*
X80353Y137355D01*
X80378Y137416D01*
X80383Y137417D01*
X80424Y137438D01*
X81309D01*
Y142575D01*
X80093D01*
X80081Y142757D01*
X80079Y142923D01*
X80030Y143035D01*
X79954Y143416D01*
X79669Y143843D01*
X79495Y144018D01*
X79511Y144204D01*
X79536Y144357D01*
X79566Y144468D01*
X79590Y144529D01*
X79596Y144529D01*
X79636Y144551D01*
X80718D01*
Y155200D01*
X75581D01*
Y144551D01*
X76663D01*
X76703Y144529D01*
X76709Y144529D01*
X76733Y144468D01*
X76763Y144357D01*
X76788Y144204D01*
X76805Y144012D01*
X76811Y143768D01*
X76835Y143714D01*
Y143504D01*
X76921Y143075D01*
X76708Y142575D01*
X76565D01*
Y137748D01*
Y137438D01*
X77450D01*
X77491Y137417D01*
X77496Y137416D01*
X77521Y137355D01*
X77550Y137244D01*
X77576Y137091D01*
X77592Y136900D01*
X77599Y136655D01*
X77623Y136602D01*
Y122788D01*
X76621Y121787D01*
X66697D01*
X66643Y121811D01*
X66408Y121816D01*
X66237Y121829D01*
X66186Y121836D01*
X66149Y121844D01*
X66144Y121845D01*
X66144Y121845D01*
X66143Y121845D01*
X66136Y121847D01*
X66110Y121857D01*
X66095Y121857D01*
X65656Y122150D01*
X64961Y122288D01*
X64266Y122150D01*
X63741Y121800D01*
X63472Y121874D01*
X63241Y122005D01*
Y136175D01*
X63260Y136215D01*
X63269Y136571D01*
X63294Y136863D01*
X63334Y137103D01*
X63385Y137291D01*
X63438Y137423D01*
X63486Y137502D01*
X63519Y137537D01*
X63536Y137548D01*
X63555Y137555D01*
X63665Y137567D01*
X63705Y137589D01*
X64773D01*
Y137748D01*
Y142726D01*
X61416D01*
Y143595D01*
X61439Y143646D01*
X61446Y143914D01*
X61464Y144126D01*
X61493Y144297D01*
X61526Y144424D01*
X61559Y144505D01*
X61572Y144526D01*
X61608Y144529D01*
X61648Y144551D01*
X62608D01*
Y154457D01*
X62642Y154519D01*
X62631Y154554D01*
D01*
X62645Y154588D01*
X62637Y154608D01*
X62608Y154678D01*
D01*
Y155200D01*
X62127D01*
X62065Y155234D01*
X61957Y155245D01*
X61941Y155251D01*
X61927Y155261D01*
X61896Y155294D01*
X61849Y155371D01*
X61796Y155503D01*
X61747Y155689D01*
X61707Y155929D01*
X61682Y156219D01*
X61673Y156573D01*
X61655Y156614D01*
Y176447D01*
X62402Y177194D01*
X63357Y178150D01*
X63898Y178690D01*
X74794D01*
X75412Y178813D01*
X75936Y179163D01*
X79095Y182322D01*
X79445Y182846D01*
X79568Y183465D01*
Y193261D01*
X79586Y193302D01*
X79596Y193658D01*
X79621Y193949D01*
X79661Y194190D01*
X79711Y194378D01*
X79765Y194510D01*
X79813Y194589D01*
X79845Y194624D01*
X79862Y194635D01*
X79881Y194642D01*
X79992Y194654D01*
X80031Y194676D01*
X80718D01*
Y199060D01*
X80750Y199115D01*
X80738Y199159D01*
X80756Y199201D01*
X80718Y199291D01*
Y199813D01*
X80247D01*
X80192Y199844D01*
X80172Y199847D01*
X80169Y199851D01*
X80129Y199934D01*
X80083Y200077D01*
X80043Y200265D01*
X80028Y200416D01*
X80041Y200512D01*
X80083Y200711D01*
X80129Y200853D01*
X80169Y200936D01*
X80172Y200940D01*
X80192Y200943D01*
X80247Y200975D01*
X80718D01*
Y201496D01*
X80756Y201587D01*
X80738Y201629D01*
X80750Y201673D01*
X80718Y201728D01*
Y206112D01*
X75975D01*
Y204617D01*
X75974Y204617D01*
X75880Y204602D01*
X75755Y204591D01*
X75586Y204586D01*
X75523Y204558D01*
X73830D01*
X73766Y204586D01*
X73617Y204589D01*
X73343Y204612D01*
X73235Y204629D01*
X73131Y204651D01*
X73036Y204677D01*
X72951Y204706D01*
X72875Y204738D01*
X72808Y204772D01*
X72727Y204822D01*
X72640Y204836D01*
X72627Y204844D01*
X72506Y204869D01*
X72388Y204917D01*
X72347Y204900D01*
X72047Y204960D01*
X68110D01*
X67531Y204844D01*
X67039Y204516D01*
X66711Y204025D01*
X66595Y203445D01*
X66711Y202865D01*
X66903Y202577D01*
X66907Y202466D01*
X66883Y202358D01*
X66702Y202044D01*
X66541Y202030D01*
X66391Y202027D01*
X66327Y201999D01*
X66111D01*
X65287Y202823D01*
Y211523D01*
X65315Y211585D01*
X65317Y211685D01*
X65324Y211758D01*
X65334Y211822D01*
X65346Y211878D01*
X65361Y211925D01*
X65377Y211965D01*
X65395Y211999D01*
X65413Y212028D01*
X65433Y212054D01*
X65476Y212100D01*
X65500Y212166D01*
X65851Y212691D01*
X65989Y213386D01*
X65851Y214081D01*
X65635Y214404D01*
X65902Y214904D01*
X145353D01*
D02*
G37*
G36*
X64394Y187205D02*
X64384Y187298D01*
X64354Y187382D01*
X64304Y187456D01*
X64235Y187520D01*
X64145Y187574D01*
X64035Y187618D01*
X63906Y187653D01*
X63757Y187677D01*
X63587Y187692D01*
X63398Y187697D01*
Y188681D01*
X63587Y188686D01*
X63757Y188701D01*
X63906Y188725D01*
X64035Y188760D01*
X64145Y188804D01*
X64235Y188858D01*
X64304Y188922D01*
X64354Y188996D01*
X64384Y189080D01*
X64394Y189173D01*
Y187205D01*
D02*
G37*
G36*
X62104Y189080D02*
X62134Y188996D01*
X62183Y188922D01*
X62252Y188858D01*
X62340Y188804D01*
X62449Y188760D01*
X62577Y188725D01*
X62724Y188701D01*
X62892Y188686D01*
X63078Y188681D01*
Y187697D01*
X62892Y187692D01*
X62724Y187677D01*
X62577Y187653D01*
X62449Y187618D01*
X62340Y187574D01*
X62252Y187520D01*
X62183Y187456D01*
X62134Y187382D01*
X62104Y187298D01*
X62094Y187205D01*
Y189173D01*
X62104Y189080D01*
D02*
G37*
G36*
X105910Y169884D02*
X105827Y169854D01*
X105753Y169805D01*
X105689Y169736D01*
X105635Y169648D01*
X105591Y169540D01*
X105556Y169412D01*
X105532Y169264D01*
X105517Y169097D01*
X105512Y168910D01*
X104528D01*
X104540Y169894D01*
X106004D01*
X105910Y169884D01*
D02*
G37*
G36*
X95838D02*
X95823Y169854D01*
X95810Y169805D01*
X95799Y169736D01*
X95789Y169648D01*
X95771Y169264D01*
X95768Y168910D01*
X94784D01*
X94779Y169097D01*
X94764Y169264D01*
X94739Y169412D01*
X94705Y169540D01*
X94660Y169648D01*
X94606Y169736D01*
X94542Y169805D01*
X94468Y169854D01*
X94385Y169884D01*
X94291Y169894D01*
X95854D01*
X95838Y169884D01*
D02*
G37*
G36*
X105516Y166533D02*
X105546Y166218D01*
X105573Y166090D01*
X105607Y165982D01*
X105649Y165893D01*
X105699Y165825D01*
X105756Y165775D01*
X105821Y165746D01*
X105894Y165736D01*
X104035Y165724D01*
X104129Y165735D01*
X104213Y165765D01*
X104286Y165815D01*
X104350Y165885D01*
X104404Y165975D01*
X104449Y166084D01*
X104483Y166214D01*
X104508Y166363D01*
X104523Y166532D01*
X104528Y166720D01*
X105512D01*
X105516Y166533D01*
D02*
G37*
G36*
X95773Y166531D02*
X95787Y166362D01*
X95812Y166212D01*
X95846Y166083D01*
X95891Y165973D01*
X95945Y165883D01*
X96009Y165814D01*
X96083Y165764D01*
X96166Y165734D01*
X96260Y165724D01*
X94291D01*
X94385Y165734D01*
X94468Y165764D01*
X94542Y165814D01*
X94606Y165883D01*
X94660Y165973D01*
X94705Y166083D01*
X94739Y166212D01*
X94764Y166362D01*
X94779Y166531D01*
X94784Y166720D01*
X95768D01*
X95773Y166531D01*
D02*
G37*
G36*
X111224Y165205D02*
X111272Y165071D01*
X111350Y164953D01*
X111460Y164850D01*
X111602Y164764D01*
X111775Y164693D01*
X111980Y164638D01*
X112216Y164598D01*
X112484Y164575D01*
X112783Y164567D01*
Y162992D01*
X112484Y162984D01*
X112216Y162961D01*
X111980Y162921D01*
X111775Y162866D01*
X111602Y162795D01*
X111460Y162709D01*
X111350Y162606D01*
X111272Y162488D01*
X111224Y162354D01*
X111208Y162205D01*
Y165354D01*
X111224Y165205D01*
D02*
G37*
G36*
X88201Y162205D02*
X88185Y162354D01*
X88138Y162488D01*
X88059Y162606D01*
X87949Y162709D01*
X87807Y162795D01*
X87634Y162866D01*
X87429Y162921D01*
X87193Y162961D01*
X86925Y162984D01*
X86626Y162992D01*
Y164567D01*
X86925Y164575D01*
X87193Y164598D01*
X87429Y164638D01*
X87634Y164693D01*
X87807Y164764D01*
X87949Y164850D01*
X88059Y164953D01*
X88138Y165071D01*
X88185Y165205D01*
X88201Y165354D01*
Y162205D01*
D02*
G37*
G36*
X103680Y161825D02*
X103610Y161797D01*
X103549Y161751D01*
X103495Y161687D01*
X103449Y161604D01*
X103412Y161503D01*
X103384Y161384D01*
X103363Y161247D01*
X103351Y161092D01*
X103347Y160919D01*
X102362D01*
X102374Y161823D01*
X103759Y161835D01*
X103680Y161825D01*
D02*
G37*
G36*
X97035Y161823D02*
X97038Y161813D01*
X97040Y161784D01*
X97046Y161341D01*
X97047Y160839D01*
X96063D01*
X96058Y161027D01*
X96043Y161196D01*
X96019Y161345D01*
X95984Y161474D01*
X95940Y161584D01*
X95886Y161674D01*
X95822Y161744D01*
X95748Y161794D01*
X95664Y161824D01*
X95571Y161835D01*
X97035Y161823D01*
D02*
G37*
G36*
X110874Y161819D02*
X110740Y161772D01*
X110622Y161692D01*
X110520Y161581D01*
X110433Y161438D01*
X110362Y161264D01*
X110307Y161057D01*
X110268Y160823D01*
X110276Y160686D01*
X110256D01*
X110244Y160550D01*
X110236Y160248D01*
X108661D01*
X108653Y160550D01*
X108642Y160686D01*
X108622D01*
X108630Y160700D01*
X108636Y160728D01*
X108637Y160735D01*
X108630Y160819D01*
X108591Y161057D01*
X108535Y161264D01*
X108465Y161438D01*
X108378Y161581D01*
X108276Y161692D01*
X108158Y161772D01*
X108024Y161819D01*
X107874Y161835D01*
X111024D01*
X110874Y161819D01*
D02*
G37*
G36*
X91386D02*
X91252Y161772D01*
X91134Y161692D01*
X91031Y161581D01*
X90945Y161438D01*
X90874Y161264D01*
X90819Y161057D01*
X90780Y160819D01*
X90756Y160550D01*
X90748Y160248D01*
X89173D01*
X89165Y160550D01*
X89142Y160819D01*
X89102Y161057D01*
X89047Y161264D01*
X88976Y161438D01*
X88890Y161581D01*
X88787Y161692D01*
X88669Y161772D01*
X88535Y161819D01*
X88386Y161835D01*
X91535D01*
X91386Y161819D01*
D02*
G37*
G36*
X116539Y158364D02*
X116570Y158049D01*
X116596Y157921D01*
X116631Y157813D01*
X116673Y157724D01*
X116723Y157655D01*
X116780Y157606D01*
X116845Y157577D01*
X116917Y157567D01*
X115170D01*
X115242Y157577D01*
X115307Y157606D01*
X115364Y157655D01*
X115414Y157724D01*
X115456Y157813D01*
X115490Y157921D01*
X115517Y158049D01*
X115536Y158197D01*
X115547Y158364D01*
X115551Y158551D01*
X116535D01*
X116539Y158364D01*
D02*
G37*
G36*
X101185D02*
X101216Y158049D01*
X101242Y157921D01*
X101277Y157813D01*
X101319Y157724D01*
X101368Y157655D01*
X101425Y157606D01*
X101490Y157577D01*
X101563Y157567D01*
X99815D01*
X99888Y157577D01*
X99953Y157606D01*
X100010Y157655D01*
X100059Y157724D01*
X100101Y157813D01*
X100136Y157921D01*
X100162Y158049D01*
X100182Y158197D01*
X100193Y158364D01*
X100197Y158551D01*
X101181D01*
X101185Y158364D01*
D02*
G37*
G36*
X98282Y158362D02*
X98297Y158194D01*
X98322Y158045D01*
X98356Y157915D01*
X98401Y157806D01*
X98455Y157716D01*
X98519Y157646D01*
X98593Y157596D01*
X98676Y157565D01*
X98770Y157555D01*
X97256Y157567D01*
X97263Y157577D01*
X97269Y157606D01*
X97275Y157655D01*
X97284Y157813D01*
X97293Y158551D01*
X98278D01*
X98282Y158362D01*
D02*
G37*
G36*
X61033Y156183D02*
X61063Y155848D01*
X61111Y155553D01*
X61179Y155297D01*
X61267Y155080D01*
X61374Y154903D01*
X61500Y154765D01*
X61646Y154667D01*
X61811Y154608D01*
X61996Y154588D01*
X58083D01*
X58268Y154608D01*
X58433Y154667D01*
X58579Y154765D01*
X58705Y154903D01*
X58812Y155080D01*
X58900Y155297D01*
X58968Y155553D01*
X59016Y155848D01*
X59045Y156183D01*
X59055Y156556D01*
X61024D01*
X61033Y156183D01*
D02*
G37*
G36*
X128764Y153642D02*
X128754Y153735D01*
X128724Y153819D01*
X128674Y153893D01*
X128605Y153957D01*
X128515Y154011D01*
X128405Y154055D01*
X128276Y154090D01*
X128127Y154114D01*
X127957Y154129D01*
X127768Y154134D01*
Y155118D01*
X127957Y155123D01*
X128127Y155138D01*
X128276Y155162D01*
X128405Y155197D01*
X128515Y155241D01*
X128605Y155295D01*
X128674Y155359D01*
X128724Y155433D01*
X128754Y155517D01*
X128764Y155610D01*
Y153642D01*
D02*
G37*
G36*
X119474Y155517D02*
X119504Y155433D01*
X119554Y155359D01*
X119624Y155295D01*
X119713Y155241D01*
X119823Y155197D01*
X119952Y155162D01*
X120102Y155138D01*
X120271Y155123D01*
X120460Y155118D01*
Y154134D01*
X120271Y154129D01*
X120102Y154114D01*
X119952Y154090D01*
X119823Y154055D01*
X119713Y154011D01*
X119624Y153957D01*
X119554Y153893D01*
X119504Y153819D01*
X119474Y153735D01*
X119464Y153642D01*
Y155610D01*
X119474Y155517D01*
D02*
G37*
G36*
X94709Y153150D02*
X94693Y153299D01*
X94646Y153433D01*
X94566Y153551D01*
X94455Y153654D01*
X94312Y153740D01*
X94138Y153811D01*
X93932Y153866D01*
X93694Y153905D01*
X93424Y153929D01*
X93122Y153937D01*
Y155512D01*
X93424Y155520D01*
X93694Y155543D01*
X93932Y155583D01*
X94138Y155638D01*
X94312Y155709D01*
X94455Y155795D01*
X94566Y155898D01*
X94646Y156016D01*
X94693Y156150D01*
X94709Y156299D01*
Y153150D01*
D02*
G37*
G36*
X135565Y152987D02*
X135564Y152937D01*
X135559Y151883D01*
X135565Y151655D01*
X135589Y151385D01*
X135628Y151147D01*
X135684Y150941D01*
X135754Y150766D01*
X135841Y150624D01*
X135943Y150513D01*
X136061Y150433D01*
X136195Y150386D01*
X136345Y150370D01*
X133195D01*
X133345Y150386D01*
X133479Y150433D01*
X133597Y150513D01*
X133699Y150624D01*
X133786Y150766D01*
X133857Y150941D01*
X133912Y151147D01*
X133951Y151385D01*
X133972Y151624D01*
X133921Y153006D01*
X135567D01*
X135565Y152987D01*
D02*
G37*
G36*
X96442Y151866D02*
X96439Y151819D01*
X96430Y150397D01*
X96469Y149662D01*
X94815D01*
X94823Y149677D01*
X94829Y149705D01*
X94835Y149746D01*
X94845Y149868D01*
X94854Y150273D01*
X94854Y150343D01*
X94853Y150607D01*
X94777Y151740D01*
X94754Y151819D01*
X94727Y151866D01*
X94697Y151882D01*
X96445D01*
X96442Y151866D01*
D02*
G37*
G36*
X166962Y147779D02*
X166992Y147695D01*
X167041Y147622D01*
X167110Y147557D01*
X167199Y147503D01*
X167307Y147459D01*
X167435Y147425D01*
X167582Y147400D01*
X167750Y147385D01*
X167937Y147380D01*
Y146396D01*
X167750Y146391D01*
X167582Y146376D01*
X167435Y146352D01*
X167307Y146317D01*
X167199Y146273D01*
X167110Y146219D01*
X167041Y146155D01*
X166992Y146081D01*
X166962Y145998D01*
X166952Y145904D01*
Y147872D01*
X166962Y147779D01*
D02*
G37*
G36*
X79397Y145161D02*
X79280Y145120D01*
X79176Y145050D01*
X79087Y144953D01*
X79011Y144828D01*
X78949Y144675D01*
X78901Y144494D01*
X78866Y144286D01*
X78846Y144049D01*
X78839Y143785D01*
X77461D01*
X77454Y144049D01*
X77433Y144286D01*
X77399Y144494D01*
X77350Y144675D01*
X77288Y144828D01*
X77213Y144953D01*
X77123Y145050D01*
X77020Y145120D01*
X76903Y145161D01*
X76772Y145175D01*
X79528D01*
X79397Y145161D01*
D02*
G37*
G36*
X61397Y145160D02*
X61269Y145115D01*
X61157Y145039D01*
X61059Y144933D01*
X60977Y144797D01*
X60909Y144631D01*
X60857Y144434D01*
X60819Y144208D01*
X60797Y143950D01*
X60789Y143663D01*
X59289D01*
X59282Y143950D01*
X59259Y144208D01*
X59222Y144434D01*
X59169Y144631D01*
X59102Y144797D01*
X59019Y144933D01*
X58922Y145039D01*
X58809Y145115D01*
X58682Y145160D01*
X58539Y145175D01*
X61539D01*
X61397Y145160D01*
D02*
G37*
G36*
X163524Y144540D02*
X163441Y144510D01*
X163367Y144460D01*
X163303Y144391D01*
X163249Y144301D01*
X163205Y144191D01*
X163170Y144062D01*
X163145Y143912D01*
X163131Y143743D01*
X163126Y143554D01*
X162142D01*
X162137Y143743D01*
X162122Y143912D01*
X162097Y144062D01*
X162063Y144191D01*
X162019Y144301D01*
X161964Y144391D01*
X161900Y144460D01*
X161827Y144510D01*
X161743Y144540D01*
X161650Y144550D01*
X163618D01*
X163524Y144540D01*
D02*
G37*
G36*
X135584Y146481D02*
X136371D01*
X136221Y146465D01*
X136087Y146417D01*
X135969Y146338D01*
X135867Y146227D01*
X135780Y146084D01*
X135709Y145909D01*
X135654Y145703D01*
X135623Y145511D01*
X135670Y144788D01*
X135709Y144642D01*
X135780Y144467D01*
X135867Y144324D01*
X135969Y144213D01*
X136087Y144134D01*
X136221Y144086D01*
X136371Y144070D01*
X135718D01*
X135744Y143682D01*
X135793Y143480D01*
X135848Y143332D01*
X135910Y143239D01*
X133682D01*
X133744Y143332D01*
X133800Y143480D01*
X133849Y143682D01*
X133891Y143940D01*
X133904Y144070D01*
X133221D01*
X133371Y144086D01*
X133505Y144134D01*
X133623Y144213D01*
X133725Y144324D01*
X133812Y144467D01*
X133883Y144642D01*
X133938Y144848D01*
X133971Y145049D01*
X133983Y145398D01*
X133977Y145465D01*
X133938Y145703D01*
X133883Y145909D01*
X133812Y146084D01*
X133725Y146227D01*
X133623Y146338D01*
X133505Y146417D01*
X133371Y146465D01*
X133221Y146481D01*
X134008D01*
X134009Y146639D01*
X135583D01*
X135584Y146481D01*
D02*
G37*
G36*
X60642Y141996D02*
X61546Y141133D01*
X60651Y140239D01*
X60654Y139728D01*
X60643Y139764D01*
X60611Y139819D01*
X60557Y139892D01*
X60482Y139985D01*
X60134Y140367D01*
X59509Y141005D01*
X60570Y142066D01*
X60583Y142053D01*
X60596Y142045D01*
X60606Y142040D01*
X60616Y142039D01*
X60624Y142042D01*
X60630Y142049D01*
X60635Y142059D01*
X60639Y142074D01*
X60641Y142092D01*
X60642Y142114D01*
X60642Y141996D01*
D02*
G37*
G36*
X79432Y142731D02*
X79453Y142423D01*
X79471Y142298D01*
X79494Y142192D01*
X79523Y142105D01*
X79557Y142038D01*
X79596Y141990D01*
X79641Y141961D01*
X79690Y141951D01*
X77790D01*
X77840Y141961D01*
X77884Y141990D01*
X77923Y142038D01*
X77957Y142105D01*
X77986Y142192D01*
X78009Y142298D01*
X78028Y142423D01*
X78041Y142567D01*
X78051Y142913D01*
X79429D01*
X79432Y142731D01*
D02*
G37*
G36*
X136577Y143773D02*
X136642Y143675D01*
X136749Y143589D01*
X136900Y143514D01*
X137093Y143451D01*
X137330Y143399D01*
X137609Y143359D01*
X137932Y143330D01*
X138706Y143307D01*
Y140157D01*
X136556Y140170D01*
Y143883D01*
X136577Y143773D01*
D02*
G37*
G36*
X80184Y138048D02*
X80067Y138007D01*
X79964Y137937D01*
X79874Y137840D01*
X79798Y137715D01*
X79736Y137562D01*
X79688Y137381D01*
X79654Y137173D01*
X79633Y136936D01*
X79626Y136672D01*
X78248D01*
X78241Y136936D01*
X78220Y137173D01*
X78186Y137381D01*
X78138Y137562D01*
X78076Y137715D01*
X78000Y137840D01*
X77910Y137937D01*
X77807Y138007D01*
X77690Y138048D01*
X77559Y138062D01*
X80315D01*
X80184Y138048D01*
D02*
G37*
G36*
X63407Y138192D02*
X63240Y138133D01*
X63092Y138033D01*
X62965Y137894D01*
X62856Y137716D01*
X62768Y137498D01*
X62699Y137241D01*
X62650Y136944D01*
X62620Y136608D01*
X62610Y136232D01*
X60642D01*
Y138201D01*
X63595Y138213D01*
X63407Y138192D01*
D02*
G37*
G36*
X111363Y135038D02*
X111376Y134888D01*
X111397Y134757D01*
X111428Y134643D01*
X111467Y134546D01*
X111514Y134467D01*
X111571Y134405D01*
X111635Y134362D01*
X111709Y134335D01*
X111791Y134326D01*
X110059D01*
X110141Y134335D01*
X110215Y134362D01*
X110280Y134405D01*
X110336Y134467D01*
X110384Y134546D01*
X110423Y134643D01*
X110453Y134757D01*
X110475Y134888D01*
X110488Y135038D01*
X110492Y135205D01*
X111358D01*
X111363Y135038D01*
D02*
G37*
G36*
X108803D02*
X108817Y134888D01*
X108838Y134757D01*
X108869Y134643D01*
X108907Y134546D01*
X108955Y134467D01*
X109011Y134405D01*
X109076Y134362D01*
X109150Y134335D01*
X109232Y134326D01*
X107500D01*
X107582Y134335D01*
X107656Y134362D01*
X107721Y134405D01*
X107777Y134467D01*
X107825Y134546D01*
X107864Y134643D01*
X107894Y134757D01*
X107916Y134888D01*
X107929Y135038D01*
X107933Y135205D01*
X108799D01*
X108803Y135038D01*
D02*
G37*
G36*
X128764Y132418D02*
X129152Y132444D01*
X129355Y132493D01*
X129503Y132548D01*
X129596Y132610D01*
Y130407D01*
X131846D01*
X131780Y130307D01*
X131720Y130153D01*
X131668Y129945D01*
X131633Y129748D01*
X132283D01*
X132134Y129733D01*
X132000Y129685D01*
X131882Y129606D01*
X131780Y129495D01*
X131693Y129352D01*
X131622Y129177D01*
X131567Y128971D01*
X131544Y128835D01*
X131510Y128098D01*
X131496Y126983D01*
X129921D01*
X129918Y127567D01*
X129807Y129133D01*
X129795Y129177D01*
X129724Y129352D01*
X129638Y129495D01*
X129535Y129606D01*
X129417Y129685D01*
X129283Y129733D01*
X129134Y129748D01*
X129763D01*
X129750Y129945D01*
X129697Y130153D01*
X129638Y130307D01*
X129581Y130391D01*
X129503Y130444D01*
X129355Y130499D01*
X129152Y130549D01*
X128895Y130591D01*
X128764Y130604D01*
Y129921D01*
X128748Y130071D01*
X128701Y130205D01*
X128621Y130323D01*
X128510Y130425D01*
X128367Y130512D01*
X128193Y130583D01*
X127987Y130638D01*
X127786Y130671D01*
X127436Y130683D01*
X127369Y130677D01*
X127131Y130638D01*
X126925Y130583D01*
X126751Y130512D01*
X126608Y130425D01*
X126497Y130323D01*
X126417Y130205D01*
X126370Y130071D01*
X126354Y129921D01*
Y130708D01*
X126195Y130709D01*
Y132283D01*
X126354Y132284D01*
Y133071D01*
X126370Y132921D01*
X126417Y132787D01*
X126497Y132669D01*
X126608Y132567D01*
X126751Y132480D01*
X126925Y132409D01*
X127131Y132354D01*
X127324Y132323D01*
X128047Y132370D01*
X128193Y132409D01*
X128367Y132480D01*
X128510Y132567D01*
X128621Y132669D01*
X128701Y132787D01*
X128748Y132921D01*
X128764Y133071D01*
Y132418D01*
D02*
G37*
G36*
X122465Y129921D02*
X122449Y130071D01*
X122401Y130205D01*
X122322Y130323D01*
X122211Y130425D01*
X122068Y130512D01*
X121894Y130583D01*
X121687Y130638D01*
X121449Y130677D01*
X121180Y130701D01*
X120965Y130706D01*
X120749Y130701D01*
X120480Y130677D01*
X120242Y130638D01*
X120035Y130583D01*
X119861Y130512D01*
X119718Y130425D01*
X119607Y130323D01*
X119528Y130205D01*
X119480Y130071D01*
X119464Y129921D01*
Y133071D01*
X119480Y132921D01*
X119528Y132787D01*
X119607Y132669D01*
X119718Y132567D01*
X119861Y132480D01*
X120035Y132409D01*
X120242Y132354D01*
X120480Y132315D01*
X120749Y132291D01*
X120965Y132286D01*
X121180Y132291D01*
X121449Y132315D01*
X121687Y132354D01*
X121894Y132409D01*
X122068Y132480D01*
X122211Y132567D01*
X122322Y132669D01*
X122401Y132787D01*
X122449Y132921D01*
X122465Y133071D01*
Y129921D01*
D02*
G37*
G36*
X132697Y133221D02*
X132791Y133189D01*
X132949Y133161D01*
X133169Y133137D01*
X134209Y133088D01*
X135815Y133071D01*
Y129921D01*
X135216Y129919D01*
X132697Y129771D01*
X132665Y129736D01*
Y133256D01*
X132697Y133221D01*
D02*
G37*
G36*
X114286Y128644D02*
X114221Y128614D01*
X114163Y128565D01*
X114114Y128496D01*
X114072Y128408D01*
X114038Y128299D01*
X114011Y128172D01*
X113992Y128024D01*
X113980Y127857D01*
X113976Y127670D01*
X112992D01*
X112988Y127857D01*
X112958Y128172D01*
X112931Y128299D01*
X112897Y128408D01*
X112855Y128496D01*
X112805Y128565D01*
X112748Y128614D01*
X112683Y128644D01*
X112610Y128654D01*
X114358D01*
X114286Y128644D01*
D02*
G37*
G36*
X116846Y128644D02*
X116782Y128614D01*
X116727Y128564D01*
X116678Y128494D01*
X116637Y128404D01*
X116603Y128294D01*
X116577Y128164D01*
X116558Y128014D01*
X116547Y127844D01*
X116543Y127654D01*
X115543D01*
X115540Y127844D01*
X115510Y128164D01*
X115483Y128294D01*
X115450Y128404D01*
X115409Y128494D01*
X115360Y128564D01*
X115304Y128614D01*
X115241Y128644D01*
X115170Y128654D01*
X116917D01*
X116846Y128644D01*
D02*
G37*
G36*
X104051D02*
X103987Y128614D01*
X103931Y128564D01*
X103883Y128494D01*
X103841Y128404D01*
X103808Y128294D01*
X103782Y128164D01*
X103763Y128014D01*
X103752Y127844D01*
X103748Y127654D01*
X102748D01*
X102744Y127844D01*
X102714Y128164D01*
X102688Y128294D01*
X102655Y128404D01*
X102613Y128494D01*
X102565Y128564D01*
X102509Y128614D01*
X102445Y128644D01*
X102374Y128654D01*
X104122D01*
X104051Y128644D01*
D02*
G37*
G36*
X101492D02*
X101428Y128614D01*
X101372Y128564D01*
X101324Y128494D01*
X101282Y128404D01*
X101249Y128294D01*
X101223Y128164D01*
X101204Y128014D01*
X101193Y127844D01*
X101189Y127654D01*
X100189D01*
X100185Y127844D01*
X100155Y128164D01*
X100129Y128294D01*
X100095Y128404D01*
X100054Y128494D01*
X100006Y128564D01*
X99950Y128614D01*
X99886Y128644D01*
X99815Y128654D01*
X101563D01*
X101492Y128644D01*
D02*
G37*
G36*
X98923D02*
X98852Y128614D01*
X98788Y128564D01*
X98733Y128494D01*
X98686Y128404D01*
X98648Y128294D01*
X98619Y128164D01*
X98598Y128014D01*
X98585Y127844D01*
X98581Y127654D01*
X97581D01*
X97578Y127844D01*
X97552Y128164D01*
X97529Y128294D01*
X97500Y128404D01*
X97464Y128494D01*
X97422Y128564D01*
X97373Y128614D01*
X97318Y128644D01*
X97256Y128654D01*
X99004D01*
X98923Y128644D01*
D02*
G37*
G36*
X96328D02*
X96243Y128614D01*
X96168Y128564D01*
X96103Y128494D01*
X96048Y128404D01*
X96003Y128294D01*
X95968Y128164D01*
X95943Y128014D01*
X95928Y127844D01*
X95923Y127654D01*
X94923D01*
X94921Y127844D01*
X94887Y128294D01*
X94867Y128404D01*
X94842Y128494D01*
X94812Y128564D01*
X94779Y128614D01*
X94740Y128644D01*
X94697Y128654D01*
X96423D01*
X96328Y128644D01*
D02*
G37*
G36*
X142126Y131496D02*
X138976Y126772D01*
X138945Y127370D01*
X138850Y127905D01*
X138693Y128378D01*
X138472Y128787D01*
X138189Y129134D01*
X137843Y129417D01*
X137433Y129638D01*
X136961Y129795D01*
X136425Y129890D01*
X135827Y129921D01*
Y133071D01*
X136425Y133102D01*
X136961Y133197D01*
X137433Y133354D01*
X137843Y133575D01*
X138189Y133858D01*
X138472Y134205D01*
X138693Y134614D01*
X138850Y135087D01*
X138945Y135622D01*
X138976Y136221D01*
X142126Y131496D01*
D02*
G37*
G36*
X107313Y136473D02*
Y135286D01*
X107284Y135221D01*
X107280Y135074D01*
X107271Y134969D01*
X107268Y134950D01*
X94085D01*
Y128830D01*
X94064Y128801D01*
X94077Y128725D01*
X94048Y128654D01*
X94085Y128563D01*
Y128042D01*
X94255D01*
X94272Y127815D01*
X94274Y127646D01*
X94302Y127581D01*
Y126584D01*
X90423D01*
Y135343D01*
X91822Y136742D01*
X107044D01*
X107313Y136473D01*
D02*
G37*
G36*
X116548Y127272D02*
X116563Y127100D01*
X116588Y126948D01*
X116623Y126817D01*
X116668Y126705D01*
X116723Y126614D01*
X116788Y126543D01*
X116863Y126493D01*
X116948Y126462D01*
X117043Y126452D01*
X115043D01*
X115138Y126462D01*
X115223Y126493D01*
X115298Y126543D01*
X115363Y126614D01*
X115418Y126705D01*
X115463Y126817D01*
X115498Y126948D01*
X115523Y127100D01*
X115538Y127272D01*
X115543Y127464D01*
X116543D01*
X116548Y127272D01*
D02*
G37*
G36*
X88016Y124016D02*
X87150Y122716D01*
X87141Y122881D01*
X87115Y123028D01*
X87072Y123158D01*
X87011Y123271D01*
X86933Y123366D01*
X86838Y123444D01*
X86725Y123505D01*
X86676Y123521D01*
X86646Y123513D01*
X86551Y123474D01*
X86473Y123427D01*
X86412Y123371D01*
X86369Y123305D01*
X86343Y123232D01*
X86334Y123150D01*
Y123580D01*
X86283Y123583D01*
Y124449D01*
X86334Y124451D01*
Y124882D01*
X86343Y124800D01*
X86369Y124726D01*
X86412Y124661D01*
X86473Y124605D01*
X86551Y124557D01*
X86646Y124518D01*
X86676Y124510D01*
X86725Y124527D01*
X86838Y124587D01*
X86933Y124665D01*
X87011Y124761D01*
X87072Y124873D01*
X87115Y125003D01*
X87141Y125150D01*
X87150Y125315D01*
X88016Y124016D01*
D02*
G37*
G36*
X123921Y126228D02*
X123968Y126094D01*
X124047Y125976D01*
X124157Y125874D01*
X124299Y125787D01*
X124472Y125716D01*
X124677Y125661D01*
X124913Y125622D01*
X125181Y125598D01*
X125480Y125591D01*
Y124016D01*
X125181Y124008D01*
X124913Y123984D01*
X124677Y123945D01*
X124472Y123890D01*
X124299Y123819D01*
X124157Y123732D01*
X124047Y123630D01*
X123968Y123512D01*
X123921Y123378D01*
X123905Y123228D01*
Y126378D01*
X123921Y126228D01*
D02*
G37*
G36*
X89812Y125150D02*
X89838Y125003D01*
X89881Y124873D01*
X89942Y124761D01*
X90020Y124665D01*
X90090Y124608D01*
X90122Y124635D01*
X90163Y124692D01*
X90188Y124757D01*
X90196Y124829D01*
Y124544D01*
X90228Y124527D01*
X90358Y124484D01*
X90505Y124458D01*
X90669Y124449D01*
Y123583D01*
X90505Y123574D01*
X90358Y123548D01*
X90228Y123505D01*
X90196Y123488D01*
Y123202D01*
X90188Y123274D01*
X90163Y123339D01*
X90122Y123396D01*
X90090Y123423D01*
X90020Y123366D01*
X89942Y123271D01*
X89881Y123158D01*
X89838Y123028D01*
X89812Y122881D01*
X89803Y122716D01*
X88937Y124016D01*
X89803Y125315D01*
X89812Y125150D01*
D02*
G37*
G36*
X121143Y130052D02*
X121368Y130032D01*
X121550Y130002D01*
X121687Y129966D01*
X121776Y129930D01*
X121813Y129907D01*
X121819Y129853D01*
X121841Y129813D01*
Y129124D01*
X126978D01*
Y129813D01*
X127000Y129853D01*
X127006Y129907D01*
X127043Y129930D01*
X127132Y129966D01*
X127269Y130002D01*
X127451Y130032D01*
X127453Y130033D01*
X127721Y130023D01*
X127849Y130002D01*
X127986Y129966D01*
X128075Y129930D01*
X128113Y129907D01*
X128118Y129853D01*
X128140Y129813D01*
Y129124D01*
X129025D01*
X129065Y129103D01*
X129119Y129097D01*
X129142Y129059D01*
X129165Y129003D01*
X129269Y127543D01*
X129269Y127529D01*
X127957Y126218D01*
X125547D01*
X125497Y126240D01*
X125218Y126247D01*
X124995Y126267D01*
X124815Y126297D01*
X124680Y126333D01*
X124593Y126369D01*
X124557Y126391D01*
X124551Y126446D01*
X124517Y126508D01*
Y127076D01*
X119971D01*
Y122530D01*
X124517D01*
Y123098D01*
X124551Y123160D01*
X124557Y123215D01*
X124593Y123238D01*
X124680Y123273D01*
X124815Y123310D01*
X124995Y123339D01*
X125218Y123359D01*
X125497Y123366D01*
X125547Y123389D01*
X128543D01*
X129085Y123496D01*
X129544Y123803D01*
X131709Y125968D01*
X132016Y126427D01*
X132106Y126883D01*
X132146Y126974D01*
X132159Y128079D01*
X132191Y128767D01*
X132202Y128834D01*
X132204Y128841D01*
X132648Y129078D01*
X132689Y129092D01*
X132700Y129088D01*
X132776Y129124D01*
X133277D01*
Y129155D01*
X135236Y129270D01*
X135810Y129272D01*
X136351Y129243D01*
X136801Y129164D01*
X137174Y129039D01*
X137480Y128875D01*
X137727Y128672D01*
X137930Y128425D01*
X138094Y128119D01*
X138219Y127746D01*
X138298Y127296D01*
X138328Y126737D01*
X138334Y126725D01*
Y83356D01*
X138333Y83355D01*
X138334Y83351D01*
Y83303D01*
X138327Y83289D01*
X138308Y82716D01*
X138256Y82236D01*
X138171Y81832D01*
X138061Y81505D01*
X137933Y81253D01*
X137793Y81070D01*
X137643Y80941D01*
X137473Y80850D01*
X137348Y80815D01*
X136146Y80767D01*
X136108Y80749D01*
X126818D01*
X126777Y80767D01*
X126420Y80777D01*
X126128Y80802D01*
X125887Y80842D01*
X125699Y80892D01*
X125567Y80946D01*
X125489Y80994D01*
X125454Y81026D01*
X125443Y81042D01*
X125437Y81060D01*
X125425Y81171D01*
X125403Y81211D01*
Y84261D01*
X118691D01*
Y74400D01*
X118215Y74342D01*
X117292D01*
X117229Y74370D01*
X117060Y74374D01*
X116935Y74385D01*
X116841Y74401D01*
X116840Y74401D01*
Y75539D01*
X112294D01*
Y70993D01*
X116840D01*
Y72056D01*
X116841Y72056D01*
X116935Y72072D01*
X117060Y72083D01*
X117229Y72087D01*
X117292Y72115D01*
X118575D01*
X118691Y71663D01*
X118691D01*
Y68585D01*
X118397Y68255D01*
X117292D01*
X117229Y68283D01*
X117060Y68287D01*
X116935Y68298D01*
X116841Y68314D01*
X116840Y68314D01*
Y69437D01*
X112294D01*
Y68336D01*
X112293Y68336D01*
X112199Y68320D01*
X112074Y68309D01*
X111905Y68305D01*
X111842Y68277D01*
X110796D01*
X110733Y68305D01*
X110564Y68309D01*
X110439Y68320D01*
X110345Y68336D01*
X110344Y68336D01*
Y69415D01*
X105798D01*
Y64868D01*
X110344D01*
Y65991D01*
X110345Y65992D01*
X110439Y66007D01*
X110564Y66018D01*
X110733Y66022D01*
X110796Y66050D01*
X111842D01*
X111905Y66022D01*
X112074Y66018D01*
X112199Y66007D01*
X112293Y65992D01*
X112294Y65991D01*
Y64891D01*
X113074D01*
X113078Y64866D01*
X113087Y64764D01*
X113091Y64619D01*
X113120Y64554D01*
Y60975D01*
X113091Y60910D01*
X113087Y60763D01*
X113078Y60658D01*
X113075Y60639D01*
X111605D01*
Y59366D01*
X111586Y59363D01*
X111481Y59354D01*
X111334Y59350D01*
X111269Y59321D01*
X98802D01*
X98675Y59515D01*
X98583Y59821D01*
X98922Y60329D01*
X99060Y61024D01*
X98922Y61719D01*
X98528Y62308D01*
X98149Y62562D01*
X98033Y63154D01*
X105628Y70748D01*
X105869Y71109D01*
X105954Y71535D01*
Y77012D01*
X111435Y82493D01*
X111676Y82854D01*
X111761Y83280D01*
Y107668D01*
X116742D01*
Y112805D01*
X111761D01*
Y123738D01*
X113407Y125384D01*
X113868Y125193D01*
Y122530D01*
X118415D01*
Y127076D01*
X117226D01*
X117224Y127085D01*
X117208Y127181D01*
X117197Y127309D01*
X117192Y127481D01*
X117165Y127543D01*
Y127577D01*
X117193Y127641D01*
X117196Y127816D01*
X117205Y127952D01*
X117216Y128042D01*
X120088D01*
Y129813D01*
X120110Y129853D01*
X120116Y129907D01*
X120153Y129930D01*
X120242Y129966D01*
X120379Y130002D01*
X120561Y130032D01*
X120786Y130052D01*
X120965Y130057D01*
X121143Y130052D01*
D02*
G37*
G36*
X101199Y123948D02*
X101229Y123778D01*
X101279Y123628D01*
X101349Y123498D01*
X101439Y123388D01*
X101549Y123298D01*
X101679Y123228D01*
X101760Y123201D01*
X101825Y123218D01*
X101936Y123263D01*
X102027Y123318D01*
X102098Y123383D01*
X102149Y123458D01*
X102179Y123543D01*
X102189Y123638D01*
Y121638D01*
X102179Y121733D01*
X102149Y121818D01*
X102098Y121893D01*
X102027Y121958D01*
X101936Y122013D01*
X101825Y122058D01*
X101760Y122075D01*
X101679Y122048D01*
X101549Y121978D01*
X101439Y121888D01*
X101349Y121778D01*
X101279Y121648D01*
X101229Y121498D01*
X101199Y121328D01*
X101189Y121138D01*
X100189Y122638D01*
X101189Y124138D01*
X101199Y123948D01*
D02*
G37*
G36*
X65837Y121273D02*
X65880Y121250D01*
X65935Y121229D01*
X66001Y121211D01*
X66078Y121196D01*
X66166Y121184D01*
X66375Y121167D01*
X66629Y121161D01*
Y119783D01*
X66496Y119782D01*
X66078Y119749D01*
X66001Y119734D01*
X65935Y119716D01*
X65880Y119695D01*
X65837Y119672D01*
X65804Y119646D01*
Y121299D01*
X65837Y121273D01*
D02*
G37*
G36*
X111149Y111526D02*
X111179Y111358D01*
X111228Y111211D01*
X111297Y111083D01*
X111385Y110974D01*
X111494Y110886D01*
X111622Y110817D01*
X111748Y110775D01*
X111870Y110807D01*
X111980Y110851D01*
X112069Y110906D01*
X112139Y110969D01*
X112189Y111043D01*
X112219Y111127D01*
X112229Y111221D01*
Y109252D01*
X112219Y109345D01*
X112189Y109429D01*
X112139Y109503D01*
X112069Y109567D01*
X111980Y109621D01*
X111870Y109665D01*
X111748Y109698D01*
X111622Y109655D01*
X111494Y109587D01*
X111385Y109498D01*
X111297Y109390D01*
X111228Y109262D01*
X111179Y109114D01*
X111149Y108947D01*
X111139Y108760D01*
X110155Y110236D01*
X111139Y111713D01*
X111149Y111526D01*
D02*
G37*
G36*
X112339Y127818D02*
X112343Y127656D01*
X112371Y127593D01*
Y127498D01*
X109860Y124987D01*
X109618Y124626D01*
X109534Y124200D01*
Y110387D01*
X109518Y110364D01*
X109534Y110286D01*
Y110187D01*
X109518Y110109D01*
X109534Y110086D01*
Y105392D01*
X109441Y104931D01*
X104370D01*
Y113906D01*
X108672Y118208D01*
X108672Y118208D01*
X108915Y118572D01*
X109000Y119001D01*
X109000Y119001D01*
Y125094D01*
X108915Y125523D01*
X108672Y125887D01*
X108672Y125887D01*
X107666Y126893D01*
X107302Y127136D01*
X106872Y127222D01*
X106872Y127222D01*
X104772D01*
X104460Y127637D01*
X104568Y128042D01*
X112318D01*
X112339Y127818D01*
D02*
G37*
G36*
X103758Y103672D02*
X103788Y103502D01*
X103838Y103352D01*
X103908Y103222D01*
X103998Y103112D01*
X104108Y103022D01*
X104238Y102952D01*
X104388Y102902D01*
X104395Y102901D01*
X104432Y102907D01*
X104564Y102942D01*
X104675Y102987D01*
X104766Y103042D01*
X104837Y103107D01*
X104887Y103182D01*
X104918Y103267D01*
X104928Y103362D01*
Y101362D01*
X104918Y101457D01*
X104887Y101542D01*
X104837Y101617D01*
X104766Y101682D01*
X104675Y101737D01*
X104564Y101782D01*
X104432Y101817D01*
X104395Y101823D01*
X104388Y101822D01*
X104238Y101772D01*
X104108Y101702D01*
X103998Y101612D01*
X103908Y101502D01*
X103838Y101372D01*
X103788Y101222D01*
X103758Y101052D01*
X103748Y100862D01*
X102748Y102362D01*
X103748Y103862D01*
X103758Y103672D01*
D02*
G37*
G36*
X51992Y90232D02*
X51977Y90375D01*
X51932Y90502D01*
X51856Y90615D01*
X51751Y90712D01*
X51614Y90795D01*
X51448Y90862D01*
X51252Y90915D01*
X51025Y90952D01*
X50787Y90973D01*
X50550Y90952D01*
X50323Y90915D01*
X50127Y90862D01*
X49960Y90795D01*
X49824Y90712D01*
X49718Y90615D01*
X49643Y90502D01*
X49597Y90375D01*
X49582Y90232D01*
Y93232D01*
X49597Y93090D01*
X49643Y92962D01*
X49718Y92850D01*
X49824Y92752D01*
X49960Y92670D01*
X50127Y92602D01*
X50323Y92550D01*
X50550Y92512D01*
X50787Y92492D01*
X51025Y92512D01*
X51252Y92550D01*
X51448Y92602D01*
X51614Y92670D01*
X51751Y92752D01*
X51856Y92850D01*
X51932Y92962D01*
X51977Y93090D01*
X51992Y93232D01*
Y90232D01*
D02*
G37*
G36*
X37310Y92239D02*
X37329Y92237D01*
X37521Y92232D01*
Y91232D01*
X37329Y91227D01*
X37310Y91226D01*
Y90732D01*
X37300Y90827D01*
X37270Y90912D01*
X37219Y90987D01*
X37148Y91052D01*
X37057Y91107D01*
X36946Y91152D01*
X36909Y91162D01*
X36873Y91152D01*
X36762Y91107D01*
X36671Y91052D01*
X36600Y90987D01*
X36549Y90912D01*
X36519Y90827D01*
X36509Y90732D01*
Y91226D01*
X36490Y91227D01*
X36298Y91232D01*
Y92232D01*
X36490Y92237D01*
X36509Y92239D01*
Y92732D01*
X36519Y92637D01*
X36549Y92552D01*
X36600Y92477D01*
X36671Y92412D01*
X36762Y92357D01*
X36873Y92312D01*
X36909Y92303D01*
X36946Y92312D01*
X37057Y92357D01*
X37148Y92412D01*
X37219Y92477D01*
X37270Y92552D01*
X37300Y92637D01*
X37310Y92732D01*
Y92239D01*
D02*
G37*
G36*
X32192Y90732D02*
X32182Y90827D01*
X32151Y90912D01*
X32101Y90987D01*
X32030Y91052D01*
X31939Y91107D01*
X31828Y91152D01*
X31696Y91187D01*
X31544Y91212D01*
X31372Y91227D01*
X31180Y91232D01*
Y92232D01*
X31372Y92237D01*
X31544Y92252D01*
X31696Y92277D01*
X31828Y92312D01*
X31939Y92357D01*
X32030Y92412D01*
X32101Y92477D01*
X32151Y92552D01*
X32182Y92637D01*
X32192Y92732D01*
Y90732D01*
D02*
G37*
G36*
X27344Y92637D02*
X27375Y92552D01*
X27425Y92477D01*
X27496Y92412D01*
X27587Y92357D01*
X27699Y92312D01*
X27830Y92277D01*
X27982Y92252D01*
X28154Y92237D01*
X28346Y92232D01*
Y91232D01*
X28154Y91227D01*
X27982Y91212D01*
X27830Y91187D01*
X27699Y91152D01*
X27587Y91107D01*
X27496Y91052D01*
X27425Y90987D01*
X27375Y90912D01*
X27344Y90827D01*
X27334Y90732D01*
Y92732D01*
X27344Y92637D01*
D02*
G37*
G36*
X24036Y90732D02*
X24026Y90827D01*
X23995Y90912D01*
X23945Y90987D01*
X23874Y91052D01*
X23783Y91107D01*
X23672Y91152D01*
X23540Y91187D01*
X23388Y91212D01*
X23216Y91227D01*
X23024Y91232D01*
Y92232D01*
X23216Y92237D01*
X23388Y92252D01*
X23540Y92277D01*
X23672Y92312D01*
X23783Y92357D01*
X23874Y92412D01*
X23945Y92477D01*
X23995Y92552D01*
X24026Y92637D01*
X24036Y92732D01*
Y90732D01*
D02*
G37*
G36*
X21541Y92637D02*
X21572Y92552D01*
X21622Y92477D01*
X21693Y92412D01*
X21784Y92357D01*
X21895Y92312D01*
X22027Y92277D01*
X22179Y92252D01*
X22351Y92237D01*
X22543Y92232D01*
Y91232D01*
X22351Y91227D01*
X22179Y91212D01*
X22027Y91187D01*
X21895Y91152D01*
X21784Y91107D01*
X21693Y91052D01*
X21622Y90987D01*
X21572Y90912D01*
X21541Y90827D01*
X21531Y90732D01*
Y92732D01*
X21541Y92637D01*
D02*
G37*
G36*
X55897Y93090D02*
X55942Y92962D01*
X56018Y92850D01*
X56123Y92752D01*
X56260Y92670D01*
X56426Y92602D01*
X56622Y92550D01*
X56849Y92512D01*
X57106Y92490D01*
X57393Y92482D01*
Y90982D01*
X57106Y90975D01*
X56849Y90952D01*
X56622Y90915D01*
X56426Y90862D01*
X56260Y90795D01*
X56123Y90712D01*
X56018Y90615D01*
X55942Y90502D01*
X55897Y90375D01*
X55882Y90232D01*
Y93232D01*
X55897Y93090D01*
D02*
G37*
G36*
X45693Y90232D02*
X45678Y90375D01*
X45633Y90502D01*
X45557Y90615D01*
X45451Y90712D01*
X45315Y90795D01*
X45149Y90862D01*
X44952Y90915D01*
X44726Y90952D01*
X44469Y90975D01*
X44181Y90982D01*
Y92482D01*
X44469Y92490D01*
X44726Y92512D01*
X44952Y92550D01*
X45149Y92602D01*
X45315Y92670D01*
X45451Y92752D01*
X45557Y92850D01*
X45633Y92962D01*
X45678Y93090D01*
X45693Y93232D01*
Y90232D01*
D02*
G37*
G36*
X41642Y93090D02*
X41688Y92962D01*
X41763Y92850D01*
X41869Y92752D01*
X42005Y92670D01*
X42171Y92602D01*
X42368Y92550D01*
X42595Y92512D01*
X42852Y92490D01*
X43139Y92482D01*
Y90982D01*
X42852Y90975D01*
X42595Y90952D01*
X42368Y90915D01*
X42171Y90862D01*
X42005Y90795D01*
X41869Y90712D01*
X41763Y90615D01*
X41688Y90502D01*
X41642Y90375D01*
X41627Y90232D01*
Y93232D01*
X41642Y93090D01*
D02*
G37*
G36*
X59069Y90334D02*
X59303Y90318D01*
X59449Y90285D01*
X59558Y90237D01*
X59645Y90176D01*
X59721Y90093D01*
X59794Y89977D01*
X59861Y89814D01*
X59916Y89599D01*
X59952Y89331D01*
X59965Y88988D01*
X59982Y88951D01*
X59973Y88911D01*
X59983Y88894D01*
Y86689D01*
X60106Y86071D01*
X60456Y85547D01*
X62343Y83660D01*
Y81921D01*
X60039D01*
X59369Y81833D01*
X58744Y81574D01*
X58207Y81163D01*
X55255Y78210D01*
X54843Y77673D01*
X54584Y77048D01*
X54496Y76378D01*
Y53226D01*
X53073Y51803D01*
X18966D01*
X18907Y51830D01*
X17511Y51876D01*
X16961Y51931D01*
X16494Y52005D01*
X16121Y52096D01*
X15848Y52195D01*
X15680Y52287D01*
X15613Y52347D01*
X15607Y52358D01*
X15588Y52464D01*
X15561Y52507D01*
Y52962D01*
X15039D01*
X14949Y53000D01*
X14894Y52977D01*
X14835Y52990D01*
X14792Y52962D01*
X8061D01*
Y45463D01*
X14792D01*
X14835Y45436D01*
X14894Y45448D01*
X14949Y45426D01*
X15039Y45463D01*
X15561D01*
Y45919D01*
X15588Y45962D01*
X15607Y46067D01*
X15613Y46078D01*
X15680Y46138D01*
X15848Y46230D01*
X16121Y46329D01*
X16494Y46420D01*
X16953Y46493D01*
X18167Y46583D01*
X18896Y46595D01*
X18959Y46622D01*
X40855D01*
Y39437D01*
X40827Y39375D01*
X40823Y39206D01*
X40812Y39081D01*
X40796Y38987D01*
X40796Y38986D01*
X39794D01*
Y34636D01*
X44143D01*
Y38986D01*
X43141D01*
X43141Y38987D01*
X43125Y39081D01*
X43114Y39206D01*
X43110Y39375D01*
X43082Y39437D01*
Y46622D01*
X54146D01*
X54817Y46710D01*
X55442Y46969D01*
X55978Y47381D01*
X58918Y50321D01*
X59330Y50858D01*
X59589Y51482D01*
X59677Y52153D01*
Y75305D01*
X61112Y76740D01*
X62343D01*
Y73819D01*
X62477Y73494D01*
X62343Y73169D01*
X62343Y61417D01*
X62533Y60958D01*
X62992Y60768D01*
X69900D01*
X69942Y60559D01*
X70205Y60165D01*
Y59913D01*
X69942Y59520D01*
X69849Y59055D01*
X69942Y58591D01*
X70205Y58197D01*
Y57945D01*
X69942Y57551D01*
X69849Y57087D01*
X69942Y56622D01*
X70205Y56228D01*
Y55976D01*
X69942Y55583D01*
X69849Y55118D01*
X69942Y54654D01*
X70205Y54260D01*
Y54008D01*
X69942Y53614D01*
X69849Y53150D01*
X69942Y52685D01*
X70205Y52291D01*
Y52039D01*
X69942Y51646D01*
X69849Y51181D01*
X69942Y50717D01*
X70205Y50323D01*
Y50071D01*
X69942Y49677D01*
X69849Y49213D01*
X69942Y48748D01*
X70205Y48354D01*
Y48102D01*
X69942Y47709D01*
X69849Y47244D01*
X69942Y46780D01*
X70205Y46386D01*
Y46134D01*
X70086Y45957D01*
X69942Y45740D01*
X69849Y45276D01*
X69942Y44811D01*
X70205Y44417D01*
Y44165D01*
X69942Y43772D01*
X69849Y43307D01*
X69942Y42843D01*
X70205Y42449D01*
X70599Y42186D01*
X71063Y42093D01*
X76181D01*
X76646Y42186D01*
X77039Y42449D01*
X77303Y42843D01*
X77395Y43307D01*
X77303Y43772D01*
X77039Y44165D01*
Y44417D01*
X77303Y44811D01*
X77395Y45276D01*
X77303Y45740D01*
X77039Y46134D01*
Y46386D01*
X77303Y46780D01*
X77395Y47244D01*
X77303Y47709D01*
X77039Y48102D01*
Y48354D01*
X77303Y48748D01*
X77395Y49213D01*
X77303Y49677D01*
X77039Y50071D01*
Y50323D01*
X77303Y50717D01*
X77395Y51181D01*
X77303Y51646D01*
X77039Y52039D01*
Y52291D01*
X77303Y52685D01*
X77395Y53150D01*
X77303Y53614D01*
X77039Y54008D01*
Y54260D01*
X77303Y54654D01*
X77395Y55118D01*
X77303Y55583D01*
X77039Y55976D01*
Y56228D01*
X77303Y56622D01*
X77395Y57087D01*
X77303Y57551D01*
X77039Y57945D01*
Y58197D01*
X77303Y58591D01*
X77395Y59055D01*
X77303Y59520D01*
X77039Y59913D01*
Y60165D01*
X77303Y60559D01*
X77344Y60768D01*
X84073D01*
X84115Y60559D01*
X84378Y60165D01*
Y59913D01*
X84115Y59520D01*
X84022Y59055D01*
X84115Y58591D01*
X84378Y58197D01*
Y57945D01*
X84115Y57551D01*
X84022Y57087D01*
X84115Y56622D01*
X84378Y56228D01*
Y55976D01*
X84115Y55583D01*
X84022Y55118D01*
X84115Y54654D01*
X84378Y54260D01*
Y54008D01*
X84115Y53614D01*
X84022Y53150D01*
X84115Y52685D01*
X84378Y52291D01*
Y52039D01*
X84115Y51646D01*
X84022Y51181D01*
X84115Y50717D01*
X84378Y50323D01*
Y50071D01*
X84115Y49677D01*
X84022Y49213D01*
X84115Y48748D01*
X84378Y48354D01*
Y48102D01*
X84115Y47709D01*
X84022Y47244D01*
X84115Y46780D01*
X84378Y46386D01*
Y46134D01*
X84115Y45740D01*
X84022Y45276D01*
X84115Y44811D01*
X84378Y44417D01*
Y44165D01*
X84115Y43772D01*
X84022Y43307D01*
X84115Y42843D01*
X84378Y42449D01*
Y42197D01*
X84115Y41803D01*
X84022Y41339D01*
X84115Y40874D01*
X84378Y40480D01*
Y40228D01*
X84115Y39835D01*
X84022Y39370D01*
X84115Y38906D01*
X84378Y38512D01*
Y38260D01*
X84115Y37866D01*
X84022Y37402D01*
X84115Y36937D01*
X84378Y36543D01*
Y36291D01*
X84115Y35898D01*
X84022Y35433D01*
X84115Y34969D01*
X84378Y34575D01*
X84772Y34312D01*
X85236Y34219D01*
X86660D01*
X86673Y34137D01*
X86684Y34012D01*
X86689Y33842D01*
X86716Y33779D01*
Y31390D01*
X86689Y31328D01*
X86686Y31228D01*
X86679Y31155D01*
X86669Y31091D01*
X86657Y31036D01*
X86642Y30988D01*
X86626Y30948D01*
X86608Y30914D01*
X86590Y30885D01*
X86570Y30859D01*
X86527Y30813D01*
X86503Y30748D01*
X86152Y30222D01*
X86014Y29528D01*
X86152Y28833D01*
X86546Y28243D01*
X87135Y27850D01*
X87830Y27712D01*
X88525Y27850D01*
X89114Y28243D01*
X89508Y28833D01*
X89646Y29528D01*
X89508Y30222D01*
X89157Y30748D01*
X89132Y30813D01*
X89090Y30859D01*
X89070Y30885D01*
X89051Y30914D01*
X89034Y30948D01*
X89018Y30988D01*
X89003Y31036D01*
X88990Y31091D01*
X88981Y31155D01*
X88974Y31228D01*
X88971Y31328D01*
X88943Y31390D01*
Y33779D01*
X88971Y33842D01*
X88976Y34012D01*
X88987Y34137D01*
X89000Y34219D01*
X90354D01*
X90819Y34312D01*
X91213Y34575D01*
X91476Y34969D01*
X91568Y35433D01*
X91476Y35898D01*
X91213Y36291D01*
Y36543D01*
X91476Y36937D01*
X91568Y37402D01*
X91511Y37690D01*
X91514Y37710D01*
X91968Y37953D01*
X92587Y37334D01*
Y29201D01*
X92262Y28876D01*
X92198Y28852D01*
X92126Y28783D01*
X92069Y28736D01*
X92017Y28698D01*
X91969Y28668D01*
X91925Y28644D01*
X91885Y28628D01*
X91849Y28616D01*
X91815Y28608D01*
X91783Y28604D01*
X91720Y28602D01*
X91657Y28573D01*
X91037Y28449D01*
X90448Y28056D01*
X90054Y27467D01*
X89916Y26772D01*
X90047Y26112D01*
X90042Y26000D01*
X89834Y25612D01*
X10023D01*
X6761Y28874D01*
Y75510D01*
X9460Y78209D01*
X12561D01*
X12661Y77709D01*
X11705Y77314D01*
X10634Y76492D01*
X9812Y75421D01*
X9296Y74173D01*
X9120Y72835D01*
X9296Y71496D01*
X9812Y70249D01*
X10634Y69178D01*
X11705Y68356D01*
X12953Y67839D01*
X14291Y67663D01*
X15630Y67839D01*
X16877Y68356D01*
X17948Y69178D01*
X18770Y70249D01*
X19287Y71496D01*
X19463Y72835D01*
X19287Y74173D01*
X18770Y75421D01*
X17948Y76492D01*
X16877Y77314D01*
X15922Y77709D01*
X16022Y78209D01*
X34155D01*
X34361Y78002D01*
X34455Y77824D01*
X34420Y77738D01*
X34191Y77372D01*
X33455D01*
Y70660D01*
X38198D01*
Y77372D01*
X36804D01*
X36802Y77380D01*
X36786Y77472D01*
X36776Y77594D01*
X36771Y77761D01*
X36744Y77823D01*
Y79066D01*
X36772Y79134D01*
X36759Y79165D01*
X36768Y79198D01*
X36744Y79244D01*
Y80133D01*
X36998Y80528D01*
X37244Y80528D01*
X40511D01*
Y80512D01*
X40634Y79894D01*
X40984Y79370D01*
X42520Y77834D01*
X42329Y77372D01*
X40935D01*
Y70660D01*
X43592D01*
X43632Y70638D01*
X43743Y70626D01*
X43761Y70620D01*
X43777Y70609D01*
X43809Y70574D01*
X43857Y70496D01*
X43911Y70364D01*
X43961Y70176D01*
X44001Y69935D01*
X44026Y69643D01*
X44036Y69286D01*
X44054Y69245D01*
Y67716D01*
X44177Y67098D01*
X44527Y66574D01*
X45905Y65196D01*
X46429Y64846D01*
X47047Y64723D01*
X47136Y64741D01*
X47244Y64719D01*
X47939Y64858D01*
X48528Y65251D01*
X48922Y65841D01*
X49060Y66535D01*
X48922Y67230D01*
X48528Y67819D01*
X47939Y68213D01*
X47337Y68333D01*
X47285Y68386D01*
Y69245D01*
X47303Y69286D01*
X47312Y69643D01*
X47338Y69935D01*
X47378Y70176D01*
X47428Y70364D01*
X47482Y70496D01*
X47529Y70574D01*
X47561Y70609D01*
X47578Y70620D01*
X47596Y70626D01*
X47706Y70638D01*
X47746Y70660D01*
X50797D01*
Y77372D01*
X47204D01*
X47162Y77587D01*
X46812Y78111D01*
X44856Y80066D01*
X45048Y80528D01*
X46860D01*
Y87240D01*
X37244D01*
X36998Y87240D01*
X36744Y87634D01*
Y87981D01*
X36771Y88045D01*
X36774Y88195D01*
X36788Y88355D01*
X37102Y88537D01*
X37210Y88561D01*
X37321Y88557D01*
X37609Y88364D01*
X38189Y88249D01*
X38769Y88364D01*
X39260Y88693D01*
X39677D01*
X40168Y88364D01*
X40748Y88249D01*
X41328Y88364D01*
X41819Y88693D01*
X42148Y89184D01*
X42263Y89764D01*
Y90146D01*
X42273Y90164D01*
X42277Y90200D01*
X42297Y90213D01*
X42378Y90245D01*
X42505Y90279D01*
X42676Y90307D01*
X42889Y90326D01*
X43156Y90333D01*
X43207Y90356D01*
X44113D01*
X44164Y90333D01*
X44432Y90326D01*
X44644Y90307D01*
X44815Y90279D01*
X44942Y90245D01*
X45023Y90213D01*
X45044Y90200D01*
X45048Y90164D01*
X45069Y90124D01*
Y89361D01*
X50206D01*
Y90124D01*
X50228Y90164D01*
X50232Y90200D01*
X50253Y90213D01*
X50333Y90245D01*
X50460Y90279D01*
X50631Y90307D01*
X50787Y90321D01*
X50943Y90307D01*
X51115Y90279D01*
X51241Y90245D01*
X51322Y90213D01*
X51343Y90200D01*
X51347Y90164D01*
X51368Y90124D01*
Y89361D01*
X56506D01*
Y90124D01*
X56527Y90164D01*
X56531Y90200D01*
X56552Y90213D01*
X56633Y90245D01*
X56760Y90279D01*
X56931Y90307D01*
X57143Y90326D01*
X57411Y90333D01*
X57462Y90356D01*
X59026D01*
X59069Y90334D01*
D02*
G37*
G36*
X62583Y91732D02*
X60614Y89014D01*
X60599Y89388D01*
X60554Y89723D01*
X60479Y90018D01*
X60374Y90274D01*
X60239Y90490D01*
X60074Y90667D01*
X59879Y90805D01*
X59654Y90904D01*
X59399Y90963D01*
X59114Y90982D01*
Y92482D01*
X59399Y92502D01*
X59654Y92561D01*
X59879Y92659D01*
X60074Y92797D01*
X60239Y92974D01*
X60374Y93191D01*
X60479Y93447D01*
X60554Y93742D01*
X60599Y94077D01*
X60614Y94451D01*
X62583Y91732D01*
D02*
G37*
G36*
X36390Y89320D02*
X36334Y89210D01*
X36284Y89092D01*
X36241Y88967D01*
X36205Y88834D01*
X36175Y88693D01*
X36152Y88546D01*
X36125Y88228D01*
X36122Y88057D01*
X35138D01*
X35135Y88228D01*
X35108Y88546D01*
X35085Y88693D01*
X35055Y88834D01*
X35019Y88967D01*
X34976Y89092D01*
X34926Y89210D01*
X34870Y89320D01*
X34807Y89423D01*
X36453D01*
X36390Y89320D01*
D02*
G37*
G36*
X15085Y84622D02*
X15159Y84565D01*
X15239Y84514D01*
X15324Y84471D01*
X15415Y84434D01*
X15512Y84404D01*
X15615Y84381D01*
X15723Y84364D01*
X15836Y84354D01*
X15956Y84350D01*
Y83366D01*
X15836Y83363D01*
X15723Y83353D01*
X15615Y83336D01*
X15512Y83313D01*
X15415Y83283D01*
X15324Y83246D01*
X15239Y83202D01*
X15159Y83152D01*
X15085Y83095D01*
X15017Y83031D01*
Y84685D01*
X15085Y84622D01*
D02*
G37*
G36*
X30142Y82874D02*
X30132Y82968D01*
X30102Y83051D01*
X30052Y83125D01*
X29983Y83189D01*
X29893Y83243D01*
X29783Y83287D01*
X29654Y83322D01*
X29504Y83346D01*
X29335Y83361D01*
X29146Y83366D01*
Y84350D01*
X29335Y84355D01*
X29504Y84370D01*
X29654Y84395D01*
X29783Y84429D01*
X29893Y84473D01*
X29983Y84528D01*
X30052Y84592D01*
X30102Y84665D01*
X30132Y84749D01*
X30142Y84842D01*
Y82874D01*
D02*
G37*
G36*
X109441Y99794D02*
X109534Y99332D01*
Y83741D01*
X104832Y79039D01*
X104370Y79231D01*
Y99794D01*
X109441D01*
D02*
G37*
G36*
X98581Y78920D02*
X98584Y78800D01*
X98593Y78685D01*
X98609Y78577D01*
X98631Y78474D01*
X98659Y78376D01*
X98693Y78285D01*
X98734Y78198D01*
X98780Y78118D01*
X98833Y78043D01*
X98893Y77974D01*
X97241Y78043D01*
X97305Y78107D01*
X97363Y78178D01*
X97414Y78254D01*
X97458Y78338D01*
X97496Y78427D01*
X97526Y78522D01*
X97550Y78624D01*
X97567Y78732D01*
X97577Y78846D01*
X97581Y78966D01*
X98581Y78920D01*
D02*
G37*
G36*
X35138Y77935D02*
X35137Y78122D01*
X35123Y78687D01*
X35109Y78859D01*
X35100Y78917D01*
X35091Y78956D01*
X35080Y78977D01*
X35630Y79134D01*
X36122D01*
X35138Y77935D01*
D02*
G37*
G36*
X124799Y80915D02*
X124858Y80748D01*
X124957Y80600D01*
X125096Y80472D01*
X125274Y80364D01*
X125492Y80276D01*
X125750Y80207D01*
X126047Y80158D01*
X126383Y80128D01*
X126760Y80118D01*
Y78150D01*
X126383Y78140D01*
X126047Y78110D01*
X125750Y78061D01*
X125492Y77992D01*
X125274Y77903D01*
X125096Y77795D01*
X124957Y77667D01*
X124858Y77520D01*
X124799Y77352D01*
X124779Y77165D01*
Y81102D01*
X124799Y80915D01*
D02*
G37*
G36*
X36127Y77557D02*
X36142Y77390D01*
X36166Y77242D01*
X36201Y77114D01*
X36245Y77006D01*
X36299Y76917D01*
X36363Y76848D01*
X36437Y76799D01*
X36521Y76770D01*
X36614Y76760D01*
X34646D01*
X34739Y76770D01*
X34823Y76799D01*
X34897Y76848D01*
X34961Y76917D01*
X35015Y77006D01*
X35059Y77114D01*
X35094Y77242D01*
X35118Y77390D01*
X35133Y77557D01*
X35138Y77744D01*
X36122D01*
X36127Y77557D01*
D02*
G37*
G36*
X142126Y79134D02*
X138976Y75000D01*
X138957Y75598D01*
X138898Y76134D01*
X138799Y76606D01*
X138661Y77016D01*
X138484Y77362D01*
X138268Y77646D01*
X138012Y77866D01*
X137716Y78024D01*
X137382Y78118D01*
X137124Y78140D01*
X136172Y78150D01*
Y80118D01*
X137451Y80169D01*
X137716Y80244D01*
X138012Y80402D01*
X138268Y80622D01*
X138484Y80905D01*
X138661Y81252D01*
X138799Y81661D01*
X138898Y82134D01*
X138957Y82669D01*
X138976Y83268D01*
X142126Y79134D01*
D02*
G37*
G36*
X136166Y77500D02*
X137093Y77491D01*
X137265Y77476D01*
X137473Y77418D01*
X137643Y77327D01*
X137793Y77198D01*
X137933Y77014D01*
X138061Y76763D01*
X138171Y76436D01*
X138256Y76032D01*
X138308Y75552D01*
X138323Y75093D01*
X138041Y74863D01*
X138016Y74853D01*
X137834Y74819D01*
X137703Y74906D01*
X137008Y75044D01*
X136313Y74906D01*
X135788Y74555D01*
X135722Y74531D01*
X135676Y74488D01*
X135650Y74468D01*
X135621Y74450D01*
X135587Y74432D01*
X135547Y74416D01*
X135500Y74401D01*
X135444Y74389D01*
X135380Y74379D01*
X135307Y74373D01*
X135207Y74370D01*
X135145Y74342D01*
X125879D01*
X125403Y74400D01*
Y77057D01*
X125425Y77097D01*
X125437Y77207D01*
X125443Y77226D01*
X125454Y77242D01*
X125489Y77274D01*
X125567Y77321D01*
X125699Y77375D01*
X125887Y77425D01*
X126128Y77465D01*
X126420Y77491D01*
X126777Y77500D01*
X126818Y77519D01*
X136123D01*
X136166Y77500D01*
D02*
G37*
G36*
X95923Y75712D02*
X95926Y75592D01*
X95948Y75368D01*
X95968Y75264D01*
X95993Y75165D01*
X96023Y75072D01*
X96060Y74983D01*
X96101Y74900D01*
X96149Y74822D01*
X96201Y74749D01*
X94561Y74956D01*
X94630Y75015D01*
X94691Y75080D01*
X94746Y75152D01*
X94793Y75232D01*
X94833Y75318D01*
X94865Y75411D01*
X94891Y75511D01*
X94909Y75617D01*
X94920Y75731D01*
X94923Y75852D01*
X95923Y75712D01*
D02*
G37*
G36*
X78740Y73819D02*
X77557D01*
X77289Y74319D01*
X77303Y74339D01*
X77395Y74803D01*
X77303Y75268D01*
X77039Y75661D01*
X76646Y75924D01*
X76181Y76017D01*
X71063D01*
X70599Y75924D01*
X70205Y75661D01*
X69942Y75268D01*
X69849Y74803D01*
X69942Y74339D01*
X69955Y74319D01*
X69687Y73819D01*
X62992D01*
X62992Y84646D01*
X78740Y84646D01*
X78740Y73819D01*
D02*
G37*
G36*
X146490Y74141D02*
X146408Y74054D01*
X146335Y73966D01*
X146270Y73878D01*
X146214Y73789D01*
X146167Y73700D01*
X146129Y73609D01*
X146099Y73518D01*
X146079Y73426D01*
X146066Y73334D01*
X146063Y73240D01*
X144894Y74409D01*
X144987Y74413D01*
X145080Y74425D01*
X145172Y74446D01*
X145263Y74476D01*
X145353Y74514D01*
X145443Y74561D01*
X145532Y74617D01*
X145620Y74681D01*
X145707Y74755D01*
X145794Y74837D01*
X146490Y74141D01*
D02*
G37*
G36*
X79836Y73591D02*
Y68945D01*
X79917Y68542D01*
X80145Y68200D01*
X82161Y66184D01*
X82502Y65956D01*
X82905Y65876D01*
X83815D01*
X84009Y65647D01*
X84033Y65597D01*
X84099Y65345D01*
X84022Y64961D01*
X84115Y64496D01*
X84378Y64102D01*
Y63850D01*
X84115Y63457D01*
X84022Y62992D01*
X84115Y62528D01*
X84378Y62134D01*
Y61882D01*
X84115Y61488D01*
X84101Y61417D01*
X77317D01*
X77303Y61488D01*
X77039Y61882D01*
X76646Y62145D01*
X76181Y62238D01*
X71063D01*
X70599Y62145D01*
X70205Y61882D01*
X69942Y61488D01*
X69927Y61417D01*
X62992D01*
X62992Y73169D01*
X69687D01*
X69778Y73207D01*
X69876Y73197D01*
X69999Y73299D01*
X70147Y73360D01*
X70154Y73377D01*
X70599Y73682D01*
X71063Y73589D01*
X76181D01*
X76646Y73682D01*
X77090Y73377D01*
X77097Y73360D01*
X77245Y73299D01*
X77368Y73197D01*
X77466Y73207D01*
X77557Y73169D01*
X78740D01*
X79199Y73360D01*
X79337Y73691D01*
X79836Y73591D01*
D02*
G37*
G36*
X136164Y72402D02*
X136096Y72465D01*
X136022Y72522D01*
X135942Y72572D01*
X135857Y72616D01*
X135766Y72653D01*
X135669Y72683D01*
X135567Y72706D01*
X135459Y72723D01*
X135345Y72733D01*
X135225Y72736D01*
Y73721D01*
X135345Y73724D01*
X135459Y73734D01*
X135567Y73751D01*
X135669Y73774D01*
X135766Y73804D01*
X135857Y73841D01*
X135942Y73884D01*
X136022Y73935D01*
X136096Y73992D01*
X136164Y74055D01*
Y72402D01*
D02*
G37*
G36*
X116226Y74119D02*
X116256Y74035D01*
X116306Y73962D01*
X116376Y73898D01*
X116465Y73843D01*
X116575Y73799D01*
X116704Y73765D01*
X116854Y73740D01*
X117023Y73725D01*
X117212Y73721D01*
Y72736D01*
X117023Y72731D01*
X116854Y72716D01*
X116704Y72692D01*
X116575Y72658D01*
X116465Y72613D01*
X116376Y72559D01*
X116306Y72495D01*
X116256Y72421D01*
X116226Y72338D01*
X116216Y72244D01*
Y74213D01*
X116226Y74119D01*
D02*
G37*
G36*
X94302Y75978D02*
X94280Y75941D01*
X94289Y75905D01*
X94274Y75871D01*
X94271Y75772D01*
X94265Y75703D01*
X94255Y75645D01*
X94243Y75599D01*
X94230Y75562D01*
X94217Y75535D01*
X94205Y75514D01*
X94194Y75499D01*
X94182Y75486D01*
X94140Y75451D01*
X94100Y75372D01*
X93992Y75300D01*
X93598Y74711D01*
X93460Y74016D01*
X93598Y73321D01*
X93992Y72732D01*
X94357Y72488D01*
X94205Y71988D01*
X91822D01*
X91585Y72250D01*
X91505Y72517D01*
X91568Y72835D01*
X91476Y73299D01*
X91213Y73693D01*
Y73945D01*
X91476Y74339D01*
X91568Y74803D01*
X91476Y75268D01*
X91213Y75661D01*
X90819Y75924D01*
X90354Y76017D01*
X85236D01*
X84772Y75924D01*
X84378Y75661D01*
X84231Y75441D01*
X83731Y75592D01*
Y82589D01*
X84157Y83016D01*
X84193Y83069D01*
D01*
X84716Y83592D01*
X85821D01*
X86224Y83672D01*
X86566Y83901D01*
X90115Y87450D01*
X90343Y87792D01*
X90344Y87795D01*
X90423Y88195D01*
Y121447D01*
X94302D01*
Y75978D01*
D02*
G37*
G36*
X90603Y71403D02*
X90644Y71395D01*
X90704Y71388D01*
X90997Y71373D01*
X91647Y71366D01*
Y70366D01*
X90580Y70321D01*
Y71411D01*
X90603Y71403D01*
D02*
G37*
G36*
X47451Y71264D02*
X47284Y71205D01*
X47136Y71106D01*
X47008Y70967D01*
X46900Y70789D01*
X46811Y70571D01*
X46742Y70313D01*
X46693Y70016D01*
X46663Y69680D01*
X46654Y69303D01*
X44685D01*
X44675Y69680D01*
X44646Y70016D01*
X44596Y70313D01*
X44528Y70571D01*
X44439Y70789D01*
X44331Y70967D01*
X44203Y71106D01*
X44055Y71205D01*
X43888Y71264D01*
X43701Y71284D01*
X47638D01*
X47451Y71264D01*
D02*
G37*
G36*
X85010Y68353D02*
X84970Y68374D01*
X84916Y68393D01*
X84847Y68410D01*
X84765Y68424D01*
X84558Y68447D01*
X84295Y68460D01*
X83977Y68464D01*
Y69331D01*
X84143Y69332D01*
X84765Y69371D01*
X84847Y69385D01*
X84916Y69402D01*
X84970Y69421D01*
X85010Y69443D01*
Y68353D01*
D02*
G37*
G36*
X120083Y67532D02*
X120068Y67532D01*
X120039Y67517D01*
X119995Y67487D01*
X119938Y67440D01*
X119684Y67208D01*
X119303Y66836D01*
X118607Y67532D01*
X118747Y67672D01*
X119304Y68296D01*
X119303Y68312D01*
X120083Y67532D01*
D02*
G37*
G36*
X85010Y66384D02*
X84970Y66405D01*
X84916Y66424D01*
X84847Y66441D01*
X84765Y66456D01*
X84558Y66478D01*
X84295Y66492D01*
X83977Y66496D01*
Y67362D01*
X84143Y67363D01*
X84765Y67402D01*
X84847Y67417D01*
X84916Y67434D01*
X84970Y67453D01*
X85010Y67474D01*
Y66384D01*
D02*
G37*
G36*
X112918Y66180D02*
X112908Y66273D01*
X112878Y66357D01*
X112828Y66430D01*
X112758Y66495D01*
X112669Y66549D01*
X112559Y66593D01*
X112429Y66627D01*
X112280Y66652D01*
X112111Y66667D01*
X111922Y66672D01*
Y67656D01*
X112111Y67661D01*
X112280Y67676D01*
X112429Y67700D01*
X112559Y67735D01*
X112669Y67779D01*
X112758Y67833D01*
X112828Y67897D01*
X112878Y67971D01*
X112908Y68054D01*
X112918Y68148D01*
Y66180D01*
D02*
G37*
G36*
X109730Y68054D02*
X109760Y67971D01*
X109810Y67897D01*
X109880Y67833D01*
X109969Y67779D01*
X110079Y67735D01*
X110208Y67700D01*
X110358Y67676D01*
X110527Y67661D01*
X110716Y67656D01*
Y66672D01*
X110527Y66667D01*
X110358Y66652D01*
X110208Y66627D01*
X110079Y66593D01*
X109969Y66549D01*
X109880Y66495D01*
X109810Y66430D01*
X109760Y66357D01*
X109730Y66273D01*
X109720Y66180D01*
Y68148D01*
X109730Y68054D01*
D02*
G37*
G36*
X116226Y68032D02*
X116256Y67949D01*
X116306Y67875D01*
X116376Y67811D01*
X116465Y67757D01*
X116575Y67713D01*
X116704Y67678D01*
X116854Y67654D01*
X117023Y67639D01*
X117212Y67634D01*
Y66650D01*
X117023Y66645D01*
X116854Y66630D01*
X116704Y66605D01*
X116575Y66571D01*
X116465Y66527D01*
X116376Y66472D01*
X116306Y66408D01*
X116256Y66335D01*
X116226Y66251D01*
X116216Y66158D01*
Y68126D01*
X116226Y68032D01*
D02*
G37*
G36*
X114957Y65494D02*
X114883Y65468D01*
X114819Y65425D01*
X114762Y65364D01*
X114715Y65286D01*
X114676Y65191D01*
X114645Y65078D01*
X114624Y64948D01*
X114611Y64801D01*
X114606Y64636D01*
X113740D01*
X113736Y64801D01*
X113723Y64948D01*
X113701Y65078D01*
X113671Y65191D01*
X113632Y65286D01*
X113584Y65364D01*
X113528Y65425D01*
X113463Y65468D01*
X113389Y65494D01*
X113307Y65503D01*
X115039D01*
X114957Y65494D01*
D02*
G37*
G36*
X90603Y65497D02*
X90644Y65489D01*
X90704Y65483D01*
X90997Y65468D01*
X91647Y65461D01*
Y64461D01*
X90580Y64416D01*
Y65506D01*
X90603Y65497D01*
D02*
G37*
G36*
X90594Y63534D02*
X90628Y63532D01*
X90953Y63524D01*
X91587Y63522D01*
X91700Y62538D01*
X91511Y62537D01*
X90668Y62480D01*
X90616Y62464D01*
X90580Y62447D01*
Y63537D01*
X90594Y63534D01*
D02*
G37*
G36*
X114611Y60727D02*
X114624Y60577D01*
X114645Y60446D01*
X114676Y60331D01*
X114715Y60235D01*
X114762Y60156D01*
X114819Y60094D01*
X114883Y60050D01*
X114957Y60024D01*
X115039Y60015D01*
X113307D01*
X113389Y60024D01*
X113463Y60050D01*
X113528Y60094D01*
X113584Y60156D01*
X113632Y60235D01*
X113671Y60331D01*
X113701Y60446D01*
X113723Y60577D01*
X113736Y60727D01*
X113740Y60893D01*
X114606D01*
X114611Y60727D01*
D02*
G37*
G36*
X96983Y59872D02*
X96895Y59886D01*
X96808Y59890D01*
X96720Y59883D01*
X96632Y59865D01*
X96544Y59836D01*
X96456Y59796D01*
X96368Y59746D01*
X96280Y59684D01*
X96192Y59612D01*
X96104Y59529D01*
X95568Y60407D01*
X95651Y60494D01*
X95796Y60666D01*
X95859Y60752D01*
X95914Y60838D01*
X95962Y60923D01*
X96004Y61008D01*
X96039Y61093D01*
X96066Y61177D01*
X96087Y61262D01*
X96983Y59872D01*
D02*
G37*
G36*
X93706Y59725D02*
X93636Y59697D01*
X93563Y59663D01*
X93489Y59622D01*
X93335Y59521D01*
X93255Y59462D01*
X93090Y59324D01*
X92918Y59160D01*
X91910Y59566D01*
X91993Y59655D01*
X92065Y59743D01*
X92124Y59831D01*
X92172Y59917D01*
X92207Y60002D01*
X92230Y60087D01*
X92242Y60170D01*
X92241Y60253D01*
X92228Y60335D01*
X92204Y60415D01*
X93706Y59725D01*
D02*
G37*
G36*
X90593Y59598D02*
X90626Y59596D01*
X91596Y59590D01*
X91699Y58590D01*
X91508Y58589D01*
X90663Y58539D01*
X90613Y58525D01*
X90580Y58510D01*
Y59600D01*
X90593Y59598D01*
D02*
G37*
G36*
X112229Y57402D02*
X112220Y57484D01*
X112194Y57557D01*
X112150Y57622D01*
X112088Y57679D01*
X112009Y57726D01*
X111913Y57765D01*
X111798Y57796D01*
X111667Y57817D01*
X111517Y57830D01*
X111351Y57835D01*
Y58701D01*
X111517Y58705D01*
X111667Y58718D01*
X111798Y58740D01*
X111913Y58770D01*
X112009Y58809D01*
X112088Y58857D01*
X112150Y58913D01*
X112194Y58978D01*
X112220Y59052D01*
X112229Y59134D01*
Y57402D01*
D02*
G37*
G36*
X90603Y57623D02*
X90644Y57615D01*
X90704Y57609D01*
X90997Y57594D01*
X91647Y57587D01*
Y56587D01*
X90580Y56542D01*
Y57632D01*
X90603Y57623D01*
D02*
G37*
G36*
X105990Y55826D02*
X106020Y55741D01*
X106071Y55666D01*
X106142Y55601D01*
X106233Y55546D01*
X106344Y55501D01*
X106476Y55466D01*
X106628Y55441D01*
X106800Y55426D01*
X106992Y55421D01*
Y54421D01*
X106800Y54416D01*
X106628Y54401D01*
X106476Y54376D01*
X106344Y54341D01*
X106233Y54296D01*
X106142Y54241D01*
X106071Y54176D01*
X106020Y54101D01*
X105990Y54016D01*
X105980Y53921D01*
Y55921D01*
X105990Y55826D01*
D02*
G37*
G36*
X90603Y49749D02*
X90644Y49741D01*
X90704Y49735D01*
X90997Y49720D01*
X91647Y49713D01*
Y48713D01*
X90580Y48668D01*
Y49758D01*
X90603Y49749D01*
D02*
G37*
G36*
X102682Y48213D02*
X102671Y48308D01*
X102641Y48393D01*
X102590Y48468D01*
X102520Y48533D01*
X102428Y48588D01*
X102317Y48633D01*
X102186Y48668D01*
X102034Y48693D01*
X101862Y48708D01*
X101670Y48713D01*
Y49713D01*
X101862Y49718D01*
X102034Y49733D01*
X102186Y49758D01*
X102317Y49793D01*
X102428Y49838D01*
X102520Y49893D01*
X102590Y49958D01*
X102641Y50033D01*
X102671Y50118D01*
X102682Y50213D01*
Y48213D01*
D02*
G37*
G36*
X100085Y50118D02*
X100115Y50033D01*
X100165Y49958D01*
X100236Y49893D01*
X100327Y49838D01*
X100439Y49793D01*
X100570Y49758D01*
X100722Y49733D01*
X100894Y49718D01*
X101086Y49713D01*
Y48713D01*
X100894Y48708D01*
X100722Y48693D01*
X100570Y48668D01*
X100439Y48633D01*
X100327Y48588D01*
X100236Y48533D01*
X100165Y48468D01*
X100115Y48393D01*
X100085Y48308D01*
X100074Y48213D01*
Y50213D01*
X100085Y50118D01*
D02*
G37*
G36*
X96185Y48213D02*
X96175Y48308D01*
X96145Y48393D01*
X96094Y48468D01*
X96023Y48533D01*
X95932Y48588D01*
X95821Y48633D01*
X95689Y48668D01*
X95538Y48693D01*
X95366Y48708D01*
X95173Y48713D01*
Y49713D01*
X95366Y49718D01*
X95538Y49733D01*
X95689Y49758D01*
X95821Y49793D01*
X95932Y49838D01*
X96023Y49893D01*
X96094Y49958D01*
X96145Y50033D01*
X96175Y50118D01*
X96185Y50213D01*
Y48213D01*
D02*
G37*
G36*
X90603Y47780D02*
X90644Y47773D01*
X90704Y47766D01*
X90997Y47751D01*
X91647Y47744D01*
Y46744D01*
X90580Y46699D01*
Y47789D01*
X90603Y47780D01*
D02*
G37*
G36*
X102058Y57195D02*
Y52648D01*
X106604D01*
Y53738D01*
X106612Y53741D01*
X106709Y53756D01*
X106836Y53768D01*
X107009Y53772D01*
X107071Y53800D01*
X107414D01*
X109526Y51688D01*
Y41374D01*
X109026Y41193D01*
X107896Y42323D01*
X107535Y42564D01*
X107109Y42649D01*
X107056D01*
X106993Y42677D01*
X106824Y42681D01*
X106699Y42692D01*
X106605Y42707D01*
X106604Y42708D01*
Y43809D01*
X102058D01*
Y42718D01*
X102049Y42716D01*
X101953Y42700D01*
X101825Y42689D01*
X101653Y42685D01*
X101590Y42657D01*
X99038D01*
X95649Y46046D01*
X95856Y46546D01*
X100698D01*
Y48030D01*
X100707Y48032D01*
X100803Y48048D01*
X100931Y48059D01*
X101103Y48063D01*
X101165Y48091D01*
X101590D01*
X101653Y48063D01*
X101825Y48059D01*
X101953Y48048D01*
X102049Y48032D01*
X102058Y48030D01*
Y46546D01*
X106604D01*
Y51092D01*
X102058D01*
Y50396D01*
X102049Y50393D01*
X101953Y50377D01*
X101825Y50366D01*
X101653Y50362D01*
X101590Y50334D01*
X101165D01*
X101103Y50362D01*
X100931Y50366D01*
X100803Y50377D01*
X100707Y50393D01*
X100698Y50396D01*
Y51289D01*
X95561D01*
Y50396D01*
X95553Y50393D01*
X95457Y50377D01*
X95329Y50366D01*
X95157Y50362D01*
X95094Y50334D01*
X91822D01*
X91585Y50596D01*
X91505Y50864D01*
X91568Y51181D01*
X91476Y51646D01*
X91459Y51671D01*
X91626Y52214D01*
X91967Y52442D01*
X96739Y57214D01*
X101566D01*
X102058Y57195D01*
D02*
G37*
G36*
X14988Y52128D02*
X15106Y51929D01*
X15303Y51754D01*
X15578Y51602D01*
X15933Y51473D01*
X16366Y51368D01*
X16878Y51286D01*
X17468Y51228D01*
X18886Y51181D01*
Y47244D01*
X18138Y47232D01*
X16878Y47139D01*
X16366Y47057D01*
X15933Y46952D01*
X15578Y46823D01*
X15303Y46671D01*
X15106Y46496D01*
X14988Y46297D01*
X14949Y46075D01*
Y52350D01*
X14988Y52128D01*
D02*
G37*
G36*
X105990Y42426D02*
X106020Y42342D01*
X106070Y42269D01*
X106139Y42205D01*
X106229Y42151D01*
X106339Y42106D01*
X106468Y42072D01*
X106617Y42047D01*
X106787Y42033D01*
X106976Y42028D01*
Y41043D01*
X106787Y41038D01*
X106617Y41024D01*
X106468Y40999D01*
X106339Y40965D01*
X106229Y40920D01*
X106139Y40866D01*
X106070Y40802D01*
X106020Y40728D01*
X105990Y40645D01*
X105980Y40551D01*
Y42520D01*
X105990Y42426D01*
D02*
G37*
G36*
X102682Y40535D02*
X102671Y40630D01*
X102641Y40715D01*
X102590Y40790D01*
X102520Y40855D01*
X102428Y40910D01*
X102317Y40955D01*
X102186Y40990D01*
X102034Y41015D01*
X101862Y41030D01*
X101670Y41035D01*
Y42035D01*
X101862Y42040D01*
X102034Y42055D01*
X102186Y42080D01*
X102317Y42115D01*
X102428Y42160D01*
X102520Y42215D01*
X102590Y42280D01*
X102641Y42355D01*
X102671Y42440D01*
X102682Y42535D01*
Y40535D01*
D02*
G37*
G36*
X90616Y39898D02*
X90668Y39882D01*
X90738Y39869D01*
X90824Y39857D01*
X91048Y39839D01*
X91700Y39825D01*
X91587Y38840D01*
X90580Y38825D01*
Y39915D01*
X90616Y39898D01*
D02*
G37*
G36*
X42466Y39169D02*
X42480Y38999D01*
X42505Y38850D01*
X42539Y38721D01*
X42584Y38611D01*
X42638Y38521D01*
X42702Y38451D01*
X42776Y38402D01*
X42859Y38372D01*
X42953Y38362D01*
X40984D01*
X41078Y38372D01*
X41161Y38402D01*
X41235Y38451D01*
X41299Y38521D01*
X41353Y38611D01*
X41398Y38721D01*
X41432Y38850D01*
X41457Y38999D01*
X41471Y39169D01*
X41476Y39358D01*
X42461D01*
X42466Y39169D01*
D02*
G37*
G36*
X98536Y38001D02*
X98551Y37828D01*
X98576Y37677D01*
X98611Y37545D01*
X98656Y37434D01*
X98712Y37343D01*
X98777Y37272D01*
X98852Y37221D01*
X98936Y37191D01*
X99032Y37181D01*
X97031D01*
X97127Y37191D01*
X97211Y37221D01*
X97286Y37272D01*
X97351Y37343D01*
X97407Y37434D01*
X97452Y37545D01*
X97487Y37677D01*
X97512Y37828D01*
X97527Y38001D01*
X97531Y38193D01*
X98532D01*
X98536Y38001D01*
D02*
G37*
G36*
X102682Y34433D02*
X102671Y34528D01*
X102641Y34613D01*
X102590Y34688D01*
X102520Y34753D01*
X102428Y34808D01*
X102317Y34853D01*
X102186Y34888D01*
X102034Y34913D01*
X101862Y34928D01*
X101670Y34933D01*
Y35933D01*
X101862Y35938D01*
X102034Y35953D01*
X102186Y35978D01*
X102317Y36013D01*
X102428Y36058D01*
X102520Y36113D01*
X102590Y36178D01*
X102641Y36253D01*
X102671Y36338D01*
X102682Y36433D01*
Y34433D01*
D02*
G37*
G36*
X99986Y36338D02*
X100016Y36253D01*
X100067Y36178D01*
X100138Y36113D01*
X100229Y36058D01*
X100340Y36013D01*
X100472Y35978D01*
X100624Y35953D01*
X100796Y35938D01*
X100988Y35933D01*
Y34933D01*
X100796Y34928D01*
X100624Y34913D01*
X100472Y34888D01*
X100340Y34853D01*
X100229Y34808D01*
X100138Y34753D01*
X100067Y34688D01*
X100016Y34613D01*
X99986Y34528D01*
X99976Y34433D01*
Y36433D01*
X99986Y36338D01*
D02*
G37*
G36*
X88721Y34845D02*
X88637Y34815D01*
X88563Y34765D01*
X88499Y34696D01*
X88445Y34606D01*
X88401Y34497D01*
X88366Y34367D01*
X88342Y34218D01*
X88327Y34048D01*
X88322Y33859D01*
X87338D01*
X87333Y34048D01*
X87318Y34218D01*
X87293Y34367D01*
X87259Y34497D01*
X87215Y34606D01*
X87161Y34696D01*
X87097Y34765D01*
X87023Y34815D01*
X86939Y34845D01*
X86846Y34855D01*
X88814D01*
X88721Y34845D01*
D02*
G37*
G36*
X88325Y31191D02*
X88335Y31077D01*
X88352Y30969D01*
X88376Y30867D01*
X88406Y30770D01*
X88442Y30679D01*
X88486Y30593D01*
X88536Y30514D01*
X88593Y30439D01*
X88657Y30371D01*
X87003D01*
X87067Y30439D01*
X87124Y30514D01*
X87174Y30593D01*
X87217Y30679D01*
X87254Y30770D01*
X87284Y30867D01*
X87308Y30969D01*
X87324Y31077D01*
X87334Y31191D01*
X87338Y31310D01*
X88322D01*
X88325Y31191D01*
D02*
G37*
G36*
X108862Y28927D02*
X108872Y28813D01*
X108888Y28705D01*
X108912Y28603D01*
X108942Y28506D01*
X108979Y28415D01*
X109022Y28330D01*
X109072Y28250D01*
X109129Y28176D01*
X109193Y28107D01*
X107539D01*
X107603Y28176D01*
X107660Y28250D01*
X107710Y28330D01*
X107754Y28415D01*
X107790Y28506D01*
X107820Y28603D01*
X107844Y28705D01*
X107861Y28813D01*
X107871Y28927D01*
X107874Y29046D01*
X108858D01*
X108862Y28927D01*
D02*
G37*
G36*
X93340Y27684D02*
X93258Y27597D01*
X93185Y27510D01*
X93120Y27422D01*
X93065Y27332D01*
X93018Y27243D01*
X92979Y27152D01*
X92950Y27061D01*
X92929Y26969D01*
X92917Y26877D01*
X92913Y26783D01*
X91744Y27953D01*
X91837Y27956D01*
X91930Y27968D01*
X92022Y27989D01*
X92113Y28019D01*
X92203Y28057D01*
X92293Y28104D01*
X92382Y28160D01*
X92470Y28225D01*
X92558Y28298D01*
X92644Y28380D01*
X93340Y27684D01*
D02*
G37*
G36*
X96426Y38305D02*
X96219Y37805D01*
X95463D01*
Y33061D01*
X100600D01*
Y34250D01*
X100608Y34252D01*
X100705Y34268D01*
X100832Y34279D01*
X101005Y34284D01*
X101067Y34312D01*
X101590D01*
X101653Y34284D01*
X101825Y34279D01*
X101953Y34268D01*
X102049Y34252D01*
X102058Y34250D01*
Y33160D01*
X106604D01*
Y37706D01*
X102058D01*
Y36616D01*
X102049Y36614D01*
X101953Y36598D01*
X101825Y36587D01*
X101653Y36582D01*
X101590Y36555D01*
X101067D01*
X101005Y36582D01*
X100832Y36587D01*
X100705Y36598D01*
X100609Y36614D01*
X100600Y36616D01*
Y37805D01*
X99214D01*
X99212Y37813D01*
X99196Y37909D01*
X99185Y38037D01*
X99181Y38210D01*
X99153Y38272D01*
Y38286D01*
X99068Y38715D01*
X98825Y39079D01*
X98825Y39079D01*
X97727Y40177D01*
X98045Y40565D01*
X98144Y40499D01*
X98573Y40414D01*
X98573Y40414D01*
X101590D01*
X101653Y40386D01*
X101825Y40382D01*
X101953Y40371D01*
X102049Y40355D01*
X102058Y40352D01*
Y39262D01*
X106604D01*
Y39319D01*
X107104Y39586D01*
X107253Y39486D01*
Y29126D01*
X107225Y29064D01*
X107222Y28964D01*
X107216Y28892D01*
X107206Y28827D01*
X107193Y28772D01*
X107178Y28725D01*
X107162Y28684D01*
X107145Y28651D01*
X107126Y28621D01*
X107106Y28595D01*
X107064Y28549D01*
X107039Y28484D01*
X106688Y27959D01*
X106550Y27264D01*
X106688Y26569D01*
X106994Y26112D01*
X106801Y25612D01*
X93630D01*
X93423Y26000D01*
X93417Y26112D01*
X93533Y26696D01*
X93562Y26760D01*
X93564Y26823D01*
X93569Y26855D01*
X93576Y26888D01*
X93588Y26925D01*
X93605Y26965D01*
X93628Y27008D01*
X93658Y27057D01*
X93697Y27109D01*
X93744Y27165D01*
X93812Y27238D01*
X93837Y27301D01*
X94488Y27953D01*
X94730Y28314D01*
X94814Y28740D01*
Y37795D01*
X94730Y38221D01*
X94488Y38583D01*
X94488Y38583D01*
X92951Y40120D01*
X92590Y40361D01*
X92164Y40446D01*
X91817D01*
X91798Y40456D01*
X91739Y40502D01*
X91681Y40557D01*
X91673Y40569D01*
X91497Y40979D01*
X91568Y41339D01*
X91476Y41803D01*
X91213Y42197D01*
Y42449D01*
X91358Y42666D01*
X91937Y42794D01*
X96426Y38305D01*
D02*
G37*
G36*
X90889Y21220D02*
X90820Y21284D01*
X90746Y21341D01*
X90666Y21391D01*
X90581Y21435D01*
X90490Y21471D01*
X90393Y21501D01*
X90291Y21525D01*
X90183Y21542D01*
X90069Y21552D01*
X89950Y21555D01*
Y22539D01*
X90069Y22543D01*
X90183Y22553D01*
X90291Y22569D01*
X90393Y22593D01*
X90490Y22623D01*
X90581Y22660D01*
X90666Y22703D01*
X90746Y22753D01*
X90820Y22810D01*
X90889Y22874D01*
Y21220D01*
D02*
G37*
G36*
X88558Y18773D02*
X88502Y18699D01*
X88451Y18619D01*
X88408Y18534D01*
X88371Y18443D01*
X88341Y18346D01*
X88317Y18244D01*
X88301Y18136D01*
X88291Y18022D01*
X88287Y17903D01*
X87303D01*
X87300Y18022D01*
X87290Y18136D01*
X87273Y18244D01*
X87249Y18346D01*
X87219Y18443D01*
X87183Y18534D01*
X87139Y18619D01*
X87089Y18699D01*
X87032Y18773D01*
X86968Y18842D01*
X88622D01*
X88558Y18773D01*
D02*
G37*
G36*
X89591Y15933D02*
X89585Y15954D01*
X89566Y15973D01*
X89536Y15989D01*
X89493Y16004D01*
X89437Y16016D01*
X89370Y16026D01*
X89198Y16039D01*
X88976Y16043D01*
Y17028D01*
X89093Y17029D01*
X89437Y17055D01*
X89493Y17067D01*
X89536Y17082D01*
X89566Y17098D01*
X89585Y17117D01*
X89591Y17138D01*
Y15933D01*
D02*
G37*
G36*
X92229Y14581D02*
X92146Y14551D01*
X92072Y14501D01*
X92008Y14432D01*
X91954Y14342D01*
X91909Y14232D01*
X91875Y14103D01*
X91850Y13953D01*
X91836Y13784D01*
X91831Y13595D01*
X90847D01*
X90842Y13784D01*
X90827Y13953D01*
X90802Y14103D01*
X90768Y14232D01*
X90723Y14342D01*
X90669Y14432D01*
X90605Y14501D01*
X90531Y14551D01*
X90448Y14581D01*
X90354Y14591D01*
X92323D01*
X92229Y14581D01*
D02*
G37*
G36*
X91836Y12692D02*
X91850Y12523D01*
X91875Y12374D01*
X91909Y12244D01*
X91954Y12134D01*
X92008Y12045D01*
X92072Y11975D01*
X92146Y11925D01*
X92229Y11895D01*
X92323Y11885D01*
X90354D01*
X90448Y11895D01*
X90531Y11925D01*
X90605Y11975D01*
X90669Y12045D01*
X90723Y12134D01*
X90768Y12244D01*
X90802Y12374D01*
X90827Y12523D01*
X90842Y12692D01*
X90847Y12882D01*
X91831D01*
X91836Y12692D01*
D02*
G37*
G36*
X99100Y11127D02*
X99130Y11043D01*
X99180Y10970D01*
X99250Y10905D01*
X99339Y10851D01*
X99449Y10807D01*
X99578Y10773D01*
X99728Y10748D01*
X99897Y10733D01*
X100086Y10728D01*
Y9744D01*
X99897Y9739D01*
X99728Y9724D01*
X99578Y9700D01*
X99449Y9665D01*
X99339Y9621D01*
X99250Y9567D01*
X99180Y9503D01*
X99130Y9429D01*
X99100Y9346D01*
X99090Y9252D01*
Y11220D01*
X99100Y11127D01*
D02*
G37*
%LPC*%
G36*
X56210Y204931D02*
X49302D01*
Y202238D01*
X48920Y201931D01*
X48894Y201917D01*
X48822Y201909D01*
X48016D01*
X47954Y201937D01*
X47781Y201941D01*
X47654Y201952D01*
X47557Y201968D01*
X47549Y201970D01*
Y203061D01*
X43002D01*
Y198514D01*
X45881D01*
X46072Y198052D01*
X45664Y197643D01*
X45421Y197280D01*
X45335Y196850D01*
X45335Y196850D01*
Y190157D01*
X45335Y190157D01*
X45421Y189728D01*
X45664Y189364D01*
X48878Y186150D01*
Y182662D01*
X48851Y182599D01*
X48846Y182427D01*
X48835Y182299D01*
X48819Y182203D01*
X48817Y182194D01*
X47727D01*
Y177648D01*
X48817D01*
X48819Y177640D01*
X48835Y177543D01*
X48846Y177416D01*
X48851Y177243D01*
X48878Y177181D01*
Y176362D01*
X48851Y176300D01*
X48846Y176128D01*
X48835Y176000D01*
X48819Y175904D01*
X48817Y175895D01*
X47727D01*
Y171349D01*
X48828D01*
X48828Y171348D01*
X48843Y171254D01*
X48854Y171129D01*
X48859Y170960D01*
X48886Y170897D01*
Y163257D01*
X48859Y163194D01*
X48854Y163027D01*
X48844Y162905D01*
X48828Y162813D01*
X48826Y162805D01*
X48022D01*
Y158455D01*
X51978D01*
Y162805D01*
X51174D01*
X51172Y162813D01*
X51157Y162905D01*
X51146Y163027D01*
X51141Y163194D01*
X51113Y163257D01*
Y170897D01*
X51141Y170960D01*
X51146Y171129D01*
X51157Y171254D01*
X51172Y171348D01*
X51172Y171349D01*
X52273D01*
Y175895D01*
X51183D01*
X51181Y175904D01*
X51165Y176000D01*
X51154Y176128D01*
X51149Y176300D01*
X51122Y176362D01*
Y177181D01*
X51149Y177243D01*
X51154Y177416D01*
X51165Y177543D01*
X51181Y177640D01*
X51183Y177648D01*
X52273D01*
Y182194D01*
X51183D01*
X51181Y182203D01*
X51165Y182299D01*
X51154Y182427D01*
X51149Y182599D01*
X51122Y182662D01*
Y186614D01*
X51122Y186614D01*
X51036Y187043D01*
X50793Y187407D01*
X50793Y187407D01*
X47578Y190622D01*
Y196386D01*
X48127Y196935D01*
X48275Y197034D01*
X48447Y197205D01*
X48995D01*
X49058Y197177D01*
X49213Y197175D01*
X49495Y197152D01*
X49605Y197135D01*
X49712Y197114D01*
X49807Y197088D01*
X49892Y197060D01*
X49966Y197029D01*
X50030Y196997D01*
X50109Y196949D01*
X50195Y196935D01*
X50208Y196927D01*
X50328Y196903D01*
X50446Y196854D01*
X50488Y196871D01*
X50787Y196812D01*
X54724D01*
X55304Y196927D01*
X55796Y197256D01*
X56124Y197747D01*
X56239Y198327D01*
X56124Y198907D01*
X55881Y199270D01*
X55828Y199606D01*
X55881Y199942D01*
X56124Y200306D01*
X56239Y200886D01*
X56124Y201466D01*
X56210Y201959D01*
X56210D01*
X56210Y201959D01*
Y204931D01*
D02*
G37*
G36*
X9843Y212636D02*
X8683Y212522D01*
X7568Y212184D01*
X6540Y211635D01*
X5640Y210896D01*
X4901Y209995D01*
X4351Y208967D01*
X4013Y207852D01*
X3899Y206693D01*
X4013Y205533D01*
X4351Y204418D01*
X4901Y203391D01*
X5640Y202490D01*
X6540Y201751D01*
X7568Y201202D01*
X8683Y200864D01*
X9843Y200749D01*
X11002Y200864D01*
X12117Y201202D01*
X13145Y201751D01*
X14045Y202490D01*
X14784Y203391D01*
X15334Y204418D01*
X15672Y205533D01*
X15786Y206693D01*
X15672Y207852D01*
X15334Y208967D01*
X14784Y209995D01*
X14045Y210896D01*
X13145Y211635D01*
X12117Y212184D01*
X11002Y212522D01*
X9843Y212636D01*
D02*
G37*
G36*
X38395Y210935D02*
X33849D01*
Y206388D01*
X38395D01*
Y207478D01*
X38404Y207481D01*
X38500Y207497D01*
X38628Y207508D01*
X38800Y207512D01*
X38862Y207540D01*
X39102D01*
X40545Y206097D01*
X40545Y206097D01*
X40909Y205854D01*
X41339Y205768D01*
X41339Y205768D01*
X42535D01*
X42597Y205740D01*
X42770Y205736D01*
X42898Y205725D01*
X42994Y205709D01*
X43002Y205707D01*
Y204616D01*
X47549D01*
Y205707D01*
X47557Y205709D01*
X47654Y205725D01*
X47781Y205736D01*
X47954Y205740D01*
X48016Y205768D01*
X56819D01*
X57540Y205047D01*
Y195346D01*
X53538Y191344D01*
X53294Y190980D01*
X53238Y190697D01*
X53182Y190571D01*
X53178Y190462D01*
X52057D01*
Y185916D01*
X56604D01*
Y190462D01*
X56481D01*
X56290Y190924D01*
X59454Y194089D01*
X59455Y194089D01*
X59698Y194453D01*
X59783Y194882D01*
X59783Y194882D01*
Y205512D01*
X59783Y205512D01*
X59698Y205941D01*
X59455Y206305D01*
X59454Y206305D01*
X58077Y207683D01*
X57713Y207926D01*
X57284Y208011D01*
X57283Y208011D01*
X48016D01*
X47954Y208039D01*
X47781Y208044D01*
X47654Y208055D01*
X47557Y208070D01*
X47549Y208073D01*
Y209163D01*
X43002D01*
Y208073D01*
X42994Y208070D01*
X42898Y208055D01*
X42770Y208044D01*
X42597Y208039D01*
X42535Y208011D01*
X41803D01*
X40360Y209454D01*
X39996Y209698D01*
X39567Y209783D01*
X39567Y209783D01*
X38862D01*
X38800Y209811D01*
X38628Y209815D01*
X38500Y209826D01*
X38404Y209842D01*
X38395Y209844D01*
Y210935D01*
D02*
G37*
G36*
X34852Y185442D02*
X30502D01*
Y180699D01*
X32324D01*
X32378Y180573D01*
X32436Y180282D01*
X32677Y179921D01*
X33465Y179134D01*
X33826Y178893D01*
X34252Y178808D01*
X41173D01*
X41235Y178780D01*
X41402Y178776D01*
X41524Y178765D01*
X41616Y178750D01*
X41624Y178747D01*
Y177648D01*
X46171D01*
Y182194D01*
X41624D01*
Y181095D01*
X41616Y181093D01*
X41524Y181078D01*
X41402Y181067D01*
X41235Y181063D01*
X41173Y181035D01*
X34852D01*
Y185442D01*
D02*
G37*
G36*
X14291Y178400D02*
X12953Y178224D01*
X11705Y177707D01*
X10634Y176885D01*
X9812Y175814D01*
X9296Y174567D01*
X9120Y173228D01*
X9296Y171890D01*
X9812Y170642D01*
X10634Y169571D01*
X11705Y168749D01*
X12953Y168233D01*
X14291Y168056D01*
X15630Y168233D01*
X16877Y168749D01*
X17948Y169571D01*
X18770Y170642D01*
X19287Y171890D01*
X19463Y173228D01*
X19287Y174567D01*
X18770Y175814D01*
X17948Y176885D01*
X16877Y177707D01*
X15630Y178224D01*
X14291Y178400D01*
D02*
G37*
G36*
X43433Y153706D02*
X33733D01*
Y152667D01*
X33711Y152627D01*
X33689Y152423D01*
X33653Y152321D01*
X33593Y152231D01*
X33489Y152135D01*
X33322Y152034D01*
X33082Y151936D01*
X32766Y151851D01*
X32377Y151786D01*
X31918Y151746D01*
X31375Y151732D01*
X31356Y151723D01*
X16517D01*
X16497Y151732D01*
X16181Y151739D01*
X15902Y151758D01*
X15647Y151790D01*
X15417Y151833D01*
X15211Y151887D01*
X15029Y151950D01*
X14871Y152020D01*
X14736Y152097D01*
X14622Y152179D01*
X14496Y152292D01*
X14447Y152310D01*
X13702Y152882D01*
X12790Y153259D01*
X11811Y153388D01*
X10832Y153259D01*
X9920Y152882D01*
X9137Y152281D01*
X8536Y151497D01*
X8158Y150585D01*
X8029Y149606D01*
X8158Y148627D01*
X8536Y147715D01*
X9137Y146932D01*
X9920Y146331D01*
X10832Y145953D01*
X11811Y145824D01*
X12790Y145953D01*
X13702Y146331D01*
X14447Y146903D01*
X14496Y146920D01*
X14622Y147034D01*
X14736Y147116D01*
X14871Y147193D01*
X15029Y147263D01*
X15211Y147326D01*
X15417Y147379D01*
X15638Y147421D01*
X16190Y147474D01*
X16497Y147481D01*
X16517Y147489D01*
X31356D01*
X31375Y147481D01*
X31918Y147467D01*
X32377Y147426D01*
X32766Y147362D01*
X33082Y147277D01*
X33322Y147179D01*
X33489Y147078D01*
X33593Y146982D01*
X33653Y146891D01*
X33689Y146790D01*
X33711Y146585D01*
X33733Y146545D01*
Y145506D01*
X43433D01*
Y148422D01*
X43449Y148426D01*
X43543Y148442D01*
X43668Y148453D01*
X43838Y148457D01*
X43900Y148485D01*
X47555D01*
X47617Y148457D01*
X47790Y148453D01*
X47917Y148442D01*
X48014Y148426D01*
X48022Y148423D01*
Y147432D01*
X51978D01*
Y151781D01*
X48022D01*
Y150789D01*
X48014Y150787D01*
X47917Y150771D01*
X47790Y150760D01*
X47617Y150756D01*
X47555Y150728D01*
X43900D01*
X43838Y150756D01*
X43668Y150760D01*
X43543Y150771D01*
X43449Y150787D01*
X43433Y150791D01*
Y153706D01*
D02*
G37*
G36*
X41895Y140677D02*
X33695D01*
Y138888D01*
X33673Y138848D01*
X33652Y138644D01*
X33616Y138542D01*
X33555Y138451D01*
X33452Y138356D01*
X33285Y138254D01*
X33044Y138156D01*
X32729Y138072D01*
X32340Y138007D01*
X31881Y137967D01*
X31337Y137952D01*
X31318Y137944D01*
X17938D01*
X17918Y137952D01*
X17375Y137967D01*
X16916Y138007D01*
X16527Y138072D01*
X16211Y138156D01*
X15971Y138254D01*
X15804Y138356D01*
X15701Y138451D01*
X15640Y138542D01*
X15604Y138644D01*
X15583Y138848D01*
X15561Y138888D01*
Y139576D01*
X8061D01*
Y132077D01*
X15561D01*
Y132766D01*
X15583Y132806D01*
X15604Y133010D01*
X15640Y133112D01*
X15701Y133202D01*
X15804Y133298D01*
X15971Y133399D01*
X16211Y133497D01*
X16527Y133582D01*
X16916Y133647D01*
X17375Y133687D01*
X17918Y133701D01*
X17938Y133710D01*
X31318D01*
X31337Y133701D01*
X31881Y133687D01*
X32340Y133647D01*
X32729Y133582D01*
X33044Y133497D01*
X33285Y133399D01*
X33452Y133298D01*
X33555Y133202D01*
X33616Y133112D01*
X33652Y133010D01*
X33673Y132806D01*
X33695Y132766D01*
Y130977D01*
X37410D01*
X37411Y130976D01*
X37426Y130882D01*
X37437Y130757D01*
X37441Y130588D01*
X37469Y130525D01*
Y129201D01*
X35039Y126772D01*
X34798Y126410D01*
X34713Y125984D01*
Y116686D01*
X34698Y116663D01*
X34713Y116585D01*
Y116486D01*
X34698Y116408D01*
X34713Y116385D01*
Y113026D01*
X34712Y113024D01*
X34713Y113010D01*
Y112925D01*
X34686Y112864D01*
X34673Y112531D01*
X34661Y112417D01*
X34644Y112317D01*
X34626Y112240D01*
X34608Y112187D01*
X34598Y112164D01*
X34588Y112156D01*
X34579Y112138D01*
X34569Y112127D01*
X34563Y112109D01*
X34543Y112071D01*
X34230Y111603D01*
X34115Y111024D01*
Y107087D01*
X34230Y106507D01*
X34559Y106015D01*
X35050Y105687D01*
X35630Y105572D01*
X36210Y105687D01*
X36573Y105930D01*
X36909Y105983D01*
X37246Y105930D01*
X37609Y105687D01*
X38189Y105572D01*
X38769Y105687D01*
X39259Y105601D01*
X39391Y105501D01*
X39400Y105375D01*
X39402Y105207D01*
X39430Y105141D01*
Y99677D01*
X38709Y98956D01*
X28425D01*
X28363Y98984D01*
X28191Y98988D01*
X28063Y99000D01*
X27967Y99015D01*
X27958Y99018D01*
Y100108D01*
X23412D01*
Y95561D01*
X27958D01*
Y96652D01*
X27967Y96654D01*
X28063Y96670D01*
X28191Y96681D01*
X28363Y96685D01*
X28425Y96713D01*
X39173D01*
X39173Y96713D01*
X39603Y96798D01*
X39966Y97042D01*
X41344Y98419D01*
X41344Y98420D01*
X41587Y98783D01*
X41673Y99213D01*
Y105134D01*
X41700Y105196D01*
X41705Y105366D01*
X41716Y105491D01*
X41732Y105585D01*
X41736Y105601D01*
X42234D01*
Y112510D01*
X39262D01*
X39262Y112510D01*
Y112510D01*
X38769Y112423D01*
X38189Y112539D01*
X37609Y112423D01*
X37474Y112333D01*
X37370Y112344D01*
X36986Y112545D01*
X36954Y112587D01*
X36940Y112621D01*
Y114909D01*
X36956Y114932D01*
X36955Y114934D01*
X37190Y115387D01*
X37337Y115395D01*
X37394Y115422D01*
X38811D01*
X38873Y115394D01*
X39042Y115390D01*
X39168Y115379D01*
X39261Y115363D01*
X39262Y115363D01*
Y114262D01*
X43809D01*
Y115363D01*
X43809Y115363D01*
X43903Y115379D01*
X44028Y115390D01*
X44198Y115394D01*
X44260Y115422D01*
X44913D01*
X44975Y115394D01*
X45145Y115390D01*
X45270Y115379D01*
X45364Y115363D01*
X45365Y115363D01*
Y114262D01*
X49911D01*
Y118809D01*
X45365D01*
Y117708D01*
X45364Y117708D01*
X45270Y117692D01*
X45145Y117681D01*
X44975Y117677D01*
X44913Y117649D01*
X44260D01*
X44198Y117677D01*
X44028Y117681D01*
X43903Y117692D01*
X43809Y117708D01*
X43809Y117708D01*
Y118809D01*
X39262D01*
Y117708D01*
X39261Y117708D01*
X39168Y117692D01*
X39042Y117681D01*
X38873Y117677D01*
X38811Y117649D01*
X37394D01*
X37337Y117676D01*
X37190Y117684D01*
X36955Y118137D01*
X36956Y118139D01*
X36940Y118162D01*
Y125523D01*
X39370Y127953D01*
X39370Y127953D01*
X39612Y128314D01*
X39696Y128740D01*
X39696Y128740D01*
Y130525D01*
X39724Y130588D01*
X39728Y130757D01*
X39739Y130882D01*
X39755Y130976D01*
X39755Y130977D01*
X41895D01*
Y140677D01*
D02*
G37*
G36*
X14291Y131156D02*
X12953Y130980D01*
X11705Y130463D01*
X10634Y129641D01*
X9812Y128570D01*
X9296Y127323D01*
X9120Y125984D01*
X9296Y124646D01*
X9812Y123398D01*
X10634Y122327D01*
X11705Y121505D01*
X12953Y120989D01*
X14291Y120812D01*
X15630Y120989D01*
X16877Y121505D01*
X17948Y122327D01*
X18770Y123398D01*
X19287Y124646D01*
X19463Y125984D01*
X19287Y127323D01*
X18770Y128570D01*
X17948Y129641D01*
X16877Y130463D01*
X15630Y130980D01*
X14291Y131156D01*
D02*
G37*
G36*
X49911Y124911D02*
X45365D01*
Y120365D01*
X49911D01*
Y121335D01*
X50374Y121432D01*
X50659Y121180D01*
X50676Y121135D01*
X50744Y121063D01*
X50791Y121007D01*
X50830Y120954D01*
X50860Y120906D01*
X50883Y120862D01*
X50900Y120823D01*
X50912Y120786D01*
X50919Y120753D01*
X50924Y120720D01*
X50926Y120657D01*
X50955Y120594D01*
X51078Y119974D01*
X51472Y119385D01*
X52061Y118991D01*
X52756Y118853D01*
X53451Y118991D01*
X54040Y119385D01*
X54434Y119974D01*
X54572Y120669D01*
X54434Y121364D01*
X54040Y121953D01*
X53451Y122347D01*
X52831Y122470D01*
X52768Y122499D01*
X52705Y122502D01*
X52673Y122506D01*
X52639Y122513D01*
X52603Y122525D01*
X52563Y122542D01*
X52519Y122565D01*
X52471Y122596D01*
X52419Y122634D01*
X52362Y122681D01*
X52290Y122749D01*
X52226Y122774D01*
X51575Y123425D01*
X51214Y123667D01*
X50787Y123751D01*
X50363D01*
X50300Y123779D01*
X50131Y123784D01*
X50006Y123794D01*
X49912Y123810D01*
X49911Y123810D01*
Y124911D01*
D02*
G37*
G36*
X187008Y114211D02*
X185848Y114097D01*
X184733Y113759D01*
X183706Y113210D01*
X182805Y112470D01*
X182066Y111570D01*
X181517Y110542D01*
X181178Y109427D01*
X181064Y108268D01*
X181178Y107108D01*
X181517Y105993D01*
X182066Y104966D01*
X182805Y104065D01*
X183706Y103326D01*
X184733Y102777D01*
X185848Y102438D01*
X187008Y102324D01*
X188167Y102438D01*
X189282Y102777D01*
X190310Y103326D01*
X191211Y104065D01*
X191950Y104966D01*
X192499Y105993D01*
X192837Y107108D01*
X192951Y108268D01*
X192837Y109427D01*
X192499Y110542D01*
X191950Y111570D01*
X191211Y112470D01*
X190310Y113210D01*
X189282Y113759D01*
X188167Y114097D01*
X187008Y114211D01*
D02*
G37*
G36*
Y15786D02*
X185848Y15672D01*
X184733Y15334D01*
X183706Y14784D01*
X182805Y14045D01*
X182066Y13145D01*
X181517Y12117D01*
X181178Y11002D01*
X181064Y9843D01*
X181178Y8683D01*
X181517Y7568D01*
X182066Y6540D01*
X182805Y5640D01*
X183706Y4901D01*
X184733Y4351D01*
X185848Y4013D01*
X187008Y3899D01*
X188167Y4013D01*
X189282Y4351D01*
X190310Y4901D01*
X191211Y5640D01*
X191950Y6540D01*
X192499Y7568D01*
X192837Y8683D01*
X192951Y9843D01*
X192837Y11002D01*
X192499Y12117D01*
X191950Y13145D01*
X191211Y14045D01*
X190310Y14784D01*
X189282Y15334D01*
X188167Y15672D01*
X187008Y15786D01*
D02*
G37*
G36*
X68898D02*
X67738Y15672D01*
X66623Y15334D01*
X65596Y14784D01*
X64695Y14045D01*
X63956Y13145D01*
X63406Y12117D01*
X63068Y11002D01*
X62954Y9843D01*
X63068Y8683D01*
X63406Y7568D01*
X63956Y6540D01*
X64695Y5640D01*
X65596Y4901D01*
X66623Y4351D01*
X67738Y4013D01*
X68898Y3899D01*
X70057Y4013D01*
X71172Y4351D01*
X72200Y4901D01*
X73100Y5640D01*
X73839Y6540D01*
X74389Y7568D01*
X74727Y8683D01*
X74841Y9843D01*
X74727Y11002D01*
X74389Y12117D01*
X73839Y13145D01*
X73100Y14045D01*
X72200Y14784D01*
X71172Y15334D01*
X70057Y15672D01*
X68898Y15786D01*
D02*
G37*
G36*
X9843D02*
X8683Y15672D01*
X7568Y15334D01*
X6540Y14784D01*
X5640Y14045D01*
X4901Y13145D01*
X4351Y12117D01*
X4013Y11002D01*
X3899Y9843D01*
X4013Y8683D01*
X4351Y7568D01*
X4901Y6540D01*
X5640Y5640D01*
X6540Y4901D01*
X7568Y4351D01*
X8683Y4013D01*
X9843Y3899D01*
X11002Y4013D01*
X12117Y4351D01*
X13145Y4901D01*
X14045Y5640D01*
X14784Y6540D01*
X15334Y7568D01*
X15672Y8683D01*
X15786Y9843D01*
X15672Y11002D01*
X15334Y12117D01*
X14784Y13145D01*
X14045Y14045D01*
X13145Y14784D01*
X12117Y15334D01*
X11002Y15672D01*
X9843Y15786D01*
D02*
G37*
%LPD*%
G36*
X53261Y202585D02*
X53261Y202583D01*
X53756D01*
X53661Y202573D01*
X53576Y202543D01*
X53501Y202492D01*
X53436Y202421D01*
X53381Y202330D01*
X53336Y202219D01*
X53324Y202174D01*
X53336Y202129D01*
X53381Y202018D01*
X53436Y201927D01*
X53501Y201856D01*
X53576Y201805D01*
X53661Y201775D01*
X53756Y201765D01*
X53261D01*
X53261Y201763D01*
X53256Y201571D01*
X52256D01*
X52251Y201763D01*
X52251Y201765D01*
X51756D01*
X51851Y201775D01*
X51936Y201805D01*
X52011Y201856D01*
X52076Y201927D01*
X52131Y202018D01*
X52176Y202129D01*
X52188Y202174D01*
X52176Y202219D01*
X52131Y202330D01*
X52076Y202421D01*
X52011Y202492D01*
X51936Y202543D01*
X51851Y202573D01*
X51756Y202583D01*
X52251D01*
X52251Y202585D01*
X52256Y202777D01*
X53256D01*
X53261Y202585D01*
D02*
G37*
G36*
X50446Y200063D02*
X50373Y200105D01*
X50286Y200144D01*
X50187Y200177D01*
X50075Y200206D01*
X49951Y200231D01*
X49663Y200267D01*
X49500Y200278D01*
X49136Y200287D01*
X49005Y201287D01*
X49165Y201292D01*
X49322Y201304D01*
X49475Y201325D01*
X49625Y201355D01*
X49771Y201393D01*
X49913Y201439D01*
X50052Y201494D01*
X50187Y201557D01*
X50318Y201629D01*
X50446Y201709D01*
Y200063D01*
D02*
G37*
G36*
X46935Y201692D02*
X46965Y201607D01*
X47016Y201532D01*
X47087Y201467D01*
X47178Y201412D01*
X47289Y201367D01*
X47421Y201332D01*
X47572Y201307D01*
X47745Y201292D01*
X47937Y201287D01*
Y200287D01*
X47745Y200282D01*
X47572Y200267D01*
X47421Y200242D01*
X47289Y200207D01*
X47178Y200162D01*
X47087Y200107D01*
X47016Y200042D01*
X46965Y199967D01*
X46935Y199882D01*
X46925Y199787D01*
Y201787D01*
X46935Y201692D01*
D02*
G37*
G36*
X50446Y197504D02*
X50346Y197565D01*
X50237Y197620D01*
X50120Y197668D01*
X49994Y197710D01*
X49861Y197746D01*
X49719Y197775D01*
X49569Y197798D01*
X49245Y197824D01*
X49071Y197827D01*
Y198827D01*
X49245Y198830D01*
X49569Y198856D01*
X49719Y198879D01*
X49861Y198907D01*
X49994Y198943D01*
X50120Y198985D01*
X50237Y199034D01*
X50346Y199089D01*
X50446Y199150D01*
Y197504D01*
D02*
G37*
G36*
X50505Y182390D02*
X50520Y182218D01*
X50545Y182066D01*
X50580Y181935D01*
X50625Y181824D01*
X50680Y181732D01*
X50745Y181662D01*
X50820Y181611D01*
X50905Y181581D01*
X51000Y181570D01*
X49000D01*
X49095Y181581D01*
X49180Y181611D01*
X49255Y181662D01*
X49320Y181732D01*
X49375Y181824D01*
X49420Y181935D01*
X49455Y182066D01*
X49480Y182218D01*
X49495Y182390D01*
X49500Y182582D01*
X50500D01*
X50505Y182390D01*
D02*
G37*
G36*
X50905Y178262D02*
X50820Y178232D01*
X50745Y178181D01*
X50680Y178110D01*
X50625Y178019D01*
X50580Y177908D01*
X50545Y177776D01*
X50520Y177624D01*
X50505Y177452D01*
X50500Y177260D01*
X49500D01*
X49495Y177452D01*
X49480Y177624D01*
X49455Y177776D01*
X49420Y177908D01*
X49375Y178019D01*
X49320Y178110D01*
X49255Y178181D01*
X49180Y178232D01*
X49095Y178262D01*
X49000Y178272D01*
X51000D01*
X50905Y178262D01*
D02*
G37*
G36*
X50505Y176091D02*
X50520Y175919D01*
X50545Y175767D01*
X50580Y175636D01*
X50625Y175524D01*
X50680Y175433D01*
X50745Y175362D01*
X50820Y175312D01*
X50905Y175281D01*
X51000Y175271D01*
X49000D01*
X49095Y175281D01*
X49180Y175312D01*
X49255Y175362D01*
X49320Y175433D01*
X49375Y175524D01*
X49420Y175636D01*
X49455Y175767D01*
X49480Y175919D01*
X49495Y176091D01*
X49500Y176283D01*
X50500D01*
X50505Y176091D01*
D02*
G37*
G36*
X50891Y171963D02*
X50807Y171933D01*
X50733Y171883D01*
X50669Y171813D01*
X50615Y171724D01*
X50571Y171614D01*
X50536Y171485D01*
X50512Y171335D01*
X50497Y171166D01*
X50492Y170977D01*
X49508D01*
X49503Y171166D01*
X49488Y171335D01*
X49464Y171485D01*
X49429Y171614D01*
X49385Y171724D01*
X49331Y171813D01*
X49267Y171883D01*
X49193Y171933D01*
X49109Y171963D01*
X49016Y171973D01*
X50984D01*
X50891Y171963D01*
D02*
G37*
G36*
X50497Y162990D02*
X50512Y162823D01*
X50536Y162675D01*
X50571Y162547D01*
X50615Y162439D01*
X50669Y162350D01*
X50733Y162281D01*
X50807Y162232D01*
X50891Y162203D01*
X50984Y162193D01*
X49016D01*
X49109Y162203D01*
X49193Y162232D01*
X49267Y162281D01*
X49331Y162350D01*
X49385Y162439D01*
X49429Y162547D01*
X49464Y162675D01*
X49488Y162823D01*
X49503Y162990D01*
X49508Y163177D01*
X50492D01*
X50497Y162990D01*
D02*
G37*
G36*
X37781Y209566D02*
X37812Y209481D01*
X37862Y209406D01*
X37933Y209341D01*
X38024Y209286D01*
X38136Y209241D01*
X38267Y209206D01*
X38419Y209181D01*
X38591Y209166D01*
X38783Y209161D01*
Y208161D01*
X38591Y208156D01*
X38419Y208141D01*
X38267Y208116D01*
X38136Y208081D01*
X38024Y208036D01*
X37933Y207981D01*
X37862Y207916D01*
X37812Y207841D01*
X37781Y207756D01*
X37771Y207661D01*
Y209661D01*
X37781Y209566D01*
D02*
G37*
G36*
X46935Y207795D02*
X46965Y207710D01*
X47016Y207635D01*
X47087Y207570D01*
X47178Y207515D01*
X47289Y207470D01*
X47421Y207435D01*
X47572Y207410D01*
X47745Y207395D01*
X47937Y207390D01*
Y206390D01*
X47745Y206385D01*
X47572Y206370D01*
X47421Y206345D01*
X47289Y206310D01*
X47178Y206265D01*
X47087Y206210D01*
X47016Y206145D01*
X46965Y206070D01*
X46935Y205985D01*
X46925Y205890D01*
Y207890D01*
X46935Y207795D01*
D02*
G37*
G36*
X43626Y205890D02*
X43616Y205985D01*
X43586Y206070D01*
X43535Y206145D01*
X43464Y206210D01*
X43373Y206265D01*
X43262Y206310D01*
X43130Y206345D01*
X42979Y206370D01*
X42807Y206385D01*
X42614Y206390D01*
Y207390D01*
X42807Y207395D01*
X42979Y207410D01*
X43130Y207435D01*
X43262Y207470D01*
X43373Y207515D01*
X43464Y207570D01*
X43535Y207635D01*
X43586Y207710D01*
X43616Y207795D01*
X43626Y207890D01*
Y205890D01*
D02*
G37*
G36*
X54833Y190416D02*
X54849Y190188D01*
X54863Y190095D01*
X54881Y190016D01*
X54903Y189952D01*
X54929Y189902D01*
X54959Y189867D01*
X54993Y189845D01*
X55032Y189838D01*
X53630D01*
X53668Y189845D01*
X53702Y189867D01*
X53732Y189902D01*
X53758Y189952D01*
X53781Y190016D01*
X53799Y190095D01*
X53813Y190188D01*
X53823Y190295D01*
X53831Y190551D01*
X54831D01*
X54833Y190416D01*
D02*
G37*
G36*
X34046Y181305D02*
X34027Y181287D01*
X34011Y181257D01*
X33996Y181215D01*
X33984Y181161D01*
X33974Y181094D01*
X33961Y180926D01*
X33957Y180709D01*
X32972D01*
X32971Y180823D01*
X32945Y181161D01*
X32933Y181215D01*
X32918Y181257D01*
X32902Y181287D01*
X32883Y181305D01*
X32862Y181311D01*
X34067D01*
X34046Y181305D01*
D02*
G37*
G36*
X42236Y178937D02*
X42227Y179031D01*
X42197Y179114D01*
X42148Y179188D01*
X42079Y179252D01*
X41990Y179306D01*
X41882Y179350D01*
X41754Y179385D01*
X41607Y179409D01*
X41439Y179424D01*
X41252Y179429D01*
Y180413D01*
X41439Y180418D01*
X41607Y180433D01*
X41754Y180458D01*
X41882Y180492D01*
X41990Y180536D01*
X42079Y180591D01*
X42148Y180655D01*
X42197Y180728D01*
X42227Y180812D01*
X42236Y180905D01*
Y178937D01*
D02*
G37*
G36*
X48646Y148606D02*
X48636Y148701D01*
X48606Y148786D01*
X48555Y148861D01*
X48484Y148926D01*
X48393Y148981D01*
X48282Y149026D01*
X48150Y149061D01*
X47998Y149086D01*
X47826Y149101D01*
X47634Y149106D01*
Y150106D01*
X47826Y150111D01*
X47998Y150126D01*
X48150Y150151D01*
X48282Y150186D01*
X48393Y150231D01*
X48484Y150286D01*
X48555Y150351D01*
X48606Y150426D01*
X48636Y150511D01*
X48646Y150606D01*
Y148606D01*
D02*
G37*
G36*
X39757Y150548D02*
X39932Y150455D01*
X40152Y150373D01*
X40415Y150302D01*
X40723Y150242D01*
X41075Y150194D01*
X41912Y150128D01*
X42821Y150109D01*
Y150606D01*
X42831Y150511D01*
X42861Y150426D01*
X42911Y150351D01*
X42981Y150286D01*
X43071Y150231D01*
X43181Y150186D01*
X43311Y150151D01*
X43461Y150126D01*
X43631Y150111D01*
X43821Y150106D01*
Y149106D01*
X43631Y149101D01*
X43461Y149086D01*
X43311Y149061D01*
X43181Y149026D01*
X43071Y148981D01*
X42981Y148926D01*
X42911Y148861D01*
X42861Y148786D01*
X42831Y148701D01*
X42821Y148606D01*
Y149105D01*
X42396Y149101D01*
X40723Y148970D01*
X40415Y148910D01*
X40152Y148839D01*
X39932Y148758D01*
X39757Y148665D01*
X39626Y148562D01*
Y150651D01*
X39757Y150548D01*
D02*
G37*
G36*
X14213Y151673D02*
X14386Y151549D01*
X14578Y151440D01*
X14791Y151345D01*
X15023Y151265D01*
X15275Y151199D01*
X15547Y151148D01*
X15839Y151112D01*
X16151Y151090D01*
X16483Y151083D01*
Y148130D01*
X16151Y148123D01*
X15547Y148064D01*
X15275Y148013D01*
X15023Y147948D01*
X14791Y147868D01*
X14578Y147773D01*
X14386Y147664D01*
X14213Y147540D01*
X14060Y147402D01*
Y151811D01*
X14213Y151673D01*
D02*
G37*
G36*
X34357Y146654D02*
X34327Y146934D01*
X34238Y147185D01*
X34090Y147406D01*
X33882Y147598D01*
X33615Y147761D01*
X33289Y147894D01*
X32904Y147997D01*
X32459Y148071D01*
X31955Y148115D01*
X31392Y148130D01*
Y151083D01*
X31955Y151098D01*
X32459Y151142D01*
X32904Y151216D01*
X33289Y151319D01*
X33615Y151452D01*
X33882Y151614D01*
X34090Y151806D01*
X34238Y152028D01*
X34327Y152279D01*
X34357Y152559D01*
Y146654D01*
D02*
G37*
G36*
X34319Y132874D02*
X34290Y133154D01*
X34201Y133405D01*
X34052Y133627D01*
X33845Y133819D01*
X33578Y133981D01*
X33252Y134114D01*
X32867Y134218D01*
X32422Y134291D01*
X31918Y134336D01*
X31354Y134350D01*
Y137303D01*
X31918Y137318D01*
X32422Y137362D01*
X32867Y137436D01*
X33252Y137539D01*
X33578Y137672D01*
X33845Y137835D01*
X34052Y138027D01*
X34201Y138248D01*
X34290Y138499D01*
X34319Y138779D01*
Y132874D01*
D02*
G37*
G36*
X14966Y138499D02*
X15055Y138248D01*
X15203Y138027D01*
X15411Y137835D01*
X15678Y137672D01*
X16004Y137539D01*
X16389Y137436D01*
X16834Y137362D01*
X17338Y137318D01*
X17901Y137303D01*
Y134350D01*
X17338Y134336D01*
X16834Y134291D01*
X16389Y134218D01*
X16004Y134114D01*
X15678Y133981D01*
X15411Y133819D01*
X15203Y133627D01*
X15055Y133405D01*
X14966Y133154D01*
X14937Y132874D01*
Y138779D01*
X14966Y138499D01*
D02*
G37*
G36*
X39240Y135073D02*
X39206Y134981D01*
X39175Y134854D01*
X39163Y134783D01*
X39627D01*
X39522Y134651D01*
X39428Y134474D01*
X39345Y134254D01*
X39274Y133990D01*
X39213Y133682D01*
X39163Y133329D01*
X39097Y132494D01*
X39077Y131601D01*
X39567D01*
X39473Y131591D01*
X39390Y131561D01*
X39316Y131511D01*
X39252Y131441D01*
X39198Y131352D01*
X39154Y131242D01*
X39119Y131113D01*
X39094Y130963D01*
X39080Y130794D01*
X39075Y130605D01*
X38091D01*
X38086Y130794D01*
X38071Y130963D01*
X38046Y131113D01*
X38012Y131242D01*
X37968Y131352D01*
X37913Y131441D01*
X37849Y131511D01*
X37776Y131561D01*
X37692Y131591D01*
X37598Y131601D01*
X38089D01*
X38085Y132010D01*
X37952Y133682D01*
X37892Y133990D01*
X37820Y134254D01*
X37737Y134474D01*
X37643Y134651D01*
X37538Y134783D01*
X37995D01*
X37990Y134854D01*
X37960Y134981D01*
X37925Y135073D01*
X37886Y135131D01*
X39279D01*
X39240Y135073D01*
D02*
G37*
G36*
X36329Y117825D02*
X36358Y117657D01*
X36408Y117510D01*
X36476Y117382D01*
X36565Y117274D01*
X36673Y117185D01*
X36801Y117116D01*
X36949Y117067D01*
X37116Y117037D01*
X37303Y117028D01*
Y116043D01*
X37303D01*
Y116043D01*
X37116Y116033D01*
X36949Y116004D01*
X36801Y115955D01*
X36791Y115949D01*
X36673Y115886D01*
X36634Y115854D01*
X36565Y115797D01*
X36476Y115689D01*
X36413Y115571D01*
X36408Y115561D01*
X36358Y115413D01*
X36329Y115246D01*
X36319Y115059D01*
X36319Y115059D01*
Y115059D01*
X35335Y116535D01*
X36319Y118012D01*
Y118012D01*
X36319Y118012D01*
X36329Y117825D01*
D02*
G37*
G36*
X45989Y115551D02*
X45979Y115645D01*
X45949Y115728D01*
X45899Y115802D01*
X45829Y115866D01*
X45739Y115920D01*
X45630Y115965D01*
X45500Y115999D01*
X45351Y116024D01*
X45182Y116038D01*
X44992Y116043D01*
Y117028D01*
X45182Y117033D01*
X45351Y117047D01*
X45500Y117072D01*
X45630Y117106D01*
X45739Y117151D01*
X45829Y117205D01*
X45899Y117269D01*
X45949Y117342D01*
X45979Y117426D01*
X45989Y117520D01*
Y115551D01*
D02*
G37*
G36*
X43195Y117426D02*
X43224Y117343D01*
X43274Y117269D01*
X43344Y117205D01*
X43434Y117151D01*
X43543Y117106D01*
X43673Y117072D01*
X43822Y117047D01*
X43992Y117033D01*
X44181Y117028D01*
Y116043D01*
X43992Y116038D01*
X43822Y116024D01*
X43673Y115999D01*
X43543Y115965D01*
X43434Y115920D01*
X43344Y115866D01*
X43274Y115802D01*
X43224Y115728D01*
X43195Y115645D01*
X43185Y115551D01*
Y117520D01*
X43195Y117426D01*
D02*
G37*
G36*
X39886Y115551D02*
X39876Y115645D01*
X39846Y115728D01*
X39797Y115802D01*
X39727Y115866D01*
X39637Y115920D01*
X39528Y115965D01*
X39398Y115999D01*
X39249Y116024D01*
X39079Y116038D01*
X38890Y116043D01*
Y117028D01*
X39079Y117033D01*
X39249Y117047D01*
X39398Y117072D01*
X39528Y117106D01*
X39637Y117151D01*
X39727Y117205D01*
X39797Y117269D01*
X39846Y117342D01*
X39876Y117426D01*
X39886Y117520D01*
Y115551D01*
D02*
G37*
G36*
X36319Y112550D02*
X36320Y112361D01*
X36367Y111651D01*
X36385Y111556D01*
X36405Y111476D01*
X36428Y111413D01*
X36453Y111365D01*
X35000Y111654D01*
X35063Y111706D01*
X35120Y111773D01*
X35171Y111854D01*
X35214Y111951D01*
X35251Y112062D01*
X35281Y112188D01*
X35304Y112329D01*
X35321Y112485D01*
X35335Y112840D01*
X36319Y112550D01*
D02*
G37*
G36*
X39886Y109560D02*
X39888Y109560D01*
X40080Y109555D01*
Y108555D01*
X39888Y108550D01*
X39886Y108550D01*
Y108055D01*
X39876Y108150D01*
X39846Y108235D01*
X39795Y108310D01*
X39724Y108375D01*
X39633Y108430D01*
X39522Y108475D01*
X39477Y108487D01*
X39432Y108475D01*
X39321Y108430D01*
X39230Y108375D01*
X39159Y108310D01*
X39108Y108235D01*
X39078Y108150D01*
X39068Y108055D01*
Y108550D01*
X39066Y108550D01*
X38874Y108555D01*
Y109555D01*
X39066Y109560D01*
X39068Y109560D01*
Y110055D01*
X39078Y109960D01*
X39108Y109875D01*
X39159Y109800D01*
X39230Y109735D01*
X39321Y109680D01*
X39432Y109635D01*
X39477Y109623D01*
X39522Y109635D01*
X39633Y109680D01*
X39724Y109735D01*
X39795Y109800D01*
X39846Y109875D01*
X39876Y109960D01*
X39886Y110055D01*
Y109560D01*
D02*
G37*
G36*
X41456Y106203D02*
X41371Y106173D01*
X41296Y106123D01*
X41231Y106053D01*
X41176Y105963D01*
X41131Y105853D01*
X41096Y105723D01*
X41071Y105573D01*
X41056Y105403D01*
X41051Y105213D01*
X40051D01*
X40049Y105403D01*
X40007Y105963D01*
X39987Y106053D01*
X39965Y106123D01*
X39938Y106173D01*
X39908Y106203D01*
X39874Y106213D01*
X41551D01*
X41456Y106203D01*
D02*
G37*
G36*
X27344Y98740D02*
X27375Y98655D01*
X27425Y98580D01*
X27496Y98515D01*
X27587Y98460D01*
X27699Y98415D01*
X27830Y98380D01*
X27982Y98355D01*
X28154Y98340D01*
X28346Y98335D01*
Y97335D01*
X28154Y97330D01*
X27982Y97315D01*
X27830Y97290D01*
X27699Y97255D01*
X27587Y97210D01*
X27496Y97155D01*
X27425Y97090D01*
X27375Y97015D01*
X27344Y96930D01*
X27334Y96835D01*
Y98835D01*
X27344Y98740D01*
D02*
G37*
G36*
X49297Y123529D02*
X49327Y123445D01*
X49377Y123371D01*
X49446Y123307D01*
X49536Y123253D01*
X49646Y123209D01*
X49775Y123174D01*
X49925Y123150D01*
X50094Y123135D01*
X50283Y123130D01*
Y122146D01*
X50094Y122141D01*
X49925Y122126D01*
X49775Y122101D01*
X49646Y122067D01*
X49536Y122023D01*
X49446Y121968D01*
X49377Y121905D01*
X49327Y121831D01*
X49297Y121747D01*
X49287Y121653D01*
Y123622D01*
X49297Y123529D01*
D02*
G37*
G36*
X51930Y122196D02*
X52018Y122122D01*
X52106Y122058D01*
X52195Y122002D01*
X52285Y121955D01*
X52375Y121916D01*
X52466Y121887D01*
X52558Y121866D01*
X52651Y121854D01*
X52744Y121850D01*
X51575Y120681D01*
X51571Y120774D01*
X51559Y120867D01*
X51538Y120959D01*
X51509Y121050D01*
X51470Y121141D01*
X51423Y121230D01*
X51367Y121319D01*
X51303Y121407D01*
X51230Y121495D01*
X51148Y121582D01*
X51844Y122278D01*
X51930Y122196D01*
D02*
G37*
%LPC*%
G36*
X187008Y212636D02*
X185848Y212522D01*
X184733Y212184D01*
X183706Y211635D01*
X182805Y210896D01*
X182066Y209995D01*
X181517Y208967D01*
X181178Y207852D01*
X181064Y206693D01*
X181178Y205533D01*
X181517Y204418D01*
X182066Y203391D01*
X182805Y202490D01*
X183706Y201751D01*
X184733Y201202D01*
X185848Y200864D01*
X187008Y200749D01*
X188167Y200864D01*
X189282Y201202D01*
X190310Y201751D01*
X191211Y202490D01*
X191950Y203391D01*
X192499Y204418D01*
X192837Y205533D01*
X192951Y206693D01*
X192837Y207852D01*
X192499Y208967D01*
X191950Y209995D01*
X191211Y210896D01*
X190310Y211635D01*
X189282Y212184D01*
X188167Y212522D01*
X187008Y212636D01*
D02*
G37*
G36*
X135433Y207810D02*
X134095Y207633D01*
X132847Y207117D01*
X131776Y206295D01*
X130954Y205224D01*
X130438Y203976D01*
X130261Y202638D01*
X130438Y201299D01*
X130954Y200052D01*
X131776Y198981D01*
X132847Y198159D01*
X134095Y197642D01*
X135433Y197466D01*
X136772Y197642D01*
X138019Y198159D01*
X139090Y198981D01*
X139912Y200052D01*
X140429Y201299D01*
X140605Y202638D01*
X140429Y203976D01*
X139912Y205224D01*
X139090Y206295D01*
X138019Y207117D01*
X136772Y207633D01*
X135433Y207810D01*
D02*
G37*
G36*
X101969D02*
X100630Y207633D01*
X99383Y207117D01*
X98312Y206295D01*
X97490Y205224D01*
X96973Y203976D01*
X96797Y202638D01*
X96973Y201299D01*
X97490Y200052D01*
X98312Y198981D01*
X99383Y198159D01*
X100630Y197642D01*
X101969Y197466D01*
X103307Y197642D01*
X104554Y198159D01*
X105625Y198981D01*
X106447Y200052D01*
X106964Y201299D01*
X107140Y202638D01*
X106964Y203976D01*
X106447Y205224D01*
X105625Y206295D01*
X104554Y207117D01*
X103307Y207633D01*
X101969Y207810D01*
D02*
G37*
G36*
X147549Y206604D02*
X143002D01*
Y202058D01*
X144103D01*
X144104Y202057D01*
X144119Y201963D01*
X144130Y201838D01*
X144134Y201668D01*
X144162Y201606D01*
Y201052D01*
X144134Y200989D01*
X144130Y200820D01*
X144119Y200695D01*
X144104Y200601D01*
X144103Y200600D01*
X143101D01*
Y196250D01*
X147450D01*
Y200600D01*
X146448D01*
X146448Y200601D01*
X146432Y200695D01*
X146421Y200820D01*
X146417Y200989D01*
X146389Y201052D01*
Y201606D01*
X146417Y201668D01*
X146421Y201838D01*
X146432Y201963D01*
X146448Y202057D01*
X146448Y202058D01*
X147549D01*
Y206604D01*
D02*
G37*
G36*
X139456Y188531D02*
X139418Y188515D01*
X139379Y188526D01*
X139321Y188494D01*
X135522D01*
Y187214D01*
X135493Y187166D01*
X135505Y187114D01*
X135485Y187065D01*
X135522Y186974D01*
Y186363D01*
X135434Y186209D01*
X135268Y185970D01*
X134750Y185358D01*
X134414Y185010D01*
X134396Y184963D01*
X132787Y183355D01*
X132459Y182863D01*
X132343Y182283D01*
Y178016D01*
X131222Y176895D01*
X130894Y176404D01*
X130779Y175824D01*
Y167957D01*
X130279Y167689D01*
X130206Y167738D01*
X129626Y167853D01*
X129046Y167738D01*
X128555Y167410D01*
X128226Y166918D01*
X128111Y166339D01*
Y163779D01*
X128226Y163200D01*
X128555Y162708D01*
X129046Y162380D01*
X129626Y162265D01*
X130206Y162380D01*
X130697Y162708D01*
X131114D01*
X131605Y162380D01*
X132185Y162265D01*
X132765Y162380D01*
X133256Y162708D01*
X133673D01*
X134164Y162380D01*
X134744Y162265D01*
X135324Y162380D01*
X135815Y162708D01*
X136232D01*
X136723Y162380D01*
X137303Y162265D01*
X137883Y162380D01*
X138374Y162708D01*
X138703Y163200D01*
X138818Y163779D01*
Y166339D01*
X138703Y166918D01*
X138374Y167410D01*
X137883Y167738D01*
X137303Y167853D01*
X136946Y167782D01*
X136446Y168109D01*
Y174076D01*
X138838D01*
X139969Y172945D01*
X139969Y172944D01*
X140461Y172616D01*
X141041Y172501D01*
X142609D01*
Y171742D01*
X147155D01*
Y174146D01*
X149550Y176542D01*
X149606Y176531D01*
X150301Y176669D01*
X150678Y176920D01*
X159046D01*
Y175778D01*
X163789D01*
Y178407D01*
X164027Y178662D01*
X165047D01*
X169366Y174344D01*
Y169950D01*
X168823Y169407D01*
X167744D01*
X167599Y169552D01*
Y171691D01*
X167461Y172386D01*
X167067Y172976D01*
X166478Y173369D01*
X165783Y173507D01*
X159484D01*
X158789Y173369D01*
X158200Y172976D01*
X157806Y172386D01*
X157668Y171691D01*
Y169329D01*
X157806Y168634D01*
X158200Y168045D01*
X158789Y167651D01*
X159484Y167513D01*
X165353D01*
X165982Y166884D01*
X166017Y166573D01*
X165982Y166262D01*
X165353Y165633D01*
X159484D01*
X158789Y165495D01*
X158200Y165101D01*
X157806Y164512D01*
X157668Y163817D01*
Y161455D01*
X157806Y160760D01*
X158200Y160171D01*
X158789Y159777D01*
X159484Y159639D01*
X165783D01*
X166478Y159777D01*
X167067Y160171D01*
X167461Y160760D01*
X167599Y161455D01*
Y163595D01*
X167744Y163739D01*
X170543D01*
X171123Y163855D01*
X171614Y164183D01*
X174590Y167159D01*
X174918Y167650D01*
X175034Y168230D01*
X175034Y168230D01*
Y176064D01*
X174918Y176643D01*
X174590Y177135D01*
X167839Y183886D01*
X167347Y184215D01*
X166767Y184330D01*
X163969D01*
X163789Y184509D01*
Y187214D01*
X159046D01*
Y186554D01*
X154088D01*
X153845Y186717D01*
X153150Y186855D01*
X153019Y186829D01*
X152557Y187292D01*
X152066Y187620D01*
X151486Y187735D01*
X141289D01*
X141243Y187756D01*
X140924Y187763D01*
X140662Y187783D01*
X140446Y187815D01*
X140279Y187854D01*
X140164Y187895D01*
X140105Y187927D01*
X140101Y187959D01*
X140068Y188018D01*
Y188494D01*
X139547D01*
X139456Y188531D01*
D02*
G37*
%LPD*%
G36*
X146166Y202672D02*
X146083Y202642D01*
X146009Y202592D01*
X145945Y202522D01*
X145891Y202432D01*
X145846Y202323D01*
X145812Y202193D01*
X145787Y202044D01*
X145773Y201874D01*
X145768Y201685D01*
X144783D01*
X144779Y201874D01*
X144764Y202044D01*
X144739Y202193D01*
X144705Y202323D01*
X144660Y202432D01*
X144606Y202522D01*
X144542Y202592D01*
X144468Y202642D01*
X144385Y202672D01*
X144291Y202681D01*
X146260D01*
X146166Y202672D01*
D02*
G37*
G36*
X145773Y200783D02*
X145787Y200614D01*
X145812Y200464D01*
X145846Y200335D01*
X145891Y200225D01*
X145945Y200135D01*
X146009Y200066D01*
X146083Y200016D01*
X146166Y199986D01*
X146260Y199976D01*
X144291D01*
X144385Y199986D01*
X144468Y200016D01*
X144542Y200066D01*
X144606Y200135D01*
X144660Y200225D01*
X144705Y200335D01*
X144739Y200464D01*
X144764Y200614D01*
X144779Y200783D01*
X144783Y200972D01*
X145768D01*
X145773Y200783D01*
D02*
G37*
G36*
X139474Y187734D02*
X139527Y187603D01*
X139616Y187486D01*
X139740Y187385D01*
X139899Y187300D01*
X140094Y187230D01*
X140325Y187176D01*
X140590Y187137D01*
X140892Y187114D01*
X141228Y187106D01*
Y185335D01*
X140892Y185327D01*
X140590Y185304D01*
X140325Y185265D01*
X140094Y185211D01*
X139899Y185141D01*
X139740Y185055D01*
X139616Y184955D01*
X139527Y184838D01*
X139474Y184707D01*
X139456Y184559D01*
Y187882D01*
X139474Y187734D01*
D02*
G37*
G36*
X138639Y184559D02*
X138502Y184660D01*
X138339Y184710D01*
X138151D01*
X137938Y184660D01*
X137700Y184559D01*
X137437Y184409D01*
X137149Y184209D01*
X136836Y183958D01*
X136134Y183307D01*
X134881Y184559D01*
X135232Y184923D01*
X135783Y185574D01*
X135984Y185862D01*
X136134Y186125D01*
X136234Y186363D01*
X136284Y186576D01*
Y186764D01*
X136234Y186927D01*
X136134Y187065D01*
X138639Y184559D01*
D02*
G37*
G36*
X151596Y183968D02*
X151596Y183968D01*
X151826Y183814D01*
X151865Y183755D01*
X152455Y183362D01*
X153150Y183223D01*
X153845Y183362D01*
X154088Y183524D01*
X159046D01*
Y182865D01*
X161177D01*
X161232Y182782D01*
X162206Y181807D01*
X162247Y181672D01*
X162249Y181606D01*
X162188Y181197D01*
X161093Y180128D01*
X159046D01*
Y179950D01*
X150412D01*
X150301Y180024D01*
X149606Y180162D01*
X148911Y180024D01*
X148322Y179631D01*
X148247Y179518D01*
X148230Y179507D01*
X147617Y178893D01*
X147155Y179085D01*
Y182391D01*
X142609D01*
Y182296D01*
X142109Y182017D01*
X141535Y182131D01*
X140840Y181993D01*
X140568Y181811D01*
X140068Y182078D01*
Y182391D01*
X136782D01*
X136689Y182590D01*
X136641Y182891D01*
X137260Y183466D01*
X137538Y183688D01*
X137784Y183859D01*
X137938Y183947D01*
X138549D01*
X138639Y183910D01*
X138689Y183930D01*
X138741Y183918D01*
X138789Y183947D01*
X139321D01*
X139379Y183914D01*
X139418Y183925D01*
X139456Y183910D01*
X139547Y183947D01*
X140068D01*
Y184423D01*
X140101Y184482D01*
X140105Y184514D01*
X140164Y184546D01*
X140279Y184587D01*
X140446Y184626D01*
X140662Y184658D01*
X140924Y184678D01*
X141243Y184685D01*
X141289Y184705D01*
X150858D01*
X151596Y183968D01*
D02*
G37*
G36*
X143233Y180617D02*
X143268Y180614D01*
X143388Y180610D01*
X143233Y179782D01*
Y179134D01*
X143223Y179227D01*
X143193Y179311D01*
X143143Y179385D01*
X143073Y179449D01*
X142984Y179503D01*
X142874Y179547D01*
X142747Y179581D01*
X142657Y179559D01*
X142562Y179530D01*
X142471Y179495D01*
X142386Y179455D01*
X142305Y179410D01*
X142229Y179359D01*
X142274Y179625D01*
X142236Y179626D01*
Y180610D01*
X142426Y180615D01*
X142442Y180617D01*
X142505Y180990D01*
X142561Y180918D01*
X142625Y180853D01*
X142695Y180796D01*
X142773Y180747D01*
X142858Y180705D01*
X142887Y180694D01*
X142984Y180733D01*
X143073Y180787D01*
X143143Y180851D01*
X143193Y180925D01*
X143223Y181009D01*
X143233Y181102D01*
Y180617D01*
D02*
G37*
G36*
X139454Y181009D02*
X139484Y180925D01*
X139534Y180851D01*
X139604Y180787D01*
X139694Y180733D01*
X139803Y180689D01*
X139933Y180655D01*
X140009Y180642D01*
X140023Y180644D01*
X140121Y180671D01*
X140213Y180705D01*
X140298Y180747D01*
X140376Y180796D01*
X140446Y180853D01*
X140510Y180918D01*
X140566Y180990D01*
X140842Y179359D01*
X140766Y179410D01*
X140685Y179455D01*
X140600Y179495D01*
X140509Y179530D01*
X140414Y179559D01*
X140314Y179583D01*
X140210Y179602D01*
X140136Y179611D01*
X140082Y179606D01*
X139933Y179582D01*
X139803Y179547D01*
X139694Y179503D01*
X139604Y179449D01*
X139534Y179385D01*
X139484Y179311D01*
X139454Y179227D01*
X139444Y179134D01*
Y181102D01*
X139454Y181009D01*
D02*
G37*
G36*
X163967Y179551D02*
X163165Y178690D01*
X161356Y179504D01*
X161377Y179513D01*
X161423Y179550D01*
X161495Y179613D01*
X162715Y180804D01*
X163967Y179551D01*
D02*
G37*
%LPC*%
G36*
X14291Y44542D02*
X12953Y44366D01*
X11705Y43849D01*
X10634Y43027D01*
X9812Y41956D01*
X9296Y40709D01*
X9120Y39370D01*
X9296Y38032D01*
X9812Y36784D01*
X10634Y35713D01*
X11705Y34891D01*
X12953Y34374D01*
X14291Y34198D01*
X15630Y34374D01*
X16877Y34891D01*
X17948Y35713D01*
X18770Y36784D01*
X19287Y38032D01*
X19463Y39370D01*
X19287Y40709D01*
X18770Y41956D01*
X17948Y43027D01*
X16877Y43849D01*
X15630Y44366D01*
X14291Y44542D01*
D02*
G37*
G36*
X49911Y33179D02*
X45365D01*
Y32078D01*
X45364Y32078D01*
X45270Y32062D01*
X45145Y32051D01*
X44976Y32047D01*
X44913Y32019D01*
X44595D01*
X44532Y32047D01*
X44363Y32051D01*
X44238Y32062D01*
X44144Y32078D01*
X44143Y32078D01*
Y33080D01*
X39794D01*
Y28731D01*
X44143D01*
Y29733D01*
X44144Y29733D01*
X44238Y29749D01*
X44363Y29760D01*
X44532Y29764D01*
X44595Y29792D01*
X44913D01*
X44976Y29764D01*
X45145Y29760D01*
X45270Y29749D01*
X45364Y29733D01*
X45365Y29733D01*
Y28632D01*
X49911D01*
Y33179D01*
D02*
G37*
G36*
X74803Y33316D02*
X74031Y33162D01*
X73377Y32725D01*
X72940Y32071D01*
X72786Y31299D01*
X72940Y30527D01*
X73377Y29873D01*
X74031Y29436D01*
X74803Y29283D01*
X75575Y29436D01*
X76065Y29764D01*
X76565Y29545D01*
Y26172D01*
X84852D01*
Y30521D01*
X77175D01*
X76765Y31021D01*
X76820Y31299D01*
X76666Y32071D01*
X76229Y32725D01*
X75575Y33162D01*
X74803Y33316D01*
D02*
G37*
%LPD*%
G36*
X45989Y29921D02*
X45979Y30015D01*
X45949Y30098D01*
X45899Y30172D01*
X45829Y30236D01*
X45739Y30290D01*
X45630Y30335D01*
X45500Y30369D01*
X45351Y30394D01*
X45182Y30408D01*
X44992Y30413D01*
Y31398D01*
X45182Y31403D01*
X45351Y31417D01*
X45500Y31442D01*
X45630Y31476D01*
X45739Y31521D01*
X45829Y31575D01*
X45899Y31639D01*
X45949Y31713D01*
X45979Y31796D01*
X45989Y31890D01*
Y29921D01*
D02*
G37*
G36*
X43529Y31796D02*
X43559Y31713D01*
X43609Y31639D01*
X43679Y31575D01*
X43768Y31521D01*
X43878Y31476D01*
X44008Y31442D01*
X44157Y31417D01*
X44326Y31403D01*
X44516Y31398D01*
Y30413D01*
X44326Y30408D01*
X44157Y30394D01*
X44008Y30369D01*
X43878Y30335D01*
X43768Y30290D01*
X43679Y30236D01*
X43609Y30172D01*
X43559Y30098D01*
X43529Y30015D01*
X43519Y29921D01*
Y31890D01*
X43529Y31796D01*
D02*
G37*
D10*
X61598Y91732D02*
Y111291D01*
Y86689D02*
Y91732D01*
X68110Y79331D02*
Y80177D01*
X61598Y86689D02*
X68110Y80177D01*
X77953Y183465D02*
Y196850D01*
X74794Y180306D02*
X77953Y183465D01*
X63229Y180306D02*
X74794D01*
X60039Y177116D02*
X63229Y180306D01*
X60039Y149876D02*
Y177116D01*
X45669Y67716D02*
X47047Y66339D01*
X151181Y195276D02*
Y198425D01*
X45669Y74016D02*
Y76968D01*
X42126Y80512D02*
X45669Y76968D01*
X42126Y80512D02*
Y83687D01*
X45669Y74016D02*
X45866D01*
X41929Y83884D02*
X42126Y83687D01*
X45669Y67716D02*
Y73819D01*
X45866Y74016D01*
X122244Y79134D02*
X140551D01*
X122047Y79331D02*
X122244Y79134D01*
X38583Y135827D02*
X38583Y135827D01*
X61626Y111319D02*
Y139949D01*
X61417Y140157D02*
X61626Y139949D01*
X61598Y111291D02*
X61626Y111319D01*
X29134Y190945D02*
X32283D01*
X29134Y187402D02*
X29134Y187402D01*
Y190945D01*
X26772Y208268D02*
X26847Y208343D01*
X29701D01*
X30020Y208661D01*
X26772Y203543D02*
X30020D01*
X78347Y197244D02*
Y203543D01*
X77953Y196850D02*
X78347Y197244D01*
X53795Y100394D02*
X53866Y100323D01*
Y97118D02*
Y100323D01*
Y97118D02*
X53937Y97047D01*
X47638Y100394D02*
X47638Y100394D01*
Y97047D02*
Y100394D01*
X53149Y129527D02*
Y135181D01*
X53795Y135827D01*
X47638Y97047D02*
X53937D01*
X38583Y160274D02*
Y165606D01*
X32283Y165307D02*
X38284D01*
X38583Y165606D01*
X38835Y165354D02*
X44488D01*
X38583Y165606D02*
X38835Y165354D01*
X48031Y135827D02*
X53795D01*
X108071Y73244D02*
Y76772D01*
D11*
X150000Y181496D02*
X153543D01*
X102854Y160919D02*
Y162500D01*
X100689Y158753D02*
X102854Y160919D01*
X100689Y154724D02*
Y158753D01*
X47835Y122441D02*
X48031Y122638D01*
X50787D01*
X52756Y120669D01*
X194882Y48031D02*
Y190945D01*
X157087Y10236D02*
X194882Y48031D01*
X97441Y10236D02*
X157087D01*
X38583Y128740D02*
Y135827D01*
X35827Y107283D02*
Y109252D01*
X9183Y22047D02*
X91732D01*
X3937Y27293D02*
X9183Y22047D01*
X3937Y27293D02*
Y81890D01*
X3937Y187795D02*
X3937Y81890D01*
X3937Y187795D02*
X13780Y197638D01*
X192913Y192913D02*
X194882Y190945D01*
X171653Y192913D02*
X192913D01*
X170472Y194095D02*
X171653Y192913D01*
X170472Y194095D02*
Y212598D01*
X168898Y214173D02*
X170472Y212598D01*
X146850Y214173D02*
X168898D01*
X145669Y212992D02*
X146850Y214173D01*
X145669Y210630D02*
Y212992D01*
X87830Y29528D02*
Y35398D01*
X87795Y35433D02*
X87830Y35398D01*
X151772Y210630D02*
X155512D01*
X151575Y210827D02*
X151772Y210630D01*
X88976Y16535D02*
X91339D01*
X87795Y17717D02*
X88976Y16535D01*
X87795Y17717D02*
Y19685D01*
X91339Y10236D02*
Y16535D01*
X96653D02*
X101181D01*
X112008Y209842D02*
X112795Y210630D01*
X145669D01*
X112008Y205315D02*
Y209842D01*
X111811Y205118D02*
X112008Y205315D01*
X162634Y90980D02*
Y146888D01*
X144882Y73228D02*
X162634Y90980D01*
X151378Y204134D02*
Y204331D01*
X110647Y110236D02*
Y124200D01*
Y83280D02*
Y110236D01*
X114173D01*
X113450Y127131D02*
X113484Y127165D01*
X113450Y127003D02*
Y127131D01*
X113484Y127165D02*
Y131496D01*
X110647Y124200D02*
X113450Y127003D01*
X104840Y77473D02*
X110647Y83280D01*
X104840Y71535D02*
Y77473D01*
X96674Y63368D02*
X104840Y71535D01*
X41969Y30906D02*
X47638D01*
X41969Y36811D02*
Y49055D01*
X67175Y189223D02*
X69685Y191732D01*
X66634Y188681D02*
X67175Y189223D01*
X67421Y188976D02*
X68209Y188189D01*
X60433D02*
X66634D01*
X67175Y189223D02*
X67421Y188976D01*
X66929Y189469D02*
X67175Y189223D01*
X69685Y191732D02*
Y195374D01*
X70079Y195768D01*
X66634Y188189D02*
Y188681D01*
X92624Y63368D02*
X96674D01*
X49213Y160630D02*
X50000Y161417D01*
X151378Y204134D02*
X177165Y178347D01*
Y149606D02*
Y178347D01*
X174447Y146888D02*
X177165Y149606D01*
X162634Y146888D02*
X174447D01*
X153543Y181496D02*
X157480D01*
X141339Y180118D02*
X144882D01*
X137795D02*
X141339D01*
X137795Y180118D02*
X137795Y180118D01*
X92285Y63030D02*
X92624Y63368D01*
X87833Y63030D02*
X92285D01*
X87795Y62992D02*
X87833Y63030D01*
X145276Y198425D02*
Y204331D01*
X114567Y73266D02*
X114605Y73228D01*
X137008D01*
X31864Y83858D02*
X31890Y83884D01*
X14173Y83858D02*
X31864D01*
X35827Y109252D02*
Y116535D01*
Y125984D01*
X38583Y128740D01*
X35630Y79134D02*
Y89764D01*
Y74213D02*
Y79134D01*
Y74213D02*
X35827Y74016D01*
X108366Y27264D02*
Y40278D01*
X107109Y41535D02*
X108366Y40278D01*
X104331Y41535D02*
X107109D01*
X64173Y202362D02*
Y213386D01*
Y202362D02*
X65650Y200886D01*
X70079D01*
Y198327D02*
Y200886D01*
X50000Y161417D02*
Y173622D01*
X40551D02*
X43898D01*
X52362Y192913D02*
Y195374D01*
X52756Y195768D01*
X13780Y197638D02*
X30020D01*
X92164Y39332D02*
X93701Y37795D01*
X87833Y39332D02*
X92164D01*
X87795Y39370D02*
X87833Y39332D01*
X93701Y28740D02*
Y37795D01*
X91732Y26772D02*
X93701Y28740D01*
X30020Y197638D02*
X31201Y198819D01*
X31398D01*
X36122Y203543D01*
X36220Y191339D02*
X36220Y191339D01*
X36220Y191339D02*
Y198031D01*
X70079Y203445D02*
X78248D01*
X78347Y203543D01*
X33465Y180709D02*
Y182677D01*
Y180709D02*
X34252Y179921D01*
X43898D01*
X47638Y116535D02*
X47638Y116535D01*
X41535Y116535D02*
X47638D01*
X35827Y116535D02*
X35827Y116535D01*
X41535D01*
Y122638D02*
Y125984D01*
X41339Y122441D02*
X41535Y122638D01*
X35630Y109055D02*
X35827Y109252D01*
X30315Y109055D02*
X33071D01*
X33071Y109055D01*
Y104331D02*
Y109055D01*
X114589Y67142D02*
X118913D01*
X121063Y69291D01*
X122047D01*
X114567Y67164D02*
X114589Y67142D01*
X108071D02*
X108093Y67164D01*
X114567D01*
X117323Y159843D02*
X123130D01*
X116043Y158563D02*
X117323Y159843D01*
X116043Y154724D02*
Y158563D01*
X123130Y159843D02*
X124650Y158323D01*
X135389D01*
X136909Y156802D01*
Y156512D02*
Y156802D01*
Y156512D02*
X137153Y156269D01*
Y154777D02*
Y156269D01*
Y154777D02*
X137303Y154626D01*
X118602Y154724D02*
X118701Y154626D01*
X129626D01*
X105020Y171358D02*
X108268Y174606D01*
X105020Y164665D02*
Y171358D01*
X104134Y163779D02*
X105020Y164665D01*
X92126Y174606D02*
X95276Y171457D01*
Y163779D02*
Y171457D01*
X102854Y162500D02*
X104134Y163779D01*
X97785Y155069D02*
X98130Y154724D01*
X97785Y155069D02*
Y159055D01*
X96555Y160285D02*
X97785Y159055D01*
X96555Y160285D02*
Y162500D01*
X95276Y163779D02*
X96555Y162500D01*
D14*
X115157Y165293D02*
Y179945D01*
X110850Y184252D02*
X115157Y179945D01*
X88779Y184252D02*
X110850D01*
X95642Y148819D02*
Y154654D01*
X95571Y154724D02*
X95642Y154654D01*
X109449Y159843D02*
Y163779D01*
X84785Y180258D02*
X88779Y184252D01*
X134153Y136909D02*
X134252Y137008D01*
X130807Y136909D02*
X134153D01*
X130709Y136811D02*
X130807Y136909D01*
X124016Y140157D02*
X124166Y140007D01*
Y137054D02*
Y140007D01*
Y137054D02*
X124409Y136811D01*
X125984Y148622D02*
X126083Y148524D01*
X129383D01*
X129481Y148425D01*
X125984Y142520D02*
X126135Y142369D01*
X129238D01*
X129481Y142126D01*
X132185Y153293D02*
Y154626D01*
X132087Y153195D02*
X132185Y153293D01*
X132087Y151808D02*
Y153195D01*
X131450Y151171D02*
X132087Y151808D01*
X131450Y150591D02*
Y151171D01*
X129481Y148622D02*
X131450Y150591D01*
X129481Y148425D02*
Y148622D01*
Y142126D02*
Y148425D01*
X134770Y148451D02*
X134796Y148425D01*
X134770Y148451D02*
Y154600D01*
X134744Y154626D02*
X134770Y154600D01*
X134796Y142126D02*
Y148425D01*
X113644Y163779D02*
X115157Y165293D01*
X109449Y163779D02*
X113644D01*
X84785Y165609D02*
Y180258D01*
Y165609D02*
X86614Y163779D01*
X89961D01*
Y157429D02*
X92665Y154724D01*
X89961Y157429D02*
Y163779D01*
X92665Y154724D02*
X95571D01*
X130709Y126969D02*
Y131496D01*
X128543Y124803D02*
X130709Y126969D01*
X122244Y124803D02*
X128543D01*
X124409Y131496D02*
X130709D01*
X118602D02*
X124409D01*
D15*
X5640Y28409D02*
Y75975D01*
X8996Y79331D01*
X35433D01*
X9559Y24490D02*
X108819D01*
X5640Y28409D02*
X9559Y24490D01*
X103248Y102362D02*
X105798D01*
X103248D02*
Y114370D01*
Y73327D02*
Y102362D01*
X106872Y126100D02*
X107879Y125094D01*
Y119001D02*
Y125094D01*
X103248Y114370D02*
X107879Y119001D01*
X104185Y126100D02*
X106872D01*
X103248Y127037D02*
X104185Y126100D01*
X103248Y127037D02*
Y131496D01*
X100689Y122638D02*
Y131496D01*
Y78299D02*
Y122638D01*
X104134D01*
X58661Y194882D02*
Y205512D01*
X54331Y190551D02*
X58661Y194882D01*
X54331Y188189D02*
Y190551D01*
X55216Y187992D02*
X55413Y188189D01*
X94882Y64961D02*
X103248Y73327D01*
X100689Y78299D02*
X100713Y78276D01*
X100689Y73130D02*
Y76031D01*
X98425Y70866D02*
X100689Y73130D01*
Y76031D02*
X100713Y76055D01*
Y78276D01*
X98081Y77215D02*
Y131447D01*
X98032Y77165D02*
X98081Y77215D01*
Y131447D02*
X98130Y131496D01*
X87795Y70866D02*
X98425D01*
X95423Y74163D02*
Y131348D01*
X95276Y74016D02*
X95423Y74163D01*
Y131348D02*
X95571Y131496D01*
X96891Y61024D02*
X97244D01*
X92954Y57087D02*
X96891Y61024D01*
X87795Y57087D02*
X92954D01*
X93307Y60256D02*
Y60837D01*
X87795Y64961D02*
X94882D01*
X92140Y59090D02*
X93307Y60256D01*
X87830Y59090D02*
X92140D01*
X35433Y79331D02*
X35630Y79134D01*
X108819Y24490D02*
X110647Y26319D01*
Y52153D01*
X107879Y54921D02*
X110647Y52153D01*
X104331Y54921D02*
X107879D01*
X47638Y122638D02*
X47835Y122441D01*
X57284Y206890D02*
X58661Y205512D01*
X45276Y206890D02*
X57284D01*
X41339D02*
X45276D01*
X39567Y208661D02*
X41339Y206890D01*
X36122Y208661D02*
X39567D01*
X91076Y45241D02*
X98032Y38286D01*
Y35433D02*
Y38286D01*
X87830Y45241D02*
X91076D01*
X87795Y47244D02*
X92864D01*
X98573Y41535D01*
X87795Y49213D02*
X96457D01*
X93701Y51968D02*
X95620D01*
X98573Y41535D02*
X104331D01*
X46457Y190157D02*
X50000Y186614D01*
Y179921D02*
Y186614D01*
X47982Y198327D02*
X52756D01*
X47482Y197827D02*
X47982Y198327D01*
X46457Y196850D02*
X47433Y197827D01*
X47482D01*
X46457Y190157D02*
Y196850D01*
X52658Y200787D02*
X52756Y200886D01*
Y203445D01*
X45276Y200787D02*
X52658D01*
X50000Y173622D02*
Y179921D01*
X38583Y149606D02*
X50000D01*
X50000Y149606D01*
X40551Y99213D02*
Y108858D01*
X40748Y109055D01*
X39173Y97835D02*
X40551Y99213D01*
X25685Y97835D02*
X39173D01*
X25685Y91732D02*
X25685Y91732D01*
X19882Y91732D02*
X25685D01*
X25685Y91732D02*
X33071D01*
X38189Y109055D02*
X40748D01*
X35630Y91732D02*
X38189D01*
X95620Y51968D02*
X97884Y54232D01*
X98130D01*
X116043Y124902D02*
Y131496D01*
Y124902D02*
X116142Y124803D01*
X87795Y59055D02*
X87830Y59090D01*
X87795Y70866D02*
X87795Y70866D01*
X98228Y30315D02*
X101969D01*
X98032Y30118D02*
X98228Y30315D01*
X87795Y45276D02*
X87830Y45241D01*
X98032Y35433D02*
X98032Y35433D01*
X104331D01*
X96457Y49213D02*
X103150D01*
X96457Y49213D02*
X96457Y49213D01*
D19*
X80709Y89764D02*
D03*
Y28346D02*
D03*
D20*
X73622Y82677D02*
D03*
Y80709D02*
D03*
Y78740D02*
D03*
Y76772D02*
D03*
Y74803D02*
D03*
Y72835D02*
D03*
Y70866D02*
D03*
Y68898D02*
D03*
Y66929D02*
D03*
Y64961D02*
D03*
Y62992D02*
D03*
Y61024D02*
D03*
Y59055D02*
D03*
Y57087D02*
D03*
Y55118D02*
D03*
Y53150D02*
D03*
Y51181D02*
D03*
Y49213D02*
D03*
Y47244D02*
D03*
Y45276D02*
D03*
Y43307D02*
D03*
Y41339D02*
D03*
Y39370D02*
D03*
Y37402D02*
D03*
Y35433D02*
D03*
X87795D02*
D03*
Y37402D02*
D03*
Y39370D02*
D03*
Y41339D02*
D03*
Y43307D02*
D03*
Y45276D02*
D03*
Y47244D02*
D03*
Y49213D02*
D03*
Y51181D02*
D03*
Y53150D02*
D03*
Y55118D02*
D03*
Y57087D02*
D03*
Y59055D02*
D03*
Y61024D02*
D03*
Y62992D02*
D03*
Y64961D02*
D03*
Y66929D02*
D03*
Y68898D02*
D03*
Y70866D02*
D03*
Y72835D02*
D03*
Y74803D02*
D03*
Y76772D02*
D03*
Y78740D02*
D03*
Y80709D02*
D03*
D21*
Y82677D02*
D03*
D22*
X91339Y10236D02*
D03*
X97441D02*
D03*
X151772Y210630D02*
D03*
X145669D02*
D03*
X30020Y197638D02*
D03*
X36122D02*
D03*
X116142Y124803D02*
D03*
X122244D02*
D03*
X54331Y188189D02*
D03*
X60433D02*
D03*
X145276Y204331D02*
D03*
X151378D02*
D03*
X36122Y208661D02*
D03*
X30020D02*
D03*
X43898Y173622D02*
D03*
X50000D02*
D03*
X43898Y179921D02*
D03*
X50000D02*
D03*
X30020Y203543D02*
D03*
X36122D02*
D03*
D23*
X91339Y16535D02*
D03*
X96653D02*
D03*
X134796Y148425D02*
D03*
X129481D02*
D03*
X134796Y142126D02*
D03*
X129481D02*
D03*
X109449Y163779D02*
D03*
X104134D02*
D03*
X89961D02*
D03*
X95276D02*
D03*
X78347Y197244D02*
D03*
X83661D02*
D03*
X62402Y140157D02*
D03*
X67716D02*
D03*
X78937Y140007D02*
D03*
X73622D02*
D03*
X78347Y203543D02*
D03*
X83661D02*
D03*
D24*
X184602Y184684D02*
D03*
Y132715D02*
D03*
D25*
X162634Y170510D02*
D03*
Y162636D02*
D03*
Y154762D02*
D03*
D26*
Y146888D02*
D03*
D27*
X161417Y177953D02*
D03*
Y185039D02*
D03*
X153543Y181496D02*
D03*
D28*
X144882Y180118D02*
D03*
Y174016D02*
D03*
X137795Y180118D02*
D03*
Y186221D02*
D03*
X104331Y54921D02*
D03*
Y48819D02*
D03*
Y41535D02*
D03*
Y35433D02*
D03*
X108071Y73244D02*
D03*
Y67142D02*
D03*
X114567Y67164D02*
D03*
Y73266D02*
D03*
X19882Y97835D02*
D03*
Y91732D02*
D03*
X45276Y200787D02*
D03*
Y206890D02*
D03*
X47638Y30906D02*
D03*
Y37008D02*
D03*
X25685Y91732D02*
D03*
Y97835D02*
D03*
X47638Y116535D02*
D03*
Y122638D02*
D03*
X41535Y122638D02*
D03*
Y116535D02*
D03*
D29*
X137303Y165059D02*
D03*
X134744D02*
D03*
X132185D02*
D03*
X129626D02*
D03*
X137303Y154626D02*
D03*
X134744D02*
D03*
X132185D02*
D03*
D30*
X129626D02*
D03*
D31*
X122047Y79331D02*
D03*
D32*
Y69291D02*
D03*
D33*
X114173Y52953D02*
D03*
Y58268D02*
D03*
X98130Y54232D02*
D03*
Y48917D02*
D03*
X98032Y30118D02*
D03*
Y35433D02*
D03*
X53937Y91732D02*
D03*
Y97047D02*
D03*
X124409Y131496D02*
D03*
Y136811D02*
D03*
X130709Y131496D02*
D03*
Y136811D02*
D03*
X47638Y91732D02*
D03*
Y97047D02*
D03*
D34*
X53795Y135827D02*
D03*
X37795D02*
D03*
D35*
X38583Y149606D02*
D03*
Y165606D02*
D03*
D36*
X66634Y188189D02*
D03*
X73524D02*
D03*
D37*
X41929Y83884D02*
D03*
X45866Y74016D02*
D03*
D38*
X31890Y83884D02*
D03*
X35827Y74016D02*
D03*
D39*
X118602Y154724D02*
D03*
X116043D02*
D03*
X113484D02*
D03*
X110925D02*
D03*
X108366D02*
D03*
X105807D02*
D03*
X103248D02*
D03*
X100689D02*
D03*
X98130D02*
D03*
X95571D02*
D03*
X118602Y131496D02*
D03*
X116043D02*
D03*
X113484D02*
D03*
X110925D02*
D03*
X108366D02*
D03*
X105807D02*
D03*
X103248D02*
D03*
X100689D02*
D03*
X98130D02*
D03*
X95571D02*
D03*
X40748Y109055D02*
D03*
D40*
X70079Y195768D02*
D03*
Y198327D02*
D03*
Y200886D02*
D03*
Y203445D02*
D03*
X52756Y195768D02*
D03*
Y198327D02*
D03*
Y200886D02*
D03*
D41*
Y203445D02*
D03*
D42*
X38189Y109055D02*
D03*
X35630D02*
D03*
X33071D02*
D03*
X40748Y91732D02*
D03*
X38189D02*
D03*
X35630D02*
D03*
X33071D02*
D03*
D43*
X145276Y198425D02*
D03*
X151181D02*
D03*
D44*
X69095Y172710D02*
D03*
D45*
X78150Y149876D02*
D03*
X69095D02*
D03*
X60039D02*
D03*
D46*
X92126Y174606D02*
D03*
X108268D02*
D03*
D47*
X50000Y149606D02*
D03*
Y160630D02*
D03*
D48*
X41969Y36811D02*
D03*
Y30906D02*
D03*
D49*
X32677Y183071D02*
D03*
X29134Y190945D02*
D03*
X36220D02*
D03*
D89*
X106872Y102362D02*
D03*
X92140Y124016D02*
D03*
X104134Y122638D02*
D03*
X84378Y124016D02*
D03*
X114173Y110236D02*
D03*
D90*
X149302Y178435D02*
X160935D01*
X152667Y185039D02*
X161417D01*
X163341Y180177D02*
X165675D01*
X162303Y179139D02*
X163341Y180177D01*
X162303Y178642D02*
Y179139D01*
X160935Y178435D02*
X161417Y177953D01*
X165675Y180177D02*
X170881Y174971D01*
Y169323D02*
Y174971D01*
X164498Y170510D02*
X167116Y167892D01*
X169450D01*
X170881Y169323D01*
X162634Y170510D02*
X164498D01*
X144882Y174016D02*
X149302Y178435D01*
X141041Y174016D02*
X144882D01*
X139466Y175591D02*
X141041Y174016D01*
X135791Y175591D02*
X139466D01*
X134932Y174732D02*
X135791Y175591D01*
X134932Y165832D02*
Y174732D01*
X134744Y165059D02*
Y165644D01*
X134932Y165832D01*
X162303Y183853D02*
Y184350D01*
Y183853D02*
X163341Y182815D01*
X166767D02*
X173519Y176064D01*
X163341Y182815D02*
X166767D01*
X173519Y168230D02*
Y176064D01*
X170543Y165254D02*
X173519Y168230D01*
X167116Y165254D02*
X170543D01*
X164498Y162636D02*
X167116Y165254D01*
X162634Y162636D02*
X164498D01*
X151486Y186221D02*
X152667Y185039D01*
X137795Y186221D02*
X151486D01*
X133858Y182283D02*
X137795Y186221D01*
X133858Y177389D02*
Y182283D01*
X132294Y175824D02*
X133858Y177389D01*
X132294Y166924D02*
Y175824D01*
D91*
X11811Y135827D02*
X38583D01*
X11811Y149606D02*
X38583D01*
D92*
X54146Y49213D02*
X57087Y52153D01*
X11811Y49213D02*
X54146D01*
X60039Y79331D02*
X68110D01*
X57087Y76378D02*
X60039Y79331D01*
X57087Y52153D02*
Y76378D01*
D93*
X83661Y194027D02*
Y197244D01*
Y203543D02*
Y206890D01*
X50993Y36803D02*
X51181Y36614D01*
X47843Y36803D02*
X50993D01*
X47638Y37008D02*
X47843Y36803D01*
X73228Y183071D02*
Y186909D01*
X168816Y154681D02*
X168898Y154600D01*
X162715Y154681D02*
X168816D01*
X162634Y154762D02*
X162715Y154681D01*
X156299Y154675D02*
X156343Y154719D01*
X162590D01*
X162634Y154762D01*
X78740Y140204D02*
Y142913D01*
Y140204D02*
X78937Y140007D01*
X78150Y143504D02*
X78740Y142913D01*
X78150Y143504D02*
Y149876D01*
X78937Y122244D02*
Y140007D01*
X77165Y120472D02*
X78937Y122244D01*
X64961Y120472D02*
X77165D01*
D94*
X53937Y91732D02*
X61598D01*
X60039Y141535D02*
Y149876D01*
Y141535D02*
X61417Y140157D01*
X47638Y91732D02*
X53937D01*
X40748D02*
X47638D01*
X40748Y91732D02*
X40748Y91732D01*
D95*
X87583Y124016D02*
Y137748D01*
Y88764D02*
Y124016D01*
X84378D02*
X87583D01*
X89370D02*
Y135780D01*
Y88195D02*
Y124016D01*
X92140D01*
X91386Y137795D02*
X107480D01*
X89370Y135780D02*
X91386Y137795D01*
X96303Y58268D02*
X114173D01*
X91223Y53187D02*
X96303Y58268D01*
X87833Y53187D02*
X91223D01*
X85821Y84646D02*
X89370Y88195D01*
X84280Y84646D02*
X85821D01*
X85131Y86312D02*
X87583Y88764D01*
X83341Y86312D02*
X85131D01*
X80890Y83860D02*
X83341Y86312D01*
X83413Y83778D02*
X84280Y84646D01*
X83413Y83761D02*
Y83778D01*
X82677Y83025D02*
X83413Y83761D01*
X82677Y69685D02*
Y83025D01*
X114173Y66770D02*
X114567Y67164D01*
X114173Y58268D02*
Y66770D01*
X87795Y53150D02*
X87833Y53187D01*
X110925Y131496D02*
Y138091D01*
X108252Y140764D02*
X110925Y138091D01*
X90598Y140764D02*
X108252D01*
X107480Y137795D02*
X108366Y136909D01*
X82905Y66929D02*
X87795D01*
X80890Y68945D02*
X82905Y66929D01*
X80890Y68945D02*
Y83860D01*
X87583Y137748D02*
X90598Y140764D01*
X83465Y68898D02*
X87795D01*
X87795Y68898D01*
X82677Y69685D02*
X83465Y68898D01*
X108366Y131496D02*
Y136909D01*
D96*
X140551Y131496D02*
Y139887D01*
Y79134D02*
Y131496D01*
X130709D02*
X140551D01*
Y59090D02*
Y79134D01*
X138706Y141732D02*
X140551Y139887D01*
X134993Y141732D02*
X138706D01*
X134796Y141929D02*
X134993Y141732D01*
X134796Y141929D02*
Y142126D01*
D97*
X74803Y86811D02*
D03*
Y31299D02*
D03*
D98*
X111811Y205118D02*
D03*
D99*
X125591D02*
D03*
X101969Y202638D02*
D03*
X135433D02*
D03*
X11811Y163386D02*
D03*
Y149606D02*
D03*
Y62992D02*
D03*
X14291Y39370D02*
D03*
Y72835D02*
D03*
D100*
X11811Y135827D02*
D03*
Y49213D02*
D03*
D101*
X9843Y9843D02*
D03*
X187008D02*
D03*
X68898D02*
D03*
Y108268D02*
D03*
X187008D02*
D03*
Y206693D02*
D03*
X9843Y206693D02*
D03*
D102*
X147244Y137402D02*
D03*
X149606Y178347D02*
D03*
X153150Y185039D02*
D03*
X150000Y181496D02*
D03*
X177165Y122047D02*
D03*
X190945Y94488D02*
D03*
X177165Y66929D02*
D03*
X190945Y39370D02*
D03*
X149606Y122047D02*
D03*
Y66929D02*
D03*
X163386Y39370D02*
D03*
X122047Y177165D02*
D03*
X135827Y94488D02*
D03*
Y39370D02*
D03*
X108268Y94488D02*
D03*
X80709D02*
D03*
X39370Y177165D02*
D03*
Y66929D02*
D03*
X53150Y39370D02*
D03*
X39370Y11811D02*
D03*
X25591Y39370D02*
D03*
X155512Y210630D02*
D03*
X87795Y19685D02*
D03*
X87830Y29528D02*
D03*
X101181Y16535D02*
D03*
X83661Y194027D02*
D03*
Y206890D02*
D03*
X51181Y36614D02*
D03*
X80709Y36220D02*
D03*
Y39567D02*
D03*
Y43307D02*
D03*
X67716Y43307D02*
D03*
Y39567D02*
D03*
X67716Y36220D02*
D03*
X73228Y183071D02*
D03*
X92913Y85039D02*
D03*
Y77559D02*
D03*
Y81102D02*
D03*
X95642Y148819D02*
D03*
X79259Y173622D02*
D03*
Y176772D02*
D03*
X72835Y143504D02*
D03*
X66535D02*
D03*
Y162992D02*
D03*
X69685D02*
D03*
X72835D02*
D03*
X75984D02*
D03*
X77559Y160274D02*
D03*
X74410Y160335D02*
D03*
X71260D02*
D03*
X68110D02*
D03*
X64773D02*
D03*
X168898Y154600D02*
D03*
X156299Y154675D02*
D03*
X157480Y181496D02*
D03*
X128347Y180118D02*
D03*
X141535Y180315D02*
D03*
X64173Y66535D02*
D03*
X67716D02*
D03*
X47244D02*
D03*
X109449Y159843D02*
D03*
X97244Y61024D02*
D03*
X93307Y60837D02*
D03*
X151181Y195276D02*
D03*
X137008Y73228D02*
D03*
X144882D02*
D03*
X79259Y66535D02*
D03*
Y63779D02*
D03*
X140551Y59090D02*
D03*
X14173Y83858D02*
D03*
X52756Y120669D02*
D03*
X91732Y22047D02*
D03*
X108366Y27264D02*
D03*
X64173Y213386D02*
D03*
X40551Y173622D02*
D03*
X52362Y192913D02*
D03*
X91732Y26772D02*
D03*
X64961Y120472D02*
D03*
X32283Y190945D02*
D03*
X29134Y187402D02*
D03*
X26772Y208268D02*
D03*
Y203543D02*
D03*
X93701Y51968D02*
D03*
X53795Y100394D02*
D03*
X47638Y100394D02*
D03*
X53149Y129527D02*
D03*
X41535Y125984D02*
D03*
X30315Y109055D02*
D03*
X33071Y104331D02*
D03*
X20079Y101181D02*
D03*
X38583Y160274D02*
D03*
X32283Y165307D02*
D03*
X44488Y165354D02*
D03*
X48031Y135827D02*
D03*
X108071Y76772D02*
D03*
X134252Y137008D02*
D03*
X124016Y140157D02*
D03*
X125984Y148622D02*
D03*
Y142520D02*
D03*
X98032Y77165D02*
D03*
X95276Y74016D02*
D03*
X101969Y30315D02*
D03*
M02*
