G04*
G04 #@! TF.GenerationSoftware,Altium Limited,Altium Designer,19.0.10 (269)*
G04*
G04 Layer_Physical_Order=1*
G04 Layer_Color=255*
%FSLAX25Y25*%
%MOIN*%
G70*
G01*
G75*
%ADD10C,0.01000*%
%ADD11C,0.00984*%
%ADD16R,0.05512X0.04528*%
%ADD17R,0.03150X0.03150*%
%ADD18R,0.03347X0.03347*%
%ADD19R,0.05118X0.05118*%
G04:AMPARAMS|DCode=20|XSize=51.18mil|YSize=51.18mil|CornerRadius=12.8mil|HoleSize=0mil|Usage=FLASHONLY|Rotation=180.000|XOffset=0mil|YOffset=0mil|HoleType=Round|Shape=RoundedRectangle|*
%AMROUNDEDRECTD20*
21,1,0.05118,0.02559,0,0,180.0*
21,1,0.02559,0.05118,0,0,180.0*
1,1,0.02559,-0.01280,0.01280*
1,1,0.02559,0.01280,0.01280*
1,1,0.02559,0.01280,-0.01280*
1,1,0.02559,-0.01280,-0.01280*
%
%ADD20ROUNDEDRECTD20*%
G04:AMPARAMS|DCode=21|XSize=51.18mil|YSize=78.74mil|CornerRadius=12.8mil|HoleSize=0mil|Usage=FLASHONLY|Rotation=180.000|XOffset=0mil|YOffset=0mil|HoleType=Round|Shape=RoundedRectangle|*
%AMROUNDEDRECTD21*
21,1,0.05118,0.05315,0,0,180.0*
21,1,0.02559,0.07874,0,0,180.0*
1,1,0.02559,-0.01280,0.02657*
1,1,0.02559,0.01280,0.02657*
1,1,0.02559,0.01280,-0.02657*
1,1,0.02559,-0.01280,-0.02657*
%
%ADD21ROUNDEDRECTD21*%
%ADD22R,0.03347X0.03347*%
%ADD23R,0.03543X0.03937*%
%ADD24R,0.03937X0.03543*%
%ADD25R,0.03347X0.01378*%
%ADD26R,0.07087X0.03150*%
%ADD27R,0.06299X0.01181*%
%ADD28O,0.06299X0.01181*%
%ADD55C,0.02953*%
%ADD56C,0.02165*%
%ADD57C,0.01968*%
%ADD58R,0.06000X0.06000*%
%ADD59C,0.06000*%
%ADD60C,0.05906*%
%ADD61R,0.05906X0.05906*%
%ADD62R,0.06693X0.06693*%
%ADD63C,0.06693*%
%ADD64R,0.06299X0.06299*%
%ADD65C,0.06299*%
%ADD66C,0.10630*%
%ADD67R,0.08661X0.08661*%
%ADD68C,0.08661*%
%ADD69C,0.02756*%
%ADD70C,0.02362*%
G36*
X39291Y106695D02*
X39206Y106665D01*
X39131Y106615D01*
X39066Y106545D01*
X39011Y106455D01*
X38966Y106345D01*
X38931Y106215D01*
X38906Y106065D01*
X38891Y105895D01*
X38886Y105705D01*
X37886D01*
X37881Y105895D01*
X37866Y106065D01*
X37841Y106215D01*
X37806Y106345D01*
X37761Y106455D01*
X37706Y106545D01*
X37641Y106615D01*
X37566Y106665D01*
X37481Y106695D01*
X37386Y106705D01*
X39386D01*
X39291Y106695D01*
D02*
G37*
G36*
X27422Y106173D02*
X26640Y105391D01*
X26235Y105686D01*
X26320Y106112D01*
X26320Y106112D01*
Y143396D01*
X27422D01*
Y106173D01*
D02*
G37*
G36*
X38891Y103650D02*
X38906Y103478D01*
X38931Y103326D01*
X38966Y103195D01*
X39011Y103083D01*
X39066Y102992D01*
X39131Y102921D01*
X39206Y102871D01*
X39291Y102840D01*
X39386Y102830D01*
X37386D01*
X37481Y102840D01*
X37566Y102871D01*
X37641Y102921D01*
X37706Y102992D01*
X37761Y103083D01*
X37806Y103195D01*
X37841Y103326D01*
X37866Y103478D01*
X37881Y103650D01*
X37886Y103842D01*
X38886D01*
X38891Y103650D01*
D02*
G37*
G36*
X46258Y102007D02*
X46288Y101922D01*
X46338Y101847D01*
X46408Y101782D01*
X46498Y101727D01*
X46608Y101682D01*
X46738Y101647D01*
X46888Y101622D01*
X47058Y101607D01*
X47142Y101605D01*
X47160Y101605D01*
X47274Y101615D01*
X47383Y101632D01*
X47485Y101655D01*
X47581Y101684D01*
X47672Y101720D01*
X47757Y101762D01*
X47835Y101811D01*
X47908Y101867D01*
X47975Y101929D01*
Y100276D01*
X47908Y100338D01*
X47835Y100393D01*
X47757Y100442D01*
X47672Y100485D01*
X47581Y100521D01*
X47485Y100550D01*
X47383Y100573D01*
X47274Y100589D01*
X47160Y100599D01*
X47142Y100600D01*
X47058Y100597D01*
X46888Y100582D01*
X46738Y100557D01*
X46608Y100522D01*
X46498Y100477D01*
X46408Y100422D01*
X46338Y100357D01*
X46288Y100282D01*
X46258Y100197D01*
X46248Y100102D01*
Y102102D01*
X46258Y102007D01*
D02*
G37*
G36*
X39389Y99522D02*
X39304Y99491D01*
X39229Y99441D01*
X39164Y99370D01*
X39109Y99279D01*
X39064Y99168D01*
X39029Y99036D01*
X39004Y98884D01*
X38989Y98712D01*
X38984Y98520D01*
X37984D01*
X37979Y98712D01*
X37964Y98884D01*
X37939Y99036D01*
X37904Y99168D01*
X37859Y99279D01*
X37804Y99370D01*
X37739Y99441D01*
X37664Y99491D01*
X37579Y99522D01*
X37484Y99532D01*
X39484D01*
X39389Y99522D01*
D02*
G37*
G36*
X38989Y96563D02*
X39004Y96391D01*
X39029Y96240D01*
X39064Y96108D01*
X39109Y95997D01*
X39164Y95906D01*
X39229Y95835D01*
X39304Y95784D01*
X39389Y95754D01*
X39484Y95744D01*
X37484D01*
X37579Y95754D01*
X37664Y95784D01*
X37739Y95835D01*
X37804Y95906D01*
X37859Y95997D01*
X37904Y96108D01*
X37939Y96240D01*
X37964Y96391D01*
X37979Y96563D01*
X37984Y96756D01*
X38984D01*
X38989Y96563D01*
D02*
G37*
G36*
X45492Y92435D02*
X45407Y92405D01*
X45332Y92354D01*
X45267Y92283D01*
X45212Y92192D01*
X45167Y92081D01*
X45132Y91949D01*
X45107Y91798D01*
X45092Y91625D01*
X45087Y91433D01*
X44087D01*
X44082Y91625D01*
X44067Y91798D01*
X44042Y91949D01*
X44007Y92081D01*
X43962Y92192D01*
X43907Y92283D01*
X43842Y92354D01*
X43767Y92405D01*
X43682Y92435D01*
X43587Y92445D01*
X45587D01*
X45492Y92435D01*
D02*
G37*
G36*
X34312Y106011D02*
Y96134D01*
X26297Y88119D01*
X25797Y88326D01*
Y91939D01*
X21120D01*
X20853Y92439D01*
X20969Y92612D01*
X21107Y93307D01*
X21082Y93435D01*
X33850Y106203D01*
X34312Y106011D01*
D02*
G37*
G36*
X33408Y81850D02*
X33342Y81912D01*
X33269Y81968D01*
X33190Y82017D01*
X33105Y82060D01*
X33015Y82095D01*
X32918Y82125D01*
X32816Y82148D01*
X32708Y82164D01*
X32617Y82172D01*
X31918Y82127D01*
X31888Y82113D01*
X31878Y82099D01*
Y83256D01*
X31888Y83241D01*
X31918Y83227D01*
X31968Y83216D01*
X32038Y83205D01*
X32238Y83190D01*
X32615Y83182D01*
X32708Y83190D01*
X32816Y83207D01*
X32918Y83229D01*
X33015Y83259D01*
X33105Y83295D01*
X33190Y83337D01*
X33269Y83386D01*
X33342Y83442D01*
X33408Y83504D01*
Y81850D01*
D02*
G37*
G36*
X29245Y82106D02*
X29246Y82099D01*
X29740D01*
X29645Y82089D01*
X29560Y82059D01*
X29485Y82008D01*
X29420Y81938D01*
X29365Y81849D01*
X29320Y81739D01*
X29308Y81695D01*
X29320Y81651D01*
X29365Y81539D01*
X29420Y81448D01*
X29485Y81378D01*
X29560Y81327D01*
X29645Y81297D01*
X29740Y81287D01*
X29245D01*
X29240Y81099D01*
X28240D01*
X28235Y81287D01*
X27740D01*
X27835Y81297D01*
X27920Y81327D01*
X27995Y81378D01*
X28060Y81448D01*
X28115Y81539D01*
X28160Y81651D01*
X28172Y81695D01*
X28160Y81739D01*
X28115Y81849D01*
X28060Y81938D01*
X27995Y82008D01*
X27920Y82059D01*
X27835Y82089D01*
X27740Y82099D01*
X28234D01*
X28235Y82106D01*
X28240Y82298D01*
X29240D01*
X29245Y82106D01*
D02*
G37*
G36*
X15555Y80444D02*
X15577Y80131D01*
X15946D01*
X15871Y80117D01*
X15804Y80075D01*
X15744Y80006D01*
X15693Y79908D01*
X15650Y79783D01*
X15636Y79724D01*
X15650Y79666D01*
X15693Y79540D01*
X15744Y79443D01*
X15804Y79374D01*
X15871Y79332D01*
X15946Y79318D01*
X15574D01*
X15567Y79241D01*
X15551Y78740D01*
X15555Y78476D01*
X15577Y78162D01*
X15739D01*
X15703Y78150D01*
X15672Y78115D01*
X15643Y78056D01*
X15619Y77973D01*
X15606Y77905D01*
X15614Y77850D01*
X15650Y77697D01*
X15693Y77572D01*
X15744Y77475D01*
X15804Y77405D01*
X15871Y77363D01*
X15946Y77350D01*
X15558D01*
X15551Y76978D01*
X13583D01*
X13581Y77203D01*
X13571Y77350D01*
X13188D01*
X13263Y77363D01*
X13330Y77405D01*
X13389Y77475D01*
X13441Y77572D01*
X13484Y77697D01*
X13520Y77850D01*
X13528Y77905D01*
X13515Y77973D01*
X13490Y78056D01*
X13462Y78115D01*
X13430Y78150D01*
X13395Y78162D01*
X13560D01*
X13567Y78240D01*
X13583Y78740D01*
X13579Y79004D01*
X13556Y79318D01*
X13188D01*
X13263Y79332D01*
X13330Y79374D01*
X13389Y79443D01*
X13441Y79540D01*
X13484Y79666D01*
X13498Y79724D01*
X13484Y79783D01*
X13441Y79908D01*
X13389Y80006D01*
X13330Y80075D01*
X13263Y80117D01*
X13188Y80131D01*
X13560D01*
X13567Y80208D01*
X13583Y80709D01*
X15551D01*
X15555Y80444D01*
D02*
G37*
G36*
X15072Y72264D02*
X15073Y72257D01*
X15567D01*
X15472Y72247D01*
X15387Y72216D01*
X15312Y72166D01*
X15247Y72095D01*
X15192Y72004D01*
X15147Y71892D01*
X15136Y71850D01*
X15147Y71808D01*
X15192Y71697D01*
X15247Y71606D01*
X15312Y71535D01*
X15387Y71484D01*
X15472Y71454D01*
X15567Y71444D01*
X15073D01*
X15072Y71437D01*
X15067Y71245D01*
X14067D01*
X14062Y71437D01*
X14061Y71444D01*
X13567D01*
X13662Y71454D01*
X13747Y71484D01*
X13822Y71535D01*
X13887Y71606D01*
X13942Y71697D01*
X13987Y71808D01*
X13998Y71850D01*
X13987Y71892D01*
X13942Y72004D01*
X13887Y72095D01*
X13822Y72166D01*
X13747Y72216D01*
X13662Y72247D01*
X13567Y72257D01*
X14061D01*
X14062Y72264D01*
X14067Y72456D01*
X15067D01*
X15072Y72264D01*
D02*
G37*
G36*
Y70295D02*
X15073Y70288D01*
X15567D01*
X15472Y70278D01*
X15387Y70248D01*
X15312Y70197D01*
X15247Y70126D01*
X15192Y70035D01*
X15147Y69924D01*
X15136Y69882D01*
X15147Y69840D01*
X15192Y69728D01*
X15247Y69637D01*
X15312Y69567D01*
X15387Y69516D01*
X15472Y69486D01*
X15567Y69476D01*
X15073D01*
X15072Y69468D01*
X15067Y69276D01*
X14067D01*
X14062Y69468D01*
X14061Y69476D01*
X13567D01*
X13662Y69486D01*
X13747Y69516D01*
X13822Y69567D01*
X13887Y69637D01*
X13942Y69728D01*
X13987Y69840D01*
X13998Y69882D01*
X13987Y69924D01*
X13942Y70035D01*
X13887Y70126D01*
X13822Y70197D01*
X13747Y70248D01*
X13662Y70278D01*
X13567Y70288D01*
X14061D01*
X14062Y70295D01*
X14067Y70487D01*
X15067D01*
X15072Y70295D01*
D02*
G37*
G36*
Y68327D02*
X15073Y68320D01*
X15567D01*
X15472Y68310D01*
X15387Y68279D01*
X15312Y68229D01*
X15247Y68158D01*
X15192Y68067D01*
X15147Y67955D01*
X15136Y67913D01*
X15147Y67871D01*
X15192Y67760D01*
X15247Y67669D01*
X15312Y67598D01*
X15387Y67547D01*
X15472Y67517D01*
X15567Y67507D01*
X15073D01*
X15072Y67500D01*
X15067Y67308D01*
X14067D01*
X14062Y67500D01*
X14061Y67507D01*
X13567D01*
X13662Y67517D01*
X13747Y67547D01*
X13822Y67598D01*
X13887Y67669D01*
X13942Y67760D01*
X13987Y67871D01*
X13998Y67913D01*
X13987Y67955D01*
X13942Y68067D01*
X13887Y68158D01*
X13822Y68229D01*
X13747Y68279D01*
X13662Y68310D01*
X13567Y68320D01*
X14061D01*
X14062Y68327D01*
X14067Y68519D01*
X15067D01*
X15072Y68327D01*
D02*
G37*
G36*
Y66358D02*
X15073Y66351D01*
X15567D01*
X15472Y66341D01*
X15387Y66311D01*
X15312Y66260D01*
X15247Y66189D01*
X15192Y66098D01*
X15147Y65987D01*
X15136Y65945D01*
X15147Y65903D01*
X15192Y65791D01*
X15247Y65700D01*
X15312Y65630D01*
X15387Y65579D01*
X15472Y65549D01*
X15567Y65539D01*
X15073D01*
X15072Y65531D01*
X15067Y65339D01*
X14067D01*
X14062Y65531D01*
X14061Y65539D01*
X13567D01*
X13662Y65549D01*
X13747Y65579D01*
X13822Y65630D01*
X13887Y65700D01*
X13942Y65791D01*
X13987Y65903D01*
X13998Y65945D01*
X13987Y65987D01*
X13942Y66098D01*
X13887Y66189D01*
X13822Y66260D01*
X13747Y66311D01*
X13662Y66341D01*
X13567Y66351D01*
X14061D01*
X14062Y66358D01*
X14067Y66550D01*
X15067D01*
X15072Y66358D01*
D02*
G37*
G36*
Y64390D02*
X15087Y64218D01*
X15112Y64066D01*
X15147Y63934D01*
X15192Y63823D01*
X15247Y63732D01*
X15312Y63661D01*
X15387Y63610D01*
X15472Y63580D01*
X15567Y63570D01*
X13567D01*
X13662Y63580D01*
X13747Y63610D01*
X13822Y63661D01*
X13887Y63732D01*
X13942Y63823D01*
X13987Y63934D01*
X14022Y64066D01*
X14047Y64218D01*
X14062Y64390D01*
X14067Y64582D01*
X15067D01*
X15072Y64390D01*
D02*
G37*
G36*
X17365Y57630D02*
X17397Y57628D01*
X18367Y57621D01*
X18471Y56621D01*
X18280Y56620D01*
X17435Y56570D01*
X17384Y56557D01*
X17352Y56542D01*
Y57632D01*
X17365Y57630D01*
D02*
G37*
G36*
X55104Y53956D02*
X55135Y53871D01*
X55185Y53796D01*
X55256Y53731D01*
X55347Y53676D01*
X55458Y53631D01*
X55590Y53596D01*
X55742Y53571D01*
X55878Y53559D01*
X55936Y53564D01*
X56044Y53581D01*
X56146Y53603D01*
X56243Y53633D01*
X56334Y53669D01*
X56418Y53711D01*
X56497Y53760D01*
X56570Y53816D01*
X56637Y53878D01*
Y52224D01*
X56570Y52286D01*
X56497Y52342D01*
X56418Y52391D01*
X56334Y52434D01*
X56243Y52469D01*
X56146Y52499D01*
X56044Y52522D01*
X55936Y52538D01*
X55878Y52543D01*
X55742Y52531D01*
X55590Y52506D01*
X55458Y52471D01*
X55347Y52426D01*
X55256Y52371D01*
X55185Y52306D01*
X55135Y52231D01*
X55104Y52146D01*
X55094Y52051D01*
Y54051D01*
X55104Y53956D01*
D02*
G37*
G36*
X48149Y51490D02*
X48064Y51460D01*
X47989Y51409D01*
X47924Y51338D01*
X47869Y51247D01*
X47824Y51136D01*
X47789Y51004D01*
X47764Y50853D01*
X47749Y50681D01*
X47744Y50488D01*
X46744D01*
X46739Y50681D01*
X46724Y50853D01*
X46699Y51004D01*
X46664Y51136D01*
X46619Y51247D01*
X46564Y51338D01*
X46499Y51409D01*
X46424Y51460D01*
X46339Y51490D01*
X46244Y51500D01*
X48244D01*
X48149Y51490D01*
D02*
G37*
G36*
X31548Y49749D02*
X31589Y49741D01*
X31649Y49735D01*
X31942Y49720D01*
X32592Y49713D01*
Y48713D01*
X31525Y48668D01*
Y49758D01*
X31548Y49749D01*
D02*
G37*
G36*
X40874Y57478D02*
X40796Y57087D01*
X40957Y56276D01*
X41416Y55590D01*
X42103Y55131D01*
X42913Y54970D01*
X45069D01*
Y50876D01*
X46061D01*
X46063Y50868D01*
X46079Y50772D01*
X46090Y50644D01*
X46095Y50472D01*
X46123Y50409D01*
Y48410D01*
X46095Y48347D01*
X46095Y48332D01*
X45876Y48079D01*
X45688Y47994D01*
X45583Y47980D01*
X45493Y47943D01*
X44971D01*
Y47822D01*
X44745Y47804D01*
X44577Y47803D01*
X44511Y47775D01*
X43378D01*
X41147Y50006D01*
X40784Y50249D01*
X40354Y50334D01*
X40354Y50334D01*
X33730D01*
X33523Y50834D01*
X40413Y57725D01*
X40874Y57478D01*
D02*
G37*
G36*
X47749Y48138D02*
X47764Y47966D01*
X47789Y47814D01*
X47824Y47683D01*
X47869Y47572D01*
X47924Y47480D01*
X47989Y47410D01*
X48064Y47359D01*
X48149Y47329D01*
X48244Y47319D01*
X46244D01*
X46339Y47329D01*
X46424Y47359D01*
X46499Y47410D01*
X46564Y47480D01*
X46619Y47572D01*
X46664Y47683D01*
X46699Y47814D01*
X46724Y47966D01*
X46739Y48138D01*
X46744Y48331D01*
X47744D01*
X47749Y48138D01*
D02*
G37*
G36*
X31548Y47780D02*
X31589Y47773D01*
X31649Y47766D01*
X31942Y47751D01*
X32592Y47744D01*
Y46744D01*
X31525Y46699D01*
Y47789D01*
X31548Y47780D01*
D02*
G37*
G36*
X45583Y45977D02*
X45573Y46010D01*
X45543Y46040D01*
X45493Y46067D01*
X45423Y46090D01*
X45333Y46109D01*
X45223Y46125D01*
X44943Y46147D01*
X44583Y46154D01*
Y47153D01*
X44773Y47155D01*
X45333Y47198D01*
X45423Y47217D01*
X45493Y47240D01*
X45543Y47267D01*
X45573Y47297D01*
X45583Y47330D01*
Y45977D01*
D02*
G37*
G36*
X31548Y45812D02*
X31589Y45804D01*
X31649Y45798D01*
X31942Y45783D01*
X32592Y45776D01*
Y44776D01*
X31525Y44731D01*
Y45821D01*
X31548Y45812D01*
D02*
G37*
G36*
X39088Y39182D02*
X39103Y39009D01*
X39128Y38858D01*
X39163Y38726D01*
X39208Y38615D01*
X39263Y38524D01*
X39328Y38453D01*
X39403Y38402D01*
X39488Y38372D01*
X39583Y38362D01*
X37583D01*
X37678Y38372D01*
X37763Y38402D01*
X37838Y38453D01*
X37903Y38524D01*
X37958Y38615D01*
X38003Y38726D01*
X38038Y38858D01*
X38063Y39009D01*
X38078Y39182D01*
X38083Y39374D01*
X39083D01*
X39088Y39182D01*
D02*
G37*
G36*
X36638Y35614D02*
X36628Y35709D01*
X36598Y35794D01*
X36547Y35869D01*
X36476Y35934D01*
X36385Y35989D01*
X36274Y36034D01*
X36142Y36069D01*
X35991Y36094D01*
X35818Y36109D01*
X35626Y36114D01*
Y37114D01*
X35818Y37119D01*
X35991Y37134D01*
X36142Y37159D01*
X36274Y37194D01*
X36385Y37239D01*
X36476Y37294D01*
X36547Y37359D01*
X36598Y37434D01*
X36628Y37519D01*
X36638Y37614D01*
Y35614D01*
D02*
G37*
G36*
X37461Y40480D02*
Y39453D01*
X37433Y39391D01*
X37429Y39218D01*
X37418Y39091D01*
X37402Y38994D01*
X37400Y38986D01*
X36014D01*
Y37797D01*
X36006Y37795D01*
X35909Y37779D01*
X35782Y37768D01*
X35609Y37763D01*
X35547Y37736D01*
X35433D01*
X35004Y37650D01*
X34640Y37407D01*
X34640Y37407D01*
X33853Y36620D01*
X33610Y36256D01*
X33524Y35827D01*
X33524Y35827D01*
Y34323D01*
X31425Y32224D01*
X26055D01*
X24744Y33535D01*
Y34541D01*
X25244Y34693D01*
X25323Y34575D01*
X25717Y34312D01*
X26181Y34219D01*
X31299D01*
X31764Y34312D01*
X32157Y34575D01*
X32421Y34969D01*
X32513Y35433D01*
X32421Y35898D01*
X32157Y36291D01*
Y36543D01*
X32421Y36937D01*
X32513Y37402D01*
X32421Y37866D01*
X32157Y38260D01*
Y38512D01*
X32421Y38906D01*
X32513Y39370D01*
X32421Y39835D01*
X32157Y40228D01*
Y40480D01*
X32421Y40874D01*
X32513Y41339D01*
X32421Y41803D01*
X32157Y42197D01*
Y42449D01*
X32421Y42843D01*
X32513Y43307D01*
X32451Y43619D01*
X32549Y43913D01*
X32767Y44154D01*
X33787D01*
X37461Y40480D01*
D02*
G37*
G36*
X39389Y29530D02*
X39304Y29500D01*
X39229Y29450D01*
X39164Y29380D01*
X39109Y29290D01*
X39064Y29180D01*
X39029Y29050D01*
X39017Y28978D01*
X39037Y28893D01*
X39066Y28796D01*
X39102Y28706D01*
X39144Y28621D01*
X39193Y28542D01*
X39249Y28469D01*
X39311Y28403D01*
X37657D01*
X37720Y28469D01*
X37775Y28542D01*
X37824Y28621D01*
X37867Y28706D01*
X37903Y28796D01*
X37932Y28893D01*
X37951Y28978D01*
X37939Y29050D01*
X37904Y29180D01*
X37859Y29290D01*
X37804Y29380D01*
X37739Y29450D01*
X37664Y29500D01*
X37579Y29530D01*
X37484Y29540D01*
X39484D01*
X39389Y29530D01*
D02*
G37*
G36*
X44026Y195219D02*
X44164Y194719D01*
X43760Y194449D01*
X40048Y190737D01*
X34833D01*
Y183238D01*
X42332D01*
Y188452D01*
X45572Y191692D01*
X69410D01*
X70432Y190670D01*
Y186092D01*
X69872D01*
Y181546D01*
X74419D01*
Y186092D01*
X73663D01*
Y191339D01*
X73540Y191957D01*
X73189Y192481D01*
X71221Y194449D01*
X70817Y194719D01*
X70955Y195219D01*
X195219Y195219D01*
X195219Y1631D01*
X1631Y1631D01*
X1631Y72520D01*
X2131Y72701D01*
X5262D01*
X5336Y72333D01*
X5579Y71969D01*
X7475Y70073D01*
X7839Y69830D01*
X8268Y69745D01*
X8697Y69830D01*
X9061Y70073D01*
X9304Y70437D01*
X9389Y70866D01*
X9304Y71295D01*
X9061Y71659D01*
X8480Y72240D01*
X8672Y72701D01*
X9568D01*
Y75465D01*
X5812D01*
Y75965D01*
X5312D01*
Y79229D01*
X2131D01*
X2056Y79229D01*
X1631Y79410D01*
Y95084D01*
X2131Y95291D01*
X3897Y93526D01*
Y85719D01*
X2456D01*
Y79991D01*
X9168D01*
Y81209D01*
X10384D01*
X10794Y80709D01*
X10794Y80709D01*
X10886Y80244D01*
X11150Y79850D01*
Y79598D01*
X10886Y79205D01*
X10794Y78740D01*
X10886Y78276D01*
X11150Y77882D01*
Y77630D01*
X10886Y77236D01*
X10794Y76772D01*
X10886Y76307D01*
X11150Y75913D01*
Y75661D01*
X10886Y75268D01*
X10794Y74803D01*
X10886Y74339D01*
X11150Y73945D01*
Y73693D01*
X10886Y73299D01*
X10794Y72835D01*
X10886Y72370D01*
X11150Y71976D01*
Y71724D01*
X10886Y71331D01*
X10794Y70866D01*
X10886Y70402D01*
X11150Y70008D01*
Y69756D01*
X10886Y69362D01*
X10794Y68898D01*
X10886Y68433D01*
X11150Y68039D01*
Y67787D01*
X10886Y67394D01*
X10794Y66929D01*
X10886Y66465D01*
X11150Y66071D01*
Y65819D01*
X10886Y65425D01*
X10818Y65083D01*
X10700Y64910D01*
X10334Y64710D01*
X9843Y64808D01*
X9148Y64670D01*
X8558Y64276D01*
X8165Y63687D01*
X8027Y62992D01*
X8165Y62297D01*
X8558Y61708D01*
X9148Y61314D01*
X9843Y61176D01*
X10334Y61274D01*
X10700Y61075D01*
X10818Y60901D01*
X10886Y60559D01*
X11150Y60165D01*
Y59913D01*
X10886Y59520D01*
X10794Y59055D01*
X10886Y58591D01*
X11150Y58197D01*
Y57945D01*
X10886Y57551D01*
X10794Y57087D01*
X10886Y56622D01*
X11150Y56228D01*
Y55976D01*
X10886Y55583D01*
X10794Y55118D01*
X10886Y54654D01*
X11150Y54260D01*
Y54008D01*
X10886Y53614D01*
X10794Y53150D01*
X10886Y52685D01*
X11150Y52291D01*
Y52039D01*
X10886Y51646D01*
X10794Y51181D01*
X10886Y50717D01*
X11150Y50323D01*
Y50071D01*
X10886Y49677D01*
X10794Y49213D01*
X10865Y48858D01*
X10592Y48358D01*
X8335D01*
X7019Y49674D01*
Y50701D01*
X7583Y51078D01*
X7977Y51667D01*
X8115Y52362D01*
X7977Y53057D01*
X7583Y53646D01*
X6994Y54040D01*
X6468Y54145D01*
X6185Y54342D01*
X5987Y54626D01*
X5882Y55152D01*
X5489Y55741D01*
X4900Y56135D01*
X4205Y56273D01*
X3510Y56135D01*
X2921Y55741D01*
X2527Y55152D01*
X2389Y54457D01*
X2527Y53762D01*
X2912Y53185D01*
Y48308D01*
X2997Y47882D01*
X3239Y47521D01*
X6271Y44488D01*
X6633Y44247D01*
X7059Y44162D01*
X10592D01*
X10865Y43662D01*
X10794Y43307D01*
X10886Y42843D01*
X11044Y42607D01*
X10861Y42485D01*
X10510Y41959D01*
X10486Y41839D01*
X18648D01*
X18624Y41959D01*
X18273Y42485D01*
X18090Y42607D01*
X18248Y42843D01*
X18340Y43307D01*
X18248Y43772D01*
X17984Y44165D01*
Y44417D01*
X18248Y44811D01*
X18340Y45276D01*
X18248Y45740D01*
X17984Y46134D01*
Y46386D01*
X18248Y46780D01*
X18340Y47244D01*
X18248Y47709D01*
X17984Y48102D01*
Y48354D01*
X18248Y48748D01*
X18340Y49213D01*
X18248Y49677D01*
X17984Y50071D01*
Y50323D01*
X18248Y50717D01*
X18340Y51181D01*
X18248Y51646D01*
X17984Y52039D01*
Y52291D01*
X18248Y52685D01*
X18340Y53150D01*
X18248Y53614D01*
X17984Y54008D01*
Y54260D01*
X18248Y54654D01*
X18340Y55118D01*
X18270Y55468D01*
X18272Y55498D01*
X18417Y55838D01*
X18481Y55911D01*
X18574Y55995D01*
X18583Y56000D01*
X19523D01*
X19523Y56000D01*
X19952Y56085D01*
X20316Y56328D01*
X22001Y58013D01*
X22501Y57806D01*
Y33071D01*
X22501Y33071D01*
X22586Y32642D01*
X22829Y32278D01*
X24124Y30983D01*
X23932Y30521D01*
X18120D01*
X17709Y31021D01*
X17765Y31299D01*
X17611Y32071D01*
X17174Y32725D01*
X16520Y33162D01*
X15748Y33316D01*
X14976Y33162D01*
X14322Y32725D01*
X13885Y32071D01*
X13731Y31299D01*
X13885Y30527D01*
X14322Y29873D01*
X14976Y29436D01*
X15748Y29283D01*
X16520Y29436D01*
X17010Y29764D01*
X17510Y29545D01*
Y26172D01*
X25797D01*
Y29981D01*
X31890D01*
X31890Y29981D01*
X32319Y30066D01*
X32683Y30309D01*
X35114Y32741D01*
X35614Y32534D01*
Y31799D01*
X38583D01*
Y30799D01*
X35614D01*
Y28528D01*
X36540D01*
X37009Y28378D01*
X37108Y28162D01*
X37198Y27943D01*
X37211Y27938D01*
X37216Y27926D01*
X37219Y27925D01*
X37363Y27872D01*
Y27559D01*
X37448Y27130D01*
X37691Y26766D01*
X38055Y26523D01*
X38484Y26438D01*
X38914Y26523D01*
X39277Y26766D01*
X39520Y27130D01*
X39606Y27559D01*
Y27872D01*
X39750Y27925D01*
X39752Y27926D01*
X39758Y27938D01*
X39770Y27943D01*
X39850Y28136D01*
X39916Y28177D01*
X40420Y28312D01*
X40692Y28146D01*
Y8268D01*
X40692Y8268D01*
X40777Y7839D01*
X41020Y7475D01*
X42890Y5605D01*
X42890Y5605D01*
X43254Y5362D01*
X43683Y5276D01*
X55232D01*
X55294Y5248D01*
X55467Y5244D01*
X55594Y5233D01*
X55691Y5217D01*
X55699Y5215D01*
Y4026D01*
X60836D01*
Y5313D01*
X60845Y5315D01*
X60941Y5331D01*
X61069Y5342D01*
X61241Y5347D01*
X61303Y5375D01*
X63401D01*
X63464Y5347D01*
X63636Y5342D01*
X63764Y5331D01*
X63860Y5315D01*
X63868Y5313D01*
Y4223D01*
X68415D01*
Y8769D01*
X63868D01*
Y7679D01*
X63860Y7677D01*
X63764Y7661D01*
X63636Y7650D01*
X63464Y7645D01*
X63401Y7618D01*
X61311D01*
X61299Y7620D01*
X61241Y7645D01*
X61128Y7648D01*
X60836Y7697D01*
X60836Y8699D01*
X61236Y8941D01*
X61236Y9011D01*
X61236Y9011D01*
Y11213D01*
X58268D01*
Y11713D01*
X57768D01*
Y14484D01*
X55299D01*
Y13656D01*
X55149Y13188D01*
X54934Y13089D01*
X54715Y12999D01*
X54710Y12986D01*
X54698Y12981D01*
X54697Y12978D01*
X54643Y12834D01*
X54331D01*
X53901Y12749D01*
X53538Y12506D01*
X53294Y12142D01*
X53209Y11713D01*
X53294Y11283D01*
X53538Y10920D01*
X53901Y10676D01*
X54331Y10591D01*
X54643D01*
X54697Y10447D01*
X54698Y10444D01*
X54710Y10439D01*
X54715Y10427D01*
X54934Y10336D01*
X55149Y10237D01*
X55299Y9769D01*
Y9011D01*
X55299Y9011D01*
Y8941D01*
X55699Y8699D01*
X55699Y8441D01*
Y7581D01*
X55691Y7578D01*
X55594Y7563D01*
X55467Y7551D01*
X55294Y7547D01*
X55232Y7519D01*
X44148D01*
X42935Y8732D01*
Y44604D01*
X42849Y45033D01*
X42841Y45046D01*
X42849Y45105D01*
X43118Y45532D01*
X44507D01*
X44570Y45504D01*
X44912Y45498D01*
X44971Y45493D01*
Y45365D01*
X45493D01*
X45583Y45327D01*
X45672Y45364D01*
X45768Y45354D01*
X45781Y45365D01*
X49517D01*
Y47943D01*
X48427D01*
X48425Y47951D01*
X48409Y48047D01*
X48398Y48175D01*
X48393Y48347D01*
X48366Y48410D01*
Y50409D01*
X48393Y50472D01*
X48398Y50644D01*
X48409Y50772D01*
X48425Y50868D01*
X48427Y50876D01*
X49616D01*
Y54970D01*
X50772D01*
Y53650D01*
X53445D01*
Y53150D01*
X53945D01*
Y50476D01*
X56118D01*
Y51244D01*
X56197Y51355D01*
X56618Y51583D01*
X56634Y51576D01*
X56637Y51575D01*
X56649Y51580D01*
X56662Y51575D01*
X56877Y51675D01*
X57096Y51765D01*
X57101Y51777D01*
X57113Y51783D01*
X57114Y51785D01*
X57168Y51930D01*
X57480D01*
X57910Y52015D01*
X58273Y52258D01*
X58517Y52622D01*
X58602Y53051D01*
X58517Y53480D01*
X58273Y53844D01*
X57910Y54087D01*
X57480Y54173D01*
X57168D01*
X57114Y54317D01*
X57113Y54319D01*
X57101Y54325D01*
X57096Y54337D01*
X56877Y54428D01*
X56786Y54470D01*
X56896Y54970D01*
X122745D01*
X139448Y38267D01*
X140135Y37808D01*
X140945Y37647D01*
X152943D01*
Y34833D01*
X162805D01*
Y37647D01*
X172628D01*
Y34833D01*
X182490D01*
Y37714D01*
X183858D01*
X184668Y37876D01*
X185355Y38334D01*
X189805Y42785D01*
X190264Y43471D01*
X190425Y44282D01*
X190425Y44282D01*
Y90945D01*
X190306Y91545D01*
Y167323D01*
X190145Y168133D01*
X189686Y168820D01*
X184568Y173938D01*
X183881Y174397D01*
X183071Y174558D01*
X167550D01*
X167489Y174651D01*
X167756Y175151D01*
X168996D01*
X169729Y175296D01*
X170351Y175712D01*
X170766Y176334D01*
X170912Y177067D01*
Y178603D01*
X184596D01*
X191398Y171800D01*
Y24874D01*
X186543Y20019D01*
X77264D01*
X77264Y20019D01*
X76835Y19934D01*
X76471Y19691D01*
X70402Y13622D01*
X68882D01*
X68820Y13649D01*
X68647Y13654D01*
X68520Y13665D01*
X68423Y13681D01*
X68415Y13683D01*
Y14872D01*
X63868D01*
Y10325D01*
X68415D01*
Y11317D01*
X68423Y11319D01*
X68520Y11335D01*
X68647Y11346D01*
X68820Y11351D01*
X68882Y11378D01*
X70866D01*
X70866Y11378D01*
X71295Y11464D01*
X71659Y11707D01*
X77728Y17776D01*
X187008D01*
X187008Y17776D01*
X187437Y17862D01*
X187801Y18105D01*
X193313Y23616D01*
X193313Y23616D01*
X193556Y23980D01*
X193641Y24409D01*
X193641Y24409D01*
Y172265D01*
X193641Y172265D01*
X193556Y172694D01*
X193313Y173058D01*
X193313Y173058D01*
X185853Y180517D01*
X185489Y180761D01*
X185060Y180846D01*
X185060Y180846D01*
X170912D01*
Y182382D01*
X170766Y183115D01*
X170351Y183737D01*
X169729Y184152D01*
X168996Y184298D01*
X166437D01*
X165704Y184152D01*
X165082Y183737D01*
X164666Y183115D01*
X164521Y182382D01*
Y177609D01*
X164021Y177223D01*
X163561Y177314D01*
X153150D01*
X152953Y177275D01*
X152756Y177314D01*
X149222D01*
Y178356D01*
X142904D01*
Y172038D01*
X149222D01*
Y173080D01*
X150639D01*
Y159222D01*
X149203D01*
Y152117D01*
X156309D01*
Y159222D01*
X154873D01*
Y173080D01*
X162684D01*
X164820Y170944D01*
X164820Y170944D01*
X165507Y170485D01*
X166317Y170324D01*
X166317Y170324D01*
X182194D01*
X186072Y166446D01*
Y93062D01*
X182490D01*
Y95876D01*
X172628D01*
Y93062D01*
X162805D01*
Y95876D01*
X152943D01*
Y86014D01*
X162805D01*
Y88828D01*
X172628D01*
Y86014D01*
X182490D01*
Y88828D01*
X186191D01*
Y45158D01*
X182990Y41957D01*
X182490Y41969D01*
Y44694D01*
X172628D01*
Y41881D01*
X162805D01*
Y44694D01*
X152943D01*
Y41881D01*
X141822D01*
X125119Y58584D01*
X124432Y59043D01*
X123622Y59204D01*
X62353D01*
Y61106D01*
X62853Y61246D01*
X62878Y61205D01*
X62948Y61205D01*
X62948Y61205D01*
X65150D01*
Y64173D01*
Y67142D01*
X62948D01*
X62948Y67142D01*
X62878D01*
X62829Y67061D01*
X62260Y67034D01*
X62198Y67095D01*
Y70168D01*
X62903D01*
Y72746D01*
X61361D01*
X61139Y72894D01*
X60482Y73025D01*
X59826Y72894D01*
X59604Y72746D01*
X58357D01*
Y70168D01*
X58767D01*
Y66742D01*
X57963D01*
Y61605D01*
X58119D01*
Y59204D01*
X42913D01*
X42521Y59126D01*
X42275Y59587D01*
X57891Y75203D01*
X58357Y75286D01*
Y75286D01*
X62903D01*
Y77864D01*
X61752D01*
Y80699D01*
X63002D01*
Y85246D01*
X58455D01*
Y80699D01*
X59508D01*
Y77864D01*
X58357D01*
Y77696D01*
X57677D01*
X57248Y77611D01*
X56884Y77368D01*
X56884Y77368D01*
X32964Y53447D01*
X32421Y53612D01*
X32421Y53614D01*
X32157Y54008D01*
Y54260D01*
X32421Y54654D01*
X32513Y55118D01*
X32421Y55583D01*
X32157Y55976D01*
Y56228D01*
X32421Y56622D01*
X32513Y57087D01*
X32421Y57551D01*
X32157Y57945D01*
Y58197D01*
X32421Y58591D01*
X32513Y59055D01*
X32421Y59520D01*
X32157Y59913D01*
Y60165D01*
X32421Y60559D01*
X32513Y61024D01*
X32437Y61405D01*
X32536Y61649D01*
X32731Y61923D01*
X33068Y61990D01*
X33432Y62234D01*
X57087Y85888D01*
X57087Y85888D01*
X57330Y86252D01*
X57415Y86682D01*
X57415Y86682D01*
Y127491D01*
X62374Y132449D01*
X63068Y132162D01*
X64008Y132038D01*
X64948Y132162D01*
X65823Y132525D01*
X66575Y133102D01*
X67153Y133854D01*
X67515Y134730D01*
X67639Y135669D01*
X67515Y136609D01*
X67153Y137485D01*
X66575Y138237D01*
X65823Y138814D01*
X64948Y139177D01*
X64008Y139300D01*
X63068Y139177D01*
X62192Y138814D01*
X61440Y138237D01*
X60863Y137485D01*
X60501Y136609D01*
X60377Y135669D01*
X60501Y134730D01*
X60788Y134036D01*
X56277Y129525D01*
X55815Y129716D01*
Y135891D01*
X62374Y142449D01*
X63068Y142162D01*
X64008Y142038D01*
X64948Y142162D01*
X65823Y142525D01*
X66575Y143102D01*
X67153Y143854D01*
X67515Y144729D01*
X67639Y145669D01*
X67515Y146609D01*
X67153Y147485D01*
X66575Y148237D01*
X65823Y148814D01*
X64948Y149177D01*
X64008Y149300D01*
X63068Y149177D01*
X62192Y148814D01*
X61440Y148237D01*
X60863Y147485D01*
X60501Y146609D01*
X60377Y145669D01*
X60501Y144729D01*
X60788Y144035D01*
X54677Y137925D01*
X54215Y138116D01*
Y144291D01*
X62374Y152449D01*
X63068Y152162D01*
X64008Y152038D01*
X64948Y152162D01*
X65823Y152525D01*
X66575Y153102D01*
X67153Y153854D01*
X67515Y154729D01*
X67639Y155669D01*
X67515Y156609D01*
X67153Y157485D01*
X66575Y158237D01*
X65823Y158814D01*
X64948Y159177D01*
X64008Y159300D01*
X63068Y159177D01*
X62192Y158814D01*
X61440Y158237D01*
X60863Y157485D01*
X60501Y156609D01*
X60377Y155669D01*
X60501Y154729D01*
X60788Y154035D01*
X53077Y146325D01*
X52615Y146516D01*
Y152691D01*
X61994Y162069D01*
X67608D01*
Y169269D01*
X60408D01*
Y163655D01*
X50701Y153948D01*
X50458Y153584D01*
X50372Y153155D01*
X50372Y153155D01*
Y101495D01*
X49872Y101446D01*
X49855Y101532D01*
X49612Y101895D01*
X49248Y102138D01*
X48819Y102224D01*
X48506D01*
X48452Y102370D01*
X48440Y102376D01*
X48435Y102388D01*
X48215Y102479D01*
X48000Y102578D01*
X47988Y102573D01*
X47975Y102578D01*
X47756Y102488D01*
X47278Y102770D01*
X47260Y102796D01*
Y103854D01*
X45087D01*
Y101181D01*
Y98508D01*
X47260D01*
Y99408D01*
X47278Y99434D01*
X47756Y99717D01*
X47975Y99626D01*
X47988Y99631D01*
X48000Y99626D01*
X48215Y99726D01*
X48435Y99816D01*
X48440Y99828D01*
X48452Y99834D01*
X48506Y99981D01*
X48819D01*
X49248Y100066D01*
X49612Y100309D01*
X49855Y100673D01*
X49872Y100759D01*
X50372Y100710D01*
Y89134D01*
X32945Y71707D01*
X32419Y71797D01*
X32280Y72160D01*
X32421Y72370D01*
X32513Y72835D01*
X32421Y73299D01*
X32157Y73693D01*
Y73945D01*
X32421Y74339D01*
X32513Y74803D01*
X32421Y75268D01*
X32263Y75503D01*
X32446Y75625D01*
X32798Y76151D01*
X32821Y76272D01*
X28740D01*
Y77150D01*
X28240D01*
X28235Y77342D01*
X28234Y77350D01*
X27740D01*
X27835Y77360D01*
X27920Y77390D01*
X27995Y77441D01*
X28060Y77511D01*
X28115Y77602D01*
X28160Y77714D01*
X28171Y77756D01*
X28160Y77798D01*
X28115Y77909D01*
X28060Y78000D01*
X27995Y78071D01*
X27920Y78122D01*
X27835Y78152D01*
X27740Y78162D01*
X28234D01*
X28235Y78169D01*
X28240Y78361D01*
X28740D01*
Y79119D01*
X28240D01*
X28235Y79311D01*
X28234Y79318D01*
X27740D01*
X27835Y79328D01*
X27920Y79358D01*
X27995Y79409D01*
X28060Y79480D01*
X28115Y79571D01*
X28160Y79682D01*
X28171Y79724D01*
X28160Y79766D01*
X28115Y79878D01*
X28060Y79969D01*
X27995Y80040D01*
X27920Y80090D01*
X27835Y80121D01*
X27740Y80131D01*
X28234D01*
X28235Y80138D01*
X28240Y80330D01*
X29240D01*
X29245Y80138D01*
X29246Y80131D01*
X29740D01*
X29645Y80121D01*
X29560Y80090D01*
X29485Y80040D01*
X29420Y79969D01*
X29365Y79878D01*
X29320Y79766D01*
X29309Y79724D01*
X29320Y79682D01*
X29365Y79571D01*
X29420Y79480D01*
X29485Y79409D01*
X29560Y79358D01*
X29645Y79328D01*
X29740Y79318D01*
X29246D01*
X29245Y79311D01*
X29243Y79240D01*
X32821D01*
X32798Y79361D01*
X32555Y79724D01*
X32798Y80088D01*
X32921Y80709D01*
X32889Y80870D01*
X33028Y81064D01*
X33151Y81150D01*
X33390Y81209D01*
X33406Y81202D01*
X33408Y81201D01*
X33421Y81206D01*
X33433Y81201D01*
X33648Y81300D01*
X33868Y81391D01*
X33873Y81403D01*
X33885Y81409D01*
X33939Y81556D01*
X34252D01*
X34681Y81641D01*
X35045Y81884D01*
X35288Y82248D01*
X35373Y82677D01*
X35288Y83106D01*
X35080Y83418D01*
X35140Y83655D01*
X35275Y83918D01*
X38780D01*
X38780Y83918D01*
X39209Y84003D01*
X39573Y84246D01*
X45084Y89758D01*
X45084Y89758D01*
X45235Y89984D01*
X45380Y90128D01*
X45380Y90128D01*
X45623Y90492D01*
X45708Y90921D01*
X45708Y90921D01*
Y91354D01*
X45736Y91416D01*
X45740Y91589D01*
X45751Y91716D01*
X45767Y91813D01*
X45770Y91821D01*
X46860D01*
Y96368D01*
X42313D01*
Y91821D01*
X43315D01*
X43444Y91338D01*
X43348Y91194D01*
X38315Y86161D01*
X28164D01*
X27973Y86623D01*
X35749Y94399D01*
X36211Y94208D01*
Y91821D01*
X40758D01*
Y96368D01*
X39667D01*
X39665Y96376D01*
X39649Y96473D01*
X39638Y96600D01*
X39634Y96773D01*
X39606Y96835D01*
Y98441D01*
X39634Y98503D01*
X39638Y98675D01*
X39649Y98803D01*
X39665Y98899D01*
X39667Y98908D01*
X40758D01*
Y103454D01*
X39569D01*
X39566Y103463D01*
X39551Y103559D01*
X39540Y103687D01*
X39535Y103859D01*
X39507Y103921D01*
Y105626D01*
X39535Y105688D01*
X39540Y105858D01*
X39551Y105983D01*
X39566Y106077D01*
X39571Y106093D01*
X40659D01*
Y110639D01*
X36555D01*
Y112195D01*
X40659D01*
Y116742D01*
X39804D01*
Y167322D01*
X39867Y167415D01*
X40005Y168110D01*
X39867Y168805D01*
X39473Y169394D01*
X38884Y169788D01*
X38189Y169926D01*
X37494Y169788D01*
X37055Y169494D01*
X36555Y169702D01*
Y171069D01*
X37593Y172107D01*
X102111D01*
Y170955D01*
X106658D01*
Y175502D01*
X102111D01*
Y174350D01*
X100882D01*
X100691Y174812D01*
X105178Y179299D01*
X105178Y179299D01*
X105421Y179663D01*
X105506Y180092D01*
X105506Y180092D01*
Y181958D01*
X106658D01*
Y186504D01*
X102111D01*
Y181958D01*
X103263D01*
Y180556D01*
X98657Y175950D01*
X36466D01*
X36036Y175865D01*
X35673Y175621D01*
X35673Y175621D01*
X33040Y172989D01*
X32797Y172625D01*
X32711Y172196D01*
X32711Y172196D01*
Y108237D01*
X30152Y105677D01*
X29665Y105897D01*
Y143396D01*
X30817D01*
Y147942D01*
X29665D01*
Y151772D01*
X29665Y151772D01*
X29579Y152201D01*
X29336Y152565D01*
X29336Y152565D01*
X28769Y153132D01*
X28976Y153632D01*
X29734D01*
Y158179D01*
X25187D01*
Y153632D01*
X26339D01*
Y152854D01*
X26339Y152854D01*
X26425Y152425D01*
X26668Y152061D01*
X27422Y151307D01*
Y147942D01*
X26320D01*
Y149299D01*
X26320Y149300D01*
X26235Y149726D01*
X25994Y150087D01*
X25994Y150087D01*
X22948Y153132D01*
X23155Y153632D01*
X23631D01*
Y158179D01*
X19085D01*
Y157019D01*
X16883D01*
Y159616D01*
X8991D01*
Y151723D01*
X16883D01*
Y154792D01*
X19085D01*
Y153632D01*
X20245D01*
Y153147D01*
X20330Y152721D01*
X20571Y152360D01*
X24093Y148838D01*
Y147942D01*
X20168D01*
Y146783D01*
X16747D01*
X16384Y147660D01*
X15752Y148484D01*
X14927Y149117D01*
X13967Y149514D01*
X12937Y149650D01*
X11907Y149514D01*
X10947Y149117D01*
X10122Y148484D01*
X9490Y147660D01*
X9092Y146700D01*
X8956Y145669D01*
X9092Y144639D01*
X9490Y143679D01*
X10122Y142855D01*
X10947Y142222D01*
X11907Y141824D01*
X12937Y141689D01*
X13967Y141824D01*
X14927Y142222D01*
X15752Y142855D01*
X16384Y143679D01*
X16747Y144556D01*
X20168D01*
Y143396D01*
X21327D01*
Y107154D01*
X10831Y96658D01*
X10630Y96698D01*
X9935Y96560D01*
X9346Y96166D01*
X8952Y95577D01*
X8814Y94882D01*
X8952Y94187D01*
X9346Y93598D01*
X9935Y93204D01*
X10630Y93066D01*
X11325Y93204D01*
X11914Y93598D01*
X12167Y93976D01*
X12741Y94012D01*
X12745Y94010D01*
X12889Y93795D01*
X13478Y93401D01*
X14173Y93263D01*
X14868Y93401D01*
X15457Y93795D01*
X15851Y94384D01*
X15989Y95079D01*
X15949Y95280D01*
X21323Y100654D01*
X21865Y100489D01*
X21944Y100092D01*
X22338Y99503D01*
X22897Y99130D01*
X22973Y99046D01*
X23100Y98626D01*
X19547Y95072D01*
X19291Y95123D01*
X18596Y94985D01*
X18007Y94591D01*
X17614Y94002D01*
X17475Y93307D01*
X17614Y92612D01*
X17730Y92439D01*
X17510Y91939D01*
X17510D01*
Y88565D01*
X17010Y88346D01*
X16520Y88674D01*
X15748Y88828D01*
X14976Y88674D01*
X14322Y88237D01*
X13885Y87583D01*
X13731Y86811D01*
X13885Y86039D01*
X14322Y85385D01*
X14976Y84948D01*
X15748Y84794D01*
X16520Y84948D01*
X16998Y85268D01*
X17501Y85115D01*
X17546Y85078D01*
X17614Y84738D01*
X18007Y84149D01*
X18596Y83755D01*
X18932Y83689D01*
Y60987D01*
X18830Y60924D01*
X18697Y60951D01*
X18307Y61189D01*
X18248Y61488D01*
X17984Y61882D01*
Y62134D01*
X18248Y62528D01*
X18340Y62992D01*
X18248Y63457D01*
X17984Y63850D01*
Y64102D01*
X18248Y64496D01*
X18340Y64961D01*
X18248Y65425D01*
X17984Y65819D01*
Y66071D01*
X18248Y66465D01*
X18340Y66929D01*
X18248Y67394D01*
X17984Y67787D01*
Y68039D01*
X18248Y68433D01*
X18340Y68898D01*
X18248Y69362D01*
X17984Y69756D01*
Y70008D01*
X18248Y70402D01*
X18340Y70866D01*
X18248Y71331D01*
X17984Y71724D01*
Y71976D01*
X18248Y72370D01*
X18340Y72835D01*
X18248Y73299D01*
X17984Y73693D01*
Y73945D01*
X18248Y74339D01*
X18340Y74803D01*
X18248Y75268D01*
X17984Y75661D01*
Y75913D01*
X18248Y76307D01*
X18340Y76772D01*
X18248Y77236D01*
X17984Y77630D01*
Y77882D01*
X18248Y78276D01*
X18340Y78740D01*
X18248Y79205D01*
X17984Y79598D01*
Y79850D01*
X18248Y80244D01*
X18340Y80709D01*
X18248Y81173D01*
X17984Y81567D01*
Y81819D01*
X18248Y82213D01*
X18340Y82677D01*
X18248Y83142D01*
X17984Y83535D01*
X17591Y83799D01*
X17126Y83891D01*
X15637D01*
X15561Y83967D01*
X15037Y84317D01*
X14419Y84440D01*
X9168D01*
Y85719D01*
X7127D01*
Y94195D01*
X7004Y94813D01*
X6654Y95337D01*
X4087Y97904D01*
X4065Y98014D01*
X3672Y98603D01*
X3082Y98997D01*
X2387Y99135D01*
X2131Y99085D01*
X1631Y99495D01*
X1631Y195219D01*
X44026D01*
D02*
G37*
G36*
X56323Y10713D02*
X56313Y10808D01*
X56283Y10893D01*
X56232Y10968D01*
X56161Y11033D01*
X56070Y11088D01*
X55959Y11133D01*
X55827Y11168D01*
X55752Y11180D01*
X55665Y11160D01*
X55568Y11131D01*
X55478Y11095D01*
X55393Y11052D01*
X55314Y11004D01*
X55241Y10948D01*
X55174Y10886D01*
Y12539D01*
X55241Y12477D01*
X55314Y12422D01*
X55393Y12373D01*
X55478Y12330D01*
X55568Y12294D01*
X55665Y12265D01*
X55752Y12245D01*
X55827Y12258D01*
X55959Y12293D01*
X56070Y12338D01*
X56161Y12393D01*
X56232Y12458D01*
X56283Y12533D01*
X56313Y12618D01*
X56323Y12713D01*
Y10713D01*
D02*
G37*
G36*
X67801Y13405D02*
X67831Y13320D01*
X67882Y13245D01*
X67953Y13180D01*
X68044Y13125D01*
X68155Y13080D01*
X68287Y13045D01*
X68439Y13020D01*
X68611Y13005D01*
X68803Y13000D01*
Y12000D01*
X68611Y11995D01*
X68439Y11980D01*
X68287Y11955D01*
X68155Y11920D01*
X68044Y11875D01*
X67953Y11820D01*
X67882Y11755D01*
X67831Y11680D01*
X67801Y11595D01*
X67791Y11500D01*
Y13500D01*
X67801Y13405D01*
D02*
G37*
G36*
X64492Y5496D02*
X64482Y5591D01*
X64452Y5676D01*
X64401Y5751D01*
X64331Y5816D01*
X64240Y5871D01*
X64128Y5916D01*
X63997Y5951D01*
X63845Y5976D01*
X63673Y5991D01*
X63481Y5996D01*
Y6996D01*
X63673Y7001D01*
X63845Y7016D01*
X63997Y7041D01*
X64128Y7076D01*
X64240Y7121D01*
X64331Y7176D01*
X64401Y7241D01*
X64452Y7316D01*
X64482Y7401D01*
X64492Y7496D01*
Y5496D01*
D02*
G37*
G36*
X60222Y7401D02*
X60253Y7316D01*
X60303Y7241D01*
X60374Y7176D01*
X60465Y7121D01*
X60576Y7076D01*
X60708Y7041D01*
X60860Y7016D01*
X61032Y7001D01*
X61224Y6996D01*
Y5996D01*
X61032Y5991D01*
X60860Y5976D01*
X60708Y5951D01*
X60576Y5916D01*
X60465Y5871D01*
X60374Y5816D01*
X60303Y5751D01*
X60253Y5676D01*
X60222Y5591D01*
X60212Y5496D01*
Y7496D01*
X60222Y7401D01*
D02*
G37*
G36*
X56323Y5398D02*
X56313Y5493D01*
X56283Y5578D01*
X56232Y5653D01*
X56161Y5718D01*
X56070Y5773D01*
X55959Y5818D01*
X55827Y5853D01*
X55676Y5878D01*
X55503Y5893D01*
X55311Y5898D01*
Y6898D01*
X55503Y6903D01*
X55676Y6918D01*
X55827Y6943D01*
X55959Y6978D01*
X56070Y7023D01*
X56161Y7078D01*
X56232Y7143D01*
X56283Y7218D01*
X56313Y7303D01*
X56323Y7398D01*
Y5398D01*
D02*
G37*
%LPC*%
G36*
X52862Y191107D02*
Y187487D01*
X56482D01*
X56405Y188070D01*
X55987Y189080D01*
X55322Y189947D01*
X54455Y190612D01*
X53446Y191030D01*
X52862Y191107D01*
D02*
G37*
G36*
X51862D02*
X51279Y191030D01*
X50270Y190612D01*
X49403Y189947D01*
X48737Y189080D01*
X48319Y188070D01*
X48243Y187487D01*
X51862D01*
Y191107D01*
D02*
G37*
G36*
X125243Y186845D02*
X123168D01*
Y184771D01*
X125243D01*
Y186845D01*
D02*
G37*
G36*
X147343Y187856D02*
X146563D01*
Y184752D01*
X149667D01*
Y185531D01*
X149490Y186421D01*
X148986Y187175D01*
X148232Y187679D01*
X147343Y187856D01*
D02*
G37*
G36*
X92913Y188917D02*
X92484Y188831D01*
X92120Y188588D01*
X91877Y188224D01*
X91792Y187795D01*
Y186433D01*
X90142D01*
Y184358D01*
X92716D01*
X95291D01*
Y186433D01*
X94035D01*
Y187795D01*
X93950Y188224D01*
X93706Y188588D01*
X93343Y188831D01*
X92913Y188917D01*
D02*
G37*
G36*
X112760Y186504D02*
X108214D01*
Y181958D01*
X112760D01*
Y183110D01*
X117663D01*
Y182096D01*
X122012D01*
Y186445D01*
X117663D01*
Y185353D01*
X112760D01*
Y186504D01*
D02*
G37*
G36*
X128318Y186845D02*
X126243D01*
Y184271D01*
Y181696D01*
X128318D01*
Y183011D01*
X130315D01*
X130744Y183097D01*
X131108Y183340D01*
X131351Y183703D01*
X131437Y184133D01*
X131351Y184562D01*
X131108Y184926D01*
X130744Y185169D01*
X130315Y185254D01*
X128318D01*
Y186845D01*
D02*
G37*
G36*
X125243Y183771D02*
X123168D01*
Y181696D01*
X125243D01*
Y183771D01*
D02*
G37*
G36*
X80521Y186092D02*
X75975D01*
Y181546D01*
X80521D01*
Y182697D01*
X84636D01*
Y181684D01*
X88986D01*
Y186033D01*
X84636D01*
Y184941D01*
X80521D01*
Y186092D01*
D02*
G37*
G36*
X95291Y183358D02*
X93217D01*
Y181283D01*
X95291D01*
Y183358D01*
D02*
G37*
G36*
X92216D02*
X90142D01*
Y181283D01*
X92216D01*
Y183358D01*
D02*
G37*
G36*
X187008Y192951D02*
X185848Y192837D01*
X184733Y192499D01*
X183706Y191950D01*
X182805Y191211D01*
X182066Y190310D01*
X181517Y189282D01*
X181178Y188167D01*
X181064Y187008D01*
X181178Y185848D01*
X181517Y184733D01*
X182066Y183706D01*
X182805Y182805D01*
X183706Y182066D01*
X184733Y181517D01*
X185848Y181178D01*
X187008Y181064D01*
X188167Y181178D01*
X189282Y181517D01*
X190310Y182066D01*
X191211Y182805D01*
X191950Y183706D01*
X192499Y184733D01*
X192837Y185848D01*
X192951Y187008D01*
X192837Y188167D01*
X192499Y189282D01*
X191950Y190310D01*
X191211Y191211D01*
X190310Y191950D01*
X189282Y192499D01*
X188167Y192837D01*
X187008Y192951D01*
D02*
G37*
G36*
X9843Y192558D02*
X8683Y192444D01*
X7568Y192105D01*
X6540Y191556D01*
X5640Y190817D01*
X4901Y189916D01*
X4351Y188889D01*
X4013Y187774D01*
X3899Y186614D01*
X4013Y185455D01*
X4351Y184340D01*
X4901Y183312D01*
X5640Y182411D01*
X6540Y181672D01*
X7568Y181123D01*
X8683Y180785D01*
X9843Y180671D01*
X11002Y180785D01*
X12117Y181123D01*
X13145Y181672D01*
X14045Y182411D01*
X14784Y183312D01*
X15334Y184340D01*
X15672Y185455D01*
X15786Y186614D01*
X15672Y187774D01*
X15334Y188889D01*
X14784Y189916D01*
X14045Y190817D01*
X13145Y191556D01*
X12117Y192105D01*
X11002Y192444D01*
X9843Y192558D01*
D02*
G37*
G36*
X149667Y183752D02*
X146563D01*
Y180648D01*
X147343D01*
X148232Y180825D01*
X148986Y181329D01*
X149490Y182083D01*
X149667Y182972D01*
Y183752D01*
D02*
G37*
G36*
X145563Y187856D02*
X144783D01*
X143894Y187679D01*
X143140Y187175D01*
X142636Y186421D01*
X142459Y185531D01*
Y185383D01*
X140581D01*
X140152Y185297D01*
X139788Y185054D01*
X139545Y184690D01*
X139460Y184261D01*
X139545Y183832D01*
X139788Y183468D01*
X140152Y183225D01*
X140581Y183140D01*
X142459D01*
Y182972D01*
X142636Y182083D01*
X143140Y181329D01*
X143894Y180825D01*
X144783Y180648D01*
X145563D01*
Y184252D01*
Y187856D01*
D02*
G37*
G36*
X56482Y186487D02*
X48243D01*
X48319Y185904D01*
X48737Y184894D01*
X49403Y184028D01*
X50270Y183362D01*
X51241Y182960D01*
Y181496D01*
X51326Y181067D01*
X51569Y180703D01*
X51933Y180460D01*
X52362Y180375D01*
X52791Y180460D01*
X53155Y180703D01*
X53398Y181067D01*
X53484Y181496D01*
Y182960D01*
X54455Y183362D01*
X55322Y184028D01*
X55987Y184894D01*
X56405Y185904D01*
X56482Y186487D01*
D02*
G37*
G36*
X62205Y189679D02*
X60866Y189502D01*
X59619Y188986D01*
X58548Y188164D01*
X57726Y187093D01*
X57209Y185845D01*
X57033Y184507D01*
X57209Y183168D01*
X57726Y181921D01*
X58548Y180850D01*
X59619Y180028D01*
X60866Y179511D01*
X62205Y179335D01*
X63543Y179511D01*
X64791Y180028D01*
X65862Y180850D01*
X66684Y181921D01*
X67200Y183168D01*
X67377Y184507D01*
X67200Y185845D01*
X66684Y187093D01*
X65862Y188164D01*
X64791Y188986D01*
X63543Y189502D01*
X62205Y189679D01*
D02*
G37*
G36*
X28740D02*
X27402Y189502D01*
X26154Y188986D01*
X25083Y188164D01*
X24261Y187093D01*
X23745Y185845D01*
X23568Y184507D01*
X23745Y183168D01*
X24261Y181921D01*
X25083Y180850D01*
X26154Y180028D01*
X27402Y179511D01*
X28740Y179335D01*
X30079Y179511D01*
X31326Y180028D01*
X32397Y180850D01*
X33219Y181921D01*
X33736Y183168D01*
X33912Y184507D01*
X33736Y185845D01*
X33219Y187093D01*
X32397Y188164D01*
X31326Y188986D01*
X30079Y189502D01*
X28740Y189679D01*
D02*
G37*
G36*
X125243Y175851D02*
X123168D01*
Y173776D01*
X125243D01*
Y175851D01*
D02*
G37*
G36*
X112760Y175502D02*
X108214D01*
Y170955D01*
X112760D01*
Y172107D01*
X117663D01*
Y171101D01*
X122012D01*
Y175451D01*
X117663D01*
Y174350D01*
X112760D01*
Y175502D01*
D02*
G37*
G36*
X128318Y175851D02*
X126243D01*
Y173276D01*
Y170701D01*
X128318D01*
Y172154D01*
X130315D01*
X130744Y172240D01*
X131108Y172483D01*
X131351Y172847D01*
X131437Y173276D01*
X131351Y173705D01*
X131108Y174069D01*
X130744Y174312D01*
X130315Y174398D01*
X128318D01*
Y175851D01*
D02*
G37*
G36*
X125243Y172776D02*
X123168D01*
Y170701D01*
X125243D01*
Y172776D01*
D02*
G37*
G36*
X153256Y149590D02*
Y146169D01*
X156677D01*
X156607Y146701D01*
X156209Y147663D01*
X155575Y148488D01*
X154749Y149122D01*
X153788Y149520D01*
X153256Y149590D01*
D02*
G37*
G36*
X152256Y149590D02*
X151724Y149520D01*
X150762Y149122D01*
X149937Y148488D01*
X149303Y147663D01*
X148905Y146701D01*
X148835Y146169D01*
X152256D01*
Y149590D01*
D02*
G37*
G36*
X156677Y145169D02*
X153256D01*
Y141748D01*
X153788Y141818D01*
X154749Y142217D01*
X155575Y142850D01*
X156209Y143676D01*
X156607Y144637D01*
X156677Y145169D01*
D02*
G37*
G36*
X152256D02*
X148835D01*
X148905Y144637D01*
X149303Y143676D01*
X149937Y142850D01*
X150762Y142217D01*
X151724Y141818D01*
X152256Y141748D01*
Y145169D01*
D02*
G37*
G36*
X13437Y139987D02*
Y136169D01*
X17255D01*
X17172Y136804D01*
X16734Y137861D01*
X16037Y138769D01*
X15129Y139466D01*
X14072Y139904D01*
X13437Y139987D01*
D02*
G37*
G36*
X12437D02*
X11802Y139904D01*
X10745Y139466D01*
X9837Y138769D01*
X9140Y137861D01*
X8702Y136804D01*
X8619Y136169D01*
X12437D01*
Y139987D01*
D02*
G37*
G36*
X17255Y135169D02*
X13437D01*
Y131351D01*
X14072Y131435D01*
X15129Y131873D01*
X16037Y132569D01*
X16734Y133477D01*
X17172Y134535D01*
X17255Y135169D01*
D02*
G37*
G36*
X12437D02*
X8619D01*
X8702Y134535D01*
X9140Y133477D01*
X9837Y132569D01*
X10745Y131873D01*
X11802Y131435D01*
X12437Y131351D01*
Y135169D01*
D02*
G37*
G36*
X64508Y129638D02*
Y126169D01*
X67977D01*
X67905Y126714D01*
X67502Y127687D01*
X66861Y128522D01*
X66025Y129163D01*
X65052Y129566D01*
X64508Y129638D01*
D02*
G37*
G36*
X63508Y129638D02*
X62964Y129566D01*
X61991Y129163D01*
X61155Y128522D01*
X60514Y127687D01*
X60111Y126714D01*
X60039Y126169D01*
X63508D01*
Y129638D01*
D02*
G37*
G36*
X67977Y125169D02*
X64508D01*
Y121701D01*
X65052Y121772D01*
X66025Y122175D01*
X66861Y122817D01*
X67502Y123652D01*
X67905Y124625D01*
X67977Y125169D01*
D02*
G37*
G36*
X63508D02*
X60039D01*
X60111Y124625D01*
X60514Y123652D01*
X61155Y122817D01*
X61991Y122175D01*
X62964Y121772D01*
X63508Y121701D01*
Y125169D01*
D02*
G37*
G36*
X177559Y115603D02*
X176272Y115434D01*
X175072Y114937D01*
X174042Y114146D01*
X174031Y114131D01*
X174009Y114122D01*
X173535Y113652D01*
X172662Y112867D01*
X172276Y112561D01*
X171915Y112304D01*
X171586Y112101D01*
X171291Y111951D01*
X171037Y111851D01*
X170826Y111797D01*
X170600Y111777D01*
X170552Y111751D01*
X164881D01*
X164833Y111777D01*
X164607Y111797D01*
X164397Y111851D01*
X164142Y111951D01*
X163847Y112101D01*
X163518Y112304D01*
X163169Y112553D01*
X161893Y113657D01*
X161424Y114122D01*
X161402Y114131D01*
X161391Y114146D01*
X160361Y114937D01*
X159161Y115434D01*
X157874Y115603D01*
X156587Y115434D01*
X155387Y114937D01*
X154357Y114146D01*
X153567Y113117D01*
X153070Y111917D01*
X152901Y110630D01*
X153070Y109343D01*
X153567Y108143D01*
X153669Y108011D01*
X135756Y90098D01*
X87608D01*
Y91447D01*
X83061D01*
Y86900D01*
X84245D01*
Y81801D01*
X83093D01*
Y77254D01*
X87639D01*
Y81801D01*
X86488D01*
Y86900D01*
X87608D01*
Y87855D01*
X136221D01*
X136221Y87855D01*
X136650Y87940D01*
X137014Y88183D01*
X155255Y106425D01*
X155387Y106323D01*
X156587Y105826D01*
X157874Y105657D01*
X159161Y105826D01*
X160361Y106323D01*
X161391Y107113D01*
X161402Y107128D01*
X161424Y107137D01*
X161898Y107607D01*
X162771Y108393D01*
X163157Y108699D01*
X163518Y108955D01*
X163847Y109159D01*
X164142Y109309D01*
X164397Y109409D01*
X164607Y109462D01*
X164833Y109483D01*
X164881Y109508D01*
X170552D01*
X170600Y109483D01*
X170826Y109462D01*
X171037Y109409D01*
X171291Y109309D01*
X171586Y109159D01*
X171915Y108955D01*
X172265Y108707D01*
X173540Y107603D01*
X174009Y107137D01*
X174031Y107128D01*
X174042Y107113D01*
X175072Y106323D01*
X176272Y105826D01*
X177559Y105657D01*
X178846Y105826D01*
X180046Y106323D01*
X181076Y107113D01*
X181866Y108143D01*
X182363Y109343D01*
X182532Y110630D01*
X182363Y111917D01*
X181866Y113117D01*
X181076Y114146D01*
X180046Y114937D01*
X178846Y115434D01*
X177559Y115603D01*
D02*
G37*
G36*
X127953Y114211D02*
X126793Y114097D01*
X125678Y113759D01*
X124651Y113210D01*
X123750Y112470D01*
X123011Y111570D01*
X122462Y110542D01*
X122123Y109427D01*
X122009Y108268D01*
X122123Y107108D01*
X122462Y105993D01*
X123011Y104966D01*
X123750Y104065D01*
X124651Y103326D01*
X125678Y102777D01*
X126793Y102438D01*
X127953Y102324D01*
X129112Y102438D01*
X130227Y102777D01*
X131255Y103326D01*
X132156Y104065D01*
X132895Y104966D01*
X133444Y105993D01*
X133782Y107108D01*
X133896Y108268D01*
X133782Y109427D01*
X133444Y110542D01*
X132895Y111570D01*
X132156Y112470D01*
X131255Y113210D01*
X130227Y113759D01*
X129112Y114097D01*
X127953Y114211D01*
D02*
G37*
G36*
X9843D02*
X8683Y114097D01*
X7568Y113759D01*
X6540Y113210D01*
X5640Y112470D01*
X4901Y111570D01*
X4351Y110542D01*
X4013Y109427D01*
X3899Y108268D01*
X4013Y107108D01*
X4351Y105993D01*
X4901Y104966D01*
X5640Y104065D01*
X6540Y103326D01*
X7568Y102777D01*
X8683Y102438D01*
X9843Y102324D01*
X11002Y102438D01*
X12117Y102777D01*
X13145Y103326D01*
X14045Y104065D01*
X14784Y104966D01*
X15334Y105993D01*
X15672Y107108D01*
X15786Y108268D01*
X15672Y109427D01*
X15334Y110542D01*
X14784Y111570D01*
X14045Y112470D01*
X13145Y113210D01*
X12117Y113759D01*
X11002Y114097D01*
X9843Y114211D01*
D02*
G37*
G36*
X44087Y103854D02*
X41913D01*
Y101681D01*
X44087D01*
Y103854D01*
D02*
G37*
G36*
Y100681D02*
X41913D01*
Y98508D01*
X44087D01*
Y100681D01*
D02*
G37*
G36*
X85079Y101000D02*
Y98031D01*
Y95063D01*
X87350D01*
Y96910D01*
X88583D01*
X89012Y96995D01*
X89376Y97238D01*
X89619Y97602D01*
X89704Y98032D01*
X89619Y98461D01*
X89376Y98825D01*
X89012Y99068D01*
X88583Y99153D01*
X87350D01*
Y101000D01*
X85079D01*
D02*
G37*
G36*
X81807Y101000D02*
X81566Y100600D01*
X81307Y100600D01*
X76892D01*
Y95463D01*
X78142D01*
Y91447D01*
X76959D01*
Y90436D01*
X76811Y90406D01*
X76448Y90163D01*
X76448Y90163D01*
X75191Y88907D01*
X74948Y88543D01*
X74863Y88114D01*
X74863Y88114D01*
Y75661D01*
X74339Y75137D01*
X73563D01*
X73412Y75637D01*
X73628Y75782D01*
X73871Y76146D01*
X73956Y76575D01*
X73871Y77004D01*
X73628Y77368D01*
X73264Y77611D01*
X72835Y77696D01*
X71965D01*
Y78264D01*
X69791D01*
Y76575D01*
X69291D01*
Y76075D01*
X66618D01*
Y74886D01*
X67018D01*
Y70168D01*
X71565D01*
Y72894D01*
X74803D01*
X74803Y72894D01*
X75232Y72980D01*
X75596Y73223D01*
X76777Y74404D01*
X76777Y74404D01*
X77020Y74768D01*
X77106Y75197D01*
X77106Y75197D01*
Y76854D01*
X78142D01*
Y75197D01*
X78228Y74768D01*
X78471Y74404D01*
X78835Y74161D01*
X79264Y74075D01*
X79693Y74161D01*
X80057Y74404D01*
X80300Y74768D01*
X80385Y75197D01*
Y76854D01*
X81937D01*
Y79027D01*
X79264D01*
Y79527D01*
X78764D01*
Y82201D01*
X77106D01*
Y86900D01*
X81506D01*
Y91447D01*
X80385D01*
Y95109D01*
X80739Y95463D01*
X81566Y95463D01*
X81807Y95063D01*
X81877Y95063D01*
X81877Y95063D01*
X84079D01*
Y98031D01*
Y101000D01*
X81877D01*
Y101000D01*
X81877D01*
X81807D01*
D02*
G37*
G36*
X66331Y85646D02*
X64157D01*
Y83472D01*
X66331D01*
Y85646D01*
D02*
G37*
G36*
X69504D02*
X67331D01*
Y82972D01*
X66831D01*
D01*
X67331D01*
Y80299D01*
X69504D01*
Y81703D01*
X70866D01*
X71295Y81789D01*
X71659Y82032D01*
X71902Y82396D01*
X71988Y82825D01*
X71902Y83254D01*
X71659Y83618D01*
X71295Y83861D01*
X70866Y83946D01*
X69504D01*
Y85646D01*
D02*
G37*
G36*
X66331Y82472D02*
X64157D01*
Y80299D01*
X66331D01*
Y82472D01*
D02*
G37*
G36*
X81937Y82201D02*
X79764D01*
Y80028D01*
X81937D01*
Y82201D01*
D02*
G37*
G36*
X32821Y78240D02*
X29243D01*
X29245Y78169D01*
X29246Y78162D01*
X29740D01*
X29645Y78152D01*
X29560Y78122D01*
X29485Y78071D01*
X29420Y78000D01*
X29365Y77909D01*
X29320Y77798D01*
X29309Y77756D01*
X29320Y77714D01*
X29365Y77602D01*
X29420Y77511D01*
X29485Y77441D01*
X29560Y77390D01*
X29645Y77360D01*
X29740Y77350D01*
X29246D01*
X29245Y77342D01*
X29243Y77272D01*
X32821D01*
X32798Y77392D01*
X32555Y77756D01*
X32798Y78119D01*
X32821Y78240D01*
D02*
G37*
G36*
X68791Y78264D02*
X66618D01*
Y77075D01*
X68791D01*
Y78264D01*
D02*
G37*
G36*
X6312Y79229D02*
Y76465D01*
X9568D01*
Y79229D01*
X6312D01*
D02*
G37*
G36*
X68421Y67142D02*
X66150D01*
Y64173D01*
Y61205D01*
X68421D01*
Y63052D01*
X69685D01*
X70114Y63137D01*
X70478Y63380D01*
X70721Y63744D01*
X70807Y64173D01*
X70721Y64602D01*
X70478Y64966D01*
X70114Y65209D01*
X69685Y65295D01*
X68421D01*
Y67142D01*
D02*
G37*
G36*
X177559Y64422D02*
X176272Y64253D01*
X175072Y63756D01*
X174042Y62965D01*
X174031Y62950D01*
X174009Y62941D01*
X173535Y62471D01*
X172662Y61686D01*
X172276Y61380D01*
X171915Y61123D01*
X171586Y60920D01*
X171291Y60769D01*
X171037Y60670D01*
X170826Y60616D01*
X170600Y60596D01*
X170552Y60570D01*
X164881D01*
X164833Y60596D01*
X164607Y60616D01*
X164397Y60670D01*
X164142Y60769D01*
X163847Y60920D01*
X163518Y61123D01*
X163169Y61371D01*
X161893Y62476D01*
X161424Y62941D01*
X161402Y62950D01*
X161391Y62965D01*
X160361Y63756D01*
X159161Y64253D01*
X157874Y64422D01*
X156587Y64253D01*
X155387Y63756D01*
X154357Y62965D01*
X153567Y61935D01*
X153070Y60736D01*
X152901Y59449D01*
X153070Y58162D01*
X153567Y56962D01*
X153669Y56830D01*
X149601Y52762D01*
X149357Y52398D01*
X149272Y51968D01*
X149272Y51968D01*
Y46275D01*
X149110Y46166D01*
X148716Y45577D01*
X148578Y44882D01*
X148716Y44187D01*
X149110Y43598D01*
X149699Y43204D01*
X150394Y43066D01*
X151089Y43204D01*
X151678Y43598D01*
X152071Y44187D01*
X152210Y44882D01*
X152071Y45577D01*
X151678Y46166D01*
X151515Y46275D01*
Y51504D01*
X155255Y55243D01*
X155387Y55142D01*
X156587Y54645D01*
X157874Y54475D01*
X159161Y54645D01*
X160361Y55142D01*
X161391Y55932D01*
X161402Y55947D01*
X161424Y55956D01*
X161898Y56426D01*
X162771Y57212D01*
X163157Y57518D01*
X163518Y57774D01*
X163847Y57977D01*
X164142Y58128D01*
X164397Y58228D01*
X164607Y58281D01*
X164833Y58302D01*
X164881Y58327D01*
X170552D01*
X170600Y58302D01*
X170826Y58281D01*
X171037Y58228D01*
X171291Y58128D01*
X171586Y57977D01*
X171915Y57774D01*
X172265Y57526D01*
X173540Y56422D01*
X174009Y55956D01*
X174031Y55947D01*
X174042Y55932D01*
X175072Y55142D01*
X176272Y54645D01*
X177559Y54475D01*
X178846Y54645D01*
X180046Y55142D01*
X181076Y55932D01*
X181866Y56962D01*
X182363Y58162D01*
X182532Y59449D01*
X182363Y60736D01*
X181866Y61935D01*
X181076Y62965D01*
X180046Y63756D01*
X178846Y64253D01*
X177559Y64422D01*
D02*
G37*
G36*
X52945Y52650D02*
X50772D01*
Y50476D01*
X52945D01*
Y52650D01*
D02*
G37*
G36*
X58579Y48342D02*
X56406D01*
Y47153D01*
X58579D01*
Y48342D01*
D02*
G37*
G36*
X55405D02*
X53232D01*
Y47153D01*
X55405D01*
Y48342D01*
D02*
G37*
G36*
X18648Y40839D02*
X15070D01*
X15072Y40768D01*
X15073Y40761D01*
X15567D01*
X15472Y40751D01*
X15387Y40720D01*
X15312Y40670D01*
X15247Y40599D01*
X15192Y40508D01*
X15147Y40396D01*
X15136Y40354D01*
X15147Y40312D01*
X15192Y40201D01*
X15247Y40110D01*
X15312Y40039D01*
X15387Y39988D01*
X15472Y39958D01*
X15567Y39948D01*
X15073D01*
X15072Y39941D01*
X15070Y39870D01*
X18648D01*
X18624Y39991D01*
X18381Y40354D01*
X18624Y40718D01*
X18648Y40839D01*
D02*
G37*
G36*
X14064D02*
X10486D01*
X10510Y40718D01*
X10753Y40354D01*
X10510Y39991D01*
X10486Y39870D01*
X14064D01*
X14062Y39941D01*
X14061Y39948D01*
X13567D01*
X13662Y39958D01*
X13747Y39988D01*
X13822Y40039D01*
X13887Y40110D01*
X13942Y40201D01*
X13987Y40312D01*
X13998Y40354D01*
X13987Y40396D01*
X13942Y40508D01*
X13887Y40599D01*
X13822Y40670D01*
X13747Y40720D01*
X13662Y40751D01*
X13567Y40761D01*
X14061D01*
X14062Y40768D01*
X14064Y40839D01*
D02*
G37*
G36*
X71571Y43520D02*
X69299D01*
Y40551D01*
Y37583D01*
X71571D01*
Y38719D01*
X71593Y38761D01*
X72023Y39075D01*
X72029Y39077D01*
X72047Y39075D01*
X72047Y39075D01*
X72482Y39265D01*
X72487Y39277D01*
X72499Y39283D01*
X72500Y39285D01*
X72553Y39430D01*
X72866D01*
X73295Y39515D01*
X73659Y39758D01*
X73902Y40122D01*
X73988Y40551D01*
X73902Y40980D01*
X73659Y41344D01*
X73295Y41587D01*
X72866Y41673D01*
X72553D01*
X72500Y41817D01*
X72499Y41819D01*
X72487Y41825D01*
X72482Y41837D01*
X72047Y42027D01*
X72047Y42027D01*
X72029Y42025D01*
X72023Y42027D01*
X71593Y42341D01*
X71571Y42384D01*
Y43520D01*
D02*
G37*
G36*
X18648Y38870D02*
X15070D01*
X15072Y38799D01*
X15073Y38792D01*
X15567D01*
X15472Y38782D01*
X15387Y38752D01*
X15312Y38701D01*
X15247Y38630D01*
X15192Y38539D01*
X15147Y38428D01*
X15136Y38386D01*
X15147Y38344D01*
X15192Y38232D01*
X15247Y38141D01*
X15312Y38070D01*
X15387Y38020D01*
X15472Y37990D01*
X15567Y37980D01*
X15073D01*
X15072Y37973D01*
X15070Y37902D01*
X18648D01*
X18624Y38022D01*
X18381Y38386D01*
X18624Y38750D01*
X18648Y38870D01*
D02*
G37*
G36*
X14064D02*
X10486D01*
X10510Y38750D01*
X10753Y38386D01*
X10510Y38022D01*
X10486Y37902D01*
X14064D01*
X14062Y37973D01*
X14061Y37980D01*
X13567D01*
X13662Y37990D01*
X13747Y38020D01*
X13822Y38070D01*
X13887Y38141D01*
X13942Y38232D01*
X13987Y38344D01*
X13998Y38386D01*
X13987Y38428D01*
X13942Y38539D01*
X13887Y38630D01*
X13822Y38701D01*
X13747Y38752D01*
X13662Y38782D01*
X13567Y38792D01*
X14061D01*
X14062Y38799D01*
X14064Y38870D01*
D02*
G37*
G36*
X58579Y46154D02*
X55905D01*
X53232D01*
Y44965D01*
X53632D01*
Y40246D01*
X58179D01*
Y42926D01*
X58404Y42944D01*
X58573Y42945D01*
X58638Y42973D01*
X61113D01*
Y37983D01*
X62301D01*
X62304Y37974D01*
X62319Y37878D01*
X62331Y37750D01*
X62335Y37578D01*
X62363Y37516D01*
Y35418D01*
X62335Y35355D01*
X62331Y35183D01*
X62319Y35055D01*
X62304Y34959D01*
X62301Y34950D01*
X61211D01*
Y30404D01*
X65758D01*
Y34950D01*
X64667D01*
X64665Y34959D01*
X64649Y35055D01*
X64638Y35183D01*
X64634Y35355D01*
X64606Y35418D01*
Y37508D01*
X64608Y37520D01*
X64634Y37578D01*
X64636Y37691D01*
X64685Y37983D01*
X65786Y37983D01*
X66027Y37583D01*
X66097Y37583D01*
X66097Y37583D01*
X68299D01*
Y40551D01*
Y43520D01*
X66097D01*
X66097Y43520D01*
X66027D01*
X65786Y43120D01*
X65527Y43120D01*
X64467D01*
X64422Y43347D01*
X64179Y43711D01*
X64179Y43711D01*
X63593Y44297D01*
X63579Y44307D01*
X62998Y44888D01*
X62634Y45131D01*
X62205Y45216D01*
X62205Y45216D01*
X58643D01*
X58579Y45244D01*
X58579Y45244D01*
Y46154D01*
D02*
G37*
G36*
X18648Y36902D02*
X15070D01*
X15072Y36831D01*
X15087Y36659D01*
X15112Y36507D01*
X15147Y36375D01*
X15192Y36264D01*
X15247Y36173D01*
X15312Y36102D01*
X15387Y36051D01*
X15472Y36021D01*
X15567Y36011D01*
X13567D01*
X13662Y36021D01*
X13747Y36051D01*
X13822Y36102D01*
X13887Y36173D01*
X13942Y36264D01*
X13987Y36375D01*
X14022Y36507D01*
X14047Y36659D01*
X14062Y36831D01*
X14064Y36902D01*
X10486D01*
X10510Y36781D01*
X10593Y36656D01*
X10323Y36161D01*
X8273D01*
X7843Y36075D01*
X7480Y35832D01*
X7237Y35469D01*
X7151Y35039D01*
X7237Y34610D01*
X7480Y34246D01*
X7843Y34003D01*
X8273Y33918D01*
X11473D01*
X12008Y33811D01*
X14067D01*
Y35433D01*
X14567D01*
Y35933D01*
X18648D01*
X18624Y36054D01*
X18381Y36417D01*
X18624Y36781D01*
X18648Y36902D01*
D02*
G37*
G36*
X55429Y38008D02*
X53158D01*
Y35539D01*
X55429D01*
Y38008D01*
D02*
G37*
G36*
X18648Y34933D02*
X15067D01*
Y33811D01*
X17126D01*
X17747Y33935D01*
X18273Y34286D01*
X18624Y34813D01*
X18648Y34933D01*
D02*
G37*
G36*
X55429Y34539D02*
X53158D01*
Y32071D01*
X55429D01*
Y34539D01*
D02*
G37*
G36*
X49517Y42824D02*
X44971D01*
Y40246D01*
X46061D01*
X46063Y40238D01*
X46079Y40142D01*
X46090Y40014D01*
X46095Y39842D01*
X46123Y39779D01*
Y38075D01*
X46095Y38013D01*
X46090Y37840D01*
X46079Y37713D01*
X46063Y37616D01*
X46061Y37608D01*
X44971D01*
Y32471D01*
X45712D01*
X45853Y32343D01*
X45912Y32271D01*
X46046Y32041D01*
X46051Y31971D01*
X46049Y31964D01*
X46033Y31925D01*
X46017Y31892D01*
X46000Y31864D01*
X45982Y31841D01*
X45941Y31797D01*
X45917Y31731D01*
X45566Y31207D01*
X45428Y30512D01*
X45566Y29817D01*
X45960Y29228D01*
X46549Y28834D01*
X47244Y28696D01*
X47939Y28834D01*
X48528Y29228D01*
X48922Y29817D01*
X49060Y30512D01*
X48922Y31207D01*
X48572Y31731D01*
X48547Y31797D01*
X48506Y31841D01*
X48488Y31864D01*
X48471Y31892D01*
X48455Y31925D01*
X48439Y31964D01*
X48437Y31971D01*
X48442Y32041D01*
X48576Y32271D01*
X48635Y32343D01*
X48776Y32471D01*
X49644Y32471D01*
X49886Y32071D01*
X49956Y32071D01*
X49956Y32071D01*
X52157D01*
Y35039D01*
Y38008D01*
X49956D01*
X49956Y38008D01*
X49886D01*
X49644Y37608D01*
X49386Y37608D01*
X48427D01*
X48425Y37616D01*
X48409Y37713D01*
X48398Y37840D01*
X48393Y38013D01*
X48366Y38075D01*
Y39779D01*
X48393Y39842D01*
X48398Y40014D01*
X48409Y40142D01*
X48425Y40238D01*
X48427Y40246D01*
X49517D01*
Y42824D01*
D02*
G37*
G36*
X71860Y34950D02*
X67313D01*
Y30404D01*
X68404D01*
X68406Y30395D01*
X68422Y30299D01*
X68433Y30171D01*
X68437Y29999D01*
X68465Y29937D01*
Y26756D01*
X68437Y26694D01*
X68433Y26522D01*
X68422Y26394D01*
X68406Y26297D01*
X68404Y26289D01*
X67313D01*
Y21743D01*
X71860D01*
Y26289D01*
X70770D01*
X70767Y26297D01*
X70751Y26394D01*
X70740Y26522D01*
X70736Y26694D01*
X70708Y26756D01*
Y29937D01*
X70736Y29999D01*
X70740Y30171D01*
X70751Y30299D01*
X70767Y30395D01*
X70770Y30404D01*
X71860D01*
Y31100D01*
X71868Y31103D01*
X71965Y31119D01*
X72092Y31130D01*
X72265Y31134D01*
X72327Y31162D01*
X148535D01*
X148597Y31134D01*
X148698Y31132D01*
X148773Y31125D01*
X148838Y31115D01*
X148894Y31103D01*
X148941Y31088D01*
X148981Y31073D01*
X149014Y31056D01*
X149041Y31039D01*
X149065Y31021D01*
X149109Y30980D01*
X149174Y30956D01*
X149699Y30606D01*
X150394Y30468D01*
X151089Y30606D01*
X151678Y30999D01*
X152071Y31589D01*
X152210Y32283D01*
X152071Y32978D01*
X151678Y33568D01*
X151089Y33961D01*
X150394Y34100D01*
X149699Y33961D01*
X149174Y33611D01*
X149109Y33587D01*
X149065Y33546D01*
X149041Y33528D01*
X149014Y33511D01*
X148981Y33494D01*
X148941Y33479D01*
X148894Y33464D01*
X148838Y33452D01*
X148773Y33442D01*
X148698Y33435D01*
X148597Y33433D01*
X148535Y33405D01*
X72327D01*
X72265Y33433D01*
X72092Y33437D01*
X71965Y33448D01*
X71868Y33464D01*
X71860Y33466D01*
Y34950D01*
D02*
G37*
G36*
X66158Y26689D02*
X63984D01*
Y24516D01*
X66158D01*
Y26689D01*
D02*
G37*
G36*
Y23516D02*
X63984D01*
Y21342D01*
X66158D01*
Y23516D01*
D02*
G37*
G36*
X62984Y26689D02*
X60811D01*
Y25960D01*
X60661Y25491D01*
X60446Y25392D01*
X60227Y25302D01*
X60222Y25289D01*
X60210Y25284D01*
X60209Y25281D01*
X60155Y25137D01*
X59842D01*
X59413Y25052D01*
X59049Y24809D01*
X58806Y24445D01*
X58721Y24016D01*
X58806Y23586D01*
X59049Y23223D01*
X59413Y22980D01*
X59842Y22894D01*
X60155D01*
X60209Y22750D01*
X60210Y22748D01*
X60222Y22742D01*
X60227Y22730D01*
X60446Y22639D01*
X60661Y22540D01*
X60811Y22072D01*
Y21342D01*
X62984D01*
Y24016D01*
Y26689D01*
D02*
G37*
G36*
X61236Y14484D02*
X58768D01*
Y12213D01*
X61236D01*
Y14484D01*
D02*
G37*
G36*
X127953Y15786D02*
X126793Y15672D01*
X125678Y15334D01*
X124651Y14784D01*
X123750Y14045D01*
X123011Y13145D01*
X122462Y12117D01*
X122123Y11002D01*
X122009Y9843D01*
X122123Y8683D01*
X122462Y7568D01*
X123011Y6540D01*
X123750Y5640D01*
X124651Y4901D01*
X125678Y4351D01*
X126793Y4013D01*
X127953Y3899D01*
X129112Y4013D01*
X130227Y4351D01*
X131255Y4901D01*
X132156Y5640D01*
X132895Y6540D01*
X133444Y7568D01*
X133782Y8683D01*
X133896Y9843D01*
X133782Y11002D01*
X133444Y12117D01*
X132895Y13145D01*
X132156Y14045D01*
X131255Y14784D01*
X130227Y15334D01*
X129112Y15672D01*
X127953Y15786D01*
D02*
G37*
G36*
X9843D02*
X8683Y15672D01*
X7568Y15334D01*
X6540Y14784D01*
X5640Y14045D01*
X4901Y13145D01*
X4351Y12117D01*
X4013Y11002D01*
X3899Y9843D01*
X4013Y8683D01*
X4351Y7568D01*
X4901Y6540D01*
X5640Y5640D01*
X6540Y4901D01*
X7568Y4351D01*
X8683Y4013D01*
X9843Y3899D01*
X11002Y4013D01*
X12117Y4351D01*
X13145Y4901D01*
X14045Y5640D01*
X14784Y6540D01*
X15334Y7568D01*
X15672Y8683D01*
X15786Y9843D01*
X15672Y11002D01*
X15334Y12117D01*
X14784Y13145D01*
X14045Y14045D01*
X13145Y14784D01*
X12117Y15334D01*
X11002Y15672D01*
X9843Y15786D01*
D02*
G37*
G36*
X187402Y15392D02*
X186242Y15278D01*
X185127Y14940D01*
X184099Y14391D01*
X183199Y13652D01*
X182460Y12751D01*
X181910Y11723D01*
X181572Y10608D01*
X181458Y9449D01*
X181572Y8289D01*
X181910Y7174D01*
X182460Y6147D01*
X183199Y5246D01*
X184099Y4507D01*
X185127Y3958D01*
X186242Y3619D01*
X187402Y3505D01*
X188561Y3619D01*
X189676Y3958D01*
X190704Y4507D01*
X191604Y5246D01*
X192343Y6147D01*
X192893Y7174D01*
X193231Y8289D01*
X193345Y9449D01*
X193231Y10608D01*
X192893Y11723D01*
X192343Y12751D01*
X191604Y13652D01*
X190704Y14391D01*
X189676Y14940D01*
X188561Y15278D01*
X187402Y15392D01*
D02*
G37*
%LPD*%
G36*
X174466Y107598D02*
X173982Y108079D01*
X172666Y109219D01*
X172274Y109497D01*
X171905Y109725D01*
X171558Y109902D01*
X171236Y110029D01*
X170936Y110105D01*
X170659Y110130D01*
Y111130D01*
X170936Y111155D01*
X171236Y111231D01*
X171558Y111358D01*
X171905Y111535D01*
X172274Y111763D01*
X172666Y112041D01*
X173081Y112370D01*
X173982Y113180D01*
X174466Y113661D01*
Y107598D01*
D02*
G37*
G36*
X161451Y113180D02*
X162767Y112041D01*
X163159Y111763D01*
X163529Y111535D01*
X163875Y111358D01*
X164198Y111231D01*
X164497Y111155D01*
X164774Y111130D01*
Y110130D01*
X164497Y110105D01*
X164198Y110029D01*
X163875Y109902D01*
X163529Y109725D01*
X163159Y109497D01*
X162767Y109219D01*
X162352Y108889D01*
X161451Y108079D01*
X160967Y107598D01*
Y113661D01*
X161451Y113180D01*
D02*
G37*
G36*
X174466Y56417D02*
X173982Y56898D01*
X172666Y58037D01*
X172274Y58316D01*
X171905Y58544D01*
X171558Y58721D01*
X171236Y58847D01*
X170936Y58924D01*
X170659Y58949D01*
Y59949D01*
X170936Y59974D01*
X171236Y60050D01*
X171558Y60177D01*
X171905Y60354D01*
X172274Y60582D01*
X172666Y60860D01*
X173082Y61189D01*
X173982Y61999D01*
X174466Y62480D01*
Y56417D01*
D02*
G37*
G36*
X161451Y61999D02*
X162767Y60860D01*
X163159Y60582D01*
X163529Y60354D01*
X163875Y60177D01*
X164198Y60050D01*
X164497Y59974D01*
X164774Y59949D01*
Y58949D01*
X164497Y58924D01*
X164198Y58847D01*
X163875Y58721D01*
X163529Y58544D01*
X163159Y58316D01*
X162767Y58037D01*
X162352Y57708D01*
X161451Y56898D01*
X160967Y56417D01*
Y62480D01*
X161451Y61999D01*
D02*
G37*
G36*
X70569Y41456D02*
X70599Y41371D01*
X70649Y41296D01*
X70719Y41231D01*
X70809Y41176D01*
X70919Y41131D01*
X71049Y41096D01*
X71199Y41071D01*
X71299Y41062D01*
X71322Y41064D01*
X71430Y41081D01*
X71532Y41104D01*
X71629Y41133D01*
X71719Y41169D01*
X71804Y41211D01*
X71883Y41260D01*
X71956Y41316D01*
X72023Y41378D01*
Y39724D01*
X71956Y39786D01*
X71883Y39842D01*
X71804Y39891D01*
X71719Y39933D01*
X71629Y39970D01*
X71532Y39999D01*
X71430Y40022D01*
X71322Y40038D01*
X71299Y40040D01*
X71199Y40031D01*
X71049Y40006D01*
X70919Y39971D01*
X70809Y39926D01*
X70719Y39871D01*
X70649Y39806D01*
X70599Y39731D01*
X70569Y39646D01*
X70559Y39551D01*
Y41551D01*
X70569Y41456D01*
D02*
G37*
G36*
X57577Y44738D02*
X57607Y44708D01*
X57657Y44681D01*
X57727Y44658D01*
X57817Y44639D01*
X57927Y44623D01*
X58207Y44602D01*
X58567Y44594D01*
Y43595D01*
X58377Y43593D01*
X57817Y43550D01*
X57727Y43531D01*
X57657Y43508D01*
X57607Y43481D01*
X57577Y43451D01*
X57567Y43418D01*
Y44772D01*
X57577Y44738D01*
D02*
G37*
G36*
X64389Y38597D02*
X64304Y38566D01*
X64229Y38516D01*
X64164Y38445D01*
X64109Y38354D01*
X64064Y38242D01*
X64029Y38111D01*
X64004Y37959D01*
X63989Y37787D01*
X63984Y37595D01*
X62984D01*
X62979Y37787D01*
X62964Y37959D01*
X62939Y38111D01*
X62904Y38242D01*
X62859Y38354D01*
X62804Y38445D01*
X62739Y38516D01*
X62664Y38566D01*
X62579Y38597D01*
X62484Y38607D01*
X64484D01*
X64389Y38597D01*
D02*
G37*
G36*
X63989Y35146D02*
X64004Y34974D01*
X64029Y34822D01*
X64064Y34691D01*
X64109Y34579D01*
X64164Y34488D01*
X64229Y34418D01*
X64304Y34367D01*
X64389Y34337D01*
X64484Y34326D01*
X62484D01*
X62579Y34337D01*
X62664Y34367D01*
X62739Y34418D01*
X62804Y34488D01*
X62859Y34579D01*
X62904Y34691D01*
X62939Y34822D01*
X62964Y34974D01*
X62979Y35146D01*
X62984Y35338D01*
X63984D01*
X63989Y35146D01*
D02*
G37*
G36*
X48149Y40860D02*
X48064Y40830D01*
X47989Y40779D01*
X47924Y40709D01*
X47869Y40617D01*
X47824Y40506D01*
X47789Y40375D01*
X47764Y40223D01*
X47749Y40051D01*
X47744Y39858D01*
X46744D01*
X46739Y40051D01*
X46724Y40223D01*
X46699Y40375D01*
X46664Y40506D01*
X46619Y40617D01*
X46564Y40709D01*
X46499Y40779D01*
X46424Y40830D01*
X46339Y40860D01*
X46244Y40870D01*
X48244D01*
X48149Y40860D01*
D02*
G37*
G36*
X47749Y37804D02*
X47764Y37631D01*
X47789Y37480D01*
X47824Y37348D01*
X47869Y37237D01*
X47924Y37146D01*
X47989Y37075D01*
X48064Y37024D01*
X48149Y36994D01*
X48244Y36984D01*
X46244D01*
X46339Y36994D01*
X46424Y37024D01*
X46499Y37075D01*
X46564Y37146D01*
X46619Y37237D01*
X46664Y37348D01*
X46699Y37480D01*
X46724Y37631D01*
X46739Y37804D01*
X46744Y37996D01*
X47744D01*
X47749Y37804D01*
D02*
G37*
G36*
X48149Y33085D02*
X48064Y33054D01*
X47989Y33004D01*
X47924Y32933D01*
X47869Y32842D01*
X47824Y32730D01*
X47789Y32599D01*
X47764Y32447D01*
X47749Y32275D01*
X47747Y32189D01*
X47747Y32171D01*
X47757Y32056D01*
X47774Y31948D01*
X47796Y31846D01*
X47826Y31749D01*
X47862Y31659D01*
X47904Y31574D01*
X47953Y31495D01*
X48009Y31422D01*
X48071Y31355D01*
X46417D01*
X46479Y31422D01*
X46535Y31495D01*
X46584Y31574D01*
X46626Y31659D01*
X46662Y31749D01*
X46692Y31846D01*
X46715Y31948D01*
X46731Y32056D01*
X46741Y32171D01*
X46741Y32189D01*
X46739Y32275D01*
X46724Y32447D01*
X46699Y32599D01*
X46664Y32730D01*
X46619Y32842D01*
X46564Y32933D01*
X46499Y33004D01*
X46424Y33054D01*
X46339Y33085D01*
X46244Y33095D01*
X48244D01*
X48149Y33085D01*
D02*
G37*
G36*
X149550Y31457D02*
X149483Y31519D01*
X149410Y31574D01*
X149331Y31623D01*
X149247Y31666D01*
X149156Y31702D01*
X149060Y31731D01*
X148957Y31754D01*
X148849Y31770D01*
X148735Y31780D01*
X148615Y31784D01*
Y32783D01*
X148735Y32787D01*
X148849Y32796D01*
X148957Y32813D01*
X149060Y32836D01*
X149156Y32865D01*
X149247Y32901D01*
X149331Y32944D01*
X149410Y32993D01*
X149483Y33048D01*
X149550Y33110D01*
Y31457D01*
D02*
G37*
G36*
X71246Y33189D02*
X71276Y33103D01*
X71327Y33029D01*
X71398Y32963D01*
X71489Y32908D01*
X71600Y32864D01*
X71732Y32829D01*
X71883Y32803D01*
X72056Y32789D01*
X72248Y32783D01*
Y31784D01*
X72056Y31778D01*
X71883Y31763D01*
X71732Y31738D01*
X71600Y31703D01*
X71489Y31659D01*
X71398Y31604D01*
X71327Y31539D01*
X71276Y31464D01*
X71246Y31378D01*
X71236Y31284D01*
Y33283D01*
X71246Y33189D01*
D02*
G37*
G36*
X70492Y31018D02*
X70407Y30988D01*
X70332Y30937D01*
X70267Y30866D01*
X70212Y30775D01*
X70167Y30664D01*
X70132Y30532D01*
X70107Y30380D01*
X70092Y30208D01*
X70087Y30016D01*
X69087D01*
X69082Y30208D01*
X69067Y30380D01*
X69042Y30532D01*
X69007Y30664D01*
X68962Y30775D01*
X68907Y30866D01*
X68842Y30937D01*
X68767Y30988D01*
X68682Y31018D01*
X68587Y31028D01*
X70587D01*
X70492Y31018D01*
D02*
G37*
G36*
X70092Y26485D02*
X70107Y26313D01*
X70132Y26161D01*
X70167Y26029D01*
X70212Y25918D01*
X70267Y25827D01*
X70332Y25756D01*
X70407Y25706D01*
X70492Y25675D01*
X70587Y25665D01*
X68587D01*
X68682Y25675D01*
X68767Y25706D01*
X68842Y25756D01*
X68907Y25827D01*
X68962Y25918D01*
X69007Y26029D01*
X69042Y26161D01*
X69067Y26313D01*
X69082Y26485D01*
X69087Y26677D01*
X70087D01*
X70092Y26485D01*
D02*
G37*
G36*
X61835Y23016D02*
X61825Y23111D01*
X61795Y23196D01*
X61744Y23271D01*
X61673Y23336D01*
X61582Y23391D01*
X61471Y23436D01*
X61339Y23471D01*
X61264Y23483D01*
X61176Y23463D01*
X61080Y23434D01*
X60989Y23398D01*
X60905Y23356D01*
X60826Y23307D01*
X60753Y23251D01*
X60686Y23189D01*
Y24843D01*
X60753Y24780D01*
X60826Y24725D01*
X60905Y24676D01*
X60989Y24633D01*
X61080Y24597D01*
X61176Y24568D01*
X61264Y24548D01*
X61339Y24561D01*
X61471Y24596D01*
X61582Y24641D01*
X61673Y24696D01*
X61744Y24761D01*
X61795Y24836D01*
X61825Y24921D01*
X61835Y25016D01*
Y23016D01*
D02*
G37*
D10*
X46850Y34547D02*
X47244Y34154D01*
X35433Y95669D02*
Y171533D01*
X33833Y107773D02*
Y172196D01*
X19368Y93307D02*
X33833Y107773D01*
Y172196D02*
X36466Y174828D01*
X26403Y86639D02*
X35433Y95669D01*
Y171533D02*
X37128Y173228D01*
X23718Y86639D02*
X26403D01*
X37128Y173228D02*
X104385D01*
X36466Y174828D02*
X99121D01*
X28543Y145669D02*
Y151772D01*
X27461Y152854D02*
X28543Y151772D01*
X27461Y152854D02*
Y155905D01*
X85728Y88976D02*
X136221D01*
X104385Y180092D02*
Y184231D01*
X99121Y174828D02*
X104385Y180092D01*
X19291Y93307D02*
X19368D01*
X28543Y105709D02*
Y145669D01*
X23622Y100787D02*
X28543Y105709D01*
X192520Y24409D02*
Y172265D01*
X185060Y179724D02*
X192520Y172265D01*
X167717Y179724D02*
X185060D01*
X8273Y35039D02*
X14173D01*
X14567Y35433D01*
X32639Y63027D02*
X56294Y86682D01*
Y127955D02*
X64008Y135669D01*
X56294Y86682D02*
Y127955D01*
X28775Y63027D02*
X32639D01*
X150394Y51968D02*
X157874Y59449D01*
X150394Y44882D02*
Y51968D01*
X157874Y59449D02*
X177559D01*
X6372Y72762D02*
Y75405D01*
X5812Y75965D02*
X6372Y75405D01*
Y72762D02*
X8268Y70866D01*
X57677Y76575D02*
X60630D01*
X32283Y51181D02*
X57677Y76575D01*
X28740Y51181D02*
X32283D01*
X65650Y64173D02*
X69685D01*
X19291Y85433D02*
X19291Y85433D01*
Y85039D02*
Y85433D01*
Y85039D02*
X20053Y84277D01*
X21654Y84575D02*
X23718Y86639D01*
X25197Y85039D02*
X38780D01*
X23622Y83465D02*
X25197Y85039D01*
X20053Y60236D02*
Y84277D01*
X18907Y59090D02*
X20053Y60236D01*
X14602Y59090D02*
X18907D01*
X14567Y59055D02*
X14602Y59090D01*
X28740Y62992D02*
X28775Y63027D01*
X54694Y136355D02*
X64008Y145669D01*
X54694Y87344D02*
Y136355D01*
X32345Y64995D02*
X54694Y87344D01*
X28775Y64995D02*
X32345D01*
X28740Y64961D02*
X28775Y64995D01*
X53094Y144755D02*
X64008Y155669D01*
X53094Y88007D02*
Y144755D01*
X32050Y66964D02*
X53094Y88007D01*
X28775Y66964D02*
X32050D01*
X28740Y66929D02*
X28775Y66964D01*
X51494Y153155D02*
X64008Y165669D01*
X51494Y88670D02*
Y153155D01*
X31756Y68932D02*
X51494Y88670D01*
X28775Y68932D02*
X31756D01*
X28740Y68898D02*
X28775Y68932D01*
X9843Y62992D02*
X14567D01*
X77241Y89370D02*
X79232D01*
Y89173D02*
X79264Y89205D01*
Y98031D01*
X85335Y89370D02*
X85728Y88976D01*
X75984Y88114D02*
X77241Y89370D01*
X75984Y75197D02*
Y88114D01*
X52362Y181496D02*
Y186987D01*
X44587Y101181D02*
X44665Y101102D01*
X48819D01*
X79264Y75197D02*
Y79410D01*
X79205Y79469D02*
X79264Y79410D01*
X66978Y82825D02*
X70866D01*
X28740Y82677D02*
X34252D01*
X28740Y82677D02*
X28740Y82677D01*
X38484Y27559D02*
Y31201D01*
X54331Y11713D02*
X58071D01*
X68799Y40551D02*
X72866D01*
X53543Y53051D02*
X57480D01*
X125743Y173276D02*
X130315D01*
X140581Y184261D02*
X146054D01*
X125743Y184271D02*
X125881Y184133D01*
X130315D01*
X92913Y184055D02*
Y187795D01*
X41813Y8268D02*
Y44604D01*
X39173Y47244D02*
X41813Y44604D01*
X47244Y30512D02*
Y34154D01*
X59842Y24016D02*
X63484D01*
X63484Y24016D01*
X58071Y11713D02*
X58169Y11811D01*
X58268Y11713D01*
X84579Y98032D02*
X88583D01*
X84579Y98031D02*
X84579Y98032D01*
X47244Y35335D02*
Y41535D01*
X38484Y31201D02*
X38583Y31299D01*
X41813Y8268D02*
X43683Y6398D01*
X58268D01*
X58957Y6496D02*
X66142D01*
X66240Y12500D02*
X70866D01*
X66142Y12598D02*
X66240Y12500D01*
X70866D02*
X77264Y18898D01*
X187008D01*
X192520Y24409D01*
X69291Y74016D02*
X74803D01*
X75984Y75197D01*
X69291Y76575D02*
X72835D01*
X85366Y79527D02*
Y88976D01*
X85335Y89370D02*
X85335Y89370D01*
X79205Y79469D02*
X79264Y79527D01*
X55905Y44094D02*
X62205D01*
X62795Y43504D01*
X62800D01*
X63386Y42918D01*
Y40650D02*
Y42918D01*
Y40650D02*
X63484Y40551D01*
Y32677D02*
Y40551D01*
X63090Y33071D02*
X63484Y32677D01*
X69587Y24016D02*
Y32677D01*
X69980Y32283D01*
X150394D01*
X66831Y82972D02*
X66978Y82825D01*
X60630Y82874D02*
X60728Y82972D01*
X60630Y76575D02*
Y82874D01*
X53445Y53150D02*
X53543Y53051D01*
X47244Y46654D02*
Y53051D01*
X47343Y53150D01*
X65453Y64370D02*
X65650Y64173D01*
X46850Y34547D02*
X47343Y35039D01*
X14567Y35433D02*
Y37402D01*
Y39370D01*
Y41339D01*
X92716Y183858D02*
X92913Y184055D01*
X146054Y184261D02*
X146063Y184252D01*
X63484Y24016D02*
X63484Y24016D01*
X28740Y47244D02*
X39173D01*
X136221Y88976D02*
X157874Y110630D01*
X177559D01*
X21654Y59252D02*
Y84575D01*
X19523Y57121D02*
X21654Y59252D01*
X14567Y70866D02*
Y72628D01*
Y68898D02*
Y70866D01*
Y66929D02*
Y68898D01*
Y64961D02*
Y66929D01*
Y62992D02*
Y64961D01*
X14602Y57121D02*
X19523D01*
X23622Y33071D02*
Y83465D01*
Y33071D02*
X25591Y31102D01*
X28740Y76772D02*
Y78740D01*
Y80709D01*
Y82677D01*
X42913Y46654D02*
X47244D01*
X40354Y49213D02*
X42913Y46654D01*
X28740Y49213D02*
X40354D01*
X14567Y57087D02*
X14602Y57121D01*
X38780Y85039D02*
X44291Y90551D01*
Y90626D02*
X44587Y90921D01*
X44291Y90551D02*
Y90626D01*
X44587Y90921D02*
Y94095D01*
X31890Y31102D02*
X34646Y33858D01*
X25591Y31102D02*
X31890D01*
X119798Y184231D02*
X119837Y184271D01*
X110487Y184231D02*
X119798D01*
X119790Y173228D02*
X119837Y173276D01*
X110487Y173228D02*
X119790D01*
X86772Y183819D02*
X86811Y183858D01*
X78248Y183819D02*
X86772D01*
X35433Y36614D02*
X38583D01*
X34646Y35827D02*
X35433Y36614D01*
X34646Y33858D02*
Y35827D01*
X38484Y94095D02*
Y101181D01*
X38386Y101279D02*
X38484Y101181D01*
X38386Y101279D02*
Y108366D01*
X28740Y45276D02*
X34252D01*
X38583Y40945D01*
Y36614D02*
Y40945D01*
D11*
X25206Y106112D02*
Y149300D01*
X21358Y153147D02*
X25206Y149300D01*
X21358Y153147D02*
Y155905D01*
X14173Y95079D02*
X25206Y106112D01*
X12937Y155669D02*
X13173Y155905D01*
X21358D01*
X12937Y145669D02*
X22441D01*
Y106693D02*
Y145669D01*
X10630Y94882D02*
X22441Y106693D01*
X5906Y49213D02*
Y51968D01*
X4026Y48308D02*
Y54278D01*
X4205Y54457D01*
X5906Y51968D02*
X6299Y52362D01*
X4026Y48308D02*
X7059Y45276D01*
X5906Y49213D02*
X7874Y47244D01*
X14567D01*
X7059Y45276D02*
X14567D01*
D16*
X5812Y82855D02*
D03*
Y75965D02*
D03*
D17*
X119837Y184271D02*
D03*
X125743D02*
D03*
X119837Y173276D02*
D03*
X125743D02*
D03*
X92716Y183858D02*
D03*
X86811D02*
D03*
D18*
X27461Y155905D02*
D03*
X21358D02*
D03*
X28543Y145669D02*
D03*
X22441D02*
D03*
X110487Y173228D02*
D03*
X104385D02*
D03*
X110487Y184231D02*
D03*
X104385D02*
D03*
X78248Y183819D02*
D03*
X72146D02*
D03*
X44587Y101181D02*
D03*
X38484D02*
D03*
X44587Y94095D02*
D03*
X38484D02*
D03*
X85366Y79527D02*
D03*
X79264D02*
D03*
X69587Y24016D02*
D03*
X63484D02*
D03*
Y32677D02*
D03*
X69587D02*
D03*
X66831Y82972D02*
D03*
X60728D02*
D03*
X53445Y53150D02*
D03*
X47343D02*
D03*
X79232Y89173D02*
D03*
X85335D02*
D03*
D19*
X146063Y175197D02*
D03*
D20*
Y184252D02*
D03*
D21*
X167717Y179724D02*
D03*
D22*
X38386Y108366D02*
D03*
Y114469D02*
D03*
X66142Y6496D02*
D03*
Y12598D02*
D03*
D23*
X84579Y98031D02*
D03*
X79264D02*
D03*
X68799Y40551D02*
D03*
X63484D02*
D03*
X60335Y64173D02*
D03*
X65650D02*
D03*
X47343Y35039D02*
D03*
X52658D02*
D03*
D24*
X38583Y31299D02*
D03*
Y36614D02*
D03*
X58268Y6398D02*
D03*
Y11713D02*
D03*
D25*
X60630Y71457D02*
D03*
Y76575D02*
D03*
X69291D02*
D03*
Y74016D02*
D03*
Y71457D02*
D03*
X47244Y41535D02*
D03*
Y46654D02*
D03*
X55905D02*
D03*
Y44094D02*
D03*
Y41535D02*
D03*
D26*
X21654Y28346D02*
D03*
Y89764D02*
D03*
D27*
X28740Y82677D02*
D03*
D28*
Y80709D02*
D03*
Y78740D02*
D03*
Y76772D02*
D03*
Y74803D02*
D03*
Y72835D02*
D03*
Y70866D02*
D03*
Y68898D02*
D03*
Y66929D02*
D03*
Y64961D02*
D03*
Y62992D02*
D03*
Y61024D02*
D03*
Y59055D02*
D03*
Y57087D02*
D03*
Y55118D02*
D03*
Y53150D02*
D03*
Y51181D02*
D03*
Y49213D02*
D03*
Y47244D02*
D03*
Y45276D02*
D03*
Y43307D02*
D03*
Y41339D02*
D03*
Y39370D02*
D03*
Y37402D02*
D03*
Y35433D02*
D03*
X14567D02*
D03*
Y37402D02*
D03*
Y39370D02*
D03*
Y41339D02*
D03*
Y43307D02*
D03*
Y45276D02*
D03*
Y47244D02*
D03*
Y49213D02*
D03*
Y51181D02*
D03*
Y53150D02*
D03*
Y55118D02*
D03*
Y57087D02*
D03*
Y59055D02*
D03*
Y61024D02*
D03*
Y62992D02*
D03*
Y64961D02*
D03*
Y66929D02*
D03*
Y68898D02*
D03*
Y70866D02*
D03*
Y72835D02*
D03*
Y74803D02*
D03*
Y76772D02*
D03*
Y78740D02*
D03*
Y80709D02*
D03*
Y82677D02*
D03*
D55*
X183071Y172441D02*
X188189Y167323D01*
Y90945D02*
Y167323D01*
X177559Y90945D02*
X188189D01*
X188308Y44282D02*
Y90945D01*
X183858Y39831D02*
X188308Y44282D01*
X60335Y64173D02*
X60482Y64321D01*
X42913Y57087D02*
X60236D01*
Y64075D01*
Y57087D02*
X123622D01*
X60236Y64075D02*
X60335Y64173D01*
X146063Y175197D02*
X152756D01*
Y155669D02*
Y175197D01*
X153150D02*
X163561D01*
X166317Y172441D02*
X183071D01*
X157874Y90945D02*
X177559D01*
X163561Y175197D02*
X166317Y172441D01*
X177627Y39831D02*
X183858D01*
X177559Y39764D02*
X177627Y39831D01*
X157874Y39764D02*
X177559D01*
X140945D02*
X157874D01*
X123622Y57087D02*
X140945Y39764D01*
D56*
X60482Y64321D02*
Y71309D01*
D57*
X38189Y114665D02*
Y168110D01*
Y114665D02*
X38386Y114469D01*
X5512Y84006D02*
X6693Y82825D01*
X5512Y84006D02*
Y94195D01*
X2387Y97319D02*
X5512Y94195D01*
X6693Y82825D02*
X14419D01*
X72047Y183917D02*
Y191339D01*
Y183917D02*
X72146Y183819D01*
X70079Y193307D02*
X72047Y191339D01*
X44903Y193307D02*
X70079D01*
X38583Y186987D02*
X44903Y193307D01*
X14419Y82825D02*
X14567Y82677D01*
Y76978D02*
Y78740D01*
Y80709D01*
Y82677D01*
D58*
X64008Y165669D02*
D03*
D59*
Y155669D02*
D03*
Y145669D02*
D03*
Y135669D02*
D03*
Y125669D02*
D03*
D60*
X152756Y145669D02*
D03*
D61*
Y155669D02*
D03*
D62*
X12937D02*
D03*
D63*
Y145669D02*
D03*
Y135669D02*
D03*
D64*
X38583Y186987D02*
D03*
D65*
X52362D02*
D03*
X28740Y184507D02*
D03*
X62205D02*
D03*
D66*
X187402Y9449D02*
D03*
X187008Y187008D02*
D03*
X9843Y186614D02*
D03*
Y108268D02*
D03*
X127953D02*
D03*
Y9843D02*
D03*
X9843D02*
D03*
D67*
X177559Y90945D02*
D03*
X157874D02*
D03*
X177559Y39764D02*
D03*
X157874D02*
D03*
D68*
X177559Y110630D02*
D03*
X157874D02*
D03*
X177559Y59449D02*
D03*
X157874D02*
D03*
D69*
X15748Y31299D02*
D03*
Y86811D02*
D03*
D70*
X38189Y168110D02*
D03*
X23622Y100787D02*
D03*
X14173Y95079D02*
D03*
X10630Y94882D02*
D03*
X2387Y97319D02*
D03*
X8273Y35039D02*
D03*
X150394Y44882D02*
D03*
X8268Y70866D02*
D03*
X69685Y64173D02*
D03*
X19291Y93307D02*
D03*
Y85433D02*
D03*
X9843Y62992D02*
D03*
X4205Y54457D02*
D03*
X6299Y52362D02*
D03*
X42913Y57087D02*
D03*
X182087Y167323D02*
D03*
X167323Y137795D02*
D03*
Y78740D02*
D03*
X182087Y49213D02*
D03*
X137795Y137795D02*
D03*
Y78740D02*
D03*
X108268D02*
D03*
X123031Y49213D02*
D03*
X93504Y167323D02*
D03*
Y49213D02*
D03*
X49213Y137795D02*
D03*
X63976Y49213D02*
D03*
X49213Y19685D02*
D03*
X19685D02*
D03*
X52362Y181496D02*
D03*
X48819Y101102D02*
D03*
X79264Y75197D02*
D03*
X70866Y82825D02*
D03*
X34252Y82677D02*
D03*
X38484Y27559D02*
D03*
X54331Y11713D02*
D03*
X72866Y40551D02*
D03*
X57480Y53051D02*
D03*
X130315Y173276D02*
D03*
X140581Y184261D02*
D03*
X130315Y184133D02*
D03*
X92913Y187795D02*
D03*
X47244Y30512D02*
D03*
X59842Y24016D02*
D03*
X88583Y98032D02*
D03*
X72835Y76575D02*
D03*
X150394Y32283D02*
D03*
M02*
