G04*
G04 #@! TF.GenerationSoftware,Altium Limited,Altium Designer,19.0.10 (269)*
G04*
G04 Layer_Color=16711935*
%FSLAX25Y25*%
%MOIN*%
G70*
G01*
G75*
%ADD14C,0.00394*%
%ADD72R,0.00847X0.03150*%
D14*
X3351Y83347D02*
X8273D01*
X3351Y75473D02*
X8273D01*
Y83347D01*
X3351Y75473D02*
Y83347D01*
X119685Y182696D02*
Y185846D01*
X125984Y182696D02*
Y185846D01*
X119685D02*
X125984D01*
X119685Y182696D02*
X125984D01*
X119685Y171701D02*
Y174851D01*
X125984Y171701D02*
Y174851D01*
X119685D02*
X125984D01*
X119685Y171701D02*
X125984D01*
X27559Y154331D02*
Y157480D01*
X21260Y154331D02*
Y157480D01*
Y154331D02*
X27559D01*
X21260Y157480D02*
X27559D01*
X28642Y144095D02*
Y147244D01*
X22343Y144095D02*
Y147244D01*
Y144095D02*
X28642D01*
X22343Y147244D02*
X28642D01*
X104286Y171653D02*
X110585D01*
X104286Y174803D02*
X110585D01*
Y171653D02*
Y174803D01*
X104286Y171653D02*
Y174803D01*
Y182656D02*
X110585D01*
X104286Y185806D02*
X110585D01*
Y182656D02*
Y185806D01*
X104286Y182656D02*
Y185806D01*
X86659Y182284D02*
X92958D01*
X86659Y185433D02*
X92958D01*
Y182284D02*
Y185433D01*
X86659Y182284D02*
Y185433D01*
X72047Y182244D02*
X78347D01*
X72047Y185394D02*
X78347D01*
Y182244D02*
Y185394D01*
X72047Y182244D02*
Y185394D01*
X36811Y108268D02*
Y114567D01*
X39961Y108268D02*
Y114567D01*
X36811Y108268D02*
X39961D01*
X36811Y114567D02*
X39961D01*
X38386Y99606D02*
X44685D01*
X38386Y102756D02*
X44685D01*
Y99606D02*
Y102756D01*
X38386Y99606D02*
Y102756D01*
Y92520D02*
X44685D01*
X38386Y95669D02*
X44685D01*
Y92520D02*
Y95669D01*
X38386Y92520D02*
Y95669D01*
X78476Y96142D02*
X85366D01*
X78476Y99921D02*
X85366D01*
Y96142D02*
Y99921D01*
X78476Y96142D02*
Y99921D01*
X79165Y77953D02*
X85465D01*
X79165Y81102D02*
X85465D01*
Y77953D02*
Y81102D01*
X79165Y77953D02*
Y81102D01*
X63386Y22441D02*
X69685D01*
X63386Y25591D02*
X69685D01*
Y22441D02*
Y25591D01*
X63386Y22441D02*
Y25591D01*
Y34252D02*
X69685D01*
X63386Y31102D02*
X69685D01*
X63386D02*
Y34252D01*
X69685Y31102D02*
Y34252D01*
X62697Y38661D02*
X69587D01*
X62697Y42441D02*
X69587D01*
Y38661D02*
Y42441D01*
X62697Y38661D02*
Y42441D01*
X36693Y30512D02*
Y37402D01*
X40472Y30512D02*
Y37402D01*
X36693Y30512D02*
X40472D01*
X36693Y37402D02*
X40472D01*
X64567Y6398D02*
X67716D01*
X64567Y12697D02*
X67716D01*
X64567Y6398D02*
Y12697D01*
X67716Y6398D02*
Y12697D01*
X56378Y5610D02*
X60158D01*
X56378Y12500D02*
X60158D01*
X56378Y5610D02*
Y12500D01*
X60158Y5610D02*
Y12500D01*
X66929Y81398D02*
Y84547D01*
X60630Y81398D02*
Y84547D01*
Y81398D02*
X66929D01*
X60630Y84547D02*
X66929D01*
X59547Y62283D02*
Y66063D01*
X66437Y62283D02*
Y66063D01*
X59547D02*
X66437D01*
X59547Y62283D02*
X66437D01*
X53543Y51575D02*
Y54724D01*
X47244Y51575D02*
Y54724D01*
Y51575D02*
X53543D01*
X47244Y54724D02*
X53543D01*
X46555Y33150D02*
Y36929D01*
X53445Y33150D02*
Y36929D01*
X46555D02*
X53445D01*
X46555Y33150D02*
X53445D01*
X79134Y90748D02*
X85433D01*
X79134Y87598D02*
X85433D01*
X79134D02*
Y90748D01*
X85433Y87598D02*
Y90748D01*
D72*
X125561Y184271D02*
D03*
Y173276D02*
D03*
X92534Y183859D02*
D03*
M02*
