G04*
G04 #@! TF.GenerationSoftware,Altium Limited,Altium Designer,18.1.6 (161)*
G04*
G04 Layer_Color=255*
%FSLAX25Y25*%
%MOIN*%
G70*
G01*
G75*
%ADD17R,0.03347X0.03347*%
%ADD18R,0.06102X0.13583*%
%ADD19R,0.03937X0.03543*%
G04:AMPARAMS|DCode=20|XSize=59.06mil|YSize=17.72mil|CornerRadius=4.43mil|HoleSize=0mil|Usage=FLASHONLY|Rotation=270.000|XOffset=0mil|YOffset=0mil|HoleType=Round|Shape=RoundedRectangle|*
%AMROUNDEDRECTD20*
21,1,0.05906,0.00886,0,0,270.0*
21,1,0.05020,0.01772,0,0,270.0*
1,1,0.00886,-0.00443,-0.02510*
1,1,0.00886,-0.00443,0.02510*
1,1,0.00886,0.00443,0.02510*
1,1,0.00886,0.00443,-0.02510*
%
%ADD20ROUNDEDRECTD20*%
%ADD21R,0.01772X0.05906*%
%ADD22R,0.07284X0.05906*%
%ADD23R,0.03347X0.03347*%
%ADD24R,0.03937X0.06693*%
%ADD25R,0.01968X0.01181*%
%ADD26R,0.00787X0.03150*%
%ADD27R,0.09843X0.06693*%
%ADD28R,0.05512X0.07087*%
%ADD29R,0.05906X0.07284*%
%ADD30R,0.06693X0.03937*%
%ADD31R,0.01181X0.01968*%
%ADD32R,0.03150X0.00787*%
%ADD33R,0.03543X0.03937*%
%ADD34R,0.06496X0.15000*%
%ADD35R,0.02402X0.04016*%
%ADD36R,0.02402X0.05000*%
%ADD37R,0.01968X0.03386*%
%ADD38R,0.01968X0.00984*%
%ADD39R,0.03150X0.03150*%
%ADD40R,0.03150X0.03150*%
%ADD41R,0.05906X0.01378*%
G04:AMPARAMS|DCode=42|XSize=13.78mil|YSize=59.06mil|CornerRadius=3.45mil|HoleSize=0mil|Usage=FLASHONLY|Rotation=90.000|XOffset=0mil|YOffset=0mil|HoleType=Round|Shape=RoundedRectangle|*
%AMROUNDEDRECTD42*
21,1,0.01378,0.05217,0,0,90.0*
21,1,0.00689,0.05906,0,0,90.0*
1,1,0.00689,0.02608,0.00345*
1,1,0.00689,0.02608,-0.00345*
1,1,0.00689,-0.02608,-0.00345*
1,1,0.00689,-0.02608,0.00345*
%
%ADD42ROUNDEDRECTD42*%
%ADD43R,0.11024X0.13780*%
%ADD44R,0.08500X0.07000*%
%ADD45R,0.07087X0.03150*%
%ADD46O,0.06299X0.01181*%
%ADD47R,0.06299X0.01181*%
%ADD48R,0.08661X0.05512*%
%ADD49R,0.03543X0.05512*%
%ADD50R,0.21457X0.35433*%
%ADD51R,0.13819X0.20984*%
G04:AMPARAMS|DCode=52|XSize=23.62mil|YSize=39.37mil|CornerRadius=5.91mil|HoleSize=0mil|Usage=FLASHONLY|Rotation=90.000|XOffset=0mil|YOffset=0mil|HoleType=Round|Shape=RoundedRectangle|*
%AMROUNDEDRECTD52*
21,1,0.02362,0.02756,0,0,90.0*
21,1,0.01181,0.03937,0,0,90.0*
1,1,0.01181,0.01378,0.00591*
1,1,0.01181,0.01378,-0.00591*
1,1,0.01181,-0.01378,-0.00591*
1,1,0.01181,-0.01378,0.00591*
%
%ADD52ROUNDEDRECTD52*%
%ADD53R,0.03937X0.02362*%
G04:AMPARAMS|DCode=54|XSize=17.72mil|YSize=57.09mil|CornerRadius=4.43mil|HoleSize=0mil|Usage=FLASHONLY|Rotation=90.000|XOffset=0mil|YOffset=0mil|HoleType=Round|Shape=RoundedRectangle|*
%AMROUNDEDRECTD54*
21,1,0.01772,0.04823,0,0,90.0*
21,1,0.00886,0.05709,0,0,90.0*
1,1,0.00886,0.02411,0.00443*
1,1,0.00886,0.02411,-0.00443*
1,1,0.00886,-0.02411,-0.00443*
1,1,0.00886,-0.02411,0.00443*
%
%ADD54ROUNDEDRECTD54*%
%ADD55R,0.05709X0.01772*%
%ADD56R,0.03937X0.04724*%
%ADD57R,0.01575X0.00984*%
%ADD58R,0.01181X0.03110*%
%ADD59R,0.03937X0.03937*%
%ADD113R,0.06299X0.06299*%
%ADD114C,0.06299*%
%ADD115R,0.05906X0.05906*%
%ADD116C,0.05906*%
%ADD117R,0.06299X0.06299*%
%ADD118C,0.10630*%
%ADD119C,0.02756*%
%ADD120C,0.09843*%
D17*
X149803Y382579D02*
D03*
X143701D02*
D03*
X81693Y52720D02*
D03*
X87795D02*
D03*
X26644Y382579D02*
D03*
X32747D02*
D03*
X85630D02*
D03*
X91732D02*
D03*
X273712Y323893D02*
D03*
X267610D02*
D03*
X267413Y317262D02*
D03*
X273515D02*
D03*
X203740Y382579D02*
D03*
X209842D02*
D03*
X331693D02*
D03*
X337795D02*
D03*
X294154Y135065D02*
D03*
X288052D02*
D03*
X294154Y140315D02*
D03*
X288052D02*
D03*
X284037Y62205D02*
D03*
X290139D02*
D03*
X13145Y314961D02*
D03*
X19247D02*
D03*
X189704Y303642D02*
D03*
X195807D02*
D03*
X431890Y124016D02*
D03*
X437992D02*
D03*
X217180Y13374D02*
D03*
X223282D02*
D03*
X429528Y378546D02*
D03*
X435630D02*
D03*
X370276Y130020D02*
D03*
X364173D02*
D03*
X281555Y18996D02*
D03*
X287657D02*
D03*
X281555Y14567D02*
D03*
X287657D02*
D03*
X383366Y27758D02*
D03*
X389469D02*
D03*
X240074Y48577D02*
D03*
X233971D02*
D03*
X383268Y45276D02*
D03*
X389370D02*
D03*
X405709Y33676D02*
D03*
X411811D02*
D03*
X288150Y129921D02*
D03*
X294253D02*
D03*
X288052Y145508D02*
D03*
X294154D02*
D03*
X267610Y336479D02*
D03*
X273712D02*
D03*
D18*
X187987Y47244D02*
D03*
Y70472D02*
D03*
X227662Y213484D02*
D03*
Y236713D02*
D03*
X127665Y47244D02*
D03*
Y70472D02*
D03*
X259842Y213484D02*
D03*
Y236713D02*
D03*
X129921Y211614D02*
D03*
Y234842D02*
D03*
D19*
X193001Y191791D02*
D03*
Y186476D02*
D03*
X156578Y209783D02*
D03*
Y215098D02*
D03*
X400591Y17224D02*
D03*
Y11909D02*
D03*
X268257Y40053D02*
D03*
Y34738D02*
D03*
X314325Y211024D02*
D03*
Y216339D02*
D03*
X314573Y180118D02*
D03*
Y174803D02*
D03*
X418307Y221804D02*
D03*
Y227119D02*
D03*
Y284399D02*
D03*
Y289714D02*
D03*
X418307Y157402D02*
D03*
Y162716D02*
D03*
X418307Y345079D02*
D03*
Y350394D02*
D03*
X313976Y296358D02*
D03*
Y301673D02*
D03*
X314325Y238583D02*
D03*
Y243898D02*
D03*
X314573Y157319D02*
D03*
Y162634D02*
D03*
X318898Y59115D02*
D03*
Y53800D02*
D03*
X237022Y23624D02*
D03*
Y28939D02*
D03*
X217180Y23624D02*
D03*
Y28939D02*
D03*
X149222Y22736D02*
D03*
Y17421D02*
D03*
X118110Y14764D02*
D03*
Y9449D02*
D03*
X369660Y17224D02*
D03*
Y11909D02*
D03*
X202559Y30906D02*
D03*
Y25591D02*
D03*
X176476Y31236D02*
D03*
Y36551D02*
D03*
X385827Y17323D02*
D03*
Y12008D02*
D03*
X318898Y48451D02*
D03*
Y43136D02*
D03*
X218920Y46266D02*
D03*
Y40951D02*
D03*
X318898Y37396D02*
D03*
Y32081D02*
D03*
Y25951D02*
D03*
Y20636D02*
D03*
X41196Y18898D02*
D03*
Y24213D02*
D03*
X81693Y18898D02*
D03*
Y24213D02*
D03*
D20*
X162929Y209783D02*
D03*
X165488D02*
D03*
X168047D02*
D03*
X170606D02*
D03*
X162929Y232618D02*
D03*
X165488D02*
D03*
X168047D02*
D03*
X180610Y168957D02*
D03*
X183169D02*
D03*
X185728D02*
D03*
X178051Y191791D02*
D03*
X180610D02*
D03*
X183169D02*
D03*
X185728D02*
D03*
D21*
X170606Y232618D02*
D03*
X178051Y168957D02*
D03*
D22*
X379921Y238386D02*
D03*
Y248819D02*
D03*
Y219862D02*
D03*
Y230295D02*
D03*
X379819Y156714D02*
D03*
Y146281D02*
D03*
Y177154D02*
D03*
Y166720D02*
D03*
X464567Y167358D02*
D03*
Y156925D02*
D03*
Y219226D02*
D03*
Y229659D02*
D03*
Y281562D02*
D03*
Y291995D02*
D03*
Y343898D02*
D03*
Y354331D02*
D03*
X378937Y294685D02*
D03*
Y305118D02*
D03*
D23*
X377953Y207285D02*
D03*
Y213387D02*
D03*
X394685Y17323D02*
D03*
Y11220D02*
D03*
X379850Y17224D02*
D03*
Y11122D02*
D03*
X363386Y17224D02*
D03*
Y11122D02*
D03*
X125068Y21457D02*
D03*
Y27559D02*
D03*
X118110D02*
D03*
Y21457D02*
D03*
X111221Y21457D02*
D03*
Y27559D02*
D03*
X461712Y242815D02*
D03*
Y236713D02*
D03*
X461614Y304232D02*
D03*
Y298130D02*
D03*
X461712Y180118D02*
D03*
Y174016D02*
D03*
X461614Y366811D02*
D03*
Y360709D02*
D03*
X377850Y319094D02*
D03*
Y312991D02*
D03*
Y260827D02*
D03*
Y254724D02*
D03*
X169095Y37437D02*
D03*
Y31335D02*
D03*
X176476Y23425D02*
D03*
Y17323D02*
D03*
X377850Y139947D02*
D03*
Y133844D02*
D03*
X408425Y367244D02*
D03*
Y361142D02*
D03*
X389764Y367244D02*
D03*
Y361142D02*
D03*
X277125Y50848D02*
D03*
Y56951D02*
D03*
Y39848D02*
D03*
Y45951D02*
D03*
Y27848D02*
D03*
Y33951D02*
D03*
X261325Y44900D02*
D03*
Y51002D02*
D03*
Y33951D02*
D03*
Y40053D02*
D03*
Y21951D02*
D03*
Y28053D02*
D03*
X169095Y23425D02*
D03*
Y17323D02*
D03*
X34449Y25000D02*
D03*
Y18898D02*
D03*
X74634Y25000D02*
D03*
Y18898D02*
D03*
X303293Y155512D02*
D03*
Y161614D02*
D03*
X377850Y183847D02*
D03*
Y189949D02*
D03*
D24*
X324039Y302658D02*
D03*
Y217323D02*
D03*
X429528Y163701D02*
D03*
Y228104D02*
D03*
Y290768D02*
D03*
Y351378D02*
D03*
X324039Y244882D02*
D03*
Y181102D02*
D03*
Y163701D02*
D03*
D25*
X327582Y299705D02*
D03*
Y301673D02*
D03*
Y303642D02*
D03*
Y305610D02*
D03*
X320496D02*
D03*
Y303642D02*
D03*
Y301673D02*
D03*
Y299705D02*
D03*
X327582Y214370D02*
D03*
Y216339D02*
D03*
Y218307D02*
D03*
Y220276D02*
D03*
X320496D02*
D03*
Y218307D02*
D03*
Y216339D02*
D03*
Y214370D02*
D03*
X433071Y160748D02*
D03*
Y162716D02*
D03*
Y164685D02*
D03*
Y166654D02*
D03*
X425984D02*
D03*
Y164685D02*
D03*
Y162716D02*
D03*
Y160748D02*
D03*
X433071Y225151D02*
D03*
Y227119D02*
D03*
Y229088D02*
D03*
Y231056D02*
D03*
X425984D02*
D03*
Y229088D02*
D03*
Y227119D02*
D03*
Y225151D02*
D03*
X433071Y287815D02*
D03*
Y289784D02*
D03*
Y291752D02*
D03*
Y293721D02*
D03*
X425984D02*
D03*
Y291752D02*
D03*
Y289784D02*
D03*
Y287815D02*
D03*
X433071Y348425D02*
D03*
Y350394D02*
D03*
Y352362D02*
D03*
Y354331D02*
D03*
X425984D02*
D03*
Y352362D02*
D03*
Y350394D02*
D03*
Y348425D02*
D03*
X320496Y241929D02*
D03*
Y243898D02*
D03*
Y245866D02*
D03*
Y247835D02*
D03*
X327582D02*
D03*
Y245866D02*
D03*
Y243898D02*
D03*
Y241929D02*
D03*
X320496Y178150D02*
D03*
Y180118D02*
D03*
Y182087D02*
D03*
Y184055D02*
D03*
X327582D02*
D03*
Y182087D02*
D03*
Y180118D02*
D03*
Y178150D02*
D03*
X320496Y160748D02*
D03*
Y162716D02*
D03*
Y164685D02*
D03*
Y166654D02*
D03*
X327582D02*
D03*
Y164685D02*
D03*
Y162716D02*
D03*
Y160748D02*
D03*
D26*
X326992Y304626D02*
D03*
Y219291D02*
D03*
X432480Y165669D02*
D03*
Y230072D02*
D03*
Y292736D02*
D03*
Y353346D02*
D03*
X326992Y246850D02*
D03*
Y183071D02*
D03*
Y165669D02*
D03*
D27*
X274696Y348799D02*
D03*
X290444D02*
D03*
D28*
X252953Y348425D02*
D03*
X263779D02*
D03*
D29*
X157229Y385827D02*
D03*
X167662D02*
D03*
X97993D02*
D03*
X108426D02*
D03*
X49660Y385827D02*
D03*
X39227D02*
D03*
X226725Y385827D02*
D03*
X216291D02*
D03*
X354149Y385827D02*
D03*
X343716D02*
D03*
D30*
X160219Y329553D02*
D03*
X100054Y350276D02*
D03*
X40211D02*
D03*
X218164D02*
D03*
X345685D02*
D03*
D31*
X163172Y333097D02*
D03*
X161204D02*
D03*
X159235D02*
D03*
X157267D02*
D03*
Y326010D02*
D03*
X159235D02*
D03*
X161204D02*
D03*
X163172D02*
D03*
X103007Y353819D02*
D03*
X101038D02*
D03*
X99070D02*
D03*
X97101D02*
D03*
Y346732D02*
D03*
X99070D02*
D03*
X101038D02*
D03*
X103007D02*
D03*
X43164Y353819D02*
D03*
X41196D02*
D03*
X39227D02*
D03*
X37259D02*
D03*
Y346732D02*
D03*
X39227D02*
D03*
X41196D02*
D03*
X43164D02*
D03*
X221117D02*
D03*
X219148D02*
D03*
X217180D02*
D03*
X215212D02*
D03*
Y353819D02*
D03*
X217180D02*
D03*
X219148D02*
D03*
X221117D02*
D03*
X348638Y346732D02*
D03*
X346669D02*
D03*
X344701D02*
D03*
X342732D02*
D03*
Y353819D02*
D03*
X344701D02*
D03*
X346669D02*
D03*
X348638D02*
D03*
D32*
X158251Y332506D02*
D03*
X98085Y353228D02*
D03*
X38243D02*
D03*
X216196D02*
D03*
X343716D02*
D03*
D33*
X161204Y319882D02*
D03*
X166518D02*
D03*
X46511Y340551D02*
D03*
X41196D02*
D03*
X106353Y340551D02*
D03*
X101038D02*
D03*
X224463Y340551D02*
D03*
X219148D02*
D03*
X351984D02*
D03*
X346669D02*
D03*
X309154Y62008D02*
D03*
X303839D02*
D03*
X383366Y33788D02*
D03*
X388681D02*
D03*
X58780Y34058D02*
D03*
X53465D02*
D03*
X99732Y33366D02*
D03*
X94417D02*
D03*
X383366Y40201D02*
D03*
X388681D02*
D03*
X405709Y39848D02*
D03*
X411024D02*
D03*
D34*
X229975Y166339D02*
D03*
X239070D02*
D03*
X204901Y264347D02*
D03*
X195807D02*
D03*
X239070Y102024D02*
D03*
X229975D02*
D03*
D35*
X227023Y174626D02*
D03*
X232023D02*
D03*
X237022D02*
D03*
X242022D02*
D03*
X207854Y272635D02*
D03*
X202854D02*
D03*
X197854D02*
D03*
X192854D02*
D03*
X242022Y110311D02*
D03*
X237022D02*
D03*
X232023D02*
D03*
X227023D02*
D03*
D36*
X242022Y153110D02*
D03*
X237022D02*
D03*
X232023D02*
D03*
X227023D02*
D03*
X192854Y251119D02*
D03*
X197854D02*
D03*
X202854D02*
D03*
X207854D02*
D03*
X227023Y88795D02*
D03*
X232023D02*
D03*
X237022D02*
D03*
X242022D02*
D03*
D37*
X227121Y27758D02*
D03*
D38*
X229975Y28939D02*
D03*
Y26577D02*
D03*
X224306D02*
D03*
Y28939D02*
D03*
D39*
X468209Y236909D02*
D03*
Y242815D02*
D03*
Y298327D02*
D03*
Y304232D02*
D03*
X401677Y367244D02*
D03*
Y361339D02*
D03*
X396457Y367244D02*
D03*
Y361339D02*
D03*
X384543Y139764D02*
D03*
Y133858D02*
D03*
X384646Y189961D02*
D03*
Y184055D02*
D03*
Y260827D02*
D03*
Y254921D02*
D03*
X384240Y213191D02*
D03*
Y207285D02*
D03*
X468504Y180118D02*
D03*
Y174213D02*
D03*
Y366811D02*
D03*
Y360906D02*
D03*
X384842Y319094D02*
D03*
Y313188D02*
D03*
D40*
X32550Y389469D02*
D03*
X26644D02*
D03*
X91535D02*
D03*
X85630D02*
D03*
X364095Y125000D02*
D03*
X370001D02*
D03*
X331693Y389574D02*
D03*
X337598D02*
D03*
X273515Y330947D02*
D03*
X267610D02*
D03*
X203740Y389574D02*
D03*
X209646D02*
D03*
X143701D02*
D03*
X149606D02*
D03*
D41*
X303695Y149445D02*
D03*
D42*
Y147476D02*
D03*
Y145508D02*
D03*
Y143539D02*
D03*
Y141571D02*
D03*
Y139602D02*
D03*
Y137634D02*
D03*
Y135665D02*
D03*
X324955Y149445D02*
D03*
Y147476D02*
D03*
Y145508D02*
D03*
Y143539D02*
D03*
Y141571D02*
D03*
Y139602D02*
D03*
Y137634D02*
D03*
Y135665D02*
D03*
D43*
X314325Y142555D02*
D03*
D44*
X47632Y315354D02*
D03*
Y299354D02*
D03*
X68010Y53150D02*
D03*
Y69150D02*
D03*
D45*
X356299Y89764D02*
D03*
Y28346D02*
D03*
D46*
X349213Y82677D02*
D03*
Y80709D02*
D03*
Y78740D02*
D03*
Y76772D02*
D03*
Y74803D02*
D03*
Y72835D02*
D03*
Y70866D02*
D03*
Y68898D02*
D03*
Y66929D02*
D03*
Y64961D02*
D03*
Y62992D02*
D03*
Y61024D02*
D03*
Y59055D02*
D03*
Y57087D02*
D03*
Y55118D02*
D03*
Y53150D02*
D03*
Y51181D02*
D03*
Y49213D02*
D03*
Y47244D02*
D03*
Y45276D02*
D03*
Y43307D02*
D03*
Y41339D02*
D03*
Y39370D02*
D03*
Y37402D02*
D03*
Y35433D02*
D03*
X363386D02*
D03*
Y37402D02*
D03*
Y39370D02*
D03*
Y41339D02*
D03*
Y43307D02*
D03*
Y45276D02*
D03*
Y47244D02*
D03*
Y49213D02*
D03*
Y51181D02*
D03*
Y53150D02*
D03*
Y55118D02*
D03*
Y57087D02*
D03*
Y59055D02*
D03*
Y61024D02*
D03*
Y62992D02*
D03*
Y64961D02*
D03*
Y66929D02*
D03*
Y68898D02*
D03*
Y70866D02*
D03*
Y72835D02*
D03*
Y74803D02*
D03*
Y76772D02*
D03*
Y78740D02*
D03*
Y80709D02*
D03*
D47*
Y82677D02*
D03*
D48*
X230034Y40945D02*
D03*
D49*
X240074D02*
D03*
D50*
X202982Y132242D02*
D03*
X160462D02*
D03*
D51*
X158452Y264347D02*
D03*
X174593D02*
D03*
D52*
X194193Y30906D02*
D03*
Y23425D02*
D03*
X183366D02*
D03*
Y27165D02*
D03*
X99732Y26378D02*
D03*
Y18898D02*
D03*
X88905D02*
D03*
Y22638D02*
D03*
X59055Y26378D02*
D03*
Y18898D02*
D03*
X48228D02*
D03*
Y22638D02*
D03*
X142082Y22736D02*
D03*
Y15256D02*
D03*
X131255D02*
D03*
Y18996D02*
D03*
D53*
X183366Y30906D02*
D03*
X88905Y26378D02*
D03*
X48228D02*
D03*
X131255Y22736D02*
D03*
D54*
X309154Y25951D02*
D03*
Y28451D02*
D03*
Y30951D02*
D03*
Y33451D02*
D03*
Y35951D02*
D03*
Y38451D02*
D03*
Y40951D02*
D03*
Y43451D02*
D03*
Y45951D02*
D03*
Y48451D02*
D03*
Y50951D02*
D03*
Y53451D02*
D03*
X287697Y25951D02*
D03*
Y28451D02*
D03*
Y30951D02*
D03*
Y33451D02*
D03*
Y35951D02*
D03*
Y38451D02*
D03*
Y40951D02*
D03*
Y43451D02*
D03*
Y45951D02*
D03*
Y48451D02*
D03*
Y50951D02*
D03*
D55*
Y53451D02*
D03*
D56*
X287205Y334589D02*
D03*
D57*
X285827Y338231D02*
D03*
X288386D02*
D03*
X290945D02*
D03*
Y330947D02*
D03*
X288386D02*
D03*
X285827D02*
D03*
D58*
X291299Y334589D02*
D03*
D59*
X243628Y32848D02*
D03*
X327203Y41511D02*
D03*
D113*
X364173Y305118D02*
D03*
X448819Y229659D02*
D03*
Y291995D02*
D03*
X21260Y147638D02*
D03*
Y73228D02*
D03*
X364173Y247835D02*
D03*
Y177165D02*
D03*
X448819Y354331D02*
D03*
Y167323D02*
D03*
X19685Y251969D02*
D03*
D114*
X364173Y291339D02*
D03*
X346063D02*
D03*
Y305118D02*
D03*
X446339Y206037D02*
D03*
Y239501D02*
D03*
X448819Y215879D02*
D03*
X446339Y268373D02*
D03*
Y301837D02*
D03*
X448819Y278215D02*
D03*
X121707Y367363D02*
D03*
X88243D02*
D03*
X111865Y369843D02*
D03*
X62849Y367363D02*
D03*
X29385D02*
D03*
X53007Y369843D02*
D03*
X39370Y188976D02*
D03*
X21260D02*
D03*
Y161417D02*
D03*
Y175197D02*
D03*
X39370D02*
D03*
Y161417D02*
D03*
Y147638D02*
D03*
Y114567D02*
D03*
X21260D02*
D03*
Y87008D02*
D03*
Y100787D02*
D03*
X39370D02*
D03*
Y87008D02*
D03*
Y73228D02*
D03*
X346063Y247835D02*
D03*
Y234055D02*
D03*
Y220276D02*
D03*
X364173D02*
D03*
Y234055D02*
D03*
X157141Y351870D02*
D03*
X170920D02*
D03*
Y369980D02*
D03*
X346063Y177165D02*
D03*
Y163386D02*
D03*
Y149606D02*
D03*
X364173D02*
D03*
Y163386D02*
D03*
X357496Y369843D02*
D03*
X333874Y367363D02*
D03*
X367338D02*
D03*
X302443Y369094D02*
D03*
X288663D02*
D03*
X448819Y340551D02*
D03*
X446339Y364173D02*
D03*
Y330709D02*
D03*
X229975Y369843D02*
D03*
X206353Y367363D02*
D03*
X239818D02*
D03*
X446339Y143701D02*
D03*
Y177165D02*
D03*
X448819Y153543D02*
D03*
X19685Y279528D02*
D03*
Y265748D02*
D03*
D115*
X413543Y378546D02*
D03*
D116*
X403543D02*
D03*
D117*
X98085Y369843D02*
D03*
X39227D02*
D03*
X157141Y369980D02*
D03*
X343716Y369843D02*
D03*
X274883Y369094D02*
D03*
X216196Y369843D02*
D03*
D118*
X463189Y383858D02*
D03*
X9843D02*
D03*
X344488Y108268D02*
D03*
X462598D02*
D03*
Y9843D02*
D03*
X344488D02*
D03*
X9843D02*
D03*
D119*
X350394Y86811D02*
D03*
Y31299D02*
D03*
D120*
X127665Y124409D02*
D03*
X74634D02*
D03*
X127665Y137795D02*
D03*
X74634D02*
D03*
Y272635D02*
D03*
X127665D02*
D03*
X74634Y259249D02*
D03*
X127665D02*
D03*
M02*
