G04*
G04 #@! TF.GenerationSoftware,Altium Limited,Altium Designer,18.1.6 (161)*
G04*
G04 Layer_Physical_Order=2*
G04 Layer_Color=32768*
%FSLAX25Y25*%
%MOIN*%
G70*
G01*
G75*
%ADD122C,0.04000*%
%ADD123C,0.13055*%
%ADD124C,0.08016*%
%ADD125C,0.07150*%
%ADD126C,0.14630*%
%ADD127C,0.06756*%
%ADD128C,0.10299*%
%ADD129C,0.05181*%
D122*
X0Y0D02*
Y393701D01*
Y0D02*
X472441Y-0D01*
X472441Y393701D02*
X472441Y-0D01*
X0Y393701D02*
X472441Y393701D01*
D123*
X351654Y281496D02*
D03*
Y314961D02*
D03*
X446339Y206037D02*
D03*
Y239501D02*
D03*
Y268373D02*
D03*
Y301837D02*
D03*
X121707Y367363D02*
D03*
X88243D02*
D03*
X62849D02*
D03*
X29385D02*
D03*
X33779Y137795D02*
D03*
Y198819D02*
D03*
Y63386D02*
D03*
Y124409D02*
D03*
X351654Y210433D02*
D03*
Y257677D02*
D03*
X147298Y357460D02*
D03*
X180763D02*
D03*
X351654Y139764D02*
D03*
Y187008D02*
D03*
X333874Y367363D02*
D03*
X367338D02*
D03*
X312285Y366614D02*
D03*
X265041D02*
D03*
X446339Y364173D02*
D03*
Y330709D02*
D03*
X206353Y367363D02*
D03*
X239818D02*
D03*
X446339Y143701D02*
D03*
Y177165D02*
D03*
X22165Y289370D02*
D03*
Y242126D02*
D03*
D124*
X364173Y305118D02*
D03*
X346063D02*
D03*
X448819Y229659D02*
D03*
Y291995D02*
D03*
X98085Y369843D02*
D03*
X39227D02*
D03*
X39370Y188976D02*
D03*
X21260Y147638D02*
D03*
X39370Y175197D02*
D03*
Y161417D02*
D03*
Y147638D02*
D03*
Y114567D02*
D03*
X21260Y73228D02*
D03*
X39370Y100787D02*
D03*
Y87008D02*
D03*
Y73228D02*
D03*
X346063Y247835D02*
D03*
Y234055D02*
D03*
Y220276D02*
D03*
X157141Y351870D02*
D03*
Y369980D02*
D03*
X346063Y177165D02*
D03*
Y163386D02*
D03*
Y149606D02*
D03*
X343716Y369843D02*
D03*
X288663Y369094D02*
D03*
X274883D02*
D03*
X448819Y354331D02*
D03*
X216196Y369843D02*
D03*
X448819Y167323D02*
D03*
X19685Y265748D02*
D03*
Y251969D02*
D03*
D125*
X403543Y378546D02*
D03*
D126*
X463189Y383858D02*
D03*
X9843D02*
D03*
X344488Y108268D02*
D03*
X462598D02*
D03*
Y9843D02*
D03*
X344488D02*
D03*
X9843D02*
D03*
D127*
X350394Y86811D02*
D03*
Y31299D02*
D03*
D128*
X127665Y124409D02*
D03*
X74634D02*
D03*
X127665Y137795D02*
D03*
X74634D02*
D03*
Y272635D02*
D03*
X127665D02*
D03*
X74634Y259249D02*
D03*
X127665D02*
D03*
D129*
X251575Y227362D02*
D03*
X269075Y242362D02*
D03*
X249075Y252362D02*
D03*
X229522Y252519D02*
D03*
X274075Y232362D02*
D03*
X271575Y247362D02*
D03*
X251575D02*
D03*
X222416D02*
D03*
X241575Y237362D02*
D03*
X244075Y232362D02*
D03*
X246575Y237362D02*
D03*
X239523Y252519D02*
D03*
X264075Y232362D02*
D03*
X271575Y227362D02*
D03*
X269075Y252362D02*
D03*
X232023Y247519D02*
D03*
X241575Y227362D02*
D03*
X219916Y252362D02*
D03*
X241575Y247362D02*
D03*
X261575D02*
D03*
X259075Y252362D02*
D03*
X266575Y237362D02*
D03*
X261575Y227362D02*
D03*
X271575Y237362D02*
D03*
X274075Y242362D02*
D03*
X244075D02*
D03*
X212598Y122047D02*
D03*
X216535Y125984D02*
D03*
X212598Y159449D02*
D03*
Y149606D02*
D03*
Y139764D02*
D03*
Y129921D02*
D03*
X275590Y116142D02*
D03*
Y106299D02*
D03*
Y96457D02*
D03*
X212598Y114173D02*
D03*
Y104331D02*
D03*
Y94488D02*
D03*
X267717Y171260D02*
D03*
Y161417D02*
D03*
Y151575D02*
D03*
Y141732D02*
D03*
Y131890D02*
D03*
Y122047D02*
D03*
Y112205D02*
D03*
Y102362D02*
D03*
X275590Y157480D02*
D03*
Y147638D02*
D03*
Y137795D02*
D03*
Y127953D02*
D03*
Y167323D02*
D03*
Y177165D02*
D03*
Y187008D02*
D03*
Y196850D02*
D03*
Y206693D02*
D03*
X216535Y98425D02*
D03*
Y108268D02*
D03*
Y118110D02*
D03*
X236221Y187008D02*
D03*
X216535Y157480D02*
D03*
X226378Y177165D02*
D03*
X216535Y187008D02*
D03*
Y167323D02*
D03*
Y177165D02*
D03*
X226378Y187008D02*
D03*
Y196850D02*
D03*
X406085Y13949D02*
D03*
X408366Y11086D02*
D03*
X168047Y222047D02*
D03*
X165488Y225844D02*
D03*
X177953Y264347D02*
D03*
X154176D02*
D03*
X207854Y65655D02*
D03*
Y191791D02*
D03*
X162929Y153986D02*
D03*
Y165374D02*
D03*
X198580Y14018D02*
D03*
X259751Y80092D02*
D03*
X260827Y91535D02*
D03*
X251969Y96457D02*
D03*
X255906D02*
D03*
X218920Y64960D02*
D03*
Y59055D02*
D03*
X327173Y45417D02*
D03*
X299451Y50848D02*
D03*
X322834Y52165D02*
D03*
X294291Y56827D02*
D03*
X313976Y43451D02*
D03*
X324143Y173008D02*
D03*
X325955Y169968D02*
D03*
X322672D02*
D03*
X319825D02*
D03*
X312160Y142324D02*
D03*
X316491Y142555D02*
D03*
X312160Y146886D02*
D03*
X318898Y145669D02*
D03*
X314961Y166891D02*
D03*
X316491Y138224D02*
D03*
X312160D02*
D03*
X311250Y162634D02*
D03*
X234646Y146221D02*
D03*
X238583Y83661D02*
D03*
X220472Y154926D02*
D03*
X219291Y139602D02*
D03*
X224009Y88583D02*
D03*
X240158Y80709D02*
D03*
X236221Y143701D02*
D03*
X238189Y139764D02*
D03*
X236221Y80709D02*
D03*
X238189Y76772D02*
D03*
X232284Y143701D02*
D03*
X234252Y139764D02*
D03*
Y76772D02*
D03*
X228347Y143701D02*
D03*
X230315Y139764D02*
D03*
X228347Y80709D02*
D03*
X230315Y76772D02*
D03*
X226378Y147638D02*
D03*
X224410Y143701D02*
D03*
X226378Y139764D02*
D03*
X224410Y80709D02*
D03*
X226378Y76772D02*
D03*
X220473Y151575D02*
D03*
X222441Y147638D02*
D03*
X220473Y143701D02*
D03*
X222441Y139764D02*
D03*
X220473Y88583D02*
D03*
X222441Y84646D02*
D03*
X220473Y80709D02*
D03*
X222441Y76772D02*
D03*
X255906Y112205D02*
D03*
X257874Y108268D02*
D03*
X255906Y104331D02*
D03*
X257874Y100394D02*
D03*
X251969Y112205D02*
D03*
X253937Y108268D02*
D03*
X251969Y104331D02*
D03*
X253937Y100394D02*
D03*
X248032Y112205D02*
D03*
X250000Y108268D02*
D03*
X248032Y104331D02*
D03*
X250000Y100394D02*
D03*
X248032Y96457D02*
D03*
X246063Y108268D02*
D03*
X244095Y104331D02*
D03*
X246063Y100394D02*
D03*
X244095Y96457D02*
D03*
X255906Y175197D02*
D03*
X257874Y171260D02*
D03*
X255906Y167323D02*
D03*
X257874Y163386D02*
D03*
X255906Y159449D02*
D03*
X251969Y175197D02*
D03*
X253937Y171260D02*
D03*
X251969Y167323D02*
D03*
X253937Y163386D02*
D03*
X251969Y159449D02*
D03*
X248032Y175197D02*
D03*
X250000Y171260D02*
D03*
X248032Y167323D02*
D03*
X250000Y163386D02*
D03*
X248032Y159449D02*
D03*
X246063Y171260D02*
D03*
X244095Y167323D02*
D03*
X246063Y163386D02*
D03*
X244095Y159449D02*
D03*
X303936Y333464D02*
D03*
X322834Y37402D02*
D03*
X299605Y45099D02*
D03*
X293755Y62008D02*
D03*
X322474Y48451D02*
D03*
X338659Y25514D02*
D03*
X354330Y49526D02*
D03*
X422933Y378546D02*
D03*
X291088Y389075D02*
D03*
X408425Y389035D02*
D03*
Y370866D02*
D03*
X402746Y49213D02*
D03*
X405512Y299547D02*
D03*
X326598Y25951D02*
D03*
X269685Y21595D02*
D03*
X274883Y16831D02*
D03*
X277559Y18701D02*
D03*
X218920Y50197D02*
D03*
X330873Y51333D02*
D03*
X342732Y58903D02*
D03*
X356299Y63468D02*
D03*
X341535Y333568D02*
D03*
X418725Y45951D02*
D03*
X242249Y29001D02*
D03*
X299857Y151575D02*
D03*
X374016Y56102D02*
D03*
X381327Y186843D02*
D03*
X381161Y210336D02*
D03*
X464763Y239764D02*
D03*
X354459Y57087D02*
D03*
X315944Y69882D02*
D03*
X393701Y299213D02*
D03*
X213635Y235535D02*
D03*
X310197Y333568D02*
D03*
X316412Y306102D02*
D03*
X209646Y385827D02*
D03*
X35006Y340978D02*
D03*
X94999Y340551D02*
D03*
X316412Y221269D02*
D03*
X352953Y5906D02*
D03*
X394685Y8117D02*
D03*
X357496Y6419D02*
D03*
X359939Y11220D02*
D03*
X195866Y10827D02*
D03*
X280659Y40121D02*
D03*
X353780Y72835D02*
D03*
X422244Y292441D02*
D03*
X342768Y343228D02*
D03*
X341256Y340551D02*
D03*
X408425Y333661D02*
D03*
X395364Y70262D02*
D03*
X411811Y17978D02*
D03*
X401452Y33676D02*
D03*
X358267Y56102D02*
D03*
Y61023D02*
D03*
X290987Y18996D02*
D03*
X376083Y11122D02*
D03*
X380807Y345472D02*
D03*
Y330389D02*
D03*
Y312991D02*
D03*
Y254724D02*
D03*
X380892Y133844D02*
D03*
X464566Y174212D02*
D03*
Y298228D02*
D03*
X464882Y360709D02*
D03*
X337795Y385827D02*
D03*
X32747Y385728D02*
D03*
X91732D02*
D03*
X149803Y385728D02*
D03*
X245282Y88569D02*
D03*
X243628Y40945D02*
D03*
X210659Y48608D02*
D03*
X357516Y47061D02*
D03*
X310421Y301673D02*
D03*
X415354Y70880D02*
D03*
X418423Y166339D02*
D03*
X396292Y333600D02*
D03*
X426460Y74339D02*
D03*
X423228Y76772D02*
D03*
X418307Y355897D02*
D03*
Y295700D02*
D03*
Y232319D02*
D03*
X265188Y51002D02*
D03*
X206353Y55118D02*
D03*
X183787Y225151D02*
D03*
X399580Y45951D02*
D03*
X343887Y43307D02*
D03*
X409449Y53715D02*
D03*
X399738Y51181D02*
D03*
X370435Y69006D02*
D03*
X354861Y66730D02*
D03*
X371260Y36111D02*
D03*
X310405Y243898D02*
D03*
X310547Y216339D02*
D03*
X317436Y183858D02*
D03*
X311024Y180118D02*
D03*
X405511Y64960D02*
D03*
X97441Y343504D02*
D03*
X170606Y205025D02*
D03*
X202559Y47002D02*
D03*
X11738Y37396D02*
D03*
X300882Y38451D02*
D03*
X303293Y43451D02*
D03*
X356003Y70262D02*
D03*
X357496Y77236D02*
D03*
X358268Y40152D02*
D03*
X149204Y33380D02*
D03*
X103150Y18898D02*
D03*
X142082Y12259D02*
D03*
X210459Y251119D02*
D03*
X197854Y247047D02*
D03*
X232023Y148622D02*
D03*
X245296Y153110D02*
D03*
X232023Y83661D02*
D03*
X103311Y33366D02*
D03*
X62047Y34058D02*
D03*
X59055Y21555D02*
D03*
X215212Y340551D02*
D03*
X215704Y343504D02*
D03*
X156282Y322835D02*
D03*
X157633Y319882D02*
D03*
X37554Y343504D02*
D03*
X315944Y248031D02*
D03*
X422244Y353346D02*
D03*
X423100Y165374D02*
D03*
Y229777D02*
D03*
X178051Y197096D02*
D03*
X196496Y191791D02*
D03*
X152449Y209783D02*
D03*
X271654Y40053D02*
D03*
X263779Y317262D02*
D03*
M02*
