M48
;Layer_Color=9474304
;FILE_FORMAT=2:5
INCH,TZ
;TYPE=PLATED
T2F00S00C0.03937
T3F00S00C0.04000
T5F00S00C0.04016
T6F00S00C0.04016
T7F00S00C0.04500
T8F00S00C0.06142
T9F00S00C0.07300
T10F00S00C0.09055
T11F00S00C0.09055
T12F00S00C0.10630
%
T02
X215158Y25000
X223425
X229921Y30020
X244291
X258661
X265158Y25000
X273425
Y58268
X265158
X223425
X215158
T03
X294800Y99000
X294900Y110900
X307000Y111000
Y99000
X350005Y153543
Y165543
X362205
Y153543
X57087Y153354
Y165354
X30609Y209166
X30512Y111315
Y99415
X30709Y220866
T05
X295189Y209000
X307000
X78000Y261000
Y274780
X342890
Y261000
X361000
Y274780
X307000Y220811
X295189
T06
X310701Y197189
X310701Y232622
Y303378
X307000Y315189
Y327000
X295189
Y315189
Y338811
X307000
Y350622
X295189
X310701Y362433
T07
X310500Y87300
Y122700
X365705Y141843
Y177243
X38609Y197266
Y232666
T08
X224410Y43307
X233465
X255118
X264173
T09
X124480Y57000
X162000
T10
X355410Y251157
Y284622
T11
X80480Y251157
Y284622
T12
X15748Y15748
X377953
Y377953
X15748
M30
